<?xml version="1.0" encoding="UTF-8"?>
<!DOCTYPE svg PUBLIC "-//W3C//DTD SVG 1.1//EN" "http://www.w3.org/Graphics/SVG/1.1/DTD/svg11.dtd">
<svg xmlns="http://www.w3.org/2000/svg" version="1.1" width="300px" height="125px" style="shape-rendering:geometricPrecision; text-rendering:geometricPrecision; image-rendering:optimizeQuality; fill-rule:evenodd; clip-rule:evenodd" xmlns:xlink="http://www.w3.org/1999/xlink">
<g><path style="opacity:1" fill="#0c0c0f" d="M -0.5,-0.5 C 99.5,-0.5 199.5,-0.5 299.5,-0.5C 299.5,39.5 299.5,79.5 299.5,119.5C 297.457,120.579 296.124,122.246 295.5,124.5C 294.833,124.5 294.167,124.5 293.5,124.5C 293.915,100.802 293.415,77.1353 292,53.5C 289.58,48.2542 287.413,42.9208 285.5,37.5C 287.27,35.2873 287.603,32.954 286.5,30.5C 285.719,31.7287 285.219,33.062 285,34.5C 281.533,32.2828 281.699,30.4494 285.5,29C 283.965,28.5038 282.465,28.6705 281,29.5C 279.699,28.9019 278.865,27.9019 278.5,26.5C 282.313,25.8329 285.979,25.1663 289.5,24.5C 289.5,21.1667 289.5,17.8333 289.5,14.5C 278.833,14.5 268.167,14.5 257.5,14.5C 256.837,16.0419 256.17,17.7086 255.5,19.5C 254.817,19.1373 254.15,18.8039 253.5,18.5C 253.714,16.8561 253.38,15.3561 252.5,14C 246.843,13.5006 241.176,13.3339 235.5,13.5C 233.552,12.8688 231.719,11.8688 230,10.5C 228.246,12.25 226.079,12.9167 223.5,12.5C 223.719,11.325 223.386,10.325 222.5,9.5C 218.924,9.90696 215.258,9.90696 211.5,9.5C 211.649,10.552 211.483,11.552 211,12.5C 208.356,10.6294 205.856,8.62937 203.5,6.5C 202.264,7.24585 200.93,7.57918 199.5,7.5C 199.5,6.16667 199.5,4.83333 199.5,3.5C 186.985,4.11939 174.652,3.45272 162.5,1.5C 161.893,1.62358 161.56,1.95691 161.5,2.5C 160.609,3.10978 159.609,3.44312 158.5,3.5C 149.499,4.09506 140.499,5.09506 131.5,6.5C 132.057,8.23516 132.39,9.90183 132.5,11.5C 130.235,12.6474 127.902,12.8141 125.5,12C 124.864,9.22546 123.364,7.05879 121,5.5C 120.13,6.1079 119.63,6.94123 119.5,8C 120.885,9.59713 121.551,11.4305 121.5,13.5C 117.393,12.8496 113.893,13.8496 111,16.5C 107.927,15.3832 104.76,15.2165 101.5,16C 100.944,16.3826 100.611,16.8826 100.5,17.5C 100.5,18.5 100.5,19.5 100.5,20.5C 98.442,19.176 96.7753,19.676 95.5,22C 93.7818,22.346 92.1151,22.846 90.5,23.5C 89.914,23.2907 89.414,22.9574 89,22.5C 86.2192,26.1437 83.0526,26.4771 79.5,23.5C 77.7236,27.1386 75.3903,27.472 72.5,24.5C 70.694,25.8587 69.194,25.5254 68,23.5C 66.0073,25.8175 64.8406,28.4842 64.5,31.5C 63.5,31.5 62.5,31.5 61.5,31.5C 61.6495,30.448 61.4828,29.448 61,28.5C 58.9662,29.7434 58.1329,31.2434 58.5,33C 57.6683,33.6877 57.0016,33.521 56.5,32.5C 58.2849,28.8479 57.6182,25.8479 54.5,23.5C 53.4066,25.7697 51.9066,26.103 50,24.5C 48.662,25.5061 47.3287,26.5061 46,27.5C 45.6667,27.1667 45.3333,26.8333 45,26.5C 44.4644,28.5672 44.9644,30.4006 46.5,32C 44.7265,32.8808 44.0598,34.0475 44.5,35.5C 42.5302,34.5569 41.0302,35.2236 40,37.5C 37.6262,34.7124 36.2929,35.0458 36,38.5C 35,37.1667 34,37.1667 33,38.5C 32.6532,36.8198 31.6532,35.8198 30,35.5C 28.4329,36.8561 26.5996,37.5228 24.5,37.5C 24.3259,39.861 23.9926,42.1944 23.5,44.5C 20.5182,44.8273 17.6849,44.8273 15,44.5C 13.0451,47.4376 13.2117,50.2709 15.5,53C 14.6634,54.0113 14.33,55.1779 14.5,56.5C 13.5,56.5 12.5,56.5 11.5,56.5C 10.2882,55.8027 10.1215,58.8027 11,65.5C 11.813,63.5643 12.313,61.5643 12.5,59.5C 13.675,59.281 14.675,59.6143 15.5,60.5C 14.6906,62.0709 14.3573,63.7376 14.5,65.5C 15.552,65.3505 16.552,65.5172 17.5,66C 16.1387,67.5843 15.472,69.4176 15.5,71.5C 13.8212,71.2852 12.8212,71.9519 12.5,73.5C 12.5,74.1667 12.1667,74.5 11.5,74.5C 10.6745,78.9819 10.1745,83.6486 10,88.5C 7.595,89.2744 5.095,89.7744 2.5,90C 7.96768,89.1461 10.4677,91.3128 10,96.5C 8.42996,97.3578 6.76329,98.0245 5,98.5C 3.01904,97.3498 1.18571,96.0165 -0.5,94.5C -0.5,62.8333 -0.5,31.1667 -0.5,-0.5 Z"/></g>
<g><path style="opacity:1" fill="#100e10" d="M 161.5,2.5 C 161.56,1.95691 161.893,1.62358 162.5,1.5C 174.652,3.45272 186.985,4.11939 199.5,3.5C 199.5,4.83333 199.5,6.16667 199.5,7.5C 200.93,7.57918 202.264,7.24585 203.5,6.5C 205.856,8.62937 208.356,10.6294 211,12.5C 211.483,11.552 211.649,10.552 211.5,9.5C 215.258,9.90696 218.924,9.90696 222.5,9.5C 223.386,10.325 223.719,11.325 223.5,12.5C 226.079,12.9167 228.246,12.25 230,10.5C 231.719,11.8688 233.552,12.8688 235.5,13.5C 234.167,13.5 232.833,13.5 231.5,13.5C 231.5,17.1667 231.5,20.8333 231.5,24.5C 238.833,24.5 246.167,24.5 253.5,24.5C 253.5,22.5 253.5,20.5 253.5,18.5C 254.15,18.8039 254.817,19.1373 255.5,19.5C 256.17,17.7086 256.837,16.0419 257.5,14.5C 257.5,17.8333 257.5,21.1667 257.5,24.5C 268.167,24.5 278.833,24.5 289.5,24.5C 285.979,25.1663 282.313,25.8329 278.5,26.5C 278.865,27.9019 279.699,28.9019 281,29.5C 282.465,28.6705 283.965,28.5038 285.5,29C 281.699,30.4494 281.533,32.2828 285,34.5C 285.219,33.062 285.719,31.7287 286.5,30.5C 287.603,32.954 287.27,35.2873 285.5,37.5C 287.413,42.9208 289.58,48.2542 292,53.5C 293.415,77.1353 293.915,100.802 293.5,124.5C 288.5,124.5 283.5,124.5 278.5,124.5C 280.626,106.747 283.292,89.0803 286.5,71.5C 281.844,73.1598 277.177,74.8264 272.5,76.5C 270.989,75.4975 269.322,74.8308 267.5,74.5C 267.666,69.8215 267.499,65.1548 267,60.5C 266.459,57.791 264.959,55.791 262.5,54.5C 262.931,53.7065 263.265,52.8732 263.5,52C 262.817,47.7818 261.151,44.1151 258.5,41C 259.641,38.2978 258.641,36.6311 255.5,36C 256.833,35.6667 258.167,35.3333 259.5,35C 257.559,34.6964 255.893,33.8631 254.5,32.5C 252.566,32.9005 251.066,33.9005 250,35.5C 249.333,31.5 248.667,31.5 248,35.5C 238.303,30.935 228.136,27.7684 217.5,26C 218.696,25.3457 218.696,24.8457 217.5,24.5C 216.228,25.046 214.894,25.3793 213.5,25.5C 205.189,25.2135 197.022,24.2135 189,22.5C 178.048,24.1888 167.048,25.5222 156,26.5C 154.862,26.0109 153.695,25.6775 152.5,25.5C 150.409,26.8654 148.076,27.5321 145.5,27.5C 144.833,27.1667 144.167,26.8333 143.5,26.5C 141.621,25.6586 139.621,25.3253 137.5,25.5C 136.596,26.209 136.263,27.209 136.5,28.5C 133.529,29.0671 130.695,30.0671 128,31.5C 124.893,31.0469 121.893,31.0469 119,31.5C 118.517,32.448 118.351,33.448 118.5,34.5C 111.804,33.5906 105.804,35.0906 100.5,39C 97.8333,39.3333 95.1667,39.6667 92.5,40C 90.2174,41.871 87.7174,43.371 85,44.5C 84.2571,46.4406 84.4238,48.2739 85.5,50C 82.6602,51.9243 79.9936,54.091 77.5,56.5C 76.7065,56.9312 75.8732,57.2645 75,57.5C 73.0786,55.9972 70.912,55.3305 68.5,55.5C 68.1667,51.5 67.8333,51.5 67.5,55.5C 65.4727,55.3379 63.4727,55.5045 61.5,56C 62.448,56.4828 63.448,56.6495 64.5,56.5C 66.2145,59.8988 65.7145,62.8988 63,65.5C 62.474,61.3379 61.474,57.3379 60,53.5C 59.8078,55.5767 59.3078,57.5767 58.5,59.5C 57.5,58.8333 56.5,58.1667 55.5,57.5C 55.1667,57.8333 54.8333,58.1667 54.5,58.5C 56.5819,59.3656 57.9152,60.8656 58.5,63C 58.1566,65.5655 56.99,66.3988 55,65.5C 54.6667,67.5 54.3333,69.5 54,71.5C 52.8011,68.2744 52.3011,64.941 52.5,61.5C 51.5,61.5 50.5,61.5 49.5,61.5C 49.5,65.5 49.5,69.5 49.5,73.5C 48.5,73.5 47.5,73.5 46.5,73.5C 46.6567,72.1266 46.49,70.7932 46,69.5C 45.5045,71.4727 45.3379,73.4727 45.5,75.5C 44.8333,74.1667 44.1667,72.8333 43.5,71.5C 42.8333,71.5 42.1667,71.5 41.5,71.5C 41.1667,71.5 40.8333,71.5 40.5,71.5C 39.5,71.5 38.5,71.5 37.5,71.5C 37.5,72.5 37.5,73.5 37.5,74.5C 37.1667,74.5 36.8333,74.5 36.5,74.5C 34.5,74.5 32.5,74.5 30.5,74.5C 29.5,73.1667 28.5,73.1667 27.5,74.5C 26.5,74.5 25.5,74.5 24.5,74.5C 24.5,73.5 24.5,72.5 24.5,71.5C 23.5,71.5 22.5,71.5 21.5,71.5C 21.5,74.8333 21.5,78.1667 21.5,81.5C 22.5,81.5 23.5,81.5 24.5,81.5C 24.5,79.8333 24.5,78.1667 24.5,76.5C 26.0276,77.8021 27.0276,79.4687 27.5,81.5C 27.5,84.5 27.5,87.5 27.5,90.5C 26.8333,90.5 26.1667,90.5 25.5,90.5C 24.391,90.5569 23.391,90.8902 22.5,91.5C 19.3046,90.764 15.9713,90.0973 12.5,89.5C 11.2021,91.0517 11.5354,92.0517 13.5,92.5C 15.8234,93.0584 18.1568,93.7251 20.5,94.5C 20.1373,95.1835 19.8039,95.8501 19.5,96.5C 16.8127,96.3359 14.146,96.5026 11.5,97C 12.0465,97.9246 12.7132,98.7579 13.5,99.5C 15.6552,99.162 17.9885,99.162 20.5,99.5C 20.5,102.833 20.5,106.167 20.5,109.5C 17.5,109.5 14.5,109.5 11.5,109.5C 10.5128,114.305 10.1795,119.305 10.5,124.5C 6.83333,124.5 3.16667,124.5 -0.5,124.5C -0.5,114.5 -0.5,104.5 -0.5,94.5C 1.18571,96.0165 3.01904,97.3498 5,98.5C 6.76329,98.0245 8.42996,97.3578 10,96.5C 10.4677,91.3128 7.96768,89.1461 2.5,90C 5.095,89.7744 7.595,89.2744 10,88.5C 10.1745,83.6486 10.6745,78.9819 11.5,74.5C 11.1619,79.6646 13.4953,81.8313 18.5,81C 20.2603,80.0347 20.5937,78.868 19.5,77.5C 18.1502,78.9501 16.4835,79.6168 14.5,79.5C 14.5,77.8333 14.5,76.1667 14.5,74.5C 16.5116,75.0138 18.5116,75.1805 20.5,75C 18.2284,72.379 15.5618,71.879 12.5,73.5C 12.8212,71.9519 13.8212,71.2852 15.5,71.5C 15.472,69.4176 16.1387,67.5843 17.5,66C 16.552,65.5172 15.552,65.3505 14.5,65.5C 14.3573,63.7376 14.6906,62.0709 15.5,60.5C 14.675,59.6143 13.675,59.281 12.5,59.5C 12.313,61.5643 11.813,63.5643 11,65.5C 10.1215,58.8027 10.2882,55.8027 11.5,56.5C 12.5,56.5 13.5,56.5 14.5,56.5C 14.33,55.1779 14.6634,54.0113 15.5,53C 13.2117,50.2709 13.0451,47.4376 15,44.5C 17.6849,44.8273 20.5182,44.8273 23.5,44.5C 23.9926,42.1944 24.3259,39.861 24.5,37.5C 26.5996,37.5228 28.4329,36.8561 30,35.5C 31.6532,35.8198 32.6532,36.8198 33,38.5C 34,37.1667 35,37.1667 36,38.5C 36.2929,35.0458 37.6262,34.7124 40,37.5C 41.0302,35.2236 42.5302,34.5569 44.5,35.5C 44.0598,34.0475 44.7265,32.8808 46.5,32C 44.9644,30.4006 44.4644,28.5672 45,26.5C 45.3333,26.8333 45.6667,27.1667 46,27.5C 47.3287,26.5061 48.662,25.5061 50,24.5C 51.9066,26.103 53.4066,25.7697 54.5,23.5C 57.6182,25.8479 58.2849,28.8479 56.5,32.5C 57.0016,33.521 57.6683,33.6877 58.5,33C 58.1329,31.2434 58.9662,29.7434 61,28.5C 61.4828,29.448 61.6495,30.448 61.5,31.5C 62.5,31.5 63.5,31.5 64.5,31.5C 64.8406,28.4842 66.0073,25.8175 68,23.5C 69.194,25.5254 70.694,25.8587 72.5,24.5C 75.3903,27.472 77.7236,27.1386 79.5,23.5C 83.0526,26.4771 86.2192,26.1437 89,22.5C 89.414,22.9574 89.914,23.2907 90.5,23.5C 92.1151,22.846 93.7818,22.346 95.5,22C 96.7753,19.676 98.442,19.176 100.5,20.5C 111.041,20.114 111.041,19.114 100.5,17.5C 100.611,16.8826 100.944,16.3826 101.5,16C 104.76,15.2165 107.927,15.3832 111,16.5C 113.893,13.8496 117.393,12.8496 121.5,13.5C 121.551,11.4305 120.885,9.59713 119.5,8C 119.63,6.94123 120.13,6.1079 121,5.5C 123.364,7.05879 124.864,9.22546 125.5,12C 127.902,12.8141 130.235,12.6474 132.5,11.5C 132.39,9.90183 132.057,8.23516 131.5,6.5C 140.499,5.09506 149.499,4.09506 158.5,3.5C 158.611,4.11742 158.944,4.61742 159.5,5C 153.843,5.49942 148.176,5.66609 142.5,5.5C 142.181,10.3633 142.514,15.03 143.5,19.5C 142.506,22.3992 143.506,23.0659 146.5,21.5C 146.5,22.1667 146.833,22.5 147.5,22.5C 151.5,22.5 155.5,22.5 159.5,22.5C 159.817,18.2984 159.483,14.2984 158.5,10.5C 159.449,8.22275 160.782,6.22275 162.5,4.5C 162.457,3.58362 162.124,2.91695 161.5,2.5 Z"/></g>
<g><path style="opacity:1" fill="#3f3d3f" d="M 147.5,21.5 C 147.5,21.8333 147.5,22.1667 147.5,22.5C 146.833,22.5 146.5,22.1667 146.5,21.5C 148.386,17.6009 150.719,13.9343 153.5,10.5C 152.998,9.47899 152.332,9.31232 151.5,10C 150.167,12.1906 148.5,14.024 146.5,15.5C 146.703,13.9557 147.37,12.6223 148.5,11.5C 147.132,10.4063 145.965,10.7397 145,12.5C 144.506,10.8659 144.34,9.19919 144.5,7.5C 148.555,7.17575 152.555,7.50909 156.5,8.5C 153.737,13.0366 150.737,17.3699 147.5,21.5 Z"/></g>
<g><path style="opacity:1" fill="#555456" d="M 235.5,13.5 C 241.176,13.3339 246.843,13.5006 252.5,14C 253.38,15.3561 253.714,16.8561 253.5,18.5C 253.5,20.5 253.5,22.5 253.5,24.5C 246.167,24.5 238.833,24.5 231.5,24.5C 231.5,20.8333 231.5,17.1667 231.5,13.5C 232.833,13.5 234.167,13.5 235.5,13.5 Z"/></g>
<g><path style="opacity:1" fill="#e2202c" d="M 257.5,14.5 C 268.167,14.5 278.833,14.5 289.5,14.5C 289.5,17.8333 289.5,21.1667 289.5,24.5C 278.833,24.5 268.167,24.5 257.5,24.5C 257.5,21.1667 257.5,17.8333 257.5,14.5 Z"/></g>
<g><path style="opacity:1" fill="#e2e1e1" d="M 146.5,21.5 C 143.506,23.0659 142.506,22.3992 143.5,19.5C 145.262,18.7377 146.262,17.4044 146.5,15.5C 148.5,14.024 150.167,12.1906 151.5,10C 152.332,9.31232 152.998,9.47899 153.5,10.5C 150.719,13.9343 148.386,17.6009 146.5,21.5 Z"/></g>
<g><path style="opacity:1" fill="#141214" d="M 232.5,15.5 C 239.167,15.5 245.833,15.5 252.5,15.5C 252.5,18.1667 252.5,20.8333 252.5,23.5C 245.833,23.5 239.167,23.5 232.5,23.5C 232.5,20.8333 232.5,18.1667 232.5,15.5 Z"/></g>
<g><path style="opacity:1" fill="#e9e9e9" d="M 161.5,2.5 C 162.124,2.91695 162.457,3.58362 162.5,4.5C 160.782,6.22275 159.449,8.22275 158.5,10.5C 158.371,13.8567 158.371,17.5234 158.5,21.5C 154.833,21.5 151.167,21.5 147.5,21.5C 150.737,17.3699 153.737,13.0366 156.5,8.5C 152.555,7.50909 148.555,7.17575 144.5,7.5C 144.34,9.19919 144.506,10.8659 145,12.5C 145.965,10.7397 147.132,10.4063 148.5,11.5C 147.37,12.6223 146.703,13.9557 146.5,15.5C 144.738,16.2623 143.738,17.5956 143.5,19.5C 142.514,15.03 142.181,10.3633 142.5,5.5C 148.176,5.66609 153.843,5.49942 159.5,5C 158.944,4.61742 158.611,4.11742 158.5,3.5C 159.609,3.44312 160.609,3.10978 161.5,2.5 Z"/></g>
<g><path style="opacity:1" fill="#565356" d="M 146.5,15.5 C 146.262,17.4044 145.262,18.7377 143.5,19.5C 143.738,17.5956 144.738,16.2623 146.5,15.5 Z"/></g>
<g><path style="opacity:1" fill="#1c1a1c" d="M 155.5,13.5 C 156.461,15.2646 156.795,17.2646 156.5,19.5C 154.801,19.6602 153.134,19.4935 151.5,19C 153.439,17.5679 154.772,15.7346 155.5,13.5 Z"/></g>
<g><path style="opacity:1" fill="#636062" d="M 15.5,18.5 C 17.7767,17.629 20.11,17.9623 22.5,19.5C 20.784,19.9972 19.1173,20.3306 17.5,20.5C 16.8182,19.7573 16.1515,19.0906 15.5,18.5 Z"/></g>
<g><path style="opacity:1" fill="#656365" d="M 53.5,17.5 C 56.3941,18.1731 58.7275,19.0065 60.5,20C 60.3333,20.5 60.1667,21 60,21.5C 57.9592,20.5769 55.7925,20.2436 53.5,20.5C 53.5,19.5 53.5,18.5 53.5,17.5 Z"/></g>
<g><path style="opacity:1" fill="#676466" d="M 84.5,18.5 C 85.9778,18.238 87.3112,18.5713 88.5,19.5C 87.8333,19.8333 87.1667,20.1667 86.5,20.5C 85.2867,20.2528 84.62,19.5862 84.5,18.5 Z"/></g>
<g><path style="opacity:1" fill="#f2898f" d="M 263.5,17.5 C 271.35,19.0732 271.35,20.0732 263.5,20.5C 263.5,19.5 263.5,18.5 263.5,17.5 Z"/></g>
<g><path style="opacity:1" fill="#636063" d="M 23.5,17.5 C 29.4497,17.4241 35.4497,18.0908 41.5,19.5C 40.2643,20.3567 38.931,21.0234 37.5,21.5C 32.745,20.2618 28.0783,19.9285 23.5,20.5C 23.5,19.5 23.5,18.5 23.5,17.5 Z"/></g>
<g><path style="opacity:1" fill="#6c6a6c" d="M 72.5,18.5 C 76.0445,18.465 79.7112,18.7983 83.5,19.5C 81.6667,19.8333 79.8333,20.1667 78,20.5C 75.7047,20.4535 73.8714,19.7868 72.5,18.5 Z"/></g>
<g><path style="opacity:1" fill="#585558" d="M 100.5,17.5 C 111.041,19.114 111.041,20.114 100.5,20.5C 100.5,19.5 100.5,18.5 100.5,17.5 Z"/></g>
<g><path style="opacity:1" fill="#6a6769" d="M 109.5,17.5 C 113.828,18.0464 118.162,18.7131 122.5,19.5C 118.171,20.3602 114.005,20.6936 110,20.5C 109.517,19.552 109.351,18.552 109.5,17.5 Z"/></g>
<g><path style="opacity:1" fill="#636062" d="M 198.5,17.5 C 217.068,19.1464 217.068,20.1464 198.5,20.5C 198.5,19.5 198.5,18.5 198.5,17.5 Z"/></g>
<g><path style="opacity:1" fill="#757375" d="M 239.5,18.5 C 242.247,18.1866 244.914,18.52 247.5,19.5C 245.892,20.3184 244.225,20.9851 242.5,21.5C 240.787,21.1207 239.787,20.1207 239.5,18.5 Z"/></g>
<g><path style="opacity:1" fill="#f18a91" d="M 270.5,17.5 C 274.828,18.0464 279.162,18.7131 283.5,19.5C 279.171,20.3602 275.005,20.6936 271,20.5C 270.517,19.552 270.351,18.552 270.5,17.5 Z"/></g>
<g><path style="opacity:1" fill="#7a797a" d="M 158.5,10.5 C 159.483,14.2984 159.817,18.2984 159.5,22.5C 155.5,22.5 151.5,22.5 147.5,22.5C 147.5,22.1667 147.5,21.8333 147.5,21.5C 151.167,21.5 154.833,21.5 158.5,21.5C 158.371,17.5234 158.371,13.8567 158.5,10.5 Z"/></g>
<g><path style="opacity:1" fill="#150f12" d="M 272.5,76.5 C 267.469,79.3446 262.136,81.6779 256.5,83.5C 252.862,81.0049 252.529,78.0049 255.5,74.5C 254.921,72.3848 254.088,70.3848 253,68.5C 252.746,63.5258 251.913,58.6924 250.5,54C 251.167,53.6667 251.833,53.3333 252.5,53C 248.44,50.4085 244.106,48.5751 239.5,47.5C 240.006,52.6997 239.673,55.6997 238.5,56.5C 235.5,56.5 232.5,56.5 229.5,56.5C 229.5,55.5 229.5,54.5 229.5,53.5C 231.355,53.728 232.188,53.0613 232,51.5C 230.644,50.6198 229.144,50.2865 227.5,50.5C 227.5,49.5 227.5,48.5 227.5,47.5C 220.222,43.2889 212.389,39.9556 204,37.5C 202.188,37.4934 200.688,38.16 199.5,39.5C 194.621,39.3657 189.455,39.0324 184,38.5C 175.474,42.1365 166.64,43.4698 157.5,42.5C 156.614,43.325 156.281,44.325 156.5,45.5C 150.591,46.7985 144.591,47.4652 138.5,47.5C 138.5,48.5 138.5,49.5 138.5,50.5C 136.5,50.5 134.5,50.5 132.5,50.5C 132.5,51.5 132.5,52.5 132.5,53.5C 129.5,53.5 126.5,53.5 123.5,53.5C 123.5,54.5 123.5,55.5 123.5,56.5C 118.643,58.1164 113.643,59.1164 108.5,59.5C 108.338,61.8244 107.172,63.4911 105,64.5C 104.586,64.0426 104.086,63.7093 103.5,63.5C 101.954,64.684 100.287,65.684 98.5,66.5C 98.7093,67.086 99.0426,67.586 99.5,68C 97.765,68.6514 96.0983,68.4847 94.5,67.5C 92.8689,69.2974 90.8689,70.4641 88.5,71C 89.3805,71.7083 90.0472,72.5416 90.5,73.5C 88.9064,73.0805 87.4064,72.4138 86,71.5C 85.2352,71.5699 84.7352,71.9033 84.5,72.5C 84.0133,73.4734 83.5133,74.4734 83,75.5C 82.0922,73.5614 80.5922,72.5614 78.5,72.5C 76.4471,72.4021 74.7804,73.0687 73.5,74.5C 71.302,74.1201 69.6354,74.7868 68.5,76.5C 68.1667,76.5 67.8333,76.5 67.5,76.5C 65.2067,73.9411 62.7067,73.9411 60,76.5C 57.8646,74.7215 55.3646,74.0548 52.5,74.5C 51.8333,74.5 51.1667,74.5 50.5,74.5C 48.7085,74.366 47.0418,74.6993 45.5,75.5C 45.3379,73.4727 45.5045,71.4727 46,69.5C 46.49,70.7932 46.6567,72.1266 46.5,73.5C 47.5,73.5 48.5,73.5 49.5,73.5C 49.5,69.5 49.5,65.5 49.5,61.5C 50.5,61.5 51.5,61.5 52.5,61.5C 52.3011,64.941 52.8011,68.2744 54,71.5C 54.3333,69.5 54.6667,67.5 55,65.5C 56.99,66.3988 58.1566,65.5655 58.5,63C 57.9152,60.8656 56.5819,59.3656 54.5,58.5C 54.8333,58.1667 55.1667,57.8333 55.5,57.5C 56.5,58.1667 57.5,58.8333 58.5,59.5C 59.3078,57.5767 59.8078,55.5767 60,53.5C 61.474,57.3379 62.474,61.3379 63,65.5C 65.7145,62.8988 66.2145,59.8988 64.5,56.5C 63.448,56.6495 62.448,56.4828 61.5,56C 63.4727,55.5045 65.4727,55.3379 67.5,55.5C 67.8333,51.5 68.1667,51.5 68.5,55.5C 70.912,55.3305 73.0786,55.9972 75,57.5C 75.8732,57.2645 76.7065,56.9312 77.5,56.5C 79.9936,54.091 82.6602,51.9243 85.5,50C 84.4238,48.2739 84.2571,46.4406 85,44.5C 87.7174,43.371 90.2174,41.871 92.5,40C 95.1667,39.6667 97.8333,39.3333 100.5,39C 105.804,35.0906 111.804,33.5906 118.5,34.5C 118.351,33.448 118.517,32.448 119,31.5C 121.893,31.0469 124.893,31.0469 128,31.5C 130.695,30.0671 133.529,29.0671 136.5,28.5C 136.263,27.209 136.596,26.209 137.5,25.5C 137.187,28.2469 137.52,30.9135 138.5,33.5C 139.251,32.624 139.751,31.624 140,30.5C 141.039,31.7101 142.206,32.7101 143.5,33.5C 144.167,33.5 144.833,33.5 145.5,33.5C 145.833,33.5 146.167,33.5 146.5,33.5C 146.196,34.1499 145.863,34.8165 145.5,35.5C 147.246,36.3953 149.08,37.062 151,37.5C 155.253,37.4599 159.42,37.4599 163.5,37.5C 163.473,35.8007 162.806,34.4674 161.5,33.5C 163.647,32.0679 163.98,30.2345 162.5,28C 159.281,28.3477 156.114,28.5144 153,28.5C 152.517,27.552 152.351,26.552 152.5,25.5C 153.695,25.6775 154.862,26.0109 156,26.5C 167.048,25.5222 178.048,24.1888 189,22.5C 197.022,24.2135 205.189,25.2135 213.5,25.5C 214.894,25.3793 216.228,25.046 217.5,24.5C 218.696,24.8457 218.696,25.3457 217.5,26C 228.136,27.7684 238.303,30.935 248,35.5C 248.667,31.5 249.333,31.5 250,35.5C 251.066,33.9005 252.566,32.9005 254.5,32.5C 255.893,33.8631 257.559,34.6964 259.5,35C 258.167,35.3333 256.833,35.6667 255.5,36C 258.641,36.6311 259.641,38.2978 258.5,41C 261.151,44.1151 262.817,47.7818 263.5,52C 263.265,52.8732 262.931,53.7065 262.5,54.5C 264.959,55.791 266.459,57.791 267,60.5C 267.499,65.1548 267.666,69.8215 267.5,74.5C 269.322,74.8308 270.989,75.4975 272.5,76.5 Z"/></g>
<g><path style="opacity:1" fill="#d4d2d3" d="M 137.5,25.5 C 139.621,25.3253 141.621,25.6586 143.5,26.5C 143.737,27.791 143.404,28.791 142.5,29.5C 142.833,30.8333 143.167,32.1667 143.5,33.5C 142.206,32.7101 141.039,31.7101 140,30.5C 139.751,31.624 139.251,32.624 138.5,33.5C 137.52,30.9135 137.187,28.2469 137.5,25.5 Z"/></g>
<g><path style="opacity:1" fill="#3b383a" d="M 142.5,29.5 C 141.325,29.719 140.325,29.3857 139.5,28.5C 141.052,27.2021 142.052,27.5354 142.5,29.5 Z"/></g>
<g><path style="opacity:1" fill="#a9a7a8" d="M 152.5,25.5 C 152.351,26.552 152.517,27.552 153,28.5C 156.114,28.5144 159.281,28.3477 162.5,28C 163.98,30.2345 163.647,32.0679 161.5,33.5C 156.543,33.0213 151.543,33.0213 146.5,33.5C 146.167,33.5 145.833,33.5 145.5,33.5C 144.167,31.5 144.167,29.5 145.5,27.5C 148.076,27.5321 150.409,26.8654 152.5,25.5 Z"/></g>
<g><path style="opacity:1" fill="#1f1c1e" d="M 145.5,29.5 C 146.675,29.281 147.675,29.6143 148.5,30.5C 146.948,31.7979 145.948,31.4646 145.5,29.5 Z"/></g>
<g><path style="opacity:1" fill="#6c686a" d="M 143.5,26.5 C 144.167,26.8333 144.833,27.1667 145.5,27.5C 144.167,29.5 144.167,31.5 145.5,33.5C 144.833,33.5 144.167,33.5 143.5,33.5C 143.167,32.1667 142.833,30.8333 142.5,29.5C 143.404,28.791 143.737,27.791 143.5,26.5 Z"/></g>
<g><path style="opacity:1" fill="#2d272a" d="M 161.5,33.5 C 162.806,34.4674 163.473,35.8007 163.5,37.5C 159.42,37.4599 155.253,37.4599 151,37.5C 149.08,37.062 147.246,36.3953 145.5,35.5C 145.863,34.8165 146.196,34.1499 146.5,33.5C 151.543,33.0213 156.543,33.0213 161.5,33.5 Z"/></g>
<g><path style="opacity:1" fill="#1c1013" d="M 256.5,83.5 C 252.134,86.0116 247.467,88.0116 242.5,89.5C 241.182,80.2948 241.182,70.9614 242.5,61.5C 242.154,60.3044 241.654,60.3044 241,61.5C 238.411,67.6892 235.078,73.3559 231,78.5C 230.228,78.3552 229.561,78.0219 229,77.5C 228.501,71.8431 228.334,66.1764 228.5,60.5C 227.5,60.5 226.5,60.5 225.5,60.5C 220.017,46.0184 209.684,40.8517 194.5,45C 188.261,46.9546 182.261,49.288 176.5,52C 173.87,52.8446 171.536,52.3446 169.5,50.5C 168.092,52.5074 166.592,54.5074 165,56.5C 164.397,53.0945 163.231,52.7612 161.5,55.5C 159.955,56.4519 158.288,56.7852 156.5,56.5C 156.719,57.675 156.386,58.675 155.5,59.5C 152.583,58.9338 149.583,58.9338 146.5,59.5C 145.692,62.47 143.692,64.3034 140.5,65C 139.874,65.7504 139.374,66.5838 139,67.5C 138.667,67.1667 138.333,66.8333 138,66.5C 137.632,67.91 136.799,68.91 135.5,69.5C 134.534,71.396 134.201,73.396 134.5,75.5C 133.127,75.6567 131.793,75.49 130.5,75C 131.8,73.4212 131.466,72.2545 129.5,71.5C 127.027,71.0882 125.694,72.0882 125.5,74.5C 124.596,73.791 124.263,72.791 124.5,71.5C 123.5,71.5 122.5,71.5 121.5,71.5C 121.5,73.1667 121.5,74.8333 121.5,76.5C 121.167,76.5 120.833,76.5 120.5,76.5C 118.5,73.8333 116.5,73.8333 114.5,76.5C 114.167,76.5 113.833,76.5 113.5,76.5C 112.365,74.7868 110.698,74.1201 108.5,74.5C 107.833,74.5 107.167,74.5 106.5,74.5C 105.167,74.5 103.833,74.5 102.5,74.5C 101.833,74.5 101.167,74.5 100.5,74.5C 99.0014,75.6782 98.0014,77.3449 97.5,79.5C 96.9986,77.3449 95.9986,75.6782 94.5,74.5C 93.2921,73.7659 91.9587,73.4326 90.5,73.5C 90.0472,72.5416 89.3805,71.7083 88.5,71C 90.8689,70.4641 92.8689,69.2974 94.5,67.5C 96.0983,68.4847 97.765,68.6514 99.5,68C 99.0426,67.586 98.7093,67.086 98.5,66.5C 100.287,65.684 101.954,64.684 103.5,63.5C 104.086,63.7093 104.586,64.0426 105,64.5C 107.172,63.4911 108.338,61.8244 108.5,59.5C 113.643,59.1164 118.643,58.1164 123.5,56.5C 123.5,55.5 123.5,54.5 123.5,53.5C 126.5,53.5 129.5,53.5 132.5,53.5C 132.5,52.5 132.5,51.5 132.5,50.5C 134.5,50.5 136.5,50.5 138.5,50.5C 138.5,49.5 138.5,48.5 138.5,47.5C 144.591,47.4652 150.591,46.7985 156.5,45.5C 156.281,44.325 156.614,43.325 157.5,42.5C 166.64,43.4698 175.474,42.1365 184,38.5C 189.455,39.0324 194.621,39.3657 199.5,39.5C 200.688,38.16 202.188,37.4934 204,37.5C 212.389,39.9556 220.222,43.2889 227.5,47.5C 227.5,48.5 227.5,49.5 227.5,50.5C 229.144,50.2865 230.644,50.6198 232,51.5C 232.188,53.0613 231.355,53.728 229.5,53.5C 229.5,54.5 229.5,55.5 229.5,56.5C 232.5,56.5 235.5,56.5 238.5,56.5C 239.673,55.6997 240.006,52.6997 239.5,47.5C 244.106,48.5751 248.44,50.4085 252.5,53C 251.833,53.3333 251.167,53.6667 250.5,54C 251.913,58.6924 252.746,63.5258 253,68.5C 254.088,70.3848 254.921,72.3848 255.5,74.5C 252.529,78.0049 252.862,81.0049 256.5,83.5 Z"/></g>
<g><path style="opacity:1" fill="#221214" d="M 225.5,60.5 C 224.167,60.5 222.833,60.5 221.5,60.5C 219.781,56.6099 217.448,53.1099 214.5,50C 199.69,44.0642 188.023,47.8975 179.5,61.5C 178.675,62.3857 177.675,62.719 176.5,62.5C 176.5,61.5 176.5,60.5 176.5,59.5C 172.808,60.0287 172.142,61.5287 174.5,64C 171.208,65.1978 168.208,66.0311 165.5,66.5C 167.423,67.3078 169.423,67.8078 171.5,68C 169.89,69.4947 168.224,69.6613 166.5,68.5C 165.148,70.6364 163.482,70.9698 161.5,69.5C 160.538,72.8789 159.205,76.0455 157.5,79C 158.448,79.4828 159.448,79.6495 160.5,79.5C 160.333,82.401 159.667,84.7343 158.5,86.5C 157.914,86.2907 157.414,85.9574 157,85.5C 153.886,89.6813 152.052,89.0147 151.5,83.5C 150.158,85.0049 148.492,85.6715 146.5,85.5C 146.24,89.3533 146.074,93.02 146,96.5C 144.855,95.3157 143.688,95.3157 142.5,96.5C 141.25,96.5774 140.417,97.244 140,98.5C 136.506,96.623 132.673,95.9564 128.5,96.5C 128.5,97.5 128.5,98.5 128.5,99.5C 130.824,99.0051 132.991,99.0051 135,99.5C 135.945,99.0946 136.612,98.428 137,97.5C 138.401,99.1922 140.234,99.8588 142.5,99.5C 141.554,100.931 140.388,102.264 139,103.5C 138.667,102.833 138.333,102.167 138,101.5C 137.59,102.901 137.09,104.234 136.5,105.5C 133.833,105.833 131.167,106.167 128.5,106.5C 128.001,104.109 127.668,101.776 127.5,99.5C 126.58,96.1244 126.247,92.791 126.5,89.5C 124.568,90.5202 122.568,90.6869 120.5,90C 124.226,88.9568 123.893,88.4568 119.5,88.5C 119.5,86.8333 119.5,85.1667 119.5,83.5C 117.517,83.8432 116.183,83.1765 115.5,81.5C 121.176,81.0525 121.509,80.2192 116.5,79C 118.437,78.8784 119.77,78.045 120.5,76.5C 120.833,76.5 121.167,76.5 121.5,76.5C 121.5,78.1667 121.5,79.8333 121.5,81.5C 122.5,81.5 123.5,81.5 124.5,81.5C 124.216,79.5853 124.549,77.9187 125.5,76.5C 125.215,78.288 125.548,79.9547 126.5,81.5C 127.173,79.3113 128.173,77.3113 129.5,75.5C 128.975,74.8076 128.308,74.3076 127.5,74C 128.756,73.5831 129.423,72.7498 129.5,71.5C 131.466,72.2545 131.8,73.4212 130.5,75C 131.793,75.49 133.127,75.6567 134.5,75.5C 134.201,73.396 134.534,71.396 135.5,69.5C 136.799,68.91 137.632,67.91 138,66.5C 138.333,66.8333 138.667,67.1667 139,67.5C 139.374,66.5838 139.874,65.7504 140.5,65C 143.692,64.3034 145.692,62.47 146.5,59.5C 149.583,58.9338 152.583,58.9338 155.5,59.5C 156.386,58.675 156.719,57.675 156.5,56.5C 158.288,56.7852 159.955,56.4519 161.5,55.5C 163.231,52.7612 164.397,53.0945 165,56.5C 166.592,54.5074 168.092,52.5074 169.5,50.5C 171.536,52.3446 173.87,52.8446 176.5,52C 182.261,49.288 188.261,46.9546 194.5,45C 209.684,40.8517 220.017,46.0184 225.5,60.5 Z"/></g>
<g><path style="opacity:1" fill="#291115" d="M 221.5,60.5 C 220.167,60.5 218.833,60.5 217.5,60.5C 216.768,56.2215 214.435,53.0549 210.5,51C 200.62,48.345 192.454,50.845 186,58.5C 184.683,64.784 181.85,70.284 177.5,75C 175.888,75.7203 174.388,75.5536 173,74.5C 172.692,75.3081 172.192,75.9747 171.5,76.5C 168.65,75.0719 167.65,75.7386 168.5,78.5C 169.451,77.6744 170.451,77.5078 171.5,78C 171.167,78.3333 170.833,78.6667 170.5,79C 174.99,83.4186 173.99,86.2519 167.5,87.5C 168.167,88.1667 168.833,88.8333 169.5,89.5C 167.704,90.1414 166.204,91.1414 165,92.5C 163.612,91.4464 162.112,91.2797 160.5,92C 156.446,92.9291 152.446,94.5958 148.5,97C 148.736,98.4509 148.736,99.9509 148.5,101.5C 144.624,103.137 140.624,104.471 136.5,105.5C 137.09,104.234 137.59,102.901 138,101.5C 138.333,102.167 138.667,102.833 139,103.5C 140.388,102.264 141.554,100.931 142.5,99.5C 142.5,98.5 142.5,97.5 142.5,96.5C 143.688,95.3157 144.855,95.3157 146,96.5C 146.074,93.02 146.24,89.3533 146.5,85.5C 148.492,85.6715 150.158,85.0049 151.5,83.5C 152.052,89.0147 153.886,89.6813 157,85.5C 157.414,85.9574 157.914,86.2907 158.5,86.5C 159.667,84.7343 160.333,82.401 160.5,79.5C 159.448,79.6495 158.448,79.4828 157.5,79C 159.205,76.0455 160.538,72.8789 161.5,69.5C 163.482,70.9698 165.148,70.6364 166.5,68.5C 168.224,69.6613 169.89,69.4947 171.5,68C 169.423,67.8078 167.423,67.3078 165.5,66.5C 168.208,66.0311 171.208,65.1978 174.5,64C 172.142,61.5287 172.808,60.0287 176.5,59.5C 176.5,60.5 176.5,61.5 176.5,62.5C 177.675,62.719 178.675,62.3857 179.5,61.5C 188.023,47.8975 199.69,44.0642 214.5,50C 217.448,53.1099 219.781,56.6099 221.5,60.5 Z"/></g>
<g><path style="opacity:1" fill="#3d171e" d="M 206.5,55.5 C 213.687,58.3681 218.021,63.7014 219.5,71.5C 218.754,72.7362 218.421,74.0695 218.5,75.5C 221.47,75.7458 222.803,77.4124 222.5,80.5C 223.833,80.5 225.167,80.5 226.5,80.5C 226.44,84.3273 227.607,84.994 230,82.5C 230.563,83.7248 230.23,84.7248 229,85.5C 228.502,88.8168 228.335,92.1501 228.5,95.5C 227.571,96.3149 226.571,97.1482 225.5,98C 229.375,102.043 233.375,105.877 237.5,109.5C 233.814,114.236 230.147,118.903 226.5,123.5C 225.326,122.486 224.66,121.153 224.5,119.5C 223.739,106.848 223.405,94.1815 223.5,81.5C 220.43,81.3677 217.43,81.701 214.5,82.5C 211.359,81.6787 208.025,81.1787 204.5,81C 202.916,77.0805 200.25,74.0805 196.5,72C 198.141,70.871 199.141,69.371 199.5,67.5C 200.885,66.4264 202.051,65.0931 203,63.5C 203.495,65.4727 203.662,67.4727 203.5,69.5C 204.5,69.5 205.5,69.5 206.5,69.5C 206.5,64.8333 206.5,60.1667 206.5,55.5 Z"/></g>
<g><path style="opacity:1" fill="#929192" d="M 24.5,74.5 C 23.7784,74.0825 23.2784,73.4158 23,72.5C 22.3333,75.1667 22.3333,77.8333 23,80.5C 23.21,78.9419 23.71,77.6085 24.5,76.5C 24.5,78.1667 24.5,79.8333 24.5,81.5C 23.5,81.5 22.5,81.5 21.5,81.5C 21.5,78.1667 21.5,74.8333 21.5,71.5C 22.5,71.5 23.5,71.5 24.5,71.5C 24.5,72.5 24.5,73.5 24.5,74.5 Z"/></g>
<g><path style="opacity:1" fill="#a9a7a9" d="M 40.5,71.5 C 40.5,74.8333 40.5,78.1667 40.5,81.5C 39.5,81.5 38.5,81.5 37.5,81.5C 37.5,79.1667 37.5,76.8333 37.5,74.5C 37.5,73.5 37.5,72.5 37.5,71.5C 38.5,71.5 39.5,71.5 40.5,71.5 Z"/></g>
<g><path style="opacity:1" fill="#9d989a" d="M 125.5,74.5 C 125.5,75.1667 125.5,75.8333 125.5,76.5C 124.549,77.9187 124.216,79.5853 124.5,81.5C 123.5,81.5 122.5,81.5 121.5,81.5C 121.5,79.8333 121.5,78.1667 121.5,76.5C 121.5,74.8333 121.5,73.1667 121.5,71.5C 122.5,71.5 123.5,71.5 124.5,71.5C 124.263,72.791 124.596,73.791 125.5,74.5 Z"/></g>
<g><path style="opacity:1" fill="#dfddde" d="M 129.5,71.5 C 129.423,72.7498 128.756,73.5831 127.5,74C 128.308,74.3076 128.975,74.8076 129.5,75.5C 128.173,77.3113 127.173,79.3113 126.5,81.5C 125.548,79.9547 125.215,78.288 125.5,76.5C 125.5,75.8333 125.5,75.1667 125.5,74.5C 125.694,72.0882 127.027,71.0882 129.5,71.5 Z"/></g>
<g><path style="opacity:1" fill="#d9d8d8" d="M 11.5,74.5 C 12.1667,74.5 12.5,74.1667 12.5,73.5C 15.5618,71.879 18.2284,72.379 20.5,75C 18.5116,75.1805 16.5116,75.0138 14.5,74.5C 14.5,76.1667 14.5,77.8333 14.5,79.5C 16.4835,79.6168 18.1502,78.9501 19.5,77.5C 20.5937,78.868 20.2603,80.0347 18.5,81C 13.4953,81.8313 11.1619,79.6646 11.5,74.5 Z"/></g>
<g><path style="opacity:1" fill="#efeeee" d="M 24.5,74.5 C 25.5,74.5 26.5,74.5 27.5,74.5C 28.7563,76.941 28.7563,79.2743 27.5,81.5C 27.0276,79.4687 26.0276,77.8021 24.5,76.5C 23.71,77.6085 23.21,78.9419 23,80.5C 22.3333,77.8333 22.3333,75.1667 23,72.5C 23.2784,73.4158 23.7784,74.0825 24.5,74.5 Z"/></g>
<g><path style="opacity:1" fill="#34151b" d="M 221.5,60.5 C 222.833,60.5 224.167,60.5 225.5,60.5C 226.5,60.5 227.5,60.5 228.5,60.5C 228.334,66.1764 228.501,71.8431 229,77.5C 229.561,78.0219 230.228,78.3552 231,78.5C 235.078,73.3559 238.411,67.6892 241,61.5C 241.654,60.3044 242.154,60.3044 242.5,61.5C 241.182,70.9614 241.182,80.2948 242.5,89.5C 238.134,92.0116 233.467,94.0116 228.5,95.5C 228.335,92.1501 228.502,88.8168 229,85.5C 230.23,84.7248 230.563,83.7248 230,82.5C 227.607,84.994 226.44,84.3273 226.5,80.5C 225.167,80.5 223.833,80.5 222.5,80.5C 222.803,77.4124 221.47,75.7458 218.5,75.5C 218.421,74.0695 218.754,72.7362 219.5,71.5C 218.021,63.7014 213.687,58.3681 206.5,55.5C 205.749,54.4265 204.749,54.2599 203.5,55C 200.073,56.796 196.906,58.9627 194,61.5C 193.409,62.4835 193.743,63.1501 195,63.5C 196.982,63.0097 198.649,62.0097 200,60.5C 200.122,62.2816 199.622,63.9482 198.5,65.5C 196.147,67.8599 194.147,70.5265 192.5,73.5C 189.938,76.2226 186.938,78.3893 183.5,80C 182.107,81.1711 181.273,82.6711 181,84.5C 175.089,88.8736 168.922,92.8736 162.5,96.5C 158.626,94.5323 155.96,95.5323 154.5,99.5C 152.696,100.768 150.696,101.435 148.5,101.5C 148.736,99.9509 148.736,98.4509 148.5,97C 152.446,94.5958 156.446,92.9291 160.5,92C 162.112,91.2797 163.612,91.4464 165,92.5C 166.204,91.1414 167.704,90.1414 169.5,89.5C 168.833,88.8333 168.167,88.1667 167.5,87.5C 173.99,86.2519 174.99,83.4186 170.5,79C 170.833,78.6667 171.167,78.3333 171.5,78C 170.451,77.5078 169.451,77.6744 168.5,78.5C 167.65,75.7386 168.65,75.0719 171.5,76.5C 172.192,75.9747 172.692,75.3081 173,74.5C 174.388,75.5536 175.888,75.7203 177.5,75C 181.85,70.284 184.683,64.784 186,58.5C 192.454,50.845 200.62,48.345 210.5,51C 214.435,53.0549 216.768,56.2215 217.5,60.5C 218.833,60.5 220.167,60.5 221.5,60.5 Z"/></g>
<g><path style="opacity:1" fill="#453f46" d="M 206.5,55.5 C 206.5,60.1667 206.5,64.8333 206.5,69.5C 205.5,69.5 204.5,69.5 203.5,69.5C 203.662,67.4727 203.495,65.4727 203,63.5C 202.051,65.0931 200.885,66.4264 199.5,67.5C 198.662,67.1583 198.328,66.4916 198.5,65.5C 199.622,63.9482 200.122,62.2816 200,60.5C 198.649,62.0097 196.982,63.0097 195,63.5C 193.743,63.1501 193.409,62.4835 194,61.5C 196.906,58.9627 200.073,56.796 203.5,55C 204.749,54.2599 205.749,54.4265 206.5,55.5 Z"/></g>
<g><path style="opacity:1" fill="#d3d2d3" d="M 78.5,72.5 C 80.5922,72.5614 82.0922,73.5614 83,75.5C 83.5133,74.4734 84.0133,73.4734 84.5,72.5C 85.3764,72.3691 86.0431,72.7025 86.5,73.5C 85.8201,74.8599 85.1534,76.1932 84.5,77.5C 84.5,78.8333 84.5,80.1667 84.5,81.5C 83.5,81.5 82.5,81.5 81.5,81.5C 81.3531,78.2084 80.3531,75.2084 78.5,72.5 Z"/></g>
<g><path style="opacity:1" fill="#dedddd" d="M 87.5,81.5 C 87.1667,80.8333 86.8333,80.1667 86.5,79.5C 86.6398,74.2527 88.8064,73.2527 93,76.5C 93.3423,80.3197 91.509,81.9864 87.5,81.5 Z"/></g>
<g><path style="opacity:1" fill="#271d21" d="M 84.5,72.5 C 84.7352,71.9033 85.2352,71.5699 86,71.5C 87.4064,72.4138 88.9064,73.0805 90.5,73.5C 91.9587,73.4326 93.2921,73.7659 94.5,74.5C 93.0936,79.9313 95.0936,82.2647 100.5,81.5C 102.099,81.7678 103.432,81.4345 104.5,80.5C 104.704,78.3146 105.37,76.3146 106.5,74.5C 107.167,74.5 107.833,74.5 108.5,74.5C 107.097,77.2999 108.097,78.7999 111.5,79C 106.519,80.3924 106.852,81.059 112.5,81C 113.791,78.9098 113.124,77.5764 110.5,77C 111.448,76.5172 112.448,76.3505 113.5,76.5C 113.833,76.5 114.167,76.5 114.5,76.5C 114.366,78.2915 114.699,79.9582 115.5,81.5C 116.183,83.1765 117.517,83.8432 119.5,83.5C 119.5,85.1667 119.5,86.8333 119.5,88.5C 123.893,88.4568 124.226,88.9568 120.5,90C 122.568,90.6869 124.568,90.5202 126.5,89.5C 126.247,92.791 126.58,96.1244 127.5,99.5C 125.708,99.634 124.042,99.3007 122.5,98.5C 122.389,97.8826 122.056,97.3826 121.5,97C 118.633,96.1993 115.966,96.3659 113.5,97.5C 112.221,98.968 110.554,99.6347 108.5,99.5C 108.5,97.1667 108.5,94.8333 108.5,92.5C 108.611,91.8826 108.944,91.3826 109.5,91C 107.559,90.2571 105.726,90.4238 104,91.5C 102.092,88.6677 101.259,89.001 101.5,92.5C 101.167,92.5 100.833,92.5 100.5,92.5C 99.8953,90.9743 98.7286,89.9743 97,89.5C 96.5172,90.448 96.3505,91.448 96.5,92.5C 96.1667,92.5 95.8333,92.5 95.5,92.5C 95.5,91.5 95.5,90.5 95.5,89.5C 94.828,88.7326 93.9947,88.0659 93,87.5C 92.7978,85.7444 92.2978,84.0777 91.5,82.5C 89.703,83.9321 88.3697,83.5988 87.5,81.5C 91.509,81.9864 93.3423,80.3197 93,76.5C 88.8064,73.2527 86.6398,74.2527 86.5,79.5C 85.8333,78.8333 85.1667,78.1667 84.5,77.5C 85.1534,76.1932 85.8201,74.8599 86.5,73.5C 86.0431,72.7025 85.3764,72.3691 84.5,72.5 Z"/></g>
<g><path style="opacity:1" fill="#e7e6e6" d="M 102.5,74.5 C 103.833,74.5 105.167,74.5 106.5,74.5C 105.37,76.3146 104.704,78.3146 104.5,80.5C 102.692,79.0821 102.025,77.0821 102.5,74.5 Z"/></g>
<g><path style="opacity:1" fill="#575053" d="M 100.5,74.5 C 101.167,74.5 101.833,74.5 102.5,74.5C 102.025,77.0821 102.692,79.0821 104.5,80.5C 103.432,81.4345 102.099,81.7678 100.5,81.5C 100.5,79.1667 100.5,76.8333 100.5,74.5 Z"/></g>
<g><path style="opacity:1" fill="#e2e2e2" d="M 94.5,74.5 C 95.9986,75.6782 96.9986,77.3449 97.5,79.5C 98.0014,77.3449 99.0014,75.6782 100.5,74.5C 100.5,76.8333 100.5,79.1667 100.5,81.5C 95.0936,82.2647 93.0936,79.9313 94.5,74.5 Z"/></g>
<g><path style="opacity:1" fill="#dddcdd" d="M 108.5,74.5 C 110.698,74.1201 112.365,74.7868 113.5,76.5C 112.448,76.3505 111.448,76.5172 110.5,77C 113.124,77.5764 113.791,78.9098 112.5,81C 106.852,81.059 106.519,80.3924 111.5,79C 108.097,78.7999 107.097,77.2999 108.5,74.5 Z"/></g>
<g><path style="opacity:1" fill="#dbdadb" d="M 120.5,76.5 C 119.77,78.045 118.437,78.8784 116.5,79C 121.509,80.2192 121.176,81.0525 115.5,81.5C 114.699,79.9582 114.366,78.2915 114.5,76.5C 116.5,73.8333 118.5,73.8333 120.5,76.5 Z"/></g>
<g><path style="opacity:1" fill="#393236" d="M 88.5,76.5 C 89.5,76.5 90.5,76.5 91.5,76.5C 91.5,77.5 91.5,78.5 91.5,79.5C 90.5,79.5 89.5,79.5 88.5,79.5C 88.5,78.5 88.5,77.5 88.5,76.5 Z"/></g>
<g><path style="opacity:1" fill="#f62233" d="M 278.5,124.5 C 261.167,124.5 243.833,124.5 226.5,124.5C 226.5,124.167 226.5,123.833 226.5,123.5C 230.147,118.903 233.814,114.236 237.5,109.5C 233.375,105.877 229.375,102.043 225.5,98C 226.571,97.1482 227.571,96.3149 228.5,95.5C 233.467,94.0116 238.134,92.0116 242.5,89.5C 247.467,88.0116 252.134,86.0116 256.5,83.5C 262.136,81.6779 267.469,79.3446 272.5,76.5C 277.177,74.8264 281.844,73.1598 286.5,71.5C 283.292,89.0803 280.626,106.747 278.5,124.5 Z"/></g>
<g><path style="opacity:1" fill="#4a1721" d="M 210.5,95.5 C 207.602,96.3663 203.936,96.8663 199.5,97C 203.211,97.1747 206.878,97.6747 210.5,98.5C 200.263,100.325 189.93,100.325 179.5,98.5C 185.472,97.6697 191.472,97.1697 197.5,97C 197.833,96.6667 198.167,96.3333 198.5,96C 197.099,95.5899 195.766,95.0899 194.5,94.5C 190.03,93.5139 185.363,93.1805 180.5,93.5C 180.5,92.5 180.5,91.5 180.5,90.5C 181.978,90.762 183.311,90.4287 184.5,89.5C 186.297,88.3049 187.297,86.6382 187.5,84.5C 192.737,82.4793 197.403,83.3126 201.5,87C 198.967,88.916 198.967,90.916 201.5,93C 201.043,93.414 200.709,93.914 200.5,94.5C 203.768,95.487 207.102,95.8204 210.5,95.5 Z"/></g>
<g><path style="opacity:1" fill="#4d2131" d="M 198.5,65.5 C 198.328,66.4916 198.662,67.1583 199.5,67.5C 199.141,69.371 198.141,70.871 196.5,72C 200.25,74.0805 202.916,77.0805 204.5,81C 208.025,81.1787 211.359,81.6787 214.5,82.5C 210.907,84.1693 210.907,85.336 214.5,86C 211.245,87.2323 210.912,89.2323 213.5,92C 212.619,92.7083 211.953,93.5416 211.5,94.5C 210.833,94.5 210.5,94.8333 210.5,95.5C 207.102,95.8204 203.768,95.487 200.5,94.5C 200.709,93.914 201.043,93.414 201.5,93C 198.967,90.916 198.967,88.916 201.5,87C 197.403,83.3126 192.737,82.4793 187.5,84.5C 187.297,86.6382 186.297,88.3049 184.5,89.5C 183.311,90.4287 181.978,90.762 180.5,90.5C 180.5,91.5 180.5,92.5 180.5,93.5C 185.363,93.1805 190.03,93.5139 194.5,94.5C 189.125,94.8282 183.792,94.4948 178.5,93.5C 179.705,92.0052 179.705,90.6719 178.5,89.5C 183.177,86.1445 187.511,82.3111 191.5,78C 193.421,77.6397 195.088,76.8064 196.5,75.5C 195.726,74.2888 194.893,74.2888 194,75.5C 193.283,74.9558 192.783,74.2891 192.5,73.5C 194.147,70.5265 196.147,67.8599 198.5,65.5 Z"/></g>
<g><path style="opacity:1" fill="#747173" d="M 22.5,91.5 C 19.4525,92.2788 16.4525,92.6121 13.5,92.5C 11.5354,92.0517 11.2021,91.0517 12.5,89.5C 15.9713,90.0973 19.3046,90.764 22.5,91.5 Z"/></g>
<g><path style="opacity:1" fill="#696467" d="M 95.5,89.5 C 95.5,90.5 95.5,91.5 95.5,92.5C 92.0449,92.5914 88.8782,92.9247 86,93.5C 83.9176,91.3208 84.4176,89.9874 87.5,89.5C 90.1835,89.5168 92.8502,89.5168 95.5,89.5 Z"/></g>
<g><path style="opacity:1" fill="#6b6769" d="M 100.5,92.5 C 99.2976,91.5946 97.9643,91.5946 96.5,92.5C 96.3505,91.448 96.5172,90.448 97,89.5C 98.7286,89.9743 99.8953,90.9743 100.5,92.5 Z"/></g>
<g><path style="opacity:1" fill="#696366" d="M 108.5,92.5 C 105.798,93.4956 103.465,93.4956 101.5,92.5C 101.259,89.001 102.092,88.6677 104,91.5C 105.726,90.4238 107.559,90.2571 109.5,91C 108.944,91.3826 108.611,91.8826 108.5,92.5 Z"/></g>
<g><path style="opacity:1" fill="#7c787a" d="M 114.5,90.5 C 116.288,90.2148 117.955,90.5481 119.5,91.5C 118.667,91.8333 117.833,92.1667 117,92.5C 115.624,92.3158 114.791,91.6491 114.5,90.5 Z"/></g>
<g><path style="opacity:1" fill="#542139" d="M 192.5,73.5 C 192.783,74.2891 193.283,74.9558 194,75.5C 194.893,74.2888 195.726,74.2888 196.5,75.5C 195.088,76.8064 193.421,77.6397 191.5,78C 187.511,82.3111 183.177,86.1445 178.5,89.5C 169.874,94.979 160.874,99.6456 151.5,103.5C 147.603,104.055 143.937,105.055 140.5,106.5C 128.309,109.04 115.976,110.04 103.5,109.5C 111.731,108.449 120.065,107.449 128.5,106.5C 131.167,106.167 133.833,105.833 136.5,105.5C 140.624,104.471 144.624,103.137 148.5,101.5C 150.696,101.435 152.696,100.768 154.5,99.5C 155.96,95.5323 158.626,94.5323 162.5,96.5C 168.922,92.8736 175.089,88.8736 181,84.5C 181.273,82.6711 182.107,81.1711 183.5,80C 186.938,78.3893 189.938,76.2226 192.5,73.5 Z"/></g>
<g><path style="opacity:1" fill="#1b1216" d="M 40.5,71.5 C 40.8333,71.5 41.1667,71.5 41.5,71.5C 42.1667,84.8333 42.8333,84.8333 43.5,71.5C 44.1667,72.8333 44.8333,74.1667 45.5,75.5C 44.1422,80.1422 45.8088,81.8089 50.5,80.5C 46.626,78.9975 46.9593,78.3309 51.5,78.5C 51.5674,77.0413 51.2341,75.7079 50.5,74.5C 51.1667,74.5 51.8333,74.5 52.5,74.5C 52.1924,76.924 52.5258,79.2573 53.5,81.5C 55.0929,74.9514 56.0929,74.9514 56.5,81.5C 57.5,81.5 58.5,81.5 59.5,81.5C 59.3505,80.448 59.5172,79.448 60,78.5C 61.1711,79.8932 62.6711,80.7265 64.5,81C 59.5189,82.3924 59.8522,83.059 65.5,83C 67.229,81.2111 67.8957,79.0444 67.5,76.5C 67.8333,76.5 68.1667,76.5 68.5,76.5C 68.3222,81.4528 70.3222,82.6195 74.5,80C 69.2063,79.1822 69.2063,78.6822 74.5,78.5C 74.5674,77.0413 74.2341,75.7079 73.5,74.5C 74.7804,73.0687 76.4471,72.4021 78.5,72.5C 80.3531,75.2084 81.3531,78.2084 81.5,81.5C 82.5,81.5 83.5,81.5 84.5,81.5C 84.5,80.1667 84.5,78.8333 84.5,77.5C 85.1667,78.1667 85.8333,78.8333 86.5,79.5C 86.8333,80.1667 87.1667,80.8333 87.5,81.5C 88.3697,83.5988 89.703,83.9321 91.5,82.5C 92.2978,84.0777 92.7978,85.7444 93,87.5C 93.9947,88.0659 94.828,88.7326 95.5,89.5C 92.8502,89.5168 90.1835,89.5168 87.5,89.5C 84.4176,89.9874 83.9176,91.3208 86,93.5C 88.8782,92.9247 92.0449,92.5914 95.5,92.5C 95.8333,92.5 96.1667,92.5 96.5,92.5C 97.9643,91.5946 99.2976,91.5946 100.5,92.5C 100.833,92.5 101.167,92.5 101.5,92.5C 103.465,93.4956 105.798,93.4956 108.5,92.5C 108.5,94.8333 108.5,97.1667 108.5,99.5C 110.554,99.6347 112.221,98.968 113.5,97.5C 113.369,98.3764 113.702,99.0431 114.5,99.5C 115.5,98.1667 116.5,98.1667 117.5,99.5C 118.192,98.9747 118.692,98.3081 119,97.5C 119.924,99.4951 121.09,99.8284 122.5,98.5C 124.042,99.3007 125.708,99.634 127.5,99.5C 127.668,101.776 128.001,104.109 128.5,106.5C 120.065,107.449 111.731,108.449 103.5,109.5C 104.952,110.302 106.618,110.802 108.5,111C 106.396,112.836 106.062,115.002 107.5,117.5C 108.396,118.506 109.062,118.506 109.5,117.5C 107.995,116.158 107.328,114.492 107.5,112.5C 108.833,112.5 110.167,112.5 111.5,112.5C 111.233,116.742 110.233,120.742 108.5,124.5C 75.8333,124.5 43.1667,124.5 10.5,124.5C 10.1795,119.305 10.5128,114.305 11.5,109.5C 11.5,109.833 11.5,110.167 11.5,110.5C 11.5,113.833 11.5,117.167 11.5,120.5C 31.8333,120.5 52.1667,120.5 72.5,120.5C 73.4816,117.038 73.815,113.371 73.5,109.5C 55.8333,109.5 38.1667,109.5 20.5,109.5C 20.5,106.167 20.5,102.833 20.5,99.5C 21.5,99.5 22.5,99.5 23.5,99.5C 23.5,98.5 23.5,97.5 23.5,96.5C 22.1667,96.5 20.8333,96.5 19.5,96.5C 19.8039,95.8501 20.1373,95.1835 20.5,94.5C 18.1568,93.7251 15.8234,93.0584 13.5,92.5C 16.4525,92.6121 19.4525,92.2788 22.5,91.5C 23.391,90.8902 24.391,90.5569 25.5,90.5C 24.6971,91.4232 24.5304,92.4232 25,93.5C 27.4321,92.5504 29.9321,92.5504 32.5,93.5C 32.719,92.325 32.3857,91.325 31.5,90.5C 30.2736,91.3629 28.9403,91.3629 27.5,90.5C 27.5,87.5 27.5,84.5 27.5,81.5C 28.7563,79.2743 28.7563,76.941 27.5,74.5C 28.5,73.1667 29.5,73.1667 30.5,74.5C 28.0786,80.4189 30.0786,82.7522 36.5,81.5C 36.5,79.1667 36.5,76.8333 36.5,74.5C 36.8333,74.5 37.1667,74.5 37.5,74.5C 37.5,76.8333 37.5,79.1667 37.5,81.5C 38.5,81.5 39.5,81.5 40.5,81.5C 40.5,78.1667 40.5,74.8333 40.5,71.5 Z"/></g>
<g><path style="opacity:1" fill="#5b5558" d="M 71.5,95.5 C 74.1656,95.933 76.8323,96.433 79.5,97C 79.9574,97.414 80.2907,97.914 80.5,98.5C 79.4699,98.5545 78.3033,98.8878 77,99.5C 76.3741,97.0087 75.5407,97.0087 74.5,99.5C 73.069,99.0234 71.7357,98.3567 70.5,97.5C 70.8627,96.8165 71.1961,96.1499 71.5,95.5 Z"/></g>
<g><path style="opacity:1" fill="#656163" d="M 38.5,96.5 C 45.0142,96.5997 51.3475,96.5997 57.5,96.5C 58.8333,97.5 58.8333,98.5 57.5,99.5C 56.914,99.2907 56.414,98.9574 56,98.5C 51.8663,99.1959 47.6996,99.8625 43.5,100.5C 42.2519,99.9598 41.0852,99.2931 40,98.5C 39.6667,98.8333 39.3333,99.1667 39,99.5C 38.5172,98.552 38.3505,97.552 38.5,96.5 Z"/></g>
<g><path style="opacity:1" fill="#625b5f" d="M 24.5,96.5 C 27.5,96.5 30.5,96.5 33.5,96.5C 33.6495,97.552 33.4828,98.552 33,99.5C 30.3787,99.2964 27.5453,99.2964 24.5,99.5C 24.5,98.5 24.5,97.5 24.5,96.5 Z"/></g>
<g><path style="opacity:1" fill="#605a5d" d="M 63.5,90.5 C 67.0116,90.3709 70.6783,90.7043 74.5,91.5C 72.9813,94.0643 71.4813,94.0643 70,91.5C 67.1358,94.4017 64.9692,94.0684 63.5,90.5 Z"/></g>
<g><path style="opacity:1" fill="#605b5e" d="M 25.5,90.5 C 26.1667,90.5 26.8333,90.5 27.5,90.5C 28.9403,91.3629 30.2736,91.3629 31.5,90.5C 32.3857,91.325 32.719,92.325 32.5,93.5C 29.9321,92.5504 27.4321,92.5504 25,93.5C 24.5304,92.4232 24.6971,91.4232 25.5,90.5 Z"/></g>
<g><path style="opacity:1" fill="#625d5f" d="M 75.5,90.5 C 77.6681,89.9632 80.0014,89.6299 82.5,89.5C 83.7445,90.9554 83.5778,92.2887 82,93.5C 80.0967,93.3062 78.2633,93.3062 76.5,93.5C 76.0357,92.3636 75.7024,91.3636 75.5,90.5 Z"/></g>
<g><path style="opacity:1" fill="#736f71" d="M 51.5,89.5 C 54.3351,90.7862 57.1684,90.7862 60,89.5C 60.9246,90.0465 61.7579,90.7132 62.5,91.5C 59.7594,91.556 56.926,92.2227 54,93.5C 52.5187,92.5291 51.6854,91.1958 51.5,89.5 Z"/></g>
<g><path style="opacity:1" fill="#767275" d="M 42.5,89.5 C 44.7638,90.2186 47.0971,90.552 49.5,90.5C 49.3444,94.1351 48.1777,94.4685 46,91.5C 42.8794,91.9644 39.7127,92.2977 36.5,92.5C 35.8333,92.1667 35.1667,91.8333 34.5,91.5C 37.3056,90.8324 39.9723,90.1657 42.5,89.5 Z"/></g>
<g><path style="opacity:1" fill="#dad9da" d="M 50.5,74.5 C 51.2341,75.7079 51.5674,77.0413 51.5,78.5C 46.9593,78.3309 46.626,78.9975 50.5,80.5C 45.8088,81.8089 44.1422,80.1422 45.5,75.5C 47.0418,74.6993 48.7085,74.366 50.5,74.5 Z"/></g>
<g><path style="opacity:1" fill="#dedddd" d="M 30.5,74.5 C 32.5,74.5 34.5,74.5 36.5,74.5C 36.5,76.8333 36.5,79.1667 36.5,81.5C 30.0786,82.7522 28.0786,80.4189 30.5,74.5 Z"/></g>
<g><path style="opacity:1" fill="#dbdada" d="M 73.5,74.5 C 74.2341,75.7079 74.5674,77.0413 74.5,78.5C 69.2063,78.6822 69.2063,79.1822 74.5,80C 70.3222,82.6195 68.3222,81.4528 68.5,76.5C 69.6354,74.7868 71.302,74.1201 73.5,74.5 Z"/></g>
<g><path style="opacity:1" fill="#262225" d="M 31.5,76.5 C 32.5,76.5 33.5,76.5 34.5,76.5C 34.5,77.5 34.5,78.5 34.5,79.5C 33.5,79.5 32.5,79.5 31.5,79.5C 31.5,78.5 31.5,77.5 31.5,76.5 Z"/></g>
<g><path style="opacity:1" fill="#cdcccc" d="M 52.5,74.5 C 55.3646,74.0548 57.8646,74.7215 60,76.5C 62.7067,73.9411 65.2067,73.9411 67.5,76.5C 67.8957,79.0444 67.229,81.2111 65.5,83C 59.8522,83.059 59.5189,82.3924 64.5,81C 62.6711,80.7265 61.1711,79.8932 60,78.5C 59.5172,79.448 59.3505,80.448 59.5,81.5C 58.5,81.5 57.5,81.5 56.5,81.5C 56.0929,74.9514 55.0929,74.9514 53.5,81.5C 52.5258,79.2573 52.1924,76.924 52.5,74.5 Z"/></g>
<g><path style="opacity:1" fill="#161012" d="M 62.5,76.5 C 64.337,76.6395 64.6704,77.3061 63.5,78.5C 62.7025,78.0431 62.3691,77.3764 62.5,76.5 Z"/></g>
<g><path style="opacity:1" fill="#eae9e9" d="M 41.5,71.5 C 42.1667,71.5 42.8333,71.5 43.5,71.5C 42.8333,84.8333 42.1667,84.8333 41.5,71.5 Z"/></g>
<g><path style="opacity:1" fill="#676265" d="M 19.5,96.5 C 20.8333,96.5 22.1667,96.5 23.5,96.5C 23.5,97.5 23.5,98.5 23.5,99.5C 22.5,99.5 21.5,99.5 20.5,99.5C 17.9885,99.162 15.6552,99.162 13.5,99.5C 12.7132,98.7579 12.0465,97.9246 11.5,97C 14.146,96.5026 16.8127,96.3359 19.5,96.5 Z"/></g>
<g><path style="opacity:1" fill="#615c5f" d="M 35.5,96.5 C 37.0481,96.8212 37.7148,97.8212 37.5,99.5C 34.7524,99.5983 34.0857,98.5983 35.5,96.5 Z"/></g>
<g><path style="opacity:1" fill="#676365" d="M 59.5,96.5 C 62.681,96.7423 65.681,96.7423 68.5,96.5C 69.3857,97.325 69.719,98.325 69.5,99.5C 67.1229,99.2155 64.9562,99.2155 63,99.5C 61.2714,99.0257 60.1047,98.0257 59.5,96.5 Z"/></g>
<g><path style="opacity:1" fill="#666264" d="M 81.5,96.5 C 84.0115,96.838 86.3448,96.838 88.5,96.5C 89.3857,97.325 89.719,98.325 89.5,99.5C 86.8333,99.5 84.1667,99.5 81.5,99.5C 81.5,98.5 81.5,97.5 81.5,96.5 Z"/></g>
<g><path style="opacity:1" fill="#6b6568" d="M 91.5,96.5 C 94.3077,97.4591 97.3077,97.4591 100.5,96.5C 100.649,97.552 100.483,98.552 100,99.5C 96.9814,99.6455 93.8148,99.3122 90.5,98.5C 90.8627,97.8165 91.1961,97.1499 91.5,96.5 Z"/></g>
<g><path style="opacity:1" fill="#716d6f" d="M 104.5,96.5 C 106.048,96.8212 106.715,97.8212 106.5,99.5C 104.712,99.7852 103.045,99.4519 101.5,98.5C 102.781,98.9839 103.781,98.3173 104.5,96.5 Z"/></g>
<g><path style="opacity:1" fill="#736e70" d="M 122.5,98.5 C 121.09,99.8284 119.924,99.4951 119,97.5C 118.692,98.3081 118.192,98.9747 117.5,99.5C 116.5,98.1667 115.5,98.1667 114.5,99.5C 113.702,99.0431 113.369,98.3764 113.5,97.5C 115.966,96.3659 118.633,96.1993 121.5,97C 122.056,97.3826 122.389,97.8826 122.5,98.5 Z"/></g>
<g><path style="opacity:1" fill="#6c6467" d="M 142.5,96.5 C 142.5,97.5 142.5,98.5 142.5,99.5C 140.234,99.8588 138.401,99.1922 137,97.5C 136.612,98.428 135.945,99.0946 135,99.5C 132.991,99.0051 130.824,99.0051 128.5,99.5C 128.5,98.5 128.5,97.5 128.5,96.5C 132.673,95.9564 136.506,96.623 140,98.5C 140.417,97.244 141.25,96.5774 142.5,96.5 Z"/></g>
<g><path style="opacity:1" fill="#3d161f" d="M 178.5,89.5 C 179.705,90.6719 179.705,92.0052 178.5,93.5C 183.792,94.4948 189.125,94.8282 194.5,94.5C 195.766,95.0899 197.099,95.5899 198.5,96C 198.167,96.3333 197.833,96.6667 197.5,97C 191.472,97.1697 185.472,97.6697 179.5,98.5C 189.93,100.325 200.263,100.325 210.5,98.5C 206.878,97.6747 203.211,97.1747 199.5,97C 203.936,96.8663 207.602,96.3663 210.5,95.5C 210.5,94.8333 210.833,94.5 211.5,94.5C 213.167,94.5 214.833,94.5 216.5,94.5C 216.494,97.5176 215.494,100.184 213.5,102.5C 214.416,104.784 213.416,105.951 210.5,106C 211.833,106.333 213.167,106.667 214.5,107C 206.5,107.333 198.5,107.667 190.5,108C 191.833,109.333 191.833,110.667 190.5,112C 188.19,112.497 185.857,112.663 183.5,112.5C 181.801,112.527 180.467,113.194 179.5,114.5C 174.015,113.673 168.348,113.173 162.5,113C 161.003,111.129 159.003,110.129 156.5,110C 158.5,109.667 160.5,109.333 162.5,109C 158.877,107.895 155.21,106.895 151.5,106C 152.774,105.023 152.774,104.189 151.5,103.5C 160.874,99.6456 169.874,94.979 178.5,89.5 Z"/></g>
<g><path style="opacity:1" fill="#c31b27" d="M 11.5,110.5 C 11.5,110.167 11.5,109.833 11.5,109.5C 14.5,109.5 17.5,109.5 20.5,109.5C 38.1667,109.5 55.8333,109.5 73.5,109.5C 73.815,113.371 73.4816,117.038 72.5,120.5C 72.5,117.167 72.5,113.833 72.5,110.5C 52.1667,110.5 31.8333,110.5 11.5,110.5 Z"/></g>
<g><path style="opacity:1" fill="#221418" d="M 140.5,106.5 C 142.963,106.781 145.13,107.781 147,109.5C 149.041,108.577 151.208,108.244 153.5,108.5C 152.59,112.558 152.257,116.558 152.5,120.5C 146.862,121.33 141.196,121.83 135.5,122C 134.619,122.708 133.953,123.542 133.5,124.5C 125.167,124.5 116.833,124.5 108.5,124.5C 110.233,120.742 111.233,116.742 111.5,112.5C 110.167,112.5 108.833,112.5 107.5,112.5C 107.328,114.492 107.995,116.158 109.5,117.5C 109.062,118.506 108.396,118.506 107.5,117.5C 106.062,115.002 106.396,112.836 108.5,111C 106.618,110.802 104.952,110.302 103.5,109.5C 115.976,110.04 128.309,109.04 140.5,106.5 Z"/></g>
<g><path style="opacity:1" fill="#e4212d" d="M 11.5,110.5 C 31.8333,110.5 52.1667,110.5 72.5,110.5C 72.5,113.833 72.5,117.167 72.5,120.5C 52.1667,120.5 31.8333,120.5 11.5,120.5C 11.5,117.167 11.5,113.833 11.5,110.5 Z"/></g>
<g><path style="opacity:1" fill="#b61928" d="M 183.5,112.5 C 187.872,116.874 192.539,120.874 197.5,124.5C 189.167,124.5 180.833,124.5 172.5,124.5C 174.833,121.167 177.167,117.833 179.5,114.5C 180.467,113.194 181.801,112.527 183.5,112.5 Z"/></g>
<g><path style="opacity:1" fill="#f3979d" d="M 18.5,113.5 C 19.2389,113.369 19.9056,113.536 20.5,114C 19.3044,114.654 19.3044,115.154 20.5,115.5C 21.1924,114.975 21.6924,114.308 22,113.5C 25.7896,114.136 29.6229,114.803 33.5,115.5C 28.544,116.494 23.544,116.827 18.5,116.5C 18.5,115.5 18.5,114.5 18.5,113.5 Z"/></g>
<g><path style="opacity:1" fill="#f3989e" d="M 45.5,113.5 C 46.2389,113.369 46.9056,113.536 47.5,114C 46.3044,114.654 46.3044,115.154 47.5,115.5C 48.1924,114.975 48.6924,114.308 49,113.5C 54.7182,113.657 60.5515,114.324 66.5,115.5C 64.1827,117.791 62.016,117.791 60,115.5C 55.0972,116.143 50.2639,116.476 45.5,116.5C 45.5,115.5 45.5,114.5 45.5,113.5 Z"/></g>
<g><path style="opacity:1" fill="#2c1217" d="M 151.5,103.5 C 152.774,104.189 152.774,105.023 151.5,106C 155.21,106.895 158.877,107.895 162.5,109C 160.5,109.333 158.5,109.667 156.5,110C 159.003,110.129 161.003,111.129 162.5,113C 168.348,113.173 174.015,113.673 179.5,114.5C 177.167,117.833 174.833,121.167 172.5,124.5C 159.5,124.5 146.5,124.5 133.5,124.5C 133.953,123.542 134.619,122.708 135.5,122C 141.196,121.83 146.862,121.33 152.5,120.5C 152.257,116.558 152.59,112.558 153.5,108.5C 151.208,108.244 149.041,108.577 147,109.5C 145.13,107.781 142.963,106.781 140.5,106.5C 143.937,105.055 147.603,104.055 151.5,103.5 Z"/></g>
<g><path style="opacity:1" fill="#f2989e" d="M 36.5,113.5 C 39.123,115.072 41.7897,115.572 44.5,115C 41.6746,116.398 38.8412,116.898 36,116.5C 35.5304,115.423 35.6971,114.423 36.5,113.5 Z"/></g>
<g><path style="opacity:1" fill="#501c2b" d="M 224.5,119.5 C 224.66,121.153 225.326,122.486 226.5,123.5C 226.5,123.833 226.5,124.167 226.5,124.5C 218.5,124.5 210.5,124.5 202.5,124.5C 203.56,114.462 208.893,111.296 218.5,115C 220.66,116.332 222.66,117.832 224.5,119.5 Z"/></g>
<g><path style="opacity:1" fill="#ebebeb" d="M 299.5,119.5 C 299.5,121.167 299.5,122.833 299.5,124.5C 298.167,124.5 296.833,124.5 295.5,124.5C 296.124,122.246 297.457,120.579 299.5,119.5 Z"/></g>
<g><path style="opacity:1" fill="#2b1115" d="M 224.5,119.5 C 222.66,117.832 220.66,116.332 218.5,115C 208.893,111.296 203.56,114.462 202.5,124.5C 200.833,124.5 199.167,124.5 197.5,124.5C 192.539,120.874 187.872,116.874 183.5,112.5C 185.857,112.663 188.19,112.497 190.5,112C 191.833,110.667 191.833,109.333 190.5,108C 198.5,107.667 206.5,107.333 214.5,107C 213.167,106.667 211.833,106.333 210.5,106C 213.416,105.951 214.416,104.784 213.5,102.5C 215.494,100.184 216.494,97.5176 216.5,94.5C 214.833,94.5 213.167,94.5 211.5,94.5C 211.953,93.5416 212.619,92.7083 213.5,92C 210.912,89.2323 211.245,87.2323 214.5,86C 210.907,85.336 210.907,84.1693 214.5,82.5C 217.43,81.701 220.43,81.3677 223.5,81.5C 223.405,94.1815 223.739,106.848 224.5,119.5 Z"/></g>
</svg>
