<?xml version="1.0" encoding="UTF-8"?>
<svg version="1.1" xmlns="http://www.w3.org/2000/svg" width="300" height="125">
<path d="M0 0 C99 0 198 0 300 0 C300 41.25 300 82.5 300 125 C201 125 102 125 0 125 C0 83.75 0 42.5 0 0 Z " fill="#160F13" transform="translate(0,0)"/>
<path d="M0 0 C-0.62260759 5.94634304 -1.39643132 11.82925942 -2.375 17.7265625 C-2.50438965 18.51847992 -2.6337793 19.31039734 -2.76708984 20.12631226 C-3.17590944 22.626233 -3.58779357 25.12563569 -4 27.625 C-4.41164568 30.13159364 -4.82262889 32.63829376 -5.23291016 35.14511108 C-5.48687723 36.69573742 -5.74170497 38.24622314 -5.99755859 39.79653931 C-6.11437988 40.50772919 -6.23120117 41.21891907 -6.3515625 41.95166016 C-6.45291504 42.56627106 -6.55426758 43.18088196 -6.65869141 43.81411743 C-7.13607844 46.87150306 -7.56238132 49.93666927 -8 53 C-24.83 53 -41.66 53 -59 53 C-57.33569903 48.83924758 -56.17060176 46.69580423 -53.4375 43.375 C-51.32513314 40.80151356 -50.06114974 39.18344921 -49 36 C-49.85851562 35.61714844 -49.85851562 35.61714844 -50.734375 35.2265625 C-53.24173733 33.86912841 -55.1330456 32.28025896 -57.25 30.375 C-57.95640625 29.74335937 -58.6628125 29.11171875 -59.390625 28.4609375 C-59.92171875 27.97882813 -60.4528125 27.49671875 -61 27 C-58.44643734 23.9951588 -55.65497471 22.78434094 -52.05859375 21.25 C-50.84655273 20.72881592 -49.63451172 20.20763184 -48.38574219 19.6706543 C-47.06977031 19.11351235 -45.75368712 18.55663328 -44.4375 18 C-43.09384188 17.4260838 -41.75041966 16.85161503 -40.40722656 16.27661133 C-37.64618095 15.09627698 -34.88322946 13.92057343 -32.11865234 12.74853516 C-28.79783164 11.34031492 -25.4812748 9.92243944 -22.16664124 8.49972534 C-19.19602292 7.22524625 -16.22296914 5.95648364 -13.25 4.6875 C-12.14454834 4.21376953 -11.03909668 3.74003906 -9.90014648 3.25195312 C-8.88637939 2.82205078 -7.8726123 2.39214844 -6.828125 1.94921875 C-5.4963623 1.38207153 -5.4963623 1.38207153 -4.13769531 0.8034668 C-2 0 -2 0 0 0 Z " fill="#F62233" transform="translate(287,72)"/>
<path d="M0 0 C0.99 0.33 1.98 0.66 3 1 C3.19601608 2.74906659 3.38147403 4.49931846 3.5625 6.25 C3.71912109 7.71179687 3.71912109 7.71179687 3.87890625 9.203125 C3.98974468 11.7631352 3.77738092 13.58148159 3 16 C1.68 16 0.36 16 -1 16 C-1.495 14.515 -1.495 14.515 -2 13 C-3.32 14.65 -4.64 16.3 -6 18 C-5.195625 18.9075 -4.39125 19.815 -3.5625 20.75 C-1.25112982 23.35769969 -0.91082477 24.35670091 0 28 C3.3 27.67 6.6 27.34 10 27 C10 27.99 10 28.98 10 30 C10.165 30.804375 10.33 31.60875 10.5 32.4375 C11.11261146 35.57713376 11.46347748 38.07304504 10 41 C10.66 41.33 11.32 41.66 12 42 C11.649375 43.051875 11.29875 44.10375 10.9375 45.1875 C9.66874135 49.18361342 9.66874135 49.18361342 11 54 C1.76 54.33 -7.48 54.66 -17 55 C-16.67 55.66 -16.34 56.32 -16 57 C-17.485 57.495 -17.485 57.495 -19 58 C-17.515 58.99 -17.515 58.99 -16 60 C-17.485 60.495 -17.485 60.495 -19 61 C-18.13375 61.63808594 -17.2675 62.27617188 -16.375 62.93359375 C-15.24987539 63.76806117 -14.12488212 64.60270572 -13 65.4375 C-12.42765625 65.85837891 -11.8553125 66.27925781 -11.265625 66.71289062 C-9.82546081 67.78444136 -8.41048004 68.88966676 -7 70 C-7 70.33 -7 70.66 -7 71 C-15.25 71 -23.5 71 -32 71 C-26 62 -26 62 -25 61 C-32.59 60.67 -40.18 60.34 -48 60 C-46.68 59.34 -45.36 58.68 -44 58 C-45.32 57.34 -46.64 56.68 -48 56 C-47.01 56 -46.02 56 -45 56 C-45 55.34 -45 54.68 -45 54 C-45.94875 54.04125 -46.8975 54.0825 -47.875 54.125 C-51 54 -51 54 -53 52 C-53 51.34 -53 50.68 -53 50 C-54.21623047 50.39832031 -54.21623047 50.39832031 -55.45703125 50.8046875 C-56.56433594 51.15789062 -57.67164063 51.51109375 -58.8125 51.875 C-59.89144531 52.22304687 -60.97039062 52.57109375 -62.08203125 52.9296875 C-71.28800782 55.58368472 -80.13685887 56.27706165 -89.6875 56.125 C-90.78255859 56.11597656 -91.87761719 56.10695312 -93.00585938 56.09765625 C-95.67081354 56.07438154 -98.33528134 56.04169135 -101 56 C-101 55.67 -101 55.34 -101 55 C-100.04222656 54.96261719 -99.08445312 54.92523438 -98.09765625 54.88671875 C-71.35552946 53.89297002 -71.35552946 53.89297002 -49 42 C-44.76056338 40.61971831 -44.76056338 40.61971831 -42 42 C-40.31503702 41.03114628 -38.64821244 40.03013277 -37 39 C-36.34 39 -35.68 39 -35 39 C-35 38.34 -35 37.68 -35 37 C-34.030625 36.71125 -33.06125 36.4225 -32.0625 36.125 C-28.89335797 35.35785318 -28.89335797 35.35785318 -28 33 C-26.66666667 31.66666667 -25.33333333 30.33333333 -24 29 C-23.67 28.34 -23.34 27.68 -23 27 C-22.34 27 -21.68 27 -21 27 C-21 26.34 -21 25.68 -21 25 C-20.01 25 -19.02 25 -18 25 C-17.505 23.515 -17.505 23.515 -17 22 C-16.21625 21.566875 -15.4325 21.13375 -14.625 20.6875 C-11.37199038 18.59627953 -10.48184769 16.50963927 -9 13 C-8.34 13 -7.68 13 -7 13 C-7.99 12.01 -7.99 12.01 -9 11 C-10 10 -11 9 -12 8 C-10.73398069 5.46796138 -9.65538869 5.18640935 -7.125 4 C-4.55892982 2.78798161 -2.38096302 1.58730868 0 0 Z " fill="#4C1B28" transform="translate(205,54)"/>
<path d="M0 0 C2.31 0 4.62 0 7 0 C7 1.32 7 2.64 7 4 C7.94875 3.835 8.8975 3.67 9.875 3.5 C16.45520676 2.44716692 23.3428685 3 30 3 C30.25 9.625 30.25 9.625 28 13 C27.83300768 16.12521833 27.83300768 16.12521833 28 19 C29.13695312 18.9278125 30.27390625 18.855625 31.4453125 18.78125 C40.98385651 18.1994797 50.44125013 17.88084661 60 18 C61.32 18 62.64 18 64 18 C65.485 18.495 65.485 18.495 67 19 C68.84266772 18.7319756 70.68525995 18.46341489 72.52734375 18.19140625 C77.3649164 17.8169338 82.18949771 18.47886225 87 19 C87 19.66 87 20.32 87 21 C86.34 21 85.68 21 85 21 C85 21.99 85 22.98 85 24 C86.65 24 88.3 24 90 24 C90 25.32 90 26.64 90 28 C89.32427948 27.99777939 88.64855896 27.99555878 87.95236206 27.99327087 C80.91193165 27.97112697 73.87151116 27.95605534 66.83105469 27.94506836 C64.20442299 27.94004333 61.57779409 27.93322226 58.95117188 27.92456055 C55.17317007 27.91241493 51.39520529 27.90675333 47.6171875 27.90234375 C45.85905228 27.89460182 45.85905228 27.89460182 44.06539917 27.88670349 C42.964711 27.88662796 41.86402283 27.88655243 40.72998047 27.88647461 C39.76623505 27.884254 38.80248962 27.88203339 37.80953979 27.87974548 C34.80837714 28.00820188 31.95954344 28.50481684 29 29 C27.33157466 28.67558396 25.66519519 28.34060811 24 28 C18.29283267 27.7287086 12.75102633 28.02095097 7.10546875 28.87890625 C4.58825754 29.02368092 2.46759035 28.50169382 0 28 C-1.89536927 27.95805545 -3.79211816 27.95862741 -5.6875 28 C-10.77950713 28.11024643 -10.77950713 28.11024643 -13 27 C-13 26.34 -13 25.68 -13 25 C-12.01 25 -11.02 25 -10 25 C-10.66 24.01 -11.32 23.02 -12 22 C-12.66 21.01 -13.32 20.02 -14 19 C-8.72 18.67 -3.44 18.34 2 18 C2.33 15.36 2.66 12.72 3 10 C2.01 10 1.02 10 0 10 C0 6.7 0 3.4 0 0 Z " fill="#352D30" transform="translate(38,72)"/>
<path d="M0 0 C0 0.66 0 1.32 0 2 C3.62885324 2.15149298 3.62885324 2.15149298 7 1 C6.67 1.99 6.34 2.98 6 4 C5.73484371 6.83254261 5.55612734 9.66459816 5.37890625 12.50390625 C5 15 5 15 3 17 C4.45594755 18.31514604 5.91483579 19.62703717 7.375 20.9375 C8.18710938 21.66839844 8.99921875 22.39929688 9.8359375 23.15234375 C11.85924167 25.02989471 11.85924167 25.02989471 14 26 C12.74693894 31.9557255 10.79306781 37.56722651 6.23095703 41.74462891 C-2.30583592 46.54832658 -16.75322267 44.84961989 -26 43 C-31.46614887 40.86356144 -35.28713212 37.53975112 -39 33 C-38.625 30.0625 -38.625 30.0625 -38 27 C-35.18175808 25.59087904 -32.82748718 25.88816447 -29.6796875 25.90234375 C-28.42285156 25.90556641 -27.16601562 25.90878906 -25.87109375 25.91210938 C-24.55238281 25.92048828 -23.23367187 25.92886719 -21.875 25.9375 C-20.53515789 25.94251511 -19.195314 25.94707799 -17.85546875 25.95117188 C-14.57026794 25.96298914 -11.28515603 25.97946383 -8 26 C-8.34933594 25.24976562 -8.69867188 24.49953125 -9.05859375 23.7265625 C-10.3525507 19.97891956 -9.16689812 17.70661756 -8 14 C-8.33 13.01 -8.66 12.02 -9 11 C-8.67 10.34 -8.34 9.68 -8 9 C-8.66 8.67 -9.32 8.34 -10 8 C-9.67 7.67 -9.34 7.34 -9 7 C-9.66 6.34 -10.32 5.68 -11 5 C-10.34 5 -9.68 5 -9 5 C-9.33 4.01 -9.66 3.02 -10 2 C-6.3558226 -0.4294516 -4.28758728 -0.16179575 0 0 Z " fill="#2F1116" transform="translate(224,82)"/>
<path d="M0 0 C20.46 0 40.92 0 62 0 C62 3.63 62 7.26 62 11 C41.54 11 21.08 11 0 11 C0 7.37 0 3.74 0 0 Z " fill="#E12835" transform="translate(12,110)"/>
<path d="M0 0 C2.31 0 4.62 0 7 0 C7 1.32 7 2.64 7 4 C7.94875 3.835 8.8975 3.67 9.875 3.5 C16.45520676 2.44716692 23.3428685 3 30 3 C30.25 9.625 30.25 9.625 28 13 C27.33841957 15.04584079 27.33841957 15.04584079 26.875 17.1875 C26.441875 19.0746875 26.441875 19.0746875 26 21 C25.67 20.34 25.34 19.68 25 19 C21.37 19 17.74 19 14 19 C13.01 21.475 13.01 21.475 12 24 C8.375 25.3125 8.375 25.3125 5 26 C5 24.68 5 23.36 5 22 C5.99 21.67 6.98 21.34 8 21 C4.37 21 0.74 21 -3 21 C-3 20.34 -3 19.68 -3 19 C-1.35 18.67 0.3 18.34 2 18 C2.33 15.36 2.66 12.72 3 10 C2.01 10 1.02 10 0 10 C0 6.7 0 3.4 0 0 Z " fill="#1B1417" transform="translate(38,72)"/>
<path d="M0 0 C0 2.88045319 -0.15324668 5.69117685 -0.375 8.5625 C-0.44460937 9.53316406 -0.51421875 10.50382812 -0.5859375 11.50390625 C-1 14 -1 14 -3 16 C-1.54405245 17.31514604 -0.08516421 18.62703717 1.375 19.9375 C2.18710938 20.66839844 2.99921875 21.39929688 3.8359375 22.15234375 C5.85924167 24.02989471 5.85924167 24.02989471 8 25 C6.83240043 30.89637781 4.37910471 36.55718105 0.05126953 40.78857422 C-7.2736189 45.11446048 -18.88036554 42.77834272 -27 42 C-26.265625 35.3046875 -26.265625 35.3046875 -23.875 32.5625 C-20.16812866 30.54789601 -18.1823024 30.43290815 -14 31 C-11.36 32.32 -8.72 33.64 -6 35 C-6 23.78 -6 12.56 -6 1 C-4.35 1 -2.7 1 -1 1 C-0.67 0.67 -0.34 0.34 0 0 Z " fill="#42171F" transform="translate(230,83)"/>
<path d="M0 0 C-0.33 1.65 -0.66 3.3 -1 5 C0.19238281 4.97679688 1.38476562 4.95359375 2.61328125 4.9296875 C4.17968124 4.91092822 5.746088 4.89272819 7.3125 4.875 C8.09818359 4.85824219 8.88386719 4.84148437 9.69335938 4.82421875 C10.45068359 4.81777344 11.20800781 4.81132813 11.98828125 4.8046875 C12.68477783 4.79421387 13.38127441 4.78374023 14.09887695 4.77294922 C16 5 16 5 19 7 C19.99 7 20.98 7 22 7 C22.22786458 9.01822917 22.45572917 11.03645833 22.68359375 13.0546875 C22.91292961 15.07404316 22.91292961 15.07404316 24 17 C11.625 17.495 11.625 17.495 -1 18 C-0.67 19.65 -0.34 21.3 0 23 C-3.63 23 -7.26 23 -11 23 C-11 22.01 -11 21.02 -11 20 C-10.34 19.67 -9.68 19.34 -9 19 C-9 17.68 -9 16.36 -9 15 C-7.5 13.25 -7.5 13.25 -6 12 C-8.64 12.33 -11.28 12.66 -14 13 C-14.33 11.35 -14.66 9.7 -15 8 C-14.31292969 7.59007813 -13.62585938 7.18015625 -12.91796875 6.7578125 C-12.01691406 6.21898438 -11.11585938 5.68015625 -10.1875 5.125 C-9.29417969 4.59132813 -8.40085938 4.05765625 -7.48046875 3.5078125 C-1.70984456 0 -1.70984456 0 0 0 Z " fill="#38141B" transform="translate(180,90)"/>
<path d="M0 0 C0.66 0.33 1.32 0.66 2 1 C2 1.99 2 2.98 2 4 C4.97 4.495 4.97 4.495 8 5 C8.33 5.99 8.66 6.98 9 8 C11.35358251 10.35358251 11.92968394 10.27871904 15.1328125 10.4140625 C16.34130859 10.47207031 16.34130859 10.47207031 17.57421875 10.53125 C18.83685547 10.57765625 18.83685547 10.57765625 20.125 10.625 C20.97449219 10.66367188 21.82398438 10.70234375 22.69921875 10.7421875 C24.79911684 10.83656494 26.89952891 10.91937586 29 11 C28.04454634 12.46022163 27.08553322 13.91811468 26.125 15.375 C25.59132812 16.18710938 25.05765625 16.99921875 24.5078125 17.8359375 C23 20 23 20 21 22 C18.05903263 22.17539436 15.21346651 22.23132375 12.2734375 22.1953125 C11.41062164 22.1924826 10.54780579 22.18965271 9.65884399 22.18673706 C6.8974228 22.17552333 4.1363235 22.15041684 1.375 22.125 C-0.49478699 22.11497173 -2.36457905 22.10584562 -4.234375 22.09765625 C-8.82304109 22.07558012 -13.41146593 22.04104234 -18 22 C-17.01 20.515 -17.01 20.515 -16 19 C-12.9609375 18.70703125 -12.9609375 18.70703125 -9.375 18.8125 C-8.18648437 18.83957031 -6.99796875 18.86664063 -5.7734375 18.89453125 C-4.85820312 18.92933594 -3.94296875 18.96414062 -3 19 C-3.03480469 17.79601562 -3.06960937 16.59203125 -3.10546875 15.3515625 C-3.1336028 13.77605558 -3.16090337 12.20053362 -3.1875 10.625 C-3.22520508 9.43390625 -3.22520508 9.43390625 -3.26367188 8.21875 C-3.29004405 6.14413852 -3.15486462 4.06899135 -3 2 C-2.01 1.34 -1.02 0.68 0 0 Z " fill="#2C1218" transform="translate(152,103)"/>
<path d="M0 0 C0 1.32 0 2.64 0 4 C2.97 4 5.94 4 9 4 C8.01 4.495 8.01 4.495 7 5 C7.020625 5.969375 7.04125 6.93875 7.0625 7.9375 C7 11 7 11 6 12 C8.97 12 11.94 12 15 12 C14.67 10.35 14.34 8.7 14 7 C17.96 7 21.92 7 26 7 C25.34 7.66 24.68 8.32 24 9 C24.495 9.99 24.495 9.99 25 11 C24.01 11.33 23.02 11.66 22 12 C22.99 12.66 23.98 13.32 25 14 C24.01 14.33 23.02 14.66 22 15 C22.86625 15.63808594 23.7325 16.27617188 24.625 16.93359375 C25.75012461 17.76806117 26.87511788 18.60270572 28 19.4375 C28.57234375 19.85837891 29.1446875 20.27925781 29.734375 20.71289062 C31.17453919 21.78444136 32.58951996 22.88966676 34 24 C34 24.33 34 24.66 34 25 C25.75 25 17.5 25 9 25 C15 16 15 16 16 15 C4.615 14.505 4.615 14.505 -7 14 C-5.68 13.34 -4.36 12.68 -3 12 C-4.32 11.34 -5.64 10.68 -7 10 C-6.01 10 -5.02 10 -4 10 C-4 9.34 -4 8.68 -4 8 C-4.94875 8.04125 -5.8975 8.0825 -6.875 8.125 C-10 8 -10 8 -12 6 C-11.67 5.34 -11.34 4.68 -11 4 C-10.34 4 -9.68 4 -9 4 C-9 3.34 -9 2.68 -9 2 C-5.62902617 0.50178941 -3.79557881 0 0 0 Z " fill="#421A24" transform="translate(164,100)"/>
<path d="M0 0 C1.39572052 -0.02736707 2.79160221 -0.04655989 4.1875 -0.0625 C4.96480469 -0.07410156 5.74210937 -0.08570312 6.54296875 -0.09765625 C9 0 9 0 11.4375 0.5 C14.28848418 1.0562896 16.91062895 1.0974623 19.8125 1.0625 C21.27623047 1.04896484 21.27623047 1.04896484 22.76953125 1.03515625 C23.50558594 1.02355469 24.24164063 1.01195313 25 1 C24.67 1.99 24.34 2.98 24 4 C24.99 3.67 25.98 3.34 27 3 C27.495 4.98 27.495 4.98 28 7 C25.36 7 22.72 7 20 7 C19.67 7.66 19.34 8.32 19 9 C19.66 9.33 20.32 9.66 21 10 C16.87626978 10.86310633 14.0779734 10.83413092 10 10 C4.29283267 9.7287086 -1.24897367 10.02095097 -6.89453125 10.87890625 C-9.41174246 11.02368092 -11.53240965 10.50169382 -14 10 C-15.89536927 9.95805545 -17.79211816 9.95862741 -19.6875 10 C-24.77950713 10.11024643 -24.77950713 10.11024643 -27 9 C-27 8.34 -27 7.68 -27 7 C-26.01 7 -25.02 7 -24 7 C-24.66 6.01 -25.32 5.02 -26 4 C-26.66 3.01 -27.32 2.02 -28 1 C-24.37 1 -20.74 1 -17 1 C-17 1.66 -17 2.32 -17 3 C-15.1746875 2.7215625 -15.1746875 2.7215625 -13.3125 2.4375 C-9.97022061 2.01006818 -7.28031583 2.07741117 -4 3 C-4 3.33 -4 3.66 -4 4 C-5.65 4 -7.3 4 -9 4 C-8.67 4.99 -8.34 5.98 -8 7 C-5.02982306 6.37189827 -5.02982306 6.37189827 -2 5 C-0.56076801 2.49004504 -0.56076801 2.49004504 0 0 Z " fill="#1F191C" transform="translate(52,90)"/>
<path d="M0 0 C0.99 0.33 1.98 0.66 3 1 C3.19601608 2.74906659 3.38147403 4.49931846 3.5625 6.25 C3.66691406 7.22453125 3.77132812 8.1990625 3.87890625 9.203125 C3.98974468 11.7631352 3.77738092 13.58148159 3 16 C1.68 16 0.36 16 -1 16 C-1.33 15.01 -1.66 14.02 -2 13 C-3.32 14.65 -4.64 16.3 -6 18 C-5.195625 18.9075 -4.39125 19.815 -3.5625 20.75 C-1.58857329 23.10309908 -0.36122533 24.86938046 0 28 C2.31 28 4.62 28 7 28 C6.01 28.66 5.02 29.32 4 30 C4.66 30.33 5.32 30.66 6 31 C6.6875 33 6.6875 33 7 35 C6.67 35.33 6.34 35.66 6 36 C6.66 36.66 7.32 37.32 8 38 C4.04 38 0.08 38 -4 38 C-4 36.68 -4 35.36 -4 34 C-3.01 33.505 -3.01 33.505 -2 33 C-2.66 32.67 -3.32 32.34 -4 32 C-4.625 29.9375 -4.625 29.9375 -5 28 C-4.01 28 -3.02 28 -2 28 C-3.01497436 24.95507691 -3.5821057 23.9701361 -6 22 C-8.10332891 21.28552357 -8.10332891 21.28552357 -10 21 C-10.33 21.99 -10.66 22.98 -11 24 C-12.671875 25.68359375 -12.671875 25.68359375 -14.75 27.4375 C-15.46671875 28.0459375 -16.1834375 28.654375 -16.921875 29.28125 C-19.26014318 31.21515601 -21.60876067 33.13184428 -24 35 C-24.66 34.67 -25.32 34.34 -26 34 C-25.51789063 33.46890625 -25.03578125 32.9378125 -24.5390625 32.390625 C-23.90742188 31.68421875 -23.27578125 30.9778125 -22.625 30.25 C-21.99851563 29.55390625 -21.37203125 28.8578125 -20.7265625 28.140625 C-18.94835844 26.09589804 -18.94835844 26.09589804 -17.92578125 23.8203125 C-17 22 -17 22 -14.5625 20.625 C-11.33658987 18.57930089 -10.46286636 16.46468347 -9 13 C-8.34 13 -7.68 13 -7 13 C-7.66 12.34 -8.32 11.68 -9 11 C-10 10 -11 9 -12 8 C-10.73398069 5.46796138 -9.65538869 5.18640935 -7.125 4 C-4.55892982 2.78798161 -2.38096302 1.58730868 0 0 Z " fill="#48313E" transform="translate(205,54)"/>
<path d="M0 0 C10.56 0 21.12 0 32 0 C32 3.3 32 6.6 32 10 C21.44 10 10.88 10 0 10 C0 6.7 0 3.4 0 0 Z " fill="#E42D39" transform="translate(258,15)"/>
<path d="M0 0 C0 11.88 0 23.76 0 36 C-4.45003453 34.21998619 -6.1108475 33.50825661 -9 30 C-9.75 27.75 -9.75 27.75 -10 26 C-9.34 26 -8.68 26 -8 26 C-8.37125 25.319375 -8.7425 24.63875 -9.125 23.9375 C-10.278776 20.06410913 -9.19377929 17.79200482 -8 14 C-8.33 13.01 -8.66 12.02 -9 11 C-8.67 10.34 -8.34 9.68 -8 9 C-8.66 8.67 -9.32 8.34 -10 8 C-9.67 7.67 -9.34 7.34 -9 7 C-9.66 6.34 -10.32 5.68 -11 5 C-10.34 5 -9.68 5 -9 5 C-9.33 4.01 -9.66 3.02 -10 2 C-7 0 -7 0 0 0 Z M-11 30 C-9 31 -9 31 -9 31 Z " fill="#230F13" transform="translate(224,82)"/>
<path d="M0 0 C1.40912096 2.81824192 1.11183553 5.17251282 1.09765625 8.3203125 C1.09443359 9.57714844 1.09121094 10.83398438 1.08789062 12.12890625 C1.07951172 13.44761719 1.07113281 14.76632813 1.0625 16.125 C1.05748489 17.46484211 1.05292201 18.804686 1.04882812 20.14453125 C1.03701086 23.42973206 1.02053617 26.71484397 1 30 C-0.95649397 30.83764268 -2.91525556 31.66999059 -4.875 32.5 C-5.96554688 32.9640625 -7.05609375 33.428125 -8.1796875 33.90625 C-11 35 -11 35 -13 35 C-13 21 -13 21 -11.6550293 19.6394043 C-10.83578979 18.82789917 -10.83578979 18.82789917 -10 18 C-9.12716273 16.61785244 -8.30301378 15.20422004 -7.51953125 13.76953125 C-7.07802734 12.96708984 -6.63652344 12.16464844 -6.18164062 11.33789062 C-5.72982422 10.50451172 -5.27800781 9.67113281 -4.8125 8.8125 C-4.34908203 7.96751953 -3.88566406 7.12253906 -3.40820312 6.25195312 C-2.26749219 4.17044966 -1.13162891 2.08645072 0 0 Z " fill="#321519" transform="translate(242,61)"/>
<path d="M0 0 C0.99 0.33 1.98 0.66 3 1 C-0.465 4.96 -0.465 4.96 -4 9 C-3.34 9 -2.68 9 -2 9 C-2.33 10.65 -2.66 12.3 -3 14 C-3.495 12.515 -3.495 12.515 -4 11 C-4.91523438 11.5775 -5.83046875 12.155 -6.7734375 12.75 C-7.97381205 13.5002341 -9.17434092 14.25022133 -10.375 15 C-10.97828125 15.3815625 -11.5815625 15.763125 -12.203125 16.15625 C-16.7734375 19 -16.7734375 19 -19 19 C-18.505 21.475 -18.505 21.475 -18 24 C-14.04 23.505 -14.04 23.505 -10 23 C-10 23.66 -10 24.32 -10 25 C-13.3 25 -16.6 25 -20 25 C-20 23.68 -20 22.36 -20 21 C-21.48117801 21.28127421 -22.95993249 21.57533732 -24.4375 21.875 C-25.26121094 22.03742188 -26.08492187 22.19984375 -26.93359375 22.3671875 C-27.61550781 22.57601562 -28.29742187 22.78484375 -29 23 C-29.33 23.66 -29.66 24.32 -30 25 C-33.56063386 26.34403373 -37.30354837 27.11180668 -41 28 C-42.06347656 28.28359375 -43.12695312 28.5671875 -44.22265625 28.859375 C-56.07512359 31.69220823 -67.88516102 31.2935015 -80 31 C-80 30.67 -80 30.34 -80 30 C-78.56333984 29.94392578 -78.56333984 29.94392578 -77.09765625 29.88671875 C-50.35552946 28.89297002 -50.35552946 28.89297002 -28 17 C-23.76056338 15.61971831 -23.76056338 15.61971831 -21 17 C-19.31503702 16.03114628 -17.64821244 15.03013277 -16 14 C-15.34 14 -14.68 14 -14 14 C-14 13.34 -14 12.68 -14 12 C-13.030625 11.71125 -12.06125 11.4225 -11.0625 11.125 C-7.89335797 10.35785318 -7.89335797 10.35785318 -7 8 C-5.66666667 6.66666667 -4.33333333 5.33333333 -3 4 C-2.67 3.34 -2.34 2.68 -2 2 C-1.34 2 -0.68 2 0 2 C0 1.34 0 0.68 0 0 Z " fill="#4E1F34" transform="translate(184,79)"/>
<path d="M0 0 C7.26 0 14.52 0 22 0 C22 3.3 22 6.6 22 10 C14.74 10 7.48 10 0 10 C0 6.7 0 3.4 0 0 Z " fill="#2A282B" transform="translate(232,15)"/>
<path d="M0 0 C3.43846528 1.48652842 6.33718157 3.33718157 9 6 C9 7.65 9 9.3 9 11 C1.74 11 -5.52 11 -13 11 C-12 4 -12 4 -9.875 1.5625 C-6.18691203 -0.44189564 -4.15524754 -0.57313759 0 0 Z " fill="#4E1A28" transform="translate(216,114)"/>
<path d="M0 0 C2.4377963 -0.05397335 4.87439685 -0.09365616 7.3125 -0.125 C8.00279297 -0.14175781 8.69308594 -0.15851563 9.40429688 -0.17578125 C13.17135396 -0.21217794 14.78431704 -0.14378864 18 2 C18.99 2 19.98 2 21 2 C20.01 4.64 19.02 7.28 18 10 C17.34 9.34 16.68 8.68 16 8 C15.01 8 14.02 8 13 8 C12.67 8.99 12.34 9.98 12 11 C10.20866022 11.05391993 8.41686101 11.09275571 6.625 11.125 C5.62726563 11.14820312 4.62953125 11.17140625 3.6015625 11.1953125 C1 11 1 11 -1 9 C-0.625 7.125 -0.625 7.125 0 5 C0 3.68 0 2.36 0 1 C0 0.67 0 0.34 0 0 Z " fill="#401620" transform="translate(181,95)"/>
<path d="M0 0 C0.66 0 1.32 0 2 0 C2 1.32 2 2.64 2 4 C1.50886719 4.44988281 1.01773438 4.89976562 0.51171875 5.36328125 C-1.76895975 7.83254299 -1.29329519 9.90784901 -1.1875 13.1875 C-1.16042969 14.27417969 -1.13335937 15.36085938 -1.10546875 16.48046875 C-1.05326172 17.72763672 -1.05326172 17.72763672 -1 19 C-3.64 19 -6.28 19 -9 19 C-8.67 18.34 -8.34 17.68 -8 17 C-6.68 17 -5.36 17 -4 17 C-4.33 15.35 -4.66 13.7 -5 12 C-5.99 12.99 -6.98 13.98 -8 15 C-8.33 14.34 -8.66 13.68 -9 13 C-7.55615686 10.18025928 -5.75020068 7.64664493 -4 5 C-7.96 5 -11.92 5 -16 5 C-15.67 6.32 -15.34 7.64 -15 9 C-14.01 8.67 -13.02 8.34 -12 8 C-12 8.99 -12 9.98 -12 11 C-11.54625 10.34 -11.0925 9.68 -10.625 9 C-10.08875 8.34 -9.5525 7.68 -9 7 C-8.34 7 -7.68 7 -7 7 C-8.46710942 11.84146109 -11.3512744 15.55948972 -15 19 C-15.66 19 -16.32 19 -17 19 C-17.91657981 13.61509359 -18.11138159 8.45769811 -18 3 C-16.86820313 2.95101563 -15.73640625 2.90203125 -14.5703125 2.8515625 C-13.08851661 2.77653486 -11.606747 2.70098703 -10.125 2.625 C-9.37863281 2.5940625 -8.63226563 2.563125 -7.86328125 2.53125 C-3.46526812 2.44356169 -3.46526812 2.44356169 0 0 Z " fill="#D8D8D8" transform="translate(161,3)"/>
<path d="M0 0 C3.63 0 7.26 0 11 0 C11 0.66 11 1.32 11 2 C12.8253125 1.7215625 12.8253125 1.7215625 14.6875 1.4375 C18.02977939 1.01006818 20.71968417 1.07741117 24 2 C24 2.33 24 2.66 24 3 C22.35 3 20.7 3 19 3 C19.33 3.99 19.66 4.98 20 6 C24.95 6 29.9 6 35 6 C35 6.99 35 7.98 35 9 C32.43788925 9.19569589 29.87567609 9.38180612 27.3125 9.5625 C26.59126953 9.61857422 25.87003906 9.67464844 25.12695312 9.73242188 C21.18930499 10.0021238 17.83416593 9.86557258 14 9 C12.10463073 8.95805545 10.20788184 8.95862741 8.3125 9 C3.22049287 9.11024643 3.22049287 9.11024643 1 8 C1 7.34 1 6.68 1 6 C1.99 6 2.98 6 4 6 C3.34 5.01 2.68 4.02 2 3 C1.34 2.01 0.68 1.02 0 0 Z " fill="#2A2225" transform="translate(24,91)"/>
<path d="M0 0 C4.38911582 0.87734635 7.30545627 3.27464672 10.75 6 C11.35199219 6.4640625 11.95398438 6.928125 12.57421875 7.40625 C14.07263016 8.57507885 15.53940525 9.78424483 17 11 C17 11.33 17 11.66 17 12 C8.75 12 0.5 12 -8 12 C-5.33333333 8 -2.66666667 4 0 0 Z " fill="#B51928" transform="translate(181,113)"/>
<path d="M0 0 C4.34464536 0.60825035 8.67551867 1.26167392 13 2 C13 1.34 13 0.68 13 0 C13.66 0 14.32 0 15 0 C15.33 0.66 15.66 1.32 16 2 C16.99 2.33 17.98 2.66 19 3 C19.33 3.33 19.66 3.66 20 4 C20.33 3.34 20.66 2.68 21 2 C23.475 2.495 23.475 2.495 26 3 C25.67 4.65 25.34 6.3 25 8 C21.70840684 8.05790353 18.41694397 8.09356261 15.125 8.125 C13.71927734 8.15013672 13.71927734 8.15013672 12.28515625 8.17578125 C11.38925781 8.18222656 10.49335938 8.18867187 9.5703125 8.1953125 C8.74289551 8.20578613 7.91547852 8.21625977 7.06298828 8.22705078 C5 8 5 8 3 6 C2.67 6.66 2.34 7.32 2 8 C1.34 8 0.68 8 0 8 C0 5.36 0 2.72 0 0 Z " fill="#AFADAF" transform="translate(138,26)"/>
<path d="M0 0 C2.89377093 1.44688546 5.18533078 2.75081864 7.75 4.625 C8.67039063 5.29402344 8.67039063 5.29402344 9.609375 5.9765625 C10.06828125 6.31429687 10.5271875 6.65203125 11 7 C10.44151174 11.18358477 7.95553698 14.02629569 5.4375 17.25 C5.01275391 17.80429688 4.58800781 18.35859375 4.15039062 18.9296875 C3.10601659 20.29089411 2.05377536 21.64605833 1 23 C0.34 22.67 -0.32 22.34 -1 22 C-0.67 14.74 -0.34 7.48 0 0 Z " fill="#371419" transform="translate(227,101)"/>
<path d="M0 0 C3.63393495 1.54442235 4.78822059 2.48567857 6.3125 6.1875 C6.6528125 7.5796875 6.6528125 7.5796875 7 9 C9.31 9 11.62 9 14 9 C13.01 9.66 12.02 10.32 11 11 C11.66 11.33 12.32 11.66 13 12 C13.6875 14 13.6875 14 14 16 C13.67 16.33 13.34 16.66 13 17 C13.66 17.66 14.32 18.32 15 19 C11.04 19 7.08 19 3 19 C3 17.68 3 16.36 3 15 C3.66 14.67 4.32 14.34 5 14 C4.34 13.67 3.68 13.34 3 13 C2.375 10.9375 2.375 10.9375 2 9 C2.99 9 3.98 9 5 9 C3.59728322 4.79184965 1.66227337 3.44151558 -2 1 C-1.34 0.67 -0.68 0.34 0 0 Z " fill="#4E2A3C" transform="translate(198,73)"/>
<path d="M0 0 C1.98 0 3.96 0 6 0 C6.11269443 6.1105424 5.89604368 11.95170514 5 18 C7.31 18.33 9.62 18.66 12 19 C12 19.99 12 20.98 12 22 C10.824375 21.835 9.64875 21.67 8.4375 21.5 C4.58726127 21.01271488 0.87741927 20.91922043 -3 21 C-3 20.34 -3 19.68 -3 19 C-1.35 18.67 0.3 18.34 2 18 C2.33 15.36 2.66 12.72 3 10 C2.01 10 1.02 10 0 10 C0 6.7 0 3.4 0 0 Z " fill="#6C6669" transform="translate(38,72)"/>
<path d="M0 0 C3.96 0 7.92 0 12 0 C10.74646003 3.13384992 9.53924548 6.03145514 8 9 C9.32 8.01 10.64 7.02 12 6 C12 7.98 12 9.96 12 12 C10.68 12.33 9.36 12.66 8 13 C10.97 13.495 10.97 13.495 14 14 C14 14.33 14 14.66 14 15 C10.04 15 6.08 15 2 15 C2 11.16235973 3.26535335 9.88513915 5.5 6.8125 C6.1496875 5.91144531 6.799375 5.01039062 7.46875 4.08203125 C8.22671875 3.05142578 8.22671875 3.05142578 9 2 C8.21625 2.804375 7.4325 3.60875 6.625 4.4375 C4 7 4 7 2 8 C2.66 6.35 3.32 4.7 4 3 C2.02 3.99 2.02 3.99 0 5 C0 3.35 0 1.7 0 0 Z " fill="#494749" transform="translate(145,8)"/>
<path d="M0 0 C5 0 10 0 15 0 C15.125 3.375 15.125 3.375 15 7 C14.34 7.66 13.68 8.32 13 9 C10.375 8.625 10.375 8.625 8 8 C8 7.01 8 6.02 8 5 C7.67 5.66 7.34 6.32 7 7 C6.01 7 5.02 7 4 7 C4 5.35 4 3.7 4 2 C3.34 2 2.68 2 2 2 C2 3.65 2 5.3 2 7 C1.34 7 0.68 7 0 7 C0 4.69 0 2.38 0 0 Z " fill="#B4B2B3" transform="translate(53,75)"/>
<path d="M0 0 C1.32 0.33 2.64 0.66 4 1 C3.814375 1.7425 3.62875 2.485 3.4375 3.25 C2.99630929 6.02319878 3.31692301 7.35307668 4 10 C3.5625 12.25 3.5625 12.25 3 14 C3.66 14.33 4.32 14.66 5 15 C4.649375 16.051875 4.29875 17.10375 3.9375 18.1875 C3.05029473 21.7954681 2.94737118 23.52632489 4 27 C1.69 26.67 -0.62 26.34 -3 26 C-1.68 25.67 -0.36 25.34 1 25 C0.67 24.01 0.34 23.02 0 22 C0 18.61976483 0.87455622 16.16531063 2 13 C1.34 12.67 0.68 12.34 0 12 C0.33 11.34 0.66 10.68 1 10 C0.01 9.67 -0.98 9.34 -2 9 C-1.67 7.35 -1.34 5.7 -1 4 C-2.32 3.67 -3.64 3.34 -5 3 C-3.35 2.67 -1.7 2.34 0 2 C0 1.34 0 0.68 0 0 Z " fill="#351319" transform="translate(212,81)"/>
<path d="M0 0 C0.33 0.66 0.66 1.32 1 2 C5.62 2 10.24 2 15 2 C15 3.98 15 5.96 15 8 C7.57142857 8.28571429 7.57142857 8.28571429 4 6 C4.99 6 5.98 6 7 6 C7 5.34 7 4.68 7 4 C6.05125 4.04125 5.1025 4.0825 4.125 4.125 C1 4 1 4 -1 2 C-0.67 1.34 -0.34 0.68 0 0 Z " fill="#441C29" transform="translate(153,104)"/>
<path d="M0 0 C0 0.99 0 1.98 0 3 C-2.24993359 3.02707139 -4.49996095 3.04642829 -6.75 3.0625 C-8.00296875 3.07410156 -9.2559375 3.08570313 -10.546875 3.09765625 C-13.28536501 3.02021027 -15.41880293 2.82780815 -18 2 C-17.67 1.01 -17.34 0.02 -17 -1 C-5.16939252 -3.30841121 -5.16939252 -3.30841121 0 0 Z " fill="#3F393C" transform="translate(164,35)"/>
<path d="M0 0 C0.33 0.66 0.66 1.32 1 2 C0.46375 2.2475 -0.0725 2.495 -0.625 2.75 C-6.62125906 5.67130596 -6.62125906 5.67130596 -10 11 C-10.99 11 -11.98 11 -13 11 C-12.76683515 6.95847594 -12.5771041 4.66197236 -9.875 1.5625 C-6.36169288 -0.34690605 -3.94140436 -0.30912975 0 0 Z " fill="#552336" transform="translate(216,114)"/>
<path d="M0 0 C0.66 0 1.32 0 2 0 C0.53289058 4.84146109 -2.3512744 8.55948972 -6 12 C-6.66 12 -7.32 12 -8 12 C-9.125 6.375 -9.125 6.375 -8 3 C-5.4375 1.8125 -5.4375 1.8125 -3 1 C-3 1.99 -3 2.98 -3 4 C-2.54625 3.34 -2.0925 2.68 -1.625 2 C-1.08875 1.34 -0.5525 0.68 0 0 Z " fill="#EAE9E9" transform="translate(152,10)"/>
<path d="M0 0 C1.32 0.33 2.64 0.66 4 1 C6.18703385 0.62092718 6.18703385 0.62092718 8 0 C8 1.65 8 3.3 8 5 C7.34 5 6.68 5 6 5 C6 6.65 6 8.3 6 10 C4.02 10 2.04 10 0 10 C0 6.7 0 3.4 0 0 Z " fill="#ABA7A9" transform="translate(122,72)"/>
<path d="M0 0 C17.85649203 -0.18451025 17.85649203 -0.18451025 26 1 C26 1.66 26 2.32 26 3 C21.36336046 4.24690506 17.10080436 3.9133063 12.375 3.5625 C6.69294663 3.15146434 6.69294663 3.15146434 1 3 C0.67 2.01 0.34 1.02 0 0 Z " fill="#676567" transform="translate(16,18)"/>
<path d="M0 0 C6.6 0 13.2 0 20 0 C20 0.99 20 1.98 20 3 C17.41703983 3.19522373 14.83395921 3.38144403 12.25 3.5625 C11.52039062 3.61857422 10.79078125 3.67464844 10.0390625 3.73242188 C6.45046349 3.97709908 3.44972775 3.99666259 0 3 C0 2.01 0 1.02 0 0 Z " fill="#666265" transform="translate(39,97)"/>
<path d="M0 0 C0.66 2.31 1.32 4.62 2 7 C-1.63 7 -5.26 7 -9 7 C-9 6.01 -9 5.02 -9 4 C-8.34 3.67 -7.68 3.34 -7 3 C-7 2.34 -7 1.68 -7 1 C-4.50935112 0.31292445 -2.62113708 0 0 0 Z " fill="#2C1015" transform="translate(178,106)"/>
<path d="M0 0 C2.01822917 0.06510417 4.03645833 0.13020833 6.0546875 0.1953125 C6.3846875 1.1853125 6.7146875 2.1753125 7.0546875 3.1953125 C6.7246875 3.5253125 6.3946875 3.8553125 6.0546875 4.1953125 C6.7146875 4.8553125 7.3746875 5.5153125 8.0546875 6.1953125 C4.0946875 6.1953125 0.1346875 6.1953125 -3.9453125 6.1953125 C-3.9453125 0.39611571 -3.9453125 0.39611571 0 0 Z " fill="#4C2333" transform="translate(204.9453125,85.8046875)"/>
<path d="M0 0 C7.07721931 -0.12109311 13.97195301 0.14626761 21 1 C21 1.66 21 2.32 21 3 C16.25 4.125 16.25 4.125 14 3 C11.62597499 2.92883618 9.24999323 2.91590915 6.875 2.9375 C5.59367187 2.94652344 4.31234375 2.95554687 2.9921875 2.96484375 C2.00476562 2.97644531 1.01734375 2.98804687 0 3 C0 2.01 0 1.02 0 0 Z " fill="#F0888F" transform="translate(46,114)"/>
<path d="M0 0 C1.4540625 0.0309375 1.4540625 0.0309375 2.9375 0.0625 C2.9375 2.3725 2.9375 4.6825 2.9375 7.0625 C0.93795254 7.10504356 -1.06291636 7.10330783 -3.0625 7.0625 C-4.0625 6.0625 -4.0625 6.0625 -4.1875 3.5625 C-4.00295237 -0.12845252 -3.76342282 0.07680455 0 0 Z " fill="#BCBABB" transform="translate(34.0625,74.9375)"/>
<path d="M0 0 C0.99 0 1.98 0 3 0 C3 0.99 3 1.98 3 3 C4.32 3.33 5.64 3.66 7 4 C7 5.98 7 7.96 7 10 C6.34 10 5.68 10 5 10 C5 8.35 5 6.7 5 5 C4.34 5 3.68 5 3 5 C3 6.65 3 8.3 3 10 C2.01 10 1.02 10 0 10 C0 6.7 0 3.4 0 0 Z " fill="#C2C1C2" transform="translate(22,72)"/>
<path d="M0 0 C2.31 0 4.62 0 7 0 C7 0.66 7 1.32 7 2 C8.32 2.66 9.64 3.32 11 4 C2.75 4 -5.5 4 -14 4 C-14 3.67 -14 3.34 -14 3 C-9.38 3 -4.76 3 0 3 C0 2.01 0 1.02 0 0 Z " fill="#4F2636" transform="translate(204,104)"/>
<path d="M0 0 C1.2684375 0.12375 1.2684375 0.12375 2.5625 0.25 C3.2225 1.24 3.8825 2.23 4.5625 3.25 C1.5925 2.755 1.5925 2.755 -1.4375 2.25 C-1.4375 3.9 -1.4375 5.55 -1.4375 7.25 C0.5425 6.59 2.5225 5.93 4.5625 5.25 C3.9025 6.57 3.2425 7.89 2.5625 9.25 C-2.1875 8.5 -2.1875 8.5 -4.4375 6.25 C-3.72185719 0.38172894 -3.72185719 0.38172894 0 0 Z " fill="#CECDCE" transform="translate(16.4375,72.75)"/>
<path d="M0 0 C0 0.99 0 1.98 0 3 C-4.62 3 -9.24 3 -14 3 C-14 2.01 -14 1.02 -14 0 C-8.97874074 -0.77916092 -5.02296004 -1.13016601 0 0 Z " fill="#6E6568" transform="translate(143,97)"/>
<path d="M0 0 C4.95 0 9.9 0 15 0 C14.67 0.66 14.34 1.32 14 2 C10.04 2 6.08 2 2 2 C1.67 4.31 1.34 6.62 1 9 C0.67 9 0.34 9 0 9 C0 6.03 0 3.06 0 0 Z " fill="#F9F9F9" transform="translate(143,6)"/>
<path d="M0 0 C0.33 0 0.66 0 1 0 C1 1.98 1 3.96 1 6 C-0.32 6.33 -1.64 6.66 -3 7 C-0.03 7.495 -0.03 7.495 3 8 C3 8.33 3 8.66 3 9 C1.741875 9.04125 0.48375 9.0825 -0.8125 9.125 C-1.52019531 9.14820313 -2.22789062 9.17140625 -2.95703125 9.1953125 C-5 9 -5 9 -8 7 C-6.6875 5 -6.6875 5 -5 3 C-4.01 3 -3.02 3 -2 3 C-1.34 2.01 -0.68 1.02 0 0 Z " fill="#BCBBBC" transform="translate(156,14)"/>
<path d="M0 0 C1.32 0.33 2.64 0.66 4 1 C3.814375 1.78375 3.62875 2.5675 3.4375 3.375 C2.74037734 5.97089775 2.74037734 5.97089775 4 8 C2.02 8.66 0.04 9.32 -2 10 C-2 7 -2 7 -1 4 C-2.32 3.67 -3.64 3.34 -5 3 C-3.35 2.67 -1.7 2.34 0 2 C0 1.34 0 0.68 0 0 Z " fill="#411A26" transform="translate(212,81)"/>
<path d="M0 0 C1.67542976 0.28604898 3.34385343 0.61781233 5 1 C5 2.65 5 4.3 5 6 C3.34385343 6.38218767 1.67542976 6.71395102 0 7 C-1 6 -1 6 -1.125 3.5 C-1 1 -1 1 0 0 Z " fill="#E2E1E1" transform="translate(88,75)"/>
<path d="M0 0 C1.875 1.0625 1.875 1.0625 4.875 5.0625 C0.915 5.0625 -3.045 5.0625 -7.125 5.0625 C-2.75092047 0.08090943 -2.75092047 0.08090943 0 0 Z " fill="#401B26" transform="translate(125.125,119.9375)"/>
<path d="M0 0 C0.99 0 1.98 0 3 0 C3.33 0.66 3.66 1.32 4 2 C5.32 1.34 6.64 0.68 8 0 C7.34 2.97 6.68 5.94 6 9 C5.01 9 4.02 9 3 9 C2.01 6.03 1.02 3.06 0 0 Z " fill="#CECDCD" transform="translate(79,73)"/>
<path d="M0 0 C1.67542976 0.28604898 3.34385343 0.61781233 5 1 C4.67 2.65 4.34 4.3 4 6 C2.125 6.625 2.125 6.625 0 7 C-0.66 6.34 -1.32 5.68 -2 5 C-1.46428571 1.46428571 -1.46428571 1.46428571 0 0 Z " fill="#D1CFD0" transform="translate(47,75)"/>
<path d="M0 0 C3 3 3 3 3.07421875 6.35546875 C2.94660156 7.62003906 2.81898438 8.88460937 2.6875 10.1875 C2.56761719 11.45980469 2.44773438 12.73210937 2.32421875 14.04296875 C2.21722656 15.01878906 2.11023438 15.99460937 2 17 C1.34 17 0.68 17 0 17 C0 11.39 0 5.78 0 0 Z " fill="#511921" transform="translate(225,98)"/>
<path d="M0 0 C3.3 0 6.6 0 10 0 C10 0.99 10 1.98 10 3 C8.54263913 3.19491452 7.08405407 3.38069358 5.625 3.5625 C4.81289062 3.66691406 4.00078125 3.77132812 3.1640625 3.87890625 C1 4 1 4 -1 3 C-0.67 2.01 -0.34 1.02 0 0 Z " fill="#6C686A" transform="translate(86,90)"/>
<path d="M0 0 C1.67542976 0.28604898 3.34385343 0.61781233 5 1 C5 2.65 5 4.3 5 6 C3.34385343 6.38218767 1.67542976 6.71395102 0 7 C-1 6 -1 6 -1.125 3.5 C-1 1 -1 1 0 0 Z " fill="#D6D4D5" transform="translate(116,75)"/>
<path d="M0 0 C1.67542976 0.28604898 3.34385343 0.61781233 5 1 C5 2.65 5 4.3 5 6 C3.34385343 6.38218767 1.67542976 6.71395102 0 7 C-1 6 -1 6 -1.125 3.5 C-1 1 -1 1 0 0 Z " fill="#D5D4D5" transform="translate(70,75)"/>
<path d="M0 0 C3.96 0 7.92 0 12 0 C12 0.99 12 1.98 12 3 C8.37 3 4.74 3 1 3 C0.67 2.01 0.34 1.02 0 0 Z " fill="#635F62" transform="translate(12,97)"/>
<path d="M0 0 C2.6875 0.3125 2.6875 0.3125 5 1 C4.67 2.65 4.34 4.3 4 6 C1.0625 5.625 1.0625 5.625 -2 5 C-2.33 4.34 -2.66 3.68 -3 3 C-1.8125 1.4375 -1.8125 1.4375 0 0 Z " fill="#B1AFB0" transform="translate(159,28)"/>
<path d="M0 0 C0 0.99 0 1.98 0 3 C-1.175625 2.835 -2.35125 2.67 -3.5625 2.5 C-7.41273873 2.01271488 -11.12258073 1.91922043 -15 2 C-15 1.34 -15 0.68 -15 0 C-9.62374766 -0.84888195 -5.34629602 -1.0024305 0 0 Z " fill="#787577" transform="translate(50,91)"/>
<path d="M0 0 C0.66 0 1.32 0 2 0 C2 1.65 2 3.3 2 5 C2.66 5 3.32 5 4 5 C4 3.35 4 1.7 4 0 C4.66 0 5.32 0 6 0 C6 2.31 6 4.62 6 7 C4.33388095 7.042721 2.66617115 7.04063832 1 7 C0 6 0 6 -0.0625 2.9375 C-0.041875 1.968125 -0.02125 0.99875 0 0 Z " fill="#DEDEDE" transform="translate(95,75)"/>
<path d="M0 0 C0.99 0 1.98 0 3 0 C3 3.3 3 6.6 3 10 C2.01 10 1.02 10 0 10 C0 6.7 0 3.4 0 0 Z " fill="#A8A7A8" transform="translate(38,72)"/>
<path d="M0 0 C6.93 0.495 6.93 0.495 14 1 C14 1.66 14 2.32 14 3 C9.38 3 4.76 3 0 3 C0 2.01 0 1.02 0 0 Z " fill="#656264" transform="translate(199,18)"/>
<path d="M0 0 C1.65 0.33 3.3 0.66 5 1 C5 4 5 4 4 7 C2.35 6.67 0.7 6.34 -1 6 C-1 3 -1 3 0 0 Z " fill="#D6D4D5" transform="translate(109,75)"/>
<path d="M0 0 C-0.99 0.495 -0.99 0.495 -2 1 C-2.66 0.67 -3.32 0.34 -4 0 C-4 0.99 -4 1.98 -4 3 C-6.31 2.67 -8.62 2.34 -11 2 C-10.67 1.01 -10.34 0.02 -10 -1 C-5.92224809 -1.9267618 -3.57818963 -2.33958553 0 0 Z " fill="#2D272A" transform="translate(157,35)"/>
<path d="M0 0 C-1.47692308 6.64615385 -1.47692308 6.64615385 -4.125 8.4375 C-4.74375 8.623125 -5.3625 8.80875 -6 9 C-5.6875 5.625 -5.6875 5.625 -5 2 C-2 0 -2 0 0 0 Z " fill="#C3C1C2" transform="translate(149,11)"/>
<path d="M0 0 C2.64 0.33 5.28 0.66 8 1 C8.33 1.99 8.66 2.98 9 4 C2.375 4.125 2.375 4.125 -1 3 C-0.67 2.01 -0.34 1.02 0 0 Z " fill="#5E585B" transform="translate(72,96)"/>
<path d="M0 0 C3.3 0 6.6 0 10 0 C9.67 1.32 9.34 2.64 9 4 C4.545 3.01 4.545 3.01 0 2 C0 1.34 0 0.68 0 0 Z " fill="#635F61" transform="translate(60,97)"/>
<path d="M0 0 C0.99 0 1.98 0 3 0 C3 1.65 3 3.3 3 5 C2.34 5 1.68 5 1 5 C1 6.65 1 8.3 1 10 C0.34 10 -0.32 10 -1 10 C-1.02689216 8.52093108 -1.04634621 7.04172517 -1.0625 5.5625 C-1.07410156 4.73878906 -1.08570312 3.91507812 -1.09765625 3.06640625 C-1 1 -1 1 0 0 Z " fill="#D6D5D6" transform="translate(127,72)"/>
<path d="M0 0 C1 2 1 2 0.2578125 4.32421875 C-1.00755037 7.01606213 -2.44277327 9.3623002 -4.125 11.8125 C-4.66382813 12.60269531 -5.20265625 13.39289063 -5.7578125 14.20703125 C-6.37269531 15.09455078 -6.37269531 15.09455078 -7 16 C-7.33 15.34 -7.66 14.68 -8 14 C-6.75717988 11.54961707 -5.47117661 9.226675 -4.0625 6.875 C-3.48338867 5.88693359 -3.48338867 5.88693359 -2.89257812 4.87890625 C-1.93553422 3.248387 -0.96867185 1.62363816 0 0 Z " fill="#391A25" transform="translate(240,65)"/>
<path d="M0 0 C1.79133978 -0.05391993 3.58313899 -0.09275571 5.375 -0.125 C6.37273438 -0.14820312 7.37046875 -0.17140625 8.3984375 -0.1953125 C11 0 11 0 13 2 C10.47524538 3.26237731 8.68799534 3.09856404 5.875 3.0625 C4.96492188 3.05347656 4.05484375 3.04445313 3.1171875 3.03515625 C2.41851563 3.02355469 1.71984375 3.01195312 1 3 C0.67 2.01 0.34 1.02 0 0 Z " fill="#595759" transform="translate(16,18)"/>
<path d="M0 0 C2.97 0 5.94 0 9 0 C8.67 0.99 8.34 1.98 8 3 C5.03 3 2.06 3 -1 3 C-0.67 2.01 -0.34 1.02 0 0 Z " fill="#666163" transform="translate(92,97)"/>
<path d="M0 0 C1.98 0 3.96 0 6 0 C6 1.98 6 3.96 6 6 C5.67 4.68 5.34 3.36 5 2 C4.01 2 3.02 2 2 2 C2 3.65 2 5.3 2 7 C1.34 7 0.68 7 0 7 C0 4.69 0 2.38 0 0 Z " fill="#E6E5E5" transform="translate(53,75)"/>
<path d="M0 0 C5.94 0 11.88 0 18 0 C18 0.33 18 0.66 18 1 C16.77023438 1.09087891 16.77023438 1.09087891 15.515625 1.18359375 C13.89914063 1.30927734 13.89914063 1.30927734 12.25 1.4375 C11.18265625 1.51871094 10.1153125 1.59992188 9.015625 1.68359375 C6.56320038 1.94090773 4.36078709 2.31812218 2 3 C1.34 2.01 0.68 1.02 0 0 Z " fill="#361319" transform="translate(185,114)"/>
<path d="M0 0 C2.475 0.99 2.475 0.99 5 2 C5 2.33 5 2.66 5 3 C-1.27 3 -7.54 3 -14 3 C-14 2.67 -14 2.34 -14 2 C-13.07316406 1.93941406 -12.14632812 1.87882812 -11.19140625 1.81640625 C-9.39509766 1.69072266 -9.39509766 1.69072266 -7.5625 1.5625 C-5.77005859 1.44068359 -5.77005859 1.44068359 -3.94140625 1.31640625 C-1.11429756 1.32343886 -1.11429756 1.32343886 0 0 Z " fill="#512536" transform="translate(193,92)"/>
<path d="M0 0 C3.63 0.33 7.26 0.66 11 1 C11 1.66 11 2.32 11 3 C9.741875 3.185625 8.48375 3.37125 7.1875 3.5625 C6.12595703 3.71912109 6.12595703 3.71912109 5.04296875 3.87890625 C3 4 3 4 0 3 C0 2.01 0 1.02 0 0 Z " fill="#747173" transform="translate(12,90)"/>
<path d="M0 0 C2.97 0 5.94 0 9 0 C8.67 0.99 8.34 1.98 8 3 C2.25 3.125 2.25 3.125 0 2 C0 1.34 0 0.68 0 0 Z " fill="#676164" transform="translate(25,97)"/>
<path d="M0 0 C2.97 0.33 5.94 0.66 9 1 C9 1.66 9 2.32 9 3 C4.545 3.495 4.545 3.495 0 4 C0 2.68 0 1.36 0 0 Z " fill="#665F62" transform="translate(111,90)"/>
<path d="M0 0 C3.63 0 7.26 0 11 0 C11 0.66 11 1.32 11 2 C6.25 3.125 6.25 3.125 4 2 C2.68 2 1.36 2 0 2 C0 1.34 0 0.68 0 0 Z " fill="#F39CA2" transform="translate(56,115)"/>
<path d="M0 0 C2.64 0 5.28 0 8 0 C8.33 0.99 8.66 1.98 9 3 C6.03 3 3.06 3 0 3 C0 2.01 0 1.02 0 0 Z " fill="#716B6E" transform="translate(114,97)"/>
<path d="M0 0 C2.64 0 5.28 0 8 0 C8 0.99 8 1.98 8 3 C5.36 3 2.72 3 0 3 C0 2.01 0 1.02 0 0 Z " fill="#696467" transform="translate(82,97)"/>
<path d="M0 0 C3.63 0 7.26 0 11 0 C10.67 0.66 10.34 1.32 10 2 C7.93359375 2.4140625 7.93359375 2.4140625 5.4375 2.625 C4.61121094 2.69976562 3.78492187 2.77453125 2.93359375 2.8515625 C1.97646484 2.92503906 1.97646484 2.92503906 1 3 C0.67 2.01 0.34 1.02 0 0 Z " fill="#6B6669" transform="translate(64,91)"/>
<path d="M0 0 C1.45823212 -0.0270043 2.91660675 -0.04639787 4.375 -0.0625 C5.18710937 -0.07410156 5.99921875 -0.08570312 6.8359375 -0.09765625 C9 0 9 0 11 1 C11 1.66 11 2.32 11 3 C6.545 3.495 6.545 3.495 2 4 C1.34 2.68 0.68 1.36 0 0 Z " fill="#736F71" transform="translate(52,90)"/>
<path d="M0 0 C3.3 0 6.6 0 10 0 C10 0.66 10 1.32 10 2 C6.7 2.33 3.4 2.66 0 3 C0 2.01 0 1.02 0 0 Z " fill="#6E6C6E" transform="translate(238,19)"/>
<path d="M0 0 C6.15234375 0.5859375 6.15234375 0.5859375 8 1 C8.33 1.66 8.66 2.32 9 3 C5.62182575 3.84454356 3.32534757 4.10844919 0 3 C0 2.01 0 1.02 0 0 Z " fill="#6E696B" transform="translate(39,97)"/>
<path d="M0 0 C2.97 0.495 2.97 0.495 6 1 C5.01 1.495 5.01 1.495 4 2 C3.67 2.99 3.34 3.98 3 5 C2.01 5 1.02 5 0 5 C0 3.35 0 1.7 0 0 Z " fill="#2C292D" transform="translate(15,75)"/>
<path d="M0 0 C0.99 0.33 1.98 0.66 3 1 C4.66621616 1.03874921 6.33394172 1.0450286 8 1 C7.01 2.485 7.01 2.485 6 4 C2.875 4.1875 2.875 4.1875 0 4 C0 2.68 0 1.36 0 0 Z " fill="#6B6568" transform="translate(102,90)"/>
<path d="M0 0 C2.97 0 5.94 0 9 0 C9 0.99 9 1.98 9 3 C6.36 3 3.72 3 1 3 C0.67 2.01 0.34 1.02 0 0 Z " fill="#6B676A" transform="translate(24,91)"/>
<path d="M0 0 C0.99 1.485 0.99 1.485 2 3 C3.98 2.67 5.96 2.34 8 2 C7.34 3.32 6.68 4.64 6 6 C4.35 5.67 2.7 5.34 1 5 C0.67 3.35 0.34 1.7 0 0 Z " fill="#E2E2E2" transform="translate(13,76)"/>
<path d="M0 0 C0 2.64 0 5.28 0 8 C-0.33 8 -0.66 8 -1 8 C-1.33 6.35 -1.66 4.7 -2 3 C-2.99 3.99 -3.98 4.98 -5 6 C-5.33 5.34 -5.66 4.68 -6 4 C-3.33333333 0 -3.33333333 0 0 0 Z " fill="#D5D4D5" transform="translate(158,12)"/>
<path d="M0 0 C1.98 0 3.96 0 6 0 C4.75023244 3.65316671 4.32901247 4.78065836 1 7 C1.66 5.35 2.32 3.7 3 2 C2.01 2 1.02 2 0 2 C0 1.34 0 0.68 0 0 Z " fill="#3A383A" transform="translate(146,9)"/>
<path d="M0 0 C1.65 0.33 3.3 0.66 5 1 C3.75 2.5 3.75 2.5 2 4 C0.68 4 -0.64 4 -2 4 C-1.34 2.68 -0.68 1.36 0 0 Z " fill="#481C2A" transform="translate(157,95)"/>
<path d="M0 0 C1.98 0 3.96 0 6 0 C6 0.99 6 1.98 6 3 C4.02 3 2.04 3 0 3 C0 2.01 0 1.02 0 0 Z " fill="#130D11" transform="translate(22,122)"/>
<path d="M0 0 C1.65 0 3.3 0 5 0 C5.33 0.99 5.66 1.98 6 3 C4.02 3.33 2.04 3.66 0 4 C0 2.68 0 1.36 0 0 Z " fill="#6B6568" transform="translate(76,90)"/>
<path d="M0 0 C0.99 0 1.98 0 3 0 C3.33 1.32 3.66 2.64 4 4 C2.35 4.33 0.7 4.66 -1 5 C-0.67 3.35 -0.34 1.7 0 0 Z " fill="#8C898A" transform="translate(89,77)"/>
<path d="M0 0 C1.32 0 2.64 0 4 0 C3.34 2.31 2.68 4.62 2 7 C1.34 7 0.68 7 0 7 C0 4.69 0 2.38 0 0 Z " fill="#DFDEDE" transform="translate(103,75)"/>
<path d="M0 0 C2.31 0 4.62 0 7 0 C5.75 1.5 5.75 1.5 4 3 C2.68 3 1.36 3 0 3 C0 2.01 0 1.02 0 0 Z " fill="#655C5F" transform="translate(129,97)"/>
<path d="M0 0 C0.66 0 1.32 0 2 0 C2 0.99 2 1.98 2 3 C0.68 3 -0.64 3 -2 3 C-2 3.99 -2 4.98 -2 6 C-2.99 6 -3.98 6 -5 6 C-4.34 4.68 -3.68 3.36 -3 2 C-2.01 2 -1.02 2 0 2 C0 1.34 0 0.68 0 0 Z " fill="#696668" transform="translate(151,26)"/>
<path d="M0 0 C2.64 0.33 5.28 0.66 8 1 C8 1.66 8 2.32 8 3 C5.36 3 2.72 3 0 3 C0 2.01 0 1.02 0 0 Z " fill="#656264" transform="translate(101,18)"/>
<path d="M0 0 C0.33 0 0.66 0 1 0 C1 1.98 1 3.96 1 6 C-0.65 6 -2.3 6 -4 6 C-2.69593116 3.98079663 -1.36176581 1.98075027 0 0 Z " fill="#1D1B1E" transform="translate(156,14)"/>
</svg>
