<?xml version="1.0" encoding="UTF-8"?>
<!DOCTYPE svg PUBLIC "-//W3C//DTD SVG 1.1//EN" "http://www.w3.org/Graphics/SVG/1.1/DTD/svg11.dtd">
<svg xmlns="http://www.w3.org/2000/svg" version="1.1" width="713px" height="165px" style="shape-rendering:geometricPrecision; text-rendering:geometricPrecision; image-rendering:optimizeQuality; fill-rule:evenodd; clip-rule:evenodd" xmlns:xlink="http://www.w3.org/1999/xlink">
<g><path style="opacity:1" fill="#fefefe" d="M -0.5,-0.5 C 0.5,-0.5 1.5,-0.5 2.5,-0.5C 2.21719,0.28913 1.71719,0.955796 1,1.5C 0.500173,11.828 0.333507,22.1613 0.5,32.5C 0.333343,75.5013 0.50001,118.501 1,161.5C 2.04499,162.373 2.87833,163.373 3.5,164.5C 2.16667,164.5 0.833333,164.5 -0.5,164.5C -0.5,109.5 -0.5,54.5 -0.5,-0.5 Z"/></g>
<g><path style="opacity:1" fill="#c3c3c3" d="M 2.5,-0.5 C 3.16667,-0.5 3.83333,-0.5 4.5,-0.5C 3.87833,0.626561 3.04499,1.62656 2,2.5C 1.5002,12.1609 1.33353,21.8276 1.5,31.5C 96.1667,31.5 190.833,31.5 285.5,31.5C 285.5,20.8333 285.5,10.1667 285.5,-0.5C 285.833,-0.5 286.167,-0.5 286.5,-0.5C 286.5,10.1667 286.5,20.8333 286.5,31.5C 428.167,31.5 569.833,31.5 711.5,31.5C 711.173,21.985 711.506,12.6517 712.5,3.5C 712.5,13.1667 712.5,22.8333 712.5,32.5C 712.167,32.5 711.833,32.5 711.5,32.5C 569.833,32.5 428.167,32.5 286.5,32.5C 286.167,32.5 285.833,32.5 285.5,32.5C 190.833,32.5 96.1667,32.5 1.5,32.5C 1.16667,32.5 0.833333,32.5 0.5,32.5C 0.333507,22.1613 0.500173,11.828 1,1.5C 1.71719,0.955796 2.21719,0.28913 2.5,-0.5 Z"/></g>
<g><path style="opacity:1" fill="#e4e4e4" d="M 4.5,-0.5 C 98.1667,-0.5 191.833,-0.5 285.5,-0.5C 285.5,10.1667 285.5,20.8333 285.5,31.5C 190.833,31.5 96.1667,31.5 1.5,31.5C 1.33353,21.8276 1.5002,12.1609 2,2.5C 3.04499,1.62656 3.87833,0.626561 4.5,-0.5 Z"/></g>
<g><path style="opacity:1" fill="#e3e3e3" d="M 286.5,-0.5 C 428.5,-0.5 570.5,-0.5 712.5,-0.5C 712.5,0.833333 712.5,2.16667 712.5,3.5C 711.506,12.6517 711.173,21.985 711.5,31.5C 569.833,31.5 428.167,31.5 286.5,31.5C 286.5,20.8333 286.5,10.1667 286.5,-0.5 Z"/></g>
<g><path style="opacity:1" fill="#242424" d="M 14.5,10.5 C 20.3596,9.07375 22.3596,11.0738 20.5,16.5C 19.2638,17.2458 17.9305,17.5792 16.5,17.5C 16.719,18.675 16.3857,19.675 15.5,20.5C 14.513,17.2317 14.1796,13.8984 14.5,10.5 Z"/></g>
<g><path style="opacity:1" fill="#2d2d2d" d="M 56.5,11.5 C 54.8333,11.5 53.1667,11.5 51.5,11.5C 51.5,12.8333 51.5,14.1667 51.5,15.5C 52.8333,15.5 54.1667,15.5 55.5,15.5C 54.4324,16.4345 53.099,16.7678 51.5,16.5C 51.762,17.9778 51.4287,19.3112 50.5,20.5C 49.513,17.2317 49.1796,13.8984 49.5,10.5C 52.0593,10.1984 54.3926,10.5318 56.5,11.5 Z"/></g>
<g><path style="opacity:1" fill="#515151" d="M 57.5,9.5 C 59.337,9.63945 59.6704,10.3061 58.5,11.5C 57.7025,11.0431 57.3691,10.3764 57.5,9.5 Z"/></g>
<g><path style="opacity:1" fill="#2e2e2e" d="M 299.5,10.5 C 301.527,10.3379 303.527,10.5045 305.5,11C 308.349,15.36 307.016,17.5266 301.5,17.5C 301.719,18.675 301.386,19.675 300.5,20.5C 299.513,17.2317 299.18,13.8984 299.5,10.5 Z"/></g>
<g><path style="opacity:1" fill="#494949" d="M 314.5,9.5 C 316.337,9.63945 316.67,10.3061 315.5,11.5C 314.702,11.0431 314.369,10.3764 314.5,9.5 Z"/></g>
<g><path style="opacity:1" fill="#2b2b2b" d="M 431.5,10.5 C 432.777,11.6936 433.444,13.3603 433.5,15.5C 433.167,17.1667 432.833,18.8333 432.5,20.5C 431.682,17.8929 431.182,15.2263 431,12.5C 430.346,13.6956 429.846,13.6956 429.5,12.5C 430.243,11.8182 430.909,11.1515 431.5,10.5 Z"/></g>
<g><path style="opacity:1" fill="#c5c5c5" d="M 16.5,11.5 C 18.3464,11.2222 19.6798,11.8888 20.5,13.5C 19.6798,15.1112 18.3464,15.7778 16.5,15.5C 16.5,14.1667 16.5,12.8333 16.5,11.5 Z"/></g>
<g><path style="opacity:1" fill="#c7c7c7" d="M 301.5,11.5 C 303.346,11.2222 304.68,11.8888 305.5,13.5C 304.68,15.1112 303.346,15.7778 301.5,15.5C 301.5,14.1667 301.5,12.8333 301.5,11.5 Z"/></g>
<g><path style="opacity:1" fill="#2d2d2d" d="M 28.5,14.5 C 27.5,14.5 26.5,14.5 25.5,14.5C 25.7989,16.604 25.4656,18.604 24.5,20.5C 23.52,17.9135 23.1866,15.2469 23.5,12.5C 25.7812,12.0773 27.4479,12.744 28.5,14.5 Z"/></g>
<g><path style="opacity:1" fill="#3a3a3a" d="M 57.5,12.5 C 58.7479,13.3339 59.4146,14.6672 59.5,16.5C 59.1667,17.8333 58.8333,19.1667 58.5,20.5C 57.52,17.9135 57.1866,15.2469 57.5,12.5 Z"/></g>
<g><path style="opacity:1" fill="#292929" d="M 61.5,12.5 C 62.9778,12.238 64.3112,12.5713 65.5,13.5C 64.1189,15.6349 63.1189,17.9682 62.5,20.5C 61.52,17.9135 61.1866,15.2469 61.5,12.5 Z"/></g>
<g><path style="opacity:1" fill="#353535" d="M 67.5,12.5 C 70.9271,13.0984 74.2605,13.2651 77.5,13C 78.7766,15.4659 78.7766,17.9659 77.5,20.5C 76.5344,18.604 76.2011,16.604 76.5,14.5C 75.5,14.5 74.5,14.5 73.5,14.5C 73.1136,22.3981 72.1136,22.3981 70.5,14.5C 69.8333,16.5 69.1667,18.5 68.5,20.5C 67.52,17.9135 67.1866,15.2469 67.5,12.5 Z"/></g>
<g><path style="opacity:1" fill="#1d1d1d" d="M 309.5,12.5 C 310.806,12.879 312.139,13.2124 313.5,13.5C 312.675,14.3857 311.675,14.719 310.5,14.5C 310.662,16.5273 310.495,18.5273 310,20.5C 309.503,17.854 309.336,15.1873 309.5,12.5 Z"/></g>
<g><path style="opacity:1" fill="#343434" d="M 314.5,12.5 C 315.748,13.3339 316.415,14.6672 316.5,16.5C 316.167,17.8333 315.833,19.1667 315.5,20.5C 314.52,17.9135 314.187,15.2469 314.5,12.5 Z"/></g>
<g><path style="opacity:1" fill="#434343" d="M 338.5,10.5 C 339.586,10.62 340.253,11.2867 340.5,12.5C 340.167,13.1667 339.833,13.8333 339.5,14.5C 338.571,13.3112 338.238,11.9778 338.5,10.5 Z"/></g>
<g><path style="opacity:1" fill="#2d2d2d" d="M 351.5,12.5 C 357.204,12.1464 359.037,14.813 357,20.5C 356.505,18.5273 356.338,16.5273 356.5,14.5C 355.5,14.5 354.5,14.5 353.5,14.5C 353.799,16.604 353.466,18.604 352.5,20.5C 351.52,17.9135 351.187,15.2469 351.5,12.5 Z"/></g>
<g><path style="opacity:1" fill="#262626" d="M 379.5,12.5 C 382.927,13.0984 386.26,13.2651 389.5,13C 390.777,15.4659 390.777,17.9659 389.5,20.5C 388.534,18.604 388.201,16.604 388.5,14.5C 387.5,14.5 386.5,14.5 385.5,14.5C 385.167,22.5 384.833,22.5 384.5,14.5C 383.5,14.5 382.5,14.5 381.5,14.5C 381.799,16.604 381.466,18.604 380.5,20.5C 379.52,17.9135 379.187,15.2469 379.5,12.5 Z"/></g>
<g><path style="opacity:1" fill="#333333" d="M 421.5,19.5 C 419.907,20.8672 418.574,20.5339 417.5,18.5C 418.472,16.3635 420.139,15.1968 422.5,15C 421.167,14.6667 419.833,14.3333 418.5,14C 421.99,11.7445 423.99,12.7445 424.5,17C 424.563,19.8774 423.563,20.7108 421.5,19.5 Z"/></g>
<g><path style="opacity:1" fill="#646464" d="M 56.5,11.5 C 55.2825,12.1614 53.9492,12.8281 52.5,13.5C 53.6016,14.1757 54.6016,14.8423 55.5,15.5C 54.1667,15.5 52.8333,15.5 51.5,15.5C 51.5,14.1667 51.5,12.8333 51.5,11.5C 53.1667,11.5 54.8333,11.5 56.5,11.5 Z"/></g>
<g><path style="opacity:1" fill="#242424" d="M 364.5,12.5 C 366.665,12.1159 368.332,12.7826 369.5,14.5C 367.997,15.0522 366.331,15.0522 364.5,14.5C 363.952,18.7953 365.619,20.2953 369.5,19C 367.798,20.7184 365.965,20.885 364,19.5C 363.297,17.0709 363.463,14.7375 364.5,12.5 Z"/></g>
<g><path style="opacity:1" fill="#212121" d="M 372.5,12.5 C 374.144,12.2865 375.644,12.6198 377,13.5C 377.758,15.7695 377.591,17.9361 376.5,20C 374.888,20.7203 373.388,20.5536 372,19.5C 371.297,17.0709 371.463,14.7375 372.5,12.5 Z"/></g>
<g><path style="opacity:1" fill="#c0c0c0" d="M 372.5,14.5 C 373.833,14.5 375.167,14.5 376.5,14.5C 376.884,16.6648 376.217,18.3315 374.5,19.5C 372.783,18.3315 372.116,16.6648 372.5,14.5 Z"/></g>
<g><path style="opacity:1" fill="#232323" d="M 401.5,11.5 C 402.756,11.4614 403.756,11.9614 404.5,13C 403.652,15.6708 403.319,18.1708 403.5,20.5C 401.887,18.5395 400.887,16.2061 400.5,13.5C 400.863,12.8165 401.196,12.1499 401.5,11.5 Z"/></g>
<g><path style="opacity:1" fill="#353535" d="M 407.5,12.5 C 411.5,11.8333 413.167,13.5 412.5,17.5C 410.801,17.3398 409.134,17.5065 407.5,18C 408.025,18.6924 408.692,19.1924 409.5,19.5C 410.451,18.6744 411.451,18.5078 412.5,19C 411.07,20.4404 409.403,20.7737 407.5,20C 406.221,17.5024 406.221,15.0024 407.5,12.5 Z"/></g>
<g><path style="opacity:1" fill="#2b2b2b" d="M 437.5,10.5 C 442.989,10.504 444.822,13.1707 443,18.5C 440.916,21.033 438.916,21.033 437,18.5C 436.278,15.7395 436.445,13.0728 437.5,10.5 Z"/></g>
<g><path style="opacity:1" fill="#dcdcdc" d="M 439.5,11.5 C 441.951,13.9162 442.117,16.5829 440,19.5C 438.188,16.9543 438.022,14.2877 439.5,11.5 Z"/></g>
<g><path style="opacity:1" fill="#2b2b2b" d="M 459.5,10.5 C 464.989,10.504 466.822,13.1707 465,18.5C 462.916,21.033 460.916,21.033 459,18.5C 458.278,15.7395 458.445,13.0728 459.5,10.5 Z"/></g>
<g><path style="opacity:1" fill="#dcdcdc" d="M 461.5,11.5 C 463.951,13.9162 464.117,16.5829 462,19.5C 460.188,16.9543 460.022,14.2877 461.5,11.5 Z"/></g>
<g><path style="opacity:1" fill="#2b2b2b" d="M 468.5,10.5 C 473.989,10.504 475.822,13.1707 474,18.5C 471.916,21.033 469.916,21.033 468,18.5C 467.278,15.7395 467.445,13.0728 468.5,10.5 Z"/></g>
<g><path style="opacity:1" fill="#dcdcdc" d="M 470.5,11.5 C 472.951,13.9162 473.117,16.5829 471,19.5C 469.188,16.9543 469.022,14.2877 470.5,11.5 Z"/></g>
<g><path style="opacity:1" fill="#2c2c2c" d="M 318.5,12.5 C 319.482,13.1408 320.482,13.8075 321.5,14.5C 322.258,13.1886 323.258,12.6886 324.5,13C 321.833,15.3333 321.833,17.6667 324.5,20C 323.004,20.5074 321.837,20.0074 321,18.5C 320.333,19.1667 319.667,19.8333 319,20.5C 319.81,17.8433 319.644,15.1766 318.5,12.5 Z"/></g>
<g><path style="opacity:1" fill="#272727" d="M 334.5,10.5 C 335.777,11.6936 336.444,13.3603 336.5,15.5C 336.167,17.1667 335.833,18.8333 335.5,20.5C 334.402,19.3845 333.235,19.3845 332,20.5C 331.228,20.3552 330.561,20.0219 330,19.5C 329.333,17.5 329.333,15.5 330,13.5C 331.333,12.1667 332.667,12.1667 334,13.5C 334.483,12.552 334.649,11.552 334.5,10.5 Z"/></g>
<g><path style="opacity:1" fill="#dcdcdc" d="M 331.5,14.5 C 332.5,14.5 333.5,14.5 334.5,14.5C 334.5,15.8333 334.5,17.1667 334.5,18.5C 333.5,18.5 332.5,18.5 331.5,18.5C 331.5,17.1667 331.5,15.8333 331.5,14.5 Z"/></g>
<g><path style="opacity:1" fill="#343434" d="M 392.5,12.5 C 398.209,11.8672 400.209,14.2005 398.5,19.5C 397.311,20.4287 395.978,20.762 394.5,20.5C 394.719,21.675 394.386,22.675 393.5,23.5C 392.511,19.8927 392.177,16.226 392.5,12.5 Z"/></g>
<g><path style="opacity:1" fill="#dedede" d="M 394.5,14.5 C 395.5,14.5 396.5,14.5 397.5,14.5C 397.5,15.8333 397.5,17.1667 397.5,18.5C 396.5,18.5 395.5,18.5 394.5,18.5C 394.5,17.1667 394.5,15.8333 394.5,14.5 Z"/></g>
<g><path style="opacity:1" fill="#313131" d="M 37.5,12.5 C 39.6106,12.7721 41.7772,13.1054 44,13.5C 45.7129,18.1991 44.2129,20.5324 39.5,20.5C 39.719,21.675 39.3857,22.675 38.5,23.5C 37.5108,19.8927 37.1774,16.226 37.5,12.5 Z"/></g>
<g><path style="opacity:1" fill="#dfdfdf" d="M 39.5,14.5 C 40.5,14.5 41.5,14.5 42.5,14.5C 42.5,15.8333 42.5,17.1667 42.5,18.5C 41.5,18.5 40.5,18.5 39.5,18.5C 39.5,17.1667 39.5,15.8333 39.5,14.5 Z"/></g>
<g><path style="opacity:1" fill="#2f2f2f" d="M 342.5,12.5 C 344.09,14.4746 345.257,16.8079 346,19.5C 347.043,17.2994 347.877,14.9661 348.5,12.5C 349.48,15.0865 349.813,17.7531 349.5,20.5C 343.095,21.5938 340.762,18.9271 342.5,12.5 Z"/></g>
<g><path style="opacity:1" fill="#373737" d="M 28.5,14.5 C 34.4074,10.8941 36.5741,12.5608 35,19.5C 30.4716,21.1524 28.3049,19.4857 28.5,14.5 Z"/></g>
<g><path style="opacity:1" fill="#dddddd" d="M 30.5,14.5 C 31.5,14.5 32.5,14.5 33.5,14.5C 33.5,15.8333 33.5,17.1667 33.5,18.5C 32.5,18.5 31.5,18.5 30.5,18.5C 30.5,17.1667 30.5,15.8333 30.5,14.5 Z"/></g>
<g><path style="opacity:1" fill="#b2b2b2" d="M 421.5,19.5 C 420.624,19.6309 419.957,19.2975 419.5,18.5C 421.808,17.1266 422.475,17.4599 421.5,19.5 Z"/></g>
<g><path style="opacity:1" fill="#252525" d="M 487.5,10.5 C 489.665,10.1159 491.332,10.7826 492.5,12.5C 491.091,12.6541 489.424,12.8208 487.5,13C 488.966,13.6355 490.3,14.4688 491.5,15.5C 493.23,19.6062 491.897,21.1062 487.5,20C 487.043,19.586 486.709,19.086 486.5,18.5C 487.995,18.5221 489.662,18.1887 491.5,17.5C 487.246,16.6496 485.913,14.3163 487.5,10.5 Z"/></g>
<g><path style="opacity:1" fill="#252525" d="M 447.5,10.5 C 449.144,10.2865 450.644,10.6198 452,11.5C 452.667,13.8333 452.667,16.1667 452,18.5C 450.084,21.033 448.084,21.033 446,18.5C 445.109,15.5024 445.609,12.8357 447.5,10.5 Z"/></g>
<g><path style="opacity:1" fill="#cacaca" d="M 448.5,11.5 C 452.225,13.7916 452.392,16.4583 449,19.5C 447.188,16.9543 447.022,14.2877 448.5,11.5 Z"/></g>
<g><path style="opacity:1" fill="#252525" d="M 478.5,10.5 C 480.144,10.2865 481.644,10.6198 483,11.5C 483.667,13.8333 483.667,16.1667 483,18.5C 481.084,21.033 479.084,21.033 477,18.5C 476.109,15.5024 476.609,12.8357 478.5,10.5 Z"/></g>
<g><path style="opacity:1" fill="#cacaca" d="M 479.5,11.5 C 483.225,13.7916 483.392,16.4583 480,19.5C 478.188,16.9543 478.022,14.2877 479.5,11.5 Z"/></g>
<g><path style="opacity:1" fill="#d9d9d9" d="M 0.5,32.5 C 0.833333,32.5 1.16667,32.5 1.5,32.5C 1.5,43.1667 1.5,53.8333 1.5,64.5C 96.1667,64.5 190.833,64.5 285.5,64.5C 285.5,53.8333 285.5,43.1667 285.5,32.5C 285.833,32.5 286.167,32.5 286.5,32.5C 286.5,43.1667 286.5,53.8333 286.5,64.5C 428.167,64.5 569.833,64.5 711.5,64.5C 711.5,53.8333 711.5,43.1667 711.5,32.5C 711.833,32.5 712.167,32.5 712.5,32.5C 712.5,76.5 712.5,120.5 712.5,164.5C 476.167,164.5 239.833,164.5 3.5,164.5C 2.87833,163.373 2.04499,162.373 1,161.5C 0.50001,118.501 0.333343,75.5013 0.5,32.5 Z"/></g>
<g><path style="opacity:1" fill="#fefefe" d="M 1.5,32.5 C 96.1667,32.5 190.833,32.5 285.5,32.5C 285.5,43.1667 285.5,53.8333 285.5,64.5C 190.833,64.5 96.1667,64.5 1.5,64.5C 1.5,53.8333 1.5,43.1667 1.5,32.5 Z"/></g>
<g><path style="opacity:1" fill="#fefefe" d="M 286.5,32.5 C 428.167,32.5 569.833,32.5 711.5,32.5C 711.5,43.1667 711.5,53.8333 711.5,64.5C 569.833,64.5 428.167,64.5 286.5,64.5C 286.5,53.8333 286.5,43.1667 286.5,32.5 Z"/></g>
<g><path style="opacity:1" fill="#5b5b5b" d="M 14.5,43.5 C 16.5273,43.3379 18.5273,43.5045 20.5,44C 19.2068,44.49 17.8734,44.6567 16.5,44.5C 16.5,45.5 16.5,46.5 16.5,47.5C 21.8333,48.1667 21.8333,48.8333 16.5,49.5C 16.762,50.9778 16.4287,52.3112 15.5,53.5C 14.513,50.2317 14.1796,46.8984 14.5,43.5 Z"/></g>
<g><path style="opacity:1" fill="#444444" d="M 49.5,52.5 C 51.4295,48.8683 50.5962,46.2016 47,44.5C 46.228,44.6448 45.5613,44.9781 45,45.5C 44.5045,47.4727 44.3379,49.4727 44.5,51.5C 42.1005,49.4194 41.9338,47.0861 44,44.5C 46.0639,43.4086 48.2305,43.2419 50.5,44C 51.1078,45.231 51.4411,46.5643 51.5,48C 51.6932,50.0081 51.0265,51.5081 49.5,52.5 Z"/></g>
<g><path style="opacity:1" fill="#464646" d="M 318.5,51.5 C 317.371,49.3718 317.204,47.0385 318,44.5C 324.489,43.5358 326.156,46.2025 323,52.5C 320.955,54.0432 319.455,53.7099 318.5,51.5 Z"/></g>
<g><path style="opacity:1" fill="#9f9f9f" d="M 22.5,43.5 C 23.209,44.404 24.209,44.7373 25.5,44.5C 25.5,47.5 25.5,50.5 25.5,53.5C 24.5269,51.0521 24.1936,48.3854 24.5,45.5C 23.325,45.719 22.325,45.3857 21.5,44.5C 21.6236,43.8933 21.9569,43.56 22.5,43.5 Z"/></g>
<g><path style="opacity:1" fill="#393939" d="M 22.5,43.5 C 24.8568,43.3367 27.1902,43.5034 29.5,44C 28.552,44.4828 27.552,44.6495 26.5,44.5C 26.81,47.7131 26.4767,50.7131 25.5,53.5C 25.5,50.5 25.5,47.5 25.5,44.5C 24.209,44.7373 23.209,44.404 22.5,43.5 Z"/></g>
<g><path style="opacity:1" fill="#f3f3f3" d="M 49.5,52.5 C 47.7085,52.634 46.0418,52.3007 44.5,51.5C 44.3379,49.4727 44.5045,47.4727 45,45.5C 45.5613,44.9781 46.228,44.6448 47,44.5C 50.5962,46.2016 51.4295,48.8683 49.5,52.5 Z"/></g>
<g><path style="opacity:1" fill="#f4f4f4" d="M 318.5,51.5 C 318.338,49.4727 318.505,47.4727 319,45.5C 320,44.1667 321,44.1667 322,45.5C 322.667,47.5 322.667,49.5 322,51.5C 320.855,52.6843 319.688,52.6843 318.5,51.5 Z"/></g>
<g><path style="opacity:1" fill="#292929" d="M 34.5,49.5 C 33.7784,49.0825 33.2784,48.4158 33,47.5C 32.6667,49.5 32.3333,51.5 32,53.5C 31.3333,50.1667 31.3333,46.8333 32,43.5C 33.6625,45.1579 34.4959,47.1579 34.5,49.5 Z"/></g>
<g><path style="opacity:1" fill="#5e5e5e" d="M 34.5,49.5 C 35.2216,49.9175 35.7216,50.5842 36,51.5C 40.6574,40.6714 42.1574,41.338 40.5,53.5C 39.7022,51.9223 39.2022,50.2556 39,48.5C 38.3128,50.5547 37.1461,52.2214 35.5,53.5C 34.5713,52.3112 34.238,50.9778 34.5,49.5 Z"/></g>
<g><path style="opacity:1" fill="#373737" d="M 328.5,51.5 C 324.502,48.3625 324.836,45.8625 329.5,44C 330.5,43.3333 331.5,43.3333 332.5,44C 331.167,44.6667 329.833,45.3333 328.5,46C 332.449,46.8068 332.449,47.3068 328.5,47.5C 328.5,48.8333 328.5,50.1667 328.5,51.5 Z"/></g>
<g><path style="opacity:1" fill="#545454" d="M 300.5,43.5 C 306.324,43.3466 306.657,44.0133 301.5,45.5C 305.804,46.5969 307.138,49.0969 305.5,53C 303.833,53.6667 302.167,53.6667 300.5,53C 299.289,52.1072 299.289,51.2739 300.5,50.5C 302.249,53.1271 303.916,53.1271 305.5,50.5C 304.332,48.7826 302.665,48.1159 300.5,48.5C 300.5,46.8333 300.5,45.1667 300.5,43.5 Z"/></g>
<g><path style="opacity:1" fill="#454545" d="M 312.5,43.5 C 314.154,45.5597 315.154,48.0597 315.5,51C 314.953,51.9246 314.287,52.7579 313.5,53.5C 312.158,51.9951 310.492,51.3285 308.5,51.5C 308.351,50.448 308.517,49.448 309,48.5C 309.71,49.9733 310.876,50.6399 312.5,50.5C 312.15,47.9592 312.15,45.6258 312.5,43.5 Z"/></g>
<g><path style="opacity:1" fill="#8d8d8d" d="M 328.5,51.5 C 330.288,51.2148 331.955,51.5481 333.5,52.5C 331.418,53.8943 329.751,53.561 328.5,51.5 Z"/></g>
<g><path style="opacity:1" fill="#2f2f2f" d="M 44.5,51.5 C 46.0418,52.3007 47.7085,52.634 49.5,52.5C 48.9032,53.1386 48.0698,53.472 47,53.5C 45.6244,53.3158 44.7911,52.6491 44.5,51.5 Z"/></g>
<g><path style="opacity:1" fill="#fdfdfd" d="M 1.5,65.5 C 96.1667,65.5 190.833,65.5 285.5,65.5C 285.5,76.1667 285.5,86.8333 285.5,97.5C 190.833,97.5 96.1667,97.5 1.5,97.5C 1.5,86.8333 1.5,76.1667 1.5,65.5 Z"/></g>
<g><path style="opacity:1" fill="#fefefe" d="M 286.5,65.5 C 428.167,65.5 569.833,65.5 711.5,65.5C 711.5,76.1667 711.5,86.8333 711.5,97.5C 569.833,97.5 428.167,97.5 286.5,97.5C 286.5,86.8333 286.5,76.1667 286.5,65.5 Z"/></g>
<g><path style="opacity:1" fill="#141414" d="M 25.5,79.5 C 24.7904,81.7463 24.2904,84.0796 24,86.5C 23.3333,83.1667 23.3333,79.8333 24,76.5C 24.2321,77.7375 24.7321,78.7375 25.5,79.5 Z"/></g>
<g><path style="opacity:1" fill="#585858" d="M 42.5,76.5 C 44.5273,76.3379 46.5273,76.5045 48.5,77C 47.2068,77.49 45.8734,77.6567 44.5,77.5C 44.5,78.5 44.5,79.5 44.5,80.5C 49.8333,81.1667 49.8333,81.8333 44.5,82.5C 44.762,83.9778 44.4287,85.3112 43.5,86.5C 42.513,83.2317 42.1796,79.8984 42.5,76.5 Z"/></g>
<g><path style="opacity:1" fill="#565656" d="M 67.5,84.5 C 71.0709,85.7568 72.2376,84.4235 71,80.5C 70.3292,79.7476 69.4959,79.4142 68.5,79.5C 69.8675,78.6937 71.2008,77.6937 72.5,76.5C 73.487,79.7683 73.8204,83.1016 73.5,86.5C 70.9179,86.9746 68.9179,86.3079 67.5,84.5 Z"/></g>
<g><path style="opacity:1" fill="#565656" d="M 116.5,84.5 C 120.071,85.7568 121.238,84.4235 120,80.5C 119.329,79.7476 118.496,79.4142 117.5,79.5C 118.868,78.6937 120.201,77.6937 121.5,76.5C 122.487,79.7683 122.82,83.1016 122.5,86.5C 119.918,86.9746 117.918,86.3079 116.5,84.5 Z"/></g>
<g><path style="opacity:1" fill="#191919" d="M 14.5,77.5 C 18.9906,76.2587 20.324,76.2587 18.5,77.5C 18.1667,89.5 17.8333,89.5 17.5,77.5C 16.5,77.5 15.5,77.5 14.5,77.5 Z"/></g>
<g><path style="opacity:1" fill="#9f9f9f" d="M 95.5,76.5 C 96.209,77.404 97.209,77.7373 98.5,77.5C 98.5,80.5 98.5,83.5 98.5,86.5C 97.5269,84.0521 97.1936,81.3854 97.5,78.5C 96.325,78.719 95.325,78.3857 94.5,77.5C 94.6236,76.8933 94.9569,76.56 95.5,76.5 Z"/></g>
<g><path style="opacity:1" fill="#393939" d="M 95.5,76.5 C 97.8568,76.3367 100.19,76.5034 102.5,77C 101.552,77.4828 100.552,77.6495 99.5,77.5C 99.81,80.7131 99.4767,83.7131 98.5,86.5C 98.5,83.5 98.5,80.5 98.5,77.5C 97.209,77.7373 96.209,77.404 95.5,76.5 Z"/></g>
<g><path style="opacity:1" fill="#a5a5a5" d="M 311.5,78.5 C 313.256,79.5521 313.923,81.2188 313.5,83.5C 312.127,83.6567 310.793,83.49 309.5,83C 310.252,82.3292 310.586,81.4959 310.5,80.5C 310.328,79.5084 310.662,78.8417 311.5,78.5 Z"/></g>
<g><path style="opacity:1" fill="#5d5d5d" d="M 50.5,78.5 C 51.9061,80.8381 53.2394,83.3381 54.5,86C 53.2161,86.6838 52.0495,86.5171 51,85.5C 50.5034,83.1902 50.3367,80.8568 50.5,78.5 Z"/></g>
<g><path style="opacity:1" fill="#686868" d="M 58.5,78.5 C 64.7055,78.0371 66.7055,80.7037 64.5,86.5C 62.8333,77.1667 61.1667,77.1667 59.5,86.5C 58.52,83.9135 58.1866,81.2469 58.5,78.5 Z"/></g>
<g><path style="opacity:1" fill="#7a7a7a" d="M 102.5,78.5 C 104.199,78.3398 105.866,78.5065 107.5,79C 106.584,79.3742 105.75,79.8742 105,80.5C 104.808,82.5767 104.308,84.5767 103.5,86.5C 102.52,83.9135 102.187,81.2469 102.5,78.5 Z"/></g>
<g><path style="opacity:1" fill="#4b4b4b" d="M 112.5,79.5 C 111.153,80.0283 109.819,80.195 108.5,80C 109.818,78.3702 111.151,78.2035 112.5,79.5 Z"/></g>
<g><path style="opacity:1" fill="#7a7a7a" d="M 131.5,78.5 C 133.199,78.3398 134.866,78.5065 136.5,79C 135.584,79.3742 134.75,79.8742 134,80.5C 133.808,82.5767 133.308,84.5767 132.5,86.5C 131.52,83.9135 131.187,81.2469 131.5,78.5 Z"/></g>
<g><path style="opacity:1" fill="#373737" d="M 318.5,76.5 C 319.873,76.3433 321.207,76.51 322.5,77C 317.158,79.2567 317.158,80.2567 322.5,80C 325.309,82.9104 324.809,85.0771 321,86.5C 319.893,86.4148 318.893,86.0814 318,85.5C 317.264,82.408 317.431,79.408 318.5,76.5 Z"/></g>
<g><path style="opacity:1" fill="#373737" d="M 337.5,84.5 C 333.502,81.3625 333.836,78.8625 338.5,77C 339.5,76.3333 340.5,76.3333 341.5,77C 340.167,77.6667 338.833,78.3333 337.5,79C 341.449,79.8068 341.449,80.3068 337.5,80.5C 337.5,81.8333 337.5,83.1667 337.5,84.5 Z"/></g>
<g><path style="opacity:1" fill="#eaeaea" d="M 68.5,79.5 C 69.4959,79.4142 70.3292,79.7476 71,80.5C 72.2376,84.4235 71.0709,85.7568 67.5,84.5C 67.6287,82.7839 67.962,81.1172 68.5,79.5 Z"/></g>
<g><path style="opacity:1" fill="#eaeaea" d="M 117.5,79.5 C 118.496,79.4142 119.329,79.7476 120,80.5C 121.238,84.4235 120.071,85.7568 116.5,84.5C 116.629,82.7839 116.962,81.1172 117.5,79.5 Z"/></g>
<g><path style="opacity:1" fill="#272727" d="M 25.5,79.5 C 26.5417,78.2089 27.7083,78.2089 29,79.5C 29.6667,81.8333 29.6667,84.1667 29,86.5C 28.6667,84.5 28.3333,82.5 28,80.5C 27.3292,79.7476 26.4959,79.4142 25.5,79.5 Z"/></g>
<g><path style="opacity:1" fill="#494949" d="M 87.5,85.5 C 84.6832,86.9171 83.0165,85.9171 82.5,82.5C 83.1246,79.0135 84.9579,78.0135 88,79.5C 88.3333,78.5 88.6667,77.5 89,76.5C 89.6667,79.8333 89.6667,83.1667 89,86.5C 88.6174,85.944 88.1174,85.6107 87.5,85.5 Z"/></g>
<g><path style="opacity:1" fill="#e4e4e4" d="M 87.5,85.5 C 86.5,85.5 85.5,85.5 84.5,85.5C 84.1814,83.2495 84.6814,81.2495 86,79.5C 88.5923,81.0083 89.0923,83.0083 87.5,85.5 Z"/></g>
<g><path style="opacity:1" fill="#5f5f5f" d="M 299.5,82.5 C 301.693,81.2031 304.027,81.2031 306.5,82.5C 304.282,83.0574 301.949,83.0574 299.5,82.5 Z"/></g>
<g><path style="opacity:1" fill="#ededed" d="M 318.5,81.5 C 319.833,81.5 321.167,81.5 322.5,81.5C 322.5,82.8333 322.5,84.1667 322.5,85.5C 319.5,85.8333 318.167,84.5 318.5,81.5 Z"/></g>
<g><path style="opacity:1" fill="#3c3c3c" d="M 327.5,76.5 C 329.144,76.2865 330.644,76.6198 332,77.5C 332.777,80.4294 332.61,83.2628 331.5,86C 329.888,86.7203 328.388,86.5536 327,85.5C 326.264,82.408 326.431,79.408 327.5,76.5 Z"/></g>
<g><path style="opacity:1" fill="#f5f5f5" d="M 328.5,77.5 C 330.89,77.6848 331.89,79.0182 331.5,81.5C 330.167,86.8333 328.833,86.8333 327.5,81.5C 327.623,80.0755 327.957,78.7421 328.5,77.5 Z"/></g>
<g><path style="opacity:1" fill="#8c8c8c" d="M 35.5,79.5 C 37.1042,80.287 37.7709,81.6203 37.5,83.5C 35.8333,83.5 34.1667,83.5 32.5,83.5C 32.0882,81.0274 33.0882,79.6941 35.5,79.5 Z"/></g>
<g><path style="opacity:1" fill="#373737" d="M 68.5,79.5 C 67.962,81.1172 67.6287,82.7839 67.5,84.5C 66.0698,82.5453 66.4031,80.8786 68.5,79.5 Z"/></g>
<g><path style="opacity:1" fill="#8c8c8c" d="M 79.5,79.5 C 81.1042,80.287 81.7709,81.6203 81.5,83.5C 79.8333,83.5 78.1667,83.5 76.5,83.5C 76.0882,81.0274 77.0882,79.6941 79.5,79.5 Z"/></g>
<g><path style="opacity:1" fill="#373737" d="M 117.5,79.5 C 116.962,81.1172 116.629,82.7839 116.5,84.5C 115.07,82.5453 115.403,80.8786 117.5,79.5 Z"/></g>
<g><path style="opacity:1" fill="#8c8c8c" d="M 128.5,79.5 C 130.104,80.287 130.771,81.6203 130.5,83.5C 128.833,83.5 127.167,83.5 125.5,83.5C 125.088,81.0274 126.088,79.6941 128.5,79.5 Z"/></g>
<g><path style="opacity:1" fill="#585858" d="M 112.5,79.5 C 113.117,79.6107 113.617,79.944 114,80.5C 114.495,82.4727 114.662,84.4727 114.5,86.5C 112.473,86.6621 110.473,86.4955 108.5,86C 108.043,85.586 107.709,85.086 107.5,84.5C 109.149,82.6666 110.816,80.9999 112.5,79.5 Z"/></g>
<g><path style="opacity:1" fill="#fafafa" d="M 109.5,83.5 C 112.797,83.3287 113.131,83.9954 110.5,85.5C 109.702,85.0431 109.369,84.3764 109.5,83.5 Z"/></g>
<g><path style="opacity:1" fill="#333333" d="M 310.5,80.5 C 310.586,81.4959 310.252,82.3292 309.5,83C 310.793,83.49 312.127,83.6567 313.5,83.5C 313.923,81.2188 313.256,79.5521 311.5,78.5C 311.811,77.5222 312.478,76.8555 313.5,76.5C 314.214,79.0272 314.88,81.5272 315.5,84C 314.874,84.7504 314.374,85.5838 314,86.5C 312.599,84.8078 310.766,84.1412 308.5,84.5C 308.229,82.6203 308.896,81.287 310.5,80.5 Z"/></g>
<g><path style="opacity:1" fill="#313131" d="M 35.5,79.5 C 33.0882,79.6941 32.0882,81.0274 32.5,83.5C 32.811,84.4778 33.4777,85.1445 34.5,85.5C 38.445,84.5728 38.445,84.9061 34.5,86.5C 33.5581,86.3918 32.7247,86.0585 32,85.5C 31.3333,83.5 31.3333,81.5 32,79.5C 33.2917,78.2089 34.4583,78.2089 35.5,79.5 Z"/></g>
<g><path style="opacity:1" fill="#313131" d="M 79.5,79.5 C 77.0882,79.6941 76.0882,81.0274 76.5,83.5C 76.811,84.4778 77.4777,85.1445 78.5,85.5C 82.445,84.5728 82.445,84.9061 78.5,86.5C 77.5581,86.3918 76.7247,86.0585 76,85.5C 75.3333,83.5 75.3333,81.5 76,79.5C 77.2917,78.2089 78.4583,78.2089 79.5,79.5 Z"/></g>
<g><path style="opacity:1" fill="#313131" d="M 128.5,79.5 C 126.088,79.6941 125.088,81.0274 125.5,83.5C 125.811,84.4778 126.478,85.1445 127.5,85.5C 131.445,84.5728 131.445,84.9061 127.5,86.5C 126.558,86.3918 125.725,86.0585 125,85.5C 124.333,83.5 124.333,81.5 125,79.5C 126.292,78.2089 127.458,78.2089 128.5,79.5 Z"/></g>
<g><path style="opacity:1" fill="#8d8d8d" d="M 337.5,84.5 C 339.288,84.2148 340.955,84.5481 342.5,85.5C 340.418,86.8943 338.751,86.561 337.5,84.5 Z"/></g>
<g><path style="opacity:1" fill="#fdfdfd" d="M 1.5,98.5 C 96.1667,98.5 190.833,98.5 285.5,98.5C 285.5,109.167 285.5,119.833 285.5,130.5C 190.833,130.5 96.1667,130.5 1.5,130.5C 1.5,119.833 1.5,109.167 1.5,98.5 Z"/></g>
<g><path style="opacity:1" fill="#fefefe" d="M 286.5,98.5 C 428.167,98.5 569.833,98.5 711.5,98.5C 711.5,109.167 711.5,119.833 711.5,130.5C 569.833,130.5 428.167,130.5 286.5,130.5C 286.5,119.833 286.5,109.167 286.5,98.5 Z"/></g>
<g><path style="opacity:1" fill="#565656" d="M 77.5,117.5 C 81.0709,118.757 82.2376,117.424 81,113.5C 80.3292,112.748 79.4959,112.414 78.5,112.5C 79.8675,111.694 81.2008,110.694 82.5,109.5C 83.487,112.768 83.8204,116.102 83.5,119.5C 80.9179,119.975 78.9179,119.308 77.5,117.5 Z"/></g>
<g><path style="opacity:1" fill="#9f9f9f" d="M 56.5,109.5 C 57.209,110.404 58.209,110.737 59.5,110.5C 59.5,113.5 59.5,116.5 59.5,119.5C 58.5269,117.052 58.1936,114.385 58.5,111.5C 57.325,111.719 56.325,111.386 55.5,110.5C 55.6236,109.893 55.9569,109.56 56.5,109.5 Z"/></g>
<g><path style="opacity:1" fill="#393939" d="M 56.5,109.5 C 58.8568,109.337 61.1902,109.503 63.5,110C 62.552,110.483 61.552,110.649 60.5,110.5C 60.81,113.713 60.4767,116.713 59.5,119.5C 59.5,116.5 59.5,113.5 59.5,110.5C 58.209,110.737 57.209,110.404 56.5,109.5 Z"/></g>
<g><path style="opacity:1" fill="#a5a5a5" d="M 311.5,111.5 C 313.256,112.552 313.923,114.219 313.5,116.5C 312.127,116.657 310.793,116.49 309.5,116C 310.252,115.329 310.586,114.496 310.5,113.5C 310.328,112.508 310.662,111.842 311.5,111.5 Z"/></g>
<g><path style="opacity:1" fill="#3c3c3c" d="M 28.5,111.5 C 29.4731,113.948 29.8064,116.615 29.5,119.5C 27.8008,119.66 26.1341,119.494 24.5,119C 25.7659,118.691 26.9326,118.191 28,117.5C 28.4955,115.527 28.6621,113.527 28.5,111.5 Z"/></g>
<g><path style="opacity:1" fill="#181818" d="M 31.5,111.5 C 32.2891,111.783 32.9558,112.283 33.5,113C 32.7362,115.069 32.2362,117.236 32,119.5C 31.5026,116.854 31.3359,114.187 31.5,111.5 Z"/></g>
<g><path style="opacity:1" fill="#7a7a7a" d="M 63.5,111.5 C 65.1992,111.34 66.8659,111.506 68.5,112C 67.5838,112.374 66.7504,112.874 66,113.5C 65.8078,115.577 65.3078,117.577 64.5,119.5C 63.52,116.914 63.1866,114.247 63.5,111.5 Z"/></g>
<g><path style="opacity:1" fill="#2b2b2b" d="M 90.5,112.5 C 89.7904,114.746 89.2904,117.08 89,119.5C 88.3333,116.833 88.3333,114.167 89,111.5C 89.3826,112.056 89.8826,112.389 90.5,112.5 Z"/></g>
<g><path style="opacity:1" fill="#373737" d="M 318.5,109.5 C 319.873,109.343 321.207,109.51 322.5,110C 317.158,112.257 317.158,113.257 322.5,113C 325.309,115.91 324.809,118.077 321,119.5C 319.893,119.415 318.893,119.081 318,118.5C 317.264,115.408 317.431,112.408 318.5,109.5 Z"/></g>
<g><path style="opacity:1" fill="#373737" d="M 337.5,117.5 C 333.502,114.363 333.836,111.863 338.5,110C 339.5,109.333 340.5,109.333 341.5,110C 340.167,110.667 338.833,111.333 337.5,112C 341.449,112.807 341.449,113.307 337.5,113.5C 337.5,114.833 337.5,116.167 337.5,117.5 Z"/></g>
<g><path style="opacity:1" fill="#eaeaea" d="M 78.5,112.5 C 79.4959,112.414 80.3292,112.748 81,113.5C 82.2376,117.424 81.0709,118.757 77.5,117.5C 77.6287,115.784 77.962,114.117 78.5,112.5 Z"/></g>
<g><path style="opacity:1" fill="#ededed" d="M 100.5,112.5 C 101.301,114.042 101.634,115.708 101.5,117.5C 100.167,117.5 98.8333,117.5 97.5,117.5C 96.9162,114.715 97.9162,113.048 100.5,112.5 Z"/></g>
<g><path style="opacity:1" fill="#3e3e3e" d="M 15.5,109.5 C 17.1992,109.34 18.8659,109.506 20.5,110C 21.6956,110.654 21.6956,111.154 20.5,111.5C 19.2638,110.754 17.9305,110.421 16.5,110.5C 16.5,111.5 16.5,112.5 16.5,113.5C 20.7014,113.426 22.0347,115.259 20.5,119C 18.5594,119.743 16.7261,119.576 15,118.5C 14.3333,117.833 14.3333,117.167 15,116.5C 16.9308,119.105 18.7642,119.105 20.5,116.5C 18.8208,115.218 16.9874,114.218 15,113.5C 14.4209,112.072 14.5876,110.738 15.5,109.5 Z"/></g>
<g><path style="opacity:1" fill="#444444" d="M 40.5,112.5 C 41.1174,112.389 41.6174,112.056 42,111.5C 42.8236,114.882 42.657,118.216 41.5,121.5C 39.6568,122.939 37.9901,122.772 36.5,121C 38.2556,120.798 39.9223,120.298 41.5,119.5C 40.3395,119.563 39.0062,119.23 37.5,118.5C 36.2309,116.305 36.2309,114.139 37.5,112C 38.7494,111.26 39.7494,111.427 40.5,112.5 Z"/></g>
<g><path style="opacity:1" fill="#efefef" d="M 40.5,112.5 C 42.2838,115.808 41.2838,117.475 37.5,117.5C 36.9162,114.715 37.9162,113.048 40.5,112.5 Z"/></g>
<g><path style="opacity:1" fill="#989898" d="M 50.5,115.5 C 49.0813,116.451 47.4147,116.784 45.5,116.5C 46.2875,111.604 47.9541,111.271 50.5,115.5 Z"/></g>
<g><path style="opacity:1" fill="#222222" d="M 90.5,112.5 C 91.5417,111.209 92.7083,111.209 94,112.5C 94.6667,114.833 94.6667,117.167 94,119.5C 93.6667,117.5 93.3333,115.5 93,113.5C 92.3292,112.748 91.4959,112.414 90.5,112.5 Z"/></g>
<g><path style="opacity:1" fill="#242424" d="M 100.5,112.5 C 97.9162,113.048 96.9162,114.715 97.5,117.5C 96.3871,116.054 96.2204,114.387 97,112.5C 98.2917,111.209 99.4583,111.209 100.5,112.5 Z"/></g>
<g><path style="opacity:1" fill="#5f5f5f" d="M 299.5,115.5 C 301.693,114.203 304.027,114.203 306.5,115.5C 304.282,116.057 301.949,116.057 299.5,115.5 Z"/></g>
<g><path style="opacity:1" fill="#ededed" d="M 318.5,114.5 C 319.833,114.5 321.167,114.5 322.5,114.5C 322.5,115.833 322.5,117.167 322.5,118.5C 319.5,118.833 318.167,117.5 318.5,114.5 Z"/></g>
<g><path style="opacity:1" fill="#3c3c3c" d="M 327.5,109.5 C 329.144,109.286 330.644,109.62 332,110.5C 332.777,113.429 332.61,116.263 331.5,119C 329.888,119.72 328.388,119.554 327,118.5C 326.264,115.408 326.431,112.408 327.5,109.5 Z"/></g>
<g><path style="opacity:1" fill="#f5f5f5" d="M 328.5,110.5 C 330.89,110.685 331.89,112.018 331.5,114.5C 330.167,119.833 328.833,119.833 327.5,114.5C 327.623,113.075 327.957,111.742 328.5,110.5 Z"/></g>
<g><path style="opacity:1" fill="#373737" d="M 78.5,112.5 C 77.962,114.117 77.6287,115.784 77.5,117.5C 76.0698,115.545 76.4031,113.879 78.5,112.5 Z"/></g>
<g><path style="opacity:1" fill="#333333" d="M 310.5,113.5 C 310.586,114.496 310.252,115.329 309.5,116C 310.793,116.49 312.127,116.657 313.5,116.5C 313.923,114.219 313.256,112.552 311.5,111.5C 311.811,110.522 312.478,109.855 313.5,109.5C 314.214,112.027 314.88,114.527 315.5,117C 314.874,117.75 314.374,118.584 314,119.5C 312.599,117.808 310.766,117.141 308.5,117.5C 308.229,115.62 308.896,114.287 310.5,113.5 Z"/></g>
<g><path style="opacity:1" fill="#4c4c4c" d="M 70.5,111.5 C 71.8221,111.33 72.9887,111.663 74,112.5C 74.4966,114.81 74.6633,117.143 74.5,119.5C 66.9748,118.951 66.6415,117.118 73.5,114C 72.4281,112.716 71.0948,112.383 69.5,113C 70.056,112.617 70.3893,112.117 70.5,111.5 Z"/></g>
<g><path style="opacity:1" fill="#f4f4f4" d="M 70.5,116.5 C 73.7973,116.329 74.1306,116.995 71.5,118.5C 70.7025,118.043 70.3691,117.376 70.5,116.5 Z"/></g>
<g><path style="opacity:1" fill="#5d5d5d" d="M 97.5,117.5 C 98.8333,117.5 100.167,117.5 101.5,117.5C 101.634,115.708 101.301,114.042 100.5,112.5C 101.15,112.196 101.817,111.863 102.5,111.5C 103.655,114.446 103.821,117.446 103,120.5C 100.174,123.205 98.1736,122.872 97,119.5C 98.4936,120.747 99.9936,120.747 101.5,119.5C 99.9045,120.044 98.5712,119.377 97.5,117.5 Z"/></g>
<g><path style="opacity:1" fill="#8d8d8d" d="M 337.5,117.5 C 339.288,117.215 340.955,117.548 342.5,118.5C 340.418,119.894 338.751,119.561 337.5,117.5 Z"/></g>
<g><path style="opacity:1" fill="#3a3a3a" d="M 50.5,115.5 C 47.9541,111.271 46.2875,111.604 45.5,116.5C 45.6107,117.117 45.944,117.617 46.5,118C 48.0846,118.085 49.4179,118.251 50.5,118.5C 44.9163,120.34 43.083,118.34 45,112.5C 48.4659,110.65 50.2993,111.65 50.5,115.5 Z"/></g>
<g><path style="opacity:1" fill="#fdfdfd" d="M 1.5,131.5 C 96.1667,131.5 190.833,131.5 285.5,131.5C 285.5,142.167 285.5,152.833 285.5,163.5C 191.833,163.667 98.1661,163.5 4.5,163C 3.66667,162.167 2.83333,161.333 2,160.5C 1.5002,150.839 1.33353,141.172 1.5,131.5 Z"/></g>
<g><path style="opacity:1" fill="#fefefe" d="M 286.5,131.5 C 428.167,131.5 569.833,131.5 711.5,131.5C 711.666,141.172 711.5,150.839 711,160.5C 710.167,161.333 709.333,162.167 708.5,163C 567.834,163.5 427.167,163.667 286.5,163.5C 286.5,152.833 286.5,142.167 286.5,131.5 Z"/></g>
<g><path style="opacity:1" fill="#434343" d="M 14.5,142.5 C 16.5273,142.338 18.5273,142.505 20.5,143C 19.2068,143.49 17.8734,143.657 16.5,143.5C 16.5,144.5 16.5,145.5 16.5,146.5C 21.8333,146.833 21.8333,147.167 16.5,147.5C 16.5,148.833 16.5,150.167 16.5,151.5C 17.8734,151.343 19.2068,151.51 20.5,152C 18.5273,152.495 16.5273,152.662 14.5,152.5C 14.5,149.167 14.5,145.833 14.5,142.5 Z"/></g>
<g><path style="opacity:1" fill="#242424" d="M 35.5,142.5 C 37.5273,142.338 39.5273,142.505 41.5,143C 39.8659,143.494 38.1992,143.66 36.5,143.5C 36.5,144.5 36.5,145.5 36.5,146.5C 41.5388,146.451 41.7055,147.118 37,148.5C 36.6667,149.833 36.3333,151.167 36,152.5C 35.5017,149.183 35.335,145.85 35.5,142.5 Z"/></g>
<g><path style="opacity:1" fill="#494949" d="M 23.5,148.5 C 23.5792,147.07 23.2458,145.736 22.5,144.5C 22.8333,144.167 23.1667,143.833 23.5,143.5C 24.3857,144.325 24.719,145.325 24.5,146.5C 25.552,146.351 26.552,146.517 27.5,147C 26.0993,147.41 24.766,147.91 23.5,148.5 Z"/></g>
<g><path style="opacity:1" fill="#626262" d="M 42.5,144.5 C 44.3435,146.279 45.0102,148.612 44.5,151.5C 45.5,151.5 46.5,151.5 47.5,151.5C 47.1924,149.076 47.5258,146.743 48.5,144.5C 49.48,147.086 49.8134,149.753 49.5,152.5C 43.0951,153.594 40.7618,150.927 42.5,144.5 Z"/></g>
<g><path style="opacity:1" fill="#686868" d="M 70.5,144.5 C 76.7055,144.037 78.7055,146.704 76.5,152.5C 74.8333,143.167 73.1667,143.167 71.5,152.5C 70.52,149.914 70.1866,147.247 70.5,144.5 Z"/></g>
<g><path style="opacity:1" fill="#5b5b5b" d="M 80.5,145.5 C 81.9187,144.549 83.5853,144.216 85.5,144.5C 85.6646,147.518 85.498,150.518 85,153.5C 83.3116,155.848 81.4783,156.015 79.5,154C 80.938,153.781 82.2713,153.281 83.5,152.5C 80.8969,152.949 79.2302,151.616 78.5,148.5C 78.4534,146.962 79.1201,145.962 80.5,145.5 Z"/></g>
<g><path style="opacity:1" fill="#eeeeee" d="M 80.5,145.5 C 83.0838,146.048 84.0838,147.715 83.5,150.5C 79.6696,150.504 78.6696,148.838 80.5,145.5 Z"/></g>
<g><path style="opacity:1" fill="#494949" d="M 63.5,151.5 C 60.6832,152.917 59.0165,151.917 58.5,148.5C 59.1246,145.014 60.9579,144.014 64,145.5C 64.3333,144.5 64.6667,143.5 65,142.5C 65.6667,145.833 65.6667,149.167 65,152.5C 64.6174,151.944 64.1174,151.611 63.5,151.5 Z"/></g>
<g><path style="opacity:1" fill="#e4e4e4" d="M 63.5,151.5 C 62.5,151.5 61.5,151.5 60.5,151.5C 60.1814,149.25 60.6814,147.25 62,145.5C 64.5923,147.008 65.0923,149.008 63.5,151.5 Z"/></g>
<g><path style="opacity:1" fill="#5f5f5f" d="M 299.5,148.5 C 301.693,147.203 304.027,147.203 306.5,148.5C 304.282,149.057 301.949,149.057 299.5,148.5 Z"/></g>
<g><path style="opacity:1" fill="#3c3c3c" d="M 318.5,142.5 C 320.144,142.286 321.644,142.62 323,143.5C 323.777,146.429 323.61,149.263 322.5,152C 320.888,152.72 319.388,152.554 318,151.5C 317.264,148.408 317.431,145.408 318.5,142.5 Z"/></g>
<g><path style="opacity:1" fill="#f5f5f5" d="M 319.5,143.5 C 321.89,143.685 322.89,145.018 322.5,147.5C 321.167,152.833 319.833,152.833 318.5,147.5C 318.623,146.075 318.957,144.742 319.5,143.5 Z"/></g>
<g><path style="opacity:1" fill="#5f5f5f" d="M 327.5,142.5 C 331.243,142.459 331.41,143.126 328,144.5C 327.833,145.5 327.667,146.5 327.5,147.5C 327.342,149.319 328.009,150.652 329.5,151.5C 331.015,149.453 331.849,147.119 332,144.5C 332.667,146.5 332.667,148.5 332,150.5C 330.084,153.033 328.084,153.033 326,150.5C 325.109,147.502 325.609,144.836 327.5,142.5 Z"/></g>
<g><path style="opacity:1" fill="#4c4c4c" d="M 51.5,144.5 C 57.1906,144.548 58.8573,147.215 56.5,152.5C 54.7367,143.223 53.2367,143.223 52,152.5C 51.5026,149.854 51.3359,147.187 51.5,144.5 Z"/></g>
<g><path style="opacity:1" fill="#5e5e5e" d="M 308.5,142.5 C 310.527,142.338 312.527,142.505 314.5,143C 313.062,143.219 311.729,143.719 310.5,144.5C 316.286,146.615 316.786,149.282 312,152.5C 309.544,152.713 308.544,151.713 309,149.5C 310.11,151.037 311.61,151.703 313.5,151.5C 313.5,150.167 313.5,148.833 313.5,147.5C 311.856,147.286 310.356,147.62 309,148.5C 308.505,146.527 308.338,144.527 308.5,142.5 Z"/></g>
<g><path style="opacity:1" fill="#383838" d="M 23.5,148.5 C 25.134,152.476 26.9673,152.476 29,148.5C 29.6667,149.5 29.6667,150.5 29,151.5C 27.2739,152.576 25.4406,152.743 23.5,152C 22.2089,150.708 22.2089,149.542 23.5,148.5 Z"/></g>
<g><path style="opacity:1" fill="#4f4f4f" d="M 337.5,142.5 C 342.797,143.032 342.797,143.866 337.5,145C 341.185,145.914 340.852,146.581 336.5,147C 337.833,147.333 339.167,147.667 340.5,148C 339.376,148.249 338.376,148.749 337.5,149.5C 338.833,150.167 340.167,150.833 341.5,151.5C 338.048,152.928 335.715,151.761 334.5,148C 334.538,146.007 335.538,144.173 337.5,142.5 Z"/></g>
</svg>
