<?xml version="1.0" encoding="UTF-8"?>
<svg version="1.1" xmlns="http://www.w3.org/2000/svg" width="713" height="165">
<path d="M0 0 C235.29 0 470.58 0 713 0 C713 54.45 713 108.9 713 165 C477.71 165 242.42 165 0 165 C0 110.55 0 56.1 0 0 Z " fill="#DFDFDF" transform="translate(0,0)"/>
<path d="M0 0 C140.25 0 280.5 0 425 0 C425.33 10.89 425.66 21.78 426 33 C285.42 32.67 144.84 32.34 0 32 C0 21.44 0 10.88 0 0 Z " fill="#FEFEFE" transform="translate(287,132)"/>
<path d="M0 0 C140.25 0 280.5 0 425 0 C425 10.56 425 21.12 425 32 C284.75 32 144.5 32 0 32 C0 21.44 0 10.88 0 0 Z " fill="#FEFEFE" transform="translate(287,99)"/>
<path d="M0 0 C140.25 0 280.5 0 425 0 C425 10.56 425 21.12 425 32 C284.75 32 144.5 32 0 32 C0 21.44 0 10.88 0 0 Z " fill="#FEFEFE" transform="translate(287,66)"/>
<path d="M0 0 C140.25 0 280.5 0 425 0 C425 10.56 425 21.12 425 32 C284.75 32 144.5 32 0 32 C0 21.44 0 10.88 0 0 Z " fill="#FEFEFE" transform="translate(287,33)"/>
<path d="M0 0 C93.72 0 187.44 0 284 0 C284 10.56 284 21.12 284 32 C190.28 32 96.56 32 0 32 C0 21.44 0 10.88 0 0 Z " fill="#FBFBFB" transform="translate(2,99)"/>
<path d="M0 0 C93.72 0 187.44 0 284 0 C284 10.56 284 21.12 284 32 C190.28 32 96.56 32 0 32 C0 21.44 0 10.88 0 0 Z " fill="#FCFCFC" transform="translate(2,66)"/>
<path d="M0 0 C93.72 0 187.44 0 284 0 C284 10.56 284 21.12 284 32 C190.28 32 96.56 32 0 32 C0 21.44 0 10.88 0 0 Z " fill="#FDFDFD" transform="translate(2,33)"/>
<path d="M0 0 C93.72 0 187.44 0 284 0 C284 10.56 284 21.12 284 32 C248.25333681 32.06777371 212.50669225 32.12150426 176.75997804 32.15319599 C172.54286611 32.15694825 168.32575431 32.16083121 164.10864258 32.16479492 C163.26906676 32.16558185 162.42949094 32.16636878 161.56447343 32.16717956 C147.95767506 32.18024506 134.3509146 32.20390517 120.74413874 32.23145839 C106.78960349 32.25948082 92.83508812 32.27616955 78.88052589 32.28226548 C70.26494741 32.28638851 61.64947604 32.29942581 53.03393052 32.3237494 C47.13153929 32.33956759 41.2292037 32.34440928 35.3267928 32.34050413 C31.91782404 32.33857644 28.50904287 32.34159849 25.10010719 32.35761642 C21.40945607 32.37244271 17.71927112 32.36898949 14.02861023 32.36076355 C12.94399228 32.36950207 11.85937434 32.3782406 10.74188918 32.38724393 C9.75708188 32.38127078 8.77227457 32.37529764 7.75762463 32.36914349 C6.90515248 32.37028265 6.05268034 32.37142181 5.17437571 32.37259549 C3 32 3 32 0 29 C0 19.43 0 9.86 0 0 Z " fill="#FCFCFC" transform="translate(2,132)"/>
<path d="M0 0 C1.27870821 0.00170874 1.27870821 0.00170874 2.58324891 0.003452 C3.56805622 -0.00252114 4.55286352 -0.00849429 5.56751347 -0.01464844 C7.19444039 -0.00154065 7.19444039 -0.00154065 8.85423452 0.01183194 C10.57929675 0.00798703 10.57929675 0.00798703 12.33920872 0.00406444 C15.53640806 -0.00003083 18.73324484 0.0093758 21.93040127 0.02439862 C25.37618853 0.03732964 28.82195826 0.03297161 32.26776296 0.0306918 C38.23950586 0.0291172 44.21115058 0.03854583 50.18286878 0.05540532 C58.81700068 0.07976555 67.45108501 0.08759753 76.08524755 0.09136929 C90.09289029 0.09793846 104.10048068 0.11791223 118.10809499 0.14627713 C131.71681628 0.17380567 145.32552336 0.19504514 158.93426687 0.20780057 C159.77282445 0.20858874 160.61138204 0.20937691 161.47535046 0.21018896 C165.68206249 0.21410402 169.88877462 0.21789516 174.09548682 0.22162467 C209.00557148 0.25273507 243.91558956 0.30640798 278.82562429 0.37259549 C278.82562429 10.93259549 278.82562429 21.49259549 278.82562429 32.37259549 C185.10562429 32.37259549 91.38562429 32.37259549 -5.17437571 32.37259549 C-5.17437571 22.80259549 -5.17437571 13.23259549 -5.17437571 3.37259549 C-2.17437571 0.37259549 -2.17437571 0.37259549 0 0 Z " fill="#E4E4E4" transform="translate(7.1743757128715515,-0.37259548902511597)"/>
<path d="M0 0 C0.99 0.33 1.98 0.66 3 1 C2.67 1.33 2.34 1.66 2 2 C2 22.79 2 43.58 2 65 C95.72 65 189.44 65 286 65 C286 65.33 286 65.66 286 66 C192.28 66 98.56 66 2 66 C-6.15442072 118.27173557 -6.15442072 118.27173557 4 165 C2.68 165 1.36 165 0 165 C0 110.55 0 56.1 0 0 Z M286 33 C286.33 33 286.66 33 287 33 C287 43.56 287 54.12 287 65 C286.67 65 286.34 65 286 65 C286 54.44 286 43.88 286 33 Z " fill="#D9D9D9" transform="translate(0,0)"/>
<path d="M0 0 C0.99 0.33 1.98 0.66 3 1 C2.67 1.33 2.34 1.66 2 2 C1.89879885 4.0560888 1.86922308 6.11571012 1.86628723 8.17428589 C1.86402167 8.82639199 1.86175612 9.4784981 1.85942191 10.150365 C1.85305497 12.35140029 1.85391299 14.55237444 1.85473633 16.75341797 C1.85174648 18.32503337 1.84834437 19.89664803 1.84455872 21.46826172 C1.83569604 25.74926305 1.83337964 30.03024441 1.83274293 34.31125402 C1.83179558 37.87995495 1.82811925 41.44865119 1.82457083 45.01735032 C1.81641742 53.43490912 1.81398738 61.85245723 1.81469727 70.27001953 C1.81529809 78.96381645 1.80474744 87.65755133 1.7889536 96.35133255 C1.77589286 103.80526869 1.77051276 111.25918452 1.77115268 118.71313202 C1.77140812 123.16945264 1.76853131 127.62571817 1.75797462 132.08202744 C1.74831841 136.27296618 1.74819736 140.46379691 1.75549126 144.65473938 C1.75654024 146.19508649 1.75415571 147.73544023 1.7481308 149.27577591 C1.74045182 151.37456133 1.74502814 153.47296994 1.75276184 155.57174683 C1.75221707 156.74757765 1.75167231 157.92340847 1.75111103 159.13487053 C1.78612666 162.19985237 1.78612666 162.19985237 4 165 C2.68 165 1.36 165 0 165 C0 110.55 0 56.1 0 0 Z " fill="#FEFEFE" transform="translate(0,0)"/>
<path d="M0 0 C4.29 0 8.58 0 13 0 C12.01 0.33 11.02 0.66 10 1 C10 1.99 10 2.98 10 4 C11.65 4.33 13.3 4.66 15 5 C14.67 6.65 14.34 8.3 14 10 C9.33333333 10 4.66666667 10 0 10 C0 6.7 0 3.4 0 0 Z " fill="#ECECEC" transform="translate(15,143)"/>
<path d="M0 0 C1.67293936 0.30027117 3.33985384 0.63557767 5 1 C7.11167047 1.0714691 7.11167047 1.0714691 9.5625 0.4375 C10.7690625 0.2209375 10.7690625 0.2209375 12 0 C13 1 13 1 13.0625 4.0625 C13.041875 5.031875 13.02125 6.00125 13 7 C8.58300512 8.10424872 4.52642225 8.15088074 0 8 C-1 7 -1 7 -1.125 4 C-1 1 -1 1 0 0 Z " fill="#C1C1C1" transform="translate(365,13)"/>
<path d="M0 0 C3 0.125 3 0.125 4 1.125 C4.23728814 7.65042373 4.23728814 7.65042373 3 10.125 C0.125 10.3125 0.125 10.3125 -3 10.125 C-5 7.125 -5 7.125 -4.6875 4 C-3.76852699 0.15702196 -3.76852699 0.15702196 0 0 Z " fill="#515151" transform="translate(48,43.875)"/>
<path d="M0 0 C6.625 -0.25 6.625 -0.25 10 2 C10.40843923 4.71203652 10.13336867 7.2437142 10 10 C9.34 10 8.68 10 8 10 C7.67 8.35 7.34 6.7 7 5 C5.35 5.33 3.7 5.66 2 6 C2 7.32 2 8.64 2 10 C1.34 10 0.68 10 0 10 C0 6.7 0 3.4 0 0 Z " fill="#858585" transform="translate(50,11)"/>
<path d="M0 0 C1.64574566 -0.02688151 3.29161413 -0.04634123 4.9375 -0.0625 C5.85402344 -0.07410156 6.77054687 -0.08570312 7.71484375 -0.09765625 C10 0 10 0 11 1 C11.04092937 3.33297433 11.04241723 5.66705225 11 8 C9.35 8 7.7 8 6 8 C5.67 6.35 5.34 4.7 5 3 C4.01 2.67 3.02 2.34 2 2 C2 3.98 2 5.96 2 8 C1.34 8 0.68 8 0 8 C0 5.36 0 2.72 0 0 Z " fill="#858585" transform="translate(103,79)"/>
<path d="M0 0 C1.4540625 0.0309375 1.4540625 0.0309375 2.9375 0.0625 C2.99149736 1.52042884 3.03029177 2.97892712 3.0625 4.4375 C3.08570312 5.24960938 3.10890625 6.06171875 3.1328125 6.8984375 C2.9375 9.0625 2.9375 9.0625 0.9375 11.0625 C-1.1875 10.6875 -1.1875 10.6875 -3.0625 10.0625 C-1.7425 9.7325 -0.4225 9.4025 0.9375 9.0625 C0.1125 8.670625 -0.7125 8.27875 -1.5625 7.875 C-2.3875 7.276875 -3.2125 6.67875 -4.0625 6.0625 C-4.4375 3.4375 -4.4375 3.4375 -4.0625 1.0625 C-3.0625 0.0625 -3.0625 0.0625 0 0 Z " fill="#5C5C5C" transform="translate(101.0625,111.9375)"/>
<path d="M0 0 C2.625 0.375 2.625 0.375 5 1 C5.125 7.75 5.125 7.75 4 10 C-0.875 9.125 -0.875 9.125 -2 8 C-2.1875 5.0625 -2.1875 5.0625 -2 2 C-1.34 1.34 -0.68 0.68 0 0 Z " fill="#343434" transform="translate(479,11)"/>
<path d="M0 0 C4.70588235 0.70588235 4.70588235 0.70588235 6 2 C6.1875 4.9375 6.1875 4.9375 6 8 C5.34 8.66 4.68 9.32 4 10 C2.68 10 1.36 10 0 10 C-1.49106457 7.01787087 -1.11941467 4.28390342 -1 1 C-0.67 0.67 -0.34 0.34 0 0 Z " fill="#323232" transform="translate(469,11)"/>
<path d="M0 0 C4.70588235 0.70588235 4.70588235 0.70588235 6 2 C6.1875 4.9375 6.1875 4.9375 6 8 C5.34 8.66 4.68 9.32 4 10 C2.68 10 1.36 10 0 10 C-1.49106457 7.01787087 -1.11941467 4.28390342 -1 1 C-0.67 0.67 -0.34 0.34 0 0 Z " fill="#323232" transform="translate(460,11)"/>
<path d="M0 0 C2.625 0.375 2.625 0.375 5 1 C5.125 7.75 5.125 7.75 4 10 C-0.875 9.125 -0.875 9.125 -2 8 C-2.1875 5.0625 -2.1875 5.0625 -2 2 C-1.34 1.34 -0.68 0.68 0 0 Z " fill="#343434" transform="translate(448,11)"/>
<path d="M0 0 C4.70588235 0.70588235 4.70588235 0.70588235 6 2 C6.1875 4.9375 6.1875 4.9375 6 8 C5.34 8.66 4.68 9.32 4 10 C2.68 10 1.36 10 0 10 C-1.49106457 7.01787087 -1.11941467 4.28390342 -1 1 C-0.67 0.67 -0.34 0.34 0 0 Z " fill="#323232" transform="translate(438,11)"/>
<path d="M0 0 C2.625 0.375 2.625 0.375 5 1 C5.125 7.75 5.125 7.75 4 10 C-0.875 9.125 -0.875 9.125 -2 8 C-2.1875 5.0625 -2.1875 5.0625 -2 2 C-1.34 1.34 -0.68 0.68 0 0 Z " fill="#525252" transform="translate(328,143)"/>
<path d="M0 0 C1.98 0 3.96 0 6 0 C6.05399736 1.45792884 6.09279177 2.91642712 6.125 4.375 C6.14820312 5.18710938 6.17140625 5.99921875 6.1953125 6.8359375 C6 9 6 9 4 11 C1.875 10.625 1.875 10.625 0 10 C1.32 9.67 2.64 9.34 4 9 C2.35 8.01 0.7 7.02 -1 6 C-0.67 4.02 -0.34 2.04 0 0 Z " fill="#828282" transform="translate(80,145)"/>
<path d="M0 0 C1.99954746 -0.04254356 4.00041636 -0.04080783 6 0 C7 1 7 1 7.0625 4.0625 C7.041875 5.031875 7.02125 6.00125 7 7 C5.35 7.33 3.7 7.66 2 8 C2 8.99 2 9.98 2 11 C1.34 11 0.68 11 0 11 C0 7.37 0 3.74 0 0 Z " fill="#717171" transform="translate(38,13)"/>
<path d="M0 0 C1.67542976 0.28604898 3.34385343 0.61781233 5 1 C5 3.64 5 6.28 5 9 C3.34385343 9.38218767 1.67542976 9.71395102 0 10 C-1 9 -1 9 -1.1328125 7.1875 C-1.13023437 6.465625 -1.12765625 5.74375 -1.125 5 C-1.12757813 4.278125 -1.13015625 3.55625 -1.1328125 2.8125 C-1 1 -1 1 0 0 Z " fill="#989898" transform="translate(319,143)"/>
<path d="M0 0 C1.67542976 0.28604898 3.34385343 0.61781233 5 1 C5 3.64 5 6.28 5 9 C3.34385343 9.38218767 1.67542976 9.71395102 0 10 C-1 9 -1 9 -1.1328125 7.1875 C-1.13023437 6.465625 -1.12765625 5.74375 -1.125 5 C-1.12757813 4.278125 -1.13015625 3.55625 -1.1328125 2.8125 C-1 1 -1 1 0 0 Z " fill="#989898" transform="translate(328,110)"/>
<path d="M0 0 C1.67542976 0.28604898 3.34385343 0.61781233 5 1 C5 3.64 5 6.28 5 9 C3.34385343 9.38218767 1.67542976 9.71395102 0 10 C-1 9 -1 9 -1.1328125 7.1875 C-1.13023437 6.465625 -1.12765625 5.74375 -1.125 5 C-1.12757813 4.278125 -1.13015625 3.55625 -1.1328125 2.8125 C-1 1 -1 1 0 0 Z " fill="#989898" transform="translate(328,77)"/>
<path d="M0 0 C0.66 0 1.32 0 2 0 C2 3.3 2 6.6 2 10 C0.00045254 10.04254356 -2.00041636 10.04080783 -4 10 C-5 9 -5 9 -5.0625 5.9375 C-5.041875 4.968125 -5.02125 3.99875 -5 3 C-4.360625 2.87625 -3.72125 2.7525 -3.0625 2.625 C-2.0415625 2.315625 -2.0415625 2.315625 -1 2 C-0.67 1.34 -0.34 0.68 0 0 Z " fill="#737373" transform="translate(335,11)"/>
<path d="M0 0 C2.875 -0.125 2.875 -0.125 6 0 C6.66 0.66 7.32 1.32 8 2 C7.625 4.125 7.625 4.125 7 6 C5.35 6.33 3.7 6.66 2 7 C2 7.99 2 8.98 2 10 C1.34 10 0.68 10 0 10 C0 6.7 0 3.4 0 0 Z " fill="#5A5A5A" transform="translate(300,11)"/>
<path d="M0 0 C1.67542976 0.28604898 3.34385343 0.61781233 5 1 C5 3.64 5 6.28 5 9 C3.35 9.33 1.7 9.66 0 10 C-1.49106457 7.01787087 -1.11941467 4.28390342 -1 1 C-0.67 0.67 -0.34 0.34 0 0 Z " fill="#999999" transform="translate(319,44)"/>
<path d="M0 0 C1.64574566 -0.02688151 3.29161413 -0.04634123 4.9375 -0.0625 C5.85402344 -0.07410156 6.77054687 -0.08570313 7.71484375 -0.09765625 C10 0 10 0 11 1 C11.04092937 3.33297433 11.04241723 5.66705225 11 8 C10.34 8 9.68 8 9 8 C9 6.02 9 4.04 9 2 C8.01 2 7.02 2 6 2 C6 3.98 6 5.96 6 8 C5.34 8 4.68 8 4 8 C4 6.02 4 4.04 4 2 C3.34 2 2.68 2 2 2 C2 3.98 2 5.96 2 8 C1.34 8 0.68 8 0 8 C0 5.36 0 2.72 0 0 Z " fill="#3B3B3B" transform="translate(68,13)"/>
<path d="M0 0 C1.65 0 3.3 0 5 0 C5 3.3 5 6.6 5 10 C3.35 10.33 1.7 10.66 0 11 C-0.33 10.34 -0.66 9.68 -1 9 C0.65 9 2.3 9 4 9 C1.525 8.01 1.525 8.01 -1 7 C-1.04254356 5.00045254 -1.04080783 2.99958364 -1 1 C-0.67 0.67 -0.34 0.34 0 0 Z " fill="#474747" transform="translate(38,112)"/>
<path d="M0 0 C0.33 0 0.66 0 1 0 C1 3.3 1 6.6 1 10 C-0.98 10 -2.96 10 -5 10 C-5.625 7.125 -5.625 7.125 -6 4 C-5.34 3.34 -4.68 2.68 -4 2 C-3.01 2 -2.02 2 -1 2 C-0.67 1.34 -0.34 0.68 0 0 Z " fill="#454545" transform="translate(65,143)"/>
<path d="M0 0 C1.65 0 3.3 0 5 0 C5 3.3 5 6.6 5 10 C2.03 10 -0.94 10 -4 10 C-3.67 9.34 -3.34 8.68 -3 8 C-2.34 8 -1.68 8 -1 8 C-1 6.68 -1 5.36 -1 4 C-1.66 3.34 -2.32 2.68 -3 2 C-2.01 2 -1.02 2 0 2 C0 1.34 0 0.68 0 0 Z " fill="#585858" transform="translate(82,110)"/>
<path d="M0 0 C0.33 0 0.66 0 1 0 C1 3.3 1 6.6 1 10 C-0.98 10 -2.96 10 -5 10 C-5.625 7.125 -5.625 7.125 -6 4 C-5.34 3.34 -4.68 2.68 -4 2 C-3.01 2 -2.02 2 -1 2 C-0.67 1.34 -0.34 0.68 0 0 Z " fill="#454545" transform="translate(89,77)"/>
<path d="M0 0 C2.0625 0.4375 2.0625 0.4375 4 1 C3.01 1.66 2.02 2.32 1 3 C2.32 3.33 3.64 3.66 5 4 C6.125 7.75 6.125 7.75 5 10 C3.33388095 10.042721 1.66617115 10.04063832 0 10 C-1 9 -1 9 -1.1328125 7.1875 C-1.13023437 6.465625 -1.12765625 5.74375 -1.125 5 C-1.12757813 4.278125 -1.13015625 3.55625 -1.1328125 2.8125 C-1 1 -1 1 0 0 Z " fill="#7A7A7A" transform="translate(319,110)"/>
<path d="M0 0 C2.0625 0.4375 2.0625 0.4375 4 1 C3.01 1.66 2.02 2.32 1 3 C2.32 3.33 3.64 3.66 5 4 C6.125 7.75 6.125 7.75 5 10 C3.33388095 10.042721 1.66617115 10.04063832 0 10 C-1 9 -1 9 -1.1328125 7.1875 C-1.13023437 6.465625 -1.12765625 5.74375 -1.125 5 C-1.12757813 4.278125 -1.13015625 3.55625 -1.1328125 2.8125 C-1 1 -1 1 0 0 Z " fill="#7A7A7A" transform="translate(319,77)"/>
<path d="M0 0 C1.64574566 -0.02688151 3.29161413 -0.04634123 4.9375 -0.0625 C5.85402344 -0.07410156 6.77054687 -0.08570313 7.71484375 -0.09765625 C10 0 10 0 11 1 C11.04092937 3.33297433 11.04241723 5.66705225 11 8 C10.34 8 9.68 8 9 8 C9 6.02 9 4.04 9 2 C8.01 2 7.02 2 6 2 C6 3.98 6 5.96 6 8 C5.67 8 5.34 8 5 8 C5 6.02 5 4.04 5 2 C4.01 2 3.02 2 2 2 C2 3.98 2 5.96 2 8 C1.34 8 0.68 8 0 8 C0 5.36 0 2.72 0 0 Z " fill="#2A2A2A" transform="translate(380,13)"/>
<path d="M0 0 C1.67542976 0.28604898 3.34385343 0.61781233 5 1 C5 2.98 5 4.96 5 7 C2.625 7.625 2.625 7.625 0 8 C-0.66 7.34 -1.32 6.68 -2 6 C-1.44444444 1.44444444 -1.44444444 1.44444444 0 0 Z " fill="#636363" transform="translate(31,13)"/>
<path d="M0 0 C1.98 0.495 1.98 0.495 4 1 C3.01 1 2.02 1 1 1 C1 1.99 1 2.98 1 4 C2.65 4.33 4.3 4.66 6 5 C5.67 6.65 5.34 8.3 5 10 C3.35 10 1.7 10 0 10 C-0.95024979 6.30458414 -0.95024979 3.69541586 0 0 Z " fill="#777777" transform="translate(24,143)"/>
<path d="M0 0 C1.67542976 0.28604898 3.34385343 0.61781233 5 1 C5 2.98 5 4.96 5 7 C3.34385343 7.38218767 1.67542976 7.71395102 0 8 C-1 7 -1 7 -1.125 4 C-1 1 -1 1 0 0 Z " fill="#282828" transform="translate(373,13)"/>
<path d="M0 0 C3.3 0 6.6 0 10 0 C11.00000429 4.00001715 10.80688405 6.05523353 10 10 C9.34 10 8.68 10 8 10 C8 7.36 8 4.72 8 2 C6.68 2 5.36 2 4 2 C4 4.64 4 7.28 4 10 C3.67 10 3.34 10 3 10 C3 7.03 3 4.06 3 1 C2.01 0.67 1.02 0.34 0 0 Z " fill="#616161" transform="translate(15,77)"/>
<path d="M0 0 C1.65 0.33 3.3 0.66 5 1 C5 3.31 5 5.62 5 8 C3.02 8 1.04 8 -1 8 C-1 4.88742431 -0.82638376 2.89234315 0 0 Z " fill="#3D3D3D" transform="translate(420,13)"/>
<path d="M0 0 C-0.33 1.98 -0.66 3.96 -1 6 C-1.99 6 -2.98 6 -4 6 C-4 6.66 -4 7.32 -4 8 C-2.68 8 -1.36 8 0 8 C0 8.66 0 9.32 0 10 C-2.3125 9.875 -2.3125 9.875 -5 9 C-6.8125 5.9375 -6.8125 5.9375 -8 3 C-4.93882432 0.37613513 -4.26826873 0 0 0 Z " fill="#5E5E5E" transform="translate(342,143)"/>
<path d="M0 0 C2.125 0.9375 2.125 0.9375 4 2 C3.67 3.65 3.34 5.3 3 7 C1.0625 7.5625 1.0625 7.5625 -1 8 C-2 7 -2 7 -2.0625 3.9375 C-2.041875 2.968125 -2.02125 1.99875 -2 1 C-1.34 0.67 -0.68 0.34 0 0 Z " fill="#F6F6F6" transform="translate(47,45)"/>
<path d="M0 0 C1.67542976 0.28604898 3.34385343 0.61781233 5 1 C5 2.32 5 3.64 5 5 C3.68 5 2.36 5 1 5 C1 5.66 1 6.32 1 7 C2.32 6.67 3.64 6.34 5 6 C4.67 6.66 4.34 7.32 4 8 C2.35 7.67 0.7 7.34 -1 7 C-1.04254356 5.00045254 -1.04080783 2.99958364 -1 1 C-0.67 0.67 -0.34 0.34 0 0 Z " fill="#464646" transform="translate(408,13)"/>
<path d="M0 0 C1.98 0 3.96 0 6 0 C4.68 0.33 3.36 0.66 2 1 C2 1.66 2 2.32 2 3 C3.32 3.33 4.64 3.66 6 4 C7.125 7.75 7.125 7.75 6 10 C4.35 10 2.7 10 1 10 C1 9.01 1 8.02 1 7 C2.32 7.66 3.64 8.32 5 9 C5 7.68 5 6.36 5 5 C3.35 5.33 1.7 5.66 0 6 C0 4.02 0 2.04 0 0 Z " fill="#535353" transform="translate(309,143)"/>
<path d="M0 0 C0 0.66 0 1.32 0 2 C-0.66 2.66 -1.32 3.32 -2 4 C-2.8237956 5.96128755 -2.8237956 5.96128755 -3 8 C-2.34 8.66 -1.68 9.32 -1 10 C-3.79828356 9.61402985 -4.8205884 9.19863427 -6.75 7.0625 C-8 5 -8 5 -8 3 C-7.34 3 -6.68 3 -6 3 C-6 2.34 -6 1.68 -6 1 C-4 0 -4 0 0 0 Z " fill="#5E5E5E" transform="translate(343,110)"/>
<path d="M0 0 C0 0.66 0 1.32 0 2 C-0.66 2.66 -1.32 3.32 -2 4 C-2.8237956 5.96128755 -2.8237956 5.96128755 -3 8 C-2.34 8.66 -1.68 9.32 -1 10 C-3.79828356 9.61402985 -4.8205884 9.19863427 -6.75 7.0625 C-8 5 -8 5 -8 3 C-7.34 3 -6.68 3 -6 3 C-6 2.34 -6 1.68 -6 1 C-4 0 -4 0 0 0 Z " fill="#5E5E5E" transform="translate(343,77)"/>
<path d="M0 0 C0 0.66 0 1.32 0 2 C-0.66 2.66 -1.32 3.32 -2 4 C-2.8237956 5.96128755 -2.8237956 5.96128755 -3 8 C-2.34 8.66 -1.68 9.32 -1 10 C-3.79828356 9.61402985 -4.8205884 9.19863427 -6.75 7.0625 C-8 5 -8 5 -8 3 C-7.34 3 -6.68 3 -6 3 C-6 2.34 -6 1.68 -6 1 C-4 0 -4 0 0 0 Z " fill="#5E5E5E" transform="translate(334,44)"/>
<path d="M0 0 C0.66 0 1.32 0 2 0 C2 1.98 2 3.96 2 6 C2.99 6 3.98 6 5 6 C5 4.02 5 2.04 5 0 C5.66 0 6.32 0 7 0 C7 2.64 7 5.28 7 8 C5.00045254 8.04254356 2.99958364 8.04080783 1 8 C0 7 0 7 -0.0625 3.4375 C-0.041875 2.303125 -0.02125 1.16875 0 0 Z " fill="#353535" transform="translate(343,13)"/>
<path d="M0 0 C1.65 0.33 3.3 0.66 5 1 C4 3 4 3 3 4 C3.66 4.33 4.32 4.66 5 5 C4.67 6.65 4.34 8.3 4 10 C2.35 9.67 0.7 9.34 -1 9 C-0.67 8.34 -0.34 7.68 0 7 C1.98 7.495 1.98 7.495 4 8 C4 7.34 4 6.68 4 6 C2.35 5.67 0.7 5.34 -1 5 C-0.67 3.35 -0.34 1.7 0 0 Z " fill="#272727" transform="translate(488,11)"/>
<path d="M0 0 C2.0625 0.4375 2.0625 0.4375 4 1 C4.33 2.32 4.66 3.64 5 5 C4.01 5.495 4.01 5.495 3 6 C3.66 6.33 4.32 6.66 5 7 C3.34385343 7.38218767 1.67542976 7.71395102 0 8 C-1 7 -1 7 -1.125 4 C-1 1 -1 1 0 0 Z " fill="#646464" transform="translate(126,79)"/>
<path d="M0 0 C2.0625 0.4375 2.0625 0.4375 4 1 C4.33 2.32 4.66 3.64 5 5 C4.01 5.495 4.01 5.495 3 6 C3.66 6.33 4.32 6.66 5 7 C3.34385343 7.38218767 1.67542976 7.71395102 0 8 C-1 7 -1 7 -1.125 4 C-1 1 -1 1 0 0 Z " fill="#646464" transform="translate(77,79)"/>
<path d="M0 0 C2.0625 0.4375 2.0625 0.4375 4 1 C4.33 2.32 4.66 3.64 5 5 C4.01 5.495 4.01 5.495 3 6 C3.66 6.33 4.32 6.66 5 7 C3.34385343 7.38218767 1.67542976 7.71395102 0 8 C-1 7 -1 7 -1.125 4 C-1 1 -1 1 0 0 Z " fill="#646464" transform="translate(33,79)"/>
<path d="M0 0 C0.66 0 1.32 0 2 0 C2 3.3 2 6.6 2 10 C1.34 10 0.68 10 0 10 C-0.33 9.01 -0.66 8.02 -1 7 C-1.99 7.99 -2.98 8.98 -4 10 C-4.33 8.68 -4.66 7.36 -5 6 C-4.34 6 -3.68 6 -3 6 C-2.01 4.02 -1.02 2.04 0 0 Z " fill="#5C5C5C" transform="translate(40,44)"/>
<path d="M0 0 C2.0625 0.4375 2.0625 0.4375 4 1 C4 3.31 4 5.62 4 8 C2.35 8 0.7 8 -1 8 C-1 4 -1 4 1 2 C0.34 1.67 -0.32 1.34 -1 1 C-0.67 0.67 -0.34 0.34 0 0 Z " fill="#626262" transform="translate(71,112)"/>
<path d="M0 0 C1.65 0 3.3 0 5 0 C5.66 0.66 6.32 1.32 7 2 C6.625 5.125 6.625 5.125 6 8 C5.01 7.67 4.02 7.34 3 7 C3.66 5.35 4.32 3.7 5 2 C4.01 2.33 3.02 2.66 2 3 C1.67 5.31 1.34 7.62 1 10 C0.67 10 0.34 10 0 10 C0 6.7 0 3.4 0 0 Z " fill="#292929" transform="translate(393,13)"/>
<path d="M0 0 C2.31 0 4.62 0 7 0 C7 0.33 7 0.66 7 1 C5.35 1 3.7 1 2 1 C2 1.99 2 2.98 2 4 C3.32 4 4.64 4 6 4 C6 4.66 6 5.32 6 6 C4.68 6 3.36 6 2 6 C2 7.32 2 8.64 2 10 C1.34 10 0.68 10 0 10 C0 6.7 0 3.4 0 0 Z " fill="#3A3A3A" transform="translate(50,11)"/>
<path d="M0 0 C1.98 0 3.96 0 6 0 C4.68 0.33 3.36 0.66 2 1 C2 1.99 2 2.98 2 4 C3.32 4.33 4.64 4.66 6 5 C4.68 5 3.36 5 2 5 C2 6.32 2 7.64 2 9 C3.32 9.33 4.64 9.66 6 10 C4.02 10 2.04 10 0 10 C0 6.7 0 3.4 0 0 Z " fill="#424242" transform="translate(15,143)"/>
<path d="M0 0 C1.98 0 3.96 0 6 0 C4.68 0.33 3.36 0.66 2 1 C2 1.99 2 2.98 2 4 C3.32 4 4.64 4 6 4 C6 4.66 6 5.32 6 6 C4.68 6 3.36 6 2 6 C2 7.32 2 8.64 2 10 C1.34 10 0.68 10 0 10 C0 6.7 0 3.4 0 0 Z " fill="#616161" transform="translate(43,77)"/>
<path d="M0 0 C1.98 0 3.96 0 6 0 C4.68 0.33 3.36 0.66 2 1 C2 1.99 2 2.98 2 4 C3.32 4 4.64 4 6 4 C6 4.66 6 5.32 6 6 C4.68 6 3.36 6 2 6 C2 7.32 2 8.64 2 10 C1.34 10 0.68 10 0 10 C0 6.7 0 3.4 0 0 Z " fill="#5E5E5E" transform="translate(15,44)"/>
<path d="M0 0 C0.66 0 1.32 0 2 0 C2 3.3 2 6.6 2 10 C0.02 10 -1.96 10 -4 10 C-3.67 9.34 -3.34 8.68 -3 8 C-2.34 8 -1.68 8 -1 8 C-1 6.68 -1 5.36 -1 4 C-1.66 3.34 -2.32 2.68 -3 2 C-2.01 2 -1.02 2 0 2 C0 1.34 0 0.68 0 0 Z " fill="#585858" transform="translate(121,77)"/>
<path d="M0 0 C0.66 0 1.32 0 2 0 C2 3.3 2 6.6 2 10 C0.02 10 -1.96 10 -4 10 C-3.67 9.34 -3.34 8.68 -3 8 C-2.34 8 -1.68 8 -1 8 C-1 6.68 -1 5.36 -1 4 C-1.66 3.34 -2.32 2.68 -3 2 C-2.01 2 -1.02 2 0 2 C0 1.34 0 0.68 0 0 Z " fill="#585858" transform="translate(72,77)"/>
<path d="M0 0 C1.65 0 3.3 0 5 0 C4.01 0.33 3.02 0.66 2 1 C2 2.32 2 3.64 2 5 C3.32 5.33 4.64 5.66 6 6 C4.68 6.33 3.36 6.66 2 7 C2 7.99 2 8.98 2 10 C1.34 10 0.68 10 0 10 C0 6.7 0 3.4 0 0 Z " fill="#282828" transform="translate(15,11)"/>
<path d="M0 0 C0.99 0 1.98 0 3 0 C4.125 7.75 4.125 7.75 3 10 C2.34 10 1.68 10 1 10 C1 9.34 1 8.68 1 8 C-0.32 8 -1.64 8 -3 8 C-2.67 7.01 -2.34 6.02 -2 5 C-2 5.66 -2 6.32 -2 7 C-1.01 7 -0.02 7 1 7 C0.67 4.69 0.34 2.38 0 0 Z " fill="#535353" transform="translate(312,44)"/>
<path d="M0 0 C1.66611905 -0.042721 3.33382885 -0.04063832 5 0 C6 1 6 1 6.0625 4.5625 C6.041875 5.696875 6.02125 6.83125 6 8 C5.67 8 5.34 8 5 8 C5 6.02 5 4.04 5 2 C4.01 2 3.02 2 2 2 C2 3.98 2 5.96 2 8 C1.34 8 0.68 8 0 8 C0 5.36 0 2.72 0 0 Z " fill="#333333" transform="translate(352,13)"/>
<path d="M0 0 C0.99 0 1.98 0 3 0 C3 0.66 3 1.32 3 2 C3.66 2 4.32 2 5 2 C5 1.34 5 0.68 5 0 C5.66 0.33 6.32 0.66 7 1 C6.814375 1.598125 6.62875 2.19625 6.4375 2.8125 C5.77906313 5.16408762 5.77906313 5.16408762 7 8 C6.38125 7.814375 5.7625 7.62875 5.125 7.4375 C2.95839822 6.76313824 2.95839822 6.76313824 1 8 C1.020625 7.05125 1.04125 6.1025 1.0625 5.125 C1.22551826 2.09333717 1.22551826 2.09333717 0 0 Z " fill="#353535" transform="translate(318,13)"/>
<path d="M0 0 C1.66611905 -0.042721 3.33382885 -0.04063832 5 0 C6 1 6 1 6.0625 4.5625 C6.041875 5.696875 6.02125 6.83125 6 8 C5.67 8 5.34 8 5 8 C4.67 6.02 4.34 4.04 4 2 C3.67 2 3.34 2 3 2 C2.67 3.98 2.34 5.96 2 8 C1.34 8 0.68 8 0 8 C0 5.36 0 2.72 0 0 Z " fill="#5A5A5A" transform="translate(71,145)"/>
<path d="M0 0 C1.66611905 -0.042721 3.33382885 -0.04063832 5 0 C6 1 6 1 6.0625 4.5625 C6.041875 5.696875 6.02125 6.83125 6 8 C5.67 8 5.34 8 5 8 C4.67 6.02 4.34 4.04 4 2 C3.67 2 3.34 2 3 2 C2.67 3.98 2.34 5.96 2 8 C1.34 8 0.68 8 0 8 C0 5.36 0 2.72 0 0 Z " fill="#5A5A5A" transform="translate(59,79)"/>
<path d="M0 0 C0.66 0 1.32 0 2 0 C3.125 5.75 3.125 5.75 2 8 C1.01 7.67 0.02 7.34 -1 7 C-1.04254356 5.00045254 -1.04080783 2.99958364 -1 1 C-0.67 0.67 -0.34 0.34 0 0 Z " fill="#F1F1F1" transform="translate(329,144)"/>
<path d="M0 0 C1.98 0.495 1.98 0.495 4 1 C3.67 2.65 3.34 4.3 3 6 C1.68 5.67 0.36 5.34 -1 5 C-0.67 3.35 -0.34 1.7 0 0 Z " fill="#BEBEBE" transform="translate(78,113)"/>
<path d="M0 0 C1.98 0.495 1.98 0.495 4 1 C3.67 2.65 3.34 4.3 3 6 C1.68 5.67 0.36 5.34 -1 5 C-0.67 3.35 -0.34 1.7 0 0 Z " fill="#BEBEBE" transform="translate(117,80)"/>
<path d="M0 0 C1.98 0.495 1.98 0.495 4 1 C3.67 2.65 3.34 4.3 3 6 C1.68 5.67 0.36 5.34 -1 5 C-0.67 3.35 -0.34 1.7 0 0 Z " fill="#BEBEBE" transform="translate(68,80)"/>
<path d="M0 0 C0.1875 3.125 0.1875 3.125 0 6 C-0.33 5.01 -0.66 4.02 -1 3 C-4.00847418 1.77479736 -4.00847418 1.77479736 -7 1 C-7 0.34 -7 -0.32 -7 -1 C-3.51418144 -2.2020064 -3.32007656 -2.21338437 0 0 Z " fill="#DADADA" transform="translate(318,145)"/>
<path d="M0 0 C0.99 0 1.98 0 3 0 C2.44271087 3.34373475 1.64826111 6.03312999 0 9 C-0.66 8.67 -1.32 8.34 -2 8 C-1.125 1.125 -1.125 1.125 0 0 Z " fill="#A3A3A3" transform="translate(395,15)"/>
<path d="M0 0 C1.67542976 0.28604898 3.34385343 0.61781233 5 1 C5 1.66 5 2.32 5 3 C3.35 2.67 1.7 2.34 0 2 C0.33 3.32 0.66 4.64 1 6 C2.32 6.33 3.64 6.66 5 7 C3.34385343 7.38218767 1.67542976 7.71395102 0 8 C-1 7 -1 7 -1.125 4 C-1 1 -1 1 0 0 Z " fill="#303030" transform="translate(365,13)"/>
<path d="M0 0 C0.33 0.99 0.66 1.98 1 3 C2.65 3.33 4.3 3.66 6 4 C6 4.66 6 5.32 6 6 C4.02 6.33 2.04 6.66 0 7 C0 6.34 0 5.68 0 5 C-0.66 5 -1.32 5 -2 5 C-1.125 1.125 -1.125 1.125 0 0 Z " fill="#B3B3B3" transform="translate(486,13)"/>
<path d="M0 0 C0.66 0 1.32 0 2 0 C2.9765625 6.0546875 2.9765625 6.0546875 3 8 C2.34 8.66 1.68 9.32 1 10 C1 9.34 1 8.68 1 8 C-0.65 8 -2.3 8 -4 8 C-3.67 6.68 -3.34 5.36 -3 4 C-2.67 4.66 -2.34 5.32 -2 6 C-1.01 6.33 -0.02 6.66 1 7 C1 5.35 1 3.7 1 2 C0.34 1.67 -0.32 1.34 -1 1 C-0.67 0.67 -0.34 0.34 0 0 Z " fill="#373737" transform="translate(313,110)"/>
<path d="M0 0 C0.66 0 1.32 0 2 0 C2.9765625 6.0546875 2.9765625 6.0546875 3 8 C2.34 8.66 1.68 9.32 1 10 C1 9.34 1 8.68 1 8 C-0.65 8 -2.3 8 -4 8 C-3.67 6.68 -3.34 5.36 -3 4 C-2.67 4.66 -2.34 5.32 -2 6 C-1.01 6.33 -0.02 6.66 1 7 C1 5.35 1 3.7 1 2 C0.34 1.67 -0.32 1.34 -1 1 C-0.67 0.67 -0.34 0.34 0 0 Z " fill="#373737" transform="translate(313,77)"/>
<path d="M0 0 C0 3.3 0 6.6 0 10 C-0.66 10 -1.32 10 -2 10 C-2.144375 8.88625 -2.28875 7.7725 -2.4375 6.625 C-2.78372035 3.17857953 -2.78372035 3.17857953 -4 1 C-2 0 -2 0 0 0 Z " fill="#353535" transform="translate(434,11)"/>
<path d="M0 0 C0.66 0 1.32 0 2 0 C2 3.3 2 6.6 2 10 C1.01 9.67 0.02 9.34 -1 9 C-0.67 6.03 -0.34 3.06 0 0 Z " fill="#272727" transform="translate(335,11)"/>
<path d="M0 0 C0.99 0.33 1.98 0.66 3 1 C3 3.64 3 6.28 3 9 C2.01 8.67 1.02 8.34 0 8 C-0.38063221 5.6739143 -0.71269945 3.33944736 -1 1 C-0.67 0.67 -0.34 0.34 0 0 Z " fill="#2C2C2C" transform="translate(402,12)"/>
<path d="M0 0 C1.65 0 3.3 0 5 0 C5 0.66 5 1.32 5 2 C4.01 2 3.02 2 2 2 C2 3.98 2 5.96 2 8 C1.34 8 0.68 8 0 8 C0 5.36 0 2.72 0 0 Z " fill="#383838" transform="translate(24,13)"/>
<path d="M0 0 C0.66 0.33 1.32 0.66 2 1 C2 2.65 2 4.3 2 6 C0.35 5.67 -1.3 5.34 -3 5 C-3 3.68 -3 2.36 -3 1 C-2.01 0.67 -1.02 0.34 0 0 Z " fill="#898989" transform="translate(20,11)"/>
<path d="M0 0 C0.66 0 1.32 0 2 0 C2 3.3 2 6.6 2 10 C1.34 10 0.68 10 0 10 C-0.19412181 8.52168779 -0.38012131 7.04230684 -0.5625 5.5625 C-0.66691406 4.73878906 -0.77132812 3.91507812 -0.87890625 3.06640625 C-0.91886719 2.38449219 -0.95882812 1.70257813 -1 1 C-0.67 0.67 -0.34 0.34 0 0 Z " fill="#828282" transform="translate(85,110)"/>
<path d="M0 0 C1.65 0 3.3 0 5 0 C4.34 0.66 3.68 1.32 3 2 C2.60235737 3.98821313 2.26224651 5.98944339 2 8 C1.34 8 0.68 8 0 8 C0 5.36 0 2.72 0 0 Z " fill="#6D6D6D" transform="translate(64,112)"/>
<path d="M0 0 C1.65 0 3.3 0 5 0 C4.34 0.66 3.68 1.32 3 2 C2.60235737 3.98821313 2.26224651 5.98944339 2 8 C1.34 8 0.68 8 0 8 C0 5.36 0 2.72 0 0 Z " fill="#6D6D6D" transform="translate(132,79)"/>
<path d="M0 0 C1.65 0 3.3 0 5 0 C4.34 0.66 3.68 1.32 3 2 C2.60235737 3.98821313 2.26224651 5.98944339 2 8 C1.34 8 0.68 8 0 8 C0 5.36 0 2.72 0 0 Z " fill="#6D6D6D" transform="translate(103,79)"/>
<path d="M0 0 C1.32 0 2.64 0 4 0 C4 0.66 4 1.32 4 2 C3.34 2 2.68 2 2 2 C2 3.98 2 5.96 2 8 C1.34 8 0.68 8 0 8 C0 5.36 0 2.72 0 0 Z " fill="#303030" transform="translate(62,13)"/>
<path d="M0 0 C0.66 0 1.32 0 2 0 C2 2.31 2 4.62 2 7 C1.01 7 0.02 7 -1 7 C-1.04254356 5.00045254 -1.04080783 2.99958364 -1 1 C-0.67 0.67 -0.34 0.34 0 0 Z " fill="#D9D9D9" transform="translate(480,12)"/>
<path d="M0 0 C0.66 0.33 1.32 0.66 2 1 C2 2.98 2 4.96 2 7 C1.01 7 0.02 7 -1 7 C-1.04254356 5.00045254 -1.04080783 2.99958364 -1 1 C-0.67 0.67 -0.34 0.34 0 0 Z " fill="#DCDCDC" transform="translate(471,12)"/>
<path d="M0 0 C0.66 0.33 1.32 0.66 2 1 C2 2.98 2 4.96 2 7 C1.01 7 0.02 7 -1 7 C-1.04254356 5.00045254 -1.04080783 2.99958364 -1 1 C-0.67 0.67 -0.34 0.34 0 0 Z " fill="#DCDCDC" transform="translate(462,12)"/>
<path d="M0 0 C0.66 0 1.32 0 2 0 C2 2.31 2 4.62 2 7 C1.01 7 0.02 7 -1 7 C-1.04254356 5.00045254 -1.04080783 2.99958364 -1 1 C-0.67 0.67 -0.34 0.34 0 0 Z " fill="#D9D9D9" transform="translate(449,12)"/>
<path d="M0 0 C0.66 0.33 1.32 0.66 2 1 C2 2.98 2 4.96 2 7 C1.01 7 0.02 7 -1 7 C-1.04254356 5.00045254 -1.04080783 2.99958364 -1 1 C-0.67 0.67 -0.34 0.34 0 0 Z " fill="#DCDCDC" transform="translate(440,12)"/>
<path d="M0 0 C0.99 0.33 1.98 0.66 3 1 C2.67 2.65 2.34 4.3 2 6 C1.01 5.67 0.02 5.34 -1 5 C-0.67 3.35 -0.34 1.7 0 0 Z " fill="#E3E3E3" transform="translate(62,146)"/>
<path d="M0 0 C0.99 0.33 1.98 0.66 3 1 C2.67 2.65 2.34 4.3 2 6 C1.01 5.67 0.02 5.34 -1 5 C-0.67 3.35 -0.34 1.7 0 0 Z " fill="#E3E3E3" transform="translate(86,80)"/>
<path d="M0 0 C0.99 0 1.98 0 3 0 C2.67 1.65 2.34 3.3 2 5 C0.68 4.67 -0.64 4.34 -2 4 C-1.34 2.68 -0.68 1.36 0 0 Z " fill="#5C5C5C" transform="translate(420,16)"/>
<path d="M0 0 C0.99 0.33 1.98 0.66 3 1 C3 2.98 3 4.96 3 7 C2.34 7 1.68 7 1 7 C0.67 7.99 0.34 8.98 0 10 C0 6.7 0 3.4 0 0 Z " fill="#212121" transform="translate(38,13)"/>
<path d="M0 0 C1.32 0.33 2.64 0.66 4 1 C4 3.31 4 5.62 4 8 C3.34 8 2.68 8 2 8 C2 6.02 2 4.04 2 2 C1.34 2 0.68 2 0 2 C0 1.34 0 0.68 0 0 Z " fill="#333333" transform="translate(387,13)"/>
<path d="M0 0 C1.98 0 3.96 0 6 0 C4.68 0.33 3.36 0.66 2 1 C2.66 2.32 3.32 3.64 4 5 C2.68 5.33 1.36 5.66 0 6 C0 4.02 0 2.04 0 0 Z " fill="#676767" transform="translate(309,143)"/>
<path d="M0 0 C0.99 0.33 1.98 0.66 3 1 C3 2.32 3 3.64 3 5 C1.68 5 0.36 5 -1 5 C-0.67 3.35 -0.34 1.7 0 0 Z " fill="#E9E9E9" transform="translate(99,113)"/>
<path d="M0 0 C1.32 0 2.64 0 4 0 C3.67 1.65 3.34 3.3 3 5 C2.01 4.67 1.02 4.34 0 4 C0 2.68 0 1.36 0 0 Z " fill="#B8B8B8" transform="translate(373,15)"/>
<path d="M0 0 C0.99 0.33 1.98 0.66 3 1 C2.67 2.32 2.34 3.64 2 5 C1.01 5 0.02 5 -1 5 C-0.67 3.35 -0.34 1.7 0 0 Z " fill="#EDEDED" transform="translate(39,113)"/>
</svg>
