<?xml version="1.0" encoding="UTF-8"?>
<!DOCTYPE svg PUBLIC "-//W3C//DTD SVG 1.1//EN" "http://www.w3.org/Graphics/SVG/1.1/DTD/svg11.dtd">
<svg xmlns="http://www.w3.org/2000/svg" version="1.1" width="600px" height="141px" style="shape-rendering:geometricPrecision; text-rendering:geometricPrecision; image-rendering:optimizeQuality; fill-rule:evenodd; clip-rule:evenodd" xmlns:xlink="http://www.w3.org/1999/xlink">
<g><path style="opacity:0.192" fill="#fde7bd" d="M 301.5,11.5 C 304.817,10.8348 308.317,10.5014 312,10.5C 317.102,10.2933 321.935,10.96 326.5,12.5C 324.5,12.5 322.5,12.5 320.5,12.5C 314.355,11.5098 308.022,11.1765 301.5,11.5 Z"/></g>
<g><path style="opacity:0.74" fill="#e6a352" d="M 300.5,11.5 C 300.833,11.5 301.167,11.5 301.5,11.5C 308.022,11.1765 314.355,11.5098 320.5,12.5C 311.716,12.0843 303.049,12.751 294.5,14.5C 296.5,13.5 298.5,12.5 300.5,11.5 Z"/></g>
<g><path style="opacity:0.016" fill="#fce6b9" d="M 326.5,12.5 C 330.673,12.6667 334.34,14 337.5,16.5C 336.5,16.5 335.5,16.5 334.5,16.5C 331.921,14.9748 329.254,13.6414 326.5,12.5 Z"/></g>
<g><path style="opacity:0.584" fill="#f6d69f" d="M 300.5,11.5 C 298.5,12.5 296.5,13.5 294.5,14.5C 291.167,15.5 287.833,16.5 284.5,17.5C 289.21,14.1481 294.543,12.1481 300.5,11.5 Z"/></g>
<g><path style="opacity:1" fill="#ec952f" d="M 320.5,12.5 C 322.5,12.5 324.5,12.5 326.5,12.5C 329.254,13.6414 331.921,14.9748 334.5,16.5C 329.377,14.9187 324.044,14.252 318.5,14.5C 314.689,13.3547 310.689,13.1881 306.5,14C 302.954,15.1737 299.287,15.8404 295.5,16C 290.05,17.7289 284.717,19.5622 279.5,21.5C 279.833,20.8333 280.167,20.1667 280.5,19.5C 282.38,19.7709 283.713,19.1042 284.5,17.5C 287.833,16.5 291.167,15.5 294.5,14.5C 303.049,12.751 311.716,12.0843 320.5,12.5 Z"/></g>
<g><path style="opacity:1" fill="#f69319" d="M 318.5,14.5 C 318.5,15.5 318.5,16.5 318.5,17.5C 315.781,17.3975 313.115,17.7308 310.5,18.5C 308.541,18.1252 306.707,17.4585 305,16.5C 303,17.8333 303,19.1667 305,20.5C 310.741,19.5251 316.575,19.1918 322.5,19.5C 322.78,22.3882 321.447,23.8882 318.5,24C 316.592,29.829 314.759,29.6624 313,23.5C 310.825,24.2546 308.659,25.088 306.5,26C 308.473,26.4955 310.473,26.6621 312.5,26.5C 312.286,28.1439 312.62,29.6439 313.5,31C 307.627,30.6919 305.294,33.1919 306.5,38.5C 305.596,39.209 305.263,40.209 305.5,41.5C 301.781,41.6317 298.281,40.965 295,39.5C 293.319,39.6083 292.152,40.2749 291.5,41.5C 289.09,48.096 291.423,51.4293 298.5,51.5C 298.483,53.5648 298.15,55.5648 297.5,57.5C 295.2,59.9281 294.033,62.9281 294,66.5C 293.667,65.8333 293.333,65.1667 293,64.5C 293.283,68.8012 291.783,72.1345 288.5,74.5C 289.946,76.6179 290.613,78.9512 290.5,81.5C 287.136,82.5614 283.803,83.5614 280.5,84.5C 279.673,88.8072 279.007,93.1405 278.5,97.5C 275.234,97.4326 273.734,99.0992 274,102.5C 269.697,103.442 267.53,106.109 267.5,110.5C 266.5,110.5 265.5,110.5 264.5,110.5C 265.342,107.846 265.842,105.179 266,102.5C 265.411,104.863 263.911,105.863 261.5,105.5C 261.5,104.167 261.5,102.833 261.5,101.5C 260.167,101.5 258.833,101.5 257.5,101.5C 256.833,101.167 256.167,100.833 255.5,100.5C 255.5,99.8333 255.5,99.1667 255.5,98.5C 254.94,96.1992 254.44,93.8659 254,91.5C 253.617,90.944 253.117,90.6107 252.5,90.5C 252.784,88.5853 252.451,86.9187 251.5,85.5C 251.464,76.8154 251.797,68.1487 252.5,59.5C 254.223,55.9989 255.557,52.3322 256.5,48.5C 256.5,47.8333 256.5,47.1667 256.5,46.5C 257.815,45.5244 259.148,44.5244 260.5,43.5C 261.801,39.8959 263.467,36.5626 265.5,33.5C 268.167,31.5 270.5,29.1667 272.5,26.5C 272.5,25.8333 272.833,25.5 273.5,25.5C 276.198,25.1551 278.198,23.8218 279.5,21.5C 284.717,19.5622 290.05,17.7289 295.5,16C 299.287,15.8404 302.954,15.1737 306.5,14C 310.689,13.1881 314.689,13.3547 318.5,14.5 Z"/></g>
<g><path style="opacity:0.329" fill="#f3d29e" d="M 337.5,16.5 C 341.598,18.0477 345.598,19.8811 349.5,22C 352.294,23.5355 354.294,25.7022 355.5,28.5C 349.463,24.4868 343.463,20.4868 337.5,16.5 Z"/></g>
<g><path style="opacity:0.282" fill="#f6dbaf" d="M 284.5,17.5 C 283.713,19.1042 282.38,19.7709 280.5,19.5C 281.514,18.3263 282.847,17.6596 284.5,17.5 Z"/></g>
<g><path style="opacity:1" fill="#f6931a" d="M 318.5,14.5 C 324.044,14.252 329.377,14.9187 334.5,16.5C 335.791,19.4037 338.124,20.9037 341.5,21C 346.327,24.0053 350.994,27.1719 355.5,30.5C 357.094,33.7642 359.427,36.4309 362.5,38.5C 363.167,38.8333 363.833,39.1667 364.5,39.5C 364.5,39.8333 364.5,40.1667 364.5,40.5C 370.57,49.8831 373.57,60.2164 373.5,71.5C 373.5,73.1667 373.5,74.8333 373.5,76.5C 373.662,78.5273 373.495,80.5273 373,82.5C 369.49,89.8586 366.656,97.5253 364.5,105.5C 364.5,105.833 364.5,106.167 364.5,106.5C 364.5,106.833 364.5,107.167 364.5,107.5C 360.807,109.53 358.14,112.53 356.5,116.5C 350.607,122.253 344.274,127.253 337.5,131.5C 333.633,131.242 329.966,131.908 326.5,133.5C 315.108,135.029 303.774,134.696 292.5,132.5C 291.167,132.5 289.833,132.5 288.5,132.5C 286.072,129.776 283.072,127.776 279.5,126.5C 277.832,124.521 277.166,122.188 277.5,119.5C 270.887,119.879 267.553,116.879 267.5,110.5C 267.53,106.109 269.697,103.442 274,102.5C 273.734,99.0992 275.234,97.4326 278.5,97.5C 279.007,93.1405 279.673,88.8072 280.5,84.5C 283.803,83.5614 287.136,82.5614 290.5,81.5C 290.613,78.9512 289.946,76.6179 288.5,74.5C 291.783,72.1345 293.283,68.8012 293,64.5C 293.333,65.1667 293.667,65.8333 294,66.5C 294.033,62.9281 295.2,59.9281 297.5,57.5C 295.165,66.8448 292.832,76.1781 290.5,85.5C 287.5,85.5 284.5,85.5 281.5,85.5C 281.425,88.2062 281.092,90.8728 280.5,93.5C 283.46,95.3956 286.793,96.3956 290.5,96.5C 290.184,100.525 290.017,104.525 290,108.5C 293.057,109.451 296.223,109.784 299.5,109.5C 299.5,108.5 299.5,107.5 299.5,106.5C 300.5,106.5 301.5,106.5 302.5,106.5C 302.5,108.833 302.5,111.167 302.5,113.5C 305.187,113.664 307.854,113.497 310.5,113C 311.713,110.313 312.38,107.48 312.5,104.5C 312.5,104.167 312.5,103.833 312.5,103.5C 318.753,102.707 325.086,102.207 331.5,102C 333.923,100.429 335.256,98.2626 335.5,95.5C 338.229,90.734 338.896,85.734 337.5,80.5C 337.267,78.9382 336.6,77.6049 335.5,76.5C 336.664,72.6001 337.997,72.6001 339.5,76.5C 340.72,76.1131 341.387,75.2798 341.5,74C 340.833,67.3333 340.167,60.6667 339.5,54C 339.833,53.5 340.167,53 340.5,52.5C 342.078,53.6405 343.744,54.1405 345.5,54C 342.703,49.0619 338.536,45.8952 333,44.5C 331.812,45.5634 331.312,46.8967 331.5,48.5C 330.325,48.719 329.325,48.3857 328.5,47.5C 329.452,43.4364 330.285,39.4364 331,35.5C 330.667,35.8333 330.333,36.1667 330,36.5C 328.647,35.2958 326.981,34.6292 325,34.5C 321.493,33.7781 319.327,35.1114 318.5,38.5C 317.828,37.0508 317.161,35.7175 316.5,34.5C 313.927,33.4448 311.261,33.2782 308.5,34C 307.901,35.6225 307.234,37.1225 306.5,38.5C 305.294,33.1919 307.627,30.6919 313.5,31C 312.62,29.6439 312.286,28.1439 312.5,26.5C 310.473,26.6621 308.473,26.4955 306.5,26C 308.659,25.088 310.825,24.2546 313,23.5C 314.759,29.6624 316.592,29.829 318.5,24C 321.447,23.8882 322.78,22.3882 322.5,19.5C 316.575,19.1918 310.741,19.5251 305,20.5C 303,19.1667 303,17.8333 305,16.5C 306.707,17.4585 308.541,18.1252 310.5,18.5C 313.115,17.7308 315.781,17.3975 318.5,17.5C 318.5,16.5 318.5,15.5 318.5,14.5 Z"/></g>
<g><path style="opacity:0.212" fill="#f4e09e" d="M 446.5,34.5 C 446.5,35.1667 446.5,35.8333 446.5,36.5C 445.833,36.5 445.5,36.8333 445.5,37.5C 444.067,36.1667 442.733,34.6667 441.5,33C 437.566,31.0297 433.899,28.6964 430.5,26C 426.583,24.5211 422.583,23.3545 418.5,22.5C 397.698,18.0523 380.031,23.719 365.5,39.5C 372.916,29.2758 382.916,22.7758 395.5,20C 415.088,16.3388 432.088,21.1721 446.5,34.5 Z"/></g>
<g><path style="opacity:1" fill="#f1ba30" d="M 418.5,22.5 C 422.583,23.3545 426.583,24.5211 430.5,26C 433.899,28.6964 437.566,31.0297 441.5,33C 442.733,34.6667 444.067,36.1667 445.5,37.5C 446.5,39.1667 447.833,40.5 449.5,41.5C 449.427,43.0269 450.094,44.0269 451.5,44.5C 451.557,45.609 451.89,46.609 452.5,47.5C 453.791,51.0524 455.458,54.3858 457.5,57.5C 458.338,57.8417 458.672,58.5084 458.5,59.5C 459.089,66.485 459.422,73.485 459.5,80.5C 459.5,81.1667 459.5,81.8333 459.5,82.5C 458.593,84.6568 457.927,86.9902 457.5,89.5C 454.403,94.603 451.736,99.9363 449.5,105.5C 447.804,107.525 446.137,109.525 444.5,111.5C 443.833,112.167 443.167,112.833 442.5,113.5C 439.484,114.273 437.15,115.939 435.5,118.5C 435.167,119.167 434.833,119.833 434.5,120.5C 431.342,120.983 428.342,121.983 425.5,123.5C 422.603,123.125 419.937,123.625 417.5,125C 406.334,126.564 395.668,125.397 385.5,121.5C 383.216,121.025 381.216,120.025 379.5,118.5C 377.615,116.947 376.615,114.947 376.5,112.5C 374.801,112.66 373.134,112.494 371.5,112C 369.559,109.546 367.225,107.713 364.5,106.5C 364.5,106.167 364.5,105.833 364.5,105.5C 366.686,104.177 368.186,102.177 369,99.5C 371.942,92.0683 373.775,84.4016 374.5,76.5C 374.833,76.5 375.167,76.5 375.5,76.5C 376.605,77.6005 377.938,78.2671 379.5,78.5C 379.5,79.1667 379.5,79.8333 379.5,80.5C 379.917,81.1239 380.584,81.4573 381.5,81.5C 383.325,80.3489 385.325,79.6822 387.5,79.5C 387.439,82.0495 386.106,83.5495 383.5,84C 384.897,85.3103 385.897,86.8103 386.5,88.5C 389.953,92.294 393.953,95.294 398.5,97.5C 398.738,99.4044 399.738,100.738 401.5,101.5C 402.727,105.576 405.393,107.41 409.5,107C 416.29,100.885 422.29,94.2188 427.5,87C 426.017,84.997 424.683,82.8303 423.5,80.5C 422.042,79.218 420.708,79.218 419.5,80.5C 415.519,83.4943 411.519,86.4943 407.5,89.5C 402.944,87.6133 399.278,84.6133 396.5,80.5C 396.5,79.5 396.5,78.5 396.5,77.5C 394.5,77.5 392.5,77.5 390.5,77.5C 388.933,73.7594 387.599,69.9261 386.5,66C 383.833,65.3333 381.167,65.3333 378.5,66C 376.406,67.4912 374.739,69.3245 373.5,71.5C 373.57,60.2164 370.57,49.8831 364.5,40.5C 365.552,40.6495 366.552,40.4828 367.5,40C 381.579,26.0532 398.579,20.2198 418.5,22.5 Z M 412.5,46.5 C 415.833,51.8333 420.167,56.1667 425.5,59.5C 424.246,62.0934 422.58,64.4268 420.5,66.5C 420.167,66.5 419.833,66.5 419.5,66.5C 415.586,62.0827 411.419,57.7493 407,53.5C 402.667,57.8333 398.333,62.1667 394,66.5C 392.25,64.2657 390.75,61.9324 389.5,59.5C 395.417,54.085 401.251,48.4183 407,42.5C 408.651,44.2102 410.484,45.5436 412.5,46.5 Z M 409.5,69.5 C 413.318,73.6268 412.485,76.9601 407,79.5C 405.629,77.9586 404.129,76.6253 402.5,75.5C 402.744,72.7374 404.077,70.5707 406.5,69C 407.577,68.5304 408.577,68.6971 409.5,69.5 Z M 432.5,68.5 C 434.63,70.1271 436.63,71.9604 438.5,74C 436.667,75.8333 434.833,77.6667 433,79.5C 431.401,77.944 429.901,76.2773 428.5,74.5C 429.844,72.4714 431.177,70.4714 432.5,68.5 Z M 412.5,89.5 C 413.906,89.0269 414.573,88.0269 414.5,86.5C 416.463,85.0401 418.296,83.3734 420,81.5C 420.671,82.2524 421.504,82.5858 422.5,82.5C 422.856,84.1898 423.856,85.1898 425.5,85.5C 420.247,92.4234 414.247,98.7567 407.5,104.5C 404.651,101.916 401.651,99.583 398.5,97.5C 397.118,95.4514 395.452,93.7847 393.5,92.5C 392.167,90.1667 390.833,87.8333 389.5,85.5C 391.148,84.1902 392.814,82.8569 394.5,81.5C 398.197,86.0314 402.364,90.0314 407,93.5C 409.15,92.5175 410.983,91.1842 412.5,89.5 Z"/></g>
<g><path style="opacity:0.306" fill="#88afd6" d="M 505.5,28.5 C 500.743,27.81 496.076,26.81 491.5,25.5C 483.84,22.8878 476.173,22.8878 468.5,25.5C 465.518,25.9629 462.518,26.2962 459.5,26.5C 475.18,19.3804 490.514,20.047 505.5,28.5 Z"/></g>
<g><path style="opacity:1" fill="#e79a3e" d="M 334.5,16.5 C 335.5,16.5 336.5,16.5 337.5,16.5C 343.463,20.4868 349.463,24.4868 355.5,28.5C 355.5,29.1667 355.5,29.8333 355.5,30.5C 350.994,27.1719 346.327,24.0053 341.5,21C 338.124,20.9037 335.791,19.4037 334.5,16.5 Z"/></g>
<g><path style="opacity:1" fill="#e7bb47" d="M 418.5,22.5 C 398.579,20.2198 381.579,26.0532 367.5,40C 366.552,40.4828 365.552,40.6495 364.5,40.5C 364.5,40.1667 364.5,39.8333 364.5,39.5C 364.833,39.5 365.167,39.5 365.5,39.5C 380.031,23.719 397.698,18.0523 418.5,22.5 Z"/></g>
<g><path style="opacity:0.945" fill="#e19c47" d="M 279.5,21.5 C 278.198,23.8218 276.198,25.1551 273.5,25.5C 275.147,23.6736 277.147,22.3403 279.5,21.5 Z"/></g>
<g><path style="opacity:0.439" fill="#a4afe1" d="M 260.5,36.5 C 260.768,38.099 260.434,39.4324 259.5,40.5C 258.237,35.9033 255.237,32.9033 250.5,31.5C 250.167,31.5 249.833,31.5 249.5,31.5C 241.866,26.082 233.2,23.4153 223.5,23.5C 218.511,24.0545 213.511,24.3878 208.5,24.5C 228.034,18.7159 245.367,22.7159 260.5,36.5 Z"/></g>
<g><path style="opacity:1" fill="#627cea" d="M 249.5,31.5 C 249.833,31.5 250.167,31.5 250.5,31.5C 250.752,34.6653 252.418,36.6653 255.5,37.5C 256.452,39.0453 256.785,40.712 256.5,42.5C 255.5,42.5 254.5,42.5 253.5,42.5C 252.14,45.6199 251.307,48.9532 251,52.5C 249.174,51.1587 248.007,51.6587 247.5,54C 248.296,55.0921 248.963,56.2588 249.5,57.5C 249.29,61.948 248.29,65.948 246.5,69.5C 240.797,60.7297 235.463,51.7297 230.5,42.5C 230.411,35.4716 227.411,33.4716 221.5,36.5C 219.167,36.1667 218.833,35.1667 220.5,33.5C 219.672,32.5853 218.672,31.9186 217.5,31.5C 215.36,32.4733 213.693,33.9733 212.5,36C 214.522,38.0218 216.522,40.0218 218.5,42C 217.763,44.7993 216.93,44.9659 216,42.5C 215.667,42.8333 215.333,43.1667 215,43.5C 212.98,40.2431 210.146,38.0764 206.5,37C 208.208,35.4905 209.874,33.9905 211.5,32.5C 208.893,31.6816 206.226,31.1816 203.5,31C 208.469,26.6985 214.135,25.5318 220.5,27.5C 219.167,30.1667 219.833,30.8333 222.5,29.5C 223.429,28.3112 223.762,26.9778 223.5,25.5C 228.504,25.8893 233.504,26.3893 238.5,27C 239.851,30.195 242.185,32.0283 245.5,32.5C 245.34,34.1992 245.506,35.8659 246,37.5C 247.011,36.6634 248.178,36.33 249.5,36.5C 249.5,35.5 249.5,34.5 249.5,33.5C 245.5,32.8333 245.5,32.1667 249.5,31.5 Z"/></g>
<g><path style="opacity:0.585" fill="#91c9b8" d="M 183.5,27.5 C 183.5,28.1667 183.5,28.8333 183.5,29.5C 158.908,28.5102 134.241,28.1768 109.5,28.5C 109.715,30.1788 109.048,31.1788 107.5,31.5C 107.751,29.8297 108.418,28.3297 109.5,27C 134.337,26.1701 159.003,26.3367 183.5,27.5 Z"/></g>
<g><path style="opacity:0.631" fill="#9ba9dc" d="M 208.5,24.5 C 208.047,25.4584 207.381,26.2917 206.5,27C 203.204,28.5107 199.871,29.6774 196.5,30.5C 199.902,27.4654 203.902,25.4654 208.5,24.5 Z"/></g>
<g><path style="opacity:0.133" fill="#f6d6a3" d="M 280.5,19.5 C 280.167,20.1667 279.833,20.8333 279.5,21.5C 277.147,22.3403 275.147,23.6736 273.5,25.5C 272.833,25.5 272.5,25.8333 272.5,26.5C 269.167,27.8333 266.833,30.1667 265.5,33.5C 264.167,34.5 262.833,35.5 261.5,36.5C 265.619,28.3821 271.952,22.7154 280.5,19.5 Z"/></g>
<g><path style="opacity:0.89" fill="#e1a24f" d="M 272.5,26.5 C 270.5,29.1667 268.167,31.5 265.5,33.5C 266.833,30.1667 269.167,27.8333 272.5,26.5 Z"/></g>
<g><path style="opacity:0.537" fill="#f5d298" d="M 355.5,28.5 C 358.573,30.5691 360.906,33.2358 362.5,36.5C 360.167,34.5 357.833,32.5 355.5,30.5C 355.5,29.8333 355.5,29.1667 355.5,28.5 Z"/></g>
<g><path style="opacity:0.812" fill="#7aa0cf" d="M 459.5,26.5 C 458.191,29.4507 455.857,30.7841 452.5,30.5C 454.336,28.412 456.669,27.0787 459.5,26.5 Z"/></g>
<g><path style="opacity:0.129" fill="#aad7ce" d="M 183.5,27.5 C 185.592,30.0884 186.925,33.0884 187.5,36.5C 187.5,36.8333 187.5,37.1667 187.5,37.5C 187.167,37.5 186.833,37.5 186.5,37.5C 185.5,34.8333 184.5,32.1667 183.5,29.5C 183.5,28.8333 183.5,28.1667 183.5,27.5 Z"/></g>
<g><path style="opacity:0.812" fill="#709dc9" d="M 505.5,28.5 C 510.428,31.0986 514.761,34.432 518.5,38.5C 514.435,36.3477 510.435,34.0144 506.5,31.5C 505.614,30.675 505.281,29.675 505.5,28.5 Z"/></g>
<g><path style="opacity:1" fill="#637de6" d="M 249.5,31.5 C 245.5,32.1667 245.5,32.8333 249.5,33.5C 249.5,34.5 249.5,35.5 249.5,36.5C 248.178,36.33 247.011,36.6634 246,37.5C 245.506,35.8659 245.34,34.1992 245.5,32.5C 242.185,32.0283 239.851,30.195 238.5,27C 233.504,26.3893 228.504,25.8893 223.5,25.5C 223.762,26.9778 223.429,28.3112 222.5,29.5C 219.833,30.8333 219.167,30.1667 220.5,27.5C 214.135,25.5318 208.469,26.6985 203.5,31C 206.226,31.1816 208.893,31.6816 211.5,32.5C 209.874,33.9905 208.208,35.4905 206.5,37C 210.146,38.0764 212.98,40.2431 215,43.5C 215.333,43.1667 215.667,42.8333 216,42.5C 216.93,44.9659 217.763,44.7993 218.5,42C 216.522,40.0218 214.522,38.0218 212.5,36C 213.693,33.9733 215.36,32.4733 217.5,31.5C 218.672,31.9186 219.672,32.5853 220.5,33.5C 218.833,35.1667 219.167,36.1667 221.5,36.5C 227.411,33.4716 230.411,35.4716 230.5,42.5C 229.521,41.2347 228.521,39.9014 227.5,38.5C 226.386,37.2241 225.386,37.2241 224.5,38.5C 221.5,42.5 218.5,46.5 215.5,50.5C 216.608,48.3049 216.441,46.3049 215,44.5C 213.867,46.2112 212.367,46.7112 210.5,46C 210.957,45.586 211.291,45.086 211.5,44.5C 206.167,43.1667 200.833,43.1667 195.5,44.5C 195.697,46.4796 195.03,48.4796 193.5,50.5C 194.034,52.6145 195.034,54.4478 196.5,56C 194.19,56.4966 191.857,56.6633 189.5,56.5C 189.5,55.1667 189.5,53.8333 189.5,52.5C 186.05,51.7564 184.384,53.0897 184.5,56.5C 180.415,56.3723 177.415,58.039 175.5,61.5C 177.178,57.6241 178.678,53.6241 180,49.5C 182.594,47.2964 184.428,44.6297 185.5,41.5C 186.906,41.0269 187.573,40.0269 187.5,38.5C 190.526,35.8046 193.526,33.1379 196.5,30.5C 199.871,29.6774 203.204,28.5107 206.5,27C 207.381,26.2917 208.047,25.4584 208.5,24.5C 213.511,24.3878 218.511,24.0545 223.5,23.5C 233.2,23.4153 241.866,26.082 249.5,31.5 Z"/></g>
<g><path style="opacity:0.259" fill="#a0c2e2" d="M 452.5,30.5 C 451.5,31.8333 450.5,33.1667 449.5,34.5C 448.833,34.5 448.167,34.5 447.5,34.5C 448.585,32.4131 450.251,31.0798 452.5,30.5 Z"/></g>
<g><path style="opacity:0.275" fill="#a8bae6" d="M 196.5,30.5 C 193.526,33.1379 190.526,35.8046 187.5,38.5C 187.5,38.1667 187.5,37.8333 187.5,37.5C 187.5,37.1667 187.5,36.8333 187.5,36.5C 190.013,33.7454 193.013,31.7454 196.5,30.5 Z"/></g>
<g><path style="opacity:1" fill="#697ddb" d="M 250.5,31.5 C 255.237,32.9033 258.237,35.9033 259.5,40.5C 258.5,41.1667 257.5,41.8333 256.5,42.5C 256.785,40.712 256.452,39.0453 255.5,37.5C 252.418,36.6653 250.752,34.6653 250.5,31.5 Z"/></g>
<g><path style="opacity:0.984" fill="#df9c4f" d="M 265.5,33.5 C 263.467,36.5626 261.801,39.8959 260.5,43.5C 259.148,44.5244 257.815,45.5244 256.5,46.5C 256.5,45.8333 256.5,45.1667 256.5,44.5C 258.262,43.7377 259.262,42.4044 259.5,40.5C 260.434,39.4324 260.768,38.099 260.5,36.5C 260.833,36.5 261.167,36.5 261.5,36.5C 262.833,35.5 264.167,34.5 265.5,33.5 Z"/></g>
<g><path style="opacity:0.545" fill="#e8ad61" d="M 316.5,34.5 C 316.448,38.1981 316.114,41.8648 315.5,45.5C 314.539,43.7354 314.205,41.7354 314.5,39.5C 314.5,39.1667 314.5,38.8333 314.5,38.5C 315.885,37.0527 315.552,36.0527 313.5,35.5C 313.167,35.5 312.833,35.5 312.5,35.5C 311.791,34.596 310.791,34.2627 309.5,34.5C 309.5,35.5 309.5,36.5 309.5,37.5C 309.567,38.9587 309.234,40.2921 308.5,41.5C 307.833,42.1667 307.167,42.8333 306.5,43.5C 306.5,41.8333 306.5,40.1667 306.5,38.5C 307.234,37.1225 307.901,35.6225 308.5,34C 311.261,33.2782 313.927,33.4448 316.5,34.5 Z"/></g>
<g><path style="opacity:0.047" fill="#fff3c6" d="M 313.5,35.5 C 315.552,36.0527 315.885,37.0527 314.5,38.5C 314.443,37.391 314.11,36.391 313.5,35.5 Z"/></g>
<g><path style="opacity:0.945" fill="#e19a3f" d="M 355.5,30.5 C 357.833,32.5 360.167,34.5 362.5,36.5C 362.5,37.1667 362.5,37.8333 362.5,38.5C 359.427,36.4309 357.094,33.7642 355.5,30.5 Z"/></g>
<g><path style="opacity:0.008" fill="#ffefc9" d="M 312.5,35.5 C 311.222,35.7822 310.222,36.4489 309.5,37.5C 309.5,36.5 309.5,35.5 309.5,34.5C 310.791,34.2627 311.791,34.596 312.5,35.5 Z"/></g>
<g><path style="opacity:0.361" fill="#f9d5a5" d="M 362.5,36.5 C 363.906,36.9731 364.573,37.9731 364.5,39.5C 363.833,39.1667 363.167,38.8333 362.5,38.5C 362.5,37.8333 362.5,37.1667 362.5,36.5 Z"/></g>
<g><path style="opacity:0.984" fill="#a9a573" d="M 446.5,36.5 C 447.925,37.922 448.925,39.5887 449.5,41.5C 447.833,40.5 446.5,39.1667 445.5,37.5C 445.5,36.8333 445.833,36.5 446.5,36.5 Z"/></g>
<g><path style="opacity:0.996" fill="#e99732" d="M 306.5,38.5 C 306.5,40.1667 306.5,41.8333 306.5,43.5C 304.5,43.5 302.5,43.5 300.5,43.5C 300.167,43.5 299.833,43.5 299.5,43.5C 297.562,41.8372 295.228,41.1706 292.5,41.5C 292.167,41.5 291.833,41.5 291.5,41.5C 292.152,40.2749 293.319,39.6083 295,39.5C 298.281,40.965 301.781,41.6317 305.5,41.5C 305.263,40.209 305.596,39.209 306.5,38.5 Z"/></g>
<g><path style="opacity:0.992" fill="#3d74b1" d="M 446.5,34.5 C 446.833,34.5 447.167,34.5 447.5,34.5C 448.167,34.5 448.833,34.5 449.5,34.5C 448.143,36.4988 448.81,37.6655 451.5,38C 451.167,38.3333 450.833,38.6667 450.5,39C 452.107,40.049 452.773,41.549 452.5,43.5C 454.167,43.5 455.833,43.5 457.5,43.5C 456.167,44.1667 454.833,44.8333 453.5,45.5C 452.833,45.1667 452.167,44.8333 451.5,44.5C 451.573,42.9731 450.906,41.9731 449.5,41.5C 448.925,39.5887 447.925,37.922 446.5,36.5C 446.5,35.8333 446.5,35.1667 446.5,34.5 Z"/></g>
<g><path style="opacity:0.039" fill="#93bce1" d="M 467.5,38.5 C 471.068,38.7593 472.401,40.7593 471.5,44.5C 469.958,45.3007 468.292,45.634 466.5,45.5C 467.209,44.596 468.209,44.2627 469.5,44.5C 469.66,42.8008 469.494,41.1341 469,39.5C 466.55,40.6422 464.05,41.6422 461.5,42.5C 463.19,40.6583 465.19,39.325 467.5,38.5 Z"/></g>
<g><path style="opacity:0.11" fill="#b0d4ef" d="M 496.5,39.5 C 496.5,39.8333 496.5,40.1667 496.5,40.5C 495.07,40.5792 493.736,40.2458 492.5,39.5C 491.548,41.0453 491.215,42.712 491.5,44.5C 490.539,42.7354 490.205,40.7354 490.5,38.5C 492.565,38.5172 494.565,38.8505 496.5,39.5 Z"/></g>
<g><path style="opacity:0.937" fill="#7ea2cd" d="M 496.5,40.5 C 498.989,40.2407 500.656,41.2407 501.5,43.5C 499.566,42.8897 497.899,41.8897 496.5,40.5 Z"/></g>
<g><path style="opacity:0.976" fill="#5d8bbe" d="M 467.5,38.5 C 465.19,39.325 463.19,40.6583 461.5,42.5C 459.5,44.1667 457.5,45.8333 455.5,47.5C 454.5,47.1667 453.833,46.5 453.5,45.5C 454.833,44.8333 456.167,44.1667 457.5,43.5C 459.909,40.295 463.242,38.6283 467.5,38.5 Z"/></g>
<g><path style="opacity:1" fill="#5c9bb7" d="M 186.5,37.5 C 186.833,37.5 187.167,37.5 187.5,37.5C 187.5,37.8333 187.5,38.1667 187.5,38.5C 187.573,40.0269 186.906,41.0269 185.5,41.5C 183.5,43.5 181.5,45.5 179.5,47.5C 179.5,47.1667 179.5,46.8333 179.5,46.5C 181.537,43.1466 183.87,40.1466 186.5,37.5 Z"/></g>
<g><path style="opacity:0.937" fill="#a37f94" d="M 259.5,40.5 C 259.262,42.4044 258.262,43.7377 256.5,44.5C 256.5,43.8333 256.5,43.1667 256.5,42.5C 257.5,41.8333 258.5,41.1667 259.5,40.5 Z"/></g>
<g><path style="opacity:0.235" fill="#f7d49c" d="M 292.5,41.5 C 295.228,41.1706 297.562,41.8372 299.5,43.5C 297.856,43.7135 296.356,43.3802 295,42.5C 294.066,43.8584 293.232,45.1917 292.5,46.5C 292.5,44.8333 292.5,43.1667 292.5,41.5 Z"/></g>
<g><path style="opacity:0.992" fill="#b5ad7d" d="M 449.5,41.5 C 450.906,41.9731 451.573,42.9731 451.5,44.5C 450.094,44.0269 449.427,43.0269 449.5,41.5 Z"/></g>
<g><path style="opacity:0.569" fill="#f1d09e" d="M 308.5,41.5 C 308.853,43.6348 308.02,44.9681 306,45.5C 303.97,45.0463 302.137,44.3796 300.5,43.5C 302.5,43.5 304.5,43.5 306.5,43.5C 307.167,42.8333 307.833,42.1667 308.5,41.5 Z"/></g>
<g><path style="opacity:0.431" fill="#aac5e2" d="M 501.5,43.5 C 503.027,43.427 504.027,44.0937 504.5,45.5C 502.973,45.573 501.973,44.9063 501.5,43.5 Z"/></g>
<g><path style="opacity:0.102" fill="#8db3d9" d="M 518.5,38.5 C 521.647,40.3129 523.647,42.9796 524.5,46.5C 522.016,44.1997 520.016,41.5331 518.5,38.5 Z"/></g>
<g><path style="opacity:0.445" fill="#d4dbf2" d="M 224.5,39.5 C 225.825,43.2762 226.491,47.4428 226.5,52C 226.472,56.5803 226.139,61.0803 225.5,65.5C 222.426,67.302 219.092,68.302 215.5,68.5C 218.075,67.2126 220.741,65.8793 223.5,64.5C 224.497,56.8622 224.831,49.1955 224.5,41.5C 224.5,40.8333 224.5,40.1667 224.5,39.5 Z"/></g>
<g><path style="opacity:0.478" fill="#e9a858" d="M 291.5,41.5 C 291.833,41.5 292.167,41.5 292.5,41.5C 292.5,43.1667 292.5,44.8333 292.5,46.5C 292.5,47.1667 292.833,47.5 293.5,47.5C 294.552,49.256 296.219,49.9227 298.5,49.5C 298.5,50.1667 298.5,50.8333 298.5,51.5C 291.423,51.4293 289.09,48.096 291.5,41.5 Z"/></g>
<g><path style="opacity:1" fill="#f09424" d="M 316.5,34.5 C 317.161,35.7175 317.828,37.0508 318.5,38.5C 319.327,35.1114 321.493,33.7781 325,34.5C 326.981,34.6292 328.647,35.2958 330,36.5C 330.333,36.1667 330.667,35.8333 331,35.5C 330.285,39.4364 329.452,43.4364 328.5,47.5C 329.325,48.3857 330.325,48.719 331.5,48.5C 331.312,46.8967 331.812,45.5634 333,44.5C 338.536,45.8952 342.703,49.0619 345.5,54C 343.744,54.1405 342.078,53.6405 340.5,52.5C 340.167,53 339.833,53.5 339.5,54C 340.167,60.6667 340.833,67.3333 341.5,74C 341.387,75.2798 340.72,76.1131 339.5,76.5C 337.997,72.6001 336.664,72.6001 335.5,76.5C 334.596,75.791 334.263,74.791 334.5,73.5C 339.123,69.5682 340.623,64.5682 339,58.5C 336.52,53.2188 332.354,50.5522 326.5,50.5C 327.423,46.1394 327.423,41.8061 326.5,37.5C 324.802,36.3192 323.135,36.3192 321.5,37.5C 320.358,40.3992 319.692,43.3992 319.5,46.5C 317.901,46.7678 316.568,46.4345 315.5,45.5C 316.114,41.8648 316.448,38.1981 316.5,34.5 Z"/></g>
<g><path style="opacity:0.937" fill="#e6c268" d="M 411.5,44.5 C 416.167,47.1667 419.833,50.8333 422.5,55.5C 419.167,52.5 415.833,49.5 412.5,46.5C 412.167,45.8333 411.833,45.1667 411.5,44.5 Z"/></g>
<g><path style="opacity:0.984" fill="#71b09f" d="M 107.5,31.5 C 105.986,37.5465 104.152,43.5465 102,49.5C 101.34,51.3237 100.173,52.657 98.5,53.5C 100.41,49.6828 101.743,45.6828 102.5,41.5C 103.659,37.8487 105.326,34.5154 107.5,31.5 Z"/></g>
<g><path style="opacity:0.788" fill="#99a6dd" d="M 224.5,38.5 C 224.5,38.8333 224.5,39.1667 224.5,39.5C 224.5,40.1667 224.5,40.8333 224.5,41.5C 219.559,49.772 214.226,57.772 208.5,65.5C 210.656,60.4296 212.989,55.4296 215.5,50.5C 218.5,46.5 221.5,42.5 224.5,38.5 Z"/></g>
<g><path style="opacity:0.008" fill="#f9e6b0" d="M 412.5,46.5 C 415.833,49.5 419.167,52.5 422.5,55.5C 423.5,56.8333 424.5,58.1667 425.5,59.5C 420.167,56.1667 415.833,51.8333 412.5,46.5 Z"/></g>
<g><path style="opacity:1" fill="#9f8493" d="M 256.5,46.5 C 256.5,47.1667 256.5,47.8333 256.5,48.5C 254.794,50.612 253.461,52.9453 252.5,55.5C 252.309,51.7117 253.642,48.7117 256.5,46.5 Z"/></g>
<g><path style="opacity:0.369" fill="#edd29c" d="M 293.5,47.5 C 295.553,47.4021 297.22,48.0687 298.5,49.5C 296.219,49.9227 294.552,49.256 293.5,47.5 Z"/></g>
<g><path style="opacity:0.086" fill="#a2c5e3" d="M 491.5,44.5 C 495.187,45.176 498.52,46.676 501.5,49C 503.464,50.451 504.797,52.2843 505.5,54.5C 501.041,50.6286 496.374,47.2953 491.5,44.5 Z"/></g>
<g><path style="opacity:0.118" fill="#9fc2e2" d="M 504.5,45.5 C 505.496,45.4142 506.329,45.7476 507,46.5C 508.75,48.7343 510.25,51.0676 511.5,53.5C 508.45,51.4509 506.117,48.7843 504.5,45.5 Z"/></g>
<g><path style="opacity:0.173" fill="#aed0e8" d="M 524.5,46.5 C 525.906,46.9731 526.573,47.9731 526.5,49.5C 525.094,49.0269 524.427,48.0269 524.5,46.5 Z"/></g>
<g><path style="opacity:0.945" fill="#dabb5d" d="M 452.5,47.5 C 453.833,48.5 455.167,49.5 456.5,50.5C 456.328,51.4916 456.662,52.1583 457.5,52.5C 457.5,54.1667 457.5,55.8333 457.5,57.5C 455.458,54.3858 453.791,51.0524 452.5,47.5 Z"/></g>
<g><path style="opacity:0.094" fill="#e1d69f" d="M 451.5,44.5 C 452.167,44.8333 452.833,45.1667 453.5,45.5C 453.833,46.5 454.5,47.1667 455.5,47.5C 456.11,48.391 456.443,49.391 456.5,50.5C 455.167,49.5 453.833,48.5 452.5,47.5C 451.89,46.609 451.557,45.609 451.5,44.5 Z"/></g>
<g><path style="opacity:0.592" fill="#6990af" d="M 463.5,47.5 C 462.207,49.2959 460.707,50.9625 459,52.5C 458.666,54.8473 458.833,57.1806 459.5,59.5C 459.167,59.5 458.833,59.5 458.5,59.5C 458.672,58.5084 458.338,57.8417 457.5,57.5C 457.5,55.8333 457.5,54.1667 457.5,52.5C 458.167,51.5 458.833,50.5 459.5,49.5C 460.605,48.3995 461.938,47.7329 463.5,47.5 Z"/></g>
<g><path style="opacity:0.078" fill="#fcfce9" d="M 459.5,49.5 C 458.833,50.5 458.167,51.5 457.5,52.5C 456.662,52.1583 456.328,51.4916 456.5,50.5C 457.391,49.8902 458.391,49.5569 459.5,49.5 Z"/></g>
<g><path style="opacity:0.384" fill="#f6deb5" d="M 316.5,54.5 C 314.379,54.3253 312.379,54.6586 310.5,55.5C 310.5,54.5 310.5,53.5 310.5,52.5C 312.786,52.595 314.786,53.2616 316.5,54.5 Z"/></g>
<g><path style="opacity:1" fill="#3074bc" d="M 491.5,25.5 C 486.312,25.968 486.312,26.968 491.5,28.5C 491.833,29 492.167,29.5 492.5,30C 491.107,31.3008 490.607,32.8008 491,34.5C 493.191,35.8334 495.024,37.5 496.5,39.5C 494.565,38.8505 492.565,38.5172 490.5,38.5C 490.205,40.7354 490.539,42.7354 491.5,44.5C 496.374,47.2953 501.041,50.6286 505.5,54.5C 505.427,56.0269 506.094,57.0269 507.5,57.5C 507.427,59.0269 508.094,60.0269 509.5,60.5C 509.5,61.1667 509.5,61.8333 509.5,62.5C 507.521,60.8325 505.188,60.1658 502.5,60.5C 502.421,59.0695 502.754,57.7362 503.5,56.5C 502.349,55.269 501.183,55.269 500,56.5C 499.348,54.2769 497.848,53.1102 495.5,53C 493.845,51.5557 493.178,49.7224 493.5,47.5C 491.833,47.5 490.167,47.5 488.5,47.5C 489.09,41.8469 489.09,36.5135 488.5,31.5C 487.289,29.5161 485.956,27.5161 484.5,25.5C 479.228,24.9678 473.895,24.9678 468.5,25.5C 476.173,22.8878 483.84,22.8878 491.5,25.5 Z"/></g>
<g><path style="opacity:0.455" fill="#f3ce98" d="M 334.5,73.5 C 333.833,73.5 333.167,73.5 332.5,73.5C 334.475,72.3536 335.975,70.687 337,68.5C 337.978,64.0998 337.478,59.9331 335.5,56C 332.205,53.7693 328.705,51.9359 325,50.5C 324.458,47.2019 324.958,44.0352 326.5,41C 325.667,38.5 324.167,38 322,39.5C 321.047,42.4318 320.547,45.4318 320.5,48.5C 312.634,49.0037 310.634,46.0037 314.5,39.5C 314.205,41.7354 314.539,43.7354 315.5,45.5C 316.568,46.4345 317.901,46.7678 319.5,46.5C 319.692,43.3992 320.358,40.3992 321.5,37.5C 323.135,36.3192 324.802,36.3192 326.5,37.5C 327.423,41.8061 327.423,46.1394 326.5,50.5C 332.354,50.5522 336.52,53.2188 339,58.5C 340.623,64.5682 339.123,69.5682 334.5,73.5 Z"/></g>
<g><path style="opacity:0.361" fill="#f1d690" d="M 411.5,44.5 C 411.833,45.1667 412.167,45.8333 412.5,46.5C 410.484,45.5436 408.651,44.2102 407,42.5C 401.251,48.4183 395.417,54.085 389.5,59.5C 388.596,60.209 388.263,61.209 388.5,62.5C 387.402,61.3991 387.235,60.0657 388,58.5C 393.654,53.0121 399.154,47.3454 404.5,41.5C 407.93,40.0501 410.263,41.0501 411.5,44.5 Z"/></g>
<g><path style="opacity:1" fill="#d49058" d="M 256.5,48.5 C 255.557,52.3322 254.223,55.9989 252.5,59.5C 252.167,59.5 251.833,59.5 251.5,59.5C 251.232,57.901 251.566,56.5676 252.5,55.5C 253.461,52.9453 254.794,50.612 256.5,48.5 Z"/></g>
<g><path style="opacity:0.329" fill="#f4d3a4" d="M 316.5,54.5 C 318.553,54.4021 320.22,55.0687 321.5,56.5C 319.447,56.5979 317.78,55.9313 316.5,54.5 Z"/></g>
<g><path style="opacity:1" fill="#bcc8f7" d="M 230.5,42.5 C 235.463,51.7297 240.797,60.7297 246.5,69.5C 247.026,71.2303 248.026,72.5637 249.5,73.5C 249.5,74.5 249.5,75.5 249.5,76.5C 249.167,76.5 248.833,76.5 248.5,76.5C 248.047,75.5416 247.381,74.7083 246.5,74C 239.486,71.007 232.486,68.1736 225.5,65.5C 226.139,61.0803 226.472,56.5803 226.5,52C 226.491,47.4428 225.825,43.2762 224.5,39.5C 224.5,39.1667 224.5,38.8333 224.5,38.5C 225.386,37.2241 226.386,37.2241 227.5,38.5C 228.521,39.9014 229.521,41.2347 230.5,42.5 Z"/></g>
<g><path style="opacity:0.4" fill="#95bed6" d="M 505.5,54.5 C 506.906,54.9731 507.573,55.9731 507.5,57.5C 506.094,57.0269 505.427,56.0269 505.5,54.5 Z"/></g>
<g><path style="opacity:0.988" fill="#769ecc" d="M 526.5,49.5 C 533.655,61.8296 535.321,74.8296 531.5,88.5C 531.167,88.5 530.833,88.5 530.5,88.5C 531.499,80.1894 531.665,71.8561 531,63.5C 528.066,59.366 526.566,54.6993 526.5,49.5 Z"/></g>
<g><path style="opacity:0.11" fill="#a0cec2" d="M 102.5,41.5 C 101.743,45.6828 100.41,49.6828 98.5,53.5C 95.7342,57.0329 94.0675,61.0329 93.5,65.5C 92.8333,65.5 92.1667,65.5 91.5,65.5C 94.1088,56.9533 97.7754,48.9533 102.5,41.5 Z"/></g>
<g><path style="opacity:0.161" fill="#84bcad" d="M 172.5,41.5 C 174.402,44.3373 175.069,47.6707 174.5,51.5C 174.567,52.9587 174.234,54.2921 173.5,55.5C 167.167,55.5 160.833,55.5 154.5,55.5C 154.5,58.1667 154.5,60.8333 154.5,63.5C 159.533,64.0218 164.533,64.6885 169.5,65.5C 170.167,65.5 170.833,65.5 171.5,65.5C 171.5,66.1667 171.5,66.8333 171.5,67.5C 165.929,66.1032 160.262,65.4365 154.5,65.5C 155.055,69.0122 154.388,72.0122 152.5,74.5C 152.5,74.1667 152.5,73.8333 152.5,73.5C 152.5,67.1667 152.5,60.8333 152.5,54.5C 158.842,54.6662 165.175,54.4995 171.5,54C 172.46,50.27 172.793,46.4367 172.5,42.5C 172.5,42.1667 172.5,41.8333 172.5,41.5 Z"/></g>
<g><path style="opacity:1" fill="#f69219" d="M 324.5,65.5 C 324.167,66.1667 323.833,66.8333 323.5,67.5C 320.15,67.665 316.817,67.4983 313.5,67C 311.845,65.5557 311.178,63.7224 311.5,61.5C 312.5,61.5 313.5,61.5 314.5,61.5C 314.5,59.8333 314.5,58.1667 314.5,56.5C 317.131,57.4776 319.798,58.4776 322.5,59.5C 324.086,61.1727 324.753,63.1727 324.5,65.5 Z"/></g>
<g><path style="opacity:0.063" fill="#9cbddf" d="M 483.5,55.5 C 482.549,54.0813 482.216,52.4147 482.5,50.5C 481.178,50.33 480.011,50.6634 479,51.5C 478.808,53.5767 478.308,55.5767 477.5,57.5C 474.812,58.5134 472.146,59.5134 469.5,60.5C 470.167,59.5 470.833,58.5 471.5,57.5C 476.861,57.4358 478.861,54.7691 477.5,49.5C 479.5,49.5 481.5,49.5 483.5,49.5C 483.5,51.5 483.5,53.5 483.5,55.5 Z"/></g>
<g><path style="opacity:0.999" fill="#58a7a2" d="M 179.5,46.5 C 179.5,46.8333 179.5,47.1667 179.5,47.5C 177.119,52.3019 175.119,57.3019 173.5,62.5C 172.833,63.5 172.167,64.5 171.5,65.5C 170.833,65.5 170.167,65.5 169.5,65.5C 170.438,61.9338 171.771,58.6005 173.5,55.5C 174.234,54.2921 174.567,52.9587 174.5,51.5C 175.239,51.631 175.906,51.4643 176.5,51C 177.053,49.1222 178.053,47.6222 179.5,46.5 Z"/></g>
<g><path style="opacity:1" fill="#598cc9" d="M 185.5,41.5 C 184.428,44.6297 182.594,47.2964 180,49.5C 178.678,53.6241 177.178,57.6241 175.5,61.5C 175.011,62.9952 174.345,64.3285 173.5,65.5C 173.5,64.5 173.5,63.5 173.5,62.5C 175.119,57.3019 177.119,52.3019 179.5,47.5C 181.5,45.5 183.5,43.5 185.5,41.5 Z"/></g>
<g><path style="opacity:0.141" fill="#8bafd4" d="M 483.5,55.5 C 487.74,56.7871 491.073,59.2871 493.5,63C 492.944,63.3826 492.611,63.8826 492.5,64.5C 491.078,60.2801 488.078,58.2801 483.5,58.5C 483.5,57.5 483.5,56.5 483.5,55.5 Z"/></g>
<g><path style="opacity:1" fill="#57ab94" d="M 173.5,55.5 C 171.771,58.6005 170.438,61.9338 169.5,65.5C 164.533,64.6885 159.533,64.0218 154.5,63.5C 154.5,60.8333 154.5,58.1667 154.5,55.5C 160.833,55.5 167.167,55.5 173.5,55.5 Z"/></g>
<g><path style="opacity:1" fill="#6e7cd2" d="M 256.5,42.5 C 256.5,43.1667 256.5,43.8333 256.5,44.5C 256.5,45.1667 256.5,45.8333 256.5,46.5C 253.642,48.7117 252.309,51.7117 252.5,55.5C 251.566,56.5676 251.232,57.901 251.5,59.5C 251.5,59.8333 251.5,60.1667 251.5,60.5C 250.732,61.2625 250.232,62.2625 250,63.5C 249.502,66.8168 249.335,70.1501 249.5,73.5C 248.026,72.5637 247.026,71.2303 246.5,69.5C 248.29,65.948 249.29,61.948 249.5,57.5C 248.963,56.2588 248.296,55.0921 247.5,54C 248.007,51.6587 249.174,51.1587 251,52.5C 251.307,48.9532 252.14,45.6199 253.5,42.5C 254.5,42.5 255.5,42.5 256.5,42.5 Z"/></g>
<g><path style="opacity:0.361" fill="#a0bcdd" d="M 507.5,57.5 C 508.906,57.9731 509.573,58.9731 509.5,60.5C 508.094,60.0269 507.427,59.0269 507.5,57.5 Z"/></g>
<g><path style="opacity:0.094" fill="#bed2ef" d="M 509.5,60.5 C 510.906,60.9731 511.573,61.9731 511.5,63.5C 510.833,63.1667 510.167,62.8333 509.5,62.5C 509.5,61.8333 509.5,61.1667 509.5,60.5 Z"/></g>
<g><path style="opacity:0.18" fill="#f9dfb0" d="M 309.5,59.5 C 309.5,60.8333 309.5,62.1667 309.5,63.5C 308.157,65.6834 308.49,67.6834 310.5,69.5C 309.5,69.5 308.5,69.5 307.5,69.5C 307.159,65.8405 307.825,62.5072 309.5,59.5 Z"/></g>
<g><path style="opacity:0.204" fill="#f7e4a6" d="M 419.5,66.5 C 415.878,64.2133 412.545,61.5466 409.5,58.5C 408.686,56.7274 407.352,56.2274 405.5,57C 401.954,60.8818 398.121,64.3818 394,67.5C 392.357,66.6854 390.857,65.6854 389.5,64.5C 389.167,63.8333 388.833,63.1667 388.5,62.5C 388.263,61.209 388.596,60.209 389.5,59.5C 390.75,61.9324 392.25,64.2657 394,66.5C 398.333,62.1667 402.667,57.8333 407,53.5C 411.419,57.7493 415.586,62.0827 419.5,66.5 Z"/></g>
<g><path style="opacity:1" fill="#e9bc44" d="M 422.5,55.5 C 424.722,55.178 426.556,55.8446 428,57.5C 428.497,59.8098 428.663,62.1432 428.5,64.5C 424.74,66.7124 420.74,68.379 416.5,69.5C 416.5,68.5 416.5,67.5 416.5,66.5C 415.5,66.5 414.5,66.5 413.5,66.5C 413.517,68.5648 413.85,70.5648 414.5,72.5C 413.078,71.075 411.411,70.075 409.5,69.5C 409.38,68.4138 408.713,67.7472 407.5,67.5C 404.385,68.3848 402.052,70.2181 400.5,73C 400.639,74.301 401.305,75.1344 402.5,75.5C 402.5,76.1667 402.5,76.8333 402.5,77.5C 398.536,76.0779 397.536,73.4112 399.5,69.5C 401.865,68.9149 403.865,67.7482 405.5,66C 407.235,65.3486 408.902,65.5153 410.5,66.5C 414.417,64.9519 414.251,63.6185 410,62.5C 409.51,61.2068 409.343,59.8734 409.5,58.5C 412.545,61.5466 415.878,64.2133 419.5,66.5C 419.833,66.5 420.167,66.5 420.5,66.5C 424.413,65.3228 426.079,62.9895 425.5,59.5C 424.5,58.1667 423.5,56.8333 422.5,55.5 Z"/></g>
<g><path style="opacity:0.251" fill="#f7e6a6" d="M 425.5,59.5 C 426.079,62.9895 424.413,65.3228 420.5,66.5C 422.58,64.4268 424.246,62.0934 425.5,59.5 Z"/></g>
<g><path style="opacity:1" fill="#9e868c" d="M 251.5,60.5 C 250.642,68.1322 250.309,75.7989 250.5,83.5C 250.167,83.5 249.833,83.5 249.5,83.5C 249.5,83.1667 249.5,82.8333 249.5,82.5C 249.5,82.1667 249.5,81.8333 249.5,81.5C 249.5,79.8333 249.5,78.1667 249.5,76.5C 249.5,75.5 249.5,74.5 249.5,73.5C 249.335,70.1501 249.502,66.8168 250,63.5C 250.232,62.2625 250.732,61.2625 251.5,60.5 Z"/></g>
<g><path style="opacity:0.945" fill="#e5be57" d="M 409.5,58.5 C 408.127,58.3433 406.793,58.51 405.5,59C 402.5,62 399.5,65 396.5,68C 392.795,69.3128 390.462,68.1461 389.5,64.5C 390.857,65.6854 392.357,66.6854 394,67.5C 398.121,64.3818 401.954,60.8818 405.5,57C 407.352,56.2274 408.686,56.7274 409.5,58.5 Z"/></g>
<g><path style="opacity:0.788" fill="#7ea3ca" d="M 487.5,65.5 C 483.797,61.5352 479.631,60.8685 475,63.5C 474.242,65.7695 474.409,67.9361 475.5,70C 478.063,71.0793 480.729,71.5793 483.5,71.5C 484.952,72.3019 486.618,72.8019 488.5,73C 489.252,73.6708 489.586,74.5041 489.5,75.5C 483.807,74.4144 478.307,72.7477 473,70.5C 471.598,61.4198 475.431,58.2531 484.5,61C 486.141,62.129 487.141,63.629 487.5,65.5 Z"/></g>
<g><path style="opacity:0.757" fill="#a5afe4" d="M 208.5,66.5 C 206.975,68.2163 205.975,70.2163 205.5,72.5C 204.833,72.5 204.5,72.8333 204.5,73.5C 203.833,73.8333 203.167,74.1667 202.5,74.5C 203.552,71.8069 204.552,69.1402 205.5,66.5C 206.5,66.5 207.5,66.5 208.5,66.5 Z"/></g>
<g><path style="opacity:1" fill="#eb9c3d" d="M 316.5,54.5 C 317.78,55.9313 319.447,56.5979 321.5,56.5C 323.632,56.5544 324.965,57.5544 325.5,59.5C 325.795,61.7354 325.461,63.7354 324.5,65.5C 324.753,63.1727 324.086,61.1727 322.5,59.5C 319.798,58.4776 317.131,57.4776 314.5,56.5C 314.5,58.1667 314.5,59.8333 314.5,61.5C 313.5,61.5 312.5,61.5 311.5,61.5C 311.178,63.7224 311.845,65.5557 313.5,67C 316.817,67.4983 320.15,67.665 323.5,67.5C 318.979,68.6778 314.312,68.6778 309.5,67.5C 309.5,66.1667 309.5,64.8333 309.5,63.5C 309.5,62.1667 309.5,60.8333 309.5,59.5C 309.232,57.901 309.566,56.5676 310.5,55.5C 312.379,54.6586 314.379,54.3253 316.5,54.5 Z"/></g>
<g><path style="opacity:0.188" fill="#97bdde" d="M 468.5,61.5 C 467.167,65.1667 467.167,68.8333 468.5,72.5C 467.883,72.3893 467.383,72.056 467,71.5C 466.833,70.1667 466.667,68.8333 466.5,67.5C 466.361,65.1175 467.028,63.1175 468.5,61.5 Z"/></g>
<g><path style="opacity:1" fill="#3677bf" d="M 483.5,71.5 C 480.729,71.5793 478.063,71.0793 475.5,70C 474.409,67.9361 474.242,65.7695 475,63.5C 479.631,60.8685 483.797,61.5352 487.5,65.5C 489.415,65.7845 491.081,65.4511 492.5,64.5C 492.611,63.8826 492.944,63.3826 493.5,63C 491.073,59.2871 487.74,56.7871 483.5,55.5C 483.5,53.5 483.5,51.5 483.5,49.5C 481.5,49.5 479.5,49.5 477.5,49.5C 478.861,54.7691 476.861,57.4358 471.5,57.5C 472.341,55.4885 473.841,54.1552 476,53.5C 476.743,51.5594 476.576,49.7261 475.5,48C 476.672,47.5814 477.672,46.9147 478.5,46C 477.594,44.3005 477.261,42.4672 477.5,40.5C 479.5,41.1667 481.5,41.8333 483.5,42.5C 483.863,46.9841 484.863,51.3174 486.5,55.5C 487.937,52.9557 489.437,52.9557 491,55.5C 492.659,58.6494 494.159,61.816 495.5,65C 495.415,66.1074 495.081,67.1074 494.5,68C 489.943,69.1369 485.443,69.3036 481,68.5C 480.833,68.8333 480.667,69.1667 480.5,69.5C 481.602,70.1757 482.602,70.8423 483.5,71.5 Z"/></g>
<g><path style="opacity:1" fill="#2774c7" d="M 509.5,62.5 C 510.167,62.8333 510.833,63.1667 511.5,63.5C 511.5,63.8333 511.5,64.1667 511.5,64.5C 512.504,72.1471 512.504,79.8137 511.5,87.5C 508.516,88.7842 507.016,91.1176 507,94.5C 503.902,98.1074 500.402,101.107 496.5,103.5C 493.551,105.056 490.884,104.722 488.5,102.5C 487.252,103.04 486.085,103.707 485,104.5C 484.51,103.207 484.343,101.873 484.5,100.5C 485.234,99.1225 485.901,97.6225 486.5,96C 489.22,95.2033 491.72,94.0367 494,92.5C 495.453,88.1028 496.953,83.7695 498.5,79.5C 496.54,77.8437 494.54,76.177 492.5,74.5C 491.571,73.3112 491.238,71.9778 491.5,70.5C 488.873,71.0916 486.206,71.4249 483.5,71.5C 482.602,70.8423 481.602,70.1757 480.5,69.5C 480.667,69.1667 480.833,68.8333 481,68.5C 485.443,69.3036 489.943,69.1369 494.5,68C 495.081,67.1074 495.415,66.1074 495.5,65C 494.159,61.816 492.659,58.6494 491,55.5C 489.437,52.9557 487.937,52.9557 486.5,55.5C 484.863,51.3174 483.863,46.9841 483.5,42.5C 481.5,41.8333 479.5,41.1667 477.5,40.5C 477.261,42.4672 477.594,44.3005 478.5,46C 477.672,46.9147 476.672,47.5814 475.5,48C 476.576,49.7261 476.743,51.5594 476,53.5C 473.841,54.1552 472.341,55.4885 471.5,57.5C 470.167,57.5 468.833,57.5 467.5,57.5C 467.247,55.1727 467.914,53.1727 469.5,51.5C 472.395,54.1009 473.061,53.4342 471.5,49.5C 469.802,50.6808 468.135,50.6808 466.5,49.5C 469.379,48.9197 471.046,47.253 471.5,44.5C 472.401,40.7593 471.068,38.7593 467.5,38.5C 463.242,38.6283 459.909,40.295 457.5,43.5C 455.833,43.5 454.167,43.5 452.5,43.5C 452.773,41.549 452.107,40.049 450.5,39C 450.833,38.6667 451.167,38.3333 451.5,38C 448.81,37.6655 448.143,36.4988 449.5,34.5C 450.5,33.1667 451.5,31.8333 452.5,30.5C 455.857,30.7841 458.191,29.4507 459.5,26.5C 462.518,26.2962 465.518,25.9629 468.5,25.5C 473.895,24.9678 479.228,24.9678 484.5,25.5C 485.956,27.5161 487.289,29.5161 488.5,31.5C 489.09,36.5135 489.09,41.8469 488.5,47.5C 490.167,47.5 491.833,47.5 493.5,47.5C 493.178,49.7224 493.845,51.5557 495.5,53C 497.848,53.1102 499.348,54.2769 500,56.5C 501.183,55.269 502.349,55.269 503.5,56.5C 502.754,57.7362 502.421,59.0695 502.5,60.5C 505.188,60.1658 507.521,60.8325 509.5,62.5 Z"/></g>
<g><path style="opacity:1" fill="#63ad99" d="M 91.5,65.5 C 92.1667,65.5 92.8333,65.5 93.5,65.5C 93.3305,67.912 93.9972,70.0786 95.5,72C 95.2409,73.2613 94.5742,74.2613 93.5,75C 97.5803,81.9302 103.247,86.7635 110.5,89.5C 110.351,90.552 110.517,91.552 111,92.5C 114.112,95.1009 116.612,98.1009 118.5,101.5C 114.773,97.7668 110.773,94.4335 106.5,91.5C 105.415,89.4131 103.749,88.0798 101.5,87.5C 100.167,86.8333 99.1667,85.8333 98.5,84.5C 96.2754,80.7653 93.442,77.432 90,74.5C 89.5065,72.8659 89.3398,71.1992 89.5,69.5C 89.6596,67.847 90.3263,66.5137 91.5,65.5 Z"/></g>
<g><path style="opacity:0.765" fill="#ecb97b" d="M 325.5,59.5 C 328.296,63.3748 327.629,66.8748 323.5,70C 319.08,70.7684 314.747,70.6018 310.5,69.5C 308.49,67.6834 308.157,65.6834 309.5,63.5C 309.5,64.8333 309.5,66.1667 309.5,67.5C 314.312,68.6778 318.979,68.6778 323.5,67.5C 323.833,66.8333 324.167,66.1667 324.5,65.5C 325.461,63.7354 325.795,61.7354 325.5,59.5 Z"/></g>
<g><path style="opacity:0.71" fill="#e8c669" d="M 434.5,67.5 C 430.036,68.2976 427.703,70.9642 427.5,75.5C 425.656,74.7961 425.156,73.4628 426,71.5C 427.5,70 429,68.5 430.5,67C 432.066,66.235 433.399,66.4017 434.5,67.5 Z"/></g>
<g><path style="opacity:1" fill="#8498ea" d="M 225.5,65.5 C 232.486,68.1736 239.486,71.007 246.5,74C 247.381,74.7083 248.047,75.5416 248.5,76.5C 248.5,77.1667 248.167,77.5 247.5,77.5C 245.418,75.3657 243.418,75.3657 241.5,77.5C 239.493,75.9918 237.826,74.1584 236.5,72C 235.207,71.51 233.873,71.3433 232.5,71.5C 232.343,72.8734 232.51,74.2068 233,75.5C 234.757,76.1189 235.924,77.2856 236.5,79C 234.643,82.0187 232.143,83.1853 229,82.5C 228.505,84.4727 228.338,86.4727 228.5,88.5C 227.609,89.1098 226.609,89.4431 225.5,89.5C 225.5,81.5 225.5,73.5 225.5,65.5 Z"/></g>
<g><path style="opacity:1" fill="#d6954c" d="M 251.5,59.5 C 251.833,59.5 252.167,59.5 252.5,59.5C 251.797,68.1487 251.464,76.8154 251.5,85.5C 250.662,85.1583 250.328,84.4916 250.5,83.5C 250.309,75.7989 250.642,68.1322 251.5,60.5C 251.5,60.1667 251.5,59.8333 251.5,59.5 Z"/></g>
<g><path style="opacity:0.486" fill="#f5e2a2" d="M 409.5,69.5 C 411.411,70.075 413.078,71.075 414.5,72.5C 413.358,77.385 410.358,79.885 405.5,80C 404.627,78.955 403.627,78.1217 402.5,77.5C 402.5,76.8333 402.5,76.1667 402.5,75.5C 404.129,76.6253 405.629,77.9586 407,79.5C 412.485,76.9601 413.318,73.6268 409.5,69.5 Z"/></g>
<g><path style="opacity:0.298" fill="#f4e09b" d="M 409.5,69.5 C 408.577,68.6971 407.577,68.5304 406.5,69C 404.077,70.5707 402.744,72.7374 402.5,75.5C 401.305,75.1344 400.639,74.301 400.5,73C 402.052,70.2181 404.385,68.3848 407.5,67.5C 408.713,67.7472 409.38,68.4138 409.5,69.5 Z"/></g>
<g><path style="opacity:1" fill="#2b75c5" d="M 491.5,25.5 C 496.076,26.81 500.743,27.81 505.5,28.5C 505.281,29.675 505.614,30.675 506.5,31.5C 510.435,34.0144 514.435,36.3477 518.5,38.5C 520.016,41.5331 522.016,44.1997 524.5,46.5C 524.427,48.0269 525.094,49.0269 526.5,49.5C 526.566,54.6993 528.066,59.366 531,63.5C 531.665,71.8561 531.499,80.1894 530.5,88.5C 529.659,90.3792 529.325,92.3792 529.5,94.5C 527.992,96.1815 526.992,98.1815 526.5,100.5C 526.573,102.027 525.906,103.027 524.5,103.5C 519.833,110.167 514.167,115.833 507.5,120.5C 505.819,122.008 503.819,123.008 501.5,123.5C 496.149,124.037 490.816,124.704 485.5,125.5C 485.5,124.5 485.5,123.5 485.5,122.5C 487.547,122.511 489.547,122.844 491.5,123.5C 496.147,122.107 500.813,120.607 505.5,119C 504.142,116.974 503.309,114.807 503,112.5C 502,113.167 501,113.833 500,114.5C 498.817,113.269 497.651,113.269 496.5,114.5C 497.936,115.934 499.602,117.1 501.5,118C 498.446,118.821 495.446,118.655 492.5,117.5C 493.433,116.015 493.1,114.682 491.5,113.5C 492.167,113.5 492.833,113.5 493.5,113.5C 497.945,112.78 501.612,110.78 504.5,107.5C 507.331,106.002 508.998,103.669 509.5,100.5C 511.5,100.5 512.5,99.5 512.5,97.5C 514.877,95.772 516.544,93.4386 517.5,90.5C 518.966,89.653 519.8,88.3197 520,86.5C 522.032,75.2158 520.199,64.7158 514.5,55C 513.552,54.5172 512.552,54.3505 511.5,54.5C 511.5,54.1667 511.5,53.8333 511.5,53.5C 510.25,51.0676 508.75,48.7343 507,46.5C 506.329,45.7476 505.496,45.4142 504.5,45.5C 504.027,44.0937 503.027,43.427 501.5,43.5C 500.656,41.2407 498.989,40.2407 496.5,40.5C 496.5,40.1667 496.5,39.8333 496.5,39.5C 495.024,37.5 493.191,35.8334 491,34.5C 490.607,32.8008 491.107,31.3008 492.5,30C 492.167,29.5 491.833,29 491.5,28.5C 486.312,26.968 486.312,25.968 491.5,25.5 Z"/></g>
<g><path style="opacity:1" fill="#becaf7" d="M 225.5,65.5 C 225.5,73.5 225.5,81.5 225.5,89.5C 219.702,86.7674 214.035,83.7674 208.5,80.5C 206.565,79.19 204.565,77.8567 202.5,76.5C 201.227,75.7435 201.227,75.0768 202.5,74.5C 202.56,75.0431 202.893,75.3764 203.5,75.5C 207.566,74.1212 211.566,72.7879 215.5,71.5C 215.5,70.5 215.5,69.5 215.5,68.5C 219.092,68.302 222.426,67.302 225.5,65.5 Z"/></g>
<g><path style="opacity:1" fill="#7f96f0" d="M 247.5,77.5 C 241.128,80.971 234.795,84.6377 228.5,88.5C 228.338,86.4727 228.505,84.4727 229,82.5C 232.143,83.1853 234.643,82.0187 236.5,79C 235.924,77.2856 234.757,76.1189 233,75.5C 232.51,74.2068 232.343,72.8734 232.5,71.5C 233.873,71.3433 235.207,71.51 236.5,72C 237.826,74.1584 239.493,75.9918 241.5,77.5C 243.418,75.3657 245.418,75.3657 247.5,77.5 Z"/></g>
<g><path style="opacity:0.945" fill="#baaf69" d="M 458.5,59.5 C 458.833,59.5 459.167,59.5 459.5,59.5C 459.5,60.1667 459.5,60.8333 459.5,61.5C 460.676,67.9834 460.676,74.3167 459.5,80.5C 459.422,73.485 459.089,66.485 458.5,59.5 Z"/></g>
<g><path style="opacity:0.608" fill="#d1d7ef" d="M 215.5,68.5 C 215.5,69.5 215.5,70.5 215.5,71.5C 211.566,72.7879 207.566,74.1212 203.5,75.5C 202.893,75.3764 202.56,75.0431 202.5,74.5C 203.167,74.1667 203.833,73.8333 204.5,73.5C 205.167,73.5 205.5,73.1667 205.5,72.5C 208.833,71.1667 212.167,69.8333 215.5,68.5 Z"/></g>
<g><path style="opacity:0.969" fill="#608089" d="M 459.5,61.5 C 460.222,61.9175 460.722,62.5842 461,63.5C 461.667,69.8333 461.667,76.1667 461,82.5C 460.722,83.4158 460.222,84.0825 459.5,84.5C 459.5,83.8333 459.5,83.1667 459.5,82.5C 459.5,81.8333 459.5,81.1667 459.5,80.5C 460.676,74.3167 460.676,67.9834 459.5,61.5 Z"/></g>
<g><path style="opacity:0.039" fill="#ddfdfa" d="M 139.5,54.5 C 140.49,60.6446 140.823,66.9779 140.5,73.5C 144.5,73.5 148.5,73.5 152.5,73.5C 152.5,73.8333 152.5,74.1667 152.5,74.5C 148.167,74.5 143.833,74.5 139.5,74.5C 139.5,71.5 139.5,68.5 139.5,65.5C 139.5,61.8333 139.5,58.1667 139.5,54.5 Z"/></g>
<g><path style="opacity:0.991" fill="#56ab94" d="M 139.5,65.5 C 139.5,68.5 139.5,71.5 139.5,74.5C 143.833,74.5 148.167,74.5 152.5,74.5C 154.388,72.0122 155.055,69.0122 154.5,65.5C 160.262,65.4365 165.929,66.1032 171.5,67.5C 171.5,69.8333 171.5,72.1667 171.5,74.5C 155.213,76.9394 138.88,77.106 122.5,75C 120.212,74.1779 117.878,73.5112 115.5,73C 114.167,71.6667 114.167,70.3333 115.5,69C 123.308,66.4713 131.308,65.3046 139.5,65.5 Z"/></g>
<g><path style="opacity:0.361" fill="#b3dcd1" d="M 89.5,69.5 C 89.3398,71.1992 89.5065,72.8659 90,74.5C 93.442,77.432 96.2754,80.7653 98.5,84.5C 94.8691,81.3707 91.3691,78.0374 88,74.5C 87.4014,72.4652 87.9014,70.7985 89.5,69.5 Z"/></g>
<g><path style="opacity:0.576" fill="#f3d998" d="M 375.5,73.5 C 376.833,75.1667 378.167,76.8333 379.5,78.5C 377.938,78.2671 376.605,77.6005 375.5,76.5C 374.375,75.3478 374.375,74.3478 375.5,73.5 Z"/></g>
<g><path style="opacity:0.473" fill="#88a7c8" d="M 511.5,64.5 C 513.001,68.0766 514.001,71.91 514.5,76C 513.863,80.0519 512.863,83.8852 511.5,87.5C 512.504,79.8137 512.504,72.1471 511.5,64.5 Z"/></g>
<g><path style="opacity:0.329" fill="#93c6b9" d="M 119.5,41.5 C 119.5,42.1667 119.5,42.8333 119.5,43.5C 120.344,47.0991 120.677,50.7657 120.5,54.5C 126.833,54.5 133.167,54.5 139.5,54.5C 139.5,58.1667 139.5,61.8333 139.5,65.5C 131.308,65.3046 123.308,66.4713 115.5,69C 114.167,70.3333 114.167,71.6667 115.5,73C 117.878,73.5112 120.212,74.1779 122.5,75C 138.88,77.106 155.213,76.9394 171.5,74.5C 171.5,74.8333 171.5,75.1667 171.5,75.5C 165.267,76.9053 158.934,77.9053 152.5,78.5C 148.167,78.5 143.833,78.5 139.5,78.5C 134.314,78.0392 129.147,77.3725 124,76.5C 122.93,76.528 122.097,76.8614 121.5,77.5C 120.167,77.5 118.833,77.5 117.5,77.5C 115.243,77.0383 113.243,76.0383 111.5,74.5C 110.295,73.0052 110.295,71.6719 111.5,70.5C 111.47,69.5028 111.97,68.8361 113,68.5C 121.183,65.2748 129.683,63.6081 138.5,63.5C 138.768,60.8806 138.435,58.3806 137.5,56C 131.175,55.5005 124.842,55.3338 118.5,55.5C 118.181,50.6367 118.514,45.97 119.5,41.5 Z"/></g>
<g><path style="opacity:0.369" fill="#f3ce98" d="M 318.5,77.5 C 314.538,76.6245 310.538,75.9578 306.5,75.5C 306.5,76.8333 306.5,78.1667 306.5,79.5C 305.596,80.209 305.263,81.209 305.5,82.5C 303.96,84.8383 303.294,87.5049 303.5,90.5C 304.791,90.2627 305.791,90.596 306.5,91.5C 303.739,92.0853 302.073,91.0853 301.5,88.5C 302.667,83.8333 303.833,79.1667 305,74.5C 309.88,73.6776 314.38,74.6776 318.5,77.5 Z"/></g>
<g><path style="opacity:0.961" fill="#dea352" d="M 332.5,73.5 C 333.167,73.5 333.833,73.5 334.5,73.5C 334.263,74.791 334.596,75.791 335.5,76.5C 336.6,77.6049 337.267,78.9382 337.5,80.5C 336.833,80.5 336.167,80.5 335.5,80.5C 335.5,80.1667 335.5,79.8333 335.5,79.5C 333.615,77.9468 332.615,75.9468 332.5,73.5 Z"/></g>
<g><path style="opacity:0.071" fill="#f9e9b2" d="M 434.5,67.5 C 436.348,69.5164 438.015,71.683 439.5,74C 437.941,77.0606 435.608,79.2273 432.5,80.5C 430.5,79.1667 428.833,77.5 427.5,75.5C 427.703,70.9642 430.036,68.2976 434.5,67.5 Z M 432.5,68.5 C 431.177,70.4714 429.844,72.4714 428.5,74.5C 429.901,76.2773 431.401,77.944 433,79.5C 434.833,77.6667 436.667,75.8333 438.5,74C 436.63,71.9604 434.63,70.1271 432.5,68.5 Z"/></g>
<g><path style="opacity:0.204" fill="#f1d8b1" d="M 332.5,73.5 C 332.615,75.9468 333.615,77.9468 335.5,79.5C 332.744,78.7825 330.744,77.1159 329.5,74.5C 330.325,73.6143 331.325,73.281 332.5,73.5 Z"/></g>
<g><path style="opacity:0.078" fill="#abd1eb" d="M 489.5,75.5 C 491.833,75.8333 493.167,77.1667 493.5,79.5C 491.833,78.5 490.5,77.1667 489.5,75.5 Z"/></g>
<g><path style="opacity:1" fill="#52ae94" d="M 183.5,29.5 C 184.5,32.1667 185.5,34.8333 186.5,37.5C 183.87,40.1466 181.537,43.1466 179.5,46.5C 178.053,47.6222 177.053,49.1222 176.5,51C 175.906,51.4643 175.239,51.631 174.5,51.5C 175.069,47.6707 174.402,44.3373 172.5,41.5C 154.833,41.5 137.167,41.5 119.5,41.5C 118.514,45.97 118.181,50.6367 118.5,55.5C 124.842,55.3338 131.175,55.5005 137.5,56C 138.435,58.3806 138.768,60.8806 138.5,63.5C 129.683,63.6081 121.183,65.2748 113,68.5C 111.97,68.8361 111.47,69.5028 111.5,70.5C 110.295,71.6719 110.295,73.0052 111.5,74.5C 113.243,76.0383 115.243,77.0383 117.5,77.5C 117.577,78.7498 118.244,79.5831 119.5,80C 118.663,81.0113 118.33,82.1779 118.5,83.5C 121.002,83.2505 123.502,82.9172 126,82.5C 129.489,83.2757 132.989,83.9423 136.5,84.5C 136.173,93.1289 136.84,101.629 138.5,110C 136.552,110.983 134.718,112.15 133,113.5C 131.654,111.658 129.821,110.658 127.5,110.5C 124.167,107.833 121.167,104.833 118.5,101.5C 116.612,98.1009 114.112,95.1009 111,92.5C 110.517,91.552 110.351,90.552 110.5,89.5C 103.247,86.7635 97.5803,81.9302 93.5,75C 94.5742,74.2613 95.2409,73.2613 95.5,72C 93.9972,70.0786 93.3305,67.912 93.5,65.5C 94.0675,61.0329 95.7342,57.0329 98.5,53.5C 100.173,52.657 101.34,51.3237 102,49.5C 104.152,43.5465 105.986,37.5465 107.5,31.5C 109.048,31.1788 109.715,30.1788 109.5,28.5C 134.241,28.1768 158.908,28.5102 183.5,29.5 Z"/></g>
<g><path style="opacity:0.133" fill="#d2f8ef" d="M 119.5,41.5 C 137.167,41.5 154.833,41.5 172.5,41.5C 172.5,41.8333 172.5,42.1667 172.5,42.5C 154.757,42.181 137.09,42.5143 119.5,43.5C 119.5,42.8333 119.5,42.1667 119.5,41.5 Z"/></g>
<g><path style="opacity:1" fill="#ec9835" d="M 318.5,77.5 C 319.492,77.3284 320.158,77.6618 320.5,78.5C 320.75,79.9221 321.583,80.9221 323,81.5C 323.796,84.0385 323.629,86.3718 322.5,88.5C 322.756,86.2075 322.423,84.0408 321.5,82C 319.22,81.7883 317.22,80.9549 315.5,79.5C 314.522,79.9767 313.689,80.6433 313,81.5C 312.716,79.1144 311.716,78.4477 310,79.5C 308.908,77.0688 307.741,77.0688 306.5,79.5C 306.5,78.1667 306.5,76.8333 306.5,75.5C 310.538,75.9578 314.538,76.6245 318.5,77.5 Z"/></g>
<g><path style="opacity:0.329" fill="#a7c2df" d="M 468.5,72.5 C 473.166,75.4894 478.166,77.4894 483.5,78.5C 479.4,78.4757 475.4,77.809 471.5,76.5C 469.532,75.8999 468.532,74.5666 468.5,72.5 Z"/></g>
<g><path style="opacity:0.29" fill="#c2ede2" d="M 121.5,77.5 C 122.097,76.8614 122.93,76.528 124,76.5C 129.147,77.3725 134.314,78.0392 139.5,78.5C 139.5,78.8333 139.5,79.1667 139.5,79.5C 138.167,79.5 136.833,79.5 135.5,79.5C 130.733,79.474 126.066,78.8073 121.5,77.5 Z"/></g>
<g><path style="opacity:0.141" fill="#c7eee6" d="M 171.5,75.5 C 171.5,76.1667 171.5,76.8333 171.5,77.5C 165.884,78.5402 160.217,79.2069 154.5,79.5C 153.833,79.5 153.167,79.5 152.5,79.5C 152.5,79.1667 152.5,78.8333 152.5,78.5C 158.934,77.9053 165.267,76.9053 171.5,75.5 Z"/></g>
<g><path style="opacity:1" fill="#ecba40" d="M 396.5,80.5 C 393.188,80.149 390.855,81.4823 389.5,84.5C 387.088,84.6941 386.088,86.0274 386.5,88.5C 385.897,86.8103 384.897,85.3103 383.5,84C 386.106,83.5495 387.439,82.0495 387.5,79.5C 385.325,79.6822 383.325,80.3489 381.5,81.5C 380.584,81.4573 379.917,81.1239 379.5,80.5C 382.292,80.3775 384.292,79.0442 385.5,76.5C 388.019,74.6409 388.019,72.6409 385.5,70.5C 384.848,67.014 382.848,65.8474 379.5,67C 377.281,68.6006 375.948,70.7672 375.5,73.5C 374.375,74.3478 374.375,75.3478 375.5,76.5C 375.167,76.5 374.833,76.5 374.5,76.5C 374.167,76.5 373.833,76.5 373.5,76.5C 373.5,74.8333 373.5,73.1667 373.5,71.5C 374.739,69.3245 376.406,67.4912 378.5,66C 381.167,65.3333 383.833,65.3333 386.5,66C 387.599,69.9261 388.933,73.7594 390.5,77.5C 392.5,77.5 394.5,77.5 396.5,77.5C 396.5,78.5 396.5,79.5 396.5,80.5 Z"/></g>
<g><path style="opacity:0.102" fill="#fbf3bf" d="M 383.5,70.5 C 384.167,70.5 384.833,70.5 385.5,70.5C 388.019,72.6409 388.019,74.6409 385.5,76.5C 385.414,75.5041 385.748,74.6708 386.5,74C 385.29,72.9609 384.29,71.7942 383.5,70.5 Z"/></g>
<g><path style="opacity:0.506" fill="#efd181" d="M 385.5,70.5 C 384.833,70.5 384.167,70.5 383.5,70.5C 383.189,69.5222 382.522,68.8555 381.5,68.5C 379.481,70.1897 377.481,71.8564 375.5,73.5C 375.948,70.7672 377.281,68.6006 379.5,67C 382.848,65.8474 384.848,67.014 385.5,70.5 Z"/></g>
<g><path style="opacity:0.196" fill="#9bbfd9" d="M 483.5,78.5 C 485.39,78.2965 486.89,78.9632 488,80.5C 488.667,82.8333 488.667,85.1667 488,87.5C 487.292,88.3805 486.458,89.0472 485.5,89.5C 488.665,84.9973 487.998,81.3306 483.5,78.5 Z"/></g>
<g><path style="opacity:0.817" fill="#6995c7" d="M 511.5,54.5 C 512.552,54.3505 513.552,54.5172 514.5,55C 520.199,64.7158 522.032,75.2158 520,86.5C 519.8,88.3197 518.966,89.653 517.5,90.5C 517.5,89.1667 517.5,87.8333 517.5,86.5C 520.204,74.8459 518.204,64.1792 511.5,54.5 Z"/></g>
<g><path style="opacity:0.165" fill="#f7e8a6" d="M 385.5,76.5 C 384.292,79.0442 382.292,80.3775 379.5,80.5C 379.5,79.8333 379.5,79.1667 379.5,78.5C 380.117,78.6107 380.617,78.944 381,79.5C 382.129,77.8588 383.629,76.8588 385.5,76.5 Z"/></g>
<g><path style="opacity:0.992" fill="#e8bc58" d="M 434.5,67.5 C 442.081,71.2839 442.414,75.7839 435.5,81C 434.251,81.7401 433.251,81.5735 432.5,80.5C 435.608,79.2273 437.941,77.0606 439.5,74C 438.015,71.683 436.348,69.5164 434.5,67.5 Z"/></g>
<g><path style="opacity:0.969" fill="#3775b6" d="M 484.5,100.5 C 484.185,97.7892 484.852,95.4559 486.5,93.5C 486.833,93.5 487.167,93.5 487.5,93.5C 490.167,92.8333 491.833,91.1667 492.5,88.5C 496.07,86.2242 496.403,83.5575 493.5,80.5C 493.5,80.1667 493.5,79.8333 493.5,79.5C 493.167,77.1667 491.833,75.8333 489.5,75.5C 489.586,74.5041 489.252,73.6708 488.5,73C 486.618,72.8019 484.952,72.3019 483.5,71.5C 486.206,71.4249 488.873,71.0916 491.5,70.5C 491.238,71.9778 491.571,73.3112 492.5,74.5C 494.54,76.177 496.54,77.8437 498.5,79.5C 496.953,83.7695 495.453,88.1028 494,92.5C 491.72,94.0367 489.22,95.2033 486.5,96C 485.901,97.6225 485.234,99.1225 484.5,100.5 Z"/></g>
<g><path style="opacity:1" fill="#51af94" d="M 171.5,79.5 C 171.369,86.2047 172.703,92.5381 175.5,98.5C 174.533,99.8062 173.199,100.473 171.5,100.5C 171.5,101.833 171.5,103.167 171.5,104.5C 168.167,104.5 166.5,106.167 166.5,109.5C 165.5,109.5 164.5,109.5 163.5,109.5C 163.031,112.643 161.364,114.977 158.5,116.5C 157.5,116.5 156.5,116.5 155.5,116.5C 155.938,111.581 156.105,106.581 156,101.5C 157.46,103.422 159.127,104.089 161,103.5C 161.667,97.8333 161.667,92.1667 161,86.5C 159.388,82.5341 157.721,82.5341 156,86.5C 155.506,84.8659 155.34,83.1992 155.5,81.5C 158.545,81.5079 161.545,81.8413 164.5,82.5C 164.5,81.5 164.5,80.5 164.5,79.5C 166.833,79.5 169.167,79.5 171.5,79.5 Z"/></g>
<g><path style="opacity:0.542" fill="#81afd4" d="M 493.5,80.5 C 496.403,83.5575 496.07,86.2242 492.5,88.5C 493.265,85.9039 493.599,83.2372 493.5,80.5 Z"/></g>
<g><path style="opacity:0.039" fill="#b1c3ec" d="M 205.5,82.5 C 206.694,83.2719 207.694,84.2719 208.5,85.5C 207.833,85.5 207.167,85.5 206.5,85.5C 206.167,84.1667 205.833,84.1667 205.5,85.5C 201.688,83.0689 201.688,82.0689 205.5,82.5 Z"/></g>
<g><path style="opacity:1" fill="#6980dd" d="M 248.5,76.5 C 248.833,76.5 249.167,76.5 249.5,76.5C 249.5,78.1667 249.5,79.8333 249.5,81.5C 246.008,82.4097 243.008,84.0764 240.5,86.5C 235.817,88.8364 231.151,91.1697 226.5,93.5C 222.342,91.3329 218.009,89.6662 213.5,88.5C 213.027,87.0937 212.027,86.427 210.5,86.5C 209.508,86.6716 208.842,86.3382 208.5,85.5C 207.694,84.2719 206.694,83.2719 205.5,82.5C 207.179,82.7148 208.179,82.0481 208.5,80.5C 214.035,83.7674 219.702,86.7674 225.5,89.5C 226.609,89.4431 227.609,89.1098 228.5,88.5C 234.795,84.6377 241.128,80.971 247.5,77.5C 248.167,77.5 248.5,77.1667 248.5,76.5 Z"/></g>
<g><path style="opacity:0.455" fill="#efc386" d="M 298.5,49.5 C 299.525,50.3739 300.192,51.5405 300.5,53C 298.381,64.6086 295.381,75.942 291.5,87C 288.765,86.8023 286.099,86.969 283.5,87.5C 282.253,89.0421 282.253,90.5421 283.5,92C 285.058,92.21 286.391,92.71 287.5,93.5C 285.167,93.5 282.833,93.5 280.5,93.5C 281.092,90.8728 281.425,88.2062 281.5,85.5C 284.5,85.5 287.5,85.5 290.5,85.5C 292.832,76.1781 295.165,66.8448 297.5,57.5C 298.15,55.5648 298.483,53.5648 298.5,51.5C 298.5,50.8333 298.5,50.1667 298.5,49.5 Z"/></g>
<g><path style="opacity:0.275" fill="#f4e09e" d="M 396.5,80.5 C 399.278,84.6133 402.944,87.6133 407.5,89.5C 411.519,86.4943 415.519,83.4943 419.5,80.5C 421.027,80.427 422.027,81.0937 422.5,82.5C 421.504,82.5858 420.671,82.2524 420,81.5C 418.296,83.3734 416.463,85.0401 414.5,86.5C 413.094,86.9731 412.427,87.9731 412.5,89.5C 410.983,91.1842 409.15,92.5175 407,93.5C 402.364,90.0314 398.197,86.0314 394.5,81.5C 392.814,82.8569 391.148,84.1902 389.5,85.5C 389.5,85.1667 389.5,84.8333 389.5,84.5C 390.855,81.4823 393.188,80.149 396.5,80.5 Z"/></g>
<g><path style="opacity:0.937" fill="#a1a37a" d="M 459.5,82.5 C 459.5,83.1667 459.5,83.8333 459.5,84.5C 459.59,87.1522 458.924,89.4855 457.5,91.5C 457.5,90.8333 457.5,90.1667 457.5,89.5C 457.927,86.9902 458.593,84.6568 459.5,82.5 Z"/></g>
<g><path style="opacity:1" fill="#5ea3ad" d="M 173.5,62.5 C 173.5,63.5 173.5,64.5 173.5,65.5C 173.5,65.8333 173.5,66.1667 173.5,66.5C 172.347,72.6529 172.18,78.9863 173,85.5C 173.976,89.7422 175.476,93.7422 177.5,97.5C 177.5,98.1667 177.5,98.8333 177.5,99.5C 176.508,99.6716 175.842,99.3382 175.5,98.5C 172.703,92.5381 171.369,86.2047 171.5,79.5C 171.5,78.8333 171.5,78.1667 171.5,77.5C 171.5,76.8333 171.5,76.1667 171.5,75.5C 171.5,75.1667 171.5,74.8333 171.5,74.5C 171.5,72.1667 171.5,69.8333 171.5,67.5C 171.5,66.8333 171.5,66.1667 171.5,65.5C 172.167,64.5 172.833,63.5 173.5,62.5 Z"/></g>
<g><path style="opacity:0.306" fill="#bdc9e6" d="M 210.5,86.5 C 212.027,86.427 213.027,87.0937 213.5,88.5C 211.973,88.573 210.973,87.9063 210.5,86.5 Z"/></g>
<g><path style="opacity:0.718" fill="#eacc75" d="M 389.5,84.5 C 389.5,84.8333 389.5,85.1667 389.5,85.5C 388.806,88.5806 390.139,90.9139 393.5,92.5C 395.452,93.7847 397.118,95.4514 398.5,97.5C 393.953,95.294 389.953,92.294 386.5,88.5C 386.088,86.0274 387.088,84.6941 389.5,84.5 Z"/></g>
<g><path style="opacity:0.024" fill="#fbedb0" d="M 389.5,85.5 C 390.833,87.8333 392.167,90.1667 393.5,92.5C 390.139,90.9139 388.806,88.5806 389.5,85.5 Z"/></g>
<g><path style="opacity:0.18" fill="#bde7df" d="M 101.5,87.5 C 103.749,88.0798 105.415,89.4131 106.5,91.5C 104.251,90.9202 102.585,89.5869 101.5,87.5 Z"/></g>
<g><path style="opacity:0.408" fill="#acbfe8" d="M 205.5,85.5 C 205.833,85.5 206.167,85.5 206.5,85.5C 207.6,86.6049 208.267,87.9382 208.5,89.5C 206.738,88.7377 205.738,87.4044 205.5,85.5 Z"/></g>
<g><path style="opacity:1" fill="#f5921c" d="M 322.5,88.5 C 321.18,89.9418 319.514,90.6085 317.5,90.5C 313.78,90.4358 310.114,89.9358 306.5,89C 305.577,86.9592 305.244,84.7925 305.5,82.5C 305.263,81.209 305.596,80.209 306.5,79.5C 307.741,77.0688 308.908,77.0688 310,79.5C 311.716,78.4477 312.716,79.1144 313,81.5C 313.689,80.6433 314.522,79.9767 315.5,79.5C 317.22,80.9549 319.22,81.7883 321.5,82C 322.423,84.0408 322.756,86.2075 322.5,88.5 Z"/></g>
<g><path style="opacity:0.008" fill="#fffef4" d="M 414.5,86.5 C 414.573,88.0269 413.906,89.0269 412.5,89.5C 412.427,87.9731 413.094,86.9731 414.5,86.5 Z"/></g>
<g><path style="opacity:1" fill="#847daf" d="M 249.5,83.5 C 249.833,83.5 250.167,83.5 250.5,83.5C 250.328,84.4916 250.662,85.1583 251.5,85.5C 251.5,86.8333 251.5,88.1667 251.5,89.5C 249.926,87.8984 249.259,85.8984 249.5,83.5 Z"/></g>
<g><path style="opacity:1" fill="#5e86d4" d="M 173.5,66.5 C 173.52,75.618 174.52,84.618 176.5,93.5C 177.5,93.5 178.5,93.5 179.5,93.5C 179.5,94.8333 179.5,96.1667 179.5,97.5C 178.833,97.5 178.167,97.5 177.5,97.5C 175.476,93.7422 173.976,89.7422 173,85.5C 172.18,78.9863 172.347,72.6529 173.5,66.5 Z"/></g>
<g><path style="opacity:0.149" fill="#a6c8e4" d="M 492.5,88.5 C 491.833,91.1667 490.167,92.8333 487.5,93.5C 488.833,91.5 490.5,89.8333 492.5,88.5 Z"/></g>
<g><path style="opacity:0.898" fill="#e49c41" d="M 305.5,82.5 C 305.244,84.7925 305.577,86.9592 306.5,89C 310.114,89.9358 313.78,90.4358 317.5,90.5C 314.038,91.4816 310.371,91.815 306.5,91.5C 305.791,90.596 304.791,90.2627 303.5,90.5C 303.294,87.5049 303.96,84.8383 305.5,82.5 Z"/></g>
<g><path style="opacity:0.584" fill="#86add0" d="M 530.5,88.5 C 530.833,88.5 531.167,88.5 531.5,88.5C 531.405,90.7857 530.738,92.7857 529.5,94.5C 529.325,92.3792 529.659,90.3792 530.5,88.5 Z"/></g>
<g><path style="opacity:0.537" fill="#b2dbd1" d="M 106.5,91.5 C 110.773,94.4335 114.773,97.7668 118.5,101.5C 121.167,104.833 124.167,107.833 127.5,110.5C 127.833,111.167 128.167,111.833 128.5,112.5C 120.555,106.224 113.222,99.2235 106.5,91.5 Z"/></g>
<g><path style="opacity:1" fill="#a9b7ef" d="M 240.5,86.5 C 239.354,88.6672 237.521,90.0005 235,90.5C 234.79,91.8029 234.957,93.1362 235.5,94.5C 235.444,95.737 234.944,96.737 234,97.5C 234.379,95.925 234.212,94.425 233.5,93C 230.967,93.6111 228.3,94.1111 225.5,94.5C 224.833,94.5 224.167,94.5 223.5,94.5C 219.799,92.9884 216.466,90.9884 213.5,88.5C 218.009,89.6662 222.342,91.3329 226.5,93.5C 231.151,91.1697 235.817,88.8364 240.5,86.5 Z"/></g>
<g><path style="opacity:0.404" fill="#f1cb94" d="M 320.5,78.5 C 326.591,82.4203 326.924,86.9203 321.5,92C 316.35,93.8912 311.35,93.7245 306.5,91.5C 310.371,91.815 314.038,91.4816 317.5,90.5C 319.514,90.6085 321.18,89.9418 322.5,88.5C 323.629,86.3718 323.796,84.0385 323,81.5C 321.583,80.9221 320.75,79.9221 320.5,78.5 Z"/></g>
<g><path style="opacity:0.961" fill="#e2c25e" d="M 419.5,80.5 C 420.708,79.218 422.042,79.218 423.5,80.5C 424.683,82.8303 426.017,84.997 427.5,87C 422.29,94.2188 416.29,100.885 409.5,107C 405.393,107.41 402.727,105.576 401.5,101.5C 402.962,102.458 404.295,103.624 405.5,105C 406.833,105.667 408.167,105.667 409.5,105C 415,99.5 420.5,94 426,88.5C 426.74,87.2506 426.573,86.2506 425.5,85.5C 423.856,85.1898 422.856,84.1898 422.5,82.5C 422.027,81.0937 421.027,80.427 419.5,80.5 Z"/></g>
<g><path style="opacity:1" fill="#9d8294" d="M 251.5,85.5 C 252.451,86.9187 252.784,88.5853 252.5,90.5C 252.833,91.8333 253.167,93.1667 253.5,94.5C 252.833,94.1667 252.167,93.8333 251.5,93.5C 251.5,92.1667 251.5,90.8333 251.5,89.5C 251.5,88.1667 251.5,86.8333 251.5,85.5 Z"/></g>
<g><path style="opacity:1" fill="#f19f1d" d="M 373.5,76.5 C 373.833,76.5 374.167,76.5 374.5,76.5C 373.775,84.4016 371.942,92.0683 369,99.5C 368.186,102.177 366.686,104.177 364.5,105.5C 366.656,97.5253 369.49,89.8586 373,82.5C 373.495,80.5273 373.662,78.5273 373.5,76.5 Z"/></g>
<g><path style="opacity:0.639" fill="#75a1c8" d="M 468.5,89.5 C 470.191,90.8637 471.858,92.197 473.5,93.5C 470.454,93.8174 468.787,92.4841 468.5,89.5 Z"/></g>
<g><path style="opacity:0.608" fill="#739ec8" d="M 517.5,86.5 C 517.5,87.8333 517.5,89.1667 517.5,90.5C 516.544,93.4386 514.877,95.772 512.5,97.5C 513.93,93.6456 515.597,89.9789 517.5,86.5 Z"/></g>
<g><path style="opacity:0.639" fill="#f5ce91" d="M 335.5,80.5 C 336.167,80.5 336.833,80.5 337.5,80.5C 338.896,85.734 338.229,90.734 335.5,95.5C 334.237,97.8075 332.237,99.1408 329.5,99.5C 335.893,94.6519 337.893,88.3185 335.5,80.5 Z"/></g>
<g><path style="opacity:1" fill="#e79934" d="M 280.5,93.5 C 282.833,93.5 285.167,93.5 287.5,93.5C 288.694,94.2719 289.694,95.2719 290.5,96.5C 286.793,96.3956 283.46,95.3956 280.5,93.5 Z"/></g>
<g><path style="opacity:0.835" fill="#e8b570" d="M 287.5,93.5 C 289.099,93.2322 290.432,93.5655 291.5,94.5C 293.148,96.4559 293.815,98.7892 293.5,101.5C 293.5,101.833 293.5,102.167 293.5,102.5C 292.833,102.833 292.167,103.167 291.5,103.5C 291.62,101.801 291.954,100.135 292.5,98.5C 292.253,97.2867 291.586,96.62 290.5,96.5C 289.694,95.2719 288.694,94.2719 287.5,93.5 Z"/></g>
<g><path style="opacity:0.882" fill="#648393" d="M 457.5,92.5 C 457.5,94.5 457.5,96.5 457.5,98.5C 456.833,98.1667 456.167,97.8333 455.5,97.5C 455.796,95.597 456.463,93.9303 457.5,92.5 Z"/></g>
<g><path style="opacity:0.251" fill="#f4d5a3" d="M 291.5,94.5 C 293.346,94.2222 294.68,94.8888 295.5,96.5C 294.972,98.3361 294.306,100.003 293.5,101.5C 293.815,98.7892 293.148,96.4559 291.5,94.5 Z"/></g>
<g><path style="opacity:0.314" fill="#f5e2a5" d="M 425.5,85.5 C 426.573,86.2506 426.74,87.2506 426,88.5C 420.5,94 415,99.5 409.5,105C 408.167,105.667 406.833,105.667 405.5,105C 404.295,103.624 402.962,102.458 401.5,101.5C 399.738,100.738 398.738,99.4044 398.5,97.5C 401.651,99.583 404.651,101.916 407.5,104.5C 414.247,98.7567 420.247,92.4234 425.5,85.5 Z"/></g>
<g><path style="opacity:1" fill="#bc8c70" d="M 252.5,90.5 C 253.117,90.6107 253.617,90.944 254,91.5C 254.44,93.8659 254.94,96.1992 255.5,98.5C 253.896,97.713 253.229,96.3797 253.5,94.5C 253.167,93.1667 252.833,91.8333 252.5,90.5 Z"/></g>
<g><path style="opacity:0.463" fill="#f6dfaf" d="M 305.5,104.5 C 306.416,99.0738 304.416,97.4071 299.5,99.5C 299.415,98.0047 300.081,97.0047 301.5,96.5C 307.65,96.9837 308.984,99.6504 305.5,104.5 Z"/></g>
<g><path style="opacity:0.471" fill="#8cb1d6" d="M 486.5,93.5 C 484.852,95.4559 484.185,97.7892 484.5,100.5C 484.167,100.5 483.833,100.5 483.5,100.5C 483.5,98.1667 483.5,95.8333 483.5,93.5C 484.5,93.5 485.5,93.5 486.5,93.5 Z"/></g>
<g><path style="opacity:0.118" fill="#b2d6ea" d="M 529.5,94.5 C 529.539,97.089 528.539,99.089 526.5,100.5C 526.992,98.1815 527.992,96.1815 529.5,94.5 Z"/></g>
<g><path style="opacity:0.173" fill="#85abcf" d="M 511.5,87.5 C 508.914,96.046 503.581,102.046 495.5,105.5C 495.833,104.833 496.167,104.167 496.5,103.5C 500.402,101.107 503.902,98.1074 507,94.5C 507.016,91.1176 508.516,88.7842 511.5,87.5 Z"/></g>
<g><path style="opacity:1" fill="#dcbc55" d="M 457.5,89.5 C 457.5,90.1667 457.5,90.8333 457.5,91.5C 457.5,91.8333 457.5,92.1667 457.5,92.5C 456.463,93.9303 455.796,95.597 455.5,97.5C 454.167,99.5 452.833,101.5 451.5,103.5C 451.5,103.833 451.5,104.167 451.5,104.5C 450.833,104.833 450.167,105.167 449.5,105.5C 451.736,99.9363 454.403,94.603 457.5,89.5 Z"/></g>
<g><path style="opacity:0.478" fill="#a1c1e0" d="M 457.5,99.5 C 459.404,99.7376 460.738,100.738 461.5,102.5C 459.596,102.262 458.262,101.262 457.5,99.5 Z"/></g>
<g><path style="opacity:0.22" fill="#98bad9" d="M 512.5,97.5 C 512.5,99.5 511.5,100.5 509.5,100.5C 510.167,99.1667 511.167,98.1667 512.5,97.5 Z"/></g>
<g><path style="opacity:0.431" fill="#f4d3a0" d="M 329.5,99.5 C 329.389,100.117 329.056,100.617 328.5,101C 322.74,100.878 317.407,101.711 312.5,103.5C 312.5,103.833 312.5,104.167 312.5,104.5C 311.833,105.167 311.167,105.833 310.5,106.5C 310.665,104.173 311.331,102.007 312.5,100C 318.154,100.827 323.821,100.661 329.5,99.5 Z"/></g>
<g><path style="opacity:1" fill="#bbc7f4" d="M 249.5,81.5 C 249.5,81.8333 249.5,82.1667 249.5,82.5C 241.369,92.0711 233.702,102.071 226.5,112.5C 226.167,112.833 225.833,113.167 225.5,113.5C 224.712,112.23 223.712,111.23 222.5,110.5C 219.524,107.904 217.524,104.57 216.5,100.5C 219.401,103.312 222.068,106.312 224.5,109.5C 224.81,110.738 225.31,110.738 226,109.5C 226.778,104.416 226.611,99.4158 225.5,94.5C 228.3,94.1111 230.967,93.6111 233.5,93C 234.212,94.425 234.379,95.925 234,97.5C 234.944,96.737 235.444,95.737 235.5,94.5C 234.957,93.1362 234.79,91.8029 235,90.5C 237.521,90.0005 239.354,88.6672 240.5,86.5C 243.008,84.0764 246.008,82.4097 249.5,81.5 Z"/></g>
<g><path style="opacity:1" fill="#e79936" d="M 335.5,95.5 C 335.256,98.2626 333.923,100.429 331.5,102C 325.086,102.207 318.753,102.707 312.5,103.5C 317.407,101.711 322.74,100.878 328.5,101C 329.056,100.617 329.389,100.117 329.5,99.5C 332.237,99.1408 334.237,97.8075 335.5,95.5 Z"/></g>
<g><path style="opacity:0.024" fill="#ebe6c7" d="M 455.5,97.5 C 456.167,97.8333 456.833,98.1667 457.5,98.5C 457.5,98.8333 457.5,99.1667 457.5,99.5C 456.1,100.1 455.1,101.1 454.5,102.5C 453.833,102.5 453.5,102.833 453.5,103.5C 452.833,103.5 452.167,103.5 451.5,103.5C 452.833,101.5 454.167,99.5 455.5,97.5 Z"/></g>
<g><path style="opacity:0.588" fill="#84b2df" d="M 474.5,93.5 C 475.833,93.5 477.167,93.5 478.5,93.5C 478.5,95.8333 478.5,98.1667 478.5,100.5C 480.167,100.5 481.833,100.5 483.5,100.5C 483.209,101.649 482.376,102.316 481,102.5C 480.167,102.333 479.333,102.167 478.5,102C 477.565,99.6194 477.232,97.1194 477.5,94.5C 476.209,94.7373 475.209,94.404 474.5,93.5 Z"/></g>
<g><path style="opacity:0.835" fill="#8999d6" d="M 177.5,97.5 C 178.167,97.5 178.833,97.5 179.5,97.5C 180.639,100.004 181.306,102.67 181.5,105.5C 179.937,104.055 178.604,102.389 177.5,100.5C 177.5,100.167 177.5,99.8333 177.5,99.5C 177.5,98.8333 177.5,98.1667 177.5,97.5 Z"/></g>
<g><path style="opacity:1" fill="#948893" d="M 255.5,100.5 C 256.167,100.833 256.833,101.167 257.5,101.5C 257.5,102.167 257.5,102.833 257.5,103.5C 256.094,103.027 255.427,102.027 255.5,100.5 Z"/></g>
<g><path style="opacity:1" fill="#ec942d" d="M 257.5,101.5 C 258.833,101.5 260.167,101.5 261.5,101.5C 261.5,102.833 261.5,104.167 261.5,105.5C 263.911,105.863 265.411,104.863 266,102.5C 265.842,105.179 265.342,107.846 264.5,110.5C 265.5,110.5 266.5,110.5 267.5,110.5C 267.553,116.879 270.887,119.879 277.5,119.5C 277.166,122.188 277.832,124.521 279.5,126.5C 278.833,126.5 278.167,126.5 277.5,126.5C 276.415,124.413 274.749,123.08 272.5,122.5C 269.061,117.941 265.394,113.608 261.5,109.5C 261.5,108.833 261.167,108.5 260.5,108.5C 259.662,108.158 259.328,107.492 259.5,106.5C 259.573,104.973 258.906,103.973 257.5,103.5C 257.5,102.833 257.5,102.167 257.5,101.5 Z"/></g>
<g><path style="opacity:1" fill="#e99834" d="M 290.5,96.5 C 291.586,96.62 292.253,97.2867 292.5,98.5C 291.954,100.135 291.62,101.801 291.5,103.5C 291.5,105.167 291.5,106.833 291.5,108.5C 293.833,108.5 296.167,108.5 298.5,108.5C 299.092,105.873 299.425,103.206 299.5,100.5C 299.5,100.167 299.5,99.8333 299.5,99.5C 304.416,97.4071 306.416,99.0738 305.5,104.5C 304.076,106.515 303.41,108.848 303.5,111.5C 305.833,111.5 308.167,111.5 310.5,111.5C 310.5,109.833 310.5,108.167 310.5,106.5C 311.167,105.833 311.833,105.167 312.5,104.5C 312.38,107.48 311.713,110.313 310.5,113C 307.854,113.497 305.187,113.664 302.5,113.5C 302.5,111.167 302.5,108.833 302.5,106.5C 301.5,106.5 300.5,106.5 299.5,106.5C 299.5,107.5 299.5,108.5 299.5,109.5C 296.223,109.784 293.057,109.451 290,108.5C 290.017,104.525 290.184,100.525 290.5,96.5 Z"/></g>
<g><path style="opacity:0.11" fill="#8cb1dc" d="M 509.5,100.5 C 508.998,103.669 507.331,106.002 504.5,107.5C 503.833,107.5 503.167,107.5 502.5,107.5C 505.053,105.403 507.386,103.07 509.5,100.5 Z"/></g>
<g><path style="opacity:0.275" fill="#a5c5e3" d="M 461.5,102.5 C 463.027,102.427 464.027,103.094 464.5,104.5C 462.973,104.573 461.973,103.906 461.5,102.5 Z"/></g>
<g><path style="opacity:0.071" fill="#86aed6" d="M 454.5,102.5 C 458.142,105.987 462.142,108.987 466.5,111.5C 461.162,110.384 456.828,107.717 453.5,103.5C 453.5,102.833 453.833,102.5 454.5,102.5 Z"/></g>
<g><path style="opacity:1" fill="#2f75c1" d="M 471.5,44.5 C 471.046,47.253 469.379,48.9197 466.5,49.5C 468.135,50.6808 469.802,50.6808 471.5,49.5C 473.061,53.4342 472.395,54.1009 469.5,51.5C 467.914,53.1727 467.247,55.1727 467.5,57.5C 468.833,57.5 470.167,57.5 471.5,57.5C 470.833,58.5 470.167,59.5 469.5,60.5C 469.5,61.1667 469.167,61.5 468.5,61.5C 467.028,63.1175 466.361,65.1175 466.5,67.5C 466.667,68.8333 466.833,70.1667 467,71.5C 467.383,72.056 467.883,72.3893 468.5,72.5C 468.532,74.5666 469.532,75.8999 471.5,76.5C 475.4,77.809 479.4,78.4757 483.5,78.5C 487.998,81.3306 488.665,84.9973 485.5,89.5C 482.167,90.8333 478.833,90.8333 475.5,89.5C 474.406,87.6406 473.573,85.6406 473,83.5C 470.936,82.4086 468.769,82.2419 466.5,83C 465.261,85.7016 465.927,87.8683 468.5,89.5C 468.787,92.4841 470.454,93.8174 473.5,93.5C 473.833,93.5 474.167,93.5 474.5,93.5C 475.209,94.404 476.209,94.7373 477.5,94.5C 477.232,97.1194 477.565,99.6194 478.5,102C 479.333,102.167 480.167,102.333 481,102.5C 482.376,102.316 483.209,101.649 483.5,100.5C 483.833,100.5 484.167,100.5 484.5,100.5C 484.343,101.873 484.51,103.207 485,104.5C 486.085,103.707 487.252,103.04 488.5,102.5C 490.884,104.722 493.551,105.056 496.5,103.5C 496.167,104.167 495.833,104.833 495.5,105.5C 494.486,106.674 493.153,107.34 491.5,107.5C 490.549,108.919 490.216,110.585 490.5,112.5C 488.348,111.923 488.015,110.756 489.5,109C 484.352,107.004 479.019,105.837 473.5,105.5C 473.665,108.518 473.498,111.518 473,114.5C 469.928,114.703 466.762,114.369 463.5,113.5C 460.466,113.723 458.133,115.056 456.5,117.5C 455.614,116.675 455.281,115.675 455.5,114.5C 454.5,114.5 453.5,114.5 452.5,114.5C 452.137,116.911 453.137,118.411 455.5,119C 461.812,119.398 467.645,121.231 473,124.5C 476.792,125.31 480.625,125.644 484.5,125.5C 479.36,126.488 474.026,126.821 468.5,126.5C 464.845,123.522 460.512,121.855 455.5,121.5C 452.81,118.815 449.81,116.482 446.5,114.5C 446.343,113.127 446.51,111.793 447,110.5C 449.127,108.886 450.627,106.886 451.5,104.5C 451.5,104.167 451.5,103.833 451.5,103.5C 452.167,103.5 452.833,103.5 453.5,103.5C 456.828,107.717 461.162,110.384 466.5,111.5C 467.919,112.451 469.585,112.784 471.5,112.5C 471.425,109.794 471.092,107.127 470.5,104.5C 468.5,104.5 466.5,104.5 464.5,104.5C 464.027,103.094 463.027,102.427 461.5,102.5C 460.738,100.738 459.404,99.7376 457.5,99.5C 457.5,99.1667 457.5,98.8333 457.5,98.5C 457.5,96.5 457.5,94.5 457.5,92.5C 457.5,92.1667 457.5,91.8333 457.5,91.5C 458.924,89.4855 459.59,87.1522 459.5,84.5C 460.222,84.0825 460.722,83.4158 461,82.5C 461.667,76.1667 461.667,69.8333 461,63.5C 460.722,62.5842 460.222,61.9175 459.5,61.5C 459.5,60.8333 459.5,60.1667 459.5,59.5C 458.833,57.1806 458.666,54.8473 459,52.5C 460.707,50.9625 462.207,49.2959 463.5,47.5C 463.973,46.0937 464.973,45.427 466.5,45.5C 468.292,45.634 469.958,45.3007 471.5,44.5 Z"/></g>
<g><path style="opacity:0.173" fill="#87afd7" d="M 475.5,89.5 C 474.504,89.5858 473.671,89.2524 473,88.5C 472.428,85.293 470.595,83.6263 467.5,83.5C 467.833,85.5 468.167,87.5 468.5,89.5C 465.927,87.8683 465.261,85.7016 466.5,83C 468.769,82.2419 470.936,82.4086 473,83.5C 473.573,85.6406 474.406,87.6406 475.5,89.5 Z"/></g>
<g><path style="opacity:1" fill="#6a82df" d="M 249.5,82.5 C 249.5,82.8333 249.5,83.1667 249.5,83.5C 249.259,85.8984 249.926,87.8984 251.5,89.5C 251.5,90.8333 251.5,92.1667 251.5,93.5C 250.069,92.2196 249.402,90.5529 249.5,88.5C 247.61,88.2965 246.11,88.9632 245,90.5C 245.515,95.9537 243.182,99.287 238,100.5C 235.303,105.871 231.803,110.704 227.5,115C 223.508,116.177 221.842,114.677 222.5,110.5C 223.712,111.23 224.712,112.23 225.5,113.5C 225.833,113.167 226.167,112.833 226.5,112.5C 233.702,102.071 241.369,92.0711 249.5,82.5 Z"/></g>
<g><path style="opacity:0.992" fill="#b48781" d="M 257.5,103.5 C 258.906,103.973 259.573,104.973 259.5,106.5C 258.094,106.027 257.427,105.027 257.5,103.5 Z"/></g>
<g><path style="opacity:1" fill="#56ac94" d="M 117.5,77.5 C 118.833,77.5 120.167,77.5 121.5,77.5C 126.066,78.8073 130.733,79.474 135.5,79.5C 136.209,80.404 137.209,80.7373 138.5,80.5C 138.5,89.8333 138.5,99.1667 138.5,108.5C 143.544,108.827 148.544,108.494 153.5,107.5C 154.473,98.2203 154.807,88.887 154.5,79.5C 160.217,79.2069 165.884,78.5402 171.5,77.5C 171.5,78.1667 171.5,78.8333 171.5,79.5C 169.167,79.5 166.833,79.5 164.5,79.5C 164.5,80.5 164.5,81.5 164.5,82.5C 161.545,81.8413 158.545,81.5079 155.5,81.5C 155.34,83.1992 155.506,84.8659 156,86.5C 157.721,82.5341 159.388,82.5341 161,86.5C 161.667,92.1667 161.667,97.8333 161,103.5C 159.127,104.089 157.46,103.422 156,101.5C 156.105,106.581 155.938,111.581 155.5,116.5C 156.5,116.5 157.5,116.5 158.5,116.5C 157.378,117.947 155.878,118.947 154,119.5C 151.836,121.48 150.336,123.813 149.5,126.5C 147.473,126.662 145.473,126.495 143.5,126C 142.211,124.198 140.544,123.031 138.5,122.5C 137.5,122.167 136.833,121.5 136.5,120.5C 134.833,116.833 132.167,114.167 128.5,112.5C 128.167,111.833 127.833,111.167 127.5,110.5C 129.821,110.658 131.654,111.658 133,113.5C 134.718,112.15 136.552,110.983 138.5,110C 136.84,101.629 136.173,93.1289 136.5,84.5C 132.989,83.9423 129.489,83.2757 126,82.5C 123.502,82.9172 121.002,83.2505 118.5,83.5C 118.33,82.1779 118.663,81.0113 119.5,80C 118.244,79.5831 117.577,78.7498 117.5,77.5 Z M 139.5,79.5 C 139.5,79.1667 139.5,78.8333 139.5,78.5C 143.833,78.5 148.167,78.5 152.5,78.5C 152.5,78.8333 152.5,79.1667 152.5,79.5C 152.5,88.5 152.5,97.5 152.5,106.5C 148.5,106.5 144.5,106.5 140.5,106.5C 140.827,97.3178 140.493,88.3178 139.5,79.5 Z"/></g>
<g><path style="opacity:0.153" fill="#79b2a3" d="M 135.5,79.5 C 136.833,79.5 138.167,79.5 139.5,79.5C 139.5,88.8333 139.5,98.1667 139.5,107.5C 144.032,107.818 148.366,107.485 152.5,106.5C 152.5,97.5 152.5,88.5 152.5,79.5C 153.167,79.5 153.833,79.5 154.5,79.5C 154.807,88.887 154.473,98.2203 153.5,107.5C 148.544,108.494 143.544,108.827 138.5,108.5C 138.5,99.1667 138.5,89.8333 138.5,80.5C 137.209,80.7373 136.209,80.404 135.5,79.5 Z"/></g>
<g><path style="opacity:0.031" fill="#d6f8f4" d="M 139.5,79.5 C 140.493,88.3178 140.827,97.3178 140.5,106.5C 144.5,106.5 148.5,106.5 152.5,106.5C 148.366,107.485 144.032,107.818 139.5,107.5C 139.5,98.1667 139.5,88.8333 139.5,79.5 Z"/></g>
<g><path style="opacity:1" fill="#627ce9" d="M 215.5,50.5 C 212.989,55.4296 210.656,60.4296 208.5,65.5C 208.5,65.8333 208.5,66.1667 208.5,66.5C 207.5,66.5 206.5,66.5 205.5,66.5C 204.552,69.1402 203.552,71.8069 202.5,74.5C 201.227,75.0768 201.227,75.7435 202.5,76.5C 204.565,77.8567 206.565,79.19 208.5,80.5C 208.179,82.0481 207.179,82.7148 205.5,82.5C 201.688,82.0689 201.688,83.0689 205.5,85.5C 205.738,87.4044 206.738,88.7377 208.5,89.5C 208.738,91.4044 209.738,92.7377 211.5,93.5C 211.427,95.0269 212.094,96.0269 213.5,96.5C 213.738,98.4044 214.738,99.7377 216.5,100.5C 217.524,104.57 219.524,107.904 222.5,110.5C 221.842,114.677 223.508,116.177 227.5,115C 231.803,110.704 235.303,105.871 238,100.5C 243.182,99.287 245.515,95.9537 245,90.5C 246.11,88.9632 247.61,88.2965 249.5,88.5C 249.402,90.5529 250.069,92.2196 251.5,93.5C 252.167,93.8333 252.833,94.1667 253.5,94.5C 253.229,96.3797 253.896,97.713 255.5,98.5C 255.5,99.1667 255.5,99.8333 255.5,100.5C 255.427,102.027 256.094,103.027 257.5,103.5C 257.427,105.027 258.094,106.027 259.5,106.5C 259.328,107.492 259.662,108.158 260.5,108.5C 260.579,109.93 260.246,111.264 259.5,112.5C 254.321,116.953 248.655,120.619 242.5,123.5C 232.599,125.254 222.599,125.92 212.5,125.5C 207.817,122.997 202.817,121.331 197.5,120.5C 196.341,118.75 194.674,117.75 192.5,117.5C 189.833,112.833 186.167,109.167 181.5,106.5C 181.5,106.167 181.5,105.833 181.5,105.5C 181.306,102.67 180.639,100.004 179.5,97.5C 179.5,96.1667 179.5,94.8333 179.5,93.5C 178.5,93.5 177.5,93.5 176.5,93.5C 174.52,84.618 173.52,75.618 173.5,66.5C 173.5,66.1667 173.5,65.8333 173.5,65.5C 174.345,64.3285 175.011,62.9952 175.5,61.5C 177.415,58.039 180.415,56.3723 184.5,56.5C 184.384,53.0897 186.05,51.7564 189.5,52.5C 189.5,53.8333 189.5,55.1667 189.5,56.5C 191.857,56.6633 194.19,56.4966 196.5,56C 195.034,54.4478 194.034,52.6145 193.5,50.5C 195.03,48.4796 195.697,46.4796 195.5,44.5C 200.833,43.1667 206.167,43.1667 211.5,44.5C 211.291,45.086 210.957,45.586 210.5,46C 212.367,46.7112 213.867,46.2112 215,44.5C 216.441,46.3049 216.608,48.3049 215.5,50.5 Z"/></g>
<g><path style="opacity:0.514" fill="#a5bae5" d="M 213.5,96.5 C 215.262,97.2623 216.262,98.5956 216.5,100.5C 214.738,99.7377 213.738,98.4044 213.5,96.5 Z"/></g>
<g><path style="opacity:0.439" fill="#aebbe7" d="M 211.5,93.5 C 212.906,93.9731 213.573,94.9731 213.5,96.5C 212.094,96.0269 211.427,95.0269 211.5,93.5 Z"/></g>
<g><path style="opacity:0.506" fill="#afbbe8" d="M 208.5,89.5 C 210.262,90.2623 211.262,91.5956 211.5,93.5C 209.738,92.7377 208.738,91.4044 208.5,89.5 Z"/></g>
<g><path style="opacity:0.024" fill="#d6d9f1" d="M 223.5,94.5 C 224.167,94.5 224.833,94.5 225.5,94.5C 226.611,99.4158 226.778,104.416 226,109.5C 225.31,110.738 224.81,110.738 224.5,109.5C 224.779,104.405 224.445,99.4053 223.5,94.5 Z"/></g>
<g><path style="opacity:0.353" fill="#efc685" d="M 299.5,100.5 C 299.425,103.206 299.092,105.873 298.5,108.5C 296.167,108.5 293.833,108.5 291.5,108.5C 291.5,106.833 291.5,105.167 291.5,103.5C 292.167,103.167 292.833,102.833 293.5,102.5C 293.67,103.822 293.337,104.989 292.5,106C 293.872,106.402 295.205,106.902 296.5,107.5C 297.359,105 298.359,102.667 299.5,100.5 Z"/></g>
<g><path style="opacity:0.937" fill="#728489" d="M 451.5,104.5 C 450.627,106.886 449.127,108.886 447,110.5C 446.51,111.793 446.343,113.127 446.5,114.5C 446.167,114.5 445.833,114.5 445.5,114.5C 445.167,114.5 444.833,114.5 444.5,114.5C 444.5,113.5 444.5,112.5 444.5,111.5C 446.137,109.525 447.804,107.525 449.5,105.5C 450.167,105.167 450.833,104.833 451.5,104.5 Z"/></g>
<g><path style="opacity:0.655" fill="#9ea8e0" d="M 181.5,106.5 C 186.167,109.167 189.833,112.833 192.5,117.5C 187.855,114.855 184.188,111.188 181.5,106.5 Z"/></g>
<g><path style="opacity:0.494" fill="#78a7d8" d="M 464.5,104.5 C 466.5,104.5 468.5,104.5 470.5,104.5C 471.092,107.127 471.425,109.794 471.5,112.5C 469.585,112.784 467.919,112.451 466.5,111.5C 467.5,111.5 468.5,111.5 469.5,111.5C 469.657,110.127 469.49,108.793 469,107.5C 467.348,106.601 465.848,105.601 464.5,104.5 Z"/></g>
<g><path style="opacity:0.647" fill="#f5cd90" d="M 305.5,104.5 C 305.714,106.144 305.38,107.644 304.5,109C 305.872,109.402 307.205,109.902 308.5,110.5C 309.172,109.051 309.839,107.718 310.5,106.5C 310.5,108.167 310.5,109.833 310.5,111.5C 308.167,111.5 305.833,111.5 303.5,111.5C 303.41,108.848 304.076,106.515 305.5,104.5 Z"/></g>
<g><path style="opacity:0.898" fill="#e1a450" d="M 364.5,107.5 C 363.89,108.391 363.557,109.391 363.5,110.5C 363.5,111.167 363.167,111.5 362.5,111.5C 360.544,113.114 358.544,114.781 356.5,116.5C 358.14,112.53 360.807,109.53 364.5,107.5 Z"/></g>
<g><path style="opacity:0.031" fill="#9ac0e4" d="M 524.5,103.5 C 521.201,111.465 515.535,117.132 507.5,120.5C 514.167,115.833 519.833,110.167 524.5,103.5 Z"/></g>
<g><path style="opacity:1" fill="#eabc4d" d="M 364.5,107.5 C 364.5,107.167 364.5,106.833 364.5,106.5C 367.225,107.713 369.559,109.546 371.5,112C 373.134,112.494 374.801,112.66 376.5,112.5C 376.615,114.947 377.615,116.947 379.5,118.5C 374.167,115.373 369.167,111.706 364.5,107.5 Z"/></g>
<g><path style="opacity:0.329" fill="#99c0e6" d="M 491.5,107.5 C 491.34,109.199 491.506,110.866 492,112.5C 492.671,111.748 493.504,111.414 494.5,111.5C 494.167,112.167 493.833,112.833 493.5,113.5C 492.833,113.5 492.167,113.5 491.5,113.5C 490.833,113.5 490.5,113.167 490.5,112.5C 490.216,110.585 490.549,108.919 491.5,107.5 Z"/></g>
<g><path style="opacity:0.82" fill="#5d8bbb" d="M 502.5,107.5 C 503.167,107.5 503.833,107.5 504.5,107.5C 501.612,110.78 497.945,112.78 493.5,113.5C 493.833,112.833 494.167,112.167 494.5,111.5C 497.128,110.186 499.795,108.853 502.5,107.5 Z"/></g>
<g><path style="opacity:0.039" fill="#f2dfa6" d="M 444.5,111.5 C 444.5,112.5 444.5,113.5 444.5,114.5C 443.205,115.488 441.872,116.488 440.5,117.5C 440.733,115.938 441.4,114.605 442.5,113.5C 443.167,112.833 443.833,112.167 444.5,111.5 Z"/></g>
<g><path style="opacity:0.537" fill="#e9c460" d="M 442.5,113.5 C 441.4,114.605 440.733,115.938 440.5,117.5C 438.784,117.629 437.117,117.962 435.5,118.5C 437.15,115.939 439.484,114.273 442.5,113.5 Z"/></g>
<g><path style="opacity:0.11" fill="#a0cfc2" d="M 128.5,112.5 C 132.167,114.167 134.833,116.833 136.5,120.5C 132.948,118.737 130.281,116.07 128.5,112.5 Z"/></g>
<g><path style="opacity:0.329" fill="#f1cb8e" d="M 261.5,109.5 C 265.394,113.608 269.061,117.941 272.5,122.5C 268.203,119.871 264.537,116.537 261.5,112.5C 261.5,111.5 261.5,110.5 261.5,109.5 Z"/></g>
<g><path style="opacity:0.047" fill="#f7e7a9" d="M 440.5,117.5 C 438.819,119.008 436.819,120.008 434.5,120.5C 434.833,119.833 435.167,119.167 435.5,118.5C 437.117,117.962 438.784,117.629 440.5,117.5 Z"/></g>
<g><path style="opacity:0.118" fill="#aebbe8" d="M 192.5,117.5 C 194.674,117.75 196.341,118.75 197.5,120.5C 195.326,120.25 193.659,119.25 192.5,117.5 Z"/></g>
<g><path style="opacity:0.024" fill="#95a1d9" d="M 260.5,108.5 C 261.167,108.5 261.5,108.833 261.5,109.5C 261.5,110.5 261.5,111.5 261.5,112.5C 256.63,118.695 250.296,122.695 242.5,124.5C 242.5,124.167 242.5,123.833 242.5,123.5C 248.655,120.619 254.321,116.953 259.5,112.5C 260.246,111.264 260.579,109.93 260.5,108.5 Z"/></g>
<g><path style="opacity:0.039" fill="#f7e3a6" d="M 364.5,107.5 C 369.167,111.706 374.167,115.373 379.5,118.5C 381.216,120.025 383.216,121.025 385.5,121.5C 386.167,122.5 386.833,123.5 387.5,124.5C 378.561,121.74 371.061,116.74 365,109.5C 364.617,110.056 364.117,110.389 363.5,110.5C 363.557,109.391 363.89,108.391 364.5,107.5 Z"/></g>
<g><path style="opacity:0.275" fill="#92bbdb" d="M 445.5,114.5 C 445.833,114.5 446.167,114.5 446.5,114.5C 449.81,116.482 452.81,118.815 455.5,121.5C 451.458,120.149 448.125,117.815 445.5,114.5 Z"/></g>
<g><path style="opacity:1" fill="#2774c9" d="M 490.5,112.5 C 490.5,113.167 490.833,113.5 491.5,113.5C 493.1,114.682 493.433,116.015 492.5,117.5C 495.446,118.655 498.446,118.821 501.5,118C 499.602,117.1 497.936,115.934 496.5,114.5C 497.651,113.269 498.817,113.269 500,114.5C 501,113.833 502,113.167 503,112.5C 503.309,114.807 504.142,116.974 505.5,119C 500.813,120.607 496.147,122.107 491.5,123.5C 489.547,122.844 487.547,122.511 485.5,122.5C 485.5,123.5 485.5,124.5 485.5,125.5C 485.167,125.5 484.833,125.5 484.5,125.5C 480.625,125.644 476.792,125.31 473,124.5C 467.645,121.231 461.812,119.398 455.5,119C 453.137,118.411 452.137,116.911 452.5,114.5C 453.5,114.5 454.5,114.5 455.5,114.5C 455.281,115.675 455.614,116.675 456.5,117.5C 458.133,115.056 460.466,113.723 463.5,113.5C 466.762,114.369 469.928,114.703 473,114.5C 473.498,111.518 473.665,108.518 473.5,105.5C 479.019,105.837 484.352,107.004 489.5,109C 488.015,110.756 488.348,111.923 490.5,112.5 Z"/></g>
<g><path style="opacity:0.725" fill="#8ec5b7" d="M 175.5,98.5 C 175.842,99.3382 176.508,99.6716 177.5,99.5C 177.5,99.8333 177.5,100.167 177.5,100.5C 168.468,109.534 159.134,118.201 149.5,126.5C 150.336,123.813 151.836,121.48 154,119.5C 155.878,118.947 157.378,117.947 158.5,116.5C 161.364,114.977 163.031,112.643 163.5,109.5C 164.5,109.5 165.5,109.5 166.5,109.5C 166.5,106.167 168.167,104.5 171.5,104.5C 171.5,103.167 171.5,101.833 171.5,100.5C 173.199,100.473 174.533,99.8062 175.5,98.5 Z"/></g>
<g><path style="opacity:1" fill="#8c97db" d="M 197.5,120.5 C 202.817,121.331 207.817,122.997 212.5,125.5C 212.5,125.833 212.5,126.167 212.5,126.5C 206.975,125.662 201.975,123.662 197.5,120.5 Z"/></g>
<g><path style="opacity:0.157" fill="#f3d09b" d="M 362.5,111.5 C 356.262,120.786 347.928,127.452 337.5,131.5C 344.274,127.253 350.607,122.253 356.5,116.5C 358.544,114.781 360.544,113.114 362.5,111.5 Z"/></g>
<g><path style="opacity:0.337" fill="#f7e4ae" d="M 434.5,120.5 C 431.643,123.001 428.309,124.668 424.5,125.5C 424.833,124.833 425.167,124.167 425.5,123.5C 428.342,121.983 431.342,120.983 434.5,120.5 Z"/></g>
<g><path style="opacity:0.514" fill="#f7d5a2" d="M 272.5,122.5 C 274.749,123.08 276.415,124.413 277.5,126.5C 275.251,125.92 273.585,124.587 272.5,122.5 Z"/></g>
<g><path style="opacity:0.976" fill="#6e98c8" d="M 455.5,121.5 C 460.512,121.855 464.845,123.522 468.5,126.5C 463.728,125.801 459.395,124.134 455.5,121.5 Z"/></g>
<g><path style="opacity:0.898" fill="#7788d2" d="M 242.5,123.5 C 242.5,123.833 242.5,124.167 242.5,124.5C 240.447,124.402 238.78,125.069 237.5,126.5C 237.167,126.5 236.833,126.5 236.5,126.5C 230.171,126.9 223.838,127.233 217.5,127.5C 215.585,127.784 213.919,127.451 212.5,126.5C 212.5,126.167 212.5,125.833 212.5,125.5C 222.599,125.92 232.599,125.254 242.5,123.5 Z"/></g>
<g><path style="opacity:0.047" fill="#dce6f9" d="M 242.5,124.5 C 241.22,125.931 239.553,126.598 237.5,126.5C 238.78,125.069 240.447,124.402 242.5,124.5 Z"/></g>
<g><path style="opacity:0.016" fill="#fff9d5" d="M 387.5,124.5 C 389.786,124.595 391.786,125.262 393.5,126.5C 391.102,126.741 389.102,126.074 387.5,124.5 Z"/></g>
<g><path style="opacity:0.992" fill="#e4be55" d="M 385.5,121.5 C 395.668,125.397 406.334,126.564 417.5,125C 419.937,123.625 422.603,123.125 425.5,123.5C 425.167,124.167 424.833,124.833 424.5,125.5C 418.854,126.274 413.187,126.941 407.5,127.5C 402.841,127.001 398.174,126.667 393.5,126.5C 391.786,125.262 389.786,124.595 387.5,124.5C 386.833,123.5 386.167,122.5 385.5,121.5 Z"/></g>
<g><path style="opacity:0.937" fill="#98cbbb" d="M 138.5,122.5 C 140.544,123.031 142.211,124.198 143.5,126C 145.473,126.495 147.473,126.662 149.5,126.5C 148.647,128.926 146.981,129.76 144.5,129C 142.294,126.963 140.294,124.797 138.5,122.5 Z"/></g>
<g><path style="opacity:0.712" fill="#7ba2cb" d="M 501.5,123.5 C 492.757,127.877 483.424,129.377 473.5,128C 471.618,127.802 469.952,127.302 468.5,126.5C 474.026,126.821 479.36,126.488 484.5,125.5C 484.833,125.5 485.167,125.5 485.5,125.5C 490.816,124.704 496.149,124.037 501.5,123.5 Z"/></g>
<g><path style="opacity:0.125" fill="#ccd7f4" d="M 236.5,126.5 C 230.232,128.521 223.899,128.854 217.5,127.5C 223.838,127.233 230.171,126.9 236.5,126.5 Z"/></g>
<g><path style="opacity:0.102" fill="#fdedca" d="M 277.5,126.5 C 278.167,126.5 278.833,126.5 279.5,126.5C 279.833,127.167 280.167,127.833 280.5,128.5C 278.973,128.573 277.973,127.906 277.5,126.5 Z"/></g>
<g><path style="opacity:0.153" fill="#fcefbd" d="M 424.5,125.5 C 419.207,127.865 413.54,128.865 407.5,128.5C 402.576,128.646 397.909,127.979 393.5,126.5C 398.174,126.667 402.841,127.001 407.5,127.5C 413.187,126.941 418.854,126.274 424.5,125.5 Z"/></g>
<g><path style="opacity:0.376" fill="#f0c484" d="M 279.5,126.5 C 283.072,127.776 286.072,129.776 288.5,132.5C 285.279,132.104 282.612,130.771 280.5,128.5C 280.167,127.833 279.833,127.167 279.5,126.5 Z"/></g>
<g><path style="opacity:0.337" fill="#f3d5a0" d="M 288.5,132.5 C 289.833,132.5 291.167,132.5 292.5,132.5C 293.167,133.167 293.833,133.833 294.5,134.5C 292.102,134.741 290.102,134.074 288.5,132.5 Z"/></g>
<g><path style="opacity:0.975" fill="#e5993b" d="M 292.5,132.5 C 303.774,134.696 315.108,135.029 326.5,133.5C 321.577,134.954 316.411,135.621 311,135.5C 305.489,135.254 299.989,134.921 294.5,134.5C 293.833,133.833 293.167,133.167 292.5,132.5 Z"/></g>
<g><path style="opacity:0.527" fill="#f2c78b" d="M 337.5,131.5 C 326.877,136.853 315.544,138.686 303.5,137C 300.258,136.594 297.258,135.761 294.5,134.5C 299.989,134.921 305.489,135.254 311,135.5C 316.411,135.621 321.577,134.954 326.5,133.5C 329.966,131.908 333.633,131.242 337.5,131.5 Z"/></g>
</svg>
