<?xml version="1.0" encoding="UTF-8"?>
<svg version="1.1" xmlns="http://www.w3.org/2000/svg" width="512" height="512">
<path d="M0 0 C1.6035321 1.37258149 3.18688096 2.76906636 4.75 4.1875 C5.99716797 5.29544922 5.99716797 5.29544922 7.26953125 6.42578125 C22.61535131 20.82869378 30.51882437 39.43618587 31.96484375 60.28515625 C32.52593527 78.39719047 27.39229632 93.9863935 17.75 109.1875 C16.76 110.8375 15.77 112.4875 14.75 114.1875 C21.68 121.1175 28.61 128.0475 35.75 135.1875 C39.71 132.2175 39.71 132.2175 43.75 129.1875 C45.60537444 127.86779797 47.47797081 126.57159017 49.375 125.3125 C50.25414062 124.71695313 51.13328125 124.12140625 52.0390625 123.5078125 C55.22703828 121.95516724 57.24449952 121.7931913 60.75 122.1875 C63.6875 124.1875 63.6875 124.1875 65.75 127.1875 C65.76572153 130.31922788 65.74345772 132.30807783 64.75 135.1875 C62.61327475 137.20071512 60.9591305 138.46794418 58.5 139.9375 C57.21263439 140.78439452 55.93018776 141.63880592 54.65234375 142.5 C53.99991699 142.93828125 53.34749023 143.3765625 52.67529297 143.828125 C27.5242838 161.5862811 12.92988092 191.14093971 7.0625 220.64453125 C1.97434349 251.56214895 9.00034324 285.24093331 27.30078125 310.84765625 C31.7901905 316.88648507 36.67942013 322.63001014 41.75 328.1875 C41.92015625 327.00414062 42.0903125 325.82078125 42.265625 324.6015625 C44.41350222 310.30910342 47.17354347 298.51056369 58.63671875 288.72265625 C63.95176129 285.05450844 70.15428427 283.38629179 76.25 281.4375 C77.44753906 281.03917969 78.64507812 280.64085937 79.87890625 280.23046875 C85.52854519 278.3847949 90.83395645 276.91537068 96.75 276.1875 C96.79671248 272.90449685 96.79671248 272.90449685 95.75 269.1875 C94.15181933 267.78909191 92.54050086 266.401812 90.85546875 265.109375 C81.89148082 256.92703351 74.44569164 243.70385425 73.55673218 231.54379272 C73.47021829 228.50017128 73.44660477 225.46282172 73.44921875 222.41796875 C73.44493362 221.3011824 73.4406485 220.18439606 73.43623352 219.0337677 C73.43051152 216.67966385 73.42997418 214.32554233 73.43432617 211.97143555 C73.43748088 208.39666098 73.41401718 204.82271905 73.38867188 201.24804688 C73.38639794 198.95052187 73.38569582 196.65299466 73.38671875 194.35546875 C73.377509 193.2999028 73.36829926 192.24433685 73.35881042 191.15678406 C73.42010175 181.17481961 74.95168689 172.01960454 81.51953125 164.19140625 C84.92580092 161.13113245 88.72094392 159.32508075 92.8828125 157.4765625 C97.26042969 155.50842398 101.05617292 152.98380319 104.9375 150.1875 C116.38605313 142.6918675 130.2939732 142.53785046 143.51171875 144.84375 C159.05009116 149.19224505 171.27549791 158.71368695 179.59375 172.47265625 C182.80906226 180.02212254 183.06850224 187.73106685 183.0859375 195.8359375 C183.0925943 196.92911285 183.0992511 198.02228821 183.10610962 199.14859009 C183.11618614 201.44962901 183.1209282 203.75069685 183.12060547 206.05175781 C183.12497862 209.54541775 183.16135351 213.03781294 183.19921875 216.53125 C183.20508818 218.77864156 183.20905673 221.02603906 183.2109375 223.2734375 C183.22530853 224.30399261 183.23967957 225.33454773 183.25448608 226.39633179 C183.1781301 238.6958938 178.32640883 249.2554332 170.8125 258.8125 C170.38259766 259.37195313 169.95269531 259.93140625 169.50976562 260.5078125 C167.10414577 263.60335975 164.68941387 266.58456332 161.75 269.1875 C161.09 269.1875 160.43 269.1875 159.75 269.1875 C159.75 271.4975 159.75 273.8075 159.75 276.1875 C160.33193115 276.28909424 160.9138623 276.39068848 161.51342773 276.49536133 C168.46144761 277.78739649 175.09890591 279.68237325 181.8125 281.875 C182.83666016 282.18888672 183.86082031 282.50277344 184.91601562 282.82617188 C196.98835491 286.76800278 204.05658194 293.32731806 209.93359375 304.421875 C213.39429688 311.97710967 213.97887896 320.00955847 214.75 328.1875 C238.39068147 303.99352599 251.3609101 272.27217851 251.10351562 238.42480469 C250.2831963 204.77999357 235.9488747 173.47183528 211.75 150.1875 C187.65239843 128.06909625 155.76118568 117.19903882 123.203125 117.92578125 C113.87679322 118.33772909 104.45298642 119.92434727 95.4296875 122.296875 C91.37265354 123.27883226 88.76780009 123.29042551 84.75 122.1875 C82.19921042 119.96584456 81.81667329 118.57920557 81.25 115.25 C81.93687573 111.04288616 83.46993941 109.87235377 86.75 107.1875 C89.4813876 106.09078513 92.24203751 105.50199615 95.125 104.9375 C95.85460937 104.77765625 96.58421875 104.6178125 97.3359375 104.453125 C105.56014596 102.69079462 113.34518054 102.0837368 121.75 102.1875 C121.75 95.9175 121.75 89.6475 121.75 83.1875 C120.14125 82.81625 118.5325 82.445 116.875 82.0625 C105.02751303 78.79265443 96.0684842 71.65546936 89.4375 61.375 C82.85320274 49.56991118 81.74273591 36.32178061 85.375 23.3125 C88.16943154 15.27480646 92.43078284 8.89020817 98.75 3.1875 C99.26175781 2.69507812 99.77351562 2.20265625 100.30078125 1.6953125 C109.02496624 -6.36703777 120.30984056 -9.37193126 132.05078125 -9.05859375 C144.74792059 -7.90096744 156.39714428 -3.21824988 164.84765625 6.6328125 C173.93923332 19.03206076 176.61374445 29.9384844 175.75 45.1875 C173.82579776 56.38423588 167.50558814 66.83004641 158.6171875 73.87890625 C152.47073002 78.15144376 146.01782717 81.37054321 138.75 83.1875 C138.42 89.4575 138.09 95.7275 137.75 102.1875 C140.39 102.1875 143.03 102.1875 145.75 102.1875 C173.86256966 105.29747047 199.73556565 117.5080028 220.75 136.1875 C224.41752005 134.6483199 226.73580573 132.43264548 229.515625 129.6171875 C230.40507812 128.72128906 231.29453125 127.82539063 232.2109375 126.90234375 C233.13132812 125.96519531 234.05171875 125.02804688 235 124.0625 C235.94484856 123.10761363 236.89015633 122.15318141 237.8359375 121.19921875 C240.14518338 118.86640913 242.44963203 116.52905914 244.75 114.1875 C244.03880005 113.08015503 244.03880005 113.08015503 243.31323242 111.95043945 C242.68779541 110.97292725 242.0623584 109.99541504 241.41796875 108.98828125 C240.79946045 108.02317627 240.18095215 107.05807129 239.54370117 106.0637207 C233.02472837 95.61047195 228.29061301 83.62159915 227.75 71.1875 C227.6984375 70.1871875 227.646875 69.186875 227.59375 68.15625 C226.99265712 45.91581348 234.050988 25.93118932 249.375 9.59765625 C264.38988864 -5.63949225 281.33204444 -14.70714435 302.99804688 -15.10546875 C325.02303121 -15.24303892 344.18476197 -9.96984257 360.75 5.1875 C361.43191406 5.77789063 362.11382812 6.36828125 362.81640625 6.9765625 C372.13256056 15.54523672 378.7288406 27.28171433 382.75 39.1875 C383.06839844 40.10917969 383.38679688 41.03085937 383.71484375 41.98046875 C389.49077406 62.12968187 386.48208139 84.64023107 376.73046875 102.9375 C373.55408416 108.15002856 369.85930428 112.68749786 365.75 117.1875 C365.06292969 117.96738281 364.37585938 118.74726563 363.66796875 119.55078125 C349.61222685 134.64962088 330.19622836 142.19997764 309.8515625 143.3515625 C290.57152745 143.87521777 272.71826572 138.44840788 257.75 126.1875 C251.75981979 129.71569676 247.21675194 134.49536086 242.375 139.4375 C241.54355469 140.27796875 240.71210938 141.1184375 239.85546875 141.984375 C237.81568453 144.04760502 235.78073714 146.11537123 233.75 148.1875 C234.14251953 148.70916748 234.53503906 149.23083496 234.93945312 149.76831055 C253.83033713 174.9088321 265.79747449 201.5565867 267.75 233.1875 C274.35 233.1875 280.95 233.1875 287.75 233.1875 C288.100625 231.599375 288.45125 230.01125 288.8125 228.375 C291.87231592 217.33983054 298.52077669 208.86424525 307.75 202.1875 C319.79343688 195.41203138 333.65442675 192.64173841 347.1875 196.375 C359.37171466 200.74986902 369.40753068 208.39721845 375.19921875 220.12109375 C377.51499681 225.436103 379.41939737 230.34685359 379.75 236.1875 C379.80027344 236.82429687 379.85054688 237.46109375 379.90234375 238.1171875 C380.51026735 251.39423885 376.30032231 262.37331882 367.8671875 272.43359375 C359.48834541 281.4060785 349.3488061 286.52392654 337.10546875 287.46875 C322.89127679 287.81438385 311.81711308 284.65333757 301.234375 274.859375 C294.12631601 267.3747301 290.57019624 260.05818683 287.75 250.1875 C281.15 249.8575 274.55 249.5275 267.75 249.1875 C267.4096875 253.0546875 267.4096875 253.0546875 267.0625 257 C264.23604046 283.72645277 253.75397111 308.82032103 236.18359375 329.19921875 C234.45757483 331.18453483 234.45757483 331.18453483 234.75 334.1875 C236.82469843 336.68063448 236.82469843 336.68063448 239.5625 339.29296875 C240.05081299 339.7770369 240.53912598 340.26110504 241.04223633 340.75984192 C242.60459826 342.3054014 244.17706327 343.84021107 245.75 345.375 C246.81057762 346.42053282 247.87048229 347.46674873 248.9296875 348.51367188 C251.52869434 351.07958902 254.1368639 353.63596467 256.75 356.1875 C257.47880371 355.7140918 258.20760742 355.24068359 258.95849609 354.75292969 C259.92867676 354.12805664 260.89885742 353.50318359 261.8984375 352.859375 C263.33195557 351.9327002 263.33195557 351.9327002 264.79443359 350.98730469 C282.31080245 340.32063764 301.63980351 337.12852761 321.75 340.5 C322.46824951 340.61754639 323.18649902 340.73509277 323.92651367 340.85620117 C328.08846478 341.6231214 331.35001852 342.63751389 334.75 345.1875 C336.25 348 336.25 348 336.75 351.1875 C334.65697674 356.73401163 334.65697674 356.73401163 331.75 358.1875 C327.12595984 358.43972037 323.09518611 358.1218695 318.5625 357.1875 C303.2739655 354.28939868 287.03187588 356.80505735 273.75 365.1875 C270.59859122 367.36322427 267.65068839 369.68877967 264.75 372.1875 C264.14414062 372.69796875 263.53828125 373.2084375 262.9140625 373.734375 C251.48676736 384.179233 245.60905411 399.27340524 244.51171875 414.4921875 C244.14497913 432.13429336 248.82163676 447.51535011 260.5625 461.0625 C272.54955253 473.52034311 287.06031164 480.07997324 304.1953125 481.1484375 C323.33119406 481.35872191 338.58724158 474.88121304 352.4375 462 C364.01936812 449.89923098 369.90124465 434.881128 369.75 418.1875 C368.82112116 401.55061648 363.88688225 387.81143017 352.3125 375.5 C350.06335774 372.93041543 349.73892195 372.12908845 349.0625 368.5625 C349.94701572 364.22033192 351.09281384 362.67749909 354.75 360.1875 C358.51360655 359.83244278 360.64537945 360.36679798 363.6953125 362.6328125 C376.90511391 375.01376363 385.34696579 393.63054786 386.0859375 411.75390625 C386.45025806 435.64066329 381.10849463 456.18501766 364.19873047 473.73095703 C348.31493063 489.70041268 329.20695288 497.46376946 306.75 497.6875 C285.63898441 497.47717855 266.50027138 490.62149746 251.25830078 475.73535156 C239.47866509 463.64682934 231.93506719 449.85177152 228.75 433.1875 C228.523125 432.07375 228.29625 430.96 228.0625 429.8125 C225.99496479 405.82909155 231.96495879 388.27827905 244.75 368.1875 C237.16 360.5975 229.57 353.0075 221.75 345.1875 C216.34207299 349.24000943 216.34207299 349.24000943 210.94921875 353.3125 C204.8149914 357.89170549 198.59300021 361.76133209 191.75 365.1875 C190.75355469 365.69152344 189.75710938 366.19554687 188.73046875 366.71484375 C172.71339503 374.47650833 155.48551023 378.82322998 137.75 380.1875 C138.08 386.4575 138.41 392.7275 138.75 399.1875 C141.3796875 399.93 141.3796875 399.93 144.0625 400.6875 C156.09958045 404.71878638 165.655995 412.99082095 171.5625 424.1875 C177.21678705 436.4818544 177.49074054 449.44777965 173.0078125 462.25390625 C168.14228842 473.60175899 159.09248568 483.17933232 147.75 488.1875 C132.59036942 492.75780956 119.5571705 492.2656608 105.51171875 484.8203125 C95.01663586 478.61529885 88.48854172 468.9923439 84.5 457.625 C81.79685178 445.09222188 83.55742999 431.94654299 90.0625 420.875 C90.93084479 419.62626248 91.82752228 418.39679852 92.75 417.1875 C93.24113281 416.52234375 93.73226562 415.8571875 94.23828125 415.171875 C101.50692112 406.08173827 110.55779163 401.65850704 121.75 399.1875 C121.75 392.9175 121.75 386.6475 121.75 380.1875 C119.914375 380.084375 118.07875 379.98125 116.1875 379.875 C87.79298608 377.58265496 62.21501517 366.35921567 39.75 349.1875 C38.41740329 348.18651859 37.08421052 347.18632935 35.75 346.1875 C32.99161693 348.88740463 30.24487433 351.59886814 27.5 354.3125 C26.33404297 355.45332031 26.33404297 355.45332031 25.14453125 356.6171875 C21.14688642 360.58066443 17.63031451 364.34051913 14.75 369.1875 C15.40355469 370.04408203 15.40355469 370.04408203 16.0703125 370.91796875 C29.16647605 388.74802692 34.05923962 409.50346429 31.03173828 431.35302734 C27.85184291 451.18565139 17.32851468 469.24924916 1.11914062 481.41113281 C-18.78534422 495.47921786 -40.66894231 500.545006 -64.859375 496.53125 C-78.26048353 493.77005003 -90.16508066 487.35712138 -100.25 478.1875 C-101.51457031 477.04474609 -101.51457031 477.04474609 -102.8046875 475.87890625 C-116.87483794 462.51440165 -125.79334521 445.05304429 -126.5859375 425.5234375 C-126.92410918 403.42465366 -122.56713444 382.99512164 -107.25 366.1875 C-106.53457031 365.38054687 -105.81914063 364.57359375 -105.08203125 363.7421875 C-90.44057554 348.12145008 -71.94641363 340.68095456 -50.87109375 338.90234375 C-32.91890769 338.38557244 -17.29622211 343.64344923 -2.25 353.1875 C0.225 354.6725 0.225 354.6725 2.75 356.1875 C9.68 349.2575 16.61 342.3275 23.75 335.1875 C21.9483815 331.584263 20.30895789 329.41495835 17.6875 326.4375 C0.7916841 306.06473163 -11.50389765 275.93731652 -10.25 249.1875 C-16.19 249.5175 -22.13 249.8475 -28.25 250.1875 C-28.745 251.940625 -29.24 253.69375 -29.75 255.5 C-33.80973466 267.55145009 -41.97896588 277.04682 -53.37890625 282.75390625 C-64.95651299 287.74009026 -77.84711112 289.47009655 -89.98046875 285.1640625 C-102.60313414 279.732623 -111.53135404 271.81969317 -117.0625 259.125 C-118.76178292 254.77331073 -119.98900478 250.88541395 -120.25 246.1875 C-120.30027344 245.465625 -120.35054688 244.74375 -120.40234375 244 C-120.95997286 230.08157735 -116.23378636 218.62187939 -107.25 208.1875 C-100.89055923 202.73219697 -94.24385544 198.70962551 -86.25 196.1875 C-85.651875 195.99542969 -85.05375 195.80335938 -84.4375 195.60546875 C-72.48395629 193.32148808 -60.07750618 195.12017618 -49.625 201.25 C-38.08472918 209.09738415 -32.02211163 218.98510929 -28.25 232.1875 C-19.835 232.6825 -19.835 232.6825 -11.25 233.1875 C-11.0025 230.5475 -10.755 227.9075 -10.5 225.1875 C-7.78055788 199.59959857 1.91520658 175.49401458 17.75 155.1875 C19.73 152.5475 21.71 149.9075 23.75 147.1875 C16.82 140.2575 9.89 133.3275 2.75 126.1875 C-0.88 128.4975 -4.51 130.8075 -8.25 133.1875 C-28.14703434 143.741919 -49.43389434 145.74088583 -71.25 140.1875 C-92.38112797 133.3380999 -108.74545928 118.74573523 -119.125 99.375 C-127.68352959 80.94280035 -129.42414764 59.52035222 -123.640625 39.9296875 C-119.51646297 28.83152114 -114.28862214 18.97279258 -106.25 10.1875 C-105.65960938 9.50558594 -105.06921875 8.82367187 -104.4609375 8.12109375 C-78.21106253 -20.41866393 -30.36756099 -23.41424095 0 0 Z M-87.25 14.1875 C-87.87390625 14.64769531 -88.4978125 15.10789062 -89.140625 15.58203125 C-101.30857234 25.09166577 -108.40891916 40.27372896 -110.72265625 55.24609375 C-112.79481575 74.70533868 -107.07938713 91.07217199 -95.25 106.1875 C-85.71772786 117.76240188 -70.10933121 125.64009461 -55.25 127.1875 C-39.0587435 128.39858363 -21.92512592 125.23518273 -9.08984375 114.671875 C5.09961848 102.37783493 14.56813407 87.58458668 16.03125 68.5234375 C16.49726154 49.76647298 10.83834574 34.00734492 -1.578125 19.87890625 C-13.63329856 7.73561008 -28.7927188 1.13832016 -45.796875 0.19140625 C-61.51148587 0.17362954 -74.93195417 4.46847448 -87.25 14.1875 Z M262.13671875 18.70703125 C250.13883464 31.17619067 243.78710512 46.33450268 243.375 63.625 C243.87325698 83.03709208 250.90602837 98.0111809 264.75 111.1875 C277.71428576 123.04372714 293.4536265 127.96536615 310.890625 127.53125 C329.93119893 125.83532844 345.63110415 117.27447468 357.87890625 102.64453125 C368.27281794 88.52407671 372.05723163 72.91489996 370.0625 55.5625 C367.17591307 36.96217495 357.33804503 22.43126051 342.4921875 11.0078125 C316.89084653 -5.98680986 284.26011348 -2.02713932 262.13671875 18.70703125 Z M105.75 18.1875 C100.04828946 26.71169909 98.9535208 33.97510921 99.75 44.1875 C102.08509565 53.3826953 106.63730292 58.71669619 114.43359375 63.85546875 C122.18590504 68.31337457 129.4628655 68.75679784 138.0703125 66.98046875 C147.71801448 64.12553653 154.07426793 56.78365358 158.75 48.1875 C161.4066816 40.2174552 160.54691153 30.9156155 157.0078125 23.3671875 C152.63433736 15.78830822 146.79449197 11.59509844 139 7.875 C126.10395118 5.14698967 114.54325714 8.16318686 105.75 18.1875 Z M111.75 164.1875 C110.88375 165.425 110.88375 165.425 110 166.6875 C107.32476635 169.65998184 105.60553212 170.01157644 101.8125 171.125 C96.2223423 172.80204731 93.80693341 174.23315965 90.75 179.1875 C89.78911617 182.07015149 89.63329059 183.86412271 89.65234375 186.85546875 C89.65556641 187.74814453 89.65878906 188.64082031 89.66210938 189.56054688 C89.67048828 190.48931641 89.67886719 191.41808594 89.6875 192.375 C89.69201172 193.31537109 89.69652344 194.25574219 89.70117188 195.22460938 C89.71295374 197.54563712 89.72940442 199.86653644 89.75 202.1875 C93.137977 200.63044296 94.41576619 199.60743331 96 196.1875 C96.33515625 195.48625 96.6703125 194.785 97.015625 194.0625 C97.87156397 192.21273826 97.87156397 192.21273826 97.75 190.1875 C101.71759483 189.25989102 105.20199045 188.49860915 109.0234375 190.19921875 C110.3827391 191.08099618 111.71890534 191.99998583 113.0234375 192.9609375 C117.90159147 196.4264134 123.99294404 195.47286455 129.57421875 194.56640625 C130.84910156 194.29699219 132.12398438 194.02757812 133.4375 193.75 C145.25016364 191.42109175 155.06931066 190.46230718 166.75 194.1875 C167.37515554 185.7131693 166.30910166 180.33062414 160.7265625 173.83203125 C156.42591666 169.33323278 152.39637784 165.80903257 146.75 163.1875 C146.15574219 162.89101562 145.56148438 162.59453125 144.94921875 162.2890625 C139.65245277 160.04693632 134.36149607 159.84474955 128.6875 159.75 C127.93170654 159.72776367 127.17591309 159.70552734 126.3972168 159.68261719 C120.80277166 159.7045204 116.39384018 160.99728552 111.75 164.1875 Z M136.625 208.25 C126.03559168 210.22201143 117.32934545 210.38357351 106.75 208.1875 C106.42 209.1775 106.09 210.1675 105.75 211.1875 C104.0625 212.125 104.0625 212.125 101.75 213.1875 C100.80125 213.826875 99.8525 214.46625 98.875 215.125 C95.91643204 217.07765485 92.94677892 218.66522433 89.75 220.1875 C89.0301848 232.9442249 91.24118728 241.0301177 99.5546875 250.80078125 C107.40310006 259.33348601 116.43605748 266.60653279 128.50390625 267.31640625 C139.04282536 266.71156394 147.82727745 260.83893019 154.75 253.1875 C155.30429687 252.62546875 155.85859375 252.0634375 156.4296875 251.484375 C164.31983766 243.15400187 167.19646708 235.23844933 167.5 223.875 C167.53988037 223.01487305 167.57976074 222.15474609 167.62084961 221.26855469 C167.60428472 217.64965419 167.54861024 215.17859578 165.2265625 212.296875 C160.46282413 208.1410614 156.3443494 205.97921898 149.91308594 206.03613281 C145.42516215 206.35018617 141.0323156 207.382285 136.625 208.25 Z M-98.25 222.1875 C-103.64533589 230.9967581 -106.04213013 239.64112071 -103.6015625 249.91796875 C-100.31198702 258.98538835 -94.7767033 264.88788903 -86.265625 269.27734375 C-79.52139901 272.32270161 -71.39373915 272.23979165 -64.28125 270.43359375 C-55.60454342 267.10142481 -50.839253 262.16822443 -46.25 254.1875 C-42.65505333 246.03978349 -42.78300849 238.65461156 -45.25 230.1875 C-48.50497986 222.51991146 -55.360827 215.6506574 -62.9375 212.1875 C-76.25139737 208.11344741 -89.23834666 211.78188721 -98.25 222.1875 Z M310.75 220.1875 C305.24832398 227.48780088 302.39446558 234.8399098 302.91015625 244.046875 C304.3179679 253.94256077 308.86321897 260.16158353 316.4453125 266.48828125 C323.84287685 271.94241768 331.74797289 272.09700446 340.75 271.1875 C348.37418531 269.27861307 355.21946257 264.31924598 359.32421875 257.6171875 C363.54660925 249.31758897 365.24960339 241.77811361 363.13671875 232.4921875 C360.29470015 224.50448763 355.0644085 217.59225242 347.4375 213.6875 C334.77951726 208.53849007 320.45728881 210.03897079 310.75 220.1875 Z M112.75 279.1875 C111.86357631 286.40200513 111.86357631 286.40200513 113.9453125 293.0625 C119.97011493 298.14876537 127.2779798 297.72540721 134.75 297.1875 C138.49567041 296.3558564 141.0233978 294.96097976 143.6875 292.125 C145.24357801 287.82290197 144.98730312 283.71383725 144.75 279.1875 C143.81800781 279.42726563 142.88601563 279.66703125 141.92578125 279.9140625 C131.4595522 282.34806926 123.21820096 281.8857475 112.75 279.1875 Z M83.125 295.75 C82.05636719 296.07291016 80.98773438 296.39582031 79.88671875 296.72851562 C71.86742635 299.31777055 65.58021493 302.54167548 61.09375 309.90625 C57.78445349 320.81467183 58.37367848 331.89351229 58.75 343.1875 C89.70165201 361.21644451 122.9430693 370.15517868 158.4375 360.83789062 C169.3645509 357.76465756 179.84893859 353.79213421 189.75 348.1875 C190.44053467 347.89528564 191.13106934 347.60307129 191.8425293 347.30200195 C194.24468488 346.13857008 195.91430205 345.13480051 197.75 343.1875 C198.83244267 339.26571216 198.64173601 335.53796736 198.4375 331.5 C198.42654297 330.46166016 198.41558594 329.42332031 198.40429688 328.35351562 C198.15817174 318.77864756 196.69695374 309.93393136 189.8671875 302.86328125 C185.91383539 299.73415199 181.54738558 298.54291609 176.75 297.1875 C175.25330576 296.740286 173.7572541 296.29091803 172.26171875 295.83984375 C168.09947105 294.59238015 163.92759591 293.38249813 159.75 292.1875 C159.5540625 292.75597656 159.358125 293.32445312 159.15625 293.91015625 C156.22689427 301.4734497 152.27834223 306.16292371 144.796875 309.5078125 C132.5364507 313.74269336 120.65129975 313.50845148 108.75 308.1875 C102.29545967 304.22021884 99.18637029 299.25617958 96.75 292.1875 C92.13719107 292.1875 87.47886558 294.35439846 83.125 295.75 Z M-68.25 358.1875 C-69.11109375 358.44273437 -69.9721875 358.69796875 -70.859375 358.9609375 C-87.48256767 364.73140884 -99.03978874 378.58388541 -106.57421875 393.875 C-112.8259875 409.12094906 -112.49003665 426.59597951 -107.125 442 C-104.42788058 448.44267399 -100.61382602 453.77392657 -96.25 459.1875 C-95.62480469 460.0228125 -94.99960938 460.858125 -94.35546875 461.71875 C-84.02122816 473.83607848 -68.52498752 480.34678835 -53 482 C-33.50305604 483.08573029 -17.91057991 476.57627492 -3.16015625 464.47265625 C8.57236235 453.59147687 14.8836134 438.55836442 15.98828125 422.78515625 C16.37839075 404.20362475 10.93198625 387.99087773 -1.99047852 374.29956055 C-14.36829954 361.7785703 -30.18978865 355.2280194 -47.75 354.8125 C-54.89124001 354.97429946 -61.42069204 356.1315565 -68.25 358.1875 Z M108.75 422.1875 C102.17304149 428.88907456 99.62141351 435.8476296 99.3125 445.125 C99.55062263 454.42170444 102.46797664 460.61157068 108.75 467.39453125 C115.90539928 473.8092349 123.20719085 475.5824373 132.58984375 475.45703125 C141.76488295 474.67448773 148.73031298 469.98114678 154.75 463.1875 C159.92453687 455.16839728 160.46287224 447.51594248 159.75 438.1875 C157.72323991 429.93394684 151.89235233 423.1686528 145.0625 418.3125 C132.89888079 411.37194358 119.39503913 413.8773831 108.75 422.1875 Z " fill="#FFFFFF" transform="translate(126.25,14.8125)"/>
<path d="M0 0 C2.74063515 2.5963912 3.91323484 4.02389194 4.25 7.8125 C4.1675 8.534375 4.085 9.25625 4 10 C4.886875 10.2475 5.77375 10.495 6.6875 10.75 C10.29148795 12.10999545 12.42469354 13.12171631 15 16 C15.66256474 18.80005619 15.6095764 21.19364826 15 24 C13.4375 26.5 13.4375 26.5 11 28 C5.75078972 28.66808131 3.38804255 27.63282553 -1 25 C-4.86783126 24.72857324 -8.29520943 24.81446702 -12 26 C-12.50125283 29.33142278 -12.50125283 29.33142278 -12 33 C-7.89258226 36.29847593 -3.46523088 38.10830598 1.4375 39.875 C8.85645908 42.7212957 14.2297733 45.68891906 18.4375 52.5625 C21.24376479 58.94370212 21.14278773 66.20826192 19.15234375 72.8125 C16.21100913 79.35323054 11.48142399 84.759288 5 88 C4.71125 89.27875 4.4225 90.5575 4.125 91.875 C3.48252456 94.63270229 3.14928775 95.82938542 1.25 98 C-1.81792333 99.36352148 -3.67335882 99.54312509 -7 99 C-9.875 96.8125 -9.875 96.8125 -12 94 C-12.3125 91.1875 -12.3125 91.1875 -12 89 C-13.134375 88.938125 -14.26875 88.87625 -15.4375 88.8125 C-20.53619052 88.17629976 -24.93363192 86.12992232 -29 83 C-30.75838096 80.26233611 -31.01593227 79.26022712 -30.8125 75.9375 C-29.6311264 71.66638005 -29.6311264 71.66638005 -27 70 C-23.09103421 68.98656442 -20.96040903 68.50862794 -17.3125 70.375 C-16.549375 70.91125 -15.78625 71.4475 -15 72 C-10.52428966 73.64109379 -5.74786839 73.46609824 -1.1875 72.25 C1.4898054 70.7201112 2.12325585 69.94904851 3 67 C3.50007794 63.45786015 3.50007794 63.45786015 3 60 C-0.27475029 56.79174211 -4.57615818 55.39655809 -8.75 53.6875 C-23.65897537 47.30704926 -23.65897537 47.30704926 -27.5 39.625 C-29.93989115 33.15115547 -29.73388938 27.35019069 -27.0390625 20.953125 C-24.46567055 16.11592209 -21.49625911 12.31740951 -16.25 10.4375 C-12.73242908 9.32761831 -12.73242908 9.32761831 -11.75 6 C-11.5025 5.01 -11.255 4.02 -11 3 C-7.61095045 -1.09510154 -5.11182523 -1.43131107 0 0 Z " fill="#FFFFFF" transform="translate(84,384)"/>
<path d="M0 0 C2.8125 2.1875 2.8125 2.1875 5 5 C5.1546875 6.2684375 5.1546875 6.2684375 5.3125 7.5625 C5.73573194 10.10885723 5.73573194 10.10885723 7.7578125 11.09765625 C9.18535159 11.77049278 10.62973549 12.40892962 12.08984375 13.0078125 C14 14 14 14 16 17 C16.42791781 20.92257996 16.63413473 23.10751408 14.3125 26.375 C11.66289173 28.23688689 10.24286253 28.92278899 7 29 C4.97481509 28.0520411 2.97522846 27.04808041 1 26 C-2.31734716 25.11988749 -4.4475459 24.88950918 -7.8125 25.5625 C-10.31886183 26.86339351 -10.31886183 26.86339351 -10.8125 30 C-10.91653688 31.66459015 -11 33.33216187 -11 35 C-10.17628906 35.26039062 -9.35257813 35.52078125 -8.50390625 35.7890625 C-4.56351836 37.1508465 -0.76102871 38.71849456 3.0625 40.375 C3.75666016 40.66632813 4.45082031 40.95765625 5.16601562 41.2578125 C12.38895335 44.38569436 16.69733485 47.93392919 20.04296875 55.15625 C22.36871929 62.06705161 21.96123842 68.67489416 19 75.3125 C15.96884018 80.69736845 11.56484566 85.21757717 6 88 C5.51177866 90.01798155 5.02497499 92.03635754 4.5546875 94.05859375 C3.85678959 96.50123642 3.16059813 97.6396234 1 99 C-2.01523464 100.03152764 -3.60370446 100.1105941 -6.6875 99.25 C-9 98 -9 98 -11 95 C-11.125 92.3125 -11.125 92.3125 -11 90 C-11.8353125 89.87044922 -11.8353125 89.87044922 -12.6875 89.73828125 C-18.57570652 88.65413512 -23.31035488 86.78995301 -28 83 C-30 80 -30 80 -29.8125 76.5 C-29 73 -29 73 -27.9375 71.0625 C-24.75148378 69.31532982 -21.49772487 69.47534127 -18 70 C-17.071875 70.495 -16.14375 70.99 -15.1875 71.5 C-10.48798325 73.7115373 -6.10374583 73.80667107 -1 73 C2.35801159 71.22632043 2.35801159 71.22632043 4 68 C4.38394058 65.19308308 4.24204889 62.85617693 4 60 C3.44054687 59.72027344 2.88109375 59.44054687 2.3046875 59.15234375 C0.5786408 58.2893204 -1.14508368 57.42164572 -2.8671875 56.55078125 C-5.08552921 55.45267444 -7.32209184 54.39102772 -9.5703125 53.35546875 C-17.56315424 49.6360906 -23.51949212 46.29926683 -27.375 38.0625 C-28.96256966 30.28340865 -28.01073152 24.81043047 -24 18 C-21.05914477 14.53129896 -18.07310341 12.03655171 -14 10 C-13.01 10 -12.02 10 -11 10 C-10.9175 8.906875 -10.835 7.81375 -10.75 6.6875 C-10 3 -10 3 -8.3125 1.0625 C-5.2135552 -0.3613395 -3.37817188 -0.55153827 0 0 Z " fill="#FFFFFF" transform="translate(83,29)"/>
<path d="M0 0 C2.4375 1.625 2.4375 1.625 4 4 C4.25 7.25 4.25 7.25 4 10 C4.86625 10.226875 5.7325 10.45375 6.625 10.6875 C10.8300345 12.32279119 12.90904965 13.68826748 16 17 C16.70612359 21.02490448 16.69695274 22.98137676 14.375 26.375 C11.43721938 28.38506043 9.5603504 28.92733979 6 29 C5.2575 28.525625 4.515 28.05125 3.75 27.5625 C-0.28796251 25.26820312 -4.44040047 25.37860325 -9 26 C-11.34973818 27.89755144 -11.34973818 27.89755144 -11.125 31.125 C-11.08375 32.07375 -11.0425 33.0225 -11 34 C-6.0367123 36.57668553 -1.14643149 38.99234589 4.125 40.875 C10.57447583 43.3938504 15.33803704 47.26580287 18.9375 53.1875 C21.72400885 60.56355285 21.82669997 67.32484558 19.11328125 74.7578125 C16.31352807 80.39661364 11.76490016 85.36461707 6 88 C5.34 88 4.68 88 4 88 C4.0928125 89.60875 4.0928125 89.60875 4.1875 91.25 C4 95 4 95 2.875 97.375 C0.25065402 99.64943318 -1.54847562 99.93096951 -5 100 C-7.8125 99 -7.8125 99 -10 97 C-10.8125 93.3125 -10.8125 93.3125 -11 90 C-11.8353125 89.87044922 -11.8353125 89.87044922 -12.6875 89.73828125 C-19.54027787 88.47653668 -25.03360405 85.96639595 -30 81 C-30.42431591 77.18115682 -30.5390434 74.87594552 -28.5 71.5625 C-25.03812794 69.39882996 -21.92478338 69.33178835 -18 70 C-17.071875 70.495 -16.14375 70.99 -15.1875 71.5 C-9.84554831 74.01385962 -3.57838956 73.85946319 2 72 C4.01261193 68.29255696 4.27203606 65.17121959 4 61 C3.67 60.01 3.34 59.02 3 58 C1.1707306 57.25573643 1.1707306 57.25573643 -1.125 56.8125 C-9.44764587 54.51866831 -20.16212084 50.34571016 -25.375 43.1875 C-28.65185825 36.75981651 -29.32000642 29.61625103 -27.31640625 22.609375 C-24.62190031 16.75078116 -20.1112071 12.31804407 -14 10 C-13.01 10 -12.02 10 -11 10 C-11.0825 9.0925 -11.165 8.185 -11.25 7.25 C-11 4 -11 4 -9.4375 1.625 C-6.06489221 -0.62340519 -3.97487617 -0.56783945 0 0 Z " fill="#FFFFFF" transform="translate(438,29)"/>
<path d="M0 0 C1.875 1.125 1.875 1.125 3 3 C3.1875 6.6875 3.1875 6.6875 3 10 C3.70125 10.0825 4.4025 10.165 5.125 10.25 C8.68527538 11.17876749 11.07030552 12.80272914 14 15 C15.42662219 17.85324437 15.31033868 19.83454549 15 23 C13.4375 25.875 13.4375 25.875 11 28 C5.6414387 28.79386093 2.69016477 27.39497775 -2 25 C-5.56365653 24.71490748 -8.58528657 24.94931894 -12 26 C-12.33 28.64 -12.66 31.28 -13 34 C-10.69353311 34.92441728 -8.38686233 35.84796232 -6.07421875 36.75683594 C-3.87937603 37.62113161 -1.68964566 38.49762903 0.5 39.375 C1.61955078 39.81199219 1.61955078 39.81199219 2.76171875 40.2578125 C8.72941987 42.66601755 13.34498287 45.33971178 16.75 51 C17.15734375 51.66 17.5646875 52.32 17.984375 53 C20.95987812 58.8594523 20.68880294 65.32240056 18.875 71.5 C16.59866575 77.65886696 13.34766305 83.11733084 7.25 85.9375 C3.89320854 87.60225318 3.89320854 87.60225318 3.21875 90.16796875 C2.72287921 92.59817542 2.72287921 92.59817542 2.484375 94.9765625 C2 97 2 97 -1 99 C-4.91054241 99.42660463 -7.12030578 99.58646281 -10.4375 97.375 C-12.39644605 94.397402 -12.31785906 92.49644963 -12 89 C-13.155 88.9175 -14.31 88.835 -15.5 88.75 C-21.10026509 88.04374987 -25.86678002 85.99989373 -30 82.125 C-31.3732501 79.20684353 -31.39860394 77.18883155 -31 74 C-29.9375 71.6875 -29.9375 71.6875 -28 70 C-22.22138973 68.11310685 -18.69871076 69.75809378 -13.42578125 72.0625 C-10.10648621 73.34531934 -7.51217623 73.4820634 -4 73 C-1.17310205 71.74360091 0.47004961 70.67448232 2.375 68.25 C3.3801763 64.63136531 3.21225655 62.57296668 2 59 C0.04757499 57.65349999 -1.90420322 56.91873629 -4.125 56.0859375 C-23.81541164 48.64852658 -23.81541164 48.64852658 -28.11328125 39.67578125 C-30.3250294 33.00156325 -29.84318356 25.95726975 -27 19.5625 C-23.74080768 13.77044964 -19.17781765 11.05927255 -13 9 C-12.71125 7.88625 -12.4225 6.7725 -12.125 5.625 C-11 2 -11 2 -8.75 0 C-5.32674222 -1.24482101 -3.46695574 -1.05516044 0 0 Z " fill="#FFFFFF" transform="translate(439,384)"/>
</svg>
