<?xml version="1.0" encoding="UTF-8"?>
<!DOCTYPE svg PUBLIC "-//W3C//DTD SVG 1.1//EN" "http://www.w3.org/Graphics/SVG/1.1/DTD/svg11.dtd">
<svg xmlns="http://www.w3.org/2000/svg" version="1.1" width="512px" height="512px" style="shape-rendering:geometricPrecision; text-rendering:geometricPrecision; image-rendering:optimizeQuality; fill-rule:evenodd; clip-rule:evenodd" xmlns:xlink="http://www.w3.org/1999/xlink">
<g><path style="opacity:0.944" fill="#fefffe" d="M 65.5,-0.5 C 73.8333,-0.5 82.1667,-0.5 90.5,-0.5C 123.219,6.71192 144.719,26.3786 155,58.5C 160.794,84.2056 155.627,107.372 139.5,128C 147,135.5 154.5,143 162,150.5C 167.723,145.389 173.89,140.889 180.5,137C 190.246,136.328 193.246,140.494 189.5,149.5C 143.66,180.868 124.827,224.201 133,279.5C 138.432,304.374 150.099,325.707 168,343.5C 167.929,328.7 172.762,315.867 182.5,305C 195.021,298.102 208.355,293.269 222.5,290.5C 222.663,288.143 222.497,285.81 222,283.5C 210.884,274.281 203.551,262.615 200,248.5C 199.065,229.456 199.398,210.456 201,191.5C 204.322,179.515 212.155,172.349 224.5,170C 233.117,161.736 243.45,157.903 255.5,158.5C 279.763,159.207 296.93,170.541 307,192.5C 308.587,211.462 308.921,230.462 308,249.5C 304.123,262.922 296.956,274.256 286.5,283.5C 285.526,285.743 285.192,288.076 285.5,290.5C 295.237,293.023 304.904,295.856 314.5,299C 324.974,302.807 332.141,309.974 336,320.5C 338.519,327.949 339.853,335.615 340,343.5C 377.198,304.024 386.531,258.691 368,207.5C 341.063,152.439 296.896,127.606 235.5,133C 228.614,134.263 221.781,135.763 215,137.5C 210.266,136.933 207.766,134.266 207.5,129.5C 207.556,126.889 208.556,124.722 210.5,123C 222.449,118.711 234.782,116.544 247.5,116.5C 247.83,110.132 247.496,103.798 246.5,97.5C 220.318,89.4851 208.152,71.8185 210,44.5C 213.651,26.8521 223.818,14.6854 240.5,8C 263.24,2.05071 281.407,8.55071 295,27.5C 306.841,51.9592 302.341,72.7926 281.5,90C 276.083,93.4724 270.249,95.9724 264,97.5C 263.5,103.825 263.334,110.158 263.5,116.5C 295.28,118.364 322.947,129.864 346.5,151C 347.167,151.667 347.833,151.667 348.5,151C 356.167,143.333 363.833,135.667 371.5,128C 358.045,111.628 352.211,92.795 354,71.5C 357.422,41.4826 372.589,19.6492 399.5,6C 406.402,3.08524 413.402,0.918578 420.5,-0.5C 428.5,-0.5 436.5,-0.5 444.5,-0.5C 481.167,7.5 503.5,29.8333 511.5,66.5C 511.5,74.5 511.5,82.5 511.5,90.5C 505.503,118.017 489.837,138.184 464.5,151C 442.35,159.937 420.35,159.603 398.5,150C 392.728,147.366 387.561,143.866 383,139.5C 374.53,146.969 366.363,154.802 358.5,163C 379.795,187.022 391.462,215.188 393.5,247.5C 400.2,247.83 406.866,247.497 413.5,246.5C 423.763,216.531 444.43,205.031 475.5,212C 501.677,224.868 510.511,245.368 502,273.5C 488.313,298.511 467.813,306.678 440.5,298C 426.491,290.65 417.491,279.317 413.5,264C 406.808,263.169 400.142,263.336 393.5,264.5C 390.978,296.026 379.312,323.526 358.5,347C 366.667,355.167 374.833,363.333 383,371.5C 404.713,354.796 428.879,349.962 455.5,357C 462.009,359.88 463.509,364.38 460,370.5C 459.25,371.126 458.416,371.626 457.5,372C 449.027,371.363 440.527,370.53 432,369.5C 403.722,371.45 384.055,385.45 373,411.5C 363.886,447.092 375.386,473.592 407.5,491C 442.058,502.592 469.225,493.092 489,462.5C 501.436,434.289 497.103,408.955 476,386.5C 474.559,376.935 478.392,373.435 487.5,376C 500.499,388.187 508.499,403.02 511.5,420.5C 511.5,428.5 511.5,436.5 511.5,444.5C 503.5,481.167 481.167,503.5 444.5,511.5C 436.5,511.5 428.5,511.5 420.5,511.5C 391.631,505.809 371.131,489.476 359,462.5C 349.079,433.678 353.246,407.178 371.5,383C 363.333,374.833 355.167,366.667 347,358.5C 323.623,379.597 296.123,391.597 264.5,394.5C 263.336,400.807 263.169,407.141 264,413.5C 290.444,421.282 302.777,438.949 301,466.5C 292.922,495.899 273.756,508.399 243.5,504C 218.912,495.675 207.745,478.508 210,452.5C 214.066,431.933 226.233,418.933 246.5,413.5C 247.496,407.202 247.83,400.868 247.5,394.5C 214.986,392.317 186.486,380.65 162,359.5C 154.135,367.03 146.635,374.864 139.5,383C 158.268,407.97 162.102,435.137 151,464.5C 138.089,490.261 117.589,505.927 89.5,511.5C 81.5,511.5 73.5,511.5 65.5,511.5C 29.8333,503.167 7.83333,481.167 -0.5,445.5C -0.5,437.5 -0.5,429.5 -0.5,421.5C 6.29399,388.2 25.9607,366.367 58.5,356C 84.2056,350.206 107.372,355.373 128,371.5C 135.333,364.167 142.667,356.833 150,349.5C 150.667,348.833 150.667,348.167 150,347.5C 128.309,323.773 116.809,295.773 115.5,263.5C 109.491,263.334 103.491,263.501 97.5,264C 87.5467,294.317 66.88,305.983 35.5,299C 9.32145,286.13 0.488116,265.63 9,237.5C 22.6528,212.499 43.1528,204.332 70.5,213C 84.5092,220.35 93.5092,231.683 97.5,247C 103.157,247.499 108.824,247.666 114.5,247.5C 116.503,214.675 128.503,186.175 150.5,162C 143,154.5 135.5,147 128,139.5C 103.825,157.754 77.3246,161.921 48.5,152C 21.524,139.869 5.19066,119.369 -0.5,90.5C -0.5,82.5 -0.5,74.5 -0.5,66.5C 7.38989,30.2767 29.3899,7.94338 65.5,-0.5 Z M 76.5,14.5 C 109.312,16.4875 130.478,33.1542 140,64.5C 145.089,96.8215 133.256,120.655 104.5,136C 67.1701,148.562 39.0034,137.729 20,103.5C 8.04169,66.6975 18.875,38.8641 52.5,20C 60.3547,16.8666 68.3547,15.0332 76.5,14.5 Z M 431.5,14.5 C 460.046,15.8528 480.213,29.5194 492,55.5C 502.454,92.4208 490.621,119.587 456.5,137C 419.536,147.906 392.036,136.406 374,102.5C 363.926,71.7296 371.426,46.2296 396.5,26C 407.222,18.9114 418.888,15.078 431.5,14.5 Z M 249.5,21.5 C 274.959,21.4588 286.793,34.1255 285,59.5C 275.348,81.1592 259.848,86.9925 238.5,77C 224.169,64.605 221.669,50.105 231,33.5C 236.033,27.5781 242.199,23.5781 249.5,21.5 Z M 245.5,174.5 C 266.954,171.455 282.454,179.455 292,198.5C 292.667,201.833 292.667,205.167 292,208.5C 287.887,206.554 283.554,205.22 279,204.5C 268.48,205.97 257.98,207.637 247.5,209.5C 245.077,209.406 242.744,208.906 240.5,208C 237.212,205.699 233.712,203.866 230,202.5C 224.164,203.808 220.831,207.475 220,213.5C 218.981,214.687 217.814,215.687 216.5,216.5C 215.336,209.858 215.169,203.192 216,196.5C 217.01,192.157 219.51,188.99 223.5,187C 230.151,186.579 235.151,183.579 238.5,178C 240.925,176.787 243.259,175.621 245.5,174.5 Z M 273.5,220.5 C 291.629,221.514 297.795,230.847 292,248.5C 285.271,266.106 272.771,277.106 254.5,281.5C 235.265,277.433 222.432,266.099 216,247.5C 215.333,243.167 215.333,238.833 216,234.5C 222.792,231.857 228.626,227.857 233.5,222.5C 237.856,224.088 242.356,225.088 247,225.5C 256.073,224.384 264.906,222.717 273.5,220.5 Z M 44.5,225.5 C 66.5487,224.054 79.2154,234.221 82.5,256C 77.6286,280.775 62.962,289.775 38.5,283C 20.8146,271.426 16.9813,256.259 27,237.5C 31.8396,231.847 37.673,227.847 44.5,225.5 Z M 452.5,225.5 C 477.448,224.615 489.615,236.615 489,261.5C 481.267,283.529 466.434,290.362 444.5,282C 428.655,270.36 425.155,255.86 434,238.5C 438.689,231.964 444.856,227.631 452.5,225.5 Z M 238.5,293.5 C 249.009,298.675 259.509,298.675 270,293.5C 271.409,299.354 270.243,304.521 266.5,309C 259.301,311.877 251.968,312.21 244.5,310C 242.376,308.878 240.543,307.378 239,305.5C 238.501,301.514 238.334,297.514 238.5,293.5 Z M 220.5,306.5 C 228.533,323.02 241.866,329.853 260.5,327C 273.5,325.659 282,318.825 286,306.5C 293.744,309.192 301.578,311.692 309.5,314C 315.82,316.986 319.987,321.819 322,328.5C 323.693,338.132 323.859,347.799 322.5,357.5C 276.871,385.497 231.204,385.497 185.5,357.5C 183.39,345.135 184.557,333.135 189,321.5C 190.833,319.667 192.667,317.833 194.5,316C 203.164,312.512 211.83,309.346 220.5,306.5 Z M 70.5,369.5 C 106.428,368.613 129.594,385.28 140,419.5C 144.855,456.632 129.688,481.465 94.5,494C 60.7878,500.559 35.9544,488.726 20,458.5C 8.24067,424.201 17.4073,397.035 47.5,377C 54.905,373.276 62.5717,370.776 70.5,369.5 Z M 254.5,428.5 C 276.694,431.526 286.86,444.193 285,466.5C 278.124,485.024 264.958,492.191 245.5,488C 228.207,480.147 222.041,466.98 227,448.5C 232.413,436.577 241.579,429.91 254.5,428.5 Z"/></g>
<g><path style="opacity:0.938" fill="#fefffe" d="M 76.5,28.5 C 83.8933,27.7261 87.7266,31.0594 88,38.5C 91.2904,39.6452 94.2904,41.3119 97,43.5C 100.385,50.5768 98.3849,55.2434 91,57.5C 86.8791,55.2726 82.5458,53.6059 78,52.5C 71.2661,53.9653 69.4327,57.6319 72.5,63.5C 79.374,66.9575 86.374,70.1241 93.5,73C 102.967,80.4103 105.801,89.9103 102,101.5C 99.0557,108.111 94.389,113.111 88,116.5C 87.358,127.041 82.5246,130.041 73.5,125.5C 72.1319,123.363 71.1319,121.03 70.5,118.5C 65.5678,117.356 60.9011,115.522 56.5,113C 51.1667,108.333 51.1667,103.667 56.5,99C 61.6111,97.8895 66.2777,98.8895 70.5,102C 82.4867,104.995 87.9867,100.495 87,88.5C 80.0593,84.6255 72.8927,81.1255 65.5,78C 52.5128,67.7643 51.1795,56.0976 61.5,43C 64.4799,40.676 67.8133,39.176 71.5,38.5C 71.0747,34.0168 72.7413,30.6834 76.5,28.5 Z"/></g>
<g><path style="opacity:0.941" fill="#fefffe" d="M 430.5,28.5 C 438.012,27.5922 442.012,30.9256 442.5,38.5C 446.602,39.9652 450.102,42.2985 453,45.5C 454.799,52.2425 452.299,56.2425 445.5,57.5C 442.893,56.8631 440.56,55.6965 438.5,54C 435.167,53.3333 431.833,53.3333 428.5,54C 424.253,58.1628 424.586,61.8295 429.5,65C 435.167,67.3333 440.833,69.6667 446.5,72C 457.783,79.9492 460.949,90.4492 456,103.5C 452.972,109.361 448.472,113.694 442.5,116.5C 442.819,122.898 439.985,126.898 434,128.5C 428.616,127.427 425.782,124.093 425.5,118.5C 418.752,117.21 412.919,114.21 408,109.5C 406.378,100.21 410.211,96.7099 419.5,99C 424.702,102.266 430.369,103.266 436.5,102C 442.959,97.7331 443.959,92.5664 439.5,86.5C 431.104,83.4685 423.104,79.6352 415.5,75C 406.99,63.4498 407.657,52.4498 417.5,42C 420.309,40.2589 423.309,39.0922 426.5,38.5C 425.75,34.2246 427.083,30.8913 430.5,28.5 Z"/></g>
<g><path style="opacity:0.937" fill="#fefffe" d="M 77.5,382.5 C 84.1184,383.118 87.785,386.785 88.5,393.5C 96.3451,395.154 99.5118,399.821 98,407.5C 96.6071,410.366 94.2738,411.699 91,411.5C 87.7666,411.3 84.9333,410.133 82.5,408C 78.3763,406.944 74.7096,407.778 71.5,410.5C 69.4491,415.06 70.7824,418.226 75.5,420C 82.4525,422.426 89.1192,425.426 95.5,429C 104.353,438.349 105.853,448.849 100,460.5C 96.9513,465.216 92.9513,468.882 88,471.5C 87.8137,481 83.3137,484.167 74.5,481C 72.0695,478.695 71.0695,475.862 71.5,472.5C 65.7031,472.106 60.3697,470.272 55.5,467C 50.7208,459.718 52.5541,454.885 61,452.5C 64.917,453.879 68.7503,455.379 72.5,457C 83.491,458.941 88.3243,454.441 87,443.5C 86.1667,442.667 85.3333,441.833 84.5,441C 76.4377,438.135 68.7711,434.469 61.5,430C 51.8158,418.118 52.4824,406.784 63.5,396C 65.8333,395 68.1667,394 70.5,393C 71.0802,388.266 73.4136,384.766 77.5,382.5 Z"/></g>
<g><path style="opacity:0.941" fill="#fefffe" d="M 432.5,382.5 C 439.538,382.871 442.538,386.537 441.5,393.5C 445.438,394.219 448.938,395.885 452,398.5C 455.076,405.342 453.076,409.676 446,411.5C 442.56,411.028 439.394,409.862 436.5,408C 430.56,406.628 426.894,408.794 425.5,414.5C 425.686,416.58 426.686,418.08 428.5,419C 436.841,421.921 444.674,425.754 452,430.5C 461.055,443.259 460.221,455.425 449.5,467C 447.083,468.626 444.583,470.126 442,471.5C 442.545,479.959 438.712,483.459 430.5,482C 427.037,479.805 425.704,476.639 426.5,472.5C 420.645,472.159 415.312,470.326 410.5,467C 407.231,463.547 406.731,459.714 409,455.5C 410.823,453.833 412.99,452.833 415.5,452.5C 419.395,454.281 423.395,455.781 427.5,457C 437.352,458.475 442.185,454.308 442,444.5C 441.535,443.069 440.701,441.903 439.5,441C 428.901,438.256 419.735,433.089 412,425.5C 406,410.142 410.5,399.309 425.5,393C 425.316,387.705 427.65,384.205 432.5,382.5 Z"/></g>
</svg>
