<?xml version="1.0" encoding="UTF-8"?>
<!DOCTYPE svg PUBLIC "-//W3C//DTD SVG 1.1//EN" "http://www.w3.org/Graphics/SVG/1.1/DTD/svg11.dtd">
<svg xmlns="http://www.w3.org/2000/svg" version="1.1" width="239px" height="392px" style="shape-rendering:geometricPrecision; text-rendering:geometricPrecision; image-rendering:optimizeQuality; fill-rule:evenodd; clip-rule:evenodd" xmlns:xlink="http://www.w3.org/1999/xlink">
<g><path style="opacity:1" fill="#fdfcfc" d="M -0.5,-0.5 C 79.1667,-0.5 158.833,-0.5 238.5,-0.5C 238.5,130.167 238.5,260.833 238.5,391.5C 158.833,391.5 79.1667,391.5 -0.5,391.5C -0.5,260.833 -0.5,130.167 -0.5,-0.5 Z"/></g>
<g><path style="opacity:1" fill="#ccb490" d="M 222.5,135.5 C 224.944,137.702 227.944,138.869 231.5,139C 228.841,142.656 225.341,145.156 221,146.5C 219.941,146.37 219.108,145.87 218.5,145C 219.034,141.473 220.368,138.306 222.5,135.5 Z"/></g>
<g><path style="opacity:1" fill="#898989" d="M 156.5,137.5 C 157.583,137.539 158.583,137.873 159.5,138.5C 160.466,140.396 160.799,142.396 160.5,144.5C 158.833,144.5 157.167,144.5 155.5,144.5C 155.5,143.167 155.5,141.833 155.5,140.5C 159.449,140.307 159.449,139.807 155.5,139C 156.056,138.617 156.389,138.117 156.5,137.5 Z"/></g>
<g><path style="opacity:1" fill="#777777" d="M 138.5,137.5 C 139.097,137.735 139.43,138.235 139.5,139C 135.535,149.084 134.035,148.918 135,138.5C 136.735,142.36 137.901,142.027 138.5,137.5 Z"/></g>
<g><path style="opacity:1" fill="#888888" d="M 129.5,137.5 C 130.5,137.5 131.5,137.5 132.5,137.5C 132.674,139.861 133.007,142.194 133.5,144.5C 131.533,144.739 129.699,144.406 128,143.5C 127.729,141.193 128.895,140.026 131.5,140C 129.065,139.925 128.398,139.092 129.5,137.5 Z"/></g>
<g><path style="opacity:1" fill="#8c8c8c" d="M 85.5,139.5 C 85.811,138.522 86.4777,137.855 87.5,137.5C 89.2559,138.407 91.0892,138.407 93,137.5C 95.7438,137.412 96.9105,138.745 96.5,141.5C 96.1667,142.5 95.8333,143.5 95.5,144.5C 94.1667,137.833 92.8333,137.833 91.5,144.5C 90.2888,143.61 88.9555,143.61 87.5,144.5C 86.5581,144.392 85.7247,144.059 85,143.5C 84.235,141.934 84.4017,140.601 85.5,139.5 Z"/></g>
<g><path style="opacity:1" fill="#7a7a7a" d="M 202.5,137.5 C 203.496,137.414 204.329,137.748 205,138.5C 205.667,140.167 205.667,141.833 205,143.5C 204.51,142.207 204.343,140.873 204.5,139.5C 203.5,139.5 202.5,139.5 201.5,139.5C 201.5,140.833 201.5,142.167 201.5,143.5C 200.157,141.317 200.49,139.317 202.5,137.5 Z"/></g>
<g><path style="opacity:1" fill="#969696" d="M 188.5,136.5 C 189.79,137.058 190.623,138.058 191,139.5C 195.656,136.471 197.323,137.804 196,143.5C 193.768,144.187 191.602,144.521 189.5,144.5C 188.52,141.914 188.187,139.247 188.5,136.5 Z"/></g>
<g><path style="opacity:1" fill="#656565" d="M 164.5,139.5 C 162.883,140.589 162.05,142.256 162,144.5C 161.064,141.648 161.73,139.315 164,137.5C 164.464,138.094 164.631,138.761 164.5,139.5 Z"/></g>
<g><path style="opacity:1" fill="#7c7c7c" d="M 17.5,137.5 C 21.4735,138.075 22.4735,140.242 20.5,144C 19.2068,144.49 17.8734,144.657 16.5,144.5C 16.298,142.05 16.6314,139.717 17.5,137.5 Z"/></g>
<g><path style="opacity:1" fill="#6a6a6a" d="M 206.5,138.5 C 207.812,138.824 208.645,139.491 209,140.5C 210.011,140.108 210.511,139.441 210.5,138.5C 211.386,139.325 211.719,140.325 211.5,141.5C 210.127,141.343 208.793,141.51 207.5,142C 208.841,143.295 210.174,143.795 211.5,143.5C 207.072,145.052 205.405,143.386 206.5,138.5 Z"/></g>
<g><path style="opacity:1" fill="#8a8a8a" d="M 164.5,139.5 C 166.06,137.365 167.727,137.198 169.5,139C 168.552,139.483 167.552,139.649 166.5,139.5C 166.238,140.978 166.571,142.311 167.5,143.5C 168.396,142.494 169.062,142.494 169.5,143.5C 165.566,145.242 163.899,143.909 164.5,139.5 Z"/></g>
<g><path style="opacity:1" fill="#757575" d="M 151.5,136.5 C 152.748,137.334 153.415,138.667 153.5,140.5C 153.333,141.833 153.167,143.167 153,144.5C 152.667,142.833 152.333,141.167 152,139.5C 151.64,141.421 150.806,143.088 149.5,144.5C 149.167,144 148.833,143.5 148.5,143C 150.178,141.125 151.178,138.958 151.5,136.5 Z"/></g>
<g><path style="opacity:1" fill="#797979" d="M 126.5,137.5 C 127.043,137.56 127.376,137.893 127.5,138.5C 126.965,140.661 126.132,142.661 125,144.5C 124.149,141.388 122.983,141.054 121.5,143.5C 119.876,142.131 119.376,140.464 120,138.5C 121.017,141.028 122.184,141.028 123.5,138.5C 124.251,139.376 124.751,140.376 125,141.5C 125.41,140.099 125.91,138.766 126.5,137.5 Z"/></g>
<g><path style="opacity:1" fill="#8c8c8c" d="M 46.5,137.5 C 48.3904,137.297 49.8904,137.963 51,139.5C 53.824,136.655 56.1574,136.988 58,140.5C 58.3468,138.82 59.3468,137.82 61,137.5C 62.2349,138.615 63.4016,138.615 64.5,137.5C 65.9374,140.044 67.4374,140.044 69,137.5C 69.1667,138 69.3333,138.5 69.5,139C 68.6243,141.836 67.291,144.336 65.5,146.5C 65.6559,144.352 65.1559,142.019 64,139.5C 61.6229,141.278 59.1229,142.944 56.5,144.5C 55.1667,137.833 53.8333,137.833 52.5,144.5C 51.8076,143.975 51.3076,143.308 51,142.5C 49.9335,144.283 48.4335,144.783 46.5,144C 45.232,141.837 45.232,139.67 46.5,137.5 Z"/></g>
<g><path style="opacity:1" fill="#f2f2f2" d="M 46.5,139.5 C 47.5,139.5 48.5,139.5 49.5,139.5C 48.5,144.833 47.5,144.833 46.5,139.5 Z"/></g>
<g><path style="opacity:1" fill="#f2f2f2" d="M 17.5,139.5 C 18.5,139.5 19.5,139.5 20.5,139.5C 20.7778,141.346 20.1112,142.68 18.5,143.5C 17.5713,142.311 17.238,140.978 17.5,139.5 Z"/></g>
<g><path style="opacity:1" fill="#ececec" d="M 85.5,139.5 C 86.5,139.5 87.5,139.5 88.5,139.5C 88.762,140.978 88.4287,142.311 87.5,143.5C 85.8888,142.68 85.2222,141.346 85.5,139.5 Z"/></g>
<g><path style="opacity:1" fill="#757575" d="M 35.5,137.5 C 38.2763,138.114 40.9429,138.281 43.5,138C 44.5762,139.726 44.7429,141.559 44,143.5C 43.51,142.207 43.3433,140.873 43.5,139.5C 42.5,139.5 41.5,139.5 40.5,139.5C 40.4622,146.041 39.7955,146.041 38.5,139.5C 37.8333,141.167 37.1667,142.833 36.5,144.5C 35.5258,142.257 35.1924,139.924 35.5,137.5 Z"/></g>
<g><path style="opacity:1" fill="#8a8a8a" d="M 103.5,135.5 C 105.464,136.782 107.464,138.115 109.5,139.5C 112.91,136.414 114.91,137.08 115.5,141.5C 113.549,141.227 112.049,141.893 111,143.5C 110.667,143.167 110.333,142.833 110,142.5C 109.692,143.308 109.192,143.975 108.5,144.5C 106.907,137.951 105.907,137.951 105.5,144.5C 103.856,144.714 102.356,144.38 101,143.5C 101.007,134.166 101.673,134.166 103,143.5C 103.497,140.854 103.664,138.187 103.5,135.5 Z"/></g>
<g><path style="opacity:1" fill="#a6a6a6" d="M 73.5,135.5 C 74.8589,136.007 75.8589,137.007 76.5,138.5C 78.0175,137.089 79.3508,137.256 80.5,139C 76.81,139.424 76.6433,140.258 80,141.5C 80.4828,142.448 80.6495,143.448 80.5,144.5C 78.1667,144.5 75.8333,144.5 73.5,144.5C 73.5,141.5 73.5,138.5 73.5,135.5 Z"/></g>
<g><path style="opacity:1" fill="#9e9e9e" d="M 26.5,137.5 C 28.604,137.201 30.604,137.534 32.5,138.5C 30.8955,140.179 30.2289,142.179 30.5,144.5C 27.8806,144.768 25.3806,144.435 23,143.5C 22.3333,141.833 22.3333,140.167 23,138.5C 24.9979,145.051 26.1646,144.717 26.5,137.5 Z"/></g>
<g><path style="opacity:1" fill="#7a7a7a" d="M 9.5,135.5 C 11.2434,137.34 12.9101,138.674 14.5,139.5C 13.846,141.115 13.346,142.782 13,144.5C 12.3623,141.236 11.1957,138.236 9.5,135.5 Z"/></g>
<g><path style="opacity:1" fill="#bbbbbb" d="M 202.5,137.5 C 200.49,139.317 200.157,141.317 201.5,143.5C 200.375,144.014 199.209,144.347 198,144.5C 197.179,141.446 197.345,138.446 198.5,135.5C 199.524,136.853 200.857,137.52 202.5,137.5 Z"/></g>
<g><path style="opacity:1" fill="#868686" d="M 176.5,135.5 C 177.376,135.369 178.043,135.702 178.5,136.5C 179.18,138.889 180.014,141.222 181,143.5C 181.495,141.527 181.662,139.527 181.5,137.5C 183.167,137.5 184.833,137.5 186.5,137.5C 186.662,139.527 186.495,141.527 186,143.5C 184.542,138.406 183.709,138.739 183.5,144.5C 181.334,144.421 179.334,143.754 177.5,142.5C 176.328,142.919 175.328,143.585 174.5,144.5C 174.167,144 173.833,143.5 173.5,143C 174.651,140.535 175.651,138.035 176.5,135.5 Z"/></g>
<g><path style="opacity:1" fill="#6b6b6b" d="M 145.5,135.5 C 147.908,136.315 148.741,137.981 148,140.5C 147.667,139.833 147.333,139.167 147,138.5C 146.667,140.5 146.333,142.5 146,144.5C 145.502,141.518 145.335,138.518 145.5,135.5 Z"/></g>
<g><path style="opacity:1" fill="#c4a8dc" d="M 12.5,108.5 C 20.4762,108.661 28.4762,108.661 36.5,108.5C 36.5,110.167 36.5,111.833 36.5,113.5C 34.323,113.586 32.323,114.253 30.5,115.5C 29.914,115.291 29.414,114.957 29,114.5C 26.6806,117.773 23.514,119.44 19.5,119.5C 19.1137,115.446 16.7804,113.446 12.5,113.5C 12.5,111.833 12.5,110.167 12.5,108.5 Z"/></g>
<g><path style="opacity:1" fill="#e8deed" d="M 44.5,111.5 C 64.178,111.167 83.8446,111.5 103.5,112.5C 99.4822,113.514 95.4822,114.514 91.5,115.5C 79.7863,115.341 67.7863,115.341 55.5,115.5C 52.5,115.333 49.5,115.167 46.5,115C 45.0267,114.29 44.3601,113.124 44.5,111.5 Z"/></g>
<g><path style="opacity:1" fill="#fee1d9" d="M 113.5,87.5 C 110.478,87.804 107.478,88.304 104.5,89C 104.043,89.414 103.709,89.914 103.5,90.5C 88.7985,91.4679 74.1318,92.6345 59.5,94C 46.6599,94.8267 33.9933,94.66 21.5,93.5C 33.0123,93.8281 44.3456,93.4948 55.5,92.5C 68.7723,90.9541 82.1057,90.1208 95.5,90C 98.4568,89.7206 101.123,88.8873 103.5,87.5C 106.999,86.5565 110.332,86.5565 113.5,87.5 Z"/></g>
<g><path style="opacity:1" fill="#fde3dc" d="M 174.5,80.5 C 174.896,83.0444 174.229,85.2111 172.5,87C 154.494,91.5273 136.161,93.194 117.5,92C 116.584,91.7216 115.918,91.2216 115.5,90.5C 124.349,90.8264 133.016,90.493 141.5,89.5C 151.628,89.3824 161.628,88.2158 171.5,86C 172.229,83.9419 173.229,82.1086 174.5,80.5 Z"/></g>
<g><path style="opacity:1" fill="#d76458" d="M 13.5,89.5 C 14.8333,89.5 16.1667,89.5 17.5,89.5C 17.9175,90.2216 18.5842,90.7216 19.5,91C 31.4954,91.4999 43.4954,91.6665 55.5,91.5C 55.5,91.8333 55.5,92.1667 55.5,92.5C 44.3456,93.4948 33.0123,93.8281 21.5,93.5C 18.7458,92.3586 16.0791,91.0252 13.5,89.5 Z"/></g>
<g><path style="opacity:1" fill="#dd8d82" d="M 114.5,87.5 C 123.235,89.4279 132.235,90.0946 141.5,89.5C 133.016,90.493 124.349,90.8264 115.5,90.5C 114.596,89.791 114.263,88.791 114.5,87.5 Z"/></g>
<g><path style="opacity:1" fill="#e59385" d="M 103.5,87.5 C 101.123,88.8873 98.4568,89.7206 95.5,90C 82.1057,90.1208 68.7723,90.9541 55.5,92.5C 55.5,92.1667 55.5,91.8333 55.5,91.5C 56.9587,91.5674 58.2921,91.2341 59.5,90.5C 64.482,89.9466 69.482,89.6133 74.5,89.5C 84.1924,89.0983 93.8591,88.4316 103.5,87.5 Z"/></g>
<g><path style="opacity:1" fill="#cd4c3e" d="M 114.5,87.5 C 114.5,87.1667 114.5,86.8333 114.5,86.5C 123.306,88.3772 132.306,89.0439 141.5,88.5C 141.5,88.8333 141.5,89.1667 141.5,89.5C 132.235,90.0946 123.235,89.4279 114.5,87.5 Z"/></g>
<g><path style="opacity:1" fill="#de5948" d="M 113.5,85.5 C 109.671,84.931 106.337,85.5977 103.5,87.5C 93.8591,88.4316 84.1924,89.0983 74.5,89.5C 83.4779,88.4934 92.4779,86.9934 101.5,85C 105.689,84.1881 109.689,84.3547 113.5,85.5 Z"/></g>
<g><path style="opacity:1" fill="#f8d8ce" d="M 9.5,75.5 C 8.91057,79.9707 9.57723,83.9707 11.5,87.5C 12.5,87.8333 13.1667,88.5 13.5,89.5C 16.0791,91.0252 18.7458,92.3586 21.5,93.5C 17.3509,93.1294 13.3509,92.1294 9.5,90.5C 8.91395,90.7093 8.41395,91.0426 8,91.5C 7.83333,88.8333 7.66667,86.1667 7.5,83.5C 7.52168,80.4098 8.18834,77.7432 9.5,75.5 Z"/></g>
<g><path style="opacity:1" fill="#e58675" d="M 173.5,71.5 C 174.473,73.9479 174.806,76.6146 174.5,79.5C 174.5,79.8333 174.5,80.1667 174.5,80.5C 173.229,82.1086 172.229,83.9419 171.5,86C 161.628,88.2158 151.628,89.3824 141.5,89.5C 141.5,89.1667 141.5,88.8333 141.5,88.5C 147.713,88.0477 153.713,87.0477 159.5,85.5C 161.5,85.5 163.5,85.5 165.5,85.5C 165.5,84.1667 165.5,82.8333 165.5,81.5C 167.099,81.7678 168.432,81.4345 169.5,80.5C 170.822,80.67 171.989,80.3366 173,79.5C 173.029,76.6741 173.195,74.0074 173.5,71.5 Z"/></g>
<g><path style="opacity:1" fill="#e35a47" d="M 169.5,80.5 C 168.432,81.4345 167.099,81.7678 165.5,81.5C 165.5,82.8333 165.5,84.1667 165.5,85.5C 163.5,85.5 161.5,85.5 159.5,85.5C 160.441,83.9505 161.107,82.2838 161.5,80.5C 164.204,79.2857 166.871,79.2857 169.5,80.5 Z"/></g>
<g><path style="opacity:1" fill="#202020" d="M 184.5,70.5 C 186.931,71.6068 187.931,73.6068 187.5,76.5C 187.635,78.808 186.969,80.808 185.5,82.5C 185.791,78.7127 185.457,74.7127 184.5,70.5 Z"/></g>
<g><path style="opacity:1" fill="#c82917" d="M 156.5,68.5 C 161.119,69.3136 165.786,69.6469 170.5,69.5C 171.5,70.1667 172.5,70.8333 173.5,71.5C 173.195,74.0074 173.029,76.6741 173,79.5C 171.989,80.3366 170.822,80.67 169.5,80.5C 166.871,79.2857 164.204,79.2857 161.5,80.5C 163.109,78.3985 163.609,76.0652 163,73.5C 160.772,73.6576 158.605,72.9909 156.5,71.5C 156.5,70.5 156.5,69.5 156.5,68.5 Z"/></g>
<g><path style="opacity:1" fill="#cf0e04" d="M 108.5,69.5 C 108.066,73.9847 107.066,78.318 105.5,82.5C 103.232,81.4557 100.899,81.289 98.5,82C 99.3081,82.3076 99.9747,82.8076 100.5,83.5C 86.3961,84.1315 72.7294,86.4648 59.5,90.5C 58.2921,91.2341 56.9587,91.5674 55.5,91.5C 43.4954,91.6665 31.4954,91.4999 19.5,91C 18.5842,90.7216 17.9175,90.2216 17.5,89.5C 14.4685,84.3358 13.8019,78.8358 15.5,73C 19.6563,72.8155 23.6563,71.9821 27.5,70.5C 31.4013,71.8231 35.4013,72.8231 39.5,73.5C 40.2421,74.2868 41.0754,74.9535 42,75.5C 50.9699,75.0511 59.8032,73.8844 68.5,72C 81.9843,71.6164 95.3176,70.7831 108.5,69.5 Z"/></g>
<g><path style="opacity:1" fill="#cd2d1a" d="M 108.5,67.5 C 108.5,68.1667 108.5,68.8333 108.5,69.5C 95.3176,70.7831 81.9843,71.6164 68.5,72C 59.8032,73.8844 50.9699,75.0511 42,75.5C 41.0754,74.9535 40.2421,74.2868 39.5,73.5C 35.4013,72.8231 31.4013,71.8231 27.5,70.5C 23.6563,71.9821 19.6563,72.8155 15.5,73C 13.8019,78.8358 14.4685,84.3358 17.5,89.5C 16.1667,89.5 14.8333,89.5 13.5,89.5C 13.1667,88.5 12.5,87.8333 11.5,87.5C 11.2477,82.6145 11.581,77.7812 12.5,73C 13.9442,70.9655 15.9442,70.1322 18.5,70.5C 20.1667,70.5 21.8333,70.5 23.5,70.5C 24.7079,69.7659 26.0413,69.4326 27.5,69.5C 30.0284,70.0114 32.5284,70.6781 35,71.5C 38.1431,71.2556 41.3098,70.9223 44.5,70.5C 46.2743,70.8868 47.941,71.5535 49.5,72.5C 50.2164,71.689 51.0497,71.0223 52,70.5C 57.0167,70.1646 61.85,70.4979 66.5,71.5C 69.6404,70.9106 72.6404,70.2439 75.5,69.5C 77.8333,69.5 80.1667,69.5 82.5,69.5C 84.9496,69.702 87.283,69.3686 89.5,68.5C 95.7436,67.5422 102.077,67.2088 108.5,67.5 Z"/></g>
<g><path style="opacity:1" fill="#2c2425" d="M 176.5,79.5 C 177.718,78.8386 179.051,78.1719 180.5,77.5C 176.191,77.223 174.858,75.223 176.5,71.5C 180.269,69.9141 182.269,71.2474 182.5,75.5C 182.195,79.8436 180.195,81.1769 176.5,79.5 Z"/></g>
<g><path style="opacity:1" fill="#e0dfe0" d="M 177.5,72.5 C 178.5,72.5 179.5,72.5 180.5,72.5C 180.5,73.5 180.5,74.5 180.5,75.5C 179.5,75.5 178.5,75.5 177.5,75.5C 177.5,74.5 177.5,73.5 177.5,72.5 Z"/></g>
<g><path style="opacity:1" fill="#e27c6d" d="M 18.5,70.5 C 15.9442,70.1322 13.9442,70.9655 12.5,73C 11.581,77.7812 11.2477,82.6145 11.5,87.5C 9.57723,83.9707 8.91057,79.9707 9.5,75.5C 10.1837,69.6861 13.1837,68.0194 18.5,70.5 Z"/></g>
<g><path style="opacity:1" fill="#d7aca8" d="M 170.5,61.5 C 171.833,61.8333 173.167,62.1667 174.5,62.5C 175.167,62.5 175.5,62.8333 175.5,63.5C 174.254,66.2933 174.587,68.96 176.5,71.5C 174.858,75.223 176.191,77.223 180.5,77.5C 179.051,78.1719 177.718,78.8386 176.5,79.5C 175.833,79.5 175.167,79.5 174.5,79.5C 174.806,76.6146 174.473,73.9479 173.5,71.5C 173.417,67.8242 172.417,64.4908 170.5,61.5 Z"/></g>
<g><path style="opacity:1" fill="#cb1107" d="M 108.5,67.5 C 124.548,67.1967 140.548,67.5301 156.5,68.5C 156.5,69.5 156.5,70.5 156.5,71.5C 158.605,72.9909 160.772,73.6576 163,73.5C 163.609,76.0652 163.109,78.3985 161.5,80.5C 161.107,82.2838 160.441,83.9505 159.5,85.5C 153.713,87.0477 147.713,88.0477 141.5,88.5C 132.306,89.0439 123.306,88.3772 114.5,86.5C 114.5,85.8333 114.167,85.5 113.5,85.5C 109.689,84.3547 105.689,84.1881 101.5,85C 92.4779,86.9934 83.4779,88.4934 74.5,89.5C 69.482,89.6133 64.482,89.9466 59.5,90.5C 72.7294,86.4648 86.3961,84.1315 100.5,83.5C 99.9747,82.8076 99.3081,82.3076 98.5,82C 100.899,81.289 103.232,81.4557 105.5,82.5C 107.066,78.318 108.066,73.9847 108.5,69.5C 108.5,68.8333 108.5,68.1667 108.5,67.5 Z"/></g>
<g><path style="opacity:1" fill="#ea8276" d="M 113.5,85.5 C 114.167,85.5 114.5,85.8333 114.5,86.5C 114.5,86.8333 114.5,87.1667 114.5,87.5C 114.167,87.5 113.833,87.5 113.5,87.5C 110.332,86.5565 106.999,86.5565 103.5,87.5C 106.337,85.5977 109.671,84.931 113.5,85.5 Z"/></g>
<g><path style="opacity:1" fill="#ef6751" d="M 27.5,69.5 C 43.3188,69.2677 59.3188,69.2677 75.5,69.5C 72.6404,70.2439 69.6404,70.9106 66.5,71.5C 61.85,70.4979 57.0167,70.1646 52,70.5C 51.0497,71.0223 50.2164,71.689 49.5,72.5C 47.941,71.5535 46.2743,70.8868 44.5,70.5C 41.3098,70.9223 38.1431,71.2556 35,71.5C 32.5284,70.6781 30.0284,70.0114 27.5,69.5 Z"/></g>
<g><path style="opacity:1" fill="#e17463" d="M 31.5,65.5 C 31.8333,65.5 32.1667,65.5 32.5,65.5C 32.5,66.1667 32.8333,66.5 33.5,66.5C 49.6925,67.2097 66.0258,67.8764 82.5,68.5C 82.5,68.8333 82.5,69.1667 82.5,69.5C 80.1667,69.5 77.8333,69.5 75.5,69.5C 59.3188,69.2677 43.3188,69.2677 27.5,69.5C 26.0413,69.4326 24.7079,69.7659 23.5,70.5C 23.5,69.8333 23.5,69.1667 23.5,68.5C 24.9221,68.2504 25.9221,67.417 26.5,66C 28.1341,65.5065 29.8008,65.3398 31.5,65.5 Z"/></g>
<g><path style="opacity:1" fill="#e96250" d="M 170.5,69.5 C 165.786,69.6469 161.119,69.3136 156.5,68.5C 140.548,67.5301 124.548,67.1967 108.5,67.5C 102.077,67.2088 95.7436,67.5422 89.5,68.5C 104.464,66.5159 119.797,65.8493 135.5,66.5C 145.165,65.8748 154.831,65.7082 164.5,66C 166.758,66.876 168.758,68.0427 170.5,69.5 Z"/></g>
<g><path style="opacity:1" fill="#e29385" d="M 82.5,68.5 C 66.0258,67.8764 49.6925,67.2097 33.5,66.5C 47.5192,66.7626 61.5192,66.4293 75.5,65.5C 77.3749,65.6299 79.2082,65.9633 81,66.5C 82.0299,66.8361 82.5299,67.5028 82.5,68.5 Z"/></g>
<g><path style="opacity:1" fill="#e09388" d="M 88.5,64.5 C 104.166,64.8611 119.833,65.1944 135.5,65.5C 135.5,65.8333 135.5,66.1667 135.5,66.5C 119.797,65.8493 104.464,66.5159 89.5,68.5C 87.283,69.3686 84.9496,69.702 82.5,69.5C 82.5,69.1667 82.5,68.8333 82.5,68.5C 86.2407,69.4015 88.2407,68.0681 88.5,64.5 Z"/></g>
<g><path style="opacity:1" fill="#e37f6e" d="M 158.5,61.5 C 158.842,62.3382 159.508,62.6716 160.5,62.5C 161.449,63.1524 162.615,63.4857 164,63.5C 165.681,63.3917 166.848,62.7251 167.5,61.5C 167.833,61.5 168.167,61.5 168.5,61.5C 169.167,61.5 169.833,61.5 170.5,61.5C 172.417,64.4908 173.417,67.8242 173.5,71.5C 172.5,70.8333 171.5,70.1667 170.5,69.5C 168.758,68.0427 166.758,66.876 164.5,66C 154.831,65.7082 145.165,65.8748 135.5,66.5C 135.5,66.1667 135.5,65.8333 135.5,65.5C 141.31,65.6864 146.977,65.0197 152.5,63.5C 153.959,63.5674 155.292,63.2341 156.5,62.5C 157.167,62.1667 157.833,61.8333 158.5,61.5 Z"/></g>
<g><path style="opacity:1" fill="#e7a79a" d="M 149.5,61.5 C 149.833,61.5 150.167,61.5 150.5,61.5C 151.5,61.8333 152.167,62.5 152.5,63.5C 146.977,65.0197 141.31,65.6864 135.5,65.5C 138.5,64.8333 141.5,64.1667 144.5,63.5C 146.698,63.8799 148.365,63.2132 149.5,61.5 Z"/></g>
<g><path style="opacity:1" fill="#debab1" d="M 33.5,62.5 C 33.3505,63.552 33.5172,64.552 34,65.5C 50.0891,64.5086 66.2558,64.1752 82.5,64.5C 84.5,64.5 86.5,64.5 88.5,64.5C 88.2407,68.0681 86.2407,69.4015 82.5,68.5C 82.5299,67.5028 82.0299,66.8361 81,66.5C 79.2082,65.9633 77.3749,65.6299 75.5,65.5C 61.5192,66.4293 47.5192,66.7626 33.5,66.5C 32.8333,66.5 32.5,66.1667 32.5,65.5C 32.2627,64.209 32.596,63.209 33.5,62.5 Z"/></g>
<g><path style="opacity:1" fill="#f1e8e4" d="M 100.5,53.5 C 101.5,53.5 102.5,53.5 103.5,53.5C 103.5,56.8333 103.5,60.1667 103.5,63.5C 105.903,63.552 108.236,63.2186 110.5,62.5C 111.919,63.4511 113.585,63.7845 115.5,63.5C 115.5,61.8333 115.5,60.1667 115.5,58.5C 116.451,59.9187 116.784,61.5853 116.5,63.5C 117.5,63.5 118.5,63.5 119.5,63.5C 119.579,58.5084 120.579,58.5084 122.5,63.5C 123.425,62.6431 124.092,61.6431 124.5,60.5C 125.167,61.1667 125.833,61.8333 126.5,62.5C 126.842,63.3382 127.508,63.6716 128.5,63.5C 130.099,63.7678 131.432,63.4345 132.5,62.5C 132.675,60.3792 132.341,58.3792 131.5,56.5C 132.5,56.5 133.5,56.5 134.5,56.5C 134.264,58.7156 134.264,60.8823 134.5,63C 137.926,64.2381 139.592,63.0714 139.5,59.5C 140.249,60.531 140.915,61.6976 141.5,63C 142.437,63.6917 143.103,63.525 143.5,62.5C 144.167,62.5 144.5,62.8333 144.5,63.5C 141.5,64.1667 138.5,64.8333 135.5,65.5C 119.833,65.1944 104.166,64.8611 88.5,64.5C 88.5,64.1667 88.5,63.8333 88.5,63.5C 90.632,63.4456 91.9653,62.4456 92.5,60.5C 92.8333,60.5 93.1667,60.5 93.5,60.5C 93.8333,60.5 94.1667,60.5 94.5,60.5C 94.4142,61.4959 94.7476,62.3292 95.5,63C 100.362,64.5845 102.028,63.0845 100.5,58.5C 95.1625,56.5362 95.1625,55.8695 100.5,56.5C 101.562,55.5754 101.562,54.5754 100.5,53.5 Z"/></g>
<g><path style="opacity:1" fill="#ede6e3" d="M 74.5,53.5 C 73.4309,56.408 73.2642,59.408 74,62.5C 76.4141,63.8557 78.5807,63.5224 80.5,61.5C 80.7822,62.7777 81.4489,63.7777 82.5,64.5C 66.2558,64.1752 50.0891,64.5086 34,65.5C 33.5172,64.552 33.3505,63.552 33.5,62.5C 33.44,61.9569 33.1067,61.6236 32.5,61.5C 31.5713,62.6888 31.238,64.0222 31.5,65.5C 29.8008,65.3398 28.1341,65.5065 26.5,66C 25.9221,67.417 24.9221,68.2504 23.5,68.5C 20.9391,66.9065 17.9391,65.9065 14.5,65.5C 18.6475,64.833 22.6475,64.1663 26.5,63.5C 29.9868,62.5554 31.3201,60.2221 30.5,56.5C 31.1614,57.7175 31.8281,59.0508 32.5,60.5C 33.1757,59.3984 33.8423,58.3984 34.5,57.5C 35.4058,64.0502 38.0725,65.0502 42.5,60.5C 42.8333,63.1667 43.1667,63.1667 43.5,60.5C 47.2417,64.8987 49.9084,64.232 51.5,58.5C 51.1543,57.1508 50.821,55.8175 50.5,54.5C 51.5,54.5 52.5,54.5 53.5,54.5C 52.4634,56.7375 52.2967,59.0709 53,61.5C 54.6779,63.5532 56.5112,63.8866 58.5,62.5C 60.8333,63.8333 63.1667,63.8333 65.5,62.5C 67.4888,63.8866 69.3221,63.5532 71,61.5C 71.7033,59.0709 71.5366,56.7375 70.5,54.5C 71.7498,54.4226 72.5831,53.756 73,52.5C 73.3826,53.056 73.8826,53.3893 74.5,53.5 Z"/></g>
<g><path style="opacity:1" fill="#322222" d="M 33.5,62.5 C 32.596,63.209 32.2627,64.209 32.5,65.5C 32.1667,65.5 31.8333,65.5 31.5,65.5C 31.238,64.0222 31.5713,62.6888 32.5,61.5C 33.1067,61.6236 33.44,61.9569 33.5,62.5 Z"/></g>
<g><path style="opacity:1" fill="#b58b82" d="M 167.5,55.5 C 167.065,57.2967 167.065,59.2967 167.5,61.5C 166.848,62.7251 165.681,63.3917 164,63.5C 162.615,63.4857 161.449,63.1524 160.5,62.5C 160.5,62.1667 160.5,61.8333 160.5,61.5C 162.048,61.1788 162.715,60.1788 162.5,58.5C 163.268,59.2625 163.768,60.2625 164,61.5C 164.494,59.8659 164.66,58.1992 164.5,56.5C 165.391,55.8902 166.391,55.5569 167.5,55.5 Z"/></g>
<g><path style="opacity:1" fill="#8c8c8c" d="M 132.5,62.5 C 131.432,63.4345 130.099,63.7678 128.5,63.5C 128.586,62.5041 128.252,61.6708 127.5,61C 128.5,60.3333 129.5,60.3333 130.5,61C 130.167,61.3333 129.833,61.6667 129.5,62C 130.448,62.4828 131.448,62.6495 132.5,62.5 Z"/></g>
<g><path style="opacity:1" fill="#353535" d="M 180.5,55.5 C 182.144,55.2865 183.644,55.6198 185,56.5C 185.758,58.7695 185.591,60.9361 184.5,63C 182.888,63.7203 181.388,63.5536 180,62.5C 179.297,60.0709 179.463,57.7375 180.5,55.5 Z"/></g>
<g><path style="opacity:1" fill="#2f2e2e" d="M 123.5,56.5 C 124.239,56.369 124.906,56.5357 125.5,57C 124.663,58.0113 124.33,59.1779 124.5,60.5C 124.092,61.6431 123.425,62.6431 122.5,63.5C 120.579,58.5084 119.579,58.5084 119.5,63.5C 118.5,63.5 117.5,63.5 116.5,63.5C 116.784,61.5853 116.451,59.9187 115.5,58.5C 115.369,57.6236 115.702,56.9569 116.5,56.5C 117.251,57.376 117.751,58.376 118,59.5C 119.55,55.6358 121.05,55.6358 122.5,59.5C 123.386,58.675 123.719,57.675 123.5,56.5 Z"/></g>
<g><path style="opacity:1" fill="#1f1d1b" d="M 87.5,60.5 C 88.5,61.8333 89.5,61.8333 90.5,60.5C 91.3091,58.7078 91.8091,56.7078 92,54.5C 92.4955,56.4727 92.6621,58.4727 92.5,60.5C 91.9653,62.4456 90.632,63.4456 88.5,63.5C 86.9731,63.573 85.9731,62.9063 85.5,61.5C 85.3367,59.1432 85.5034,56.8098 86,54.5C 86.1909,56.7078 86.6909,58.7078 87.5,60.5 Z"/></g>
<g><path style="opacity:1" fill="#a9a8a9" d="M 59.5,56.5 C 60.4345,57.5676 60.7678,58.901 60.5,60.5C 61.5,60.5 62.5,60.5 63.5,60.5C 63.2322,58.901 63.5655,57.5676 64.5,56.5C 64.3253,58.6208 64.6586,60.6208 65.5,62.5C 63.1667,63.8333 60.8333,63.8333 58.5,62.5C 59.3414,60.6208 59.6747,58.6208 59.5,56.5 Z"/></g>
<g><path style="opacity:1" fill="#2d2d2c" d="M 30.5,56.5 C 31.3201,60.2221 29.9868,62.5554 26.5,63.5C 25.5041,63.5858 24.6708,63.2524 24,62.5C 23.3333,59.8333 23.3333,57.1667 24,54.5C 26.8601,52.9233 29.0268,53.5899 30.5,56.5 Z"/></g>
<g><path style="opacity:1" fill="#2e2e2e" d="M 50.5,54.5 C 50.821,55.8175 51.1543,57.1508 51.5,58.5C 49.9084,64.232 47.2417,64.8987 43.5,60.5C 42.8949,54.7602 45.2282,52.7602 50.5,54.5 Z"/></g>
<g><path style="opacity:1" fill="#343434" d="M 42.5,60.5 C 38.0725,65.0502 35.4058,64.0502 34.5,57.5C 35.1284,54.0451 37.1284,52.8785 40.5,54C 42.229,55.7889 42.8957,57.9556 42.5,60.5 Z"/></g>
<g><path style="opacity:1" fill="#3a3a3a" d="M 15.5,53.5 C 22.1546,53.5971 23.1546,56.0971 18.5,61C 19.624,61.2492 20.624,61.7492 21.5,62.5C 19.1667,63.8333 16.8333,63.8333 14.5,62.5C 16.1667,60.5 17.8333,58.5 19.5,56.5C 17.8918,55.7579 16.2251,55.5913 14.5,56C 15.2524,55.3292 15.5858,54.4959 15.5,53.5 Z"/></g>
<g><path style="opacity:1" fill="#a6a5a6" d="M 123.5,56.5 C 126.167,55.1667 128.833,55.1667 131.5,56.5C 127.107,56.4568 126.774,56.9568 130.5,58C 129.437,59.1882 128.103,59.6882 126.5,59.5C 126.5,60.5 126.5,61.5 126.5,62.5C 125.833,61.8333 125.167,61.1667 124.5,60.5C 124.33,59.1779 124.663,58.0113 125.5,57C 124.906,56.5357 124.239,56.369 123.5,56.5 Z"/></g>
<g><path style="opacity:1" fill="#232222" d="M 70.5,54.5 C 71.5366,56.7375 71.7033,59.0709 71,61.5C 69.3221,63.5532 67.4888,63.8866 65.5,62.5C 64.6586,60.6208 64.3253,58.6208 64.5,56.5C 65.7328,53.5509 67.7328,52.8842 70.5,54.5 Z"/></g>
<g><path style="opacity:1" fill="#eeeeee" d="M 181.5,57.5 C 182.586,57.62 183.253,58.2867 183.5,59.5C 183.167,60.1667 182.833,60.8333 182.5,61.5C 181.571,60.3112 181.238,58.9778 181.5,57.5 Z"/></g>
<g><path style="opacity:1" fill="#c0b4b1" d="M 164.5,56.5 C 162.5,56.5 160.5,56.5 158.5,56.5C 158.5,58.1667 158.5,59.8333 158.5,61.5C 157.833,61.8333 157.167,62.1667 156.5,62.5C 155.391,61.71 154.058,61.21 152.5,61C 154.134,60.5065 155.801,60.3398 157.5,60.5C 157.567,59.0413 157.234,57.7079 156.5,56.5C 159.272,55.2329 161.939,55.2329 164.5,56.5 Z"/></g>
<g><path style="opacity:1" fill="#3e3330" d="M 156.5,56.5 C 157.234,57.7079 157.567,59.0413 157.5,60.5C 155.801,60.3398 154.134,60.5065 152.5,61C 154.058,61.21 155.391,61.71 156.5,62.5C 155.292,63.2341 153.959,63.5674 152.5,63.5C 152.167,62.5 151.5,61.8333 150.5,61.5C 150.228,56.7561 152.228,55.0894 156.5,56.5 Z"/></g>
<g><path style="opacity:1" fill="#373635" d="M 100.5,53.5 C 101.562,54.5754 101.562,55.5754 100.5,56.5C 95.1625,55.8695 95.1625,56.5362 100.5,58.5C 102.028,63.0845 100.362,64.5845 95.5,63C 94.7476,62.3292 94.4142,61.4959 94.5,60.5C 96.2385,61.4339 97.9052,61.4339 99.5,60.5C 97.2173,59.8652 95.5507,58.5318 94.5,56.5C 94.6082,55.5581 94.9415,54.7247 95.5,54C 97.1341,53.5065 98.8008,53.3398 100.5,53.5 Z"/></g>
<g><path style="opacity:1" fill="#d4d4d4" d="M 66.5,55.5 C 67.5,55.5 68.5,55.5 69.5,55.5C 69.5,57.5 69.5,59.5 69.5,61.5C 65.5564,61.1156 64.5564,59.1156 66.5,55.5 Z"/></g>
<g><path style="opacity:1" fill="#271a18" d="M 164.5,56.5 C 164.66,58.1992 164.494,59.8659 164,61.5C 163.768,60.2625 163.268,59.2625 162.5,58.5C 162.44,57.9569 162.107,57.6236 161.5,57.5C 160.571,58.6888 160.238,60.0222 160.5,61.5C 160.5,61.8333 160.5,62.1667 160.5,62.5C 159.508,62.6716 158.842,62.3382 158.5,61.5C 158.5,59.8333 158.5,58.1667 158.5,56.5C 160.5,56.5 162.5,56.5 164.5,56.5 Z"/></g>
<g><path style="opacity:1" fill="#f2dfdb" d="M 162.5,58.5 C 162.715,60.1788 162.048,61.1788 160.5,61.5C 160.238,60.0222 160.571,58.6888 161.5,57.5C 162.107,57.6236 162.44,57.9569 162.5,58.5 Z"/></g>
<g><path style="opacity:1" fill="#413a37" d="M 149.5,61.5 C 148.365,63.2132 146.698,63.8799 144.5,63.5C 144.5,62.8333 144.167,62.5 143.5,62.5C 144.38,60.6112 144.38,58.6112 143.5,56.5C 145.199,56.3398 146.866,56.5065 148.5,57C 147.5,57.3333 146.5,57.6667 145.5,58C 147.319,58.7403 148.652,59.9069 149.5,61.5 Z"/></g>
<g><path style="opacity:1" fill="#323131" d="M 74.5,53.5 C 79.8155,53.4974 81.8155,56.164 80.5,61.5C 78.5807,63.5224 76.4141,63.8557 74,62.5C 73.2642,59.408 73.4309,56.408 74.5,53.5 Z"/></g>
<g><path style="opacity:1" fill="#e7e6e6" d="M 75.5,55.5 C 76.5,55.5 77.5,55.5 78.5,55.5C 78.5,57.5 78.5,59.5 78.5,61.5C 77.5,61.5 76.5,61.5 75.5,61.5C 75.5,59.5 75.5,57.5 75.5,55.5 Z"/></g>
<g><path style="opacity:1" fill="#ebebeb" d="M 37.5,55.5 C 38.6935,55.9704 39.3601,56.9704 39.5,58.5C 38.7092,62.2846 37.7092,62.2846 36.5,58.5C 36.685,57.4163 37.0183,56.4163 37.5,55.5 Z"/></g>
<g><path style="opacity:1" fill="#e7e8e8" d="M 25.5,55.5 C 26.5,55.5 27.5,55.5 28.5,55.5C 28.5,57.5 28.5,59.5 28.5,61.5C 27.5,61.5 26.5,61.5 25.5,61.5C 25.5,59.5 25.5,57.5 25.5,55.5 Z"/></g>
<g><path style="opacity:1" fill="#363636" d="M 175.5,63.5 C 175.5,62.8333 175.167,62.5 174.5,62.5C 174.5,59.8333 174.5,57.1667 174.5,54.5C 178.789,54.7442 179.456,56.4109 176.5,59.5C 176.919,60.6721 177.585,61.6721 178.5,62.5C 177.675,63.3857 176.675,63.719 175.5,63.5 Z"/></g>
<g><path style="opacity:1" fill="#0f0908" d="M 168.5,61.5 C 168.167,61.5 167.833,61.5 167.5,61.5C 167.065,59.2967 167.065,57.2967 167.5,55.5C 167.435,55.0618 167.601,54.7284 168,54.5C 169.113,56.592 169.279,58.9253 168.5,61.5 Z"/></g>
<g><path style="opacity:1" fill="#4b4b4a" d="M 139.5,59.5 C 139.592,63.0714 137.926,64.2381 134.5,63C 134.264,60.8823 134.264,58.7156 134.5,56.5C 135.601,55.4017 136.934,55.235 138.5,56C 139.08,57.3349 139.413,58.5015 139.5,59.5 Z"/></g>
<g><path style="opacity:1" fill="#201f1f" d="M 131.5,56.5 C 132.341,58.3792 132.675,60.3792 132.5,62.5C 131.448,62.6495 130.448,62.4828 129.5,62C 129.833,61.6667 130.167,61.3333 130.5,61C 129.5,60.3333 128.5,60.3333 127.5,61C 128.252,61.6708 128.586,62.5041 128.5,63.5C 127.508,63.6716 126.842,63.3382 126.5,62.5C 126.5,61.5 126.5,60.5 126.5,59.5C 128.103,59.6882 129.437,59.1882 130.5,58C 126.774,56.9568 127.107,56.4568 131.5,56.5 Z"/></g>
<g><path style="opacity:1" fill="#6f706d" d="M 93.5,60.5 C 93.1667,60.5 92.8333,60.5 92.5,60.5C 92.6621,58.4727 92.4955,56.4727 92,54.5C 91.8091,56.7078 91.3091,58.7078 90.5,60.5C 90.5,58.1667 90.5,55.8333 90.5,53.5C 91.5,53.5 92.5,53.5 93.5,53.5C 93.5,55.8333 93.5,58.1667 93.5,60.5 Z"/></g>
<g><path style="opacity:1" fill="#2e2e2e" d="M 59.5,56.5 C 59.6747,58.6208 59.3414,60.6208 58.5,62.5C 56.5112,63.8866 54.6779,63.5532 53,61.5C 52.2967,59.0709 52.4634,56.7375 53.5,54.5C 56.2672,52.8842 58.2672,53.5509 59.5,56.5 Z"/></g>
<g><path style="opacity:1" fill="#ededed" d="M 54.5,55.5 C 55.5,55.5 56.5,55.5 57.5,55.5C 57.5,57.5 57.5,59.5 57.5,61.5C 56.5,61.5 55.5,61.5 54.5,61.5C 54.5,59.5 54.5,57.5 54.5,55.5 Z"/></g>
<g><path style="opacity:1" fill="#dcdcdc" d="M 45.5,55.5 C 49.0714,55.4077 50.2381,57.0743 49,60.5C 48,61.8333 47,61.8333 46,60.5C 45.5065,58.8659 45.3398,57.1992 45.5,55.5 Z"/></g>
<g><path style="opacity:1" fill="#2b2a2b" d="M 103.5,53.5 C 110.718,52.7167 113.051,55.7167 110.5,62.5C 108.236,63.2186 105.903,63.552 103.5,63.5C 103.5,60.1667 103.5,56.8333 103.5,53.5 Z"/></g>
<g><path style="opacity:1" fill="#ebebeb" d="M 105.5,55.5 C 109.35,55.7007 110.35,57.5341 108.5,61C 107.552,61.4828 106.552,61.6495 105.5,61.5C 105.5,59.5 105.5,57.5 105.5,55.5 Z"/></g>
<g><path style="opacity:1" fill="#858584" d="M 87.5,60.5 C 86.6909,58.7078 86.1909,56.7078 86,54.5C 85.5034,56.8098 85.3367,59.1432 85.5,61.5C 84.5269,59.0521 84.1936,56.3854 84.5,53.5C 85.5,53.5 86.5,53.5 87.5,53.5C 87.5,55.8333 87.5,58.1667 87.5,60.5 Z"/></g>
<g><path style="opacity:1" fill="#fde1cf" d="M 124.5,35.5 C 124.082,36.2216 123.416,36.7216 122.5,37C 114.165,37.4805 105.832,37.9805 97.5,38.5C 94.6445,38.4975 91.9779,38.1641 89.5,37.5C 101.194,37.2066 112.86,36.5399 124.5,35.5 Z"/></g>
<g><path style="opacity:1" fill="#d98464" d="M 117.5,34.5 C 118.167,34.5 118.833,34.5 119.5,34.5C 121.167,34.5 122.833,34.5 124.5,34.5C 124.5,34.8333 124.5,35.1667 124.5,35.5C 112.86,36.5399 101.194,37.2066 89.5,37.5C 88.8333,36.8333 88.1667,36.1667 87.5,35.5C 97.6806,35.8274 107.681,35.494 117.5,34.5 Z"/></g>
<g><path style="opacity:1" fill="#c42908" d="M 95.5,21.5 C 100.833,21.5 106.167,21.5 111.5,21.5C 114.167,22.1667 116.833,22.8333 119.5,23.5C 119.5,27.1667 119.5,30.8333 119.5,34.5C 118.833,34.5 118.167,34.5 117.5,34.5C 108.161,34.6665 98.8274,34.4998 89.5,34C 88.2986,33.0975 87.4652,31.9308 87,30.5C 86.502,27.5184 86.3354,24.5184 86.5,21.5C 89.5,21.5 92.5,21.5 95.5,21.5 Z"/></g>
<g><path style="opacity:1" fill="#c75731" d="M 95.5,19.5 C 95.5,20.1667 95.5,20.8333 95.5,21.5C 92.5,21.5 89.5,21.5 86.5,21.5C 86.3354,24.5184 86.502,27.5184 87,30.5C 87.4652,31.9308 88.2986,33.0975 89.5,34C 98.8274,34.4998 108.161,34.6665 117.5,34.5C 107.681,35.494 97.6806,35.8274 87.5,35.5C 84.1741,30.8542 83.6741,25.8542 86,20.5C 89.0567,19.5495 92.2234,19.2161 95.5,19.5 Z"/></g>
<g><path style="opacity:1" fill="#e3c8ba" d="M 95.5,19.5 C 92.2234,19.2161 89.0567,19.5495 86,20.5C 83.6741,25.8542 84.1741,30.8542 87.5,35.5C 85.1701,33.7574 82.5034,32.4241 79.5,31.5C 77.6528,27.5804 78.8194,24.9137 83,23.5C 83.121,21.2729 83.9544,19.4396 85.5,18C 89.0708,17.5518 92.4041,18.0518 95.5,19.5 Z"/></g>
<g><path style="opacity:1" fill="#d0d0d0" d="M 70.5,25.5 C 72.924,25.1924 75.2573,25.5258 77.5,26.5C 76.675,27.3857 75.675,27.719 74.5,27.5C 74.4042,31.3107 73.7376,31.3107 72.5,27.5C 71.7189,28.7287 71.2189,30.062 71,31.5C 69.3745,31.1459 67.5412,31.1459 65.5,31.5C 65.3601,29.8762 66.0267,28.7096 67.5,28C 66.8333,27.6667 66.1667,27.3333 65.5,27C 67.3817,26.8019 69.0484,26.3019 70.5,25.5 Z"/></g>
<g><path style="opacity:1" fill="#df7242" d="M 119.5,23.5 C 119.833,23.5 120.167,23.5 120.5,23.5C 121.531,24.2485 122.698,24.9152 124,25.5C 124.498,28.4816 124.665,31.4816 124.5,34.5C 122.833,34.5 121.167,34.5 119.5,34.5C 119.5,30.8333 119.5,27.1667 119.5,23.5 Z"/></g>
<g><path style="opacity:1" fill="#f4d2bd" d="M 111.5,21.5 C 116.833,21.5 122.167,21.5 127.5,21.5C 127.666,25.8461 127.499,30.1794 127,34.5C 126.329,35.2524 125.496,35.5858 124.5,35.5C 124.5,35.1667 124.5,34.8333 124.5,34.5C 126.217,31.1552 126.884,27.4885 126.5,23.5C 124.5,23.5 122.5,23.5 120.5,23.5C 120.167,23.5 119.833,23.5 119.5,23.5C 116.833,22.8333 114.167,22.1667 111.5,21.5 Z"/></g>
<g><path style="opacity:1" fill="#d89370" d="M 120.5,23.5 C 122.5,23.5 124.5,23.5 126.5,23.5C 126.884,27.4885 126.217,31.1552 124.5,34.5C 124.665,31.4816 124.498,28.4816 124,25.5C 122.698,24.9152 121.531,24.2485 120.5,23.5 Z"/></g>
<g><path style="opacity:1" fill="#c0c0c0" d="M 57.5,26.5 C 59.8333,26.5 62.1667,26.5 64.5,26.5C 64.6534,32.3239 63.9867,32.6572 62.5,27.5C 61.7189,28.7287 61.2189,30.062 61,31.5C 60,26.1667 59,26.1667 58,31.5C 57.5065,29.8659 57.3398,28.1992 57.5,26.5 Z"/></g>
<g><path style="opacity:1" fill="#6e706e" d="M 45.5,24.5 C 47.6102,26.3276 48.4435,28.6609 48,31.5C 46.6667,28.8333 45.3333,28.8333 44,31.5C 43.3911,28.9348 43.8911,26.6015 45.5,24.5 Z"/></g>
<g><path style="opacity:1" fill="#9b9ca6" d="M 22.5,9.5 C 33.3532,9.51748 37.8532,14.8508 36,25.5C 32.8672,31.3265 28.0339,33.4932 21.5,32C 15.0919,28.6772 12.9252,23.5105 15,16.5C 16.7424,13.2543 19.2424,10.921 22.5,9.5 Z"/></g>
<g><path style="opacity:1" fill="#686868" d="M 53.5,14.5 C 54.5417,13.2089 55.7083,13.2089 57,14.5C 57.4935,16.1341 57.6602,17.8008 57.5,19.5C 52.0798,19.5126 51.4131,18.0126 55.5,15C 54.9056,14.5357 54.2389,14.369 53.5,14.5 Z"/></g>
<g><path style="opacity:1" fill="#cecece" d="M 202.5,12.5 C 204.584,13.2483 206.584,13.2483 208.5,12.5C 209.641,14.4213 209.808,16.4213 209,18.5C 207.884,13.4269 206.717,13.5936 205.5,19C 204.5,19.6667 203.5,19.6667 202.5,19C 201.232,16.8368 201.232,14.6702 202.5,12.5 Z"/></g>
<g><path style="opacity:1" fill="#5d5d5d" d="M 65.5,13.5 C 70.6519,14.6396 70.6519,15.8063 65.5,17C 66.5719,18.2837 67.9052,18.6171 69.5,18C 64.7576,20.0644 63.4243,18.5644 65.5,13.5 Z"/></g>
<g><path style="opacity:1" fill="#444545" d="M 58.5,13.5 C 60.1667,13.5 61.8333,13.5 63.5,13.5C 63.6534,19.3239 62.9867,19.6572 61.5,14.5C 60.0295,15.3805 59.1962,16.7139 59,18.5C 58.5065,16.8659 58.3398,15.1992 58.5,13.5 Z"/></g>
<g><path style="opacity:1" fill="#515151" d="M 43.5,11.5 C 45.1992,11.3398 46.8659,11.5065 48.5,12C 49.0219,12.5613 49.3552,13.228 49.5,14C 48.1813,15.7542 46.5147,17.2542 44.5,18.5C 43.5258,16.2573 43.1924,13.924 43.5,11.5 Z"/></g>
<g><path style="opacity:1" fill="#efefef" d="M 45.5,13.5 C 47.337,13.6395 47.6704,14.3061 46.5,15.5C 45.7025,15.0431 45.3691,14.3764 45.5,13.5 Z"/></g>
<g><path style="opacity:1" fill="#adadad" d="M 181.5,171.5 C 184.211,172.222 186.877,172.555 189.5,172.5C 190.485,174.098 190.651,175.765 190,177.5C 186.512,177.274 183.012,177.941 179.5,179.5C 179.167,179.167 178.833,178.833 178.5,178.5C 180.253,176.49 181.253,174.157 181.5,171.5 Z"/></g>
<g><path style="opacity:1" fill="#a5a5a5" d="M 32.5,172.5 C 33.9464,171.387 35.6131,171.22 37.5,172C 36.8875,174.147 36.2208,176.314 35.5,178.5C 35.0358,176.025 34.0358,174.025 32.5,172.5 Z"/></g>
<g><path style="opacity:1" fill="#a1a1a1" d="M 113.5,173.5 C 115.911,173.137 117.411,174.137 118,176.5C 118.483,175.552 118.649,174.552 118.5,173.5C 121.91,173.384 123.244,175.05 122.5,178.5C 119.193,178.063 116.193,178.73 113.5,180.5C 112.286,178.141 112.286,175.808 113.5,173.5 Z"/></g>
<g><path style="opacity:1" fill="#999999" d="M 171.5,177.5 C 168.977,177.492 166.311,177.659 163.5,178C 162.027,175.392 162.527,173.225 165,171.5C 166.261,171.759 167.261,172.426 168,173.5C 169.667,170.833 171.333,170.833 173,173.5C 174.079,171.606 175.413,171.273 177,172.5C 177.495,174.473 177.662,176.473 177.5,178.5C 175.435,178.483 173.435,178.15 171.5,177.5 Z"/></g>
<g><path style="opacity:1" fill="#f0f0f0" d="M 171.5,177.5 C 170.414,177.38 169.747,176.713 169.5,175.5C 169.833,174.833 170.167,174.167 170.5,173.5C 171.429,174.689 171.762,176.022 171.5,177.5 Z"/></g>
<g><path style="opacity:1" fill="#ededed" d="M 174.5,173.5 C 175.586,173.62 176.253,174.287 176.5,175.5C 176.167,176.167 175.833,176.833 175.5,177.5C 174.571,176.311 174.238,174.978 174.5,173.5 Z"/></g>
<g><path style="opacity:1" fill="#7c7c7c" d="M 11.5,173.5 C 11.56,172.957 11.8933,172.624 12.5,172.5C 14.124,173.869 14.624,175.536 14,177.5C 12.4126,176.273 11.0793,176.606 10,178.5C 9.33333,177.5 9.33333,176.5 10,175.5C 10.9195,175.07 11.7528,174.736 12.5,174.5C 12.3764,173.893 12.0431,173.56 11.5,173.5 Z"/></g>
<g><path style="opacity:1" fill="#929292" d="M 38.5,173.5 C 40.5273,173.338 42.5273,173.505 44.5,174C 45.7472,175.494 45.7472,176.994 44.5,178.5C 44.1667,177.833 43.8333,177.167 43.5,176.5C 42.8076,177.025 42.3076,177.692 42,178.5C 41,173.167 40,173.167 39,178.5C 38.5065,176.866 38.3398,175.199 38.5,173.5 Z"/></g>
<g><path style="opacity:1" fill="#7c7c7c" d="M 62.5,171.5 C 68.3239,171.347 68.6572,172.013 63.5,173.5C 67.3107,174.738 67.3107,175.404 63.5,175.5C 63.6495,176.552 63.4828,177.552 63,178.5C 62.5034,176.19 62.3367,173.857 62.5,171.5 Z"/></g>
<g><path style="opacity:1" fill="#a3a3a3" d="M 100.5,173.5 C 103.608,174.281 106.608,174.614 109.5,174.5C 108.242,173.984 107.242,174.65 106.5,176.5C 107.376,177.251 108.376,177.751 109.5,178C 109.167,178.333 108.833,178.667 108.5,179C 106.893,178.981 105.226,178.815 103.5,178.5C 103.388,173.407 102.555,173.407 101,178.5C 100.506,176.866 100.34,175.199 100.5,173.5 Z"/></g>
<g><path style="opacity:1" fill="#9f9f9f" d="M 193.5,172.5 C 194.999,173.678 195.999,175.345 196.5,177.5C 197.97,171.041 198.637,171.374 198.5,178.5C 194.092,178.938 192.425,176.938 193.5,172.5 Z"/></g>
<g><path style="opacity:1" fill="#a6a6a6" d="M 15.5,173.5 C 18.089,174.127 20.589,174.127 23,173.5C 26.4898,175.016 26.3231,176.182 22.5,177C 23.1667,177.333 23.8333,177.667 24.5,178C 22.8876,178.72 21.3876,178.554 20,177.5C 18.324,178.061 16.9906,179.061 16,180.5C 15.5034,178.19 15.3367,175.857 15.5,173.5 Z"/></g>
<g><path style="opacity:1" fill="#828282" d="M 28.5,173.5 C 28.5811,175.052 28.7478,176.719 29,178.5C 27.9916,178.018 26.825,177.852 25.5,178C 26.2225,176.249 27.2225,174.749 28.5,173.5 Z"/></g>
<g><path style="opacity:1" fill="#929292" d="M 49.5,172.5 C 50.4614,174.265 50.7947,176.265 50.5,178.5C 49.1667,178.5 47.8333,178.5 46.5,178.5C 46.5,176.833 46.5,175.167 46.5,173.5C 47.791,173.737 48.791,173.404 49.5,172.5 Z"/></g>
<g><path style="opacity:1" fill="#9c9c9c" d="M 81.5,172.5 C 82.4614,174.265 82.7947,176.265 82.5,178.5C 80.4588,178.146 78.6255,178.146 77,178.5C 75.4451,173.407 74.6118,173.407 74.5,178.5C 72.1667,178.5 69.8333,178.5 67.5,178.5C 67.3309,173.959 67.9975,173.626 69.5,177.5C 70.4287,176.311 70.762,174.978 70.5,173.5C 73.3646,173.055 75.8646,173.722 78,175.5C 78.985,174.186 80.1516,173.186 81.5,172.5 Z"/></g>
<g><path style="opacity:1" fill="#797979" d="M 85.5,173.5 C 86.8333,173.5 88.1667,173.5 89.5,173.5C 89.6534,179.324 88.9867,179.657 87.5,174.5C 86.0133,179.657 85.3466,179.324 85.5,173.5 Z"/></g>
<g><path style="opacity:1" fill="#9a9a9a" d="M 128.5,172.5 C 129.461,174.265 129.795,176.265 129.5,178.5C 127.459,178.146 125.626,178.146 124,178.5C 123.833,177.833 123.667,177.167 123.5,176.5C 124.662,174.462 126.328,173.128 128.5,172.5 Z"/></g>
<g><path style="opacity:1" fill="#868686" d="M 132.5,173.5 C 133.741,175.931 134.908,175.931 136,173.5C 136.453,176.309 135.62,178.642 133.5,180.5C 133.528,178.415 133.195,176.081 132.5,173.5 Z"/></g>
<g><path style="opacity:1" fill="#737373" d="M 142.5,173.5 C 143.835,178.535 145.001,178.535 146,173.5C 146.494,175.134 146.66,176.801 146.5,178.5C 145.167,178.5 143.833,178.5 142.5,178.5C 142.5,176.833 142.5,175.167 142.5,173.5 Z"/></g>
<g><path style="opacity:1" fill="#b7b7b7" d="M 158.5,177.5 C 157.458,178.791 156.292,178.791 155,177.5C 148.409,180.054 147.909,178.887 153.5,174C 152.551,173.383 151.718,173.549 151,174.5C 150.517,173.552 150.351,172.552 150.5,171.5C 153.209,172.483 155.876,172.65 158.5,172C 159.807,173.943 159.807,175.777 158.5,177.5 Z"/></g>
<g><path style="opacity:1" fill="#ebebeb" d="M 158.5,177.5 C 157.414,177.38 156.747,176.713 156.5,175.5C 156.833,174.833 157.167,174.167 157.5,173.5C 158.429,174.689 158.762,176.022 158.5,177.5 Z"/></g>
<g><path style="opacity:1" fill="#969696" d="M 52.5,173.5 C 54.3307,174.052 55.9974,174.052 57.5,173.5C 58.0522,175.003 58.0522,176.669 57.5,178.5C 55.5,178.5 53.5,178.5 51.5,178.5C 51.366,176.708 51.6993,175.042 52.5,173.5 Z"/></g>
<g><path style="opacity:1" fill="#919191" d="M 138.5,173.5 C 139.5,173.5 140.5,173.5 141.5,173.5C 141.5,175.167 141.5,176.833 141.5,178.5C 140.167,178.5 138.833,178.5 137.5,178.5C 137.366,176.708 137.699,175.042 138.5,173.5 Z"/></g>
<g><path style="opacity:1" fill="#a5a5a5" d="M 199.5,172.5 C 200.978,172.238 202.311,172.571 203.5,173.5C 202.738,173.911 201.738,174.077 200.5,174C 203.806,175.544 204.14,177.378 201.5,179.5C 200.5,179.167 199.833,178.5 199.5,177.5C 200.052,175.997 200.052,174.331 199.5,172.5 Z"/></g>
<g><path style="opacity:1" fill="#838383" d="M 204.5,172.5 C 208.908,172.062 210.575,174.062 209.5,178.5C 207.833,178.5 206.167,178.5 204.5,178.5C 204.5,176.5 204.5,174.5 204.5,172.5 Z"/></g>
<g><path style="opacity:1" fill="#eeeeee" d="M 205.5,173.5 C 207.912,173.694 208.912,175.027 208.5,177.5C 207.5,177.5 206.5,177.5 205.5,177.5C 205.5,176.167 205.5,174.833 205.5,173.5 Z"/></g>
<g><path style="opacity:1" fill="#777777" d="M 90.5,174.5 C 91.7942,178.223 92.9609,178.223 94,174.5C 94.4955,176.473 94.6621,178.473 94.5,180.5C 90.1074,180.543 89.7741,180.043 93.5,179C 92.552,178.517 91.552,178.351 90.5,178.5C 90.5,177.167 90.5,175.833 90.5,174.5 Z"/></g>
<g><path style="opacity:1" fill="#7b7b7b" d="M 180.5,188.5 C 181.833,188.5 183.167,188.5 184.5,188.5C 184.653,194.324 183.987,194.657 182.5,189.5C 181.013,194.657 180.347,194.324 180.5,188.5 Z"/></g>
<g><path style="opacity:1" fill="#939393" d="M 28.5,186.5 C 31.9496,185.756 33.6162,187.09 33.5,190.5C 32.1667,190.5 30.8333,190.5 29.5,190.5C 29.6495,191.552 29.4828,192.552 29,193.5C 28.5034,191.19 28.3367,188.857 28.5,186.5 Z"/></g>
<g><path style="opacity:1" fill="#868687" d="M 81.5,188.5 C 81.5,190.167 81.5,191.833 81.5,193.5C 80.1667,193.5 78.8333,193.5 77.5,193.5C 77.719,192.325 77.3857,191.325 76.5,190.5C 75.5832,191.127 74.5832,191.461 73.5,191.5C 73.9528,190.542 74.6195,189.708 75.5,189C 74.2624,189.077 73.2624,188.911 72.5,188.5C 73.8883,185.921 75.3883,185.921 77,188.5C 78.6501,185.894 80.1501,185.894 81.5,188.5 Z"/></g>
<g><path style="opacity:1" fill="#f4f4f5" d="M 78.5,188.5 C 79.5862,188.62 80.2528,189.287 80.5,190.5C 80.1667,191.167 79.8333,191.833 79.5,192.5C 78.5713,191.311 78.238,189.978 78.5,188.5 Z"/></g>
<g><path style="opacity:1" fill="#e4e4e4" d="M 86.5,187.5 C 88.2132,188.635 88.8799,190.302 88.5,192.5C 86.744,191.448 86.0773,189.781 86.5,187.5 Z"/></g>
<g><path style="opacity:1" fill="#999899" d="M 86.5,187.5 C 87.7927,186.355 88.9593,186.689 90,188.5C 91.6667,185.833 93.3333,185.833 95,188.5C 96.6501,185.894 98.1501,185.894 99.5,188.5C 99.7678,190.099 99.4345,191.432 98.5,192.5C 95.6015,192.297 92.2681,192.297 88.5,192.5C 88.8799,190.302 88.2132,188.635 86.5,187.5 Z"/></g>
<g><path style="opacity:1" fill="#a4a1a1" d="M 109.5,187.5 C 110.189,186.226 111.023,186.226 112,187.5C 112.49,188.793 112.657,190.127 112.5,191.5C 112.134,192.695 111.301,193.361 110,193.5C 108.174,192.327 106.341,192.327 104.5,193.5C 103.5,193.167 102.833,192.5 102.5,191.5C 102.284,186.413 104.118,185.413 108,188.5C 108.383,187.944 108.883,187.611 109.5,187.5 Z"/></g>
<g><path style="opacity:1" fill="#ebeaea" d="M 109.5,187.5 C 111.898,188.882 112.065,190.549 110,192.5C 109.506,190.866 109.34,189.199 109.5,187.5 Z"/></g>
<g><path style="opacity:1" fill="#afafaf" d="M 18.5,186.5 C 20.5,187.167 22.5,187.833 24.5,188.5C 24.5076,194.208 24.0076,194.541 23,189.5C 22.51,190.793 22.3433,192.127 22.5,193.5C 21.1667,193.5 19.8333,193.5 18.5,193.5C 18.3178,188.206 17.8178,188.206 17,193.5C 16.8333,192.667 16.6667,191.833 16.5,191C 17.0735,189.393 17.7402,187.893 18.5,186.5 Z"/></g>
<g><path style="opacity:1" fill="#b4a4a1" d="M 150.5,189.5 C 150.5,190.833 150.5,192.167 150.5,193.5C 147.5,193.5 144.5,193.5 141.5,193.5C 141.671,190.203 141.005,189.869 139.5,192.5C 138.914,192.291 138.414,191.957 138,191.5C 137.583,192.756 136.75,193.423 135.5,193.5C 133.669,192.005 131.502,191.338 129,191.5C 126.523,192.051 124.19,192.051 122,191.5C 120.599,193.192 118.766,193.859 116.5,193.5C 116.5,192.833 116.833,192.5 117.5,192.5C 119.256,191.448 119.923,189.781 119.5,187.5C 121.527,187.338 123.527,187.505 125.5,188C 121.614,188.579 121.614,189.412 125.5,190.5C 126.386,189.675 126.719,188.675 126.5,187.5C 129.421,187.146 131.754,188.146 133.5,190.5C 135.454,189.32 137.621,188.654 140,188.5C 143.779,189.048 147.279,189.381 150.5,189.5 Z"/></g>
<g><path style="opacity:1" fill="#ada19e" d="M 160.5,201.5 C 159.835,199.631 159.169,197.631 158.5,195.5C 156.929,194.691 155.262,194.357 153.5,194.5C 153.5,194.167 153.5,193.833 153.5,193.5C 153.318,184.512 154.818,184.178 158,192.5C 158.623,188.068 159.623,187.735 161,191.5C 161.483,190.552 161.649,189.552 161.5,188.5C 163.262,188.643 164.929,188.309 166.5,187.5C 167.641,189.421 167.808,191.421 167,193.5C 165.026,193.353 163.026,193.019 161,192.5C 160.5,193 160,193.5 159.5,194C 160.435,196.381 160.768,198.881 160.5,201.5 Z"/></g>
<g><path style="opacity:1" fill="#a3a3a3" d="M 185.5,187.5 C 186.693,187.97 187.36,188.97 187.5,190.5C 187.167,191.5 186.833,192.5 186.5,193.5C 185.534,191.604 185.201,189.604 185.5,187.5 Z"/></g>
<g><path style="opacity:1" fill="#aaaaaa" d="M 200.5,188.5 C 201.75,188.577 202.583,189.244 203,190.5C 203.839,189.376 205.006,188.709 206.5,188.5C 208.338,189.112 210.005,189.112 211.5,188.5C 212.624,193.721 213.458,193.721 214,188.5C 214.494,190.134 214.66,191.801 214.5,193.5C 212.176,193.005 210.009,193.005 208,193.5C 206.347,193.18 205.347,192.18 205,190.5C 204,192.167 203,193.833 202,195.5C 201.56,193.134 201.06,190.801 200.5,188.5 Z"/></g>
<g><path style="opacity:1" fill="#a0a0a0" d="M 215.5,188.5 C 216.552,188.351 217.552,188.517 218.5,189C 217.107,190.171 216.273,191.671 216,193.5C 215.506,191.866 215.34,190.199 215.5,188.5 Z"/></g>
<g><path style="opacity:1" fill="#a0a0a0" d="M 9.5,188.5 C 10.2216,188.918 10.7216,189.584 11,190.5C 12,187.833 13,187.833 14,190.5C 14.3333,189.833 14.6667,189.167 15,188.5C 15.8254,192.336 14.3254,193.836 10.5,193C 9.61983,191.644 9.28649,190.144 9.5,188.5 Z"/></g>
<g><path style="opacity:1" fill="#a7a7a7" d="M 34.5,186.5 C 36.2821,187.72 38.2821,188.386 40.5,188.5C 40.8333,193.833 41.1667,193.833 41.5,188.5C 44.7766,188.216 47.9433,188.549 51,189.5C 51.6838,190.784 51.5171,191.951 50.5,193C 48.5273,193.495 46.5273,193.662 44.5,193.5C 43.8333,188.167 43.1667,188.167 42.5,193.5C 39.7884,193.263 37.2884,193.263 35,193.5C 34.5034,191.19 34.3367,188.857 34.5,186.5 Z"/></g>
<g><path style="opacity:1" fill="#acaaaa" d="M 69.5,193.5 C 67.1667,193.5 64.8333,193.5 62.5,193.5C 62.1667,188.167 61.8333,188.167 61.5,193.5C 59.1667,193.5 56.8333,193.5 54.5,193.5C 54.5,191.833 54.5,190.167 54.5,188.5C 57.909,188.249 61.2423,188.583 64.5,189.5C 66.1161,188.885 67.4495,187.885 68.5,186.5C 69.4742,188.743 69.8076,191.076 69.5,193.5 Z"/></g>
<g><path style="opacity:1" fill="#969696" d="M 171.5,188.5 C 174.062,189.371 176.728,189.371 179.5,188.5C 179.5,190.167 179.5,191.833 179.5,193.5C 176.838,192.361 174.171,192.194 171.5,193C 172.167,192.667 172.833,192.333 173.5,192C 171.061,191.467 170.395,190.3 171.5,188.5 Z"/></g>
<g><path style="opacity:1" fill="#a1a1a1" d="M 190.5,187.5 C 191.931,187.881 192.764,188.881 193,190.5C 194.049,188.893 195.549,188.227 197.5,188.5C 197.5,190.167 197.5,191.833 197.5,193.5C 195.167,193.5 192.833,193.5 190.5,193.5C 190.5,191.5 190.5,189.5 190.5,187.5 Z"/></g>
<g><path style="opacity:1" fill="#e18e81" d="M 135.5,193.5 C 135.5,194.833 135.5,196.167 135.5,197.5C 137.5,197.5 139.5,197.5 141.5,197.5C 137.909,199.133 134.576,198.633 131.5,196C 131.833,195.667 132.167,195.333 132.5,195C 125.482,194.435 118.482,194.601 111.5,195.5C 113.167,194.833 114.833,194.167 116.5,193.5C 118.766,193.859 120.599,193.192 122,191.5C 124.19,192.051 126.523,192.051 129,191.5C 131.502,191.338 133.669,192.005 135.5,193.5 Z"/></g>
<g><path style="opacity:1" fill="#f6dfd8" d="M 150.5,189.5 C 151.022,191.219 152.022,192.552 153.5,193.5C 153.5,193.833 153.5,194.167 153.5,194.5C 149.615,195.49 145.615,196.49 141.5,197.5C 139.5,197.5 137.5,197.5 135.5,197.5C 135.5,196.167 135.5,194.833 135.5,193.5C 136.75,193.423 137.583,192.756 138,191.5C 138.414,191.957 138.914,192.291 139.5,192.5C 141.005,189.869 141.671,190.203 141.5,193.5C 144.5,193.5 147.5,193.5 150.5,193.5C 150.5,192.167 150.5,190.833 150.5,189.5 Z"/></g>
<g><path style="opacity:1" fill="#f5e8e5" d="M 86.5,187.5 C 86.0773,189.781 86.744,191.448 88.5,192.5C 92.2681,192.297 95.6015,192.297 98.5,192.5C 99.4345,191.432 99.7678,190.099 99.5,188.5C 100.1,189.9 101.1,190.9 102.5,191.5C 102.833,192.5 103.5,193.167 104.5,193.5C 103.391,194.29 102.058,194.79 100.5,195C 90.8391,195.5 81.1724,195.666 71.5,195.5C 69.1432,195.337 66.8098,195.503 64.5,196C 63.944,196.383 63.6107,196.883 63.5,197.5C 63.5,198.167 63.1667,198.5 62.5,198.5C 60.1667,198.5 57.8333,198.5 55.5,198.5C 55.7214,197.265 56.3881,196.265 57.5,195.5C 56.3984,194.824 55.3984,194.158 54.5,193.5C 56.8333,193.5 59.1667,193.5 61.5,193.5C 61.8333,188.167 62.1667,188.167 62.5,193.5C 64.8333,193.5 67.1667,193.5 69.5,193.5C 69.56,194.043 69.8933,194.376 70.5,194.5C 71.1411,193.007 72.1411,192.007 73.5,191.5C 74.5832,191.461 75.5832,191.127 76.5,190.5C 77.3857,191.325 77.719,192.325 77.5,193.5C 78.8333,193.5 80.1667,193.5 81.5,193.5C 81.5,191.833 81.5,190.167 81.5,188.5C 82.1577,189.398 82.8243,190.398 83.5,191.5C 84.1497,189.816 85.1497,188.483 86.5,187.5 Z"/></g>
<g><path style="opacity:1" fill="#f2f2f2" d="M 98.5,192.5 C 97.4138,192.38 96.7472,191.713 96.5,190.5C 96.8333,189.833 97.1667,189.167 97.5,188.5C 98.4287,189.689 98.762,191.022 98.5,192.5 Z"/></g>
<g><path style="opacity:1" fill="#facbc4" d="M 117.5,192.5 C 116.833,192.5 116.5,192.833 116.5,193.5C 114.833,194.167 113.167,194.833 111.5,195.5C 98.0063,196.622 84.6729,196.622 71.5,195.5C 81.1724,195.666 90.8391,195.5 100.5,195C 102.058,194.79 103.391,194.29 104.5,193.5C 106.341,192.327 108.174,192.327 110,193.5C 111.301,193.361 112.134,192.695 112.5,191.5C 113.5,191.5 114.5,191.5 115.5,191.5C 115.238,190.022 115.571,188.689 116.5,187.5C 117.452,189.045 117.785,190.712 117.5,192.5 Z"/></g>
<g><path style="opacity:1" fill="#e37461" d="M 141.5,197.5 C 145.615,196.49 149.615,195.49 153.5,194.5C 155.262,194.357 156.929,194.691 158.5,195.5C 159.169,197.631 159.835,199.631 160.5,201.5C 163.385,201.194 166.052,201.527 168.5,202.5C 170.043,203.56 171.043,205.06 171.5,207C 170.923,211.171 170.256,215.338 169.5,219.5C 166.579,220.407 163.579,220.74 160.5,220.5C 162.893,219.79 165.393,219.123 168,218.5C 168.828,214.129 168.661,209.795 167.5,205.5C 161.009,202.738 154.342,200.904 147.5,200C 141.509,199.501 135.509,199.334 129.5,199.5C 126.603,199.875 123.937,199.375 121.5,198C 102.17,197.5 82.8362,197.333 63.5,197.5C 63.6107,196.883 63.944,196.383 64.5,196C 66.8098,195.503 69.1432,195.337 71.5,195.5C 84.6729,196.622 98.0063,196.622 111.5,195.5C 118.482,194.601 125.482,194.435 132.5,195C 132.167,195.333 131.833,195.667 131.5,196C 134.576,198.633 137.909,199.133 141.5,197.5 Z"/></g>
<g><path style="opacity:1" fill="#c40703" d="M 107.5,198.5 C 110.167,199.106 112.834,199.939 115.5,201C 118.482,201.498 121.482,201.665 124.5,201.5C 120.353,202.325 116.019,202.825 111.5,203C 112.308,203.308 112.975,203.808 113.5,204.5C 111.933,206.896 111.1,209.563 111,212.5C 109.786,214.049 108.286,215.215 106.5,216C 107.833,216.333 109.167,216.667 110.5,217C 109.263,217.232 108.263,217.732 107.5,218.5C 104.091,216.963 100.424,216.296 96.5,216.5C 85.5133,217.286 74.5133,217.619 63.5,217.5C 63.0269,216.094 62.0269,215.427 60.5,215.5C 58.2246,209.615 59.2246,204.448 63.5,200C 78.0946,198.55 92.7613,198.05 107.5,198.5 Z"/></g>
<g><path style="opacity:1" fill="#d74635" d="M 63.5,197.5 C 82.8362,197.333 102.17,197.5 121.5,198C 123.937,199.375 126.603,199.875 129.5,199.5C 128.036,200.16 126.369,200.493 124.5,200.5C 118.931,199.103 113.265,198.437 107.5,198.5C 92.7613,198.05 78.0946,198.55 63.5,200C 59.2246,204.448 58.2246,209.615 60.5,215.5C 59.7784,215.082 59.2784,214.416 59,213.5C 58.797,209.579 58.297,205.745 57.5,202C 58.8866,200.317 60.5533,199.15 62.5,198.5C 63.1667,198.5 63.5,198.167 63.5,197.5 Z"/></g>
<g><path style="opacity:1" fill="#9d9c9e" d="M 49.5,201.5 C 50.7251,202.152 51.3917,203.319 51.5,205C 51.1667,206.167 50.8333,207.333 50.5,208.5C 49.5258,206.257 49.1924,203.924 49.5,201.5 Z"/></g>
<g><path style="opacity:1" fill="#9a9a9a" d="M 14.5,207.5 C 13.0813,208.451 11.4147,208.784 9.5,208.5C 10.2006,200.968 11.8673,200.635 14.5,207.5 Z"/></g>
<g><path style="opacity:1" fill="#d21407" d="M 124.5,201.5 C 137.025,200.849 149.358,202.016 161.5,205C 162.72,206.525 163.387,208.359 163.5,210.5C 164.235,214.18 162.901,216.68 159.5,218C 142.129,219.074 124.796,219.241 107.5,218.5C 108.263,217.732 109.263,217.232 110.5,217C 109.167,216.667 107.833,216.333 106.5,216C 108.286,215.215 109.786,214.049 111,212.5C 111.1,209.563 111.933,206.896 113.5,204.5C 112.975,203.808 112.308,203.308 111.5,203C 116.019,202.825 120.353,202.325 124.5,201.5 Z"/></g>
<g><path style="opacity:1" fill="#929090" d="M 44.5,203.5 C 45.8333,203.5 47.1667,203.5 48.5,203.5C 48.5,205.167 48.5,206.833 48.5,208.5C 47.1667,208.5 45.8333,208.5 44.5,208.5C 44.5,206.833 44.5,205.167 44.5,203.5 Z"/></g>
<g><path style="opacity:1" fill="#ababab" d="M 14.5,207.5 C 14.5,206.167 14.5,204.833 14.5,203.5C 19.6746,203.832 25.0079,203.832 30.5,203.5C 30.3433,204.873 30.51,206.207 31,207.5C 31.2497,201.88 33.583,200.547 38,203.5C 38.3076,202.692 38.8076,202.025 39.5,201.5C 40.2208,203.686 40.8875,205.853 41.5,208C 40.2068,208.49 38.8734,208.657 37.5,208.5C 36.8333,203.167 36.1667,203.167 35.5,208.5C 28.2463,208.233 21.2463,207.9 14.5,207.5 Z"/></g>
<g><path style="opacity:1" fill="#d77460" d="M 55.5,198.5 C 57.8333,198.5 60.1667,198.5 62.5,198.5C 60.5533,199.15 58.8866,200.317 57.5,202C 58.297,205.745 58.797,209.579 59,213.5C 59.2784,214.416 59.7784,215.082 60.5,215.5C 62.0269,215.427 63.0269,216.094 63.5,217.5C 60.8333,216.833 58.1667,216.167 55.5,215.5C 54.196,209.933 54.196,204.266 55.5,198.5 Z"/></g>
<g><path style="opacity:1" fill="#f09e92" d="M 168.5,202.5 C 170.698,202.12 172.365,202.787 173.5,204.5C 173.828,209.875 173.495,215.208 172.5,220.5C 168.571,221.433 164.571,221.766 160.5,221.5C 160.5,221.167 160.5,220.833 160.5,220.5C 163.579,220.74 166.579,220.407 169.5,219.5C 170.256,215.338 170.923,211.171 171.5,207C 171.043,205.06 170.043,203.56 168.5,202.5 Z"/></g>
<g><path style="opacity:1" fill="#d73c2a" d="M 107.5,198.5 C 113.265,198.437 118.931,199.103 124.5,200.5C 126.369,200.493 128.036,200.16 129.5,199.5C 135.509,199.334 141.509,199.501 147.5,200C 154.342,200.904 161.009,202.738 167.5,205.5C 168.661,209.795 168.828,214.129 168,218.5C 165.393,219.123 162.893,219.79 160.5,220.5C 142.497,220.667 124.497,220.5 106.5,220C 103.215,219.176 99.8818,218.676 96.5,218.5C 90.8542,219.221 85.1875,219.554 79.5,219.5C 74.4889,219.666 69.4889,219.499 64.5,219C 63.944,218.617 63.6107,218.117 63.5,217.5C 74.5133,217.619 85.5133,217.286 96.5,216.5C 100.424,216.296 104.091,216.963 107.5,218.5C 124.796,219.241 142.129,219.074 159.5,218C 162.901,216.68 164.235,214.18 163.5,210.5C 163.387,208.359 162.72,206.525 161.5,205C 149.358,202.016 137.025,200.849 124.5,201.5C 121.482,201.665 118.482,201.498 115.5,201C 112.834,199.939 110.167,199.106 107.5,198.5 Z"/></g>
<g><path style="opacity:1" fill="#f5bcb4" d="M 55.5,215.5 C 58.1667,216.167 60.8333,216.833 63.5,217.5C 63.6107,218.117 63.944,218.617 64.5,219C 69.4889,219.499 74.4889,219.666 79.5,219.5C 79.5,219.833 79.5,220.167 79.5,220.5C 75.1667,220.5 70.8333,220.5 66.5,220.5C 62.6462,219.07 58.9796,217.403 55.5,215.5 Z"/></g>
<g><path style="opacity:1" fill="#f3dad3" d="M 66.5,220.5 C 70.8333,220.5 75.1667,220.5 79.5,220.5C 88.3494,220.174 97.0161,220.507 105.5,221.5C 104.152,222.186 102.985,223.186 102,224.5C 99.0449,221.677 97.2115,222.344 96.5,226.5C 96.6068,228.379 96.1068,228.712 95,227.5C 94.8019,225.618 94.3019,223.952 93.5,222.5C 88.8566,222.707 84.19,222.707 79.5,222.5C 75.1667,221.833 70.8333,221.167 66.5,220.5 Z"/></g>
<g><path style="opacity:1" fill="#d66e5d" d="M 160.5,220.5 C 160.5,220.833 160.5,221.167 160.5,221.5C 158.5,221.5 156.5,221.5 154.5,221.5C 152.833,221.5 151.167,221.5 149.5,221.5C 135.167,221.5 120.833,221.5 106.5,221.5C 106.167,221.5 105.833,221.5 105.5,221.5C 97.0161,220.507 88.3494,220.174 79.5,220.5C 79.5,220.167 79.5,219.833 79.5,219.5C 85.1875,219.554 90.8542,219.221 96.5,218.5C 99.8818,218.676 103.215,219.176 106.5,220C 124.497,220.5 142.497,220.667 160.5,220.5 Z"/></g>
<g><path style="opacity:1" fill="#cab2ae" d="M 106.5,222.5 C 106.5,222.167 106.5,221.833 106.5,221.5C 120.833,221.5 135.167,221.5 149.5,221.5C 149.5,221.833 149.5,222.167 149.5,222.5C 147.833,222.5 146.167,222.5 144.5,222.5C 144.508,228.208 144.008,228.541 143,223.5C 141.956,224.623 141.29,225.956 141,227.5C 140.667,225.833 140.333,224.167 140,222.5C 139.964,224.941 139.131,226.941 137.5,228.5C 135.717,226.977 135.051,224.977 135.5,222.5C 132.477,222.105 131.477,223.105 132.5,225.5C 130.409,229.439 128.409,229.439 126.5,225.5C 126.279,222.903 125.779,222.903 125,225.5C 124.722,224.584 124.222,223.918 123.5,223.5C 122.839,224.718 122.172,226.051 121.5,227.5C 120.749,226.624 120.249,225.624 120,224.5C 119,228.5 118,228.5 117,224.5C 116.517,225.448 116.351,226.448 116.5,227.5C 114.549,227.773 113.049,227.107 112,225.5C 111.692,226.308 111.192,226.975 110.5,227.5C 110.167,226.167 109.833,224.833 109.5,223.5C 108.675,222.614 107.675,222.281 106.5,222.5 Z"/></g>
<g><path style="opacity:1" fill="#f3d0c8" d="M 173.5,204.5 C 175.45,209.735 176.117,215.402 175.5,221.5C 174.833,221.5 174.5,221.833 174.5,222.5C 173.167,222.5 171.833,222.5 170.5,222.5C 169.041,222.433 167.708,222.766 166.5,223.5C 165.065,222.904 163.398,222.904 161.5,223.5C 161.167,227.5 160.833,227.5 160.5,223.5C 158.214,223.405 156.214,222.738 154.5,221.5C 156.5,221.5 158.5,221.5 160.5,221.5C 164.571,221.766 168.571,221.433 172.5,220.5C 173.495,215.208 173.828,209.875 173.5,204.5 Z"/></g>
<g><path style="opacity:1" fill="#8e8e8e" d="M 30.5,222.5 C 33.3938,222.042 35.8938,222.709 38,224.5C 39.049,222.893 40.549,222.227 42.5,222.5C 42.7852,224.288 42.4519,225.955 41.5,227.5C 41.4464,226.313 41.1131,224.98 40.5,223.5C 39.7189,224.729 39.2189,226.062 39,227.5C 38.3333,226.167 37.6667,226.167 37,227.5C 36,222.167 35,222.167 34,227.5C 33,223.5 32,223.5 31,227.5C 30.5065,225.866 30.3398,224.199 30.5,222.5 Z"/></g>
<g><path style="opacity:1" fill="#a6a6a6" d="M 70.5,222.5 C 75.3618,224.144 75.3618,225.311 70.5,226C 71.5719,227.284 72.9052,227.617 74.5,227C 69.7576,229.064 68.4243,227.564 70.5,222.5 Z"/></g>
<g><path style="opacity:1" fill="#a6a6a4" d="M 185.5,225.5 C 184.655,226.671 183.989,228.005 183.5,229.5C 182.71,228.391 182.21,227.058 182,225.5C 181.517,226.448 181.351,227.448 181.5,228.5C 176.841,228.985 175.508,227.152 177.5,223C 179.18,222.966 180.68,222.799 182,222.5C 183.729,222.974 184.895,223.974 185.5,225.5 Z"/></g>
<g><path style="opacity:1" fill="#7b7b7b" d="M 14.5,223.5 C 13.0337,224.347 12.2004,225.68 12,227.5C 11.1264,224.997 11.793,222.997 14,221.5C 14.4643,222.094 14.631,222.761 14.5,223.5 Z"/></g>
<g><path style="opacity:1" fill="#a39c9a" d="M 149.5,221.5 C 151.167,221.5 152.833,221.5 154.5,221.5C 156.214,222.738 158.214,223.405 160.5,223.5C 160.833,227.5 161.167,227.5 161.5,223.5C 163.398,222.904 165.065,222.904 166.5,223.5C 165.566,224.568 165.232,225.901 165.5,227.5C 162.458,228.541 159.458,228.541 156.5,227.5C 156.388,222.407 155.555,222.407 154,227.5C 153.115,220.922 151.948,220.922 150.5,227.5C 149.548,225.955 149.215,224.288 149.5,222.5C 149.5,222.167 149.5,221.833 149.5,221.5 Z"/></g>
<g><path style="opacity:1" fill="#a8a3a3" d="M 170.5,222.5 C 170.5,224.5 170.5,226.5 170.5,228.5C 169.325,228.719 168.325,228.386 167.5,227.5C 168.167,227.167 168.833,226.833 169.5,226.5C 168.23,225.712 167.23,224.712 166.5,223.5C 167.708,222.766 169.041,222.433 170.5,222.5 Z"/></g>
<g><path style="opacity:1" fill="#878786" d="M 56.5,222.5 C 57.0967,222.735 57.4301,223.235 57.5,224C 55.2756,231.328 54.1089,231.162 54,223.5C 55.0074,225.742 55.8407,225.408 56.5,222.5 Z"/></g>
<g><path style="opacity:1" fill="#959393" d="M 105.5,221.5 C 105.833,221.5 106.167,221.5 106.5,221.5C 106.5,221.833 106.5,222.167 106.5,222.5C 106.785,224.288 106.452,225.955 105.5,227.5C 105.795,226.174 105.295,224.841 104,223.5C 103.667,224.833 103.333,226.167 103,227.5C 101.992,227.018 100.825,226.852 99.5,227C 100.696,226.346 100.696,225.846 99.5,225.5C 98.787,227.435 97.787,227.768 96.5,226.5C 97.2115,222.344 99.0449,221.677 102,224.5C 102.985,223.186 104.152,222.186 105.5,221.5 Z"/></g>
<g><path style="opacity:1" fill="#8c8989" d="M 123.5,223.5 C 124.222,223.918 124.722,224.584 125,225.5C 125.779,222.903 126.279,222.903 126.5,225.5C 124.46,227.867 123.46,227.2 123.5,223.5 Z"/></g>
<g><path style="opacity:1" fill="#a9a9a9" d="M 14.5,223.5 C 16.5575,222.798 18.5575,222.465 20.5,222.5C 21.776,227.682 22.4427,227.682 22.5,222.5C 24.1992,222.34 25.8659,222.506 27.5,223C 26.6198,224.356 26.2865,225.856 26.5,227.5C 23.3419,228.741 20.5086,228.741 18,227.5C 17.6667,226.167 17.3333,224.833 17,223.5C 15.7052,224.841 15.2052,226.174 15.5,227.5C 14.5713,226.311 14.238,224.978 14.5,223.5 Z"/></g>
<g><path style="opacity:1" fill="#848483" d="M 43.5,222.5 C 44.8333,222.5 46.1667,222.5 47.5,222.5C 47.6534,228.324 46.9867,228.657 45.5,223.5C 44.0133,228.657 43.3466,228.324 43.5,222.5 Z"/></g>
<g><path style="opacity:1" fill="#90908f" d="M 48.5,223.5 C 49.6879,224.684 50.8545,224.684 52,223.5C 52.1667,223.833 52.3333,224.167 52.5,224.5C 48.6395,225.598 48.6395,226.431 52.5,227C 49.1788,228.872 47.8454,227.705 48.5,223.5 Z"/></g>
<g><path style="opacity:1" fill="#afaeaf" d="M 60.5,220.5 C 62.1417,222.081 64.1417,222.747 66.5,222.5C 67.4204,227.922 65.4204,229.588 60.5,227.5C 60.5,225.167 60.5,222.833 60.5,220.5 Z"/></g>
<g><path style="opacity:1" fill="#adabab" d="M 79.5,222.5 C 84.19,222.707 88.8566,222.707 93.5,222.5C 93.1757,223.812 92.5091,224.645 91.5,225C 91.9054,225.945 92.572,226.612 93.5,227C 93.1667,227.333 92.8333,227.667 92.5,228C 90.6621,227.367 88.8288,227.534 87,228.5C 85.3551,226.855 83.6884,225.188 82,223.5C 80.0073,225.406 80.5073,226.573 83.5,227C 79.9353,230.23 78.4353,229.063 79,223.5C 77.7163,224.572 77.3829,225.905 78,227.5C 77.0805,227.07 76.2472,226.736 75.5,226.5C 76.6405,225.575 76.6405,224.741 75.5,224C 76.745,223.209 78.0783,222.709 79.5,222.5 Z"/></g>
<g><path style="opacity:1" fill="#979797" d="M 175.5,221.5 C 175.5,223.833 175.5,226.167 175.5,228.5C 171.929,228.592 170.762,226.926 172,223.5C 173.494,227.304 174.328,226.971 174.5,222.5C 174.5,221.833 174.833,221.5 175.5,221.5 Z"/></g>
<g><path style="opacity:1" fill="#d7d7d7" d="M 183.5,229.5 C 183.989,228.005 184.655,226.671 185.5,225.5C 187.102,227.074 189.102,227.741 191.5,227.5C 192.603,219.7 193.769,219.7 195,227.5C 195.333,225.833 195.667,224.167 196,222.5C 197.049,221.483 198.216,221.316 199.5,222C 197.099,222.805 197.266,223.638 200,224.5C 200.273,226.101 200.773,227.601 201.5,229C 200.584,229.374 199.75,229.874 199,230.5C 193.928,229.529 188.762,229.195 183.5,229.5 Z"/></g>
<g><path style="opacity:1" fill="#b5b5b5" d="M 62.5,236.5 C 62.6034,238.289 61.4368,239.622 59,240.5C 58.6667,239.5 58.3333,238.5 58,237.5C 56.7006,242.729 55.2006,242.729 53.5,237.5C 53.1667,237.667 52.8333,237.833 52.5,238C 53.3366,239.011 53.67,240.178 53.5,241.5C 51.9652,242.788 50.2985,242.788 48.5,241.5C 49.2634,240.281 50.2634,239.281 51.5,238.5C 50.7261,237.289 49.8928,237.289 49,238.5C 48.3828,237.551 48.5494,236.718 49.5,236C 54.0104,235.266 58.3437,235.433 62.5,236.5 Z"/></g>
<g><path style="opacity:1" fill="#8c8c8c" d="M 63.5,239.5 C 64.7124,238.77 65.7124,237.77 66.5,236.5C 68.4039,238.531 68.5706,240.531 67,242.5C 65.4815,241.837 64.3149,240.837 63.5,239.5 Z"/></g>
<g><path style="opacity:1" fill="#717171" d="M 20.5,235.5 C 21.2223,236.551 22.2223,237.218 23.5,237.5C 21.0182,239.039 21.0182,240.539 23.5,242C 22.552,242.483 21.552,242.649 20.5,242.5C 20.5,240.167 20.5,237.833 20.5,235.5 Z"/></g>
<g><path style="opacity:1" fill="#9e9e9e" d="M 41.5,243.5 C 42.6211,241.911 42.4544,240.244 41,238.5C 39.9563,239.623 39.2896,240.956 39,242.5C 38.51,241.207 38.3433,239.873 38.5,238.5C 40.6019,237.892 42.7686,237.558 45,237.5C 45.3247,239.553 44.9913,241.553 44,243.5C 43.0228,244.774 42.1894,244.774 41.5,243.5 Z"/></g>
<g><path style="opacity:1" fill="#8a8a8a" d="M 62.5,236.5 C 63.404,237.209 63.7373,238.209 63.5,239.5C 59.667,240.563 59.667,241.396 63.5,242C 60.0046,241.852 56.6713,241.685 53.5,241.5C 53.67,240.178 53.3366,239.011 52.5,238C 52.8333,237.833 53.1667,237.667 53.5,237.5C 55.2006,242.729 56.7006,242.729 58,237.5C 58.3333,238.5 58.6667,239.5 59,240.5C 61.4368,239.622 62.6034,238.289 62.5,236.5 Z"/></g>
<g><path style="opacity:1" fill="#919191" d="M 99.5,237.5 C 100.833,237.5 102.167,237.5 103.5,237.5C 103.5,239.167 103.5,240.833 103.5,242.5C 102.167,242.5 100.833,242.5 99.5,242.5C 99.5,240.833 99.5,239.167 99.5,237.5 Z"/></g>
<g><path style="opacity:1" fill="#a9a9a9" d="M 122.5,235.5 C 123.497,235.47 124.164,235.97 124.5,237C 123.922,238.811 123.422,240.645 123,242.5C 121.355,242.307 119.521,242.14 117.5,242C 116.289,240.887 116.289,239.72 117.5,238.5C 119.655,237.999 121.322,236.999 122.5,235.5 Z"/></g>
<g><path style="opacity:1" fill="#909090" d="M 127.5,236.5 C 129.977,236.266 132.477,236.932 135,238.5C 136.356,237.62 137.856,237.286 139.5,237.5C 139.5,238.5 139.5,239.5 139.5,240.5C 136.402,240.413 136.068,240.913 138.5,242C 136.82,242.034 135.32,242.201 134,242.5C 132.866,237.203 132.032,237.203 131.5,242.5C 130.167,242.5 128.833,242.5 127.5,242.5C 127.5,240.5 127.5,238.5 127.5,236.5 Z"/></g>
<g><path style="opacity:1" fill="#a7a7a7" d="M 145.5,235.5 C 148.248,237.044 151.248,237.71 154.5,237.5C 155.014,239.512 155.18,241.512 155,243.5C 154.667,243.833 154.333,244.167 154,244.5C 153.667,242.833 153.333,241.167 153,239.5C 152.517,240.448 152.351,241.448 152.5,242.5C 149.482,242.665 146.482,242.498 143.5,242C 142.978,241.439 142.645,240.772 142.5,240C 143.555,238.493 144.555,236.993 145.5,235.5 Z"/></g>
<g><path style="opacity:1" fill="#838383" d="M 76.5,237.5 C 77.7899,238.058 78.6232,239.058 79,240.5C 79.2492,239.376 79.7492,238.376 80.5,237.5C 80.8454,239.382 80.3454,241.382 79,243.5C 78.3333,242.167 77.6667,240.833 77,239.5C 76.6667,240.167 76.3333,240.833 76,241.5C 75.4209,240.072 75.5876,238.738 76.5,237.5 Z"/></g>
<g><path style="opacity:1" fill="#868686" d="M 14.5,235.5 C 13.6016,236.158 12.6016,236.824 11.5,237.5C 13.7808,238.185 16.1141,238.351 18.5,238C 19.5523,239.716 18.8856,240.716 16.5,241C 18.8808,242.247 18.5475,242.58 15.5,242C 14.6921,240.294 13.3588,239.461 11.5,239.5C 11.7148,241.179 11.0481,242.179 9.5,242.5C 9.5,240.167 9.5,237.833 9.5,235.5C 11.1667,235.5 12.8333,235.5 14.5,235.5 Z"/></g>
<g><path style="opacity:1" fill="#797979" d="M 34.5,237.5 C 35.791,237.263 36.791,237.596 37.5,238.5C 37.5,239.833 37.5,241.167 37.5,242.5C 36.0222,242.762 34.6888,242.429 33.5,241.5C 34.6161,241.598 35.6161,241.098 36.5,240C 35.9444,238.989 35.2778,238.156 34.5,237.5 Z"/></g>
<g><path style="opacity:1" fill="#909090" d="M 86.5,235.5 C 89.0417,238.11 92.0417,238.944 95.5,238C 92.8333,238.667 92.8333,239.333 95.5,240C 91.5,240.667 91.5,241.333 95.5,242C 93.5273,242.495 91.5273,242.662 89.5,242.5C 88.8333,237.167 88.1667,237.167 87.5,242.5C 86.5,242.5 85.5,242.5 84.5,242.5C 84.5188,235.469 85.0188,235.136 86,241.5C 86.4955,239.527 86.6621,237.527 86.5,235.5 Z"/></g>
<g><path style="opacity:1" fill="#989898" d="M 112.5,235.5 C 114.344,237.279 115.01,239.612 114.5,242.5C 112.167,242.5 109.833,242.5 107.5,242.5C 106.968,237.203 106.134,237.203 105,242.5C 104.506,240.866 104.34,239.199 104.5,237.5C 106.262,237.357 107.929,237.691 109.5,238.5C 111.213,238.121 112.213,237.121 112.5,235.5 Z"/></g>
<g><path style="opacity:1" fill="#e7e7e7" d="M 14.5,235.5 C 16.5,236.833 18.5,236.833 20.5,235.5C 20.5,237.833 20.5,240.167 20.5,242.5C 21.552,242.649 22.552,242.483 23.5,242C 21.0182,240.539 21.0182,239.039 23.5,237.5C 24.1667,237.5 24.8333,237.5 25.5,237.5C 25.3466,243.324 26.0133,243.657 27.5,238.5C 28.4287,239.689 28.762,241.022 28.5,242.5C 29.8333,242.5 31.1667,242.5 32.5,242.5C 32.5,240.833 32.5,239.167 32.5,237.5C 33.1667,237.5 33.8333,237.5 34.5,237.5C 35.2778,238.156 35.9444,238.989 36.5,240C 35.6161,241.098 34.6161,241.598 33.5,241.5C 34.6888,242.429 36.0222,242.762 37.5,242.5C 37.5,241.167 37.5,239.833 37.5,238.5C 37.8333,238.5 38.1667,238.5 38.5,238.5C 38.3433,239.873 38.51,241.207 39,242.5C 39.2896,240.956 39.9563,239.623 41,238.5C 42.4544,240.244 42.6211,241.911 41.5,243.5C 32.4541,243.416 23.9541,244.083 16,245.5C 15.6667,244.833 15.3333,244.167 15,243.5C 13.8831,243.665 12.7164,243.998 11.5,244.5C 10.4777,244.145 9.81103,243.478 9.5,242.5C 11.0481,242.179 11.7148,241.179 11.5,239.5C 13.3588,239.461 14.6921,240.294 15.5,242C 18.5475,242.58 18.8808,242.247 16.5,241C 18.8856,240.716 19.5523,239.716 18.5,238C 16.1141,238.351 13.7808,238.185 11.5,237.5C 12.6016,236.824 13.6016,236.158 14.5,235.5 Z"/></g>
<g><path style="opacity:1" fill="#707070" d="M 25.5,237.5 C 26.8333,237.5 28.1667,237.5 29.5,237.5C 29.238,238.978 29.5713,240.311 30.5,241.5C 31.1719,240.051 31.8386,238.718 32.5,237.5C 32.5,239.167 32.5,240.833 32.5,242.5C 31.1667,242.5 29.8333,242.5 28.5,242.5C 28.762,241.022 28.4287,239.689 27.5,238.5C 26.0133,243.657 25.3466,243.324 25.5,237.5 Z"/></g>
<g><path style="opacity:1" fill="#d1bed9" d="M 11.5,260.5 C 19.4144,261.467 27.4144,261.801 35.5,261.5C 35.2865,263.144 35.6198,264.644 36.5,266C 35.8333,266.167 35.1667,266.333 34.5,266.5C 26.3451,266.175 18.1785,266.175 10,266.5C 9.5906,264.305 10.0906,262.305 11.5,260.5 Z"/></g>
<g><path style="opacity:1" fill="#848484" d="M 19.5,275.5 C 19.4622,282.041 18.7955,282.041 17.5,275.5C 16.7022,277.078 16.2022,278.744 16,280.5C 15.0853,279.672 14.4186,278.672 14,277.5C 13.3292,278.252 12.4959,278.586 11.5,278.5C 13.4202,277.179 13.5868,275.846 12,274.5C 9.82657,277.277 9.32657,277.11 10.5,274C 12.3668,273.289 13.8668,273.789 15,275.5C 16.8038,273.019 18.3038,273.019 19.5,275.5 Z"/></g>
<g><path style="opacity:1" fill="#b9b9b9" d="M 36.5,280.5 C 36.5,278.5 36.5,276.5 36.5,274.5C 37.3864,273.224 38.3864,273.224 39.5,274.5C 39.9702,276.774 40.9702,278.774 42.5,280.5C 40.5682,281.033 38.5682,281.033 36.5,280.5 Z"/></g>
<g><path style="opacity:1" fill="#888888" d="M 44.5,273.5 C 46.3904,273.297 47.8904,273.963 49,275.5C 50.2408,273.579 51.7408,273.246 53.5,274.5C 55.0472,277.308 54.5472,279.641 52,281.5C 50.7387,281.241 49.7387,280.574 49,279.5C 47.8668,281.211 46.3668,281.711 44.5,281C 43.2215,278.502 43.2215,276.002 44.5,273.5 Z"/></g>
<g><path style="opacity:1" fill="#f9f9f9" d="M 51.5,274.5 C 52.7879,276.035 52.7879,277.701 51.5,279.5C 50.3336,277.833 50.3336,276.166 51.5,274.5 Z"/></g>
<g><path style="opacity:1" fill="#e4e4e4" d="M 45.5,274.5 C 47.9238,276.228 48.0904,278.228 46,280.5C 44.2002,278.635 44.0336,276.635 45.5,274.5 Z"/></g>
<g><path style="opacity:1" fill="#cccccc" d="M 19.5,275.5 C 20.3246,277.308 21.3246,279.141 22.5,281C 22.1667,281.5 21.8333,282 21.5,282.5C 17.5705,281.567 13.5705,281.234 9.5,281.5C 9.28519,279.821 9.95186,278.821 11.5,278.5C 12.4959,278.586 13.3292,278.252 14,277.5C 14.4186,278.672 15.0853,279.672 16,280.5C 16.2022,278.744 16.7022,277.078 17.5,275.5C 18.7955,282.041 19.4622,282.041 19.5,275.5 Z"/></g>
<g><path style="opacity:1" fill="#848484" d="M 24.5,275.5 C 25.0768,273.348 26.2435,273.015 28,274.5C 28.7581,276.769 28.5914,278.936 27.5,281C 26.2161,281.684 25.0495,281.517 24,280.5C 23.2204,278.613 23.3871,276.946 24.5,275.5 Z"/></g>
<g><path style="opacity:1" fill="#ececec" d="M 24.5,275.5 C 25.397,274.402 26.2303,274.402 27,275.5C 27.7737,277.403 27.4404,279.07 26,280.5C 24.7308,279.095 24.2308,277.429 24.5,275.5 Z"/></g>
<g><path style="opacity:1" fill="#919191" d="M 36.5,274.5 C 36.5,276.5 36.5,278.5 36.5,280.5C 35.8826,280.389 35.3826,280.056 35,279.5C 31.8114,282.493 29.9781,281.826 29.5,277.5C 29.5698,276.228 29.9032,275.062 30.5,274C 32.4884,273.82 34.4884,273.986 36.5,274.5 Z"/></g>
<g><path style="opacity:1" fill="#ececec" d="M 31.5,274.5 C 32.6225,276.288 32.7891,278.288 32,280.5C 30.2002,278.635 30.0336,276.635 31.5,274.5 Z"/></g>
<g><path style="opacity:1" fill="#919191" d="M 57.5,275.5 C 59.0889,281.931 60.5889,281.931 62,275.5C 62.7429,277.441 62.5762,279.274 61.5,281C 60.2161,281.684 59.0495,281.517 58,280.5C 57.5065,278.866 57.3398,277.199 57.5,275.5 Z"/></g>
<g><path style="opacity:1" fill="#a5a5a5" d="M 63.5,275.5 C 67.8926,275.457 68.2259,275.957 64.5,277C 67.3345,279.184 68.6678,278.684 68.5,275.5C 70.1667,275.5 71.8333,275.5 73.5,275.5C 73.6534,281.324 72.9867,281.657 71.5,276.5C 70.5713,277.689 70.238,279.022 70.5,280.5C 65.1587,282.949 62.8254,281.282 63.5,275.5 Z"/></g>
<g><path style="opacity:1" fill="#ddb7c9" d="M 66.5,296.5 C 66.5,296.833 66.5,297.167 66.5,297.5C 65.5,297.5 64.5,297.5 63.5,297.5C 48.9278,298.003 34.4278,297.336 20,295.5C 18.4672,295.773 16.9672,296.106 15.5,296.5C 15.631,295.761 15.4643,295.094 15,294.5C 13.4748,294.112 11.8082,294.112 10,294.5C 10.645,288.798 11.9783,288.465 14,293.5C 14.3678,292.09 15.2011,291.09 16.5,290.5C 23.0759,290.82 29.7425,290.82 36.5,290.5C 37.0798,292.637 38.0798,294.47 39.5,296C 48.4938,296.5 57.4938,296.666 66.5,296.5 Z"/></g>
<g><path style="opacity:1" fill="#f4a69f" d="M 111.5,293.5 C 102.868,292.422 94.2016,292.256 85.5,293C 84.944,293.383 84.6107,293.883 84.5,294.5C 84.1667,294.5 83.8333,294.5 83.5,294.5C 83.4142,293.504 83.7476,292.671 84.5,292C 93.1667,291.333 101.833,291.333 110.5,292C 111.056,292.383 111.389,292.883 111.5,293.5 Z"/></g>
<g><path style="opacity:1" fill="#db7361" d="M 111.5,293.5 C 114.33,293.694 116.996,294.361 119.5,295.5C 119.5,296.5 119.5,297.5 119.5,298.5C 121.826,299.69 122.993,301.69 123,304.5C 123.333,304.167 123.667,303.833 124,303.5C 124.495,305.473 124.662,307.473 124.5,309.5C 123.85,309.196 123.183,308.863 122.5,308.5C 122.502,312.66 120.502,315.16 116.5,316C 108.173,316.5 99.84,316.666 91.5,316.5C 99.0566,316.152 106.39,315.152 113.5,313.5C 115.912,313.756 117.579,312.756 118.5,310.5C 119.214,307.973 119.88,305.473 120.5,303C 119.468,301.373 118.134,300.207 116.5,299.5C 113.948,297.057 110.948,295.39 107.5,294.5C 99.9622,293.218 92.2955,293.218 84.5,294.5C 84.6107,293.883 84.944,293.383 85.5,293C 94.2016,292.256 102.868,292.422 111.5,293.5 Z"/></g>
<g><path style="opacity:1" fill="#d76959" d="M 83.5,294.5 C 83.8333,294.5 84.1667,294.5 84.5,294.5C 84.3893,295.117 84.056,295.617 83.5,296C 77.8646,296.904 72.198,297.404 66.5,297.5C 66.5,297.167 66.5,296.833 66.5,296.5C 72.2387,296.07 77.9054,295.404 83.5,294.5 Z"/></g>
<g><path style="opacity:1" fill="#de6863" d="M 63.5,297.5 C 47.6597,298.666 31.6597,298.666 15.5,297.5C 15.5,297.167 15.5,296.833 15.5,296.5C 16.9672,296.106 18.4672,295.773 20,295.5C 34.4278,297.336 48.9278,298.003 63.5,297.5 Z"/></g>
<g><path style="opacity:1" fill="#d11206" d="M 107.5,294.5 C 110.948,295.39 113.948,297.057 116.5,299.5C 116.665,302.518 116.498,305.518 116,308.5C 115.682,310.061 114.849,311.228 113.5,312C 99.4801,312.656 85.4801,313.489 71.5,314.5C 71.6399,312.876 70.9733,311.71 69.5,311C 71.7655,309.143 71.4322,307.476 68.5,306C 68.8198,304.347 69.8198,303.347 71.5,303C 70.8333,302.667 70.1667,302.333 69.5,302C 70.4158,301.722 71.0825,301.222 71.5,300.5C 76.4076,298.62 81.7409,297.62 87.5,297.5C 87.5,296.5 87.5,295.5 87.5,294.5C 94.1667,294.5 100.833,294.5 107.5,294.5 Z"/></g>
<g><path style="opacity:1" fill="#cf523b" d="M 14.5,298.5 C 12.2301,303.906 11.8968,309.573 13.5,315.5C 12.2921,314.766 10.9587,314.433 9.5,314.5C 9.39212,309.13 9.72546,303.797 10.5,298.5C 11.8333,298.5 13.1667,298.5 14.5,298.5 Z"/></g>
<g><path style="opacity:1" fill="#959595" d="M 129.5,302.5 C 130.822,302.33 131.989,302.663 133,303.5C 133.667,305.5 133.667,307.5 133,309.5C 131.365,310.849 129.865,310.682 128.5,309C 133.103,309.063 133.27,308.229 129,306.5C 128.421,305.072 128.588,303.738 129.5,302.5 Z"/></g>
<g><path style="opacity:1" fill="#bda199" d="M 119.5,298.5 C 120.873,298.343 122.207,298.51 123.5,299C 124.305,300.972 125.639,302.472 127.5,303.5C 127.245,305.343 127.078,307.343 127,309.5C 126.329,310.252 125.496,310.586 124.5,310.5C 124.5,310.167 124.5,309.833 124.5,309.5C 124.662,307.473 124.495,305.473 124,303.5C 123.667,303.833 123.333,304.167 123,304.5C 122.993,301.69 121.826,299.69 119.5,298.5 Z"/></g>
<g><path style="opacity:1" fill="#c9291b" d="M 107.5,294.5 C 100.833,294.5 94.1667,294.5 87.5,294.5C 87.5,295.5 87.5,296.5 87.5,297.5C 81.7409,297.62 76.4076,298.62 71.5,300.5C 54.7606,299.857 38.2606,300.523 22,302.5C 21.5172,301.552 21.3505,300.552 21.5,299.5C 19.5,300.167 17.5,300.833 15.5,301.5C 15.335,304.85 15.5017,308.183 16,311.5C 16.4396,313.076 17.273,314.41 18.5,315.5C 23.4383,316.604 28.4383,317.271 33.5,317.5C 46.0597,315.188 58.7263,314.188 71.5,314.5C 85.4801,313.489 99.4801,312.656 113.5,312C 114.849,311.228 115.682,310.061 116,308.5C 116.498,305.518 116.665,302.518 116.5,299.5C 118.134,300.207 119.468,301.373 120.5,303C 119.88,305.473 119.214,307.973 118.5,310.5C 117.579,312.756 115.912,313.756 113.5,313.5C 106.159,313.334 98.8258,313.5 91.5,314C 89.9336,314.608 88.6002,315.442 87.5,316.5C 84.8333,316.5 82.1667,316.5 79.5,316.5C 68.6409,316.512 57.9742,317.179 47.5,318.5C 38.1667,318.5 28.8333,318.5 19.5,318.5C 17.2488,317.985 15.2488,316.985 13.5,315.5C 11.8968,309.573 12.2301,303.906 14.5,298.5C 15.1667,298.5 15.5,298.167 15.5,297.5C 31.6597,298.666 47.6597,298.666 63.5,297.5C 64.5,297.5 65.5,297.5 66.5,297.5C 72.198,297.404 77.8646,296.904 83.5,296C 84.056,295.617 84.3893,295.117 84.5,294.5C 92.2955,293.218 99.9622,293.218 107.5,294.5 Z"/></g>
<g><path style="opacity:1" fill="#c30301" d="M 71.5,300.5 C 71.0825,301.222 70.4158,301.722 69.5,302C 70.1667,302.333 70.8333,302.667 71.5,303C 69.8198,303.347 68.8198,304.347 68.5,306C 71.4322,307.476 71.7655,309.143 69.5,311C 70.9733,311.71 71.6399,312.876 71.5,314.5C 58.7263,314.188 46.0597,315.188 33.5,317.5C 28.4383,317.271 23.4383,316.604 18.5,315.5C 17.273,314.41 16.4396,313.076 16,311.5C 15.5017,308.183 15.335,304.85 15.5,301.5C 17.5,300.833 19.5,300.167 21.5,299.5C 21.3505,300.552 21.5172,301.552 22,302.5C 38.2606,300.523 54.7606,299.857 71.5,300.5 Z"/></g>
<g><path style="opacity:1" fill="#ea6953" d="M 113.5,313.5 C 106.39,315.152 99.0566,316.152 91.5,316.5C 90.1667,316.5 88.8333,316.5 87.5,316.5C 88.6002,315.442 89.9336,314.608 91.5,314C 98.8258,313.5 106.159,313.334 113.5,313.5 Z"/></g>
<g><path style="opacity:1" fill="#e79f92" d="M 124.5,309.5 C 124.5,309.833 124.5,310.167 124.5,310.5C 123.699,312.042 123.366,313.708 123.5,315.5C 122.078,315.709 120.745,316.209 119.5,317C 106.171,317.5 92.8375,317.667 79.5,317.5C 79.5,317.167 79.5,316.833 79.5,316.5C 82.1667,316.5 84.8333,316.5 87.5,316.5C 88.8333,316.5 90.1667,316.5 91.5,316.5C 99.84,316.666 108.173,316.5 116.5,316C 120.502,315.16 122.502,312.66 122.5,308.5C 123.183,308.863 123.85,309.196 124.5,309.5 Z"/></g>
<g><path style="opacity:1" fill="#d66860" d="M 79.5,316.5 C 79.5,316.833 79.5,317.167 79.5,317.5C 68.839,317.981 58.1723,318.314 47.5,318.5C 57.9742,317.179 68.6409,316.512 79.5,316.5 Z"/></g>
<g><path style="opacity:1" fill="#eaafb4" d="M 15.5,297.5 C 15.5,298.167 15.1667,298.5 14.5,298.5C 13.1667,298.5 11.8333,298.5 10.5,298.5C 9.72546,303.797 9.39212,309.13 9.5,314.5C 10.9587,314.433 12.2921,314.766 13.5,315.5C 15.2488,316.985 17.2488,317.985 19.5,318.5C 19.5,318.833 19.5,319.167 19.5,319.5C 17.8333,319.5 16.1667,319.5 14.5,319.5C 14.5,320.5 14.5,321.5 14.5,322.5C 13.1667,322.5 11.8333,322.5 10.5,322.5C 10.7678,320.901 10.4345,319.568 9.5,318.5C 6.84931,311.723 6.84931,304.89 9.5,298C 11.4727,297.505 13.4727,297.338 15.5,297.5 Z"/></g>
<g><path style="opacity:1" fill="#fcd2c9" d="M 123.5,315.5 C 123.119,316.931 122.119,317.764 120.5,318C 96.1638,318.454 71.8305,318.954 47.5,319.5C 47.5,319.167 47.5,318.833 47.5,318.5C 58.1723,318.314 68.839,317.981 79.5,317.5C 92.8375,317.667 106.171,317.5 119.5,317C 120.745,316.209 122.078,315.709 123.5,315.5 Z"/></g>
<g><path style="opacity:1" fill="#eb9388" d="M 19.5,319.5 C 19.5,319.167 19.5,318.833 19.5,318.5C 28.8333,318.5 38.1667,318.5 47.5,318.5C 47.5,318.833 47.5,319.167 47.5,319.5C 40.3524,320.492 33.0191,320.825 25.5,320.5C 23.7354,319.539 21.7354,319.205 19.5,319.5 Z"/></g>
<g><path style="opacity:1" fill="#c8a5c6" d="M 9.5,318.5 C 10.4345,319.568 10.7678,320.901 10.5,322.5C 11.8333,322.5 13.1667,322.5 14.5,322.5C 14.5,321.5 14.5,320.5 14.5,319.5C 16.1667,319.5 17.8333,319.5 19.5,319.5C 21.7354,319.205 23.7354,319.539 25.5,320.5C 25.5,321.5 25.5,322.5 25.5,323.5C 20.1667,323.5 14.8333,323.5 9.5,323.5C 9.5,321.833 9.5,320.167 9.5,318.5 Z"/></g>
<g><path style="opacity:1" fill="#898989" d="M 54.5,331.5 C 54.7564,333.792 54.4231,335.959 53.5,338C 50.9362,338.45 49.4362,337.284 49,334.5C 45.0701,335.969 44.9034,337.136 48.5,338C 46.5372,338.844 45.2039,338.344 44.5,336.5C 45.2299,335.288 46.2299,334.288 47.5,333.5C 46.7261,332.289 45.8928,332.289 45,333.5C 44.3828,332.551 44.5494,331.718 45.5,331C 47.1346,330.46 48.4679,330.96 49.5,332.5C 50.9653,330.576 52.632,330.243 54.5,331.5 Z"/></g>
<g><path style="opacity:1" fill="#838582" d="M 65.5,337.5 C 63.1523,337.408 61.4856,336.408 60.5,334.5C 62.1454,333.521 63.4787,332.188 64.5,330.5C 65.4742,332.743 65.8076,335.076 65.5,337.5 Z"/></g>
<g><path style="opacity:1" fill="#a4a3a2" d="M 13.5,338.5 C 12.8333,338.5 12.1667,338.5 11.5,338.5C 11.6816,336.409 11.3482,334.409 10.5,332.5C 10.8333,331.5 11.5,330.833 12.5,330.5C 13.48,333.086 13.8134,335.753 13.5,338.5 Z"/></g>
<g><path style="opacity:1" fill="#838583" d="M 60.5,334.5 C 59.609,335.11 58.609,335.443 57.5,335.5C 60.3113,332.7 59.8113,332.034 56,333.5C 55.5357,332.906 55.369,332.239 55.5,331.5C 58.8081,329.716 60.4747,330.716 60.5,334.5 Z"/></g>
<g><path style="opacity:1" fill="#838382" d="M 20.5,336.5 C 19.2209,337.968 17.5542,338.635 15.5,338.5C 16.9992,338.04 17.9992,336.707 18.5,334.5C 17.5,334.5 16.5,334.5 15.5,334.5C 15.3505,333.448 15.5172,332.448 16,331.5C 18.0596,332.761 19.5596,334.428 20.5,336.5 Z"/></g>
<g><path style="opacity:1" fill="#f4f4f4" d="M 51.5,332.5 C 53.9725,333.749 54.1391,335.415 52,337.5C 51.5065,335.866 51.3398,334.199 51.5,332.5 Z"/></g>
<g><path style="opacity:1" fill="#9b9c9b" d="M 39.5,333.5 C 40.4345,334.568 40.7678,335.901 40.5,337.5C 37.9446,338.198 35.4446,338.531 33,338.5C 31.013,337.846 29.6797,336.513 29,334.5C 27.9887,335.337 26.8221,335.67 25.5,335.5C 25.7148,337.179 25.0481,338.179 23.5,338.5C 23.5,335.833 23.5,333.167 23.5,330.5C 25.5273,330.338 27.5273,330.505 29.5,331C 28.062,331.219 26.7287,331.719 25.5,332.5C 26.3333,332.833 27.1667,333.167 28,333.5C 30.4075,332.464 32.7409,332.464 35,333.5C 35.3333,332.5 35.6667,331.5 36,330.5C 36.985,331.814 38.1516,332.814 39.5,333.5 Z"/></g>
<g><path style="opacity:1" fill="#e5e7e7" d="M 39.5,333.5 C 39.5743,337.161 38.5743,337.828 36.5,335.5C 37.0047,334.081 38.0047,333.415 39.5,333.5 Z"/></g>
<g><path style="opacity:1" fill="#e6e6e6" d="M 54.5,331.5 C 54.8333,331.5 55.1667,331.5 55.5,331.5C 55.369,332.239 55.5357,332.906 56,333.5C 59.8113,332.034 60.3113,332.7 57.5,335.5C 58.609,335.443 59.609,335.11 60.5,334.5C 61.4856,336.408 63.1523,337.408 65.5,337.5C 65.6107,338.117 65.944,338.617 66.5,339C 62.2467,339.2 58.08,339.7 54,340.5C 38.5274,339.873 24.3607,339.207 11.5,338.5C 12.1667,338.5 12.8333,338.5 13.5,338.5C 14.1667,338.5 14.8333,338.5 15.5,338.5C 17.5542,338.635 19.2209,337.968 20.5,336.5C 20.8212,338.048 21.8212,338.715 23.5,338.5C 25.0481,338.179 25.7148,337.179 25.5,335.5C 26.8221,335.67 27.9887,335.337 29,334.5C 29.6797,336.513 31.013,337.846 33,338.5C 35.4446,338.531 37.9446,338.198 40.5,337.5C 40.7352,338.097 41.2352,338.43 42,338.5C 43.0111,337.944 43.8444,337.278 44.5,336.5C 45.2039,338.344 46.5372,338.844 48.5,338C 44.9034,337.136 45.0701,335.969 49,334.5C 49.4362,337.284 50.9362,338.45 53.5,338C 54.4231,335.959 54.7564,333.792 54.5,331.5 Z"/></g>
<g><path style="opacity:1" fill="#898989" d="M 57.5,335.5 C 57.8807,336.931 58.8807,337.764 60.5,338C 58.7412,338.798 57.0745,338.631 55.5,337.5C 55.8555,336.478 56.5222,335.811 57.5,335.5 Z"/></g>
<g><path style="opacity:1" fill="#b897de" d="M 9.5,360.5 C 35.1688,360.333 60.8355,360.5 86.5,361C 87.4777,367.41 87.811,373.91 87.5,380.5C 61.5,380.5 35.5,380.5 9.5,380.5C 9.5,373.833 9.5,367.167 9.5,360.5 Z"/></g>
<g><path style="opacity:1" fill="#b385ee" d="M 10.5,362.5 C 35.8333,362.5 61.1667,362.5 86.5,362.5C 86.8066,368.093 86.4732,373.593 85.5,379C 60.5022,379.5 35.5022,379.667 10.5,379.5C 10.5,373.833 10.5,368.167 10.5,362.5 Z"/></g>
<g><path style="opacity:1" fill="#b382fa" d="M 21.5,373.5 C 27.9188,375.201 34.5854,375.867 41.5,375.5C 42.1667,375.5 42.8333,375.5 43.5,375.5C 54.5745,376.8 65.4079,376.8 76,375.5C 78.0496,372.852 79.2163,369.852 79.5,366.5C 62.4967,366.667 45.4967,366.5 28.5,366C 26.6992,365.683 26.3659,365.016 27.5,364C 46.8305,363.5 66.1638,363.333 85.5,363.5C 85.6625,368.547 85.3292,373.547 84.5,378.5C 60.1667,378.5 35.8333,378.5 11.5,378.5C 11.5,373.5 11.5,368.5 11.5,363.5C 16.2137,363.173 20.8804,363.507 25.5,364.5C 22.1975,365.44 18.8642,366.273 15.5,367C 17.3997,369.373 19.3997,371.54 21.5,373.5 Z"/></g>
<g><path style="opacity:1" fill="#dab2f4" d="M 21.5,373.5 C 20.4891,371.598 20.3224,369.598 21,367.5C 22.0174,370.028 23.1841,370.028 24.5,367.5C 25.2164,368.311 26.0497,368.978 27,369.5C 31.3142,368.008 35.4809,368.175 39.5,370C 38.9288,371.205 38.2621,372.372 37.5,373.5C 36.8076,372.975 36.3076,372.308 36,371.5C 32.8506,373.362 29.3506,374.029 25.5,373.5C 25.6495,372.448 25.4828,371.448 25,370.5C 24.5776,372.426 23.4109,373.426 21.5,373.5 Z"/></g>
<g><path style="opacity:1" fill="#cfa7ef" d="M 43.5,375.5 C 42.8333,375.5 42.1667,375.5 41.5,375.5C 41.2011,373.396 41.5344,371.396 42.5,369.5C 43.086,369.709 43.586,370.043 44,370.5C 47.6378,368.986 51.4711,368.32 55.5,368.5C 60.3376,368.759 65.0043,369.093 69.5,369.5C 71.5,368.833 73.5,368.167 75.5,367.5C 76.4656,369.396 76.7989,371.396 76.5,373.5C 74.8561,373.714 73.3561,373.38 72,372.5C 68.2988,375.37 64.9654,375.037 62,371.5C 61.6924,372.308 61.1924,372.975 60.5,373.5C 59.0333,373.277 57.5333,372.944 56,372.5C 55.6322,373.91 54.7989,374.91 53.5,375.5C 49.8516,373.646 46.5182,373.646 43.5,375.5 Z"/></g>
</svg>
