<?xml version="1.0" encoding="UTF-8"?>
<!DOCTYPE svg PUBLIC "-//W3C//DTD SVG 1.1//EN" "http://www.w3.org/Graphics/SVG/1.1/DTD/svg11.dtd">
<svg xmlns="http://www.w3.org/2000/svg" version="1.1" width="228px" height="392px" style="shape-rendering:geometricPrecision; text-rendering:geometricPrecision; image-rendering:optimizeQuality; fill-rule:evenodd; clip-rule:evenodd" xmlns:xlink="http://www.w3.org/1999/xlink">
<g><path style="opacity:1" fill="#fcfcfb" d="M -0.5,-0.5 C 75.5,-0.5 151.5,-0.5 227.5,-0.5C 227.5,50.1667 227.5,100.833 227.5,151.5C 151.524,151.337 75.5239,151.67 -0.5,152.5C -0.5,101.5 -0.5,50.5 -0.5,-0.5 Z"/></g>
<g><path style="opacity:1" fill="#767676" d="M 62.5,12.5 C 66.35,12.7007 67.35,14.5341 65.5,18C 61.5369,18.1177 60.5369,16.2843 62.5,12.5 Z"/></g>
<g><path style="opacity:1" fill="#535353" d="M 47.5,10.5 C 48.7479,11.3339 49.4146,12.6672 49.5,14.5C 48.935,19.7296 48.1017,19.7296 47,14.5C 45.9887,15.3366 44.8221,15.67 43.5,15.5C 43.719,16.675 43.3857,17.675 42.5,18.5C 41.5258,16.2573 41.1924,13.924 41.5,11.5C 43.4672,11.2606 45.3005,11.5939 47,12.5C 47.4643,11.9056 47.631,11.2389 47.5,10.5 Z"/></g>
<g><path style="opacity:1" fill="#f6f6f6" d="M 43.5,12.5 C 45.337,12.6395 45.6704,13.3061 44.5,14.5C 43.7025,14.0431 43.3691,13.3764 43.5,12.5 Z"/></g>
<g><path style="opacity:1" fill="#626262" d="M 51.5,12.5 C 53.0174,12.5106 54.1841,13.1772 55,14.5C 59.6077,11.4183 61.2744,12.7516 60,18.5C 58.8658,13.203 58.0325,13.203 57.5,18.5C 55.1667,18.5 52.8333,18.5 50.5,18.5C 51.2425,16.3035 51.5759,14.3035 51.5,12.5 Z"/></g>
<g><path style="opacity:1" fill="#cdcdcd" d="M 206.5,13.5 C 208.821,14.6249 211.154,14.7916 213.5,14C 211.893,15.049 211.227,16.549 211.5,18.5C 206.58,19.585 204.913,17.9183 206.5,13.5 Z"/></g>
<g><path style="opacity:1" fill="#f1e8df" d="M 96.5,18.5 C 96.0296,19.6935 95.0296,20.3601 93.5,20.5C 91.3887,20.5142 89.5553,19.8475 88,18.5C 86.5879,19.6856 85.4212,21.019 84.5,22.5C 81.0024,21.9547 78.0024,22.788 75.5,25C 78.0467,26.4406 80.5467,26.9406 83,26.5C 83.2321,27.7375 83.7321,28.7375 84.5,29.5C 84.8333,30.1667 85.1667,30.8333 85.5,31.5C 83.5891,31.4257 82.4224,30.4257 82,28.5C 81.4241,30.8516 79.9241,31.8516 77.5,31.5C 76.0055,31.2908 74.8388,30.6241 74,29.5C 71.298,30.474 69.9646,29.474 70,26.5C 71.3561,25.6198 72.8561,25.2865 74.5,25.5C 73.5492,19.6957 76.0492,18.0291 82,20.5C 84.2669,19.8251 85.7669,18.3251 86.5,16C 88.1341,15.5065 89.8008,15.3398 91.5,15.5C 91.8731,18.8494 93.5398,19.8494 96.5,18.5 Z"/></g>
<g><path style="opacity:1" fill="#9a9ca6" d="M 20.5,9.5 C 32.1685,8.99134 36.6685,14.3247 34,25.5C 26.3136,33.9574 19.6469,33.2907 14,23.5C 13.1808,17.4706 15.3475,12.8039 20.5,9.5 Z"/></g>
<g><path style="opacity:1" fill="#d2a18b" d="M 84.5,22.5 C 84.5,24.8333 84.5,27.1667 84.5,29.5C 83.7321,28.7375 83.2321,27.7375 83,26.5C 80.5467,26.9406 78.0467,26.4406 75.5,25C 78.0024,22.788 81.0024,21.9547 84.5,22.5 Z"/></g>
<g><path style="opacity:1" fill="#c62604" d="M 101.5,19.5 C 102.167,19.5 102.833,19.5 103.5,19.5C 106.908,20.0203 110.241,21.0203 113.5,22.5C 114.407,25.4212 114.74,28.4212 114.5,31.5C 106.505,31.8347 98.5053,32.1681 90.5,32.5C 90.1667,32.5 89.8333,32.5 89.5,32.5C 89.335,29.1501 89.5017,25.8168 90,22.5C 93.8312,21.5007 97.6646,20.5007 101.5,19.5 Z"/></g>
<g><path style="opacity:1" fill="#d05c2e" d="M 96.5,18.5 C 98.4147,18.2155 100.081,18.5489 101.5,19.5C 97.6646,20.5007 93.8312,21.5007 90,22.5C 89.5017,25.8168 89.335,29.1501 89.5,32.5C 88.1667,32.1667 86.8333,31.8333 85.5,31.5C 85.1667,30.8333 84.8333,30.1667 84.5,29.5C 84.5,27.1667 84.5,24.8333 84.5,22.5C 85.4212,21.019 86.5879,19.6856 88,18.5C 89.5553,19.8475 91.3887,20.5142 93.5,20.5C 95.0296,20.3601 96.0296,19.6935 96.5,18.5 Z"/></g>
<g><path style="opacity:1" fill="#5b5d5c" d="M 42.5,25.5 C 43.2216,25.9175 43.7216,26.5842 44,27.5C 44.3333,26.8333 44.6667,26.1667 45,25.5C 46.1871,27.0444 46.5205,28.7111 46,30.5C 45.0475,28.4078 43.7141,28.0745 42,29.5C 41.805,28.1807 41.9717,26.8474 42.5,25.5 Z"/></g>
<g><path style="opacity:1" fill="#d3643a" d="M 103.5,19.5 C 107.833,19.5 112.167,19.5 116.5,19.5C 116.805,24.7616 116.471,29.9283 115.5,35C 107.993,35.5952 100.66,35.0952 93.5,33.5C 92.209,33.7373 91.209,33.404 90.5,32.5C 98.5053,32.1681 106.505,31.8347 114.5,31.5C 114.74,28.4212 114.407,25.4212 113.5,22.5C 110.241,21.0203 106.908,20.0203 103.5,19.5 Z"/></g>
<g><path style="opacity:1" fill="#dda489" d="M 116.5,19.5 C 117.825,24.9008 117.825,30.4008 116.5,36C 111.833,36.6667 107.167,36.6667 102.5,36C 99.5,34.9261 96.5,34.0928 93.5,33.5C 100.66,35.0952 107.993,35.5952 115.5,35C 116.471,29.9283 116.805,24.7616 116.5,19.5 Z"/></g>
<g><path style="opacity:1" fill="#222222" d="M 41.5,51.5 C 47.0666,50.7532 48.9,53.0866 47,58.5C 44.916,61.033 42.916,61.033 41,58.5C 40.2967,56.0709 40.4634,53.7375 41.5,51.5 Z"/></g>
<g><path style="opacity:1" fill="#1e1e1e" d="M 36.5,60.5 C 35.1779,60.67 34.0113,60.3366 33,59.5C 32.5045,57.5273 32.3379,55.5273 32.5,53.5C 34.54,50.8661 36.7067,50.8661 39,53.5C 40.0874,56.6139 39.254,58.9472 36.5,60.5 Z"/></g>
<g><path style="opacity:1" fill="#242424" d="M 61.5,51.5 C 67.6426,52.0262 68.9759,54.8595 65.5,60C 63.8876,60.7203 62.3876,60.5536 61,59.5C 60.2782,56.7395 60.4448,54.0728 61.5,51.5 Z"/></g>
<g><path style="opacity:1" fill="#202020" d="M 89.5,51.5 C 91.7505,51.1814 93.7505,51.6814 95.5,53C 94.451,53.4922 93.451,53.3256 92.5,52.5C 91.6919,52.8076 91.0253,53.3076 90.5,54C 91.9047,55.2692 93.5714,55.7692 95.5,55.5C 95.9174,60.0685 93.9174,61.5685 89.5,60C 88.2888,59.1072 88.2888,58.2739 89.5,57.5C 94.4414,58.309 94.6081,57.6424 90,55.5C 89.51,54.2068 89.3433,52.8734 89.5,51.5 Z"/></g>
<g><path style="opacity:1" fill="#131313" d="M 158.5,59.5 C 158.675,57.3792 158.341,55.3792 157.5,53.5C 160.293,52.647 160.96,53.647 159.5,56.5C 159.529,58.0293 160.196,59.196 161.5,60C 160.251,60.7401 159.251,60.5735 158.5,59.5 Z"/></g>
<g><path style="opacity:1" fill="#191919" d="M 15.5,51.5 C 16.5,51.5 17.5,51.5 18.5,51.5C 18.8174,54.5719 18.4841,57.5719 17.5,60.5C 16.6858,58.2338 16.1858,55.9005 16,53.5C 15.3457,54.6956 14.8457,54.6956 14.5,53.5C 14.8627,52.8165 15.1961,52.1499 15.5,51.5 Z"/></g>
<g><path style="opacity:1" fill="#cdcdcd" d="M 34.5,52.5 C 35.4959,52.4142 36.3292,52.7476 37,53.5C 37.4935,55.1341 37.6602,56.8008 37.5,58.5C 36.1667,58.5 34.8333,58.5 33.5,58.5C 33.3253,56.3792 33.6586,54.3792 34.5,52.5 Z"/></g>
<g><path style="opacity:1" fill="#f4f4f4" d="M 43.5,52.5 C 45.2798,53.9899 45.9465,55.9899 45.5,58.5C 44.5,58.5 43.5,58.5 42.5,58.5C 42.3253,56.3792 42.6586,54.3792 43.5,52.5 Z"/></g>
<g><path style="opacity:1" fill="#e0e0e0" d="M 62.5,52.5 C 63.4959,52.4142 64.3292,52.7476 65,53.5C 65.4935,55.1341 65.6602,56.8008 65.5,58.5C 64.5,58.5 63.5,58.5 62.5,58.5C 62.5,56.5 62.5,54.5 62.5,52.5 Z"/></g>
<g><path style="opacity:1" fill="#171717" d="M 165.5,51.5 C 166.922,51.7496 167.922,52.583 168.5,54C 167.68,56.3332 167.347,58.4999 167.5,60.5C 165.95,58.6672 164.95,56.5006 164.5,54C 165.252,53.3292 165.586,52.4959 165.5,51.5 Z"/></g>
<g><path style="opacity:1" fill="#212121" d="M 50.5,51.5 C 52.1439,51.2865 53.6439,51.6198 55,52.5C 55.769,55.0991 55.6023,57.5991 54.5,60C 49.5036,60.6643 47.6703,58.4977 49,53.5C 49.7172,52.9558 50.2172,52.2891 50.5,51.5 Z"/></g>
<g><path style="opacity:1" fill="#d5d5d5" d="M 51.5,52.5 C 54.2418,53.5578 54.9085,55.3911 53.5,58C 52.552,58.4828 51.552,58.6495 50.5,58.5C 50.3253,56.3792 50.6586,54.3792 51.5,52.5 Z"/></g>
<g><path style="opacity:1" fill="#1d1d1d" d="M 104.5,59.5 C 103.508,59.3284 102.842,59.6618 102.5,60.5C 100.833,60.5 99.1667,60.5 97.5,60.5C 97.5,57.5 97.5,54.5 97.5,51.5C 104.216,50.5419 106.549,53.2085 104.5,59.5 Z"/></g>
<g><path style="opacity:1" fill="#e7e8e8" d="M 99.5,52.5 C 102.966,53.109 103.966,54.9423 102.5,58C 101.552,58.4828 100.552,58.6495 99.5,58.5C 99.5,56.5 99.5,54.5 99.5,52.5 Z"/></g>
<g><path style="opacity:1" fill="#2e2e2e" d="M 120.5,53.5 C 125.159,53.8111 126.493,56.1445 124.5,60.5C 122.997,59.9478 121.331,59.9478 119.5,60.5C 119.5,59.1667 119.5,57.8333 119.5,56.5C 120.873,56.6567 122.207,56.49 123.5,56C 122.428,54.7163 121.095,54.3829 119.5,55C 120.056,54.6174 120.389,54.1174 120.5,53.5 Z"/></g>
<g><path style="opacity:1" fill="#232323" d="M 155.5,54.5 C 155.5,56.5 155.5,58.5 155.5,60.5C 154.549,59.0813 154.216,57.4147 154.5,55.5C 153.5,55.5 152.5,55.5 151.5,55.5C 151.785,57.288 151.452,58.9547 150.5,60.5C 149.167,58.1667 149.167,55.8333 150.5,53.5C 152.215,53.5951 153.881,53.9284 155.5,54.5 Z"/></g>
<g><path style="opacity:1" fill="#262626" d="M 127.5,53.5 C 128.978,53.238 130.311,53.5713 131.5,54.5C 130.397,54.9976 129.397,55.3309 128.5,55.5C 129.325,56.3857 130.325,56.719 131.5,56.5C 131.5,57.8333 131.5,59.1667 131.5,60.5C 129.571,60.7692 127.905,60.2692 126.5,59C 127.738,59.0773 128.738,58.9106 129.5,58.5C 126.807,57.4682 126.14,55.8015 127.5,53.5 Z"/></g>
<g><path style="opacity:1" fill="#212121" d="M 143.5,53.5 C 146.95,52.7564 148.616,54.0897 148.5,57.5C 147.022,57.238 145.689,57.5713 144.5,58.5C 145.391,59.5896 146.391,59.5896 147.5,58.5C 148.696,58.8457 148.696,59.3457 147.5,60C 142.57,60.427 141.237,58.2604 143.5,53.5 Z"/></g>
<g><path style="opacity:1" fill="#a5a5a5" d="M 144.5,54.5 C 146.983,54.73 147.483,55.3966 146,56.5C 144.97,56.1639 144.47,55.4972 144.5,54.5 Z"/></g>
<g><path style="opacity:1" fill="#717171" d="M 157.5,53.5 C 158.341,55.3792 158.675,57.3792 158.5,59.5C 157.71,58.3915 157.21,57.0581 157,55.5C 156.802,57.3817 156.302,59.0484 155.5,60.5C 155.5,58.5 155.5,56.5 155.5,54.5C 156.167,54.1667 156.833,53.8333 157.5,53.5 Z"/></g>
<g><path style="opacity:1" fill="#373737" d="M 108.5,54.5 C 109.793,53.3552 110.959,53.6885 112,55.5C 114.26,53.0028 115.593,53.6695 116,57.5C 116.219,56.062 116.719,54.7287 117.5,53.5C 117.838,55.6552 117.838,57.9885 117.5,60.5C 116.5,60.5 115.5,60.5 114.5,60.5C 114.322,56.8979 113.322,56.8979 111.5,60.5C 110.482,58.4061 109.482,56.4061 108.5,54.5 Z"/></g>
<g><path style="opacity:1" fill="#181818" d="M 23.5,51.5 C 24.5,51.5 25.5,51.5 26.5,51.5C 26.7824,54.3467 26.7824,57.0134 26.5,59.5C 26.1667,59.8333 25.8333,60.1667 25.5,60.5C 24.1585,58.9951 22.4918,58.3285 20.5,58.5C 21.0115,55.9785 22.0115,53.6451 23.5,51.5 Z"/></g>
<g><path style="opacity:1" fill="#d8d8d8" d="M 23.5,53.5 C 24.782,54.7082 24.782,56.0416 23.5,57.5C 22.7084,56.3002 22.7084,54.9669 23.5,53.5 Z"/></g>
<g><path style="opacity:1" fill="#202020" d="M 170.5,53.5 C 176.016,53.4734 177.349,55.64 174.5,60C 169.82,60.1626 168.486,57.9959 170.5,53.5 Z"/></g>
<g><path style="opacity:1" fill="#e1e1e1" d="M 171.5,55.5 C 172.5,55.5 173.5,55.5 174.5,55.5C 173.5,60.8333 172.5,60.8333 171.5,55.5 Z"/></g>
<g><path style="opacity:1" fill="#191919" d="M 136.5,53.5 C 138.429,53.2308 140.095,53.7308 141.5,55C 136.648,54.5339 136.481,55.3673 141,57.5C 141.617,58.4491 141.451,59.2825 140.5,60C 138.597,60.7737 136.93,60.4404 135.5,59C 140.352,59.4661 140.519,58.6327 136,56.5C 135.53,55.4232 135.697,54.4232 136.5,53.5 Z"/></g>
<g><path style="opacity:1" fill="#1d1d1d" d="M 69.5,51.5 C 75.0666,50.7532 76.9,53.0866 75,58.5C 73,61.1667 71,61.1667 69,58.5C 68.2967,56.0709 68.4634,53.7375 69.5,51.5 Z"/></g>
<g><path style="opacity:1" fill="#f0f0f0" d="M 71.5,52.5 C 73.9398,54.5726 74.1065,56.906 72,59.5C 70.1932,57.294 70.0265,54.9606 71.5,52.5 Z"/></g>
<g><path style="opacity:1" fill="#282828" d="M 79.5,51.5 C 81.3435,53.2789 82.0102,55.6122 81.5,58.5C 82.8333,58.5 84.1667,58.5 85.5,58.5C 85.1924,56.076 85.5258,53.7427 86.5,51.5C 87.6517,54.1062 87.8184,56.7728 87,59.5C 80.4712,61.1346 77.9712,58.4679 79.5,51.5 Z"/></g>
<g><path style="opacity:1" fill="#474747" d="M 30.5,58.5 C 30.5674,59.9587 30.2341,61.2921 29.5,62.5C 28.8761,62.0831 28.5427,61.4164 28.5,60.5C 28.7472,59.2867 29.4138,58.62 30.5,58.5 Z"/></g>
<g><path style="opacity:1" fill="#d2d1d1" d="M 32.5,53.5 C 32.3379,55.5273 32.5045,57.5273 33,59.5C 34.0113,60.3366 35.1779,60.67 36.5,60.5C 59.0695,61.8265 81.0695,61.8265 102.5,60.5C 102.842,59.6618 103.508,59.3284 104.5,59.5C 104.611,60.3366 104.944,61.3366 105.5,62.5C 101.353,63.167 97.3525,63.8337 93.5,64.5C 93.1667,64.5 92.8333,64.5 92.5,64.5C 71.6278,63.8116 50.6278,63.145 29.5,62.5C 30.2341,61.2921 30.5674,59.9587 30.5,58.5C 31.1667,56.8333 31.8333,55.1667 32.5,53.5 Z"/></g>
<g><path style="opacity:1" fill="#1d1d1d" d="M 152.5,67.5 C 157.383,68.4655 158.717,71.2988 156.5,76C 151.33,76.8653 149.497,74.6987 151,69.5C 151.717,68.9558 152.217,68.2891 152.5,67.5 Z"/></g>
<g><path style="opacity:1" fill="#eeeeee" d="M 152.5,69.5 C 153.5,69.5 154.5,69.5 155.5,69.5C 155.799,71.604 155.466,73.604 154.5,75.5C 152.717,73.9775 152.051,71.9775 152.5,69.5 Z"/></g>
<g><path style="opacity:1" fill="#222222" d="M 168.5,67.5 C 174.263,67.7827 175.93,70.616 173.5,76C 171.272,76.8201 169.272,76.4868 167.5,75C 173.659,75.3932 173.826,74.5599 168,72.5C 167.36,70.735 167.527,69.0683 168.5,67.5 Z"/></g>
<g><path style="opacity:1" fill="#e6e6e6" d="M 169.5,69.5 C 172.957,69.6672 173.29,70.6672 170.5,72.5C 169.614,71.675 169.281,70.675 169.5,69.5 Z"/></g>
<g><path style="opacity:1" fill="#c5603b" d="M 92.5,64.5 C 92.8333,64.5 93.1667,64.5 93.5,64.5C 98.0416,64.7713 102.208,66.1046 106,68.5C 107.162,67.8132 108.328,67.6466 109.5,68C 108.214,70.8316 108.214,73.6649 109.5,76.5C 107.912,77.6413 106.579,79.1413 105.5,81C 94.1998,82.2208 82.8664,82.7208 71.5,82.5C 65.7291,83.1128 60.3958,82.4461 55.5,80.5C 72.2212,80.9311 88.8879,80.2644 105.5,78.5C 106.833,75.8333 106.833,73.1667 105.5,70.5C 101.562,67.9658 97.2291,66.6325 92.5,66.5C 92.5,65.8333 92.5,65.1667 92.5,64.5 Z"/></g>
<g><path style="opacity:1" fill="#232323" d="M 176.5,67.5 C 179.994,70.8155 180.327,74.4821 177.5,78.5C 177.78,74.9439 177.446,71.2772 176.5,67.5 Z"/></g>
<g><path style="opacity:1" fill="#161616" d="M 115.5,67.5 C 116.239,67.369 116.906,67.5357 117.5,68C 116.282,69.4382 115.615,71.1049 115.5,73C 116.125,74.8405 116.292,76.6739 116,78.5C 114.181,74.941 114.014,71.2744 115.5,67.5 Z"/></g>
<g><path style="opacity:1" fill="#151515" d="M 119.5,71.5 C 122.674,71.9522 123.007,72.9522 120.5,74.5C 119.614,73.675 119.281,72.675 119.5,71.5 Z"/></g>
<g><path style="opacity:1" fill="#0f0f0f" d="M 125.5,71.5 C 127.465,71.9483 127.798,72.9483 126.5,74.5C 125.614,73.675 125.281,72.675 125.5,71.5 Z"/></g>
<g><path style="opacity:1" fill="#181818" d="M 131.5,71.5 C 133.465,71.9483 133.798,72.9483 132.5,74.5C 130.481,73.8671 130.147,72.8671 131.5,71.5 Z"/></g>
<g><path style="opacity:1" fill="#1c1c1c" d="M 137.5,71.5 C 139.048,71.8212 139.715,72.8212 139.5,74.5C 136.752,74.5983 136.086,73.5983 137.5,71.5 Z"/></g>
<g><path style="opacity:1" fill="#292929" d="M 146.5,67.5 C 147.765,68.5145 148.431,70.0145 148.5,72C 148.167,73.5 147.833,75 147.5,76.5C 146.881,73.9682 145.881,71.6349 144.5,69.5C 145.243,68.8182 145.909,68.1515 146.5,67.5 Z"/></g>
<g><path style="opacity:1" fill="#bf1b02" d="M 92.5,66.5 C 97.2291,66.6325 101.562,67.9658 105.5,70.5C 106.833,73.1667 106.833,75.8333 105.5,78.5C 88.8879,80.2644 72.2212,80.9311 55.5,80.5C 54.8333,80.5 54.1667,80.5 53.5,80.5C 41.011,79.5046 28.3443,79.1713 15.5,79.5C 15.0708,75.7432 15.7375,72.2432 17.5,69C 39.5,68.6667 61.5,68.3333 83.5,68C 86.6946,67.8195 89.6946,67.3195 92.5,66.5 Z"/></g>
<g><path style="opacity:1" fill="#1e1e1e" d="M 160.5,67.5 C 162.429,67.2308 164.095,67.7308 165.5,69C 163.616,69.2163 161.949,69.883 160.5,71C 163.45,69.8072 165.45,70.8072 166.5,74C 166.355,74.772 166.022,75.4387 165.5,76C 163.559,76.7429 161.726,76.5762 160,75.5C 159.278,72.7395 159.445,70.0728 160.5,67.5 Z"/></g>
<g><path style="opacity:1" fill="#e5e5e5" d="M 161.5,72.5 C 164.957,72.6672 165.29,73.6672 162.5,75.5C 161.614,74.675 161.281,73.675 161.5,72.5 Z"/></g>
<g><path style="opacity:1" fill="#c05234" d="M 92.5,66.5 C 89.6946,67.3195 86.6946,67.8195 83.5,68C 61.5,68.3333 39.5,68.6667 17.5,69C 15.7375,72.2432 15.0708,75.7432 15.5,79.5C 28.3443,79.1713 41.011,79.5046 53.5,80.5C 40.8432,81.3947 28.1765,81.5614 15.5,81C 13.9409,79.0042 13.2742,76.6709 13.5,74C 13.5356,71.9063 13.8689,69.9063 14.5,68C 16.6487,67.4212 18.8154,66.9212 21,66.5C 44.8227,67.7087 68.656,67.7087 92.5,66.5 Z"/></g>
<g><path style="opacity:1" fill="#f4ccb4" d="M 109.5,76.5 C 109.022,78.9171 108.022,81.0838 106.5,83C 94.6593,83.8261 82.9927,83.6595 71.5,82.5C 82.8664,82.7208 94.1998,82.2208 105.5,81C 106.579,79.1413 107.912,77.6413 109.5,76.5 Z"/></g>
<g><path style="opacity:1" fill="#d8cee0" d="M 42.5,106.5 C 61.8797,106.064 81.2131,106.564 100.5,108C 90.8333,108.167 81.1667,108.333 71.5,108.5C 61.4761,108.499 51.8095,107.832 42.5,106.5 Z"/></g>
<g><path style="opacity:1" fill="#c4a8df" d="M 11.5,103.5 C 16.446,103.931 21.446,104.097 26.5,104C 27.1258,104.75 27.6258,105.584 28,106.5C 29.7889,104.771 31.9556,104.104 34.5,104.5C 34.5,105.833 34.5,107.167 34.5,108.5C 29.4763,110.951 24.1429,112.618 18.5,113.5C 18.719,112.325 18.3857,111.325 17.5,110.5C 13.6591,109.664 11.6591,107.331 11.5,103.5 Z"/></g>
<g><path style="opacity:1" fill="#fbedfd" d="M 21.5,105.5 C 24.5,105.167 25.8333,106.5 25.5,109.5C 24.1667,109.5 22.8333,109.5 21.5,109.5C 21.5,108.167 21.5,106.833 21.5,105.5 Z"/></g>
<g><path style="opacity:1" fill="#6c6c6c" d="M 11.5,132.5 C 9.9153,131.998 9.4153,130.998 10,129.5C 11.0386,130.244 11.5386,131.244 11.5,132.5 Z"/></g>
<g><path style="opacity:1" fill="#737373" d="M 73.5,132.5 C 74.3864,131.224 75.3864,131.224 76.5,132.5C 75.7666,133.087 74.7666,133.087 73.5,132.5 Z"/></g>
<g><path style="opacity:1" fill="#626262" d="M 49.5,131.5 C 54.0685,131.083 55.5685,133.083 54,137.5C 52.6667,130.833 51.3333,130.833 50,137.5C 49.5045,135.527 49.3379,133.527 49.5,131.5 Z"/></g>
<g><path style="opacity:1" fill="#898989" d="M 116.5,135.5 C 116.631,136.376 116.298,137.043 115.5,137.5C 114.145,135.477 113.812,133.477 114.5,131.5C 115.172,132.949 115.839,134.282 116.5,135.5 Z"/></g>
<g><path style="opacity:1" fill="#949494" d="M 153.5,131.5 C 155.824,131.995 157.991,131.995 160,131.5C 163.312,133.121 163.312,133.455 160,132.5C 158.956,133.623 158.29,134.956 158,136.5C 157.751,135.376 157.251,134.376 156.5,133.5C 155.833,134.833 155.167,136.167 154.5,137.5C 152.902,137.61 151.235,137.943 149.5,138.5C 147.899,137.965 147.399,136.965 148,135.5C 149.676,134.939 151.009,133.939 152,132.5C 153.008,137.541 153.508,137.208 153.5,131.5 Z"/></g>
<g><path style="opacity:1" fill="#7b7b7b" d="M 21.5,131.5 C 22.9986,132.678 23.9986,134.345 24.5,136.5C 25.9702,130.041 26.6369,130.374 26.5,137.5C 24.8333,137.5 23.1667,137.5 21.5,137.5C 21.5,135.5 21.5,133.5 21.5,131.5 Z"/></g>
<g><path style="opacity:1" fill="#7a7a7a" d="M 39.5,132.5 C 38.9782,139.136 38.1449,139.136 37,132.5C 35.883,133.949 35.2163,135.616 35,137.5C 34.5045,135.527 34.3379,133.527 34.5,131.5C 36.2915,131.366 37.9582,131.699 39.5,132.5 Z"/></g>
<g><path style="opacity:1" fill="#5e5e5e" d="M 44.5,131.5 C 48.0714,131.408 49.2381,133.074 48,136.5C 47.7104,134.956 47.0437,133.623 46,132.5C 44.6525,134.193 44.1525,135.86 44.5,137.5C 43.3058,135.484 43.3058,133.484 44.5,131.5 Z"/></g>
<g><path style="opacity:1" fill="#7e7e7e" d="M 61.5,131.5 C 62.5585,132.6 63.3918,133.934 64,135.5C 64.3333,134.5 64.6667,133.5 65,132.5C 65.6543,131.304 66.1543,131.304 66.5,132.5C 65.7216,135.539 64.3883,138.206 62.5,140.5C 62.7246,137.627 62.3913,134.627 61.5,131.5 Z"/></g>
<g><path style="opacity:1" fill="#868686" d="M 116.5,135.5 C 116.238,134.022 116.571,132.689 117.5,131.5C 118.517,134.028 119.684,134.028 121,131.5C 121.442,133.684 120.942,135.684 119.5,137.5C 118.735,136.388 117.735,135.721 116.5,135.5 Z"/></g>
<g><path style="opacity:1" fill="#585858" d="M 173.5,131.5 C 178.068,131.083 179.568,133.083 178,137.5C 176.667,130.833 175.333,130.833 174,137.5C 173.505,135.527 173.338,133.527 173.5,131.5 Z"/></g>
<g><path style="opacity:1" fill="#7b7b7b" d="M 11.5,132.5 C 12.7666,131.913 13.7666,131.913 14.5,132.5C 12.9253,139.035 11.9253,139.035 11.5,132.5 Z"/></g>
<g><path style="opacity:1" fill="#939393" d="M 27.5,131.5 C 28.675,131.281 29.675,131.614 30.5,132.5C 28.619,139.014 27.619,138.681 27.5,131.5 Z"/></g>
<g><path style="opacity:1" fill="#606060" d="M 39.5,132.5 C 40.1894,131.226 41.0228,131.226 42,132.5C 42.6667,134.167 42.6667,135.833 42,137.5C 41.9005,135.347 41.0672,133.681 39.5,132.5 Z"/></g>
<g><path style="opacity:1" fill="#888888" d="M 56.5,131.5 C 60.2253,131.78 61.392,133.78 60,137.5C 58.4126,138.727 57.0793,138.394 56,136.5C 55.3603,134.735 55.5269,133.068 56.5,131.5 Z"/></g>
<g><path style="opacity:1" fill="#9f9f9f" d="M 82.5,131.5 C 85.4032,131.907 88.4032,132.074 91.5,132C 92.7596,133.814 92.7596,135.647 91.5,137.5C 90.1667,132.167 88.8333,132.167 87.5,137.5C 85.6565,137.245 83.6565,137.078 81.5,137C 80.2427,134.924 80.576,133.09 82.5,131.5 Z"/></g>
<g><path style="opacity:1" fill="#7c7c7c" d="M 123.5,131.5 C 125.331,132.052 126.997,132.052 128.5,131.5C 129.167,132.5 129.833,133.5 130.5,134.5C 131.192,133.975 131.692,133.308 132,132.5C 132.164,135.522 131.164,138.189 129,140.5C 129.988,138.08 129.655,135.747 128,133.5C 127.77,137.213 126.603,137.88 124.5,135.5C 122.995,138.131 122.329,137.797 122.5,134.5C 123.675,134.719 124.675,134.386 125.5,133.5C 124.738,133.089 123.738,132.923 122.5,133C 123.056,132.617 123.389,132.117 123.5,131.5 Z"/></g>
<g><path style="opacity:1" fill="#6d6d6d" d="M 168.5,129.5 C 169.497,129.47 170.164,129.97 170.5,131C 171.451,133.158 171.951,135.325 172,137.5C 171.261,136.426 170.261,135.759 169,135.5C 167.943,136.627 166.777,137.127 165.5,137C 166.601,134.528 167.601,132.028 168.5,129.5 Z"/></g>
<g><path style="opacity:1" fill="#8f8f8f" d="M 99.5,129.5 C 101.215,130.919 103.048,132.253 105,133.5C 109.058,130.411 110.725,131.411 110,136.5C 108.518,138.781 106.851,138.781 105,136.5C 104.586,136.957 104.086,137.291 103.5,137.5C 102.052,130.922 100.885,130.922 100,137.5C 99.5026,134.854 99.3359,132.187 99.5,129.5 Z"/></g>
<g><path style="opacity:1" fill="#777777" d="M 138.5,129.5 C 139.496,129.414 140.329,129.748 141,130.5C 141.471,132.246 142.138,133.913 143,135.5C 143.473,133.221 144.473,131.221 146,129.5C 146.667,132.167 146.667,134.833 146,137.5C 145.572,132.502 144.739,132.335 143.5,137C 143.167,137.167 142.833,137.333 142.5,137.5C 141.749,136.624 141.249,135.624 141,134.5C 140.751,135.624 140.251,136.624 139.5,137.5C 138.52,134.914 138.187,132.247 138.5,129.5 Z"/></g>
<g><path style="opacity:1" fill="#8c8c8c" d="M 188.5,129.5 C 191.098,130.82 193.765,132.154 196.5,133.5C 199.91,130.414 201.91,131.08 202.5,135.5C 198.107,135.457 197.774,135.957 201.5,137C 199.343,137.078 197.343,137.245 195.5,137.5C 194.167,130.833 192.833,130.833 191.5,137.5C 190.376,132.279 189.542,132.279 189,137.5C 188.503,134.854 188.336,132.187 188.5,129.5 Z"/></g>
<g><path style="opacity:1" fill="#6a6a6a" d="M 19.5,132.5 C 20.4511,133.919 20.7845,135.585 20.5,137.5C 18.8333,137.5 17.1667,137.5 15.5,137.5C 15.3398,135.801 15.5065,134.134 16,132.5C 17.2917,131.209 18.4583,131.209 19.5,132.5 Z"/></g>
<g><path style="opacity:1" fill="#f0f0f0" d="M 19.5,132.5 C 19.5,133.833 19.5,135.167 19.5,136.5C 18.5,136.5 17.5,136.5 16.5,136.5C 16.0882,134.027 17.0882,132.694 19.5,132.5 Z"/></g>
<g><path style="opacity:1" fill="#999999" d="M 73.5,132.5 C 74.5736,133.885 75.9069,135.051 77.5,136C 75.867,138.86 74.2003,139.027 72.5,136.5C 72.76,135.095 73.0934,133.762 73.5,132.5 Z"/></g>
<g><path style="opacity:1" fill="#909090" d="M 183.5,132.5 C 186.004,130.969 187.337,131.803 187.5,135C 187.167,135.833 186.833,136.667 186.5,137.5C 179.95,139.938 177.95,137.605 180.5,130.5C 181.251,131.376 181.751,132.376 182,133.5C 182.383,132.944 182.883,132.611 183.5,132.5 Z"/></g>
<g><path style="opacity:1" fill="#f3f3f3" d="M 183.5,132.5 C 185.912,132.694 186.912,134.027 186.5,136.5C 185.5,136.5 184.5,136.5 183.5,136.5C 183.5,135.167 183.5,133.833 183.5,132.5 Z"/></g>
<g><path style="opacity:1" fill="#ccb187" d="M 211.5,129.5 C 214.787,130.264 217.454,132.097 219.5,135C 209.277,142.413 206.61,140.58 211.5,129.5 Z"/></g>
<g><path style="opacity:1" fill="#fcfcfc" d="M 227.5,151.5 C 227.5,231.5 227.5,311.5 227.5,391.5C 151.5,391.5 75.5,391.5 -0.5,391.5C -0.5,311.833 -0.5,232.167 -0.5,152.5C 75.5239,151.67 151.524,151.337 227.5,151.5 Z"/></g>
<g><path style="opacity:1" fill="#929292" d="M 36.5,165.5 C 34.8829,166.589 34.0496,168.256 34,170.5C 33.7883,168.22 32.9549,166.22 31.5,164.5C 32.3333,164.167 33.1667,163.833 34,163.5C 35.3756,163.684 36.2089,164.351 36.5,165.5 Z"/></g>
<g><path style="opacity:1" fill="#979797" d="M 10.5,164.5 C 12.4109,164.574 13.5776,165.574 14,167.5C 14.5194,166.484 15.3527,165.818 16.5,165.5C 18.359,166.69 20.1923,166.69 22,165.5C 25.4898,167.016 25.3231,168.182 21.5,169C 22.1667,169.333 22.8333,169.667 23.5,170C 20.2908,168.757 17.6241,169.59 15.5,172.5C 14.561,170.947 13.3943,169.613 12,168.5C 10.9433,169.627 9.77659,170.127 8.5,170C 9.86135,168.416 10.528,166.582 10.5,164.5 Z"/></g>
<g><path style="opacity:1" fill="#7f7f7f" d="M 59.5,164.5 C 60.0249,165.728 61.3582,166.562 63.5,167C 62.552,167.483 61.552,167.649 60.5,167.5C 60.6495,168.552 60.4828,169.552 60,170.5C 59.5045,168.527 59.3379,166.527 59.5,164.5 Z"/></g>
<g><path style="opacity:1" fill="#a8a8a8" d="M 77.5,163.5 C 78.5,163.5 79.5,163.5 80.5,163.5C 80.5,165.833 80.5,168.167 80.5,170.5C 77.8333,170.5 75.1667,170.5 72.5,170.5C 72.3882,165.407 71.5549,165.407 70,170.5C 69.5065,168.866 69.3398,167.199 69.5,165.5C 71.451,165.227 72.951,165.893 74,167.5C 75.6268,166.468 76.7934,165.134 77.5,163.5 Z"/></g>
<g><path style="opacity:1" fill="#cecece" d="M 156.5,165.5 C 157.586,165.62 158.253,166.287 158.5,167.5C 158.253,168.713 157.586,169.38 156.5,169.5C 155.167,168.167 155.167,166.833 156.5,165.5 Z"/></g>
<g><path style="opacity:1" fill="#717171" d="M 81.5,165.5 C 82.8333,165.5 84.1667,165.5 85.5,165.5C 85.5076,171.208 85.0076,171.541 84,166.5C 82.9563,167.623 82.2896,168.956 82,170.5C 81.5065,168.866 81.3398,167.199 81.5,165.5 Z"/></g>
<g><path style="opacity:1" fill="#9a9a9a" d="M 144.5,164.5 C 145.693,164.97 146.36,165.97 146.5,167.5C 146.167,168.5 145.833,169.5 145.5,170.5C 144.135,168.446 143.801,166.446 144.5,164.5 Z"/></g>
<g><path style="opacity:1" fill="#727272" d="M 156.5,165.5 C 157.209,164.596 158.209,164.263 159.5,164.5C 159.5,166.5 159.5,168.5 159.5,170.5C 158.209,170.737 157.209,170.404 156.5,169.5C 157.586,169.38 158.253,168.713 158.5,167.5C 158.253,166.287 157.586,165.62 156.5,165.5 Z"/></g>
<g><path style="opacity:1" fill="#6f6f6f" d="M 163.5,169.5 C 162.791,170.404 161.791,170.737 160.5,170.5C 160.5,168.5 160.5,166.5 160.5,164.5C 161.833,164.5 163.167,164.5 164.5,164.5C 164.784,166.415 164.451,168.081 163.5,169.5 Z"/></g>
<g><path style="opacity:1" fill="#fafafa" d="M 163.5,169.5 C 162.414,169.38 161.747,168.713 161.5,167.5C 161.833,166.833 162.167,166.167 162.5,165.5C 163.429,166.689 163.762,168.022 163.5,169.5 Z"/></g>
<g><path style="opacity:1" fill="#cdcdcd" d="M 168.5,165.5 C 169.833,166.833 169.833,168.167 168.5,169.5C 167.414,169.38 166.747,168.713 166.5,167.5C 166.747,166.287 167.414,165.62 168.5,165.5 Z"/></g>
<g><path style="opacity:1" fill="#cfcfcf" d="M 173.5,165.5 C 174.586,165.62 175.253,166.287 175.5,167.5C 175.253,168.713 174.586,169.38 173.5,169.5C 172.167,168.167 172.167,166.833 173.5,165.5 Z"/></g>
<g><path style="opacity:1" fill="#707070" d="M 173.5,165.5 C 174.209,164.596 175.209,164.263 176.5,164.5C 176.5,166.5 176.5,168.5 176.5,170.5C 175.209,170.737 174.209,170.404 173.5,169.5C 174.586,169.38 175.253,168.713 175.5,167.5C 175.253,166.287 174.586,165.62 173.5,165.5 Z"/></g>
<g><path style="opacity:1" fill="#6f6f6f" d="M 180.5,169.5 C 179.791,170.404 178.791,170.737 177.5,170.5C 177.5,168.5 177.5,166.5 177.5,164.5C 178.833,164.5 180.167,164.5 181.5,164.5C 181.784,166.415 181.451,168.081 180.5,169.5 Z"/></g>
<g><path style="opacity:1" fill="#f8f8f8" d="M 180.5,169.5 C 179.414,169.38 178.747,168.713 178.5,167.5C 178.833,166.833 179.167,166.167 179.5,165.5C 180.429,166.689 180.762,168.022 180.5,169.5 Z"/></g>
<g><path style="opacity:1" fill="#aeaeae" d="M 195.5,164.5 C 199.485,164.629 200.818,166.463 199.5,170C 198.207,170.49 196.873,170.657 195.5,170.5C 195.5,168.5 195.5,166.5 195.5,164.5 Z"/></g>
<g><path style="opacity:1" fill="#7f7f7f" d="M 27.5,165.5 C 28.4646,166.721 28.298,168.054 27,169.5C 26.2825,170.451 25.4491,170.617 24.5,170C 25.2225,168.249 26.2225,166.749 27.5,165.5 Z"/></g>
<g><path style="opacity:1" fill="#7c7c7c" d="M 36.5,165.5 C 37.791,165.263 38.791,165.596 39.5,166.5C 38.0337,167.347 37.2004,168.68 37,170.5C 36.5065,168.866 36.3398,167.199 36.5,165.5 Z"/></g>
<g><path style="opacity:1" fill="#919191" d="M 87.5,165.5 C 88.5,165.5 89.5,165.5 90.5,165.5C 90.6621,167.527 90.4955,169.527 90,171.5C 88.9887,172.337 87.8221,172.67 86.5,172.5C 86.298,170.05 86.6314,167.717 87.5,165.5 Z"/></g>
<g><path style="opacity:1" fill="#8f8f8f" d="M 134.5,169.5 C 132.847,170.799 131.347,170.466 130,168.5C 129.5,169.5 129,170.5 128.5,171.5C 127.998,172.521 127.332,172.688 126.5,172C 127.152,169.91 127.319,167.743 127,165.5C 128,168.167 129,168.167 130,165.5C 130.317,167.301 130.984,167.634 132,166.5C 132.236,168.119 133.069,169.119 134.5,169.5 Z"/></g>
<g><path style="opacity:1" fill="#7a7a7a" d="M 64.5,165.5 C 65.8347,170.535 67.0013,170.535 68,165.5C 68.4935,167.134 68.6602,168.801 68.5,170.5C 67.1667,170.5 65.8333,170.5 64.5,170.5C 64.5,168.833 64.5,167.167 64.5,165.5 Z"/></g>
<g><path style="opacity:1" fill="#8e8e8e" d="M 96.5,165.5 C 98.7216,166.386 100.888,166.386 103,165.5C 103.5,165.833 104,166.167 104.5,166.5C 103.559,166.489 102.892,166.989 102.5,168C 102.905,168.945 103.572,169.612 104.5,170C 102.82,170.034 101.32,170.201 100,170.5C 98.5768,165.379 97.5768,165.379 97,170.5C 96.5065,168.866 96.3398,167.199 96.5,165.5 Z"/></g>
<g><path style="opacity:1" fill="#9f9f9f" d="M 107.5,165.5 C 110.542,166.541 113.542,166.541 116.5,165.5C 116.5,167.167 116.5,168.833 116.5,170.5C 114.856,170.714 113.356,170.38 112,169.5C 110.324,170.061 108.991,171.061 108,172.5C 107.503,170.19 107.337,167.857 107.5,165.5 Z"/></g>
<g><path style="opacity:1" fill="#a1a1a1" d="M 134.5,169.5 C 135.64,164.348 136.806,164.348 138,169.5C 139.458,164.406 140.291,164.739 140.5,170.5C 138.435,170.483 136.435,170.15 134.5,169.5 Z"/></g>
<g><path style="opacity:1" fill="#919191" d="M 150.5,164.5 C 151.622,166.288 151.789,168.288 151,170.5C 149.795,169.929 148.628,169.262 147.5,168.5C 148.524,167.148 149.524,165.815 150.5,164.5 Z"/></g>
<g><path style="opacity:1" fill="#b6b6b6" d="M 184.5,164.5 C 186.167,164.5 187.833,164.5 189.5,164.5C 189.66,166.199 189.494,167.866 189,169.5C 187.667,170.833 186.333,170.833 185,169.5C 184.506,167.866 184.34,166.199 184.5,164.5 Z"/></g>
<g><path style="opacity:1" fill="#929292" d="M 39.5,166.5 C 42.9007,165.227 44.234,166.56 43.5,170.5C 42.1667,170.5 40.8333,170.5 39.5,170.5C 39.5,169.167 39.5,167.833 39.5,166.5 Z"/></g>
<g><path style="opacity:1" fill="#8e8e8e" d="M 47.5,164.5 C 48.4614,166.265 48.7947,168.265 48.5,170.5C 47.1667,170.5 45.8333,170.5 44.5,170.5C 44.0283,167.642 45.0283,165.642 47.5,164.5 Z"/></g>
<g><path style="opacity:1" fill="#a6a6a6" d="M 54.5,165.5 C 55.2389,165.369 55.9056,165.536 56.5,166C 55.6198,167.356 55.2865,168.856 55.5,170.5C 53.5,170.5 51.5,170.5 49.5,170.5C 49.3433,169.127 49.51,167.793 50,166.5C 51.7493,167.553 53.2493,167.22 54.5,165.5 Z"/></g>
<g><path style="opacity:1" fill="#9c9c9c" d="M 117.5,163.5 C 119.09,165.424 120.924,165.757 123,164.5C 123.495,166.473 123.662,168.473 123.5,170.5C 121.5,170.5 119.5,170.5 117.5,170.5C 117.5,168.167 117.5,165.833 117.5,163.5 Z"/></g>
<g><path style="opacity:1" fill="#787878" d="M 168.5,165.5 C 167.414,165.62 166.747,166.287 166.5,167.5C 166.747,168.713 167.414,169.38 168.5,169.5C 167.791,170.404 166.791,170.737 165.5,170.5C 165.5,168.5 165.5,166.5 165.5,164.5C 166.791,164.263 167.791,164.596 168.5,165.5 Z"/></g>
<g><path style="opacity:1" fill="#939393" d="M 191.5,164.5 C 194.524,164.947 194.857,165.78 192.5,167C 193.973,167.71 194.64,168.876 194.5,170.5C 193.022,170.762 191.689,170.429 190.5,169.5C 190.579,167.872 190.912,166.205 191.5,164.5 Z"/></g>
<g><path style="opacity:1" fill="#919191" d="M 17.5,178.5 C 19.3035,178.424 21.3035,178.757 23.5,179.5C 23.5076,185.208 23.0076,185.541 22,180.5C 20.8118,181.563 20.3118,182.897 20.5,184.5C 19.5,184.5 18.5,184.5 17.5,184.5C 17.5,182.5 17.5,180.5 17.5,178.5 Z"/></g>
<g><path style="opacity:1" fill="#f6f5f4" d="M 84.5,179.5 C 84.5,180.833 84.5,182.167 84.5,183.5C 83.4138,183.38 82.7472,182.713 82.5,181.5C 82.7472,180.287 83.4138,179.62 84.5,179.5 Z"/></g>
<g><path style="opacity:1" fill="#938e8c" d="M 89.5,179.5 C 88.4138,179.62 87.7472,180.287 87.5,181.5C 87.7472,182.713 88.4138,183.38 89.5,183.5C 88.0011,184.494 86.3344,184.494 84.5,183.5C 84.5,182.167 84.5,180.833 84.5,179.5C 86.3344,178.506 88.0011,178.506 89.5,179.5 Z"/></g>
<g><path style="opacity:1" fill="#edeaea" d="M 89.5,179.5 C 89.5,180.833 89.5,182.167 89.5,183.5C 88.4138,183.38 87.7472,182.713 87.5,181.5C 87.7472,180.287 88.4138,179.62 89.5,179.5 Z"/></g>
<g><path style="opacity:1" fill="#908988" d="M 94.5,184.5 C 92.7839,184.371 91.1172,184.038 89.5,183.5C 89.5,182.167 89.5,180.833 89.5,179.5C 91.1368,178.782 92.8034,178.616 94.5,179C 91.9824,180.81 91.9824,182.643 94.5,184.5 Z"/></g>
<g><path style="opacity:1" fill="#abaaaa" d="M 151.5,184.5 C 151.5,184.167 151.5,183.833 151.5,183.5C 151.5,182.167 151.5,180.833 151.5,179.5C 155.938,178.425 157.938,180.092 157.5,184.5C 155.5,184.5 153.5,184.5 151.5,184.5 Z"/></g>
<g><path style="opacity:1" fill="#8f8f8f" d="M 15.5,178.5 C 16.6225,180.288 16.7891,182.288 16,184.5C 15.4309,180.639 14.5976,180.639 13.5,184.5C 12.8076,183.975 12.3076,183.308 12,182.5C 11.6924,183.308 11.1924,183.975 10.5,184.5C 9.38615,183.277 9.21948,181.944 10,180.5C 10.3333,180.833 10.6667,181.167 11,181.5C 12.3103,180.103 13.8103,179.103 15.5,178.5 Z"/></g>
<g><path style="opacity:1" fill="#b3acab" d="M 125.5,184.5 C 121.629,184.815 117.962,184.482 114.5,183.5C 114.238,182.022 114.571,180.689 115.5,179.5C 118.014,179.073 120.514,178.739 123,178.5C 123.772,178.645 124.439,178.978 125,179.5C 125.494,181.134 125.66,182.801 125.5,184.5 Z"/></g>
<g><path style="opacity:1" fill="#bc7163" d="M 151.5,183.5 C 151.5,183.833 151.5,184.167 151.5,184.5C 151.5,185.5 151.5,186.5 151.5,187.5C 149.241,186.656 148.241,184.989 148.5,182.5C 144.167,182.5 139.833,182.5 135.5,182.5C 135.715,184.179 135.048,185.179 133.5,185.5C 132.167,184.167 132.167,182.833 133.5,181.5C 134.798,181.72 136.131,181.053 137.5,179.5C 138.967,180.695 140.467,180.695 142,179.5C 143,180.167 144,180.833 145,181.5C 146.766,180.767 148.599,180.433 150.5,180.5C 150.263,181.791 150.596,182.791 151.5,183.5 Z"/></g>
<g><path style="opacity:1" fill="#989898" d="M 177.5,178.5 C 178.622,180.288 178.789,182.288 178,184.5C 177.458,179.279 176.624,179.279 175.5,184.5C 174.402,180.639 173.569,180.639 173,184.5C 172.506,182.866 172.34,181.199 172.5,179.5C 174.415,179.784 176.081,179.451 177.5,178.5 Z"/></g>
<g><path style="opacity:1" fill="#b8b8b8" d="M 191.5,179.5 C 195.017,179.787 198.684,179.787 202.5,179.5C 202.833,184.833 203.167,184.833 203.5,179.5C 205.288,179.215 206.955,179.548 208.5,180.5C 207.754,181.736 207.421,183.07 207.5,184.5C 204.231,184.077 201.064,184.077 198,184.5C 196.739,184.241 195.739,183.574 195,182.5C 194.804,184.286 193.971,185.619 192.5,186.5C 192.749,184.37 192.415,182.037 191.5,179.5 Z"/></g>
<g><path style="opacity:1" fill="#a2a2a2" d="M 27.5,177.5 C 29.8056,177.993 32.139,178.326 34.5,178.5C 34.6219,182.838 34.9553,183.172 35.5,179.5C 39.7658,179.633 44.0991,179.633 48.5,179.5C 48.5,180.5 48.5,181.5 48.5,182.5C 44.551,182.693 44.551,183.193 48.5,184C 46.5273,184.495 44.5273,184.662 42.5,184.5C 42.1667,179.167 41.8333,179.167 41.5,184.5C 38.5,184.5 35.5,184.5 32.5,184.5C 32.6399,182.876 31.9733,181.71 30.5,181C 30.8333,180.667 31.1667,180.333 31.5,180C 30.552,179.517 29.552,179.351 28.5,179.5C 28.6602,181.199 28.4935,182.866 28,184.5C 27.5034,182.19 27.3367,179.857 27.5,177.5 Z"/></g>
<g><path style="opacity:1" fill="#a5a4a4" d="M 52.5,179.5 C 56.7658,179.633 61.0991,179.633 65.5,179.5C 65.5,181.167 65.5,182.833 65.5,184.5C 63.5,184.5 61.5,184.5 59.5,184.5C 59.1667,179.167 58.8333,179.167 58.5,184.5C 56.5,184.5 54.5,184.5 52.5,184.5C 52.5,182.833 52.5,181.167 52.5,179.5 Z"/></g>
<g><path style="opacity:1" fill="#b8adaa" d="M 101.5,179.5 C 105.833,177.386 107.833,178.719 107.5,183.5C 108.5,183.5 109.5,183.5 110.5,183.5C 110.833,178.167 111.167,178.167 111.5,183.5C 107.321,183.297 102.988,183.63 98.5,184.5C 98.5,182.5 98.5,180.5 98.5,178.5C 99.791,178.263 100.791,178.596 101.5,179.5 Z"/></g>
<g><path style="opacity:1" fill="#f6f3f3" d="M 101.5,179.5 C 101.762,180.978 101.429,182.311 100.5,183.5C 100.167,182.833 99.8333,182.167 99.5,181.5C 99.7472,180.287 100.414,179.62 101.5,179.5 Z"/></g>
<g><path style="opacity:1" fill="#858485" d="M 163.5,179.5 C 164.5,179.5 165.5,179.5 166.5,179.5C 166.5,181.167 166.5,182.833 166.5,184.5C 163.402,184.587 163.068,184.087 165.5,183C 164.027,182.29 163.36,181.124 163.5,179.5 Z"/></g>
<g><path style="opacity:1" fill="#717171" d="M 167.5,180.5 C 168.975,181.262 170.309,181.595 171.5,181.5C 170.624,182.251 169.624,182.751 168.5,183C 170.932,184.087 170.598,184.587 167.5,184.5C 167.5,183.167 167.5,181.833 167.5,180.5 Z"/></g>
<g><path style="opacity:1" fill="#828282" d="M 182.5,178.5 C 183.302,179.952 183.802,181.618 184,183.5C 184.569,179.639 185.402,179.639 186.5,183.5C 188.002,179.626 188.669,179.959 188.5,184.5C 186.5,184.5 184.5,184.5 182.5,184.5C 182.5,182.5 182.5,180.5 182.5,178.5 Z"/></g>
<g><path style="opacity:1" fill="#b0948d" d="M 84.5,179.5 C 83.4138,179.62 82.7472,180.287 82.5,181.5C 82.7472,182.713 83.4138,183.38 84.5,183.5C 84.5,184.167 84.5,184.833 84.5,185.5C 81.5,185.5 78.5,185.5 75.5,185.5C 75.6107,184.883 75.944,184.383 76.5,184C 72.9068,183.316 72.5735,181.816 75.5,179.5C 75.8333,179.167 76.1667,178.833 76.5,178.5C 77.3078,180.423 77.8078,182.423 78,184.5C 79,183.167 80,183.167 81,184.5C 81.4955,182.527 81.6621,180.527 81.5,178.5C 82.791,178.263 83.791,178.596 84.5,179.5 Z"/></g>
<g><path style="opacity:1" fill="#deaba3" d="M 133.5,181.5 C 132.167,182.833 132.167,184.167 133.5,185.5C 121.833,185.5 110.167,185.5 98.5,185.5C 93.8333,185.5 89.1667,185.5 84.5,185.5C 84.5,184.833 84.5,184.167 84.5,183.5C 86.3344,184.494 88.0011,184.494 89.5,183.5C 91.1172,184.038 92.7839,184.371 94.5,184.5C 95.9643,183.595 97.2976,183.595 98.5,184.5C 102.988,183.63 107.321,183.297 111.5,183.5C 112.5,183.5 113.5,183.5 114.5,183.5C 117.962,184.482 121.629,184.815 125.5,184.5C 126.833,184.5 128.167,184.5 129.5,184.5C 129.185,182.774 129.019,181.107 129,179.5C 130,180.833 131,180.833 132,179.5C 132.278,180.416 132.778,181.082 133.5,181.5 Z"/></g>
<g><path style="opacity:1" fill="#da503d" d="M 151.5,187.5 C 151.5,187.833 151.5,188.167 151.5,188.5C 149.5,188.5 147.5,188.5 145.5,188.5C 145.082,187.778 144.416,187.278 143.5,187C 128.504,186.5 113.504,186.333 98.5,186.5C 98.5,186.167 98.5,185.833 98.5,185.5C 110.167,185.5 121.833,185.5 133.5,185.5C 135.048,185.179 135.715,184.179 135.5,182.5C 139.833,182.5 144.167,182.5 148.5,182.5C 148.241,184.989 149.241,186.656 151.5,187.5 Z"/></g>
<g><path style="opacity:1" fill="#e27362" d="M 75.5,185.5 C 78.5,185.5 81.5,185.5 84.5,185.5C 89.1667,185.5 93.8333,185.5 98.5,185.5C 98.5,185.833 98.5,186.167 98.5,186.5C 91.1591,186.334 83.8258,186.5 76.5,187C 74.3022,189.034 71.6355,189.868 68.5,189.5C 65.4733,189.713 62.8066,189.047 60.5,187.5C 65.1785,187.666 69.8452,187.499 74.5,187C 75.056,186.617 75.3893,186.117 75.5,185.5 Z"/></g>
<g><path style="opacity:1" fill="#ce0d04" d="M 145.5,188.5 C 147.5,188.5 149.5,188.5 151.5,188.5C 152.589,190.117 154.256,190.95 156.5,191C 157.883,192.271 158.883,193.771 159.5,195.5C 159.5,198.5 159.5,201.5 159.5,204.5C 148.182,206.052 137.015,205.719 126,203.5C 115.01,204.476 104.01,204.476 93,203.5C 81.1671,204.376 69.3338,204.876 57.5,205C 55.5859,200.142 54.9193,194.975 55.5,189.5C 60.0206,191.088 64.6873,192.088 69.5,192.5C 72.8701,192.626 76.0368,191.96 79,190.5C 82.1427,191.391 85.6427,191.557 89.5,191C 89.1667,190.667 88.8333,190.333 88.5,190C 90.4406,189.257 92.2739,189.424 94,190.5C 96.0715,189.475 98.2381,188.642 100.5,188C 115.509,187.409 130.509,187.576 145.5,188.5 Z"/></g>
<g><path style="opacity:1" fill="#a3a3a3" d="M 19.5,193.5 C 21.3405,194.673 23.1739,194.673 25,193.5C 25.9454,193.905 26.6121,194.572 27,195.5C 27.3333,195.167 27.6667,194.833 28,194.5C 29.4943,198.304 30.3276,197.971 30.5,193.5C 32.5,193.5 34.5,193.5 36.5,193.5C 36.5076,199.208 36.0076,199.541 35,194.5C 33.8118,195.563 33.3118,196.897 33.5,198.5C 28.6435,197.881 23.6435,197.881 18.5,198.5C 18.366,196.708 18.6993,195.042 19.5,193.5 Z"/></g>
<g><path style="opacity:1" fill="#979797" d="M 10.5,193.5 C 12.0174,193.511 13.1841,194.177 14,195.5C 14.8261,193.595 15.9928,193.261 17.5,194.5C 16.5585,194.489 15.8919,194.989 15.5,196C 15.9054,196.945 16.572,197.612 17.5,198C 15.6874,197.954 14.0207,198.12 12.5,198.5C 12.1667,197.833 11.8333,197.167 11.5,196.5C 10.8076,197.025 10.3076,197.692 10,198.5C 9.36026,196.735 9.52692,195.068 10.5,193.5 Z"/></g>
<g><path style="opacity:1" fill="#949494" d="M 43.5,193.5 C 46.423,194.163 47.0897,195.83 45.5,198.5C 45.1667,197.833 44.8333,197.167 44.5,196.5C 43.8076,197.025 43.3076,197.692 43,198.5C 42.3603,196.735 42.5269,195.068 43.5,193.5 Z"/></g>
<g><path style="opacity:1" fill="#797979" d="M 37.5,192.5 C 38.2891,192.783 38.9558,193.283 39.5,194C 38.783,195.652 38.4496,197.152 38.5,198.5C 37.5344,196.604 37.2011,194.604 37.5,192.5 Z"/></g>
<g><path style="opacity:1" fill="#b65e54" d="M 53.5,192.5 C 53.2743,197.562 53.6076,202.562 54.5,207.5C 53.8826,207.389 53.3826,207.056 53,206.5C 52.1849,201.648 52.3516,196.981 53.5,192.5 Z"/></g>
<g><path style="opacity:1" fill="#eeb1a4" d="M 151.5,188.5 C 151.5,188.167 151.5,187.833 151.5,187.5C 155.437,187.207 159.27,187.54 163,188.5C 162.775,191.825 164.108,194.158 167,195.5C 167.499,200.489 167.666,205.489 167.5,210.5C 166.833,210.5 166.167,210.5 165.5,210.5C 165.827,205.456 165.494,200.456 164.5,195.5C 163.817,195.137 163.15,194.804 162.5,194.5C 162.703,192.61 162.037,191.11 160.5,190C 157.522,189.304 154.522,188.804 151.5,188.5 Z"/></g>
<g><path style="opacity:1" fill="#d73321" d="M 98.5,186.5 C 113.504,186.333 128.504,186.5 143.5,187C 144.416,187.278 145.082,187.778 145.5,188.5C 130.509,187.576 115.509,187.409 100.5,188C 98.2381,188.642 96.0715,189.475 94,190.5C 92.2739,189.424 90.4406,189.257 88.5,190C 88.8333,190.333 89.1667,190.667 89.5,191C 85.6427,191.557 82.1427,191.391 79,190.5C 76.0368,191.96 72.8701,192.626 69.5,192.5C 64.6873,192.088 60.0206,191.088 55.5,189.5C 54.9193,194.975 55.5859,200.142 57.5,205C 69.3338,204.876 81.1671,204.376 93,203.5C 104.01,204.476 115.01,204.476 126,203.5C 137.015,205.719 148.182,206.052 159.5,204.5C 159.5,201.5 159.5,198.5 159.5,195.5C 160.777,196.694 161.444,198.36 161.5,200.5C 161.46,202.429 161.127,204.262 160.5,206C 151.506,206.5 142.506,206.666 133.5,206.5C 133.167,206.5 132.833,206.5 132.5,206.5C 118.343,205.504 104.01,205.171 89.5,205.5C 85.941,205.408 82.6076,206.241 79.5,208C 71.1185,208.773 62.7852,208.606 54.5,207.5C 53.6076,202.562 53.2743,197.562 53.5,192.5C 53.8338,188.352 56.1672,186.685 60.5,187.5C 62.8066,189.047 65.4733,189.713 68.5,189.5C 71.6355,189.868 74.3022,189.034 76.5,187C 83.8258,186.5 91.1591,186.334 98.5,186.5 Z"/></g>
<g><path style="opacity:1" fill="#f0ada2" d="M 89.5,205.5 C 104.01,205.171 118.343,205.504 132.5,206.5C 119.163,206.333 105.829,206.5 92.5,207C 89.8612,208.946 86.8612,209.946 83.5,210C 74.6567,210.824 65.9901,210.657 57.5,209.5C 65.8599,209.831 74.1932,209.498 82.5,208.5C 85.1024,207.868 87.4357,206.868 89.5,205.5 Z"/></g>
<g><path style="opacity:1" fill="#e85c47" d="M 151.5,188.5 C 154.522,188.804 157.522,189.304 160.5,190C 162.037,191.11 162.703,192.61 162.5,194.5C 163.901,198.543 163.734,202.543 162,206.5C 161.25,207.126 160.416,207.626 159.5,208C 151.167,208.667 142.833,208.667 134.5,208C 133.944,207.617 133.611,207.117 133.5,206.5C 142.506,206.666 151.506,206.5 160.5,206C 161.127,204.262 161.46,202.429 161.5,200.5C 161.444,198.36 160.777,196.694 159.5,195.5C 158.883,193.771 157.883,192.271 156.5,191C 154.256,190.95 152.589,190.117 151.5,188.5 Z"/></g>
<g><path style="opacity:1" fill="#e67563" d="M 89.5,205.5 C 87.4357,206.868 85.1024,207.868 82.5,208.5C 74.1932,209.498 65.8599,209.831 57.5,209.5C 55.9731,209.573 54.9731,208.906 54.5,207.5C 62.7852,208.606 71.1185,208.773 79.5,208C 82.6076,206.241 85.941,205.408 89.5,205.5 Z"/></g>
<g><path style="opacity:1" fill="#e98e7e" d="M 162.5,194.5 C 163.15,194.804 163.817,195.137 164.5,195.5C 165.494,200.456 165.827,205.456 165.5,210.5C 162.946,211.388 160.279,211.721 157.5,211.5C 153.367,210.274 149.367,210.274 145.5,211.5C 145.167,211.5 144.833,211.5 144.5,211.5C 140.979,210.834 137.313,210.167 133.5,209.5C 132.873,208.583 132.539,207.583 132.5,206.5C 132.833,206.5 133.167,206.5 133.5,206.5C 133.611,207.117 133.944,207.617 134.5,208C 142.833,208.667 151.167,208.667 159.5,208C 160.416,207.626 161.25,207.126 162,206.5C 163.734,202.543 163.901,198.543 162.5,194.5 Z"/></g>
<g><path style="opacity:1" fill="#c3c2c3" d="M 98.5,212.5 C 98.5,212.833 98.5,213.167 98.5,213.5C 97.596,214.209 97.2627,215.209 97.5,216.5C 95.6208,217.341 93.6208,217.675 91.5,217.5C 91.5,215.833 91.5,214.167 91.5,212.5C 94.0409,211.897 96.3743,211.897 98.5,212.5 Z"/></g>
<g><path style="opacity:1" fill="#a89a98" d="M 165.5,210.5 C 166.167,210.5 166.833,210.5 167.5,210.5C 166.402,211.397 166.402,212.23 167.5,213C 169.32,212.524 170.987,212.691 172.5,213.5C 172.5,214.833 172.5,216.167 172.5,217.5C 169.833,217.5 167.167,217.5 164.5,217.5C 164.323,210.866 163.823,210.866 163,217.5C 162,212.167 161,212.167 160,217.5C 159.177,210.866 158.677,210.866 158.5,217.5C 157.167,217.5 155.833,217.5 154.5,217.5C 154.028,214.642 155.028,212.642 157.5,211.5C 160.279,211.721 162.946,211.388 165.5,210.5 Z"/></g>
<g><path style="opacity:1" fill="#a3a3a3" d="M 194.5,214.5 C 194.423,213.25 193.756,212.417 192.5,212C 195.107,211.969 197.774,212.136 200.5,212.5C 199.667,214.167 198.833,215.833 198,217.5C 197.781,216.062 197.281,214.729 196.5,213.5C 195.817,213.863 195.15,214.196 194.5,214.5 Z"/></g>
<g><path style="opacity:1" fill="#8b898b" d="M 105.5,213.5 C 106.209,212.596 107.209,212.263 108.5,212.5C 108.833,217.833 109.167,217.833 109.5,212.5C 111.833,212.5 114.167,212.5 116.5,212.5C 116.508,218.208 116.008,218.541 115,213.5C 113.956,214.623 113.29,215.956 113,217.5C 112.317,212.342 111.484,212.342 110.5,217.5C 108.801,217.66 107.134,217.494 105.5,217C 108.167,216.333 108.167,215.667 105.5,215C 108.097,214.221 108.097,213.721 105.5,213.5 Z"/></g>
<g><path style="opacity:1" fill="#a5a5a5" d="M 29.5,212.5 C 32.6169,212.872 35.6169,212.872 38.5,212.5C 40.2174,213.668 40.8841,215.335 40.5,217.5C 38.5,217.5 36.5,217.5 34.5,217.5C 34.3178,212.206 33.8178,212.206 33,217.5C 32,212.167 31,212.167 30,217.5C 29.5065,215.866 29.3398,214.199 29.5,212.5 Z"/></g>
<g><path style="opacity:1" fill="#646464" d="M 41.5,212.5 C 42.552,212.351 43.552,212.517 44.5,213C 43.0325,214.098 42.1992,215.598 42,217.5C 41.5065,215.866 41.3398,214.199 41.5,212.5 Z"/></g>
<g><path style="opacity:1" fill="#abacac" d="M 57.5,212.5 C 59.3888,213.38 61.3888,213.38 63.5,212.5C 63.5,214.167 63.5,215.833 63.5,217.5C 61.5,217.5 59.5,217.5 57.5,217.5C 57.5,215.833 57.5,214.167 57.5,212.5 Z"/></g>
<g><path style="opacity:1" fill="#888986" d="M 67.5,212.5 C 68.5,212.5 69.5,212.5 70.5,212.5C 70.5,214.167 70.5,215.833 70.5,217.5C 66.7162,217.475 65.7162,215.808 67.5,212.5 Z"/></g>
<g><path style="opacity:1" fill="#9c9c9a" d="M 86.5,213.5 C 86.6495,214.552 86.4828,215.552 86,216.5C 84.4562,216.623 82.6228,216.623 80.5,216.5C 78.8839,217.115 77.5505,218.115 76.5,219.5C 75.3291,217.831 73.9958,216.331 72.5,215C 73.4665,213.266 74.9665,212.432 77,212.5C 80.1618,212.731 83.3284,213.064 86.5,213.5 Z"/></g>
<g><path style="opacity:1" fill="#6d6e6e" d="M 91.5,212.5 C 91.5,214.167 91.5,215.833 91.5,217.5C 90.71,216.391 90.21,215.058 90,213.5C 89.0138,214.171 87.8471,214.171 86.5,213.5C 87.8775,212.766 89.3775,212.099 91,211.5C 91.3988,211.728 91.5654,212.062 91.5,212.5 Z"/></g>
<g><path style="opacity:1" fill="#6d6c6d" d="M 97.5,216.5 C 97.2627,215.209 97.596,214.209 98.5,213.5C 98.5,213.167 98.5,212.833 98.5,212.5C 99.4959,212.586 100.329,212.252 101,211.5C 101.495,213.473 101.662,215.473 101.5,217.5C 99.901,217.768 98.5676,217.434 97.5,216.5 Z"/></g>
<g><path style="opacity:1" fill="#7c7a7c" d="M 144.5,213.5 C 144.688,215.103 144.188,216.437 143,217.5C 141.699,215.635 141.365,213.635 142,211.5C 142.075,213.935 142.908,214.602 144.5,213.5 Z"/></g>
<g><path style="opacity:1" fill="#7b787a" d="M 144.5,211.5 C 144.833,211.5 145.167,211.5 145.5,211.5C 146.563,215.333 147.396,215.333 148,211.5C 148.49,213.545 148.323,215.545 147.5,217.5C 146.5,216.167 145.5,214.833 144.5,213.5C 144.5,212.833 144.5,212.167 144.5,211.5 Z"/></g>
<g><path style="opacity:1" fill="#7c7b7c" d="M 51.5,213.5 C 52.2216,213.918 52.7216,214.584 53,215.5C 53.5556,213.405 54.0556,213.238 54.5,215C 52.9077,219.225 51.9077,218.725 51.5,213.5 Z"/></g>
<g><path style="opacity:1" fill="#f2f3f2" d="M 98.5,213.5 C 100.465,213.948 100.798,214.948 99.5,216.5C 98.6143,215.675 98.281,214.675 98.5,213.5 Z"/></g>
<g><path style="opacity:1" fill="#888988" d="M 120.5,214.5 C 120.719,215.675 120.386,216.675 119.5,217.5C 117.876,216.131 117.376,214.464 118,212.5C 118.417,213.756 119.25,214.423 120.5,214.5 Z"/></g>
<g><path style="opacity:1" fill="#a5a7a5" d="M 120.5,214.5 C 120.369,213.761 120.536,213.094 121,212.5C 121.85,213.424 122.85,213.424 124,212.5C 127.333,214.167 127.333,215.833 124,217.5C 122.401,216.929 121.234,215.929 120.5,214.5 Z"/></g>
<g><path style="opacity:1" fill="#787878" d="M 186.5,214.5 C 186.167,215.833 185.833,217.167 185.5,218.5C 183.901,217.201 183.401,215.535 184,213.5C 184.667,216.167 185.333,216.167 186,213.5C 186.399,213.728 186.565,214.062 186.5,214.5 Z"/></g>
<g><path style="opacity:1" fill="#848484" d="M 194.5,214.5 C 193.047,215.825 193.381,216.658 195.5,217C 194.056,217.781 192.723,217.614 191.5,216.5C 192.005,215.081 193.005,214.415 194.5,214.5 Z"/></g>
<g><path style="opacity:1" fill="#a3a3a3" d="M 13.5,210.5 C 15.1651,212.612 17.1651,213.278 19.5,212.5C 20.776,217.682 21.4427,217.682 21.5,212.5C 23.1992,212.34 24.8659,212.506 26.5,213C 25.6198,214.356 25.2865,215.856 25.5,217.5C 22.2309,217.077 19.0642,217.077 16,217.5C 14.3468,217.18 13.3468,216.18 13,214.5C 12.6667,215.5 12.3333,216.5 12,217.5C 11.5983,216.128 11.0983,214.795 10.5,213.5C 10.8457,212.304 11.3457,212.304 12,213.5C 12.5133,212.473 13.0133,211.473 13.5,210.5 Z"/></g>
<g><path style="opacity:1" fill="#70706f" d="M 46.5,213.5 C 47.9755,214.262 49.3088,214.595 50.5,214.5C 49.624,215.251 48.624,215.751 47.5,216C 49.9316,217.087 49.5983,217.587 46.5,217.5C 46.5,216.167 46.5,214.833 46.5,213.5 Z"/></g>
<g><path style="opacity:1" fill="#a6a5a5" d="M 129.5,212.5 C 132.388,212.22 133.888,213.553 134,216.5C 134.49,215.207 134.657,213.873 134.5,212.5C 138.252,212.501 139.252,214.167 137.5,217.5C 136.719,216.271 136.219,214.938 136,213.5C 135.784,215.384 135.117,217.051 134,218.5C 132.644,217.62 131.144,217.286 129.5,217.5C 129.5,215.833 129.5,214.167 129.5,212.5 Z"/></g>
<g><path style="opacity:1" fill="#e1dedd" d="M 157.5,211.5 C 155.028,212.642 154.028,214.642 154.5,217.5C 155.833,217.5 157.167,217.5 158.5,217.5C 158.677,210.866 159.177,210.866 160,217.5C 161,212.167 162,212.167 163,217.5C 163.823,210.866 164.323,210.866 164.5,217.5C 167.167,217.5 169.833,217.5 172.5,217.5C 172.5,216.167 172.5,214.833 172.5,213.5C 172.833,213.5 173.167,213.5 173.5,213.5C 173.5,214.833 173.5,216.167 173.5,217.5C 175.483,217.843 176.817,217.176 177.5,215.5C 177.833,215.5 178.167,215.5 178.5,215.5C 179.183,217.176 180.517,217.843 182.5,217.5C 182.634,215.708 182.301,214.042 181.5,212.5C 182.93,212.579 184.264,212.246 185.5,211.5C 187.404,212.257 187.737,213.257 186.5,214.5C 186.565,214.062 186.399,213.728 186,213.5C 185.333,216.167 184.667,216.167 184,213.5C 183.401,215.535 183.901,217.201 185.5,218.5C 185.265,219.097 184.765,219.43 184,219.5C 171.693,218.862 159.526,218.195 147.5,217.5C 148.323,215.545 148.49,213.545 148,211.5C 147.396,215.333 146.563,215.333 145.5,211.5C 149.367,210.274 153.367,210.274 157.5,211.5 Z"/></g>
<g><path style="opacity:1" fill="#8d8d8d" d="M 181.5,212.5 C 182.301,214.042 182.634,215.708 182.5,217.5C 180.517,217.843 179.183,217.176 178.5,215.5C 178.5,214.5 178.5,213.5 178.5,212.5C 179.5,212.5 180.5,212.5 181.5,212.5 Z"/></g>
<g><path style="opacity:1" fill="#6f6d6d" d="M 177.5,215.5 C 176.817,217.176 175.483,217.843 173.5,217.5C 173.5,216.167 173.5,214.833 173.5,213.5C 173.833,213.5 174.167,213.5 174.5,213.5C 177.031,210.621 178.031,211.288 177.5,215.5 Z"/></g>
<g><path style="opacity:1" fill="#f4f3f3" d="M 174.5,213.5 C 176.465,213.948 176.798,214.948 175.5,216.5C 174.614,215.675 174.281,214.675 174.5,213.5 Z"/></g>
<g><path style="opacity:1" fill="#9b9b9b" d="M 54.5,231.5 C 51.821,231.475 50.4877,230.142 50.5,227.5C 51.4822,226.859 52.4822,226.193 53.5,225.5C 54.4656,227.396 54.7989,229.396 54.5,231.5 Z"/></g>
<g><path style="opacity:1" fill="#676767" d="M 128.5,225.5 C 129.461,227.265 129.795,229.265 129.5,231.5C 125.944,231.725 125.61,230.892 128.5,229C 128.095,228.055 127.428,227.388 126.5,227C 127.416,226.722 128.082,226.222 128.5,225.5 Z"/></g>
<g><path style="opacity:1" fill="#a2a2a2" d="M 49.5,226.5 C 49.4894,228.017 48.8228,229.184 47.5,230C 48.1667,230.333 48.8333,230.667 49.5,231C 44.8762,231.306 40.2096,231.473 35.5,231.5C 39.018,225.774 43.6846,224.108 49.5,226.5 Z"/></g>
<g><path style="opacity:1" fill="#646464" d="M 15.5,231.5 C 14.8333,230.5 14.1667,229.5 13.5,228.5C 13.281,227.325 13.6143,226.325 14.5,225.5C 15.4656,227.396 15.7989,229.396 15.5,231.5 Z"/></g>
<g><path style="opacity:1" fill="#6d6d6d" d="M 32.5,231.5 C 31.1653,226.465 29.9987,226.465 29,231.5C 28.3305,229.41 27.1639,227.743 25.5,226.5C 27.6407,225.925 29.974,225.925 32.5,226.5C 32.5,228.167 32.5,229.833 32.5,231.5 Z"/></g>
<g><path style="opacity:1" fill="#616161" d="M 113.5,225.5 C 114.473,225.987 115.473,226.487 116.5,227C 115.033,228.098 114.199,229.598 114,231.5C 113.505,229.527 113.338,227.527 113.5,225.5 Z"/></g>
<g><path style="opacity:1" fill="#6d6d6d" d="M 118.5,227.5 C 119.975,228.262 121.309,228.595 122.5,228.5C 121.624,229.251 120.624,229.751 119.5,230C 121.932,231.087 121.598,231.587 118.5,231.5C 118.5,230.167 118.5,228.833 118.5,227.5 Z"/></g>
<g><path style="opacity:1" fill="#5f5f5f" d="M 11.5,228.5 C 10.8333,229.5 10.1667,230.5 9.5,231.5C 9.2011,229.396 9.53443,227.396 10.5,225.5C 11.3857,226.325 11.719,227.325 11.5,228.5 Z"/></g>
<g><path style="opacity:1" fill="#9c9c9c" d="M 63.5,228.5 C 62.3579,230.972 60.3579,231.972 57.5,231.5C 57.2011,229.396 57.5344,227.396 58.5,225.5C 59.7481,226.04 60.9148,226.707 62,227.5C 63.1068,226.288 63.6068,226.621 63.5,228.5 Z"/></g>
<g><path style="opacity:1" fill="#858585" d="M 63.5,228.5 C 64.7498,228.423 65.5831,227.756 66,226.5C 66.453,229.309 65.6196,231.642 63.5,233.5C 63.1928,232.113 63.1928,230.446 63.5,228.5 Z"/></g>
<g><path style="opacity:1" fill="#a3a3a3" d="M 69.5,225.5 C 73.3953,226.749 77.2286,227.416 81,227.5C 81.8542,229.607 81.1875,230.941 79,231.5C 77.7651,230.385 76.5984,230.385 75.5,231.5C 74.224,226.318 73.5573,226.318 73.5,231.5C 72.1667,231.5 70.8333,231.5 69.5,231.5C 69.5,229.5 69.5,227.5 69.5,225.5 Z"/></g>
<g><path style="opacity:1" fill="#a5a5a5" d="M 96.5,225.5 C 98.3079,226.918 98.9746,228.918 98.5,231.5C 96.326,231.08 94.326,231.08 92.5,231.5C 91.224,226.318 90.5573,226.318 90.5,231.5C 88.5,231.5 86.5,231.5 84.5,231.5C 84.2865,229.856 84.6198,228.356 85.5,227C 88.2305,226.272 90.8971,226.438 93.5,227.5C 94.7387,227.058 95.7387,226.391 96.5,225.5 Z"/></g>
<g><path style="opacity:1" fill="#8f8f8f" d="M 23.5,226.5 C 22.6317,232.031 21.7984,232.365 21,227.5C 20.51,228.793 20.3433,230.127 20.5,231.5C 19.1667,231.5 17.8333,231.5 16.5,231.5C 16.2865,229.856 16.6198,228.356 17.5,227C 19.4727,226.505 21.4727,226.338 23.5,226.5 Z"/></g>
<g><path style="opacity:1" fill="#dcdcdc" d="M 23.5,226.5 C 24.1667,226.5 24.8333,226.5 25.5,226.5C 27.1639,227.743 28.3305,229.41 29,231.5C 29.9987,226.465 31.1653,226.465 32.5,231.5C 33.5,231.5 34.5,231.5 35.5,231.5C 40.2096,231.473 44.8762,231.306 49.5,231C 48.8333,230.667 48.1667,230.333 47.5,230C 48.8228,229.184 49.4894,228.017 49.5,226.5C 50.1667,226.5 50.5,226.833 50.5,227.5C 50.4877,230.142 51.821,231.475 54.5,231.5C 40.0701,232.824 25.0701,232.824 9.5,231.5C 10.1667,230.5 10.8333,229.5 11.5,228.5C 12.1667,228.5 12.8333,228.5 13.5,228.5C 14.1667,229.5 14.8333,230.5 15.5,231.5C 15.8333,231.5 16.1667,231.5 16.5,231.5C 17.8333,231.5 19.1667,231.5 20.5,231.5C 20.3433,230.127 20.51,228.793 21,227.5C 21.7984,232.365 22.6317,232.031 23.5,226.5 Z"/></g>
<g><path style="opacity:1" fill="#b0b0b0" d="M 106.5,225.5 C 107.461,227.265 107.795,229.265 107.5,231.5C 105.473,231.662 103.473,231.495 101.5,231C 100,227.167 101.167,226 105,227.5C 105.717,226.956 106.217,226.289 106.5,225.5 Z"/></g>
<g><path style="opacity:1" fill="#959595" d="M 130.5,226.5 C 133.388,226.22 134.888,227.553 135,230.5C 135.359,227.456 136.026,227.122 137,229.5C 137.556,227.405 138.056,227.238 138.5,229C 138.122,230.635 137.456,232.135 136.5,233.5C 134.821,231.896 132.821,231.229 130.5,231.5C 130.5,229.833 130.5,228.167 130.5,226.5 Z"/></g>
<g><path style="opacity:1" fill="#d0bbdc" d="M 10.5,248.5 C 18.3446,250.088 26.3446,250.421 34.5,249.5C 34.5,251.167 34.5,252.833 34.5,254.5C 32.8762,254.64 31.7096,253.973 31,252.5C 30.3261,253.578 29.3261,254.245 28,254.5C 25.6667,253.167 23.3333,253.167 21,254.5C 19.6739,254.245 18.6739,253.578 18,252.5C 17.0255,254.878 16.3589,254.544 16,251.5C 15.5172,252.448 15.3505,253.448 15.5,254.5C 13.857,254.52 12.5237,253.853 11.5,252.5C 10.914,252.709 10.414,253.043 10,253.5C 9.61553,251.803 9.78219,250.137 10.5,248.5 Z"/></g>
<g><path style="opacity:1" fill="#4d4d4d" d="M 11.5,261.5 C 12.6291,263.628 12.7958,265.961 12,268.5C 11.879,266.273 11.0456,264.44 9.5,263C 10.4158,262.722 11.0825,262.222 11.5,261.5 Z"/></g>
<g><path style="opacity:1" fill="#888888" d="M 55.5,262.5 C 56.0472,264.518 57.0472,266.351 58.5,268C 57.552,268.483 56.552,268.649 55.5,268.5C 55.5,266.5 55.5,264.5 55.5,262.5 Z"/></g>
<g><path style="opacity:1" fill="#7e7e7e" d="M 50.5,267.5 C 49.0903,268.828 47.9236,268.495 47,266.5C 45.8668,268.211 44.3668,268.711 42.5,268C 46.5,266 46.5,264 42.5,262C 45.4536,262.561 48.4536,262.394 51.5,261.5C 51.7947,263.735 51.4614,265.735 50.5,267.5 Z"/></g>
<g><path style="opacity:1" fill="#f8f8f8" d="M 50.5,267.5 C 49.3509,267.209 48.6842,266.376 48.5,265C 48.8333,264.167 49.1667,263.333 49.5,262.5C 50.4519,264.045 50.7852,265.712 50.5,267.5 Z"/></g>
<g><path style="opacity:1" fill="#7e7e7e" d="M 16.5,261.5 C 19.0632,263.417 19.5632,265.75 18,268.5C 17.1004,267.23 15.9337,266.23 14.5,265.5C 15.6302,264.378 16.2969,263.044 16.5,261.5 Z"/></g>
<g><path style="opacity:1" fill="#a7a7a7" d="M 69.5,267.5 C 66.5768,267.653 63.5768,267.653 60.5,267.5C 61.1445,266.268 61.3112,264.935 61,263.5C 62.1827,262.269 63.3493,262.269 64.5,263.5C 63.1451,264.675 63.3117,265.675 65,266.5C 65.49,265.207 65.6567,263.873 65.5,262.5C 70.0274,262.005 71.3607,263.672 69.5,267.5 Z"/></g>
<g><path style="opacity:1" fill="#ebebeb" d="M 69.5,267.5 C 68.5,267.5 67.5,267.5 66.5,267.5C 66.238,266.022 66.5713,264.689 67.5,263.5C 69.1112,264.32 69.7778,265.654 69.5,267.5 Z"/></g>
<g><path style="opacity:1" fill="#737473" d="M 26.5,262.5 C 29.1667,261.167 31.8333,261.167 34.5,262.5C 35.5417,261.209 36.7083,261.209 38,262.5C 39.3229,268.196 37.6562,269.529 33,266.5C 31.3333,269.167 29.6667,269.167 28,266.5C 23.3438,269.529 21.6771,268.196 23,262.5C 24.2917,261.209 25.4583,261.209 26.5,262.5 Z"/></g>
<g><path style="opacity:1" fill="#f4f5f5" d="M 29.5,262.5 C 30.6491,262.791 31.3158,263.624 31.5,265C 31.1667,265.833 30.8333,266.667 30.5,267.5C 29.5481,265.955 29.2148,264.288 29.5,262.5 Z"/></g>
<g><path style="opacity:1" fill="#efefef" d="M 26.5,262.5 C 26.7692,264.429 26.2692,266.095 25,267.5C 22.7906,264.963 23.2906,263.297 26.5,262.5 Z"/></g>
<g><path style="opacity:1" fill="#f0f0f0" d="M 34.5,262.5 C 37.7094,263.297 38.2094,264.963 36,267.5C 34.7308,266.095 34.2308,264.429 34.5,262.5 Z"/></g>
<g><path style="opacity:1" fill="#fcd3c7" d="M 87.5,277.5 C 94.1667,277.5 100.833,277.5 107.5,277.5C 107.5,277.833 107.5,278.167 107.5,278.5C 103.534,279.162 99.5341,279.495 95.5,279.5C 92.8333,278.833 90.1667,278.167 87.5,277.5 Z"/></g>
<g><path style="opacity:1" fill="#ec9586" d="M 127.5,281.5 C 126.5,281.5 125.5,281.5 124.5,281.5C 124.389,280.883 124.056,280.383 123.5,280C 118.178,279.316 112.844,278.816 107.5,278.5C 107.5,278.167 107.5,277.833 107.5,277.5C 112.975,276.511 118.642,276.178 124.5,276.5C 124.31,278.959 125.31,280.626 127.5,281.5 Z"/></g>
<g><path style="opacity:1" fill="#e68a7a" d="M 87.5,277.5 C 90.1667,278.167 92.8333,278.833 95.5,279.5C 87.4723,279.169 79.4723,279.502 71.5,280.5C 71.1373,281.183 70.8039,281.85 70.5,282.5C 68.8333,282.5 67.1667,282.5 65.5,282.5C 59.5,281.833 53.5,281.167 47.5,280.5C 54.379,280.222 61.2123,280.555 68,281.5C 69.2737,280.465 70.4404,279.298 71.5,278C 76.8229,277.501 82.1563,277.334 87.5,277.5 Z"/></g>
<g><path style="opacity:1" fill="#dd4c38" d="M 107.5,278.5 C 112.844,278.816 118.178,279.316 123.5,280C 124.056,280.383 124.389,280.883 124.5,281.5C 106.419,279.836 88.4186,280.169 70.5,282.5C 70.8039,281.85 71.1373,281.183 71.5,280.5C 79.4723,279.502 87.4723,279.169 95.5,279.5C 99.5341,279.495 103.534,279.162 107.5,278.5 Z"/></g>
<g><path style="opacity:1" fill="#deb8d2" d="M 37.5,281.5 C 37.3893,282.117 37.056,282.617 36.5,283C 27.7941,283.329 19.1274,282.829 10.5,281.5C 9.28782,279.736 9.62115,278.07 11.5,276.5C 12.3333,277.5 13.1667,278.5 14,279.5C 14.3879,278.572 15.0546,277.905 16,277.5C 19.8956,278.339 23.8956,278.673 28,278.5C 30.3333,277.833 32.6667,277.167 35,276.5C 35.0496,278.744 35.8829,280.411 37.5,281.5 Z"/></g>
<g><path style="opacity:1" fill="#dd5950" d="M 47.5,280.5 C 53.5,281.167 59.5,281.833 65.5,282.5C 47.1667,283.167 28.8333,283.833 10.5,284.5C 10.5,283.5 10.5,282.5 10.5,281.5C 19.1274,282.829 27.7941,283.329 36.5,283C 37.056,282.617 37.3893,282.117 37.5,281.5C 40.6875,279.343 44.0208,279.01 47.5,280.5 Z"/></g>
<g><path style="opacity:1" fill="#eb7762" d="M 129.5,282.5 C 130.609,282.557 131.609,282.89 132.5,283.5C 133.641,284.339 134.974,285.006 136.5,285.5C 137.492,289.783 137.826,294.116 137.5,298.5C 134.14,298.616 130.807,298.949 127.5,299.5C 128.172,298.733 129.005,298.066 130,297.5C 130.663,292.463 130.496,287.463 129.5,282.5 Z"/></g>
<g><path style="opacity:1" fill="#ec9e90" d="M 132.5,283.5 C 135.545,283.508 138.545,283.841 141.5,284.5C 141.888,289.628 141.388,294.628 140,299.5C 135.263,300.469 130.43,300.803 125.5,300.5C 125.5,300.167 125.5,299.833 125.5,299.5C 126.167,299.5 126.833,299.5 127.5,299.5C 130.807,298.949 134.14,298.616 137.5,298.5C 137.826,294.116 137.492,289.783 136.5,285.5C 134.974,285.006 133.641,284.339 132.5,283.5 Z"/></g>
<g><path style="opacity:1" fill="#d21508" d="M 124.5,281.5 C 125.5,281.5 126.5,281.5 127.5,281.5C 127.842,282.338 128.508,282.672 129.5,282.5C 130.496,287.463 130.663,292.463 130,297.5C 129.005,298.066 128.172,298.733 127.5,299.5C 126.833,299.5 126.167,299.5 125.5,299.5C 118.486,299.499 111.486,299.166 104.5,298.5C 100.507,298.39 96.6741,299.057 93,300.5C 90.9211,299.597 88.7544,298.931 86.5,298.5C 83.4109,299.21 80.4109,300.21 77.5,301.5C 76.1508,301.154 74.8175,300.821 73.5,300.5C 71.8825,299.028 69.8825,298.361 67.5,298.5C 55.136,298.746 43.136,299.746 31.5,301.5C 30.8333,301.5 30.1667,301.5 29.5,301.5C 23.4908,301.666 17.4908,301.499 11.5,301C 10.8742,300.25 10.3742,299.416 10,298.5C 9.50085,293.845 9.33418,289.179 9.5,284.5C 9.83333,284.5 10.1667,284.5 10.5,284.5C 28.8333,283.833 47.1667,283.167 65.5,282.5C 67.1667,282.5 68.8333,282.5 70.5,282.5C 88.4186,280.169 106.419,279.836 124.5,281.5 Z"/></g>
<g><path style="opacity:1" fill="#ea9e90" d="M 8.5,285.5 C 8.26651,290.895 8.59984,296.228 9.5,301.5C 8.18834,299.257 7.52168,296.59 7.5,293.5C 7.50255,290.645 7.83588,287.978 8.5,285.5 Z"/></g>
<g><path style="opacity:1" fill="#cd4433" d="M 73.5,300.5 C 67.31,300.177 61.31,300.51 55.5,301.5C 47.5,301.5 39.5,301.5 31.5,301.5C 43.136,299.746 55.136,298.746 67.5,298.5C 69.8825,298.361 71.8825,299.028 73.5,300.5 Z"/></g>
<g><path style="opacity:1" fill="#ed6550" d="M 125.5,299.5 C 125.5,299.833 125.5,300.167 125.5,300.5C 125.167,300.5 124.833,300.5 124.5,300.5C 123.833,300.5 123.167,300.5 122.5,300.5C 107.188,301.48 91.8545,302.48 76.5,303.5C 76.1583,302.662 75.4916,302.328 74.5,302.5C 68.3554,301.51 62.0221,301.177 55.5,301.5C 61.31,300.51 67.31,300.177 73.5,300.5C 74.8175,300.821 76.1508,301.154 77.5,301.5C 80.4109,300.21 83.4109,299.21 86.5,298.5C 88.7544,298.931 90.9211,299.597 93,300.5C 96.6741,299.057 100.507,298.39 104.5,298.5C 111.486,299.166 118.486,299.499 125.5,299.5 Z"/></g>
<g><path style="opacity:1" fill="#d46357" d="M 9.5,284.5 C 9.33418,289.179 9.50085,293.845 10,298.5C 10.3742,299.416 10.8742,300.25 11.5,301C 17.4908,301.499 23.4908,301.666 29.5,301.5C 29.5,301.833 29.5,302.167 29.5,302.5C 22.8333,302.5 16.1667,302.5 9.5,302.5C 9.5,302.167 9.5,301.833 9.5,301.5C 8.59984,296.228 8.26651,290.895 8.5,285.5C 8.5,284.833 8.83333,284.5 9.5,284.5 Z"/></g>
<g><path style="opacity:1" fill="#e97660" d="M 122.5,300.5 C 121.791,301.404 120.791,301.737 119.5,301.5C 119.5,302.5 119.5,303.5 119.5,304.5C 104.99,304.829 90.6569,304.496 76.5,303.5C 91.8545,302.48 107.188,301.48 122.5,300.5 Z"/></g>
<g><path style="opacity:1" fill="#e4988b" d="M 122.5,300.5 C 123.167,300.5 123.833,300.5 124.5,300.5C 124.167,302.5 123.833,304.5 123.5,306.5C 107.512,305.723 91.5123,305.389 75.5,305.5C 74.8902,304.609 74.5569,303.609 74.5,302.5C 75.4916,302.328 76.1583,302.662 76.5,303.5C 90.6569,304.496 104.99,304.829 119.5,304.5C 119.5,303.5 119.5,302.5 119.5,301.5C 120.791,301.737 121.791,301.404 122.5,300.5 Z"/></g>
<g><path style="opacity:1" fill="#d7b4d2" d="M 9.5,302.5 C 16.1667,302.5 22.8333,302.5 29.5,302.5C 24.3491,303.327 19.0158,303.827 13.5,304C 17.2712,304.539 20.7712,305.039 24,305.5C 24.6667,306.5 24.6667,307.5 24,308.5C 20.5077,308.689 17.1744,308.356 14,307.5C 12.8904,309.037 11.3904,309.703 9.5,309.5C 9.5,307.167 9.5,304.833 9.5,302.5 Z"/></g>
<g><path style="opacity:1" fill="#fdeae6" d="M 141.5,284.5 C 142.814,286.915 143.481,289.748 143.5,293C 143.167,295.833 142.833,298.667 142.5,301.5C 141.312,302.84 139.812,303.507 138,303.5C 134.208,302.69 130.375,302.356 126.5,302.5C 126.41,307.93 123.576,309.93 118,308.5C 105.176,307.802 92.3425,307.302 79.5,307C 77.9419,306.79 76.6085,306.29 75.5,305.5C 91.5123,305.389 107.512,305.723 123.5,306.5C 123.833,304.5 124.167,302.5 124.5,300.5C 124.833,300.5 125.167,300.5 125.5,300.5C 130.43,300.803 135.263,300.469 140,299.5C 141.388,294.628 141.888,289.628 141.5,284.5 Z"/></g>
<g><path style="opacity:1" fill="#999b98" d="M 17.5,318.5 C 17.2648,317.903 16.7648,317.57 16,317.5C 14.6974,317.978 13.5307,318.645 12.5,319.5C 12.6399,317.876 11.9733,316.71 10.5,316C 11,315.833 11.5,315.667 12,315.5C 14.4182,315.555 16.9182,315.888 19.5,316.5C 19.1445,317.522 18.4778,318.189 17.5,318.5 Z"/></g>
<g><path style="opacity:1" fill="#959594" d="M 35.5,321.5 C 32.8261,323.959 30.3261,323.626 28,320.5C 27,323.167 26,323.167 25,320.5C 24.5831,321.756 23.7498,322.423 22.5,322.5C 22.1924,320.076 22.5258,317.743 23.5,315.5C 24.8524,316.518 25.8524,317.851 26.5,319.5C 29.0704,313.949 30.5704,314.282 31,320.5C 31.4828,319.552 31.6495,318.552 31.5,317.5C 32.8333,317.5 34.1667,317.5 35.5,317.5C 35.5,318.833 35.5,320.167 35.5,321.5 Z"/></g>
<g><path style="opacity:1" fill="#858585" d="M 62.5,322.5 C 61.2921,321.766 59.9587,321.433 58.5,321.5C 58.5,320.5 58.5,319.5 58.5,318.5C 59.7124,317.77 60.7124,316.77 61.5,315.5C 62.4742,317.743 62.8076,320.076 62.5,322.5 Z"/></g>
<g><path style="opacity:1" fill="#d7d7d7" d="M 47.5,321.5 C 49.0889,315.069 50.5889,315.069 52,321.5C 52.4935,319.866 52.6602,318.199 52.5,316.5C 52.8333,316.5 53.1667,316.5 53.5,316.5C 53.369,317.239 53.5357,317.906 54,318.5C 57.1103,317.327 57.277,317.827 54.5,320C 57.5154,319.831 58.1821,318.331 56.5,315.5C 58.0481,315.821 58.7148,316.821 58.5,318.5C 58.5,319.5 58.5,320.5 58.5,321.5C 59.9587,321.433 61.2921,321.766 62.5,322.5C 63.0431,322.56 63.3764,322.893 63.5,323.5C 45.8428,324.666 28.1761,324.833 10.5,324C 8.94418,321.499 9.61085,319.999 12.5,319.5C 13.5307,318.645 14.6974,317.978 16,317.5C 16.7648,317.57 17.2648,317.903 17.5,318.5C 17.5792,319.93 17.2458,321.264 16.5,322.5C 18.6365,323.793 20.6365,323.793 22.5,322.5C 23.7498,322.423 24.5831,321.756 25,320.5C 26,323.167 27,323.167 28,320.5C 30.3261,323.626 32.8261,323.959 35.5,321.5C 35.8333,321.5 36.1667,321.5 36.5,321.5C 36.5,322.167 36.8333,322.5 37.5,322.5C 38.7082,323.782 40.0416,323.782 41.5,322.5C 42.3128,321.186 43.3128,320.019 44.5,319C 41.9568,316.649 42.6235,315.483 46.5,315.5C 46.822,317.722 46.1554,319.556 44.5,321C 45.448,321.483 46.448,321.649 47.5,321.5 Z"/></g>
<g><path style="opacity:1" fill="#868686" d="M 56.5,315.5 C 58.1821,318.331 57.5154,319.831 54.5,320C 57.277,317.827 57.1103,317.327 54,318.5C 53.5357,317.906 53.369,317.239 53.5,316.5C 54.391,315.89 55.391,315.557 56.5,315.5 Z"/></g>
<g><path style="opacity:1" fill="#696969" d="M 52.5,316.5 C 52.6602,318.199 52.4935,319.866 52,321.5C 50.5889,315.069 49.0889,315.069 47.5,321.5C 46.415,316.58 48.0817,314.913 52.5,316.5 Z"/></g>
<g><path style="opacity:1" fill="#5a5a5a" d="M 37.5,322.5 C 36.8333,322.5 36.5,322.167 36.5,321.5C 36.5,320.167 36.5,318.833 36.5,317.5C 37.552,317.351 38.552,317.517 39.5,318C 37.8934,319.049 37.2267,320.549 37.5,322.5 Z"/></g>
<g><path style="opacity:1" fill="#b294d3" d="M 83.5,346.5 C 83.1667,346.5 82.8333,346.5 82.5,346.5C 58.6725,345.502 34.6725,345.169 10.5,345.5C 10.5,346.5 10.5,347.5 10.5,348.5C 9.51388,352.97 9.18054,357.637 9.5,362.5C 8.51045,356.69 8.17711,350.69 8.5,344.5C 33.8557,343.843 58.8557,344.509 83.5,346.5 Z"/></g>
<g><path style="opacity:1" fill="#b47ffb" d="M 73.5,351.5 C 61.5464,349.992 49.5464,350.325 37.5,352.5C 34.7131,351.523 31.7131,351.19 28.5,351.5C 27.9423,350.21 26.9423,349.377 25.5,349C 22.8333,348.333 20.1667,348.333 17.5,349C 17.8333,349.333 18.1667,349.667 18.5,350C 17.6919,350.308 17.0253,350.808 16.5,351.5C 16.8457,352.696 17.3457,352.696 18,351.5C 18.4955,353.473 18.6621,355.473 18.5,357.5C 20.1033,357.312 21.4366,357.812 22.5,359C 20.6547,360.128 18.6547,360.628 16.5,360.5C 16.7251,356.944 15.8918,356.61 14,359.5C 13.228,359.355 12.5613,359.022 12,358.5C 11.8138,355.964 11.3138,353.631 10.5,351.5C 10.5,350.5 10.5,349.5 10.5,348.5C 21.942,347.188 33.6087,346.521 45.5,346.5C 56.8333,346.667 68.1667,346.833 79.5,347C 81.1032,350.983 81.7698,355.15 81.5,359.5C 79.4588,359.146 77.6255,359.146 76,359.5C 75.0572,356.749 74.2239,354.083 73.5,351.5 Z"/></g>
<g><path style="opacity:1" fill="#b384f2" d="M 82.5,346.5 C 82.5,351.5 82.5,356.5 82.5,361.5C 58.474,361.794 34.474,361.46 10.5,360.5C 10.5,357.5 10.5,354.5 10.5,351.5C 11.3138,353.631 11.8138,355.964 12,358.5C 12.5613,359.022 13.228,359.355 14,359.5C 15.8918,356.61 16.7251,356.944 16.5,360.5C 18.6547,360.628 20.6547,360.128 22.5,359C 21.4366,357.812 20.1033,357.312 18.5,357.5C 18.6621,355.473 18.4955,353.473 18,351.5C 17.3457,352.696 16.8457,352.696 16.5,351.5C 17.0253,350.808 17.6919,350.308 18.5,350C 18.1667,349.667 17.8333,349.333 17.5,349C 20.1667,348.333 22.8333,348.333 25.5,349C 26.9423,349.377 27.9423,350.21 28.5,351.5C 24.9127,349.526 22.746,350.526 22,354.5C 21.3333,353.167 20.6667,351.833 20,350.5C 19.8195,352.488 19.9862,354.488 20.5,356.5C 26.0292,356.06 31.1958,356.06 36,356.5C 37.1882,355.437 37.6882,354.103 37.5,352.5C 49.5464,350.325 61.5464,349.992 73.5,351.5C 74.2239,354.083 75.0572,356.749 76,359.5C 77.6255,359.146 79.4588,359.146 81.5,359.5C 81.7698,355.15 81.1032,350.983 79.5,347C 68.1667,346.833 56.8333,346.667 45.5,346.5C 33.6087,346.521 21.942,347.188 10.5,348.5C 10.5,347.5 10.5,346.5 10.5,345.5C 34.6725,345.169 58.6725,345.502 82.5,346.5 Z"/></g>
<g><path style="opacity:1" fill="#b992ea" d="M 82.5,346.5 C 82.8333,346.5 83.1667,346.5 83.5,346.5C 83.5,352.167 83.5,357.833 83.5,363.5C 58.661,363.831 33.9944,363.498 9.5,362.5C 9.18054,357.637 9.51388,352.97 10.5,348.5C 10.5,349.5 10.5,350.5 10.5,351.5C 10.5,354.5 10.5,357.5 10.5,360.5C 34.474,361.46 58.474,361.794 82.5,361.5C 82.5,356.5 82.5,351.5 82.5,346.5 Z"/></g>
<g><path style="opacity:1" fill="#d5b0f2" d="M 28.5,351.5 C 31.7131,351.19 34.7131,351.523 37.5,352.5C 37.6882,354.103 37.1882,355.437 36,356.5C 31.1958,356.06 26.0292,356.06 20.5,356.5C 19.9862,354.488 19.8195,352.488 20,350.5C 20.6667,351.833 21.3333,353.167 22,354.5C 22.746,350.526 24.9127,349.526 28.5,351.5 Z"/></g>
<g><path style="opacity:1" fill="#cea8f0" d="M 73.5,351.5 C 73.5,353.167 73.5,354.833 73.5,356.5C 68.9902,356.095 64.3236,356.095 59.5,356.5C 59.1667,352.5 58.8333,352.5 58.5,356.5C 55.5429,356.523 53.0429,357.523 51,359.5C 50.6667,358.5 50.3333,357.5 50,356.5C 46.8475,357.593 43.8475,358.259 41,358.5C 40.3333,356.5 40.3333,354.5 41,352.5C 41.2492,353.624 41.7492,354.624 42.5,355.5C 43.3133,353.352 44.8133,352.019 47,351.5C 55.7719,351.723 64.6052,351.723 73.5,351.5 Z"/></g>
<g><path style="opacity:1" fill="#c9cccd" d="M 104.5,375.5 C 106.582,375.624 108.082,376.624 109,378.5C 109.483,377.552 109.649,376.552 109.5,375.5C 115.625,376.041 121.625,376.041 127.5,375.5C 127.66,377.199 127.494,378.866 127,380.5C 126.333,376.5 125.667,376.5 125,380.5C 124.667,379.5 124.333,378.5 124,377.5C 120.559,381.213 117.725,381.213 115.5,377.5C 114.402,381.361 113.569,381.361 113,377.5C 112.333,381.5 111.667,381.5 111,377.5C 110.252,379.332 109.252,380.999 108,382.5C 105.471,379.685 102.804,379.351 100,381.5C 99.3333,379.833 99.3333,378.167 100,376.5C 100.667,380.5 101.333,380.5 102,376.5C 103.159,377.566 103.992,377.233 104.5,375.5 Z"/></g>
<g><path style="opacity:1" fill="#d9dcdd" d="M 179.5,374.5 C 182.079,374.083 184.246,374.75 186,376.5C 188.109,376.434 190.275,376.101 192.5,375.5C 193.192,376.025 193.692,376.692 194,377.5C 197.221,375.794 199.054,377.127 199.5,381.5C 192.966,380.945 186.299,380.611 179.5,380.5C 179.5,378.5 179.5,376.5 179.5,374.5 Z"/></g>
<g><path style="opacity:1" fill="#c9ccce" d="M 160.5,374.5 C 162.164,375.743 163.331,377.41 164,379.5C 164.333,378.5 164.667,377.5 165,376.5C 165.775,378.949 164.942,380.616 162.5,381.5C 160.552,379.461 158.385,379.461 156,381.5C 154.56,380.07 154.226,378.403 155,376.5C 156,376.833 157,377.167 158,377.5C 159.417,376.922 160.25,375.922 160.5,374.5 Z"/></g>
<g><path style="opacity:1" fill="#c5cacb" d="M 169.5,375.5 C 171.39,376.18 173.39,376.347 175.5,376C 176.841,379.262 176.508,379.762 174.5,377.5C 173.44,379.748 171.44,380.748 168.5,380.5C 168.366,378.708 168.699,377.042 169.5,375.5 Z"/></g>
<g><path style="opacity:1" fill="#d0d4d5" d="M 42.5,374.5 C 46.6272,375.97 50.4605,376.304 54,375.5C 54.6667,376.167 55.3333,376.833 56,377.5C 59.695,374.611 61.5283,375.277 61.5,379.5C 59.7408,380.754 58.2408,380.421 57,378.5C 55.1967,382.512 54.1967,382.178 54,377.5C 53.5172,378.448 53.3505,379.448 53.5,380.5C 52.0222,380.762 50.6888,380.429 49.5,379.5C 50.5063,378.604 50.5063,377.938 49.5,377.5C 48.6143,378.325 48.281,379.325 48.5,380.5C 45.2688,381.368 41.9355,381.368 38.5,380.5C 38.9801,374.656 40.1468,374.322 42,379.5C 42.4935,377.866 42.6602,376.199 42.5,374.5 Z"/></g>
</svg>
