<?xml version="1.0" encoding="UTF-8"?>
<!DOCTYPE svg PUBLIC "-//W3C//DTD SVG 1.1//EN" "http://www.w3.org/Graphics/SVG/1.1/DTD/svg11.dtd">
<svg xmlns="http://www.w3.org/2000/svg" version="1.1" width="239px" height="392px" style="shape-rendering:geometricPrecision; text-rendering:geometricPrecision; image-rendering:optimizeQuality; fill-rule:evenodd; clip-rule:evenodd" xmlns:xlink="http://www.w3.org/1999/xlink">
<g><path style="opacity:1" fill="#fcfcfc" d="M -0.5,-0.5 C 79.1667,-0.5 158.833,-0.5 238.5,-0.5C 238.5,130.167 238.5,260.833 238.5,391.5C 158.833,391.5 79.1667,391.5 -0.5,391.5C -0.5,260.833 -0.5,130.167 -0.5,-0.5 Z"/></g>
<g><path style="opacity:1" fill="#ceb28f" d="M 221.5,135.5 C 223.492,135.328 225.158,135.995 226.5,137.5C 228.005,134.869 228.671,135.203 228.5,138.5C 232.449,138.693 232.449,139.193 228.5,140C 229.535,141.507 229.368,143.007 228,144.5C 227.667,144.167 227.333,143.833 227,143.5C 224.245,145.784 221.412,146.284 218.5,145C 219.311,141.778 220.311,138.612 221.5,135.5 Z"/></g>
<g><path style="opacity:1" fill="#686868" d="M 192.5,143.5 C 191.387,142.054 191.22,140.387 192,138.5C 193.049,137.483 194.216,137.316 195.5,138C 196.576,139.726 196.743,141.559 196,143.5C 194.708,144.791 193.542,144.791 192.5,143.5 Z"/></g>
<g><path style="opacity:1" fill="#757575" d="M 119.5,138.5 C 120.802,139.807 122.135,139.807 123.5,138.5C 124.251,139.376 124.751,140.376 125,141.5C 125.249,140.376 125.749,139.376 126.5,138.5C 127.199,140.612 126.699,142.612 125,144.5C 123.653,140.625 122.486,140.625 121.5,144.5C 120.523,142.589 119.857,140.589 119.5,138.5 Z"/></g>
<g><path style="opacity:1" fill="#646464" d="M 137.5,142.5 C 137.934,145.166 136.934,146.333 134.5,146C 135.271,143.56 135.438,141.06 135,138.5C 135.934,139.858 136.768,141.192 137.5,142.5 Z"/></g>
<g><path style="opacity:1" fill="#636363" d="M 46.5,139.5 C 46.0882,141.973 47.0882,143.306 49.5,143.5C 48.4583,144.791 47.2917,144.791 46,143.5C 45.235,141.934 45.4017,140.601 46.5,139.5 Z"/></g>
<g><path style="opacity:1" fill="#6d6d6d" d="M 137.5,142.5 C 137.312,140.897 137.812,139.563 139,138.5C 139.348,140.14 138.848,141.473 137.5,142.5 Z"/></g>
<g><path style="opacity:1" fill="#818181" d="M 86.5,137.5 C 91.3105,139.253 91.6439,141.586 87.5,144.5C 83.8425,142.835 83.5091,140.502 86.5,137.5 Z"/></g>
<g><path style="opacity:1" fill="#8c8c8c" d="M 26.5,137.5 C 28.1789,137.892 29.8455,138.392 31.5,139C 30.7511,140.734 30.2511,142.567 30,144.5C 29.5724,139.502 28.7391,139.335 27.5,144C 22.7458,144.852 21.4125,143.019 23.5,138.5C 25.1435,144.909 26.1435,144.576 26.5,137.5 Z"/></g>
<g><path style="opacity:1" fill="#5b5b5b" d="M 210.5,138.5 C 211.404,139.209 211.737,140.209 211.5,141.5C 210.127,141.343 208.793,141.51 207.5,142C 208.536,143.617 209.703,143.784 211,142.5C 211.432,143.6 210.932,144.267 209.5,144.5C 206.754,143.904 205.92,142.237 207,139.5C 208.756,140.985 209.923,140.652 210.5,138.5 Z"/></g>
<g><path style="opacity:1" fill="#5b5b5b" d="M 202.5,137.5 C 203.496,137.414 204.329,137.748 205,138.5C 205.667,140.5 205.667,142.5 205,144.5C 204.506,142.866 204.34,141.199 204.5,139.5C 203.5,139.5 202.5,139.5 201.5,139.5C 201.66,141.199 201.494,142.866 201,144.5C 200.185,141.802 200.685,139.468 202.5,137.5 Z"/></g>
<g><path style="opacity:1" fill="#828282" d="M 176.5,135.5 C 177.376,135.369 178.043,135.702 178.5,136.5C 179.432,138.795 180.265,141.129 181,143.5C 181.495,141.527 181.662,139.527 181.5,137.5C 183.467,137.261 185.301,137.594 187,138.5C 187.667,137.833 188.333,137.167 189,136.5C 189.226,139.095 189.726,141.595 190.5,144C 190.167,144.167 189.833,144.333 189.5,144.5C 188.702,142.922 188.202,141.256 188,139.5C 187.115,146.078 185.948,146.078 184.5,139.5C 183.548,141.045 183.215,142.712 183.5,144.5C 182.167,144.5 180.833,144.5 179.5,144.5C 179.5,143.5 179.5,142.5 179.5,141.5C 177.549,141.227 176.049,141.893 175,143.5C 174.955,140.78 175.455,138.114 176.5,135.5 Z"/></g>
<g><path style="opacity:1" fill="#585858" d="M 161.5,138.5 C 162.791,138.263 163.791,138.596 164.5,139.5C 162.883,140.589 162.05,142.256 162,144.5C 161.505,142.527 161.338,140.527 161.5,138.5 Z"/></g>
<g><path style="opacity:1" fill="#767676" d="M 111.5,137.5 C 114.5,137.167 115.833,138.5 115.5,141.5C 110.206,141.682 110.206,142.182 115.5,143C 114.407,144.365 113.074,144.699 111.5,144C 110.232,141.837 110.232,139.67 111.5,137.5 Z"/></g>
<g><path style="opacity:1" fill="#efefef" d="M 86.5,139.5 C 87.5862,139.62 88.2528,140.287 88.5,141.5C 87.6964,143.957 86.6964,143.957 85.5,141.5C 85.8627,140.817 86.1961,140.15 86.5,139.5 Z"/></g>
<g><path style="opacity:1" fill="#696969" d="M 36.5,137.5 C 39.0257,137.919 41.359,138.086 43.5,138C 44.5914,140.064 44.7581,142.231 44,144.5C 43.5065,142.866 43.3398,141.199 43.5,139.5C 42.5,139.5 41.5,139.5 40.5,139.5C 40.4622,146.041 39.7955,146.041 38.5,139.5C 37.7022,141.078 37.2022,142.744 37,144.5C 36.5034,142.19 36.3367,139.857 36.5,137.5 Z"/></g>
<g><path style="opacity:1" fill="#6b6b6b" d="M 17.5,137.5 C 21.2253,137.78 22.392,139.78 21,143.5C 20.51,142.207 20.3433,140.873 20.5,139.5C 19.5,139.5 18.5,139.5 17.5,139.5C 16.5245,143.946 16.5245,143.279 17.5,137.5 Z"/></g>
<g><path style="opacity:1" fill="#5c5c5c" d="M 15.5,135.5 C 16.0431,135.56 16.3764,135.893 16.5,136.5C 14.6375,138.862 13.4709,141.529 13,144.5C 12.3333,142.833 12.3333,141.167 13,139.5C 14.0946,138.307 14.928,136.973 15.5,135.5 Z"/></g>
<g><path style="opacity:1" fill="#f4f4f4" d="M 192.5,143.5 C 192.5,142.167 192.5,140.833 192.5,139.5C 193.5,139.5 194.5,139.5 195.5,139.5C 195.912,141.973 194.912,143.306 192.5,143.5 Z"/></g>
<g><path style="opacity:1" fill="#515151" d="M 91.5,138.5 C 92.2389,138.369 92.9056,138.536 93.5,139C 92.1228,146.342 91.4561,146.176 91.5,138.5 Z"/></g>
<g><path style="opacity:1" fill="#aaaaaa" d="M 73.5,135.5 C 74.8589,136.007 75.8589,137.007 76.5,138.5C 77.7202,137.289 78.8869,137.289 80,138.5C 80.4955,140.473 80.6621,142.473 80.5,144.5C 78.326,144.08 76.326,144.08 74.5,144.5C 73.5159,141.572 73.1826,138.572 73.5,135.5 Z"/></g>
<g><path style="opacity:1" fill="#656565" d="M 64.5,138.5 C 65.9663,139.347 66.7996,140.68 67,142.5C 67.3333,141.5 67.6667,140.5 68,139.5C 68.6543,138.304 69.1543,138.304 69.5,139.5C 67.4393,147.225 65.7726,146.891 64.5,138.5 Z"/></g>
<g><path style="opacity:1" fill="#4e4e4e" d="M 58.5,138.5 C 60.3786,138.393 60.7119,138.893 59.5,140C 61.0846,140.085 62.4179,140.251 63.5,140.5C 61.7045,141.141 60.2045,142.141 59,143.5C 58.5065,141.866 58.3398,140.199 58.5,138.5 Z"/></g>
<g><path style="opacity:1" fill="#9b9b9b" d="M 49.5,143.5 C 49.5,142.167 49.5,140.833 49.5,139.5C 48.5,139.5 47.5,139.5 46.5,139.5C 47.8499,136.894 49.3499,136.894 51,139.5C 52.67,137.302 54.67,136.968 57,138.5C 57.8077,140.579 57.641,142.579 56.5,144.5C 55.1667,137.833 53.8333,137.833 52.5,144.5C 51.787,142.565 50.787,142.232 49.5,143.5 Z"/></g>
<g><path style="opacity:1" fill="#f3f3f3" d="M 46.5,139.5 C 47.5,139.5 48.5,139.5 49.5,139.5C 49.5,140.833 49.5,142.167 49.5,143.5C 47.0882,143.306 46.0882,141.973 46.5,139.5 Z"/></g>
<g><path style="opacity:1" fill="#b0b0b0" d="M 161.5,138.5 C 163.966,137.366 166.633,137.199 169.5,138C 170.451,138.718 170.617,139.551 170,140.5C 168.989,139.663 167.822,139.33 166.5,139.5C 166.281,143.527 167.448,144.194 170,141.5C 170.617,142.449 170.451,143.282 169.5,144C 167.866,144.494 166.199,144.66 164.5,144.5C 164.5,142.833 164.5,141.167 164.5,139.5C 163.791,138.596 162.791,138.263 161.5,138.5 Z"/></g>
<g><path style="opacity:1" fill="#a1a1a1" d="M 153.5,135.5 C 154.309,137.292 154.809,139.292 155,141.5C 155.271,137.87 156.938,136.87 160,138.5C 160.667,140.5 160.667,142.5 160,144.5C 157.842,144.395 155.675,144.395 153.5,144.5C 153.5,141.5 153.5,138.5 153.5,135.5 Z"/></g>
<g><path style="opacity:1" fill="#6c6c6c" d="M 153.5,135.5 C 153.5,138.5 153.5,141.5 153.5,144.5C 152.71,143.391 152.21,142.058 152,140.5C 151.027,144.989 149.693,145.322 148,141.5C 147.751,142.624 147.251,143.624 146.5,144.5C 145.167,141.5 145.167,138.5 146.5,135.5C 147.761,137.453 148.927,139.453 150,141.5C 150.424,138.975 151.59,136.975 153.5,135.5 Z"/></g>
<g><path style="opacity:1" fill="#909090" d="M 129.5,137.5 C 132.488,137.155 133.821,138.488 133.5,141.5C 133.333,142.5 133.167,143.5 133,144.5C 131.701,144.034 130.201,144.034 128.5,144.5C 128.298,142.05 128.631,139.717 129.5,137.5 Z"/></g>
<g><path style="opacity:1" fill="#9a9a9a" d="M 103.5,135.5 C 108.584,136.671 110.25,139.671 108.5,144.5C 106.907,137.951 105.907,137.951 105.5,144.5C 104.167,144.5 102.833,144.5 101.5,144.5C 101.62,142.266 101.287,140.099 100.5,138C 101.01,136.174 101.844,136.007 103,137.5C 103.464,136.906 103.631,136.239 103.5,135.5 Z"/></g>
<g><path style="opacity:1" fill="#c1a2de" d="M 12.5,108.5 C 16.1244,109.583 19.7911,109.583 23.5,108.5C 25.6934,108.326 27.5267,108.993 29,110.5C 31.124,109.773 33.2906,109.106 35.5,108.5C 36.5779,110.475 36.2446,112.308 34.5,114C 29.649,116.269 24.649,118.102 19.5,119.5C 19.5,118.167 19.5,116.833 19.5,115.5C 14.6633,115.759 12.33,113.426 12.5,108.5 Z"/></g>
<g><path style="opacity:1" fill="#fcebfe" d="M 23.5,110.5 C 26.9563,111.536 27.2896,113.203 24.5,115.5C 22.2957,114.218 21.9624,112.551 23.5,110.5 Z"/></g>
<g><path style="opacity:1" fill="#fbf1e6" d="M 31.5,60.5 C 31.5,61.1667 31.8333,61.5 32.5,61.5C 32.3433,62.8734 32.51,64.2068 33,65.5C 33.3333,65.1667 33.6667,64.8333 34,64.5C 49.9266,66.4761 66.0932,67.1427 82.5,66.5C 82.0825,67.2216 81.4158,67.7216 80.5,68C 71.9899,68.1706 63.6566,68.6706 55.5,69.5C 41.8037,69.2454 28.137,69.7454 14.5,71C 8.53164,80.1251 10.865,84.9584 21.5,85.5C 21.9175,86.2216 22.5842,86.7216 23.5,87C 34.8333,87.1667 46.1667,87.3333 57.5,87.5C 84.5272,86.3405 111.527,85.3405 138.5,84.5C 138.833,83.8333 139.167,83.1667 139.5,82.5C 147.5,82.5 155.5,82.5 163.5,82.5C 164.287,84.1042 165.62,84.7709 167.5,84.5C 172.64,85.4881 177.974,85.8214 183.5,85.5C 177.681,86.6525 171.681,86.8192 165.5,86C 164.167,85.3333 162.833,84.6667 161.5,84C 154.508,83.5004 147.508,83.3337 140.5,83.5C 140.5,84.5 140.5,85.5 140.5,86.5C 124.83,86.3334 109.163,86.5001 93.5,87C 92.6721,87.9147 91.6721,88.5814 90.5,89C 68.6516,89.2045 46.8183,89.7045 25,90.5C 19.1447,87.9175 13.3113,85.5842 7.5,83.5C 7.46091,81.6412 8.29424,80.3079 10,79.5C 10.5844,75.9049 11.4177,72.4049 12.5,69C 17.6789,68.9455 22.6789,68.2789 27.5,67C 22.7982,66.8283 18.1315,66.3283 13.5,65.5C 19.5,64.8333 25.5,64.1667 31.5,63.5C 31.3764,62.8933 31.0431,62.56 30.5,62.5C 30.3284,61.5084 30.6618,60.8417 31.5,60.5 Z"/></g>
<g><path style="opacity:1" fill="#e29a7c" d="M 138.5,84.5 C 111.527,85.3405 84.5272,86.3405 57.5,87.5C 46.1667,87.3333 34.8333,87.1667 23.5,87C 22.5842,86.7216 21.9175,86.2216 21.5,85.5C 26.1408,86.1266 30.8075,86.4599 35.5,86.5C 53.008,86.83 70.3414,86.4967 87.5,85.5C 104.465,84.5424 121.465,84.2091 138.5,84.5 Z"/></g>
<g><path style="opacity:1" fill="#d85d2c" d="M 125.5,82.5 C 112.634,82.84 99.9671,83.84 87.5,85.5C 70.3414,86.4967 53.008,86.83 35.5,86.5C 36.5903,85.1429 37.9236,84.1429 39.5,83.5C 68.1356,83.0807 96.8022,82.7474 125.5,82.5 Z"/></g>
<g><path style="opacity:1" fill="#dc7450" d="M 125.5,82.5 C 130.167,82.5 134.833,82.5 139.5,82.5C 139.167,83.1667 138.833,83.8333 138.5,84.5C 121.465,84.2091 104.465,84.5424 87.5,85.5C 99.9671,83.84 112.634,82.84 125.5,82.5 Z"/></g>
<g><path style="opacity:1" fill="#d06a42" d="M 55.5,69.5 C 58.1667,69.5 60.8333,69.5 63.5,69.5C 47.6839,70.8257 31.6839,71.4924 15.5,71.5C 15.1796,74.8984 15.513,78.2317 16.5,81.5C 17.1835,81.8627 17.8501,82.1961 18.5,82.5C 19.0998,83.8999 20.0998,84.8999 21.5,85.5C 10.865,84.9584 8.53164,80.1251 14.5,71C 28.137,69.7454 41.8037,69.2454 55.5,69.5 Z"/></g>
<g><path style="opacity:1" fill="#b54d2e" d="M 177.5,69.5 C 187.3,69.0801 190.133,73.4134 186,82.5C 185.5,83 185,83.5 184.5,84C 178.843,84.4994 173.176,84.6661 167.5,84.5C 165.62,84.7709 164.287,84.1042 163.5,82.5C 170.487,83.7933 177.487,83.7933 184.5,82.5C 185.796,75.9549 183.463,71.6216 177.5,69.5 Z"/></g>
<g><path style="opacity:1" fill="#c32004" d="M 83.5,68.5 C 97.1497,69.4142 110.816,70.0808 124.5,70.5C 133.544,70.1646 142.544,69.4979 151.5,68.5C 152.167,68.5 152.833,68.5 153.5,68.5C 157.021,69.1663 160.687,69.8329 164.5,70.5C 162.73,71.7075 161.73,73.3741 161.5,75.5C 162.156,77.4534 162.489,79.4534 162.5,81.5C 154.648,81.1746 146.982,81.508 139.5,82.5C 134.833,82.5 130.167,82.5 125.5,82.5C 96.8022,82.7474 68.1356,83.0807 39.5,83.5C 40.2354,80.9385 41.5687,78.7718 43.5,77C 42.9777,76.0497 42.311,75.2164 41.5,74.5C 34.5359,73.4259 27.5359,72.7592 20.5,72.5C 20.2474,76.0399 19.5808,79.3733 18.5,82.5C 17.8501,82.1961 17.1835,81.8627 16.5,81.5C 15.513,78.2317 15.1796,74.8984 15.5,71.5C 31.6839,71.4924 47.6839,70.8257 63.5,69.5C 70.3543,69.824 77.021,69.4907 83.5,68.5 Z"/></g>
<g><path style="opacity:1" fill="#b41002" d="M 39.5,83.5 C 37.9236,84.1429 36.5903,85.1429 35.5,86.5C 30.8075,86.4599 26.1408,86.1266 21.5,85.5C 20.0998,84.8999 19.0998,83.8999 18.5,82.5C 19.5808,79.3733 20.2474,76.0399 20.5,72.5C 27.5359,72.7592 34.5359,73.4259 41.5,74.5C 42.311,75.2164 42.9777,76.0497 43.5,77C 41.5687,78.7718 40.2354,80.9385 39.5,83.5 Z"/></g>
<g><path style="opacity:1" fill="#b6220c" d="M 153.5,68.5 C 161.525,68.3903 169.525,68.7237 177.5,69.5C 183.463,71.6216 185.796,75.9549 184.5,82.5C 177.487,83.7933 170.487,83.7933 163.5,82.5C 155.5,82.5 147.5,82.5 139.5,82.5C 146.982,81.508 154.648,81.1746 162.5,81.5C 162.489,79.4534 162.156,77.4534 161.5,75.5C 161.73,73.3741 162.73,71.7075 164.5,70.5C 160.687,69.8329 157.021,69.1663 153.5,68.5 Z"/></g>
<g><path style="opacity:1" fill="#c74f2c" d="M 99.5,67.5 C 111.467,69.4988 123.467,69.8321 135.5,68.5C 140.813,67.9022 146.146,67.5688 151.5,67.5C 151.5,67.8333 151.5,68.1667 151.5,68.5C 142.544,69.4979 133.544,70.1646 124.5,70.5C 110.816,70.0808 97.1497,69.4142 83.5,68.5C 83.9623,67.1201 84.9623,66.4534 86.5,66.5C 90.7873,67.3745 95.1206,67.7079 99.5,67.5 Z"/></g>
<g><path style="opacity:1" fill="#f3cebc" d="M 175.5,67.5 C 179.466,68.1621 183.466,68.4955 187.5,68.5C 188.496,73.4626 188.663,78.4626 188,83.5C 186.67,84.5822 185.17,85.2488 183.5,85.5C 177.974,85.8214 172.64,85.4881 167.5,84.5C 173.176,84.6661 178.843,84.4994 184.5,84C 185,83.5 185.5,83 186,82.5C 190.133,73.4134 187.3,69.0801 177.5,69.5C 176.833,68.8333 176.167,68.1667 175.5,67.5 Z"/></g>
<g><path style="opacity:1" fill="#de9172" d="M 99.5,67.5 C 111.505,67.7002 123.505,68.0336 135.5,68.5C 123.467,69.8321 111.467,69.4988 99.5,67.5 Z"/></g>
<g><path style="opacity:1" fill="#d06c54" d="M 151.5,68.5 C 151.5,68.1667 151.5,67.8333 151.5,67.5C 156.833,67.5 162.167,67.5 167.5,67.5C 170.167,67.5 172.833,67.5 175.5,67.5C 176.167,68.1667 176.833,68.8333 177.5,69.5C 169.525,68.7237 161.525,68.3903 153.5,68.5C 152.833,68.5 152.167,68.5 151.5,68.5 Z"/></g>
<g><path style="opacity:1" fill="#f5d8c7" d="M 112.5,66.5 C 131.008,66.1698 149.341,66.5032 167.5,67.5C 162.167,67.5 156.833,67.5 151.5,67.5C 146.146,67.5688 140.813,67.9022 135.5,68.5C 123.505,68.0336 111.505,67.7002 99.5,67.5C 95.1206,67.7079 90.7873,67.3745 86.5,66.5C 84.9623,66.4534 83.9623,67.1201 83.5,68.5C 77.021,69.4907 70.3543,69.824 63.5,69.5C 60.8333,69.5 58.1667,69.5 55.5,69.5C 63.6566,68.6706 71.9899,68.1706 80.5,68C 81.4158,67.7216 82.0825,67.2216 82.5,66.5C 92.4296,65.6579 102.43,65.6579 112.5,66.5 Z"/></g>
<g><path style="opacity:1" fill="#d1d0ce" d="M 42.5,56.5 C 43.1667,56.5 43.8333,56.5 44.5,56.5C 43.7896,59.8852 44.9563,62.2186 48,63.5C 50.9088,62.5715 52.0755,60.5715 51.5,57.5C 52.1667,57.1667 52.8333,56.8333 53.5,56.5C 53.1658,59.188 53.8325,61.5214 55.5,63.5C 72.162,63.9225 91.162,64.9225 112.5,66.5C 102.43,65.6579 92.4296,65.6579 82.5,66.5C 66.0932,67.1427 49.9266,66.4761 34,64.5C 33.6667,64.8333 33.3333,65.1667 33,65.5C 32.51,64.2068 32.3433,62.8734 32.5,61.5C 33.5,61.5 34.5,61.5 35.5,61.5C 41.2405,65.1151 43.5739,63.4485 42.5,56.5 Z"/></g>
<g><path style="opacity:1" fill="#2d2d2d" d="M 75.5,53.5 C 80.9885,53.504 82.8219,56.1707 81,61.5C 78.1598,64.3707 75.8265,64.0374 74,60.5C 73.3911,57.9348 73.8911,55.6015 75.5,53.5 Z"/></g>
<g><path style="opacity:1" fill="#3c3c3c" d="M 61.5,61.5 C 63.337,61.6395 63.6704,62.3061 62.5,63.5C 61.7025,63.0431 61.3691,62.3764 61.5,61.5 Z"/></g>
<g><path style="opacity:1" fill="#161616" d="M 175.5,54.5 C 176.922,54.7496 177.922,55.583 178.5,57C 177.813,59.2317 177.479,61.3984 177.5,63.5C 175.95,61.6672 174.95,59.5006 174.5,57C 175.252,56.3292 175.586,55.4959 175.5,54.5 Z"/></g>
<g><path style="opacity:1" fill="#747474" d="M 130.5,57.5 C 131.26,59.2238 131.593,60.8905 131.5,62.5C 132.452,60.9547 132.785,59.288 132.5,57.5C 133.461,59.2646 133.795,61.2646 133.5,63.5C 132.167,63.5 130.833,63.5 129.5,63.5C 128.167,62.1667 128.167,60.8333 129.5,59.5C 129.833,58.8333 130.167,58.1667 130.5,57.5 Z"/></g>
<g><path style="opacity:1" fill="#292929" d="M 96.5,53.5 C 98.8273,53.2471 100.827,53.9137 102.5,55.5C 100.883,55.6694 99.216,56.0028 97.5,56.5C 102.048,56.8575 103.382,59.0242 101.5,63C 99.5594,63.7429 97.7261,63.5762 96,62.5C 95.3123,61.6683 95.479,61.0016 96.5,60.5C 101.837,61.1305 101.837,60.4638 96.5,58.5C 95.3336,56.8327 95.3336,55.166 96.5,53.5 Z"/></g>
<g><path style="opacity:1" fill="#282828" d="M 31.5,60.5 C 30.6618,60.8417 30.3284,61.5084 30.5,62.5C 24.8311,63.9404 22.6644,61.6071 24,55.5C 29.3623,52.3293 31.8623,53.996 31.5,60.5 Z"/></g>
<g><path style="opacity:1" fill="#202020" d="M 129.5,59.5 C 128.167,60.8333 128.167,62.1667 129.5,63.5C 125.5,62.1667 125.5,60.8333 129.5,59.5 Z"/></g>
<g><path style="opacity:1" fill="#1e1e1e" d="M 16.5,58.5 C 16.6317,55.2033 18.2984,53.5367 21.5,53.5C 21.8723,56.6169 21.8723,59.6169 21.5,62.5C 21.1667,62.8333 20.8333,63.1667 20.5,63.5C 18.6887,62.1735 16.6887,61.1735 14.5,60.5C 14.8555,59.4777 15.5222,58.811 16.5,58.5 Z"/></g>
<g><path style="opacity:1" fill="#1e1e1e" d="M 180.5,56.5 C 186.158,55.6794 187.825,57.846 185.5,63C 180.279,63.6099 178.612,61.4432 180.5,56.5 Z"/></g>
<g><path style="opacity:1" fill="#6e6e6e" d="M 157.5,58.5 C 158.043,58.56 158.376,58.8933 158.5,59.5C 156.955,60.4519 155.288,60.7852 153.5,60.5C 153.5,59.5 153.5,58.5 153.5,57.5C 155.124,57.3601 156.29,58.0267 157,59.5C 157.399,59.2716 157.565,58.9382 157.5,58.5 Z"/></g>
<g><path style="opacity:1" fill="#9a9a9a" d="M 16.5,58.5 C 17.7899,57.9423 18.6232,56.9423 19,55.5C 19.4935,57.1341 19.6602,58.8008 19.5,60.5C 17.8212,60.7148 16.8212,60.0481 16.5,58.5 Z"/></g>
<g><path style="opacity:1" fill="#e4e4e4" d="M 182.5,57.5 C 184.176,58.1834 184.843,59.5168 184.5,61.5C 183.5,61.5 182.5,61.5 181.5,61.5C 181.433,60.0413 181.766,58.7079 182.5,57.5 Z"/></g>
<g><path style="opacity:1" fill="#212121" d="M 104.5,53.5 C 108.733,52.7421 111.399,54.4088 112.5,58.5C 111.399,62.5912 108.733,64.2579 104.5,63.5C 104.5,60.1667 104.5,56.8333 104.5,53.5 Z"/></g>
<g><path style="opacity:1" fill="#1b1b1b" d="M 85.5,53.5 C 87.369,55.6353 88.0356,58.3019 87.5,61.5C 88.8333,61.5 90.1667,61.5 91.5,61.5C 91.1866,58.7531 91.52,56.0865 92.5,53.5C 93.6517,56.1062 93.8184,58.7728 93,61.5C 90.6667,64.1667 88.3333,64.1667 86,61.5C 85.5026,58.854 85.3359,56.1873 85.5,53.5 Z"/></g>
<g><path style="opacity:1" fill="#282828" d="M 159.5,56.5 C 161.5,56.5 163.5,56.5 165.5,56.5C 165.37,64.9653 164.37,65.2986 162.5,57.5C 160.63,65.2986 159.63,64.9653 159.5,56.5 Z"/></g>
<g><path style="opacity:1" fill="#1d1d1d" d="M 157.5,58.5 C 157.565,58.9382 157.399,59.2716 157,59.5C 156.29,58.0267 155.124,57.3601 153.5,57.5C 153.5,58.5 153.5,59.5 153.5,60.5C 154.609,61.29 155.942,61.79 157.5,62C 154.361,64.2275 152.361,63.3942 151.5,59.5C 151.574,57.2606 152.741,56.2606 155,56.5C 156.376,56.6842 157.209,57.3509 157.5,58.5 Z"/></g>
<g><path style="opacity:1" fill="#0f0f0f" d="M 132.5,57.5 C 132.785,59.288 132.452,60.9547 131.5,62.5C 131.593,60.8905 131.26,59.2238 130.5,57.5C 127.055,57.0429 127.722,57.0429 132.5,57.5 Z"/></g>
<g><path style="opacity:1" fill="#272727" d="M 116.5,56.5 C 118.045,57.2297 118.878,58.563 119,60.5C 119.49,59.2068 119.657,57.8734 119.5,56.5C 120.5,56.5 121.5,56.5 122.5,56.5C 122.66,60.2364 123.493,60.2364 125,56.5C 125.615,59.0451 125.115,61.3785 123.5,63.5C 121.931,62.286 121.098,60.6193 121,58.5C 120.902,60.6193 120.069,62.286 118.5,63.5C 117.056,61.3921 116.39,59.0588 116.5,56.5 Z"/></g>
<g><path style="opacity:1" fill="#232323" d="M 144.5,56.5 C 146.199,56.3398 147.866,56.5065 149.5,57C 145.82,58.2247 146.153,59.058 150.5,59.5C 149.994,63.634 147.994,64.4674 144.5,62C 149.498,61.5724 149.665,60.7391 145,59.5C 144.517,58.552 144.351,57.552 144.5,56.5 Z"/></g>
<g><path style="opacity:1" fill="#222222" d="M 134.5,56.5 C 136.199,56.3398 137.866,56.5065 139.5,57C 135.82,58.2247 136.153,59.058 140.5,59.5C 139.994,63.634 137.994,64.4674 134.5,62C 139.498,61.5724 139.665,60.7391 135,59.5C 134.517,58.552 134.351,57.552 134.5,56.5 Z"/></g>
<g><path style="opacity:1" fill="#d7d7d7" d="M 105.5,55.5 C 110.159,55.0146 111.492,56.848 109.5,61C 108.207,61.49 106.873,61.6567 105.5,61.5C 105.5,59.5 105.5,57.5 105.5,55.5 Z"/></g>
<g><path style="opacity:1" fill="#191919" d="M 55.5,63.5 C 53.8325,61.5214 53.1658,59.188 53.5,56.5C 55.2224,53.09 57.3891,52.7566 60,55.5C 61.6514,60.1592 60.1514,62.8258 55.5,63.5 Z"/></g>
<g><path style="opacity:1" fill="#f1f1f1" d="M 55.5,55.5 C 56.5,55.5 57.5,55.5 58.5,55.5C 58.5,57.5 58.5,59.5 58.5,61.5C 57.5,61.5 56.5,61.5 55.5,61.5C 55.5,59.5 55.5,57.5 55.5,55.5 Z"/></g>
<g><path style="opacity:1" fill="#1b1b1b" d="M 51.5,57.5 C 52.0755,60.5715 50.9088,62.5715 48,63.5C 44.9563,62.2186 43.7896,59.8852 44.5,56.5C 47.4256,52.361 49.7589,52.6943 51.5,57.5 Z"/></g>
<g><path style="opacity:1" fill="#202020" d="M 42.5,56.5 C 43.5739,63.4485 41.2405,65.1151 35.5,61.5C 35.0548,58.6354 35.7215,56.1354 37.5,54C 39.9278,53.253 41.5944,54.0863 42.5,56.5 Z"/></g>
<g><path style="opacity:1" fill="#efefef" d="M 37.5,55.5 C 38.5,55.5 39.5,55.5 40.5,55.5C 40.5,57.5 40.5,59.5 40.5,61.5C 39.5,61.5 38.5,61.5 37.5,61.5C 37.5,59.5 37.5,57.5 37.5,55.5 Z"/></g>
<g><path style="opacity:1" fill="#e5e5e5" d="M 26.5,55.5 C 28.4841,55.484 29.4841,56.484 29.5,58.5C 28.1667,62.5 26.8333,62.5 25.5,58.5C 25.685,57.4163 26.0183,56.4163 26.5,55.5 Z"/></g>
<g><path style="opacity:1" fill="#181818" d="M 167.5,54.5 C 168.922,54.7496 169.922,55.583 170.5,57C 169.813,59.2317 169.479,61.3984 169.5,63.5C 167.95,61.6672 166.95,59.5006 166.5,57C 167.252,56.3292 167.586,55.4959 167.5,54.5 Z"/></g>
<g><path style="opacity:1" fill="#e4e4e4" d="M 76.5,55.5 C 78.4841,55.484 79.4841,56.484 79.5,58.5C 78.1667,62.5 76.8333,62.5 75.5,58.5C 75.685,57.4163 76.0183,56.4163 76.5,55.5 Z"/></g>
<g><path style="opacity:1" fill="#282828" d="M 66.5,53.5 C 72.7863,54.3146 74.1196,57.4812 70.5,63C 67.7825,64.033 65.9492,63.1997 65,60.5C 64.3911,57.9348 64.8911,55.6015 66.5,53.5 Z"/></g>
<g><path style="opacity:1" fill="#e7e7e7" d="M 67.5,55.5 C 69.4841,55.484 70.4841,56.484 70.5,58.5C 69.1667,62.5 67.8333,62.5 66.5,58.5C 66.685,57.4163 67.0183,56.4163 67.5,55.5 Z"/></g>
<g><path style="opacity:1" fill="#f1f1f1" d="M 46.5,55.5 C 47.5,55.5 48.5,55.5 49.5,55.5C 49.5,57.5 49.5,59.5 49.5,61.5C 48.5,61.5 47.5,61.5 46.5,61.5C 46.5,59.5 46.5,57.5 46.5,55.5 Z"/></g>
<g><path style="opacity:1" fill="#cf967b" d="M 89.5,33.5 C 90.9228,35.5449 92.9228,36.5449 95.5,36.5C 95.5,36.8333 95.5,37.1667 95.5,37.5C 91.7593,38.4015 89.7593,37.0681 89.5,33.5 Z"/></g>
<g><path style="opacity:1" fill="#e2a990" d="M 108.5,24.5 C 111.026,24.9191 113.359,25.0858 115.5,25C 114.677,28.4991 113.844,32.3325 113,36.5C 112.5,37 112,37.5 111.5,38C 106.316,38.8163 101.316,38.6497 96.5,37.5C 100.846,37.6657 105.179,37.499 109.5,37C 111.29,33.4172 111.957,29.5839 111.5,25.5C 110.209,25.7373 109.209,25.404 108.5,24.5 Z"/></g>
<g><path style="opacity:1" fill="#bf2409" d="M 104.5,24.5 C 109.109,26.7245 110.609,30.3912 109,35.5C 104.599,36.4667 100.099,36.8 95.5,36.5C 92.9228,36.5449 90.9228,35.5449 89.5,33.5C 88.8953,31.9743 87.7286,30.9743 86,30.5C 85.3923,28.8455 84.8923,27.1789 84.5,25.5C 86.1667,25.5 87.8333,25.5 89.5,25.5C 94.4376,24.6076 99.4376,24.2743 104.5,24.5 Z"/></g>
<g><path style="opacity:1" fill="#e3c0ad" d="M 84.5,25.5 C 84.8923,27.1789 85.3923,28.8455 86,30.5C 87.7286,30.9743 88.8953,31.9743 89.5,33.5C 86.3908,33.3447 83.3908,32.6781 80.5,31.5C 81.2231,29.8361 80.8897,28.1694 79.5,26.5C 81.0453,25.5481 82.712,25.2148 84.5,25.5 Z"/></g>
<g><path style="opacity:1" fill="#ca6036" d="M 104.5,24.5 C 105.833,24.5 107.167,24.5 108.5,24.5C 109.209,25.404 110.209,25.7373 111.5,25.5C 111.957,29.5839 111.29,33.4172 109.5,37C 105.179,37.499 100.846,37.6657 96.5,37.5C 96.1667,37.5 95.8333,37.5 95.5,37.5C 95.5,37.1667 95.5,36.8333 95.5,36.5C 100.099,36.8 104.599,36.4667 109,35.5C 110.609,30.3912 109.109,26.7245 104.5,24.5 Z"/></g>
<g><path style="opacity:1" fill="#b5b5b5" d="M 57.5,26.5 C 59.8333,26.5 62.1667,26.5 64.5,26.5C 64.6534,32.3239 63.9867,32.6572 62.5,27.5C 61.7189,28.7287 61.2189,30.062 61,31.5C 60,26.1667 59,26.1667 58,31.5C 57.5065,29.8659 57.3398,28.1992 57.5,26.5 Z"/></g>
<g><path style="opacity:1" fill="#5e5f5e" d="M 45.5,23.5 C 47.4309,25.7942 48.2643,28.4609 48,31.5C 47.2904,30.0267 46.1238,29.3601 44.5,29.5C 44.8333,27.5 45.1667,25.5 45.5,23.5 Z"/></g>
<g><path style="opacity:1" fill="#9495a1" d="M 35.5,15.5 C 38.4938,23.339 36.1605,28.839 28.5,32C 19.3004,32.9691 14.6338,28.8024 14.5,19.5C 15.675,19.719 16.675,19.3857 17.5,18.5C 16.2889,17.2798 16.2889,16.1131 17.5,15C 19.3867,15.4229 21.3867,15.2563 23.5,14.5C 23.335,17.8499 23.5017,21.1832 24,24.5C 24.9906,23.0611 26.324,22.0611 28,21.5C 28.7112,19.6332 28.2112,18.1332 26.5,17C 29.1012,14.2855 32.1012,13.7855 35.5,15.5 Z"/></g>
<g><path style="opacity:1" fill="#c75d3f" d="M 104.5,24.5 C 99.4376,24.2743 94.4376,24.6076 89.5,25.5C 94.2044,22.0876 99.2044,21.7542 104.5,24.5 Z"/></g>
<g><path style="opacity:1" fill="#525252" d="M 65.5,13.5 C 70.1032,14.018 70.4366,15.3513 66.5,17.5C 67.2624,17.9106 68.2624,18.0773 69.5,18C 64.7576,20.0644 63.4243,18.5644 65.5,13.5 Z"/></g>
<g><path style="opacity:1" fill="#606060" d="M 53.5,13.5 C 57.2253,13.7796 58.392,15.7796 57,19.5C 55.7318,19.3842 54.3985,19.0509 53,18.5C 53.3088,16.749 53.4754,15.0823 53.5,13.5 Z"/></g>
<g><path style="opacity:1" fill="#c8c8c8" d="M 204.5,12.5 C 208.473,13.0755 209.473,15.2421 207.5,19C 205.681,19.7828 204.348,19.2828 203.5,17.5C 204.309,15.9291 204.643,14.2624 204.5,12.5 Z"/></g>
<g><path style="opacity:1" fill="#353535" d="M 58.5,13.5 C 62.554,13.2105 63.054,13.8771 60,15.5C 59.6667,16.5 59.3333,17.5 59,18.5C 58.5065,16.8659 58.3398,15.1992 58.5,13.5 Z"/></g>
<g><path style="opacity:1" fill="#5c5d5c" d="M 43.5,11.5 C 45.4672,11.2606 47.3005,11.5939 49,12.5C 49.8469,15.4904 48.6802,16.8238 45.5,16.5C 45.719,17.675 45.3857,18.675 44.5,19.5C 43.52,16.9135 43.1866,14.2469 43.5,11.5 Z"/></g>
<g><path style="opacity:1" fill="#f5f7f6" d="M 45.5,13.5 C 47.337,13.6395 47.6704,14.3061 46.5,15.5C 45.7025,15.0431 45.3691,14.3764 45.5,13.5 Z"/></g>
<g><path style="opacity:1" fill="#aaaeb6" d="M 35.5,15.5 C 32.1012,13.7855 29.1012,14.2855 26.5,17C 28.2112,18.1332 28.7112,19.6332 28,21.5C 26.324,22.0611 24.9906,23.0611 24,24.5C 23.5017,21.1832 23.335,17.8499 23.5,14.5C 21.3867,15.2563 19.3867,15.4229 17.5,15C 16.2889,16.1131 16.2889,17.2798 17.5,18.5C 16.675,19.3857 15.675,19.719 14.5,19.5C 14.7241,15.4384 16.7241,12.605 20.5,11C 23.8333,10.3333 27.1667,10.3333 30.5,11C 32.6605,11.9959 34.3272,13.4959 35.5,15.5 Z"/></g>
<g><path style="opacity:1" fill="#949494" d="M 33.5,172.5 C 34.9464,171.387 36.6131,171.22 38.5,172C 37.0361,173.864 36.0361,176.031 35.5,178.5C 34.8313,176.369 34.1646,174.369 33.5,172.5 Z"/></g>
<g><path style="opacity:1" fill="#888888" d="M 128.5,171.5 C 129.468,173.607 129.802,175.941 129.5,178.5C 128.167,178.5 126.833,178.5 125.5,178.5C 125.5,176.833 125.5,175.167 125.5,173.5C 127.179,173.715 128.179,173.048 128.5,171.5 Z"/></g>
<g><path style="opacity:1" fill="#818181" d="M 152.5,172.5 C 153.234,173.878 153.901,175.378 154.5,177C 152.973,178.61 151.64,178.277 150.5,176C 150.978,174.697 151.645,173.531 152.5,172.5 Z"/></g>
<g><path style="opacity:1" fill="#676767" d="M 47.5,174.5 C 48.4687,173.691 49.3021,172.691 50,171.5C 50.4966,173.81 50.6633,176.143 50.5,178.5C 49.1667,178.5 47.8333,178.5 46.5,178.5C 46.2322,176.901 46.5655,175.568 47.5,174.5 Z"/></g>
<g><path style="opacity:1" fill="#9c9c9c" d="M 62.5,171.5 C 64.1992,171.34 65.8659,171.506 67.5,172C 65.9559,172.29 64.6226,172.956 63.5,174C 65.235,174.651 66.9017,174.485 68.5,173.5C 69.776,178.682 70.4427,178.682 70.5,173.5C 72.7925,173.244 74.9592,173.577 77,174.5C 76.9808,179.834 76.3141,179.834 75,174.5C 74.51,175.793 74.3433,177.127 74.5,178.5C 72.4727,178.662 70.4727,178.495 68.5,178C 67.3826,176.108 65.7159,175.275 63.5,175.5C 63.6495,176.552 63.4828,177.552 63,178.5C 62.5034,176.19 62.3367,173.857 62.5,171.5 Z"/></g>
<g><path style="opacity:1" fill="#979797" d="M 143.5,177.5 C 142.883,177.389 142.383,177.056 142,176.5C 140.951,178.107 139.451,178.773 137.5,178.5C 137.09,173.697 138.59,172.697 142,175.5C 142.333,174.833 142.667,174.167 143,173.5C 143.49,174.793 143.657,176.127 143.5,177.5 Z"/></g>
<g><path style="opacity:1" fill="#797979" d="M 156.5,171.5 C 157.496,171.414 158.329,171.748 159,172.5C 159.495,174.473 159.662,176.473 159.5,178.5C 158.167,178.5 156.833,178.5 155.5,178.5C 155.298,176.05 155.631,173.717 156.5,171.5 Z"/></g>
<g><path style="opacity:1" fill="#fbfbfb" d="M 156.5,173.5 C 157.586,173.62 158.253,174.287 158.5,175.5C 158.167,176.167 157.833,176.833 157.5,177.5C 156.571,176.311 156.238,174.978 156.5,173.5 Z"/></g>
<g><path style="opacity:1" fill="#868686" d="M 38.5,173.5 C 40.5273,173.338 42.5273,173.505 44.5,174C 45.3802,175.356 45.7135,176.856 45.5,178.5C 44.1667,178.5 42.8333,178.5 41.5,178.5C 40.9675,173.203 40.1342,173.203 39,178.5C 38.5065,176.866 38.3398,175.199 38.5,173.5 Z"/></g>
<g><path style="opacity:1" fill="#f8f8f8" d="M 47.5,174.5 C 49.4646,174.948 49.7979,175.948 48.5,177.5C 47.6143,176.675 47.281,175.675 47.5,174.5 Z"/></g>
<g><path style="opacity:1" fill="#6a6a6a" d="M 85.5,173.5 C 86.8333,173.5 88.1667,173.5 89.5,173.5C 89.6534,179.324 88.9867,179.657 87.5,174.5C 86.0133,179.657 85.3466,179.324 85.5,173.5 Z"/></g>
<g><path style="opacity:1" fill="#a0a0a0" d="M 100.5,173.5 C 103.089,174.127 105.589,174.127 108,173.5C 111.312,175.121 111.312,175.455 108,174.5C 107.342,176.108 107.842,177.275 109.5,178C 107.687,177.954 106.021,178.12 104.5,178.5C 103.719,177.271 103.219,175.938 103,174.5C 101.542,179.594 100.709,179.261 100.5,173.5 Z"/></g>
<g><path style="opacity:1" fill="#868686" d="M 171.5,177.5 C 169.735,177.815 168.069,177.815 166.5,177.5C 164.316,178.983 162.983,178.316 162.5,175.5C 163.355,171.476 165.188,170.809 168,173.5C 168.837,171.993 170.004,171.493 171.5,172C 172.807,173.943 172.807,175.777 171.5,177.5 Z"/></g>
<g><path style="opacity:1" fill="#fafafa" d="M 171.5,177.5 C 170.414,177.38 169.747,176.713 169.5,175.5C 169.833,174.833 170.167,174.167 170.5,173.5C 171.429,174.689 171.762,176.022 171.5,177.5 Z"/></g>
<g><path style="opacity:1" fill="#f6f6f6" d="M 166.5,177.5 C 165.414,177.38 164.747,176.713 164.5,175.5C 164.833,174.833 165.167,174.167 165.5,173.5C 166.429,174.689 166.762,176.022 166.5,177.5 Z"/></g>
<g><path style="opacity:1" fill="#7a7a7a" d="M 176.5,177.5 C 175.791,178.404 174.791,178.737 173.5,178.5C 173.338,176.473 173.505,174.473 174,172.5C 176.395,171.202 177.562,172.035 177.5,175C 177.472,176.07 177.139,176.903 176.5,177.5 Z"/></g>
<g><path style="opacity:1" fill="#fafafa" d="M 176.5,177.5 C 175.414,177.38 174.747,176.713 174.5,175.5C 174.833,174.833 175.167,174.167 175.5,173.5C 176.429,174.689 176.762,176.022 176.5,177.5 Z"/></g>
<g><path style="opacity:1" fill="#939393" d="M 25.5,174.5 C 25.1193,175.931 24.1193,176.764 22.5,177C 23.1667,177.333 23.8333,177.667 24.5,178C 23.1011,178.595 21.7678,178.428 20.5,177.5C 18.5658,177.901 17.0658,178.901 16,180.5C 14.7892,176.538 12.7892,175.871 10,178.5C 9.7543,176.075 10.5876,174.075 12.5,172.5C 13.5836,173.665 14.4169,174.998 15,176.5C 15.4828,175.552 15.6495,174.552 15.5,173.5C 18.8984,174.397 22.2317,174.73 25.5,174.5 Z"/></g>
<g><path style="opacity:1" fill="#7c7c7c" d="M 25.5,174.5 C 26.6246,173.986 27.7913,173.653 29,173.5C 28.3333,175.167 28.3333,176.833 29,178.5C 27.9916,178.018 26.825,177.852 25.5,178C 28.0704,176.651 28.0704,175.484 25.5,174.5 Z"/></g>
<g><path style="opacity:1" fill="#9b9b9b" d="M 52.5,173.5 C 54.1238,173.36 55.2904,174.027 56,175.5C 56.7253,173.842 57.892,173.342 59.5,174C 58.1068,175.171 57.2735,176.671 57,178.5C 56.15,177.576 55.15,177.576 54,178.5C 51.3894,177.5 50.8894,175.833 52.5,173.5 Z"/></g>
<g><path style="opacity:1" fill="#adadad" d="M 182.5,171.5 C 184.357,174.018 186.19,174.018 188,171.5C 190.186,172.967 190.852,174.967 190,177.5C 187.207,177.547 184.374,177.714 181.5,178C 180.144,175.586 180.478,173.419 182.5,171.5 Z"/></g>
<g><path style="opacity:1" fill="#9a9a9a" d="M 204.5,172.5 C 208.838,172.622 209.172,172.955 205.5,173.5C 205.5,174.833 205.5,176.167 205.5,177.5C 205.739,178.671 203.739,178.671 199.5,177.5C 200.145,176.268 200.311,174.935 200,173.5C 203.226,177.4 204.726,177.067 204.5,172.5 Z"/></g>
<g><path style="opacity:1" fill="#6c6c6c" d="M 81.5,171.5 C 82.4682,173.607 82.8016,175.941 82.5,178.5C 81.1667,178.5 79.8333,178.5 78.5,178.5C 78.5,176.833 78.5,175.167 78.5,173.5C 80.1788,173.715 81.1788,173.048 81.5,171.5 Z"/></g>
<g><path style="opacity:1" fill="#f5f5f5" d="M 79.5,174.5 C 81.4646,174.948 81.7979,175.948 80.5,177.5C 79.6143,176.675 79.281,175.675 79.5,174.5 Z"/></g>
<g><path style="opacity:1" fill="#9c9c9c" d="M 113.5,173.5 C 115.911,173.137 117.411,174.137 118,176.5C 118.483,175.552 118.649,174.552 118.5,173.5C 121.91,173.384 123.244,175.05 122.5,178.5C 119.552,178.223 116.719,178.556 114,179.5C 113.505,177.527 113.338,175.527 113.5,173.5 Z"/></g>
<g><path style="opacity:1" fill="#6f6f6f" d="M 143.5,177.5 C 145.045,176.77 145.878,175.437 146,173.5C 146.494,175.134 146.66,176.801 146.5,178.5C 145.209,178.737 144.209,178.404 143.5,177.5 Z"/></g>
<g><path style="opacity:1" fill="#8a8a8a" d="M 193.5,172.5 C 194.999,173.678 195.999,175.345 196.5,177.5C 197.97,171.041 198.637,171.374 198.5,178.5C 194.092,178.938 192.425,176.938 193.5,172.5 Z"/></g>
<g><path style="opacity:1" fill="#a2a2a2" d="M 91.5,173.5 C 92.5,173.5 93.5,173.5 94.5,173.5C 94.5,175.833 94.5,178.167 94.5,180.5C 93.1667,180.5 91.8333,180.5 90.5,180.5C 90.298,178.05 90.6314,175.717 91.5,173.5 Z"/></g>
<g><path style="opacity:1" fill="#909090" d="M 132.5,173.5 C 135.414,175.39 135.914,177.723 134,180.5C 133.56,178.134 133.06,175.801 132.5,173.5 Z"/></g>
<g><path style="opacity:1" fill="#998986" d="M 109.5,187.5 C 109.077,189.781 109.744,191.448 111.5,192.5C 111.5,192.833 111.5,193.167 111.5,193.5C 109.486,193.392 107.82,194.058 106.5,195.5C 105.993,194.141 104.993,193.141 103.5,192.5C 102.048,190.021 102.548,188.021 105,186.5C 106.261,186.759 107.261,187.426 108,188.5C 108.383,187.944 108.883,187.611 109.5,187.5 Z"/></g>
<g><path style="opacity:1" fill="#969696" d="M 20.5,186.5 C 21.7495,187.778 23.2495,188.778 25,189.5C 24.9808,194.834 24.3141,194.834 23,189.5C 22.51,190.793 22.3433,192.127 22.5,193.5C 21.1667,193.5 19.8333,193.5 18.5,193.5C 18.3379,191.473 18.5045,189.473 19,187.5C 20.1068,188.712 20.6068,188.379 20.5,186.5 Z"/></g>
<g><path style="opacity:1" fill="#f5f3f4" d="M 104.5,187.5 C 106.898,188.882 107.065,190.549 105,192.5C 104.506,190.866 104.34,189.199 104.5,187.5 Z"/></g>
<g><path style="opacity:1" fill="#959595" d="M 193.5,188.5 C 194.833,188.5 196.167,188.5 197.5,188.5C 197.5,190.167 197.5,191.833 197.5,193.5C 194.09,193.616 192.756,191.95 193.5,188.5 Z"/></g>
<g><path style="opacity:1" fill="#808080" d="M 9.5,188.5 C 10.2216,188.918 10.7216,189.584 11,190.5C 12,187.833 13,187.833 14,190.5C 14.3333,189.833 14.6667,189.167 15,188.5C 15.5205,190.289 15.1871,191.956 14,193.5C 13.3086,191.109 12.3086,191.109 11,193.5C 9.99136,191.975 9.49136,190.308 9.5,188.5 Z"/></g>
<g><path style="opacity:1" fill="#929292" d="M 28.5,186.5 C 30.1667,186.5 31.8333,186.5 33.5,186.5C 33.5,187.833 33.5,189.167 33.5,190.5C 32.1667,190.5 30.8333,190.5 29.5,190.5C 29.6495,191.552 29.4828,192.552 29,193.5C 28.5034,191.19 28.3367,188.857 28.5,186.5 Z"/></g>
<g><path style="opacity:1" fill="#949493" d="M 74.5,186.5 C 75.6935,186.97 76.3601,187.97 76.5,189.5C 76.1628,193.034 74.8295,193.367 72.5,190.5C 73.6302,189.378 74.2969,188.044 74.5,186.5 Z"/></g>
<g><path style="opacity:1" fill="#6b6b69" d="M 109.5,187.5 C 110.189,186.226 111.023,186.226 112,187.5C 112.78,189.387 112.613,191.054 111.5,192.5C 111.88,190.302 111.213,188.635 109.5,187.5 Z"/></g>
<g><path style="opacity:1" fill="#8b8b8b" d="M 115.5,187.5 C 116.999,188.678 117.999,190.345 118.5,192.5C 119.97,186.041 120.637,186.374 120.5,193.5C 116.515,193.56 114.848,191.56 115.5,187.5 Z"/></g>
<g><path style="opacity:1" fill="#9a9a9b" d="M 122.5,187.5 C 124.71,188.583 126.877,188.583 129,187.5C 132.008,188.182 132.842,189.849 131.5,192.5C 128.554,193.655 125.554,193.821 122.5,193C 123.5,192.667 124.5,192.333 125.5,192C 124.241,191.077 122.908,190.243 121.5,189.5C 121.863,188.817 122.196,188.15 122.5,187.5 Z"/></g>
<g><path style="opacity:1" fill="#faf9fa" d="M 128.5,188.5 C 129.586,188.62 130.253,189.287 130.5,190.5C 130.167,191.167 129.833,191.833 129.5,192.5C 128.571,191.311 128.238,189.978 128.5,188.5 Z"/></g>
<g><path style="opacity:1" fill="#a5a5a4" d="M 166.5,187.5 C 167.622,189.288 167.789,191.288 167,193.5C 165.293,192.862 163.46,192.862 161.5,193.5C 161.5,191.833 161.5,190.167 161.5,188.5C 163.415,188.784 165.081,188.451 166.5,187.5 Z"/></g>
<g><path style="opacity:1" fill="#afa19c" d="M 69.5,193.5 C 64.5,193.5 59.5,193.5 54.5,193.5C 54.5743,191.589 55.5743,190.422 57.5,190C 55.0684,188.913 55.4017,188.413 58.5,188.5C 58.8333,193.833 59.1667,193.833 59.5,188.5C 61.2624,188.357 62.9291,188.691 64.5,189.5C 65.8333,188.5 67.1667,187.5 68.5,186.5C 69.4742,188.743 69.8076,191.076 69.5,193.5 Z"/></g>
<g><path style="opacity:1" fill="#81807e" d="M 78.5,192.5 C 77.8614,191.903 77.528,191.07 77.5,190C 77.4384,187.035 78.6051,186.202 81,187.5C 81.4955,189.473 81.6621,191.473 81.5,193.5C 80.209,193.737 79.209,193.404 78.5,192.5 Z"/></g>
<g><path style="opacity:1" fill="#f7f7f6" d="M 78.5,192.5 C 78.238,191.022 78.5713,189.689 79.5,188.5C 79.8333,189.167 80.1667,189.833 80.5,190.5C 80.2528,191.713 79.5862,192.38 78.5,192.5 Z"/></g>
<g><path style="opacity:1" fill="#f8f2ef" d="M 109.5,187.5 C 111.213,188.635 111.88,190.302 111.5,192.5C 109.744,191.448 109.077,189.781 109.5,187.5 Z"/></g>
<g><path style="opacity:1" fill="#9f9f9f" d="M 206.5,189.5 C 208.119,188.928 209.785,188.595 211.5,188.5C 212.776,193.682 213.443,193.682 213.5,188.5C 215.199,188.34 216.866,188.506 218.5,189C 217.62,190.356 217.286,191.856 217.5,193.5C 213.717,193.076 210.05,192.91 206.5,193C 209.125,191.624 209.125,190.458 206.5,189.5 Z"/></g>
<g><path style="opacity:1" fill="#918a8c" d="M 179.5,189.5 C 179.5,190.833 179.5,192.167 179.5,193.5C 178.5,193.5 177.5,193.5 176.5,193.5C 175.047,193.071 173.381,192.904 171.5,193C 171.034,191.701 171.034,190.201 171.5,188.5C 174.598,188.413 174.932,188.913 172.5,190C 173.416,190.374 174.25,190.874 175,191.5C 175.835,188.731 177.335,188.065 179.5,189.5 Z"/></g>
<g><path style="opacity:1" fill="#9b9b9b" d="M 34.5,186.5 C 36.2821,187.72 38.2821,188.386 40.5,188.5C 40.8333,193.833 41.1667,193.833 41.5,188.5C 44.089,189.127 46.589,189.127 49,188.5C 51.5,189.333 52,190.833 50.5,193C 48.6874,192.954 47.0207,193.12 45.5,193.5C 43.9417,188.306 42.9417,188.306 42.5,193.5C 39.8333,193.5 37.1667,193.5 34.5,193.5C 34.5,191.167 34.5,188.833 34.5,186.5 Z"/></g>
<g><path style="opacity:1" fill="#90908e" d="M 93.5,187.5 C 94.2216,187.918 94.7216,188.584 95,189.5C 95.3333,188.833 95.6667,188.167 96,187.5C 97,194.167 98,194.167 99,187.5C 99.4955,189.473 99.6621,191.473 99.5,193.5C 96.8127,193.664 94.146,193.497 91.5,193C 93.1922,191.599 93.8588,189.766 93.5,187.5 Z"/></g>
<g><path style="opacity:1" fill="#a39e9c" d="M 150.5,192.5 C 148.5,192.833 146.5,193.167 144.5,193.5C 142.876,193.64 141.71,192.973 141,191.5C 140.692,192.308 140.192,192.975 139.5,193.5C 138.264,191.966 137.764,190.3 138,188.5C 139.309,190.891 140.309,190.891 141,188.5C 141.725,190.158 142.892,190.658 144.5,190C 143.833,189.667 143.167,189.333 142.5,189C 145.167,188.333 147.833,188.333 150.5,189C 149.833,189.333 149.167,189.667 148.5,190C 149.672,190.419 150.672,191.085 151.5,192C 151.272,192.399 150.938,192.565 150.5,192.5 Z"/></g>
<g><path style="opacity:1" fill="#777876" d="M 156.5,188.5 C 157.353,193.804 158.52,193.804 160,188.5C 160.494,190.134 160.66,191.801 160.5,193.5C 159.167,193.5 157.833,193.5 156.5,193.5C 156.5,191.833 156.5,190.167 156.5,188.5 Z"/></g>
<g><path style="opacity:1" fill="#949494" d="M 200.5,189.5 C 200.56,188.957 200.893,188.624 201.5,188.5C 202.251,189.376 202.751,190.376 203,191.5C 203.249,190.376 203.749,189.376 204.5,188.5C 204.857,190.923 204.023,193.257 202,195.5C 201.809,193.292 201.309,191.292 200.5,189.5 Z"/></g>
<g><path style="opacity:1" fill="#daa79e" d="M 86.5,195.5 C 81.5,195.5 76.5,195.5 71.5,195.5C 71.5,195.167 71.5,194.833 71.5,194.5C 75.7592,194.997 79.7592,194.331 83.5,192.5C 84.086,192.709 84.586,193.043 85,193.5C 85.3333,191.5 85.6667,189.5 86,187.5C 86.121,189.727 86.9544,191.56 88.5,193C 87.244,193.417 86.5774,194.25 86.5,195.5 Z"/></g>
<g><path style="opacity:1" fill="#ec7a66" d="M 181.5,209.5 C 181.167,210.5 180.5,211.167 179.5,211.5C 179.8,206.901 179.467,202.401 178.5,198C 170.507,197.5 162.507,197.334 154.5,197.5C 154.5,197.167 154.5,196.833 154.5,196.5C 164.553,196.808 174.553,196.475 184.5,195.5C 185.72,195.887 186.387,196.72 186.5,198C 185.955,201.187 185.289,204.354 184.5,207.5C 183.261,207.942 182.261,208.609 181.5,209.5 Z"/></g>
<g><path style="opacity:1" fill="#dd4433" d="M 71.5,195.5 C 76.5,195.5 81.5,195.5 86.5,195.5C 87.1667,195.5 87.5,195.833 87.5,196.5C 78.157,197.155 68.8237,197.988 59.5,199C 57.8068,199.847 56.1401,200.68 54.5,201.5C 54.5,199.5 54.5,197.5 54.5,195.5C 60.1667,195.5 65.8333,195.5 71.5,195.5 Z"/></g>
<g><path style="opacity:1" fill="#e0ada2" d="M 177.5,216.5 C 169.842,216.986 162.175,217.32 154.5,217.5C 155.209,216.596 156.209,216.263 157.5,216.5C 163.477,215.859 169.477,215.359 175.5,215C 177.324,214.34 178.657,213.173 179.5,211.5C 180.5,211.167 181.167,210.5 181.5,209.5C 184.33,209.306 186.996,208.639 189.5,207.5C 189.203,203.233 189.536,199.066 190.5,195C 185.845,194.501 181.179,194.334 176.5,194.5C 176.5,194.167 176.5,193.833 176.5,193.5C 177.5,193.5 178.5,193.5 179.5,193.5C 179.5,192.167 179.5,190.833 179.5,189.5C 181.339,188.248 183.172,188.248 185,189.5C 185.308,188.692 185.808,188.025 186.5,187.5C 187.429,188.689 187.762,190.022 187.5,191.5C 188.5,191.5 189.5,191.5 190.5,191.5C 190.312,189.897 190.812,188.563 192,187.5C 192.797,194.55 192.63,201.55 191.5,208.5C 185.604,209.129 180.937,211.796 177.5,216.5 Z"/></g>
<g><path style="opacity:1" fill="#e24430" d="M 154.5,197.5 C 162.507,197.334 170.507,197.5 178.5,198C 179.467,202.401 179.8,206.901 179.5,211.5C 173.677,213.313 167.677,214.313 161.5,214.5C 162.752,211.471 164.585,208.805 167,206.5C 167.333,207.5 167.667,208.5 168,209.5C 168.667,206.833 168.667,204.167 168,201.5C 167.581,205.852 166.914,206.185 166,202.5C 164.933,201.809 163.766,201.309 162.5,201C 162.833,200.667 163.167,200.333 163.5,200C 160.421,199.027 157.421,198.194 154.5,197.5 Z"/></g>
<g><path style="opacity:1" fill="#e78a7b" d="M 176.5,194.5 C 181.179,194.334 185.845,194.501 190.5,195C 189.536,199.066 189.203,203.233 189.5,207.5C 186.996,208.639 184.33,209.306 181.5,209.5C 182.261,208.609 183.261,207.942 184.5,207.5C 185.289,204.354 185.955,201.187 186.5,198C 186.387,196.72 185.72,195.887 184.5,195.5C 174.553,196.475 164.553,196.808 154.5,196.5C 147.588,195.538 140.588,195.205 133.5,195.5C 137.167,194.833 140.833,194.167 144.5,193.5C 146.5,193.167 148.5,192.833 150.5,192.5C 151.568,193.434 152.901,193.768 154.5,193.5C 154.34,191.801 154.506,190.134 155,188.5C 155.497,190.81 155.663,193.143 155.5,195.5C 162.543,195.72 169.543,195.386 176.5,194.5 Z"/></g>
<g><path style="opacity:1" fill="#b1a5a4" d="M 49.5,204.5 C 49.4326,205.959 49.7659,207.292 50.5,208.5C 48.5,208.5 46.5,208.5 44.5,208.5C 43.6099,203.021 45.2766,201.688 49.5,204.5 Z"/></g>
<g><path style="opacity:1" fill="#d77b6c" d="M 54.5,193.5 C 59.5,193.5 64.5,193.5 69.5,193.5C 70.4916,193.328 71.1583,193.662 71.5,194.5C 71.5,194.833 71.5,195.167 71.5,195.5C 65.8333,195.5 60.1667,195.5 54.5,195.5C 54.5,197.5 54.5,199.5 54.5,201.5C 52.9261,203.102 52.2594,205.102 52.5,207.5C 52.5,208.167 52.5,208.833 52.5,209.5C 51.8333,209.167 51.1667,208.833 50.5,208.5C 49.7659,207.292 49.4326,205.959 49.5,204.5C 49.8212,202.952 50.8212,202.285 52.5,202.5C 52.8583,199.311 53.525,196.311 54.5,193.5 Z"/></g>
<g><path style="opacity:1" fill="#a3a3a3" d="M 32.5,202.5 C 37.1225,201.408 38.9558,203.075 38,207.5C 36.5057,203.696 35.6724,204.029 35.5,208.5C 33.5,208.5 31.5,208.5 29.5,208.5C 29.4924,202.792 29.9924,202.459 31,207.5C 32.2692,206.095 32.7692,204.429 32.5,202.5 Z"/></g>
<g><path style="opacity:1" fill="#afafaf" d="M 10.5,202.5 C 12.5184,203.623 14.5184,203.623 16.5,202.5C 17.4776,202.977 18.3109,203.643 19,204.5C 20.6667,201.833 22.3333,201.833 24,204.5C 26.2145,201.692 27.7145,202.025 28.5,205.5C 28.5658,207.266 27.7324,208.266 26,208.5C 21.4922,207.341 16.9922,207.341 12.5,208.5C 10.9996,208.547 9.99962,207.881 9.5,206.5C 9.78764,205.139 10.121,203.806 10.5,202.5 Z"/></g>
<g><path style="opacity:1" fill="#cf190c" d="M 111.5,193.5 C 118.424,195.463 125.757,196.13 133.5,195.5C 140.588,195.205 147.588,195.538 154.5,196.5C 154.5,196.833 154.5,197.167 154.5,197.5C 157.421,198.194 160.421,199.027 163.5,200C 163.167,200.333 162.833,200.667 162.5,201C 163.766,201.309 164.933,201.809 166,202.5C 166.914,206.185 167.581,205.852 168,201.5C 168.667,204.167 168.667,206.833 168,209.5C 167.667,208.5 167.333,207.5 167,206.5C 164.585,208.805 162.752,211.471 161.5,214.5C 159.847,214.66 158.514,215.326 157.5,216.5C 156.209,216.263 155.209,216.596 154.5,217.5C 142.167,217.5 129.833,217.5 117.5,217.5C 117.167,217.5 116.833,217.5 116.5,217.5C 116.5,216.833 116.167,216.5 115.5,216.5C 115.158,215.662 114.492,215.328 113.5,215.5C 113.082,214.778 112.416,214.278 111.5,214C 106.167,213.667 100.833,213.333 95.5,213C 93.7107,212.086 91.8773,211.253 90,210.5C 82.141,211.117 74.3077,211.784 66.5,212.5C 62.1017,210.034 57.435,208.368 52.5,207.5C 52.2594,205.102 52.9261,203.102 54.5,201.5C 56.1401,200.68 57.8068,199.847 59.5,199C 68.8237,197.988 78.157,197.155 87.5,196.5C 94.0221,196.823 100.355,196.49 106.5,195.5C 107.82,194.058 109.486,193.392 111.5,193.5 Z"/></g>
<g><path style="opacity:1" fill="#d63a26" d="M 52.5,207.5 C 57.435,208.368 62.1017,210.034 66.5,212.5C 74.3077,211.784 82.141,211.117 90,210.5C 91.8773,211.253 93.7107,212.086 95.5,213C 100.833,213.333 106.167,213.667 111.5,214C 112.416,214.278 113.082,214.778 113.5,215.5C 95.8354,215.01 78.1687,214.51 60.5,214C 58.7566,211.043 56.0899,209.543 52.5,209.5C 52.5,208.833 52.5,208.167 52.5,207.5 Z"/></g>
<g><path style="opacity:1" fill="#e78c79" d="M 52.5,209.5 C 56.0899,209.543 58.7566,211.043 60.5,214C 78.1687,214.51 95.8354,215.01 113.5,215.5C 114.492,215.328 115.158,215.662 115.5,216.5C 98.1617,215.388 80.8284,215.388 63.5,216.5C 60.4122,215.131 57.4122,213.631 54.5,212C 53.6195,211.292 52.9528,210.458 52.5,209.5 Z"/></g>
<g><path style="opacity:1" fill="#f08371" d="M 179.5,211.5 C 178.657,213.173 177.324,214.34 175.5,215C 169.477,215.359 163.477,215.859 157.5,216.5C 158.514,215.326 159.847,214.66 161.5,214.5C 167.677,214.313 173.677,213.313 179.5,211.5 Z"/></g>
<g><path style="opacity:1" fill="#fde0d8" d="M 115.5,216.5 C 116.167,216.5 116.5,216.833 116.5,217.5C 106.823,217.512 97.323,217.846 88,218.5C 87.2613,217.426 86.2613,216.759 85,216.5C 77.6921,217.797 70.5255,217.797 63.5,216.5C 80.8284,215.388 98.1617,215.388 115.5,216.5 Z"/></g>
<g><path style="opacity:1" fill="#fee0d9" d="M 177.5,216.5 C 177.389,217.117 177.056,217.617 176.5,218C 156.662,218.829 136.996,218.662 117.5,217.5C 129.833,217.5 142.167,217.5 154.5,217.5C 162.175,217.32 169.842,216.986 177.5,216.5 Z"/></g>
<g><path style="opacity:1" fill="#8b8b8b" d="M 14.5,223.5 C 13.8386,224.718 13.1719,226.051 12.5,227.5C 11.4901,225.065 10.6567,222.731 10,220.5C 11.0793,222.394 12.4126,222.727 14,221.5C 14.4643,222.094 14.631,222.761 14.5,223.5 Z"/></g>
<g><path style="opacity:1" fill="#a5a4a5" d="M 136.5,222.5 C 139.167,222.5 141.833,222.5 144.5,222.5C 144.508,228.208 144.008,228.541 143,223.5C 141.956,224.623 141.29,225.956 141,227.5C 139.374,227.146 137.541,227.146 135.5,227.5C 135.366,225.708 135.699,224.042 136.5,222.5 Z"/></g>
<g><path style="opacity:1" fill="#7b7c7c" d="M 153.5,225.5 C 152.778,225.082 152.278,224.416 152,223.5C 151.71,225.044 151.044,226.377 150,227.5C 148.513,225.728 148.18,223.728 149,221.5C 149.333,222.5 149.667,223.5 150,224.5C 152.244,220.277 153.41,220.611 153.5,225.5 Z"/></g>
<g><path style="opacity:1" fill="#868686" d="M 206.5,221.5 C 207.833,221.5 209.167,221.5 210.5,221.5C 210.5,223.5 210.5,225.5 210.5,227.5C 208.571,227.769 206.905,227.269 205.5,226C 206.833,226 208.167,226 209.5,226C 208.167,225 208.167,224 209.5,223C 208.551,222.383 207.718,222.549 207,223.5C 206.536,222.906 206.369,222.239 206.5,221.5 Z"/></g>
<g><path style="opacity:1" fill="#7d7d7d" d="M 30.5,222.5 C 32.8333,222.5 35.1667,222.5 37.5,222.5C 37.6534,228.324 36.9867,228.657 35.5,223.5C 34.3756,228.721 33.5423,228.721 33,223.5C 31.9563,224.623 31.2896,225.956 31,227.5C 30.5065,225.866 30.3398,224.199 30.5,222.5 Z"/></g>
<g><path style="opacity:1" fill="#989898" d="M 105.5,221.5 C 106.461,223.265 106.795,225.265 106.5,227.5C 102.785,227.024 99.1183,227.024 95.5,227.5C 94.6733,225.838 93.5067,224.505 92,223.5C 91.342,225.108 91.842,226.275 93.5,227C 90.438,227.741 87.438,227.575 84.5,226.5C 82.5658,226.901 81.0658,227.901 80,229.5C 78.7051,227.474 77.2051,226.474 75.5,226.5C 76.1445,225.268 76.3112,223.935 76,222.5C 82.5398,223.029 89.0398,223.029 95.5,222.5C 96.1924,223.025 96.6924,223.692 97,224.5C 98.6667,224.5 100.333,224.5 102,224.5C 102.985,223.186 104.152,222.186 105.5,221.5 Z"/></g>
<g><path style="opacity:1" fill="#8b8a8b" d="M 126.5,222.5 C 127.573,223.658 128.739,223.658 130,222.5C 131.28,222.613 132.113,223.28 132.5,224.5C 131.009,225.244 129.509,225.91 128,226.5C 127.667,225.833 127.333,225.167 127,224.5C 124.87,228.389 123.87,228.055 124,223.5C 125.007,225.742 125.841,225.408 126.5,222.5 Z"/></g>
<g><path style="opacity:1" fill="#989999" d="M 165.5,221.5 C 167.917,221.978 170.084,222.978 172,224.5C 173.481,221.936 174.981,221.936 176.5,224.5C 175.624,225.251 174.624,225.751 173.5,226C 175.595,226.556 175.762,227.056 174,227.5C 172.765,226.385 171.598,226.385 170.5,227.5C 169.224,222.318 168.557,222.318 168.5,227.5C 165.235,227.792 162.235,227.125 159.5,225.5C 156.56,226.924 155.894,226.09 157.5,223C 158.899,222.405 160.232,222.572 161.5,223.5C 163.026,223.006 164.359,222.339 165.5,221.5 Z"/></g>
<g><path style="opacity:1" fill="#acacac" d="M 14.5,223.5 C 16.5575,222.798 18.5575,222.465 20.5,222.5C 21.776,227.682 22.4427,227.682 22.5,222.5C 24.1992,222.34 25.8659,222.506 27.5,223C 26.6198,224.356 26.2865,225.856 26.5,227.5C 23.8806,227.768 21.3806,227.435 19,226.5C 17.8456,228.957 16.5123,228.957 15,226.5C 14.5172,225.552 14.3505,224.552 14.5,223.5 Z"/></g>
<g><path style="opacity:1" fill="#888788" d="M 53.5,222.5 C 54.7409,224.931 55.9076,224.931 57,222.5C 57.4294,224.669 56.9294,226.669 55.5,228.5C 54.9984,229.521 54.3317,229.688 53.5,229C 54.3366,227.989 54.67,226.822 54.5,225.5C 52.8008,225.34 51.1341,225.506 49.5,226C 53.2259,227.043 52.8926,227.543 48.5,227.5C 48.3433,226.127 48.51,224.793 49,223.5C 50.3985,224.051 51.7318,224.384 53,224.5C 53.4643,223.906 53.631,223.239 53.5,222.5 Z"/></g>
<g><path style="opacity:1" fill="#acadad" d="M 60.5,220.5 C 61.9311,220.881 62.7645,221.881 63,223.5C 64.0113,222.663 65.1779,222.33 66.5,222.5C 66.5,224.167 66.5,225.833 66.5,227.5C 64.5,227.5 62.5,227.5 60.5,227.5C 60.5,225.167 60.5,222.833 60.5,220.5 Z"/></g>
<g><path style="opacity:1" fill="#8f8f90" d="M 70.5,222.5 C 75.0296,223.02 75.3629,224.186 71.5,226C 72.1667,226.333 72.8333,226.667 73.5,227C 69.7071,227.487 68.7071,225.987 70.5,222.5 Z"/></g>
<g><path style="opacity:1" fill="#676767" d="M 43.5,222.5 C 44.8333,222.5 46.1667,222.5 47.5,222.5C 47.6534,228.324 46.9867,228.657 45.5,223.5C 44.0133,228.657 43.3466,228.324 43.5,222.5 Z"/></g>
<g><path style="opacity:1" fill="#a7a7a6" d="M 115.5,222.5 C 117.199,222.34 118.866,222.506 120.5,223C 119.91,224.509 119.244,226.009 118.5,227.5C 117.402,223.639 116.569,223.639 116,227.5C 115.506,225.866 115.34,224.199 115.5,222.5 Z"/></g>
<g><path style="opacity:1" fill="#979797" d="M 184.5,221.5 C 186.045,222.23 186.878,223.563 187,225.5C 187.483,224.552 187.649,223.552 187.5,222.5C 189.331,223.052 190.997,223.052 192.5,222.5C 193.251,223.376 193.751,224.376 194,225.5C 194.333,224.833 194.667,224.167 195,223.5C 195.442,225.684 194.942,227.684 193.5,229.5C 193.793,227.953 193.293,226.286 192,224.5C 191.517,225.448 191.351,226.448 191.5,227.5C 186.703,227.272 182.037,227.105 177.5,227C 178.167,226.667 178.833,226.333 179.5,226C 178.027,225.29 177.36,224.124 177.5,222.5C 180.598,222.413 180.932,222.913 178.5,224C 179.416,224.374 180.25,224.874 181,225.5C 181.69,223.65 182.856,222.316 184.5,221.5 Z"/></g>
<g><path style="opacity:1" fill="#787878" d="M 38.5,223.5 C 39.7942,227.223 40.9609,227.223 42,223.5C 42.49,224.793 42.6567,226.127 42.5,227.5C 41.1667,227.5 39.8333,227.5 38.5,227.5C 38.5,226.167 38.5,224.833 38.5,223.5 Z"/></g>
<g><path style="opacity:1" fill="#909191" d="M 110.5,222.5 C 113.91,222.384 115.244,224.05 114.5,227.5C 112.712,227.785 111.045,227.452 109.5,226.5C 110.246,225.264 110.579,223.93 110.5,222.5 Z"/></g>
<g><path style="opacity:1" fill="#4e4e4e" d="M 153.5,225.5 C 155.132,222.791 155.632,223.125 155,226.5C 153.893,227.712 153.393,227.379 153.5,225.5 Z"/></g>
<g><path style="opacity:1" fill="#939393" d="M 45.5,236.5 C 46.9663,237.347 47.7996,238.68 48,240.5C 49.8402,239.167 50.3402,239.334 49.5,241C 50.5,241.333 51.5,241.667 52.5,242C 49.0455,241.42 45.8788,241.92 43,243.5C 41.0797,243.062 39.2464,242.395 37.5,241.5C 38.8875,241.193 40.5542,241.193 42.5,241.5C 42.6495,240.448 42.4828,239.448 42,238.5C 41.6667,238.833 41.3333,239.167 41,239.5C 40.7787,236.057 39.7787,235.724 38,238.5C 37.3333,237.833 37.3333,237.167 38,236.5C 40.6629,236.162 43.1629,236.162 45.5,236.5 Z"/></g>
<g><path style="opacity:1" fill="#a2a2a2" d="M 134.5,235.5 C 136.282,236.72 138.282,237.386 140.5,237.5C 140.286,239.144 140.62,240.644 141.5,242C 138.5,242.667 135.5,242.667 132.5,242C 135.167,240.667 135.167,239.333 132.5,238C 133.756,237.583 134.423,236.75 134.5,235.5 Z"/></g>
<g><path style="opacity:1" fill="#8d8d8d" d="M 9.5,235.5 C 11.6138,236.36 12.7805,238.027 13,240.5C 15.731,234.215 16.731,234.882 16,242.5C 15.6667,241.5 15.3333,240.5 15,239.5C 14.5814,240.672 13.9147,241.672 13,242.5C 12.2588,241.359 11.4255,241.359 10.5,242.5C 9.52577,240.257 9.19244,237.924 9.5,235.5 Z"/></g>
<g><path style="opacity:1" fill="#eaeaea" d="M 45.5,236.5 C 46.7946,238.372 46.6279,240.038 45,241.5C 42.9353,239.549 43.102,237.882 45.5,236.5 Z"/></g>
<g><path style="opacity:1" fill="#6e6e6e" d="M 101.5,235.5 C 102.468,237.607 102.802,239.941 102.5,242.5C 98.9438,242.725 98.6105,241.892 101.5,240C 101.095,239.055 100.428,238.388 99.5,238C 100.756,237.583 101.423,236.75 101.5,235.5 Z"/></g>
<g><path style="opacity:1" fill="#858585" d="M 55.5,235.5 C 56.6291,237.628 56.7958,239.961 56,242.5C 55.2276,241.151 54.0609,240.318 52.5,240C 53.8825,238.729 54.8825,237.229 55.5,235.5 Z"/></g>
<g><path style="opacity:1" fill="#676767" d="M 75.5,235.5 C 76.4674,236.806 77.8007,237.473 79.5,237.5C 79.6534,243.324 78.9867,243.657 77.5,238.5C 76.5713,239.689 76.238,241.022 76.5,242.5C 75.5,242.5 74.5,242.5 73.5,242.5C 73.5188,235.469 74.0188,235.136 75,241.5C 75.4955,239.527 75.6621,237.527 75.5,235.5 Z"/></g>
<g><path style="opacity:1" fill="#838383" d="M 81.5,237.5 C 82.5,237.5 83.5,237.5 84.5,237.5C 84.5,239.167 84.5,240.833 84.5,242.5C 80.7162,242.475 79.7162,240.808 81.5,237.5 Z"/></g>
<g><path style="opacity:1" fill="#8f8f8f" d="M 88.5,237.5 C 89.8333,237.5 91.1667,237.5 92.5,237.5C 92.5,239.167 92.5,240.833 92.5,242.5C 89.0897,242.616 87.7564,240.95 88.5,237.5 Z"/></g>
<g><path style="opacity:1" fill="#939393" d="M 111.5,235.5 C 112.239,235.369 112.906,235.536 113.5,236C 112.736,238.069 112.236,240.236 112,242.5C 111.572,237.502 110.739,237.335 109.5,242C 106.333,242.833 105.167,241.667 106,238.5C 108.326,238.12 110.159,237.12 111.5,235.5 Z"/></g>
<g><path style="opacity:1" fill="#a2a2a2" d="M 122.5,238.5 C 120.824,239.183 120.157,240.517 120.5,242.5C 119.167,242.5 117.833,242.5 116.5,242.5C 116.338,240.473 116.505,238.473 117,236.5C 117.333,236.833 117.667,237.167 118,237.5C 118.308,236.692 118.808,236.025 119.5,235.5C 120.548,236.548 121.548,237.548 122.5,238.5 Z"/></g>
<g><path style="opacity:1" fill="#898989" d="M 17.5,237.5 C 18.8333,237.5 20.1667,237.5 21.5,237.5C 21.5,239.167 21.5,240.833 21.5,242.5C 20.1667,242.5 18.8333,242.5 17.5,242.5C 17.5,240.833 17.5,239.167 17.5,237.5 Z"/></g>
<g><path style="opacity:1" fill="#919191" d="M 29.5,235.5 C 31.1003,236.252 32.6003,237.252 34,238.5C 33.9808,243.834 33.3141,243.834 32,238.5C 31.7811,239.938 31.2811,241.271 30.5,242.5C 29.5,241.167 28.5,239.833 27.5,238.5C 26.7492,239.376 26.2492,240.376 26,241.5C 24.6228,237.735 23.6228,238.068 23,242.5C 22.5065,240.866 22.3398,239.199 22.5,237.5C 25.3878,238.01 27.7211,237.344 29.5,235.5 Z"/></g>
<g><path style="opacity:1" fill="#5e5e5e" d="M 93.5,237.5 C 94.8333,237.5 96.1667,237.5 97.5,237.5C 97.6534,243.324 96.9867,243.657 95.5,238.5C 94.0133,243.657 93.3466,243.324 93.5,237.5 Z"/></g>
<g><path style="opacity:1" fill="#8c8c8c" d="M 122.5,238.5 C 124.137,237.782 125.803,237.616 127.5,238C 128.517,239.049 128.684,240.216 128,241.5C 126.249,242.174 124.583,242.507 123,242.5C 122.51,241.207 122.343,239.873 122.5,238.5 Z"/></g>
<g><path style="opacity:1" fill="#959595" d="M 60.5,235.5 C 61.7495,236.778 63.2495,237.778 65,238.5C 65.3333,238.167 65.6667,237.833 66,237.5C 68.5161,239.659 68.8494,241.992 67,244.5C 66.6667,242.833 66.3333,241.167 66,239.5C 65.0718,242.035 63.2385,243.035 60.5,242.5C 60.5,240.167 60.5,237.833 60.5,235.5 Z"/></g>
<g><path style="opacity:1" fill="#8d8d8d" d="M 141.5,237.5 C 144.664,239.599 144.997,241.933 142.5,244.5C 142.749,242.37 142.415,240.037 141.5,237.5 Z"/></g>
<g><path style="opacity:1" fill="#c9b1d7" d="M 11.5,260.5 C 16.9019,261.675 22.2352,262.342 27.5,262.5C 27.6932,266.449 28.1932,266.449 29,262.5C 29.49,263.793 29.6567,265.127 29.5,266.5C 26.2475,265.753 22.9141,265.753 19.5,266.5C 19.3068,262.551 18.8068,262.551 18,266.5C 17.6667,265.833 17.3333,265.167 17,264.5C 16.6121,265.428 15.9454,266.095 15,266.5C 13.6998,265.293 12.1998,264.626 10.5,264.5C 10.4326,263.041 10.7659,261.708 11.5,260.5 Z"/></g>
<g><path style="opacity:1" fill="#ebebeb" d="M 50.5,274.5 C 53.0838,275.048 54.0838,276.715 53.5,279.5C 52.5,279.5 51.5,279.5 50.5,279.5C 50.5,277.833 50.5,276.167 50.5,274.5 Z"/></g>
<g><path style="opacity:1" fill="#9a9a9a" d="M 57.5,275.5 C 59.1171,276.589 59.9504,278.256 60,280.5C 61.117,279.051 61.7837,277.384 62,275.5C 62.7429,277.441 62.5762,279.274 61.5,281C 58.194,280.959 56.8607,279.126 57.5,275.5 Z"/></g>
<g><path style="opacity:1" fill="#8b8b8b" d="M 27.5,274.5 C 28.6225,276.288 28.7891,278.288 28,280.5C 25.2472,281.779 23.7472,280.779 23.5,277.5C 23.7275,274.351 25.0609,273.351 27.5,274.5 Z"/></g>
<g><path style="opacity:1" fill="#f8f8f8" d="M 27.5,274.5 C 27.7852,276.288 27.4519,277.955 26.5,279.5C 26.1667,278.667 25.8333,277.833 25.5,277C 25.6842,275.624 26.3509,274.791 27.5,274.5 Z"/></g>
<g><path style="opacity:1" fill="#666666" d="M 30.5,273.5 C 31.8221,273.33 32.9887,273.663 34,274.5C 34.6667,276.5 34.6667,278.5 34,280.5C 32.6667,281.833 31.3333,281.833 30,280.5C 29.2967,278.071 29.4634,275.738 30.5,273.5 Z"/></g>
<g><path style="opacity:1" fill="#efefef" d="M 31.5,274.5 C 33.9238,276.228 34.0904,278.228 32,280.5C 30.2002,278.635 30.0336,276.635 31.5,274.5 Z"/></g>
<g><path style="opacity:1" fill="#656565" d="M 44.5,279.5 C 43.3871,278.054 43.2204,276.387 44,274.5C 45.0495,273.483 46.2161,273.316 47.5,274C 48.5914,276.064 48.7581,278.231 48,280.5C 46.2435,281.985 45.0768,281.652 44.5,279.5 Z"/></g>
<g><path style="opacity:1" fill="#f1f1f1" d="M 44.5,279.5 C 44.2308,277.571 44.7308,275.905 46,274.5C 47.4404,275.93 47.7737,277.597 47,279.5C 46.2303,280.598 45.397,280.598 44.5,279.5 Z"/></g>
<g><path style="opacity:1" fill="#6f6f6f" d="M 50.5,274.5 C 51.5417,273.209 52.7083,273.209 54,274.5C 54.7796,276.387 54.6129,278.054 53.5,279.5C 54.0838,276.715 53.0838,275.048 50.5,274.5 Z"/></g>
<g><path style="opacity:1" fill="#b2b2b2" d="M 64.5,274.5 C 67.1397,275.445 69.8064,275.612 72.5,275C 75.3264,277.864 74.8264,280.031 71,281.5C 68.8824,280.804 66.7158,280.637 64.5,281C 64.1667,280.667 63.8333,280.333 63.5,280C 64.7376,280.077 65.7376,279.911 66.5,279.5C 63.8068,278.468 63.1402,276.802 64.5,274.5 Z"/></g>
<g><path style="opacity:1" fill="#7b7b79" d="M 12.5,273.5 C 13.224,275.218 13.8906,277.052 14.5,279C 12.9555,280.369 11.2888,280.202 9.5,278.5C 10.2599,276.64 11.2599,274.973 12.5,273.5 Z"/></g>
<g><path style="opacity:1" fill="#767676" d="M 50.5,274.5 C 50.5,276.167 50.5,277.833 50.5,279.5C 51.5,279.5 52.5,279.5 53.5,279.5C 52.7455,281.466 51.5788,281.8 50,280.5C 49.2109,278.288 49.3775,276.288 50.5,274.5 Z"/></g>
<g><path style="opacity:1" fill="#b1b1b1" d="M 16.5,273.5 C 17.675,273.281 18.675,273.614 19.5,274.5C 20.0915,276.85 21.0915,279.017 22.5,281C 22.1667,281.5 21.8333,282 21.5,282.5C 20.8333,281.833 20.1667,281.167 19.5,280.5C 18.2798,281.711 17.1131,281.711 16,280.5C 15.2967,278.071 15.4634,275.738 16.5,273.5 Z"/></g>
<g><path style="opacity:1" fill="#838383" d="M 36.5,274.5 C 38.9391,273.351 40.2725,274.351 40.5,277.5C 38.4847,282.705 36.818,282.705 35.5,277.5C 35.5195,276.274 35.8529,275.274 36.5,274.5 Z"/></g>
<g><path style="opacity:1" fill="#f8f8f8" d="M 36.5,274.5 C 37.6491,274.791 38.3158,275.624 38.5,277C 38.1667,277.833 37.8333,278.667 37.5,279.5C 36.5481,277.955 36.2148,276.288 36.5,274.5 Z"/></g>
<g><path style="opacity:1" fill="#faddd5" d="M 131.5,293.5 C 124.682,291.665 117.682,290.998 110.5,291.5C 107.207,289.224 103.54,287.891 99.5,287.5C 99.62,286.414 100.287,285.747 101.5,285.5C 105.089,286.06 108.422,287.227 111.5,289C 117.528,289.17 123.528,289.67 129.5,290.5C 130.612,291.265 131.279,292.265 131.5,293.5 Z"/></g>
<g><path style="opacity:1" fill="#e4786c" d="M 99.5,287.5 C 103.54,287.891 107.207,289.224 110.5,291.5C 107.304,290.888 104.304,290.888 101.5,291.5C 100.833,291.5 100.167,291.5 99.5,291.5C 99.5,290.167 99.5,288.833 99.5,287.5 Z"/></g>
<g><path style="opacity:1" fill="#f5b8af" d="M 83.5,291.5 C 77.8333,291.5 72.1667,291.5 66.5,291.5C 64.2743,290.244 61.941,290.244 59.5,291.5C 59.4142,290.504 59.7476,289.671 60.5,289C 62.1667,288.833 63.8333,288.667 65.5,288.5C 71.6074,289.636 77.6074,290.636 83.5,291.5 Z"/></g>
<g><path style="opacity:1" fill="#e36a55" d="M 66.5,291.5 C 60.3409,293.57 54.0075,295.237 47.5,296.5C 47.5,295.167 47.5,293.833 47.5,292.5C 49.5,292.5 51.5,292.5 53.5,292.5C 55.7354,292.795 57.7354,292.461 59.5,291.5C 61.941,290.244 64.2743,290.244 66.5,291.5 Z"/></g>
<g><path style="opacity:1" fill="#d8b5d5" d="M 37.5,295.5 C 29.6484,295.175 21.9818,295.508 14.5,296.5C 12.8333,296.5 11.1667,296.5 9.5,296.5C 9.5,294.167 9.5,291.833 9.5,289.5C 10.8333,289.5 12.1667,289.5 13.5,289.5C 13.2619,293.099 14.2619,293.433 16.5,290.5C 20.3795,290.749 24.3795,290.749 28.5,290.5C 28.8333,295.833 29.1667,295.833 29.5,290.5C 32.1194,290.768 34.6194,290.435 37,289.5C 37.4955,291.473 37.6621,293.473 37.5,295.5 Z"/></g>
<g><path style="opacity:1" fill="#f2a5a0" d="M 53.5,292.5 C 51.5,292.5 49.5,292.5 47.5,292.5C 47.5,293.833 47.5,295.167 47.5,296.5C 36.5,296.5 25.5,296.5 14.5,296.5C 21.9818,295.508 29.6484,295.175 37.5,295.5C 40.5,295.5 43.5,295.5 46.5,295.5C 46.8794,290.15 49.2127,289.15 53.5,292.5 Z"/></g>
<g><path style="opacity:1" fill="#cc0802" d="M 101.5,291.5 C 104.127,292.105 106.793,292.605 109.5,293C 109.167,293.333 108.833,293.667 108.5,294C 114.833,294.333 121.167,294.667 127.5,295C 129.413,297.067 131.08,299.234 132.5,301.5C 132.663,303.857 132.497,306.19 132,308.5C 131.5,309.667 130.667,310.5 129.5,311C 106.81,311.065 84.1431,310.398 61.5,309C 60.6433,308.311 59.9767,307.478 59.5,306.5C 59.5513,303.335 59.718,300.002 60,296.5C 60.3742,295.584 60.8742,294.75 61.5,294C 68.0002,294.108 74.5002,294.608 81,295.5C 87.536,295.164 94.036,294.497 100.5,293.5C 100.863,292.817 101.196,292.15 101.5,291.5 Z"/></g>
<g><path style="opacity:1" fill="#d96857" d="M 9.5,296.5 C 11.1667,296.5 12.8333,296.5 14.5,296.5C 25.5,296.5 36.5,296.5 47.5,296.5C 36.3407,297.331 25.0074,297.831 13.5,298C 12.1509,298.772 11.3176,299.939 11,301.5C 10.5027,305.524 10.6693,309.524 11.5,313.5C 9.08026,310.154 8.41359,306.487 9.5,302.5C 9.5,300.5 9.5,298.5 9.5,296.5 Z"/></g>
<g><path style="opacity:1" fill="#e57866" d="M 131.5,294.5 C 134.119,294.232 136.619,294.565 139,295.5C 139.839,300.921 139.506,306.254 138,311.5C 137.329,312.252 136.496,312.586 135.5,312.5C 137.318,307.729 137.985,302.729 137.5,297.5C 135.03,297.346 133.03,296.346 131.5,294.5 Z"/></g>
<g><path style="opacity:1" fill="#e6a397" d="M 131.5,294.5 C 131.5,294.167 131.5,293.833 131.5,293.5C 134.448,293.223 137.281,293.556 140,294.5C 140.667,300.167 140.667,305.833 140,311.5C 138.89,313.037 137.39,313.703 135.5,313.5C 135.5,313.167 135.5,312.833 135.5,312.5C 136.496,312.586 137.329,312.252 138,311.5C 139.506,306.254 139.839,300.921 139,295.5C 136.619,294.565 134.119,294.232 131.5,294.5 Z"/></g>
<g><path style="opacity:1" fill="#e29c8b" d="M 9.5,302.5 C 8.41359,306.487 9.08026,310.154 11.5,313.5C 11.5,314.167 11.5,314.833 11.5,315.5C 10.5041,315.586 9.67076,315.252 9,314.5C 9.08671,310.91 7.92004,307.91 5.5,305.5C 6.10008,303.532 7.43341,302.532 9.5,302.5 Z"/></g>
<g><path style="opacity:1" fill="#d62414" d="M 66.5,291.5 C 75.3308,292.353 84.3308,293.02 93.5,293.5C 95.9522,293.461 97.9522,292.794 99.5,291.5C 100.167,291.5 100.833,291.5 101.5,291.5C 101.196,292.15 100.863,292.817 100.5,293.5C 94.036,294.497 87.536,295.164 81,295.5C 74.5002,294.608 68.0002,294.108 61.5,294C 60.8742,294.75 60.3742,295.584 60,296.5C 59.718,300.002 59.5513,303.335 59.5,306.5C 59.9767,307.478 60.6433,308.311 61.5,309C 84.1431,310.398 106.81,311.065 129.5,311C 130.667,310.5 131.5,309.667 132,308.5C 132.497,306.19 132.663,303.857 132.5,301.5C 133.634,303.966 133.801,306.633 133,309.5C 131.764,311.538 129.931,312.705 127.5,313C 102.507,312.834 77.5067,312.667 52.5,312.5C 49.715,311.916 48.0483,312.916 47.5,315.5C 40.5,315.5 33.5,315.5 26.5,315.5C 27.3479,313.907 28.6813,312.74 30.5,312C 37.4146,311.358 43.9146,309.525 50,306.5C 51.3799,309.058 52.8799,309.058 54.5,306.5C 55.5321,308.04 56.8654,308.54 58.5,308C 58.201,306.68 58.0343,305.18 58,303.5C 57.5,302.333 56.6667,301.5 55.5,301C 56.7414,299.513 56.2414,298.68 54,298.5C 48.9362,299.921 43.7695,300.587 38.5,300.5C 30.6757,298.987 22.6757,298.321 14.5,298.5C 14.5764,300.923 13.5764,302.756 11.5,304C 12.2037,307.128 12.7037,310.294 13,313.5C 13.9947,314.066 14.828,314.733 15.5,315.5C 14.5,315.5 13.5,315.5 12.5,315.5C 12.1667,315.5 11.8333,315.5 11.5,315.5C 11.5,314.833 11.5,314.167 11.5,313.5C 10.6693,309.524 10.5027,305.524 11,301.5C 11.3176,299.939 12.1509,298.772 13.5,298C 25.0074,297.831 36.3407,297.331 47.5,296.5C 54.0075,295.237 60.3409,293.57 66.5,291.5 Z"/></g>
<g><path style="opacity:1" fill="#d51408" d="M 26.5,315.5 C 22.8333,315.5 19.1667,315.5 15.5,315.5C 14.828,314.733 13.9947,314.066 13,313.5C 12.7037,310.294 12.2037,307.128 11.5,304C 13.5764,302.756 14.5764,300.923 14.5,298.5C 22.6757,298.321 30.6757,298.987 38.5,300.5C 43.7695,300.587 48.9362,299.921 54,298.5C 56.2414,298.68 56.7414,299.513 55.5,301C 56.6667,301.5 57.5,302.333 58,303.5C 58.0343,305.18 58.201,306.68 58.5,308C 56.8654,308.54 55.5321,308.04 54.5,306.5C 52.8799,309.058 51.3799,309.058 50,306.5C 43.9146,309.525 37.4146,311.358 30.5,312C 28.6813,312.74 27.3479,313.907 26.5,315.5 Z"/></g>
<g><path style="opacity:1" fill="#e06d61" d="M 66.5,291.5 C 72.1667,291.5 77.8333,291.5 83.5,291.5C 88.8333,291.5 94.1667,291.5 99.5,291.5C 97.9522,292.794 95.9522,293.461 93.5,293.5C 84.3308,293.02 75.3308,292.353 66.5,291.5 Z"/></g>
<g><path style="opacity:1" fill="#e77865" d="M 52.5,312.5 C 68.8333,313.167 85.1667,313.833 101.5,314.5C 83.5205,315.416 65.5205,315.75 47.5,315.5C 48.0483,312.916 49.715,311.916 52.5,312.5 Z"/></g>
<g><path style="opacity:1" fill="#de4b38" d="M 101.5,291.5 C 104.304,290.888 107.304,290.888 110.5,291.5C 117.682,290.998 124.682,291.665 131.5,293.5C 131.5,293.833 131.5,294.167 131.5,294.5C 133.03,296.346 135.03,297.346 137.5,297.5C 137.985,302.729 137.318,307.729 135.5,312.5C 132.774,312.264 130.441,313.097 128.5,315C 121.508,315.5 114.508,315.666 107.5,315.5C 105.565,314.85 103.565,314.517 101.5,314.5C 85.1667,313.833 68.8333,313.167 52.5,312.5C 77.5067,312.667 102.507,312.834 127.5,313C 129.931,312.705 131.764,311.538 133,309.5C 133.801,306.633 133.634,303.966 132.5,301.5C 131.08,299.234 129.413,297.067 127.5,295C 121.167,294.667 114.833,294.333 108.5,294C 108.833,293.667 109.167,293.333 109.5,293C 106.793,292.605 104.127,292.105 101.5,291.5 Z"/></g>
<g><path style="opacity:1" fill="#fee0d7" d="M 101.5,314.5 C 101.5,314.833 101.5,315.167 101.5,315.5C 83.4761,316.124 65.4761,316.791 47.5,317.5C 47.5,316.833 47.5,316.167 47.5,315.5C 65.5205,315.75 83.5205,315.416 101.5,314.5 Z"/></g>
<g><path style="opacity:1" fill="#ed806d" d="M 135.5,312.5 C 135.5,312.833 135.5,313.167 135.5,313.5C 133.804,313.685 132.471,314.519 131.5,316C 123.323,316.823 115.323,316.656 107.5,315.5C 114.508,315.666 121.508,315.5 128.5,315C 130.441,313.097 132.774,312.264 135.5,312.5 Z"/></g>
<g><path style="opacity:1" fill="#ea8173" d="M 12.5,315.5 C 13.5,315.5 14.5,315.5 15.5,315.5C 19.1667,315.5 22.8333,315.5 26.5,315.5C 33.5,315.5 40.5,315.5 47.5,315.5C 47.5,316.167 47.5,316.833 47.5,317.5C 38.1667,317.5 28.8333,317.5 19.5,317.5C 17.5,317.5 15.5,317.5 13.5,317.5C 13.1667,316.833 12.8333,316.167 12.5,315.5 Z"/></g>
<g><path style="opacity:1" fill="#e99e8e" d="M 135.5,313.5 C 135.489,315.017 134.823,316.184 133.5,317C 124.167,317.667 114.833,317.667 105.5,317C 104.255,316.209 102.922,315.709 101.5,315.5C 101.5,315.167 101.5,314.833 101.5,314.5C 103.565,314.517 105.565,314.85 107.5,315.5C 115.323,316.656 123.323,316.823 131.5,316C 132.471,314.519 133.804,313.685 135.5,313.5 Z"/></g>
<g><path style="opacity:1" fill="#e4aba5" d="M 19.5,317.5 C 28.8333,317.5 38.1667,317.5 47.5,317.5C 39.8333,318.167 32.1667,318.833 24.5,319.5C 22.6943,318.976 21.0276,318.309 19.5,317.5 Z"/></g>
<g><path style="opacity:1" fill="#cdafd8" d="M 13.5,317.5 C 15.5,317.5 17.5,317.5 19.5,317.5C 21.0276,318.309 22.6943,318.976 24.5,319.5C 25.4345,320.568 25.7678,321.901 25.5,323.5C 20.3336,323.25 15.0003,323.25 9.5,323.5C 9.5,321.5 9.5,319.5 9.5,317.5C 10.8333,317.5 12.1667,317.5 13.5,317.5 Z"/></g>
<g><path style="opacity:1" fill="#959595" d="M 59.5,331.5 C 57.6159,331.712 56.2826,332.712 55.5,334.5C 57.0461,335.684 58.7127,336.684 60.5,337.5C 58.3259,338.893 56.4926,338.56 55,336.5C 53.3333,339.167 51.6667,339.167 50,336.5C 47.992,339.139 46.1587,339.139 44.5,336.5C 45.4558,335.341 46.4558,334.174 47.5,333C 47.0946,332.055 46.428,331.388 45.5,331C 47.3668,330.289 48.8668,330.789 50,332.5C 51.6667,329.833 53.3333,329.833 55,332.5C 56.3466,330.534 57.8466,330.201 59.5,331.5 Z"/></g>
<g><path style="opacity:1" fill="#7f7f7f" d="M 65.5,337.5 C 64.2921,336.766 62.9587,336.433 61.5,336.5C 61.4326,335.041 61.7659,333.708 62.5,332.5C 63.1515,331.909 63.8182,331.243 64.5,330.5C 65.7969,332.918 66.1303,335.251 65.5,337.5 Z"/></g>
<g><path style="opacity:1" fill="#979795" d="M 11.5,330.5 C 12.7251,331.152 13.3917,332.319 13.5,334C 13.1667,335.167 12.8333,336.333 12.5,337.5C 10.9893,335.184 10.656,332.851 11.5,330.5 Z"/></g>
<g><path style="opacity:1" fill="#707271" d="M 24.5,330.5 C 26.1765,331.183 26.8432,332.517 26.5,334.5C 25.7321,335.263 25.2321,336.263 25,337.5C 24.5034,335.19 24.3367,332.857 24.5,330.5 Z"/></g>
<g><path style="opacity:1" fill="#636463" d="M 31.5,337.5 C 30.71,336.391 30.21,335.058 30,333.5C 28.9798,337.973 27.8132,338.306 26.5,334.5C 27.1174,334.611 27.6174,334.944 28,335.5C 28.3603,333.579 29.1936,331.912 30.5,330.5C 31.4742,332.743 31.8076,335.076 31.5,337.5 Z"/></g>
<g><path style="opacity:1" fill="#dbdbdb" d="M 24.5,330.5 C 24.3367,332.857 24.5034,335.19 25,337.5C 25.2321,336.263 25.7321,335.263 26.5,334.5C 27.8132,338.306 28.9798,337.973 30,333.5C 30.21,335.058 30.71,336.391 31.5,337.5C 31.8333,338.833 32.1667,338.833 32.5,337.5C 37.4093,339.855 38.7426,338.189 36.5,332.5C 37.1667,332.5 37.8333,332.5 38.5,332.5C 38.2155,334.415 38.5489,336.081 39.5,337.5C 41.3569,338.765 43.0236,338.432 44.5,336.5C 46.1587,339.139 47.992,339.139 50,336.5C 51.6667,339.167 53.3333,339.167 55,336.5C 56.4926,338.56 58.3259,338.893 60.5,337.5C 58.7127,336.684 57.0461,335.684 55.5,334.5C 56.2826,332.712 57.6159,331.712 59.5,331.5C 60.609,331.557 61.609,331.89 62.5,332.5C 61.7659,333.708 61.4326,335.041 61.5,336.5C 62.9587,336.433 64.2921,336.766 65.5,337.5C 65.6107,338.117 65.944,338.617 66.5,339C 50.1667,339.667 33.8333,339.667 17.5,339C 14.723,336.827 14.8897,336.327 18,337.5C 17.9536,335.687 18.1203,334.021 18.5,332.5C 15.8694,330.995 16.2027,330.329 19.5,330.5C 20.0525,332.939 20.0525,335.273 19.5,337.5C 20.6888,338.429 22.0222,338.762 23.5,338.5C 23.1936,335.615 23.5269,332.948 24.5,330.5 Z"/></g>
<g><path style="opacity:1" fill="#565656" d="M 38.5,332.5 C 39.552,332.351 40.552,332.517 41.5,333C 39.8934,334.049 39.2267,335.549 39.5,337.5C 38.5489,336.081 38.2155,334.415 38.5,332.5 Z"/></g>
<g><path style="opacity:1" fill="#949595" d="M 36.5,332.5 C 38.7426,338.189 37.4093,339.855 32.5,337.5C 33.3629,336.06 33.3629,334.726 32.5,333.5C 33.6888,332.571 35.0222,332.238 36.5,332.5 Z"/></g>
<g><path style="opacity:1" fill="#fbfbfb" d="M 51.5,332.5 C 52.5862,332.62 53.2528,333.287 53.5,334.5C 53.1667,335.167 52.8333,335.833 52.5,336.5C 51.5713,335.311 51.238,333.978 51.5,332.5 Z"/></g>
<g><path style="opacity:1" fill="#b391e2" d="M 9.5,360.5 C 35.5,360.5 61.5,360.5 87.5,360.5C 87.5,367.167 87.5,373.833 87.5,380.5C 61.5,380.5 35.5,380.5 9.5,380.5C 9.5,373.833 9.5,367.167 9.5,360.5 Z"/></g>
<g><path style="opacity:1" fill="#b382f9" d="M 10.5,362.5 C 35.8333,362.5 61.1667,362.5 86.5,362.5C 86.5,367.833 86.5,373.167 86.5,378.5C 61.1667,378.5 35.8333,378.5 10.5,378.5C 10.5,373.167 10.5,367.833 10.5,362.5 Z"/></g>
<g><path style="opacity:1" fill="#d6b1f2" d="M 71.5,367.5 C 73.2012,367.966 74.7012,367.966 76,367.5C 77.3186,369.25 77.8186,371.25 77.5,373.5C 76.1667,373.5 74.8333,373.5 73.5,373.5C 72.3856,368.371 71.719,368.371 71.5,373.5C 68.5,373.5 65.5,373.5 62.5,373.5C 62.1667,368.167 61.8333,368.167 61.5,373.5C 58.6062,373.042 56.1062,373.709 54,375.5C 52.4747,374.28 50.6413,373.613 48.5,373.5C 46.3587,373.613 44.5253,374.28 43,375.5C 42.5034,373.19 42.3367,370.857 42.5,368.5C 52.3478,368.827 62.0144,368.494 71.5,367.5 Z"/></g>
<g><path style="opacity:1" fill="#cda5f0" d="M 19.5,366.5 C 26.6335,366.694 33.3001,367.694 39.5,369.5C 39.0234,370.931 38.3567,372.264 37.5,373.5C 36.8076,372.975 36.3076,372.308 36,371.5C 34.9914,372.658 33.6581,373.325 32,373.5C 28.9207,372.991 25.9207,372.991 23,373.5C 21.1207,371.473 19.954,369.14 19.5,366.5 Z"/></g>
</svg>
