<?xml version="1.0" encoding="UTF-8"?>
<!DOCTYPE svg PUBLIC "-//W3C//DTD SVG 1.1//EN" "http://www.w3.org/Graphics/SVG/1.1/DTD/svg11.dtd">
<svg xmlns="http://www.w3.org/2000/svg" version="1.1" width="253px" height="392px" style="shape-rendering:geometricPrecision; text-rendering:geometricPrecision; image-rendering:optimizeQuality; fill-rule:evenodd; clip-rule:evenodd" xmlns:xlink="http://www.w3.org/1999/xlink">
<g><path style="opacity:1" fill="#fcfcfc" d="M -0.5,-0.5 C 83.8333,-0.5 168.167,-0.5 252.5,-0.5C 252.5,62.8333 252.5,126.167 252.5,189.5C 168.167,189.5 83.8333,189.5 -0.5,189.5C -0.5,184.167 -0.5,178.833 -0.5,173.5C 0.403972,172.791 0.737305,171.791 0.5,170.5C 2.98055,170.323 4.81388,171.323 6,173.5C 6.30955,169.929 5.14288,166.929 2.5,164.5C 1.30374,166.145 0.303736,167.811 -0.5,169.5C -0.5,164.833 -0.5,160.167 -0.5,155.5C -0.166667,155.5 0.166667,155.5 0.5,155.5C 0.0736815,149.387 2.40701,147.553 7.5,150C 4.98687,146.868 2.3202,146.701 -0.5,149.5C -0.5,99.5 -0.5,49.5 -0.5,-0.5 Z"/></g>
<g><path style="opacity:1" fill="#d6d6d6" d="M 191.5,10.5 C 193.167,10.5 194.833,10.5 196.5,10.5C 196.66,14.2364 197.493,14.2364 199,10.5C 199.333,11.1667 199.667,11.8333 200,12.5C 201.011,11.6634 202.178,11.33 203.5,11.5C 203.808,13.924 203.474,16.2573 202.5,18.5C 201.833,16.8333 201.167,15.1667 200.5,13.5C 199.167,15.8333 197.833,18.1667 196.5,20.5C 195.833,19.5 195.167,18.5 194.5,17.5C 193.914,17.7093 193.414,18.0426 193,18.5C 192.86,16.7445 193.36,15.0778 194.5,13.5C 193.007,12.8589 192.007,11.8589 191.5,10.5 Z"/></g>
<g><path style="opacity:1" fill="#9b9b9b" d="M 205.5,12.5 C 205.56,11.9569 205.893,11.6236 206.5,11.5C 207.647,13.7649 207.814,16.0982 207,18.5C 206.809,16.2922 206.309,14.2922 205.5,12.5 Z"/></g>
<g><path style="opacity:1" fill="#d8d8d8" d="M 225.5,10.5 C 228.546,11.394 231.546,11.5607 234.5,11C 234.548,13.1269 234.715,15.2936 235,17.5C 231.57,17.6942 228.07,17.6942 224.5,17.5C 225.5,16.1667 226.5,14.8333 227.5,13.5C 226.726,12.2888 225.893,12.2888 225,13.5C 224.53,12.4232 224.697,11.4232 225.5,10.5 Z"/></g>
<g><path style="opacity:1" fill="#585858" d="M 43.5,9.5 C 44.7647,10.5145 45.4313,12.0145 45.5,14C 45.1667,15.5 44.8333,17 44.5,18.5C 43.5159,15.5719 43.1826,12.5719 43.5,9.5 Z"/></g>
<g><path style="opacity:1" fill="#393939" d="M 41.5,11.5 C 43.0348,14.3298 42.0348,15.6631 38.5,15.5C 38.719,16.675 38.3857,17.675 37.5,18.5C 36.52,15.9135 36.1866,13.2469 36.5,10.5C 38.4147,10.2155 40.0813,10.5489 41.5,11.5 Z"/></g>
<g><path style="opacity:1" fill="#e5e5e5" d="M 41.5,11.5 C 40.2458,15.31 39.2458,15.31 38.5,11.5C 39.5,11.5 40.5,11.5 41.5,11.5 Z"/></g>
<g><path style="opacity:1" fill="#1c1c1c" d="M 53.5,12.5 C 55.1667,12.5 56.8333,12.5 58.5,12.5C 58.6621,14.5273 58.4955,16.5273 58,18.5C 57.5065,16.8659 57.3398,15.1992 57.5,13.5C 56.5,13.5 55.5,13.5 54.5,13.5C 54.6602,15.1992 54.4935,16.8659 54,18.5C 53.5045,16.5273 53.3379,14.5273 53.5,12.5 Z"/></g>
<g><path style="opacity:1" fill="#464646" d="M 60.5,12.5 C 66.4011,12.9397 66.7344,14.273 61.5,16.5C 62.3914,17.5896 63.3914,17.5896 64.5,16.5C 65.6956,16.8457 65.6956,17.3457 64.5,18C 60.1322,18.4393 58.7988,16.606 60.5,12.5 Z"/></g>
<g><path style="opacity:1" fill="#cccccc" d="M 219.5,10.5 C 221.818,10.8184 223.152,12.1517 223.5,14.5C 223.253,17.7787 221.753,18.7787 219,17.5C 218.297,15.0709 218.463,12.7375 219.5,10.5 Z"/></g>
<g><path style="opacity:1" fill="#292929" d="M 47.5,13.5 C 48.5676,12.5655 49.901,12.2322 51.5,12.5C 51.6621,14.5273 51.4955,16.5273 51,18.5C 50.7508,17.376 50.2508,16.376 49.5,15.5C 48.2888,16.2739 48.2888,17.1072 49.5,18C 47.3333,18.5 46.5,17.6667 47,15.5C 48.0674,14.8095 49.2341,14.3095 50.5,14C 49.552,13.5172 48.552,13.3505 47.5,13.5 Z"/></g>
<g><path style="opacity:1" fill="#9598a3" d="M 11.5,8.5 C 24.3742,7.20556 29.8742,12.8722 28,25.5C 23.2719,33.614 16.7719,35.4473 8.5,31C 2.37326,22.3959 3.37326,14.8959 11.5,8.5 Z"/></g>
<g><path style="opacity:1" fill="#d1d4df" d="M 14.5,16.5 C 18.6772,15.8416 20.1772,17.5082 19,21.5C 13.7701,25.1339 12.2701,23.4672 14.5,16.5 Z"/></g>
<g><path style="opacity:1" fill="#c73d17" d="M 125.5,24.5 C 120.283,24.7582 115.116,24.4249 110,23.5C 102.939,25.8966 95.7724,26.5633 88.5,25.5C 88.7771,28.4475 88.4438,31.2809 87.5,34C 88.756,34.4169 89.4226,35.2502 89.5,36.5C 88.5041,36.5858 87.6708,36.2524 87,35.5C 86.5012,31.5138 86.3345,27.5138 86.5,23.5C 87.791,23.7373 88.791,23.404 89.5,22.5C 91.861,22.6741 94.1944,23.0074 96.5,23.5C 97.9928,22.5549 99.4928,21.5549 101,20.5C 102.059,20.6301 102.892,21.1301 103.5,22C 110.5,22.3333 117.5,22.6667 124.5,23C 125.056,23.3826 125.389,23.8826 125.5,24.5 Z"/></g>
<g><path style="opacity:1" fill="#dd815c" d="M 126.5,21.5 C 127.833,22.9335 129.333,24.2668 131,25.5C 132.102,30.184 131.436,34.5174 129,38.5C 127.874,39.9436 126.374,40.6102 124.5,40.5C 120.202,39.7035 115.868,39.3701 111.5,39.5C 111.5,39.1667 111.5,38.8333 111.5,38.5C 116.032,38.8182 120.366,38.4849 124.5,37.5C 125.822,37.67 126.989,37.3366 128,36.5C 128.667,33.1667 128.667,29.8333 128,26.5C 127.005,25.9341 126.172,25.2674 125.5,24.5C 125.389,23.8826 125.056,23.3826 124.5,23C 117.5,22.6667 110.5,22.3333 103.5,22C 102.892,21.1301 102.059,20.6301 101,20.5C 99.4928,21.5549 97.9928,22.5549 96.5,23.5C 97.8837,17.765 100.884,16.9317 105.5,21C 112.492,21.4996 119.492,21.6663 126.5,21.5 Z"/></g>
<g><path style="opacity:1" fill="#b9b9b9" d="M 51.5,26.5 C 54.1667,26.5 56.8333,26.5 59.5,26.5C 59.6534,32.3239 58.9867,32.6572 57.5,27.5C 56.7189,28.7287 56.2189,30.062 56,31.5C 55.0914,26.2702 53.9247,26.2702 52.5,31.5C 51.5481,29.9547 51.2148,28.288 51.5,26.5 Z"/></g>
<g><path style="opacity:1" fill="#bc1703" d="M 125.5,24.5 C 126.172,25.2674 127.005,25.9341 128,26.5C 128.667,29.8333 128.667,33.1667 128,36.5C 126.989,37.3366 125.822,37.67 124.5,37.5C 112.835,37.1297 101.168,36.7964 89.5,36.5C 89.4226,35.2502 88.756,34.4169 87.5,34C 88.4438,31.2809 88.7771,28.4475 88.5,25.5C 95.7724,26.5633 102.939,25.8966 110,23.5C 115.116,24.4249 120.283,24.7582 125.5,24.5 Z"/></g>
<g><path style="opacity:1" fill="#757575" d="M 38.5,22.5 C 40.5176,25.5353 41.6843,28.8687 42,32.5C 40.2691,30.6472 38.4358,29.9805 36.5,30.5C 37.7853,27.9795 38.4519,25.3128 38.5,22.5 Z"/></g>
<g><path style="opacity:1" fill="#f8ddce" d="M 85.5,22.5 C 84.6324,26.8076 84.4657,31.141 85,35.5C 85.8333,36.3333 86.6667,37.1667 87.5,38C 95.4825,37.3725 103.482,37.5391 111.5,38.5C 111.5,38.8333 111.5,39.1667 111.5,39.5C 106.146,39.4715 100.813,39.8048 95.5,40.5C 90.9124,40.3839 86.579,39.3839 82.5,37.5C 82.5893,34.2914 82.256,31.1248 81.5,28C 82.599,25.9639 83.9323,24.1305 85.5,22.5 Z"/></g>
<g><path style="opacity:1" fill="#c2512f" d="M 85.5,22.5 C 86.8333,22.5 88.1667,22.5 89.5,22.5C 88.791,23.404 87.791,23.7373 86.5,23.5C 86.3345,27.5138 86.5012,31.5138 87,35.5C 87.6708,36.2524 88.5041,36.5858 89.5,36.5C 101.168,36.7964 112.835,37.1297 124.5,37.5C 120.366,38.4849 116.032,38.8182 111.5,38.5C 103.482,37.5391 95.4825,37.3725 87.5,38C 86.6667,37.1667 85.8333,36.3333 85,35.5C 84.4657,31.141 84.6324,26.8076 85.5,22.5 Z"/></g>
<g><path style="opacity:1" fill="#f9e1d1" d="M 126.5,21.5 C 128.55,21.9612 130.55,22.6279 132.5,23.5C 133.662,28.1313 133.828,32.798 133,37.5C 130.603,40.2396 127.603,41.5729 124,41.5C 119.635,41.1885 115.468,40.5218 111.5,39.5C 115.868,39.3701 120.202,39.7035 124.5,40.5C 126.374,40.6102 127.874,39.9436 129,38.5C 131.436,34.5174 132.102,30.184 131,25.5C 129.333,24.2668 127.833,22.9335 126.5,21.5 Z"/></g>
<g><path style="opacity:1" fill="#141414" d="M 43.5,56.5 C 46.2469,56.1866 48.9135,56.52 51.5,57.5C 50.675,58.3857 49.675,58.719 48.5,58.5C 47.8333,70.5 47.1667,70.5 46.5,58.5C 44.8212,58.7148 43.8212,58.0481 43.5,56.5 Z"/></g>
<g><path style="opacity:1" fill="#4c4c4c" d="M 127.5,56.5 C 129.337,56.6395 129.67,57.3061 128.5,58.5C 127.702,58.0431 127.369,57.3764 127.5,56.5 Z"/></g>
<g><path style="opacity:1" fill="#484848" d="M 176.5,56.5 C 178.337,56.6395 178.67,57.3061 177.5,58.5C 176.702,58.0431 176.369,57.3764 176.5,56.5 Z"/></g>
<g><path style="opacity:1" fill="#1c1c1c" d="M 197.5,57.5 C 198.931,58.0819 200.264,58.9152 201.5,60C 198.906,62.0719 198.906,64.2385 201.5,66.5C 200.349,67.731 199.183,67.731 198,66.5C 197.122,63.3556 196.955,60.3556 197.5,57.5 Z"/></g>
<g><path style="opacity:1" fill="#1e1e1e" d="M 13.5,66.5 C 13.5,66.8333 13.5,67.1667 13.5,67.5C 11.9519,67.1788 11.2852,66.1788 11.5,64.5C 8.72243,64.0217 6.72243,65.0217 5.5,67.5C 5.16667,67 4.83333,66.5 4.5,66C 7.85364,53.3804 10.8536,53.547 13.5,66.5 Z"/></g>
<g><path style="opacity:1" fill="#0b0b0b" d="M 127.5,59.5 C 128.748,60.3339 129.415,61.6672 129.5,63.5C 129.167,64.8333 128.833,66.1667 128.5,67.5C 127.52,64.9135 127.187,62.2469 127.5,59.5 Z"/></g>
<g><path style="opacity:1" fill="#080808" d="M 176.5,59.5 C 178.402,62.3373 179.069,65.6707 178.5,69.5C 177.448,69.6495 176.448,69.4828 175.5,69C 176.451,65.9433 176.784,62.7766 176.5,59.5 Z"/></g>
<g><path style="opacity:1" fill="#252525" d="M 52.5,59.5 C 53.9778,59.238 55.3112,59.5713 56.5,60.5C 55.1189,62.6349 54.1189,64.9682 53.5,67.5C 52.52,64.9135 52.1866,62.2469 52.5,59.5 Z"/></g>
<g><path style="opacity:1" fill="#252525" d="M 58.5,59.5 C 64.3668,59.2056 66.0334,61.8723 63.5,67.5C 61.6318,67.0539 59.7985,66.7205 58,66.5C 57.4106,63.2096 58.9106,61.7096 62.5,62C 61.9747,61.3076 61.3081,60.8076 60.5,60.5C 58.1143,61.9884 57.4476,61.6551 58.5,59.5 Z"/></g>
<g><path style="opacity:1" fill="#181818" d="M 83.5,59.5 C 85.288,59.2148 86.9547,59.5481 88.5,60.5C 87.675,61.3857 86.675,61.719 85.5,61.5C 85.7989,63.604 85.4656,65.604 84.5,67.5C 83.52,64.9135 83.1866,62.2469 83.5,59.5 Z"/></g>
<g><path style="opacity:1" fill="#111111" d="M 92.5,56.5 C 94.924,56.1924 97.2573,56.5258 99.5,57.5C 97.9547,58.4519 96.288,58.7852 94.5,58.5C 94.5,59.5 94.5,60.5 94.5,61.5C 99.8333,61.8333 99.8333,62.1667 94.5,62.5C 94.7852,64.288 94.4519,65.9547 93.5,67.5C 92.5108,63.8927 92.1774,60.226 92.5,56.5 Z"/></g>
<g><path style="opacity:1" fill="#202020" d="M 140.5,59.5 C 142.674,59.9202 144.674,59.9202 146.5,59.5C 148.024,63.2702 147.691,66.7702 145.5,70C 142.997,70.8736 140.997,70.207 139.5,68C 140.167,67.6667 140.833,67.3333 141.5,67C 139.163,64.8063 138.83,62.3063 140.5,59.5 Z"/></g>
<g><path style="opacity:1" fill="#1d1d1d" d="M 232.5,56.5 C 233.787,57.8714 234.453,59.7047 234.5,62C 234.167,63.8333 233.833,65.6667 233.5,67.5C 232.402,66.3845 231.235,66.3845 230,67.5C 226.795,66.2018 225.795,63.8684 227,60.5C 228.667,59.1667 230.333,59.1667 232,60.5C 232.49,59.2068 232.657,57.8734 232.5,56.5 Z"/></g>
<g><path style="opacity:1" fill="#212121" d="M 32.5,59.5 C 33.7348,59.7214 34.7348,60.3881 35.5,61.5C 38.3843,59.0437 39.0509,59.7104 37.5,63.5C 37.5288,65.0293 38.1955,66.196 39.5,67C 37.8654,67.5396 36.5321,67.0396 35.5,65.5C 34.8333,66.1667 34.1667,66.8333 33.5,67.5C 33.1667,67.1667 32.8333,66.8333 32.5,66.5C 33.6716,64.1772 33.6716,61.8439 32.5,59.5 Z"/></g>
<g><path style="opacity:1" fill="#1e1e1e" d="M 123.5,56.5 C 125.414,59.6843 126.08,63.351 125.5,67.5C 119.326,68.8271 117.159,66.4938 119,60.5C 120.356,59.6198 121.856,59.2865 123.5,59.5C 123.5,58.5 123.5,57.5 123.5,56.5 Z"/></g>
<g><path style="opacity:1" fill="#dadada" d="M 141.5,61.5 C 142.833,61.5 144.167,61.5 145.5,61.5C 145.778,63.3464 145.111,64.6798 143.5,65.5C 141.889,64.6798 141.222,63.3464 141.5,61.5 Z"/></g>
<g><path style="opacity:1" fill="#111111" d="M 152.5,56.5 C 153.787,57.8714 154.453,59.7047 154.5,62C 154.167,63.8333 153.833,65.6667 153.5,67.5C 152.511,63.8927 152.177,60.226 152.5,56.5 Z"/></g>
<g><path style="opacity:1" fill="#1b1b1b" d="M 166.5,59.5 C 168.288,59.2148 169.955,59.5481 171.5,60.5C 170.609,61.5896 169.609,61.5896 168.5,60.5C 167.548,62.0453 167.215,63.712 167.5,65.5C 169.226,65.1854 170.893,65.0187 172.5,65C 171.003,67.207 169.003,67.8736 166.5,67C 165.221,64.5024 165.221,62.0024 166.5,59.5 Z"/></g>
<g><path style="opacity:1" fill="#1d1d1d" d="M 189.5,59.5 C 191.75,59.1814 193.75,59.6814 195.5,61C 190.648,60.5339 190.481,61.3673 195,63.5C 195.684,64.7839 195.517,65.9505 194.5,67C 188.852,67.059 188.519,66.3924 193.5,65C 190.574,64.313 189.241,62.4797 189.5,59.5 Z"/></g>
<g><path style="opacity:1" fill="#dddddd" d="M 228.5,61.5 C 229.833,61.5 231.167,61.5 232.5,61.5C 232.778,63.3464 232.111,64.6798 230.5,65.5C 228.889,64.6798 228.222,63.3464 228.5,61.5 Z"/></g>
<g><path style="opacity:1" fill="#8a8a8a" d="M 8.5,59.5 C 10.1042,60.287 10.7709,61.6203 10.5,63.5C 9.32496,63.719 8.32496,63.3857 7.5,62.5C 8.12723,61.5832 8.46056,60.5832 8.5,59.5 Z"/></g>
<g><path style="opacity:1" fill="#1c1c1c" d="M 71.5,56.5 C 72.7868,57.8714 73.4535,59.7047 73.5,62C 73.1667,63.8333 72.8333,65.6667 72.5,67.5C 71.4016,66.3845 70.2349,66.3845 69,67.5C 65.7948,66.2018 64.7948,63.8684 66,60.5C 67.6667,59.1667 69.3333,59.1667 71,60.5C 71.49,59.2068 71.6567,57.8734 71.5,56.5 Z"/></g>
<g><path style="opacity:1" fill="#dedede" d="M 67.5,61.5 C 68.8333,61.5 70.1667,61.5 71.5,61.5C 71.7778,63.3464 71.1112,64.6798 69.5,65.5C 67.8888,64.6798 67.2222,63.3464 67.5,61.5 Z"/></g>
<g><path style="opacity:1" fill="#171717" d="M 75.5,59.5 C 79.2407,58.5985 81.2407,59.9319 81.5,63.5C 74.8638,64.0218 74.8638,64.8551 81.5,66C 75.4195,68.0828 73.4195,65.9162 75.5,59.5 Z"/></g>
<g><path style="opacity:1" fill="#c7c7c7" d="M 77.5,60.5 C 78.3764,60.3691 79.0431,60.7025 79.5,61.5C 77.1916,62.8734 76.5249,62.5401 77.5,60.5 Z"/></g>
<g><path style="opacity:1" fill="#f1f1f1" d="M 120.5,61.5 C 121.5,61.5 122.5,61.5 123.5,61.5C 123.5,62.8333 123.5,64.1667 123.5,65.5C 122.5,65.5 121.5,65.5 120.5,65.5C 120.5,64.1667 120.5,62.8333 120.5,61.5 Z"/></g>
<g><path style="opacity:1" fill="#151515" d="M 131.5,59.5 C 138.232,58.4816 140.232,61.1483 137.5,67.5C 136.534,65.604 136.201,63.604 136.5,61.5C 135.5,61.5 134.5,61.5 133.5,61.5C 133.799,63.604 133.466,65.604 132.5,67.5C 131.52,64.9135 131.187,62.2469 131.5,59.5 Z"/></g>
<g><path style="opacity:1" fill="#222222" d="M 205.5,59.5 C 212.349,57.743 214.682,60.0763 212.5,66.5C 211.224,67.6446 209.891,67.6446 208.5,66.5C 207.833,67.5 207.167,68.5 206.5,69.5C 205.513,66.2317 205.18,62.8984 205.5,59.5 Z"/></g>
<g><path style="opacity:1" fill="#ececec" d="M 208.5,61.5 C 209.5,61.5 210.5,61.5 211.5,61.5C 211.5,62.8333 211.5,64.1667 211.5,65.5C 210.5,65.5 209.5,65.5 208.5,65.5C 208.5,64.1667 208.5,62.8333 208.5,61.5 Z"/></g>
<g><path style="opacity:1" fill="#181818" d="M 215.5,59.5 C 221.367,59.2056 223.033,61.8723 220.5,67.5C 218.722,67.4307 216.889,67.0974 215,66.5C 214.333,65.5 214.333,64.5 215,63.5C 216.509,62.9103 218.009,62.2436 219.5,61.5C 218.609,60.4104 217.609,60.4104 216.5,61.5C 215.702,61.0431 215.369,60.3764 215.5,59.5 Z"/></g>
<g><path style="opacity:1" fill="#1d1d1d" d="M 225.5,59.5 C 226.036,62.6981 225.369,65.3647 223.5,67.5C 222.964,64.3019 223.631,61.6353 225.5,59.5 Z"/></g>
<g><path style="opacity:1" fill="#171717" d="M 109.5,59.5 C 111.669,60.0818 114.002,60.0818 116.5,59.5C 116.813,62.2469 116.48,64.9135 115.5,67.5C 114.534,65.604 114.201,63.604 114.5,61.5C 113.5,61.5 112.5,61.5 111.5,61.5C 111.799,63.604 111.466,65.604 110.5,67.5C 109.52,64.9135 109.187,62.2469 109.5,59.5 Z"/></g>
<g><path style="opacity:1" fill="#141414" d="M 156.5,59.5 C 163.232,58.4816 165.232,61.1483 162.5,67.5C 161.534,65.604 161.201,63.604 161.5,61.5C 160.5,61.5 159.5,61.5 158.5,61.5C 158.799,63.604 158.466,65.604 157.5,67.5C 156.52,64.9135 156.187,62.2469 156.5,59.5 Z"/></g>
<g><path style="opacity:1" fill="#b7b7b7" d="M 225.5,59.5 C 223.631,61.6353 222.964,64.3019 223.5,67.5C 222.518,64.0381 222.185,60.3714 222.5,56.5C 223.5,56.5 224.5,56.5 225.5,56.5C 225.5,57.5 225.5,58.5 225.5,59.5 Z"/></g>
<g><path style="opacity:1" fill="#202020" d="M 15.5,59.5 C 18.4822,59.1044 21.1489,59.7711 23.5,61.5C 26.6042,58.6118 29.2709,58.9451 31.5,62.5C 29.8333,63.1667 28.1667,63.8333 26.5,64.5C 31.5667,66.3042 31.2334,67.1375 25.5,67C 23.8624,63.9429 22.5291,63.9429 21.5,67C 20.2161,67.6838 19.0495,67.5171 18,66.5C 17.7645,68.1193 16.9311,69.1193 15.5,69.5C 15.5,66.1667 15.5,62.8333 15.5,59.5 Z"/></g>
<g><path style="opacity:1" fill="#efefef" d="M 17.5,61.5 C 18.5,61.5 19.5,61.5 20.5,61.5C 20.5,62.8333 20.5,64.1667 20.5,65.5C 19.5,65.5 18.5,65.5 17.5,65.5C 17.5,64.1667 17.5,62.8333 17.5,61.5 Z"/></g>
<g><path style="opacity:1" fill="#c9c9c9" d="M 26.5,60.5 C 28.9828,60.73 29.4828,61.3966 28,62.5C 26.9701,62.1639 26.4701,61.4972 26.5,60.5 Z"/></g>
<g><path style="opacity:1" fill="#131313" d="M 180.5,59.5 C 182.308,60.9179 182.975,62.9179 182.5,65.5C 183.5,65.5 184.5,65.5 185.5,65.5C 185.201,63.396 185.534,61.396 186.5,59.5C 187.833,62.1667 187.833,64.8333 186.5,67.5C 184.722,67.4307 182.889,67.0974 181,66.5C 180.503,64.1902 180.337,61.8568 180.5,59.5 Z"/></g>
<g><path style="opacity:1" fill="#cecece" d="M 217.5,63.5 C 218.376,63.3691 219.043,63.7025 219.5,64.5C 217.192,65.8734 216.525,65.5401 217.5,63.5 Z"/></g>
<g><path style="opacity:1" fill="#242424" d="M 100.5,59.5 C 102.308,60.9179 102.975,62.9179 102.5,65.5C 103.5,65.5 104.5,65.5 105.5,65.5C 105.201,63.396 105.534,61.396 106.5,59.5C 107.48,62.0865 107.813,64.7531 107.5,67.5C 101.095,68.5938 98.7618,65.9271 100.5,59.5 Z"/></g>
<g><path style="opacity:1" fill="#d9d9d9" d="M 143.5,66.5 C 145.975,66.7467 145.975,67.4134 143.5,68.5C 142.537,68.0302 142.537,67.3635 143.5,66.5 Z"/></g>
<g><path style="opacity:1" fill="#9b9b9b" d="M 15.5,59.5 C 15.5,62.8333 15.5,66.1667 15.5,69.5C 14.8333,68.8333 14.1667,68.1667 13.5,67.5C 13.5,67.1667 13.5,66.8333 13.5,66.5C 14.1667,64.1667 14.8333,61.8333 15.5,59.5 Z"/></g>
<g><path style="opacity:1" fill="#1b1b1b" d="M 81.5,75.5 C 85.0624,75.5638 86.7291,77.3972 86.5,81C 86.4366,85.7451 84.2699,87.2451 80,85.5C 77.7392,81.6537 78.2392,78.3204 81.5,75.5 Z"/></g>
<g><path style="opacity:1" fill="#212121" d="M 122.5,75.5 C 127.463,74.3184 130.463,76.1517 131.5,81C 130.463,85.8483 127.463,87.6816 122.5,86.5C 122.5,82.8333 122.5,79.1667 122.5,75.5 Z"/></g>
<g><path style="opacity:1" fill="#e3e3e3" d="M 81.5,77.5 C 82.5,77.5 83.5,77.5 84.5,77.5C 84.5,79.8333 84.5,82.1667 84.5,84.5C 80.6588,83.5158 79.6588,81.1825 81.5,77.5 Z"/></g>
<g><path style="opacity:1" fill="#1d1d1d" d="M 90.5,75.5 C 96.1558,75.8674 97.9891,78.8674 96,84.5C 93.6667,87.1667 91.3333,87.1667 89,84.5C 88.068,81.1769 88.568,78.1769 90.5,75.5 Z"/></g>
<g><path style="opacity:1" fill="#1f1f1f" d="M 13.5,78.5 C 19.3133,78.062 20.98,80.562 18.5,86C 12.7853,86.401 11.1187,83.901 13.5,78.5 Z"/></g>
<g><path style="opacity:1" fill="#272727" d="M 58.5,75.5 C 63.989,76.3308 65.6557,79.3308 63.5,84.5C 59.1471,87.4939 56.4805,86.3273 55.5,81C 55.6132,78.6013 56.6132,76.7679 58.5,75.5 Z"/></g>
<g><path style="opacity:1" fill="#f3f3f3" d="M 58.5,77.5 C 59.5,77.5 60.5,77.5 61.5,77.5C 61.5,79.8333 61.5,82.1667 61.5,84.5C 60.5,84.5 59.5,84.5 58.5,84.5C 58.5,82.1667 58.5,79.8333 58.5,77.5 Z"/></g>
<g><path style="opacity:1" fill="#f0f0f0" d="M 91.5,77.5 C 93.7224,77.5587 94.7224,78.7253 94.5,81C 93.1667,85.6667 91.8333,85.6667 90.5,81C 90.6483,79.7441 90.9816,78.5774 91.5,77.5 Z"/></g>
<g><path style="opacity:1" fill="#6f6f6f" d="M 104.5,83.5 C 103.686,81.369 103.186,79.0356 103,76.5C 102.503,79.146 102.336,81.8127 102.5,84.5C 101.523,81.7131 101.19,78.7131 101.5,75.5C 102.5,75.5 103.5,75.5 104.5,75.5C 104.5,78.1667 104.5,80.8333 104.5,83.5 Z"/></g>
<g><path style="opacity:1" fill="#f8f8f8" d="M 124.5,77.5 C 128.473,78.0755 129.473,80.2421 127.5,84C 126.552,84.4828 125.552,84.6495 124.5,84.5C 124.5,82.1667 124.5,79.8333 124.5,77.5 Z"/></g>
<g><path style="opacity:1" fill="#f0f0f0" d="M 14.5,80.5 C 15.5,80.5 16.5,80.5 17.5,80.5C 17.5,81.8333 17.5,83.1667 17.5,84.5C 16.5,84.5 15.5,84.5 14.5,84.5C 14.5,83.1667 14.5,81.8333 14.5,80.5 Z"/></g>
<g><path style="opacity:1" fill="#171717" d="M 21.5,78.5 C 23.3079,79.9179 23.9746,81.9179 23.5,84.5C 24.5,84.5 25.5,84.5 26.5,84.5C 26.2011,82.396 26.5344,80.396 27.5,78.5C 28.8333,81.1667 28.8333,83.8333 27.5,86.5C 25.7219,86.4307 23.8886,86.0974 22,85.5C 21.5034,83.1902 21.3367,80.8568 21.5,78.5 Z"/></g>
<g><path style="opacity:1" fill="#2a2a2a" d="M 68.5,75.5 C 74.0388,76.2386 75.7054,79.2386 73.5,84.5C 68.9031,87.8479 66.2364,86.6812 65.5,81C 65.6132,78.6013 66.6132,76.7679 68.5,75.5 Z"/></g>
<g><path style="opacity:1" fill="#f1f1f1" d="M 68.5,77.5 C 69.5,77.5 70.5,77.5 71.5,77.5C 71.5,79.8333 71.5,82.1667 71.5,84.5C 70.5,84.5 69.5,84.5 68.5,84.5C 68.5,82.1667 68.5,79.8333 68.5,77.5 Z"/></g>
<g><path style="opacity:1" fill="#151515" d="M 102.5,84.5 C 102.336,81.8127 102.503,79.146 103,76.5C 103.186,79.0356 103.686,81.369 104.5,83.5C 105.542,84.7911 106.708,84.7911 108,83.5C 108.182,80.7737 108.682,78.1071 109.5,75.5C 110.655,78.4459 110.821,81.4459 110,84.5C 107.379,87.1402 104.879,87.1402 102.5,84.5 Z"/></g>
<g><path style="opacity:1" fill="#161616" d="M 114.5,75.5 C 117.022,75.1281 119.022,75.9614 120.5,78C 112.699,77.5931 112.533,78.7598 120,81.5C 120.244,85.9858 118.077,87.4858 113.5,86C 113.043,85.586 112.709,85.086 112.5,84.5C 114.424,84.433 116.424,84.0997 118.5,83.5C 116.614,82.5937 114.78,81.5937 113,80.5C 112.387,78.5048 112.887,76.8381 114.5,75.5 Z"/></g>
<g><path style="opacity:1" fill="#191919" d="M 34.5,75.5 C 41.7312,76.4987 42.3978,79.3321 36.5,84C 37.938,84.2189 39.2713,84.7189 40.5,85.5C 32.3322,87.2764 31.4989,85.6098 38,80.5C 38.4828,79.552 38.6495,78.552 38.5,77.5C 37.0695,77.4208 35.7362,77.7542 34.5,78.5C 33.4376,77.5754 33.4376,76.5754 34.5,75.5 Z"/></g>
<g><path style="opacity:1" fill="#1a1a1a" d="M 48.5,75.5 C 53.9885,75.504 55.8219,78.1707 54,83.5C 52.1735,87.0374 49.8402,87.3707 47,84.5C 46.068,81.1769 46.568,78.1769 48.5,75.5 Z"/></g>
<g><path style="opacity:1" fill="#ececec" d="M 48.5,77.5 C 52.4735,78.0755 53.4735,80.2421 51.5,84C 50.552,84.4828 49.552,84.6495 48.5,84.5C 48.5,82.1667 48.5,79.8333 48.5,77.5 Z"/></g>
<g><path style="opacity:1" fill="#1b1b1b" d="M 4.5,78.5 C 6.61381,79.3602 7.78048,81.0268 8,83.5C 8.36029,81.5789 9.19362,79.9122 10.5,78.5C 11.037,81.7726 10.3704,84.9393 8.5,88C 5.43054,88.9356 4.76387,88.1023 6.5,85.5C 5.82659,83.149 5.15993,80.8157 4.5,78.5 Z"/></g>
<g><path style="opacity:1" fill="#151515" d="M 42.5,84.5 C 43.3764,84.3691 44.0431,84.7025 44.5,85.5C 42.9929,89.3548 42.3262,89.0214 42.5,84.5 Z"/></g>
<g><path style="opacity:1" fill="#2c2c2c" d="M 75.5,84.5 C 77.337,84.6395 77.6704,85.3061 76.5,86.5C 75.7025,86.0431 75.3691,85.3764 75.5,84.5 Z"/></g>
<g><path style="opacity:1" fill="#cacaca" d="M 45.5,87.5 C 74.5077,87.1668 103.508,87.5002 132.5,88.5C 118,88.8333 103.5,89.1667 89,89.5C 74.1509,89.4994 59.6509,88.8327 45.5,87.5 Z"/></g>
<g><path style="opacity:1" fill="#c6a8e2" d="M 12.5,116.5 C 15.7553,116.014 18.422,117.014 20.5,119.5C 23.0956,118.518 25.7623,117.851 28.5,117.5C 28.1667,119.5 27.8333,121.5 27.5,123.5C 21.6993,125.935 15.6993,127.935 9.5,129.5C 9.29229,125.856 7.29229,123.689 3.5,123C 2.74022,121.559 2.07356,120.059 1.5,118.5C 5.37392,119.126 9.04058,118.459 12.5,116.5 Z"/></g>
<g><path style="opacity:1" fill="#fceffc" d="M 13.5,119.5 C 16.9103,119.384 18.2436,121.05 17.5,124.5C 13.065,125.078 11.7317,123.411 13.5,119.5 Z"/></g>
<g><path style="opacity:1" fill="#c0abd8" d="M 79.5,121.5 C 73.8333,122.167 68.1667,122.833 62.5,123.5C 54.1401,123.831 45.8068,123.498 37.5,122.5C 51.4841,121.501 65.4841,121.167 79.5,121.5 Z"/></g>
<g><path style="opacity:1" fill="#e0ceeb" d="M 79.5,121.5 C 87.5277,121.169 95.5277,121.502 103.5,122.5C 89.8496,123.499 76.1829,123.833 62.5,123.5C 68.1667,122.833 73.8333,122.167 79.5,121.5 Z"/></g>
<g><path style="opacity:1" fill="#616161" d="M 0.5,155.5 C 0.166667,155.5 -0.166667,155.5 -0.5,155.5C -0.5,153.5 -0.5,151.5 -0.5,149.5C 2.3202,146.701 4.98687,146.868 7.5,150C 2.40701,147.553 0.0736815,149.387 0.5,155.5 Z"/></g>
<g><path style="opacity:1" fill="#5a5b5b" d="M 13.5,151.5 C 10.5,151.167 9.16667,152.5 9.5,155.5C 8.40168,154.399 8.23502,153.066 9,151.5C 10.6155,150.199 12.1155,150.199 13.5,151.5 Z"/></g>
<g><path style="opacity:1" fill="#7c7c7c" d="M 33.5,148.5 C 34.7647,149.514 35.4313,151.014 35.5,153C 35.3333,154.5 35.1667,156 35,157.5C 33.6081,154.722 33.1081,151.722 33.5,148.5 Z"/></g>
<g><path style="opacity:1" fill="#464646" d="M 37.5,147.5 C 38.404,148.209 38.7373,149.209 38.5,150.5C 39.8333,150.5 41.1667,150.5 42.5,150.5C 42.6621,152.527 42.4955,154.527 42,156.5C 41.5065,154.866 41.3398,153.199 41.5,151.5C 40.5,151.5 39.5,151.5 38.5,151.5C 38.6621,153.527 38.4955,155.527 38,157.5C 37.5017,154.183 37.335,150.85 37.5,147.5 Z"/></g>
<g><path style="opacity:1" fill="#b5b5b5" d="M 205.5,150.5 C 210.378,149.31 215.378,149.477 220.5,151C 221.696,151.654 221.696,152.154 220.5,152.5C 219.264,151.754 217.93,151.421 216.5,151.5C 216.5,152.833 216.5,154.167 216.5,155.5C 218.226,155.185 219.893,155.019 221.5,155C 220.328,157.055 218.661,157.722 216.5,157C 215.891,155.052 215.224,153.218 214.5,151.5C 213.791,150.596 212.791,150.263 211.5,150.5C 211.205,152.735 211.539,154.735 212.5,156.5C 211.167,157.833 209.833,157.833 208.5,156.5C 209.461,154.735 209.795,152.735 209.5,150.5C 208.167,150.5 206.833,150.5 205.5,150.5 Z"/></g>
<g><path style="opacity:1" fill="#e7e8e8" d="M 13.5,151.5 C 14.234,155.44 12.9007,156.773 9.5,155.5C 9.16667,152.5 10.5,151.167 13.5,151.5 Z"/></g>
<g><path style="opacity:1" fill="#8e8e8e" d="M 81.5,151.5 C 83.3792,150.659 85.3792,150.325 87.5,150.5C 87.6621,152.527 87.4955,154.527 87,156.5C 82.9744,157.654 81.1411,155.987 81.5,151.5 Z"/></g>
<g><path style="opacity:1" fill="#7b7b7b" d="M 100.5,156.5 C 99.8501,156.196 99.1835,155.863 98.5,155.5C 93.2247,158.556 91.5581,157.222 93.5,151.5C 96.2163,151.201 99.0496,150.868 102,150.5C 103.326,150.755 104.326,151.422 105,152.5C 108.149,150.638 111.649,149.971 115.5,150.5C 115.37,158.965 114.37,159.299 112.5,151.5C 111.596,159.287 110.263,159.287 108.5,151.5C 107.833,153.5 107.167,155.5 106.5,157.5C 105.808,156.975 105.308,156.308 105,155.5C 103.653,157.466 102.153,157.799 100.5,156.5 Z"/></g>
<g><path style="opacity:1" fill="#eaeaea" d="M 100.5,156.5 C 98.6696,153.162 99.6696,151.496 103.5,151.5C 104.084,154.285 103.084,155.952 100.5,156.5 Z"/></g>
<g><path style="opacity:1" fill="#f3f3f3" d="M 93.5,151.5 C 100.167,152.833 100.167,154.167 93.5,155.5C 93.5,154.167 93.5,152.833 93.5,151.5 Z"/></g>
<g><path style="opacity:1" fill="#979797" d="M 116.5,150.5 C 117.725,151.152 118.392,152.319 118.5,154C 118.167,155.167 117.833,156.333 117.5,157.5C 116.526,155.257 116.192,152.924 116.5,150.5 Z"/></g>
<g><path style="opacity:1" fill="#4e4e4e" d="M 157.5,150.5 C 158.552,150.351 159.552,150.517 160.5,151C 158.996,152.491 158.163,154.324 158,156.5C 157.505,154.527 157.338,152.527 157.5,150.5 Z"/></g>
<g><path style="opacity:1" fill="#454545" d="M 214.5,151.5 C 212.787,152.635 212.12,154.302 212.5,156.5C 211.539,154.735 211.205,152.735 211.5,150.5C 212.791,150.263 213.791,150.596 214.5,151.5 Z"/></g>
<g><path style="opacity:1" fill="#6d6d6d" d="M 24.5,156.5 C 23.5416,156.047 22.7083,155.381 22,154.5C 21.3878,157.032 19.8878,157.865 17.5,157C 14.6915,154.09 15.1915,151.923 19,150.5C 21.783,151.383 24.6163,151.383 27.5,150.5C 28.7799,150.363 29.1132,152.697 28.5,157.5C 26.901,157.768 25.5676,157.434 24.5,156.5 Z"/></g>
<g><path style="opacity:1" fill="#ececec" d="M 24.5,156.5 C 24.5,154.833 24.5,153.167 24.5,151.5C 25.5,151.5 26.5,151.5 27.5,151.5C 28.0838,154.285 27.0838,155.952 24.5,156.5 Z"/></g>
<g><path style="opacity:1" fill="#fafafa" d="M 17.5,151.5 C 18.5,151.5 19.5,151.5 20.5,151.5C 20.5,152.833 20.5,154.167 20.5,155.5C 19.5,155.5 18.5,155.5 17.5,155.5C 17.5,154.167 17.5,152.833 17.5,151.5 Z"/></g>
<g><path style="opacity:1" fill="#6d6d6d" d="M 81.5,151.5 C 79.6921,152.918 79.0254,154.918 79.5,157.5C 77.5714,157.769 75.9047,157.269 74.5,156C 75.0509,154.602 75.3842,153.268 75.5,152C 73.7928,151.805 72.1261,151.805 70.5,152C 72.2495,150.681 74.2495,150.181 76.5,150.5C 76.8333,158.5 77.1667,158.5 77.5,150.5C 79.099,150.232 80.4324,150.566 81.5,151.5 Z"/></g>
<g><path style="opacity:1" fill="#5d5d5d" d="M 124.5,151.5 C 124.784,153.415 124.451,155.081 123.5,156.5C 122.851,150.057 121.684,150.057 120,156.5C 119.505,154.527 119.338,152.527 119.5,150.5C 121.415,150.216 123.081,150.549 124.5,151.5 Z"/></g>
<g><path style="opacity:1" fill="#6d6d6d" d="M 142.5,152.5 C 141.519,154.396 140.519,156.396 139.5,158.5C 138.998,159.521 138.332,159.688 137.5,159C 138.729,156.381 138.396,153.881 136.5,151.5C 136.833,151.167 137.167,150.833 137.5,150.5C 138.833,154.5 140.167,154.5 141.5,150.5C 142.298,150.957 142.631,151.624 142.5,152.5 Z"/></g>
<g><path style="opacity:1" fill="#767676" d="M 142.5,152.5 C 144.126,150.757 146.126,150.257 148.5,151C 150.305,155.185 148.972,157.185 144.5,157C 142.963,155.89 142.297,154.39 142.5,152.5 Z"/></g>
<g><path style="opacity:1" fill="#f7f7f7" d="M 144.5,151.5 C 145.5,151.5 146.5,151.5 147.5,151.5C 147.5,152.833 147.5,154.167 147.5,155.5C 146.5,155.5 145.5,155.5 144.5,155.5C 144.5,154.167 144.5,152.833 144.5,151.5 Z"/></g>
<g><path style="opacity:1" fill="#696969" d="M 164.5,150.5 C 166.045,151.23 166.878,152.563 167,154.5C 168.105,149.372 169.438,149.372 171,154.5C 171.219,153.062 171.719,151.729 172.5,150.5C 173.023,152.836 172.523,155.17 171,157.5C 169.883,156.051 169.216,154.384 169,152.5C 168.529,154.246 167.862,155.913 167,157.5C 165.864,155.257 165.03,152.924 164.5,150.5 Z"/></g>
<g><path style="opacity:1" fill="#666666" d="M 185.5,150.5 C 186.097,150.735 186.43,151.235 186.5,152C 185.624,154.836 184.291,157.336 182.5,159.5C 182.167,159.333 181.833,159.167 181.5,159C 182.249,157.266 182.749,155.433 183,153.5C 183.333,153.833 183.667,154.167 184,154.5C 184.791,153.255 185.291,151.922 185.5,150.5 Z"/></g>
<g><path style="opacity:1" fill="#636363" d="M 202.5,147.5 C 202.81,150.713 202.477,153.713 201.5,156.5C 201.66,154.801 201.494,153.134 201,151.5C 199.769,157.485 198.102,157.818 196,152.5C 194.878,159.078 194.044,159.078 193.5,152.5C 193.833,150.833 194.167,149.167 194.5,147.5C 196.317,149.416 197.484,151.749 198,154.5C 199.057,151.728 200.557,149.395 202.5,147.5 Z"/></g>
<g><path style="opacity:1" fill="#494949" d="M 205.5,150.5 C 206.833,150.5 208.167,150.5 209.5,150.5C 209.795,152.735 209.461,154.735 208.5,156.5C 208.167,156.5 207.833,156.5 207.5,156.5C 208.234,155.292 208.567,153.959 208.5,152.5C 207.458,151.209 206.292,151.209 205,152.5C 204.308,151.563 204.475,150.897 205.5,150.5 Z"/></g>
<g><path style="opacity:1" fill="#707070" d="M 0.5,155.5 C 3.54679,156.145 5.71345,155.145 7,152.5C 7.66667,154.167 7.66667,155.833 7,157.5C 5.35466,157.307 3.52132,157.14 1.5,157C 0.944043,156.617 0.610709,156.117 0.5,155.5 Z"/></g>
<g><path style="opacity:1" fill="#606060" d="M 46.5,150.5 C 48.5,150.5 50.5,150.5 52.5,150.5C 52.6621,152.527 52.4955,154.527 52,156.5C 51.5065,154.866 51.3398,153.199 51.5,151.5C 50.5,151.5 49.5,151.5 48.5,151.5C 48.7989,153.604 48.4656,155.604 47.5,157.5C 46.5258,155.257 46.1924,152.924 46.5,150.5 Z"/></g>
<g><path style="opacity:1" fill="#b2b2b2" d="M 58.5,158.5 C 56.9652,159.788 55.2985,159.788 53.5,158.5C 54.1272,157.583 54.4606,156.583 54.5,155.5C 54.1667,152.5 55.5,151.167 58.5,151.5C 57.9182,153.998 57.9182,156.331 58.5,158.5 Z"/></g>
<g><path style="opacity:1" fill="#484848" d="M 58.5,158.5 C 57.9182,156.331 57.9182,153.998 58.5,151.5C 55.5,151.167 54.1667,152.5 54.5,155.5C 52.8243,151.167 54.4909,149.5 59.5,150.5C 59.8064,153.385 59.4731,156.052 58.5,158.5 Z"/></g>
<g><path style="opacity:1" fill="#737373" d="M 71.5,153.5 C 72.2389,153.369 72.9056,153.536 73.5,154C 72.8878,155.303 72.5545,156.47 72.5,157.5C 70.3576,156.563 70.0243,155.23 71.5,153.5 Z"/></g>
<g><path style="opacity:1" fill="#636363" d="M 150.5,150.5 C 151.451,151.919 151.784,153.585 151.5,155.5C 152.5,155.5 153.5,155.5 154.5,155.5C 154.34,153.801 154.506,152.134 155,150.5C 156.026,153.593 155.193,155.927 152.5,157.5C 151.914,157.291 151.414,156.957 151,156.5C 150.505,154.527 150.338,152.527 150.5,150.5 Z"/></g>
<g><path style="opacity:1" fill="#adadad" d="M 202.5,147.5 C 203.314,149.631 203.814,151.964 204,154.5C 205.33,153.418 206.83,152.751 208.5,152.5C 208.567,153.959 208.234,155.292 207.5,156.5C 205.384,156.937 203.384,156.937 201.5,156.5C 202.477,153.713 202.81,150.713 202.5,147.5 Z"/></g>
<g><path style="opacity:1" fill="#666867" d="M 13.5,151.5 C 14.6129,152.946 14.7796,154.613 14,156.5C 11.9551,158.043 10.4551,157.71 9.5,155.5C 12.9007,156.773 14.234,155.44 13.5,151.5 Z"/></g>
<g><path style="opacity:1" fill="#787878" d="M 61.5,150.5 C 62.9778,150.238 64.3112,150.571 65.5,151.5C 64.7376,151.911 63.7376,152.077 62.5,152C 63.5786,152.956 64.7453,153.789 66,154.5C 66.6172,155.449 66.4506,156.282 65.5,157C 63.8876,157.72 62.3876,157.554 61,156.5C 60.3333,155.833 60.3333,155.167 61,154.5C 61.9653,156.26 63.132,156.594 64.5,155.5C 63.1667,154.5 61.8333,153.5 60.5,152.5C 60.8627,151.817 61.1961,151.15 61.5,150.5 Z"/></g>
<g><path style="opacity:1" fill="#b6b6b6" d="M 124.5,151.5 C 125.5,151.5 126.5,151.5 127.5,151.5C 128.5,151.5 129.5,151.5 130.5,151.5C 130.5,153.833 130.5,156.167 130.5,158.5C 129.209,158.737 128.209,158.404 127.5,157.5C 126.516,153.535 125.516,153.535 124.5,157.5C 123.893,157.376 123.56,157.043 123.5,156.5C 124.451,155.081 124.784,153.415 124.5,151.5 Z"/></g>
<g><path style="opacity:1" fill="#929292" d="M 174.5,150.5 C 179.906,149.735 181.906,152.069 180.5,157.5C 178.533,157.739 176.699,157.406 175,156.5C 175.347,154.39 175.18,152.39 174.5,150.5 Z"/></g>
<g><path style="opacity:1" fill="#6c6c6c" d="M 127.5,151.5 C 128.919,150.549 130.585,150.216 132.5,150.5C 132.664,153.187 132.497,155.854 132,158.5C 130.186,159.76 128.353,159.76 126.5,158.5C 126.624,157.893 126.957,157.56 127.5,157.5C 128.209,158.404 129.209,158.737 130.5,158.5C 130.5,156.167 130.5,153.833 130.5,151.5C 129.5,151.5 128.5,151.5 127.5,151.5 Z"/></g>
<g><path style="opacity:1" fill="#f1e4ac" d="M 62.5,170.5 C 62.5,169.167 62.5,167.833 62.5,166.5C 60.2133,166.276 58.0466,165.609 56,164.5C 54.3745,165.289 52.8745,166.289 51.5,167.5C 50.914,167.291 50.414,166.957 50,166.5C 49.51,167.793 49.3433,169.127 49.5,170.5C 48.079,165.365 50.2457,162.365 56,161.5C 62.0184,162.151 64.1851,165.151 62.5,170.5 Z"/></g>
<g><path style="opacity:1" fill="#7d7d7d" d="M 27.5,166.5 C 29.1992,166.34 30.8659,166.506 32.5,167C 31.552,167.483 30.552,167.649 29.5,167.5C 29.7989,169.604 29.4656,171.604 28.5,173.5C 27.5258,171.257 27.1924,168.924 27.5,166.5 Z"/></g>
<g><path style="opacity:1" fill="#606060" d="M -0.5,173.5 C -0.5,172.167 -0.5,170.833 -0.5,169.5C 0.303736,167.811 1.30374,166.145 2.5,164.5C 5.14288,166.929 6.30955,169.929 6,173.5C 4.81388,171.323 2.98055,170.323 0.5,170.5C 0.737305,171.791 0.403972,172.791 -0.5,173.5 Z"/></g>
<g><path style="opacity:1" fill="#717171" d="M 7.5,166.5 C 13.2354,165.821 14.902,168.155 12.5,173.5C 10.9774,165.679 9.47735,165.679 8,173.5C 7.50335,171.19 7.33669,168.857 7.5,166.5 Z"/></g>
<g><path style="opacity:1" fill="#c8a04d" d="M 62.5,170.5 C 58.1667,177.167 53.8333,177.167 49.5,170.5C 49.3433,169.127 49.51,167.793 50,166.5C 50.414,166.957 50.914,167.291 51.5,167.5C 52.8745,166.289 54.3745,165.289 56,164.5C 58.0466,165.609 60.2133,166.276 62.5,166.5C 62.5,167.833 62.5,169.167 62.5,170.5 Z"/></g>
<g><path style="opacity:1" fill="#6c6c6c" d="M 22.5,172.5 C 19.9709,173.905 18.3043,173.072 17.5,170C 17.6301,168.941 18.1301,168.108 19,167.5C 19.4935,169.134 19.6602,170.801 19.5,172.5C 20.5,172.5 21.5,172.5 22.5,172.5 Z"/></g>
<g><path style="opacity:1" fill="#929292" d="M 22.5,172.5 C 22.0769,169.712 23.0769,167.712 25.5,166.5C 26.8333,168.833 26.8333,171.167 25.5,173.5C 24.5832,172.873 23.5832,172.539 22.5,172.5 Z"/></g>
<g><path style="opacity:1" fill="#7d7d7d" d="M 14.5,164.5 C 16.162,166.912 17.162,169.746 17.5,173C 16.552,173.483 15.552,173.649 14.5,173.5C 14.5,170.5 14.5,167.5 14.5,164.5 Z"/></g>
<g><path style="opacity:1" fill="#5f5f5f" d="M 35.5,167.5 C 37.0394,169.982 38.5394,169.982 40,167.5C 40.4828,168.448 40.6495,169.448 40.5,170.5C 36.0293,170.672 35.6959,171.506 39.5,173C 34.7282,173.81 33.3948,171.977 35.5,167.5 Z"/></g>
<g><path style="opacity:1" fill="#fcfcfc" d="M -0.5,189.5 C 83.8333,189.5 168.167,189.5 252.5,189.5C 252.5,256.833 252.5,324.167 252.5,391.5C 168.167,391.5 83.8333,391.5 -0.5,391.5C -0.5,390.5 -0.5,389.5 -0.5,388.5C 2.8432,388.192 5.8432,387.858 8.5,387.5C 11.3184,384.562 10.985,381.896 7.5,379.5C 6.4777,379.855 5.81103,380.522 5.5,381.5C 5.16667,381.5 4.83333,381.5 4.5,381.5C 3.06496,379.599 1.39829,379.266 -0.5,380.5C -0.5,377.5 -0.5,374.5 -0.5,371.5C 3.36005,371.888 7.36005,371.888 11.5,371.5C 11.7852,369.712 11.4519,368.045 10.5,366.5C 8.9974,367.052 7.33073,367.052 5.5,366.5C 5.64945,367.552 5.48278,368.552 5,369.5C 4.69287,366.124 2.85953,364.79 -0.5,365.5C -0.5,363.5 -0.5,361.5 -0.5,359.5C -0.166667,359.5 0.166667,359.5 0.5,359.5C 0.751154,361.17 1.41782,362.67 2.5,364C 12.3422,364.825 22.0089,364.658 31.5,363.5C 32.1667,363.5 32.8333,363.5 33.5,363.5C 50.1233,362.441 66.79,361.608 83.5,361C 85.0581,360.79 86.3915,360.29 87.5,359.5C 88.4584,359.047 89.2917,358.381 90,357.5C 90.4995,351.509 90.6662,345.509 90.5,339.5C 89.5,339.5 88.5,339.5 87.5,339.5C 68.1667,338.833 48.8333,338.167 29.5,337.5C 29.6495,336.448 29.4828,335.448 29,334.5C 27.3005,335.406 25.4672,335.739 23.5,335.5C 23.5,336.833 23.5,338.167 23.5,339.5C 23.1667,339.5 22.8333,339.5 22.5,339.5C 22.6691,334.959 22.0025,334.626 20.5,338.5C 19.6143,337.675 19.281,336.675 19.5,335.5C 12.6827,335.365 6.01602,335.365 -0.5,335.5C -0.5,332.167 -0.5,328.833 -0.5,325.5C 5.26113,325.291 5.59447,324.458 0.5,323C 3.3941,322.131 4.56077,320.298 4,317.5C 2.50978,316.272 1.00978,316.272 -0.5,317.5C -0.5,314.167 -0.5,310.833 -0.5,307.5C 0.14987,307.196 0.816537,306.863 1.5,306.5C 2.5237,307.853 3.85703,308.52 5.5,308.5C 6.05273,304.544 6.88607,304.544 8,308.5C 8.80678,304.551 9.30678,304.551 9.5,308.5C 13.8715,307.462 18.2048,307.462 22.5,308.5C 23.4837,303.342 24.3171,303.342 25,308.5C 25.4935,306.866 25.6602,305.199 25.5,303.5C 18.5178,303.956 11.5178,303.956 4.5,303.5C 4.65668,304.873 4.49001,306.207 4,307.5C 3.63971,305.579 2.80638,303.912 1.5,302.5C 0.816537,302.863 0.14987,303.196 -0.5,303.5C -0.5,296.5 -0.5,289.5 -0.5,282.5C 0.166667,280.833 0.833333,279.167 1.5,277.5C 1.57298,275.973 0.906316,274.973 -0.5,274.5C -0.5,270.833 -0.5,267.167 -0.5,263.5C 1.2049,266.287 2.37157,265.954 3,262.5C 5.03948,267.467 7.20614,267.634 9.5,263C 8.64391,260.646 6.97725,259.146 4.5,258.5C 3.20108,259.09 2.36775,260.09 2,261.5C 1.14825,260.429 0.314913,259.429 -0.5,258.5C -0.5,254.5 -0.5,250.5 -0.5,246.5C 3.14731,245.029 4.14731,242.529 2.5,239C 1.55198,238.517 0.551975,238.351 -0.5,238.5C -0.5,235.833 -0.5,233.167 -0.5,230.5C 1.24512,228.967 2.24512,226.967 2.5,224.5C 6.27946,230.13 8.27946,229.463 8.5,222.5C 6.59922,222.567 4.76589,222.233 3,221.5C 1.97008,221.836 1.47008,222.503 1.5,223.5C 1.63101,224.239 1.46434,224.906 1,225.5C 0.721579,224.584 0.221579,223.918 -0.5,223.5C -0.5,219.167 -0.5,214.833 -0.5,210.5C 1.41582,208.884 2.91582,209.218 4,211.5C 4.45296,208.691 3.61962,206.358 1.5,204.5C 0.824341,205.602 0.157674,206.602 -0.5,207.5C -0.5,201.5 -0.5,195.5 -0.5,189.5 Z"/></g>
<g><path style="opacity:1" fill="#969696" d="M 204.5,204.5 C 205.822,204.33 206.989,204.663 208,205.5C 207.577,207.387 207.744,209.387 208.5,211.5C 206.712,211.785 205.045,211.452 203.5,210.5C 208.28,210.916 208.446,209.916 204,207.5C 203.53,206.423 203.697,205.423 204.5,204.5 Z"/></g>
<g><path style="opacity:1" fill="#7c7c7c" d="M 106.5,205.5 C 110.289,206.596 110.289,207.263 106.5,207.5C 105.441,210.595 105.441,209.928 106.5,205.5 Z"/></g>
<g><path style="opacity:1" fill="#747474" d="M 175.5,205.5 C 178.004,203.969 179.337,204.803 179.5,208C 179.337,211.197 178.004,212.031 175.5,210.5C 177.252,210.582 178.252,209.749 178.5,208C 178.252,206.251 177.252,205.418 175.5,205.5 Z"/></g>
<g><path style="opacity:1" fill="#cccccc" d="M 186.5,205.5 C 187.833,207.167 187.833,208.833 186.5,210.5C 185.351,210.209 184.684,209.376 184.5,208C 184.684,206.624 185.351,205.791 186.5,205.5 Z"/></g>
<g><path style="opacity:1" fill="#707070" d="M 189.5,205.5 C 192.004,203.969 193.337,204.803 193.5,208C 193.337,211.197 192.004,212.031 189.5,210.5C 191.252,210.582 192.252,209.749 192.5,208C 192.252,206.251 191.252,205.418 189.5,205.5 Z"/></g>
<g><path style="opacity:1" fill="#919191" d="M 24.5,203.5 C 26.604,203.201 28.604,203.534 30.5,204.5C 29.1189,206.635 28.1189,208.968 27.5,211.5C 26.6798,208.699 25.6798,206.032 24.5,203.5 Z"/></g>
<g><path style="opacity:1" fill="#727272" d="M -0.5,210.5 C -0.5,209.5 -0.5,208.5 -0.5,207.5C 0.157674,206.602 0.824341,205.602 1.5,204.5C 3.61962,206.358 4.45296,208.691 4,211.5C 2.91582,209.218 1.41582,208.884 -0.5,210.5 Z"/></g>
<g><path style="opacity:1" fill="#5a5a5a" d="M 40.5,210.5 C 39.218,209.292 39.218,207.958 40.5,206.5C 40.9059,207.557 40.9059,208.891 40.5,210.5 Z"/></g>
<g><path style="opacity:1" fill="#9d9d9d" d="M 46.5,205.5 C 48.0174,205.511 49.1841,206.177 50,207.5C 50.8261,205.595 51.9928,205.261 53.5,206.5C 52.9851,208.225 52.3184,209.892 51.5,211.5C 49.674,211.08 47.674,211.08 45.5,211.5C 45.3253,209.379 45.6586,207.379 46.5,205.5 Z"/></g>
<g><path style="opacity:1" fill="#7b7b7b" d="M 57.5,203.5 C 63.373,203.598 63.7064,204.598 58.5,206.5C 63.6817,207.776 63.6817,208.443 58.5,208.5C 58.6495,209.552 58.4828,210.552 58,211.5C 57.5026,208.854 57.3359,206.187 57.5,203.5 Z"/></g>
<g><path style="opacity:1" fill="#969696" d="M 66.5,205.5 C 72.1132,204.079 74.2799,206.079 73,211.5C 71.8658,206.203 71.0325,206.203 70.5,211.5C 68.1667,211.5 65.8333,211.5 63.5,211.5C 63.3466,205.676 64.0133,205.343 65.5,210.5C 66.4519,208.955 66.7852,207.288 66.5,205.5 Z"/></g>
<g><path style="opacity:1" fill="#898989" d="M 101.5,205.5 C 102.496,205.414 103.329,205.748 104,206.5C 104.667,208.167 104.667,209.833 104,211.5C 103.091,206.27 101.925,206.27 100.5,211.5C 99.2291,209.194 99.5624,207.194 101.5,205.5 Z"/></g>
<g><path style="opacity:1" fill="#4a4a4a" d="M 127.5,210.5 C 128.5,210.5 129.5,210.5 130.5,210.5C 130.5,208.833 130.5,207.167 130.5,205.5C 131.513,206.659 131.847,208.659 131.5,211.5C 129.901,211.768 128.568,211.434 127.5,210.5 Z"/></g>
<g><path style="opacity:1" fill="#9e9e9e" d="M 155.5,204.5 C 160.436,205.241 160.77,207.074 156.5,210C 157.5,210.333 158.5,210.667 159.5,211C 157.741,211.798 156.074,211.631 154.5,210.5C 154.803,208.471 155.136,206.471 155.5,204.5 Z"/></g>
<g><path style="opacity:1" fill="#787878" d="M 172.5,210.5 C 170.847,211.799 169.347,211.466 168,209.5C 166.951,211.107 165.451,211.773 163.5,211.5C 163.5,209.167 163.5,206.833 163.5,204.5C 166.833,205.833 170.167,205.833 173.5,204.5C 173.795,206.735 173.461,208.735 172.5,210.5 Z"/></g>
<g><path style="opacity:1" fill="#ededed" d="M 172.5,210.5 C 169.044,209.464 168.71,207.797 171.5,205.5C 172.452,207.045 172.785,208.712 172.5,210.5 Z"/></g>
<g><path style="opacity:1" fill="#fafafa" d="M 164.5,205.5 C 165.649,205.791 166.316,206.624 166.5,208C 166.167,208.833 165.833,209.667 165.5,210.5C 164.548,208.955 164.215,207.288 164.5,205.5 Z"/></g>
<g><path style="opacity:1" fill="#cacaca" d="M 175.5,205.5 C 177.252,205.418 178.252,206.251 178.5,208C 178.252,209.749 177.252,210.582 175.5,210.5C 174.167,208.833 174.167,207.167 175.5,205.5 Z"/></g>
<g><path style="opacity:1" fill="#cbcbcb" d="M 189.5,205.5 C 191.252,205.418 192.252,206.251 192.5,208C 192.252,209.749 191.252,210.582 189.5,210.5C 188.167,208.833 188.167,207.167 189.5,205.5 Z"/></g>
<g><path style="opacity:1" fill="#8d8d8d" d="M 209.5,204.5 C 214.214,204.201 215.88,206.201 214.5,210.5C 212.955,211.452 211.288,211.785 209.5,211.5C 209.5,209.167 209.5,206.833 209.5,204.5 Z"/></g>
<g><path style="opacity:1" fill="#b4b4b4" d="M 15.5,210.5 C 14.5,210.5 13.5,210.5 12.5,210.5C 12.5,209.167 12.5,207.833 12.5,206.5C 15.0772,206.854 18.0772,206.854 21.5,206.5C 19.0266,208.098 19.0266,209.598 21.5,211C 19.5396,211.064 17.5396,210.898 15.5,210.5 Z"/></g>
<g><path style="opacity:1" fill="#9d9d9d" d="M 32.5,204.5 C 37.3848,204.384 39.3848,206.717 38.5,211.5C 36.8333,211.5 35.1667,211.5 33.5,211.5C 32.9675,206.203 32.1342,206.203 31,211.5C 30.8333,210.667 30.6667,209.833 30.5,209C 31.0735,207.393 31.7402,205.893 32.5,204.5 Z"/></g>
<g><path style="opacity:1" fill="#777777" d="M 40.5,210.5 C 41.4959,210.586 42.3292,210.252 43,209.5C 42.0209,207.721 42.3542,206.055 44,204.5C 44.4966,206.81 44.6633,209.143 44.5,211.5C 42.901,211.768 41.5676,211.434 40.5,210.5 Z"/></g>
<g><path style="opacity:1" fill="#7b7b7b" d="M 135.5,206.5 C 136.741,208.931 137.908,208.931 139,206.5C 139.335,209.18 138.501,211.513 136.5,213.5C 136.528,211.415 136.195,209.081 135.5,206.5 Z"/></g>
<g><path style="opacity:1" fill="#b1b1b1" d="M 141.5,205.5 C 145.35,205.701 146.35,207.534 144.5,211C 140.537,211.118 139.537,209.284 141.5,205.5 Z"/></g>
<g><path style="opacity:1" fill="#868686" d="M 186.5,205.5 C 185.351,205.791 184.684,206.624 184.5,208C 184.684,209.376 185.351,210.209 186.5,210.5C 184.061,211.649 182.728,210.649 182.5,207.5C 182.983,204.684 184.316,204.017 186.5,205.5 Z"/></g>
<g><path style="opacity:1" fill="#a9a9a9" d="M 222.5,205.5 C 224.854,205.838 227.187,206.338 229.5,207C 228.91,208.509 228.244,210.009 227.5,211.5C 225.722,211.431 223.889,211.097 222,210.5C 221.36,208.735 221.527,207.068 222.5,205.5 Z"/></g>
<g><path style="opacity:1" fill="#6e6e6e" d="M 9.5,210.5 C 8.15164,211.186 6.98498,212.186 6,213.5C 4.89818,210.095 5.73152,207.428 8.5,205.5C 10.6071,206.913 10.9405,208.58 9.5,210.5 Z"/></g>
<g><path style="opacity:1" fill="#e6e6e6" d="M 9.5,210.5 C 8.5,210.5 7.5,210.5 6.5,210.5C 6.5,209.5 6.5,208.5 6.5,207.5C 7.5,207.5 8.5,207.5 9.5,207.5C 9.5,208.5 9.5,209.5 9.5,210.5 Z"/></g>
<g><path style="opacity:1" fill="#505050" d="M 114.5,206.5 C 114.5,207.833 114.5,209.167 114.5,210.5C 115.5,210.5 116.5,210.5 117.5,210.5C 116.152,211.186 114.985,212.186 114,213.5C 113.204,210.961 113.371,208.628 114.5,206.5 Z"/></g>
<g><path style="opacity:1" fill="#a9a9a9" d="M 130.5,205.5 C 130.5,207.167 130.5,208.833 130.5,210.5C 129.5,210.5 128.5,210.5 127.5,210.5C 124.201,211.747 120.867,211.747 117.5,210.5C 116.5,210.5 115.5,210.5 114.5,210.5C 114.5,209.167 114.5,207.833 114.5,206.5C 117.3,205.097 118.8,206.097 119,209.5C 120.676,208.939 122.009,207.939 123,206.5C 123.333,207.833 123.667,209.167 124,210.5C 124.333,208.167 124.667,205.833 125,203.5C 126.044,204.623 126.71,205.956 127,207.5C 127.816,206.177 128.983,205.511 130.5,205.5 Z"/></g>
<g><path style="opacity:1" fill="#f6f6f6" d="M 210.5,206.5 C 211.5,206.5 212.5,206.5 213.5,206.5C 213.5,207.833 213.5,209.167 213.5,210.5C 212.5,210.5 211.5,210.5 210.5,210.5C 210.5,209.167 210.5,207.833 210.5,206.5 Z"/></g>
<g><path style="opacity:1" fill="#666666" d="M 12.5,206.5 C 12.5,207.833 12.5,209.167 12.5,210.5C 13.5,210.5 14.5,210.5 15.5,210.5C 14.4324,211.434 13.099,211.768 11.5,211.5C 11.2155,209.585 11.5489,207.919 12.5,206.5 Z"/></g>
<g><path style="opacity:1" fill="#6a6a6a" d="M 75.5,207.5 C 76.1047,205.974 77.2714,204.974 79,204.5C 79.4966,206.81 79.6633,209.143 79.5,211.5C 75.4828,212.161 74.1495,210.828 75.5,207.5 Z"/></g>
<g><path style="opacity:1" fill="#ededed" d="M 75.5,207.5 C 76.5,207.5 77.5,207.5 78.5,207.5C 77.7542,211.31 76.7542,211.31 75.5,207.5 Z"/></g>
<g><path style="opacity:1" fill="#9c9c9c" d="M 80.5,203.5 C 82.4586,204.871 84.6252,205.871 87,206.5C 87.6667,208.167 87.6667,209.833 87,211.5C 85.8658,206.203 85.0325,206.203 84.5,211.5C 83.1667,211.5 81.8333,211.5 80.5,211.5C 80.5,208.833 80.5,206.167 80.5,203.5 Z"/></g>
<g><path style="opacity:1" fill="#606060" d="M 146.5,206.5 C 147.835,211.535 149.001,211.535 150,206.5C 150.494,208.134 150.66,209.801 150.5,211.5C 149.167,211.5 147.833,211.5 146.5,211.5C 146.5,209.833 146.5,208.167 146.5,206.5 Z"/></g>
<g><path style="opacity:1" fill="#919191" d="M 219.5,204.5 C 220.797,206.693 220.797,209.027 219.5,211.5C 218.286,209.141 218.286,206.808 219.5,204.5 Z"/></g>
<g><path style="opacity:1" fill="#828282" d="M 88.5,206.5 C 89.2389,206.369 89.9056,206.536 90.5,207C 89.269,208.183 89.269,209.349 90.5,210.5C 91.1667,209.167 91.8333,207.833 92.5,206.5C 94.7113,211.132 93.378,213.465 88.5,213.5C 88.5,211.167 88.5,208.833 88.5,206.5 Z"/></g>
<g><path style="opacity:1" fill="#878787" d="M 81.5,222.5 C 87.3443,222.98 87.6776,224.147 82.5,226C 85.7423,226.283 86.0756,227.117 83.5,228.5C 81.7175,226.977 81.0508,224.977 81.5,222.5 Z"/></g>
<g><path style="opacity:1" fill="#5c5c5c" d="M 27.5,223.5 C 28.5676,222.566 29.901,222.232 31.5,222.5C 31.5,223.833 31.5,225.167 31.5,226.5C 31.5654,226.938 31.3988,227.272 31,227.5C 30.5,226.333 29.6667,225.5 28.5,225C 30.9316,223.913 30.5983,223.413 27.5,223.5 Z"/></g>
<g><path style="opacity:1" fill="#c4c4c4" d="M 2.5,224.5 C 2.5,223.833 2.16667,223.5 1.5,223.5C 1.47008,222.503 1.97008,221.836 3,221.5C 4.76589,222.233 6.59922,222.567 8.5,222.5C 8.27946,229.463 6.27946,230.13 2.5,224.5 Z"/></g>
<g><path style="opacity:1" fill="#5c5c5c" d="M 15.5,222.5 C 16.2389,222.369 16.9056,222.536 17.5,223C 16.1192,229.02 15.4526,228.853 15.5,222.5 Z"/></g>
<g><path style="opacity:1" fill="#727272" d="M 74.5,225.5 C 74.8481,219.604 76.0147,219.271 78,224.5C 78.2896,222.956 78.9563,221.623 80,220.5C 80.3058,222.951 79.8058,225.284 78.5,227.5C 77.4164,226.335 76.5831,225.002 76,223.5C 75.7216,224.416 75.2216,225.082 74.5,225.5 Z"/></g>
<g><path style="opacity:1" fill="#919191" d="M 112.5,223.5 C 113.568,222.566 114.901,222.232 116.5,222.5C 116.443,229.52 113.776,230.52 108.5,225.5C 108.167,226.167 107.833,226.833 107.5,227.5C 106.548,225.955 106.215,224.288 106.5,222.5C 107.833,222.5 109.167,222.5 110.5,222.5C 110.367,225.925 111.033,226.258 112.5,223.5 Z"/></g>
<g><path style="opacity:1" fill="#f2f2f2" d="M 112.5,223.5 C 113.5,223.5 114.5,223.5 115.5,223.5C 115.5,224.5 115.5,225.5 115.5,226.5C 114.5,226.5 113.5,226.5 112.5,226.5C 112.5,225.5 112.5,224.5 112.5,223.5 Z"/></g>
<g><path style="opacity:1" fill="#aaaaaa" d="M 118.5,222.5 C 123.394,223.54 123.727,225.54 119.5,228.5C 117.261,226.867 116.928,224.867 118.5,222.5 Z"/></g>
<g><path style="opacity:1" fill="#686665" d="M 150.5,227.5 C 150.167,227.5 149.833,227.5 149.5,227.5C 148.165,222.465 146.999,222.465 146,227.5C 145.506,225.866 145.34,224.199 145.5,222.5C 146.822,222.67 147.989,222.337 149,221.5C 149.5,222 150,222.5 150.5,223C 149.272,224.49 149.272,225.99 150.5,227.5 Z"/></g>
<g><path style="opacity:1" fill="#a99794" d="M 178.5,225.5 C 170.419,225.913 162.419,226.246 154.5,226.5C 154.5,225.167 154.5,223.833 154.5,222.5C 157.272,223.235 159.939,223.401 162.5,223C 161.549,223.718 161.383,224.551 162,225.5C 162.745,224.01 163.912,223.01 165.5,222.5C 169.881,222.691 174.214,222.691 178.5,222.5C 178.5,223.5 178.5,224.5 178.5,225.5 Z"/></g>
<g><path style="opacity:1" fill="#98716a" d="M 192.5,223.5 C 195.688,223.647 199.021,223.314 202.5,222.5C 202.5,224.5 202.5,226.5 202.5,228.5C 201.711,228.217 201.044,227.717 200.5,227C 201.731,225.817 201.731,224.651 200.5,223.5C 199.614,224.325 199.281,225.325 199.5,226.5C 198.778,226.082 198.278,225.416 198,224.5C 195.856,225.844 194.023,225.51 192.5,223.5 Z"/></g>
<g><path style="opacity:1" fill="#7d7d7a" d="M 208.5,229.5 C 207.833,229.5 207.5,229.167 207.5,228.5C 206.986,226.488 206.82,224.488 207,222.5C 208,225.167 209,225.167 210,222.5C 210.239,224.959 209.739,227.293 208.5,229.5 Z"/></g>
<g><path style="opacity:1" fill="#808080" d="M -0.5,223.5 C 0.221579,223.918 0.721579,224.584 1,225.5C 1.46434,224.906 1.63101,224.239 1.5,223.5C 2.16667,223.5 2.5,223.833 2.5,224.5C 2.24512,226.967 1.24512,228.967 -0.5,230.5C -0.5,228.167 -0.5,225.833 -0.5,223.5 Z"/></g>
<g><path style="opacity:1" fill="#848484" d="M 21.5,220.5 C 22.7495,221.778 24.2495,222.778 26,223.5C 26.0726,228.733 25.2393,228.733 23.5,223.5C 22.7189,224.729 22.2189,226.062 22,227.5C 21.5034,225.19 21.3367,222.857 21.5,220.5 Z"/></g>
<g><path style="opacity:1" fill="#838383" d="M 44.5,222.5 C 45.2216,222.918 45.7216,223.584 46,224.5C 47,221.833 48,221.833 49,224.5C 49.6667,223.833 50.3333,223.167 51,222.5C 52.6255,222.854 54.4588,222.854 56.5,222.5C 56.6534,228.324 55.9867,228.657 54.5,223.5C 53.8602,228.062 52.6936,228.396 51,224.5C 50.1597,227.464 49.1597,227.797 48,225.5C 47.3333,226.167 46.6667,226.833 46,227.5C 44.9914,225.975 44.4914,224.308 44.5,222.5 Z"/></g>
<g><path style="opacity:1" fill="#656565" d="M 74.5,225.5 C 74.6068,227.379 74.1068,227.712 73,226.5C 72.3189,224.471 71.9856,222.471 72,220.5C 72.9853,222.175 73.8186,223.842 74.5,225.5 Z"/></g>
<g><path style="opacity:1" fill="#7b7b7b" d="M 89.5,222.5 C 90.2216,222.918 90.7216,223.584 91,224.5C 91.3076,223.692 91.8076,223.025 92.5,222.5C 94.0062,223.23 95.3395,223.563 96.5,223.5C 96.0234,224.931 95.3567,226.264 94.5,227.5C 93.4826,224.972 92.3159,224.972 91,227.5C 89.9914,225.975 89.4914,224.308 89.5,222.5 Z"/></g>
<g><path style="opacity:1" fill="#7e7e7e" d="M 9.5,222.5 C 10.1614,223.718 10.8281,225.051 11.5,226.5C 13.4019,221.294 14.4019,221.627 14.5,227.5C 12.8333,227.5 11.1667,227.5 9.5,227.5C 9.5,225.833 9.5,224.167 9.5,222.5 Z"/></g>
<g><path style="opacity:1" fill="#9b9b9b" d="M 35.5,223.5 C 37.4085,223.117 38.9085,222.117 40,220.5C 40.9972,223.669 40.3305,226.336 38,228.5C 36.117,227.347 35.2837,225.681 35.5,223.5 Z"/></g>
<g><path style="opacity:1" fill="#727272" d="M 61.5,220.5 C 62.2679,221.263 62.7679,222.263 63,223.5C 63.7175,222.549 64.5509,222.383 65.5,223C 64.1667,224.333 64.1667,225.667 65.5,227C 64.2559,227.456 63.4226,226.956 63,225.5C 62.5357,226.094 62.369,226.761 62.5,227.5C 61.5318,225.393 61.1984,223.059 61.5,220.5 Z"/></g>
<g><path style="opacity:1" fill="#575857" d="M 123.5,222.5 C 124.833,222.5 126.167,222.5 127.5,222.5C 127.653,228.324 126.987,228.657 125.5,223.5C 124.013,228.657 123.347,228.324 123.5,222.5 Z"/></g>
<g><path style="opacity:1" fill="#9a9491" d="M 141.5,228.5 C 141.167,228.5 140.833,228.5 140.5,228.5C 139.852,226.914 139.352,225.247 139,223.5C 138.781,224.938 138.281,226.271 137.5,227.5C 136.167,225.167 136.167,222.833 137.5,220.5C 139.179,222.104 141.179,222.771 143.5,222.5C 143.286,224.144 143.62,225.644 144.5,227C 143.263,227.232 142.263,227.732 141.5,228.5 Z"/></g>
<g><path style="opacity:1" fill="#bf7264" d="M 192.5,223.5 C 192.586,224.496 192.252,225.329 191.5,226C 178.995,226.606 166.662,227.439 154.5,228.5C 153.833,228.833 153.167,229.167 152.5,229.5C 152.167,229.5 151.833,229.5 151.5,229.5C 151.5,229.167 151.5,228.833 151.5,228.5C 152.5,227.833 153.5,227.167 154.5,226.5C 162.419,226.246 170.419,225.913 178.5,225.5C 179.192,224.514 180.359,223.514 182,222.5C 183.762,222.944 183.595,223.444 181.5,224C 182.5,224.5 183.5,225 184.5,225.5C 186.042,224.253 187.542,224.253 189,225.5C 189.915,224.672 190.581,223.672 191,222.5C 191.383,223.056 191.883,223.389 192.5,223.5 Z"/></g>
<g><path style="opacity:1" fill="#b1b1b1" d="M 35.5,223.5 C 34.5489,224.919 34.2155,226.585 34.5,228.5C 32.1667,228.5 29.8333,228.5 27.5,228.5C 27.5,226.833 27.5,225.167 27.5,223.5C 30.5983,223.413 30.9316,223.913 28.5,225C 29.6667,225.5 30.5,226.333 31,227.5C 31.3988,227.272 31.5654,226.938 31.5,226.5C 32.4345,225.432 32.7678,224.099 32.5,222.5C 33.791,222.263 34.791,222.596 35.5,223.5 Z"/></g>
<g><path style="opacity:1" fill="#c9c9c9" d="M 61.5,220.5 C 61.1984,223.059 61.5318,225.393 62.5,227.5C 62.631,228.239 62.4643,228.906 62,229.5C 60.6439,228.62 59.1439,228.286 57.5,228.5C 56.9513,224.774 58.2846,222.107 61.5,220.5 Z"/></g>
<g><path style="opacity:1" fill="#a79c9b" d="M 134.5,228.5 C 133.833,228.5 133.167,228.5 132.5,228.5C 131.659,226.621 131.325,224.621 131.5,222.5C 132.833,222.5 134.167,222.5 135.5,222.5C 135.675,224.621 135.341,226.621 134.5,228.5 Z"/></g>
<g><path style="opacity:1" fill="#f2b5ab" d="M 149.5,227.5 C 149.833,227.5 150.167,227.5 150.5,227.5C 150.5,228.167 150.833,228.5 151.5,228.5C 151.5,228.833 151.5,229.167 151.5,229.5C 144.5,229.5 137.5,229.5 130.5,229.5C 130.842,228.662 131.508,228.328 132.5,228.5C 133.167,228.5 133.833,228.5 134.5,228.5C 136.5,228.5 138.5,228.5 140.5,228.5C 140.833,228.5 141.167,228.5 141.5,228.5C 144.385,228.806 147.052,228.473 149.5,227.5 Z"/></g>
<g><path style="opacity:1" fill="#c9c6c6" d="M 217.5,222.5 C 217.5,224.167 217.5,225.833 217.5,227.5C 218.833,227.5 220.167,227.5 221.5,227.5C 221.5,225.833 221.5,224.167 221.5,222.5C 222.873,222.343 224.207,222.51 225.5,223C 224.897,224.825 224.23,226.659 223.5,228.5C 221.463,228.498 219.463,228.832 217.5,229.5C 216.542,229.047 215.708,228.381 215,227.5C 214.329,228.252 213.496,228.586 212.5,228.5C 210.407,223.584 212.074,221.584 217.5,222.5 Z"/></g>
<g><path style="opacity:1" fill="#565a59" d="M 217.5,222.5 C 218.161,223.718 218.828,225.051 219.5,226.5C 220.172,225.051 220.839,223.718 221.5,222.5C 221.5,224.167 221.5,225.833 221.5,227.5C 220.167,227.5 218.833,227.5 217.5,227.5C 217.5,225.833 217.5,224.167 217.5,222.5 Z"/></g>
<g><path style="opacity:1" fill="#df7764" d="M 130.5,229.5 C 137.5,229.5 144.5,229.5 151.5,229.5C 151.833,229.5 152.167,229.5 152.5,229.5C 152.5,229.833 152.5,230.167 152.5,230.5C 144.847,231.097 137.18,231.597 129.5,232C 128.667,232.833 127.833,233.667 127,234.5C 126.782,237.426 126.282,240.26 125.5,243C 126.713,245.687 127.38,248.52 127.5,251.5C 126.85,251.196 126.183,250.863 125.5,250.5C 124.336,244.528 124.17,238.528 125,232.5C 126.866,231.473 128.7,230.473 130.5,229.5 Z"/></g>
<g><path style="opacity:1" fill="#f0c5bb" d="M 217.5,229.5 C 218.117,229.611 218.617,229.944 219,230.5C 219.5,236.825 219.666,243.158 219.5,249.5C 218.167,249.5 216.833,249.5 215.5,249.5C 215.5,249.167 215.5,248.833 215.5,248.5C 216.725,247.848 217.392,246.681 217.5,245C 216.901,240.511 216.401,236.011 216,231.5C 212.943,230.549 209.777,230.216 206.5,230.5C 206.328,229.508 206.662,228.842 207.5,228.5C 207.5,229.167 207.833,229.5 208.5,229.5C 209.959,229.567 211.292,229.234 212.5,228.5C 213.496,228.586 214.329,228.252 215,227.5C 215.708,228.381 216.542,229.047 217.5,229.5 Z"/></g>
<g><path style="opacity:1" fill="#cc1207" d="M 165.5,251.5 C 157.937,251.228 150.603,251.895 143.5,253.5C 139.167,253.5 134.833,253.5 130.5,253.5C 129.29,253.068 128.29,252.401 127.5,251.5C 127.38,248.52 126.713,245.687 125.5,243C 126.282,240.26 126.782,237.426 127,234.5C 127.833,233.667 128.667,232.833 129.5,232C 137.18,231.597 144.847,231.097 152.5,230.5C 167.214,229.712 181.714,231.045 196,234.5C 197.82,237.404 197.654,240.237 195.5,243C 191.095,243.764 187.095,245.431 183.5,248C 178.833,248.333 174.167,248.667 169.5,249C 167.934,249.608 166.6,250.442 165.5,251.5 Z"/></g>
<g><path style="opacity:1" fill="#6b6b6b" d="M 86.5,239.5 C 87.3864,238.224 88.3864,238.224 89.5,239.5C 88.7666,240.087 87.7666,240.087 86.5,239.5 Z"/></g>
<g><path style="opacity:1" fill="#858585" d="M 24.5,238.5 C 29.6519,239.64 29.6519,240.806 24.5,242C 25.3279,242.915 26.3279,243.581 27.5,244C 23.5369,244.118 22.5369,242.284 24.5,238.5 Z"/></g>
<g><path style="opacity:1" fill="#c9c9c9" d="M 44.5,239.5 C 45.5862,239.62 46.2528,240.287 46.5,241.5C 46.2528,242.713 45.5862,243.38 44.5,243.5C 43.1667,242.167 43.1667,240.833 44.5,239.5 Z"/></g>
<g><path style="opacity:1" fill="#838383" d="M 62.5,238.5 C 64.0889,244.931 65.5889,244.931 67,238.5C 67.4955,240.473 67.6621,242.473 67.5,244.5C 63.0917,244.938 61.4251,242.938 62.5,238.5 Z"/></g>
<g><path style="opacity:1" fill="#5f5f5f" d="M 68.5,238.5 C 69.552,238.351 70.552,238.517 71.5,239C 69.9963,240.491 69.1629,242.324 69,244.5C 68.5045,242.527 68.3379,240.527 68.5,238.5 Z"/></g>
<g><path style="opacity:1" fill="#9a9a9a" d="M 86.5,239.5 C 86.5,240.5 86.5,241.5 86.5,242.5C 89.7973,242.329 90.1306,242.995 87.5,244.5C 86.1521,242.539 84.8187,242.372 83.5,244C 81.0049,244.157 78.6716,244.324 76.5,244.5C 75.5,244.167 74.8333,243.5 74.5,242.5C 75.0016,241.284 75.3349,240.117 75.5,239C 78.5541,238.179 81.5541,238.345 84.5,239.5C 84.0623,240.506 83.3957,240.506 82.5,239.5C 81.1667,240.5 81.1667,241.5 82.5,242.5C 84.1595,241.828 85.4928,240.828 86.5,239.5 Z"/></g>
<g><path style="opacity:1" fill="#737373" d="M 99.5,238.5 C 100.461,240.265 100.795,242.265 100.5,244.5C 99.448,244.649 98.448,244.483 97.5,244C 99.1922,242.599 99.8588,240.766 99.5,238.5 Z"/></g>
<g><path style="opacity:1" fill="#e6735d" d="M 192.5,223.5 C 194.023,225.51 195.856,225.844 198,224.5C 198.278,225.416 198.778,226.082 199.5,226.5C 199.402,228.553 200.069,230.22 201.5,231.5C 204.55,232.887 207.717,234.22 211,235.5C 211.499,239.486 211.666,243.486 211.5,247.5C 198.854,251.307 185.854,252.974 172.5,252.5C 178.658,251.535 184.992,250.868 191.5,250.5C 191.281,249.325 191.614,248.325 192.5,247.5C 194.919,247.086 196.919,246.086 198.5,244.5C 200.453,243.756 201.453,242.256 201.5,240C 201.343,237.363 200.677,234.863 199.5,232.5C 184.756,229.393 169.756,228.06 154.5,228.5C 166.662,227.439 178.995,226.606 191.5,226C 192.252,225.329 192.586,224.496 192.5,223.5 Z"/></g>
<g><path style="opacity:1" fill="#e9a89c" d="M 202.5,228.5 C 202.389,229.117 202.056,229.617 201.5,230C 203.134,230.494 204.801,230.66 206.5,230.5C 209.777,230.216 212.943,230.549 216,231.5C 216.401,236.011 216.901,240.511 217.5,245C 217.392,246.681 216.725,247.848 215.5,248.5C 215.687,242.788 215.354,237.121 214.5,231.5C 210.167,231.5 205.833,231.5 201.5,231.5C 200.069,230.22 199.402,228.553 199.5,226.5C 199.281,225.325 199.614,224.325 200.5,223.5C 201.731,224.651 201.731,225.817 200.5,227C 201.044,227.717 201.711,228.217 202.5,228.5 Z"/></g>
<g><path style="opacity:1" fill="#535353" d="M 34.5,239.5 C 35.2376,237.24 36.2376,237.073 37.5,239C 36.7734,240.399 36.2734,241.899 36,243.5C 35.79,241.942 35.29,240.609 34.5,239.5 Z"/></g>
<g><path style="opacity:1" fill="#8c8c8c" d="M 60.5,239.5 C 59.4138,239.62 58.7472,240.287 58.5,241.5C 58.7472,242.713 59.4138,243.38 60.5,243.5C 59.7494,244.573 58.7494,244.74 57.5,244C 56.9152,242.698 56.2485,241.531 55.5,240.5C 55.369,239.761 55.5357,239.094 56,238.5C 57.5206,238.519 59.0206,238.852 60.5,239.5 Z"/></g>
<g><path style="opacity:1" fill="#cdcdcd" d="M 60.5,239.5 C 61.8333,240.833 61.8333,242.167 60.5,243.5C 59.4138,243.38 58.7472,242.713 58.5,241.5C 58.7472,240.287 59.4138,239.62 60.5,239.5 Z"/></g>
<g><path style="opacity:1" fill="#cacaca" d="M 91.5,239.5 C 95.5,240.833 95.5,242.167 91.5,243.5C 90.1667,242.167 90.1667,240.833 91.5,239.5 Z"/></g>
<g><path style="opacity:1" fill="#7d7d7d" d="M 107.5,238.5 C 108.239,238.369 108.906,238.536 109.5,239C 108.657,240.787 108.49,242.62 109,244.5C 107.681,242.75 107.181,240.75 107.5,238.5 Z"/></g>
<g><path style="opacity:1" fill="#e88e7d" d="M 201.5,231.5 C 205.833,231.5 210.167,231.5 214.5,231.5C 215.354,237.121 215.687,242.788 215.5,248.5C 215.5,248.833 215.5,249.167 215.5,249.5C 204.974,251.851 194.307,253.185 183.5,253.5C 179.5,253.5 175.5,253.5 171.5,253.5C 171.5,252.833 171.833,252.5 172.5,252.5C 185.854,252.974 198.854,251.307 211.5,247.5C 211.666,243.486 211.499,239.486 211,235.5C 207.717,234.22 204.55,232.887 201.5,231.5 Z"/></g>
<g><path style="opacity:1" fill="#8a8a8a" d="M 5.5,239.5 C 7.11882,238.928 8.78549,238.595 10.5,238.5C 11.4865,242.375 12.6532,242.375 14,238.5C 14.2566,241.017 13.5899,243.35 12,245.5C 11.5291,243.754 10.8624,242.087 10,240.5C 9.66667,241.833 9.33333,243.167 9,244.5C 7.99164,244.018 6.82497,243.852 5.5,244C 4.20916,241.91 4.87583,240.576 7.5,240C 6.90558,239.536 6.23891,239.369 5.5,239.5 Z"/></g>
<g><path style="opacity:1" fill="#626262" d="M 15.5,238.5 C 17.8333,238.5 20.1667,238.5 22.5,238.5C 22.6534,244.324 21.9867,244.657 20.5,239.5C 19.7189,240.729 19.2189,242.062 19,243.5C 18,238.167 17,238.167 16,243.5C 15.5065,241.866 15.3398,240.199 15.5,238.5 Z"/></g>
<g><path style="opacity:1" fill="#767676" d="M 34.5,239.5 C 33.9782,246.136 33.1449,246.136 32,239.5C 30.883,240.949 30.2163,242.616 30,244.5C 29.5045,242.527 29.3379,240.527 29.5,238.5C 31.2915,238.366 32.9582,238.699 34.5,239.5 Z"/></g>
<g><path style="opacity:1" fill="#8a8a8a" d="M 40.5,237.5 C 41.7251,238.152 42.3917,239.319 42.5,241C 42.3333,242.167 42.1667,243.333 42,244.5C 40.6485,242.406 40.1485,240.073 40.5,237.5 Z"/></g>
<g><path style="opacity:1" fill="#979797" d="M 101.5,238.5 C 102.873,238.343 104.207,238.51 105.5,239C 104.141,240.204 103.141,241.704 102.5,243.5C 101.548,241.955 101.215,240.288 101.5,238.5 Z"/></g>
<g><path style="opacity:1" fill="#9d9d9d" d="M 119.5,237.5 C 120.629,239.628 120.796,241.961 120,244.5C 118.044,244.216 115.877,244.216 113.5,244.5C 114.052,242.669 114.052,241.003 113.5,239.5C 114.689,238.571 116.022,238.238 117.5,238.5C 117.343,239.873 117.51,241.207 118,242.5C 118.352,240.753 118.852,239.086 119.5,237.5 Z"/></g>
<g><path style="opacity:1" fill="#9a9a9a" d="M -0.5,238.5 C 0.551975,238.351 1.55198,238.517 2.5,239C 4.14731,242.529 3.14731,245.029 -0.5,246.5C -0.5,243.833 -0.5,241.167 -0.5,238.5 Z"/></g>
<g><path style="opacity:1" fill="#919191" d="M 44.5,239.5 C 46.6839,238.017 48.0173,238.684 48.5,241.5C 48.0173,244.316 46.6839,244.983 44.5,243.5C 45.5862,243.38 46.2528,242.713 46.5,241.5C 46.2528,240.287 45.5862,239.62 44.5,239.5 Z"/></g>
<g><path style="opacity:1" fill="#9d9d9d" d="M 55.5,240.5 C 55.4348,242.696 54.7681,244.696 53.5,246.5C 52.7267,244.187 52.0601,241.854 51.5,239.5C 51.8333,239.167 52.1667,238.833 52.5,238.5C 53.2811,239.729 53.7811,241.062 54,242.5C 54.2784,241.584 54.7784,240.918 55.5,240.5 Z"/></g>
<g><path style="opacity:1" fill="#848484" d="M 91.5,239.5 C 93.6839,238.017 95.0173,238.684 95.5,241.5C 95.0173,244.316 93.6839,244.983 91.5,243.5C 95.5,242.167 95.5,240.833 91.5,239.5 Z"/></g>
<g><path style="opacity:1" fill="#e03e28" d="M 154.5,228.5 C 169.756,228.06 184.756,229.393 199.5,232.5C 200.677,234.863 201.343,237.363 201.5,240C 201.453,242.256 200.453,243.756 198.5,244.5C 193.994,244.788 189.994,246.288 186.5,249C 179.297,249.048 172.297,249.882 165.5,251.5C 166.6,250.442 167.934,249.608 169.5,249C 174.167,248.667 178.833,248.333 183.5,248C 187.095,245.431 191.095,243.764 195.5,243C 197.654,240.237 197.82,237.404 196,234.5C 181.714,231.045 167.214,229.712 152.5,230.5C 152.5,230.167 152.5,229.833 152.5,229.5C 153.167,229.167 153.833,228.833 154.5,228.5 Z"/></g>
<g><path style="opacity:1" fill="#e6634e" d="M 198.5,244.5 C 196.919,246.086 194.919,247.086 192.5,247.5C 191.614,248.325 191.281,249.325 191.5,250.5C 184.992,250.868 178.658,251.535 172.5,252.5C 171.833,252.5 171.5,252.833 171.5,253.5C 162.167,253.5 152.833,253.5 143.5,253.5C 150.603,251.895 157.937,251.228 165.5,251.5C 172.297,249.882 179.297,249.048 186.5,249C 189.994,246.288 193.994,244.788 198.5,244.5 Z"/></g>
<g><path style="opacity:1" fill="#fcd4cb" d="M 130.5,253.5 C 134.833,253.5 139.167,253.5 143.5,253.5C 152.833,253.5 162.167,253.5 171.5,253.5C 175.5,253.5 179.5,253.5 183.5,253.5C 168.654,254.214 153.654,254.88 138.5,255.5C 135.614,255.196 132.948,254.529 130.5,253.5 Z"/></g>
<g><path style="opacity:1" fill="#aeaeae" d="M -0.5,258.5 C 0.314913,259.429 1.14825,260.429 2,261.5C 2.36775,260.09 3.20108,259.09 4.5,258.5C 6.97725,259.146 8.64391,260.646 9.5,263C 7.20614,267.634 5.03948,267.467 3,262.5C 2.37157,265.954 1.2049,266.287 -0.5,263.5C -0.5,261.833 -0.5,260.167 -0.5,258.5 Z"/></g>
<g><path style="opacity:1" fill="#636363" d="M 36.5,260.5 C 37.8333,260.5 39.1667,260.5 40.5,260.5C 40.6534,266.324 39.9867,266.657 38.5,261.5C 37.0133,266.657 36.3466,266.324 36.5,260.5 Z"/></g>
<g><path style="opacity:1" fill="#6c6c6c" d="M 215.5,259.5 C 215.912,261.973 214.912,263.306 212.5,263.5C 213.141,262.518 213.807,261.518 214.5,260.5C 213.975,259.808 213.308,259.308 212.5,259C 213.749,258.26 214.749,258.427 215.5,259.5 Z"/></g>
<g><path style="opacity:1" fill="#9e9e9e" d="M 104.5,258.5 C 105.725,259.152 106.392,260.319 106.5,262C 106.455,264.22 105.455,265.72 103.5,266.5C 102.119,266 101.453,265 101.5,263.5C 102.267,261.643 103.267,259.976 104.5,258.5 Z"/></g>
<g><path style="opacity:1" fill="#868686" d="M 152.5,258.5 C 153.315,259.429 154.148,260.429 155,261.5C 155.249,260.376 155.749,259.376 156.5,258.5C 157.806,259.912 158.64,261.579 159,263.5C 159.216,261.616 159.883,259.949 161,258.5C 161.051,261.187 160.551,263.854 159.5,266.5C 158.194,265.088 157.36,263.421 157,261.5C 156.417,263.002 155.584,264.335 154.5,265.5C 153.056,263.392 152.39,261.059 152.5,258.5 Z"/></g>
<g><path style="opacity:1" fill="#989898" d="M 195.5,260.5 C 197.674,260.92 199.674,260.92 201.5,260.5C 202.251,261.376 202.751,262.376 203,263.5C 203.419,262.328 204.085,261.328 205,260.5C 204.975,262.92 204.309,265.253 203,267.5C 202.346,268.696 201.846,268.696 201.5,267.5C 202.661,265.776 202.495,264.11 201,262.5C 200.51,263.793 200.343,265.127 200.5,266.5C 196.092,266.938 194.425,264.938 195.5,260.5 Z"/></g>
<g><path style="opacity:1" fill="#979797" d="M 15.5,260.5 C 16.552,260.351 17.552,260.517 18.5,261C 16.7718,267.048 15.7718,266.882 15.5,260.5 Z"/></g>
<g><path style="opacity:1" fill="#545454" d="M 22.5,260.5 C 24.8333,260.5 27.1667,260.5 29.5,260.5C 29.6534,266.324 28.9867,266.657 27.5,261.5C 26.7189,262.729 26.2189,264.062 26,265.5C 25,260.167 24,260.167 23,265.5C 22.5065,263.866 22.3398,262.199 22.5,260.5 Z"/></g>
<g><path style="opacity:1" fill="#a8a8a8" d="M 31.5,260.5 C 36.394,261.54 36.7274,263.54 32.5,266.5C 30.261,264.867 29.9277,262.867 31.5,260.5 Z"/></g>
<g><path style="opacity:1" fill="#686868" d="M 65.5,261.5 C 67.3218,262.325 68.9885,262.658 70.5,262.5C 69.2713,263.281 67.938,263.781 66.5,264C 67.6956,264.654 67.6956,265.154 66.5,265.5C 65.5713,264.311 65.238,262.978 65.5,261.5 Z"/></g>
<g><path style="opacity:1" fill="#737373" d="M 74.5,260.5 C 75.2121,262.794 74.3787,264.794 72,266.5C 71.7556,264.07 72.589,262.07 74.5,260.5 Z"/></g>
<g><path style="opacity:1" fill="#595959" d="M 110.5,261.5 C 111.568,260.566 112.901,260.232 114.5,260.5C 114.66,262.199 114.494,263.866 114,265.5C 113.5,264.333 112.667,263.5 111.5,263C 113.932,261.913 113.598,261.413 110.5,261.5 Z"/></g>
<g><path style="opacity:1" fill="#bababa" d="M 212.5,263.5 C 214.912,263.306 215.912,261.973 215.5,259.5C 220.604,257.435 222.437,259.101 221,264.5C 220.311,265.357 219.478,266.023 218.5,266.5C 217.005,265.888 215.338,265.888 213.5,266.5C 209.93,266.245 209.597,265.245 212.5,263.5 Z"/></g>
<g><path style="opacity:1" fill="#838383" d="M 42.5,260.5 C 47.0296,261.02 47.3629,262.186 43.5,264C 46.7423,264.283 47.0756,265.117 44.5,266.5C 41.6095,265.163 40.9428,263.163 42.5,260.5 Z"/></g>
<g><path style="opacity:1" fill="#8b8b8b" d="M 58.5,260.5 C 61.5983,260.413 61.9316,260.913 59.5,262C 63.3215,263.144 63.4881,264.644 60,266.5C 56.6105,265.268 56.7771,264.434 60.5,264C 58.0614,263.467 57.3948,262.3 58.5,260.5 Z"/></g>
<g><path style="opacity:1" fill="#636363" d="M 80.5,261.5 C 81.782,262.708 81.782,264.042 80.5,265.5C 79.5745,266.641 78.7412,266.641 78,265.5C 77.6667,266.167 77.3333,266.833 77,267.5C 76.5034,265.19 76.3367,262.857 76.5,260.5C 78.099,260.232 79.4324,260.566 80.5,261.5 Z"/></g>
<g><path style="opacity:1" fill="#e9e9e9" d="M 80.5,261.5 C 80.5,262.5 80.5,263.5 80.5,264.5C 79.5,264.5 78.5,264.5 77.5,264.5C 77.5,263.5 77.5,262.5 77.5,261.5C 78.5,261.5 79.5,261.5 80.5,261.5 Z"/></g>
<g><path style="opacity:1" fill="#a0a0a0" d="M 115.5,260.5 C 117.527,260.338 119.527,260.505 121.5,261C 120.283,266.406 119.116,266.573 118,261.5C 116.542,266.594 115.709,266.261 115.5,260.5 Z"/></g>
<g><path style="opacity:1" fill="#6f6f6f" d="M 129.5,261.5 C 126.924,267.088 125.424,266.754 125,260.5C 125.915,261.328 126.581,262.328 127,263.5C 127.249,262.376 127.749,261.376 128.5,260.5C 129.107,260.624 129.44,260.957 129.5,261.5 Z"/></g>
<g><path style="opacity:1" fill="#8a8989" d="M 162.5,260.5 C 163.833,260.5 165.167,260.5 166.5,260.5C 166.5,261.5 166.5,262.5 166.5,263.5C 162.551,263.693 162.551,264.193 166.5,265C 164.041,266.938 162.374,266.271 161.5,263C 161.743,262.098 162.077,261.265 162.5,260.5 Z"/></g>
<g><path style="opacity:1" fill="#5e5d5d" d="M 173.5,260.5 C 174.833,260.5 176.167,260.5 177.5,260.5C 177.653,266.324 176.987,266.657 175.5,261.5C 174.013,266.657 173.347,266.324 173.5,260.5 Z"/></g>
<g><path style="opacity:1" fill="#858585" d="M 179.5,260.5 C 184.03,261.02 184.363,262.186 180.5,264C 183.742,264.283 184.076,265.117 181.5,266.5C 178.61,265.163 177.943,263.163 179.5,260.5 Z"/></g>
<g><path style="opacity:1" fill="#808080" d="M 47.5,260.5 C 50.8247,262.803 51.1581,265.47 48.5,268.5C 48.6946,265.963 48.3612,263.297 47.5,260.5 Z"/></g>
<g><path style="opacity:1" fill="#919191" d="M 82.5,260.5 C 85.5464,261.394 88.5464,261.561 91.5,261C 90.572,261.388 89.9054,262.055 89.5,263C 90.3839,264.098 91.3839,264.598 92.5,264.5C 91.7579,265.287 90.9246,265.953 90,266.5C 88.4749,263.913 86.3083,263.08 83.5,264C 86.7423,264.283 87.0756,265.117 84.5,266.5C 82.7175,264.977 82.0508,262.977 82.5,260.5 Z"/></g>
<g><path style="opacity:1" fill="#4d4d4d" d="M 95.5,261.5 C 94.8333,262.833 94.1667,264.167 93.5,265.5C 93.7135,263.856 93.3802,262.356 92.5,261C 93.7624,259.073 94.7624,259.24 95.5,261.5 Z"/></g>
<g><path style="opacity:1" fill="#a7a7a7" d="M 93.5,265.5 C 94.1667,264.167 94.8333,262.833 95.5,261.5C 97.5514,259.962 99.218,260.296 100.5,262.5C 95.2792,263.624 95.2792,264.458 100.5,265C 99.9747,265.692 99.3081,266.192 98.5,266.5C 96.6961,266.014 95.0294,265.681 93.5,265.5 Z"/></g>
<g><path style="opacity:1" fill="#999999" d="M 129.5,261.5 C 131.01,262.728 132.51,262.728 134,261.5C 134.667,262.833 134.667,264.167 134,265.5C 130.978,266.331 129.478,264.998 129.5,261.5 Z"/></g>
<g><path style="opacity:1" fill="#969595" d="M 139.5,260.5 C 142.346,261.095 145.346,261.095 148.5,260.5C 148.653,266.324 147.987,266.657 146.5,261.5C 145.833,262.833 145.167,264.167 144.5,265.5C 143.038,264.529 141.705,264.862 140.5,266.5C 138.261,264.867 137.928,262.867 139.5,260.5 Z"/></g>
<g><path style="opacity:1" fill="#9f9f9f" d="M 193.5,258.5 C 194.797,260.693 194.797,263.027 193.5,265.5C 192.833,265.833 192.167,266.167 191.5,266.5C 189.509,265.573 187.509,265.406 185.5,266C 184.594,264.301 184.261,262.467 184.5,260.5C 185.833,260.5 187.167,260.5 188.5,260.5C 188.351,261.552 188.517,262.552 189,263.5C 190.356,261.591 191.856,259.924 193.5,258.5 Z"/></g>
<g><path style="opacity:1" fill="#858585" d="M 10.5,260.5 C 11.8347,265.535 13.0013,265.535 14,260.5C 14.4955,262.473 14.6621,264.473 14.5,266.5C 10.9319,266.241 9.59853,264.241 10.5,260.5 Z"/></g>
<g><path style="opacity:1" fill="#a9a9a9" d="M 171.5,258.5 C 172.473,260.948 172.806,263.615 172.5,266.5C 169.739,267.085 168.073,266.085 167.5,263.5C 168.5,261.52 169.833,259.854 171.5,258.5 Z"/></g>
<g><path style="opacity:1" fill="#7c7c7c" d="M 27.5,277.5 C 26.3984,282.678 25.5651,282.678 25,277.5C 23.883,278.949 23.2163,280.616 23,282.5C 22.5045,280.527 22.3379,278.527 22.5,276.5C 24.2915,276.366 25.9582,276.699 27.5,277.5 Z"/></g>
<g><path style="opacity:1" fill="#868686" d="M 37.5,276.5 C 42.6519,277.64 42.6519,278.806 37.5,280C 38.5719,281.284 39.9052,281.617 41.5,281C 36.7576,283.064 35.4243,281.564 37.5,276.5 Z"/></g>
<g><path style="opacity:1" fill="#f5f5f5" d="M 63.5,278.5 C 61.9382,278.733 60.6049,279.4 59.5,280.5C 59.4501,278.41 60.4501,277.077 62.5,276.5C 63.2975,276.957 63.6309,277.624 63.5,278.5 Z"/></g>
<g><path style="opacity:1" fill="#979797" d="M 159.5,276.5 C 161.331,277.052 162.997,277.052 164.5,276.5C 165.486,280.375 166.653,280.375 168,276.5C 168.079,279.37 167.245,282.036 165.5,284.5C 165.845,282.618 165.345,280.618 164,278.5C 163.51,279.793 163.343,281.127 163.5,282.5C 161.856,282.714 160.356,282.38 159,281.5C 159.309,279.749 159.475,278.082 159.5,276.5 Z"/></g>
<g><path style="opacity:1" fill="#909090" d="M 9.5,277.5 C 8.41383,277.62 7.74716,278.287 7.5,279.5C 7.74716,280.713 8.41383,281.38 9.5,281.5C 7.88118,282.072 6.21451,282.405 4.5,282.5C 2.7377,281.312 1.7377,279.645 1.5,277.5C 2.11742,277.611 2.61742,277.944 3,278.5C 3.62276,274.068 4.62276,273.735 6,277.5C 7.29167,276.209 8.45834,276.209 9.5,277.5 Z"/></g>
<g><path style="opacity:1" fill="#898989" d="M 14.5,280.5 C 13.7519,282.735 12.9186,282.402 12,279.5C 11.2917,280.381 10.4584,281.047 9.5,281.5C 9.5,280.167 9.5,278.833 9.5,277.5C 10.8249,278.953 11.6582,278.619 12,276.5C 12.6082,278.066 13.4415,279.4 14.5,280.5 Z"/></g>
<g><path style="opacity:1" fill="#636363" d="M 42.5,276.5 C 43.552,276.351 44.552,276.517 45.5,277C 43.9963,278.491 43.1629,280.324 43,282.5C 42.5045,280.527 42.3379,278.527 42.5,276.5 Z"/></g>
<g><path style="opacity:1" fill="#8e8e8e" d="M 87.5,276.5 C 88.6935,276.97 89.3601,277.97 89.5,279.5C 89.3333,280.5 89.1667,281.5 89,282.5C 87.6814,280.75 87.1814,278.75 87.5,276.5 Z"/></g>
<g><path style="opacity:1" fill="#9c9c9c" d="M 119.5,274.5 C 120.473,276.948 120.806,279.615 120.5,282.5C 118.193,282.014 116.027,282.014 114,282.5C 113,275.833 112,275.833 111,282.5C 110.505,280.527 110.338,278.527 110.5,276.5C 112.262,276.357 113.929,276.691 115.5,277.5C 117.483,277.185 118.816,276.185 119.5,274.5 Z"/></g>
<g><path style="opacity:1" fill="#c5c5c5" d="M 125.5,277.5 C 129.5,278.833 129.5,280.167 125.5,281.5C 124.167,280.167 124.167,278.833 125.5,277.5 Z"/></g>
<g><path style="opacity:1" fill="#777777" d="M 138.5,274.5 C 139.749,275.778 141.249,276.778 143,277.5C 143.667,279.167 143.667,280.833 143,282.5C 141.546,275.862 140.379,275.862 139.5,282.5C 138.5,282.5 137.5,282.5 136.5,282.5C 136.739,280.533 136.406,278.699 135.5,277C 136,276.5 136.5,276 137,275.5C 137.333,277.5 137.667,279.5 138,281.5C 138.497,279.19 138.663,276.857 138.5,274.5 Z"/></g>
<g><path style="opacity:1" fill="#8d8d8d" d="M 145.5,276.5 C 147.359,276.461 148.692,277.294 149.5,279C 147.598,279.199 146.098,280.033 145,281.5C 144.36,279.735 144.527,278.068 145.5,276.5 Z"/></g>
<g><path style="opacity:1" fill="#797979" d="M -0.5,274.5 C 0.906316,274.973 1.57298,275.973 1.5,277.5C 0.833333,279.167 0.166667,280.833 -0.5,282.5C -0.5,279.833 -0.5,277.167 -0.5,274.5 Z"/></g>
<g><path style="opacity:1" fill="#f4f4f4" d="M 9.5,277.5 C 9.5,278.833 9.5,280.167 9.5,281.5C 8.41383,281.38 7.74716,280.713 7.5,279.5C 7.74716,278.287 8.41383,277.62 9.5,277.5 Z"/></g>
<g><path style="opacity:1" fill="#939393" d="M 14.5,280.5 C 14.238,279.022 14.5713,277.689 15.5,276.5C 16.5984,277.615 17.7651,277.615 19,276.5C 19.772,276.645 20.4387,276.978 21,277.5C 21.4935,279.134 21.6602,280.801 21.5,282.5C 18.5203,282.759 16.687,281.426 16,278.5C 15.7216,279.416 15.2216,280.082 14.5,280.5 Z"/></g>
<g><path style="opacity:1" fill="#a1a1a1" d="M 27.5,277.5 C 28.1894,276.226 29.0228,276.226 30,277.5C 30.2492,276.376 30.7492,275.376 31.5,274.5C 37.4986,279.844 36.4986,282.511 28.5,282.5C 28.7845,280.585 28.4511,278.919 27.5,277.5 Z"/></g>
<g><path style="opacity:1" fill="#9b9b9b" d="M 73.5,274.5 C 76.7282,275.522 79.5615,277.189 82,279.5C 82.5556,277.405 83.0556,277.238 83.5,279C 81.1502,285.982 79.9835,286.149 80,279.5C 78.4912,281.919 76.3245,282.919 73.5,282.5C 73.5,279.833 73.5,277.167 73.5,274.5 Z"/></g>
<g><path style="opacity:1" fill="#545454" d="M 130.5,274.5 C 131.239,274.369 131.906,274.536 132.5,275C 132.064,277.178 131.564,279.678 131,282.5C 130.503,279.854 130.336,277.187 130.5,274.5 Z"/></g>
<g><path style="opacity:1" fill="#9e9e9e" d="M 63.5,278.5 C 63.6309,277.624 63.2975,276.957 62.5,276.5C 60.4501,277.077 59.4501,278.41 59.5,280.5C 58.8444,281.278 58.0111,281.944 57,282.5C 56.2352,282.43 55.7352,282.097 55.5,281.5C 53.4427,282.085 51.1094,282.085 48.5,281.5C 49.6477,279.851 50.981,278.351 52.5,277C 51.2161,276.316 50.0495,276.483 49,277.5C 49.6138,273.974 51.2805,273.641 54,276.5C 55.7748,273.956 57.6082,273.956 59.5,276.5C 63.1709,273.663 64.5042,274.33 63.5,278.5 Z"/></g>
<g><path style="opacity:1" fill="#f6f6f6" d="M 55.5,281.5 C 55.2148,279.712 55.5481,278.045 56.5,276.5C 56.8333,277.333 57.1667,278.167 57.5,279C 57.3158,280.376 56.6491,281.209 55.5,281.5 Z"/></g>
<g><path style="opacity:1" fill="#808080" d="M 63.5,278.5 C 63.0472,279.458 62.3805,280.292 61.5,281C 64.9374,281.649 65.104,282.149 62,282.5C 60.6244,282.316 59.7911,281.649 59.5,280.5C 60.6049,279.4 61.9382,278.733 63.5,278.5 Z"/></g>
<g><path style="opacity:1" fill="#747474" d="M 156.5,274.5 C 157.473,276.948 157.806,279.615 157.5,282.5C 154.739,283.085 153.073,282.085 152.5,279.5C 153.5,277.52 154.833,275.854 156.5,274.5 Z"/></g>
<g><path style="opacity:1" fill="#f4f4f4" d="M 154.5,277.5 C 156.852,278.543 157.019,279.876 155,281.5C 153.232,280.318 153.065,278.985 154.5,277.5 Z"/></g>
<g><path style="opacity:1" fill="#838383" d="M 66.5,274.5 C 68.3464,274.222 69.6798,274.889 70.5,276.5C 70.1203,278.021 69.9536,279.687 70,281.5C 68.9505,282.517 67.7839,282.684 66.5,282C 69.9711,280.897 70.3044,279.064 67.5,276.5C 65.3004,277.456 64.9671,276.79 66.5,274.5 Z"/></g>
<g><path style="opacity:1" fill="#a7a7a7" d="M 90.5,274.5 C 92.2147,275.919 94.0481,277.253 96,278.5C 97.9738,275.882 99.8071,276.048 101.5,279C 100.062,279.219 98.7287,279.719 97.5,280.5C 98.6034,280.998 99.6034,281.331 100.5,281.5C 95.8332,284.582 93.3332,283.249 93,277.5C 91.883,278.949 91.2163,280.616 91,282.5C 90.5026,279.854 90.3359,277.187 90.5,274.5 Z"/></g>
<g><path style="opacity:1" fill="#848484" d="M 105.5,276.5 C 110.652,277.64 110.652,278.806 105.5,280C 106.572,281.284 107.905,281.617 109.5,281C 104.758,283.064 103.424,281.564 105.5,276.5 Z"/></g>
<g><path style="opacity:1" fill="#828282" d="M 125.5,277.5 C 127.684,276.017 129.017,276.684 129.5,279.5C 129.017,282.316 127.684,282.983 125.5,281.5C 129.5,280.167 129.5,278.833 125.5,277.5 Z"/></g>
<g><path style="opacity:1" fill="#c6aed6" d="M -0.5,307.5 C -0.5,306.167 -0.5,304.833 -0.5,303.5C 0.14987,303.196 0.816537,302.863 1.5,302.5C 2.80638,303.912 3.63971,305.579 4,307.5C 4.49001,306.207 4.65668,304.873 4.5,303.5C 11.5178,303.956 18.5178,303.956 25.5,303.5C 25.6602,305.199 25.4935,306.866 25,308.5C 24.3171,303.342 23.4837,303.342 22.5,308.5C 18.2048,307.462 13.8715,307.462 9.5,308.5C 9.30678,304.551 8.80678,304.551 8,308.5C 6.88607,304.544 6.05273,304.544 5.5,308.5C 3.85703,308.52 2.5237,307.853 1.5,306.5C 0.816537,306.863 0.14987,307.196 -0.5,307.5 Z"/></g>
<g><path style="opacity:1" fill="#cecece" d="M 15.5,318.5 C 16.5,318.5 17.5,318.5 18.5,318.5C 18.5,320.167 18.5,321.833 18.5,323.5C 17.5,323.5 16.5,323.5 15.5,323.5C 14.1667,321.833 14.1667,320.167 15.5,318.5 Z"/></g>
<g><path style="opacity:1" fill="#727272" d="M 9.5,316.5 C 10.8221,316.33 11.9887,316.663 13,317.5C 13.6667,319.833 13.6667,322.167 13,324.5C 11.6667,325.833 10.3333,325.833 9,324.5C 8.27817,321.739 8.44484,319.073 9.5,316.5 Z"/></g>
<g><path style="opacity:1" fill="#f6f6f6" d="M 9.5,318.5 C 10.5,318.5 11.5,318.5 12.5,318.5C 12.5,320.167 12.5,321.833 12.5,323.5C 11.5,323.5 10.5,323.5 9.5,323.5C 9.5,321.833 9.5,320.167 9.5,318.5 Z"/></g>
<g><path style="opacity:1" fill="#686868" d="M 37.5,323.5 C 36.3775,321.712 36.2109,319.712 37,317.5C 38.3333,316.167 39.6667,316.167 41,317.5C 41.6667,319.833 41.6667,322.167 41,324.5C 39.2435,325.985 38.0768,325.652 37.5,323.5 Z"/></g>
<g><path style="opacity:1" fill="#f3f3f3" d="M 37.5,323.5 C 38.5,315.5 39.5,315.5 40.5,323.5C 39.5,323.5 38.5,323.5 37.5,323.5 Z"/></g>
<g><path style="opacity:1" fill="#828282" d="M 15.5,323.5 C 16.5,323.5 17.5,323.5 18.5,323.5C 18.5,321.833 18.5,320.167 18.5,318.5C 17.5,318.5 16.5,318.5 15.5,318.5C 17.2316,315.888 18.7316,316.221 20,319.5C 23.1914,315.342 25.3581,315.842 26.5,321C 25.3581,326.158 23.1914,326.658 20,322.5C 18.7316,325.779 17.2316,326.112 15.5,323.5 Z"/></g>
<g><path style="opacity:1" fill="#fcfcfc" d="M 22.5,318.5 C 23.6491,318.791 24.3158,319.624 24.5,321C 24.1667,321.833 23.8333,322.667 23.5,323.5C 22.5481,321.955 22.2148,320.288 22.5,318.5 Z"/></g>
<g><path style="opacity:1" fill="#777777" d="M 31.5,316.5 C 34.7343,316.237 36.0676,317.737 35.5,321C 33.8628,326.66 31.8628,326.827 29.5,321.5C 29.9024,319.7 30.5691,318.033 31.5,316.5 Z"/></g>
<g><path style="opacity:1" fill="#f2f2f2" d="M 31.5,318.5 C 32.5,318.5 33.5,318.5 34.5,318.5C 34.5,320.167 34.5,321.833 34.5,323.5C 33.5,323.5 32.5,323.5 31.5,323.5C 31.5,321.833 31.5,320.167 31.5,318.5 Z"/></g>
<g><path style="opacity:1" fill="#9f9f9f" d="M 46.5,318.5 C 47.4511,319.919 47.7845,321.585 47.5,323.5C 48.5,323.5 49.5,323.5 50.5,323.5C 50.3466,317.676 51.0133,317.343 52.5,322.5C 52.8333,322.333 53.1667,322.167 53.5,322C 52.6634,320.989 52.33,319.822 52.5,318.5C 54.4286,318.231 56.0953,318.731 57.5,320C 56.8333,320.333 56.1667,320.667 55.5,321C 58.2867,322.907 58.12,324.407 55,325.5C 52.5217,324.668 50.0217,324.501 47.5,325C 46.5769,322.959 46.2436,320.792 46.5,318.5 Z"/></g>
<g><path style="opacity:1" fill="#a5a4a6" d="M -0.5,325.5 C -0.5,322.833 -0.5,320.167 -0.5,317.5C 1.00978,316.272 2.50978,316.272 4,317.5C 4.56077,320.298 3.3941,322.131 0.5,323C 5.59447,324.458 5.26113,325.291 -0.5,325.5 Z"/></g>
<g><path style="opacity:1" fill="#7e7e7e" d="M 62.5,319.5 C 64.1678,323.285 62.8345,325.285 58.5,325.5C 58.5,323.167 58.5,320.833 58.5,318.5C 60.099,318.232 61.4324,318.566 62.5,319.5 Z"/></g>
<g><path style="opacity:1" fill="#f6f6f6" d="M 62.5,319.5 C 62.5,320.833 62.5,322.167 62.5,323.5C 61.5,323.5 60.5,323.5 59.5,323.5C 59.5,322.167 59.5,320.833 59.5,319.5C 60.5,319.5 61.5,319.5 62.5,319.5 Z"/></g>
<g><path style="opacity:1" fill="#d6b4d6" d="M 22.5,339.5 C 14.8333,339.5 7.16667,339.5 -0.5,339.5C -0.5,338.167 -0.5,336.833 -0.5,335.5C 6.01602,335.365 12.6827,335.365 19.5,335.5C 19.281,336.675 19.6143,337.675 20.5,338.5C 22.0025,334.626 22.6691,334.959 22.5,339.5 Z"/></g>
<g><path style="opacity:1" fill="#d0aad2" d="M 29.5,337.5 C 27.8863,339.075 25.8863,339.741 23.5,339.5C 23.5,338.167 23.5,336.833 23.5,335.5C 25.4672,335.739 27.3005,335.406 29,334.5C 29.4828,335.448 29.6495,336.448 29.5,337.5 Z"/></g>
<g><path style="opacity:1" fill="#e0878b" d="M 29.5,337.5 C 48.8333,338.167 68.1667,338.833 87.5,339.5C 68.4971,339.333 49.4971,339.5 30.5,340C 29.5842,340.278 28.9175,340.778 28.5,341.5C 28.1667,341.5 27.8333,341.5 27.5,341.5C 18.174,341 8.84062,340.667 -0.5,340.5C -0.5,340.167 -0.5,339.833 -0.5,339.5C 7.16667,339.5 14.8333,339.5 22.5,339.5C 22.8333,339.5 23.1667,339.5 23.5,339.5C 25.8863,339.741 27.8863,339.075 29.5,337.5 Z"/></g>
<g><path style="opacity:1" fill="#ea5f52" d="M -0.5,340.5 C 8.84062,340.667 18.174,341 27.5,341.5C 26.4855,342.765 24.9855,343.431 23,343.5C 15.8495,342.511 8.68285,342.344 1.5,343C 0.871909,345.939 0.205242,348.772 -0.5,351.5C -0.5,347.833 -0.5,344.167 -0.5,340.5 Z"/></g>
<g><path style="opacity:1" fill="#d61c0e" d="M 63.5,360.5 C 62.1667,360.5 60.8333,360.5 59.5,360.5C 41.5159,360.091 23.5159,359.924 5.5,360C 4.08423,357.735 2.08423,356.569 -0.5,356.5C -0.5,354.833 -0.5,353.167 -0.5,351.5C 0.205242,348.772 0.871909,345.939 1.5,343C 8.68285,342.344 15.8495,342.511 23,343.5C 24.9855,343.431 26.4855,342.765 27.5,341.5C 27.8333,341.5 28.1667,341.5 28.5,341.5C 47.1604,340.277 65.8271,340.277 84.5,341.5C 84.8282,346.875 84.4948,352.208 83.5,357.5C 76.6764,358.265 70.0098,359.265 63.5,360.5 Z"/></g>
<g><path style="opacity:1" fill="#d64c3b" d="M 87.5,339.5 C 88.0659,346.451 87.3993,353.118 85.5,359.5C 78.2094,360.392 70.8761,360.726 63.5,360.5C 70.0098,359.265 76.6764,358.265 83.5,357.5C 84.4948,352.208 84.8282,346.875 84.5,341.5C 65.8271,340.277 47.1604,340.277 28.5,341.5C 28.9175,340.778 29.5842,340.278 30.5,340C 49.4971,339.5 68.4971,339.333 87.5,339.5 Z"/></g>
<g><path style="opacity:1" fill="#e59284" d="M 87.5,339.5 C 88.5,339.5 89.5,339.5 90.5,339.5C 90.6662,345.509 90.4995,351.509 90,357.5C 89.2917,358.381 88.4584,359.047 87.5,359.5C 86.8333,359.5 86.1667,359.5 85.5,359.5C 87.3993,353.118 88.0659,346.451 87.5,339.5 Z"/></g>
<g><path style="opacity:1" fill="#db533f" d="M -0.5,356.5 C 2.08423,356.569 4.08423,357.735 5.5,360C 23.5159,359.924 41.5159,360.091 59.5,360.5C 51.3434,361.329 43.0101,361.829 34.5,362C 33.944,362.383 33.6107,362.883 33.5,363.5C 32.8333,363.5 32.1667,363.5 31.5,363.5C 23.4931,363.666 15.4931,363.5 7.5,363C 4.60806,362.751 2.27473,361.584 0.5,359.5C 0.166667,359.5 -0.166667,359.5 -0.5,359.5C -0.5,358.5 -0.5,357.5 -0.5,356.5 Z"/></g>
<g><path style="opacity:1" fill="#f8b7ab" d="M 85.5,359.5 C 86.1667,359.5 86.8333,359.5 87.5,359.5C 86.3915,360.29 85.0581,360.79 83.5,361C 66.79,361.608 50.1233,362.441 33.5,363.5C 33.6107,362.883 33.944,362.383 34.5,362C 43.0101,361.829 51.3434,361.329 59.5,360.5C 60.8333,360.5 62.1667,360.5 63.5,360.5C 70.8761,360.726 78.2094,360.392 85.5,359.5 Z"/></g>
<g><path style="opacity:1" fill="#f9c5be" d="M 0.5,359.5 C 2.27473,361.584 4.60806,362.751 7.5,363C 15.4931,363.5 23.4931,363.666 31.5,363.5C 22.0089,364.658 12.3422,364.825 2.5,364C 1.41782,362.67 0.751154,361.17 0.5,359.5 Z"/></g>
<g><path style="opacity:1" fill="#c6add7" d="M -0.5,365.5 C 2.85953,364.79 4.69287,366.124 5,369.5C 5.48278,368.552 5.64945,367.552 5.5,366.5C 7.33073,367.052 8.9974,367.052 10.5,366.5C 11.4519,368.045 11.7852,369.712 11.5,371.5C 7.36005,371.888 3.36005,371.888 -0.5,371.5C -0.5,369.5 -0.5,367.5 -0.5,365.5 Z"/></g>
<g><path style="opacity:1" fill="#818181" d="M 55.5,381.5 C 55.7148,383.179 55.0481,384.179 53.5,384.5C 54.6409,381.807 53.8076,381.14 51,382.5C 50.3877,380.763 51.0543,379.763 53,379.5C 54.301,379.639 55.1344,380.305 55.5,381.5 Z"/></g>
<g><path style="opacity:1" fill="#7e7c7e" d="M 4.5,381.5 C 4.17442,384.001 2.84109,385.168 0.5,385C 3.29042,382.319 2.95709,381.485 -0.5,382.5C -0.5,381.833 -0.5,381.167 -0.5,380.5C 1.39829,379.266 3.06496,379.599 4.5,381.5 Z"/></g>
<g><path style="opacity:1" fill="#828282" d="M 39.5,379.5 C 41.5922,379.561 43.0922,380.561 44,382.5C 44.6912,379.734 46.1912,379.067 48.5,380.5C 49.6474,382.765 49.8141,385.098 49,387.5C 47.9505,388.517 46.7839,388.684 45.5,388C 44.5399,386.581 43.7065,385.081 43,383.5C 42.1667,384.333 41.3333,385.167 40.5,386C 41.624,386.249 42.624,386.749 43.5,387.5C 41.5,388.833 39.5,388.833 37.5,387.5C 38.8333,385.833 40.1667,384.167 41.5,382.5C 40.7261,381.289 39.8928,381.289 39,382.5C 38.5304,381.423 38.6971,380.423 39.5,379.5 Z"/></g>
<g><path style="opacity:1" fill="#f3f3f3" d="M 45.5,381.5 C 48.7899,382.656 49.2899,384.656 47,387.5C 45.6814,385.75 45.1814,383.75 45.5,381.5 Z"/></g>
<g><path style="opacity:1" fill="#cacaca" d="M 55.5,381.5 C 55.8333,381.5 56.1667,381.5 56.5,381.5C 57.7618,381.907 59.0951,382.24 60.5,382.5C 59.9747,383.192 59.3081,383.692 58.5,384C 59.9733,384.71 60.6399,385.876 60.5,387.5C 57.3752,388.479 54.0419,388.813 50.5,388.5C 50.0882,386.027 51.0882,384.694 53.5,384.5C 55.0481,384.179 55.7148,383.179 55.5,381.5 Z"/></g>
<g><path style="opacity:1" fill="#828483" d="M 28.5,383.5 C 28.7709,385.38 28.1042,386.713 26.5,387.5C 26.5,386.167 26.5,384.833 26.5,383.5C 25.5,383.5 24.5,383.5 23.5,383.5C 23.4701,382.503 23.9701,381.836 25,381.5C 26.3026,381.978 27.4693,382.645 28.5,383.5 Z"/></g>
<g><path style="opacity:1" fill="#6a6b6b" d="M 28.5,383.5 C 28.56,382.957 28.8933,382.624 29.5,382.5C 30.4865,386.375 31.6532,386.375 33,382.5C 32.6189,388.731 31.1189,389.065 28.5,383.5 Z"/></g>
<g><path style="opacity:1" fill="#797979" d="M 8.5,387.5 C 8.42265,386.25 7.75598,385.417 6.5,385C 7.42797,384.612 8.09464,383.945 8.5,383C 7.57947,381.936 6.57947,381.436 5.5,381.5C 5.81103,380.522 6.4777,379.855 7.5,379.5C 10.985,381.896 11.3184,384.562 8.5,387.5 Z"/></g>
<g><path style="opacity:1" fill="#8a8a8b" d="M 18.5,384.5 C 17.8826,384.389 17.3826,384.056 17,383.5C 16.7978,385.256 16.2978,386.922 15.5,388.5C 14.1667,385.5 14.1667,382.5 15.5,379.5C 17.2623,380.688 18.2623,382.355 18.5,384.5 Z"/></g>
<g><path style="opacity:1" fill="#eceeed" d="M 23.5,383.5 C 24.5,383.5 25.5,383.5 26.5,383.5C 26.5,384.833 26.5,386.167 26.5,387.5C 24.0882,387.306 23.0882,385.973 23.5,383.5 Z"/></g>
<g><path style="opacity:1" fill="#797979" d="M 60.5,387.5 C 60.6399,385.876 59.9733,384.71 58.5,384C 59.3081,383.692 59.9747,383.192 60.5,382.5C 59.0951,382.24 57.7618,381.907 56.5,381.5C 57.684,379.59 59.184,379.257 61,380.5C 61.346,382.218 61.846,383.885 62.5,385.5C 62.1445,386.522 61.4778,387.189 60.5,387.5 Z"/></g>
<g><path style="opacity:1" fill="#bebebe" d="M 4.5,381.5 C 4.83333,381.5 5.16667,381.5 5.5,381.5C 6.57947,381.436 7.57947,381.936 8.5,383C 8.09464,383.945 7.42797,384.612 6.5,385C 7.75598,385.417 8.42265,386.25 8.5,387.5C 5.8432,387.858 2.8432,388.192 -0.5,388.5C -0.5,386.5 -0.5,384.5 -0.5,382.5C 2.95709,381.485 3.29042,382.319 0.5,385C 2.84109,385.168 4.17442,384.001 4.5,381.5 Z"/></g>
<g><path style="opacity:1" fill="#525252" d="M 18.5,384.5 C 19.1174,384.611 19.6174,384.944 20,385.5C 20.3333,383.5 20.6667,381.5 21,379.5C 21.6667,382.5 21.6667,385.5 21,388.5C 19.5187,387.529 18.6854,386.196 18.5,384.5 Z"/></g>
<g><path style="opacity:1" fill="#686868" d="M 23.5,383.5 C 23.0882,385.973 24.0882,387.306 26.5,387.5C 25.4583,388.791 24.2917,388.791 23,387.5C 22.235,385.934 22.4017,384.601 23.5,383.5 Z"/></g>
</svg>
