<?xml version="1.0" encoding="UTF-8"?>
<!DOCTYPE svg PUBLIC "-//W3C//DTD SVG 1.1//EN" "http://www.w3.org/Graphics/SVG/1.1/DTD/svg11.dtd">
<svg xmlns="http://www.w3.org/2000/svg" version="1.1" width="225px" height="225px" style="shape-rendering:geometricPrecision; text-rendering:geometricPrecision; image-rendering:optimizeQuality; fill-rule:evenodd; clip-rule:evenodd" xmlns:xlink="http://www.w3.org/1999/xlink">
<g><path style="opacity:1" fill="#e3cb9b" d="M 116.5,3.5 C 113.167,3.5 109.833,3.5 106.5,3.5C 109.833,0.833333 113.167,0.833333 116.5,3.5 Z"/></g>
<g><path style="opacity:0.902" fill="#e6cfa8" d="M 106.5,3.5 C 105.167,5.5 103.5,7.16667 101.5,8.5C 102.167,5.83333 103.833,4.16667 106.5,3.5 Z"/></g>
<g><path style="opacity:1" fill="#dbb771" d="M 106.5,3.5 C 109.833,3.5 113.167,3.5 116.5,3.5C 119.167,4.16667 120.833,5.83333 121.5,8.5C 115.039,2.93609 108.872,3.26943 103,9.5C 102.333,12.1667 102.333,14.8333 103,17.5C 104.464,20.0658 105.631,22.7325 106.5,25.5C 106.38,27.5885 105.38,28.9218 103.5,29.5C 103.877,27.742 104.544,26.0754 105.5,24.5C 100.656,19.9486 99.3225,14.6153 101.5,8.5C 103.5,7.16667 105.167,5.5 106.5,3.5 Z"/></g>
<g><path style="opacity:1" fill="#e3b052" d="M 121.5,8.5 C 121.54,11.8806 121.207,15.2139 120.5,18.5C 119.5,18.5 118.5,18.5 117.5,18.5C 116.671,21.4686 116.505,24.4686 117,27.5C 117.708,28.3805 118.542,29.0472 119.5,29.5C 120.338,29.8417 120.672,30.5084 120.5,31.5C 120.5,32.8333 120.5,34.1667 120.5,35.5C 118.521,35.542 116.521,35.542 114.5,35.5C 113.41,34.6086 113.41,33.6086 114.5,32.5C 113.863,30.6969 112.697,29.3636 111,28.5C 110.683,30.3008 110.016,30.6341 109,29.5C 108.5,30 108,30.5 107.5,31C 108.624,31.2492 109.624,31.7492 110.5,32.5C 109.691,34.0709 109.357,35.7376 109.5,37.5C 108.767,39.2944 107.767,40.9611 106.5,42.5C 103.916,41.9517 102.916,40.285 103.5,37.5C 104.5,37.5 105.5,37.5 106.5,37.5C 106.428,34.4475 105.428,31.7808 103.5,29.5C 105.38,28.9218 106.38,27.5885 106.5,25.5C 105.631,22.7325 104.464,20.0658 103,17.5C 102.333,14.8333 102.333,12.1667 103,9.5C 108.872,3.26943 115.039,2.93609 121.5,8.5 Z"/></g>
<g><path style="opacity:1" fill="#ddbc7b" d="M 121.5,8.5 C 124.629,14.6415 123.296,19.8082 117.5,24C 118.464,25.7255 119.131,27.5588 119.5,29.5C 118.542,29.0472 117.708,28.3805 117,27.5C 116.505,24.4686 116.671,21.4686 117.5,18.5C 118.5,18.5 119.5,18.5 120.5,18.5C 121.207,15.2139 121.54,11.8806 121.5,8.5 Z"/></g>
<g><path style="opacity:1" fill="#e0c48f" d="M 34.5,29.5 C 32.6801,28.2726 30.6801,27.2726 28.5,26.5C 25.8599,25.9049 23.1933,25.5715 20.5,25.5C 24.3737,23.1805 28.3737,23.3472 32.5,26C 33.8228,26.8159 34.4894,27.9826 34.5,29.5 Z"/></g>
<g><path style="opacity:1" fill="#e2b055" d="M 20.5,25.5 C 23.1933,25.5715 25.8599,25.9049 28.5,26.5C 30.6801,27.2726 32.6801,28.2726 34.5,29.5C 34.9383,31.126 35.2716,32.7927 35.5,34.5C 34.6534,37.9174 33.6534,41.2508 32.5,44.5C 29.6489,45.8854 27.3156,45.2187 25.5,42.5C 23.2178,43.2234 20.8845,43.5567 18.5,43.5C 17.8333,43.5 17.1667,43.5 16.5,43.5C 16.1667,42.8333 15.8333,42.1667 15.5,41.5C 15.5,37.8333 15.5,34.1667 15.5,30.5C 16.1667,27.8333 17.8333,26.1667 20.5,25.5 Z"/></g>
<g><path style="opacity:0.843" fill="#e9d8af" d="M 190.5,27.5 C 190.573,29.0269 189.906,30.0269 188.5,30.5C 188.427,28.9731 189.094,27.9731 190.5,27.5 Z"/></g>
<g><path style="opacity:1" fill="#e0bf7f" d="M 206.5,27.5 C 203.479,26.9951 200.479,26.3284 197.5,25.5C 195.734,26.0909 194.067,26.9242 192.5,28C 191.167,28.6667 191.167,29.3333 192.5,30C 191.069,30.4652 189.903,31.2986 189,32.5C 188.945,36.3617 188.778,40.0283 188.5,43.5C 188.145,40.9333 187.479,38.4333 186.5,36C 186.954,33.9701 187.62,32.1368 188.5,30.5C 189.906,30.0269 190.573,29.0269 190.5,27.5C 195.881,22.3619 201.215,22.3619 206.5,27.5 Z"/></g>
<g><path style="opacity:1" fill="#e2b054" d="M 206.5,27.5 C 206.678,30.3219 207.345,32.9885 208.5,35.5C 207.336,38.0672 206.67,40.7338 206.5,43.5C 202.998,44.9175 199.331,45.5842 195.5,45.5C 195.623,48.5879 194.623,51.2546 192.5,53.5C 191.808,52.9747 191.308,52.3081 191,51.5C 190.505,53.4727 190.338,55.4727 190.5,57.5C 188.486,55.6557 186.319,54.989 184,55.5C 183.654,57.2182 183.154,58.8849 182.5,60.5C 183.274,61.7112 184.107,61.7112 185,60.5C 185.483,61.448 185.649,62.448 185.5,63.5C 183.077,63.5764 181.244,62.5764 180,60.5C 178.365,60.8777 176.865,61.5444 175.5,62.5C 177.086,64.1727 177.753,66.1727 177.5,68.5C 175.965,69.7879 174.299,69.7879 172.5,68.5C 177.455,67.0852 177.622,65.4186 173,63.5C 172.36,61.735 172.527,60.0683 173.5,58.5C 176.089,57.5806 178.089,55.914 179.5,53.5C 183.876,51.4225 186.876,48.0892 188.5,43.5C 188.778,40.0283 188.945,36.3617 189,32.5C 189.903,31.2986 191.069,30.4652 192.5,30C 191.167,29.3333 191.167,28.6667 192.5,28C 194.067,26.9242 195.734,26.0909 197.5,25.5C 200.479,26.3284 203.479,26.9951 206.5,27.5 Z"/></g>
<g><path style="opacity:1" fill="#e2c995" d="M 15.5,30.5 C 15.5,34.1667 15.5,37.8333 15.5,41.5C 12.9348,37.8014 12.9348,34.1347 15.5,30.5 Z"/></g>
<g><path style="opacity:1" fill="#e3b054" d="M 120.5,35.5 C 121.714,37.1486 123.047,38.8152 124.5,40.5C 125.452,42.0453 125.785,43.712 125.5,45.5C 122.833,46.1667 120.167,46.8333 117.5,47.5C 117.297,42.8197 116.13,39.153 114,36.5C 112.644,37.3802 111.144,37.7135 109.5,37.5C 109.357,35.7376 109.691,34.0709 110.5,32.5C 109.624,31.7492 108.624,31.2492 107.5,31C 108,30.5 108.5,30 109,29.5C 110.016,30.6341 110.683,30.3008 111,28.5C 112.697,29.3636 113.863,30.6969 114.5,32.5C 113.41,33.6086 113.41,34.6086 114.5,35.5C 116.521,35.542 118.521,35.542 120.5,35.5 Z"/></g>
<g><path style="opacity:1" fill="#e3be81" d="M 206.5,27.5 C 211.807,33.2174 211.807,39.0507 206.5,45C 203.911,46.1965 201.244,47.1965 198.5,48C 195.688,51.8124 193.021,55.6457 190.5,59.5C 190.5,58.8333 190.5,58.1667 190.5,57.5C 190.338,55.4727 190.505,53.4727 191,51.5C 191.308,52.3081 191.808,52.9747 192.5,53.5C 194.623,51.2546 195.623,48.5879 195.5,45.5C 199.331,45.5842 202.998,44.9175 206.5,43.5C 206.67,40.7338 207.336,38.0672 208.5,35.5C 207.345,32.9885 206.678,30.3219 206.5,27.5 Z"/></g>
<g><path style="opacity:1" fill="#e0bb76" d="M 117.5,47.5 C 115.442,45.0734 113.609,42.4068 112,39.5C 109.897,42.059 108.064,44.7257 106.5,47.5C 106.5,45.8333 106.5,44.1667 106.5,42.5C 107.767,40.9611 108.767,39.2944 109.5,37.5C 111.144,37.7135 112.644,37.3802 114,36.5C 116.13,39.153 117.297,42.8197 117.5,47.5 Z"/></g>
<g><path style="opacity:1" fill="#debc7a" d="M 34.5,29.5 C 38.4237,34.5415 38.0904,39.5415 33.5,44.5C 34.1925,45.5178 34.8592,46.5178 35.5,47.5C 34.5,47.5 33.5,47.5 32.5,47.5C 32.5,46.5 32.5,45.5 32.5,44.5C 33.6534,41.2508 34.6534,37.9174 35.5,34.5C 35.2716,32.7927 34.9383,31.126 34.5,29.5 Z"/></g>
<g><path style="opacity:0.78" fill="#f0e0c6" d="M 16.5,43.5 C 17.1667,43.5 17.8333,43.5 18.5,43.5C 18.8333,44.1667 19.1667,44.8333 19.5,45.5C 17.9731,45.573 16.9731,44.9063 16.5,43.5 Z"/></g>
<g><path style="opacity:1" fill="#e1b770" d="M 120.5,31.5 C 124.331,37.8156 128.665,43.8156 133.5,49.5C 131.251,48.7689 129.084,47.7689 127,46.5C 125.85,47.4239 124.85,47.4239 124,46.5C 123.517,47.448 123.351,48.448 123.5,49.5C 121.821,49.2852 120.821,49.9519 120.5,51.5C 118.738,50.7377 117.738,49.4044 117.5,47.5C 120.167,46.8333 122.833,46.1667 125.5,45.5C 125.785,43.712 125.452,42.0453 124.5,40.5C 123.047,38.8152 121.714,37.1486 120.5,35.5C 120.5,34.1667 120.5,32.8333 120.5,31.5 Z"/></g>
<g><path style="opacity:0.98" fill="#e4c998" d="M 99.5,36.5 C 97.7495,42.2577 94.4161,46.9243 89.5,50.5C 92.8361,45.8249 96.1694,41.1582 99.5,36.5 Z"/></g>
<g><path style="opacity:1" fill="#e2b055" d="M 103.5,29.5 C 105.428,31.7808 106.428,34.4475 106.5,37.5C 105.5,37.5 104.5,37.5 103.5,37.5C 102.916,40.285 103.916,41.9517 106.5,42.5C 106.5,44.1667 106.5,45.8333 106.5,47.5C 104.672,48.7945 102.672,49.7945 100.5,50.5C 100.5,52.1667 100.5,53.8333 100.5,55.5C 98.8561,55.7135 97.3561,55.3802 96,54.5C 96.1349,56.4247 96.3016,58.4247 96.5,60.5C 94.8008,60.3398 93.1341,60.5065 91.5,61C 92.8882,61.8893 92.7215,62.3893 91,62.5C 88.2757,61.162 87.1091,62.162 87.5,65.5C 86.209,65.2627 85.209,65.596 84.5,66.5C 83.7109,66.2172 83.0442,65.7172 82.5,65C 83.3366,63.9887 83.67,62.8221 83.5,61.5C 81.8333,61.5 80.1667,61.5 78.5,61.5C 80.1827,60.1466 81.5161,58.4799 82.5,56.5C 84.4044,56.2624 85.7377,55.2624 86.5,53.5C 87.1667,52.1667 88.1667,51.1667 89.5,50.5C 94.4161,46.9243 97.7495,42.2577 99.5,36.5C 100.596,33.9684 101.929,31.6351 103.5,29.5 Z"/></g>
<g><path style="opacity:1" fill="#e1c48b" d="M 188.5,43.5 C 186.876,48.0892 183.876,51.4225 179.5,53.5C 182.51,50.1257 185.51,46.7923 188.5,43.5 Z"/></g>
<g><path style="opacity:1" fill="#e1b25c" d="M 32.5,44.5 C 32.5,45.5 32.5,46.5 32.5,47.5C 33.5,47.5 34.5,47.5 35.5,47.5C 39.2328,51.2398 43.2328,54.5732 47.5,57.5C 41.7497,53.861 37.7497,55.1944 35.5,61.5C 34.2181,59.5772 32.8848,57.5772 31.5,55.5C 30.5832,54.8728 29.5832,54.5394 28.5,54.5C 26.447,50.4469 23.447,47.4469 19.5,45.5C 19.1667,44.8333 18.8333,44.1667 18.5,43.5C 20.8845,43.5567 23.2178,43.2234 25.5,42.5C 27.3156,45.2187 29.6489,45.8854 32.5,44.5 Z"/></g>
<g><path style="opacity:1" fill="#e2b259" d="M 133.5,49.5 C 133.525,52.179 134.858,53.5123 137.5,53.5C 137.557,54.609 137.89,55.609 138.5,56.5C 137.5,56.5 136.5,56.5 135.5,56.5C 135.174,58.6607 134.174,60.4941 132.5,62C 135.349,64.0753 137.682,66.5753 139.5,69.5C 135.608,67.9379 132.275,65.6046 129.5,62.5C 129.512,59.858 128.179,58.5246 125.5,58.5C 125.371,55.1299 123.705,53.1299 120.5,52.5C 120.5,52.1667 120.5,51.8333 120.5,51.5C 120.821,49.9519 121.821,49.2852 123.5,49.5C 123.351,48.448 123.517,47.448 124,46.5C 124.85,47.4239 125.85,47.4239 127,46.5C 129.084,47.7689 131.251,48.7689 133.5,49.5 Z"/></g>
<g><path style="opacity:1" fill="#e8cba0" d="M 133.5,49.5 C 135.167,50.5 136.5,51.8333 137.5,53.5C 134.858,53.5123 133.525,52.179 133.5,49.5 Z"/></g>
<g><path style="opacity:1" fill="#e2c68c" d="M 120.5,52.5 C 123.705,53.1299 125.371,55.1299 125.5,58.5C 123.844,56.5398 122.177,54.5398 120.5,52.5 Z"/></g>
<g><path style="opacity:0.749" fill="#efd8b6" d="M 86.5,53.5 C 85.7377,55.2624 84.4044,56.2624 82.5,56.5C 83.2623,54.7376 84.5956,53.7376 86.5,53.5 Z"/></g>
<g><path style="opacity:1" fill="#e3be7c" d="M 106.5,47.5 C 103.901,52.4278 100.568,56.7611 96.5,60.5C 96.3016,58.4247 96.1349,56.4247 96,54.5C 97.3561,55.3802 98.8561,55.7135 100.5,55.5C 100.5,53.8333 100.5,52.1667 100.5,50.5C 102.672,49.7945 104.672,48.7945 106.5,47.5 Z"/></g>
<g><path style="opacity:0.827" fill="#e4ca99" d="M 179.5,53.5 C 178.089,55.914 176.089,57.5806 173.5,58.5C 172.833,58.5 172.167,58.5 171.5,58.5C 174.159,56.8365 176.825,55.1698 179.5,53.5 Z"/></g>
<g><path style="opacity:1" fill="#e4c28d" d="M 137.5,53.5 C 140.523,55.5333 143.523,57.5333 146.5,59.5C 143.351,59.5848 140.684,58.5848 138.5,56.5C 137.89,55.609 137.557,54.609 137.5,53.5 Z"/></g>
<g><path style="opacity:1" fill="#e3c286" d="M 28.5,54.5 C 29.5832,54.5394 30.5832,54.8728 31.5,55.5C 32.8848,57.5772 34.2181,59.5772 35.5,61.5C 36.339,62.6412 37.0057,63.9745 37.5,65.5C 38.325,66.3857 39.325,66.719 40.5,66.5C 40.6741,68.861 41.0074,71.1944 41.5,73.5C 37.4266,67.0303 33.0933,60.6969 28.5,54.5 Z"/></g>
<g><path style="opacity:1" fill="#e4c794" d="M 125.5,58.5 C 128.179,58.5246 129.512,59.858 129.5,62.5C 127.833,61.5 126.5,60.1667 125.5,58.5 Z"/></g>
<g><path style="opacity:1" fill="#e2b053" d="M 47.5,57.5 C 47.4142,58.4959 47.7476,59.3292 48.5,60C 51.678,60.6595 54.678,61.4928 57.5,62.5C 55.8008,62.3398 54.1341,62.5065 52.5,63C 53.1667,63.6667 53.8333,64.3333 54.5,65C 52.5,65.3333 50.5,65.6667 48.5,66C 49.8613,67.5843 50.528,69.4176 50.5,71.5C 48.8333,71.5 47.1667,71.5 45.5,71.5C 45.5,72.8333 45.5,74.1667 45.5,75.5C 44.1667,75.1667 42.8333,74.8333 41.5,74.5C 41.5,74.1667 41.5,73.8333 41.5,73.5C 41.0074,71.1944 40.6741,68.861 40.5,66.5C 39.325,66.719 38.325,66.3857 37.5,65.5C 37.0057,63.9745 36.339,62.6412 35.5,61.5C 37.7497,55.1944 41.7497,53.861 47.5,57.5 Z"/></g>
<g><path style="opacity:1" fill="#e9cb91" d="M 47.5,57.5 C 55.1178,60.9096 63.1178,62.2429 71.5,61.5C 67.03,62.4861 62.3633,62.8195 57.5,62.5C 54.678,61.4928 51.678,60.6595 48.5,60C 47.7476,59.3292 47.4142,58.4959 47.5,57.5 Z"/></g>
<g><path style="opacity:1" fill="#e2b154" d="M 138.5,56.5 C 140.684,58.5848 143.351,59.5848 146.5,59.5C 147.791,59.2627 148.791,59.596 149.5,60.5C 150.514,61.6737 151.847,62.3404 153.5,62.5C 158.348,63.8906 163.015,65.8906 167.5,68.5C 166.807,69.5178 166.141,70.5178 165.5,71.5C 160.35,72.6507 155.016,72.8174 149.5,72C 146.321,70.5387 142.988,69.7054 139.5,69.5C 137.682,66.5753 135.349,64.0753 132.5,62C 134.174,60.4941 135.174,58.6607 135.5,56.5C 136.5,56.5 137.5,56.5 138.5,56.5 Z"/></g>
<g><path style="opacity:1" fill="#e1b35c" d="M 190.5,57.5 C 190.5,58.1667 190.5,58.8333 190.5,59.5C 187.737,64.7015 184.737,69.7015 181.5,74.5C 180.963,71.9641 179.63,69.9641 177.5,68.5C 177.753,66.1727 177.086,64.1727 175.5,62.5C 176.865,61.5444 178.365,60.8777 180,60.5C 181.244,62.5764 183.077,63.5764 185.5,63.5C 185.649,62.448 185.483,61.448 185,60.5C 184.107,61.7112 183.274,61.7112 182.5,60.5C 183.154,58.8849 183.654,57.2182 184,55.5C 186.319,54.989 188.486,55.6557 190.5,57.5 Z"/></g>
<g><path style="opacity:0.529" fill="#e9ca95" d="M 149.5,60.5 C 153.452,61.2721 157.452,61.6054 161.5,61.5C 159.052,62.4731 156.385,62.8064 153.5,62.5C 151.847,62.3404 150.514,61.6737 149.5,60.5 Z"/></g>
<g><path style="opacity:1" fill="#e2b059" d="M 82.5,56.5 C 81.5161,58.4799 80.1827,60.1466 78.5,61.5C 76.3193,61.2837 74.6526,62.117 73.5,64C 67.4853,64.5348 61.4853,65.2015 55.5,66C 54.0267,66.7096 53.3601,67.8762 53.5,69.5C 55.7224,69.822 57.5557,69.1554 59,67.5C 65.1825,70.3364 64.6825,71.6697 57.5,71.5C 55.8333,71.5 54.1667,71.5 52.5,71.5C 54.9932,81.8052 57.3265,92.1386 59.5,102.5C 59.6495,103.552 59.4828,104.552 59,105.5C 57.3771,102.673 56.2105,99.6731 55.5,96.5C 55.0431,95.7025 54.3764,95.3691 53.5,95.5C 50.9922,91.8178 48.9922,87.8178 47.5,83.5C 47.4349,80.5718 46.7682,77.9052 45.5,75.5C 45.5,74.1667 45.5,72.8333 45.5,71.5C 47.1667,71.5 48.8333,71.5 50.5,71.5C 50.528,69.4176 49.8613,67.5843 48.5,66C 50.5,65.6667 52.5,65.3333 54.5,65C 53.8333,64.3333 53.1667,63.6667 52.5,63C 54.1341,62.5065 55.8008,62.3398 57.5,62.5C 62.3633,62.8195 67.03,62.4861 71.5,61.5C 75.3118,60.0931 78.9785,58.4264 82.5,56.5 Z"/></g>
<g><path style="opacity:1" fill="#e2b15a" d="M 171.5,58.5 C 172.167,58.5 172.833,58.5 173.5,58.5C 172.527,60.0683 172.36,61.735 173,63.5C 177.622,65.4186 177.455,67.0852 172.5,68.5C 174.299,69.7879 175.965,69.7879 177.5,68.5C 179.63,69.9641 180.963,71.9641 181.5,74.5C 179.341,80.1511 176.674,85.4844 173.5,90.5C 172.5,90.5 171.5,90.5 170.5,90.5C 169.929,94.9729 168.262,98.9729 165.5,102.5C 165.167,101.5 164.833,100.5 164.5,99.5C 166.147,94.3591 167.147,89.0258 167.5,83.5C 167.433,82.0413 167.766,80.7079 168.5,79.5C 169.117,79.3893 169.617,79.056 170,78.5C 171.713,73.8009 170.213,71.4676 165.5,71.5C 166.141,70.5178 166.807,69.5178 167.5,68.5C 163.015,65.8906 158.348,63.8906 153.5,62.5C 156.385,62.8064 159.052,62.4731 161.5,61.5C 164.817,60.5033 168.15,59.5033 171.5,58.5 Z"/></g>
<g><path style="opacity:1" fill="#e0b86f" d="M 96.5,60.5 C 92.0005,65.9197 86.3339,69.5863 79.5,71.5C 77.4727,71.3379 75.4727,71.5045 73.5,72C 72.944,72.3826 72.6107,72.8826 72.5,73.5C 72.1667,73.5 71.8333,73.5 71.5,73.5C 67.2984,73.8168 63.2984,73.4834 59.5,72.5C 66.7245,72.8177 73.7245,71.9844 80.5,70C 80.1667,69.6667 79.8333,69.3333 79.5,69C 81.744,68.9504 83.4107,68.1171 84.5,66.5C 85.209,65.596 86.209,65.2627 87.5,65.5C 87.1091,62.162 88.2757,61.162 91,62.5C 92.7215,62.3893 92.8882,61.8893 91.5,61C 93.1341,60.5065 94.8008,60.3398 96.5,60.5 Z"/></g>
<g><path style="opacity:1" fill="#e3b054" d="M 78.5,61.5 C 80.1667,61.5 81.8333,61.5 83.5,61.5C 83.67,62.8221 83.3366,63.9887 82.5,65C 83.0442,65.7172 83.7109,66.2172 84.5,66.5C 83.4107,68.1171 81.744,68.9504 79.5,69C 79.8333,69.3333 80.1667,69.6667 80.5,70C 73.7245,71.9844 66.7245,72.8177 59.5,72.5C 58.5084,72.6716 57.8417,72.3382 57.5,71.5C 64.6825,71.6697 65.1825,70.3364 59,67.5C 57.5557,69.1554 55.7224,69.822 53.5,69.5C 53.3601,67.8762 54.0267,66.7096 55.5,66C 61.4853,65.2015 67.4853,64.5348 73.5,64C 74.6526,62.117 76.3193,61.2837 78.5,61.5 Z"/></g>
<g><path style="opacity:0.475" fill="#ecd1a3" d="M 79.5,71.5 C 77.4855,72.9238 75.1522,73.5905 72.5,73.5C 72.6107,72.8826 72.944,72.3826 73.5,72C 75.4727,71.5045 77.4727,71.3379 79.5,71.5 Z"/></g>
<g><path style="opacity:1" fill="#ddbb7a" d="M 139.5,69.5 C 142.988,69.7054 146.321,70.5387 149.5,72C 155.016,72.8174 160.35,72.6507 165.5,71.5C 170.213,71.4676 171.713,73.8009 170,78.5C 169.617,79.056 169.117,79.3893 168.5,79.5C 169.15,77.5648 169.483,75.5648 169.5,73.5C 158.898,76.2586 148.898,74.9253 139.5,69.5 Z"/></g>
<g><path style="opacity:1" fill="#dfba78" d="M 41.5,74.5 C 42.8333,74.8333 44.1667,75.1667 45.5,75.5C 46.7682,77.9052 47.4349,80.5718 47.5,83.5C 45.2651,80.7089 43.2651,77.7089 41.5,74.5 Z"/></g>
<g><path style="opacity:1" fill="#e4c48f" d="M 57.5,71.5 C 57.8417,72.3382 58.5084,72.6716 59.5,72.5C 63.2984,73.4834 67.2984,73.8168 71.5,73.5C 65.3548,74.5549 59.3548,74.5549 53.5,73.5C 56.9812,82.9433 59.6478,92.61 61.5,102.5C 65.6861,102.456 69.8528,102.123 74,101.5C 77.7231,101.701 81.2231,102.367 84.5,103.5C 76.0817,103.802 67.7483,103.469 59.5,102.5C 57.3265,92.1386 54.9932,81.8052 52.5,71.5C 54.1667,71.5 55.8333,71.5 57.5,71.5 Z"/></g>
<g><path style="opacity:0.567" fill="#efdbb9" d="M 129.5,93.5 C 119.167,93.5 108.833,93.5 98.5,93.5C 107.902,92.8216 117.402,92.1549 127,91.5C 127.995,92.0659 128.828,92.7326 129.5,93.5 Z"/></g>
<g><path style="opacity:1" fill="#e3b050" d="M 98.5,94.5 C 107.167,94.5 115.833,94.5 124.5,94.5C 124.36,96.1238 125.027,97.2904 126.5,98C 115.651,97.8866 104.984,98.72 94.5,100.5C 93.7025,100.043 93.3691,99.3764 93.5,98.5C 93.9666,95.7026 95.6333,94.3692 98.5,94.5 Z"/></g>
<g><path style="opacity:0.09" fill="#fef2d7" d="M 96.5,100.5 C 106.325,99.3417 116.325,99.1751 126.5,100C 127.252,100.671 127.586,101.504 127.5,102.5C 126.711,102.217 126.044,101.717 125.5,101C 115.839,100.5 106.172,100.334 96.5,100.5 Z"/></g>
<g><path style="opacity:1" fill="#dfb15f" d="M 98.5,94.5 C 98.5,94.1667 98.5,93.8333 98.5,93.5C 108.833,93.5 119.167,93.5 129.5,93.5C 130.338,93.8417 130.672,94.5084 130.5,95.5C 130.685,97.1958 131.519,98.5291 133,99.5C 133.497,102.146 133.664,104.813 133.5,107.5C 130.167,111.5 126.5,115.167 122.5,118.5C 121.833,118.5 121.167,118.5 120.5,118.5C 120.5,116.5 119.5,115.5 117.5,115.5C 118.6,114.395 119.267,113.062 119.5,111.5C 123.167,109.833 125.833,107.167 127.5,103.5C 127.5,103.167 127.5,102.833 127.5,102.5C 127.586,101.504 127.252,100.671 126.5,100C 116.325,99.1751 106.325,99.3417 96.5,100.5C 96.5,101.167 96.1667,101.5 95.5,101.5C 94.5,101.5 93.5,101.5 92.5,101.5C 92.2627,100.209 92.596,99.209 93.5,98.5C 93.3691,99.3764 93.7025,100.043 94.5,100.5C 104.984,98.72 115.651,97.8866 126.5,98C 125.027,97.2904 124.36,96.1238 124.5,94.5C 115.833,94.5 107.167,94.5 98.5,94.5 Z"/></g>
<g><path style="opacity:1" fill="#e0c995" d="M 98.5,93.5 C 98.5,93.8333 98.5,94.1667 98.5,94.5C 95.6333,94.3692 93.9666,95.7026 93.5,98.5C 92.596,99.209 92.2627,100.209 92.5,101.5C 93.5,101.5 94.5,101.5 95.5,101.5C 93.703,102.393 92.3696,103.726 91.5,105.5C 89.2188,105.923 87.5521,105.256 86.5,103.5C 87.8221,103.33 88.9887,103.663 90,104.5C 91,101.167 92,97.8333 93,94.5C 94.6995,93.5939 96.5328,93.2606 98.5,93.5 Z"/></g>
<g><path style="opacity:1" fill="#e0bb77" d="M 167.5,83.5 C 167.147,89.0258 166.147,94.3591 164.5,99.5C 164.833,100.5 165.167,101.5 165.5,102.5C 168.262,98.9729 169.929,94.9729 170.5,90.5C 171.5,90.5 172.5,90.5 173.5,90.5C 170.955,97.2609 168.121,103.928 165,110.5C 163.301,111.406 161.467,111.739 159.5,111.5C 159.5,111.167 159.5,110.833 159.5,110.5C 161.011,109.498 162.678,108.831 164.5,108.5C 164.739,106.533 164.406,104.699 163.5,103C 161.19,102.503 158.857,102.337 156.5,102.5C 154.565,103.15 152.565,103.483 150.5,103.5C 154.163,101.584 158.163,100.584 162.5,100.5C 163.594,94.561 165.261,88.8943 167.5,83.5 Z"/></g>
<g><path style="opacity:1" fill="#e2bc79" d="M 53.5,95.5 C 54.3764,95.3691 55.0431,95.7025 55.5,96.5C 56.2105,99.6731 57.3771,102.673 59,105.5C 59.4828,104.552 59.6495,103.552 59.5,102.5C 67.7483,103.469 76.0817,103.802 84.5,103.5C 85.1667,103.5 85.8333,103.5 86.5,103.5C 87.5521,105.256 89.2188,105.923 91.5,105.5C 96.2522,106.183 100.252,108.183 103.5,111.5C 99.8663,110.708 96.5329,109.208 93.5,107C 90.8697,106.155 88.5364,106.655 86.5,108.5C 85.5713,107.311 85.238,105.978 85.5,104.5C 77.4931,104.334 69.4931,104.5 61.5,105C 60.5939,106.699 60.2606,108.533 60.5,110.5C 67.0221,110.177 73.3554,110.51 79.5,111.5C 72.7317,111.679 66.065,111.679 59.5,111.5C 57.2966,106.221 55.2966,100.887 53.5,95.5 Z"/></g>
<g><path style="opacity:0.992" fill="#e0c488" d="M 130.5,95.5 C 133.287,97.7198 135.62,100.386 137.5,103.5C 136.479,105.188 135.145,106.521 133.5,107.5C 133.664,104.813 133.497,102.146 133,99.5C 131.519,98.5291 130.685,97.1958 130.5,95.5 Z"/></g>
<g><path style="opacity:1" fill="#e4af53" d="M 156.5,102.5 C 158.857,102.337 161.19,102.503 163.5,103C 164.406,104.699 164.739,106.533 164.5,108.5C 162.678,108.831 161.011,109.498 159.5,110.5C 155.078,109.608 150.744,109.108 146.5,109C 149.518,106.111 152.852,103.944 156.5,102.5 Z"/></g>
<g><path style="opacity:1" fill="#e1b462" d="M 156.5,102.5 C 152.852,103.944 149.518,106.111 146.5,109C 150.744,109.108 155.078,109.608 159.5,110.5C 159.5,110.833 159.5,111.167 159.5,111.5C 156.918,111.025 154.918,111.692 153.5,113.5C 148.774,115.188 144.774,117.855 141.5,121.5C 139.973,121.427 138.973,122.094 138.5,123.5C 137.833,123.5 137.5,123.833 137.5,124.5C 137.167,124.5 136.833,124.5 136.5,124.5C 136.229,122.179 136.896,120.179 138.5,118.5C 142.434,117.471 145.434,115.971 147.5,114C 145.983,112.315 144.316,110.815 142.5,109.5C 140.929,112.093 138.596,113.093 135.5,112.5C 135.5,112.167 135.5,111.833 135.5,111.5C 136.873,111.657 138.207,111.49 139.5,111C 140.989,109.532 142.323,108.032 143.5,106.5C 145.426,104.707 147.759,103.707 150.5,103.5C 152.565,103.483 154.565,103.15 156.5,102.5 Z"/></g>
<g><path style="opacity:1" fill="#dec088" d="M 127.5,103.5 C 125.833,107.167 123.167,109.833 119.5,111.5C 121.833,108.5 124.5,105.833 127.5,103.5 Z"/></g>
<g><path style="opacity:1" fill="#e2b057" d="M 103.5,111.5 C 103.833,111.5 104.167,111.5 104.5,111.5C 105.523,113.846 106.523,116.179 107.5,118.5C 109.06,118.519 110.56,118.852 112,119.5C 113.981,118.35 115.814,117.016 117.5,115.5C 119.5,115.5 120.5,116.5 120.5,118.5C 119.955,120.042 118.289,120.875 115.5,121C 115.957,121.414 116.291,121.914 116.5,122.5C 115.271,123.281 113.938,123.781 112.5,124C 113.993,125.156 113.826,125.99 112,126.5C 110.862,126.011 109.695,125.678 108.5,125.5C 108.167,125.5 107.833,125.5 107.5,125.5C 106.567,121.238 103.9,119.238 99.5,119.5C 98.8333,119.5 98.5,119.167 98.5,118.5C 98.0629,116.926 97.0629,115.759 95.5,115C 91.8883,113.85 88.2217,113.017 84.5,112.5C 82.7085,112.634 81.0418,112.301 79.5,111.5C 73.3554,110.51 67.0221,110.177 60.5,110.5C 60.2606,108.533 60.5939,106.699 61.5,105C 69.4931,104.5 77.4931,104.334 85.5,104.5C 85.238,105.978 85.5713,107.311 86.5,108.5C 88.5364,106.655 90.8697,106.155 93.5,107C 96.5329,109.208 99.8663,110.708 103.5,111.5 Z"/></g>
<g><path style="opacity:1" fill="#debc81" d="M 143.5,106.5 C 142.323,108.032 140.989,109.532 139.5,111C 138.207,111.49 136.873,111.657 135.5,111.5C 137.629,109.05 140.296,107.383 143.5,106.5 Z"/></g>
<g><path style="opacity:0.322" fill="#efdeb9" d="M 159.5,111.5 C 157.698,112.458 155.698,113.125 153.5,113.5C 154.918,111.692 156.918,111.025 159.5,111.5 Z"/></g>
<g><path style="opacity:0.988" fill="#e0c38f" d="M 135.5,111.5 C 135.5,111.833 135.5,112.167 135.5,112.5C 133.098,114.909 130.431,116.909 127.5,118.5C 129.569,115.427 132.236,113.094 135.5,111.5 Z"/></g>
<g><path style="opacity:1" fill="#e2b054" d="M 136.5,124.5 C 135.5,124.5 134.5,124.5 133.5,124.5C 133.531,120.724 132.864,120.557 131.5,124C 132.79,127.205 131.79,128.038 128.5,126.5C 128.167,127 127.833,127.5 127.5,128C 128.233,129.766 128.567,131.599 128.5,133.5C 126.409,133.318 124.409,133.652 122.5,134.5C 121.322,137.391 120.655,140.391 120.5,143.5C 117.893,145.322 115.893,144.822 114.5,142C 115.428,141.612 116.095,140.945 116.5,140C 114.894,136.074 116.227,133.574 120.5,132.5C 119.637,131.274 119.637,129.94 120.5,128.5C 123.688,125.851 126.021,122.517 127.5,118.5C 130.431,116.909 133.098,114.909 135.5,112.5C 138.596,113.093 140.929,112.093 142.5,109.5C 144.316,110.815 145.983,112.315 147.5,114C 145.434,115.971 142.434,117.471 138.5,118.5C 136.896,120.179 136.229,122.179 136.5,124.5 Z"/></g>
<g><path style="opacity:0.996" fill="#dfc285" d="M 84.5,112.5 C 88.2217,113.017 91.8883,113.85 95.5,115C 97.0629,115.759 98.0629,116.926 98.5,118.5C 93.7653,116.461 89.0986,114.461 84.5,112.5 Z"/></g>
<g><path style="opacity:1" fill="#deba7b" d="M 104.5,111.5 C 106.848,113.68 109.348,115.68 112,117.5C 114.652,115.68 117.152,113.68 119.5,111.5C 119.267,113.062 118.6,114.395 117.5,115.5C 115.814,117.016 113.981,118.35 112,119.5C 110.56,118.852 109.06,118.519 107.5,118.5C 106.523,116.179 105.523,113.846 104.5,111.5 Z"/></g>
<g><path style="opacity:1" fill="#e2b054" d="M 104.5,130.5 C 105.156,132.484 105.822,134.484 106.5,136.5C 105.5,138.5 104.5,140.5 103.5,142.5C 99.8258,138.493 95.8258,134.826 91.5,131.5C 88.9881,130.205 86.3214,129.539 83.5,129.5C 77.6794,124.667 71.0127,123.334 63.5,125.5C 60.4379,127.384 57.1046,128.551 53.5,129C 51.5626,131.509 50.5626,134.343 50.5,137.5C 48.8058,138.527 47.4725,139.861 46.5,141.5C 45.5798,140.933 45.2465,141.599 45.5,143.5C 44.5,143.5 43.5,143.5 42.5,143.5C 42.5,142.167 42.5,140.833 42.5,139.5C 43.5,139.5 44.5,139.5 45.5,139.5C 45.6641,136.813 45.4974,134.146 45,131.5C 43.9609,132.71 42.7942,133.71 41.5,134.5C 41.5,133.833 41.5,133.167 41.5,132.5C 42.9063,132.027 43.573,131.027 43.5,129.5C 45.6379,129.019 47.3045,127.852 48.5,126C 49.7932,125.51 51.1266,125.343 52.5,125.5C 53.164,122.287 55.164,120.121 58.5,119C 65.4193,116.39 72.4193,116.057 79.5,118C 83.5,119.667 87.5,121.333 91.5,123C 95.4744,126.145 99.8078,128.645 104.5,130.5 Z"/></g>
<g><path style="opacity:0.976" fill="#e1c694" d="M 165.5,117.5 C 169.297,117.872 172.63,119.206 175.5,121.5C 171.673,121.248 168.34,119.915 165.5,117.5 Z"/></g>
<g><path style="opacity:1" fill="#e0be81" d="M 99.5,119.5 C 103.9,119.238 106.567,121.238 107.5,125.5C 104.795,123.488 102.128,121.488 99.5,119.5 Z"/></g>
<g><path style="opacity:1" fill="#e4be7d" d="M 120.5,118.5 C 121.167,118.5 121.833,118.5 122.5,118.5C 119.704,121.797 116.704,124.964 113.5,128C 111.072,128.747 109.406,127.914 108.5,125.5C 109.695,125.678 110.862,126.011 112,126.5C 113.826,125.99 113.993,125.156 112.5,124C 113.938,123.781 115.271,123.281 116.5,122.5C 116.291,121.914 115.957,121.414 115.5,121C 118.289,120.875 119.955,120.042 120.5,118.5 Z"/></g>
<g><path style="opacity:0.996" fill="#ddbd7a" d="M 154.5,117.5 C 151.2,119.642 147.533,120.975 143.5,121.5C 146.8,119.358 150.467,118.025 154.5,117.5 Z"/></g>
<g><path style="opacity:1" fill="#e1bd7e" d="M 104.5,130.5 C 99.8078,128.645 95.4744,126.145 91.5,123C 87.5,121.333 83.5,119.667 79.5,118C 72.4193,116.057 65.4193,116.39 58.5,119C 55.164,120.121 53.164,122.287 52.5,125.5C 51.1266,125.343 49.7932,125.51 48.5,126C 47.3045,127.852 45.6379,129.019 43.5,129.5C 44.0798,127.251 45.4131,125.585 47.5,124.5C 49.4044,124.262 50.7377,123.262 51.5,121.5C 56.9228,117.022 63.2561,114.689 70.5,114.5C 83.7059,116.106 95.0392,121.439 104.5,130.5 Z"/></g>
<g><path style="opacity:1" fill="#e4b564" d="M 165.5,117.5 C 168.34,119.915 171.673,121.248 175.5,121.5C 175.5,121.833 175.5,122.167 175.5,122.5C 172.493,123.514 169.493,124.514 166.5,125.5C 166.366,127.292 166.699,128.958 167.5,130.5C 158.416,125.524 149.083,125.191 139.5,129.5C 138.503,129.53 137.836,129.03 137.5,128C 138.315,126.357 139.315,124.857 140.5,123.5C 140.833,122.833 141.167,122.167 141.5,121.5C 142.167,121.5 142.833,121.5 143.5,121.5C 147.533,120.975 151.2,119.642 154.5,117.5C 158.167,116.167 161.833,116.167 165.5,117.5 Z"/></g>
<g><path style="opacity:0.796" fill="#edd0ae" d="M 51.5,121.5 C 50.7377,123.262 49.4044,124.262 47.5,124.5C 48.2623,122.738 49.5956,121.738 51.5,121.5 Z"/></g>
<g><path style="opacity:0.999" fill="#e3b96c" d="M 136.5,124.5 C 136.5,124.833 136.5,125.167 136.5,125.5C 135.833,125.5 135.5,125.833 135.5,126.5C 134.833,126.5 134.5,126.833 134.5,127.5C 133.833,127.5 133.5,127.833 133.5,128.5C 132.833,128.5 132.5,128.833 132.5,129.5C 131.833,129.5 131.5,129.833 131.5,130.5C 130.833,130.5 130.5,130.833 130.5,131.5C 129.662,131.842 129.328,132.508 129.5,133.5C 129.167,133.5 128.833,133.5 128.5,133.5C 128.567,131.599 128.233,129.766 127.5,128C 127.833,127.5 128.167,127 128.5,126.5C 131.79,128.038 132.79,127.205 131.5,124C 132.864,120.557 133.531,120.724 133.5,124.5C 134.5,124.5 135.5,124.5 136.5,124.5 Z"/></g>
<g><path style="opacity:1" fill="#e5c285" d="M 83.5,129.5 C 70.1874,123.387 59.1874,126.054 50.5,137.5C 50.5626,134.343 51.5626,131.509 53.5,129C 57.1046,128.551 60.4379,127.384 63.5,125.5C 71.0127,123.334 77.6794,124.667 83.5,129.5 Z"/></g>
<g><path style="opacity:0.937" fill="#e3c692" d="M 138.5,123.5 C 139.167,123.5 139.833,123.5 140.5,123.5C 139.315,124.857 138.315,126.357 137.5,128C 137.836,129.03 138.503,129.53 139.5,129.5C 135.884,131.318 132.55,133.652 129.5,136.5C 128.702,136.043 128.369,135.376 128.5,134.5C 129.167,134.5 129.5,134.167 129.5,133.5C 130.338,133.158 130.672,132.492 130.5,131.5C 131.167,131.5 131.5,131.167 131.5,130.5C 132.167,130.5 132.5,130.167 132.5,129.5C 133.167,129.5 133.5,129.167 133.5,128.5C 134.167,128.5 134.5,128.167 134.5,127.5C 135.167,127.5 135.5,127.167 135.5,126.5C 136.167,126.5 136.5,126.167 136.5,125.5C 137.167,125.5 137.5,125.167 137.5,124.5C 138.167,124.5 138.5,124.167 138.5,123.5 Z"/></g>
<g><path style="opacity:1" fill="#e2b053" d="M 175.5,122.5 C 176.976,124.5 178.809,126.167 181,127.5C 181.494,129.134 181.66,130.801 181.5,132.5C 180.026,137.11 179.026,141.777 178.5,146.5C 177.965,142.563 176.632,138.896 174.5,135.5C 174.709,134.914 175.043,134.414 175.5,134C 172.706,133.018 170.039,131.851 167.5,130.5C 166.699,128.958 166.366,127.292 166.5,125.5C 169.493,124.514 172.493,123.514 175.5,122.5 Z"/></g>
<g><path style="opacity:1" fill="#debb7a" d="M 175.5,121.5 C 182.712,126.236 187.212,132.903 189,141.5C 189.667,147.167 189.667,152.833 189,158.5C 188.337,162.035 186.837,165.035 184.5,167.5C 184.5,165.5 184.5,163.5 184.5,161.5C 185.75,161.423 186.583,160.756 187,159.5C 189.032,150.657 188.365,141.99 185,133.5C 183.989,132.663 182.822,132.33 181.5,132.5C 181.66,130.801 181.494,129.134 181,127.5C 178.809,126.167 176.976,124.5 175.5,122.5C 175.5,122.167 175.5,121.833 175.5,121.5 Z"/></g>
<g><path style="opacity:0.467" fill="#f2dab3" d="M 43.5,129.5 C 43.573,131.027 42.9063,132.027 41.5,132.5C 41.427,130.973 42.0937,129.973 43.5,129.5 Z"/></g>
<g><path style="opacity:1" fill="#e3b054" d="M 181.5,132.5 C 182.822,132.33 183.989,132.663 185,133.5C 188.365,141.99 189.032,150.657 187,159.5C 186.583,160.756 185.75,161.423 184.5,161.5C 182.738,161.357 181.071,161.691 179.5,162.5C 178.534,160.604 178.201,158.604 178.5,156.5C 178.5,153.167 178.5,149.833 178.5,146.5C 179.026,141.777 180.026,137.11 181.5,132.5 Z"/></g>
<g><path style="opacity:1" fill="#e3bc7a" d="M 167.5,130.5 C 170.039,131.851 172.706,133.018 175.5,134C 175.043,134.414 174.709,134.914 174.5,135.5C 176.632,138.896 177.965,142.563 178.5,146.5C 178.5,149.833 178.5,153.167 178.5,156.5C 176.874,159.286 175.374,162.286 174,165.5C 172.644,166.38 171.144,166.714 169.5,166.5C 176.56,159.053 178.393,150.387 175,140.5C 173.053,136.724 170.553,133.39 167.5,130.5 Z"/></g>
<g><path style="opacity:1" fill="#e2ba70" d="M 128.5,133.5 C 128.5,133.833 128.5,134.167 128.5,134.5C 125.833,137.5 123.167,140.5 120.5,143.5C 120.655,140.391 121.322,137.391 122.5,134.5C 124.409,133.652 126.409,133.318 128.5,133.5 Z"/></g>
<g><path style="opacity:1" fill="#e1c185" d="M 83.5,129.5 C 86.3214,129.539 88.9881,130.205 91.5,131.5C 95.8258,134.826 99.8258,138.493 103.5,142.5C 104.5,140.5 105.5,138.5 106.5,136.5C 105.822,134.484 105.156,132.484 104.5,130.5C 106.479,131.812 108.145,133.479 109.5,135.5C 107.735,138.709 105.735,141.709 103.5,144.5C 97.3566,138.675 90.6899,133.675 83.5,129.5 Z"/></g>
<g><path style="opacity:1" fill="#e1be81" d="M 127.5,118.5 C 126.021,122.517 123.688,125.851 120.5,128.5C 117.223,131.101 115.223,134.435 114.5,138.5C 113.5,138.5 112.5,138.5 111.5,138.5C 115.7,130.962 121.034,124.296 127.5,118.5 Z"/></g>
<g><path style="opacity:1" fill="#e1b564" d="M 120.5,128.5 C 119.637,129.94 119.637,131.274 120.5,132.5C 116.227,133.574 114.894,136.074 116.5,140C 116.095,140.945 115.428,141.612 114.5,142C 115.893,144.822 117.893,145.322 120.5,143.5C 119.331,146.511 117.664,149.178 115.5,151.5C 114.359,147.599 113.526,143.599 113,139.5C 111.092,142.215 109.759,145.215 109,148.5C 107.989,147.663 106.822,147.33 105.5,147.5C 106.759,143.975 108.759,140.975 111.5,138.5C 112.5,138.5 113.5,138.5 114.5,138.5C 115.223,134.435 117.223,131.101 120.5,128.5 Z"/></g>
<g><path style="opacity:1" fill="#e2be82" d="M 41.5,132.5 C 41.5,133.167 41.5,133.833 41.5,134.5C 38.9353,142.683 38.2686,151.017 39.5,159.5C 40.861,163.181 42.1943,166.847 43.5,170.5C 36.491,161.235 34.6577,150.902 38,139.5C 38.8984,136.931 40.065,134.598 41.5,132.5 Z"/></g>
<g><path style="opacity:1" fill="#e3af53" d="M 46.5,141.5 C 46.1707,147.537 46.5041,153.537 47.5,159.5C 48.1818,160.243 48.8485,160.909 49.5,161.5C 48.9066,164.596 49.9066,166.929 52.5,168.5C 51.6721,169.415 50.6721,170.081 49.5,170.5C 47.674,170.08 45.674,170.08 43.5,170.5C 42.1943,166.847 40.861,163.181 39.5,159.5C 38.2686,151.017 38.9353,142.683 41.5,134.5C 42.7942,133.71 43.9609,132.71 45,131.5C 45.4974,134.146 45.6641,136.813 45.5,139.5C 44.5,139.5 43.5,139.5 42.5,139.5C 42.5,140.833 42.5,142.167 42.5,143.5C 43.5,143.5 44.5,143.5 45.5,143.5C 45.2465,141.599 45.5798,140.933 46.5,141.5 Z"/></g>
<g><path style="opacity:1" fill="#e2af52" d="M 115.5,151.5 C 114.265,151.279 113.265,150.612 112.5,149.5C 112.522,154.066 110.522,157.399 106.5,159.5C 105.289,158.726 105.289,157.893 106.5,157C 105.376,156.751 104.376,156.251 103.5,155.5C 104.295,152.856 104.962,150.189 105.5,147.5C 106.822,147.33 107.989,147.663 109,148.5C 109.759,145.215 111.092,142.215 113,139.5C 113.526,143.599 114.359,147.599 115.5,151.5 Z"/></g>
<g><path style="opacity:0.459" fill="#ead3ad" d="M 121.5,151.5 C 119.97,152.211 118.637,153.211 117.5,154.5C 117.707,151.366 119.04,150.366 121.5,151.5 Z"/></g>
<g><path style="opacity:1" fill="#ddba78" d="M 50.5,137.5 C 46.5,145.5 46.5,153.5 50.5,161.5C 50.1667,161.5 49.8333,161.5 49.5,161.5C 48.8485,160.909 48.1818,160.243 47.5,159.5C 46.5041,153.537 46.1707,147.537 46.5,141.5C 47.4725,139.861 48.8058,138.527 50.5,137.5 Z"/></g>
<g><path style="opacity:1" fill="#e3b76b" d="M 105.5,147.5 C 104.962,150.189 104.295,152.856 103.5,155.5C 104.376,156.251 105.376,156.751 106.5,157C 105.289,157.893 105.289,158.726 106.5,159.5C 110.522,157.399 112.522,154.066 112.5,149.5C 113.265,150.612 114.265,151.279 115.5,151.5C 111.238,158.756 106.238,165.423 100.5,171.5C 100.739,169.533 100.406,167.699 99.5,166C 100.449,165.383 101.282,165.549 102,166.5C 102.617,165.551 102.451,164.718 101.5,164C 105.189,161.476 104.856,159.309 100.5,157.5C 100.833,156.167 101.167,154.833 101.5,153.5C 102.34,151.147 103.674,149.147 105.5,147.5 Z"/></g>
<g><path style="opacity:1" fill="#e5c996" d="M 101.5,153.5 C 101.167,154.833 100.833,156.167 100.5,157.5C 97.7673,160.239 94.7673,162.573 91.5,164.5C 94.8617,160.808 98.1951,157.141 101.5,153.5 Z"/></g>
<g><path style="opacity:0.733" fill="#eaddbe" d="M 125.5,156.5 C 126.906,156.973 127.573,157.973 127.5,159.5C 126.094,159.027 125.427,158.027 125.5,156.5 Z"/></g>
<g><path style="opacity:1" fill="#e2c189" d="M 117.5,154.5 C 117.106,155.967 116.773,157.467 116.5,159C 116.387,160.699 117.053,161.866 118.5,162.5C 119.502,164.011 120.169,165.678 120.5,167.5C 117.535,165.577 115.535,162.91 114.5,159.5C 114.757,157.308 115.757,155.641 117.5,154.5 Z"/></g>
<g><path style="opacity:1" fill="#e2b156" d="M 121.5,151.5 C 123.063,152.945 124.396,154.611 125.5,156.5C 125.427,158.027 126.094,159.027 127.5,159.5C 128.953,162.241 130.286,165.074 131.5,168C 128.414,170.244 126.414,169.411 125.5,165.5C 123.242,164.201 120.908,163.201 118.5,162.5C 117.053,161.866 116.387,160.699 116.5,159C 116.773,157.467 117.106,155.967 117.5,154.5C 118.637,153.211 119.97,152.211 121.5,151.5 Z"/></g>
<g><path style="opacity:1" fill="#e2b055" d="M 178.5,156.5 C 178.201,158.604 178.534,160.604 179.5,162.5C 181.071,161.691 182.738,161.357 184.5,161.5C 184.5,163.5 184.5,165.5 184.5,167.5C 183.25,167.577 182.417,168.244 182,169.5C 181.667,168.5 181.333,167.5 181,166.5C 180.505,168.473 180.338,170.473 180.5,172.5C 179.5,172.5 178.5,172.5 177.5,172.5C 177.5,173.5 177.5,174.5 177.5,175.5C 175.05,175.298 172.717,175.631 170.5,176.5C 168.103,173.458 165.103,172.458 161.5,173.5C 163.041,172.333 164.375,171 165.5,169.5C 166.795,168.512 168.128,167.512 169.5,166.5C 171.144,166.714 172.644,166.38 174,165.5C 175.374,162.286 176.874,159.286 178.5,156.5 Z"/></g>
<g><path style="opacity:0.545" fill="#ecddaf" d="M 50.5,161.5 C 51.9063,161.973 52.573,162.973 52.5,164.5C 51.0937,164.027 50.427,163.027 50.5,161.5 Z"/></g>
<g><path style="opacity:1" fill="#e1b971" d="M 49.5,161.5 C 49.8333,161.5 50.1667,161.5 50.5,161.5C 50.427,163.027 51.0937,164.027 52.5,164.5C 62.8531,173.575 74.1864,174.909 86.5,168.5C 85.4726,170.194 84.1392,171.527 82.5,172.5C 76.2238,174.705 69.8905,175.039 63.5,173.5C 61.2186,172.661 58.8852,171.661 56.5,170.5C 55.7579,172.108 55.5913,173.775 56,175.5C 53.7815,173.381 51.2815,173.048 48.5,174.5C 49.8262,175.642 50.8262,176.976 51.5,178.5C 47.8333,176.833 45.1667,174.167 43.5,170.5C 45.674,170.08 47.674,170.08 49.5,170.5C 50.6721,170.081 51.6721,169.415 52.5,168.5C 49.9066,166.929 48.9066,164.596 49.5,161.5 Z"/></g>
<g><path style="opacity:1" fill="#e3c48c" d="M 132.5,163.5 C 136.401,166.946 140.734,169.613 145.5,171.5C 141.5,170.5 137.5,169.5 133.5,168.5C 133.371,166.784 133.038,165.117 132.5,163.5 Z"/></g>
<g><path style="opacity:1" fill="#e2c69b" d="M 120.5,167.5 C 123.179,167.525 124.512,168.858 124.5,171.5C 122.833,170.5 121.5,169.167 120.5,167.5 Z"/></g>
<g><path style="opacity:1" fill="#e1b15b" d="M 100.5,157.5 C 104.856,159.309 105.189,161.476 101.5,164C 102.451,164.718 102.617,165.551 102,166.5C 101.282,165.549 100.449,165.383 99.5,166C 100.406,167.699 100.739,169.533 100.5,171.5C 98.8333,171.5 97.1667,171.5 95.5,171.5C 95.5,172.833 95.5,174.167 95.5,175.5C 94.4206,177.543 92.754,178.876 90.5,179.5C 88.8333,179.5 87.1667,179.5 85.5,179.5C 86.5872,178.755 88.2538,177.755 90.5,176.5C 91.8333,174.833 91.8333,173.167 90.5,171.5C 88.0898,173.768 85.4231,174.101 82.5,172.5C 84.1392,171.527 85.4726,170.194 86.5,168.5C 88.1423,167.197 89.8089,165.864 91.5,164.5C 94.7673,162.573 97.7673,160.239 100.5,157.5 Z"/></g>
<g><path style="opacity:1" fill="#e2b05a" d="M 127.5,159.5 C 129.167,160.833 130.833,162.167 132.5,163.5C 133.038,165.117 133.371,166.784 133.5,168.5C 137.5,169.5 141.5,170.5 145.5,171.5C 146.5,171.5 147.5,171.5 148.5,171.5C 148.611,172.117 148.944,172.617 149.5,173C 152.817,173.498 156.15,173.665 159.5,173.5C 156.023,174.323 152.356,174.823 148.5,175C 149.737,175.232 150.737,175.732 151.5,176.5C 147.936,176.849 144.602,176.183 141.5,174.5C 143.078,173.702 144.744,173.202 146.5,173C 143.167,172.333 139.833,172.333 136.5,173C 137.668,174.406 137.335,175.572 135.5,176.5C 136.612,177.265 137.279,178.265 137.5,179.5C 134.669,178.921 132.336,177.588 130.5,175.5C 129.522,172.675 127.522,171.342 124.5,171.5C 124.512,168.858 123.179,167.525 120.5,167.5C 120.169,165.678 119.502,164.011 118.5,162.5C 120.908,163.201 123.242,164.201 125.5,165.5C 126.414,169.411 128.414,170.244 131.5,168C 130.286,165.074 128.953,162.241 127.5,159.5 Z"/></g>
<g><path style="opacity:1" fill="#e7c994" d="M 100.5,171.5 C 99.4154,173.587 97.7488,174.92 95.5,175.5C 95.5,174.167 95.5,172.833 95.5,171.5C 97.1667,171.5 98.8333,171.5 100.5,171.5 Z"/></g>
<g><path style="opacity:1" fill="#e3c18a" d="M 124.5,171.5 C 127.522,171.342 129.522,172.675 130.5,175.5C 128.223,174.551 126.223,173.218 124.5,171.5 Z"/></g>
<g><path style="opacity:1" fill="#e1c28e" d="M 165.5,169.5 C 164.375,171 163.041,172.333 161.5,173.5C 160.833,173.5 160.167,173.5 159.5,173.5C 156.15,173.665 152.817,173.498 149.5,173C 148.944,172.617 148.611,172.117 148.5,171.5C 154.349,172.666 160.016,171.999 165.5,169.5 Z"/></g>
<g><path style="opacity:1" fill="#e2b564" d="M 63.5,173.5 C 62.1667,173.5 60.8333,173.5 59.5,173.5C 59.3285,175.492 59.9951,177.158 61.5,178.5C 59.9223,179.298 58.2556,179.798 56.5,180C 62.5826,182.474 68.9159,183.141 75.5,182C 74.5,181.667 73.5,181.333 72.5,181C 73.8732,180.125 75.3732,179.625 77,179.5C 79.7923,180.216 82.6257,180.549 85.5,180.5C 83.7809,181.022 82.4475,182.022 81.5,183.5C 70.5107,187.206 60.5107,185.54 51.5,178.5C 50.8262,176.976 49.8262,175.642 48.5,174.5C 51.2815,173.048 53.7815,173.381 56,175.5C 55.5913,173.775 55.7579,172.108 56.5,170.5C 58.8852,171.661 61.2186,172.661 63.5,173.5 Z"/></g>
<g><path style="opacity:1" fill="#e3b052" d="M 85.5,179.5 C 85.5,179.833 85.5,180.167 85.5,180.5C 82.6257,180.549 79.7923,180.216 77,179.5C 75.3732,179.625 73.8732,180.125 72.5,181C 73.5,181.333 74.5,181.667 75.5,182C 68.9159,183.141 62.5826,182.474 56.5,180C 58.2556,179.798 59.9223,179.298 61.5,178.5C 59.9951,177.158 59.3285,175.492 59.5,173.5C 60.8333,173.5 62.1667,173.5 63.5,173.5C 69.8905,175.039 76.2238,174.705 82.5,172.5C 85.4231,174.101 88.0898,173.768 90.5,171.5C 91.8333,173.167 91.8333,174.833 90.5,176.5C 88.2538,177.755 86.5872,178.755 85.5,179.5 Z"/></g>
<g><path style="opacity:1" fill="#e0b054" d="M 151.5,176.5 C 150.266,177.382 147.6,178.048 143.5,178.5C 149.448,180.96 155.282,180.627 161,177.5C 162.921,179.003 165.088,179.669 167.5,179.5C 166.1,180.1 165.1,181.1 164.5,182.5C 164.167,182.5 163.833,182.5 163.5,182.5C 154.717,182.471 146.051,181.471 137.5,179.5C 137.279,178.265 136.612,177.265 135.5,176.5C 137.335,175.572 137.668,174.406 136.5,173C 139.833,172.333 143.167,172.333 146.5,173C 144.744,173.202 143.078,173.702 141.5,174.5C 144.602,176.183 147.936,176.849 151.5,176.5 Z"/></g>
<g><path style="opacity:1" fill="#e3b052" d="M 170.5,176.5 C 170.5,178.5 169.5,179.5 167.5,179.5C 165.088,179.669 162.921,179.003 161,177.5C 155.282,180.627 149.448,180.96 143.5,178.5C 147.6,178.048 150.266,177.382 151.5,176.5C 150.737,175.732 149.737,175.232 148.5,175C 152.356,174.823 156.023,174.323 159.5,173.5C 160.167,173.5 160.833,173.5 161.5,173.5C 165.103,172.458 168.103,173.458 170.5,176.5 Z"/></g>
<g><path style="opacity:1" fill="#e1be7d" d="M 184.5,167.5 C 183.381,170.888 181.381,173.721 178.5,176C 174.192,178.988 169.525,181.155 164.5,182.5C 165.1,181.1 166.1,180.1 167.5,179.5C 169.5,179.5 170.5,178.5 170.5,176.5C 172.717,175.631 175.05,175.298 177.5,175.5C 177.5,174.5 177.5,173.5 177.5,172.5C 178.5,172.5 179.5,172.5 180.5,172.5C 180.338,170.473 180.505,168.473 181,166.5C 181.333,167.5 181.667,168.5 182,169.5C 182.417,168.244 183.25,167.577 184.5,167.5 Z"/></g>
<g><path style="opacity:1" fill="#e6cb98" d="M 85.5,179.5 C 87.1667,179.5 88.8333,179.5 90.5,179.5C 87.9116,181.592 84.9116,182.925 81.5,183.5C 82.4475,182.022 83.7809,181.022 85.5,180.5C 85.5,180.167 85.5,179.833 85.5,179.5 Z"/></g>
<g><path style="opacity:0.835" fill="#e6c186" d="M 137.5,179.5 C 146.051,181.471 154.717,182.471 163.5,182.5C 158.35,183.651 153.016,183.817 147.5,183C 143.755,182.698 140.422,181.531 137.5,179.5 Z"/></g>
<g><path style="opacity:0.947" fill="#debe7b" d="M 74.5,195.5 C 73.5,195.5 72.5,195.5 71.5,195.5C 71.5,201.833 71.5,208.167 71.5,214.5C 68.8333,215.833 66.1667,215.833 63.5,214.5C 65.5,214.5 67.5,214.5 69.5,214.5C 69.5,207.833 69.5,201.167 69.5,194.5C 68.1667,194.5 66.8333,194.5 65.5,194.5C 65.8235,201.022 65.4902,207.355 64.5,213.5C 64.5,207.5 64.5,201.5 64.5,195.5C 61.6421,195.028 59.6421,196.028 58.5,198.5C 57.5489,197.081 57.2155,195.415 57.5,193.5C 64.1998,193.17 70.8665,193.503 77.5,194.5C 76.675,195.386 75.675,195.719 74.5,195.5 Z"/></g>
<g><path style="opacity:0.957" fill="#dfbc7c" d="M 135.5,212.5 C 133.348,210.393 132.348,207.726 132.5,204.5C 132.217,198.616 134.884,194.782 140.5,193C 157.208,191.703 162.208,198.703 155.5,214C 150.43,216.424 145.097,217.091 139.5,216C 137.676,215.34 136.343,214.173 135.5,212.5 Z M 141.5,212.5 C 138.277,206.454 138.943,200.954 143.5,196C 147.166,194.729 149.666,195.896 151,199.5C 151.667,202.833 151.667,206.167 151,209.5C 148.858,213.503 145.691,214.503 141.5,212.5 Z"/></g>
<g><path style="opacity:0.969" fill="#dcbd7b" d="M 51.5,200.5 C 49.7428,199.708 48.4095,198.375 47.5,196.5C 46.16,197.867 44.8267,199.2 43.5,200.5C 46.0492,189.899 48.7159,189.899 51.5,200.5 Z"/></g>
<g><path style="opacity:0.773" fill="#e7d3af" d="M 74.5,195.5 C 75.675,195.719 76.675,195.386 77.5,194.5C 70.8665,193.503 64.1998,193.17 57.5,193.5C 57.2155,195.415 57.5489,197.081 58.5,198.5C 58.44,199.043 58.1067,199.376 57.5,199.5C 56.5258,197.257 56.1924,194.924 56.5,192.5C 63.8333,192.5 71.1667,192.5 78.5,192.5C 78.9863,194.807 78.9863,196.973 78.5,199C 78.1667,199.167 77.8333,199.333 77.5,199.5C 76.6114,197.993 75.6114,196.66 74.5,195.5 Z"/></g>
<g><path style="opacity:1" fill="#e0bf81" d="M 113.5,208.5 C 112.834,204.979 112.167,201.313 111.5,197.5C 110.201,198.09 109.368,199.09 109,200.5C 108.501,204.152 108.335,207.818 108.5,211.5C 105.419,205.647 106.085,200.147 110.5,195C 116.276,192.248 122.276,191.748 128.5,193.5C 128.813,196.247 128.48,198.914 127.5,201.5C 125.917,196.407 122.583,194.573 117.5,196C 113.961,199.387 112.628,203.553 113.5,208.5 Z"/></g>
<g><path style="opacity:0.979" fill="#e0c18b" d="M 168.5,196.5 C 167.85,196.196 167.183,195.863 166.5,195.5C 165.52,198.086 165.187,200.753 165.5,203.5C 164.5,206.167 163.5,208.833 162.5,211.5C 163.249,205.176 163.915,198.843 164.5,192.5C 167.142,192.488 168.475,193.821 168.5,196.5 Z"/></g>
<g><path style="opacity:0.092" fill="#fef6c9" d="M 95.5,196.5 C 93.5,196.5 91.5,196.5 89.5,196.5C 89.5,198.833 89.5,201.167 89.5,203.5C 88.5269,201.052 88.1936,198.385 88.5,195.5C 91.0593,195.198 93.3926,195.532 95.5,196.5 Z"/></g>
<g><path style="opacity:0.569" fill="#eacfa7" d="M 95.5,196.5 C 96.404,195.791 96.7373,194.791 96.5,193.5C 92.1667,193.5 87.8333,193.5 83.5,193.5C 83.8132,200.755 83.4799,207.921 82.5,215C 85.0385,215.796 87.3718,215.629 89.5,214.5C 90.3764,214.369 91.0431,214.702 91.5,215.5C 87.8333,216.833 84.1667,216.833 80.5,215.5C 80.8076,214.692 81.3076,214.025 82,213.5C 82.9245,206.34 82.4245,199.34 80.5,192.5C 86.1667,192.5 91.8333,192.5 97.5,192.5C 97.8076,194.924 97.4742,197.257 96.5,199.5C 95.6143,198.675 95.281,197.675 95.5,196.5 Z"/></g>
<g><path style="opacity:1" fill="#e4cb98" d="M 187.5,203.5 C 185.86,200.512 185.026,197.179 185,193.5C 184.617,194.056 184.117,194.389 183.5,194.5C 183.821,192.952 184.821,192.285 186.5,192.5C 186.552,196.198 186.886,199.865 187.5,203.5 Z"/></g>
<g><path style="opacity:1" fill="#e2af57" d="M 141.5,212.5 C 141.53,213.497 141.03,214.164 140,214.5C 138.594,213.586 137.094,212.92 135.5,212.5C 134.705,208.215 134.372,203.881 134.5,199.5C 135.833,199.5 137.167,199.5 138.5,199.5C 138.334,203.514 138.501,207.514 139,211.5C 139.671,212.252 140.504,212.586 141.5,212.5 Z"/></g>
<g><path style="opacity:1" fill="#e3b055" d="M 181.5,207.5 C 181.5,207.167 181.5,206.833 181.5,206.5C 180.781,204.236 180.448,201.903 180.5,199.5C 181.794,198.71 182.961,197.71 184,196.5C 185.156,202.468 185.989,208.468 186.5,214.5C 185.5,214.5 184.5,214.5 183.5,214.5C 183.421,213.07 183.754,211.736 184.5,210.5C 183.452,209.452 182.452,208.452 181.5,207.5 Z"/></g>
<g><path style="opacity:1" fill="#ddb466" d="M 95.5,196.5 C 93.3926,195.532 91.0593,195.198 88.5,195.5C 88.1936,198.385 88.5269,201.052 89.5,203.5C 91.099,203.768 92.4324,203.434 93.5,202.5C 95.3079,203.918 95.9746,205.918 95.5,208.5C 94.7029,209.478 94.0362,209.145 93.5,207.5C 92.3112,206.571 90.9778,206.238 89.5,206.5C 89.5,209.167 89.5,211.833 89.5,214.5C 87.3718,215.629 85.0385,215.796 82.5,215C 83.4799,207.921 83.8132,200.755 83.5,193.5C 87.8333,193.5 92.1667,193.5 96.5,193.5C 96.7373,194.791 96.404,195.791 95.5,196.5 Z"/></g>
<g><path style="opacity:1" fill="#e1af56" d="M 113.5,208.5 C 113.091,211.866 111.425,212.866 108.5,211.5C 108.335,207.818 108.501,204.152 109,200.5C 109.368,199.09 110.201,198.09 111.5,197.5C 112.167,201.313 112.834,204.979 113.5,208.5 Z"/></g>
<g><path style="opacity:0.127" fill="#f3e4c8" d="M 95.5,208.5 C 95.9746,205.918 95.3079,203.918 93.5,202.5C 93.8212,200.952 94.8212,200.285 96.5,200.5C 96.8064,203.385 96.4731,206.052 95.5,208.5 Z"/></g>
<g><path style="opacity:0.996" fill="#e1b053" d="M 168.5,196.5 C 169.338,196.842 169.672,197.508 169.5,198.5C 170.15,202.14 171.65,205.473 174,208.5C 174.798,210.259 174.631,211.926 173.5,213.5C 171.516,210.675 169.849,207.675 168.5,204.5C 167.583,203.873 166.583,203.539 165.5,203.5C 165.187,200.753 165.52,198.086 166.5,195.5C 167.183,195.863 167.85,196.196 168.5,196.5 Z"/></g>
<g><path style="opacity:1" fill="#e2af57" d="M 152.5,197.5 C 153.822,197.33 154.989,197.663 156,198.5C 156.967,203.37 156.467,208.037 154.5,212.5C 153.096,207.6 152.429,202.6 152.5,197.5 Z"/></g>
<g><path style="opacity:1" fill="#deb261" d="M 51.5,200.5 C 53.7737,204.714 55.7737,209.047 57.5,213.5C 57.0296,214.693 56.0296,215.36 54.5,215.5C 51.5898,215.58 49.9231,214.247 49.5,211.5C 49.5,211.167 49.5,210.833 49.5,210.5C 46.6946,209.681 43.6946,209.181 40.5,209C 41.3802,207.644 41.7135,206.144 41.5,204.5C 41.6596,202.847 42.3263,201.514 43.5,200.5C 44.8267,199.2 46.16,197.867 47.5,196.5C 48.4095,198.375 49.7428,199.708 51.5,200.5 Z M 45.5,203.5 C 48.4595,206.271 48.1261,207.271 44.5,206.5C 45.1272,205.583 45.4606,204.583 45.5,203.5 Z"/></g>
<g><path style="opacity:1" fill="#e0b976" d="M 169.5,198.5 C 171.479,201.099 173.479,203.765 175.5,206.5C 177.434,204.276 179.101,201.942 180.5,199.5C 180.448,201.903 180.781,204.236 181.5,206.5C 178.439,209.603 176.106,213.27 174.5,217.5C 172,213.833 169.5,210.167 167,206.5C 166.517,207.448 166.351,208.448 166.5,209.5C 165.539,211.265 165.205,213.265 165.5,215.5C 163.821,215.715 162.821,215.048 162.5,213.5C 162.5,212.833 162.5,212.167 162.5,211.5C 163.5,208.833 164.5,206.167 165.5,203.5C 166.583,203.539 167.583,203.873 168.5,204.5C 169.849,207.675 171.516,210.675 173.5,213.5C 174.631,211.926 174.798,210.259 174,208.5C 171.65,205.473 170.15,202.14 169.5,198.5 Z"/></g>
<g><path style="opacity:0.992" fill="#e0c17d" d="M 41.5,204.5 C 41.7135,206.144 41.3802,207.644 40.5,209C 43.6946,209.181 46.6946,209.681 49.5,210.5C 47.076,210.192 44.7427,210.526 42.5,211.5C 41.8728,212.417 41.5394,213.417 41.5,214.5C 41.0831,215.124 40.4164,215.457 39.5,215.5C 38.2867,215.253 37.62,214.586 37.5,213.5C 38.5969,210.314 39.9303,207.314 41.5,204.5 Z"/></g>
<g><path style="opacity:1" fill="#e1b058" d="M 63.5,214.5 C 63.5,213.833 63.8333,213.5 64.5,213.5C 65.4902,207.355 65.8235,201.022 65.5,194.5C 66.8333,194.5 68.1667,194.5 69.5,194.5C 69.5,201.167 69.5,207.833 69.5,214.5C 67.5,214.5 65.5,214.5 63.5,214.5 Z"/></g>
<g><path style="opacity:1" fill="#dfb873" d="M 187.5,203.5 C 187.848,207.258 188.515,210.924 189.5,214.5C 186.833,215.833 184.167,215.833 181.5,214.5C 181.5,212.167 181.5,209.833 181.5,207.5C 182.452,208.452 183.452,209.452 184.5,210.5C 183.754,211.736 183.421,213.07 183.5,214.5C 184.5,214.5 185.5,214.5 186.5,214.5C 185.989,208.468 185.156,202.468 184,196.5C 182.961,197.71 181.794,198.71 180.5,199.5C 181.11,197.566 182.11,195.899 183.5,194.5C 184.117,194.389 184.617,194.056 185,193.5C 185.026,197.179 185.86,200.512 187.5,203.5 Z"/></g>
<g><path style="opacity:1" fill="#debf7f" d="M 99.5,210.5 C 105.415,211.665 105.915,213.998 101,217.5C 97.3713,215.637 96.8713,213.304 99.5,210.5 Z"/></g>
<g><path style="opacity:0.969" fill="#debc7d" d="M 108.5,211.5 C 111.425,212.866 113.091,211.866 113.5,208.5C 115.45,212.929 118.783,214.429 123.5,213C 125.621,210.802 127.288,208.302 128.5,205.5C 130.006,208.941 129.673,212.108 127.5,215C 123.289,216.534 118.956,216.867 114.5,216C 111.894,215.208 109.894,213.708 108.5,211.5 Z"/></g>
<g><path style="opacity:0.576" fill="#e2cdad" d="M 37.5,213.5 C 37.62,214.586 38.2867,215.253 39.5,215.5C 40.4164,215.457 41.0831,215.124 41.5,214.5C 42.0431,214.56 42.3764,214.893 42.5,215.5C 39.8333,216.833 37.1667,216.833 34.5,215.5C 35.3569,214.575 36.3569,213.908 37.5,213.5 Z"/></g>
<g><path style="opacity:0.561" fill="#e4d0ac" d="M 49.5,211.5 C 49.9231,214.247 51.5898,215.58 54.5,215.5C 56.0296,215.36 57.0296,214.693 57.5,213.5C 58.6431,213.908 59.6431,214.575 60.5,215.5C 56.5,216.833 52.5,216.833 48.5,215.5C 49.2458,214.264 49.5792,212.93 49.5,211.5 Z"/></g>
<g><path style="opacity:0.588" fill="#e6d0b4" d="M 63.5,214.5 C 66.1667,215.833 68.8333,215.833 71.5,214.5C 72.3764,214.369 73.0431,214.702 73.5,215.5C 69.8333,216.833 66.1667,216.833 62.5,215.5C 62.6236,214.893 62.9569,214.56 63.5,214.5 Z"/></g>
<g><path style="opacity:0.553" fill="#e7d1b1" d="M 166.5,209.5 C 166.318,211.591 166.652,213.591 167.5,215.5C 164.833,216.833 162.167,216.833 159.5,215.5C 160.357,214.575 161.357,213.908 162.5,213.5C 162.821,215.048 163.821,215.715 165.5,215.5C 165.205,213.265 165.539,211.265 166.5,209.5 Z"/></g>
<g><path style="opacity:0.596" fill="#e5d1b0" d="M 181.5,214.5 C 184.167,215.833 186.833,215.833 189.5,214.5C 190.376,214.369 191.043,214.702 191.5,215.5C 187.833,216.833 184.167,216.833 180.5,215.5C 180.624,214.893 180.957,214.56 181.5,214.5 Z"/></g>
</svg>
