<?xml version="1.0" encoding="UTF-8"?>
<!DOCTYPE svg PUBLIC "-//W3C//DTD SVG 1.1//EN" "http://www.w3.org/Graphics/SVG/1.1/DTD/svg11.dtd">
<svg xmlns="http://www.w3.org/2000/svg" version="1.1" width="271px" height="392px" style="shape-rendering:geometricPrecision; text-rendering:geometricPrecision; image-rendering:optimizeQuality; fill-rule:evenodd; clip-rule:evenodd" xmlns:xlink="http://www.w3.org/1999/xlink">
<g><path style="opacity:1" fill="#fcfcfc" d="M -0.5,-0.5 C 89.8333,-0.5 180.167,-0.5 270.5,-0.5C 270.5,59.1667 270.5,118.833 270.5,178.5C 180.167,178.5 89.8333,178.5 -0.5,178.5C -0.5,118.833 -0.5,59.1667 -0.5,-0.5 Z"/></g>
<g><path style="opacity:1" fill="#a4a4a4" d="M 60.5,13.5 C 61.209,14.404 62.209,14.7373 63.5,14.5C 63.7136,18.2571 62.7136,18.9238 60.5,16.5C 59.4376,17.4246 59.4376,18.4246 60.5,19.5C 59.1667,19.5 57.8333,19.5 56.5,19.5C 56.7678,17.901 56.4345,16.5676 55.5,15.5C 55.7373,14.209 55.404,13.209 54.5,12.5C 54.5,12.1667 54.5,11.8333 54.5,11.5C 56.1172,10.962 57.7839,10.6287 59.5,10.5C 59.2627,11.791 59.596,12.791 60.5,13.5 Z"/></g>
<g><path style="opacity:1" fill="#313131" d="M 66.5,13.5 C 71.8946,12.5548 73.5613,14.5548 71.5,19.5C 70.1667,12.8333 68.8333,12.8333 67.5,19.5C 66.5344,17.604 66.2011,15.604 66.5,13.5 Z"/></g>
<g><path style="opacity:1" fill="#272727" d="M 54.5,11.5 C 54.5,11.8333 54.5,12.1667 54.5,12.5C 55.404,13.209 55.7373,14.209 55.5,15.5C 54.4324,16.4345 53.099,16.7678 51.5,16.5C 51.719,17.675 51.3857,18.675 50.5,19.5C 49.52,16.9135 49.1866,14.2469 49.5,11.5C 51.1667,11.5 52.8333,11.5 54.5,11.5 Z"/></g>
<g><path style="opacity:1" fill="#e8e8e8" d="M 54.5,12.5 C 54.5,13.5 54.5,14.5 54.5,15.5C 53.5,15.5 52.5,15.5 51.5,15.5C 51.5,14.5 51.5,13.5 51.5,12.5C 52.5,12.5 53.5,12.5 54.5,12.5 Z"/></g>
<g><path style="opacity:1" fill="#303030" d="M 60.5,13.5 C 64.9083,13.062 66.5749,15.062 65.5,19.5C 63.8333,19.5 62.1667,19.5 60.5,19.5C 59.4376,18.4246 59.4376,17.4246 60.5,16.5C 62.7136,18.9238 63.7136,18.2571 63.5,14.5C 62.209,14.7373 61.209,14.404 60.5,13.5 Z"/></g>
<g><path style="opacity:1" fill="#3b3b3b" d="M 74.5,13.5 C 75.8333,13.5 77.1667,13.5 78.5,13.5C 78.6713,16.7973 78.0046,17.1306 76.5,14.5C 75.5713,15.6888 75.238,17.0222 75.5,18.5C 76.552,18.3505 77.552,18.5172 78.5,19C 73.7282,19.8104 72.3948,17.9771 74.5,13.5 Z"/></g>
<g><path style="opacity:1" fill="#d7d7d7" d="M 230.5,11.5 C 233.959,11.5313 237.292,12.198 240.5,13.5C 241.5,12.8333 242.5,12.1667 243.5,11.5C 246.254,11.8965 249.254,12.2298 252.5,12.5C 251.167,14.8333 251.167,17.1667 252.5,19.5C 246.473,19.4158 240.639,19.0824 235,18.5C 232.989,21.3643 230.822,21.6976 228.5,19.5C 229.833,17.8333 231.167,16.1667 232.5,14.5C 231.284,13.9041 229.951,13.7374 228.5,14C 229.381,13.2917 230.047,12.4584 230.5,11.5 Z"/></g>
<g><path style="opacity:1" fill="#c4c4c4" d="M 206.5,12.5 C 210.038,12.2153 211.871,13.882 212,17.5C 212.471,15.7536 213.138,14.087 214,12.5C 214.138,15.6209 213.471,18.6209 212,21.5C 211.667,20.5 211.333,19.5 211,18.5C 209.612,19.5536 208.112,19.7203 206.5,19C 207.5,18.6667 208.5,18.3333 209.5,18C 205.75,17.5576 204.75,15.7243 206.5,12.5 Z"/></g>
<g><path style="opacity:1" fill="#f0d9ce" d="M 123.5,22.5 C 126.572,22.1826 129.572,22.5159 132.5,23.5C 133.024,25.4531 134.024,27.1198 135.5,28.5C 133.995,29.8415 133.328,31.5082 133.5,33.5C 132.5,33.5 131.5,33.5 130.5,33.5C 130.946,36.0101 130.28,38.0101 128.5,39.5C 129.072,35.4954 129.739,31.4954 130.5,27.5C 128.954,24.6057 126.621,22.939 123.5,22.5 Z"/></g>
<g><path style="opacity:1" fill="#ce6641" d="M 123.5,22.5 C 126.621,22.939 128.954,24.6057 130.5,27.5C 129.739,31.4954 129.072,35.4954 128.5,39.5C 128.167,39.5 127.833,39.5 127.5,39.5C 126.833,39.5 126.167,39.5 125.5,39.5C 127.002,35.879 128.002,32.0456 128.5,28C 128.355,27.228 128.022,26.5613 127.5,26C 120.888,24.7896 114.222,24.2896 107.5,24.5C 104.751,24.2739 102.084,24.6072 99.5,25.5C 98.343,28.7844 98.1764,32.1177 99,35.5C 101.007,36.6687 103.173,37.3354 105.5,37.5C 106.5,37.8333 107.167,38.5 107.5,39.5C 103.929,38.3578 100.262,37.6911 96.5,37.5C 96.4372,32.7971 96.7705,28.1304 97.5,23.5C 98.8333,23.5 100.167,23.5 101.5,23.5C 106.814,23.8874 111.98,23.2207 117,21.5C 119.137,22.0767 121.304,22.41 123.5,22.5 Z"/></g>
<g><path style="opacity:1" fill="#d75922" d="M 107.5,24.5 C 107.5,25.5 107.5,26.5 107.5,27.5C 105.473,27.3379 103.473,27.5045 101.5,28C 100.663,29.0113 100.33,30.1779 100.5,31.5C 102.167,31.5 103.833,31.5 105.5,31.5C 105.5,33.5 105.5,35.5 105.5,37.5C 103.173,37.3354 101.007,36.6687 99,35.5C 98.1764,32.1177 98.343,28.7844 99.5,25.5C 102.084,24.6072 104.751,24.2739 107.5,24.5 Z"/></g>
<g><path style="opacity:1" fill="#9799a4" d="M 24.5,9.5 C 39.7343,9.2996 44.5676,16.2996 39,30.5C 32.2644,35.7789 25.5977,35.7789 19,30.5C 14.3208,21.6418 16.1541,14.6418 24.5,9.5 Z"/></g>
<g><path style="opacity:1" fill="#d8dbe5" d="M 26.5,18.5 C 28.1992,18.3398 29.8659,18.5065 31.5,19C 33.0093,22.6693 31.6759,24.1693 27.5,23.5C 27.6495,24.552 27.4828,25.552 27,26.5C 26.5026,23.854 26.3359,21.1873 26.5,18.5 Z"/></g>
<g><path style="opacity:1" fill="#bc1d05" d="M 107.5,24.5 C 114.222,24.2896 120.888,24.7896 127.5,26C 128.022,26.5613 128.355,27.228 128.5,28C 128.002,32.0456 127.002,35.879 125.5,39.5C 119.5,39.5 113.5,39.5 107.5,39.5C 107.167,38.5 106.5,37.8333 105.5,37.5C 105.5,35.5 105.5,33.5 105.5,31.5C 103.833,31.5 102.167,31.5 100.5,31.5C 100.33,30.1779 100.663,29.0113 101.5,28C 103.473,27.5045 105.473,27.3379 107.5,27.5C 107.5,26.5 107.5,25.5 107.5,24.5 Z"/></g>
<g><path style="opacity:1" fill="#c4c4c4" d="M 67.5,27.5 C 69.1533,28.6045 70.82,28.7712 72.5,28C 73.1905,29.0674 73.6905,30.2341 74,31.5C 75.0674,30.8095 76.2341,30.3095 77.5,30C 73.7297,29.116 73.7297,28.4494 77.5,28C 78.4061,29.6995 78.7394,31.5328 78.5,33.5C 76.326,33.0798 74.326,33.0798 72.5,33.5C 71.7189,32.2713 71.2189,30.938 71,29.5C 70.0914,34.7298 68.9247,34.7298 67.5,29.5C 66.7189,30.7287 66.2189,32.062 66,33.5C 65.2568,31.1261 65.7568,29.1261 67.5,27.5 Z"/></g>
<g><path style="opacity:1" fill="#d8ccc5" d="M 101.5,23.5 C 100.167,23.5 98.8333,23.5 97.5,23.5C 96.7705,28.1304 96.4372,32.7971 96.5,37.5C 95.7321,36.7375 95.2321,35.7375 95,34.5C 93.4931,35.5348 91.9931,35.3681 90.5,34C 89.6314,31.6322 87.9647,30.1322 85.5,29.5C 84.7492,30.376 84.2492,31.376 84,32.5C 83.2753,27.4112 84.9419,26.4112 89,29.5C 89.3333,29.1667 89.6667,28.8333 90,28.5C 90.8178,33.7937 91.3178,33.7937 91.5,28.5C 95.4851,28.5601 97.1518,26.5601 96.5,22.5C 98.4147,22.2155 100.081,22.5489 101.5,23.5 Z"/></g>
<g><path style="opacity:1" fill="#535353" d="M 51.5,24.5 C 53.3599,27.249 54.5266,30.249 55,33.5C 53.8904,31.9632 52.3904,31.2965 50.5,31.5C 50.9926,29.1944 51.3259,26.861 51.5,24.5 Z"/></g>
<g><path style="opacity:1" fill="#e4927a" d="M 107.5,39.5 C 113.5,39.5 119.5,39.5 125.5,39.5C 126.167,39.5 126.833,39.5 127.5,39.5C 127.389,40.1174 127.056,40.6174 126.5,41C 124,41.1667 121.5,41.3333 119,41.5C 114.888,41.6511 111.054,40.9844 107.5,39.5 Z"/></g>
<g><path style="opacity:1" fill="#cf5a33" d="M 207.5,56.5 C 212.179,56.3342 216.845,56.5008 221.5,57C 222.942,57.3768 223.942,58.2101 224.5,59.5C 213.52,58.3552 202.52,58.3552 191.5,59.5C 191.5,63.5 191.5,67.5 191.5,71.5C 190.5,71.1667 189.833,70.5 189.5,69.5C 189.5,66.1667 189.5,62.8333 189.5,59.5C 189.484,57.5159 190.484,56.5159 192.5,56.5C 197.65,57.7538 202.65,57.7538 207.5,56.5 Z"/></g>
<g><path style="opacity:1" fill="#131313" d="M 16.5,60.5 C 19.0241,59.1997 21.6908,59.1997 24.5,60.5C 23.0869,63.6612 21.4203,66.6612 19.5,69.5C 19.3658,66.5328 20.3658,63.6995 22.5,61C 20.5273,60.5045 18.5273,60.3379 16.5,60.5 Z"/></g>
<g><path style="opacity:1" fill="#282828" d="M 34.5,69.5 C 33.1667,69.5 31.8333,69.5 30.5,69.5C 27.8562,67.484 27.0228,64.8173 28,61.5C 30.858,57.5946 33.5247,57.5946 36,61.5C 36.8907,64.4976 36.3907,67.1643 34.5,69.5 Z"/></g>
<g><path style="opacity:1" fill="#686868" d="M 87.5,66.5 C 86.6862,64.369 86.1862,62.0356 86,59.5C 85.5026,62.146 85.3359,64.8127 85.5,67.5C 84.5233,64.7131 84.19,61.7131 84.5,58.5C 85.5,58.5 86.5,58.5 87.5,58.5C 87.5,61.1667 87.5,63.8333 87.5,66.5 Z"/></g>
<g><path style="opacity:1" fill="#262626" d="M 101.5,69.5 C 99.0225,69.9492 97.0225,69.2825 95.5,67.5C 95.8333,67.1667 96.1667,66.8333 96.5,66.5C 97.8498,67.9501 99.5165,68.6168 101.5,68.5C 101.5,67.5 101.5,66.5 101.5,65.5C 99.1417,65.7475 97.1417,65.0808 95.5,63.5C 96.4766,58.251 99.1433,57.251 103.5,60.5C 101.997,61.0522 100.331,61.0522 98.5,60.5C 98.5,61.5 98.5,62.5 98.5,63.5C 102.509,63.0136 104.342,64.6803 104,68.5C 103.329,69.2524 102.496,69.5858 101.5,69.5 Z"/></g>
<g><path style="opacity:1" fill="#e29f85" d="M 207.5,56.5 C 213.31,55.5104 219.31,55.1771 225.5,55.5C 225.351,56.552 225.517,57.552 226,58.5C 228.326,58.88 230.159,59.88 231.5,61.5C 230.833,61.5 230.167,61.5 229.5,61.5C 228.609,60.8902 227.609,60.5569 226.5,60.5C 225.833,60.1667 225.167,59.8333 224.5,59.5C 223.942,58.2101 222.942,57.3768 221.5,57C 216.845,56.5008 212.179,56.3342 207.5,56.5 Z"/></g>
<g><path style="opacity:1" fill="#181818" d="M 44.5,69.5 C 43.1667,69.5 41.8333,69.5 40.5,69.5C 39.8826,69.3893 39.3826,69.056 39,68.5C 38.3333,65.8333 38.3333,63.1667 39,60.5C 41.8402,57.6293 44.1735,57.9626 46,61.5C 46.8907,64.4976 46.3907,67.1643 44.5,69.5 Z"/></g>
<g><path style="opacity:1" fill="#191919" d="M 77.5,69.5 C 76.1667,69.5 74.8333,69.5 73.5,69.5C 71.6093,67.1643 71.1093,64.4976 72,61.5C 73.9879,58.1618 76.3212,57.8285 79,60.5C 79.6667,63.1667 79.6667,65.8333 79,68.5C 78.6174,69.056 78.1174,69.3893 77.5,69.5 Z"/></g>
<g><path style="opacity:1" fill="#505050" d="M 111.5,59.5 C 109.833,59.5 108.167,59.5 106.5,59.5C 106.5,62.8333 106.5,66.1667 106.5,69.5C 105.518,66.0381 105.185,62.3714 105.5,58.5C 107.735,58.2053 109.735,58.5386 111.5,59.5 Z"/></g>
<g><path style="opacity:1" fill="#e2e2e2" d="M 41.5,60.5 C 43.8896,60.6848 44.8896,62.0182 44.5,64.5C 43.1667,69.8333 41.8333,69.8333 40.5,64.5C 40.6233,63.0755 40.9566,61.7421 41.5,60.5 Z"/></g>
<g><path style="opacity:1" fill="#1f1f1f" d="M 53.5,69.5 C 52.5,69.5 51.5,69.5 50.5,69.5C 49.8826,69.3893 49.3826,69.056 49,68.5C 48.3333,65.8333 48.3333,63.1667 49,60.5C 53.4796,57.2505 55.9796,58.4171 56.5,64C 56.8837,66.7415 55.8837,68.5749 53.5,69.5 Z"/></g>
<g><path style="opacity:1" fill="#e4e4e4" d="M 74.5,60.5 C 76.8896,60.6848 77.8896,62.0182 77.5,64.5C 76.0097,69.894 74.6764,69.7273 73.5,64C 73.6483,62.7441 73.9816,61.5774 74.5,60.5 Z"/></g>
<g><path style="opacity:1" fill="#171717" d="M 111.5,59.5 C 112.496,59.4142 113.329,59.7476 114,60.5C 116.003,67.3273 113.503,70.3273 106.5,69.5C 106.5,66.1667 106.5,62.8333 106.5,59.5C 108.167,59.5 109.833,59.5 111.5,59.5 Z"/></g>
<g><path style="opacity:1" fill="#fbfbfb" d="M 110.5,61.5 C 113.167,63.5 113.167,65.5 110.5,67.5C 109.307,67.0296 108.64,66.0296 108.5,64.5C 108.64,62.9704 109.307,61.9704 110.5,61.5 Z"/></g>
<g><path style="opacity:1" fill="#3f2e2a" d="M 189.5,59.5 C 189.5,62.8333 189.5,66.1667 189.5,69.5C 188.504,69.5858 187.671,69.2524 187,68.5C 186.689,66.444 186.189,64.444 185.5,62.5C 186.077,60.4501 187.41,59.4501 189.5,59.5 Z"/></g>
<g><path style="opacity:1" fill="#efefef" d="M 31.5,60.5 C 34.3932,61.8923 35.0598,64.059 33.5,67C 32.552,67.4828 31.552,67.6495 30.5,67.5C 30.298,65.0504 30.6314,62.717 31.5,60.5 Z"/></g>
<g><path style="opacity:1" fill="#ececec" d="M 51.5,60.5 C 53.7224,60.5587 54.7224,61.7253 54.5,64C 54.5765,66.7561 53.2431,67.9228 50.5,67.5C 50.298,65.0504 50.6314,62.717 51.5,60.5 Z"/></g>
<g><path style="opacity:1" fill="#252525" d="M 161.5,61.5 C 164.833,60.8333 166.833,62.1667 167.5,65.5C 165.577,66.3078 163.577,66.8078 161.5,67C 163.078,68.1405 164.744,68.6405 166.5,68.5C 159.699,69.9031 158.032,67.5698 161.5,61.5 Z"/></g>
<g><path style="opacity:1" fill="#2d2d2d" d="M 177.5,59.5 C 179.59,59.4501 180.923,60.4501 181.5,62.5C 180.22,64.7016 180.22,66.8683 181.5,69C 180.216,69.6838 179.049,69.5171 178,68.5C 176.937,65.4324 176.77,62.4324 177.5,59.5 Z"/></g>
<g><path style="opacity:1" fill="#787878" d="M 110.5,61.5 C 109.307,61.9704 108.64,62.9704 108.5,64.5C 108.64,66.0296 109.307,67.0296 110.5,67.5C 109.791,68.404 108.791,68.7373 107.5,68.5C 107.5,65.8333 107.5,63.1667 107.5,60.5C 108.791,60.2627 109.791,60.596 110.5,61.5 Z"/></g>
<g><path style="opacity:1" fill="#2b2b2b" d="M 119.5,61.5 C 120.859,62.0065 121.859,63.0065 122.5,64.5C 123.386,63.675 123.719,62.675 123.5,61.5C 124.5,61.5 125.5,61.5 126.5,61.5C 127.004,65.3354 128.004,65.3354 129.5,61.5C 130.206,63.7657 130.039,66.0991 129,68.5C 128.586,68.9574 128.086,69.2907 127.5,69.5C 126.194,68.0878 125.36,66.4211 125,64.5C 124.846,67.5246 123.346,69.1913 120.5,69.5C 120.425,66.7938 120.092,64.1272 119.5,61.5 Z"/></g>
<g><path style="opacity:1" fill="#191919" d="M 141.5,61.5 C 147.176,61.9475 147.509,62.7808 142.5,64C 143.563,65.1882 144.897,65.6882 146.5,65.5C 146.5,66.8333 146.5,68.1667 146.5,69.5C 144.396,69.7989 142.396,69.4656 140.5,68.5C 141.833,68.1667 143.167,67.8333 144.5,67.5C 140.803,66.7147 139.803,64.7147 141.5,61.5 Z"/></g>
<g><path style="opacity:1" fill="#1d1d1d" d="M 152.5,61.5 C 158.176,61.9475 158.509,62.7808 153.5,64C 154.891,65.02 156.391,65.8534 158,66.5C 158.617,67.4491 158.451,68.2825 157.5,69C 155.272,69.8201 153.272,69.4868 151.5,68C 157.659,68.3932 157.826,67.5599 152,65.5C 151.421,64.0715 151.588,62.7382 152.5,61.5 Z"/></g>
<g><path style="opacity:1" fill="#121212" d="M 168.5,61.5 C 170.611,61.7721 172.777,62.1054 175,62.5C 175.814,64.9018 175.647,67.2351 174.5,69.5C 173.534,67.604 173.201,65.604 173.5,63.5C 172.5,63.5 171.5,63.5 170.5,63.5C 170.799,65.604 170.466,67.604 169.5,69.5C 168.52,66.9135 168.187,64.2469 168.5,61.5 Z"/></g>
<g><path style="opacity:1" fill="#c32103" d="M 224.5,59.5 C 225.167,59.8333 225.833,60.1667 226.5,60.5C 228.364,64.8415 227.697,68.6748 224.5,72C 213.505,72.4998 202.505,72.6665 191.5,72.5C 191.5,72.1667 191.5,71.8333 191.5,71.5C 191.5,67.5 191.5,63.5 191.5,59.5C 202.52,58.3552 213.52,58.3552 224.5,59.5 Z"/></g>
<g><path style="opacity:1" fill="#724835" d="M 229.5,61.5 C 230.167,61.5 230.833,61.5 231.5,61.5C 234.297,61.9666 235.631,63.6333 235.5,66.5C 231.551,66.6932 231.551,67.1932 235.5,68C 234.956,68.7172 234.289,69.2172 233.5,69.5C 232.833,69.5 232.167,69.5 231.5,69.5C 231.717,66.5794 231.051,63.9128 229.5,61.5 Z"/></g>
<g><path style="opacity:1" fill="#191919" d="M 64.5,58.5 C 66.3904,58.2965 67.8904,58.9632 69,60.5C 69.7772,63.4294 69.6105,66.2628 68.5,69C 62.4983,69.9931 60.3317,67.4931 62,61.5C 62.6979,60.3094 63.5313,59.3094 64.5,58.5 Z"/></g>
<g><path style="opacity:1" fill="#e3e3e3" d="M 64.5,60.5 C 66.8896,60.6848 67.8896,62.0182 67.5,64.5C 66.0097,69.894 64.6764,69.7273 63.5,64C 63.6483,62.7441 63.9816,61.5774 64.5,60.5 Z"/></g>
<g><path style="opacity:1" fill="#232323" d="M 132.5,61.5 C 134.467,61.2606 136.301,61.5939 138,62.5C 138.497,64.8098 138.663,67.1432 138.5,69.5C 136.167,69.5 133.833,69.5 131.5,69.5C 131.215,65.9621 132.882,64.1288 136.5,64C 134.563,63.8784 133.23,63.045 132.5,61.5 Z"/></g>
<g><path style="opacity:1" fill="#c1c1c1" d="M 133.5,66.5 C 136.797,66.3287 137.131,66.9954 134.5,68.5C 133.702,68.0431 133.369,67.3764 133.5,66.5 Z"/></g>
<g><path style="opacity:1" fill="#161615" d="M 24.5,68.5 C 25.2389,68.369 25.9056,68.5357 26.5,69C 25.1177,73.7055 24.4511,73.5388 24.5,68.5 Z"/></g>
<g><path style="opacity:1" fill="#464646" d="M 57.5,67.5 C 58.675,67.281 59.675,67.6143 60.5,68.5C 58.9483,69.7979 57.9483,69.4646 57.5,67.5 Z"/></g>
<g><path style="opacity:1" fill="#0e0e0e" d="M 87.5,66.5 C 88.2545,68.4663 89.4212,68.7996 91,67.5C 91.4974,64.854 91.6641,62.1873 91.5,59.5C 92.7647,60.5145 93.4313,62.0145 93.5,64C 94.2393,68.7596 92.2393,70.5929 87.5,69.5C 86.5,69.1667 85.8333,68.5 85.5,67.5C 85.3359,64.8127 85.5026,62.146 86,59.5C 86.1862,62.0356 86.6862,64.369 87.5,66.5 Z"/></g>
<g><path style="opacity:1" fill="#cccbcb" d="M 91.5,59.5 C 92.209,58.596 93.209,58.2627 94.5,58.5C 94.2155,60.4147 94.5489,62.0813 95.5,63.5C 97.1417,65.0808 99.1417,65.7475 101.5,65.5C 101.5,66.5 101.5,67.5 101.5,68.5C 99.5165,68.6168 97.8498,67.9501 96.5,66.5C 96.1667,66.8333 95.8333,67.1667 95.5,67.5C 97.0225,69.2825 99.0225,69.9492 101.5,69.5C 101.082,70.2216 100.416,70.7216 99.5,71C 105.196,71.1701 110.862,71.6701 116.5,72.5C 86.8333,73.8333 57.1667,73.8333 27.5,72.5C 29.0777,71.7022 30.7444,71.2022 32.5,71C 31.5842,70.7216 30.9175,70.2216 30.5,69.5C 31.8333,69.5 33.1667,69.5 34.5,69.5C 35.5145,70.7647 37.0145,71.4313 39,71.5C 40.5,71.3333 42,71.1667 43.5,71C 42.2625,70.7679 41.2625,70.2679 40.5,69.5C 41.8333,69.5 43.1667,69.5 44.5,69.5C 45.1522,70.7251 46.3189,71.3917 48,71.5C 49.1667,71.3333 50.3333,71.1667 51.5,71C 50.944,70.6174 50.6107,70.1174 50.5,69.5C 51.5,69.5 52.5,69.5 53.5,69.5C 56.2575,70.8182 59.4242,71.4848 63,71.5C 66.1667,71.3333 69.3333,71.1667 72.5,71C 73.056,70.6174 73.3893,70.1174 73.5,69.5C 74.8333,69.5 76.1667,69.5 77.5,69.5C 76.7375,70.2679 75.7375,70.7679 74.5,71C 79.8333,71.6667 85.1667,71.6667 90.5,71C 89.2625,70.7679 88.2625,70.2679 87.5,69.5C 92.2393,70.5929 94.2393,68.7596 93.5,64C 93.4313,62.0145 92.7647,60.5145 91.5,59.5 Z"/></g>
<g><path style="opacity:1" fill="#c65128" d="M 226.5,60.5 C 227.609,60.5569 228.609,60.8902 229.5,61.5C 231.051,63.9128 231.717,66.5794 231.5,69.5C 229.866,70.2066 228.532,71.3732 227.5,73C 216.505,73.4998 205.505,73.6665 194.5,73.5C 193.209,73.7373 192.209,73.404 191.5,72.5C 202.505,72.6665 213.505,72.4998 224.5,72C 227.697,68.6748 228.364,64.8415 226.5,60.5 Z"/></g>
<g><path style="opacity:1" fill="#d17957" d="M 231.5,69.5 C 231.376,71.5816 230.376,73.0816 228.5,74C 221.842,74.4996 215.175,74.6663 208.5,74.5C 203.637,74.8195 198.97,74.4861 194.5,73.5C 205.505,73.6665 216.505,73.4998 227.5,73C 228.532,71.3732 229.866,70.2066 231.5,69.5 Z"/></g>
<g><path style="opacity:1" fill="#f4bda6" d="M 231.5,69.5 C 232.167,69.5 232.833,69.5 233.5,69.5C 232.841,71.1379 232.174,72.8045 231.5,74.5C 223.677,75.8199 216.01,75.8199 208.5,74.5C 215.175,74.6663 221.842,74.4996 228.5,74C 230.376,73.0816 231.376,71.5816 231.5,69.5 Z"/></g>
<g><path style="opacity:1" fill="#2c1914" d="M 90.5,79.5 C 92.3318,78.2819 93.3318,78.9486 93.5,81.5C 93.5,81.8333 93.5,82.1667 93.5,82.5C 92.8333,82.1667 92.1667,81.8333 91.5,81.5C 91.6716,80.5084 91.3382,79.8417 90.5,79.5 Z"/></g>
<g><path style="opacity:1" fill="#ad4f33" d="M 90.5,79.5 C 91.3382,79.8417 91.6716,80.5084 91.5,81.5C 91.0831,82.1239 90.4164,82.4573 89.5,82.5C 77.071,79.6717 64.7376,80.005 52.5,83.5C 45.3283,83.0359 38.3283,82.3692 31.5,81.5C 40.0168,81.8261 48.3501,81.4927 56.5,80.5C 58.2877,77.9337 60.121,77.9337 62,80.5C 63.8491,79.4392 65.8491,78.7725 68,78.5C 74.3195,78.5913 80.6529,78.5913 87,78.5C 87.9503,79.0223 88.7836,79.689 89.5,80.5C 90.1067,80.3764 90.44,80.0431 90.5,79.5 Z"/></g>
<g><path style="opacity:1" fill="#b86c51" d="M 21.5,78.5 C 23.4147,78.2155 25.0813,78.5489 26.5,79.5C 24.549,79.2267 23.049,79.8934 22,81.5C 20.7633,85.0601 20.2633,88.7267 20.5,92.5C 19.5987,91.7095 18.9321,90.7095 18.5,89.5C 19.098,85.8082 20.098,82.1415 21.5,78.5 Z"/></g>
<g><path style="opacity:1" fill="#fcd8c5" d="M 19.5,78.5 C 20.6216,77.8442 21.9549,77.5108 23.5,77.5C 34.2783,79.8626 45.2783,80.8626 56.5,80.5C 48.3501,81.4927 40.0168,81.8261 31.5,81.5C 29.9724,80.6908 28.3057,80.0241 26.5,79.5C 25.0813,78.5489 23.4147,78.2155 21.5,78.5C 20.8333,78.5 20.1667,78.5 19.5,78.5 Z"/></g>
<g><path style="opacity:1" fill="#301916" d="M 19.5,78.5 C 20.1667,78.5 20.8333,78.5 21.5,78.5C 20.098,82.1415 19.098,85.8082 18.5,89.5C 16.977,85.6454 17.3104,81.9788 19.5,78.5 Z"/></g>
<g><path style="opacity:1" fill="#c32003" d="M 26.5,79.5 C 28.3057,80.0241 29.9724,80.6908 31.5,81.5C 38.3283,82.3692 45.3283,83.0359 52.5,83.5C 64.7376,80.005 77.071,79.6717 89.5,82.5C 90.4164,82.4573 91.0831,82.1239 91.5,81.5C 92.1667,81.8333 92.8333,82.1667 93.5,82.5C 93.5,83.1667 93.8333,83.5 94.5,83.5C 94.1691,87.826 92.8358,91.826 90.5,95.5C 86.9062,96.4259 83.2396,96.7592 79.5,96.5C 61.0075,95.5031 42.3408,95.1698 23.5,95.5C 21.8564,95.1898 20.8564,94.1898 20.5,92.5C 20.2633,88.7267 20.7633,85.0601 22,81.5C 23.049,79.8934 24.549,79.2267 26.5,79.5 Z"/></g>
<g><path style="opacity:1" fill="#dd744b" d="M 94.5,83.5 C 96.1667,83.5 97.8333,83.5 99.5,83.5C 99.6282,87.8814 99.2949,92.2147 98.5,96.5C 93.8189,96.6686 89.1522,97.0019 84.5,97.5C 75.6506,97.8264 66.9839,97.493 58.5,96.5C 65.5,96.5 72.5,96.5 79.5,96.5C 83.2396,96.7592 86.9062,96.4259 90.5,95.5C 92.8358,91.826 94.1691,87.826 94.5,83.5 Z"/></g>
<g><path style="opacity:1" fill="#e49f84" d="M 93.5,81.5 C 96.3915,82.4025 99.3915,82.7359 102.5,82.5C 102.665,86.1817 102.499,89.8484 102,93.5C 101.535,94.9308 100.701,96.0975 99.5,97C 94.5364,97.9122 89.5364,98.4122 84.5,98.5C 84.5,98.1667 84.5,97.8333 84.5,97.5C 89.1522,97.0019 93.8189,96.6686 98.5,96.5C 99.2949,92.2147 99.6282,87.8814 99.5,83.5C 97.8333,83.5 96.1667,83.5 94.5,83.5C 93.8333,83.5 93.5,83.1667 93.5,82.5C 93.5,82.1667 93.5,81.8333 93.5,81.5 Z"/></g>
<g><path style="opacity:1" fill="#cb5536" d="M 23.5,95.5 C 42.3408,95.1698 61.0075,95.5031 79.5,96.5C 72.5,96.5 65.5,96.5 58.5,96.5C 49.5243,97.3083 40.5243,97.6416 31.5,97.5C 28.8333,96.8333 26.1667,96.1667 23.5,95.5 Z"/></g>
<g><path style="opacity:1" fill="#fee2ce" d="M 58.5,96.5 C 66.9839,97.493 75.6506,97.8264 84.5,97.5C 84.5,97.8333 84.5,98.1667 84.5,98.5C 66.6588,98.8301 48.9921,98.4967 31.5,97.5C 40.5243,97.6416 49.5243,97.3083 58.5,96.5 Z"/></g>
<g><path style="opacity:1" fill="#c0a1dd" d="M 24.5,120.5 C 28.0798,119.923 31.0798,120.923 33.5,123.5C 35.943,121.945 38.6097,121.278 41.5,121.5C 41.4015,124.104 40.2349,126.104 38,127.5C 33.3085,129.844 28.1418,131.844 22.5,133.5C 22.5,132.167 22.5,130.833 22.5,129.5C 17.1217,129.455 14.4551,126.789 14.5,121.5C 16.5466,121.511 18.5466,121.844 20.5,122.5C 22.1705,122.332 23.5039,121.665 24.5,120.5 Z"/></g>
<g><path style="opacity:1" fill="#faebfd" d="M 25.5,123.5 C 29.6759,122.831 31.0093,124.331 29.5,128C 28.2068,128.49 26.8734,128.657 25.5,128.5C 25.5,126.833 25.5,125.167 25.5,123.5 Z"/></g>
<g><path style="opacity:1" fill="#cfbee3" d="M 51.5,125.5 C 71.178,125.167 90.8446,125.5 110.5,126.5C 100.667,126.833 90.8333,127.167 81,127.5C 70.8099,127.499 60.9765,126.832 51.5,125.5 Z"/></g>
<g><path style="opacity:1" fill="#565656" d="M 200.5,152.5 C 201.376,152.369 202.043,152.702 202.5,153.5C 203.909,156.312 204.576,158.978 204.5,161.5C 203.614,160.675 203.281,159.675 203.5,158.5C 200.762,157.965 198.928,158.965 198,161.5C 198.209,158.39 199.042,155.39 200.5,152.5 Z"/></g>
<g><path style="opacity:1" fill="#5c5c5c" d="M 16.5,155.5 C 16.4614,154.244 16.9614,153.244 18,152.5C 18.5847,153.998 18.0847,154.998 16.5,155.5 Z"/></g>
<g><path style="opacity:1" fill="#5d5d5d" d="M 16.5,155.5 C 16.0046,157.482 15.5046,159.482 15,161.5C 14.6466,158.461 13.4799,155.795 11.5,153.5C 11.8333,153.167 12.1667,152.833 12.5,152.5C 13.5836,153.665 14.4169,154.998 15,156.5C 15.3826,155.944 15.8826,155.611 16.5,155.5 Z"/></g>
<g><path style="opacity:1" fill="#575757" d="M 23.5,160.5 C 22.1155,161.801 20.6155,161.801 19,160.5C 17.4876,155.344 19.1542,153.677 24,155.5C 24.7796,157.387 24.6129,159.054 23.5,160.5 Z"/></g>
<g><path style="opacity:1" fill="#4d4d4d" d="M 33.5,154.5 C 34.6063,155.149 35.6063,155.483 36.5,155.5C 35.0451,157.22 34.2117,159.22 34,161.5C 33.5034,159.19 33.3367,156.857 33.5,154.5 Z"/></g>
<g><path style="opacity:1" fill="#4c4c4c" d="M 183.5,154.5 C 184.606,155.149 185.606,155.483 186.5,155.5C 185.045,157.22 184.212,159.22 184,161.5C 183.503,159.19 183.337,156.857 183.5,154.5 Z"/></g>
<g><path style="opacity:1" fill="#f0f0f0" d="M 23.5,160.5 C 19.8388,160.65 18.8388,159.15 20.5,156C 21.4491,155.383 22.2825,155.549 23,156.5C 23.49,157.793 23.6567,159.127 23.5,160.5 Z"/></g>
<g><path style="opacity:1" fill="#575757" d="M 70.5,155.5 C 71.4778,155.811 72.1445,156.478 72.5,157.5C 65.9611,159.388 65.9611,160.222 72.5,160C 70.7505,161.319 68.7505,161.819 66.5,161.5C 66.3379,159.473 66.5045,157.473 67,155.5C 68.2917,154.209 69.4583,154.209 70.5,155.5 Z"/></g>
<g><path style="opacity:1" fill="#f1f1f1" d="M 70.5,155.5 C 70.1575,157.225 69.1575,157.725 67.5,157C 68.2438,155.961 69.2438,155.461 70.5,155.5 Z"/></g>
<g><path style="opacity:1" fill="#555555" d="M 129.5,155.5 C 131.048,155.821 131.715,156.821 131.5,158.5C 129.219,158.077 127.552,158.744 126.5,160.5C 125.387,159.054 125.22,157.387 126,155.5C 127.292,154.209 128.458,154.209 129.5,155.5 Z"/></g>
<g><path style="opacity:1" fill="#efefef" d="M 129.5,155.5 C 129.157,157.225 128.157,157.725 126.5,157C 127.244,155.961 128.244,155.461 129.5,155.5 Z"/></g>
<g><path style="opacity:1" fill="#616161" d="M 135.5,154.5 C 136.966,155.347 137.8,156.68 138,158.5C 138.667,157.167 139.333,155.833 140,154.5C 141.454,156.656 142.121,158.99 142,161.5C 140.956,160.377 140.29,159.044 140,157.5C 139.667,158.5 139.333,159.5 139,160.5C 138.333,161.833 137.667,161.833 137,160.5C 136.187,158.564 135.687,156.564 135.5,154.5 Z"/></g>
<g><path style="opacity:1" fill="#606060" d="M 152.5,154.5 C 153.793,155.842 154.626,157.509 155,159.5C 155.667,158.167 156.333,156.833 157,155.5C 157.31,159.071 156.143,162.071 153.5,164.5C 153.167,164.333 152.833,164.167 152.5,164C 153.357,163.311 154.023,162.478 154.5,161.5C 153.423,159.271 152.756,156.937 152.5,154.5 Z"/></g>
<g><path style="opacity:1" fill="#e1e1e1" d="M 200.5,154.5 C 202.332,155.14 202.665,156.14 201.5,157.5C 200.614,156.675 200.281,155.675 200.5,154.5 Z"/></g>
<g><path style="opacity:1" fill="#737373" d="M 105.5,155.5 C 106.542,154.209 107.708,154.209 109,155.5C 109.808,157.579 109.641,159.579 108.5,161.5C 108.036,159.025 107.036,157.025 105.5,155.5 Z"/></g>
<g><path style="opacity:1" fill="#8f8f8f" d="M 117.5,151.5 C 119.048,151.821 119.715,152.821 119.5,154.5C 123.243,154.459 123.41,155.126 120,156.5C 119.506,158.134 119.34,159.801 119.5,161.5C 117.833,161.5 116.167,161.5 114.5,161.5C 114.756,159.208 114.423,157.041 113.5,155C 114.584,152.175 115.751,152.008 117,154.5C 117.483,153.552 117.649,152.552 117.5,151.5 Z"/></g>
<g><path style="opacity:1" fill="#424242" d="M 180.5,155.5 C 181.224,157.218 181.891,159.052 182.5,161C 181.906,161.464 181.239,161.631 180.5,161.5C 180.5,160.5 180.5,159.5 180.5,158.5C 179.448,158.649 178.448,158.483 177.5,158C 179.119,157.764 180.119,156.931 180.5,155.5 Z"/></g>
<g><path style="opacity:1" fill="#424242" d="M 188.5,160.5 C 187.387,159.054 187.22,157.387 188,155.5C 189.494,154.253 190.994,154.253 192.5,155.5C 191.47,155.554 190.303,155.888 189,156.5C 188.51,157.793 188.343,159.127 188.5,160.5 Z"/></g>
<g><path style="opacity:1" fill="#7f7f7f" d="M 216.5,160.5 C 215.791,161.404 214.791,161.737 213.5,161.5C 213.183,158.428 213.516,155.428 214.5,152.5C 215.287,153.242 215.953,154.075 216.5,155C 215.193,156.943 215.193,158.777 216.5,160.5 Z"/></g>
<g><path style="opacity:1" fill="#696969" d="M 235.5,160.5 C 234.213,159.232 233.213,159.565 232.5,161.5C 230.977,153.679 229.477,153.679 228,161.5C 227.503,159.19 227.337,156.857 227.5,154.5C 230.044,154.104 232.211,154.771 234,156.5C 237.51,153.414 239.677,154.081 240.5,158.5C 238.219,158.077 236.552,158.744 235.5,160.5 Z"/></g>
<g><path style="opacity:1" fill="#6a6a6a" d="M 40.5,154.5 C 43.6721,154.928 46.6721,155.095 49.5,155C 50.5914,157.064 50.7581,159.231 50,161.5C 48.6667,153.5 47.3333,153.5 46,161.5C 44.681,153.64 43.181,153.64 41.5,161.5C 40.5258,159.257 40.1924,156.924 40.5,154.5 Z"/></g>
<g><path style="opacity:1" fill="#3d3d3d" d="M 208.5,155.5 C 207.815,157.414 207.315,159.414 207,161.5C 206.333,159.167 206.333,156.833 207,154.5C 207.383,155.056 207.883,155.389 208.5,155.5 Z"/></g>
<g><path style="opacity:1" fill="#787878" d="M 208.5,155.5 C 209.542,154.209 210.708,154.209 212,155.5C 212.808,157.579 212.641,159.579 211.5,161.5C 211.036,159.025 210.036,157.025 208.5,155.5 Z"/></g>
<g><path style="opacity:1" fill="#5d5d5d" d="M 57.5,156.5 C 57.5,157.5 57.5,158.5 57.5,159.5C 57.2089,160.649 56.3756,161.316 55,161.5C 52.5,161.667 51.3333,160.5 51.5,158C 51.7666,154.836 53.4333,153.836 56.5,155C 57.056,155.383 57.3893,155.883 57.5,156.5 Z"/></g>
<g><path style="opacity:1" fill="#ededed" d="M 53.5,155.5 C 56.0838,156.048 57.0838,157.715 56.5,160.5C 52.7162,160.475 51.7162,158.808 53.5,155.5 Z"/></g>
<g><path style="opacity:1" fill="#9b9b9b" d="M 61.5,154.5 C 61.5,154.833 61.5,155.167 61.5,155.5C 60.9612,157.505 60.2945,159.505 59.5,161.5C 58.8182,160.757 58.1515,160.091 57.5,159.5C 57.5,158.5 57.5,157.5 57.5,156.5C 58.4674,155.194 59.8007,154.527 61.5,154.5 Z"/></g>
<g><path style="opacity:1" fill="#464646" d="M 61.5,155.5 C 61.5,155.167 61.5,154.833 61.5,154.5C 62.5,154.5 63.5,154.5 64.5,154.5C 64.6633,156.857 64.4966,159.19 64,161.5C 63.9977,158.949 63.1644,156.949 61.5,155.5 Z"/></g>
<g><path style="opacity:1" fill="#5b5b5b" d="M 73.5,154.5 C 74.4098,156.019 75.2432,157.685 76,159.5C 76.5556,157.405 77.0556,157.238 77.5,159C 77.1463,161.264 76.1463,163.098 74.5,164.5C 74.1667,164.333 73.8333,164.167 73.5,164C 74.3567,163.311 75.0233,162.478 75.5,161.5C 74.0541,159.382 73.3874,157.049 73.5,154.5 Z"/></g>
<g><path style="opacity:1" fill="#515151" d="M 105.5,155.5 C 104.815,157.414 104.315,159.414 104,161.5C 103.333,159.167 103.333,156.833 104,154.5C 104.383,155.056 104.883,155.389 105.5,155.5 Z"/></g>
<g><path style="opacity:1" fill="#4d4d4d" d="M 165.5,152.5 C 166.376,152.369 167.043,152.702 167.5,153.5C 168.236,155.541 169.069,157.541 170,159.5C 170.516,156.749 171.683,154.416 173.5,152.5C 174.655,155.446 174.821,158.446 174,161.5C 173.667,159.5 173.333,157.5 173,155.5C 171,163.5 169,163.5 167,155.5C 166.667,157.5 166.333,159.5 166,161.5C 165.502,158.518 165.335,155.518 165.5,152.5 Z"/></g>
<g><path style="opacity:1" fill="#999999" d="M 180.5,155.5 C 180.119,156.931 179.119,157.764 177.5,158C 178.448,158.483 179.448,158.649 180.5,158.5C 180.5,159.5 180.5,160.5 180.5,161.5C 175.085,161.502 174.085,159.335 177.5,155C 178.749,154.26 179.749,154.427 180.5,155.5 Z"/></g>
<g><path style="opacity:1" fill="#6c6c6c" d="M 216.5,160.5 C 217.623,154.034 218.29,154.034 218.5,160.5C 219.5,160.5 220.5,160.5 221.5,160.5C 221.34,158.801 221.506,157.134 222,155.5C 223.772,156.99 223.939,158.657 222.5,160.5C 220.484,161.694 218.484,161.694 216.5,160.5 Z"/></g>
<g><path style="opacity:1" fill="#535353" d="M 26.5,154.5 C 27.8108,162.434 29.3108,162.434 31,154.5C 31.4966,156.81 31.6633,159.143 31.5,161.5C 29.8333,161.5 28.1667,161.5 26.5,161.5C 26.5,159.167 26.5,156.833 26.5,154.5 Z"/></g>
<g><path style="opacity:1" fill="#767676" d="M 83.5,154.5 C 84.9986,155.678 85.9986,157.345 86.5,159.5C 87.7678,160.428 89.1011,160.595 90.5,160C 88.9386,159.059 87.6053,157.892 86.5,156.5C 87.4627,154.51 88.796,154.177 90.5,155.5C 89.9747,156.192 89.3081,156.692 88.5,157C 90.8633,157.589 91.8633,159.089 91.5,161.5C 88.9885,161.162 86.6552,161.162 84.5,161.5C 83.5258,159.257 83.1924,156.924 83.5,154.5 Z"/></g>
<g><path style="opacity:1" fill="#696969" d="M 100.5,155.5 C 101.649,155.791 102.316,156.624 102.5,158C 102.333,158.833 102.167,159.667 102,160.5C 100.301,161.406 98.4672,161.739 96.5,161.5C 96.3379,159.473 96.5045,157.473 97,155.5C 98.2917,154.209 99.4583,154.209 100.5,155.5 Z"/></g>
<g><path style="opacity:1" fill="#f6f6f6" d="M 100.5,155.5 C 100.5,157.167 100.5,158.833 100.5,160.5C 99.5,160.5 98.5,160.5 97.5,160.5C 96.9162,157.715 97.9162,156.048 100.5,155.5 Z"/></g>
<g><path style="opacity:1" fill="#636363" d="M 126.5,160.5 C 128.226,160.185 129.893,160.019 131.5,160C 129.852,161.677 128.185,161.844 126.5,160.5 Z"/></g>
<g><path style="opacity:1" fill="#797979" d="M 146.5,154.5 C 148.144,154.286 149.644,154.62 151,155.5C 151.495,157.473 151.662,159.473 151.5,161.5C 149.5,161.5 147.5,161.5 145.5,161.5C 145.325,158.671 146.658,157.004 149.5,156.5C 148.284,155.904 146.951,155.737 145.5,156C 146.056,155.617 146.389,155.117 146.5,154.5 Z"/></g>
<g><path style="opacity:1" fill="#5b5b5b" d="M 188.5,160.5 C 190.109,160.094 191.443,160.094 192.5,160.5C 191.042,161.782 189.708,161.782 188.5,160.5 Z"/></g>
<g><path style="opacity:1" fill="#626262" d="M 235.5,160.5 C 237.226,160.185 238.893,160.019 240.5,160C 238.852,161.677 237.185,161.844 235.5,160.5 Z"/></g>
<g><path style="opacity:1" fill="#ceb086" d="M 251.5,151.5 C 255.362,151.947 258.362,154.28 260.5,158.5C 256.714,161.059 252.714,163.059 248.5,164.5C 249.029,160.051 250.029,155.718 251.5,151.5 Z"/></g>
<g><path style="opacity:1" fill="#fcfcfc" d="M -0.5,178.5 C 89.8333,178.5 180.167,178.5 270.5,178.5C 270.5,249.5 270.5,320.5 270.5,391.5C 180.167,391.5 89.8333,391.5 -0.5,391.5C -0.5,320.5 -0.5,249.5 -0.5,178.5 Z"/></g>
<g><path style="opacity:1" fill="#595959" d="M 170.5,194.5 C 171.946,193.387 173.613,193.22 175.5,194C 174.874,194.75 174.374,195.584 174,196.5C 173.29,195.027 172.124,194.36 170.5,194.5 Z"/></g>
<g><path style="opacity:1" fill="#6e6e6e" d="M 194.5,199.5 C 191.996,201.031 190.663,200.197 190.5,197C 190.743,193.997 192.41,192.83 195.5,193.5C 195.795,195.735 195.461,197.735 194.5,199.5 Z"/></g>
<g><path style="opacity:1" fill="#585858" d="M 71.5,193.5 C 72.404,194.209 72.7373,195.209 72.5,196.5C 76.5,196.833 76.5,197.167 72.5,197.5C 72.6495,198.552 72.4828,199.552 72,200.5C 71.5034,198.19 71.3367,195.857 71.5,193.5 Z"/></g>
<g><path style="opacity:1" fill="#999999" d="M 221.5,193.5 C 222.822,193.33 223.989,193.663 225,194.5C 224.577,196.387 224.744,198.387 225.5,200.5C 223.712,200.785 222.045,200.452 220.5,199.5C 221.582,199.251 222.915,199.085 224.5,199C 223.437,197.812 222.103,197.312 220.5,197.5C 220.433,196.041 220.766,194.708 221.5,193.5 Z"/></g>
<g><path style="opacity:1" fill="#a4a4a4" d="M 241.5,198.5 C 241.225,200.842 240.392,200.842 239,198.5C 238.692,199.308 238.192,199.975 237.5,200.5C 236.232,198.696 235.565,196.696 235.5,194.5C 237.167,194.5 238.833,194.5 240.5,194.5C 240.232,196.099 240.566,197.432 241.5,198.5 Z"/></g>
<g><path style="opacity:1" fill="#929292" d="M 241.5,198.5 C 241.498,196.169 242.331,194.169 244,192.5C 244.667,195.167 244.667,197.833 244,200.5C 243.667,199.167 243.333,197.833 243,196.5C 242.722,197.416 242.222,198.082 241.5,198.5 Z"/></g>
<g><path style="opacity:1" fill="#939393" d="M 111.5,193.5 C 112.725,194.152 113.392,195.319 113.5,197C 113.167,198.167 112.833,199.333 112.5,200.5C 111.526,198.257 111.192,195.924 111.5,193.5 Z"/></g>
<g><path style="opacity:1" fill="#c5c5c5" d="M 183.5,194.5 C 184.167,194.5 184.833,194.5 185.5,194.5C 185.905,195.55 186.571,195.55 187.5,194.5C 188.833,196.167 188.833,197.833 187.5,199.5C 186.571,198.45 185.905,198.45 185.5,199.5C 184.833,199.5 184.167,199.5 183.5,199.5C 183.095,198.45 182.429,198.45 181.5,199.5C 180.167,197.833 180.167,196.167 181.5,194.5C 182.429,195.55 183.095,195.55 183.5,194.5 Z"/></g>
<g><path style="opacity:1" fill="#767676" d="M 29.5,194.5 C 30.4584,194.953 31.2917,195.619 32,196.5C 32.3333,196.167 32.6667,195.833 33,195.5C 32.3333,197.167 32.3333,198.833 33,200.5C 31.9916,200.018 30.825,199.852 29.5,200C 30.5361,198.224 30.5361,196.391 29.5,194.5 Z"/></g>
<g><path style="opacity:1" fill="#6d6d6d" d="M 45.5,194.5 C 46.0431,194.56 46.3764,194.893 46.5,195.5C 45.1369,196.893 44.3036,198.559 44,200.5C 43.2568,198.126 43.7568,196.126 45.5,194.5 Z"/></g>
<g><path style="opacity:1" fill="#464646" d="M 64.5,195.5 C 65.2389,195.369 65.9056,195.536 66.5,196C 65.1192,202.02 64.4526,201.853 64.5,195.5 Z"/></g>
<g><path style="opacity:1" fill="#8b8b8b" d="M 114.5,194.5 C 116.722,194.178 118.556,194.845 120,196.5C 121.612,193.921 123.112,193.921 124.5,196.5C 123.384,196.402 122.384,196.902 121.5,198C 122.384,199.098 123.384,199.598 124.5,199.5C 122.424,200.1 120.424,200.433 118.5,200.5C 117.075,195.27 115.909,195.27 115,200.5C 114.505,198.527 114.338,196.527 114.5,194.5 Z"/></g>
<g><path style="opacity:1" fill="#545454" d="M 162.5,199.5 C 162.833,199.5 163.167,199.5 163.5,199.5C 165.045,198.77 165.878,197.437 166,195.5C 166.494,197.134 166.66,198.801 166.5,200.5C 164.901,200.768 163.568,200.434 162.5,199.5 Z"/></g>
<g><path style="opacity:1" fill="#707070" d="M 13.5,193.5 C 15.4606,195.119 16.7939,197.286 17.5,200C 16.2234,200.127 15.0567,199.627 14,198.5C 12.9433,199.627 11.7766,200.127 10.5,200C 11.4059,197.779 12.4059,195.612 13.5,193.5 Z"/></g>
<g><path style="opacity:1" fill="#919191" d="M 18.5,194.5 C 20.4835,194.383 22.1502,195.05 23.5,196.5C 27.7551,193.723 29.4218,195.056 28.5,200.5C 26.7376,200.643 25.0709,200.309 23.5,199.5C 21.5658,199.901 20.0658,200.901 19,202.5C 18.5026,199.854 18.3359,197.187 18.5,194.5 Z"/></g>
<g><path style="opacity:1" fill="#999999" d="M 37.5,192.5 C 39.604,192.201 41.604,192.534 43.5,193.5C 42.1189,195.635 41.1189,197.968 40.5,200.5C 39.6798,197.699 38.6798,195.032 37.5,192.5 Z"/></g>
<g><path style="opacity:1" fill="#898989" d="M 59.5,194.5 C 63.35,194.701 64.35,196.534 62.5,200C 61.2161,200.684 60.0495,200.517 59,199.5C 58.6155,197.803 58.7822,196.137 59.5,194.5 Z"/></g>
<g><path style="opacity:1" fill="#8d8d8d" d="M 92.5,193.5 C 93.4682,195.607 93.8016,197.941 93.5,200.5C 87.1727,199.367 86.8394,197.034 92.5,193.5 Z"/></g>
<g><path style="opacity:1" fill="#5f5f5f" d="M 105.5,196.5 C 105.56,195.957 105.893,195.624 106.5,195.5C 107.474,197.743 107.808,200.076 107.5,202.5C 103.107,202.543 102.774,202.043 106.5,201C 102.551,200.193 102.551,199.693 106.5,199.5C 106.737,198.209 106.404,197.209 105.5,196.5 Z"/></g>
<g><path style="opacity:1" fill="#6e6e6e" d="M 183.5,194.5 C 183.095,195.55 182.429,195.55 181.5,194.5C 180.167,196.167 180.167,197.833 181.5,199.5C 182.429,198.45 183.095,198.45 183.5,199.5C 182.432,200.434 181.099,200.768 179.5,200.5C 179.5,198.167 179.5,195.833 179.5,193.5C 181.099,193.232 182.432,193.566 183.5,194.5 Z"/></g>
<g><path style="opacity:1" fill="#717171" d="M 185.5,199.5 C 185.905,198.45 186.571,198.45 187.5,199.5C 188.833,197.833 188.833,196.167 187.5,194.5C 186.571,195.55 185.905,195.55 185.5,194.5C 186.568,193.566 187.901,193.232 189.5,193.5C 189.5,195.833 189.5,198.167 189.5,200.5C 187.901,200.768 186.568,200.434 185.5,199.5 Z"/></g>
<g><path style="opacity:1" fill="#f3f3f3" d="M 194.5,199.5 C 191.044,198.464 190.71,196.797 193.5,194.5C 194.452,196.045 194.785,197.712 194.5,199.5 Z"/></g>
<g><path style="opacity:1" fill="#7f7f7f" d="M 200.5,194.5 C 202.153,193.201 203.653,193.534 205,195.5C 206.067,193.717 207.567,193.217 209.5,194C 211.075,196.87 210.408,199.037 207.5,200.5C 206.353,200.182 205.519,199.516 205,198.5C 203.556,200.155 201.722,200.822 199.5,200.5C 199.205,198.265 199.539,196.265 200.5,194.5 Z"/></g>
<g><path style="opacity:1" fill="#f0f0f0" d="M 200.5,194.5 C 203.956,195.536 204.29,197.203 201.5,199.5C 200.548,197.955 200.215,196.288 200.5,194.5 Z"/></g>
<g><path style="opacity:1" fill="#fdfdfd" d="M 206.5,194.5 C 207.649,194.791 208.316,195.624 208.5,197C 208.167,197.833 207.833,198.667 207.5,199.5C 206.548,197.955 206.215,196.288 206.5,194.5 Z"/></g>
<g><path style="opacity:1" fill="#747474" d="M 214.5,194.5 C 215.451,195.919 215.784,197.585 215.5,199.5C 219.172,200.045 218.838,200.378 214.5,200.5C 214.5,198.5 214.5,196.5 214.5,194.5 Z"/></g>
<g><path style="opacity:1" fill="#8e8e8e" d="M 245.5,193.5 C 246.725,194.152 247.392,195.319 247.5,197C 247.167,198.167 246.833,199.333 246.5,200.5C 245.526,198.257 245.192,195.924 245.5,193.5 Z"/></g>
<g><path style="opacity:1" fill="#898989" d="M 248.5,193.5 C 253.012,193.869 254.512,196.202 253,200.5C 252.091,195.27 250.925,195.27 249.5,200.5C 248.526,198.257 248.192,195.924 248.5,193.5 Z"/></g>
<g><path style="opacity:1" fill="#7d7d7d" d="M 84.5,194.5 C 85.4959,194.414 86.3292,194.748 87,195.5C 87.6667,197.167 87.6667,198.833 87,200.5C 86,195.167 85,195.167 84,200.5C 83.3224,198.402 83.4891,196.402 84.5,194.5 Z"/></g>
<g><path style="opacity:1" fill="#878787" d="M 97.5,194.5 C 101.225,194.78 102.392,196.78 101,200.5C 99.8658,195.203 99.0325,195.203 98.5,200.5C 97.1667,200.5 95.8333,200.5 94.5,200.5C 94.5,198.833 94.5,197.167 94.5,195.5C 95.791,195.737 96.791,195.404 97.5,194.5 Z"/></g>
<g><path style="opacity:1" fill="#919191" d="M 139.5,193.5 C 140.931,193.881 141.764,194.881 142,196.5C 143.154,195.257 144.488,194.257 146,193.5C 146.497,195.81 146.663,198.143 146.5,200.5C 142.262,200.414 137.929,200.08 133.5,199.5C 131.566,199.901 130.066,200.901 129,202.5C 128.003,199.331 128.67,196.664 131,194.5C 132.385,195.551 133.385,196.884 134,198.5C 135.067,197.809 136.234,197.309 137.5,197C 134.258,196.717 133.924,195.883 136.5,194.5C 138.069,195.714 138.902,197.381 139,199.5C 139.495,197.527 139.662,195.527 139.5,193.5 Z"/></g>
<g><path style="opacity:1" fill="#979797" d="M 163.5,199.5 C 163.167,199.5 162.833,199.5 162.5,199.5C 159.203,201.386 156.703,200.719 155,197.5C 154.333,198.833 153.667,200.167 153,201.5C 151.699,199.598 151.032,197.598 151,195.5C 151.915,196.328 152.581,197.328 153,198.5C 153.29,196.956 153.956,195.623 155,194.5C 155.333,195.167 155.667,195.833 156,196.5C 157.667,193.833 159.333,193.833 161,196.5C 161.414,196.043 161.914,195.709 162.5,195.5C 163.429,196.689 163.762,198.022 163.5,199.5 Z"/></g>
<g><path style="opacity:1" fill="#7e7e7e" d="M 53.5,196.5 C 54.7298,195.394 55.8964,194.394 57,193.5C 57.4966,195.81 57.6633,198.143 57.5,200.5C 53.774,200.823 50.1073,200.489 46.5,199.5C 47.3805,198.029 48.7139,197.196 50.5,197C 47.2577,196.717 46.9244,195.883 49.5,194.5C 51.0691,195.714 51.9024,197.381 52,199.5C 52.2321,198.263 52.7321,197.263 53.5,196.5 Z"/></g>
<g><path style="opacity:1" fill="#eeeeee" d="M 53.5,196.5 C 54.5,196.5 55.5,196.5 56.5,196.5C 56.5,197.5 56.5,198.5 56.5,199.5C 55.5,199.5 54.5,199.5 53.5,199.5C 53.5,198.5 53.5,197.5 53.5,196.5 Z"/></g>
<g><path style="opacity:1" fill="#5c5c5c" d="M 77.5,195.5 C 78.8347,200.535 80.0013,200.535 81,195.5C 81.4935,197.134 81.6602,198.801 81.5,200.5C 80.1667,200.5 78.8333,200.5 77.5,200.5C 77.5,198.833 77.5,197.167 77.5,195.5 Z"/></g>
<g><path style="opacity:1" fill="#808080" d="M 226.5,193.5 C 231.214,193.201 232.88,195.201 231.5,199.5C 229.955,200.452 228.288,200.785 226.5,200.5C 226.5,198.167 226.5,195.833 226.5,193.5 Z"/></g>
<g><path style="opacity:1" fill="#f8f8f8" d="M 227.5,195.5 C 228.5,195.5 229.5,195.5 230.5,195.5C 230.5,196.833 230.5,198.167 230.5,199.5C 229.5,199.5 228.5,199.5 227.5,199.5C 227.5,198.167 227.5,196.833 227.5,195.5 Z"/></g>
<g><path style="opacity:1" fill="#969696" d="M 60.5,209.5 C 62.604,209.201 64.604,209.534 66.5,210.5C 64.9098,212.68 63.5765,215.013 62.5,217.5C 61.7769,215.836 62.1103,214.169 63.5,212.5C 62.0065,211.859 61.0065,210.859 60.5,209.5 Z"/></g>
<g><path style="opacity:1" fill="#878586" d="M 85.5,215.5 C 85.1667,215.5 84.8333,215.5 84.5,215.5C 84.4157,210.533 83.0823,210.2 80.5,214.5C 77.9177,210.2 76.5843,210.533 76.5,215.5C 76.1667,215.5 75.8333,215.5 75.5,215.5C 74.5782,210.056 76.2449,208.723 80.5,211.5C 84.7551,208.723 86.4218,210.056 85.5,215.5 Z"/></g>
<g><path style="opacity:1" fill="#585757" d="M 70.5,216.5 C 69.2072,214.636 69.2072,212.636 70.5,210.5C 70.7463,212.22 70.7463,214.22 70.5,216.5 Z"/></g>
<g><path style="opacity:1" fill="#847874" d="M 99.5,217.5 C 97.5,217.5 95.5,217.5 93.5,217.5C 93.5,217.167 93.5,216.833 93.5,216.5C 93.7852,214.712 93.4519,213.045 92.5,211.5C 90.8888,212.32 90.2222,213.654 90.5,215.5C 90.1667,215.5 89.8333,215.5 89.5,215.5C 88.9995,211.507 90.4995,209.84 94,210.5C 94.4966,217.503 95.1632,217.837 96,211.5C 97.3333,218.167 98.6667,218.167 100,211.5C 100.678,213.598 100.511,215.598 99.5,217.5 Z"/></g>
<g><path style="opacity:1" fill="#827b78" d="M 117.5,210.5 C 122.252,210.341 123.586,212.341 121.5,216.5C 121.167,216.5 120.833,216.5 120.5,216.5C 122.038,214.449 121.704,212.782 119.5,211.5C 118.571,212.689 118.238,214.022 118.5,215.5C 118.167,215.5 117.833,215.5 117.5,215.5C 117.5,213.833 117.5,212.167 117.5,210.5 Z"/></g>
<g><path style="opacity:1" fill="#9e9e9e" d="M 21.5,211.5 C 22.5,211.5 23.5,211.5 24.5,211.5C 24.2606,213.467 24.5939,215.301 25.5,217C 23.8659,217.494 22.1992,217.66 20.5,217.5C 21.2425,215.304 21.5759,213.304 21.5,211.5 Z"/></g>
<g><path style="opacity:1" fill="#f7ede9" d="M 120.5,216.5 C 119.508,216.672 118.842,216.338 118.5,215.5C 118.238,214.022 118.571,212.689 119.5,211.5C 121.704,212.782 122.038,214.449 120.5,216.5 Z"/></g>
<g><path style="opacity:1" fill="#6d6d6d" d="M 15.5,210.5 C 17.4435,211.078 17.7768,212.078 16.5,213.5C 15.3112,214.429 13.9778,214.762 12.5,214.5C 12.6495,215.552 12.4828,216.552 12,217.5C 11.5026,214.854 11.3359,212.187 11.5,209.5C 13.099,209.232 14.4324,209.566 15.5,210.5 Z"/></g>
<g><path style="opacity:1" fill="#e2e2e2" d="M 15.5,210.5 C 15.5,211.5 15.5,212.5 15.5,213.5C 14.5,213.5 13.5,213.5 12.5,213.5C 12.5,212.5 12.5,211.5 12.5,210.5C 13.5,210.5 14.5,210.5 15.5,210.5 Z"/></g>
<g><path style="opacity:1" fill="#999999" d="M 33.5,211.5 C 34.4959,211.414 35.3292,211.748 36,212.5C 36.4935,214.134 36.6602,215.801 36.5,217.5C 31.6788,217.193 30.6788,215.193 33.5,211.5 Z"/></g>
<g><path style="opacity:1" fill="#c9b9b7" d="M 117.5,210.5 C 117.5,212.167 117.5,213.833 117.5,215.5C 114.833,215.5 112.167,215.5 109.5,215.5C 109.5,214.833 109.5,214.167 109.5,213.5C 110.267,212.828 110.934,211.995 111.5,211C 113.686,210.939 115.686,210.772 117.5,210.5 Z"/></g>
<g><path style="opacity:1" fill="#9e9e9d" d="M 147.5,209.5 C 148.735,209.721 149.735,210.388 150.5,211.5C 151.948,218.078 153.115,218.078 154,211.5C 154.495,213.473 154.662,215.473 154.5,217.5C 152.856,217.714 151.356,217.38 150,216.5C 149.581,217.672 148.915,218.672 148,219.5C 147.502,216.183 147.335,212.85 147.5,209.5 Z"/></g>
<g><path style="opacity:1" fill="#9e9e9e" d="M 160.5,212.5 C 160.245,213.936 159.912,215.436 159.5,217C 157.926,217.699 156.593,217.365 155.5,216C 155.616,214.732 155.949,213.398 156.5,212C 157.928,211.421 159.262,211.588 160.5,212.5 Z"/></g>
<g><path style="opacity:1" fill="#5f5f5f" d="M 160.5,212.5 C 160.783,211.711 161.283,211.044 162,210.5C 162.236,212.764 162.736,214.931 163.5,217C 163.167,217.167 162.833,217.333 162.5,217.5C 161.83,215.709 161.163,214.042 160.5,212.5 Z"/></g>
<g><path style="opacity:1" fill="#6e6e6e" d="M 189.5,210.5 C 190.289,210.783 190.956,211.283 191.5,212C 190.721,213.994 190.387,215.828 190.5,217.5C 189.526,215.257 189.192,212.924 189.5,210.5 Z"/></g>
<g><path style="opacity:1" fill="#929292" d="M 217.5,211.5 C 218.552,211.351 219.552,211.517 220.5,212C 218.771,219.363 217.771,219.196 217.5,211.5 Z"/></g>
<g><path style="opacity:1" fill="#7e7e7e" d="M 41.5,212.5 C 42.5417,211.209 43.7083,211.209 45,212.5C 45.4935,214.134 45.6602,215.801 45.5,217.5C 43.8333,217.5 42.1667,217.5 40.5,217.5C 40.3287,214.203 40.9954,213.869 42.5,216.5C 42.8333,215.833 43.1667,215.167 43.5,214.5C 43.2528,213.287 42.5862,212.62 41.5,212.5 Z"/></g>
<g><path style="opacity:1" fill="#828181" d="M 53.5,212.5 C 54.4687,211.691 55.3021,210.691 56,209.5C 56.4974,212.146 56.6641,214.813 56.5,217.5C 54.326,217.08 52.326,217.08 50.5,217.5C 49.5165,210.972 48.3498,210.972 47,217.5C 46.5045,215.527 46.3379,213.527 46.5,211.5C 48.7224,211.178 50.5557,211.845 52,213.5C 52.3826,212.944 52.8826,212.611 53.5,212.5 Z"/></g>
<g><path style="opacity:1" fill="#f1f1f1" d="M 53.5,212.5 C 54.5862,212.62 55.2528,213.287 55.5,214.5C 55.1667,215.167 54.8333,215.833 54.5,216.5C 53.5713,215.311 53.238,213.978 53.5,212.5 Z"/></g>
<g><path style="opacity:1" fill="#d2c7c5" d="M 84.5,215.5 C 82.0807,215.805 79.414,215.805 76.5,215.5C 76.5843,210.533 77.9177,210.2 80.5,214.5C 83.0823,210.2 84.4157,210.533 84.5,215.5 Z"/></g>
<g><path style="opacity:1" fill="#f0e8e6" d="M 93.5,216.5 C 92.391,216.443 91.391,216.11 90.5,215.5C 90.2222,213.654 90.8888,212.32 92.5,211.5C 93.4519,213.045 93.7852,214.712 93.5,216.5 Z"/></g>
<g><path style="opacity:1" fill="#786f6e" d="M 132.5,215.5 C 131.778,215.918 131.278,216.584 131,217.5C 129.929,214.887 129.095,214.887 128.5,217.5C 128.167,217.5 127.833,217.5 127.5,217.5C 126.782,215.863 126.616,214.197 127,212.5C 127.626,214.991 128.459,214.991 129.5,212.5C 130.541,214.991 131.374,214.991 132,212.5C 132.483,213.448 132.649,214.448 132.5,215.5 Z"/></g>
<g><path style="opacity:1" fill="#969696" d="M 167.5,211.5 C 168.675,211.281 169.675,211.614 170.5,212.5C 169.494,213.396 169.494,214.062 170.5,214.5C 171.833,213.5 173.167,212.5 174.5,211.5C 175.478,211.977 176.311,212.643 177,213.5C 178.067,211.717 179.567,211.217 181.5,212C 180.08,213.53 179.08,215.363 178.5,217.5C 177.262,213.689 176.596,213.689 176.5,217.5C 173.124,216.58 169.791,216.247 166.5,216.5C 166.579,214.872 166.912,213.205 167.5,211.5 Z"/></g>
<g><path style="opacity:1" fill="#8f8f8f" d="M 183.5,210.5 C 184.693,210.97 185.36,211.97 185.5,213.5C 186.038,215.111 186.038,216.444 185.5,217.5C 184.914,217.291 184.414,216.957 184,216.5C 183.505,214.527 183.338,212.527 183.5,210.5 Z"/></g>
<g><path style="opacity:1" fill="#8e8e8e" d="M 193.5,212.5 C 194.568,211.566 195.901,211.232 197.5,211.5C 198.152,215.56 196.485,217.56 192.5,217.5C 192.216,215.585 192.549,213.919 193.5,212.5 Z"/></g>
<g><path style="opacity:1" fill="#f7f7f7" d="M 193.5,212.5 C 194.586,212.62 195.253,213.287 195.5,214.5C 195.167,215.167 194.833,215.833 194.5,216.5C 193.571,215.311 193.238,213.978 193.5,212.5 Z"/></g>
<g><path style="opacity:1" fill="#757575" d="M 202.5,215.5 C 201.152,214.473 200.652,213.14 201,211.5C 202.188,212.563 202.688,213.897 202.5,215.5 Z"/></g>
<g><path style="opacity:1" fill="#8f8f8f" d="M 202.5,215.5 C 203.558,214.4 204.392,213.066 205,211.5C 205.333,212.167 205.667,212.833 206,213.5C 206.689,212.643 207.522,211.977 208.5,211.5C 209.833,212.833 211.167,212.833 212.5,211.5C 213.948,218.078 215.115,218.078 216,211.5C 216.495,213.473 216.662,215.473 216.5,217.5C 213.172,216.354 209.839,216.187 206.5,217C 205.874,216.25 205.374,215.416 205,214.5C 204.261,216.221 203.427,217.887 202.5,219.5C 202.094,218.443 202.094,217.109 202.5,215.5 Z"/></g>
<g><path style="opacity:1" fill="#757575" d="M 26.5,211.5 C 27.8333,211.5 29.1667,211.5 30.5,211.5C 30.6369,218.626 29.9702,218.959 28.5,212.5C 27.0298,218.959 26.3631,218.626 26.5,211.5 Z"/></g>
<g><path style="opacity:1" fill="#a16d61" d="M 109.5,213.5 C 109.5,214.167 109.5,214.833 109.5,215.5C 108.292,216.234 106.959,216.567 105.5,216.5C 104.662,216.158 104.328,215.492 104.5,214.5C 104.833,209.167 105.167,209.167 105.5,214.5C 106.5,214.5 107.5,214.5 108.5,214.5C 108.622,210.162 108.955,209.828 109.5,213.5 Z"/></g>
<g><path style="opacity:1" fill="#776f67" d="M 70.5,216.5 C 71.4959,216.586 72.3292,216.252 73,215.5C 73.3333,214.167 73.6667,212.833 74,211.5C 74.6667,213.167 74.6667,214.833 74,216.5C 72.7083,217.791 71.5417,217.791 70.5,216.5 Z"/></g>
<g><path style="opacity:1" fill="#848382" d="M 134.5,211.5 C 137.766,211.433 139.266,213.099 139,216.5C 140.008,216.018 141.175,215.852 142.5,216C 141.5,215.167 140.5,214.333 139.5,213.5C 139.887,212.28 140.72,211.613 142,211.5C 142.29,213.103 143.123,214.603 144.5,216C 141.367,217.57 138.033,217.903 134.5,217C 133.862,215.293 133.862,213.46 134.5,211.5 Z"/></g>
<g><path style="opacity:1" fill="#ef9a8a" d="M 104.5,214.5 C 104.328,215.492 104.662,216.158 105.5,216.5C 103.366,218.033 100.866,218.7 98,218.5C 95.6665,218.6 94.1665,218.266 93.5,217.5C 95.5,217.5 97.5,217.5 99.5,217.5C 101.959,217.69 103.626,216.69 104.5,214.5 Z"/></g>
<g><path style="opacity:1" fill="#d65949" d="M 75.5,215.5 C 75.8333,215.5 76.1667,215.5 76.5,215.5C 79.414,215.805 82.0807,215.805 84.5,215.5C 84.8333,215.5 85.1667,215.5 85.5,215.5C 86.8333,216.833 88.1667,216.833 89.5,215.5C 89.8333,215.5 90.1667,215.5 90.5,215.5C 91.391,216.11 92.391,216.443 93.5,216.5C 93.5,216.833 93.5,217.167 93.5,217.5C 94.1665,218.266 95.6665,218.6 98,218.5C 100.866,218.7 103.366,218.033 105.5,216.5C 106.959,216.567 108.292,216.234 109.5,215.5C 112.167,215.5 114.833,215.5 117.5,215.5C 117.833,215.5 118.167,215.5 118.5,215.5C 118.842,216.338 119.508,216.672 120.5,216.5C 120.833,216.5 121.167,216.5 121.5,216.5C 123.265,217.461 125.265,217.795 127.5,217.5C 127.833,217.5 128.167,217.5 128.5,217.5C 129.287,219.104 130.62,219.771 132.5,219.5C 133.107,224.172 133.773,228.839 134.5,233.5C 133.386,236.948 131.053,238.948 127.5,239.5C 132.123,234.824 133.623,229.157 132,222.5C 131.481,221.484 130.647,220.818 129.5,220.5C 119.026,217.239 108.526,216.905 98,219.5C 88.1638,218.234 78.3305,218.234 68.5,219.5C 70.6074,218.532 72.9407,218.198 75.5,218.5C 75.5,217.5 75.5,216.5 75.5,215.5 Z"/></g>
<g><path style="opacity:1" fill="#d76c5c" d="M 68.5,219.5 C 67.5423,220.962 66.3756,222.295 65,223.5C 64.5301,229.046 65.0301,234.379 66.5,239.5C 67.3065,240.728 68.3065,241.728 69.5,242.5C 67.7376,242.643 66.0709,242.309 64.5,241.5C 62.4366,235.178 62.2699,228.844 64,222.5C 65.129,220.859 66.629,219.859 68.5,219.5 Z"/></g>
<g><path style="opacity:1" fill="#7f7f7f" d="M 11.5,228.5 C 12.8333,228.5 14.1667,228.5 15.5,228.5C 15.6602,230.199 15.4935,231.866 15,233.5C 14.6924,232.692 14.1924,232.025 13.5,231.5C 13.0024,232.603 12.6691,233.603 12.5,234.5C 11.5344,232.604 11.2011,230.604 11.5,228.5 Z"/></g>
<g><path style="opacity:1" fill="#4d4d4d" d="M 39.5,228.5 C 40.8333,228.5 42.1667,228.5 43.5,228.5C 43.6534,234.324 42.9867,234.657 41.5,229.5C 40.056,230.981 39.3894,230.648 39.5,228.5 Z"/></g>
<g><path style="opacity:1" fill="#898989" d="M 44.5,227.5 C 45.7251,228.152 46.3917,229.319 46.5,231C 46.3333,232.167 46.1667,233.333 46,234.5C 44.6485,232.406 44.1485,230.073 44.5,227.5 Z"/></g>
<g><path style="opacity:1" fill="#979797" d="M 50.5,228.5 C 55.0685,228.083 56.5685,230.083 55,234.5C 53.7318,234.384 52.3985,234.051 51,233.5C 51.7712,231.82 51.6045,230.153 50.5,228.5 Z"/></g>
<g><path style="opacity:1" fill="#504f4e" d="M 56.5,227.5 C 57.2891,227.783 57.9558,228.283 58.5,229C 57.7734,230.399 57.2734,231.899 57,233.5C 56.5045,231.527 56.3379,229.527 56.5,227.5 Z"/></g>
<g><path style="opacity:1" fill="#afafaf" d="M 17.5,228.5 C 21.6519,228.621 25.8185,228.621 30,228.5C 33.2013,230.315 33.2013,232.315 30,234.5C 28.7387,234.241 27.7387,233.574 27,232.5C 25.2161,235.003 23.5494,235.003 22,232.5C 19.3535,235.361 17.5201,234.861 16.5,231C 16.7432,230.098 17.0766,229.265 17.5,228.5 Z"/></g>
<g><path style="opacity:1" fill="#cb0c04" d="M 127.5,239.5 C 107.128,240.417 86.7945,240.417 66.5,239.5C 65.0301,234.379 64.5301,229.046 65,223.5C 66.3756,222.295 67.5423,220.962 68.5,219.5C 78.3305,218.234 88.1638,218.234 98,219.5C 108.526,216.905 119.026,217.239 129.5,220.5C 130.647,220.818 131.481,221.484 132,222.5C 133.623,229.157 132.123,234.824 127.5,239.5 Z"/></g>
<g><path style="opacity:1" fill="#818181" d="M 33.5,228.5 C 34.344,235.127 35.5107,235.127 37,228.5C 37.4955,230.473 37.6621,232.473 37.5,234.5C 36.1667,234.5 34.8333,234.5 33.5,234.5C 33.5,232.5 33.5,230.5 33.5,228.5 Z"/></g>
<g><path style="opacity:1" fill="#ed816d" d="M 132.5,219.5 C 136.119,220.244 139.785,220.577 143.5,220.5C 143.829,226.206 143.495,231.872 142.5,237.5C 138.594,238.044 134.927,239.044 131.5,240.5C 130.167,240.833 128.833,241.167 127.5,241.5C 119.542,242.403 111.542,242.736 103.5,242.5C 111.573,242.03 119.573,241.03 127.5,239.5C 131.053,238.948 133.386,236.948 134.5,233.5C 133.773,228.839 133.107,224.172 132.5,219.5 Z"/></g>
<g><path style="opacity:1" fill="#eeb3a8" d="M 132.5,215.5 C 132.414,216.496 132.748,217.329 133.5,218C 137.469,218.853 141.469,219.519 145.5,220C 146,220.5 146.5,221 147,221.5C 147.829,226.864 147.663,232.198 146.5,237.5C 145.833,238.167 145.167,238.833 144.5,239.5C 140.235,240.439 135.902,240.772 131.5,240.5C 134.927,239.044 138.594,238.044 142.5,237.5C 143.495,231.872 143.829,226.206 143.5,220.5C 139.785,220.577 136.119,220.244 132.5,219.5C 130.62,219.771 129.287,219.104 128.5,217.5C 129.095,214.887 129.929,214.887 131,217.5C 131.278,216.584 131.778,215.918 132.5,215.5 Z"/></g>
<g><path style="opacity:1" fill="#cc3325" d="M 66.5,239.5 C 86.7945,240.417 107.128,240.417 127.5,239.5C 119.573,241.03 111.573,242.03 103.5,242.5C 92.1667,242.5 80.8333,242.5 69.5,242.5C 68.3065,241.728 67.3065,240.728 66.5,239.5 Z"/></g>
<g><path style="opacity:1" fill="#ed9c90" d="M 127.5,241.5 C 127.082,242.222 126.416,242.722 125.5,243C 106.662,243.829 87.9955,243.662 69.5,242.5C 80.8333,242.5 92.1667,242.5 103.5,242.5C 111.542,242.736 119.542,242.403 127.5,241.5 Z"/></g>
<g><path style="opacity:1" fill="#757575" d="M 159.5,250.5 C 164.068,250.083 165.568,252.083 164,256.5C 162.667,249.833 161.333,249.833 160,256.5C 159.505,254.527 159.338,252.527 159.5,250.5 Z"/></g>
<g><path style="opacity:1" fill="#838383" d="M 237.5,255.5 C 237.785,253.712 237.452,252.045 236.5,250.5C 234.889,251.32 234.222,252.654 234.5,254.5C 233.778,254.082 233.278,253.416 233,252.5C 232.329,253.252 231.496,253.586 230.5,253.5C 231.927,251.1 231.427,250.433 229,251.5C 228.383,250.551 228.549,249.718 229.5,249C 231.047,248.667 232.38,249.167 233.5,250.5C 236.571,247.534 238.238,248.201 238.5,252.5C 238.48,253.726 238.147,254.726 237.5,255.5 Z"/></g>
<g><path style="opacity:1" fill="#7b7b7b" d="M 22.5,250.5 C 24.0889,256.931 25.5889,256.931 27,250.5C 27.4955,252.473 27.6621,254.473 27.5,256.5C 23.0917,256.938 21.4251,254.938 22.5,250.5 Z"/></g>
<g><path style="opacity:1" fill="#777777" d="M 44.5,251.5 C 46.6839,250.017 48.0173,250.684 48.5,253.5C 48.0173,256.316 46.6839,256.983 44.5,255.5C 48.5,254.167 48.5,252.833 44.5,251.5 Z"/></g>
<g><path style="opacity:1" fill="#797979" d="M 157.5,251.5 C 153.5,252.833 153.5,254.167 157.5,255.5C 155.316,256.983 153.983,256.316 153.5,253.5C 153.983,250.684 155.316,250.017 157.5,251.5 Z"/></g>
<g><path style="opacity:1" fill="#c9c9c9" d="M 157.5,251.5 C 158.833,252.833 158.833,254.167 157.5,255.5C 153.5,254.167 153.5,252.833 157.5,251.5 Z"/></g>
<g><path style="opacity:1" fill="#787878" d="M 171.5,248.5 C 173.284,249.574 174.451,251.24 175,253.5C 175.333,252.167 175.667,250.833 176,249.5C 176.654,248.304 177.154,248.304 177.5,249.5C 176.82,251.889 175.986,254.222 175,256.5C 174.077,255.241 173.243,253.908 172.5,252.5C 170.351,257.886 169.018,257.552 168.5,251.5C 168.667,250.833 168.833,250.167 169,249.5C 170.225,253.18 171.058,252.847 171.5,248.5 Z"/></g>
<g><path style="opacity:1" fill="#acacac" d="M 17.5,250.5 C 21.35,250.701 22.35,252.534 20.5,256C 19.2161,256.684 18.0495,256.517 17,255.5C 16.6155,253.803 16.7822,252.137 17.5,250.5 Z"/></g>
<g><path style="opacity:1" fill="#646464" d="M 28.5,250.5 C 29.552,250.351 30.552,250.517 31.5,251C 29.9963,252.491 29.1629,254.324 29,256.5C 28.5045,254.527 28.3379,252.527 28.5,250.5 Z"/></g>
<g><path style="opacity:1" fill="#707070" d="M 35.5,250.5 C 36.552,250.351 37.552,250.517 38.5,251C 36.9544,252.44 36.121,254.273 36,256.5C 35.5045,254.527 35.3379,252.527 35.5,250.5 Z"/></g>
<g><path style="opacity:1" fill="#b0b0b0" d="M 68.5,248.5 C 70.5748,249.62 72.7415,250.62 75,251.5C 75.4935,253.134 75.6602,254.801 75.5,256.5C 73.326,256.08 71.326,256.08 69.5,256.5C 68.52,253.914 68.1866,251.247 68.5,248.5 Z"/></g>
<g><path style="opacity:1" fill="#6a6a6a" d="M 85.5,250.5 C 86.6879,251.684 87.8545,251.684 89,250.5C 88.3333,252.5 88.3333,254.5 89,256.5C 88,255.167 87,255.167 86,256.5C 86.7925,254.5 86.6259,252.5 85.5,250.5 Z"/></g>
<g><path style="opacity:1" fill="#757575" d="M 137.5,248.5 C 138.634,250.966 138.801,253.633 138,256.5C 137,249.833 136,249.833 135,256.5C 134.505,254.527 134.338,252.527 134.5,250.5C 136.179,250.715 137.179,250.048 137.5,248.5 Z"/></g>
<g><path style="opacity:1" fill="#969696" d="M 144.5,252.5 C 148.723,249.688 150.39,251.021 149.5,256.5C 146.454,256.817 144.787,255.484 144.5,252.5 Z"/></g>
<g><path style="opacity:1" fill="#999999" d="M 178.5,250.5 C 182.068,250.759 183.401,252.759 182.5,256.5C 177.719,256.833 176.386,254.833 178.5,250.5 Z"/></g>
<g><path style="opacity:1" fill="#c9c9c9" d="M 207.5,251.5 C 208.586,251.62 209.253,252.287 209.5,253.5C 209.253,254.713 208.586,255.38 207.5,255.5C 206.167,254.167 206.167,252.833 207.5,251.5 Z"/></g>
<g><path style="opacity:1" fill="#717171" d="M 207.5,255.5 C 208.586,255.38 209.253,254.713 209.5,253.5C 209.253,252.287 208.586,251.62 207.5,251.5C 208.452,250.548 209.452,249.548 210.5,248.5C 211.189,251.23 212.522,253.564 214.5,255.5C 215.833,254.167 215.833,252.833 214.5,251.5C 213.604,252.506 212.938,252.506 212.5,251.5C 213.689,250.571 215.022,250.238 216.5,250.5C 216.261,252.467 216.594,254.301 217.5,256C 213.948,255.735 210.614,255.569 207.5,255.5 Z"/></g>
<g><path style="opacity:1" fill="#eaeaea" d="M 237.5,255.5 C 236.391,255.443 235.391,255.11 234.5,254.5C 234.222,252.654 234.889,251.32 236.5,250.5C 237.452,252.045 237.785,253.712 237.5,255.5 Z"/></g>
<g><path style="opacity:1" fill="#5f5f5f" d="M 15.5,249.5 C 16.0431,249.56 16.3764,249.893 16.5,250.5C 15.066,252.22 14.2326,254.22 14,256.5C 13.654,254.782 13.154,253.115 12.5,251.5C 13.7808,251.984 14.7808,251.317 15.5,249.5 Z"/></g>
<g><path style="opacity:1" fill="#737373" d="M 60.5,250.5 C 61.9663,251.347 62.7996,252.68 63,254.5C 63.3333,253.5 63.6667,252.5 64,251.5C 64.6543,250.304 65.1543,250.304 65.5,251.5C 63.4393,259.225 61.7726,258.891 60.5,250.5 Z"/></g>
<g><path style="opacity:1" fill="#959595" d="M 80.5,250.5 C 84.35,250.701 85.35,252.534 83.5,256C 79.5369,256.118 78.5369,254.284 80.5,250.5 Z"/></g>
<g><path style="opacity:1" fill="#8f8f8f" d="M 103.5,251.5 C 103.238,252.978 103.571,254.311 104.5,255.5C 105.396,254.494 106.062,254.494 106.5,255.5C 103.294,255.628 100.128,255.628 97,255.5C 96.1108,250.541 97.6108,249.541 101.5,252.5C 102.183,252.137 102.85,251.804 103.5,251.5 Z"/></g>
<g><path style="opacity:1" fill="#989898" d="M 103.5,251.5 C 104.878,250.766 106.378,250.099 108,249.5C 108.915,250.328 109.581,251.328 110,252.5C 112.173,250.36 114.673,250.026 117.5,251.5C 118.469,250.691 119.302,249.691 120,248.5C 120.497,251.146 120.664,253.813 120.5,256.5C 116.257,255.903 111.924,255.903 107.5,256.5C 107.66,254.801 107.494,253.134 107,251.5C 106.014,252.171 104.847,252.171 103.5,251.5 Z"/></g>
<g><path style="opacity:1" fill="#f1f1f1" d="M 117.5,251.5 C 118.586,251.62 119.253,252.287 119.5,253.5C 119.167,254.167 118.833,254.833 118.5,255.5C 117.571,254.311 117.238,252.978 117.5,251.5 Z"/></g>
<g><path style="opacity:1" fill="#969696" d="M 125.5,250.5 C 128.766,250.433 130.266,252.099 130,255.5C 130.494,253.866 130.66,252.199 130.5,250.5C 131.552,250.351 132.552,250.517 133.5,251C 131.845,252.444 131.178,254.278 131.5,256.5C 129.473,256.662 127.473,256.495 125.5,256C 126.711,254.017 126.711,252.184 125.5,250.5 Z"/></g>
<g><path style="opacity:1" fill="#797979" d="M 189.5,250.5 C 193.677,249.842 195.177,251.508 194,255.5C 192.127,250.302 190.793,250.635 190,256.5C 189.505,254.527 189.338,252.527 189.5,250.5 Z"/></g>
<g><path style="opacity:1" fill="#979797" d="M 196.5,250.5 C 198.973,250.736 200.64,252.069 201.5,254.5C 201.906,253.443 201.906,252.109 201.5,250.5C 203.103,250.312 204.437,250.812 205.5,252C 205.018,253.008 204.852,254.175 205,255.5C 204.439,256.022 203.772,256.355 203,256.5C 200.882,255.804 198.716,255.637 196.5,256C 195.248,254.172 195.248,252.339 196.5,250.5 Z"/></g>
<g><path style="opacity:1" fill="#6c6c6c" d="M 219.5,254.5 C 218.152,253.473 217.652,252.14 218,250.5C 219.188,251.563 219.688,252.897 219.5,254.5 Z"/></g>
<g><path style="opacity:1" fill="#696969" d="M 219.5,254.5 C 220.232,253.192 221.066,251.858 222,250.5C 221.975,252.92 221.309,255.253 220,257.5C 219.517,256.552 219.351,255.552 219.5,254.5 Z"/></g>
<g><path style="opacity:1" fill="#cacaca" d="M 44.5,251.5 C 48.5,252.833 48.5,254.167 44.5,255.5C 43.1667,254.167 43.1667,252.833 44.5,251.5 Z"/></g>
<g><path style="opacity:1" fill="#909090" d="M 49.5,250.5 C 51.7224,250.178 53.5557,250.845 55,252.5C 55.8373,250.993 57.0039,250.493 58.5,251C 59.4061,252.699 59.7394,254.533 59.5,256.5C 57.326,256.08 55.326,256.08 53.5,256.5C 52.5165,249.972 51.3498,249.972 50,256.5C 49.5045,254.527 49.3379,252.527 49.5,250.5 Z"/></g>
<g><path style="opacity:1" fill="#717171" d="M 144.5,252.5 C 142.434,257.86 140.768,257.526 139.5,251.5C 139.846,250.304 140.346,250.304 141,251.5C 141.333,252.5 141.667,253.5 142,254.5C 142.29,252.956 142.956,251.623 144,250.5C 144.464,251.094 144.631,251.761 144.5,252.5 Z"/></g>
<g><path style="opacity:1" fill="#6b6b6b" d="M 184.5,255.5 C 183.402,254.399 183.235,253.066 184,251.5C 185.676,250.939 187.009,249.939 188,248.5C 188.497,251.146 188.664,253.813 188.5,256.5C 186.901,256.768 185.568,256.434 184.5,255.5 Z"/></g>
<g><path style="opacity:1" fill="#ededed" d="M 184.5,255.5 C 184.426,251.839 185.426,251.172 187.5,253.5C 186.995,254.919 185.995,255.585 184.5,255.5 Z"/></g>
<g><path style="opacity:1" fill="#6a6a6a" d="M 90.5,250.5 C 93.2605,249.915 94.9272,250.915 95.5,253.5C 94.5345,255.572 93.0345,257.239 91,258.5C 90.5026,255.854 90.3359,253.187 90.5,250.5 Z"/></g>
<g><path style="opacity:1" fill="#f5f5f5" d="M 92.5,251.5 C 94.8519,252.543 95.0185,253.876 93,255.5C 91.2317,254.318 91.0651,252.985 92.5,251.5 Z"/></g>
<g><path style="opacity:1" fill="#666666" d="M 230.5,253.5 C 229.398,255.092 230.065,255.925 232.5,256C 231.207,256.49 229.873,256.657 228.5,256.5C 228.285,254.821 228.952,253.821 230.5,253.5 Z"/></g>
<g><path style="opacity:1" fill="#636363" d="M 234.5,254.5 C 235.391,255.11 236.391,255.443 237.5,255.5C 236.053,256.885 235.053,256.552 234.5,254.5 Z"/></g>
<g><path style="opacity:1" fill="#474747" d="M 11.5,265.5 C 16.6752,264.507 18.5086,266.507 17,271.5C 17.266,268.099 15.766,266.433 12.5,266.5C 12.6621,268.527 12.4955,270.527 12,272.5C 11.5034,270.19 11.3367,267.857 11.5,265.5 Z"/></g>
<g><path style="opacity:1" fill="#5f5f5f" d="M 42.5,268.5 C 42.1667,268.5 41.8333,268.5 41.5,268.5C 39.955,269.23 39.1216,270.563 39,272.5C 38,267.167 37,267.167 36,272.5C 35.5065,270.866 35.3398,269.199 35.5,267.5C 38.0593,267.198 40.3926,267.532 42.5,268.5 Z"/></g>
<g><path style="opacity:1" fill="#606060" d="M 125.5,267.5 C 126.833,267.5 128.167,267.5 129.5,267.5C 129.653,273.324 128.987,273.657 127.5,268.5C 126.828,269.949 126.161,271.282 125.5,272.5C 125.5,270.833 125.5,269.167 125.5,267.5 Z"/></g>
<g><path style="opacity:1" fill="#8f8f8f" d="M 179.5,268.5 C 179.66,270.199 179.494,271.866 179,273.5C 177.992,273.018 176.825,272.852 175.5,273C 175.056,271.467 174.723,269.967 174.5,268.5C 176.167,267.334 177.834,267.334 179.5,268.5 Z"/></g>
<g><path style="opacity:1" fill="#737373" d="M 24.5,267.5 C 25.9778,267.238 27.3112,267.571 28.5,268.5C 28.0623,269.506 27.3957,269.506 26.5,268.5C 25.6143,269.325 25.281,270.325 25.5,271.5C 28.7973,271.329 29.1306,271.995 26.5,273.5C 24.7175,271.977 24.0508,269.977 24.5,267.5 Z"/></g>
<g><path style="opacity:1" fill="#aeaeae" d="M 63.5,265.5 C 64.5,265.5 65.5,265.5 66.5,265.5C 66.822,267.722 66.1554,269.556 64.5,271C 67.2297,272.232 67.063,273.065 64,273.5C 63.1667,273.167 62.3333,272.833 61.5,272.5C 62.1702,270.137 62.8368,267.804 63.5,265.5 Z"/></g>
<g><path style="opacity:1" fill="#a7a7a7" d="M 71.5,266.5 C 72.1174,266.611 72.6174,266.944 73,267.5C 75.2217,264.697 77.0551,264.863 78.5,268C 78.1802,269.653 77.1802,270.653 75.5,271C 76.624,271.249 77.624,271.749 78.5,272.5C 76.9547,273.452 75.288,273.785 73.5,273.5C 73.6495,272.448 73.4828,271.448 73,270.5C 71.7488,273.816 70.0821,274.15 68,271.5C 67.3486,269.765 67.5153,268.098 68.5,266.5C 69.6136,265.224 70.6136,265.224 71.5,266.5 Z"/></g>
<g><path style="opacity:1" fill="#838383" d="M 104.5,265.5 C 106.011,266.502 107.678,267.169 109.5,267.5C 109.653,273.324 108.987,273.657 107.5,268.5C 106.075,273.73 104.909,273.73 104,268.5C 103.667,269.833 103.333,271.167 103,272.5C 102.727,270.899 102.227,269.399 101.5,268C 102.253,266.513 103.086,266.346 104,267.5C 104.464,266.906 104.631,266.239 104.5,265.5 Z"/></g>
<g><path style="opacity:1" fill="#737373" d="M 18.5,268.5 C 20.0098,269.728 21.5098,269.728 23,268.5C 23.1667,268.833 23.3333,269.167 23.5,269.5C 22.2713,270.281 20.938,270.781 19.5,271C 20.5719,272.284 21.9052,272.617 23.5,272C 19.6737,274.363 18.007,273.197 18.5,268.5 Z"/></g>
<g><path style="opacity:1" fill="#6d6d6d" d="M 29.5,268.5 C 31.0098,269.728 32.5098,269.728 34,268.5C 34.1667,268.833 34.3333,269.167 34.5,269.5C 33.2713,270.281 31.938,270.781 30.5,271C 31.5719,272.284 32.9052,272.617 34.5,272C 30.6737,274.363 29.007,273.197 29.5,268.5 Z"/></g>
<g><path style="opacity:1" fill="#a1a1a1" d="M 41.5,268.5 C 41.8333,268.5 42.1667,268.5 42.5,268.5C 43.1577,267.602 43.8243,266.602 44.5,265.5C 46.6333,267.939 49.1333,268.606 52,267.5C 53.2798,267.613 54.1131,268.28 54.5,269.5C 53.2713,270.281 51.938,270.781 50.5,271C 51.5719,272.284 52.9052,272.617 54.5,272C 52.5217,274.015 50.6884,273.848 49,271.5C 46.8646,273.278 44.3646,273.945 41.5,273.5C 41.5,271.833 41.5,270.167 41.5,268.5 Z"/></g>
<g><path style="opacity:1" fill="#f1f1f1" d="M 71.5,266.5 C 71.8186,268.75 71.3186,270.75 70,272.5C 69.8333,271.5 69.6667,270.5 69.5,269.5C 69.6399,267.97 70.3065,266.97 71.5,266.5 Z"/></g>
<g><path style="opacity:1" fill="#a1a1a1" d="M 93.5,267.5 C 95.288,267.215 96.9547,267.548 98.5,268.5C 97.528,271.132 96.1947,273.465 94.5,275.5C 94.1667,275.333 93.8333,275.167 93.5,275C 94.3567,274.311 95.0233,273.478 95.5,272.5C 94.5435,270.925 93.8769,269.258 93.5,267.5 Z"/></g>
<g><path style="opacity:1" fill="#707070" d="M 110.5,268.5 C 112.01,269.728 113.51,269.728 115,268.5C 115.167,268.833 115.333,269.167 115.5,269.5C 114.271,270.281 112.938,270.781 111.5,271C 112.572,272.284 113.905,272.617 115.5,272C 111.674,274.363 110.007,273.197 110.5,268.5 Z"/></g>
<g><path style="opacity:1" fill="#4f4f4f" d="M 134.5,265.5 C 135.538,271.31 135.538,272.31 134.5,268.5C 133.448,268.649 132.448,268.483 131.5,268C 133.119,267.764 134.119,266.931 134.5,265.5 Z"/></g>
<g><path style="opacity:1" fill="#777777" d="M 160.5,267.5 C 162.346,267.222 163.68,267.889 164.5,269.5C 160.26,272.61 158.926,271.944 160.5,267.5 Z"/></g>
<g><path style="opacity:1" fill="#696969" d="M 172.5,265.5 C 173.797,267.693 173.797,270.027 172.5,272.5C 172.089,271.738 171.923,270.738 172,269.5C 171.25,268.874 170.416,268.374 169.5,268C 171.119,267.764 172.119,266.931 172.5,265.5 Z"/></g>
<g><path style="opacity:1" fill="#717171" d="M 55.5,267.5 C 56.552,267.351 57.552,267.517 58.5,268C 57.1068,269.171 56.2735,270.671 56,272.5C 55.5065,270.866 55.3398,269.199 55.5,267.5 Z"/></g>
<g><path style="opacity:1" fill="#aaaaaa" d="M 125.5,267.5 C 125.5,269.167 125.5,270.833 125.5,272.5C 120.411,274.575 118.745,273.075 120.5,268C 122.342,268.068 124.009,267.901 125.5,267.5 Z"/></g>
<g><path style="opacity:1" fill="#9a9a9a" d="M 80.5,265.5 C 82.3464,265.222 83.6798,265.889 84.5,267.5C 84.1203,269.021 83.9536,270.687 84,272.5C 82.1197,273.93 80.6197,273.596 79.5,271.5C 84.2797,271.916 84.4464,270.916 80,268.5C 79.5304,267.423 79.6971,266.423 80.5,265.5 Z"/></g>
<g><path style="opacity:1" fill="#7e7e7e" d="M 140.5,268.5 C 142.808,267.475 145.142,266.642 147.5,266C 147.165,267.867 146.665,270.034 146,272.5C 145.333,267.167 144.667,267.167 144,272.5C 139.825,273.803 138.659,272.469 140.5,268.5 Z"/></g>
<g><path style="opacity:1" fill="#f0f0f0" d="M 140.5,268.5 C 141.5,268.5 142.5,268.5 143.5,268.5C 142.5,273.833 141.5,273.833 140.5,268.5 Z"/></g>
<g><path style="opacity:1" fill="#7e7e7e" d="M 154.5,265.5 C 155.467,266.806 156.801,267.473 158.5,267.5C 158.653,273.324 157.987,273.657 156.5,268.5C 152.52,275.51 151.02,274.844 152,266.5C 152.5,267 153,267.5 153.5,268C 152.483,269.049 152.316,270.216 153,271.5C 154.128,269.655 154.628,267.655 154.5,265.5 Z"/></g>
<g><path style="opacity:1" fill="#a2a2a2" d="M 87.5,265.5 C 89.0109,266.502 90.6776,267.169 92.5,267.5C 93.5749,271.938 91.9083,273.938 87.5,273.5C 87.5,270.833 87.5,268.167 87.5,265.5 Z"/></g>
<g><path style="opacity:1" fill="#6b6b6b" d="M 179.5,268.5 C 179.56,267.957 179.893,267.624 180.5,267.5C 181.486,271.375 182.653,271.375 184,267.5C 184.257,270.017 183.59,272.35 182,274.5C 181.434,272.277 180.6,270.277 179.5,268.5 Z"/></g>
<g><path style="opacity:1" fill="#99859d" d="M 34.5,295.5 C 35.8333,295.5 37.1667,295.5 38.5,295.5C 38.6534,301.324 37.9867,301.657 36.5,296.5C 35.0133,301.657 34.3466,301.324 34.5,295.5 Z"/></g>
<g><path style="opacity:1" fill="#bca0ca" d="M 13.5,293.5 C 14.5585,294.6 15.3918,295.934 16,297.5C 18.1062,295.709 20.6062,295.042 23.5,295.5C 23.5432,299.893 23.0432,300.226 22,296.5C 21,300.5 20,300.5 19,296.5C 18.51,297.793 18.3433,299.127 18.5,300.5C 16.8002,300.374 15.3002,299.707 14,298.5C 13.228,298.645 12.5613,298.978 12,299.5C 11.5906,297.305 12.0906,295.305 13.5,293.5 Z"/></g>
<g><path style="opacity:1" fill="#c5afcc" d="M 24.5,295.5 C 26.5412,295.854 28.3745,295.854 30,295.5C 31,300.833 32,300.833 33,295.5C 33.4935,297.134 33.6602,298.801 33.5,300.5C 30.8127,300.664 28.146,300.497 25.5,300C 24.6198,298.644 24.2865,297.144 24.5,295.5 Z"/></g>
<g><path style="opacity:1" fill="#4e504f" d="M 15.5,310.5 C 14.3915,309.71 13.0581,309.21 11.5,309C 13.2588,308.202 14.9255,308.369 16.5,309.5C 16.3764,310.107 16.0431,310.44 15.5,310.5 Z"/></g>
<g><path style="opacity:1" fill="#f4f4f4" d="M 28.5,309.5 C 29.4959,309.414 30.3292,309.748 31,310.5C 31.4935,312.134 31.6602,313.801 31.5,315.5C 30.5,315.5 29.5,315.5 28.5,315.5C 28.5,313.5 28.5,311.5 28.5,309.5 Z"/></g>
<g><path style="opacity:1" fill="#efefef" d="M 37.5,309.5 C 37.5,311.5 37.5,313.5 37.5,315.5C 36.5,315.5 35.5,315.5 34.5,315.5C 34.3398,313.801 34.5065,312.134 35,310.5C 35.6708,309.748 36.5041,309.414 37.5,309.5 Z"/></g>
<g><path style="opacity:1" fill="#4c4c4c" d="M 44.5,309.5 C 45.5417,308.209 46.7083,308.209 48,309.5C 48.7891,311.712 48.6225,313.712 47.5,315.5C 47.6602,313.801 47.4935,312.134 47,310.5C 46.3292,309.748 45.4959,309.414 44.5,309.5 Z"/></g>
<g><path style="opacity:1" fill="#f0f0f0" d="M 53.5,309.5 C 53.5,311.5 53.5,313.5 53.5,315.5C 52.5,315.5 51.5,315.5 50.5,315.5C 50.3398,313.801 50.5065,312.134 51,310.5C 51.6708,309.748 52.5041,309.414 53.5,309.5 Z"/></g>
<g><path style="opacity:1" fill="#7a7a7a" d="M 24.5,309.5 C 25.8333,310.833 27.1667,310.833 28.5,309.5C 28.5,311.5 28.5,313.5 28.5,315.5C 29.5,315.5 30.5,315.5 31.5,315.5C 29.5809,318.084 27.9142,317.75 26.5,314.5C 25.0622,317.823 23.2289,318.156 21,315.5C 20.3333,313.5 20.3333,311.5 21,309.5C 22.2917,308.209 23.4583,308.209 24.5,309.5 Z"/></g>
<g><path style="opacity:1" fill="#f1f1f1" d="M 24.5,309.5 C 24.7989,311.604 24.4656,313.604 23.5,315.5C 21.6163,314.307 21.1163,312.641 22,310.5C 22.6708,309.748 23.5041,309.414 24.5,309.5 Z"/></g>
<g><path style="opacity:1" fill="#7f7f7f" d="M 44.5,309.5 C 44.5,311.5 44.5,313.5 44.5,315.5C 45.5,315.5 46.5,315.5 47.5,315.5C 46.1501,318.106 44.6501,318.106 43,315.5C 42.0589,313.011 42.5589,311.011 44.5,309.5 Z"/></g>
<g><path style="opacity:1" fill="#f4f4f4" d="M 44.5,309.5 C 45.4959,309.414 46.3292,309.748 47,310.5C 47.4935,312.134 47.6602,313.801 47.5,315.5C 46.5,315.5 45.5,315.5 44.5,315.5C 44.5,313.5 44.5,311.5 44.5,309.5 Z"/></g>
<g><path style="opacity:1" fill="#949494" d="M 76.5,311.5 C 75.5,311.5 74.5,311.5 73.5,311.5C 73.5,312.833 73.5,314.167 73.5,315.5C 74.5,315.5 75.5,315.5 76.5,315.5C 73.034,315.474 69.7006,315.974 66.5,317C 65.5494,316.282 65.3828,315.449 66,314.5C 70.1712,315.615 70.3378,315.282 66.5,313.5C 65.479,312.998 65.3123,312.332 66,311.5C 67.4936,310.253 68.9936,310.253 70.5,311.5C 69.7376,311.911 68.7376,312.077 67.5,312C 70.6591,315.708 71.9924,315.208 71.5,310.5C 73.4147,310.216 75.0813,310.549 76.5,311.5 Z"/></g>
<g><path style="opacity:1" fill="#d3d3d3" d="M 76.5,311.5 C 77.8333,312.833 77.8333,314.167 76.5,315.5C 75.5,315.5 74.5,315.5 73.5,315.5C 73.5,314.167 73.5,312.833 73.5,311.5C 74.5,311.5 75.5,311.5 76.5,311.5 Z"/></g>
<g><path style="opacity:1" fill="#696b6a" d="M 15.5,310.5 C 14.9553,312.593 14.122,314.593 13,316.5C 12.4585,313.918 13.2918,311.918 15.5,310.5 Z"/></g>
<g><path style="opacity:1" fill="#4f4f4f" d="M 28.5,309.5 C 29.5417,308.209 30.7083,308.209 32,309.5C 32.7891,311.712 32.6225,313.712 31.5,315.5C 31.6602,313.801 31.4935,312.134 31,310.5C 30.3292,309.748 29.4959,309.414 28.5,309.5 Z"/></g>
<g><path style="opacity:1" fill="#525252" d="M 37.5,309.5 C 36.5041,309.414 35.6708,309.748 35,310.5C 34.5065,312.134 34.3398,313.801 34.5,315.5C 33.3775,313.712 33.2109,311.712 34,309.5C 35.2917,308.209 36.4583,308.209 37.5,309.5 Z"/></g>
<g><path style="opacity:1" fill="#878787" d="M 37.5,309.5 C 40.1394,312.342 39.806,315.009 36.5,317.5C 35.4777,317.145 34.811,316.478 34.5,315.5C 35.5,315.5 36.5,315.5 37.5,315.5C 37.5,313.5 37.5,311.5 37.5,309.5 Z"/></g>
<g><path style="opacity:1" fill="#555555" d="M 53.5,309.5 C 52.5041,309.414 51.6708,309.748 51,310.5C 50.5065,312.134 50.3398,313.801 50.5,315.5C 49.3775,313.712 49.2109,311.712 50,309.5C 51.2917,308.209 52.4583,308.209 53.5,309.5 Z"/></g>
<g><path style="opacity:1" fill="#858585" d="M 53.5,309.5 C 56.1394,312.342 55.806,315.009 52.5,317.5C 51.4777,317.145 50.811,316.478 50.5,315.5C 51.5,315.5 52.5,315.5 53.5,315.5C 53.5,313.5 53.5,311.5 53.5,309.5 Z"/></g>
<g><path style="opacity:1" fill="#808080" d="M 59.5,310.5 C 60.4511,311.919 60.7845,313.585 60.5,315.5C 61.5,315.5 62.5,315.5 63.5,315.5C 63.3398,313.801 63.5065,312.134 64,310.5C 64.6667,312.5 64.6667,314.5 64,316.5C 62.6667,317.833 61.3333,317.833 60,316.5C 59.5045,314.527 59.3379,312.527 59.5,310.5 Z"/></g>
<g><path style="opacity:1" fill="#f4bfb4" d="M 87.5,355.5 C 89.1667,354.833 90.8333,354.167 92.5,353.5C 96.2019,353.774 98.5352,352.108 99.5,348.5C 100.649,348.209 101.316,347.376 101.5,346C 100.622,340.537 100.288,335.037 100.5,329.5C 93.5074,328.213 86.5074,328.213 79.5,329.5C 83.2032,327.945 87.2032,327.278 91.5,327.5C 94.5,327.667 97.5,327.833 100.5,328C 101.025,328.692 101.692,329.192 102.5,329.5C 103.664,336.142 103.831,342.808 103,349.5C 98.9828,354.424 93.8161,356.424 87.5,355.5 Z"/></g>
<g><path style="opacity:1" fill="#dcaecf" d="M 49.5,331.5 C 40.6686,332.323 31.6686,332.323 22.5,331.5C 22.5,331.167 22.5,330.833 22.5,330.5C 22.631,329.761 22.4643,329.094 22,328.5C 19.8118,329.447 17.4785,329.447 15,328.5C 13.8118,329.563 13.3118,330.897 13.5,332.5C 13.5,333.167 13.1667,333.5 12.5,333.5C 12.0825,332.778 11.4158,332.278 10.5,332C 11.218,330.013 12.218,328.179 13.5,326.5C 17.1111,327.262 20.7778,327.762 24.5,328C 25.8187,329.628 27.1521,329.461 28.5,327.5C 30.4342,327.901 31.9342,328.901 33,330.5C 33.4828,329.552 33.6495,328.552 33.5,327.5C 36.4475,327.777 39.2809,327.444 42,326.5C 42.4935,328.134 42.6602,329.801 42.5,331.5C 44.8333,331.5 47.1667,331.5 49.5,331.5 Z"/></g>
<g><path style="opacity:1" fill="#cd6c82" d="M 22.5,330.5 C 19.1445,330.091 16.1445,330.758 13.5,332.5C 13.3118,330.897 13.8118,329.563 15,328.5C 17.4785,329.447 19.8118,329.447 22,328.5C 22.4643,329.094 22.631,329.761 22.5,330.5 Z"/></g>
<g><path style="opacity:1" fill="#e57a69" d="M 99.5,348.5 C 100.483,342.476 99.1496,337.143 95.5,332.5C 80.8485,331.501 66.1818,331.167 51.5,331.5C 60.6642,330.572 69.9975,329.905 79.5,329.5C 86.5074,328.213 93.5074,328.213 100.5,329.5C 100.288,335.037 100.622,340.537 101.5,346C 101.316,347.376 100.649,348.209 99.5,348.5 Z"/></g>
<g><path style="opacity:1" fill="#d2352c" d="M 22.5,330.5 C 22.5,330.833 22.5,331.167 22.5,331.5C 24.1667,332.167 25.8333,332.833 27.5,333.5C 23.1186,333.372 18.7853,333.705 14.5,334.5C 14.5,337.167 14.5,339.833 14.5,342.5C 13.5,342.5 12.5,342.5 11.5,342.5C 11.5,343.5 11.5,344.5 11.5,345.5C 10.596,344.791 10.2627,343.791 10.5,342.5C 11.6336,339.63 12.3003,336.63 12.5,333.5C 13.1667,333.5 13.5,333.167 13.5,332.5C 16.1445,330.758 19.1445,330.091 22.5,330.5 Z"/></g>
<g><path style="opacity:1" fill="#cf5052" d="M 22.5,331.5 C 31.6686,332.323 40.6686,332.323 49.5,331.5C 50.1667,331.5 50.8333,331.5 51.5,331.5C 51.3893,332.117 51.056,332.617 50.5,333C 44.8431,333.499 39.1764,333.666 33.5,333.5C 31.5,333.5 29.5,333.5 27.5,333.5C 25.8333,332.833 24.1667,332.167 22.5,331.5 Z"/></g>
<g><path style="opacity:1" fill="#d53728" d="M 51.5,331.5 C 66.1818,331.167 80.8485,331.501 95.5,332.5C 99.1496,337.143 100.483,342.476 99.5,348.5C 98.5352,352.108 96.2019,353.774 92.5,353.5C 90.8333,353.5 89.1667,353.5 87.5,353.5C 90.4468,351.921 93.4468,350.255 96.5,348.5C 98.5072,342.639 97.5072,337.472 93.5,333C 80.8334,333.709 68.1667,333.543 55.5,332.5C 54.5,332.667 53.5,332.833 52.5,333C 52.8333,333.333 53.1667,333.667 53.5,334C 46.6536,334.821 39.987,334.654 33.5,333.5C 39.1764,333.666 44.8431,333.499 50.5,333C 51.056,332.617 51.3893,332.117 51.5,331.5 Z"/></g>
<g><path style="opacity:1" fill="#cf0c03" d="M 87.5,353.5 C 86.1667,353.5 84.8333,353.5 83.5,353.5C 60.4869,352.594 37.4869,352.427 14.5,353C 13.9152,351.698 13.2485,350.531 12.5,349.5C 12.1667,348.167 11.8333,346.833 11.5,345.5C 11.5,344.5 11.5,343.5 11.5,342.5C 12.5,342.5 13.5,342.5 14.5,342.5C 14.5,339.833 14.5,337.167 14.5,334.5C 18.7853,333.705 23.1186,333.372 27.5,333.5C 29.5,333.5 31.5,333.5 33.5,333.5C 39.987,334.654 46.6536,334.821 53.5,334C 53.1667,333.667 52.8333,333.333 52.5,333C 53.5,332.833 54.5,332.667 55.5,332.5C 68.1667,333.543 80.8334,333.709 93.5,333C 97.5072,337.472 98.5072,342.639 96.5,348.5C 93.4468,350.255 90.4468,351.921 87.5,353.5 Z"/></g>
<g><path style="opacity:1" fill="#f0b7ae" d="M 10.5,342.5 C 10.2627,343.791 10.596,344.791 11.5,345.5C 11.8333,346.833 12.1667,348.167 12.5,349.5C 12.5,350.5 12.5,351.5 12.5,352.5C 11.7515,351.469 11.0848,350.302 10.5,349C 5.36342,349.547 3.69676,347.547 5.5,343C 7.13414,342.506 8.80081,342.34 10.5,342.5 Z"/></g>
<g><path style="opacity:1" fill="#da4432" d="M 12.5,349.5 C 13.2485,350.531 13.9152,351.698 14.5,353C 37.4869,352.427 60.4869,352.594 83.5,353.5C 80.2239,354.283 76.8906,355.283 73.5,356.5C 71.8228,355.813 70.1561,355.146 68.5,354.5C 61.5,354.5 54.5,354.5 47.5,354.5C 46.1667,354.5 44.8333,354.5 43.5,354.5C 33.8333,354.5 24.1667,354.5 14.5,354.5C 13.8333,354.167 13.1667,353.833 12.5,353.5C 12.5,353.167 12.5,352.833 12.5,352.5C 12.5,351.5 12.5,350.5 12.5,349.5 Z"/></g>
<g><path style="opacity:1" fill="#e0796a" d="M 83.5,353.5 C 84.8333,353.5 86.1667,353.5 87.5,353.5C 89.1667,353.5 90.8333,353.5 92.5,353.5C 90.8333,354.167 89.1667,354.833 87.5,355.5C 84.7531,355.187 82.0865,355.52 79.5,356.5C 76.8466,358.663 73.8466,359.497 70.5,359C 69.1772,358.184 68.5106,357.017 68.5,355.5C 68.5,355.167 68.5,354.833 68.5,354.5C 70.1561,355.146 71.8228,355.813 73.5,356.5C 76.8906,355.283 80.2239,354.283 83.5,353.5 Z"/></g>
<g><path style="opacity:1" fill="#e0908b" d="M 12.5,353.5 C 13.1667,353.833 13.8333,354.167 14.5,354.5C 14.4142,355.496 14.7476,356.329 15.5,357C 24.4882,356.948 33.4882,356.615 42.5,356C 43.056,355.617 43.3893,355.117 43.5,354.5C 44.8333,354.5 46.1667,354.5 47.5,354.5C 47.0629,356.074 46.0629,357.241 44.5,358C 37.3213,358.171 30.3213,358.671 23.5,359.5C 23.1667,366.167 22.8333,366.167 22.5,359.5C 18.9581,359.813 15.6248,359.479 12.5,358.5C 13.494,357.001 13.494,355.334 12.5,353.5 Z"/></g>
<g><path style="opacity:1" fill="#ed6954" d="M 14.5,354.5 C 24.1667,354.5 33.8333,354.5 43.5,354.5C 43.3893,355.117 43.056,355.617 42.5,356C 33.4882,356.615 24.4882,356.948 15.5,357C 14.7476,356.329 14.4142,355.496 14.5,354.5 Z"/></g>
<g><path style="opacity:1" fill="#fbc8c1" d="M 47.5,354.5 C 54.5,354.5 61.5,354.5 68.5,354.5C 68.5,354.833 68.5,355.167 68.5,355.5C 61.7659,355.869 55.0992,355.869 48.5,355.5C 48.5,356.833 48.5,358.167 48.5,359.5C 41.8333,359.5 35.1667,359.5 28.5,359.5C 26.8333,359.5 25.1667,359.5 23.5,359.5C 30.3213,358.671 37.3213,358.171 44.5,358C 46.0629,357.241 47.0629,356.074 47.5,354.5 Z"/></g>
<g><path style="opacity:1" fill="#d9bde2" d="M 12.5,358.5 C 15.6248,359.479 18.9581,359.813 22.5,359.5C 22.8333,366.167 23.1667,366.167 23.5,359.5C 25.1667,359.5 26.8333,359.5 28.5,359.5C 29.7525,361.339 29.7525,363.172 28.5,365C 23.029,365.271 17.3624,365.437 11.5,365.5C 11.1984,362.941 11.5318,360.607 12.5,358.5 Z"/></g>
<g><path style="opacity:1" fill="#585858" d="M 55.5,374.5 C 53.8908,374.906 52.5575,374.906 51.5,374.5C 52.9584,373.218 54.2918,373.218 55.5,374.5 Z"/></g>
<g><path style="opacity:1" fill="#f3f3f3" d="M 18.5,374.5 C 19.5,374.5 20.5,374.5 21.5,374.5C 21.5,376.5 21.5,378.5 21.5,380.5C 20.5,380.5 19.5,380.5 18.5,380.5C 18.5,378.5 18.5,376.5 18.5,374.5 Z"/></g>
<g><path style="opacity:1" fill="#cbcbcb" d="M 58.5,374.5 C 59.5,374.5 60.5,374.5 61.5,374.5C 61.5,376.5 61.5,378.5 61.5,380.5C 60.5,380.5 59.5,380.5 58.5,380.5C 57.1667,378.5 57.1667,376.5 58.5,374.5 Z"/></g>
<g><path style="opacity:1" fill="#747474" d="M 58.5,374.5 C 60.2303,373.088 61.7303,373.422 63,375.5C 64.4659,373.675 66.2992,373.175 68.5,374C 69.5171,375.049 69.6838,376.216 69,377.5C 64.2744,379.539 64.4411,380.706 69.5,381C 68.5,381.167 67.5,381.333 66.5,381.5C 64.9704,381.36 63.9704,380.693 63.5,379.5C 62.0236,381.432 60.3569,381.765 58.5,380.5C 59.5,380.5 60.5,380.5 61.5,380.5C 61.5,378.5 61.5,376.5 61.5,374.5C 60.5,374.5 59.5,374.5 58.5,374.5 Z"/></g>
<g><path style="opacity:1" fill="#4c4c4c" d="M 31.5,374.5 C 32.1894,373.226 33.0228,373.226 34,374.5C 34.6667,376.167 34.6667,377.833 34,379.5C 33.9005,377.347 33.0672,375.681 31.5,374.5 Z"/></g>
<g><path style="opacity:1" fill="#f3f3f3" d="M 63.5,379.5 C 63.244,377.088 64.244,375.421 66.5,374.5C 66.8333,375 67.1667,375.5 67.5,376C 66.3551,377.402 65.0217,378.569 63.5,379.5 Z"/></g>
<g><path style="opacity:1" fill="#5f5f5f" d="M 18.5,374.5 C 19.5676,373.566 20.901,373.232 22.5,373.5C 22.8016,376.059 22.4682,378.393 21.5,380.5C 21.5,378.5 21.5,376.5 21.5,374.5C 20.5,374.5 19.5,374.5 18.5,374.5 Z"/></g>
<g><path style="opacity:1" fill="#797979" d="M 36.5,375.5 C 38.451,375.227 39.951,375.893 41,377.5C 42.5553,375.485 44.3886,375.152 46.5,376.5C 46.0623,377.506 45.3957,377.506 44.5,376.5C 43.1667,377.833 43.1667,379.167 44.5,380.5C 48.445,379.573 48.445,379.906 44.5,381.5C 42.6711,380.535 40.8377,379.535 39,378.5C 35.4824,381.08 34.649,380.08 36.5,375.5 Z"/></g>
<g><path style="opacity:1" fill="#535353" d="M 74.5,380.5 C 74.4894,378.983 73.8228,377.816 72.5,377C 74.2373,376.388 75.2373,377.054 75.5,379C 75.4301,379.765 75.0967,380.265 74.5,380.5 Z"/></g>
<g><path style="opacity:1" fill="#666666" d="M 55.5,374.5 C 56.5735,375.251 56.7401,376.251 56,377.5C 51.2744,379.539 51.4411,380.706 56.5,381C 54.4213,381.808 52.4213,381.641 50.5,380.5C 52.5311,378.69 54.1978,376.69 55.5,374.5 Z"/></g>
<g><path style="opacity:1" fill="#7c7c7b" d="M 18.5,374.5 C 18.5,376.5 18.5,378.5 18.5,380.5C 19.5,380.5 20.5,380.5 21.5,380.5C 18.3752,381.479 15.0419,381.813 11.5,381.5C 11.2852,379.821 11.9519,378.821 13.5,378.5C 14.1408,377.518 14.8075,376.518 15.5,375.5C 13.9928,374.261 12.8261,374.595 12,376.5C 11.5172,375.552 11.3505,374.552 11.5,373.5C 13.7659,373.141 15.5993,373.808 17,375.5C 17.3826,374.944 17.8826,374.611 18.5,374.5 Z"/></g>
<g><path style="opacity:1" fill="#f3f2f0" d="M 13.5,378.5 C 14.4959,378.586 15.3292,378.252 16,377.5C 16.4828,378.448 16.6495,379.448 16.5,380.5C 15.1266,380.657 13.7932,380.49 12.5,380C 13.056,379.617 13.3893,379.117 13.5,378.5 Z"/></g>
<g><path style="opacity:1" fill="#414242" d="M 27.5,373.5 C 28.4682,375.607 28.8016,377.941 28.5,380.5C 33.5,381.003 33.1667,381.336 27.5,381.5C 27.5,378.833 27.5,376.167 27.5,373.5 Z"/></g>
<g><path style="opacity:1" fill="#585858" d="M 74.5,380.5 C 73.2918,381.782 71.9584,381.782 70.5,380.5C 71.5575,380.094 72.8908,380.094 74.5,380.5 Z"/></g>
</svg>
