<?xml version="1.0" encoding="UTF-8"?>
<!DOCTYPE svg PUBLIC "-//W3C//DTD SVG 1.1//EN" "http://www.w3.org/Graphics/SVG/1.1/DTD/svg11.dtd">
<svg xmlns="http://www.w3.org/2000/svg" version="1.1" width="32px" height="32px" style="shape-rendering:geometricPrecision; text-rendering:geometricPrecision; image-rendering:optimizeQuality; fill-rule:evenodd; clip-rule:evenodd" xmlns:xlink="http://www.w3.org/1999/xlink">
<g><path style="opacity:0.662" fill="#fefffe" d="M 8.5,1.5 C 12.7251,2.72172 15.7251,5.38839 17.5,9.5C 16.3803,11.5962 14.8803,11.9295 13,10.5C 12.5005,16.8246 12.3338,23.1579 12.5,29.5C 10.8333,29.5 9.16667,29.5 7.5,29.5C 7.66621,23.1579 7.49954,16.8246 7,10.5C 4.83333,12 3.33333,11.5 2.5,9C 4.31979,6.34785 6.31979,3.84785 8.5,1.5 Z"/></g>
<g><path style="opacity:0.714" fill="#fefffe" d="M 13.5,12.5 C 16.1667,12.5 18.8333,12.5 21.5,12.5C 21.5,13.8333 21.5,15.1667 21.5,16.5C 18.8333,16.5 16.1667,16.5 13.5,16.5C 13.5,15.1667 13.5,13.8333 13.5,12.5 Z"/></g>
<g><path style="opacity:0.554" fill="#fefffe" d="M 13.5,18.5 C 17.1667,18.5 20.8333,18.5 24.5,18.5C 24.5,20.1667 24.5,21.8333 24.5,23.5C 20.8333,23.5 17.1667,23.5 13.5,23.5C 13.5,21.8333 13.5,20.1667 13.5,18.5 Z"/></g>
<g><path style="opacity:0.761" fill="#fefffe" d="M 13.5,25.5 C 18.5,25.5 23.5,25.5 28.5,25.5C 28.5,26.8333 28.5,28.1667 28.5,29.5C 23.5,29.5 18.5,29.5 13.5,29.5C 13.5,28.1667 13.5,26.8333 13.5,25.5 Z"/></g>
</svg>
