<?xml version="1.0" encoding="UTF-8"?>
<!DOCTYPE svg PUBLIC "-//W3C//DTD SVG 1.1//EN" "http://www.w3.org/Graphics/SVG/1.1/DTD/svg11.dtd">
<svg xmlns="http://www.w3.org/2000/svg" version="1.1" width="300px" height="169px" style="shape-rendering:geometricPrecision; text-rendering:geometricPrecision; image-rendering:optimizeQuality; fill-rule:evenodd; clip-rule:evenodd" xmlns:xlink="http://www.w3.org/1999/xlink">
<g><path style="opacity:1" fill="#d9dadf" d="M -0.5,-0.5 C 27.5,-0.5 55.5,-0.5 83.5,-0.5C 84.684,2.86066 86.5173,5.86066 89,8.5C 89.49,9.79323 89.6567,11.1266 89.5,12.5C 90.3432,17.681 93.3432,21.0143 98.5,22.5C 98.5,25.8333 98.5,29.1667 98.5,32.5C 91.6435,25.478 84.9768,18.3113 78.5,11C 74.2892,8.63107 69.9559,6.46441 65.5,4.5C 63.9489,8.18992 62.1155,8.18992 60,4.5C 58.2738,6.75003 56.7738,9.08336 55.5,11.5C 55.5,10.5 55.5,9.5 55.5,8.5C 54.209,8.26269 53.209,8.59603 52.5,9.5C 46.9252,10.4524 41.2586,10.7857 35.5,10.5C 35.2529,13.9387 35.5863,17.272 36.5,20.5C 36.5,20.8333 36.5,21.1667 36.5,21.5C 35.1148,22.9473 35.4482,23.9473 37.5,24.5C 36.8902,25.391 36.5569,26.391 36.5,27.5C 34.6943,28.0241 33.0276,28.6908 31.5,29.5C 31.3367,31.8568 31.5034,34.1902 32,36.5C 32.3076,35.6919 32.8076,35.0253 33.5,34.5C 34.5,35.1667 35.5,35.8333 36.5,36.5C 37.1067,36.3764 37.44,36.0431 37.5,35.5C 37.8333,35.5 38.1667,35.5 38.5,35.5C 38.5,36.1667 38.8333,36.5 39.5,36.5C 40.6085,37.29 41.9419,37.79 43.5,38C 42.1667,38.3333 40.8333,38.6667 39.5,39C 41.0581,39.21 42.3915,39.71 43.5,40.5C 43.5335,42.567 43.5335,44.7336 43.5,47C 46.5433,48.9337 48.21,51.767 48.5,55.5C 50.7552,53.3122 52.9219,53.6455 55,56.5C 56.6134,55.3777 57.7801,55.8777 58.5,58C 57.5842,58.2784 56.9175,58.7784 56.5,59.5C 37.4444,54.7035 18.4444,49.7035 -0.5,44.5C -0.5,29.5 -0.5,14.5 -0.5,-0.5 Z"/></g>
<g><path style="opacity:1" fill="#edf1f8" d="M 92.5,-0.5 C 116.833,-0.5 141.167,-0.5 165.5,-0.5C 161.082,6.75412 155.415,12.9208 148.5,18C 149.962,22.4759 150.796,26.9759 151,31.5C 151.718,30.5494 152.551,30.3828 153.5,31C 151.498,32.0192 149.498,32.8525 147.5,33.5C 133.848,30.6102 120.514,26.9435 107.5,22.5C 101.957,15.2421 96.9573,7.57547 92.5,-0.5 Z"/></g>
<g><path style="opacity:1" fill="#fefdfd" d="M 238.5,-0.5 C 252.833,-0.5 267.167,-0.5 281.5,-0.5C 281.5,10.5 281.5,21.5 281.5,32.5C 279.901,32.2322 278.568,32.5655 277.5,33.5C 262.686,36.8064 247.686,39.8064 232.5,42.5C 231.501,54.8153 231.168,67.1487 231.5,79.5C 233.167,79.5 234.833,79.5 236.5,79.5C 234.735,80.4614 232.735,80.7947 230.5,80.5C 230.787,54.8118 230.453,29.1451 229.5,3.5C 228.5,3.5 227.5,3.5 226.5,3.5C 230.558,2.36954 234.558,1.03621 238.5,-0.5 Z"/></g>
<g><path style="opacity:1" fill="#ebe5e3" d="M 283.5,-0.5 C 288.833,-0.5 294.167,-0.5 299.5,-0.5C 299.5,18.5 299.5,37.5 299.5,56.5C 291.639,53.6451 286.639,48.3118 284.5,40.5C 283.573,26.8629 283.24,13.1962 283.5,-0.5 Z"/></g>
<g><path style="opacity:1" fill="#dcb6a3" d="M 228.5,-0.5 C 231.833,-0.5 235.167,-0.5 238.5,-0.5C 234.558,1.03621 230.558,2.36954 226.5,3.5C 219.882,5.38038 213.216,7.04705 206.5,8.5C 205.791,7.59603 204.791,7.26269 203.5,7.5C 211.833,4.83333 220.167,2.16667 228.5,-0.5 Z"/></g>
<g><path style="opacity:1" fill="#fefefe" d="M 226.5,3.5 C 227.5,3.5 228.5,3.5 229.5,3.5C 230.453,29.1451 230.787,54.8118 230.5,80.5C 221.514,81.3321 212.514,81.9988 203.5,82.5C 203.5,80.5 203.5,78.5 203.5,76.5C 203.666,67.4938 203.5,58.4938 203,49.5C 198.353,47.6018 193.52,46.2685 188.5,45.5C 188.5,34.8333 188.5,24.1667 188.5,13.5C 194.379,11.5293 200.379,9.86264 206.5,8.5C 213.216,7.04705 219.882,5.38038 226.5,3.5 Z"/></g>
<g><path style="opacity:1" fill="#7b7772" d="M 83.5,-0.5 C 83.8333,-0.5 84.1667,-0.5 84.5,-0.5C 87.1684,4.1586 90.3351,8.49193 94,12.5C 94.7885,14.1647 95.1218,15.8314 95,17.5C 93.2962,15.6266 91.4628,13.9599 89.5,12.5C 89.6567,11.1266 89.49,9.79323 89,8.5C 86.5173,5.86066 84.684,2.86066 83.5,-0.5 Z"/></g>
<g><path style="opacity:1" fill="#b2b1b1" d="M 84.5,-0.5 C 87.1667,-0.5 89.8333,-0.5 92.5,-0.5C 96.9573,7.57547 101.957,15.2421 107.5,22.5C 106.833,22.5 106.167,22.5 105.5,22.5C 104.833,22.5 104.167,22.5 103.5,22.5C 102.001,21.506 100.334,21.506 98.5,22.5C 93.3432,21.0143 90.3432,17.681 89.5,12.5C 91.4628,13.9599 93.2962,15.6266 95,17.5C 95.1218,15.8314 94.7885,14.1647 94,12.5C 90.3351,8.49193 87.1684,4.1586 84.5,-0.5 Z"/></g>
<g><path style="opacity:1" fill="#eeeef1" d="M 165.5,-0.5 C 186.5,-0.5 207.5,-0.5 228.5,-0.5C 220.167,2.16667 211.833,4.83333 203.5,7.5C 197.756,8.54056 192.09,9.87389 186.5,11.5C 186.832,22.5202 186.499,33.5202 185.5,44.5C 179.866,42.6754 174.199,41.0087 168.5,39.5C 161.439,37.652 154.439,35.652 147.5,33.5C 149.498,32.8525 151.498,32.0192 153.5,31C 152.551,30.3828 151.718,30.5494 151,31.5C 150.796,26.9759 149.962,22.4759 148.5,18C 155.415,12.9208 161.082,6.75412 165.5,-0.5 Z"/></g>
<g><path style="opacity:1" fill="#b47077" d="M 52.5,9.5 C 52.5386,10.7562 52.0386,11.7562 51,12.5C 46.2633,11.5308 41.43,11.1975 36.5,11.5C 36.3367,13.8568 36.5034,16.1902 37,18.5C 37.1981,16.6183 37.6981,14.9516 38.5,13.5C 38.5,14.8333 38.5,16.1667 38.5,17.5C 38.573,19.0269 37.9063,20.0269 36.5,20.5C 35.5863,17.272 35.2529,13.9387 35.5,10.5C 41.2586,10.7857 46.9252,10.4524 52.5,9.5 Z"/></g>
<g><path style="opacity:1" fill="#96282e" d="M 36.5,21.5 C 36.5,21.1667 36.5,20.8333 36.5,20.5C 37.9063,20.0269 38.573,19.0269 38.5,17.5C 40.4756,14.6998 41.3089,15.0331 41,18.5C 39.4263,19.9842 38.093,21.6508 37,23.5C 36.5357,22.9056 36.369,22.2389 36.5,21.5 Z"/></g>
<g><path style="opacity:1" fill="#c73739" d="M 55.5,11.5 C 53.8608,12.4725 52.5274,13.8058 51.5,15.5C 51.2963,18.9175 51.2963,22.5842 51.5,26.5C 49.1667,26.5 46.8333,26.5 44.5,26.5C 43.6364,26.2976 42.6364,25.9643 41.5,25.5C 44.1667,21.8333 46.8333,18.1667 49.5,14.5C 45.8927,13.5108 42.226,13.1774 38.5,13.5C 37.6981,14.9516 37.1981,16.6183 37,18.5C 36.5034,16.1902 36.3367,13.8568 36.5,11.5C 41.43,11.1975 46.2633,11.5308 51,12.5C 52.0386,11.7562 52.5386,10.7562 52.5,9.5C 53.209,8.59603 54.209,8.26269 55.5,8.5C 55.5,9.5 55.5,10.5 55.5,11.5 Z"/></g>
<g><path style="opacity:1" fill="#e0dadf" d="M 48.5,19.5 C 49.4511,20.9187 49.7845,22.5853 49.5,24.5C 48.0222,24.762 46.6888,24.4287 45.5,23.5C 46.5244,22.1482 47.5244,20.8149 48.5,19.5 Z"/></g>
<g><path style="opacity:1" fill="#a42b30" d="M 36.5,27.5 C 36.5569,26.391 36.8902,25.391 37.5,24.5C 40.4926,21.4988 43.1593,18.1654 45.5,14.5C 45.8333,15 46.1667,15.5 46.5,16C 43.9797,20.6772 40.6464,24.5106 36.5,27.5 Z"/></g>
<g><path style="opacity:1" fill="#d97e84" d="M 51.5,15.5 C 52.4299,19.3998 52.7633,23.3998 52.5,27.5C 49.8333,27.5 47.1667,27.5 44.5,27.5C 44.5,27.1667 44.5,26.8333 44.5,26.5C 46.8333,26.5 49.1667,26.5 51.5,26.5C 51.2963,22.5842 51.2963,18.9175 51.5,15.5 Z"/></g>
<g><path style="opacity:1" fill="#e5e7ee" d="M 98.5,32.5 C 98.5,43.1667 98.5,53.8333 98.5,64.5C 97.8826,64.3893 97.3826,64.056 97,63.5C 96.3763,65.754 95.043,67.4206 93,68.5C 91.0551,67.1367 88.8884,66.3034 86.5,66C 82.6003,63.8403 78.767,61.007 75,57.5C 74.6667,57.8333 74.3333,58.1667 74,58.5C 73.538,54.5545 71.7046,51.5545 68.5,49.5C 67.3527,49.8178 66.5194,50.4844 66,51.5C 65.5518,49.7756 64.7185,49.109 63.5,49.5C 63.7093,48.914 64.0426,48.414 64.5,48C 62.9391,47.6824 61.7724,46.8491 61,45.5C 58.6696,46.1562 57.0029,45.1562 56,42.5C 53.537,44.716 51.7037,44.0493 50.5,40.5C 51.2389,40.631 51.9056,40.4643 52.5,40C 50.913,39.1376 49.2464,38.4709 47.5,38C 48.4158,37.7216 49.0825,37.2216 49.5,36.5C 50.1667,36.1667 50.8333,35.8333 51.5,35.5C 52.6009,36.5983 53.9343,36.765 55.5,36C 54.5,35.6667 53.5,35.3333 52.5,35C 57.2363,34.3762 57.5697,33.2095 53.5,31.5C 52.5836,31.5427 51.9169,31.8761 51.5,32.5C 49.9582,31.6993 48.2915,31.366 46.5,31.5C 45.8423,30.6016 45.1757,29.6016 44.5,28.5C 43.4679,30.0396 42.1346,30.5396 40.5,30C 41.6341,28.984 41.3008,28.3173 39.5,28C 41.1341,27.5065 42.8008,27.3398 44.5,27.5C 47.1667,27.5 49.8333,27.5 52.5,27.5C 52.7633,23.3998 52.4299,19.3998 51.5,15.5C 52.5274,13.8058 53.8608,12.4725 55.5,11.5C 56.7738,9.08336 58.2738,6.75003 60,4.5C 62.1155,8.18992 63.9489,8.18992 65.5,4.5C 69.9559,6.46441 74.2892,8.63107 78.5,11C 84.9768,18.3113 91.6435,25.478 98.5,32.5 Z"/></g>
<g><path style="opacity:1" fill="#6c707d" d="M 105.5,22.5 C 106.167,22.5 106.833,22.5 107.5,22.5C 120.514,26.9435 133.848,30.6102 147.5,33.5C 154.439,35.652 161.439,37.652 168.5,39.5C 168.5,40.1667 168.167,40.5 167.5,40.5C 146.245,35.409 125.245,29.7423 104.5,23.5C 105.167,23.5 105.5,23.1667 105.5,22.5 Z"/></g>
<g><path style="opacity:1" fill="#d6dce7" d="M 104.5,23.5 C 125.245,29.7423 146.245,35.409 167.5,40.5C 173.606,42.6112 179.939,44.2778 186.5,45.5C 189.221,46.2264 191.221,47.2264 192.5,48.5C 190.139,48.3259 187.806,47.9926 185.5,47.5C 182.167,46.5 178.833,45.5 175.5,44.5C 171.5,43.5 167.5,42.5 163.5,41.5C 147.107,37.3187 130.774,32.9854 114.5,28.5C 111.574,27.5392 108.574,26.8726 105.5,26.5C 104.609,25.8902 103.609,25.5569 102.5,25.5C 102.5,24.1667 103.167,23.5 104.5,23.5 Z"/></g>
<g><path style="opacity:1" fill="#9a3f44" d="M 31.5,29.5 C 33.9775,29.0508 35.9775,29.7175 37.5,31.5C 35.121,33.1048 35.121,34.4381 37.5,35.5C 37.44,36.0431 37.1067,36.3764 36.5,36.5C 35.5,35.8333 34.5,35.1667 33.5,34.5C 32.8076,35.0253 32.3076,35.6919 32,36.5C 31.5034,34.1902 31.3367,31.8568 31.5,29.5 Z"/></g>
<g><path style="opacity:1" fill="#dcdadf" d="M 32.5,30.5 C 33.675,30.281 34.675,30.6143 35.5,31.5C 33.9483,32.7979 32.9483,32.4646 32.5,30.5 Z"/></g>
<g><path style="opacity:1" fill="#e85454" d="M 51.5,35.5 C 51.5,34.5 51.5,33.5 51.5,32.5C 51.9169,31.8761 52.5836,31.5427 53.5,31.5C 57.5697,33.2095 57.2363,34.3762 52.5,35C 53.5,35.3333 54.5,35.6667 55.5,36C 53.9343,36.765 52.6009,36.5983 51.5,35.5 Z"/></g>
<g><path style="opacity:1" fill="#6c6c74" d="M 103.5,22.5 C 101.55,27.7351 100.883,33.4018 101.5,39.5C 99.9615,66.3181 99.2948,93.3181 99.5,120.5C 98.5031,102.007 98.1698,83.3408 98.5,64.5C 98.5,53.8333 98.5,43.1667 98.5,32.5C 98.5,29.1667 98.5,25.8333 98.5,22.5C 100.334,21.506 102.001,21.506 103.5,22.5 Z"/></g>
<g><path style="opacity:1" fill="#b64149" d="M 39.5,36.5 C 38.8333,36.5 38.5,36.1667 38.5,35.5C 39.5,35.5 40.5,35.5 41.5,35.5C 41.5,34.5 41.5,33.5 41.5,32.5C 40.448,32.6495 39.448,32.4828 38.5,32C 40.1341,31.5065 41.8008,31.3398 43.5,31.5C 43.5,33.1667 43.5,34.8333 43.5,36.5C 42.1667,36.5 40.8333,36.5 39.5,36.5 Z"/></g>
<g><path style="opacity:1" fill="#da6d6e" d="M 46.5,31.5 C 48.2915,31.366 49.9582,31.6993 51.5,32.5C 51.5,33.5 51.5,34.5 51.5,35.5C 50.8333,35.8333 50.1667,36.1667 49.5,36.5C 48.5,36.5 47.5,36.5 46.5,36.5C 46.5,34.8333 46.5,33.1667 46.5,31.5 Z"/></g>
<g><path style="opacity:1" fill="#fefefe" d="M 277.5,33.5 C 279.167,33.5 280.833,33.5 282.5,33.5C 282.5,42.8333 282.5,52.1667 282.5,61.5C 282.5,65.8333 282.5,70.1667 282.5,74.5C 267.205,76.4296 251.871,78.0963 236.5,79.5C 234.833,79.5 233.167,79.5 231.5,79.5C 231.168,67.1487 231.501,54.8153 232.5,42.5C 247.686,39.8064 262.686,36.8064 277.5,33.5 Z"/></g>
<g><path style="opacity:1" fill="#ada09d" d="M 203.5,7.5 C 204.791,7.26269 205.791,7.59603 206.5,8.5C 200.379,9.86264 194.379,11.5293 188.5,13.5C 187.833,24.1667 187.167,34.8333 186.5,45.5C 179.939,44.2778 173.606,42.6112 167.5,40.5C 168.167,40.5 168.5,40.1667 168.5,39.5C 174.199,41.0087 179.866,42.6754 185.5,44.5C 186.499,33.5202 186.832,22.5202 186.5,11.5C 192.09,9.87389 197.756,8.54056 203.5,7.5 Z"/></g>
<g><path style="opacity:1" fill="#d5b7bc" d="M 38.5,13.5 C 42.226,13.1774 45.8927,13.5108 49.5,14.5C 46.8333,18.1667 44.1667,21.8333 41.5,25.5C 42.6364,25.9643 43.6364,26.2976 44.5,26.5C 44.5,26.8333 44.5,27.1667 44.5,27.5C 42.8008,27.3398 41.1341,27.5065 39.5,28C 41.3008,28.3173 41.6341,28.984 40.5,30C 42.1346,30.5396 43.4679,30.0396 44.5,28.5C 45.1757,29.6016 45.8423,30.6016 46.5,31.5C 46.5,33.1667 46.5,34.8333 46.5,36.5C 47.5,36.5 48.5,36.5 49.5,36.5C 49.0825,37.2216 48.4158,37.7216 47.5,38C 49.2464,38.4709 50.913,39.1376 52.5,40C 51.9056,40.4643 51.2389,40.631 50.5,40.5C 48.3313,39.9182 45.998,39.9182 43.5,40.5C 42.3915,39.71 41.0581,39.21 39.5,39C 40.8333,38.6667 42.1667,38.3333 43.5,38C 41.9419,37.79 40.6085,37.29 39.5,36.5C 40.8333,36.5 42.1667,36.5 43.5,36.5C 43.5,34.8333 43.5,33.1667 43.5,31.5C 41.8008,31.3398 40.1341,31.5065 38.5,32C 39.448,32.4828 40.448,32.6495 41.5,32.5C 41.5,33.5 41.5,34.5 41.5,35.5C 40.5,35.5 39.5,35.5 38.5,35.5C 38.1667,35.5 37.8333,35.5 37.5,35.5C 35.121,34.4381 35.121,33.1048 37.5,31.5C 35.9775,29.7175 33.9775,29.0508 31.5,29.5C 33.0276,28.6908 34.6943,28.0241 36.5,27.5C 40.6464,24.5106 43.9797,20.6772 46.5,16C 46.1667,15.5 45.8333,15 45.5,14.5C 43.1593,18.1654 40.4926,21.4988 37.5,24.5C 35.4482,23.9473 35.1148,22.9473 36.5,21.5C 36.369,22.2389 36.5357,22.9056 37,23.5C 38.093,21.6508 39.4263,19.9842 41,18.5C 41.3089,15.0331 40.4756,14.6998 38.5,17.5C 38.5,16.1667 38.5,14.8333 38.5,13.5 Z"/></g>
<g><path style="opacity:1" fill="#4b5869" d="M 105.5,26.5 C 108.574,26.8726 111.574,27.5392 114.5,28.5C 116.842,32.0013 119.508,35.3346 122.5,38.5C 125.441,40.0389 128.274,41.0389 131,41.5C 131.781,50.4107 132.781,50.0773 134,40.5C 134.483,41.448 134.649,42.448 134.5,43.5C 135.978,43.238 137.311,43.5713 138.5,44.5C 137.975,45.1924 137.308,45.6924 136.5,46C 140.99,46.2631 144.323,48.2631 146.5,52C 148.226,53.5298 150.226,54.5298 152.5,55C 155.536,57.977 158.203,61.1437 160.5,64.5C 159.745,67.128 158.245,67.7946 156,66.5C 153.832,68.4545 151.498,69.1212 149,68.5C 148.333,65.8333 147.667,65.8333 147,68.5C 146.085,67.6721 145.419,66.6721 145,65.5C 144.667,65.8333 144.333,66.1667 144,66.5C 142.581,65.5399 141.081,64.7065 139.5,64C 139.833,63.6667 140.167,63.3333 140.5,63C 137.86,62.1035 135.693,60.6035 134,58.5C 133.5,67.4938 133.334,76.4938 133.5,85.5C 132.833,85.5 132.167,85.5 131.5,85.5C 132.107,81.0489 132.441,76.5489 132.5,72C 132.714,66.678 132.047,61.5113 130.5,56.5C 126.206,54.155 122.039,52.8216 118,52.5C 116.731,53.9047 116.231,55.5714 116.5,57.5C 115.732,56.7375 115.232,55.7375 115,54.5C 114.5,55 114,55.5 113.5,56C 115.179,58.5645 115.846,61.3979 115.5,64.5C 113.373,60.2734 110.373,59.6067 106.5,62.5C 105.06,59.7719 105.726,57.6052 108.5,56C 110.095,56.6171 111.428,56.2837 112.5,55C 111.944,54.6174 111.611,54.1174 111.5,53.5C 113.334,48.4784 112.334,44.1451 108.5,40.5C 107.5,40.5 106.5,40.5 105.5,40.5C 105.5,35.8333 105.5,31.1667 105.5,26.5 Z"/></g>
<g><path style="opacity:1" fill="#a8979d" d="M 105.5,40.5 C 106.5,40.5 107.5,40.5 108.5,40.5C 108.5,40.8333 108.5,41.1667 108.5,41.5C 108.502,43.8309 107.669,45.8309 106,47.5C 105.856,44.9752 105.69,42.6419 105.5,40.5 Z"/></g>
<g><path style="opacity:1" fill="#747580" d="M 163.5,41.5 C 167.5,42.5 171.5,43.5 175.5,44.5C 175.421,45.9305 175.754,47.2638 176.5,48.5C 175.757,49.1818 175.091,49.8485 174.5,50.5C 175,54.1638 173.833,57.1638 171,59.5C 170.667,57.8333 170.333,56.1667 170,54.5C 168.605,55.8146 167.605,55.4812 167,53.5C 166.51,55.5454 166.677,57.5454 167.5,59.5C 165.96,61.8383 165.294,64.5049 165.5,67.5C 164.549,66.0813 164.216,64.4147 164.5,62.5C 165.751,59.2074 165.751,55.8741 164.5,52.5C 162.503,49.8396 160.836,47.0062 159.5,44C 161.387,43.8374 162.887,44.6707 164,46.5C 163.981,44.8925 163.815,43.2259 163.5,41.5 Z"/></g>
<g><path style="opacity:1" fill="#434c5b" d="M 102.5,25.5 C 103.609,25.5569 104.609,25.8902 105.5,26.5C 105.5,31.1667 105.5,35.8333 105.5,40.5C 105.69,42.6419 105.856,44.9752 106,47.5C 107.669,45.8309 108.502,43.8309 108.5,41.5C 110.615,45.1116 111.615,49.1116 111.5,53.5C 111.611,54.1174 111.944,54.6174 112.5,55C 111.428,56.2837 110.095,56.6171 108.5,56C 105.726,57.6052 105.06,59.7719 106.5,62.5C 110.373,59.6067 113.373,60.2734 115.5,64.5C 116.468,62.3926 116.802,60.0593 116.5,57.5C 116.231,55.5714 116.731,53.9047 118,52.5C 122.039,52.8216 126.206,54.155 130.5,56.5C 132.047,61.5113 132.714,66.678 132.5,72C 132.441,76.5489 132.107,81.0489 131.5,85.5C 128.162,86.1935 127.662,87.8601 130,90.5C 131.516,87.9485 132.349,88.2819 132.5,91.5C 130.883,92.038 129.216,92.3713 127.5,92.5C 127.591,90.3023 126.925,89.9689 125.5,91.5C 125.657,90.1266 125.49,88.7932 125,87.5C 124.617,88.056 124.117,88.3893 123.5,88.5C 123.338,86.4727 123.505,84.4727 124,82.5C 124.333,83.8333 124.667,85.1667 125,86.5C 125.701,83.0717 125.368,79.7383 124,76.5C 123.338,77.9839 122.504,79.3172 121.5,80.5C 120.144,77.4233 119.311,74.0899 119,70.5C 118.503,72.8098 118.337,75.1432 118.5,77.5C 117.532,75.3926 117.198,73.0593 117.5,70.5C 113.534,69.8379 109.534,69.5045 105.5,69.5C 105.5,67.5 105.5,65.5 105.5,63.5C 104.5,63.5 103.5,63.5 102.5,63.5C 102.5,50.8333 102.5,38.1667 102.5,25.5 Z"/></g>
<g><path style="opacity:1" fill="#c57a77" d="M 108.5,41.5 C 108.5,41.1667 108.5,40.8333 108.5,40.5C 112.334,44.1451 113.334,48.4784 111.5,53.5C 111.615,49.1116 110.615,45.1116 108.5,41.5 Z"/></g>
<g><path style="opacity:1" fill="#cab4b1" d="M 281.5,-0.5 C 282.167,-0.5 282.833,-0.5 283.5,-0.5C 283.24,13.1962 283.573,26.8629 284.5,40.5C 284.5,51.5 284.5,62.5 284.5,73.5C 283.833,69.5 283.167,65.5 282.5,61.5C 282.5,52.1667 282.5,42.8333 282.5,33.5C 280.833,33.5 279.167,33.5 277.5,33.5C 278.568,32.5655 279.901,32.2322 281.5,32.5C 281.5,21.5 281.5,10.5 281.5,-0.5 Z"/></g>
<g><path style="opacity:1" fill="#f2f1f5" d="M 284.5,40.5 C 286.639,48.3118 291.639,53.6451 299.5,56.5C 299.5,61.8333 299.5,67.1667 299.5,72.5C 295.317,73.0026 291.151,73.6692 287,74.5C 285.93,74.472 285.097,74.1386 284.5,73.5C 284.5,62.5 284.5,51.5 284.5,40.5 Z"/></g>
<g><path style="opacity:1" fill="#a79aa0" d="M 185.5,47.5 C 187.806,47.9926 190.139,48.3259 192.5,48.5C 194.663,49.4691 196.996,50.3024 199.5,51C 197.099,51.805 197.266,52.6383 200,53.5C 200.494,55.1341 200.66,56.8008 200.5,58.5C 199.325,58.281 198.325,58.6143 197.5,59.5C 198.689,60.4287 200.022,60.762 201.5,60.5C 201.5,62.5 201.5,64.5 201.5,66.5C 200.167,66.5 198.833,66.5 197.5,66.5C 196.898,60.8489 194.898,59.8489 191.5,63.5C 190.571,62.3112 190.238,60.9778 190.5,59.5C 194.133,59.557 194.3,58.557 191,56.5C 190.667,57.1667 190.333,57.8333 190,58.5C 189.101,56.4839 187.767,54.8172 186,53.5C 185.667,54.1667 185.333,54.8333 185,55.5C 184.57,52.8078 184.737,50.1411 185.5,47.5 Z"/></g>
<g><path style="opacity:1" fill="#474347" d="M -0.5,44.5 C 18.4444,49.7035 37.4444,54.7035 56.5,59.5C 65.7749,62.3694 75.1082,65.036 84.5,67.5C 84.7715,73.1547 86.1048,78.4881 88.5,83.5C 88.0725,86.0142 87.7392,88.5142 87.5,91C 88.6191,94.7611 89.2857,98.5945 89.5,102.5C 87.8103,103.103 86.3103,104.103 85,105.5C 86.3345,97.7938 83.6679,92.1271 77,88.5C 76.6667,88.8333 76.3333,89.1667 76,89.5C 71.7736,87.2782 67.9403,84.6115 64.5,81.5C 65.9778,81.762 67.3112,81.4287 68.5,80.5C 61.6915,78.5953 55.0248,77.0953 48.5,76C 52.1901,72.831 51.1901,71.1644 45.5,71C 47.2556,70.7978 48.9223,70.2978 50.5,69.5C 47.3009,67.4088 43.9676,67.0755 40.5,68.5C 39.5263,66.9147 38.0263,65.9147 36,65.5C 35.8333,65.8333 35.6667,66.1667 35.5,66.5C 36.6016,67.1757 37.6016,67.8423 38.5,68.5C 35.7124,68.8681 33.0457,69.3681 30.5,70C 29.1667,69 29.1667,68 30.5,67C 28.6498,66.3103 27.3164,65.1436 26.5,63.5C 23.2389,62.6222 19.9055,61.9555 16.5,61.5C 15.928,60.0267 15.0946,58.6934 14,57.5C 13.502,60.4816 13.3354,63.4816 13.5,66.5C 8.89438,65.2455 4.22771,64.2455 -0.5,63.5C -0.5,57.1667 -0.5,50.8333 -0.5,44.5 Z"/></g>
<g><path style="opacity:1" fill="#566274" d="M 114.5,28.5 C 130.774,32.9854 147.107,37.3187 163.5,41.5C 163.815,43.2259 163.981,44.8925 164,46.5C 162.887,44.6707 161.387,43.8374 159.5,44C 160.836,47.0062 162.503,49.8396 164.5,52.5C 165.751,55.8741 165.751,59.2074 164.5,62.5C 163.71,61.3915 163.21,60.0581 163,58.5C 162.427,60.6406 161.594,62.6406 160.5,64.5C 158.203,61.1437 155.536,57.977 152.5,55C 150.226,54.5298 148.226,53.5298 146.5,52C 144.323,48.2631 140.99,46.2631 136.5,46C 137.308,45.6924 137.975,45.1924 138.5,44.5C 137.311,43.5713 135.978,43.238 134.5,43.5C 134.649,42.448 134.483,41.448 134,40.5C 132.781,50.0773 131.781,50.4107 131,41.5C 128.274,41.0389 125.441,40.0389 122.5,38.5C 119.508,35.3346 116.842,32.0013 114.5,28.5 Z"/></g>
<g><path style="opacity:1" fill="#c6c1c9" d="M 188.5,13.5 C 188.5,24.1667 188.5,34.8333 188.5,45.5C 193.52,46.2685 198.353,47.6018 203,49.5C 203.5,58.4938 203.666,67.4938 203.5,76.5C 202.523,73.7131 202.19,70.7131 202.5,67.5C 200.585,67.7845 198.919,67.4511 197.5,66.5C 198.833,66.5 200.167,66.5 201.5,66.5C 201.5,64.5 201.5,62.5 201.5,60.5C 200.022,60.762 198.689,60.4287 197.5,59.5C 198.325,58.6143 199.325,58.281 200.5,58.5C 200.66,56.8008 200.494,55.1341 200,53.5C 197.266,52.6383 197.099,51.805 199.5,51C 196.996,50.3024 194.663,49.4691 192.5,48.5C 191.221,47.2264 189.221,46.2264 186.5,45.5C 187.167,34.8333 187.833,24.1667 188.5,13.5 Z"/></g>
<g><path style="opacity:1" fill="#be7671" d="M 116.5,57.5 C 116.802,60.0593 116.468,62.3926 115.5,64.5C 115.846,61.3979 115.179,58.5645 113.5,56C 114,55.5 114.5,55 115,54.5C 115.232,55.7375 115.732,56.7375 116.5,57.5 Z"/></g>
<g><path style="opacity:1" fill="#8d878d" d="M 175.5,44.5 C 178.833,45.5 182.167,46.5 185.5,47.5C 184.737,50.1411 184.57,52.8078 185,55.5C 185.333,54.8333 185.667,54.1667 186,53.5C 187.767,54.8172 189.101,56.4839 190,58.5C 190.333,57.8333 190.667,57.1667 191,56.5C 194.3,58.557 194.133,59.557 190.5,59.5C 190.238,60.9778 190.571,62.3112 191.5,63.5C 194.898,59.8489 196.898,60.8489 197.5,66.5C 198.919,67.4511 200.585,67.7845 202.5,67.5C 202.19,70.7131 202.523,73.7131 203.5,76.5C 203.5,78.5 203.5,80.5 203.5,82.5C 202.076,80.4855 201.41,78.1522 201.5,75.5C 200.5,75.5 199.5,75.5 198.5,75.5C 197.855,78.5468 198.855,80.7135 201.5,82C 200.207,82.49 198.873,82.6567 197.5,82.5C 195.882,74.6252 191.716,68.2919 185,63.5C 184.283,64.0442 183.783,64.7109 183.5,65.5C 182.778,65.0825 182.278,64.4158 182,63.5C 181.825,59.789 181.325,56.1224 180.5,52.5C 179.914,52.2907 179.414,51.9574 179,51.5C 178.667,54.8333 178.333,58.1667 178,61.5C 175.761,62.8692 173.927,62.3692 172.5,60C 175.387,57.1518 176.054,53.9852 174.5,50.5C 175.091,49.8485 175.757,49.1818 176.5,48.5C 175.754,47.2638 175.421,45.9305 175.5,44.5 Z"/></g>
<g><path style="opacity:1" fill="#884848" d="M 16.5,61.5 C 19.9055,61.9555 23.2389,62.6222 26.5,63.5C 26.5299,64.4972 26.0299,65.1639 25,65.5C 23.2108,64.5909 21.3774,64.4242 19.5,65C 22.2442,65.8035 24.9109,66.8035 27.5,68C 25.8659,68.4935 24.1992,68.6602 22.5,68.5C 20.2083,67.6605 17.875,66.6605 15.5,65.5C 16.0253,64.8076 16.6919,64.3076 17.5,64C 16.7476,63.3292 16.4142,62.4959 16.5,61.5 Z"/></g>
<g><path style="opacity:1" fill="#8d9d7f" d="M 40.5,68.5 C 39.8333,68.5 39.1667,68.5 38.5,68.5C 37.6016,67.8423 36.6016,67.1757 35.5,66.5C 35.6667,66.1667 35.8333,65.8333 36,65.5C 38.0263,65.9147 39.5263,66.9147 40.5,68.5 Z"/></g>
<g><path style="opacity:1" fill="#55464a" d="M 26.5,63.5 C 27.3164,65.1436 28.6498,66.3103 30.5,67C 29.1667,68 29.1667,69 30.5,70C 33.0457,69.3681 35.7124,68.8681 38.5,68.5C 39.1667,68.5 39.8333,68.5 40.5,68.5C 43.9676,67.0755 47.3009,67.4088 50.5,69.5C 48.9223,70.2978 47.2556,70.7978 45.5,71C 51.1901,71.1644 52.1901,72.831 48.5,76C 55.0248,77.0953 61.6915,78.5953 68.5,80.5C 67.3112,81.4287 65.9778,81.762 64.5,81.5C 52.1005,78.2558 39.4339,76.0891 26.5,75C 27.9928,76.1562 27.8261,76.9896 26,77.5C 23.536,76.8392 21.036,76.3392 18.5,76C 17.0439,75.5774 16.5439,74.7441 17,73.5C 19.7372,74.6105 22.5706,74.7772 25.5,74C 22.8333,73.3333 20.1667,72.6667 17.5,72C 16.6634,70.9887 16.33,69.8221 16.5,68.5C 18.5,68.5 20.5,68.5 22.5,68.5C 24.1992,68.6602 25.8659,68.4935 27.5,68C 24.9109,66.8035 22.2442,65.8035 19.5,65C 21.3774,64.4242 23.2108,64.5909 25,65.5C 26.0299,65.1639 26.5299,64.4972 26.5,63.5 Z"/></g>
<g><path style="opacity:1" fill="#6f6e74" d="M 203.5,82.5 C 203.5,87.1667 203.5,91.8333 203.5,96.5C 200.941,96.6104 198.608,95.9438 196.5,94.5C 194.358,89.6559 192.525,84.6559 191,79.5C 189.334,76.6688 187.168,74.3355 184.5,72.5C 184.326,70.139 183.993,67.8056 183.5,65.5C 183.783,64.7109 184.283,64.0442 185,63.5C 191.716,68.2919 195.882,74.6252 197.5,82.5C 198.873,82.6567 200.207,82.49 201.5,82C 198.855,80.7135 197.855,78.5468 198.5,75.5C 199.5,75.5 200.5,75.5 201.5,75.5C 201.41,78.1522 202.076,80.4855 203.5,82.5 Z"/></g>
<g><path style="opacity:1" fill="#1b1c25" d="M 84.5,67.5 C 85.9587,67.4326 87.2921,67.7659 88.5,68.5C 89.264,74.3263 90.264,79.993 91.5,85.5C 92.6203,98.1565 93.6203,110.823 94.5,123.5C 94.7399,126.579 94.4066,129.579 93.5,132.5C 91.3835,133.469 89.3835,133.136 87.5,131.5C 87.5,131.167 87.5,130.833 87.5,130.5C 88.4475,129.022 89.7809,128.022 91.5,127.5C 92.7736,126.811 92.7736,125.977 91.5,125C 90.2068,124.51 88.8734,124.343 87.5,124.5C 88.7175,123.839 90.0508,123.172 91.5,122.5C 90.3112,121.571 88.9778,121.238 87.5,121.5C 87.5,120.5 87.5,119.5 87.5,118.5C 88.8333,118.5 90.1667,118.5 91.5,118.5C 91.7451,112.916 91.0784,107.583 89.5,102.5C 89.2857,98.5945 88.6191,94.7611 87.5,91C 87.7392,88.5142 88.0725,86.0142 88.5,83.5C 86.1048,78.4881 84.7715,73.1547 84.5,67.5 Z"/></g>
<g><path style="opacity:1" fill="#4b5262" d="M 88.5,68.5 C 89.1174,68.6107 89.6174,68.944 90,69.5C 90.8303,74.8076 91.3303,80.1409 91.5,85.5C 90.264,79.993 89.264,74.3263 88.5,68.5 Z"/></g>
<g><path style="opacity:1" fill="#63616a" d="M 167.5,59.5 C 167.712,61.3841 168.712,62.7174 170.5,63.5C 169.737,64.7193 168.737,65.7193 167.5,66.5C 170.785,67.3236 174.118,67.8236 177.5,68C 176.087,71.7345 175.087,75.5679 174.5,79.5C 172.958,80.3007 171.292,80.634 169.5,80.5C 169.5,78.8333 169.5,77.1667 169.5,75.5C 164.164,74.1845 161.497,76.1845 161.5,81.5C 160.833,81.5 160.167,81.5 159.5,81.5C 160.148,76.2147 162.148,71.5481 165.5,67.5C 165.294,64.5049 165.96,61.8383 167.5,59.5 Z"/></g>
<g><path style="opacity:1" fill="#3c363a" d="M 16.5,61.5 C 16.4142,62.4959 16.7476,63.3292 17.5,64C 16.6919,64.3076 16.0253,64.8076 15.5,65.5C 17.875,66.6605 20.2083,67.6605 22.5,68.5C 20.5,68.5 18.5,68.5 16.5,68.5C 16.33,69.8221 16.6634,70.9887 17.5,72C 20.1667,72.6667 22.8333,73.3333 25.5,74C 22.5706,74.7772 19.7372,74.6105 17,73.5C 16.5439,74.7441 17.0439,75.5774 18.5,76C 21.036,76.3392 23.536,76.8392 26,77.5C 27.8261,76.9896 27.9928,76.1562 26.5,75C 39.4339,76.0891 52.1005,78.2558 64.5,81.5C 67.9403,84.6115 71.7736,87.2782 76,89.5C 76.3333,89.1667 76.6667,88.8333 77,88.5C 83.6679,92.1271 86.3345,97.7938 85,105.5C 86.3103,104.103 87.8103,103.103 89.5,102.5C 91.0784,107.583 91.7451,112.916 91.5,118.5C 90.1667,118.5 88.8333,118.5 87.5,118.5C 87.5,119.5 87.5,120.5 87.5,121.5C 88.9778,121.238 90.3112,121.571 91.5,122.5C 90.0508,123.172 88.7175,123.839 87.5,124.5C 86.596,125.209 86.2627,126.209 86.5,127.5C 88.1667,127.5 89.8333,127.5 91.5,127.5C 89.7809,128.022 88.4475,129.022 87.5,130.5C 86.5,130.5 85.5,130.5 84.5,130.5C 84.4479,125.519 83.2812,120.852 81,116.5C 81.1554,118.811 81.1554,121.144 81,123.5C 76.6122,126.649 74.6122,125.316 75,119.5C 73.54,123.494 72.3733,123.494 71.5,119.5C 70.8333,119.5 70.5,119.167 70.5,118.5C 71.3718,117.388 71.3718,116.054 70.5,114.5C 68.2445,111.542 66.5778,108.208 65.5,104.5C 64.7174,106.288 63.3841,107.288 61.5,107.5C 61.8379,102.669 59.8379,101.335 55.5,103.5C 55.0874,101.11 54.4207,98.7765 53.5,96.5C 52.5713,97.6888 52.238,99.0222 52.5,100.5C 52.092,102.458 51.7587,104.458 51.5,106.5C 50.7696,104.659 50.1029,102.825 49.5,101C 47.7306,99.9806 46.0639,99.814 44.5,100.5C 42.2811,98.1488 39.6144,97.3155 36.5,98C 38.9621,99.8504 38.4621,101.017 35,101.5C 34.2607,103.221 33.4274,104.887 32.5,106.5C 31.8933,106.376 31.56,106.043 31.5,105.5C 32.8333,103.5 32.8333,101.5 31.5,99.5C 28.3904,98.8721 26.8904,96.8721 27,93.5C 26.5034,95.8098 26.3367,98.1432 26.5,100.5C 27.8333,100.5 29.1667,100.5 30.5,100.5C 30.5,101.167 30.5,101.833 30.5,102.5C 26.7664,102.775 24.7664,100.775 24.5,96.5C 22.1667,97.8333 19.8333,97.8333 17.5,96.5C 19.1251,95.4391 20.4584,93.4391 21.5,90.5C 23.0709,91.3094 24.7376,91.6427 26.5,91.5C 26.5,90.5 26.5,89.5 26.5,88.5C 22.148,86.5144 19.4813,87.8477 18.5,92.5C 17.1667,92.5 15.8333,92.5 14.5,92.5C 14.2291,94.3797 14.8958,95.713 16.5,96.5C 14.0795,98.8776 12.9128,101.878 13,105.5C 10.9447,102.112 9.77806,98.4458 9.5,94.5C 8.5,94.5 7.5,94.5 6.5,94.5C 6.36199,98.2861 5.69532,98.2861 4.5,94.5C 5.16667,94.5 5.5,94.1667 5.5,93.5C 7.32584,91.5449 7.82584,89.2116 7,86.5C 6.78997,88.0581 6.28997,89.3915 5.5,90.5C 5.5,89.5 5.5,88.5 5.5,87.5C 3.54899,87.7733 2.04899,87.1066 1,85.5C 0.333333,87.5 0.333333,89.5 1,91.5C 1.97722,90.2264 2.81056,90.2264 3.5,91.5C 2.53261,92.8062 1.19928,93.4729 -0.5,93.5C -0.5,83.5 -0.5,73.5 -0.5,63.5C 4.22771,64.2455 8.89438,65.2455 13.5,66.5C 13.3354,63.4816 13.502,60.4816 14,57.5C 15.0946,58.6934 15.928,60.0267 16.5,61.5 Z"/></g>
<g><path style="opacity:1" fill="#965051" d="M 38.5,81.5 C 36.4017,82.9143 35.4017,82.2476 35.5,79.5C 37.1788,79.2852 38.1788,79.9519 38.5,81.5 Z"/></g>
<g><path style="opacity:1" fill="#965451" d="M 38.5,81.5 C 40.3904,81.7035 41.8904,81.0368 43,79.5C 45.0714,81.4547 45.7381,83.788 45,86.5C 44.1376,84.913 43.4709,83.2464 43,81.5C 41.3111,84.1331 39.8111,84.1331 38.5,81.5 Z"/></g>
<g><path style="opacity:1" fill="#393f4f" d="M 174.5,79.5 C 174.5,80.5 174.5,81.5 174.5,82.5C 173.957,82.56 173.624,82.8933 173.5,83.5C 174.602,84.1757 175.602,84.8423 176.5,85.5C 170.806,86.3276 165.806,84.9943 161.5,81.5C 161.497,76.1845 164.164,74.1845 169.5,75.5C 169.5,77.1667 169.5,78.8333 169.5,80.5C 171.292,80.634 172.958,80.3007 174.5,79.5 Z"/></g>
<g><path style="opacity:1" fill="#e1b7ac" d="M 174.5,50.5 C 176.054,53.9852 175.387,57.1518 172.5,60C 173.927,62.3692 175.761,62.8692 178,61.5C 178.333,58.1667 178.667,54.8333 179,51.5C 179.414,51.9574 179.914,52.2907 180.5,52.5C 181.325,56.1224 181.825,59.789 182,63.5C 182.278,64.4158 182.778,65.0825 183.5,65.5C 183.993,67.8056 184.326,70.139 184.5,72.5C 187.139,76.7895 188.973,81.4562 190,86.5C 190.674,88.5165 191.841,90.1832 193.5,91.5C 193.137,92.1835 192.804,92.8501 192.5,93.5C 190.926,93.0629 189.759,92.0629 189,90.5C 188.489,88.1218 187.822,85.7885 187,83.5C 185.301,84.4061 183.467,84.7394 181.5,84.5C 180.867,79.6398 179.867,74.9731 178.5,70.5C 177.746,74.7602 176.746,79.0935 175.5,83.5C 174.893,83.3764 174.56,83.0431 174.5,82.5C 174.5,81.5 174.5,80.5 174.5,79.5C 175.087,75.5679 176.087,71.7345 177.5,68C 174.118,67.8236 170.785,67.3236 167.5,66.5C 168.737,65.7193 169.737,64.7193 170.5,63.5C 168.712,62.7174 167.712,61.3841 167.5,59.5C 166.677,57.5454 166.51,55.5454 167,53.5C 167.605,55.4812 168.605,55.8146 170,54.5C 170.333,56.1667 170.667,57.8333 171,59.5C 173.833,57.1638 175,54.1638 174.5,50.5 Z"/></g>
<g><path style="opacity:1" fill="#856b6b" d="M 178.5,70.5 C 178.666,74.8461 178.499,79.1794 178,83.5C 177.722,84.4158 177.222,85.0825 176.5,85.5C 175.602,84.8423 174.602,84.1757 173.5,83.5C 173.624,82.8933 173.957,82.56 174.5,82.5C 174.56,83.0431 174.893,83.3764 175.5,83.5C 176.746,79.0935 177.746,74.7602 178.5,70.5 Z"/></g>
<g><path style="opacity:1" fill="#e7e2de" d="M 282.5,61.5 C 283.167,65.5 283.833,69.5 284.5,73.5C 285.097,74.1386 285.93,74.472 287,74.5C 291.151,73.6692 295.317,73.0026 299.5,72.5C 299.5,79.8333 299.5,87.1667 299.5,94.5C 294.985,92.3806 291.985,93.7139 290.5,98.5C 288.792,99.9918 287.125,100.325 285.5,99.5C 286.962,98.5423 288.295,97.3756 289.5,96C 268.49,96.4391 247.49,97.4391 226.5,99C 231.5,99.3333 236.5,99.6667 241.5,100C 240.584,100.278 239.918,100.778 239.5,101.5C 230.542,101.44 221.542,100.773 212.5,99.5C 210.833,99.5 209.167,99.5 207.5,99.5C 204.058,98.2521 200.392,97.4188 196.5,97C 195.295,95.6244 193.962,94.4577 192.5,93.5C 192.804,92.8501 193.137,92.1835 193.5,91.5C 191.841,90.1832 190.674,88.5165 190,86.5C 188.973,81.4562 187.139,76.7895 184.5,72.5C 187.168,74.3355 189.334,76.6688 191,79.5C 192.525,84.6559 194.358,89.6559 196.5,94.5C 198.608,95.9438 200.941,96.6104 203.5,96.5C 203.5,91.8333 203.5,87.1667 203.5,82.5C 212.514,81.9988 221.514,81.3321 230.5,80.5C 232.735,80.7947 234.735,80.4614 236.5,79.5C 251.871,78.0963 267.205,76.4296 282.5,74.5C 282.5,70.1667 282.5,65.8333 282.5,61.5 Z"/></g>
<g><path style="opacity:1" fill="#4b4d58" d="M 101.5,39.5 C 100.87,56.7381 101.536,73.7381 103.5,90.5C 102.387,91.9464 102.22,93.6131 103,95.5C 103.414,95.0426 103.914,94.7093 104.5,94.5C 105.841,99.009 108.841,101.509 113.5,102C 115.55,105.687 118.883,108.687 123.5,111C 117.843,111.499 112.176,111.666 106.5,111.5C 106.665,108.482 106.498,105.482 106,102.5C 104.989,101.663 103.822,101.33 102.5,101.5C 101.376,104.087 101.042,110.087 101.5,119.5C 113.012,119.172 124.346,119.505 135.5,120.5C 123.5,120.5 111.5,120.5 99.5,120.5C 99.2948,93.3181 99.9615,66.3181 101.5,39.5 Z"/></g>
<g><path style="opacity:1" fill="#38404d" d="M 103.5,22.5 C 104.167,22.5 104.833,22.5 105.5,22.5C 105.5,23.1667 105.167,23.5 104.5,23.5C 103.167,23.5 102.5,24.1667 102.5,25.5C 102.5,38.1667 102.5,50.8333 102.5,63.5C 103.5,63.5 104.5,63.5 105.5,63.5C 105.5,65.5 105.5,67.5 105.5,69.5C 109.534,69.5045 113.534,69.8379 117.5,70.5C 117.198,73.0593 117.532,75.3926 118.5,77.5C 119.167,80.8333 119.833,84.1667 120.5,87.5C 121.678,90.2165 122.678,90.5499 123.5,88.5C 124.117,88.3893 124.617,88.056 125,87.5C 125.49,88.7932 125.657,90.1266 125.5,91.5C 126.066,95.8057 126.732,96.139 127.5,92.5C 129.216,92.3713 130.883,92.038 132.5,91.5C 132.562,94.753 133.396,97.753 135,100.5C 135.388,95.3903 134.888,90.3903 133.5,85.5C 133.334,76.4938 133.5,67.4938 134,58.5C 135.693,60.6035 137.86,62.1035 140.5,63C 140.167,63.3333 139.833,63.6667 139.5,64C 141.081,64.7065 142.581,65.5399 144,66.5C 144.333,66.1667 144.667,65.8333 145,65.5C 145.419,66.6721 146.085,67.6721 147,68.5C 147.667,65.8333 148.333,65.8333 149,68.5C 151.498,69.1212 153.832,68.4545 156,66.5C 158.245,67.7946 159.745,67.128 160.5,64.5C 161.594,62.6406 162.427,60.6406 163,58.5C 163.21,60.0581 163.71,61.3915 164.5,62.5C 164.216,64.4147 164.549,66.0813 165.5,67.5C 162.148,71.5481 160.148,76.2147 159.5,81.5C 156.99,81.0535 154.99,81.7202 153.5,83.5C 153.167,83.5 152.833,83.5 152.5,83.5C 151.527,84.7914 150.527,84.7914 149.5,83.5C 148.515,85.772 147.681,88.1053 147,90.5C 146.667,89.8333 146.333,89.1667 146,88.5C 145.059,93.9638 143.726,97.9638 142,100.5C 141.667,98.1667 141.333,95.8333 141,93.5C 140.304,97.9054 140.637,102.239 142,106.5C 142.333,104.833 142.667,103.167 143,101.5C 143.414,101.957 143.914,102.291 144.5,102.5C 145.119,99.9682 146.119,97.6349 147.5,95.5C 147.069,94.7065 146.735,93.8732 146.5,93C 148.242,90.7751 149.409,88.2751 150,85.5C 150.333,87.5 150.667,89.5 151,91.5C 151.383,92.056 151.883,92.3893 152.5,92.5C 148.838,94.3149 147.838,97.1483 149.5,101C 148.884,103.179 147.717,105.012 146,106.5C 145.51,107.793 145.343,109.127 145.5,110.5C 143.821,110.285 142.821,110.952 142.5,112.5C 138.818,112.665 135.152,112.499 131.5,112C 128.863,109.878 125.863,108.545 122.5,108C 116.224,101.882 109.891,96.0491 103.5,90.5C 101.536,73.7381 100.87,56.7381 101.5,39.5C 100.883,33.4018 101.55,27.7351 103.5,22.5 Z"/></g>
<g><path style="opacity:1" fill="#9c605d" d="M 121.5,80.5 C 121.802,83.0593 121.468,85.3926 120.5,87.5C 119.833,84.1667 119.167,80.8333 118.5,77.5C 118.337,75.1432 118.503,72.8098 119,70.5C 119.311,74.0899 120.144,77.4233 121.5,80.5 Z"/></g>
<g><path style="opacity:1" fill="#a79495" d="M 123.5,88.5 C 122.678,90.5499 121.678,90.2165 120.5,87.5C 121.468,85.3926 121.802,83.0593 121.5,80.5C 122.504,79.3172 123.338,77.9839 124,76.5C 125.368,79.7383 125.701,83.0717 125,86.5C 124.667,85.1667 124.333,83.8333 124,82.5C 123.505,84.4727 123.338,86.4727 123.5,88.5 Z"/></g>
<g><path style="opacity:1" fill="#deac9a" d="M 178.5,70.5 C 179.867,74.9731 180.867,79.6398 181.5,84.5C 183.467,84.7394 185.301,84.4061 187,83.5C 187.822,85.7885 188.489,88.1218 189,90.5C 189.759,92.0629 190.926,93.0629 192.5,93.5C 193.962,94.4577 195.295,95.6244 196.5,97C 200.392,97.4188 204.058,98.2521 207.5,99.5C 202.821,99.6658 198.155,99.4992 193.5,99C 194.821,97.4555 194.488,96.2888 192.5,95.5C 191.672,96.4147 190.672,97.0814 189.5,97.5C 184.731,96.868 180.065,95.868 175.5,94.5C 173.616,93.6184 172.283,92.1184 171.5,90C 166.073,87.3931 160.406,85.5598 154.5,84.5C 153.833,84.5 153.5,84.1667 153.5,83.5C 154.99,81.7202 156.99,81.0535 159.5,81.5C 160.167,81.5 160.833,81.5 161.5,81.5C 165.806,84.9943 170.806,86.3276 176.5,85.5C 177.222,85.0825 177.722,84.4158 178,83.5C 178.499,79.1794 178.666,74.8461 178.5,70.5 Z"/></g>
<g><path style="opacity:1" fill="#697264" d="M 34.5,83.5 C 35.7479,84.3339 36.4146,85.6672 36.5,87.5C 36.5637,89.3893 36.0637,91.0559 35,92.5C 34.502,89.5184 34.3354,86.5184 34.5,83.5 Z"/></g>
<g><path style="opacity:1" fill="#c36857" d="M 5.5,90.5 C 5.5,91.5 5.5,92.5 5.5,93.5C 5.5,94.1667 5.16667,94.5 4.5,94.5C 3.59603,93.791 3.26269,92.791 3.5,91.5C 2.81056,90.2264 1.97722,90.2264 1,91.5C 0.333333,89.5 0.333333,87.5 1,85.5C 2.04899,87.1066 3.54899,87.7733 5.5,87.5C 5.5,88.5 5.5,89.5 5.5,90.5 Z"/></g>
<g><path style="opacity:1" fill="#86947c" d="M 5.5,93.5 C 5.5,92.5 5.5,91.5 5.5,90.5C 6.28997,89.3915 6.78997,88.0581 7,86.5C 7.82584,89.2116 7.32584,91.5449 5.5,93.5 Z"/></g>
<g><path style="opacity:1" fill="#70564f" d="M 17.5,96.5 C 17.1667,96.5 16.8333,96.5 16.5,96.5C 14.8958,95.713 14.2291,94.3797 14.5,92.5C 15.8333,92.5 17.1667,92.5 18.5,92.5C 19.4813,87.8477 22.148,86.5144 26.5,88.5C 26.5,89.5 26.5,90.5 26.5,91.5C 24.7376,91.6427 23.0709,91.3094 21.5,90.5C 20.4584,93.4391 19.1251,95.4391 17.5,96.5 Z"/></g>
<g><path style="opacity:1" fill="#d66b5c" d="M 127.5,92.5 C 126.732,96.139 126.066,95.8057 125.5,91.5C 126.925,89.9689 127.591,90.3023 127.5,92.5 Z"/></g>
<g><path style="opacity:1" fill="#966b6b" d="M 131.5,85.5 C 132.167,85.5 132.833,85.5 133.5,85.5C 134.888,90.3903 135.388,95.3903 135,100.5C 133.396,97.753 132.562,94.753 132.5,91.5C 132.349,88.2819 131.516,87.9485 130,90.5C 127.662,87.8601 128.162,86.1935 131.5,85.5 Z"/></g>
<g><path style="opacity:1" fill="#9d8484" d="M 152.5,83.5 C 152.108,86.3243 152.108,89.3243 152.5,92.5C 151.883,92.3893 151.383,92.056 151,91.5C 150.667,89.5 150.333,87.5 150,85.5C 149.409,88.2751 148.242,90.7751 146.5,93C 146.735,93.8732 147.069,94.7065 147.5,95.5C 146.119,97.6349 145.119,99.9682 144.5,102.5C 143.914,102.291 143.414,101.957 143,101.5C 142.667,103.167 142.333,104.833 142,106.5C 140.637,102.239 140.304,97.9054 141,93.5C 141.333,95.8333 141.667,98.1667 142,100.5C 143.726,97.9638 145.059,93.9638 146,88.5C 146.333,89.1667 146.667,89.8333 147,90.5C 147.681,88.1053 148.515,85.772 149.5,83.5C 150.527,84.7914 151.527,84.7914 152.5,83.5 Z"/></g>
<g><path style="opacity:1" fill="#d7c8b8" d="M 285.5,99.5 C 276.994,98.4451 268.327,98.4451 259.5,99.5C 255.019,98.3516 250.352,98.1849 245.5,99C 247.833,99.3333 250.167,99.6667 252.5,100C 252.167,100.333 251.833,100.667 251.5,101C 247.514,101.499 243.514,101.666 239.5,101.5C 239.918,100.778 240.584,100.278 241.5,100C 236.5,99.6667 231.5,99.3333 226.5,99C 247.49,97.4391 268.49,96.4391 289.5,96C 288.295,97.3756 286.962,98.5423 285.5,99.5 Z"/></g>
<g><path style="opacity:1" fill="#b8504a" d="M 47.5,92.5 C 48.2829,94.3432 48.9495,96.3432 49.5,98.5C 49.1667,98.8333 48.8333,99.1667 48.5,99.5C 47.5258,97.2573 47.1924,94.924 47.5,92.5 Z"/></g>
<g><path style="opacity:1" fill="#6d798e" d="M 103.5,90.5 C 109.891,96.0491 116.224,101.882 122.5,108C 125.863,108.545 128.863,109.878 131.5,112C 135.152,112.499 138.818,112.665 142.5,112.5C 147.833,112.5 153.167,112.5 158.5,112.5C 162.182,112.335 165.848,112.501 169.5,113C 166.711,113.125 165.045,113.958 164.5,115.5C 162.603,114.195 160.269,113.529 157.5,113.5C 154.713,113.574 152.213,114.24 150,115.5C 147.617,114.234 144.95,113.568 142,113.5C 138.965,113.609 136.131,114.276 133.5,115.5C 127.785,113.035 121.785,112.201 115.5,113C 116.888,113.889 116.722,114.389 115,114.5C 111.575,113.166 108.742,112.166 106.5,111.5C 112.176,111.666 117.843,111.499 123.5,111C 118.883,108.687 115.55,105.687 113.5,102C 108.841,101.509 105.841,99.009 104.5,94.5C 103.914,94.7093 103.414,95.0426 103,95.5C 102.22,93.6131 102.387,91.9464 103.5,90.5 Z"/></g>
<g><path style="opacity:1" fill="#242b38" d="M 152.5,83.5 C 152.833,83.5 153.167,83.5 153.5,83.5C 153.5,84.1667 153.833,84.5 154.5,84.5C 155.143,87.1982 155.976,89.8649 157,92.5C 157.667,88.5 158.333,88.5 159,92.5C 159.49,91.2068 159.657,89.8734 159.5,88.5C 162.241,88.7073 164.574,89.7073 166.5,91.5C 165.997,95.6825 165.331,99.8492 164.5,104C 162.301,106.698 160.301,109.532 158.5,112.5C 153.167,112.5 147.833,112.5 142.5,112.5C 142.821,110.952 143.821,110.285 145.5,110.5C 145.343,109.127 145.51,107.793 146,106.5C 147.717,105.012 148.884,103.179 149.5,101C 147.838,97.1483 148.838,94.3149 152.5,92.5C 152.108,89.3243 152.108,86.3243 152.5,83.5 Z"/></g>
<g><path style="opacity:1" fill="#aa7c66" d="M 31.5,99.5 C 30.8333,99.5 30.5,99.8333 30.5,100.5C 29.1667,100.5 27.8333,100.5 26.5,100.5C 26.3367,98.1432 26.5034,95.8098 27,93.5C 26.8904,96.8721 28.3904,98.8721 31.5,99.5 Z"/></g>
<g><path style="opacity:1" fill="#a7827b" d="M 154.5,84.5 C 160.406,85.5598 166.073,87.3931 171.5,90C 172.283,92.1184 173.616,93.6184 175.5,94.5C 181.098,96.9809 186.098,100.481 190.5,105C 195.959,105.176 201.126,106.342 206,108.5C 207.787,108.241 209.287,107.575 210.5,106.5C 210.5,109.833 210.5,113.167 210.5,116.5C 208.435,116.517 206.435,116.85 204.5,117.5C 204.714,115.856 204.38,114.356 203.5,113C 195.453,110.475 187.786,107.141 180.5,103C 176.833,100.667 173.833,97.6667 171.5,94C 169.922,92.9055 168.255,92.0722 166.5,91.5C 164.574,89.7073 162.241,88.7073 159.5,88.5C 159.657,89.8734 159.49,91.2068 159,92.5C 158.333,88.5 157.667,88.5 157,92.5C 155.976,89.8649 155.143,87.1982 154.5,84.5 Z"/></g>
<g><path style="opacity:1" fill="#9e816a" d="M 285.5,99.5 C 283.901,99.2322 282.568,99.5655 281.5,100.5C 273.913,101.631 266.246,101.798 258.5,101C 257.288,99.8932 257.621,99.3932 259.5,99.5C 268.327,98.4451 276.994,98.4451 285.5,99.5 Z"/></g>
<g><path style="opacity:1" fill="#ca9783" d="M 175.5,94.5 C 180.065,95.868 184.731,96.868 189.5,97.5C 190.672,97.0814 191.672,96.4147 192.5,95.5C 194.488,96.2888 194.821,97.4555 193.5,99C 198.155,99.4992 202.821,99.6658 207.5,99.5C 209.167,99.5 210.833,99.5 212.5,99.5C 212.233,101.965 211.566,104.299 210.5,106.5C 209.287,107.575 207.787,108.241 206,108.5C 201.126,106.342 195.959,105.176 190.5,105C 186.098,100.481 181.098,96.9809 175.5,94.5 Z"/></g>
<g><path style="opacity:1" fill="#353e49" d="M 166.5,91.5 C 168.255,92.0722 169.922,92.9055 171.5,94C 173.833,97.6667 176.833,100.667 180.5,103C 187.786,107.141 195.453,110.475 203.5,113C 204.38,114.356 204.714,115.856 204.5,117.5C 203.5,118.833 202.5,120.167 201.5,121.5C 197.285,119.564 192.619,118.897 187.5,119.5C 176.714,117.819 165.714,116.652 154.5,116C 157.817,115.502 161.15,115.335 164.5,115.5C 165.045,113.958 166.711,113.125 169.5,113C 165.848,112.501 162.182,112.335 158.5,112.5C 160.301,109.532 162.301,106.698 164.5,104C 165.331,99.8492 165.997,95.6825 166.5,91.5 Z"/></g>
<g><path style="opacity:1" fill="#2e2a2e" d="M 3.5,91.5 C 3.26269,92.791 3.59603,93.791 4.5,94.5C 5.69532,98.2861 6.36199,98.2861 6.5,94.5C 7.5,94.5 8.5,94.5 9.5,94.5C 9.77806,98.4458 10.9447,102.112 13,105.5C 12.9128,101.878 14.0795,98.8776 16.5,96.5C 16.8333,96.5 17.1667,96.5 17.5,96.5C 19.8333,97.8333 22.1667,97.8333 24.5,96.5C 24.7664,100.775 26.7664,102.775 30.5,102.5C 30.2627,103.791 30.596,104.791 31.5,105.5C 31.56,106.043 31.8933,106.376 32.5,106.5C 33.4274,104.887 34.2607,103.221 35,101.5C 38.4621,101.017 38.9621,99.8504 36.5,98C 39.6144,97.3155 42.2811,98.1488 44.5,100.5C 46.0639,99.814 47.7306,99.9806 49.5,101C 50.1029,102.825 50.7696,104.659 51.5,106.5C 51.7587,104.458 52.092,102.458 52.5,100.5C 53.6663,104.124 54.9996,107.79 56.5,111.5C 57.4781,108.732 57.1447,106.066 55.5,103.5C 59.8379,101.335 61.8379,102.669 61.5,107.5C 61.369,108.239 61.5357,108.906 62,109.5C 63.2988,109.034 64.7988,109.034 66.5,109.5C 66.687,111.564 67.187,113.564 68,115.5C 68.3333,115.167 68.6667,114.833 69,114.5C 69.21,116.058 69.71,117.391 70.5,118.5C 70.5,119.167 70.8333,119.5 71.5,119.5C 71.6265,121.915 71.7932,124.249 72,126.5C 68.0307,127.878 64.1974,129.544 60.5,131.5C 54.0063,129.496 47.3396,127.996 40.5,127C 31.6887,122.339 23.022,117.506 14.5,112.5C 12.3157,111.734 9.98234,111.067 7.5,110.5C 5.82697,114.827 7.16031,116.16 11.5,114.5C 13.1287,117.266 13.7954,120.266 13.5,123.5C 10.1667,123.5 6.83333,123.5 3.5,123.5C 3.47186,118.862 4.13852,114.362 5.5,110C 3.40239,109.322 1.40239,109.489 -0.5,110.5C -0.5,104.833 -0.5,99.1667 -0.5,93.5C 1.19928,93.4729 2.53261,92.8062 3.5,91.5 Z"/></g>
<g><path style="opacity:1" fill="#a85449" d="M 31.5,99.5 C 32.8333,101.5 32.8333,103.5 31.5,105.5C 30.596,104.791 30.2627,103.791 30.5,102.5C 30.5,101.833 30.5,101.167 30.5,100.5C 30.5,99.8333 30.8333,99.5 31.5,99.5 Z"/></g>
<g><path style="opacity:1" fill="#7b3f3d" d="M 55.5,103.5 C 57.1447,106.066 57.4781,108.732 56.5,111.5C 54.9996,107.79 53.6663,104.124 52.5,100.5C 52.238,99.0222 52.5713,97.6888 53.5,96.5C 54.4207,98.7765 55.0874,101.11 55.5,103.5 Z"/></g>
<g><path style="opacity:1" fill="#9b9da3" d="M 138.5,98.5 C 139.728,102.723 139.561,107.056 138,111.5C 136.876,108.558 136.542,105.558 137,102.5C 137.333,103.5 137.667,104.5 138,105.5C 138.497,103.19 138.663,100.857 138.5,98.5 Z"/></g>
<g><path style="opacity:1" fill="#694340" d="M 70.5,118.5 C 69.71,117.391 69.21,116.058 69,114.5C 68.6667,114.833 68.3333,115.167 68,115.5C 67.187,113.564 66.687,111.564 66.5,109.5C 64.7988,109.034 63.2988,109.034 62,109.5C 61.5357,108.906 61.369,108.239 61.5,107.5C 63.3841,107.288 64.7174,106.288 65.5,104.5C 66.5778,108.208 68.2445,111.542 70.5,114.5C 71.3718,116.054 71.3718,117.388 70.5,118.5 Z"/></g>
<g><path style="opacity:1" fill="#d0c5c7" d="M 259.5,99.5 C 257.621,99.3932 257.288,99.8932 258.5,101C 266.246,101.798 273.913,101.631 281.5,100.5C 282.239,100.369 282.906,100.536 283.5,101C 282.167,102 282.167,103 283.5,104C 280.867,103.747 278.2,103.747 275.5,104C 274.44,106.737 273.606,109.57 273,112.5C 270.419,111.167 268.252,109.334 266.5,107C 265.207,106.51 263.873,106.343 262.5,106.5C 262.662,108.527 262.495,110.527 262,112.5C 260.989,113.337 259.822,113.67 258.5,113.5C 258.649,114.552 258.483,115.552 258,116.5C 255.636,113.283 253.969,113.283 253,116.5C 252.667,115.833 252.333,115.167 252,114.5C 251.505,116.473 251.338,118.473 251.5,120.5C 254.167,120.5 256.833,120.5 259.5,120.5C 250.046,120.25 241.046,122.417 232.5,127C 228.472,127.392 224.472,127.892 220.5,128.5C 220.347,122.677 217.347,119.344 211.5,118.5C 211.167,117.833 210.833,117.167 210.5,116.5C 210.5,113.167 210.5,109.833 210.5,106.5C 211.566,104.299 212.233,101.965 212.5,99.5C 221.542,100.773 230.542,101.44 239.5,101.5C 243.514,101.666 247.514,101.499 251.5,101C 251.833,100.667 252.167,100.333 252.5,100C 250.167,99.6667 247.833,99.3333 245.5,99C 250.352,98.1849 255.019,98.3516 259.5,99.5 Z"/></g>
<g><path style="opacity:1" fill="#c0b4b7" d="M 299.5,94.5 C 299.5,100.5 299.5,106.5 299.5,112.5C 293.32,112.467 287.654,113.967 282.5,117C 274.525,116.745 266.859,117.912 259.5,120.5C 256.833,120.5 254.167,120.5 251.5,120.5C 251.338,118.473 251.505,116.473 252,114.5C 252.333,115.167 252.667,115.833 253,116.5C 253.969,113.283 255.636,113.283 258,116.5C 258.483,115.552 258.649,114.552 258.5,113.5C 259.822,113.67 260.989,113.337 262,112.5C 262.495,110.527 262.662,108.527 262.5,106.5C 263.873,106.343 265.207,106.51 266.5,107C 268.252,109.334 270.419,111.167 273,112.5C 273.606,109.57 274.44,106.737 275.5,104C 278.2,103.747 280.867,103.747 283.5,104C 282.167,103 282.167,102 283.5,101C 282.906,100.536 282.239,100.369 281.5,100.5C 282.568,99.5655 283.901,99.2322 285.5,99.5C 287.125,100.325 288.792,99.9918 290.5,98.5C 291.985,93.7139 294.985,92.3806 299.5,94.5 Z"/></g>
<g><path style="opacity:1" fill="#2f313e" d="M 106.5,111.5 C 108.742,112.166 111.575,113.166 115,114.5C 116.722,114.389 116.888,113.889 115.5,113C 121.785,112.201 127.785,113.035 133.5,115.5C 136.131,114.276 138.965,113.609 142,113.5C 144.95,113.568 147.617,114.234 150,115.5C 152.213,114.24 154.713,113.574 157.5,113.5C 160.269,113.529 162.603,114.195 164.5,115.5C 161.15,115.335 157.817,115.502 154.5,116C 165.714,116.652 176.714,117.819 187.5,119.5C 184.167,119.5 180.833,119.5 177.5,119.5C 167.5,119.5 157.5,119.5 147.5,119.5C 146.833,119.833 146.167,120.167 145.5,120.5C 142.167,120.5 138.833,120.5 135.5,120.5C 124.346,119.505 113.012,119.172 101.5,119.5C 101.042,110.087 101.376,104.087 102.5,101.5C 103.822,101.33 104.989,101.663 106,102.5C 106.498,105.482 106.665,108.482 106.5,111.5 Z"/></g>
<g><path style="opacity:1" fill="#57535d" d="M 14.5,112.5 C 13.9569,112.56 13.6236,112.893 13.5,113.5C 14.154,115.115 14.654,116.782 15,118.5C 15.3826,117.944 15.8826,117.611 16.5,117.5C 17.7633,122.049 18.43,126.716 18.5,131.5C 22.8333,131.5 27.1667,131.5 31.5,131.5C 36.3054,132.487 41.3054,132.821 46.5,132.5C 47.8499,133.824 47.6833,134.824 46,135.5C 39.6667,132.833 33.3333,132.833 27,135.5C 25.6998,134.293 24.1998,133.626 22.5,133.5C 21.1667,133.5 19.8333,133.5 18.5,133.5C 15.5,133.5 12.5,133.5 9.5,133.5C 9.75249,136.32 9.25249,138.986 8,141.5C 6.89037,143.037 5.39037,143.703 3.5,143.5C 3.5,141.167 3.5,138.833 3.5,136.5C 2.5,136.5 1.5,136.5 0.5,136.5C 0.737305,135.209 0.403972,134.209 -0.5,133.5C -0.5,125.833 -0.5,118.167 -0.5,110.5C 1.40239,109.489 3.40239,109.322 5.5,110C 4.13852,114.362 3.47186,118.862 3.5,123.5C 6.83333,123.5 10.1667,123.5 13.5,123.5C 13.7954,120.266 13.1287,117.266 11.5,114.5C 7.16031,116.16 5.82697,114.827 7.5,110.5C 9.98234,111.067 12.3157,111.734 14.5,112.5 Z"/></g>
<g><path style="opacity:1" fill="#a76753" d="M 57.5,115.5 C 58.452,116.452 59.452,117.452 60.5,118.5C 59.4783,119.354 58.6449,120.354 58,121.5C 57.5045,119.527 57.3379,117.527 57.5,115.5 Z"/></g>
<g><path style="opacity:1" fill="#8a8e9a" d="M 147.5,119.5 C 157.5,119.5 167.5,119.5 177.5,119.5C 173.804,120.139 170.137,121.139 166.5,122.5C 166.611,121.883 166.944,121.383 167.5,121C 163.179,120.501 158.846,120.334 154.5,120.5C 154.5,122.167 154.5,123.833 154.5,125.5C 152.766,122.8 150.432,120.8 147.5,119.5 Z"/></g>
<g><path style="opacity:1" fill="#dee3eb" d="M 50.5,40.5 C 51.7037,44.0493 53.537,44.716 56,42.5C 57.0029,45.1562 58.6696,46.1562 61,45.5C 61.7724,46.8491 62.9391,47.6824 64.5,48C 64.0426,48.414 63.7093,48.914 63.5,49.5C 64.7185,49.109 65.5518,49.7756 66,51.5C 66.5194,50.4844 67.3527,49.8178 68.5,49.5C 71.7046,51.5545 73.538,54.5545 74,58.5C 74.3333,58.1667 74.6667,57.8333 75,57.5C 78.767,61.007 82.6003,63.8403 86.5,66C 88.8884,66.3034 91.0551,67.1367 93,68.5C 95.043,67.4206 96.3763,65.754 97,63.5C 97.3826,64.056 97.8826,64.3893 98.5,64.5C 98.1698,83.3408 98.5031,102.007 99.5,120.5C 113.99,121.496 128.657,121.829 143.5,121.5C 142.496,126.516 141.33,131.516 140,136.5C 138.301,137.406 136.467,137.739 134.5,137.5C 134.083,136.876 133.416,136.543 132.5,136.5C 129.068,136.658 126.401,137.992 124.5,140.5C 123.711,140.783 123.044,141.283 122.5,142C 123.085,143.302 123.751,144.469 124.5,145.5C 127.167,145.5 129.833,145.5 132.5,145.5C 120.388,147.553 108.054,148.887 95.5,149.5C 96.6624,145.02 96.6624,140.687 95.5,136.5C 95.8182,131.968 95.4849,127.634 94.5,123.5C 93.6203,110.823 92.6203,98.1565 91.5,85.5C 91.3303,80.1409 90.8303,74.8076 90,69.5C 89.6174,68.944 89.1174,68.6107 88.5,68.5C 87.2921,67.7659 85.9587,67.4326 84.5,67.5C 75.1082,65.036 65.7749,62.3694 56.5,59.5C 56.9175,58.7784 57.5842,58.2784 58.5,58C 57.7801,55.8777 56.6134,55.3777 55,56.5C 52.9219,53.6455 50.7552,53.3122 48.5,55.5C 48.21,51.767 46.5433,48.9337 43.5,47C 43.5335,44.7336 43.5335,42.567 43.5,40.5C 45.998,39.9182 48.3313,39.9182 50.5,40.5 Z"/></g>
<g><path style="opacity:1" fill="#2c2f3c" d="M 210.5,116.5 C 210.833,117.167 211.167,117.833 211.5,118.5C 212.116,120.417 213.45,121.584 215.5,122C 214.167,123.667 214.167,125.333 215.5,127C 210.845,127.499 206.179,127.666 201.5,127.5C 201.5,125.5 201.5,123.5 201.5,121.5C 202.5,120.167 203.5,118.833 204.5,117.5C 206.435,116.85 208.435,116.517 210.5,116.5 Z"/></g>
<g><path style="opacity:1" fill="#474148" d="M 16.5,117.5 C 18.045,118.23 18.8784,119.563 19,121.5C 19.7387,120.426 20.7387,119.759 22,119.5C 24.4404,121.474 26.9404,123.141 29.5,124.5C 29.1005,127.761 30.2671,128.428 33,126.5C 37.5195,129.8 42.6861,131.3 48.5,131C 42.8431,131.499 37.1764,131.666 31.5,131.5C 27.1667,131.5 22.8333,131.5 18.5,131.5C 18.43,126.716 17.7633,122.049 16.5,117.5 Z"/></g>
<g><path style="opacity:1" fill="#eaeaf1" d="M 299.5,112.5 C 299.5,113.833 299.5,115.167 299.5,116.5C 295.833,117.167 292.167,117.833 288.5,118.5C 290.619,123.697 288.953,126.697 283.5,127.5C 281.315,127.704 279.315,128.37 277.5,129.5C 275.533,129.261 273.699,129.594 272,130.5C 270.86,126.611 271.693,123.278 274.5,120.5C 271.894,119.348 269.227,119.182 266.5,120C 262.966,122.677 258.966,123.844 254.5,123.5C 245.711,122.863 237.711,125.03 230.5,130C 228.616,131.049 227.282,132.549 226.5,134.5C 223.592,135.569 220.592,135.736 217.5,135C 216.244,134.583 215.577,133.75 215.5,132.5C 216.043,132.44 216.376,132.107 216.5,131.5C 211.276,130.919 206.276,129.919 201.5,128.5C 207.881,129.11 214.215,129.11 220.5,128.5C 224.472,127.892 228.472,127.392 232.5,127C 241.046,122.417 250.046,120.25 259.5,120.5C 266.859,117.912 274.525,116.745 282.5,117C 287.654,113.967 293.32,112.467 299.5,112.5 Z"/></g>
<g><path style="opacity:1" fill="#beb2b6" d="M 254.5,123.5 C 257.259,123.933 258.592,125.6 258.5,128.5C 247.85,129.46 237.516,131.794 227.5,135.5C 226.893,135.376 226.56,135.043 226.5,134.5C 227.282,132.549 228.616,131.049 230.5,130C 237.711,125.03 245.711,122.863 254.5,123.5 Z"/></g>
<g><path style="opacity:1" fill="#984046" d="M 87.5,124.5 C 88.8734,124.343 90.2068,124.51 91.5,125C 92.7736,125.977 92.7736,126.811 91.5,127.5C 89.8333,127.5 88.1667,127.5 86.5,127.5C 86.2627,126.209 86.596,125.209 87.5,124.5 Z"/></g>
<g><path style="opacity:1" fill="#464857" d="M 211.5,118.5 C 217.347,119.344 220.347,122.677 220.5,128.5C 214.215,129.11 207.881,129.11 201.5,128.5C 201.5,128.167 201.5,127.833 201.5,127.5C 206.179,127.666 210.845,127.499 215.5,127C 214.167,125.333 214.167,123.667 215.5,122C 213.45,121.584 212.116,120.417 211.5,118.5 Z"/></g>
<g><path style="opacity:1" fill="#cebfbb" d="M 299.5,116.5 C 299.5,124.167 299.5,131.833 299.5,139.5C 292.932,138.767 289.099,135.1 288,128.5C 286.644,127.62 285.144,127.286 283.5,127.5C 288.953,126.697 290.619,123.697 288.5,118.5C 292.167,117.833 295.833,117.167 299.5,116.5 Z"/></g>
<g><path style="opacity:1" fill="#939196" d="M 99.5,120.5 C 111.5,120.5 123.5,120.5 135.5,120.5C 138.833,120.5 142.167,120.5 145.5,120.5C 146.018,121.577 146.352,122.744 146.5,124C 145.047,129.429 144.047,134.929 143.5,140.5C 140.187,141.045 136.854,141.545 133.5,142C 138.5,142.833 143.5,143.667 148.5,144.5C 140.367,144.545 132.367,144.878 124.5,145.5C 123.751,144.469 123.085,143.302 122.5,142C 123.044,141.283 123.711,140.783 124.5,140.5C 124.917,141.124 125.584,141.457 126.5,141.5C 129.541,141.018 132.541,140.351 135.5,139.5C 135.137,138.817 134.804,138.15 134.5,137.5C 136.467,137.739 138.301,137.406 140,136.5C 141.33,131.516 142.496,126.516 143.5,121.5C 128.657,121.829 113.99,121.496 99.5,120.5 Z"/></g>
<g><path style="opacity:1" fill="#383138" d="M 3.5,125.5 C 7.84611,125.334 12.1794,125.501 16.5,126C 17.4061,127.699 17.7394,129.533 17.5,131.5C 14.8127,131.664 12.146,131.497 9.5,131C 7.83093,129.331 5.83093,128.498 3.5,128.5C 3.5,127.5 3.5,126.5 3.5,125.5 Z"/></g>
<g><path style="opacity:1" fill="#4e4348" d="M 87.5,130.5 C 87.5,130.833 87.5,131.167 87.5,131.5C 84.6572,132.129 81.8239,133.129 79,134.5C 73.859,131.881 68.6923,131.881 63.5,134.5C 62.2613,134.058 61.2613,133.391 60.5,132.5C 60.5,132.167 60.5,131.833 60.5,131.5C 64.1974,129.544 68.0307,127.878 72,126.5C 71.7932,124.249 71.6265,121.915 71.5,119.5C 72.3733,123.494 73.54,123.494 75,119.5C 74.6122,125.316 76.6122,126.649 81,123.5C 81.1554,121.144 81.1554,118.811 81,116.5C 83.2812,120.852 84.4479,125.519 84.5,130.5C 85.5,130.5 86.5,130.5 87.5,130.5 Z"/></g>
<g><path style="opacity:1" fill="#73707b" d="M 14.5,112.5 C 23.022,117.506 31.6887,122.339 40.5,127C 47.3396,127.996 54.0063,129.496 60.5,131.5C 60.5,131.833 60.5,132.167 60.5,132.5C 55.8333,132.5 51.1667,132.5 46.5,132.5C 41.3054,132.821 36.3054,132.487 31.5,131.5C 37.1764,131.666 42.8431,131.499 48.5,131C 42.6861,131.3 37.5195,129.8 33,126.5C 30.2671,128.428 29.1005,127.761 29.5,124.5C 26.9404,123.141 24.4404,121.474 22,119.5C 20.7387,119.759 19.7387,120.426 19,121.5C 18.8784,119.563 18.045,118.23 16.5,117.5C 15.8826,117.611 15.3826,117.944 15,118.5C 14.654,116.782 14.154,115.115 13.5,113.5C 13.6236,112.893 13.9569,112.56 14.5,112.5 Z"/></g>
<g><path style="opacity:1" fill="#c49c8e" d="M 215.5,132.5 C 212.908,134.036 211.908,136.369 212.5,139.5C 212.5,140.167 212.5,140.833 212.5,141.5C 211.698,140.048 211.198,138.382 211,136.5C 209.817,137.731 208.651,137.731 207.5,136.5C 208.853,135.476 209.52,134.143 209.5,132.5C 198.513,133.668 187.513,133.668 176.5,132.5C 178.123,131.221 179.79,129.887 181.5,128.5C 182.474,126.257 182.808,123.924 182.5,121.5C 183.833,121.5 185.167,121.5 186.5,121.5C 186.337,123.857 186.503,126.19 187,128.5C 189.36,130.941 192.027,131.608 195,130.5C 197.706,131.01 200.373,131.677 203,132.5C 207.311,131.232 211.478,131.232 215.5,132.5 Z"/></g>
<g><path style="opacity:1" fill="#312c33" d="M 94.5,123.5 C 95.4849,127.634 95.8182,131.968 95.5,136.5C 95.5,137.833 95.5,139.167 95.5,140.5C 72.1794,142.175 48.846,143.341 25.5,144C 26.5,143 27.5,142 28.5,141C 24.9537,139.743 22.9537,137.243 22.5,133.5C 24.1998,133.626 25.6998,134.293 27,135.5C 33.3333,132.833 39.6667,132.833 46,135.5C 47.6833,134.824 47.8499,133.824 46.5,132.5C 51.1667,132.5 55.8333,132.5 60.5,132.5C 61.2613,133.391 62.2613,134.058 63.5,134.5C 68.6923,131.881 73.859,131.881 79,134.5C 81.8239,133.129 84.6572,132.129 87.5,131.5C 89.3835,133.136 91.3835,133.469 93.5,132.5C 94.4066,129.579 94.7399,126.579 94.5,123.5 Z"/></g>
<g><path style="opacity:1" fill="#282934" d="M 134.5,137.5 C 134.804,138.15 135.137,138.817 135.5,139.5C 132.541,140.351 129.541,141.018 126.5,141.5C 125.584,141.457 124.917,141.124 124.5,140.5C 126.401,137.992 129.068,136.658 132.5,136.5C 133.416,136.543 134.083,136.876 134.5,137.5 Z"/></g>
<g><path style="opacity:1" fill="#cbcacd" d="M 177.5,119.5 C 180.833,119.5 184.167,119.5 187.5,119.5C 192.619,118.897 197.285,119.564 201.5,121.5C 201.5,123.5 201.5,125.5 201.5,127.5C 201.5,127.833 201.5,128.167 201.5,128.5C 206.276,129.919 211.276,130.919 216.5,131.5C 216.376,132.107 216.043,132.44 215.5,132.5C 211.478,131.232 207.311,131.232 203,132.5C 200.373,131.677 197.706,131.01 195,130.5C 192.027,131.608 189.36,130.941 187,128.5C 186.503,126.19 186.337,123.857 186.5,121.5C 185.167,121.5 183.833,121.5 182.5,121.5C 182.808,123.924 182.474,126.257 181.5,128.5C 179.79,129.887 178.123,131.221 176.5,132.5C 174.674,134.147 173.34,136.147 172.5,138.5C 171.662,138.842 171.328,139.508 171.5,140.5C 164.492,140.666 157.492,140.5 150.5,140C 150.86,136.235 152.527,133.235 155.5,131C 154.594,129.301 154.261,127.467 154.5,125.5C 154.5,123.833 154.5,122.167 154.5,120.5C 158.846,120.334 163.179,120.501 167.5,121C 166.944,121.383 166.611,121.883 166.5,122.5C 170.137,121.139 173.804,120.139 177.5,119.5 Z"/></g>
<g><path style="opacity:1" fill="#b08972" d="M 166.5,122.5 C 165.548,128.075 165.214,133.741 165.5,139.5C 164.167,139.5 162.833,139.5 161.5,139.5C 161.666,135.486 161.499,131.486 161,127.5C 160.282,128.451 159.449,128.617 158.5,128C 160.919,126.491 161.919,124.325 161.5,121.5C 163.216,121.629 164.883,121.962 166.5,122.5 Z"/></g>
<g><path style="opacity:1" fill="#d6cbcb" d="M 277.5,129.5 C 273.787,131.685 269.787,133.352 265.5,134.5C 265.337,132.143 265.503,129.81 266,127.5C 267.833,125.667 269.667,123.833 271.5,122C 269.568,121.862 267.734,122.362 266,123.5C 262.466,128.243 260.966,133.576 261.5,139.5C 261.719,140.675 261.386,141.675 260.5,142.5C 257.063,137.085 252.23,133.752 246,132.5C 240.855,133.722 240.522,135.388 245,137.5C 245.617,138.449 245.451,139.282 244.5,140C 240.49,140.357 236.49,140.19 232.5,139.5C 232.351,140.552 232.517,141.552 233,142.5C 236.099,144.878 237.766,147.878 238,151.5C 236.927,152.28 235.76,152.113 234.5,151C 232.16,149.16 230.16,146.993 228.5,144.5C 228.236,148.671 229.736,152.338 233,155.5C 236.436,156.1 238.269,158.1 238.5,161.5C 233.132,161.087 228.465,159.087 224.5,155.5C 220.709,151.369 217.709,146.703 215.5,141.5C 214.735,140.388 213.735,139.721 212.5,139.5C 211.908,136.369 212.908,134.036 215.5,132.5C 215.577,133.75 216.244,134.583 217.5,135C 220.592,135.736 223.592,135.569 226.5,134.5C 226.56,135.043 226.893,135.376 227.5,135.5C 237.516,131.794 247.85,129.46 258.5,128.5C 258.592,125.6 257.259,123.933 254.5,123.5C 258.966,123.844 262.966,122.677 266.5,120C 269.227,119.182 271.894,119.348 274.5,120.5C 271.693,123.278 270.86,126.611 272,130.5C 273.699,129.594 275.533,129.261 277.5,129.5 Z"/></g>
<g><path style="opacity:1" fill="#565053" d="M 147.5,119.5 C 150.432,120.8 152.766,122.8 154.5,125.5C 154.261,127.467 154.594,129.301 155.5,131C 152.527,133.235 150.86,136.235 150.5,140C 157.492,140.5 164.492,140.666 171.5,140.5C 171.5,140.833 171.5,141.167 171.5,141.5C 164.804,141.391 158.137,141.724 151.5,142.5C 150.957,142.56 150.624,142.893 150.5,143.5C 152.902,144.575 155.236,145.742 157.5,147C 153.141,147.534 148.808,147.368 144.5,146.5C 140.466,146.495 136.466,146.162 132.5,145.5C 129.833,145.5 127.167,145.5 124.5,145.5C 132.367,144.878 140.367,144.545 148.5,144.5C 143.5,143.667 138.5,142.833 133.5,142C 136.854,141.545 140.187,141.045 143.5,140.5C 144.047,134.929 145.047,129.429 146.5,124C 146.352,122.744 146.018,121.577 145.5,120.5C 146.167,120.167 146.833,119.833 147.5,119.5 Z"/></g>
<g><path style="opacity:1" fill="#a1abb9" d="M 148.5,122.5 C 150.484,122.484 151.484,123.484 151.5,125.5C 150.512,128.782 149.846,132.115 149.5,135.5C 148.5,135.5 147.5,135.5 146.5,135.5C 147.425,131.21 148.091,126.876 148.5,122.5 Z"/></g>
<g><path style="opacity:1" fill="#af7d6d" d="M 176.5,132.5 C 187.513,133.668 198.513,133.668 209.5,132.5C 209.52,134.143 208.853,135.476 207.5,136.5C 208.651,137.731 209.817,137.731 211,136.5C 211.198,138.382 211.698,140.048 212.5,141.5C 212.5,142.167 212.5,142.833 212.5,143.5C 208.02,145.634 203.354,145.967 198.5,144.5C 193.286,141.726 187.952,139.226 182.5,137C 178.851,136.037 175.518,136.537 172.5,138.5C 173.34,136.147 174.674,134.147 176.5,132.5 Z"/></g>
<g><path style="opacity:1" fill="#c7c2c2" d="M 171.5,141.5 C 171.5,143.5 171.5,145.5 171.5,147.5C 170.833,147.833 170.167,148.167 169.5,148.5C 169.167,148.5 168.833,148.5 168.5,148.5C 162.448,147.494 156.782,145.494 151.5,142.5C 158.137,141.724 164.804,141.391 171.5,141.5 Z"/></g>
<g><path style="opacity:1" fill="#39353c" d="M -0.5,133.5 C 0.403972,134.209 0.737305,135.209 0.5,136.5C 1.5,136.5 2.5,136.5 3.5,136.5C 3.5,138.833 3.5,141.167 3.5,143.5C 5.39037,143.703 6.89037,143.037 8,141.5C 9.25249,138.986 9.75249,136.32 9.5,133.5C 12.5,133.5 15.5,133.5 18.5,133.5C 18.5,137.5 18.5,141.5 18.5,145.5C 12.1624,145.767 5.82902,146.1 -0.5,146.5C -0.5,142.167 -0.5,137.833 -0.5,133.5 Z"/></g>
<g><path style="opacity:1" fill="#764e4c" d="M 212.5,143.5 C 212.709,144.922 213.209,146.255 214,147.5C 216.028,150.692 218.528,153.359 221.5,155.5C 221.44,156.043 221.107,156.376 220.5,156.5C 217.979,155.215 215.313,154.548 212.5,154.5C 211.508,154.672 210.842,154.338 210.5,153.5C 204.412,150.456 197.746,147.123 190.5,143.5C 189.583,144.127 188.583,144.461 187.5,144.5C 186.292,145.234 184.959,145.567 183.5,145.5C 183.5,144.5 183.5,143.5 183.5,142.5C 185.625,141.632 185.791,140.632 184,139.5C 180.336,140.666 177.836,142.999 176.5,146.5C 175.469,147.355 174.303,148.022 173,148.5C 172.235,148.43 171.735,148.097 171.5,147.5C 171.5,145.5 171.5,143.5 171.5,141.5C 171.5,141.167 171.5,140.833 171.5,140.5C 171.328,139.508 171.662,138.842 172.5,138.5C 175.518,136.537 178.851,136.037 182.5,137C 187.952,139.226 193.286,141.726 198.5,144.5C 203.354,145.967 208.02,145.634 212.5,143.5 Z"/></g>
<g><path style="opacity:1" fill="#b2a9ae" d="M 183.5,142.5 C 182.776,144.218 182.109,146.052 181.5,148C 179.326,148.877 177.659,148.377 176.5,146.5C 177.836,142.999 180.336,140.666 184,139.5C 185.791,140.632 185.625,141.632 183.5,142.5 Z"/></g>
<g><path style="opacity:1" fill="#1f1f25" d="M 18.5,133.5 C 19.8333,133.5 21.1667,133.5 22.5,133.5C 22.9537,137.243 24.9537,139.743 28.5,141C 27.5,142 26.5,143 25.5,144C 48.846,143.341 72.1794,142.175 95.5,140.5C 95.5,141.5 95.5,142.5 95.5,143.5C 91.7802,143.564 88.1135,144.064 84.5,145C 87.8168,145.498 91.1501,145.665 94.5,145.5C 94.5,147.167 94.5,148.833 94.5,150.5C 93.1667,150.5 91.8333,150.5 90.5,150.5C 84.5,151.167 78.5,151.833 72.5,152.5C 61.3338,153.463 50.1672,154.463 39,155.5C 25.8384,154.667 12.6717,154 -0.5,153.5C -0.5,151.167 -0.5,148.833 -0.5,146.5C 5.82902,146.1 12.1624,145.767 18.5,145.5C 18.5,141.5 18.5,137.5 18.5,133.5 Z"/></g>
<g><path style="opacity:1" fill="#696d75" d="M 151.5,142.5 C 156.782,145.494 162.448,147.494 168.5,148.5C 162.394,149.073 156.394,150.073 150.5,151.5C 148.031,150.683 145.365,150.183 142.5,150C 143.973,149.29 144.64,148.124 144.5,146.5C 148.808,147.368 153.141,147.534 157.5,147C 155.236,145.742 152.902,144.575 150.5,143.5C 150.624,142.893 150.957,142.56 151.5,142.5 Z"/></g>
<g><path style="opacity:1" fill="#867676" d="M 183.5,142.5 C 183.5,143.5 183.5,144.5 183.5,145.5C 184.959,145.567 186.292,145.234 187.5,144.5C 189.675,148.32 193.008,150.653 197.5,151.5C 191.276,151.471 184.943,151.804 178.5,152.5C 176.176,149.565 173.176,148.898 169.5,150.5C 168.537,150.03 168.537,149.363 169.5,148.5C 170.167,148.167 170.833,147.833 171.5,147.5C 171.735,148.097 172.235,148.43 173,148.5C 174.303,148.022 175.469,147.355 176.5,146.5C 177.659,148.377 179.326,148.877 181.5,148C 182.109,146.052 182.776,144.218 183.5,142.5 Z"/></g>
<g><path style="opacity:1" fill="#cdcfdc" d="M 210.5,153.5 C 205.899,153.945 201.565,153.278 197.5,151.5C 193.008,150.653 189.675,148.32 187.5,144.5C 188.583,144.461 189.583,144.127 190.5,143.5C 197.746,147.123 204.412,150.456 210.5,153.5 Z"/></g>
<g><path style="opacity:1" fill="#a08d88" d="M 299.5,140.5 C 299.5,149.833 299.5,159.167 299.5,168.5C 297.833,168.5 296.167,168.5 294.5,168.5C 291.695,165.169 288.528,162.169 285,159.5C 284.51,158.207 284.343,156.873 284.5,155.5C 287.889,156.691 291.222,158.191 294.5,160C 298.918,160.643 299.251,159.143 295.5,155.5C 296.911,153.983 296.744,152.649 295,151.5C 294.452,147.83 293.952,144.163 293.5,140.5C 295.5,140.5 297.5,140.5 299.5,140.5 Z"/></g>
<g><path style="opacity:1" fill="#858d98" d="M 132.5,145.5 C 136.466,146.162 140.466,146.495 144.5,146.5C 144.64,148.124 143.973,149.29 142.5,150C 145.365,150.183 148.031,150.683 150.5,151.5C 142.886,152.15 135.553,153.817 128.5,156.5C 126.192,156.086 123.858,155.753 121.5,155.5C 117.23,156.59 112.897,157.257 108.5,157.5C 104.858,156.92 101.191,156.42 97.5,156C 96.7699,153.846 96.1032,151.679 95.5,149.5C 108.054,148.887 120.388,147.553 132.5,145.5 Z"/></g>
<g><path style="opacity:1" fill="#2c272b" d="M 168.5,148.5 C 168.833,148.5 169.167,148.5 169.5,148.5C 168.537,149.363 168.537,150.03 169.5,150.5C 173.176,148.898 176.176,149.565 178.5,152.5C 174.806,153.777 171.139,154.777 167.5,155.5C 158.491,156.057 149.491,156.724 140.5,157.5C 134.671,159.232 128.671,159.899 122.5,159.5C 122.167,159.5 121.833,159.5 121.5,159.5C 123.588,157.98 125.922,156.98 128.5,156.5C 135.553,153.817 142.886,152.15 150.5,151.5C 156.394,150.073 162.394,149.073 168.5,148.5 Z"/></g>
<g><path style="opacity:1" fill="#c9bbb8" d="M 261.5,139.5 C 265.6,148.741 272.267,155.574 281.5,160C 283.037,161.11 283.703,162.61 283.5,164.5C 280.834,164.067 278.168,163.567 275.5,163C 273.229,160.218 270.563,158.051 267.5,156.5C 265.541,152.874 262.874,149.874 259.5,147.5C 259.08,149.326 259.08,151.326 259.5,153.5C 256.455,153.492 253.455,153.159 250.5,152.5C 250.517,155.523 251.517,158.19 253.5,160.5C 255.731,162.11 257.731,163.943 259.5,166C 258,166.167 256.5,166.333 255,166.5C 249.976,165.384 244.976,165.384 240,166.5C 232.743,164.463 226.577,160.797 221.5,155.5C 218.528,153.359 216.028,150.692 214,147.5C 213.209,146.255 212.709,144.922 212.5,143.5C 212.5,142.833 212.5,142.167 212.5,141.5C 212.5,140.833 212.5,140.167 212.5,139.5C 213.735,139.721 214.735,140.388 215.5,141.5C 217.709,146.703 220.709,151.369 224.5,155.5C 228.465,159.087 233.132,161.087 238.5,161.5C 238.269,158.1 236.436,156.1 233,155.5C 229.736,152.338 228.236,148.671 228.5,144.5C 230.16,146.993 232.16,149.16 234.5,151C 235.76,152.113 236.927,152.28 238,151.5C 237.766,147.878 236.099,144.878 233,142.5C 232.517,141.552 232.351,140.552 232.5,139.5C 236.49,140.19 240.49,140.357 244.5,140C 245.451,139.282 245.617,138.449 245,137.5C 240.522,135.388 240.855,133.722 246,132.5C 252.23,133.752 257.063,137.085 260.5,142.5C 261.386,141.675 261.719,140.675 261.5,139.5 Z"/></g>
<g><path style="opacity:1" fill="#a1918f" d="M 267.5,156.5 C 268.5,157.833 269.5,159.167 270.5,160.5C 268.5,160.833 266.5,161.167 264.5,161.5C 264.961,164.303 266.295,166.637 268.5,168.5C 258.5,168.5 248.5,168.5 238.5,168.5C 229.456,164.467 220.789,159.801 212.5,154.5C 215.313,154.548 217.979,155.215 220.5,156.5C 221.107,156.376 221.44,156.043 221.5,155.5C 226.577,160.797 232.743,164.463 240,166.5C 244.976,165.384 249.976,165.384 255,166.5C 256.5,166.333 258,166.167 259.5,166C 257.731,163.943 255.731,162.11 253.5,160.5C 251.517,158.19 250.517,155.523 250.5,152.5C 253.455,153.159 256.455,153.492 259.5,153.5C 259.08,151.326 259.08,149.326 259.5,147.5C 262.874,149.874 265.541,152.874 267.5,156.5 Z"/></g>
<g><path style="opacity:1" fill="#c7bdbf" d="M 197.5,151.5 C 201.565,153.278 205.899,153.945 210.5,153.5C 210.842,154.338 211.508,154.672 212.5,154.5C 220.789,159.801 229.456,164.467 238.5,168.5C 224.5,168.5 210.5,168.5 196.5,168.5C 189.055,166.879 181.388,165.879 173.5,165.5C 158.01,163.964 142.677,162.297 127.5,160.5C 137.009,161.101 146.342,161.101 155.5,160.5C 156.167,160.5 156.833,160.5 157.5,160.5C 177.107,163.301 196.773,165.634 216.5,167.5C 218.389,167.564 220.056,167.064 221.5,166C 218.194,165.014 215.194,163.514 212.5,161.5C 211.653,160.034 210.32,159.2 208.5,159C 194.884,157.202 181.217,156.035 167.5,155.5C 171.139,154.777 174.806,153.777 178.5,152.5C 184.943,151.804 191.276,151.471 197.5,151.5 Z"/></g>
<g><path style="opacity:1" fill="#37363b" d="M 72.5,152.5 C 63.6796,154.914 54.6796,157.248 45.5,159.5C 45.7093,160.086 46.0426,160.586 46.5,161C 51.8688,161.117 56.8688,162.284 61.5,164.5C 60.8333,164.833 60.1667,165.167 59.5,165.5C 53.171,165.9 46.8376,166.233 40.5,166.5C 39.653,165.034 38.3197,164.2 36.5,164C 28.5112,162.102 20.5112,160.269 12.5,158.5C 10.2602,158.935 8.09352,159.602 6,160.5C 3.86297,159.923 1.6963,159.59 -0.5,159.5C -0.5,157.5 -0.5,155.5 -0.5,153.5C 12.6717,154 25.8384,154.667 39,155.5C 50.1672,154.463 61.3338,153.463 72.5,152.5 Z"/></g>
<g><path style="opacity:1" fill="#676b74" d="M 95.5,136.5 C 96.6624,140.687 96.6624,145.02 95.5,149.5C 96.1032,151.679 96.7699,153.846 97.5,156C 101.191,156.42 104.858,156.92 108.5,157.5C 107.048,158.302 105.382,158.802 103.5,159C 104.094,159.464 104.761,159.631 105.5,159.5C 92.9945,161.003 80.3278,162.336 67.5,163.5C 72.1318,162.226 76.7984,160.726 81.5,159C 84.1777,155.691 87.1777,152.857 90.5,150.5C 91.8333,150.5 93.1667,150.5 94.5,150.5C 94.5,148.833 94.5,147.167 94.5,145.5C 91.1501,145.665 87.8168,145.498 84.5,145C 88.1135,144.064 91.7802,143.564 95.5,143.5C 95.5,142.5 95.5,141.5 95.5,140.5C 95.5,139.167 95.5,137.833 95.5,136.5 Z"/></g>
<g><path style="opacity:1" fill="#4b454e" d="M 128.5,156.5 C 125.922,156.98 123.588,157.98 121.5,159.5C 121.167,159.5 120.833,159.5 120.5,159.5C 115.5,159.5 110.5,159.5 105.5,159.5C 104.761,159.631 104.094,159.464 103.5,159C 105.382,158.802 107.048,158.302 108.5,157.5C 112.897,157.257 117.23,156.59 121.5,155.5C 123.858,155.753 126.192,156.086 128.5,156.5 Z"/></g>
<g><path style="opacity:1" fill="#d8d7df" d="M 167.5,155.5 C 181.217,156.035 194.884,157.202 208.5,159C 210.32,159.2 211.653,160.034 212.5,161.5C 197.91,159.863 183.41,158.196 169,156.5C 163.604,157.768 158.104,158.601 152.5,159C 154.382,159.198 156.048,159.698 157.5,160.5C 156.833,160.5 156.167,160.5 155.5,160.5C 150.206,160.375 145.206,159.375 140.5,157.5C 149.491,156.724 158.491,156.057 167.5,155.5 Z"/></g>
<g><path style="opacity:1" fill="#4d4d52" d="M 90.5,150.5 C 87.1777,152.857 84.1777,155.691 81.5,159C 76.7984,160.726 72.1318,162.226 67.5,163.5C 65.7354,164.461 63.7354,164.795 61.5,164.5C 56.8688,162.284 51.8688,161.117 46.5,161C 46.0426,160.586 45.7093,160.086 45.5,159.5C 54.6796,157.248 63.6796,154.914 72.5,152.5C 78.5,151.833 84.5,151.167 90.5,150.5 Z"/></g>
<g><path style="opacity:1" fill="#7a727a" d="M 140.5,157.5 C 145.206,159.375 150.206,160.375 155.5,160.5C 146.342,161.101 137.009,161.101 127.5,160.5C 125.585,160.784 123.919,160.451 122.5,159.5C 128.671,159.899 134.671,159.232 140.5,157.5 Z"/></g>
<g><path style="opacity:1" fill="#8f94a8" d="M 120.5,159.5 C 120.833,159.5 121.167,159.5 121.5,159.5C 121.833,159.5 122.167,159.5 122.5,159.5C 123.919,160.451 125.585,160.784 127.5,160.5C 142.677,162.297 158.01,163.964 173.5,165.5C 158.971,165.839 144.638,166.839 130.5,168.5C 107.167,168.5 83.8333,168.5 60.5,168.5C 80.4675,165.283 100.468,162.283 120.5,159.5 Z"/></g>
<g><path style="opacity:1" fill="#eef0f9" d="M 212.5,161.5 C 215.194,163.514 218.194,165.014 221.5,166C 220.056,167.064 218.389,167.564 216.5,167.5C 196.773,165.634 177.107,163.301 157.5,160.5C 156.048,159.698 154.382,159.198 152.5,159C 158.104,158.601 163.604,157.768 169,156.5C 183.41,158.196 197.91,159.863 212.5,161.5 Z"/></g>
<g><path style="opacity:1" fill="#81716e" d="M 270.5,160.5 C 273.793,163.865 277.46,166.532 281.5,168.5C 277.167,168.5 272.833,168.5 268.5,168.5C 266.295,166.637 264.961,164.303 264.5,161.5C 266.5,161.167 268.5,160.833 270.5,160.5 Z"/></g>
<g><path style="opacity:1" fill="#bca9a3" d="M 277.5,129.5 C 279.315,128.37 281.315,127.704 283.5,127.5C 285.144,127.286 286.644,127.62 288,128.5C 289.099,135.1 292.932,138.767 299.5,139.5C 299.5,139.833 299.5,140.167 299.5,140.5C 297.5,140.5 295.5,140.5 293.5,140.5C 293.952,144.163 294.452,147.83 295,151.5C 296.744,152.649 296.911,153.983 295.5,155.5C 299.251,159.143 298.918,160.643 294.5,160C 291.222,158.191 287.889,156.691 284.5,155.5C 284.343,156.873 284.51,158.207 285,159.5C 288.528,162.169 291.695,165.169 294.5,168.5C 290.167,168.5 285.833,168.5 281.5,168.5C 277.46,166.532 273.793,163.865 270.5,160.5C 269.5,159.167 268.5,157.833 267.5,156.5C 270.563,158.051 273.229,160.218 275.5,163C 278.168,163.567 280.834,164.067 283.5,164.5C 283.703,162.61 283.037,161.11 281.5,160C 272.267,155.574 265.6,148.741 261.5,139.5C 260.966,133.576 262.466,128.243 266,123.5C 267.734,122.362 269.568,121.862 271.5,122C 269.667,123.833 267.833,125.667 266,127.5C 265.503,129.81 265.337,132.143 265.5,134.5C 269.787,133.352 273.787,131.685 277.5,129.5 Z"/></g>
<g><path style="opacity:1" fill="#535254" d="M 40.5,166.5 C 39.0048,166.989 37.6715,167.655 36.5,168.5C 24.1667,168.5 11.8333,168.5 -0.5,168.5C -0.5,165.5 -0.5,162.5 -0.5,159.5C 1.6963,159.59 3.86297,159.923 6,160.5C 8.09352,159.602 10.2602,158.935 12.5,158.5C 20.5112,160.269 28.5112,162.102 36.5,164C 38.3197,164.2 39.653,165.034 40.5,166.5 Z"/></g>
<g><path style="opacity:1" fill="#7f818b" d="M 59.5,165.5 C 53.1905,166.679 46.8572,167.679 40.5,168.5C 39.1667,168.5 37.8333,168.5 36.5,168.5C 37.6715,167.655 39.0048,166.989 40.5,166.5C 46.8376,166.233 53.171,165.9 59.5,165.5 Z"/></g>
<g><path style="opacity:1" fill="#cfd1da" d="M 105.5,159.5 C 110.5,159.5 115.5,159.5 120.5,159.5C 100.468,162.283 80.4675,165.283 60.5,168.5C 53.8333,168.5 47.1667,168.5 40.5,168.5C 46.8572,167.679 53.1905,166.679 59.5,165.5C 60.1667,165.167 60.8333,164.833 61.5,164.5C 63.7354,164.795 65.7354,164.461 67.5,163.5C 80.3278,162.336 92.9945,161.003 105.5,159.5 Z"/></g>
<g><path style="opacity:1" fill="#abb4c7" d="M 173.5,165.5 C 181.388,165.879 189.055,166.879 196.5,168.5C 174.5,168.5 152.5,168.5 130.5,168.5C 144.638,166.839 158.971,165.839 173.5,165.5 Z"/></g>
</svg>
