<?xml version="1.0" encoding="UTF-8"?>
<!DOCTYPE svg PUBLIC "-//W3C//DTD SVG 1.1//EN" "http://www.w3.org/Graphics/SVG/1.1/DTD/svg11.dtd">
<svg xmlns="http://www.w3.org/2000/svg" version="1.1" width="64px" height="64px" style="shape-rendering:geometricPrecision; text-rendering:geometricPrecision; image-rendering:optimizeQuality; fill-rule:evenodd; clip-rule:evenodd" xmlns:xlink="http://www.w3.org/1999/xlink">
<g><path style="opacity:0.916" fill="#fefffe" d="M 23.5,0.5 C 28.8437,0.333983 34.1771,0.500649 39.5,1C 45.0356,6.4027 51.7022,9.06937 59.5,9C 64.1471,31.7111 56.4805,49.0445 36.5,61C 34.8632,61.6012 33.1966,62.1012 31.5,62.5C 14.5358,55.9289 4.70246,43.5955 2,25.5C 1.10383,20.0509 1.43716,14.7175 3,9.5C 11.1367,9.29409 17.97,6.29409 23.5,0.5 Z M 34.5,6.5 C 38.3398,8.81077 42.3398,10.9774 46.5,13C 49.3926,14.1488 52.3926,14.6488 55.5,14.5C 56.3093,31.884 49.4759,45.2173 35,54.5C 34.5001,38.5035 34.3334,22.5035 34.5,6.5 Z"/></g>
</svg>
