<?xml version="1.0" encoding="UTF-8"?>
<!DOCTYPE svg PUBLIC "-//W3C//DTD SVG 1.1//EN" "http://www.w3.org/Graphics/SVG/1.1/DTD/svg11.dtd">
<svg xmlns="http://www.w3.org/2000/svg" version="1.1" width="32px" height="32px" style="shape-rendering:geometricPrecision; text-rendering:geometricPrecision; image-rendering:optimizeQuality; fill-rule:evenodd; clip-rule:evenodd" xmlns:xlink="http://www.w3.org/1999/xlink">
<g><path style="opacity:0.505" fill="#fffefe" d="M 0.5,5.5 C 2.13896,11.1107 3.13896,17.1107 3.5,23.5C 4.48702,20.2317 4.82036,16.8984 4.5,13.5C 5.83333,13.5 7.16667,13.5 8.5,13.5C 8.33499,16.8499 8.50166,20.1832 9,23.5C 9.49796,20.5184 9.66463,17.5184 9.5,14.5C 10.5,14.5 11.5,14.5 12.5,14.5C 12.3354,17.5184 12.502,20.5184 13,23.5C 13.6667,19.8333 13.6667,16.1667 13,12.5C 10.5571,13.2853 8.05714,13.1186 5.5,12C 4.16667,11.3333 4.16667,10.6667 5.5,10C 8.09769,10.4217 10.7644,10.4217 13.5,10C 15.5535,8.91972 17.7202,8.08639 20,7.5C 22.0795,9.12333 24.2462,10.6233 26.5,12C 24.8629,13.951 23.3629,13.7843 22,11.5C 21.3333,15.5 21.3333,19.5 22,23.5C 22.498,20.5184 22.6646,17.5184 22.5,14.5C 23.8333,14.5 25.1667,14.5 26.5,14.5C 26.5,17.5 26.5,20.5 26.5,23.5C 27.9778,23.238 29.3112,23.5713 30.5,24.5C 20.5222,25.4985 10.5222,25.8319 0.5,25.5C 0.5,18.8333 0.5,12.1667 0.5,5.5 Z M 16.5,10.5 C 17.8734,10.3433 19.2068,10.51 20.5,11C 18.7703,14.8515 17.9369,19.0182 18,23.5C 17.5014,19.8484 17.3347,16.1817 17.5,12.5C 14.075,12.6332 13.7417,11.9665 16.5,10.5 Z"/></g>
</svg>
