<?xml version="1.0" encoding="UTF-8"?>
<!DOCTYPE svg PUBLIC "-//W3C//DTD SVG 1.1//EN" "http://www.w3.org/Graphics/SVG/1.1/DTD/svg11.dtd">
<svg xmlns="http://www.w3.org/2000/svg" version="1.1" width="561px" height="444px" style="shape-rendering:geometricPrecision; text-rendering:geometricPrecision; image-rendering:optimizeQuality; fill-rule:evenodd; clip-rule:evenodd" xmlns:xlink="http://www.w3.org/1999/xlink">
<g><path style="opacity:0.067" fill="#a3b3cb" d="M 180.5,98.5 C 175.056,97.8917 170.056,98.5583 165.5,100.5C 164.596,99.791 164.263,98.791 164.5,97.5C 170.026,97.1786 175.36,97.5119 180.5,98.5 Z"/></g>
<g><path style="opacity:0.122" fill="#8998b5" d="M 252.5,101.5 C 257.076,101.438 261.409,102.105 265.5,103.5C 260.924,103.562 256.591,102.895 252.5,101.5 Z"/></g>
<g><path style="opacity:1" fill="#203e73" d="M 180.5,98.5 C 204.524,98.9881 228.524,99.9881 252.5,101.5C 256.591,102.895 260.924,103.562 265.5,103.5C 268.385,103.194 271.052,103.527 273.5,104.5C 271.383,105.014 269.216,105.347 267,105.5C 241.561,102.753 216.061,101.253 190.5,101C 188.913,101.862 187.246,102.529 185.5,103C 185.833,103.333 186.167,103.667 186.5,104C 193.181,103.165 199.848,103.499 206.5,105C 201.798,105.172 197.132,105.672 192.5,106.5C 203.151,107.332 213.818,107.832 224.5,108C 219.063,109.85 213.397,110.85 207.5,111C 213.315,112.908 219.315,112.741 225.5,110.5C 229.527,111.095 233.527,111.761 237.5,112.5C 238.086,112.291 238.586,111.957 239,111.5C 239.49,112.793 239.657,114.127 239.5,115.5C 226.163,115.712 212.83,116.046 199.5,116.5C 199.281,117.675 199.614,118.675 200.5,119.5C 203.999,121.566 207.665,122.9 211.5,123.5C 209.833,123.5 208.167,123.5 206.5,123.5C 200.933,123.198 196.933,120.531 194.5,115.5C 194.624,114.893 194.957,114.56 195.5,114.5C 209.171,114.667 222.837,114.5 236.5,114C 231.628,113.754 226.795,113.254 222,112.5C 213.208,113.458 204.375,113.792 195.5,113.5C 188.429,113.951 181.762,112.618 175.5,109.5C 175.027,108.094 174.027,107.427 172.5,107.5C 169.167,106.167 166.833,103.833 165.5,100.5C 170.056,98.5583 175.056,97.8917 180.5,98.5 Z"/></g>
<g><path style="opacity:0.133" fill="#8b9fb9" d="M 279.5,105.5 C 282.152,105.41 284.485,106.076 286.5,107.5C 283.848,107.59 281.515,106.924 279.5,105.5 Z"/></g>
<g><path style="opacity:0.071" fill="#acb4cf" d="M 172.5,107.5 C 174.027,107.427 175.027,108.094 175.5,109.5C 173.973,109.573 172.973,108.906 172.5,107.5 Z"/></g>
<g><path style="opacity:1" fill="#0f3875" d="M 273.5,104.5 C 275.565,104.517 277.565,104.85 279.5,105.5C 281.515,106.924 283.848,107.59 286.5,107.5C 286.833,107.5 287.167,107.5 287.5,107.5C 289.077,109.584 290.91,111.584 293,113.5C 298.621,112.357 302.121,114.691 303.5,120.5C 302.5,120.833 301.5,121.167 300.5,121.5C 298.159,120.818 295.826,120.151 293.5,119.5C 293.421,121.666 292.754,123.666 291.5,125.5C 291.5,127.5 292.5,128.5 294.5,128.5C 295.647,128.182 296.481,127.516 297,126.5C 297.654,127.696 298.154,127.696 298.5,126.5C 297.335,125.416 296.002,124.583 294.5,124C 295,123.833 295.5,123.667 296,123.5C 299.899,123.949 303.565,123.949 307,123.5C 308.432,128.983 307.932,134.316 305.5,139.5C 305.833,140.167 306.167,140.833 306.5,141.5C 308.895,139.056 311.062,136.39 313,133.5C 313.155,135.856 313.155,138.189 313,140.5C 313.667,139.833 314.333,139.167 315,138.5C 315.212,136.22 316.045,134.22 317.5,132.5C 316.05,131.15 315.383,129.484 315.5,127.5C 319.554,127.79 320.054,127.123 317,125.5C 316.333,124.167 316.333,122.833 317,121.5C 320.325,120.826 323.159,119.493 325.5,117.5C 332.169,118.587 338.502,120.753 344.5,124C 352.387,129.437 360.387,134.604 368.5,139.5C 369.574,140.885 370.907,142.051 372.5,143C 377.167,143.333 381.833,143.667 386.5,144C 386.043,144.414 385.709,144.914 385.5,145.5C 382.5,146.167 379.5,146.833 376.5,147.5C 376.137,148.183 375.804,148.85 375.5,149.5C 374.833,149.5 374.167,149.5 373.5,149.5C 371.712,148.378 369.712,148.211 367.5,149C 369.345,150.128 371.345,150.628 373.5,150.5C 377.093,154.502 377.426,158.835 374.5,163.5C 373.094,163.973 372.427,164.973 372.5,166.5C 372.727,168.933 371.727,170.599 369.5,171.5C 365.821,171.724 362.154,172.058 358.5,172.5C 358.82,175.898 358.487,179.232 357.5,182.5C 352.873,184.014 349.54,182.514 347.5,178C 349.262,175.416 350.262,172.583 350.5,169.5C 350.693,166.467 349.359,164.801 346.5,164.5C 343.68,159.115 343.013,159.448 344.5,165.5C 343.769,165.942 342.769,166.109 341.5,166C 337.599,170.307 334.599,175.14 332.5,180.5C 331.326,181.514 330.66,182.847 330.5,184.5C 328.321,183.897 326.154,183.23 324,182.5C 323.503,179.854 323.336,177.187 323.5,174.5C 320.017,175.084 317.017,174.251 314.5,172C 310.848,171.501 307.182,171.335 303.5,171.5C 303.747,174.939 303.414,178.272 302.5,181.5C 302.082,182.222 301.416,182.722 300.5,183C 296.848,183.499 293.182,183.665 289.5,183.5C 282.716,181.853 275.716,181.353 268.5,182C 264.836,182.917 261.67,184.75 259,187.5C 257.872,189.345 257.372,191.345 257.5,193.5C 256.833,193.833 256.167,194.167 255.5,194.5C 252.169,194.578 249.502,195.245 247.5,196.5C 247.5,197.5 247.5,198.5 247.5,199.5C 244.706,201.962 242.706,204.962 241.5,208.5C 243.604,212.185 243.938,216.019 242.5,220C 242.667,220.833 242.833,221.667 243,222.5C 246.744,225.738 249.91,229.405 252.5,233.5C 248.285,235.436 243.619,236.103 238.5,235.5C 237.194,233.527 235.527,231.861 233.5,230.5C 233.5,230.167 233.5,229.833 233.5,229.5C 232.32,227.087 230.32,226.087 227.5,226.5C 227.167,226.5 226.833,226.5 226.5,226.5C 226.508,223.455 226.841,220.455 227.5,217.5C 228.924,215.485 229.59,213.152 229.5,210.5C 229.5,209.833 229.5,209.167 229.5,208.5C 230.16,207.036 230.493,205.369 230.5,203.5C 230.618,200.514 229.952,197.848 228.5,195.5C 228.004,190.437 229.004,185.437 231.5,180.5C 229.905,179.566 228.239,179.566 226.5,180.5C 218.395,182.549 210.228,184.549 202,186.5C 200.167,186.167 198.333,185.833 196.5,185.5C 191.245,183.656 189.078,179.99 190,174.5C 190.308,173.692 190.808,173.025 191.5,172.5C 192.288,173.77 193.288,174.77 194.5,175.5C 204.431,179.404 213.764,178.07 222.5,171.5C 229.431,163.065 237.431,155.898 246.5,150C 255.59,145.791 264.923,142.125 274.5,139C 276.847,138.666 279.181,138.833 281.5,139.5C 281.425,142.206 281.092,144.873 280.5,147.5C 281.601,148.598 282.934,148.765 284.5,148C 283.577,145.959 283.244,143.792 283.5,141.5C 285.002,139.171 284.336,137.837 281.5,137.5C 276.431,135.943 271.098,135.276 265.5,135.5C 261.319,135.501 257.319,135.834 253.5,136.5C 247.246,137.695 240.913,137.362 234.5,135.5C 234.918,134.778 235.584,134.278 236.5,134C 246.849,133.832 257.183,133.332 267.5,132.5C 263.555,131.509 259.555,131.176 255.5,131.5C 251.298,131.183 247.298,131.517 243.5,132.5C 243.167,132.5 242.833,132.5 242.5,132.5C 241.791,131.596 240.791,131.263 239.5,131.5C 233.833,131.5 228.167,131.5 222.5,131.5C 217.782,131.31 214.115,129.31 211.5,125.5C 212.167,125.5 212.833,125.5 213.5,125.5C 225.757,125.641 238.091,125.308 250.5,124.5C 237.517,123.501 224.517,123.168 211.5,123.5C 207.665,122.9 203.999,121.566 200.5,119.5C 199.614,118.675 199.281,117.675 199.5,116.5C 212.83,116.046 226.163,115.712 239.5,115.5C 239.657,114.127 239.49,112.793 239,111.5C 238.586,111.957 238.086,112.291 237.5,112.5C 233.527,111.761 229.527,111.095 225.5,110.5C 219.315,112.741 213.315,112.908 207.5,111C 213.397,110.85 219.063,109.85 224.5,108C 213.818,107.832 203.151,107.332 192.5,106.5C 197.132,105.672 201.798,105.172 206.5,105C 199.848,103.499 193.181,103.165 186.5,104C 186.167,103.667 185.833,103.333 185.5,103C 187.246,102.529 188.913,101.862 190.5,101C 216.061,101.253 241.561,102.753 267,105.5C 269.216,105.347 271.383,105.014 273.5,104.5 Z"/></g>
<g><path style="opacity:0.086" fill="#91afe1" d="M 195.5,114.5 C 195.5,114.167 195.5,113.833 195.5,113.5C 204.375,113.792 213.208,113.458 222,112.5C 226.795,113.254 231.628,113.754 236.5,114C 222.837,114.5 209.171,114.667 195.5,114.5 Z"/></g>
<g><path style="opacity:0.151" fill="#5b73a1" d="M 206.5,123.5 C 208.167,123.5 209.833,123.5 211.5,123.5C 224.517,123.168 237.517,123.501 250.5,124.5C 238.091,125.308 225.757,125.641 213.5,125.5C 212.833,124.167 212.167,124.167 211.5,125.5C 209.597,125.204 207.93,124.537 206.5,123.5 Z"/></g>
<g><path style="opacity:0.114" fill="#5b7098" d="M 222.5,131.5 C 228.167,131.5 233.833,131.5 239.5,131.5C 240.209,132.404 241.209,132.737 242.5,132.5C 242.833,132.5 243.167,132.5 243.5,132.5C 247.702,132.817 251.702,132.483 255.5,131.5C 259.555,131.176 263.555,131.509 267.5,132.5C 257.183,133.332 246.849,133.832 236.5,134C 235.584,134.278 234.918,134.778 234.5,135.5C 230.724,133.555 226.724,132.221 222.5,131.5 Z"/></g>
<g><path style="opacity:1" fill="#244177" d="M 287.5,107.5 C 295.575,109.083 302.575,112.75 308.5,118.5C 310.118,122.644 310.951,126.978 311,131.5C 313.104,127.768 314.604,123.768 315.5,119.5C 318.708,118.198 322.041,117.531 325.5,117.5C 323.159,119.493 320.325,120.826 317,121.5C 316.333,122.833 316.333,124.167 317,125.5C 320.054,127.123 319.554,127.79 315.5,127.5C 315.383,129.484 316.05,131.15 317.5,132.5C 316.045,134.22 315.212,136.22 315,138.5C 314.333,139.167 313.667,139.833 313,140.5C 313.155,138.189 313.155,135.856 313,133.5C 311.062,136.39 308.895,139.056 306.5,141.5C 306.167,140.833 305.833,140.167 305.5,139.5C 307.932,134.316 308.432,128.983 307,123.5C 303.565,123.949 299.899,123.949 296,123.5C 295.5,123.667 295,123.833 294.5,124C 296.002,124.583 297.335,125.416 298.5,126.5C 298.154,127.696 297.654,127.696 297,126.5C 296.481,127.516 295.647,128.182 294.5,128.5C 292.5,128.5 291.5,127.5 291.5,125.5C 292.754,123.666 293.421,121.666 293.5,119.5C 295.826,120.151 298.159,120.818 300.5,121.5C 301.5,121.167 302.5,120.833 303.5,120.5C 302.121,114.691 298.621,112.357 293,113.5C 290.91,111.584 289.077,109.584 287.5,107.5 Z"/></g>
<g><path style="opacity:0.184" fill="#657a9a" d="M 253.5,136.5 C 257.319,135.834 261.319,135.501 265.5,135.5C 271.098,135.276 276.431,135.943 281.5,137.5C 272.195,136.646 262.861,136.313 253.5,136.5 Z"/></g>
<g><path style="opacity:0.594" fill="#4a5a83" d="M 368.5,139.5 C 372.991,141.139 377.658,142.139 382.5,142.5C 386.531,141.492 390.531,141.492 394.5,142.5C 388.997,147.002 382.664,149.335 375.5,149.5C 375.804,148.85 376.137,148.183 376.5,147.5C 379.5,146.833 382.5,146.167 385.5,145.5C 385.709,144.914 386.043,144.414 386.5,144C 381.833,143.667 377.167,143.333 372.5,143C 370.907,142.051 369.574,140.885 368.5,139.5 Z"/></g>
<g><path style="opacity:0.073" fill="#94acca" d="M 283.5,141.5 C 283.244,143.792 283.577,145.959 284.5,148C 282.934,148.765 281.601,148.598 280.5,147.5C 282.06,145.844 283.06,143.844 283.5,141.5 Z"/></g>
<g><path style="opacity:0.149" fill="#8ba2d8" d="M 373.5,149.5 C 373.5,149.833 373.5,150.167 373.5,150.5C 371.345,150.628 369.345,150.128 367.5,149C 369.712,148.211 371.712,148.378 373.5,149.5 Z"/></g>
<g><path style="opacity:0.992" fill="#344b73" d="M 199.5,159.5 C 199.461,158.417 199.127,157.417 198.5,156.5C 200.737,155.868 202.403,154.535 203.5,152.5C 200.844,151.386 198.177,151.386 195.5,152.5C 195.414,151.504 195.748,150.671 196.5,150C 199.96,149.015 203.294,148.848 206.5,149.5C 205.804,153.881 203.471,157.214 199.5,159.5 Z"/></g>
<g><path style="opacity:0.027" fill="#8bafd1" d="M 346.5,164.5 C 346.5,164.833 346.5,165.167 346.5,165.5C 345.833,165.5 345.167,165.5 344.5,165.5C 343.013,159.448 343.68,159.115 346.5,164.5 Z"/></g>
<g><path style="opacity:0.039" fill="#a8b8ce" d="M 374.5,163.5 C 374.573,165.027 373.906,166.027 372.5,166.5C 372.427,164.973 373.094,163.973 374.5,163.5 Z"/></g>
<g><path style="opacity:0.047" fill="#7187ad" d="M 318.5,176.5 C 319.496,176.414 320.329,176.748 321,177.5C 321.78,179.387 321.613,181.054 320.5,182.5C 320.747,180.142 320.081,178.142 318.5,176.5 Z"/></g>
<g><path style="opacity:0.102" fill="#8db1cd" d="M 332.5,180.5 C 332.598,182.553 331.931,184.22 330.5,185.5C 330.5,185.167 330.5,184.833 330.5,184.5C 330.66,182.847 331.326,181.514 332.5,180.5 Z"/></g>
<g><path style="opacity:0.6" fill="#384e78" d="M 346.5,164.5 C 349.359,164.801 350.693,166.467 350.5,169.5C 350.262,172.583 349.262,175.416 347.5,178C 349.54,182.514 352.873,184.014 357.5,182.5C 358.487,179.232 358.82,175.898 358.5,172.5C 362.154,172.058 365.821,171.724 369.5,171.5C 369.586,172.496 369.252,173.329 368.5,174C 362.827,175.166 359.827,178.666 359.5,184.5C 345.248,186.934 341.582,181.934 348.5,169.5C 347.82,168.14 347.153,166.807 346.5,165.5C 346.5,165.167 346.5,164.833 346.5,164.5 Z"/></g>
<g><path style="opacity:0.918" fill="#4f5f8a" d="M 289.5,183.5 C 285.453,183.695 281.453,183.362 277.5,182.5C 269.179,183.65 262.513,187.317 257.5,193.5C 257.372,191.345 257.872,189.345 259,187.5C 261.67,184.75 264.836,182.917 268.5,182C 275.716,181.353 282.716,181.853 289.5,183.5 Z"/></g>
<g><path style="opacity:0.618" fill="#3b507d" d="M 199.5,159.5 C 193.388,163.501 191.721,168.834 194.5,175.5C 193.288,174.77 192.288,173.77 191.5,172.5C 190.808,173.025 190.308,173.692 190,174.5C 189.078,179.99 191.245,183.656 196.5,185.5C 198.333,185.833 200.167,186.167 202,186.5C 210.228,184.549 218.395,182.549 226.5,180.5C 222.414,182.752 218.081,184.418 213.5,185.5C 211.447,185.402 209.78,186.069 208.5,187.5C 190.68,189.623 184.346,181.957 189.5,164.5C 189.113,159.49 191.113,155.49 195.5,152.5C 198.177,151.386 200.844,151.386 203.5,152.5C 202.403,154.535 200.737,155.868 198.5,156.5C 199.127,157.417 199.461,158.417 199.5,159.5 Z"/></g>
<g><path style="opacity:0.039" fill="#a3afc5" d="M 213.5,185.5 C 212.22,186.931 210.553,187.598 208.5,187.5C 209.78,186.069 211.447,185.402 213.5,185.5 Z"/></g>
<g><path style="opacity:0.835" fill="#576d90" d="M 255.5,194.5 C 253.178,196.664 250.511,198.331 247.5,199.5C 247.5,198.5 247.5,197.5 247.5,196.5C 249.502,195.245 252.169,194.578 255.5,194.5 Z"/></g>
<g><path style="opacity:0.945" fill="#2e4063" d="M 315.5,213.5 C 315.586,212.504 315.252,211.671 314.5,211C 315.793,210.51 317.127,210.343 318.5,210.5C 316.66,205.265 314.66,205.265 312.5,210.5C 311.264,209.754 309.93,209.421 308.5,209.5C 308.5,209.167 308.5,208.833 308.5,208.5C 314.98,206.007 320.646,202.341 325.5,197.5C 328.297,197.033 329.631,195.367 329.5,192.5C 330.404,191.791 330.737,190.791 330.5,189.5C 332.02,187.11 333.02,184.443 333.5,181.5C 336.05,181.561 337.55,182.894 338,185.5C 340.234,195.528 336.4,202.028 326.5,205C 322.957,208.049 319.291,210.882 315.5,213.5 Z"/></g>
<g><path style="opacity:1" fill="#213c71" d="M 330.5,184.5 C 330.5,184.833 330.5,185.167 330.5,185.5C 330.5,186.833 330.5,188.167 330.5,189.5C 329.596,190.209 329.263,191.209 329.5,192.5C 328.197,194.142 326.864,195.809 325.5,197.5C 323.712,197.215 322.045,197.548 320.5,198.5C 316.429,201.852 312.429,205.185 308.5,208.5C 305.833,208.833 305.833,209.167 308.5,209.5C 309.93,209.421 311.264,209.754 312.5,210.5C 314.66,205.265 316.66,205.265 318.5,210.5C 317.127,210.343 315.793,210.51 314.5,211C 315.252,211.671 315.586,212.504 315.5,213.5C 315.167,213.5 314.833,213.5 314.5,213.5C 312.061,214.053 309.727,214.053 307.5,213.5C 304.972,214.498 304.972,215.331 307.5,216C 306.552,216.483 305.552,216.649 304.5,216.5C 304.5,214.833 304.5,213.167 304.5,211.5C 304.167,210.167 303.833,210.167 303.5,211.5C 302.391,211.557 301.391,211.89 300.5,212.5C 298.952,212.179 298.285,211.179 298.5,209.5C 299.197,205.044 300.364,200.71 302,196.5C 309.717,193.891 315.883,189.224 320.5,182.5C 321.613,181.054 321.78,179.387 321,177.5C 320.329,176.748 319.496,176.414 318.5,176.5C 314.434,175.588 310.434,174.754 306.5,174C 311.833,176.333 311.833,178.667 306.5,181C 305.207,181.49 303.873,181.657 302.5,181.5C 303.414,178.272 303.747,174.939 303.5,171.5C 307.182,171.335 310.848,171.501 314.5,172C 317.017,174.251 320.017,175.084 323.5,174.5C 323.336,177.187 323.503,179.854 324,182.5C 326.154,183.23 328.321,183.897 330.5,184.5 Z"/></g>
<g><path style="opacity:0.98" fill="#3e4d6c" d="M 228.5,195.5 C 229.952,197.848 230.618,200.514 230.5,203.5C 230.493,205.369 230.16,207.036 229.5,208.5C 228.662,208.842 228.328,209.508 228.5,210.5C 228.737,211.791 228.404,212.791 227.5,213.5C 227.799,211.396 227.466,209.396 226.5,207.5C 225.473,206.209 224.473,206.209 223.5,207.5C 225.992,201.285 227.825,201.285 229,207.5C 229.357,203.49 229.19,199.49 228.5,195.5 Z"/></g>
<g><path style="opacity:0.008" fill="#dee1e7" d="M 298.5,209.5 C 298.285,211.179 298.952,212.179 300.5,212.5C 299.791,213.404 298.791,213.737 297.5,213.5C 297.232,211.901 297.566,210.568 298.5,209.5 Z"/></g>
<g><path style="opacity:0.094" fill="#9cb9db" d="M 228.5,210.5 C 228.833,210.5 229.167,210.5 229.5,210.5C 229.59,213.152 228.924,215.485 227.5,217.5C 227.167,217.5 226.833,217.5 226.5,217.5C 226.5,216.5 226.5,215.5 226.5,214.5C 227.167,214.5 227.5,214.167 227.5,213.5C 228.404,212.791 228.737,211.791 228.5,210.5 Z"/></g>
<g><path style="opacity:0.922" fill="#415371" d="M 303.5,211.5 C 303.833,211.5 304.167,211.5 304.5,211.5C 304.5,213.167 304.5,214.833 304.5,216.5C 305.552,216.649 306.552,216.483 307.5,216C 304.972,215.331 304.972,214.498 307.5,213.5C 309.727,214.053 312.061,214.053 314.5,213.5C 311.6,216.786 307.933,218.786 303.5,219.5C 303.5,216.833 303.5,214.167 303.5,211.5 Z"/></g>
<g><path style="opacity:1" fill="#0b2955" d="M 227.5,213.5 C 227.5,214.167 227.167,214.5 226.5,214.5C 225.369,213.798 225.036,215.132 225.5,218.5C 224.5,218.5 223.5,218.5 222.5,218.5C 223.263,221.141 223.43,223.808 223,226.5C 220,226.167 218.333,224.5 218,221.5C 216.951,222.517 215.784,222.684 214.5,222C 215.989,218.365 217.656,214.865 219.5,211.5C 220.5,209.833 221.833,208.5 223.5,207.5C 224.473,206.209 225.473,206.209 226.5,207.5C 227.466,209.396 227.799,211.396 227.5,213.5 Z"/></g>
<g><path style="opacity:0.996" fill="#2b3a61" d="M 219.5,211.5 C 217.656,214.865 215.989,218.365 214.5,222C 215.784,222.684 216.951,222.517 218,221.5C 218.333,224.5 220,226.167 223,226.5C 223.43,223.808 223.263,221.141 222.5,218.5C 223.5,218.5 224.5,218.5 225.5,218.5C 225.036,215.132 225.369,213.798 226.5,214.5C 226.5,215.5 226.5,216.5 226.5,217.5C 225.7,219.607 225.033,221.774 224.5,224C 224.684,225.376 225.351,226.209 226.5,226.5C 226.5,227.167 226.833,227.5 227.5,227.5C 228.391,228.11 229.391,228.443 230.5,228.5C 230.833,228.5 231.167,228.5 231.5,228.5C 231.5,229.167 231.833,229.5 232.5,229.5C 232.5,229.833 232.5,230.167 232.5,230.5C 232.5,231.5 232.5,232.5 232.5,233.5C 228.498,233.964 224.831,233.298 221.5,231.5C 221.141,229.629 220.141,228.129 218.5,227C 211.52,225.835 209.854,222.335 213.5,216.5C 215.247,214.41 217.247,212.743 219.5,211.5 Z"/></g>
<g><path style="opacity:0.094" fill="#a4badf" d="M 227.5,227.5 C 227.5,227.167 227.5,226.833 227.5,226.5C 230.32,226.087 232.32,227.087 233.5,229.5C 233.167,229.5 232.833,229.5 232.5,229.5C 231.833,229.5 231.5,229.167 231.5,228.5C 231.167,227.167 230.833,227.167 230.5,228.5C 229.391,228.443 228.391,228.11 227.5,227.5 Z"/></g>
<g><path style="opacity:0.667" fill="#5e7093" d="M 92.5,230.5 C 90.8333,230.5 89.1667,230.5 87.5,230.5C 88.4987,235.328 88.4987,239.995 87.5,244.5C 86.994,239.477 86.3273,234.477 85.5,229.5C 88.0593,229.198 90.3926,229.532 92.5,230.5 Z"/></g>
<g><path style="opacity:0.231" fill="#6b7594" d="M 232.5,230.5 C 232.833,230.5 233.167,230.5 233.5,230.5C 233.5,231.833 233.5,233.167 233.5,234.5C 229.5,234.5 225.5,234.5 221.5,234.5C 221.5,233.5 221.5,232.5 221.5,231.5C 224.831,233.298 228.498,233.964 232.5,233.5C 232.5,232.5 232.5,231.5 232.5,230.5 Z"/></g>
<g><path style="opacity:1" fill="#0f3773" d="M 474.5,231.5 C 474.5,232.833 474.5,234.167 474.5,235.5C 471.813,235.336 469.146,235.503 466.5,236C 464.013,238.666 464.013,241.166 466.5,243.5C 469.263,242.944 472.263,242.778 475.5,243C 476.38,244.356 476.714,245.856 476.5,247.5C 473.6,247.28 470.933,247.946 468.5,249.5C 467.572,250.768 467.405,252.101 468,253.5C 471.76,254.357 475.594,254.357 479.5,253.5C 479.5,255.5 479.5,257.5 479.5,259.5C 479.167,259.5 478.833,259.5 478.5,259.5C 473.5,258.833 468.5,258.167 463.5,257.5C 463.073,254.624 462.406,251.791 461.5,249C 461.164,247.97 460.497,247.47 459.5,247.5C 459.678,242.863 460.012,238.196 460.5,233.5C 465.066,232.184 469.732,231.517 474.5,231.5 Z"/></g>
<g><path style="opacity:0.784" fill="#41567a" d="M 474.5,231.5 C 469.732,231.517 465.066,232.184 460.5,233.5C 460.012,238.196 459.678,242.863 459.5,247.5C 457.287,242.755 456.621,237.755 457.5,232.5C 461.872,231.606 466.206,230.606 470.5,229.5C 472.333,229.585 473.666,230.252 474.5,231.5 Z"/></g>
<g><path style="opacity:0.988" fill="#485c84" d="M 112.5,242.5 C 112.261,240.533 112.594,238.699 113.5,237C 108.94,235.35 106.274,236.85 105.5,241.5C 104.234,242.362 102.901,243.029 101.5,243.5C 102.854,239.968 104.854,236.802 107.5,234C 110.502,234.158 113.502,234.658 116.5,235.5C 116.002,238.326 114.669,240.66 112.5,242.5 Z"/></g>
<g><path style="opacity:0.129" fill="#6c7e9b" d="M 252.5,233.5 C 254.233,234.008 254.566,234.841 253.5,236C 248.316,236.816 243.316,236.65 238.5,235.5C 243.619,236.103 248.285,235.436 252.5,233.5 Z"/></g>
<g><path style="opacity:0.118" fill="#7b88a6" d="M 474.5,231.5 C 475.461,233.265 475.795,235.265 475.5,237.5C 474.5,237.5 473.5,237.5 472.5,237.5C 473.167,236.833 473.833,236.167 474.5,235.5C 474.5,234.167 474.5,232.833 474.5,231.5 Z"/></g>
<g><path style="opacity:0.788" fill="#526185" d="M 451.5,241.5 C 450.064,239.917 448.398,238.417 446.5,237C 441.95,236.278 437.616,236.778 433.5,238.5C 434.058,237.21 435.058,236.377 436.5,236C 440.5,235.333 444.5,235.333 448.5,236C 451.747,236.991 452.747,238.825 451.5,241.5 Z"/></g>
<g><path style="opacity:0.863" fill="#41567f" d="M 474.5,235.5 C 473.833,236.167 473.167,236.833 472.5,237.5C 469.939,237.447 467.939,238.447 466.5,240.5C 469.802,241.228 473.135,241.395 476.5,241C 479.754,247.793 477.421,250.626 469.5,249.5C 469.5,250.833 469.5,252.167 469.5,253.5C 472.789,252.452 476.122,251.952 479.5,252C 480.814,254.605 480.814,257.105 479.5,259.5C 479.5,257.5 479.5,255.5 479.5,253.5C 475.594,254.357 471.76,254.357 468,253.5C 467.405,252.101 467.572,250.768 468.5,249.5C 470.933,247.946 473.6,247.28 476.5,247.5C 476.714,245.856 476.38,244.356 475.5,243C 472.263,242.778 469.263,242.944 466.5,243.5C 464.013,241.166 464.013,238.666 466.5,236C 469.146,235.503 471.813,235.336 474.5,235.5 Z"/></g>
<g><path style="opacity:0.894" fill="#5e6a8f" d="M 451.5,241.5 C 451.494,243.844 450.327,245.178 448,245.5C 446.301,245.613 445.134,244.947 444.5,243.5C 446.981,243.677 448.814,242.677 450,240.5C 450.383,241.056 450.883,241.389 451.5,241.5 Z"/></g>
<g><path style="opacity:1" fill="#1d3d76" d="M 451.5,241.5 C 450.883,241.389 450.383,241.056 450,240.5C 448.814,242.677 446.981,243.677 444.5,243.5C 443.167,243.5 441.833,243.5 440.5,243.5C 438.801,243.34 437.134,243.506 435.5,244C 435.47,247.966 435.636,252.133 436,256.5C 438.513,260.212 442.013,261.378 446.5,260C 447.416,259.626 448.25,259.126 449,258.5C 449.495,260.473 449.662,262.473 449.5,264.5C 446.998,264.749 444.498,265.083 442,265.5C 438.859,264.678 435.693,264.011 432.5,263.5C 426.398,257.404 425.231,250.404 429,242.5C 429.876,240.365 431.376,239.031 433.5,238.5C 437.616,236.778 441.95,236.278 446.5,237C 448.398,238.417 450.064,239.917 451.5,241.5 Z"/></g>
<g><path style="opacity:0.91" fill="#465c85" d="M 421.5,240.5 C 419.857,240.48 418.524,241.147 417.5,242.5C 416.833,247.167 416.167,251.833 415.5,256.5C 414.893,256.376 414.56,256.043 414.5,255.5C 415.833,254.833 415.833,254.167 414.5,253.5C 413.996,249.493 413.83,245.493 414,241.5C 416.439,239.502 418.939,239.169 421.5,240.5 Z"/></g>
<g><path style="opacity:0.847" fill="#49608b" d="M 170.5,275.5 C 170.644,265.787 171.311,256.12 172.5,246.5C 170.856,246.286 169.356,246.62 168,247.5C 167.667,249.5 167.333,251.5 167,253.5C 166.617,254.056 166.117,254.389 165.5,254.5C 165.335,251.482 165.502,248.482 166,245.5C 166.5,245 167,244.5 167.5,244C 169.788,244.053 172.121,244.386 174.5,245C 175.022,245.561 175.355,246.228 175.5,247C 174.082,256.684 172.415,266.184 170.5,275.5 Z"/></g>
<g><path style="opacity:1" fill="#3c5382" d="M 412.5,253.5 C 410.9,252.748 409.4,251.748 408,250.5C 408.772,254.09 409.605,257.757 410.5,261.5C 412.143,261.48 413.476,262.147 414.5,263.5C 415.428,261.665 416.594,261.332 418,262.5C 416.885,265.76 417.385,268.76 419.5,271.5C 414.913,267.743 410.746,263.41 407,258.5C 407.679,263.423 408.179,268.423 408.5,273.5C 405.551,274.013 402.718,274.013 400,273.5C 397.953,263.57 396.453,253.57 395.5,243.5C 398.493,242.865 401.493,242.699 404.5,243C 407.407,246.395 410.073,249.895 412.5,253.5 Z"/></g>
<g><path style="opacity:0.8" fill="#55668c" d="M 384.5,253.5 C 386.185,251.182 388.519,250.182 391.5,250.5C 391.5,248.833 391.5,247.167 391.5,245.5C 389.167,245.5 386.833,245.5 384.5,245.5C 390.309,241.587 393.642,243.253 394.5,250.5C 391.479,252.423 388.146,253.423 384.5,253.5 Z"/></g>
<g><path style="opacity:1" fill="#153a75" d="M 92.5,230.5 C 93.4959,230.414 94.3292,230.748 95,231.5C 95.6763,236.925 96.6763,242.259 98,247.5C 98.9487,245.907 100.115,244.574 101.5,243.5C 102.901,243.029 104.234,242.362 105.5,241.5C 106.274,236.85 108.94,235.35 113.5,237C 112.594,238.699 112.261,240.533 112.5,242.5C 112.167,243.167 111.833,243.833 111.5,244.5C 110.178,244.33 109.011,244.663 108,245.5C 106.923,248.283 105.256,250.617 103,252.5C 102.517,253.448 102.351,254.448 102.5,255.5C 98.7104,255.008 98.0437,255.841 100.5,258C 98.5614,258.908 97.5614,260.408 97.5,262.5C 95.8297,262.249 94.3297,261.582 93,260.5C 91.9406,255.133 90.4406,250.133 88.5,245.5C 87.8333,245.5 87.5,245.167 87.5,244.5C 88.4987,239.995 88.4987,235.328 87.5,230.5C 89.1667,230.5 90.8333,230.5 92.5,230.5 Z"/></g>
<g><path style="opacity:1" fill="#193c75" d="M 190.5,247.5 C 199.112,250.322 202.612,256.322 201,265.5C 200.4,267.91 199.234,269.91 197.5,271.5C 193.298,272.763 189.631,274.763 186.5,277.5C 185.5,277.5 184.5,277.5 183.5,277.5C 181.444,276.784 179.277,276.117 177,275.5C 176.833,273.167 176.667,270.833 176.5,268.5C 177.61,261.866 178.444,255.199 179,248.5C 182.73,247.54 186.563,247.207 190.5,247.5 Z M 187.5,268.5 C 186.609,269.11 185.609,269.443 184.5,269.5C 184.45,264.448 184.95,259.448 186,254.5C 191.069,256.52 192.735,260.187 191,265.5C 189.961,266.71 188.794,267.71 187.5,268.5 Z"/></g>
<g><path style="opacity:0.922" fill="#475d87" d="M 187.5,268.5 C 188.794,267.71 189.961,266.71 191,265.5C 192.735,260.187 191.069,256.52 186,254.5C 184.95,259.448 184.45,264.448 184.5,269.5C 183.511,264.025 183.178,258.358 183.5,252.5C 186.238,252.851 188.904,253.518 191.5,254.5C 192.493,259.12 192.827,263.786 192.5,268.5C 190.602,269.096 188.935,269.096 187.5,268.5 Z M 187.5,268.5 C 186.609,269.11 185.609,269.443 184.5,269.5C 184.45,264.448 184.95,259.448 186,254.5C 191.069,256.52 192.735,260.187 191,265.5C 189.961,266.71 188.794,267.71 187.5,268.5 Z"/></g>
<g><path style="opacity:0.99" fill="#3d527d" d="M 323.5,264.5 C 322.883,264.611 322.383,264.944 322,265.5C 320.5,262.161 319,258.827 317.5,255.5C 315.49,253.829 313.157,253.162 310.5,253.5C 309.058,257.394 307.891,261.394 307,265.5C 305.595,266.731 304.429,268.064 303.5,269.5C 304.752,262.908 307.086,256.741 310.5,251C 313.466,250.105 316.133,250.605 318.5,252.5C 320.23,256.533 321.896,260.533 323.5,264.5 Z"/></g>
<g><path style="opacity:0.655" fill="#55698e" d="M 342.5,271.5 C 340.586,265.919 339.42,259.919 339,253.5C 337.688,251.342 336.022,251.009 334,252.5C 334.183,261.815 334.349,271.148 334.5,280.5C 333.027,270.677 332.194,260.677 332,250.5C 335,249.167 338,249.167 341,250.5C 341.666,257.493 342.166,264.493 342.5,271.5 Z"/></g>
<g><path style="opacity:1" fill="#334e7f" d="M 134.5,255.5 C 134.5,256.167 134.5,256.833 134.5,257.5C 132.738,257.643 131.071,257.309 129.5,256.5C 128.915,260.846 129.249,265.179 130.5,269.5C 128.031,268.393 127.031,266.393 127.5,263.5C 125.139,263.326 122.806,262.993 120.5,262.5C 122.698,261.835 125.031,261.168 127.5,260.5C 126.833,259.833 126.167,259.167 125.5,258.5C 126.641,257.575 126.641,256.741 125.5,256C 124.207,255.51 122.873,255.343 121.5,255.5C 122.681,247.346 125.348,246.679 129.5,253.5C 130.72,253.113 131.387,252.28 131.5,251C 130.667,247.502 129.834,244.002 129,240.5C 128.261,239.426 127.261,238.759 126,238.5C 123.907,240.348 122.574,242.681 122,245.5C 117.124,249.046 113.791,253.713 112,259.5C 110.887,260.305 109.721,260.972 108.5,261.5C 113.018,253.639 117.685,245.806 122.5,238C 125.993,236.996 129.159,237.496 132,239.5C 133.366,244.76 134.199,250.093 134.5,255.5 Z M 124.5,251.5 C 125.776,252.386 125.776,253.386 124.5,254.5C 123.438,253.575 123.438,252.575 124.5,251.5 Z"/></g>
<g><path style="opacity:0.8" fill="#495d85" d="M 88.5,245.5 C 90.4406,250.133 91.9406,255.133 93,260.5C 94.3297,261.582 95.8297,262.249 97.5,262.5C 95.497,263.532 93.497,263.198 91.5,261.5C 89.9439,256.275 88.9439,250.941 88.5,245.5 Z"/></g>
<g><path style="opacity:1" fill="#193a76" d="M 120.5,262.5 C 119.883,262.389 119.383,262.056 119,261.5C 116.004,266.921 111.837,267.921 106.5,264.5C 106.942,263.261 107.609,262.261 108.5,261.5C 109.721,260.972 110.887,260.305 112,259.5C 113.791,253.713 117.124,249.046 122,245.5C 122.574,242.681 123.907,240.348 126,238.5C 127.261,238.759 128.261,239.426 129,240.5C 129.834,244.002 130.667,247.502 131.5,251C 131.387,252.28 130.72,253.113 129.5,253.5C 125.348,246.679 122.681,247.346 121.5,255.5C 122.873,255.343 124.207,255.51 125.5,256C 126.641,256.741 126.641,257.575 125.5,258.5C 126.167,259.167 126.833,259.833 127.5,260.5C 125.031,261.168 122.698,261.835 120.5,262.5 Z"/></g>
<g><path style="opacity:0.996" fill="#143873" d="M 456.5,250.5 C 456.587,253.739 455.92,256.739 454.5,259.5C 453.5,259.5 452.5,259.5 451.5,259.5C 450.951,257.099 450.118,254.765 449,252.5C 445.908,254.182 443.741,253.349 442.5,250C 445.191,249.844 447.524,249.011 449.5,247.5C 451.352,246.911 453.185,246.244 455,245.5C 456.269,246.905 456.769,248.571 456.5,250.5 Z"/></g>
<g><path style="opacity:0.639" fill="#4f648c" d="M 379.5,245.5 C 378.377,248.317 377.71,251.317 377.5,254.5C 378.021,261.522 378.688,268.522 379.5,275.5C 382.167,275.5 384.833,275.5 387.5,275.5C 384.484,277.068 381.317,277.401 378,276.5C 376.531,266.948 375.031,257.448 373.5,248C 374.978,245.961 376.978,245.128 379.5,245.5 Z"/></g>
<g><path style="opacity:1" fill="#3c5280" d="M 440.5,243.5 C 434.675,249.873 435.508,255.207 443,259.5C 449.15,256.654 448.65,255.32 441.5,255.5C 441.302,253.425 441.135,251.425 441,249.5C 443.621,248.009 446.455,247.342 449.5,247.5C 447.524,249.011 445.191,249.844 442.5,250C 443.741,253.349 445.908,254.182 449,252.5C 450.118,254.765 450.951,257.099 451.5,259.5C 452.5,259.5 453.5,259.5 454.5,259.5C 455.92,256.739 456.587,253.739 456.5,250.5C 457.911,260.784 453.244,266.451 442.5,267.5C 438.426,267.789 435.092,266.456 432.5,263.5C 435.693,264.011 438.859,264.678 442,265.5C 444.498,265.083 446.998,264.749 449.5,264.5C 449.662,262.473 449.495,260.473 449,258.5C 448.25,259.126 447.416,259.626 446.5,260C 442.013,261.378 438.513,260.212 436,256.5C 435.636,252.133 435.47,247.966 435.5,244C 437.134,243.506 438.801,243.34 440.5,243.5 Z"/></g>
<g><path style="opacity:1" fill="#394f80" d="M 459.5,247.5 C 460.497,247.47 461.164,247.97 461.5,249C 462.406,251.791 463.073,254.624 463.5,257.5C 468.5,258.167 473.5,258.833 478.5,259.5C 473.629,261.092 468.629,262.258 463.5,263C 461.459,258.039 460.126,252.872 459.5,247.5 Z"/></g>
<g><path style="opacity:0.396" fill="#4f638f" d="M 111.5,244.5 C 107.305,250.901 102.639,256.901 97.5,262.5C 97.5614,260.408 98.5614,258.908 100.5,258C 98.0437,255.841 98.7104,255.008 102.5,255.5C 102.351,254.448 102.517,253.448 103,252.5C 105.256,250.617 106.923,248.283 108,245.5C 109.011,244.663 110.178,244.33 111.5,244.5 Z"/></g>
<g><path style="opacity:1" fill="#103773" d="M 134.5,257.5 C 134.505,261.534 134.838,265.534 135.5,269.5C 134.167,269.5 132.833,269.5 131.5,269.5C 131.167,269.5 130.833,269.5 130.5,269.5C 129.249,265.179 128.915,260.846 129.5,256.5C 131.071,257.309 132.738,257.643 134.5,257.5 Z"/></g>
<g><path style="opacity:1" fill="#0e3874" d="M 396.5,245.5 C 396.56,244.957 396.893,244.624 397.5,244.5C 398.5,245.167 399.5,245.833 400.5,246.5C 401.258,245.189 402.258,244.689 403.5,245C 404.833,246.667 404.833,248.333 403.5,250C 405.065,252.126 405.399,254.292 404.5,256.5C 405.581,261.476 406.081,266.476 406,271.5C 404.301,272.406 402.467,272.739 400.5,272.5C 400.727,266.307 400.06,260.307 398.5,254.5C 398.532,252.241 398.866,250.075 399.5,248C 398.627,246.955 397.627,246.122 396.5,245.5 Z"/></g>
<g><path style="opacity:0.263" fill="#61718f" d="M 279.5,262.5 C 278.681,259.695 278.181,256.695 278,253.5C 276,252.167 274,252.167 272,253.5C 271.313,262.856 271.479,272.189 272.5,281.5C 274.5,281.5 276.5,281.5 278.5,281.5C 278.187,277.958 278.521,274.625 279.5,271.5C 279.665,275.182 279.499,278.848 279,282.5C 276.333,283.833 273.667,283.833 271,282.5C 269.828,272.468 269.662,262.468 270.5,252.5C 273.428,251.516 276.428,251.183 279.5,251.5C 279.5,255.167 279.5,258.833 279.5,262.5 Z"/></g>
<g><path style="opacity:1" fill="#103775" d="M 421.5,240.5 C 422.122,247.164 422.288,253.831 422,260.5C 420.633,259.476 419.8,259.976 419.5,262C 420.385,264.157 422.052,264.99 424.5,264.5C 424.85,267.453 423.85,269.787 421.5,271.5C 420.833,271.5 420.167,271.5 419.5,271.5C 417.385,268.76 416.885,265.76 418,262.5C 416.594,261.332 415.428,261.665 414.5,263.5C 413.476,262.147 412.143,261.48 410.5,261.5C 409.605,257.757 408.772,254.09 408,250.5C 409.4,251.748 410.9,252.748 412.5,253.5C 413.167,253.5 413.833,253.5 414.5,253.5C 414.5,254.167 414.5,254.833 414.5,255.5C 414.56,256.043 414.893,256.376 415.5,256.5C 416.167,251.833 416.833,247.167 417.5,242.5C 418.524,241.147 419.857,240.48 421.5,240.5 Z"/></g>
<g><path style="opacity:1" fill="#2e4879" d="M 421.5,240.5 C 423.721,249.094 425.388,257.928 426.5,267C 426.496,270.337 424.83,271.837 421.5,271.5C 423.85,269.787 424.85,267.453 424.5,264.5C 422.052,264.99 420.385,264.157 419.5,262C 419.8,259.976 420.633,259.476 422,260.5C 422.288,253.831 422.122,247.164 421.5,240.5 Z"/></g>
<g><path style="opacity:0.933" fill="#5c6c93" d="M 134.5,255.5 C 136.4,260.232 137.233,265.232 137,270.5C 135.004,271.341 133.171,271.008 131.5,269.5C 132.833,269.5 134.167,269.5 135.5,269.5C 134.838,265.534 134.505,261.534 134.5,257.5C 134.5,256.833 134.5,256.167 134.5,255.5 Z"/></g>
<g><path style="opacity:1" fill="#384f7c" d="M 254.5,259.5 C 248.56,263.559 248.226,268.059 253.5,273C 257.541,273.173 261.541,273.673 265.5,274.5C 266.374,276.747 266.708,279.08 266.5,281.5C 258.978,284.801 251.978,283.967 245.5,279C 244.177,278.184 243.511,277.017 243.5,275.5C 238.785,270.36 238.285,264.693 242,258.5C 249.015,250.165 257.348,248.499 267,253.5C 267.757,256.987 266.591,259.654 263.5,261.5C 260.724,259.87 257.724,259.203 254.5,259.5 Z"/></g>
<g><path style="opacity:1" fill="#0f3772" d="M 254.5,259.5 C 253.5,259.5 252.5,259.5 251.5,259.5C 250.094,254.082 252.094,251.748 257.5,252.5C 260.872,251.869 263.205,253.036 264.5,256C 264.095,256.945 263.428,257.612 262.5,258C 259.635,258.183 256.969,258.683 254.5,259.5 Z"/></g>
<g><path style="opacity:0.404" fill="#4f6389" d="M 354.5,248.5 C 356.156,258.093 357.156,267.76 357.5,277.5C 362.527,277.497 367.527,277.164 372.5,276.5C 372.33,270.436 369.663,269.103 364.5,272.5C 363.534,270.604 363.201,268.604 363.5,266.5C 364.161,267.718 364.828,269.051 365.5,270.5C 372.84,267.432 375.84,269.766 374.5,277.5C 369.67,278.118 364.837,278.785 360,279.5C 358.564,279.441 357.231,279.108 356,278.5C 354.786,268.952 353.619,259.452 352.5,250C 353.044,249.283 353.711,248.783 354.5,248.5 Z"/></g>
<g><path style="opacity:0.867" fill="#54678d" d="M 151.5,265.5 C 150.836,263.022 150.503,260.355 150.5,257.5C 150.464,252.383 151.131,247.383 152.5,242.5C 150.5,242.5 148.5,242.5 146.5,242.5C 145.982,251.979 144.649,261.313 142.5,270.5C 147.878,270.845 153.211,271.512 158.5,272.5C 158.727,269.562 157.727,267.229 155.5,265.5C 157.144,265.286 158.644,265.62 160,266.5C 160.758,268.769 160.591,270.936 159.5,273C 153.712,273.792 148.046,273.292 142.5,271.5C 142.199,261.801 143.032,252.134 145,242.5C 147.737,241.39 150.571,241.223 153.5,242C 154.059,242.725 154.392,243.558 154.5,244.5C 152.926,251.422 151.926,258.422 151.5,265.5 Z"/></g>
<g><path style="opacity:0.945" fill="#133973" d="M 151.5,265.5 C 152.833,265.5 154.167,265.5 155.5,265.5C 157.727,267.229 158.727,269.562 158.5,272.5C 153.211,271.512 147.878,270.845 142.5,270.5C 144.649,261.313 145.982,251.979 146.5,242.5C 148.5,242.5 150.5,242.5 152.5,242.5C 151.131,247.383 150.464,252.383 150.5,257.5C 150.503,260.355 150.836,263.022 151.5,265.5 Z"/></g>
<g><path style="opacity:0.569" fill="#586a91" d="M 165.5,255.5 C 165.233,261.838 164.9,268.171 164.5,274.5C 165.791,274.263 166.791,274.596 167.5,275.5C 164.739,276.085 163.073,275.085 162.5,272.5C 163.045,266.618 164.045,260.951 165.5,255.5 Z"/></g>
<g><path style="opacity:1" fill="#133975" d="M 323.5,264.5 C 325.159,269.83 326.826,275.163 328.5,280.5C 326.5,280.5 324.5,280.5 322.5,280.5C 322.714,278.856 322.38,277.356 321.5,276C 316.511,275.501 311.511,275.334 306.5,275.5C 307.575,279.938 305.908,281.938 301.5,281.5C 303,277.67 303.667,273.67 303.5,269.5C 304.429,268.064 305.595,266.731 307,265.5C 307.891,261.394 309.058,257.394 310.5,253.5C 313.157,253.162 315.49,253.829 317.5,255.5C 319,258.827 320.5,262.161 322,265.5C 322.383,264.944 322.883,264.611 323.5,264.5 Z M 313.5,265.5 C 314.289,265.783 314.956,266.283 315.5,267C 314.184,267.528 313.517,267.028 313.5,265.5 Z"/></g>
<g><path style="opacity:1" fill="#143972" d="M 170.5,275.5 C 169.5,275.5 168.5,275.5 167.5,275.5C 166.791,274.596 165.791,274.263 164.5,274.5C 164.9,268.171 165.233,261.838 165.5,255.5C 165.5,255.167 165.5,254.833 165.5,254.5C 166.117,254.389 166.617,254.056 167,253.5C 167.333,251.5 167.667,249.5 168,247.5C 169.356,246.62 170.856,246.286 172.5,246.5C 171.311,256.12 170.644,265.787 170.5,275.5 Z"/></g>
<g><path style="opacity:0.765" fill="#5c6f94" d="M 190.5,247.5 C 186.563,247.207 182.73,247.54 179,248.5C 178.444,255.199 177.61,261.866 176.5,268.5C 176.667,270.833 176.833,273.167 177,275.5C 179.277,276.117 181.444,276.784 183.5,277.5C 181.143,277.663 178.81,277.497 176.5,277C 175.342,275.991 174.675,274.658 174.5,273C 175.221,263.793 176.221,254.627 177.5,245.5C 182.122,245.156 186.455,245.823 190.5,247.5 Z"/></g>
<g><path style="opacity:1" fill="#143973" d="M 379.5,245.5 C 381.167,245.5 382.833,245.5 384.5,245.5C 386.833,245.5 389.167,245.5 391.5,245.5C 391.5,247.167 391.5,248.833 391.5,250.5C 388.519,250.182 386.185,251.182 384.5,253.5C 384.281,254.675 384.614,255.675 385.5,256.5C 388.421,255.593 391.421,255.26 394.5,255.5C 394.5,258.167 394.5,260.833 394.5,263.5C 391.518,263.963 388.518,264.296 385.5,264.5C 384.549,265.919 384.216,267.585 384.5,269.5C 387.786,268.793 391.119,268.46 394.5,268.5C 394.702,270.95 394.369,273.283 393.5,275.5C 391.5,275.5 389.5,275.5 387.5,275.5C 384.833,275.5 382.167,275.5 379.5,275.5C 378.688,268.522 378.021,261.522 377.5,254.5C 377.71,251.317 378.377,248.317 379.5,245.5 Z"/></g>
<g><path style="opacity:0.745" fill="#57698d" d="M 385.5,264.5 C 385.5,265.5 385.5,266.5 385.5,267.5C 389.167,267.5 392.833,267.5 396.5,267.5C 396.5,270.167 396.5,272.833 396.5,275.5C 395.5,275.5 394.5,275.5 393.5,275.5C 394.369,273.283 394.702,270.95 394.5,268.5C 391.119,268.46 387.786,268.793 384.5,269.5C 384.216,267.585 384.549,265.919 385.5,264.5 Z"/></g>
<g><path style="opacity:0.937" fill="#516994" d="M 197.5,271.5 C 194.873,275.315 191.206,277.315 186.5,277.5C 189.631,274.763 193.298,272.763 197.5,271.5 Z"/></g>
<g><path style="opacity:1" fill="#214078" d="M 342.5,271.5 C 345.833,271.5 349.167,271.5 352.5,271.5C 352.813,274.247 352.48,276.914 351.5,279.5C 346.524,280.221 341.524,280.888 336.5,281.5C 335.584,281.457 334.917,281.124 334.5,280.5C 334.349,271.148 334.183,261.815 334,252.5C 336.022,251.009 337.688,251.342 339,253.5C 339.42,259.919 340.586,265.919 342.5,271.5 Z"/></g>
<g><path style="opacity:0.933" fill="#203f77" d="M 363.5,266.5 C 363.201,268.604 363.534,270.604 364.5,272.5C 369.663,269.103 372.33,270.436 372.5,276.5C 367.527,277.164 362.527,277.497 357.5,277.5C 357.156,267.76 356.156,258.093 354.5,248.5C 356.895,247.186 359.395,247.186 362,248.5C 362.699,254.489 363.199,260.489 363.5,266.5 Z"/></g>
<g><path style="opacity:0.875" fill="#485b86" d="M 323.5,264.5 C 326.62,269.752 328.953,275.419 330.5,281.5C 327.482,281.665 324.482,281.498 321.5,281C 319.055,276.88 315.389,275.547 310.5,277C 308.64,282.066 304.973,283.899 299.5,282.5C 300.016,277.83 301.349,273.497 303.5,269.5C 303.667,273.67 303,277.67 301.5,281.5C 305.908,281.938 307.575,279.938 306.5,275.5C 311.511,275.334 316.511,275.501 321.5,276C 322.38,277.356 322.714,278.856 322.5,280.5C 324.5,280.5 326.5,280.5 328.5,280.5C 326.826,275.163 325.159,269.83 323.5,264.5 Z"/></g>
<g><path style="opacity:0.937" fill="#425783" d="M 220.5,261.5 C 217.5,261.5 214.5,261.5 211.5,261.5C 211.5,259.5 211.5,257.5 211.5,255.5C 214.833,255.5 218.167,255.5 221.5,255.5C 221.714,253.856 221.38,252.356 220.5,251C 215.845,250.501 211.179,250.334 206.5,250.5C 205.734,259.479 205.401,268.479 205.5,277.5C 210.13,278.229 214.797,278.563 219.5,278.5C 219.67,277.178 219.337,276.011 218.5,275C 216.167,274.667 213.833,274.333 211.5,274C 211.045,271.688 210.045,269.688 208.5,268C 212.211,267.825 215.878,267.325 219.5,266.5C 221.005,265.158 221.672,263.492 221.5,261.5C 224.111,269.213 221.445,271.547 213.5,268.5C 212.261,270.007 212.595,271.174 214.5,272C 221.32,270.728 223.654,273.228 221.5,279.5C 215.491,280.577 209.491,280.41 203.5,279C 202.978,278.439 202.645,277.772 202.5,277C 203.193,267.833 204.027,258.666 205,249.5C 211.113,248.617 217.279,248.783 223.5,250C 224.45,252.432 224.45,254.932 223.5,257.5C 220.167,257.5 216.833,257.5 213.5,257.5C 213.5,258.5 213.5,259.5 213.5,260.5C 216.059,260.198 218.393,260.532 220.5,261.5 Z"/></g>
<g><path style="opacity:1" fill="#0e3773" d="M 220.5,261.5 C 220.833,261.5 221.167,261.5 221.5,261.5C 221.672,263.492 221.005,265.158 219.5,266.5C 215.878,267.325 212.211,267.825 208.5,268C 210.045,269.688 211.045,271.688 211.5,274C 213.833,274.333 216.167,274.667 218.5,275C 219.337,276.011 219.67,277.178 219.5,278.5C 214.797,278.563 210.13,278.229 205.5,277.5C 205.401,268.479 205.734,259.479 206.5,250.5C 211.179,250.334 215.845,250.501 220.5,251C 221.38,252.356 221.714,253.856 221.5,255.5C 218.167,255.5 214.833,255.5 211.5,255.5C 211.5,257.5 211.5,259.5 211.5,261.5C 214.5,261.5 217.5,261.5 220.5,261.5 Z"/></g>
<g><path style="opacity:1" fill="#0e3775" d="M 243.5,275.5 C 243.29,270.802 243.124,266.136 243,261.5C 244,260.167 245,260.167 246,261.5C 246.833,260.5 247.667,259.5 248.5,258.5C 248.833,259.167 249.167,259.833 249.5,260.5C 246.73,265.689 247.064,270.522 250.5,275C 252.473,275.495 254.473,275.662 256.5,275.5C 256.494,278.548 257.494,279.048 259.5,277C 259.167,276.667 258.833,276.333 258.5,276C 260.473,275.505 262.473,275.338 264.5,275.5C 264.151,279.543 261.818,281.543 257.5,281.5C 252.435,280.359 247.768,278.359 243.5,275.5 Z"/></g>
<g><path style="opacity:0.996" fill="#2a4779" d="M 294.5,251.5 C 294.5,261.5 294.5,271.5 294.5,281.5C 292.167,281.5 289.833,281.5 287.5,281.5C 287.784,279.585 287.451,277.919 286.5,276.5C 286.5,274.833 286.5,273.167 286.5,271.5C 284.167,271.5 281.833,271.5 279.5,271.5C 278.521,274.625 278.187,277.958 278.5,281.5C 276.5,281.5 274.5,281.5 272.5,281.5C 271.479,272.189 271.313,262.856 272,253.5C 274,252.167 276,252.167 278,253.5C 278.181,256.695 278.681,259.695 279.5,262.5C 281.5,262.5 283.5,262.5 285.5,262.5C 285.335,259.15 285.502,255.817 286,252.5C 288.719,251.556 291.552,251.223 294.5,251.5 Z"/></g>
<g><path style="opacity:1" fill="#0c3773" d="M 274.5,254.5 C 276.396,257.46 277.396,260.793 277.5,264.5C 281.167,264.5 284.833,264.5 288.5,264.5C 288.5,261.167 288.5,257.833 288.5,254.5C 289.822,254.33 290.989,254.663 292,255.5C 292.5,263.827 292.666,272.16 292.5,280.5C 291.5,280.5 290.5,280.5 289.5,280.5C 289.5,276.833 289.5,273.167 289.5,269.5C 285.818,269.335 282.152,269.501 278.5,270C 277.544,273.394 277.211,276.894 277.5,280.5C 276.167,280.5 274.833,280.5 273.5,280.5C 273.255,271.792 273.589,263.126 274.5,254.5 Z"/></g>
<g><path style="opacity:0.412" fill="#7482a5" d="M 294.5,251.5 C 295.823,261.674 295.823,272.007 294.5,282.5C 288.54,284.855 285.873,282.855 286.5,276.5C 287.451,277.919 287.784,279.585 287.5,281.5C 289.833,281.5 292.167,281.5 294.5,281.5C 294.5,271.5 294.5,261.5 294.5,251.5 Z"/></g>
</svg>
