<?xml version="1.0" encoding="UTF-8"?>
<!DOCTYPE svg PUBLIC "-//W3C//DTD SVG 1.1//EN" "http://www.w3.org/Graphics/SVG/1.1/DTD/svg11.dtd">
<svg xmlns="http://www.w3.org/2000/svg" version="1.1" width="64px" height="64px" style="shape-rendering:geometricPrecision; text-rendering:geometricPrecision; image-rendering:optimizeQuality; fill-rule:evenodd; clip-rule:evenodd" xmlns:xlink="http://www.w3.org/1999/xlink">
<g><path style="opacity:0.978" fill="#fefffe" d="M 4.5,12.5 C 22.5031,12.3334 40.5031,12.5001 58.5,13C 59.6544,25.0908 59.8211,37.2575 59,49.5C 40.9069,50.6585 22.7403,50.8252 4.5,50C 3.17592,37.5001 3.17592,25.0001 4.5,12.5 Z M 7.5,14.5 C 23.5035,14.3334 39.5035,14.5001 55.5,15C 57.1554,16.4443 57.822,18.2776 57.5,20.5C 40.1667,20.5 22.8333,20.5 5.5,20.5C 5.2525,18.1417 5.91917,16.1417 7.5,14.5 Z M 5.5,29.5 C 22.8333,29.5 40.1667,29.5 57.5,29.5C 57.6661,35.1764 57.4994,40.8431 57,46.5C 56.5,47 56,47.5 55.5,48C 39.5,48.6667 23.5,48.6667 7.5,48C 7,47.5 6.5,47 6,46.5C 5.50058,40.8431 5.33391,35.1764 5.5,29.5 Z"/></g>
<g><path style="opacity:0.963" fill="#fefffe" d="M 9.5,38.5 C 14.2137,38.1734 18.8804,38.5067 23.5,39.5C 21.1667,39.8333 18.8333,40.1667 16.5,40.5C 13.7305,40.4714 11.3972,39.8048 9.5,38.5 Z"/></g>
<g><path style="opacity:0.951" fill="#fefffe" d="M 40.5,38.5 C 44.1667,38.5 47.8333,38.5 51.5,38.5C 51.5,40.8333 51.5,43.1667 51.5,45.5C 47.8333,45.5 44.1667,45.5 40.5,45.5C 40.5,43.1667 40.5,40.8333 40.5,38.5 Z"/></g>
<g><path style="opacity:0.975" fill="#fefffe" d="M 9.5,42.5 C 16.1998,42.17 22.8665,42.5033 29.5,43.5C 26.1667,43.8333 22.8333,44.1667 19.5,44.5C 15.7614,44.4864 12.428,43.8197 9.5,42.5 Z"/></g>
</svg>
