<?xml version="1.0" encoding="UTF-8"?>
<!DOCTYPE svg PUBLIC "-//W3C//DTD SVG 1.1//EN" "http://www.w3.org/Graphics/SVG/1.1/DTD/svg11.dtd">
<svg xmlns="http://www.w3.org/2000/svg" version="1.1" width="512px" height="512px" style="shape-rendering:geometricPrecision; text-rendering:geometricPrecision; image-rendering:optimizeQuality; fill-rule:evenodd; clip-rule:evenodd" xmlns:xlink="http://www.w3.org/1999/xlink">
<g><path style="opacity:0.995" fill="#2b71ff" d="M 511.5,44.5 C 511.5,153.833 511.5,263.167 511.5,372.5C 507.682,385.15 499.349,393.317 486.5,397C 375.5,397.333 264.5,397.667 153.5,398C 150.363,398.601 147.363,399.601 144.5,401C 102.342,430.913 60.0083,460.58 17.5,490C 10.0312,492.675 4.03117,490.842 -0.5,484.5C -0.5,337.833 -0.5,191.167 -0.5,44.5C 3.41949,31.4167 12.0862,23.2501 25.5,20C 178.833,19.3333 332.167,19.3333 485.5,20C 498.914,23.2501 507.581,31.4167 511.5,44.5 Z M 28.5,44.5 C 179.834,44.3333 331.167,44.5 482.5,45C 485.268,46.762 486.768,49.262 487,52.5C 487.667,156.833 487.667,261.167 487,365.5C 486.594,368.494 485.094,370.661 482.5,372C 370.474,372.014 258.474,372.681 146.5,374C 139.59,375.303 133.257,377.97 127.5,382C 93.3052,406.361 58.9719,430.528 24.5,454.5C 23.3333,320.168 23.1667,185.835 24,51.5C 24.9042,48.7666 26.4042,46.4333 28.5,44.5 Z"/></g>
<g><path style="opacity:0.988" fill="#2a71ff" d="M 101.5,122.5 C 173.167,122.333 244.834,122.5 316.5,123C 334.483,127.446 344.15,138.946 345.5,157.5C 344.098,175.487 334.764,186.987 317.5,192C 245.5,192.667 173.5,192.667 101.5,192C 83.517,187.554 73.8504,176.054 72.5,157.5C 73.9583,138.864 83.625,127.197 101.5,122.5 Z"/></g>
<g><path style="opacity:1" fill="#1649ff" d="M 104.5,146.5 C 173.501,146.333 242.501,146.5 311.5,147C 319.418,149.576 321.918,154.743 319,162.5C 317.337,164.917 315.171,166.75 312.5,168C 243.833,168.667 175.167,168.667 106.5,168C 97.6178,164.688 95.4511,158.855 100,150.5C 101.397,148.93 102.897,147.596 104.5,146.5 Z"/></g>
<g><path style="opacity:0.997" fill="#2a71ff" d="M 103.5,224.5 C 204.834,224.333 306.167,224.5 407.5,225C 426.038,229.042 436.371,240.542 438.5,259.5C 436.504,280.328 425.171,292.162 404.5,295C 304.167,295.667 203.833,295.667 103.5,295C 78.7577,288.353 69.2577,272.519 75,247.5C 80.5535,234.765 90.0535,227.098 103.5,224.5 Z"/></g>
<g><path style="opacity:1" fill="#1649ff" d="M 105.5,248.5 C 204.834,248.333 304.167,248.5 403.5,249C 411.616,251.057 414.783,256.224 413,264.5C 411.445,267.055 409.278,268.888 406.5,270C 305.833,270.667 205.167,270.667 104.5,270C 97.146,265.659 95.646,259.826 100,252.5C 101.812,251.023 103.645,249.69 105.5,248.5 Z"/></g>
</svg>
