<?xml version="1.0" encoding="UTF-8"?>
<!DOCTYPE svg PUBLIC "-//W3C//DTD SVG 1.1//EN" "http://www.w3.org/Graphics/SVG/1.1/DTD/svg11.dtd">
<svg xmlns="http://www.w3.org/2000/svg" version="1.1" width="512px" height="512px" style="shape-rendering:geometricPrecision; text-rendering:geometricPrecision; image-rendering:optimizeQuality; fill-rule:evenodd; clip-rule:evenodd" xmlns:xlink="http://www.w3.org/1999/xlink">
<g><path style="opacity:0.948" fill="#000000" d="M 18.5,-0.5 C 176.5,-0.5 334.5,-0.5 492.5,-0.5C 501.833,2.83333 508.167,9.16667 511.5,18.5C 511.5,176.5 511.5,334.5 511.5,492.5C 508.167,501.833 501.833,508.167 492.5,511.5C 334.5,511.5 176.5,511.5 18.5,511.5C 9.16667,508.167 2.83333,501.833 -0.5,492.5C -0.5,334.5 -0.5,176.5 -0.5,18.5C 2.83333,9.16667 9.16667,2.83333 18.5,-0.5 Z M 21.5,17.5 C 177.5,17.3333 333.5,17.5 489.5,18C 490.667,19.1667 491.833,20.3333 493,21.5C 493.5,36.8297 493.667,52.163 493.5,67.5C 334.833,67.5 176.167,67.5 17.5,67.5C 17.3334,52.163 17.5001,36.8297 18,21.5C 19.3756,20.2949 20.5423,18.9616 21.5,17.5 Z M 17.5,85.5 C 176.167,85.5 334.833,85.5 493.5,85.5C 493.667,220.167 493.5,354.834 493,489.5C 491.833,490.667 490.667,491.833 489.5,493C 333.5,493.667 177.5,493.667 21.5,493C 20.3333,491.833 19.1667,490.667 18,489.5C 17.5,354.834 17.3333,220.167 17.5,85.5 Z M 68.5,127.5 C 73.8333,127.5 79.1667,127.5 84.5,127.5C 84.5,150.167 84.5,172.833 84.5,195.5C 77.4112,195.884 70.4112,195.384 63.5,194C 61.5125,192.681 60.3459,190.848 60,188.5C 59.3333,170.5 59.3333,152.5 60,134.5C 61.4529,130.372 64.2863,128.039 68.5,127.5 Z M 102.5,127.5 C 126.219,127.04 149.886,127.54 173.5,129C 176.094,130.339 177.594,132.506 178,135.5C 178.667,152.833 178.667,170.167 178,187.5C 177.573,191.527 175.406,194.027 171.5,195C 148.502,195.5 125.502,195.667 102.5,195.5C 102.5,172.833 102.5,150.167 102.5,127.5 Z M 68.5,255.5 C 73.8333,255.5 79.1667,255.5 84.5,255.5C 84.5,278.167 84.5,300.833 84.5,323.5C 77.4112,323.884 70.4112,323.384 63.5,322C 61.5125,320.681 60.3459,318.848 60,316.5C 59.3333,298.5 59.3333,280.5 60,262.5C 61.4529,258.372 64.2863,256.039 68.5,255.5 Z M 102.5,255.5 C 126.219,255.04 149.886,255.54 173.5,257C 176.094,258.339 177.594,260.506 178,263.5C 178.667,280.833 178.667,298.167 178,315.5C 177.573,319.527 175.406,322.027 171.5,323C 148.502,323.5 125.502,323.667 102.5,323.5C 102.5,300.833 102.5,278.167 102.5,255.5 Z M 68.5,383.5 C 73.8333,383.5 79.1667,383.5 84.5,383.5C 84.5,406.167 84.5,428.833 84.5,451.5C 77.4112,451.884 70.4112,451.384 63.5,450C 61.5125,448.681 60.3459,446.848 60,444.5C 59.3333,426.5 59.3333,408.5 60,390.5C 61.4529,386.372 64.2863,384.039 68.5,383.5 Z M 102.5,383.5 C 126.219,383.04 149.886,383.54 173.5,385C 176.094,386.339 177.594,388.506 178,391.5C 178.667,408.833 178.667,426.167 178,443.5C 177.573,447.527 175.406,450.027 171.5,451C 148.502,451.5 125.502,451.667 102.5,451.5C 102.5,428.833 102.5,406.167 102.5,383.5 Z"/></g>
<g><path style="opacity:0.904" fill="#000000" d="M 46.5,33.5 C 52.1764,33.3339 57.8431,33.5006 63.5,34C 68.758,38.0981 69.5913,42.9314 66,48.5C 58.9451,52.2912 51.7784,52.4579 44.5,49C 40.4062,43.2111 41.0729,38.0444 46.5,33.5 Z"/></g>
<g><path style="opacity:0.903" fill="#000000" d="M 89.5,33.5 C 95.6208,33.0899 101.621,33.5899 107.5,35C 110.318,38.3379 111.151,42.1712 110,46.5C 108.363,48.8102 106.196,50.3102 103.5,51C 98.4285,51.7511 93.4285,51.4178 88.5,50C 82.9534,44.0318 83.2868,38.5318 89.5,33.5 Z"/></g>
<g><path style="opacity:0.903" fill="#000000" d="M 132.5,33.5 C 138.621,33.0899 144.621,33.5899 150.5,35C 154.699,40.2814 154.366,45.2814 149.5,50C 143.485,51.942 137.485,51.942 131.5,50C 127.673,46.6923 126.506,42.5256 128,37.5C 129.397,35.9297 130.897,34.5964 132.5,33.5 Z"/></g>
<g><path style="opacity:0.904" fill="#000000" d="M 447.5,33.5 C 453.176,33.3339 458.843,33.5006 464.5,34C 469.727,38.0734 470.56,42.9067 467,48.5C 459.945,52.2912 452.778,52.4579 445.5,49C 441.364,43.234 442.03,38.0673 447.5,33.5 Z"/></g>
<g><path style="opacity:0.946" fill="#000000" d="M 66.5,109.5 C 101.502,109.333 136.502,109.5 171.5,110C 185.832,111.414 193.998,119.248 196,133.5C 196.667,152.5 196.667,171.5 196,190.5C 193.833,203.333 186.333,210.833 173.5,213C 137.167,213.667 100.833,213.667 64.5,213C 51.6667,210.833 44.1667,203.333 42,190.5C 41.3333,171.167 41.3333,151.833 42,132.5C 44.8096,119.029 52.9762,111.362 66.5,109.5 Z M 68.5,127.5 C 64.2863,128.039 61.4529,130.372 60,134.5C 59.3333,152.5 59.3333,170.5 60,188.5C 60.3459,190.848 61.5125,192.681 63.5,194C 70.4112,195.384 77.4112,195.884 84.5,195.5C 84.5,172.833 84.5,150.167 84.5,127.5C 79.1667,127.5 73.8333,127.5 68.5,127.5 Z M 102.5,127.5 C 102.5,150.167 102.5,172.833 102.5,195.5C 125.502,195.667 148.502,195.5 171.5,195C 175.406,194.027 177.573,191.527 178,187.5C 178.667,170.167 178.667,152.833 178,135.5C 177.594,132.506 176.094,130.339 173.5,129C 149.886,127.54 126.219,127.04 102.5,127.5 Z"/></g>
<g><path style="opacity:0.918" fill="#000000" d="M 439.5,127.5 C 450.717,127.207 454.217,132.207 450,142.5C 435.138,157.696 419.971,172.529 404.5,187C 400.467,188.04 396.801,187.374 393.5,185C 388,179.5 382.5,174 377,168.5C 372.64,160.402 374.806,155.069 383.5,152.5C 385.197,152.899 386.863,153.399 388.5,154C 392.348,158.016 396.348,161.849 400.5,165.5C 413.547,152.785 426.547,140.118 439.5,127.5 Z"/></g>
<g><path style="opacity:0.919" fill="#000000" d="M 125.5,152.5 C 135.506,152.334 145.506,152.5 155.5,153C 161.443,155.83 163.276,160.33 161,166.5C 159.786,168.049 158.286,169.215 156.5,170C 145.5,170.667 134.5,170.667 123.5,170C 116.393,163.159 117.06,157.326 125.5,152.5 Z"/></g>
<g><path style="opacity:0.939" fill="#000000" d="M 227.5,152.5 C 266.168,152.333 304.835,152.5 343.5,153C 349.612,156.247 351.112,161.08 348,167.5C 347.097,168.701 345.931,169.535 344.5,170C 305.167,170.667 265.833,170.667 226.5,170C 220.698,166.291 219.531,161.458 223,155.5C 224.652,154.601 226.152,153.601 227.5,152.5 Z"/></g>
<g><path style="opacity:0.946" fill="#000000" d="M 66.5,237.5 C 101.502,237.333 136.502,237.5 171.5,238C 185.832,239.414 193.998,247.248 196,261.5C 196.667,280.5 196.667,299.5 196,318.5C 193.833,331.333 186.333,338.833 173.5,341C 137.167,341.667 100.833,341.667 64.5,341C 51.6667,338.833 44.1667,331.333 42,318.5C 41.3333,299.167 41.3333,279.833 42,260.5C 44.8096,247.029 52.9762,239.362 66.5,237.5 Z M 68.5,255.5 C 64.2863,256.039 61.4529,258.372 60,262.5C 59.3333,280.5 59.3333,298.5 60,316.5C 60.3459,318.848 61.5125,320.681 63.5,322C 70.4112,323.384 77.4112,323.884 84.5,323.5C 84.5,300.833 84.5,278.167 84.5,255.5C 79.1667,255.5 73.8333,255.5 68.5,255.5 Z M 102.5,255.5 C 102.5,278.167 102.5,300.833 102.5,323.5C 125.502,323.667 148.502,323.5 171.5,323C 175.406,322.027 177.573,319.527 178,315.5C 178.667,298.167 178.667,280.833 178,263.5C 177.594,260.506 176.094,258.339 173.5,257C 149.886,255.54 126.219,255.04 102.5,255.5 Z"/></g>
<g><path style="opacity:0.918" fill="#000000" d="M 439.5,255.5 C 450.717,255.207 454.217,260.207 450,270.5C 435.138,285.696 419.971,300.529 404.5,315C 400.467,316.04 396.801,315.374 393.5,313C 388,307.5 382.5,302 377,296.5C 372.64,288.402 374.806,283.069 383.5,280.5C 385.197,280.899 386.863,281.399 388.5,282C 392.348,286.016 396.348,289.849 400.5,293.5C 413.547,280.785 426.547,268.118 439.5,255.5 Z"/></g>
<g><path style="opacity:0.919" fill="#000000" d="M 125.5,280.5 C 135.506,280.334 145.506,280.5 155.5,281C 161.443,283.83 163.276,288.33 161,294.5C 159.786,296.049 158.286,297.215 156.5,298C 145.5,298.667 134.5,298.667 123.5,298C 116.393,291.159 117.06,285.326 125.5,280.5 Z"/></g>
<g><path style="opacity:0.939" fill="#000000" d="M 227.5,280.5 C 266.168,280.333 304.835,280.5 343.5,281C 349.612,284.247 351.112,289.08 348,295.5C 347.097,296.701 345.931,297.535 344.5,298C 305.167,298.667 265.833,298.667 226.5,298C 220.698,294.291 219.531,289.458 223,283.5C 224.652,282.601 226.152,281.601 227.5,280.5 Z"/></g>
<g><path style="opacity:0.946" fill="#000000" d="M 66.5,365.5 C 101.502,365.333 136.502,365.5 171.5,366C 185.832,367.414 193.998,375.248 196,389.5C 196.667,408.5 196.667,427.5 196,446.5C 193.833,459.333 186.333,466.833 173.5,469C 137.167,469.667 100.833,469.667 64.5,469C 51.6667,466.833 44.1667,459.333 42,446.5C 41.3333,427.167 41.3333,407.833 42,388.5C 44.8096,375.029 52.9762,367.362 66.5,365.5 Z M 68.5,383.5 C 64.2863,384.039 61.4529,386.372 60,390.5C 59.3333,408.5 59.3333,426.5 60,444.5C 60.3459,446.848 61.5125,448.681 63.5,450C 70.4112,451.384 77.4112,451.884 84.5,451.5C 84.5,428.833 84.5,406.167 84.5,383.5C 79.1667,383.5 73.8333,383.5 68.5,383.5 Z M 102.5,383.5 C 102.5,406.167 102.5,428.833 102.5,451.5C 125.502,451.667 148.502,451.5 171.5,451C 175.406,450.027 177.573,447.527 178,443.5C 178.667,426.167 178.667,408.833 178,391.5C 177.594,388.506 176.094,386.339 173.5,385C 149.886,383.54 126.219,383.04 102.5,383.5 Z"/></g>
<g><path style="opacity:0.918" fill="#000000" d="M 439.5,383.5 C 450.717,383.207 454.217,388.207 450,398.5C 435.138,413.696 419.971,428.529 404.5,443C 400.467,444.04 396.801,443.374 393.5,441C 388,435.5 382.5,430 377,424.5C 372.64,416.402 374.806,411.069 383.5,408.5C 385.197,408.899 386.863,409.399 388.5,410C 392.348,414.016 396.348,417.849 400.5,421.5C 413.547,408.785 426.547,396.118 439.5,383.5 Z"/></g>
<g><path style="opacity:0.919" fill="#000000" d="M 125.5,408.5 C 135.506,408.334 145.506,408.5 155.5,409C 161.443,411.83 163.276,416.33 161,422.5C 159.786,424.049 158.286,425.215 156.5,426C 145.5,426.667 134.5,426.667 123.5,426C 116.393,419.159 117.06,413.326 125.5,408.5 Z"/></g>
<g><path style="opacity:0.939" fill="#000000" d="M 227.5,408.5 C 266.168,408.333 304.835,408.5 343.5,409C 349.612,412.247 351.112,417.08 348,423.5C 347.097,424.701 345.931,425.535 344.5,426C 305.167,426.667 265.833,426.667 226.5,426C 220.698,422.291 219.531,417.458 223,411.5C 224.652,410.601 226.152,409.601 227.5,408.5 Z"/></g>
</svg>
