<?xml version="1.0" encoding="UTF-8"?>
<!DOCTYPE svg PUBLIC "-//W3C//DTD SVG 1.1//EN" "http://www.w3.org/Graphics/SVG/1.1/DTD/svg11.dtd">
<svg xmlns="http://www.w3.org/2000/svg" version="1.1" width="150px" height="150px" style="shape-rendering:geometricPrecision; text-rendering:geometricPrecision; image-rendering:optimizeQuality; fill-rule:evenodd; clip-rule:evenodd" xmlns:xlink="http://www.w3.org/1999/xlink">
<g><path style="opacity:1" fill="#a99276" d="M 98.5,-0.5 C 100.5,-0.5 102.5,-0.5 104.5,-0.5C 104.5,2.5 104.5,5.5 104.5,8.5C 102.265,5.70894 100.265,2.70894 98.5,-0.5 Z"/></g>
<g><path style="opacity:1" fill="#c7a981" d="M 104.5,-0.5 C 107.5,-0.5 110.5,-0.5 113.5,-0.5C 113.5,2.5 113.5,5.5 113.5,8.5C 112.176,7.15007 111.176,7.31673 110.5,9C 109.251,13.078 108.584,17.2447 108.5,21.5C 107.833,20.1667 107.167,18.8333 106.5,17.5C 106.5,17.1667 106.5,16.8333 106.5,16.5C 106.416,13.6726 105.75,11.006 104.5,8.5C 104.5,5.5 104.5,2.5 104.5,-0.5 Z"/></g>
<g><path style="opacity:1" fill="#485f73" d="M -0.5,-0.5 C 5.83333,-0.5 12.1667,-0.5 18.5,-0.5C 20.9686,0.317095 23.6353,0.817095 26.5,1C 23.4501,1.67896 20.4501,2.5123 17.5,3.5C 16.2888,2.7261 16.2888,1.89277 17.5,1C 13.1521,0.762067 8.81878,1.0954 4.5,2C 6.16667,2.33333 7.83333,2.66667 9.5,3C 6.07639,3.74665 2.74306,3.57998 -0.5,2.5C -0.5,1.5 -0.5,0.5 -0.5,-0.5 Z"/></g>
<g><path style="opacity:1" fill="#281f24" d="M 76.5,-0.5 C 81.5,-0.5 86.5,-0.5 91.5,-0.5C 92.8348,3.48652 91.5015,6.15318 87.5,7.5C 87.5,7.16667 87.5,6.83333 87.5,6.5C 85.4319,5.62517 83.4319,4.4585 81.5,3C 81.8333,2.66667 82.1667,2.33333 82.5,2C 79.9488,1.99775 77.9488,1.16441 76.5,-0.5 Z"/></g>
<g><path style="opacity:1" fill="#eae1d3" d="M 119.5,15.5 C 119.5,16.8333 119.5,18.1667 119.5,19.5C 118.182,16.7425 117.515,13.5758 117.5,10C 117.833,6.83333 118.167,3.66667 118.5,0.5C 119.494,5.45604 119.827,10.456 119.5,15.5 Z"/></g>
<g><path style="opacity:1" fill="#354d60" d="M 18.5,-0.5 C 23.1667,-0.5 27.8333,-0.5 32.5,-0.5C 32.5,1.5 32.5,3.5 32.5,5.5C 21.3957,5.39287 10.3957,5.05954 -0.5,4.5C -0.5,3.83333 -0.5,3.16667 -0.5,2.5C 2.74306,3.57998 6.07639,3.74665 9.5,3C 7.83333,2.66667 6.16667,2.33333 4.5,2C 8.81878,1.0954 13.1521,0.762067 17.5,1C 16.2888,1.89277 16.2888,2.7261 17.5,3.5C 20.4501,2.5123 23.4501,1.67896 26.5,1C 23.6353,0.817095 20.9686,0.317095 18.5,-0.5 Z"/></g>
<g><path style="opacity:1" fill="#313e53" d="M 39.5,-0.5 C 42.1667,-0.5 44.8333,-0.5 47.5,-0.5C 48.9377,8.73918 49.9377,18.0725 50.5,27.5C 49.209,27.2627 48.209,27.596 47.5,28.5C 45.5,28.5 43.5,28.5 41.5,28.5C 40.0454,18.8945 39.3788,9.2278 39.5,-0.5 Z"/></g>
<g><path style="opacity:1" fill="#c2b3a7" d="M 146.5,-0.5 C 147.5,-0.5 148.5,-0.5 149.5,-0.5C 149.5,4.16667 149.5,8.83333 149.5,13.5C 148.833,13.5 148.167,13.5 147.5,13.5C 147.81,10.2869 147.477,7.2869 146.5,4.5C 146.5,2.83333 146.5,1.16667 146.5,-0.5 Z"/></g>
<g><path style="opacity:1" fill="#313241" d="M 47.5,-0.5 C 50.1667,-0.5 52.8333,-0.5 55.5,-0.5C 56.5732,5.84975 56.5732,12.1831 55.5,18.5C 55.5,19.5 55.5,20.5 55.5,21.5C 54.8505,23.4352 54.5172,25.4352 54.5,27.5C 53.1667,27.5 51.8333,27.5 50.5,27.5C 49.9377,18.0725 48.9377,8.73918 47.5,-0.5 Z"/></g>
<g><path style="opacity:1" fill="#c7ae93" d="M 122.5,-0.5 C 124.167,-0.5 125.833,-0.5 127.5,-0.5C 127.232,2.1194 127.565,4.6194 128.5,7C 127.484,7.51935 126.818,8.35268 126.5,9.5C 127.186,11.347 128.186,13.0137 129.5,14.5C 129.121,17.7606 128.121,20.7606 126.5,23.5C 125.513,26.7683 125.18,30.1016 125.5,33.5C 124.128,23.4171 123.128,13.4171 122.5,3.5C 122.5,2.16667 122.5,0.833333 122.5,-0.5 Z"/></g>
<g><path style="opacity:1" fill="#f1f4f3" d="M 136.5,3.5 C 136.5,4.16667 136.5,4.83333 136.5,5.5C 128.5,4.83333 128.5,4.16667 136.5,3.5 Z"/></g>
<g><path style="opacity:1" fill="#4e6675" d="M -0.5,4.5 C 10.3957,5.05954 21.3957,5.39287 32.5,5.5C 32.5,5.83333 32.5,6.16667 32.5,6.5C 25.1667,6.83333 17.8333,7.16667 10.5,7.5C 9.83333,8.16667 9.16667,8.83333 8.5,9.5C 8.38929,8.88258 8.05596,8.38258 7.5,8C 4.85397,7.50258 2.1873,7.33591 -0.5,7.5C -0.5,6.5 -0.5,5.5 -0.5,4.5 Z"/></g>
<g><path style="opacity:1" fill="#44434c" d="M 55.5,-0.5 C 59.5,-0.5 63.5,-0.5 67.5,-0.5C 66.5,1.16667 65.1667,2.5 63.5,3.5C 61.7428,4.29197 60.4095,5.62531 59.5,7.5C 58.1351,11.2706 56.8018,14.9373 55.5,18.5C 56.5732,12.1831 56.5732,5.84975 55.5,-0.5 Z"/></g>
<g><path style="opacity:1" fill="#f5fafa" d="M 32.5,6.5 C 33.5735,7.25057 33.7401,8.25057 33,9.5C 32.6174,8.94404 32.1174,8.61071 31.5,8.5C 29.8333,8.5 28.1667,8.5 26.5,8.5C 26.7038,11.5176 27.0371,14.5176 27.5,17.5C 25.461,18.911 24.461,20.911 24.5,23.5C 20.5,23.5 16.5,23.5 12.5,23.5C 11.74,18.1798 11.0733,12.8465 10.5,7.5C 17.8333,7.16667 25.1667,6.83333 32.5,6.5 Z"/></g>
<g><path style="opacity:1" fill="#c5a883" d="M 139.5,-0.5 C 141.833,-0.5 144.167,-0.5 146.5,-0.5C 146.5,1.16667 146.5,2.83333 146.5,4.5C 146.665,7.8499 146.498,11.1832 146,14.5C 144.933,15.1905 143.766,15.6905 142.5,16C 144.019,17.2183 145.186,18.7183 146,20.5C 146.432,25.8465 146.266,31.1798 145.5,36.5C 144.039,35.3143 142.705,35.3143 141.5,36.5C 141.969,32.1269 141.303,27.7936 139.5,23.5C 139.5,15.5 139.5,7.5 139.5,-0.5 Z"/></g>
<g><path style="opacity:1" fill="#a2907b" d="M 135.5,-0.5 C 136.167,-0.5 136.833,-0.5 137.5,-0.5C 137.748,8.54043 137.415,17.5404 136.5,26.5C 135.833,26.5 135.167,26.5 134.5,26.5C 133.833,26.5 133.167,26.5 132.5,26.5C 132.5,25.8333 132.5,25.1667 132.5,24.5C 133.167,24.5 133.5,24.1667 133.5,23.5C 135.308,22.0821 135.975,20.0821 135.5,17.5C 136.404,16.791 136.737,15.791 136.5,14.5C 136.5,11.5 136.5,8.5 136.5,5.5C 136.5,4.83333 136.5,4.16667 136.5,3.5C 135.766,2.29208 135.433,0.95875 135.5,-0.5 Z"/></g>
<g><path style="opacity:1" fill="#5b4741" d="M 87.5,6.5 C 87.5,6.83333 87.5,7.16667 87.5,7.5C 87.5,7.83333 87.5,8.16667 87.5,8.5C 84.2876,8.71244 82.2876,10.3791 81.5,13.5C 80.8333,13.8333 80.1667,14.1667 79.5,14.5C 80.5362,10.1304 83.2029,7.46369 87.5,6.5 Z"/></g>
<g><path style="opacity:1" fill="#bdb4b0" d="M 129.5,-0.5 C 131.5,-0.5 133.5,-0.5 135.5,-0.5C 135.433,0.95875 135.766,2.29208 136.5,3.5C 128.5,4.16667 128.5,4.83333 136.5,5.5C 136.5,8.5 136.5,11.5 136.5,14.5C 134.5,14.5 132.5,14.5 130.5,14.5C 129.947,9.518 129.613,4.518 129.5,-0.5 Z"/></g>
<g><path style="opacity:1" fill="#93aaaf" d="M -0.5,11.5 C -0.5,11.1667 -0.5,10.8333 -0.5,10.5C 2.69805,9.96438 5.36472,10.631 7.5,12.5C 4.94551,11.612 2.27884,11.2786 -0.5,11.5 Z"/></g>
<g><path style="opacity:1" fill="#5d5553" d="M 63.5,3.5 C 60.2394,9.29926 57.5727,15.2993 55.5,21.5C 55.5,20.5 55.5,19.5 55.5,18.5C 56.8018,14.9373 58.1351,11.2706 59.5,7.5C 60.4095,5.62531 61.7428,4.29197 63.5,3.5 Z"/></g>
<g><path style="opacity:1" fill="#332c28" d="M 73.5,-0.5 C 74.5,-0.5 75.5,-0.5 76.5,-0.5C 77.9488,1.16441 79.9488,1.99775 82.5,2C 82.1667,2.33333 81.8333,2.66667 81.5,3C 83.4319,4.4585 85.4319,5.62517 87.5,6.5C 83.2029,7.46369 80.5362,10.1304 79.5,14.5C 78.5,14.8333 77.8333,15.5 77.5,16.5C 76.0161,13.8796 74.6828,11.0463 73.5,8C 73.8333,7.66667 74.1667,7.33333 74.5,7C 73.3379,6.17294 72.1712,5.3396 71,4.5C 68.6991,6.4919 66.3657,8.4919 64,10.5C 63.8333,10.1667 63.6667,9.83333 63.5,9.5C 66.2636,5.40283 69.5969,2.0695 73.5,-0.5 Z"/></g>
<g><path style="opacity:1" fill="#312621" d="M 91.5,-0.5 C 92.8333,-0.5 94.1667,-0.5 95.5,-0.5C 96.8056,1.81621 98.1389,4.14955 99.5,6.5C 98.8333,7.16667 98.1667,7.83333 97.5,8.5C 98.4279,9.76779 98.5946,11.1011 98,12.5C 97.6667,11.8333 97.3333,11.1667 97,10.5C 95.6667,12.1667 94.3333,13.8333 93,15.5C 90.7358,13.8094 88.9025,11.8094 87.5,9.5C 87.5,9.16667 87.5,8.83333 87.5,8.5C 87.5,8.16667 87.5,7.83333 87.5,7.5C 91.5015,6.15318 92.8348,3.48652 91.5,-0.5 Z"/></g>
<g><path style="opacity:1" fill="#342927" d="M 72.5,24.5 C 70.7263,25.3696 69.393,26.703 68.5,28.5C 65.6296,27.3664 62.6296,26.6997 59.5,26.5C 59.2512,29.5754 60.5845,30.2421 63.5,28.5C 65.3186,28.3422 66.6519,29.0089 67.5,30.5C 64.4583,30.1113 61.4583,30.778 58.5,32.5C 58.1667,33.8333 57.8333,35.1667 57.5,36.5C 57.5,36.8333 57.5,37.1667 57.5,37.5C 56.8442,38.6216 56.5108,39.9549 56.5,41.5C 57.1699,45.5097 57.8366,49.5097 58.5,53.5C 57.2227,54.6936 56.5561,56.3603 56.5,58.5C 57.3424,64.201 58.3424,69.8677 59.5,75.5C 59.6495,76.552 59.4828,77.552 59,78.5C 58.023,76.26 57.523,73.9267 57.5,71.5C 56.5,71.5 55.5,71.5 54.5,71.5C 54.7373,70.209 54.404,69.209 53.5,68.5C 53.5,67.5 53.5,66.5 53.5,65.5C 53.5,65.1667 53.5,64.8333 53.5,64.5C 54.3019,63.0484 54.8019,61.3817 55,59.5C 55.4998,49.8391 55.6665,40.1724 55.5,30.5C 55.5,30.1667 55.5,29.8333 55.5,29.5C 56.2002,21.7858 59.8669,15.7858 66.5,11.5C 68.9253,12.8996 68.5919,14.0662 65.5,15C 66,15.5 66.5,16 67,16.5C 68.4936,15.2528 69.9936,15.2528 71.5,16.5C 70.4706,16.2964 69.4706,16.7964 68.5,18C 70.0589,18.9799 71.7256,19.8133 73.5,20.5C 72.7542,21.7362 72.4208,23.0695 72.5,24.5 Z"/></g>
<g><path style="opacity:1" fill="#382f2f" d="M 67.5,-0.5 C 69.5,-0.5 71.5,-0.5 73.5,-0.5C 69.5969,2.0695 66.2636,5.40283 63.5,9.5C 63.6667,9.83333 63.8333,10.1667 64,10.5C 66.3657,8.4919 68.6991,6.4919 71,4.5C 72.1712,5.3396 73.3379,6.17294 74.5,7C 74.1667,7.33333 73.8333,7.66667 73.5,8C 74.6828,11.0463 76.0161,13.8796 77.5,16.5C 76.1973,19.4313 74.5306,22.098 72.5,24.5C 72.4208,23.0695 72.7542,21.7362 73.5,20.5C 71.7256,19.8133 70.0589,18.9799 68.5,18C 69.4706,16.7964 70.4706,16.2964 71.5,16.5C 69.9936,15.2528 68.4936,15.2528 67,16.5C 66.5,16 66,15.5 65.5,15C 68.5919,14.0662 68.9253,12.8996 66.5,11.5C 59.8669,15.7858 56.2002,21.7858 55.5,29.5C 55.6716,28.5084 55.3382,27.8417 54.5,27.5C 54.5172,25.4352 54.8505,23.4352 55.5,21.5C 57.5727,15.2993 60.2394,9.29926 63.5,3.5C 65.1667,2.5 66.5,1.16667 67.5,-0.5 Z"/></g>
<g><path style="opacity:1" fill="#867c78" d="M 32.5,-0.5 C 34.5,-0.5 36.5,-0.5 38.5,-0.5C 38.2063,6.08185 38.0396,12.7485 38,19.5C 37.5831,20.756 36.7498,21.4226 35.5,21.5C 35.7989,19.396 35.4656,17.396 34.5,15.5C 33.8182,16.2427 33.1515,16.9094 32.5,17.5C 30.5547,14.6375 30.2214,11.6375 31.5,8.5C 32.1174,8.61071 32.6174,8.94404 33,9.5C 33.7401,8.25057 33.5735,7.25057 32.5,6.5C 32.5,6.16667 32.5,5.83333 32.5,5.5C 32.5,3.5 32.5,1.5 32.5,-0.5 Z"/></g>
<g><path style="opacity:1" fill="#d1b0a6" d="M -0.5,13.5 C 1.16667,13.5 2.83333,13.5 4.5,13.5C 4.5,15.1667 4.5,16.8333 4.5,18.5C 4.16667,18.5 3.83333,18.5 3.5,18.5C 3.63101,17.7611 3.46434,17.0944 3,16.5C 2.18405,17.8228 1.01739,18.4894 -0.5,18.5C -0.5,16.8333 -0.5,15.1667 -0.5,13.5 Z"/></g>
<g><path style="opacity:1" fill="#aa877f" d="M 87.5,26.5 C 84.1667,26.5 80.8333,26.5 77.5,26.5C 79.5416,22.4203 80.875,18.0869 81.5,13.5C 83.0109,12.4975 84.6776,11.8308 86.5,11.5C 86.2743,16.5624 86.6076,21.5624 87.5,26.5 Z"/></g>
<g><path style="opacity:1" fill="#413630" d="M 95.5,-0.5 C 96.5,-0.5 97.5,-0.5 98.5,-0.5C 100.265,2.70894 102.265,5.70894 104.5,8.5C 105.75,11.006 106.416,13.6726 106.5,16.5C 105.034,15.653 104.2,14.3197 104,12.5C 103.034,16.1177 103.534,19.451 105.5,22.5C 104.273,23.5904 103.44,24.9238 103,26.5C 101.551,25.3859 100.217,24.3859 99,23.5C 98.8446,25.856 98.8446,28.1893 99,30.5C 98.2238,27.7665 97.3904,25.7665 96.5,24.5C 94.3731,23.6024 93.2065,21.9357 93,19.5C 92.7216,20.4158 92.2216,21.0825 91.5,21.5C 89.401,19.1946 88.0676,16.5279 87.5,13.5C 87.5,12.1667 87.5,10.8333 87.5,9.5C 88.9025,11.8094 90.7358,13.8094 93,15.5C 94.3333,13.8333 95.6667,12.1667 97,10.5C 97.3333,11.1667 97.6667,11.8333 98,12.5C 98.5946,11.1011 98.4279,9.76779 97.5,8.5C 98.1667,7.83333 98.8333,7.16667 99.5,6.5C 98.1389,4.14955 96.8056,1.81621 95.5,-0.5 Z"/></g>
<g><path style="opacity:1" fill="#9a8b74" d="M 116.5,-0.5 C 117.833,-0.5 119.167,-0.5 120.5,-0.5C 120.821,5.02621 120.488,10.3595 119.5,15.5C 119.827,10.456 119.494,5.45604 118.5,0.5C 118.167,3.66667 117.833,6.83333 117.5,10C 117.515,13.5758 118.182,16.7425 119.5,19.5C 119.314,30.1723 118.981,40.839 118.5,51.5C 117.515,47.3656 117.182,43.0323 117.5,38.5C 117.072,25.503 116.738,12.503 116.5,-0.5 Z"/></g>
<g><path style="opacity:1" fill="#71737c" d="M 31.5,8.5 C 30.2214,11.6375 30.5547,14.6375 32.5,17.5C 32.5,18.1667 32.5,18.8333 32.5,19.5C 30.9505,18.5592 29.2838,17.8925 27.5,17.5C 27.0371,14.5176 26.7038,11.5176 26.5,8.5C 28.1667,8.5 29.8333,8.5 31.5,8.5 Z"/></g>
<g><path style="opacity:1" fill="#5e5f69" d="M -0.5,11.5 C 2.27884,11.2786 4.94551,11.612 7.5,12.5C 7.97896,19.519 8.64563,26.519 9.5,33.5C 9.5,34.8333 8.83333,35.5 7.5,35.5C 7.43487,32.5718 6.7682,29.9052 5.5,27.5C 3.5,27.5 1.5,27.5 -0.5,27.5C -0.5,27.1667 -0.5,26.8333 -0.5,26.5C 1.5,26.5 3.5,26.5 5.5,26.5C 5.59868,23.7628 5.26535,21.0961 4.5,18.5C 4.5,16.8333 4.5,15.1667 4.5,13.5C 2.83333,13.5 1.16667,13.5 -0.5,13.5C -0.5,12.8333 -0.5,12.1667 -0.5,11.5 Z"/></g>
<g><path style="opacity:1" fill="#a88c6c" d="M 113.5,-0.5 C 114.5,-0.5 115.5,-0.5 116.5,-0.5C 116.738,12.503 117.072,25.503 117.5,38.5C 116.833,38.8333 116.167,39.1667 115.5,39.5C 115.666,34.8215 115.499,30.1548 115,25.5C 114.722,24.5842 114.222,23.9175 113.5,23.5C 114.294,18.4499 114.294,13.4499 113.5,8.5C 113.5,5.5 113.5,2.5 113.5,-0.5 Z"/></g>
<g><path style="opacity:1" fill="#8c7979" d="M 147.5,13.5 C 148.167,13.5 148.833,13.5 149.5,13.5C 149.5,15.5 149.5,17.5 149.5,19.5C 148.833,19.5 148.167,19.5 147.5,19.5C 147.5,17.5 147.5,15.5 147.5,13.5 Z"/></g>
<g><path style="opacity:1" fill="#78909d" d="M 10.5,7.5 C 11.0733,12.8465 11.74,18.1798 12.5,23.5C 11.6618,23.8417 11.3284,24.5084 11.5,25.5C 10.5061,20.2619 9.50609,14.9286 8.5,9.5C 9.16667,8.83333 9.83333,8.16667 10.5,7.5 Z"/></g>
<g><path style="opacity:1" fill="#5d6b8b" d="M 130.5,14.5 C 132.5,14.5 134.5,14.5 136.5,14.5C 136.737,15.791 136.404,16.791 135.5,17.5C 135.38,16.4138 134.713,15.7472 133.5,15.5C 131.582,15.8614 131.249,16.528 132.5,17.5C 132.205,19.7354 132.539,21.7354 133.5,23.5C 133.5,24.1667 133.167,24.5 132.5,24.5C 131.833,24.1667 131.167,23.8333 130.5,23.5C 130.5,20.5 130.5,17.5 130.5,14.5 Z"/></g>
<g><path style="opacity:1" fill="#214581" d="M 135.5,17.5 C 134.5,17.5 133.5,17.5 132.5,17.5C 131.249,16.528 131.582,15.8614 133.5,15.5C 134.713,15.7472 135.38,16.4138 135.5,17.5 Z"/></g>
<g><path style="opacity:1" fill="#6f6c6d" d="M 38.5,-0.5 C 38.8333,-0.5 39.1667,-0.5 39.5,-0.5C 39.3788,9.2278 40.0454,18.8945 41.5,28.5C 43.5,28.5 45.5,28.5 47.5,28.5C 47.5,29.1667 47.5,29.8333 47.5,30.5C 42.0296,31.8142 38.8629,29.4808 38,23.5C 38.053,30.1497 38.2197,36.8164 38.5,43.5C 38.1667,43.5 37.8333,43.5 37.5,43.5C 36.9492,40.1933 36.6159,36.8599 36.5,33.5C 36.5987,30.7628 36.2653,28.0961 35.5,25.5C 35.5,24.5 35.5,23.5 35.5,22.5C 35.5,22.1667 35.5,21.8333 35.5,21.5C 36.7498,21.4226 37.5831,20.756 38,19.5C 38.0396,12.7485 38.2063,6.08185 38.5,-0.5 Z"/></g>
<g><path style="opacity:1" fill="#d0d0d7" d="M 35.5,21.5 C 35.5,21.8333 35.5,22.1667 35.5,22.5C 34.2719,21.6935 33.2719,20.6935 32.5,19.5C 32.5,18.8333 32.5,18.1667 32.5,17.5C 33.1515,16.9094 33.8182,16.2427 34.5,15.5C 35.4656,17.396 35.7989,19.396 35.5,21.5 Z"/></g>
<g><path style="opacity:1" fill="#8b6c63" d="M 87.5,8.5 C 87.5,8.83333 87.5,9.16667 87.5,9.5C 87.5,10.8333 87.5,12.1667 87.5,13.5C 87.8426,18.0411 87.8426,22.3744 87.5,26.5C 86.6076,21.5624 86.2743,16.5624 86.5,11.5C 84.6776,11.8308 83.0109,12.4975 81.5,13.5C 82.2876,10.3791 84.2876,8.71244 87.5,8.5 Z"/></g>
<g><path style="opacity:1" fill="#b7d4ea" d="M 132.5,17.5 C 133.5,17.5 134.5,17.5 135.5,17.5C 135.975,20.0821 135.308,22.0821 133.5,23.5C 132.539,21.7354 132.205,19.7354 132.5,17.5 Z"/></g>
<g><path style="opacity:1" fill="#524736" d="M 147.5,19.5 C 148.167,19.5 148.833,19.5 149.5,19.5C 149.5,20.8333 149.5,22.1667 149.5,23.5C 148.833,23.1667 148.167,22.8333 147.5,22.5C 147.5,21.5 147.5,20.5 147.5,19.5 Z"/></g>
<g><path style="opacity:1" fill="#e5dad6" d="M 3.5,18.5 C 2.90935,19.1515 2.24269,19.8182 1.5,20.5C 5.10965,22.7124 4.44299,23.7124 -0.5,23.5C -0.5,21.8333 -0.5,20.1667 -0.5,18.5C 1.01739,18.4894 2.18405,17.8228 3,16.5C 3.46434,17.0944 3.63101,17.7611 3.5,18.5 Z"/></g>
<g><path style="opacity:1" fill="#6f5751" d="M 87.5,13.5 C 88.0676,16.5279 89.401,19.1946 91.5,21.5C 91.5,23.5 91.5,25.5 91.5,27.5C 90.1667,27.5 88.8333,27.5 87.5,27.5C 87.5,27.1667 87.5,26.8333 87.5,26.5C 87.8426,22.3744 87.8426,18.0411 87.5,13.5 Z"/></g>
<g><path style="opacity:1" fill="#59798c" d="M 12.5,23.5 C 16.5,23.5 20.5,23.5 24.5,23.5C 23.1667,24.5 23.1667,25.5 24.5,26.5C 21.1667,26.5 17.8333,26.5 14.5,26.5C 13.6981,27.9516 13.1981,29.6183 13,31.5C 12.7216,30.5842 12.2216,29.9175 11.5,29.5C 11.5,28.1667 11.5,26.8333 11.5,25.5C 11.3284,24.5084 11.6618,23.8417 12.5,23.5 Z"/></g>
<g><path style="opacity:1" fill="#6c4e4a" d="M 79.5,14.5 C 79.051,17.641 78.051,20.641 76.5,23.5C 72.9622,26.3458 70.2956,29.6791 68.5,33.5C 68.5,31.8333 68.5,30.1667 68.5,28.5C 69.393,26.703 70.7263,25.3696 72.5,24.5C 74.5306,22.098 76.1973,19.4313 77.5,16.5C 77.8333,15.5 78.5,14.8333 79.5,14.5 Z"/></g>
<g><path style="opacity:1" fill="#8d6e6d" d="M 3.5,18.5 C 3.83333,18.5 4.16667,18.5 4.5,18.5C 5.26535,21.0961 5.59868,23.7628 5.5,26.5C 3.5,26.5 1.5,26.5 -0.5,26.5C -0.5,25.5 -0.5,24.5 -0.5,23.5C 4.44299,23.7124 5.10965,22.7124 1.5,20.5C 2.24269,19.8182 2.90935,19.1515 3.5,18.5 Z"/></g>
<g><path style="opacity:1" fill="#3f5367" d="M 27.5,17.5 C 29.2838,17.8925 30.9505,18.5592 32.5,19.5C 33.2719,20.6935 34.2719,21.6935 35.5,22.5C 35.5,23.5 35.5,24.5 35.5,25.5C 33.3729,22.759 30.7063,21.759 27.5,22.5C 27.109,25.9438 26.7756,29.6105 26.5,33.5C 26.5,33.8333 26.5,34.1667 26.5,34.5C 22.9952,34.3059 22.6618,33.3059 25.5,31.5C 25.634,29.7085 25.3007,28.0418 24.5,26.5C 23.1667,25.5 23.1667,24.5 24.5,23.5C 24.461,20.911 25.461,18.911 27.5,17.5 Z"/></g>
<g><path style="opacity:1" fill="#3d2f2b" d="M 106.5,16.5 C 106.5,16.8333 106.5,17.1667 106.5,17.5C 106.833,20.8333 107.167,24.1667 107.5,27.5C 106.569,31.2927 105.235,34.9594 103.5,38.5C 103.784,36.5853 103.451,34.9187 102.5,33.5C 102.53,32.5028 102.03,31.8361 101,31.5C 99.3771,32.921 98.2105,34.5876 97.5,36.5C 97.7852,34.712 97.4519,33.0453 96.5,31.5C 95.8076,32.0253 95.3076,32.6919 95,33.5C 94.8333,32.8333 94.6667,32.1667 94.5,31.5C 95.9371,29.4229 96.6038,27.0895 96.5,24.5C 97.3904,25.7665 98.2238,27.7665 99,30.5C 98.8446,28.1893 98.8446,25.856 99,23.5C 100.217,24.3859 101.551,25.3859 103,26.5C 103.44,24.9238 104.273,23.5904 105.5,22.5C 103.534,19.451 103.034,16.1177 104,12.5C 104.2,14.3197 105.034,15.653 106.5,16.5 Z"/></g>
<g><path style="opacity:1" fill="#8c8584" d="M 147.5,22.5 C 148.167,22.8333 148.833,23.1667 149.5,23.5C 149.5,25.1667 149.5,26.8333 149.5,28.5C 148.833,28.5 148.167,28.5 147.5,28.5C 147.5,26.5 147.5,24.5 147.5,22.5 Z"/></g>
<g><path style="opacity:1" fill="#ebf5f6" d="M 14.5,26.5 C 17.8333,26.5 21.1667,26.5 24.5,26.5C 25.3007,28.0418 25.634,29.7085 25.5,31.5C 24.1411,30.9935 23.1411,29.9935 22.5,28.5C 21.8492,30.8474 20.5159,32.5141 18.5,33.5C 17.5,33.5 16.5,33.5 15.5,33.5C 15.3259,31.139 14.9926,28.8056 14.5,26.5 Z"/></g>
<g><path style="opacity:1" fill="#28374c" d="M 35.5,25.5 C 36.2653,28.0961 36.5987,30.7628 36.5,33.5C 33.8883,32.6171 31.555,30.6171 29.5,27.5C 28.1993,29.444 27.1993,31.444 26.5,33.5C 26.7756,29.6105 27.109,25.9438 27.5,22.5C 30.7063,21.759 33.3729,22.759 35.5,25.5 Z"/></g>
<g><path style="opacity:1" fill="#929eaf" d="M 47.5,28.5 C 48.209,27.596 49.209,27.2627 50.5,27.5C 51.8333,27.5 53.1667,27.5 54.5,27.5C 55.3382,27.8417 55.6716,28.5084 55.5,29.5C 55.5,29.8333 55.5,30.1667 55.5,30.5C 55.1667,30.5 54.8333,30.5 54.5,30.5C 52.7211,28.6565 50.3878,27.9898 47.5,28.5 Z"/></g>
<g><path style="opacity:1" fill="#c8ac84" d="M 113.5,8.5 C 114.294,13.4499 114.294,18.4499 113.5,23.5C 113.5,29.5 113.5,35.5 113.5,41.5C 112.203,39.6287 111.203,37.6287 110.5,35.5C 109.446,30.8935 108.779,26.2268 108.5,21.5C 108.584,17.2447 109.251,13.078 110.5,9C 111.176,7.31673 112.176,7.15007 113.5,8.5 Z"/></g>
<g><path style="opacity:1" fill="#c4b29b" d="M 127.5,-0.5 C 128.167,-0.5 128.833,-0.5 129.5,-0.5C 129.613,4.518 129.947,9.518 130.5,14.5C 130.5,17.5 130.5,20.5 130.5,23.5C 130.5,26.5 130.5,29.5 130.5,32.5C 130.5,33.5 130.5,34.5 130.5,35.5C 130.5,38.8333 130.5,42.1667 130.5,45.5C 130.5,50.1667 130.5,54.8333 130.5,59.5C 132.167,59.5 133.833,59.5 135.5,59.5C 135.031,62.3387 135.031,65.0054 135.5,67.5C 132.495,67.2501 130.662,68.5834 130,71.5C 129.486,61.2741 128.319,51.2741 126.5,41.5C 125.735,38.9039 125.401,36.2372 125.5,33.5C 125.18,30.1016 125.513,26.7683 126.5,23.5C 128.121,20.7606 129.121,17.7606 129.5,14.5C 128.186,13.0137 127.186,11.347 126.5,9.5C 126.818,8.35268 127.484,7.51935 128.5,7C 127.565,4.6194 127.232,2.1194 127.5,-0.5 Z"/></g>
<g><path style="opacity:1" fill="#8e6960" d="M 81.5,13.5 C 80.875,18.0869 79.5416,22.4203 77.5,26.5C 80.8333,26.5 84.1667,26.5 87.5,26.5C 87.5,26.8333 87.5,27.1667 87.5,27.5C 84.6146,27.1936 81.9479,27.5269 79.5,28.5C 75.6105,30.6273 75.6105,33.1273 79.5,36C 83.0836,37.0734 86.7502,37.7401 90.5,38C 91.056,38.3826 91.3893,38.8826 91.5,39.5C 91.1667,39.5 90.8333,39.5 90.5,39.5C 85.0266,39.6331 79.6933,38.9665 74.5,37.5C 74.7989,35.396 74.4656,33.396 73.5,31.5C 71.8888,32.3202 71.2222,33.6536 71.5,35.5C 69.0614,37.4855 67.5614,40.1522 67,43.5C 66.0138,44.1712 64.8471,44.1712 63.5,43.5C 65.8907,41.3852 67.2241,38.7186 67.5,35.5C 65.0799,35.7076 62.7466,35.3742 60.5,34.5C 59.7348,35.6119 58.7348,36.2786 57.5,36.5C 57.8333,35.1667 58.1667,33.8333 58.5,32.5C 61.8067,33.0508 65.1401,33.3841 68.5,33.5C 70.2956,29.6791 72.9622,26.3458 76.5,23.5C 78.051,20.641 79.051,17.641 79.5,14.5C 80.1667,14.1667 80.8333,13.8333 81.5,13.5 Z"/></g>
<g><path style="opacity:1" fill="#444342" d="M 130.5,23.5 C 131.167,23.8333 131.833,24.1667 132.5,24.5C 132.5,25.1667 132.5,25.8333 132.5,26.5C 132.975,29.0821 132.308,31.0821 130.5,32.5C 130.5,29.5 130.5,26.5 130.5,23.5 Z"/></g>
<g><path style="opacity:1" fill="#646185" d="M 5.5,27.5 C 6.7682,29.9052 7.43487,32.5718 7.5,35.5C 6.60895,36.1098 5.60895,36.4431 4.5,36.5C 4.83333,35.8333 5.16667,35.1667 5.5,34.5C 5.5,32.1667 5.5,29.8333 5.5,27.5 Z"/></g>
<g><path style="opacity:1" fill="#d9e7eb" d="M -0.5,7.5 C 2.1873,7.33591 4.85397,7.50258 7.5,8C 8.05596,8.38258 8.38929,8.88258 8.5,9.5C 9.50609,14.9286 10.5061,20.2619 11.5,25.5C 11.5,26.8333 11.5,28.1667 11.5,29.5C 11.8509,33.6836 12.5176,37.6836 13.5,41.5C 13.5,43.5 13.5,45.5 13.5,47.5C 12.8333,46.8333 12.1667,46.1667 11.5,45.5C 11.5,44.8333 11.5,44.1667 11.5,43.5C 11.4512,39.9219 10.7846,36.5885 9.5,33.5C 8.64563,26.519 7.97896,19.519 7.5,12.5C 5.36472,10.631 2.69805,9.96438 -0.5,10.5C -0.5,9.5 -0.5,8.5 -0.5,7.5 Z"/></g>
<g><path style="opacity:1" fill="#1a283b" d="M 36.5,33.5 C 36.6159,36.8599 36.9492,40.1933 37.5,43.5C 34.8806,43.7683 32.3806,43.435 30,42.5C 29.51,43.7932 29.3433,45.1266 29.5,46.5C 28.1647,42.8739 26.8314,39.2072 25.5,35.5C 26.1667,35.5 26.5,35.1667 26.5,34.5C 26.5,34.1667 26.5,33.8333 26.5,33.5C 27.1993,31.444 28.1993,29.444 29.5,27.5C 31.555,30.6171 33.8883,32.6171 36.5,33.5 Z"/></g>
<g><path style="opacity:1" fill="#432f27" d="M 96.5,24.5 C 96.6038,27.0895 95.9371,29.4229 94.5,31.5C 94.6667,32.1667 94.8333,32.8333 95,33.5C 95.3076,32.6919 95.8076,32.0253 96.5,31.5C 97.4519,33.0453 97.7852,34.712 97.5,36.5C 97.0431,41.473 95.7098,46.1396 93.5,50.5C 92.7784,50.9175 92.2784,51.5842 92,52.5C 91.6012,52.2716 91.4346,51.9382 91.5,51.5C 91.5,50.1667 91.5,48.8333 91.5,47.5C 92.795,42.2765 92.6284,36.9432 91,31.5C 89.874,30.0564 88.374,29.3898 86.5,29.5C 83.8459,30.2675 81.1792,30.4342 78.5,30C 79.056,29.6174 79.3893,29.1174 79.5,28.5C 81.9479,27.5269 84.6146,27.1936 87.5,27.5C 88.8333,27.5 90.1667,27.5 91.5,27.5C 91.5,25.5 91.5,23.5 91.5,21.5C 92.2216,21.0825 92.7216,20.4158 93,19.5C 93.2065,21.9357 94.3731,23.6024 96.5,24.5 Z"/></g>
<g><path style="opacity:1" fill="#413f3c" d="M 134.5,27.5 C 135.485,31.6344 135.818,35.9677 135.5,40.5C 134.101,36.294 133.768,31.9606 134.5,27.5 Z"/></g>
<g><path style="opacity:1" fill="#857873" d="M 47.5,30.5 C 48.4511,31.9187 48.7845,33.5853 48.5,35.5C 48.5,37.1667 48.5,38.8333 48.5,40.5C 45.9455,39.612 43.2788,39.2786 40.5,39.5C 40.6199,41.7345 40.2865,43.9011 39.5,46C 40.869,53.785 41.869,61.6184 42.5,69.5C 42.5,70.1667 42.1667,70.5 41.5,70.5C 40.8333,70.5 40.5,70.1667 40.5,69.5C 40.4766,63.2882 39.8099,57.2882 38.5,51.5C 38.5,48.8333 38.5,46.1667 38.5,43.5C 38.2197,36.8164 38.053,30.1497 38,23.5C 38.8629,29.4808 42.0296,31.8142 47.5,30.5 Z"/></g>
<g><path style="opacity:1" fill="#ccdcee" d="M 47.5,28.5 C 50.3878,27.9898 52.7211,28.6565 54.5,30.5C 53.9132,41.8242 53.5798,53.1575 53.5,64.5C 52.5,64.5 51.5,64.5 50.5,64.5C 50.1276,54.6618 49.461,44.9951 48.5,35.5C 48.7845,33.5853 48.4511,31.9187 47.5,30.5C 47.5,29.8333 47.5,29.1667 47.5,28.5 Z"/></g>
<g><path style="opacity:1" fill="#1f3ea1" d="M -0.5,27.5 C 1.5,27.5 3.5,27.5 5.5,27.5C 5.5,29.8333 5.5,32.1667 5.5,34.5C 3.5,34.5 1.5,34.5 -0.5,34.5C -0.5,32.1667 -0.5,29.8333 -0.5,27.5 Z"/></g>
<g><path style="opacity:1" fill="#4c3f3b" d="M 68.5,28.5 C 68.5,30.1667 68.5,31.8333 68.5,33.5C 65.1401,33.3841 61.8067,33.0508 58.5,32.5C 61.4583,30.778 64.4583,30.1113 67.5,30.5C 66.6519,29.0089 65.3186,28.3422 63.5,28.5C 60.5845,30.2421 59.2512,29.5754 59.5,26.5C 62.6296,26.6997 65.6296,27.3664 68.5,28.5 Z"/></g>
<g><path style="opacity:1" fill="#bba289" d="M 146.5,4.5 C 147.477,7.2869 147.81,10.2869 147.5,13.5C 147.5,15.5 147.5,17.5 147.5,19.5C 147.5,20.5 147.5,21.5 147.5,22.5C 147.5,24.5 147.5,26.5 147.5,28.5C 146.92,32.649 147.586,36.3157 149.5,39.5C 149.5,41.1667 149.5,42.8333 149.5,44.5C 147.621,45.8952 146.621,47.8952 146.5,50.5C 146.338,52.5273 146.505,54.5273 147,56.5C 147.671,57.2524 148.504,57.5858 149.5,57.5C 149.5,59.5 149.5,61.5 149.5,63.5C 147.517,63.8432 146.183,63.1765 145.5,61.5C 145.5,53.1667 145.5,44.8333 145.5,36.5C 146.266,31.1798 146.432,25.8465 146,20.5C 145.186,18.7183 144.019,17.2183 142.5,16C 143.766,15.6905 144.933,15.1905 146,14.5C 146.498,11.1832 146.665,7.8499 146.5,4.5 Z"/></g>
<g><path style="opacity:1" fill="#2c2320" d="M 102.5,33.5 C 102.327,40.8834 101.66,48.2167 100.5,55.5C 99.5,55.5 98.5,55.5 97.5,55.5C 96.8333,54.5 96.1667,53.5 95.5,52.5C 95.1583,51.6618 94.4916,51.3284 93.5,51.5C 93.5,51.1667 93.5,50.8333 93.5,50.5C 95.7098,46.1396 97.0431,41.473 97.5,36.5C 98.2105,34.5876 99.3771,32.921 101,31.5C 102.03,31.8361 102.53,32.5028 102.5,33.5 Z"/></g>
<g><path style="opacity:1" fill="#7288cb" d="M -0.5,34.5 C 1.5,34.5 3.5,34.5 5.5,34.5C 5.16667,35.1667 4.83333,35.8333 4.5,36.5C 2.83333,36.5 1.16667,36.5 -0.5,36.5C -0.5,35.8333 -0.5,35.1667 -0.5,34.5 Z"/></g>
<g><path style="opacity:1" fill="#b1bab9" d="M 14.5,26.5 C 14.9926,28.8056 15.3259,31.139 15.5,33.5C 16.5,33.5 17.5,33.5 18.5,33.5C 17.375,34.6522 17.375,35.6522 18.5,36.5C 18.5,38.5 18.5,40.5 18.5,42.5C 16.9826,42.5106 15.8159,43.1772 15,44.5C 14.7679,43.2625 14.2679,42.2625 13.5,41.5C 12.5176,37.6836 11.8509,33.6836 11.5,29.5C 12.2216,29.9175 12.7216,30.5842 13,31.5C 13.1981,29.6183 13.6981,27.9516 14.5,26.5 Z"/></g>
<g><path style="opacity:1" fill="#8b959a" d="M 25.5,31.5 C 22.6618,33.3059 22.9952,34.3059 26.5,34.5C 26.5,35.1667 26.1667,35.5 25.5,35.5C 24.8333,35.5 24.1667,35.5 23.5,35.5C 22.5178,36.1408 21.5178,36.8075 20.5,37.5C 19.8076,36.9747 19.3076,36.3081 19,35.5C 18.6012,35.7284 18.4346,36.0618 18.5,36.5C 17.375,35.6522 17.375,34.6522 18.5,33.5C 20.5159,32.5141 21.8492,30.8474 22.5,28.5C 23.1411,29.9935 24.1411,30.9935 25.5,31.5 Z"/></g>
<g><path style="opacity:1" fill="#7c634b" d="M 134.5,27.5 C 134.5,27.1667 134.5,26.8333 134.5,26.5C 135.167,26.5 135.833,26.5 136.5,26.5C 136.822,32.358 136.489,38.0247 135.5,43.5C 135.5,42.5 135.5,41.5 135.5,40.5C 135.818,35.9677 135.485,31.6344 134.5,27.5 Z"/></g>
<g><path style="opacity:1" fill="#c1a57b" d="M 145.5,36.5 C 145.5,44.8333 145.5,53.1667 145.5,61.5C 144.504,61.5858 143.671,61.2524 143,60.5C 141.725,52.5533 141.225,44.5533 141.5,36.5C 142.705,35.3143 144.039,35.3143 145.5,36.5 Z"/></g>
<g><path style="opacity:1" fill="#899299" d="M 9.5,33.5 C 10.7846,36.5885 11.4512,39.9219 11.5,43.5C 10.2921,42.7659 8.95875,42.4326 7.5,42.5C 8.26253,41.7321 9.26253,41.2321 10.5,41C 8.14068,39.7575 6.14068,38.2575 4.5,36.5C 5.60895,36.4431 6.60895,36.1098 7.5,35.5C 8.83333,35.5 9.5,34.8333 9.5,33.5 Z"/></g>
<g><path style="opacity:1" fill="#a87d6f" d="M 90.5,39.5 C 92.045,49.9506 88.3783,52.284 79.5,46.5C 79.5299,45.5028 79.0299,44.8361 78,44.5C 76.5603,45.1476 75.0603,45.4809 73.5,45.5C 71.712,45.7852 70.0453,45.4519 68.5,44.5C 70.1224,41.7411 71.1224,38.7411 71.5,35.5C 71.2222,33.6536 71.8888,32.3202 73.5,31.5C 74.4656,33.396 74.7989,35.396 74.5,37.5C 79.6933,38.9665 85.0266,39.6331 90.5,39.5 Z"/></g>
<g><path style="opacity:1" fill="#665049" d="M 79.5,28.5 C 79.3893,29.1174 79.056,29.6174 78.5,30C 81.1792,30.4342 83.8459,30.2675 86.5,29.5C 88.374,29.3898 89.874,30.0564 91,31.5C 92.6284,36.9432 92.795,42.2765 91.5,47.5C 91.5,44.8333 91.5,42.1667 91.5,39.5C 91.3893,38.8826 91.056,38.3826 90.5,38C 86.7502,37.7401 83.0836,37.0734 79.5,36C 75.6105,33.1273 75.6105,30.6273 79.5,28.5 Z"/></g>
<g><path style="opacity:1" fill="#271d1e" d="M 80.5,33.5 C 82.6282,32.3709 84.9615,32.2042 87.5,33C 88.731,34.1827 88.731,35.3493 87.5,36.5C 85.9292,33.9066 83.5959,32.9066 80.5,33.5 Z"/></g>
<g><path style="opacity:1" fill="#42302b" d="M 130.5,35.5 C 131.239,35.369 131.906,35.5357 132.5,36C 131.427,39.1124 131.427,42.2791 132.5,45.5C 131.833,45.5 131.167,45.5 130.5,45.5C 130.5,42.1667 130.5,38.8333 130.5,35.5 Z"/></g>
<g><path style="opacity:1" fill="#bfb4b3" d="M 147.5,28.5 C 148.167,28.5 148.833,28.5 149.5,28.5C 149.5,32.1667 149.5,35.8333 149.5,39.5C 147.586,36.3157 146.92,32.649 147.5,28.5 Z"/></g>
<g><path style="opacity:1" fill="#857979" d="M 132.5,26.5 C 133.167,26.5 133.833,26.5 134.5,26.5C 134.5,26.8333 134.5,27.1667 134.5,27.5C 133.768,31.9606 134.101,36.294 135.5,40.5C 135.5,41.5 135.5,42.5 135.5,43.5C 135.5,44.1667 135.5,44.8333 135.5,45.5C 134.5,45.5 133.5,45.5 132.5,45.5C 131.427,42.2791 131.427,39.1124 132.5,36C 131.906,35.5357 131.239,35.369 130.5,35.5C 130.5,34.5 130.5,33.5 130.5,32.5C 132.308,31.0821 132.975,29.0821 132.5,26.5 Z"/></g>
<g><path style="opacity:1" fill="#c3b9b7" d="M 3.5,52.5 C 1.97475,49.9209 0.641417,47.2542 -0.5,44.5C -0.5,43.1667 -0.5,41.8333 -0.5,40.5C 0.734849,40.2786 1.73485,39.6119 2.5,38.5C 3.08605,38.7093 3.58605,39.0426 4,39.5C 3.804,43.7909 3.63733,48.1243 3.5,52.5 Z"/></g>
<g><path style="opacity:1" fill="#b59c77" d="M 120.5,-0.5 C 121.167,-0.5 121.833,-0.5 122.5,-0.5C 122.5,0.833333 122.5,2.16667 122.5,3.5C 123.314,29.4914 123.647,55.4914 123.5,81.5C 123.167,81.5 122.833,81.5 122.5,81.5C 122.667,66.4963 122.5,51.4963 122,36.5C 119.858,41.2106 119.024,46.2106 119.5,51.5C 119.167,51.5 118.833,51.5 118.5,51.5C 118.981,40.839 119.314,30.1723 119.5,19.5C 119.5,18.1667 119.5,16.8333 119.5,15.5C 120.488,10.3595 120.821,5.02621 120.5,-0.5 Z"/></g>
<g><path style="opacity:1" fill="#a67b6e" d="M 63.5,43.5 C 61.5,43.1667 59.5,42.8333 57.5,42.5C 57.5,40.8333 57.5,39.1667 57.5,37.5C 57.5,37.1667 57.5,36.8333 57.5,36.5C 58.7348,36.2786 59.7348,35.6119 60.5,34.5C 62.7466,35.3742 65.0799,35.7076 67.5,35.5C 67.2241,38.7186 65.8907,41.3852 63.5,43.5 Z"/></g>
<g><path style="opacity:1" fill="#836747" d="M 113.5,23.5 C 114.222,23.9175 114.722,24.5842 115,25.5C 115.499,30.1548 115.666,34.8215 115.5,39.5C 115.5,53.1667 115.5,66.8333 115.5,80.5C 115.167,80.5 114.833,80.5 114.5,80.5C 114.633,67.4837 114.299,54.4837 113.5,41.5C 113.5,35.5 113.5,29.5 113.5,23.5 Z"/></g>
<g><path style="opacity:1" fill="#a98e63" d="M 137.5,-0.5 C 138.167,-0.5 138.833,-0.5 139.5,-0.5C 139.5,7.5 139.5,15.5 139.5,23.5C 139.5,35.5 139.5,47.5 139.5,59.5C 138.508,67.3159 138.174,75.3159 138.5,83.5C 138.167,83.5 137.833,83.5 137.5,83.5C 137.665,79.8183 137.499,76.1516 137,72.5C 136.667,73.1667 136.333,73.8333 136,74.5C 135.831,87.34 135.331,100.007 134.5,112.5C 134.5,108.833 134.5,105.167 134.5,101.5C 131.32,101.824 130.153,100.49 131,97.5C 132.333,98.1667 133.333,99.1667 134,100.5C 134.499,95.8452 134.666,91.1785 134.5,86.5C 134.5,85.1667 134.5,83.8333 134.5,82.5C 134.337,77.453 134.671,72.453 135.5,67.5C 135.031,65.0054 135.031,62.3387 135.5,59.5C 135.5,54.8333 135.5,50.1667 135.5,45.5C 135.5,44.8333 135.5,44.1667 135.5,43.5C 136.489,38.0247 136.822,32.358 136.5,26.5C 137.415,17.5404 137.748,8.54043 137.5,-0.5 Z"/></g>
<g><path style="opacity:1" fill="#584c4f" d="M 54.5,30.5 C 54.8333,30.5 55.1667,30.5 55.5,30.5C 55.6665,40.1724 55.4998,49.8391 55,59.5C 54.8019,61.3817 54.3019,63.0484 53.5,64.5C 53.5798,53.1575 53.9132,41.8242 54.5,30.5 Z"/></g>
<g><path style="opacity:1" fill="#877763" d="M 149.5,44.5 C 149.5,46.5 149.5,48.5 149.5,50.5C 148.5,50.5 147.5,50.5 146.5,50.5C 146.621,47.8952 147.621,45.8952 149.5,44.5 Z"/></g>
<g><path style="opacity:1" fill="#3d4343" d="M 7.5,42.5 C 8.95875,42.4326 10.2921,42.7659 11.5,43.5C 11.5,44.1667 11.5,44.8333 11.5,45.5C 11.5,46.8333 11.5,48.1667 11.5,49.5C 9.44132,47.7396 8.10798,45.4062 7.5,42.5 Z"/></g>
<g><path style="opacity:1" fill="#a0988e" d="M 13.5,41.5 C 14.2679,42.2625 14.7679,43.2625 15,44.5C 15.8159,43.1772 16.9826,42.5106 18.5,42.5C 19.1495,44.4352 19.4828,46.4352 19.5,48.5C 17.0885,48.8633 15.5885,47.8633 15,45.5C 14.7216,46.4158 14.2216,47.0825 13.5,47.5C 13.5,45.5 13.5,43.5 13.5,41.5 Z"/></g>
<g><path style="opacity:1" fill="#3b2e24" d="M 107.5,27.5 C 107.5,28.8333 107.5,30.1667 107.5,31.5C 107.927,34.7877 107.26,37.7877 105.5,40.5C 106.743,44.9403 107.409,49.2737 107.5,53.5C 105.359,59.2908 104.359,65.2908 104.5,71.5C 103.833,71.5 103.167,71.5 102.5,71.5C 103.407,60.5313 103.74,49.5313 103.5,38.5C 105.235,34.9594 106.569,31.2927 107.5,27.5 Z"/></g>
<g><path style="opacity:1" fill="#916658" d="M 71.5,35.5 C 71.1224,38.7411 70.1224,41.7411 68.5,44.5C 70.0453,45.4519 71.712,45.7852 73.5,45.5C 73.9175,46.2216 74.5842,46.7216 75.5,47C 73.2346,48.1178 70.9013,48.9512 68.5,49.5C 65.9179,49.0254 63.9179,49.6921 62.5,51.5C 63.0508,54.8067 63.3841,58.1401 63.5,61.5C 63.1667,61.5 62.8333,61.5 62.5,61.5C 61.6743,58.5152 60.341,55.8485 58.5,53.5C 57.8366,49.5097 57.1699,45.5097 56.5,41.5C 56.5108,39.9549 56.8442,38.6216 57.5,37.5C 57.5,39.1667 57.5,40.8333 57.5,42.5C 59.5,42.8333 61.5,43.1667 63.5,43.5C 64.8471,44.1712 66.0138,44.1712 67,43.5C 67.5614,40.1522 69.0614,37.4855 71.5,35.5 Z"/></g>
<g><path style="opacity:1" fill="#9f716e" d="M 79.5,46.5 C 79.5,48.1667 79.5,49.8333 79.5,51.5C 78.1667,51.5 76.8333,51.5 75.5,51.5C 74.8333,51.5 74.1667,51.5 73.5,51.5C 71.8333,50.8333 70.1667,50.1667 68.5,49.5C 70.9013,48.9512 73.2346,48.1178 75.5,47C 74.5842,46.7216 73.9175,46.2216 73.5,45.5C 75.0603,45.4809 76.5603,45.1476 78,44.5C 79.0299,44.8361 79.5299,45.5028 79.5,46.5 Z"/></g>
<g><path style="opacity:1" fill="#ccd3ce" d="M 130.5,45.5 C 131.167,45.5 131.833,45.5 132.5,45.5C 133.5,45.5 134.5,45.5 135.5,45.5C 135.5,50.1667 135.5,54.8333 135.5,59.5C 133.833,59.5 132.167,59.5 130.5,59.5C 130.5,54.8333 130.5,50.1667 130.5,45.5 Z"/></g>
<g><path style="opacity:1" fill="#8f8e8e" d="M 7.5,42.5 C 8.10798,45.4062 9.44132,47.7396 11.5,49.5C 10.791,50.404 9.79105,50.7373 8.5,50.5C 7.79105,51.404 6.79105,51.7373 5.5,51.5C 5.33591,48.8127 5.50258,46.146 6,43.5C 6.38258,42.944 6.88258,42.6107 7.5,42.5 Z"/></g>
<g><path style="opacity:1" fill="#554e4b" d="M 8.5,50.5 C 7.35089,50.2089 6.68423,49.3756 6.5,48C 6.66667,47.1667 6.83333,46.3333 7,45.5C 7.60767,47.1545 8.10767,48.8211 8.5,50.5 Z"/></g>
<g><path style="opacity:1" fill="#8a7b6d" d="M 48.5,40.5 C 48.2895,49.2 48.6228,57.8667 49.5,66.5C 48.009,66.9014 46.3423,67.068 44.5,67C 43.9341,67.9947 43.2674,68.828 42.5,69.5C 41.869,61.6184 40.869,53.785 39.5,46C 40.2865,43.9011 40.6199,41.7345 40.5,39.5C 43.2788,39.2786 45.9455,39.612 48.5,40.5 Z"/></g>
<g><path style="opacity:1" fill="#72414d" d="M 67.5,51.5 C 69.5,51.5 71.5,51.5 73.5,51.5C 74.1667,51.5 74.8333,51.5 75.5,51.5C 76.9516,52.3019 78.6183,52.8019 80.5,53C 81.7119,54.1068 81.3786,54.6068 79.5,54.5C 78.8333,54.5 78.5,54.8333 78.5,55.5C 75.6146,55.8064 72.9479,55.4731 70.5,54.5C 72.1992,54.6602 73.8659,54.4935 75.5,54C 72.4776,53.9016 69.8109,53.0682 67.5,51.5 Z"/></g>
<g><path style="opacity:1" fill="#c8ac86" d="M 139.5,23.5 C 141.303,27.7936 141.969,32.1269 141.5,36.5C 141.225,44.5533 141.725,52.5533 143,60.5C 143.671,61.2524 144.504,61.5858 145.5,61.5C 146.183,63.1765 147.517,63.8432 149.5,63.5C 149.5,66.8333 149.5,70.1667 149.5,73.5C 145.592,72.9614 144.259,70.9614 145.5,67.5C 144.789,65.4554 143.456,64.1221 141.5,63.5C 139.824,62.8166 139.157,61.4832 139.5,59.5C 139.5,47.5 139.5,35.5 139.5,23.5 Z"/></g>
<g><path style="opacity:1" fill="#5e4f49" d="M -0.5,44.5 C 0.641417,47.2542 1.97475,49.9209 3.5,52.5C 3.66018,54.1992 3.49351,55.8659 3,57.5C 1.97861,55.0297 0.811946,52.6964 -0.5,50.5C -0.5,48.5 -0.5,46.5 -0.5,44.5 Z"/></g>
<g><path style="opacity:1" fill="#38373a" d="M 23.5,35.5 C 24.1667,35.5 24.8333,35.5 25.5,35.5C 26.8314,39.2072 28.1647,42.8739 29.5,46.5C 31.9835,48.9368 33.3168,51.9368 33.5,55.5C 33.5,59.1667 33.5,62.8333 33.5,66.5C 31.5,66.5 29.5,66.5 27.5,66.5C 26.5415,56.1233 25.2082,45.79 23.5,35.5 Z"/></g>
<g><path style="opacity:1" fill="#081425" d="M 37.5,43.5 C 37.8333,43.5 38.1667,43.5 38.5,43.5C 38.5,46.1667 38.5,48.8333 38.5,51.5C 38.6657,55.8461 38.499,60.1794 38,64.5C 36.9887,63.6634 35.8221,63.33 34.5,63.5C 34.8064,60.6146 34.4731,57.9479 33.5,55.5C 33.3168,51.9368 31.9835,48.9368 29.5,46.5C 29.3433,45.1266 29.51,43.7932 30,42.5C 32.3806,43.435 34.8806,43.7683 37.5,43.5 Z"/></g>
<g><path style="opacity:1" fill="#b7919d" d="M 67.5,51.5 C 69.8109,53.0682 72.4776,53.9016 75.5,54C 73.8659,54.4935 72.1992,54.6602 70.5,54.5C 68.5767,54.205 66.9101,53.3717 65.5,52C 66.0944,51.5357 66.7611,51.369 67.5,51.5 Z"/></g>
<g><path style="opacity:1" fill="#886358" d="M 90.5,39.5 C 90.8333,39.5 91.1667,39.5 91.5,39.5C 91.5,42.1667 91.5,44.8333 91.5,47.5C 91.5,48.8333 91.5,50.1667 91.5,51.5C 89.0661,58.9345 84.0661,63.6011 76.5,65.5C 78.498,63.4002 80.6647,61.4002 83,59.5C 84.4014,57.8541 84.568,56.1875 83.5,54.5C 82.0052,55.7053 80.6719,55.7053 79.5,54.5C 81.3786,54.6068 81.7119,54.1068 80.5,53C 78.6183,52.8019 76.9516,52.3019 75.5,51.5C 76.8333,51.5 78.1667,51.5 79.5,51.5C 79.5,49.8333 79.5,48.1667 79.5,46.5C 88.3783,52.284 92.045,49.9506 90.5,39.5 Z"/></g>
<g><path style="opacity:1" fill="#563f39" d="M 93.5,50.5 C 93.5,50.8333 93.5,51.1667 93.5,51.5C 93.1075,53.2838 92.4408,54.9505 91.5,56.5C 90.8826,56.6107 90.3826,56.944 90,57.5C 89.5537,62.6356 88.0537,67.3022 85.5,71.5C 86.0916,68.8728 86.4249,66.2062 86.5,63.5C 83.6257,64.3635 80.9591,65.6968 78.5,67.5C 77.2867,67.2528 76.62,66.5862 76.5,65.5C 84.0661,63.6011 89.0661,58.9345 91.5,51.5C 91.4346,51.9382 91.6012,52.2716 92,52.5C 92.2784,51.5842 92.7784,50.9175 93.5,50.5 Z"/></g>
<g><path style="opacity:1" fill="#c4c2be" d="M 146.5,50.5 C 147.5,50.5 148.5,50.5 149.5,50.5C 149.5,52.8333 149.5,55.1667 149.5,57.5C 148.504,57.5858 147.671,57.2524 147,56.5C 146.505,54.5273 146.338,52.5273 146.5,50.5 Z"/></g>
<g><path style="opacity:1" fill="#854249" d="M 68.5,49.5 C 70.1667,50.1667 71.8333,50.8333 73.5,51.5C 71.5,51.5 69.5,51.5 67.5,51.5C 66.7611,51.369 66.0944,51.5357 65.5,52C 66.9101,53.3717 68.5767,54.205 70.5,54.5C 72.9479,55.4731 75.6146,55.8064 78.5,55.5C 75.9795,58.7304 72.6462,59.8971 68.5,59C 65.7396,57.0155 63.7396,54.5155 62.5,51.5C 63.9179,49.6921 65.9179,49.0254 68.5,49.5 Z"/></g>
<g><path style="opacity:1" fill="#a69a82" d="M 33.5,67.5 C 36.0786,67.3939 38.412,68.0605 40.5,69.5C 40.5,70.1667 40.8333,70.5 41.5,70.5C 41.4614,71.7562 41.9614,72.7562 43,73.5C 44.4002,72.8841 45.9002,72.5507 47.5,72.5C 49.3328,72.5854 50.6661,73.2521 51.5,74.5C 49.4602,76.177 47.4602,77.8437 45.5,79.5C 45.1667,79.5 44.8333,79.5 44.5,79.5C 43.8333,79.5 43.1667,79.5 42.5,79.5C 41.5,79.5 40.5,79.5 39.5,79.5C 38.5,79.5 37.5,79.5 36.5,79.5C 38.0231,76.655 39.0231,73.655 39.5,70.5C 37.4352,70.4828 35.4352,70.1495 33.5,69.5C 29.1539,69.3343 24.8206,69.501 20.5,70C 16.6729,73.3077 15.5063,77.4744 17,82.5C 17.3826,83.056 17.8826,83.3893 18.5,83.5C 18.5,84.8333 18.5,86.1667 18.5,87.5C 18.1667,87.5 17.8333,87.5 17.5,87.5C 15.7217,83.4347 15.0551,79.1014 15.5,74.5C 15.7329,72.9382 16.3995,71.6049 17.5,70.5C 18.8333,68.1667 18.8333,65.8333 17.5,63.5C 17.5328,59.1311 17.1995,54.7978 16.5,50.5C 17.7079,49.7659 19.0413,49.4326 20.5,49.5C 21.0027,55.5209 21.6693,61.5209 22.5,67.5C 26.1667,67.5 29.8333,67.5 33.5,67.5 Z"/></g>
<g><path style="opacity:1" fill="#979188" d="M 48.5,35.5 C 49.461,44.9951 50.1276,54.6618 50.5,64.5C 51.5,64.5 52.5,64.5 53.5,64.5C 53.5,64.8333 53.5,65.1667 53.5,65.5C 52.8423,66.3984 52.1757,67.3984 51.5,68.5C 50.4777,68.1445 49.811,67.4778 49.5,66.5C 48.6228,57.8667 48.2895,49.2 48.5,40.5C 48.5,38.8333 48.5,37.1667 48.5,35.5 Z"/></g>
<g><path style="opacity:1" fill="#a68a5e" d="M 122.5,81.5 C 121.833,81.5 121.167,81.5 120.5,81.5C 120.827,71.3194 120.494,61.3194 119.5,51.5C 119.024,46.2106 119.858,41.2106 122,36.5C 122.5,51.4963 122.667,66.4963 122.5,81.5 Z"/></g>
<g><path style="opacity:1" fill="#c5d3d7" d="M -0.5,36.5 C 1.16667,36.5 2.83333,36.5 4.5,36.5C 6.14068,38.2575 8.14068,39.7575 10.5,41C 9.26253,41.2321 8.26253,41.7321 7.5,42.5C 6.88258,42.6107 6.38258,42.944 6,43.5C 5.50258,46.146 5.33591,48.8127 5.5,51.5C 6.79105,51.7373 7.79105,51.404 8.5,50.5C 9.79105,50.7373 10.791,50.404 11.5,49.5C 13.2915,49.366 14.9582,49.6993 16.5,50.5C 17.1995,54.7978 17.5328,59.1311 17.5,63.5C 16.6661,64.7479 15.3328,65.4146 13.5,65.5C 8.8595,66.2308 4.19283,66.5641 -0.5,66.5C -0.5,61.1667 -0.5,55.8333 -0.5,50.5C 0.811946,52.6964 1.97861,55.0297 3,57.5C 3.49351,55.8659 3.66018,54.1992 3.5,52.5C 3.63733,48.1243 3.804,43.7909 4,39.5C 3.58605,39.0426 3.08605,38.7093 2.5,38.5C 1.73485,39.6119 0.734849,40.2786 -0.5,40.5C -0.5,39.1667 -0.5,37.8333 -0.5,36.5 Z"/></g>
<g><path style="opacity:1" fill="#16161d" d="M 38.5,51.5 C 39.8099,57.2882 40.4766,63.2882 40.5,69.5C 38.412,68.0605 36.0786,67.3939 33.5,67.5C 33.5,67.1667 33.5,66.8333 33.5,66.5C 33.5,62.8333 33.5,59.1667 33.5,55.5C 34.4731,57.9479 34.8064,60.6146 34.5,63.5C 35.8221,63.33 36.9887,63.6634 38,64.5C 38.499,60.1794 38.6657,55.8461 38.5,51.5 Z"/></g>
<g><path style="opacity:1" fill="#382c24" d="M 102.5,33.5 C 103.451,34.9187 103.784,36.5853 103.5,38.5C 103.74,49.5313 103.407,60.5313 102.5,71.5C 101.167,71.5 99.8333,71.5 98.5,71.5C 96.5779,73.7925 95.2446,76.4592 94.5,79.5C 95.5,71.5 96.5,63.5 97.5,55.5C 98.5,55.5 99.5,55.5 100.5,55.5C 101.66,48.2167 102.327,40.8834 102.5,33.5 Z"/></g>
<g><path style="opacity:1" fill="#a18761" d="M 117.5,38.5 C 117.182,43.0323 117.515,47.3656 118.5,51.5C 118.5,61.5 118.5,71.5 118.5,81.5C 117.609,80.8902 116.609,80.5569 115.5,80.5C 115.5,66.8333 115.5,53.1667 115.5,39.5C 116.167,39.1667 116.833,38.8333 117.5,38.5 Z"/></g>
<g><path style="opacity:1" fill="#767061" d="M 23.5,35.5 C 25.2082,45.79 26.5415,56.1233 27.5,66.5C 29.5,66.5 31.5,66.5 33.5,66.5C 33.5,66.8333 33.5,67.1667 33.5,67.5C 29.8333,67.5 26.1667,67.5 22.5,67.5C 21.6693,61.5209 21.0027,55.5209 20.5,49.5C 19.0413,49.4326 17.7079,49.7659 16.5,50.5C 14.9582,49.6993 13.2915,49.366 11.5,49.5C 11.5,48.1667 11.5,46.8333 11.5,45.5C 12.1667,46.1667 12.8333,46.8333 13.5,47.5C 14.2216,47.0825 14.7216,46.4158 15,45.5C 15.5885,47.8633 17.0885,48.8633 19.5,48.5C 19.4828,46.4352 19.1495,44.4352 18.5,42.5C 18.5,40.5 18.5,38.5 18.5,36.5C 18.4346,36.0618 18.6012,35.7284 19,35.5C 19.3076,36.3081 19.8076,36.9747 20.5,37.5C 21.5178,36.8075 22.5178,36.1408 23.5,35.5 Z"/></g>
<g><path style="opacity:1" fill="#110d0d" d="M 93.5,51.5 C 94.4916,51.3284 95.1583,51.6618 95.5,52.5C 95.5745,56.9808 94.9079,61.3141 93.5,65.5C 92.5,65.5 91.5,65.5 90.5,65.5C 90.3677,62.4299 90.701,59.4299 91.5,56.5C 92.4408,54.9505 93.1075,53.2838 93.5,51.5 Z"/></g>
<g><path style="opacity:1" fill="#9f726b" d="M 62.5,51.5 C 63.7396,54.5155 65.7396,57.0155 68.5,59C 72.6462,59.8971 75.9795,58.7304 78.5,55.5C 78.5,54.8333 78.8333,54.5 79.5,54.5C 80.6719,55.7053 82.0052,55.7053 83.5,54.5C 84.568,56.1875 84.4014,57.8541 83,59.5C 80.6647,61.4002 78.498,63.4002 76.5,65.5C 74.9505,66.4408 73.2838,67.1075 71.5,67.5C 69.7085,67.634 68.0418,67.3007 66.5,66.5C 65.075,65.078 64.075,63.4113 63.5,61.5C 63.3841,58.1401 63.0508,54.8067 62.5,51.5 Z"/></g>
<g><path style="opacity:1" fill="#171217" d="M 62.5,61.5 C 62.8333,61.5 63.1667,61.5 63.5,61.5C 64.075,63.4113 65.075,65.078 66.5,66.5C 66.5,68.1667 66.5,69.8333 66.5,71.5C 66.762,72.9778 66.4287,74.3112 65.5,75.5C 62.4954,70.8439 60.6621,65.8439 60,60.5C 60.6708,61.2524 61.5041,61.5858 62.5,61.5 Z"/></g>
<g><path style="opacity:1" fill="#251c17" d="M 95.5,52.5 C 96.1667,53.5 96.8333,54.5 97.5,55.5C 96.5,63.5 95.5,71.5 94.5,79.5C 93.5103,83.7722 92.8437,88.1055 92.5,92.5C 90.7296,86.3422 90.3963,80.0089 91.5,73.5C 90.1667,73.5 88.8333,73.5 87.5,73.5C 85.8041,75.129 84.8041,74.7957 84.5,72.5C 84.5,71.8333 84.8333,71.5 85.5,71.5C 88.0537,67.3022 89.5537,62.6356 90,57.5C 90.3826,56.944 90.8826,56.6107 91.5,56.5C 90.701,59.4299 90.3677,62.4299 90.5,65.5C 91.5,65.5 92.5,65.5 93.5,65.5C 94.9079,61.3141 95.5745,56.9808 95.5,52.5 Z"/></g>
<g><path style="opacity:1" fill="#bca58a" d="M 122.5,3.5 C 123.128,13.4171 124.128,23.4171 125.5,33.5C 125.401,36.2372 125.735,38.9039 126.5,41.5C 126.667,52.505 126.5,63.505 126,74.5C 125.667,70.5 125.333,66.5 125,62.5C 124.828,69.0133 124.328,75.3466 123.5,81.5C 123.647,55.4914 123.314,29.4914 122.5,3.5 Z"/></g>
<g><path style="opacity:1" fill="#463224" d="M 107.5,31.5 C 109.546,49.3934 110.879,67.3934 111.5,85.5C 110.081,86.4511 108.415,86.7845 106.5,86.5C 106.698,81.2502 106.031,76.2502 104.5,71.5C 104.359,65.2908 105.359,59.2908 107.5,53.5C 107.409,49.2737 106.743,44.9403 105.5,40.5C 107.26,37.7877 107.927,34.7877 107.5,31.5 Z"/></g>
<g><path style="opacity:1" fill="#beab90" d="M 126.5,41.5 C 128.319,51.2741 129.486,61.2741 130,71.5C 130.662,68.5834 132.495,67.2501 135.5,67.5C 134.671,72.453 134.337,77.453 134.5,82.5C 133.178,82.67 132.011,82.3366 131,81.5C 130.911,85.0284 130.244,88.3618 129,91.5C 128.79,89.9419 128.29,88.6085 127.5,87.5C 124.265,82.979 119.932,81.6457 114.5,83.5C 114.167,83.5 113.833,83.5 113.5,83.5C 113.5,82.5 113.5,81.5 113.5,80.5C 113.833,80.5 114.167,80.5 114.5,80.5C 114.833,80.5 115.167,80.5 115.5,80.5C 116.609,80.5569 117.609,80.8902 118.5,81.5C 119.167,81.5 119.833,81.5 120.5,81.5C 121.167,81.5 121.833,81.5 122.5,81.5C 122.833,81.5 123.167,81.5 123.5,81.5C 124.328,75.3466 124.828,69.0133 125,62.5C 125.333,66.5 125.667,70.5 126,74.5C 126.5,63.505 126.667,52.505 126.5,41.5 Z"/></g>
<g><path style="opacity:1" fill="#7f6f59" d="M 53.5,65.5 C 53.5,66.5 53.5,67.5 53.5,68.5C 53.5,69.5 53.5,70.5 53.5,71.5C 52.8333,72.5 52.1667,73.5 51.5,74.5C 50.6661,73.2521 49.3328,72.5854 47.5,72.5C 45.9002,72.5507 44.4002,72.8841 43,73.5C 41.9614,72.7562 41.4614,71.7562 41.5,70.5C 42.1667,70.5 42.5,70.1667 42.5,69.5C 43.2674,68.828 43.9341,67.9947 44.5,67C 46.3423,67.068 48.009,66.9014 49.5,66.5C 49.811,67.4778 50.4777,68.1445 51.5,68.5C 52.1757,67.3984 52.8423,66.3984 53.5,65.5 Z"/></g>
<g><path style="opacity:1" fill="#b2bbb9" d="M 17.5,63.5 C 18.8333,65.8333 18.8333,68.1667 17.5,70.5C 15.4496,70.9612 13.4496,71.6279 11.5,72.5C 10.9348,74.5435 9.93476,76.2102 8.5,77.5C 9.32347,75.5454 9.49013,73.5454 9,71.5C 6.04544,71.6782 2.87878,71.6782 -0.5,71.5C -0.5,69.8333 -0.5,68.1667 -0.5,66.5C 4.19283,66.5641 8.8595,66.2308 13.5,65.5C 15.3328,65.4146 16.6661,64.7479 17.5,63.5 Z"/></g>
<g><path style="opacity:1" fill="#7c5954" d="M 85.5,71.5 C 84.8333,71.5 84.5,71.8333 84.5,72.5C 83.1429,73.5903 82.1429,74.9236 81.5,76.5C 78.9823,80.0596 76.649,83.7263 74.5,87.5C 75.0138,85.6336 75.6805,83.8003 76.5,82C 76.0946,81.0546 75.428,80.3879 74.5,80C 74.8333,79.6667 75.1667,79.3333 75.5,79C 74.0145,76.2074 72.6811,73.3741 71.5,70.5C 71.5,69.5 71.5,68.5 71.5,67.5C 73.2838,67.1075 74.9505,66.4408 76.5,65.5C 76.62,66.5862 77.2867,67.2528 78.5,67.5C 80.9591,65.6968 83.6257,64.3635 86.5,63.5C 86.4249,66.2062 86.0916,68.8728 85.5,71.5 Z"/></g>
<g><path style="opacity:1" fill="#755d35" d="M 118.5,51.5 C 118.833,51.5 119.167,51.5 119.5,51.5C 120.494,61.3194 120.827,71.3194 120.5,81.5C 119.833,81.5 119.167,81.5 118.5,81.5C 118.5,71.5 118.5,61.5 118.5,51.5 Z"/></g>
<g><path style="opacity:1" fill="#3e2e20" d="M 98.5,71.5 C 99.8333,71.5 101.167,71.5 102.5,71.5C 103.167,71.5 103.833,71.5 104.5,71.5C 106.031,76.2502 106.698,81.2502 106.5,86.5C 105.833,86.8333 105.167,87.1667 104.5,87.5C 103.069,87.8807 102.236,88.8807 102,90.5C 101.667,88.8333 101.333,87.1667 101,85.5C 100.64,87.6079 99.9734,89.6079 99,91.5C 98.6667,91.1667 98.3333,90.8333 98,90.5C 97.1482,91.5707 96.3149,92.5707 95.5,93.5C 95.1667,93.5 94.8333,93.5 94.5,93.5C 95.9945,86.2217 97.3279,78.8884 98.5,71.5 Z"/></g>
<g><path style="opacity:1" fill="#5d452d" d="M 106.5,17.5 C 107.167,18.8333 107.833,20.1667 108.5,21.5C 108.779,26.2268 109.446,30.8935 110.5,35.5C 111.161,48.4879 111.661,61.4879 112,74.5C 112.315,76.5856 112.815,78.5856 113.5,80.5C 113.5,81.5 113.5,82.5 113.5,83.5C 113.666,87.8461 113.499,92.1794 113,96.5C 112.617,97.056 112.117,97.3893 111.5,97.5C 112.874,91.4391 112.874,87.4391 111.5,85.5C 110.879,67.3934 109.546,49.3934 107.5,31.5C 107.5,30.1667 107.5,28.8333 107.5,27.5C 107.167,24.1667 106.833,20.8333 106.5,17.5 Z"/></g>
<g><path style="opacity:1" fill="#583f3b" d="M 66.5,66.5 C 68.0418,67.3007 69.7085,67.634 71.5,67.5C 71.5,68.5 71.5,69.5 71.5,70.5C 70.6909,74.0996 70.0242,78.0996 69.5,82.5C 69.7104,85.6831 70.3771,88.6831 71.5,91.5C 69.4864,93.845 67.153,95.845 64.5,97.5C 65.5729,95.3469 65.5729,93.3469 64.5,91.5C 64.0301,88.6544 64.8634,86.3211 67,84.5C 68.0875,86.9316 68.5875,86.5983 68.5,83.5C 68.4613,79.2671 67.7947,75.2671 66.5,71.5C 66.5,69.8333 66.5,68.1667 66.5,66.5 Z"/></g>
<g><path style="opacity:1" fill="#d3dad5" d="M 17.5,70.5 C 16.3995,71.6049 15.7329,72.9382 15.5,74.5C 14.6981,75.9516 14.1981,77.6183 14,79.5C 12.8831,79.3349 11.7164,79.0016 10.5,78.5C 9.47565,79.8518 8.47565,81.1851 7.5,82.5C 7.08342,84.6452 6.08342,85.3118 4.5,84.5C 5.92946,82.1074 7.26279,79.7741 8.5,77.5C 9.93476,76.2102 10.9348,74.5435 11.5,72.5C 13.4496,71.6279 15.4496,70.9612 17.5,70.5 Z"/></g>
<g><path style="opacity:1" fill="#9c8662" d="M 33.5,69.5 C 33.5,70.1667 33.5,70.8333 33.5,71.5C 30.5787,73.0894 27.5787,74.5894 24.5,76C 23.6634,77.0113 23.33,78.1779 23.5,79.5C 20.6333,79.3692 18.9666,80.7026 18.5,83.5C 17.8826,83.3893 17.3826,83.056 17,82.5C 15.5063,77.4744 16.6729,73.3077 20.5,70C 24.8206,69.501 29.1539,69.3343 33.5,69.5 Z"/></g>
<g><path style="opacity:1" fill="#261d1c" d="M 58.5,53.5 C 60.341,55.8485 61.6743,58.5152 62.5,61.5C 61.5041,61.5858 60.6708,61.2524 60,60.5C 60.6621,65.8439 62.4954,70.8439 65.5,75.5C 66.4287,74.3112 66.762,72.9778 66.5,71.5C 67.7947,75.2671 68.4613,79.2671 68.5,83.5C 67.5655,82.4324 67.2322,81.099 67.5,79.5C 65.8561,79.2865 64.3561,79.6198 63,80.5C 61.317,79.1134 60.1504,77.4467 59.5,75.5C 58.3424,69.8677 57.3424,64.201 56.5,58.5C 56.5561,56.3603 57.2227,54.6936 58.5,53.5 Z"/></g>
<g><path style="opacity:1" fill="#755752" d="M 71.5,70.5 C 72.6811,73.3741 74.0145,76.2074 75.5,79C 75.1667,79.3333 74.8333,79.6667 74.5,80C 75.428,80.3879 76.0946,81.0546 76.5,82C 75.6805,83.8003 75.0138,85.6336 74.5,87.5C 73.9779,89.2191 72.9779,90.5525 71.5,91.5C 70.3771,88.6831 69.7104,85.6831 69.5,82.5C 70.0242,78.0996 70.6909,74.0996 71.5,70.5 Z"/></g>
<g><path style="opacity:1" fill="#42382d" d="M 87.5,73.5 C 88.8333,73.5 90.1667,73.5 91.5,73.5C 90.3963,80.0089 90.7296,86.3422 92.5,92.5C 92.5912,94.6977 91.9245,95.0311 90.5,93.5C 90.6633,91.1432 90.4966,88.8098 90,86.5C 89.3333,87.8333 88.6667,89.1667 88,90.5C 87.6012,90.2716 87.4346,89.9382 87.5,89.5C 87.5,88.5 87.5,87.5 87.5,86.5C 88.1174,86.3893 88.6174,86.056 89,85.5C 89.1667,84.1667 89.3333,82.8333 89.5,81.5C 89.4146,79.6672 88.7479,78.3339 87.5,77.5C 87.5,76.1667 87.5,74.8333 87.5,73.5 Z"/></g>
<g><path style="opacity:1" fill="#a08360" d="M 110.5,35.5 C 111.203,37.6287 112.203,39.6287 113.5,41.5C 114.299,54.4837 114.633,67.4837 114.5,80.5C 114.167,80.5 113.833,80.5 113.5,80.5C 112.815,78.5856 112.315,76.5856 112,74.5C 111.661,61.4879 111.161,48.4879 110.5,35.5 Z"/></g>
<g><path style="opacity:1" fill="#9b9f9d" d="M -0.5,71.5 C 2.87878,71.6782 6.04544,71.6782 9,71.5C 9.49013,73.5454 9.32347,75.5454 8.5,77.5C 7.26279,79.7741 5.92946,82.1074 4.5,84.5C 6.08342,85.3118 7.08342,84.6452 7.5,82.5C 10.6344,83.1076 11.3011,84.7742 9.5,87.5C 7.16667,87.5 4.83333,87.5 2.5,87.5C 2.06178,87.5654 1.72845,87.3988 1.5,87C 4.72819,83.7792 4.06153,82.2792 -0.5,82.5C -0.5,78.8333 -0.5,75.1667 -0.5,71.5 Z"/></g>
<g><path style="opacity:1" fill="#c3a67d" d="M 141.5,63.5 C 143.456,64.1221 144.789,65.4554 145.5,67.5C 144.259,70.9614 145.592,72.9614 149.5,73.5C 149.5,77.1667 149.5,80.8333 149.5,84.5C 147.901,84.2322 146.568,84.5655 145.5,85.5C 143.801,85.5271 142.467,86.1938 141.5,87.5C 141.5,79.5 141.5,71.5 141.5,63.5 Z"/></g>
<g><path style="opacity:1" fill="#72624c" d="M 51.5,74.5 C 50.3622,78.1089 48.6956,81.4422 46.5,84.5C 46.3713,82.7839 46.038,81.1172 45.5,79.5C 47.4602,77.8437 49.4602,76.177 51.5,74.5 Z"/></g>
<g><path style="opacity:1" fill="#38271f" d="M 53.5,68.5 C 54.404,69.209 54.7373,70.209 54.5,71.5C 55.5,71.5 56.5,71.5 57.5,71.5C 57.523,73.9267 58.023,76.26 59,78.5C 59.4828,77.552 59.6495,76.552 59.5,75.5C 60.1504,77.4467 61.317,79.1134 63,80.5C 64.3561,79.6198 65.8561,79.2865 67.5,79.5C 67.2322,81.099 67.5655,82.4324 68.5,83.5C 68.5875,86.5983 68.0875,86.9316 67,84.5C 64.8634,86.3211 64.0301,88.6544 64.5,91.5C 63.8333,91.5 63.1667,91.5 62.5,91.5C 62.7989,89.396 62.4656,87.396 61.5,85.5C 59.5018,85.9046 57.6684,87.238 56,89.5C 55.5,89.1667 55,88.8333 54.5,88.5C 55.046,87.2278 55.3793,85.8945 55.5,84.5C 53.9359,80.3253 53.2693,75.992 53.5,71.5C 53.5,70.5 53.5,69.5 53.5,68.5 Z"/></g>
<g><path style="opacity:1" fill="#8e7653" d="M 33.5,71.5 C 30.5402,74.7692 30.8736,77.6025 34.5,80C 33.6705,81.8161 32.8372,83.6494 32,85.5C 28.7456,85.838 25.9123,86.838 23.5,88.5C 22.5084,88.3284 21.8417,88.6618 21.5,89.5C 21.1667,89.5 20.8333,89.5 20.5,89.5C 19.5,89.1667 18.8333,88.5 18.5,87.5C 18.5,86.1667 18.5,84.8333 18.5,83.5C 18.9666,80.7026 20.6333,79.3692 23.5,79.5C 23.33,78.1779 23.6634,77.0113 24.5,76C 27.5787,74.5894 30.5787,73.0894 33.5,71.5 Z"/></g>
<g><path style="opacity:1" fill="#614738" d="M 84.5,72.5 C 84.8041,74.7957 85.8041,75.129 87.5,73.5C 87.5,74.8333 87.5,76.1667 87.5,77.5C 87.5674,78.9587 87.2341,80.2921 86.5,81.5C 84.5,85.1667 82.5,88.8333 80.5,92.5C 79.5,93.1667 78.5,93.8333 77.5,94.5C 76.8333,94.8333 76.1667,95.1667 75.5,95.5C 77.4248,91.5667 79.2581,87.5667 81,83.5C 81.4966,81.1902 81.6633,78.8568 81.5,76.5C 82.1429,74.9236 83.1429,73.5903 84.5,72.5 Z"/></g>
<g><path style="opacity:1" fill="#857a6b" d="M 87.5,77.5 C 88.7479,78.3339 89.4146,79.6672 89.5,81.5C 89.3333,82.8333 89.1667,84.1667 89,85.5C 88.6174,86.056 88.1174,86.3893 87.5,86.5C 87.7845,84.5853 87.4511,82.9187 86.5,81.5C 87.2341,80.2921 87.5674,78.9587 87.5,77.5 Z"/></g>
<g><path style="opacity:1" fill="#816c4d" d="M 33.5,69.5 C 35.4352,70.1495 37.4352,70.4828 39.5,70.5C 39.0231,73.655 38.0231,76.655 36.5,79.5C 36.0601,83.2515 34.3934,86.2515 31.5,88.5C 28.8333,88.5 26.1667,88.5 23.5,88.5C 25.9123,86.838 28.7456,85.838 32,85.5C 32.8372,83.6494 33.6705,81.8161 34.5,80C 30.8736,77.6025 30.5402,74.7692 33.5,71.5C 33.5,70.8333 33.5,70.1667 33.5,69.5 Z"/></g>
<g><path style="opacity:1" fill="#a69a90" d="M 42.5,79.5 C 43.1667,79.5 43.8333,79.5 44.5,79.5C 43.0949,83.3852 42.0949,87.3852 41.5,91.5C 40.6873,93.2608 39.6873,94.9275 38.5,96.5C 40.0701,90.571 41.4035,84.9043 42.5,79.5 Z"/></g>
<g><path style="opacity:1" fill="#7b7a74" d="M -0.5,82.5 C 4.06153,82.2792 4.72819,83.7792 1.5,87C 1.72845,87.3988 2.06178,87.5654 2.5,87.5C 2.5,88.8333 2.5,90.1667 2.5,91.5C 1.39105,91.5569 0.391047,91.8902 -0.5,92.5C -0.5,89.1667 -0.5,85.8333 -0.5,82.5 Z"/></g>
<g><path style="opacity:1" fill="#c2c4c0" d="M 15.5,74.5 C 15.0551,79.1014 15.7217,83.4347 17.5,87.5C 17.5,88.8333 17.5,90.1667 17.5,91.5C 15.4727,91.6621 13.4727,91.4955 11.5,91C 10.0267,90.2904 9.36007,89.1238 9.5,87.5C 11.3011,84.7742 10.6344,83.1076 7.5,82.5C 8.47565,81.1851 9.47565,79.8518 10.5,78.5C 11.7164,79.0016 12.8831,79.3349 14,79.5C 14.1981,77.6183 14.6981,75.9516 15.5,74.5 Z"/></g>
<g><path style="opacity:1" fill="#c5c1b5" d="M 39.5,79.5 C 40.5,79.5 41.5,79.5 42.5,79.5C 41.4035,84.9043 40.0701,90.571 38.5,96.5C 38.5,97.1667 38.5,97.8333 38.5,98.5C 37.6618,98.8417 37.3284,99.5084 37.5,100.5C 36.8333,101.5 36.1667,102.5 35.5,103.5C 34.2247,101.392 33.7247,99.0583 34,96.5C 34.4226,97.9561 35.2559,98.4561 36.5,98C 35.7413,95.4366 34.7413,92.9366 33.5,90.5C 35.6465,86.9213 37.6465,83.2546 39.5,79.5 Z"/></g>
<g><path style="opacity:1" fill="#89796b" d="M 44.5,79.5 C 44.8333,79.5 45.1667,79.5 45.5,79.5C 46.038,81.1172 46.3713,82.7839 46.5,84.5C 45.1389,86.8505 43.8056,89.1838 42.5,91.5C 42.1667,91.5 41.8333,91.5 41.5,91.5C 42.0949,87.3852 43.0949,83.3852 44.5,79.5 Z"/></g>
<g><path style="opacity:1" fill="#443320" d="M 53.5,71.5 C 53.2693,75.992 53.9359,80.3253 55.5,84.5C 55.3793,85.8945 55.046,87.2278 54.5,88.5C 55,88.8333 55.5,89.1667 56,89.5C 57.6684,87.238 59.5018,85.9046 61.5,85.5C 62.4656,87.396 62.7989,89.396 62.5,91.5C 62.5654,91.9382 62.3988,92.2716 62,92.5C 60.5664,89.0565 58.7331,89.0565 56.5,92.5C 56.0679,93.7095 55.4013,94.7095 54.5,95.5C 50.1505,94.5811 45.8172,94.2478 41.5,94.5C 42.1272,93.5832 42.4606,92.5832 42.5,91.5C 43.8056,89.1838 45.1389,86.8505 46.5,84.5C 48.6956,81.4422 50.3622,78.1089 51.5,74.5C 52.1667,73.5 52.8333,72.5 53.5,71.5 Z"/></g>
<g><path style="opacity:1" fill="#855b4a" d="M 81.5,76.5 C 81.6633,78.8568 81.4966,81.1902 81,83.5C 79.2581,87.5667 77.4248,91.5667 75.5,95.5C 75.3059,97.9118 73.9726,98.9118 71.5,98.5C 70.8826,98.6107 70.3826,98.944 70,99.5C 69.5034,101.81 69.3367,104.143 69.5,106.5C 67.901,106.768 66.5676,106.434 65.5,105.5C 65.4211,103.334 64.7545,101.334 63.5,99.5C 63.5427,98.5836 63.8761,97.9169 64.5,97.5C 67.153,95.845 69.4864,93.845 71.5,91.5C 72.9779,90.5525 73.9779,89.2191 74.5,87.5C 76.649,83.7263 78.9823,80.0596 81.5,76.5 Z"/></g>
<g><path style="opacity:1" fill="#c0aa7d" d="M 145.5,85.5 C 145.742,90.7133 145.742,96.0467 145.5,101.5C 146.5,101.5 147.5,101.5 148.5,101.5C 148.726,98.7508 148.393,96.0841 147.5,93.5C 147.957,92.7025 148.624,92.3691 149.5,92.5C 149.5,96.1667 149.5,99.8333 149.5,103.5C 146.658,103.528 145.491,104.862 146,107.5C 147.813,106.391 148.646,107.058 148.5,109.5C 147.5,109.5 146.5,109.5 145.5,109.5C 144.791,108.596 143.791,108.263 142.5,108.5C 142.664,111.187 142.497,113.854 142,116.5C 141.692,117.308 141.192,117.975 140.5,118.5C 139.461,114.895 138.795,111.228 138.5,107.5C 139.268,106.737 139.768,105.737 140,104.5C 140.333,105.833 140.667,107.167 141,108.5C 141.065,101.357 141.231,94.3571 141.5,87.5C 142.467,86.1938 143.801,85.5271 145.5,85.5 Z"/></g>
<g><path style="opacity:1" fill="#cfcbc4" d="M 127.5,87.5 C 127.556,92.7312 126.889,97.7312 125.5,102.5C 125.968,97.6303 125.302,92.9636 123.5,88.5C 124.836,86.6254 124.336,85.2921 122,84.5C 120.397,86.7341 118.897,89.0674 117.5,91.5C 116.505,97.1278 116.171,102.794 116.5,108.5C 115.833,105.833 115.167,103.167 114.5,100.5C 114.5,94.8333 114.5,89.1667 114.5,83.5C 119.932,81.6457 124.265,82.979 127.5,87.5 Z"/></g>
<g><path style="opacity:1" fill="#4c361d" d="M 111.5,97.5 C 111.666,101.514 111.499,105.514 111,109.5C 110.502,106.183 110.335,102.85 110.5,99.5C 110.502,97.1691 109.669,95.1691 108,93.5C 106.446,95.9272 105.279,95.9272 104.5,93.5C 104.5,91.5 104.5,89.5 104.5,87.5C 105.167,87.1667 105.833,86.8333 106.5,86.5C 108.415,86.7845 110.081,86.4511 111.5,85.5C 112.874,87.4391 112.874,91.4391 111.5,97.5 Z"/></g>
<g><path style="opacity:1" fill="#533d20" d="M 23.5,88.5 C 26.1667,88.5 28.8333,88.5 31.5,88.5C 31.4431,89.609 31.1098,90.609 30.5,91.5C 27.5,91.5 24.5,91.5 21.5,91.5C 21.5,90.8333 21.5,90.1667 21.5,89.5C 21.8417,88.6618 22.5084,88.3284 23.5,88.5 Z"/></g>
<g><path style="opacity:1" fill="#d0c8b7" d="M 36.5,79.5 C 37.5,79.5 38.5,79.5 39.5,79.5C 37.6465,83.2546 35.6465,86.9213 33.5,90.5C 34.7413,92.9366 35.7413,95.4366 36.5,98C 35.2559,98.4561 34.4226,97.9561 34,96.5C 33.7247,99.0583 34.2247,101.392 35.5,103.5C 35.5,103.833 35.5,104.167 35.5,104.5C 33.9395,109.349 33.6061,114.349 34.5,119.5C 35.5,119.5 36.5,119.5 37.5,119.5C 37.2627,120.791 37.596,121.791 38.5,122.5C 39.4731,124.948 39.8064,127.615 39.5,130.5C 37.8828,128.879 36.7162,126.879 36,124.5C 34.9887,123.663 33.8221,123.33 32.5,123.5C 31.1857,121.105 31.1857,118.605 32.5,116C 32,115.5 31.5,115 31,114.5C 29.9887,115.337 28.8221,115.67 27.5,115.5C 27.8726,118.574 28.5392,121.574 29.5,124.5C 26.9501,123.943 24.9501,122.61 23.5,120.5C 24.1217,119.373 24.955,118.373 26,117.5C 26.2401,113.748 26.7401,110.081 27.5,106.5C 28.4125,101.603 29.4125,96.6029 30.5,91.5C 31.1098,90.609 31.4431,89.609 31.5,88.5C 34.3934,86.2515 36.0601,83.2515 36.5,79.5 Z"/></g>
<g><path style="opacity:1" fill="#c2b288" d="M 134.5,86.5 C 134.666,91.1785 134.499,95.8452 134,100.5C 133.333,99.1667 132.333,98.1667 131,97.5C 130.153,100.49 131.32,101.824 134.5,101.5C 134.5,105.167 134.5,108.833 134.5,112.5C 133.5,112.5 132.5,112.5 131.5,112.5C 131.167,112.5 130.833,112.5 130.5,112.5C 128.625,106.999 128.125,101.332 129,95.5C 129.333,95.8333 129.667,96.1667 130,96.5C 130.308,95.6919 130.808,95.0253 131.5,94.5C 131.92,91.3837 132.92,88.7171 134.5,86.5 Z"/></g>
<g><path style="opacity:1" fill="#d5dadd" d="M 125.5,102.5 C 125.5,108.167 125.5,113.833 125.5,119.5C 125.167,119.5 124.833,119.5 124.5,119.5C 124.824,115.445 124.491,111.445 123.5,107.5C 122.201,108.694 120.868,109.694 119.5,110.5C 118.5,110.5 117.5,110.5 116.5,110.5C 116.5,109.833 116.5,109.167 116.5,108.5C 116.171,102.794 116.505,97.1278 117.5,91.5C 118.897,89.0674 120.397,86.7341 122,84.5C 124.336,85.2921 124.836,86.6254 123.5,88.5C 125.302,92.9636 125.968,97.6303 125.5,102.5 Z"/></g>
<g><path style="opacity:1" fill="#4c3c28" d="M 98.5,71.5 C 97.3279,78.8884 95.9945,86.2217 94.5,93.5C 92.6243,96.9209 91.6243,100.588 91.5,104.5C 91.1667,104.5 90.8333,104.5 90.5,104.5C 90.5,100.833 90.5,97.1667 90.5,93.5C 91.9245,95.0311 92.5912,94.6977 92.5,92.5C 92.8437,88.1055 93.5103,83.7722 94.5,79.5C 95.2446,76.4592 96.5779,73.7925 98.5,71.5 Z"/></g>
<g><path style="opacity:1" fill="#a68751" d="M 137.5,83.5 C 137.5,95.5 137.5,107.5 137.5,119.5C 137.06,117.156 136.06,115.156 134.5,113.5C 133.167,113.833 131.833,114.167 130.5,114.5C 130.833,113.833 131.167,113.167 131.5,112.5C 132.5,112.5 133.5,112.5 134.5,112.5C 135.331,100.007 135.831,87.34 136,74.5C 136.333,73.8333 136.667,73.1667 137,72.5C 137.499,76.1516 137.665,79.8183 137.5,83.5 Z"/></g>
<g><path style="opacity:1" fill="#c6ae81" d="M 139.5,59.5 C 139.157,61.4832 139.824,62.8166 141.5,63.5C 141.5,71.5 141.5,79.5 141.5,87.5C 141.231,94.3571 141.065,101.357 141,108.5C 140.667,107.167 140.333,105.833 140,104.5C 139.768,105.737 139.268,106.737 138.5,107.5C 138.5,99.5 138.5,91.5 138.5,83.5C 138.174,75.3159 138.508,67.3159 139.5,59.5 Z"/></g>
<g><path style="opacity:1" fill="#ccbe94" d="M 149.5,84.5 C 149.5,87.1667 149.5,89.8333 149.5,92.5C 148.624,92.3691 147.957,92.7025 147.5,93.5C 148.393,96.0841 148.726,98.7508 148.5,101.5C 147.5,101.5 146.5,101.5 145.5,101.5C 145.742,96.0467 145.742,90.7133 145.5,85.5C 146.568,84.5655 147.901,84.2322 149.5,84.5 Z"/></g>
<g><path style="opacity:1" fill="#a37941" d="M 21.5,91.5 C 24.5,91.5 27.5,91.5 30.5,91.5C 29.4125,96.6029 28.4125,101.603 27.5,106.5C 27.5,105.5 27.5,104.5 27.5,103.5C 24.3551,104.077 22.8551,106.077 23,109.5C 22.4092,103.502 21.9092,97.5015 21.5,91.5 Z"/></g>
<g><path style="opacity:1" fill="#4f361d" d="M 41.5,91.5 C 41.8333,91.5 42.1667,91.5 42.5,91.5C 42.4606,92.5832 42.1272,93.5832 41.5,94.5C 45.8172,94.2478 50.1505,94.5811 54.5,95.5C 53.8333,96.8333 53.1667,98.1667 52.5,99.5C 51.2502,99.4226 50.4169,98.756 50,97.5C 48.6813,99.2872 47.848,101.287 47.5,103.5C 46.2954,105.138 44.9621,105.471 43.5,104.5C 40.1604,103.976 38.4938,101.976 38.5,98.5C 38.5,97.8333 38.5,97.1667 38.5,96.5C 39.6873,94.9275 40.6873,93.2608 41.5,91.5 Z"/></g>
<g><path style="opacity:1" fill="#523c27" d="M 62.5,91.5 C 63.1667,91.5 63.8333,91.5 64.5,91.5C 65.5729,93.3469 65.5729,95.3469 64.5,97.5C 63.8761,97.9169 63.5427,98.5836 63.5,99.5C 64.7545,101.334 65.4211,103.334 65.5,105.5C 63.7986,106.211 62.7986,107.545 62.5,109.5C 60.7104,111.272 59.3771,113.272 58.5,115.5C 58.3718,111.119 58.7051,106.785 59.5,102.5C 60.6433,99.0242 60.8099,95.3575 60,91.5C 59.0853,92.3279 58.4186,93.3279 58,94.5C 57.7216,93.5842 57.2216,92.9175 56.5,92.5C 58.7331,89.0565 60.5664,89.0565 62,92.5C 62.3988,92.2716 62.5654,91.9382 62.5,91.5 Z"/></g>
<g><path style="opacity:1" fill="#4b3821" d="M 104.5,87.5 C 104.5,89.5 104.5,91.5 104.5,93.5C 103.532,95.6074 103.198,97.9407 103.5,100.5C 101.052,100.01 99.385,100.843 98.5,103C 99.7856,108.642 99.7856,114.142 98.5,119.5C 98.6633,117.143 98.4966,114.81 98,112.5C 97.8078,114.577 97.3078,116.577 96.5,118.5C 95.6143,117.675 95.281,116.675 95.5,115.5C 94.3312,108.158 94.3312,100.825 95.5,93.5C 96.3149,92.5707 97.1482,91.5707 98,90.5C 98.3333,90.8333 98.6667,91.1667 99,91.5C 99.9734,89.6079 100.64,87.6079 101,85.5C 101.333,87.1667 101.667,88.8333 102,90.5C 102.236,88.8807 103.069,87.8807 104.5,87.5 Z"/></g>
<g><path style="opacity:1" fill="#836e54" d="M 59.5,102.5 C 58.5028,102.53 57.8361,102.03 57.5,101C 58.3295,99.5349 58.4962,98.0349 58,96.5C 56.3886,100.275 53.8886,103.275 50.5,105.5C 51.1667,103.5 51.8333,101.5 52.5,99.5C 53.1667,98.1667 53.8333,96.8333 54.5,95.5C 55.4013,94.7095 56.0679,93.7095 56.5,92.5C 57.2216,92.9175 57.7216,93.5842 58,94.5C 58.4186,93.3279 59.0853,92.3279 60,91.5C 60.8099,95.3575 60.6433,99.0242 59.5,102.5 Z"/></g>
<g><path style="opacity:1" fill="#b8a98d" d="M 134.5,82.5 C 134.5,83.8333 134.5,85.1667 134.5,86.5C 132.92,88.7171 131.92,91.3837 131.5,94.5C 130.808,95.0253 130.308,95.6919 130,96.5C 129.667,96.1667 129.333,95.8333 129,95.5C 128.125,101.332 128.625,106.999 130.5,112.5C 129.883,112.611 129.383,112.944 129,113.5C 128.505,115.473 128.338,117.473 128.5,119.5C 127.5,119.5 126.5,119.5 125.5,119.5C 125.5,113.833 125.5,108.167 125.5,102.5C 126.889,97.7312 127.556,92.7312 127.5,87.5C 128.29,88.6085 128.79,89.9419 129,91.5C 130.244,88.3618 130.911,85.0284 131,81.5C 132.011,82.3366 133.178,82.67 134.5,82.5 Z"/></g>
<g><path style="opacity:1" fill="#c8b7a1" d="M 2.5,87.5 C 4.83333,87.5 7.16667,87.5 9.5,87.5C 9.36007,89.1238 10.0267,90.2904 11.5,91C 13.4727,91.4955 15.4727,91.6621 17.5,91.5C 17.5,90.1667 17.5,88.8333 17.5,87.5C 17.8333,87.5 18.1667,87.5 18.5,87.5C 18.8333,88.5 19.5,89.1667 20.5,89.5C 18.9767,92.6348 18.31,95.9682 18.5,99.5C 17.2436,103.584 15.5769,107.584 13.5,111.5C 12.2525,108.94 11.2525,106.273 10.5,103.5C 9.74917,104.376 9.24917,105.376 9,106.5C 8.72158,105.584 8.22158,104.918 7.5,104.5C 6.36675,101.262 5.53342,97.9288 5,94.5C 4.62325,93.0577 3.78991,92.0577 2.5,91.5C 2.5,90.1667 2.5,88.8333 2.5,87.5 Z"/></g>
<g><path style="opacity:1" fill="#503d24" d="M 104.5,93.5 C 105.279,95.9272 106.446,95.9272 108,93.5C 109.669,95.1691 110.502,97.1691 110.5,99.5C 109.517,103.298 109.183,107.298 109.5,111.5C 108.833,110.833 108.167,110.167 107.5,109.5C 108.303,105.831 107.136,103.164 104,101.5C 103.828,107.681 103.328,113.681 102.5,119.5C 102.79,115.064 102.29,110.73 101,106.5C 101.456,112.13 101.456,117.796 101,123.5C 100.759,126.289 100.092,128.956 99,131.5C 98.7679,130.263 98.2679,129.263 97.5,128.5C 97.9629,125.518 98.2962,122.518 98.5,119.5C 99.7856,114.142 99.7856,108.642 98.5,103C 99.385,100.843 101.052,100.01 103.5,100.5C 103.198,97.9407 103.532,95.6074 104.5,93.5 Z"/></g>
<g><path style="opacity:1" fill="#dad7ce" d="M 80.5,92.5 C 81.5,92.5 82.5,92.5 83.5,92.5C 82.2984,97.9773 82.2984,103.311 83.5,108.5C 83.5569,109.609 83.8902,110.609 84.5,111.5C 84.5,112.5 84.5,113.5 84.5,114.5C 81.3951,111.607 79.8951,107.941 80,103.5C 78.0528,104.11 76.2194,104.943 74.5,106C 74.8333,106.333 75.1667,106.667 75.5,107C 73.6583,108.346 72.6583,110.179 72.5,112.5C 71.6314,114.717 71.298,117.05 71.5,119.5C 70.1779,119.33 69.0113,119.663 68,120.5C 67.7837,122.384 67.117,124.051 66,125.5C 65.5357,124.906 65.369,124.239 65.5,123.5C 67.1679,119.495 68.8346,115.495 70.5,111.5C 73.0287,105.914 75.362,100.247 77.5,94.5C 78.5,93.8333 79.5,93.1667 80.5,92.5 Z"/></g>
<g><path style="opacity:1" fill="#382811" d="M 94.5,93.5 C 94.8333,93.5 95.1667,93.5 95.5,93.5C 94.3312,100.825 94.3312,108.158 95.5,115.5C 94.8826,115.389 94.3826,115.056 94,114.5C 93.3387,111.054 92.5054,107.721 91.5,104.5C 91.6243,100.588 92.6243,96.9209 94.5,93.5 Z"/></g>
<g><path style="opacity:1" fill="#bb9d75" d="M 2.5,91.5 C 3.78991,92.0577 4.62325,93.0577 5,94.5C 5.53342,97.9288 6.36675,101.262 7.5,104.5C 7.74606,108.151 7.74606,111.651 7.5,115C 9.62013,116.523 9.95346,118.356 8.5,120.5C 11.1138,120.989 13.7804,120.656 16.5,119.5C 17.404,120.209 17.7373,121.209 17.5,122.5C 13.8509,123.49 13.5176,125.323 16.5,128C 13.5219,128.696 10.5219,129.196 7.5,129.5C 6.7682,126.932 6.7682,124.266 7.5,121.5C 8.02617,118.192 6.69284,116.026 3.5,115C 4.35668,114.311 5.02335,113.478 5.5,112.5C 2.20677,108.636 1.20677,104.303 2.5,99.5C 1.5,99.5 0.5,99.5 -0.5,99.5C -0.5,97.1667 -0.5,94.8333 -0.5,92.5C 0.391047,91.8902 1.39105,91.5569 2.5,91.5 Z"/></g>
<g><path style="opacity:1" fill="#61471d" d="M 52.5,99.5 C 51.8333,101.5 51.1667,103.5 50.5,105.5C 50.5,105.833 50.5,106.167 50.5,106.5C 49.5,107.167 48.5,107.833 47.5,108.5C 47.5,106.833 47.5,105.167 47.5,103.5C 47.848,101.287 48.6813,99.2872 50,97.5C 50.4169,98.756 51.2502,99.4226 52.5,99.5 Z"/></g>
<g><path style="opacity:1" fill="#3b2a1d" d="M 77.5,94.5 C 75.362,100.247 73.0287,105.914 70.5,111.5C 69.8761,111.083 69.5427,110.416 69.5,109.5C 70.9222,105.966 71.5889,102.3 71.5,98.5C 73.9726,98.9118 75.3059,97.9118 75.5,95.5C 76.1667,95.1667 76.8333,94.8333 77.5,94.5 Z"/></g>
<g><path style="opacity:1" fill="#bdb6a8" d="M 86.5,81.5 C 87.4511,82.9187 87.7845,84.5853 87.5,86.5C 87.5,87.5 87.5,88.5 87.5,89.5C 83.9234,95.2141 82.5901,101.547 83.5,108.5C 82.2984,103.311 82.2984,97.9773 83.5,92.5C 82.5,92.5 81.5,92.5 80.5,92.5C 82.5,88.8333 84.5,85.1667 86.5,81.5 Z"/></g>
<g><path style="opacity:1" fill="#664829" d="M 38.5,98.5 C 38.4938,101.976 40.1604,103.976 43.5,104.5C 41.9998,108.173 39.9998,111.506 37.5,114.5C 36.1667,109.833 36.1667,105.167 37.5,100.5C 37.3284,99.5084 37.6618,98.8417 38.5,98.5 Z"/></g>
<g><path style="opacity:1" fill="#917959" d="M 37.5,100.5 C 36.1667,105.167 36.1667,109.833 37.5,114.5C 37.5,115.5 37.5,116.5 37.5,117.5C 36.8826,117.611 36.3826,117.944 36,118.5C 35.5008,113.845 35.3342,109.179 35.5,104.5C 35.5,104.167 35.5,103.833 35.5,103.5C 36.1667,102.5 36.8333,101.5 37.5,100.5 Z"/></g>
<g><path style="opacity:1" fill="#c4b8a7" d="M 59.5,102.5 C 58.7051,106.785 58.3718,111.119 58.5,115.5C 58.1667,119.5 57.8333,123.5 57.5,127.5C 56.8674,122.013 56.8674,116.346 57.5,110.5C 57.762,109.022 57.4287,107.689 56.5,106.5C 53.1694,108.262 50.5028,110.595 48.5,113.5C 49.1667,111.167 49.8333,108.833 50.5,106.5C 50.5,106.167 50.5,105.833 50.5,105.5C 53.8886,103.275 56.3886,100.275 58,96.5C 58.4962,98.0349 58.3295,99.5349 57.5,101C 57.8361,102.03 58.5028,102.53 59.5,102.5 Z"/></g>
<g><path style="opacity:1" fill="#e1e3e0" d="M 84.5,114.5 C 83.8333,116.5 83.1667,118.5 82.5,120.5C 80.9291,122.635 79.5957,124.968 78.5,127.5C 76.8668,122.692 76.0334,117.692 76,112.5C 75.0138,111.829 73.8471,111.829 72.5,112.5C 72.6583,110.179 73.6583,108.346 75.5,107C 75.1667,106.667 74.8333,106.333 74.5,106C 76.2194,104.943 78.0528,104.11 80,103.5C 79.8951,107.941 81.3951,111.607 84.5,114.5 Z"/></g>
<g><path style="opacity:1" fill="#614a30" d="M 113.5,83.5 C 113.833,83.5 114.167,83.5 114.5,83.5C 114.5,89.1667 114.5,94.8333 114.5,100.5C 114.46,108.187 114.793,115.854 115.5,123.5C 114.751,122.469 114.085,121.302 113.5,120C 113.833,119.667 114.167,119.333 114.5,119C 113.333,118.5 112.5,117.667 112,116.5C 111.502,119.482 111.335,122.482 111.5,125.5C 110.659,120.99 109.992,116.324 109.5,111.5C 109.183,107.298 109.517,103.298 110.5,99.5C 110.335,102.85 110.502,106.183 111,109.5C 111.499,105.514 111.666,101.514 111.5,97.5C 112.117,97.3893 112.617,97.056 113,96.5C 113.499,92.1794 113.666,87.8461 113.5,83.5 Z"/></g>
<g><path style="opacity:1" fill="#b4925b" d="M 20.5,89.5 C 20.8333,89.5 21.1667,89.5 21.5,89.5C 21.5,90.1667 21.5,90.8333 21.5,91.5C 21.9092,97.5015 22.4092,103.502 23,109.5C 22.8551,106.077 24.3551,104.077 27.5,103.5C 27.5,104.5 27.5,105.5 27.5,106.5C 26.7401,110.081 26.2401,113.748 26,117.5C 24.955,118.373 24.1217,119.373 23.5,120.5C 23.5,121.167 23.1667,121.5 22.5,121.5C 21.065,123.401 19.3983,123.734 17.5,122.5C 17.7373,121.209 17.404,120.209 16.5,119.5C 17.209,118.596 18.209,118.263 19.5,118.5C 18.6279,112.211 18.2946,105.878 18.5,99.5C 18.31,95.9682 18.9767,92.6348 20.5,89.5 Z"/></g>
<g><path style="opacity:1" fill="#e4e7e7" d="M 78.5,127.5 C 77.1667,129.833 75.8333,132.167 74.5,134.5C 74.5,135.167 74.1667,135.5 73.5,135.5C 66.9845,135.983 63.6512,132.983 63.5,126.5C 63.9321,125.29 64.5987,124.29 65.5,123.5C 65.369,124.239 65.5357,124.906 66,125.5C 67.117,124.051 67.7837,122.384 68,120.5C 69.0113,119.663 70.1779,119.33 71.5,119.5C 71.298,117.05 71.6314,114.717 72.5,112.5C 73.8471,111.829 75.0138,111.829 76,112.5C 76.0334,117.692 76.8668,122.692 78.5,127.5 Z"/></g>
<g><path style="opacity:1" fill="#786450" d="M 114.5,100.5 C 115.167,103.167 115.833,105.833 116.5,108.5C 116.5,109.167 116.5,109.833 116.5,110.5C 116.999,117.49 117.332,124.49 117.5,131.5C 116.232,129.095 115.565,126.428 115.5,123.5C 114.793,115.854 114.46,108.187 114.5,100.5 Z"/></g>
<g><path style="opacity:1" fill="#bc9a69" d="M -0.5,99.5 C 0.5,99.5 1.5,99.5 2.5,99.5C 1.20677,104.303 2.20677,108.636 5.5,112.5C 5.02335,113.478 4.35668,114.311 3.5,115C 6.69284,116.026 8.02617,118.192 7.5,121.5C 5.17267,121.247 3.17267,121.914 1.5,123.5C 0.818153,122.757 0.151487,122.091 -0.5,121.5C -0.5,114.167 -0.5,106.833 -0.5,99.5 Z"/></g>
<g><path style="opacity:1" fill="#523919" d="M 47.5,103.5 C 47.5,105.167 47.5,106.833 47.5,108.5C 47.7678,110.099 47.4345,111.432 46.5,112.5C 45.3309,116.121 44.1643,120.454 43,125.5C 41.6927,123.808 40.1927,122.475 38.5,121.5C 38.5674,120.041 38.2341,118.708 37.5,117.5C 37.5,116.5 37.5,115.5 37.5,114.5C 39.9998,111.506 41.9998,108.173 43.5,104.5C 44.9621,105.471 46.2954,105.138 47.5,103.5 Z"/></g>
<g><path style="opacity:1" fill="#817462" d="M 90.5,93.5 C 90.5,97.1667 90.5,100.833 90.5,104.5C 90.5,107.833 90.5,111.167 90.5,114.5C 89.4684,116.434 88.8017,118.6 88.5,121C 89.7927,125.496 89.7927,129.996 88.5,134.5C 89.9286,136.726 91.2619,139.726 92.5,143.5C 92.3764,144.107 92.0431,144.44 91.5,144.5C 89.0277,141.221 87.361,137.554 86.5,133.5C 86.5,132.167 86.5,130.833 86.5,129.5C 87.1599,128.036 87.4932,126.369 87.5,124.5C 86.8294,120.159 86.1627,115.826 85.5,111.5C 85.1667,111.5 84.8333,111.5 84.5,111.5C 83.8902,110.609 83.5569,109.609 83.5,108.5C 82.5901,101.547 83.9234,95.2141 87.5,89.5C 87.4346,89.9382 87.6012,90.2716 88,90.5C 88.6667,89.1667 89.3333,87.8333 90,86.5C 90.4966,88.8098 90.6633,91.1432 90.5,93.5 Z"/></g>
<g><path style="opacity:1" fill="#c8bcaa" d="M 86.5,96.5 C 87.7943,98.0478 88.4609,100.048 88.5,102.5C 88.6575,105.814 87.9908,108.814 86.5,111.5C 86.1667,111.5 85.8333,111.5 85.5,111.5C 85.1795,106.305 85.5128,101.305 86.5,96.5 Z"/></g>
<g><path style="opacity:1" fill="#a49480" d="M 86.5,111.5 C 87.9908,108.814 88.6575,105.814 88.5,102.5C 88.4609,100.048 87.7943,98.0478 86.5,96.5C 86.3287,93.2027 86.9954,92.8694 88.5,95.5C 89.8784,102.224 89.7117,108.891 88,115.5C 87.2086,114.255 86.7086,112.922 86.5,111.5 Z"/></g>
<g><path style="opacity:1" fill="#ced5db" d="M 124.5,119.5 C 124.736,122.609 124.403,125.609 123.5,128.5C 121.665,128.939 120.165,130.272 119,132.5C 118.161,129.86 118.661,127.527 120.5,125.5C 118.237,120.673 117.904,115.673 119.5,110.5C 120.868,109.694 122.201,108.694 123.5,107.5C 124.491,111.445 124.824,115.445 124.5,119.5 Z"/></g>
<g><path style="opacity:1" fill="#c9af84" d="M 18.5,99.5 C 18.2946,105.878 18.6279,112.211 19.5,118.5C 18.209,118.263 17.209,118.596 16.5,119.5C 13.7804,120.656 11.1138,120.989 8.5,120.5C 9.95346,118.356 9.62013,116.523 7.5,115C 7.74606,111.651 7.74606,108.151 7.5,104.5C 8.22158,104.918 8.72158,105.584 9,106.5C 9.24917,105.376 9.74917,104.376 10.5,103.5C 11.2525,106.273 12.2525,108.94 13.5,111.5C 15.5769,107.584 17.2436,103.584 18.5,99.5 Z"/></g>
<g><path style="opacity:1" fill="#35271a" d="M 90.5,104.5 C 90.8333,104.5 91.1667,104.5 91.5,104.5C 92.5054,107.721 93.3387,111.054 94,114.5C 94.3826,115.056 94.8826,115.389 95.5,115.5C 95.281,116.675 95.6143,117.675 96.5,118.5C 97.3078,116.577 97.8078,114.577 98,112.5C 98.4966,114.81 98.6633,117.143 98.5,119.5C 98.2962,122.518 97.9629,125.518 97.5,128.5C 98.1157,133.05 96.949,137.05 94,140.5C 91.9048,133.119 90.7381,125.119 90.5,116.5C 90.5,115.833 90.5,115.167 90.5,114.5C 90.5,111.167 90.5,107.833 90.5,104.5 Z"/></g>
<g><path style="opacity:1" fill="#b3a48e" d="M 35.5,104.5 C 35.3342,109.179 35.5008,113.845 36,118.5C 36.3826,117.944 36.8826,117.611 37.5,117.5C 38.2341,118.708 38.5674,120.041 38.5,121.5C 38.5,121.833 38.5,122.167 38.5,122.5C 37.596,121.791 37.2627,120.791 37.5,119.5C 36.5,119.5 35.5,119.5 34.5,119.5C 33.6061,114.349 33.9395,109.349 35.5,104.5 Z"/></g>
<g><path style="opacity:1" fill="#84755f" d="M 50.5,106.5 C 49.8333,108.833 49.1667,111.167 48.5,113.5C 48.5,114.167 48.5,114.833 48.5,115.5C 47.5166,119.298 47.1832,123.298 47.5,127.5C 46.5128,122.695 46.1795,117.695 46.5,112.5C 47.4345,111.432 47.7678,110.099 47.5,108.5C 48.5,107.833 49.5,107.167 50.5,106.5 Z"/></g>
<g><path style="opacity:1" fill="#afac9f" d="M 84.5,111.5 C 84.8333,111.5 85.1667,111.5 85.5,111.5C 86.1627,115.826 86.8294,120.159 87.5,124.5C 87.4932,126.369 87.1599,128.036 86.5,129.5C 87.3426,125.343 86.0092,122.343 82.5,120.5C 83.1667,118.5 83.8333,116.5 84.5,114.5C 84.5,113.5 84.5,112.5 84.5,111.5 Z"/></g>
<g><path style="opacity:1" fill="#be9760" d="M 134.5,113.5 C 134.812,125.58 134.479,137.58 133.5,149.5C 132.167,149.5 130.833,149.5 129.5,149.5C 129.5,144.833 129.5,140.167 129.5,135.5C 129.377,128.471 129.71,121.471 130.5,114.5C 131.833,114.167 133.167,113.833 134.5,113.5 Z"/></g>
<g><path style="opacity:1" fill="#b79e6e" d="M 137.5,83.5 C 137.833,83.5 138.167,83.5 138.5,83.5C 138.5,91.5 138.5,99.5 138.5,107.5C 138.795,111.228 139.461,114.895 140.5,118.5C 141.192,117.975 141.692,117.308 142,116.5C 142.497,113.854 142.664,111.187 142.5,108.5C 143.791,108.263 144.791,108.596 145.5,109.5C 146.007,110.859 147.007,111.859 148.5,112.5C 147.311,113.429 145.978,113.762 144.5,113.5C 144.221,118.595 144.555,123.595 145.5,128.5C 144.699,130.042 144.366,131.708 144.5,133.5C 143.167,133.5 141.833,133.5 140.5,133.5C 140.649,134.552 140.483,135.552 140,136.5C 139.329,135.748 138.496,135.414 137.5,135.5C 137.5,130.167 137.5,124.833 137.5,119.5C 137.5,107.5 137.5,95.5 137.5,83.5 Z"/></g>
<g><path style="opacity:1" fill="#584129" d="M 46.5,112.5 C 46.1795,117.695 46.5128,122.695 47.5,127.5C 47.5,128.167 47.5,128.833 47.5,129.5C 47.4588,131.745 46.6255,132.412 45,131.5C 44.1667,132.5 43.3333,133.5 42.5,134.5C 41.8243,133.398 41.1577,132.398 40.5,131.5C 40.5,130.833 40.1667,130.5 39.5,130.5C 39.8064,127.615 39.4731,124.948 38.5,122.5C 38.5,122.167 38.5,121.833 38.5,121.5C 40.1927,122.475 41.6927,123.808 43,125.5C 44.1643,120.454 45.3309,116.121 46.5,112.5 Z"/></g>
<g><path style="opacity:1" fill="#554028" d="M 115.5,123.5 C 115.565,126.428 116.232,129.095 117.5,131.5C 117.5,132.167 117.5,132.833 117.5,133.5C 117.62,135.734 117.287,137.901 116.5,140C 114.9,141.123 113.9,142.623 113.5,144.5C 111.482,143.067 109.815,143.401 108.5,145.5C 110.774,139.058 111.774,132.391 111.5,125.5C 111.335,122.482 111.502,119.482 112,116.5C 112.5,117.667 113.333,118.5 114.5,119C 114.167,119.333 113.833,119.667 113.5,120C 114.085,121.302 114.751,122.469 115.5,123.5 Z"/></g>
<g><path style="opacity:1" fill="#7c5b4c" d="M 62.5,109.5 C 64.4779,110.317 65.4779,111.817 65.5,114C 63.9182,117.412 62.5848,120.912 61.5,124.5C 60.5,124.5 59.5,124.5 58.5,124.5C 58.5,126.833 58.5,129.167 58.5,131.5C 57.5655,130.432 57.2322,129.099 57.5,127.5C 57.8333,123.5 58.1667,119.5 58.5,115.5C 59.3771,113.272 60.7104,111.272 62.5,109.5 Z"/></g>
<g><path style="opacity:1" fill="#e3dac6" d="M 23.5,120.5 C 24.9501,122.61 26.9501,123.943 29.5,124.5C 29.5,125.5 29.5,126.5 29.5,127.5C 27.1667,127.5 24.8333,127.5 22.5,127.5C 23.2386,132.204 23.5719,136.871 23.5,141.5C 23.9544,144.224 22.9544,146.057 20.5,147C 21.9423,147.377 22.9423,148.21 23.5,149.5C 19.5,149.5 15.5,149.5 11.5,149.5C 11.8925,147.716 12.5592,146.05 13.5,144.5C 15.3936,141.061 17.5603,137.728 20,134.5C 20.8535,130.143 21.6868,125.809 22.5,121.5C 23.1667,121.5 23.5,121.167 23.5,120.5 Z"/></g>
<g><path style="opacity:1" fill="#41311e" d="M 102.5,119.5 C 101.981,128.383 99.6481,136.716 95.5,144.5C 94.5028,144.53 93.8361,144.03 93.5,143C 90.9486,134.354 89.9486,125.521 90.5,116.5C 90.7381,125.119 91.9048,133.119 94,140.5C 96.949,137.05 98.1157,133.05 97.5,128.5C 98.2679,129.263 98.7679,130.263 99,131.5C 100.092,128.956 100.759,126.289 101,123.5C 101.456,117.796 101.456,112.13 101,106.5C 102.29,110.73 102.79,115.064 102.5,119.5 Z"/></g>
<g><path style="opacity:1" fill="#a78862" d="M 149.5,103.5 C 149.5,108.833 149.5,114.167 149.5,119.5C 148.755,122.39 148.088,125.39 147.5,128.5C 146.833,128.5 146.167,128.5 145.5,128.5C 144.555,123.595 144.221,118.595 144.5,113.5C 145.978,113.762 147.311,113.429 148.5,112.5C 147.007,111.859 146.007,110.859 145.5,109.5C 146.5,109.5 147.5,109.5 148.5,109.5C 148.646,107.058 147.813,106.391 146,107.5C 145.491,104.862 146.658,103.528 149.5,103.5 Z"/></g>
<g><path style="opacity:1" fill="#634635" d="M 71.5,98.5 C 71.5889,102.3 70.9222,105.966 69.5,109.5C 69.5427,110.416 69.8761,111.083 70.5,111.5C 68.8346,115.495 67.1679,119.495 65.5,123.5C 64.5987,124.29 63.9321,125.29 63.5,126.5C 62.5924,130.851 61.5924,135.184 60.5,139.5C 59.6295,136.888 58.9628,134.221 58.5,131.5C 58.5,129.167 58.5,126.833 58.5,124.5C 59.5,124.5 60.5,124.5 61.5,124.5C 62.5848,120.912 63.9182,117.412 65.5,114C 65.4779,111.817 64.4779,110.317 62.5,109.5C 62.7986,107.545 63.7986,106.211 65.5,105.5C 66.5676,106.434 67.901,106.768 69.5,106.5C 69.3367,104.143 69.5034,101.81 70,99.5C 70.3826,98.944 70.8826,98.6107 71.5,98.5 Z"/></g>
<g><path style="opacity:1" fill="#d3d8db" d="M 82.5,120.5 C 86.0092,122.343 87.3426,125.343 86.5,129.5C 84.7657,131.322 83.7657,133.655 83.5,136.5C 83.0431,137.298 82.3764,137.631 81.5,137.5C 79.6112,138.38 77.6112,138.38 75.5,137.5C 75.5,137.167 75.5,136.833 75.5,136.5C 75.6716,135.508 75.3382,134.842 74.5,134.5C 75.8333,132.167 77.1667,129.833 78.5,127.5C 79.5957,124.968 80.9291,122.635 82.5,120.5 Z"/></g>
<g><path style="opacity:1" fill="#b38f5d" d="M -0.5,121.5 C 0.151487,122.091 0.818153,122.757 1.5,123.5C 3.17267,121.914 5.17267,121.247 7.5,121.5C 6.7682,124.266 6.7682,126.932 7.5,129.5C 7.33788,131.527 7.50454,133.527 8,135.5C 9.77022,136.349 11.4369,138.015 13,140.5C 13.49,141.793 13.6567,143.127 13.5,144.5C 12.5592,146.05 11.8925,147.716 11.5,149.5C 10.5,149.5 9.5,149.5 8.5,149.5C 8.74962,148.078 9.58296,147.078 11,146.5C 11.7885,144.835 12.1218,143.169 12,141.5C 8.97118,139.971 6.80451,137.638 5.5,134.5C 3.60395,133.534 1.60395,133.201 -0.5,133.5C -0.5,129.5 -0.5,125.5 -0.5,121.5 Z"/></g>
<g><path style="opacity:1" fill="#5a4b3b" d="M 90.5,114.5 C 90.5,115.167 90.5,115.833 90.5,116.5C 89.9486,125.521 90.9486,134.354 93.5,143C 93.8361,144.03 94.5028,144.53 95.5,144.5C 95.5,144.833 95.5,145.167 95.5,145.5C 95.1667,145.5 94.8333,145.5 94.5,145.5C 93.209,145.737 92.209,145.404 91.5,144.5C 92.0431,144.44 92.3764,144.107 92.5,143.5C 91.2619,139.726 89.9286,136.726 88.5,134.5C 89.7927,129.996 89.7927,125.496 88.5,121C 88.8017,118.6 89.4684,116.434 90.5,114.5 Z"/></g>
<g><path style="opacity:1" fill="#d9d7d1" d="M 32.5,123.5 C 32.5,124.167 32.5,124.833 32.5,125.5C 31.3046,129.787 31.3046,134.12 32.5,138.5C 30.0225,138.051 28.0225,138.717 26.5,140.5C 27.9722,143.805 30.3055,146.305 33.5,148C 30.5399,147.68 27.5399,147.68 24.5,148C 25.056,148.383 25.3893,148.883 25.5,149.5C 24.8333,149.5 24.1667,149.5 23.5,149.5C 22.9423,148.21 21.9423,147.377 20.5,147C 22.9544,146.057 23.9544,144.224 23.5,141.5C 23.5719,136.871 23.2386,132.204 22.5,127.5C 24.8333,127.5 27.1667,127.5 29.5,127.5C 29.5,126.5 29.5,125.5 29.5,124.5C 28.5392,121.574 27.8726,118.574 27.5,115.5C 28.8221,115.67 29.9887,115.337 31,114.5C 31.5,115 32,115.5 32.5,116C 31.1857,118.605 31.1857,121.105 32.5,123.5 Z"/></g>
<g><path style="opacity:1" fill="#d7d1c6" d="M 57.5,110.5 C 56.2794,111.028 55.1127,111.695 54,112.5C 53.1071,119.607 53.6071,126.607 55.5,133.5C 55.1667,134.167 54.8333,134.833 54.5,135.5C 52.5201,133.205 51.3534,130.539 51,127.5C 50.51,128.793 50.3433,130.127 50.5,131.5C 49.0427,126.402 48.376,121.069 48.5,115.5C 48.5,114.833 48.5,114.167 48.5,113.5C 50.5028,110.595 53.1694,108.262 56.5,106.5C 57.4287,107.689 57.762,109.022 57.5,110.5 Z"/></g>
<g><path style="opacity:1" fill="#b09a79" d="M 130.5,112.5 C 130.833,112.5 131.167,112.5 131.5,112.5C 131.167,113.167 130.833,113.833 130.5,114.5C 129.71,121.471 129.377,128.471 129.5,135.5C 128.778,135.918 128.278,136.584 128,137.5C 126.418,135.376 126.251,133.21 127.5,131C 126.181,130.805 124.847,130.972 123.5,131.5C 123.5,130.5 123.5,129.5 123.5,128.5C 124.403,125.609 124.736,122.609 124.5,119.5C 124.833,119.5 125.167,119.5 125.5,119.5C 126.5,119.5 127.5,119.5 128.5,119.5C 128.338,117.473 128.505,115.473 129,113.5C 129.383,112.944 129.883,112.611 130.5,112.5 Z"/></g>
<g><path style="opacity:1" fill="#a08045" d="M 134.5,113.5 C 136.06,115.156 137.06,117.156 137.5,119.5C 137.5,124.833 137.5,130.167 137.5,135.5C 137.5,140.167 137.5,144.833 137.5,149.5C 136.167,149.5 134.833,149.5 133.5,149.5C 134.479,137.58 134.812,125.58 134.5,113.5 Z"/></g>
<g><path style="opacity:1" fill="#d0a575" d="M 145.5,128.5 C 146.167,128.5 146.833,128.5 147.5,128.5C 147.5,128.833 147.5,129.167 147.5,129.5C 147.665,132.518 147.498,135.518 147,138.5C 145.906,136.922 145.072,135.255 144.5,133.5C 144.366,131.708 144.699,130.042 145.5,128.5 Z"/></g>
<g><path style="opacity:1" fill="#ac8f62" d="M 22.5,121.5 C 21.6868,125.809 20.8535,130.143 20,134.5C 17.5603,137.728 15.3936,141.061 13.5,144.5C 13.6567,143.127 13.49,141.793 13,140.5C 11.4369,138.015 9.77022,136.349 8,135.5C 7.50454,133.527 7.33788,131.527 7.5,129.5C 10.5219,129.196 13.5219,128.696 16.5,128C 13.5176,125.323 13.8509,123.49 17.5,122.5C 19.3983,123.734 21.065,123.401 22.5,121.5 Z"/></g>
<g><path style="opacity:1" fill="#dcd9d3" d="M 57.5,110.5 C 56.8674,116.346 56.8674,122.013 57.5,127.5C 57.2322,129.099 57.5655,130.432 58.5,131.5C 58.9628,134.221 59.6295,136.888 60.5,139.5C 61.4746,141.795 62.8079,143.795 64.5,145.5C 63.3995,146.605 62.7329,147.938 62.5,149.5C 61.1667,149.5 59.8333,149.5 58.5,149.5C 57.5,147.5 56.5,145.5 55.5,143.5C 55.5,142.167 55.5,140.833 55.5,139.5C 54.5,139.5 53.5,139.5 52.5,139.5C 52.5905,136.848 51.9238,134.515 50.5,132.5C 50.5,132.167 50.5,131.833 50.5,131.5C 50.3433,130.127 50.51,128.793 51,127.5C 51.3534,130.539 52.5201,133.205 54.5,135.5C 54.8333,134.833 55.1667,134.167 55.5,133.5C 53.6071,126.607 53.1071,119.607 54,112.5C 55.1127,111.695 56.2794,111.028 57.5,110.5 Z"/></g>
<g><path style="opacity:1" fill="#584228" d="M 107.5,109.5 C 107.928,113.275 107.261,116.775 105.5,120C 107.504,127.976 106.171,135.309 101.5,142C 103.569,142.324 103.902,143.158 102.5,144.5C 102.994,146.026 103.661,147.359 104.5,148.5C 104.5,148.833 104.5,149.167 104.5,149.5C 103.833,149.5 103.167,149.5 102.5,149.5C 102.174,146.689 101.341,144.022 100,141.5C 98.871,143.141 97.371,144.141 95.5,144.5C 99.6481,136.716 101.981,128.383 102.5,119.5C 103.328,113.681 103.828,107.681 104,101.5C 107.136,103.164 108.303,105.831 107.5,109.5 Z"/></g>
<g><path style="opacity:1" fill="#ba9558" d="M -0.5,133.5 C 1.60395,133.201 3.60395,133.534 5.5,134.5C 6.80451,137.638 8.97118,139.971 12,141.5C 12.1218,143.169 11.7885,144.835 11,146.5C 9.58296,147.078 8.74962,148.078 8.5,149.5C 5.5,149.5 2.5,149.5 -0.5,149.5C -0.5,144.167 -0.5,138.833 -0.5,133.5 Z"/></g>
<g><path style="opacity:1" fill="#c6c4c4" d="M 32.5,125.5 C 34.622,127.991 36.2887,130.824 37.5,134C 36.6225,136.378 34.9558,137.878 32.5,138.5C 31.3046,134.12 31.3046,129.787 32.5,125.5 Z"/></g>
<g><path style="opacity:1" fill="#d0cdca" d="M 63.5,126.5 C 63.6512,132.983 66.9845,135.983 73.5,135.5C 71.8947,140.104 68.8947,143.438 64.5,145.5C 62.8079,143.795 61.4746,141.795 60.5,139.5C 61.5924,135.184 62.5924,130.851 63.5,126.5 Z"/></g>
<g><path style="opacity:1" fill="#b3afa9" d="M 48.5,115.5 C 48.376,121.069 49.0427,126.402 50.5,131.5C 50.5,131.833 50.5,132.167 50.5,132.5C 50.67,133.822 50.3366,134.989 49.5,136C 50.1667,136.333 50.8333,136.667 51.5,137C 49.1093,137.287 46.7759,137.787 44.5,138.5C 43.6143,139.325 43.281,140.325 43.5,141.5C 42.2502,141.577 41.4169,142.244 41,143.5C 40.5045,145.473 40.3379,147.473 40.5,149.5C 39.8333,149.5 39.1667,149.5 38.5,149.5C 37.2627,147.903 35.596,146.737 33.5,146C 35.8983,144.364 37.065,142.198 37,139.5C 34.9551,141.043 33.4551,140.71 32.5,138.5C 34.9558,137.878 36.6225,136.378 37.5,134C 36.2887,130.824 34.622,127.991 32.5,125.5C 32.5,124.833 32.5,124.167 32.5,123.5C 33.8221,123.33 34.9887,123.663 36,124.5C 36.7162,126.879 37.8828,128.879 39.5,130.5C 40.1667,130.5 40.5,130.833 40.5,131.5C 40.1159,133.665 40.7826,135.332 42.5,136.5C 44.0461,135.316 45.7127,134.316 47.5,133.5C 48.7053,132.005 48.7053,130.672 47.5,129.5C 47.5,128.833 47.5,128.167 47.5,127.5C 47.1832,123.298 47.5166,119.298 48.5,115.5 Z"/></g>
<g><path style="opacity:1" fill="#866f59" d="M 47.5,129.5 C 48.7053,130.672 48.7053,132.005 47.5,133.5C 45.7127,134.316 44.0461,135.316 42.5,136.5C 40.7826,135.332 40.1159,133.665 40.5,131.5C 41.1577,132.398 41.8243,133.398 42.5,134.5C 43.3333,133.5 44.1667,132.5 45,131.5C 46.6255,132.412 47.4588,131.745 47.5,129.5 Z"/></g>
<g><path style="opacity:1" fill="#d4ccc2" d="M 50.5,132.5 C 51.9238,134.515 52.5905,136.848 52.5,139.5C 53.5,139.5 54.5,139.5 55.5,139.5C 55.5,140.833 55.5,142.167 55.5,143.5C 54.7784,143.082 54.2784,142.416 54,141.5C 53.3985,144.221 53.5651,146.887 54.5,149.5C 51.5,149.5 48.5,149.5 45.5,149.5C 44.8333,146.833 44.1667,144.167 43.5,141.5C 43.281,140.325 43.6143,139.325 44.5,138.5C 46.7759,137.787 49.1093,137.287 51.5,137C 50.8333,136.667 50.1667,136.333 49.5,136C 50.3366,134.989 50.67,133.822 50.5,132.5 Z"/></g>
<g><path style="opacity:1" fill="#8b8074" d="M 117.5,133.5 C 118.634,135.966 118.801,138.633 118,141.5C 117.082,143.376 115.582,144.376 113.5,144.5C 113.9,142.623 114.9,141.123 116.5,140C 117.287,137.901 117.62,135.734 117.5,133.5 Z"/></g>
<g><path style="opacity:1" fill="#c6c6c2" d="M 116.5,110.5 C 117.5,110.5 118.5,110.5 119.5,110.5C 117.904,115.673 118.237,120.673 120.5,125.5C 118.661,127.527 118.161,129.86 119,132.5C 120.165,130.272 121.665,128.939 123.5,128.5C 123.5,129.5 123.5,130.5 123.5,131.5C 121.96,133.838 121.294,136.505 121.5,139.5C 119.648,142.551 118.314,145.884 117.5,149.5C 114.167,149.5 110.833,149.5 107.5,149.5C 108.458,148.038 109.624,146.705 111,145.5C 112.22,147.857 113.053,147.524 113.5,144.5C 115.582,144.376 117.082,143.376 118,141.5C 118.801,138.633 118.634,135.966 117.5,133.5C 117.5,132.833 117.5,132.167 117.5,131.5C 117.332,124.49 116.999,117.49 116.5,110.5 Z"/></g>
<g><path style="opacity:1" fill="#9f8a66" d="M 129.5,135.5 C 129.5,140.167 129.5,144.833 129.5,149.5C 127.5,149.5 125.5,149.5 123.5,149.5C 123.666,144.821 123.499,140.155 123,135.5C 122.79,137.058 122.29,138.391 121.5,139.5C 121.294,136.505 121.96,133.838 123.5,131.5C 124.847,130.972 126.181,130.805 127.5,131C 126.251,133.21 126.418,135.376 128,137.5C 128.278,136.584 128.778,135.918 129.5,135.5 Z"/></g>
<g><path style="opacity:1" fill="#9f8054" d="M 123.5,149.5 C 121.5,149.5 119.5,149.5 117.5,149.5C 118.314,145.884 119.648,142.551 121.5,139.5C 122.29,138.391 122.79,137.058 123,135.5C 123.499,140.155 123.666,144.821 123.5,149.5 Z"/></g>
<g><path style="opacity:1" fill="#87585f" d="M 55.5,143.5 C 56.5,145.5 57.5,147.5 58.5,149.5C 57.1667,149.5 55.8333,149.5 54.5,149.5C 53.5651,146.887 53.3985,144.221 54,141.5C 54.2784,142.416 54.7784,143.082 55.5,143.5 Z"/></g>
<g><path style="opacity:1" fill="#a5895b" d="M 147.5,129.5 C 148.818,133.741 148.652,138.074 147,142.5C 145.853,141.542 144.853,141.875 144,143.5C 143.51,144.793 143.343,146.127 143.5,147.5C 145.483,147.157 146.817,147.824 147.5,149.5C 144.167,149.5 140.833,149.5 137.5,149.5C 137.5,144.833 137.5,140.167 137.5,135.5C 138.496,135.414 139.329,135.748 140,136.5C 140.483,135.552 140.649,134.552 140.5,133.5C 141.833,133.5 143.167,133.5 144.5,133.5C 145.072,135.255 145.906,136.922 147,138.5C 147.498,135.518 147.665,132.518 147.5,129.5 Z"/></g>
<g><path style="opacity:1" fill="#aa9066" d="M 43.5,141.5 C 44.1667,144.167 44.8333,146.833 45.5,149.5C 43.8333,149.5 42.1667,149.5 40.5,149.5C 40.3379,147.473 40.5045,145.473 41,143.5C 41.4169,142.244 42.2502,141.577 43.5,141.5 Z"/></g>
<g><path style="opacity:1" fill="#91616e" d="M 74.5,134.5 C 75.3382,134.842 75.6716,135.508 75.5,136.5C 73.6836,141.017 71.3503,145.35 68.5,149.5C 66.5,149.5 64.5,149.5 62.5,149.5C 62.7329,147.938 63.3995,146.605 64.5,145.5C 68.8947,143.438 71.8947,140.104 73.5,135.5C 74.1667,135.5 74.5,135.167 74.5,134.5 Z"/></g>
<g><path style="opacity:1" fill="#4b381f" d="M 107.5,109.5 C 108.167,110.167 108.833,110.833 109.5,111.5C 109.992,116.324 110.659,120.99 111.5,125.5C 111.774,132.391 110.774,139.058 108.5,145.5C 107.738,147.262 106.404,148.262 104.5,148.5C 103.661,147.359 102.994,146.026 102.5,144.5C 103.902,143.158 103.569,142.324 101.5,142C 106.171,135.309 107.504,127.976 105.5,120C 107.261,116.775 107.928,113.275 107.5,109.5 Z"/></g>
<g><path style="opacity:1" fill="#b4aeb0" d="M 75.5,136.5 C 75.5,136.833 75.5,137.167 75.5,137.5C 75.9595,140.877 76.6261,144.211 77.5,147.5C 76.1779,147.67 75.0113,147.337 74,146.5C 72.2714,146.974 71.1047,147.974 70.5,149.5C 69.8333,149.5 69.1667,149.5 68.5,149.5C 71.3503,145.35 73.6836,141.017 75.5,136.5 Z"/></g>
<g><path style="opacity:1" fill="#ced0d4" d="M 75.5,137.5 C 77.6112,138.38 79.6112,138.38 81.5,137.5C 81.6159,140.86 81.9492,144.193 82.5,147.5C 84.1788,147.285 85.1788,147.952 85.5,149.5C 80.5,149.5 75.5,149.5 70.5,149.5C 71.1047,147.974 72.2714,146.974 74,146.5C 75.0113,147.337 76.1779,147.67 77.5,147.5C 76.6261,144.211 75.9595,140.877 75.5,137.5 Z"/></g>
<g><path style="opacity:1" fill="#bcbcc0" d="M 86.5,129.5 C 86.5,130.833 86.5,132.167 86.5,133.5C 85.3592,136.64 85.1925,139.973 86,143.5C 87,142.167 88,142.167 89,143.5C 89.4901,145.545 89.3235,147.545 88.5,149.5C 87.5,149.5 86.5,149.5 85.5,149.5C 85.1788,147.952 84.1788,147.285 82.5,147.5C 81.9492,144.193 81.6159,140.86 81.5,137.5C 82.3764,137.631 83.0431,137.298 83.5,136.5C 83.7657,133.655 84.7657,131.322 86.5,129.5 Z"/></g>
<g><path style="opacity:1" fill="#928777" d="M 113.5,144.5 C 113.053,147.524 112.22,147.857 111,145.5C 109.624,146.705 108.458,148.038 107.5,149.5C 106.5,149.5 105.5,149.5 104.5,149.5C 104.5,149.167 104.5,148.833 104.5,148.5C 106.404,148.262 107.738,147.262 108.5,145.5C 109.815,143.401 111.482,143.067 113.5,144.5 Z"/></g>
<g><path style="opacity:1" fill="#9d7948" d="M 149.5,119.5 C 149.5,129.5 149.5,139.5 149.5,149.5C 148.833,149.5 148.167,149.5 147.5,149.5C 146.817,147.824 145.483,147.157 143.5,147.5C 143.343,146.127 143.51,144.793 144,143.5C 144.853,141.875 145.853,141.542 147,142.5C 148.652,138.074 148.818,133.741 147.5,129.5C 147.5,129.167 147.5,128.833 147.5,128.5C 148.088,125.39 148.755,122.39 149.5,119.5 Z"/></g>
<g><path style="opacity:1" fill="#948e86" d="M 86.5,133.5 C 87.361,137.554 89.0277,141.221 91.5,144.5C 92.209,145.404 93.209,145.737 94.5,145.5C 93.147,146.526 92.147,147.859 91.5,149.5C 90.5,149.5 89.5,149.5 88.5,149.5C 89.3235,147.545 89.4901,145.545 89,143.5C 88,142.167 87,142.167 86,143.5C 85.1925,139.973 85.3592,136.64 86.5,133.5 Z"/></g>
<g><path style="opacity:1" fill="#d0c3b7" d="M 94.5,145.5 C 94.8333,145.5 95.1667,145.5 95.5,145.5C 97.1667,145.5 98.8333,145.5 100.5,145.5C 100.5,146.833 100.5,148.167 100.5,149.5C 97.5,149.5 94.5,149.5 91.5,149.5C 92.147,147.859 93.147,146.526 94.5,145.5 Z"/></g>
<g><path style="opacity:1" fill="#806c52" d="M 102.5,149.5 C 101.833,149.5 101.167,149.5 100.5,149.5C 100.5,148.167 100.5,146.833 100.5,145.5C 98.8333,145.5 97.1667,145.5 95.5,145.5C 95.5,145.167 95.5,144.833 95.5,144.5C 97.371,144.141 98.871,143.141 100,141.5C 101.341,144.022 102.174,146.689 102.5,149.5 Z"/></g>
<g><path style="opacity:1" fill="#c4c3c3" d="M 32.5,138.5 C 33.4551,140.71 34.9551,141.043 37,139.5C 37.065,142.198 35.8983,144.364 33.5,146C 35.596,146.737 37.2627,147.903 38.5,149.5C 34.1667,149.5 29.8333,149.5 25.5,149.5C 25.3893,148.883 25.056,148.383 24.5,148C 27.5399,147.68 30.5399,147.68 33.5,148C 30.3055,146.305 27.9722,143.805 26.5,140.5C 28.0225,138.717 30.0225,138.051 32.5,138.5 Z"/></g>
</svg>
