<?xml version="1.0" encoding="UTF-8"?>
<!DOCTYPE svg PUBLIC "-//W3C//DTD SVG 1.1//EN" "http://www.w3.org/Graphics/SVG/1.1/DTD/svg11.dtd">
<svg xmlns="http://www.w3.org/2000/svg" version="1.1" width="24px" height="24px" style="shape-rendering:geometricPrecision; text-rendering:geometricPrecision; image-rendering:optimizeQuality; fill-rule:evenodd; clip-rule:evenodd" xmlns:xlink="http://www.w3.org/1999/xlink">
<g><path style="opacity:0.878" fill="#fefffe" d="M 6.5,-0.5 C 9.83333,-0.5 13.1667,-0.5 16.5,-0.5C 19.1667,1.5 21.5,3.83333 23.5,6.5C 23.5,9.83333 23.5,13.1667 23.5,16.5C 21.5,19.1667 19.1667,21.5 16.5,23.5C 13.1667,23.5 9.83333,23.5 6.5,23.5C 3.83333,21.5 1.5,19.1667 -0.5,16.5C -0.5,13.1667 -0.5,9.83333 -0.5,6.5C 1.5,3.83333 3.83333,1.5 6.5,-0.5 Z M 11.5,8.5 C 13.6636,7.88171 15.3303,8.88171 16.5,11.5C 15.4182,13.7837 13.7516,14.9504 11.5,15C 12.1667,14.3333 12.8333,13.6667 13.5,13C 4.16667,12 4.16667,11 13.5,10C 12.9558,9.28281 12.2891,8.78281 11.5,8.5 Z"/></g>
</svg>
