<?xml version="1.0" encoding="UTF-8"?>
<!DOCTYPE svg PUBLIC "-//W3C//DTD SVG 1.1//EN" "http://www.w3.org/Graphics/SVG/1.1/DTD/svg11.dtd">
<svg xmlns="http://www.w3.org/2000/svg" version="1.1" width="300px" height="169px" style="shape-rendering:geometricPrecision; text-rendering:geometricPrecision; image-rendering:optimizeQuality; fill-rule:evenodd; clip-rule:evenodd" xmlns:xlink="http://www.w3.org/1999/xlink">
<g><path style="opacity:1" fill="#000000" d="M -0.5,-0.5 C 12.1667,-0.5 24.8333,-0.5 37.5,-0.5C 37.5,5.16667 37.5,10.8333 37.5,16.5C 24.8997,14.8915 12.2331,14.2248 -0.5,14.5C -0.5,9.5 -0.5,4.5 -0.5,-0.5 Z"/></g>
<g><path style="opacity:1" fill="#020201" d="M 39.5,-0.5 C 101.833,-0.5 164.167,-0.5 226.5,-0.5C 226.918,0.221579 227.584,0.721579 228.5,1C 227.044,1.42258 226.544,2.25591 227,3.5C 228,3.16667 229,2.83333 230,2.5C 231.205,3.07124 232.372,3.73791 233.5,4.5C 232.312,4.30686 230.978,4.80686 229.5,6C 232.034,6.5163 234.2,7.68297 236,9.5C 236.333,9.16667 236.667,8.83333 237,8.5C 236.591,10.2251 236.758,11.8918 237.5,13.5C 240.545,12.626 243.045,13.626 245,16.5C 245.914,15.3463 246.747,15.513 247.5,17C 246.643,17.6891 245.977,18.5224 245.5,19.5C 246.934,20.2298 248.1,21.2298 249,22.5C 249.667,19.8333 250.333,19.8333 251,22.5C 251.308,21.6919 251.808,21.0253 252.5,20.5C 253.23,21.9337 254.23,23.1004 255.5,24C 255.167,24.3333 254.833,24.6667 254.5,25C 255.249,26.7337 255.749,28.567 256,30.5C 258.771,29.6903 260.938,30.6903 262.5,33.5C 259.837,33.7633 256.837,34.2633 253.5,35C 254.667,35.5 255.5,36.3333 256,37.5C 257,36.8333 258,36.1667 259,35.5C 263.632,35.4489 268.465,35.6156 273.5,36C 274.715,38.0955 275.549,37.9288 276,35.5C 277.067,36.1905 278.234,36.6905 279.5,37C 279.167,37.3333 278.833,37.6667 278.5,38C 279.308,38.3076 279.975,38.8076 280.5,39.5C 273.532,40.497 266.532,40.8303 259.5,40.5C 254.833,40.5 250.167,40.5 245.5,40.5C 259.928,42.8137 274.594,43.8137 289.5,43.5C 289.5,45.8333 289.5,48.1667 289.5,50.5C 291.22,52.6581 292.053,55.3248 292,58.5C 292.117,55.4956 292.951,52.829 294.5,50.5C 296.062,48.6283 297.062,46.2949 297.5,43.5C 298.168,45.9688 298.835,48.3021 299.5,50.5C 299.5,64.8333 299.5,79.1667 299.5,93.5C 298.833,93.5 298.5,93.8333 298.5,94.5C 290.554,97.3709 282.554,100.038 274.5,102.5C 274.5,93.8333 274.5,85.1667 274.5,76.5C 273.5,76.5 272.5,76.5 271.5,76.5C 271.404,72.6893 270.738,72.6893 269.5,76.5C 268.502,85.4754 268.168,94.4754 268.5,103.5C 264.215,104.295 259.881,104.628 255.5,104.5C 254.167,104.5 252.833,104.5 251.5,104.5C 250.5,96.5 249.5,96.5 248.5,104.5C 242.824,104.666 237.157,104.499 231.5,104C 222.213,102.007 212.88,100.673 203.5,100C 215.947,103.326 228.614,105.493 241.5,106.5C 241.5,108.5 241.5,110.5 241.5,112.5C 240.833,112.5 240.5,112.833 240.5,113.5C 240.5,118.833 240.5,124.167 240.5,129.5C 231.744,130.902 223.078,130.402 214.5,128C 213.697,123.586 213.197,119.086 213,114.5C 212.501,118.821 212.334,123.154 212.5,127.5C 209.729,127.579 207.063,127.079 204.5,126C 197.494,120.827 189.827,117.327 181.5,115.5C 172.307,113.447 162.974,112.447 153.5,112.5C 152.973,106.172 151.806,99.8389 150,93.5C 149.79,95.0581 149.29,96.3915 148.5,97.5C 147.673,102.651 147.173,107.984 147,113.5C 145.275,114.464 143.441,115.131 141.5,115.5C 137.453,113.74 133.12,112.74 128.5,112.5C 122.652,111.008 116.652,109.675 110.5,108.5C 110,101.506 109.5,94.5059 109,87.5C 108.5,94.1583 108.334,100.825 108.5,107.5C 95.5333,105.874 82.5333,104.541 69.5,103.5C 69.8254,95.6484 69.492,87.9818 68.5,80.5C 67.1667,75.1667 65.8333,75.1667 64.5,80.5C 64.5,87.8333 64.5,95.1667 64.5,102.5C 62.9582,101.699 61.2915,101.366 59.5,101.5C 59.5,100.5 59.5,99.5 59.5,98.5C 61.4533,92.9262 62.12,86.9262 61.5,80.5C 60.5,80.5 59.5,80.5 58.5,80.5C 58.5,78.1667 58.5,75.8333 58.5,73.5C 75.3376,77.2293 92.3376,79.7293 109.5,81C 92.4259,78.0758 75.4259,74.9091 58.5,71.5C 57.8333,60.8333 57.1667,60.8333 56.5,71.5C 51.1383,71.5276 45.8049,71.1942 40.5,70.5C 40.7918,53.1321 40.4585,35.7988 39.5,18.5C 53.4769,19.9611 67.4769,20.7945 81.5,21C 67.5686,19.0489 53.5686,17.5489 39.5,16.5C 39.5,10.8333 39.5,5.16667 39.5,-0.5 Z"/></g>
<g><path style="opacity:1" fill="#000109" d="M 226.5,-0.5 C 250.833,-0.5 275.167,-0.5 299.5,-0.5C 299.5,5.83333 299.5,12.1667 299.5,18.5C 298.5,18.5 297.5,18.5 296.5,18.5C 296.5,26.1667 296.5,33.8333 296.5,41.5C 295.833,41.5 295.167,41.5 294.5,41.5C 292.715,36.9325 291.882,31.9325 292,26.5C 291.826,31.6835 291.326,36.6835 290.5,41.5C 279.986,41.8276 269.653,41.4942 259.5,40.5C 266.532,40.8303 273.532,40.497 280.5,39.5C 279.975,38.8076 279.308,38.3076 278.5,38C 278.833,37.6667 279.167,37.3333 279.5,37C 278.234,36.6905 277.067,36.1905 276,35.5C 275.549,37.9288 274.715,38.0955 273.5,36C 268.465,35.6156 263.632,35.4489 259,35.5C 258,36.1667 257,36.8333 256,37.5C 255.5,36.3333 254.667,35.5 253.5,35C 256.837,34.2633 259.837,33.7633 262.5,33.5C 260.938,30.6903 258.771,29.6903 256,30.5C 255.749,28.567 255.249,26.7337 254.5,25C 254.833,24.6667 255.167,24.3333 255.5,24C 254.23,23.1004 253.23,21.9337 252.5,20.5C 251.808,21.0253 251.308,21.6919 251,22.5C 250.333,19.8333 249.667,19.8333 249,22.5C 248.1,21.2298 246.934,20.2298 245.5,19.5C 245.977,18.5224 246.643,17.6891 247.5,17C 246.747,15.513 245.914,15.3463 245,16.5C 243.045,13.626 240.545,12.626 237.5,13.5C 236.758,11.8918 236.591,10.2251 237,8.5C 236.667,8.83333 236.333,9.16667 236,9.5C 234.2,7.68297 232.034,6.5163 229.5,6C 230.978,4.80686 232.312,4.30686 233.5,4.5C 232.372,3.73791 231.205,3.07124 230,2.5C 229,2.83333 228,3.16667 227,3.5C 226.544,2.25591 227.044,1.42258 228.5,1C 227.584,0.721579 226.918,0.221579 226.5,-0.5 Z"/></g>
<g><path style="opacity:1" fill="#f0f0f0" d="M 100.5,11.5 C 101.634,13.9664 101.801,16.633 101,19.5C 97.1667,23.3333 93.3333,27.1667 89.5,31C 87.2484,30.9504 85.5818,29.7837 84.5,27.5C 90.1877,22.479 95.521,17.1457 100.5,11.5 Z"/></g>
<g><path style="opacity:1" fill="#eeeeee" d="M 103.5,10.5 C 109.479,15.8123 115.146,21.479 120.5,27.5C 115.182,33.3187 109.682,38.9854 104,44.5C 103.333,41.8333 103.333,39.1667 104,36.5C 107.016,33.6511 109.85,30.6511 112.5,27.5C 110.167,24.5 107.5,21.8333 104.5,19.5C 103.516,16.5719 103.183,13.5719 103.5,10.5 Z"/></g>
<g><path style="opacity:1" fill="#300206" d="M -0.5,15.5 C -0.5,15.1667 -0.5,14.8333 -0.5,14.5C 12.2331,14.2248 24.8997,14.8915 37.5,16.5C 37.5,17.1667 37.5,17.8333 37.5,18.5C 24.8439,17.1979 12.1772,16.1979 -0.5,15.5 Z"/></g>
<g><path style="opacity:1" fill="#010100" d="M -0.5,15.5 C 12.1772,16.1979 24.8439,17.1979 37.5,18.5C 37.3892,35.8447 37.7225,53.178 38.5,70.5C 36.7085,70.634 35.0418,70.3007 33.5,69.5C 34.1031,64.3814 33.4364,59.7147 31.5,55.5C 31.1437,34.3172 30.1437,34.3172 28.5,55.5C 28.1384,60.4208 27.1384,65.0874 25.5,69.5C 25.825,61.9809 25.4916,54.6476 24.5,47.5C 23.0583,44.7704 22.0583,41.7704 21.5,38.5C 18.9776,48.6734 17.9776,59.0067 18.5,69.5C 12.1652,70.1689 5.83191,69.8356 -0.5,68.5C -0.5,50.8333 -0.5,33.1667 -0.5,15.5 Z"/></g>
<g><path style="opacity:1" fill="#a1a1a1" d="M 146.5,18.5 C 151.975,17.5111 157.642,17.1778 163.5,17.5C 163.5,18.8333 163.5,20.1667 163.5,21.5C 161.167,21.5 158.833,21.5 156.5,21.5C 158.369,20.8354 160.369,20.1687 162.5,19.5C 157.208,18.5052 151.875,18.1718 146.5,18.5 Z"/></g>
<g><path style="opacity:1" fill="#e4e4e4" d="M 129.5,17.5 C 134.167,17.5 138.833,17.5 143.5,17.5C 143.5,18.8333 143.5,20.1667 143.5,21.5C 140.167,21.5 136.833,21.5 133.5,21.5C 133.5,22.8333 133.5,24.1667 133.5,25.5C 136.167,25.5 138.833,25.5 141.5,25.5C 141.5,26.5 141.5,27.5 141.5,28.5C 138.833,28.5 136.167,28.5 133.5,28.5C 133.5,31.5 133.5,34.5 133.5,37.5C 132.167,37.5 130.833,37.5 129.5,37.5C 129.5,30.8333 129.5,24.1667 129.5,17.5 Z"/></g>
<g><path style="opacity:1" fill="#fafafa" d="M 146.5,18.5 C 151.875,18.1718 157.208,18.5052 162.5,19.5C 160.369,20.1687 158.369,20.8354 156.5,21.5C 156.5,26.5 156.5,31.5 156.5,36.5C 155.5,36.5 154.5,36.5 153.5,36.5C 153.821,31.3054 153.487,26.3054 152.5,21.5C 150.5,21.5 148.5,21.5 146.5,21.5C 146.5,20.5 146.5,19.5 146.5,18.5 Z"/></g>
<g><path style="opacity:1" fill="#b7b7b7" d="M 171.5,18.5 C 170.5,18.5 169.5,18.5 168.5,18.5C 168.5,24.5 168.5,30.5 168.5,36.5C 169.5,36.5 170.5,36.5 171.5,36.5C 170.432,37.4345 169.099,37.7678 167.5,37.5C 167.5,30.8333 167.5,24.1667 167.5,17.5C 169.099,17.2322 170.432,17.5655 171.5,18.5 Z"/></g>
<g><path style="opacity:1" fill="#f3f3f3" d="M 187.5,36.5 C 186.5,36.5 185.5,36.5 184.5,36.5C 184.823,32.774 184.489,29.1073 183.5,25.5C 182.893,25.6236 182.56,25.9569 182.5,26.5C 181.223,28.95 179.723,31.2833 178,33.5C 176,30.8333 174,28.1667 172,25.5C 171.501,29.1516 171.335,32.8183 171.5,36.5C 170.5,36.5 169.5,36.5 168.5,36.5C 168.5,30.5 168.5,24.5 168.5,18.5C 169.5,18.5 170.5,18.5 171.5,18.5C 173.091,21.4309 175.091,24.0976 177.5,26.5C 179.992,23.8369 182.326,21.0036 184.5,18C 185.448,17.5172 186.448,17.3505 187.5,17.5C 187.5,23.8333 187.5,30.1667 187.5,36.5 Z"/></g>
<g><path style="opacity:1" fill="#e4e4e4" d="M 199.5,17.5 C 210.198,17.3481 214.365,22.3481 212,32.5C 204.854,39.6221 198.52,38.9554 193,30.5C 191.973,24.554 194.14,20.2207 199.5,17.5 Z"/></g>
<g><path style="opacity:1" fill="#3f010a" d="M 39.5,16.5 C 53.5686,17.5489 67.5686,19.0489 81.5,21C 67.4769,20.7945 53.4769,19.9611 39.5,18.5C 39.5,17.8333 39.5,17.1667 39.5,16.5 Z"/></g>
<g><path style="opacity:1" fill="#949494" d="M 152.5,21.5 C 153.487,26.3054 153.821,31.3054 153.5,36.5C 154.5,36.5 155.5,36.5 156.5,36.5C 155.432,37.4345 154.099,37.7678 152.5,37.5C 152.5,32.1667 152.5,26.8333 152.5,21.5 Z"/></g>
<g><path style="opacity:1" fill="#0c0c0c" d="M 199.5,21.5 C 208.61,21.1445 210.944,24.9779 206.5,33C 200.984,34.9246 197.651,33.0913 196.5,27.5C 196.984,25.1992 197.984,23.1992 199.5,21.5 Z"/></g>
<g><path style="opacity:1" fill="#019801" d="M 299.5,18.5 C 299.5,26.1667 299.5,33.8333 299.5,41.5C 298.5,41.5 297.5,41.5 296.5,41.5C 296.5,33.8333 296.5,26.1667 296.5,18.5C 297.5,18.5 298.5,18.5 299.5,18.5 Z"/></g>
<g><path style="opacity:1" fill="#eeeeee" d="M 100.5,22.5 C 101.634,24.9664 101.801,27.633 101,30.5C 98.6496,32.6829 96.483,35.0163 94.5,37.5C 92.8333,36.5 91.5,35.1667 90.5,33.5C 93.8554,29.8133 97.1887,26.1466 100.5,22.5 Z"/></g>
<g><path style="opacity:1" fill="#909090" d="M 182.5,26.5 C 182.56,25.9569 182.893,25.6236 183.5,25.5C 184.489,29.1073 184.823,32.774 184.5,36.5C 185.5,36.5 186.5,36.5 187.5,36.5C 186.432,37.4345 185.099,37.7678 183.5,37.5C 183.815,33.6286 183.482,29.9619 182.5,26.5 Z"/></g>
<g><path style="opacity:1" fill="#e6e6e6" d="M 99.5,34.5 C 100.765,35.5145 101.431,37.0145 101.5,39C 100.73,44.5247 99.0636,44.5247 96.5,39C 98.0997,37.8767 99.0997,36.3767 99.5,34.5 Z"/></g>
<g><path style="opacity:1" fill="#4b000d" d="M 245.5,40.5 C 236.004,40.9118 226.67,39.9118 217.5,37.5C 218,37.1667 218.5,36.8333 219,36.5C 227.944,37.9871 236.778,39.3204 245.5,40.5 Z"/></g>
<g><path style="opacity:1" fill="#035601" d="M 37.5,-0.5 C 38.1667,-0.5 38.8333,-0.5 39.5,-0.5C 39.5,5.16667 39.5,10.8333 39.5,16.5C 39.5,17.1667 39.5,17.8333 39.5,18.5C 40.4585,35.7988 40.7918,53.1321 40.5,70.5C 40.8333,71.1667 41.1667,71.8333 41.5,72.5C 41.5,78.1667 41.5,83.8333 41.5,89.5C 40.8501,89.8039 40.1835,90.1373 39.5,90.5C 38.5159,93.4281 38.1826,96.4281 38.5,99.5C 37.8401,98.036 37.5068,96.3693 37.5,94.5C 39.1205,86.9158 39.7872,79.2491 39.5,71.5C 39.5,71.1667 39.5,70.8333 39.5,70.5C 39.0644,52.3335 38.3977,34.3335 37.5,16.5C 37.5,10.8333 37.5,5.16667 37.5,-0.5 Z"/></g>
<g><path style="opacity:1" fill="#3c010c" d="M 245.5,40.5 C 250.167,40.5 254.833,40.5 259.5,40.5C 269.653,41.4942 279.986,41.8276 290.5,41.5C 290.5,41.8333 290.5,42.1667 290.5,42.5C 289.833,42.5 289.5,42.8333 289.5,43.5C 274.594,43.8137 259.928,42.8137 245.5,40.5 Z"/></g>
<g><path style="opacity:1" fill="#142b07" d="M 294.5,41.5 C 295.167,41.5 295.833,41.5 296.5,41.5C 297.5,41.5 298.5,41.5 299.5,41.5C 299.5,44.5 299.5,47.5 299.5,50.5C 298.835,48.3021 298.168,45.9688 297.5,43.5C 297.062,46.2949 296.062,48.6283 294.5,50.5C 294.5,47.5 294.5,44.5 294.5,41.5 Z"/></g>
<g><path style="opacity:1" fill="#0b6401" d="M 294.5,41.5 C 294.5,44.5 294.5,47.5 294.5,50.5C 292.951,52.829 292.117,55.4956 292,58.5C 292.053,55.3248 291.22,52.6581 289.5,50.5C 289.5,48.1667 289.5,45.8333 289.5,43.5C 289.5,42.8333 289.833,42.5 290.5,42.5C 290.5,42.1667 290.5,41.8333 290.5,41.5C 291.326,36.6835 291.826,31.6835 292,26.5C 291.882,31.9325 292.715,36.9325 294.5,41.5 Z"/></g>
<g><path style="opacity:1" fill="#07b000" d="M 290.5,42.5 C 291.5,42.5 292.5,42.5 293.5,42.5C 293.5,44.8333 293.5,47.1667 293.5,49.5C 292.5,49.5 291.5,49.5 290.5,49.5C 290.5,47.1667 290.5,44.8333 290.5,42.5 Z"/></g>
<g><path style="opacity:1" fill="#360108" d="M 31.5,55.5 C 30.5,55.5 29.5,55.5 28.5,55.5C 30.1437,34.3172 31.1437,34.3172 31.5,55.5 Z"/></g>
<g><path style="opacity:1" fill="#061d00" d="M 37.5,16.5 C 38.3977,34.3335 39.0644,52.3335 39.5,70.5C 39.1667,70.5 38.8333,70.5 38.5,70.5C 37.7225,53.178 37.3892,35.8447 37.5,18.5C 37.5,17.8333 37.5,17.1667 37.5,16.5 Z"/></g>
<g><path style="opacity:1" fill="#099c01" d="M 24.5,47.5 C 25.4916,54.6476 25.825,61.9809 25.5,69.5C 25.5,69.8333 25.5,70.1667 25.5,70.5C 23.8333,70.5 22.1667,70.5 20.5,70.5C 20.5,75.5 20.5,80.5 20.5,85.5C 19.5046,73.011 19.1713,60.3443 19.5,47.5C 21.1667,47.5 22.8333,47.5 24.5,47.5 Z"/></g>
<g><path style="opacity:1" fill="#01cc00" d="M 20.5,48.5 C 21.5,48.5 22.5,48.5 23.5,48.5C 23.5,55.5 23.5,62.5 23.5,69.5C 22.5,69.5 21.5,69.5 20.5,69.5C 20.5,62.5 20.5,55.5 20.5,48.5 Z"/></g>
<g><path style="opacity:1" fill="#041f02" d="M 288.5,50.5 C 288.833,50.5 289.167,50.5 289.5,50.5C 289.5,61.1667 289.5,71.8333 289.5,82.5C 288.5,82.5 287.5,82.5 286.5,82.5C 286.719,83.675 286.386,84.675 285.5,85.5C 284.638,84.2342 283.971,82.9008 283.5,81.5C 284.833,81.5 286.167,81.5 287.5,81.5C 288.494,71.3468 288.828,61.0135 288.5,50.5 Z"/></g>
<g><path style="opacity:1" fill="#005201" d="M 288.5,50.5 C 288.828,61.0135 288.494,71.3468 287.5,81.5C 287.666,71.4944 287.5,61.4944 287,51.5C 285.989,50.6634 284.822,50.33 283.5,50.5C 283.5,60.8333 283.5,71.1667 283.5,81.5C 282.341,71.008 282.175,60.3414 283,49.5C 285.235,48.0198 287.068,48.3531 288.5,50.5 Z"/></g>
<g><path style="opacity:1" fill="#00b200" d="M 287.5,81.5 C 286.167,81.5 284.833,81.5 283.5,81.5C 283.5,71.1667 283.5,60.8333 283.5,50.5C 284.822,50.33 285.989,50.6634 287,51.5C 287.5,61.4944 287.666,71.4944 287.5,81.5 Z"/></g>
<g><path style="opacity:1" fill="#0c6202" d="M 58.5,71.5 C 58.5,72.1667 58.5,72.8333 58.5,73.5C 58.5,75.8333 58.5,78.1667 58.5,80.5C 57.5,80.5 56.5,80.5 55.5,80.5C 56.3686,78.283 56.702,75.9496 56.5,73.5C 57.5063,72.6043 57.5063,71.9377 56.5,71.5C 57.1667,60.8333 57.8333,60.8333 58.5,71.5 Z"/></g>
<g><path style="opacity:1" fill="#3f1b02" d="M -0.5,68.5 C 5.83191,69.8356 12.1652,70.1689 18.5,69.5C 18.5,70.1667 18.5,70.8333 18.5,71.5C 12.1823,72.0899 5.84893,71.7566 -0.5,70.5C -0.5,69.8333 -0.5,69.1667 -0.5,68.5 Z"/></g>
<g><path style="opacity:1" fill="#010300" d="M -0.5,70.5 C 5.84893,71.7566 12.1823,72.0899 18.5,71.5C 18.3337,78.175 18.5004,84.8417 19,91.5C 21.2735,92.8112 23.4402,92.8112 25.5,91.5C 25.5,84.8333 25.5,78.1667 25.5,71.5C 27.1489,77.6014 28.1489,83.9347 28.5,90.5C 30.5142,94.1664 32.1809,94.4998 33.5,91.5C 34.4967,84.8665 34.83,78.1998 34.5,71.5C 36.1667,71.5 37.8333,71.5 39.5,71.5C 39.7872,79.2491 39.1205,86.9158 37.5,94.5C 37.5068,96.3693 37.8401,98.036 38.5,99.5C 40.1157,101.416 39.7823,102.916 37.5,104C 30.4153,104.603 23.7486,106.436 17.5,109.5C 17.5,106.167 17.5,102.833 17.5,99.5C 17.5,96.5 17.5,93.5 17.5,90.5C 15.5,90.5 13.5,90.5 11.5,90.5C 10.671,97.989 10.171,105.656 10,113.5C 6.71821,115.818 3.21821,116.151 -0.5,114.5C -0.5,99.8333 -0.5,85.1667 -0.5,70.5 Z"/></g>
<g><path style="opacity:1" fill="#01ca00" d="M 25.5,70.5 C 25.5,70.8333 25.5,71.1667 25.5,71.5C 25.5,78.1667 25.5,84.8333 25.5,91.5C 23.8333,91.5 22.1667,91.5 20.5,91.5C 20.5,89.5 20.5,87.5 20.5,85.5C 20.5,80.5 20.5,75.5 20.5,70.5C 22.1667,70.5 23.8333,70.5 25.5,70.5 Z"/></g>
<g><path style="opacity:1" fill="#562407" d="M 40.5,70.5 C 45.8049,71.1942 51.1383,71.5276 56.5,71.5C 57.5063,71.9377 57.5063,72.6043 56.5,73.5C 54.1667,73.5 51.8333,73.5 49.5,73.5C 49.5,75.8333 49.5,78.1667 49.5,80.5C 49.1667,80.5 48.8333,80.5 48.5,80.5C 50.2382,74.0729 47.9049,71.4062 41.5,72.5C 41.1667,71.8333 40.8333,71.1667 40.5,70.5 Z"/></g>
<g><path style="opacity:1" fill="#0e0301" d="M 41.5,72.5 C 47.9049,71.4062 50.2382,74.0729 48.5,80.5C 46.5367,87.4238 45.8701,94.7572 46.5,102.5C 45.1667,102.5 43.8333,102.5 42.5,102.5C 42.5,101.5 42.5,100.5 42.5,99.5C 43.1599,98.036 43.4932,96.3693 43.5,94.5C 43.4439,92.3603 42.7773,90.6936 41.5,89.5C 41.5,83.8333 41.5,78.1667 41.5,72.5 Z"/></g>
<g><path style="opacity:1" fill="#071202" d="M 56.5,73.5 C 56.702,75.9496 56.3686,78.283 55.5,80.5C 54.88,86.9262 55.5467,92.9262 57.5,98.5C 57.5,99.5 57.5,100.5 57.5,101.5C 55.7085,101.366 54.0418,101.699 52.5,102.5C 52.5,95.1667 52.5,87.8333 52.5,80.5C 51.5,80.5 50.5,80.5 49.5,80.5C 49.5,78.1667 49.5,75.8333 49.5,73.5C 51.8333,73.5 54.1667,73.5 56.5,73.5 Z"/></g>
<g><path style="opacity:1" fill="#592804" d="M 58.5,71.5 C 75.4259,74.9091 92.4259,78.0758 109.5,81C 92.3376,79.7293 75.3376,77.2293 58.5,73.5C 58.5,72.8333 58.5,72.1667 58.5,71.5 Z"/></g>
<g><path style="opacity:1" fill="#610011" d="M 277.5,50.5 C 278.278,62.1486 279.278,73.8152 280.5,85.5C 278.833,85.5 277.167,85.5 275.5,85.5C 276.708,73.8715 277.375,62.2048 277.5,50.5 Z"/></g>
<g><path style="opacity:1" fill="#a90014" d="M 276.5,73.5 C 277.5,73.5 278.5,73.5 279.5,73.5C 279.5,77.1667 279.5,80.8333 279.5,84.5C 278.5,84.5 277.5,84.5 276.5,84.5C 276.5,80.8333 276.5,77.1667 276.5,73.5 Z"/></g>
<g><path style="opacity:1" fill="#ba010e" d="M 28.5,55.5 C 29.5,55.5 30.5,55.5 31.5,55.5C 33.4364,59.7147 34.1031,64.3814 33.5,69.5C 33.5,76.5 33.5,83.5 33.5,90.5C 32.1667,90.5 30.8333,90.5 29.5,90.5C 29.8235,83.9779 29.4902,77.6446 28.5,71.5C 28.5,66.1667 28.5,60.8333 28.5,55.5 Z"/></g>
<g><path style="opacity:1" fill="#5d000f" d="M 68.5,80.5 C 67.1667,80.5 65.8333,80.5 64.5,80.5C 65.8333,75.1667 67.1667,75.1667 68.5,80.5 Z"/></g>
<g><path style="opacity:1" fill="#004403" d="M 24.5,47.5 C 22.8333,47.5 21.1667,47.5 19.5,47.5C 19.1713,60.3443 19.5046,73.011 20.5,85.5C 20.5,87.5 20.5,89.5 20.5,91.5C 22.1667,91.5 23.8333,91.5 25.5,91.5C 23.4402,92.8112 21.2735,92.8112 19,91.5C 18.5004,84.8417 18.3337,78.175 18.5,71.5C 18.5,70.8333 18.5,70.1667 18.5,69.5C 17.9776,59.0067 18.9776,48.6734 21.5,38.5C 22.0583,41.7704 23.0583,44.7704 24.5,47.5 Z"/></g>
<g><path style="opacity:1" fill="#c8030e" d="M 51.5,102.5 C 50.4324,103.434 49.099,103.768 47.5,103.5C 47.5,96.1667 47.5,88.8333 47.5,81.5C 48.8333,81.5 50.1667,81.5 51.5,81.5C 51.5,88.5 51.5,95.5 51.5,102.5 Z"/></g>
<g><path style="opacity:1" fill="#01c101" d="M 55.5,80.5 C 56.5,80.5 57.5,80.5 58.5,80.5C 59.5,80.5 60.5,80.5 61.5,80.5C 62.12,86.9262 61.4533,92.9262 59.5,98.5C 58.8333,98.5 58.1667,98.5 57.5,98.5C 55.5467,92.9262 54.88,86.9262 55.5,80.5 Z"/></g>
<g><path style="opacity:1" fill="#840111" d="M 48.5,80.5 C 48.8333,80.5 49.1667,80.5 49.5,80.5C 50.5,80.5 51.5,80.5 52.5,80.5C 52.5,87.8333 52.5,95.1667 52.5,102.5C 52.1667,102.5 51.8333,102.5 51.5,102.5C 51.5,95.5 51.5,88.5 51.5,81.5C 50.1667,81.5 48.8333,81.5 47.5,81.5C 47.5,88.8333 47.5,96.1667 47.5,103.5C 46.8333,103.5 46.5,103.167 46.5,102.5C 45.8701,94.7572 46.5367,87.4238 48.5,80.5 Z"/></g>
<g><path style="opacity:1" fill="#c30110" d="M 64.5,80.5 C 65.8333,80.5 67.1667,80.5 68.5,80.5C 69.492,87.9818 69.8254,95.6484 69.5,103.5C 67.7085,103.634 66.0418,103.301 64.5,102.5C 64.5,95.1667 64.5,87.8333 64.5,80.5 Z"/></g>
<g><path style="opacity:1" fill="#622d05" d="M 128.5,85.5 C 123.363,85.506 118.363,84.6726 113.5,83C 118.768,82.7668 123.768,83.6001 128.5,85.5 Z"/></g>
<g><path style="opacity:1" fill="#720611" d="M 33.5,69.5 C 35.0418,70.3007 36.7085,70.634 38.5,70.5C 38.8333,70.5 39.1667,70.5 39.5,70.5C 39.5,70.8333 39.5,71.1667 39.5,71.5C 37.8333,71.5 36.1667,71.5 34.5,71.5C 34.83,78.1998 34.4967,84.8665 33.5,91.5C 32.1809,94.4998 30.5142,94.1664 28.5,90.5C 28.5,84.1667 28.5,77.8333 28.5,71.5C 29.4902,77.6446 29.8235,83.9779 29.5,90.5C 30.8333,90.5 32.1667,90.5 33.5,90.5C 33.5,83.5 33.5,76.5 33.5,69.5 Z"/></g>
<g><path style="opacity:1" fill="#6b3508" d="M 128.5,85.5 C 131.874,85.6744 135.207,86.1744 138.5,87C 134.888,87.6744 131.554,87.1744 128.5,85.5 Z"/></g>
<g><path style="opacity:1" fill="#370507" d="M 28.5,55.5 C 28.5,60.8333 28.5,66.1667 28.5,71.5C 28.5,77.8333 28.5,84.1667 28.5,90.5C 28.1489,83.9347 27.1489,77.6014 25.5,71.5C 25.5,71.1667 25.5,70.8333 25.5,70.5C 25.5,70.1667 25.5,69.8333 25.5,69.5C 27.1384,65.0874 28.1384,60.4208 28.5,55.5 Z"/></g>
<g><path style="opacity:1" fill="#5b3304" d="M 160.5,88.5 C 163.33,88.9628 165.997,89.6295 168.5,90.5C 165.833,90.5 163.167,90.5 160.5,90.5C 160.5,89.8333 160.5,89.1667 160.5,88.5 Z"/></g>
<g><path style="opacity:1" fill="#00cd01" d="M 41.5,89.5 C 42.7773,90.6936 43.4439,92.3603 43.5,94.5C 43.4932,96.3693 43.1599,98.036 42.5,99.5C 41.1667,99.5 39.8333,99.5 38.5,99.5C 38.1826,96.4281 38.5159,93.4281 39.5,90.5C 40.1835,90.1373 40.8501,89.8039 41.5,89.5 Z"/></g>
<g><path style="opacity:1" fill="#602607" d="M 168.5,90.5 C 178.066,91.0574 187.4,92.8907 196.5,96C 192.031,96.1279 187.697,95.2945 183.5,93.5C 182.833,100.989 182.167,108.322 181.5,115.5C 181.666,108.159 181.5,100.826 181,93.5C 176.765,92.3568 172.599,91.3568 168.5,90.5 Z"/></g>
<g><path style="opacity:1" fill="#00cf00" d="M 17.5,99.5 C 17.5,102.833 17.5,106.167 17.5,109.5C 17.5,113.833 17.5,118.167 17.5,122.5C 17.5,127.833 17.5,133.167 17.5,138.5C 16.1667,138.5 14.8333,138.5 13.5,138.5C 12.9625,131.178 12.6291,123.845 12.5,116.5C 12.5,108.167 12.5,99.8333 12.5,91.5C 13.8333,91.5 15.1667,91.5 16.5,91.5C 16.1936,94.3854 16.5269,97.0521 17.5,99.5 Z"/></g>
<g><path style="opacity:1" fill="#351803" d="M 298.5,94.5 C 298.167,95.5 297.5,96.1667 296.5,96.5C 289.553,100.038 282.219,102.371 274.5,103.5C 274.5,103.167 274.5,102.833 274.5,102.5C 282.554,100.038 290.554,97.3709 298.5,94.5 Z"/></g>
<g><path style="opacity:1" fill="#000100" d="M 299.5,96.5 C 299.5,120.5 299.5,144.5 299.5,168.5C 278.5,168.5 257.5,168.5 236.5,168.5C 236.298,166.05 236.631,163.717 237.5,161.5C 237.833,161.5 238.167,161.5 238.5,161.5C 239.167,153.5 239.833,145.5 240.5,137.5C 240.833,137.5 241.167,137.5 241.5,137.5C 241.5,137.833 241.5,138.167 241.5,138.5C 241.168,147.857 241.502,157.19 242.5,166.5C 243.107,166.376 243.44,166.043 243.5,165.5C 244.215,155.963 244.882,146.296 245.5,136.5C 246.21,134.107 246.877,131.607 247.5,129C 252.399,127.632 257.399,126.632 262.5,126C 277.134,119.021 289.467,109.187 299.5,96.5 Z"/></g>
<g><path style="opacity:1" fill="#060500" d="M 296.5,96.5 C 287.895,107.779 277.228,116.445 264.5,122.5C 264.308,118.364 264.974,114.364 266.5,110.5C 263.198,107.142 263.865,105.142 268.5,104.5C 268.194,107.385 268.527,110.052 269.5,112.5C 269.833,112.5 270.167,112.5 270.5,112.5C 270.999,117.638 271.999,117.638 273.5,112.5C 274.477,109.713 274.81,106.713 274.5,103.5C 282.219,102.371 289.553,100.038 296.5,96.5 Z"/></g>
<g><path style="opacity:1" fill="#156603" d="M 57.5,98.5 C 58.1667,98.5 58.8333,98.5 59.5,98.5C 59.5,99.5 59.5,100.5 59.5,101.5C 61.2915,101.366 62.9582,101.699 64.5,102.5C 66.0418,103.301 67.7085,103.634 69.5,103.5C 82.5333,104.541 95.5333,105.874 108.5,107.5C 108.842,108.338 109.508,108.672 110.5,108.5C 116.652,109.675 122.652,111.008 128.5,112.5C 119.261,111.985 110.261,110.319 101.5,107.5C 101.167,107.5 100.833,107.5 100.5,107.5C 95.1463,107.431 89.813,107.098 84.5,106.5C 84.1667,106.5 83.8333,106.5 83.5,106.5C 81.7839,106.371 80.1172,106.038 78.5,105.5C 76.8333,105.5 75.1667,105.5 73.5,105.5C 73.5,112.833 73.5,120.167 73.5,127.5C 72.6712,120.345 72.1712,113.011 72,105.5C 71.3292,104.748 70.4959,104.414 69.5,104.5C 68.1667,104.5 66.8333,104.5 65.5,104.5C 65.1667,104.5 64.8333,104.5 64.5,104.5C 63.1225,103.766 61.6225,103.099 60,102.5C 59.6667,105.5 59.3333,108.5 59,111.5C 57.6253,109.063 57.1253,106.397 57.5,103.5C 55.5853,103.216 53.9187,103.549 52.5,104.5C 50.8333,104.5 49.1667,104.5 47.5,104.5C 45.8333,104.5 44.1667,104.5 42.5,104.5C 42.762,105.978 42.4287,107.311 41.5,108.5C 40.6143,107.675 40.281,106.675 40.5,105.5C 32.927,105.807 25.927,107.807 19.5,111.5C 18.5108,115.107 18.1774,118.774 18.5,122.5C 18.1667,122.5 17.8333,122.5 17.5,122.5C 17.5,118.167 17.5,113.833 17.5,109.5C 23.7486,106.436 30.4153,104.603 37.5,104C 39.7823,102.916 40.1157,101.416 38.5,99.5C 39.8333,99.5 41.1667,99.5 42.5,99.5C 42.5,100.5 42.5,101.5 42.5,102.5C 43.8333,102.5 45.1667,102.5 46.5,102.5C 46.5,103.167 46.8333,103.5 47.5,103.5C 49.099,103.768 50.4324,103.434 51.5,102.5C 51.8333,102.5 52.1667,102.5 52.5,102.5C 54.0418,101.699 55.7085,101.366 57.5,101.5C 57.5,100.5 57.5,99.5 57.5,98.5 Z"/></g>
<g><path style="opacity:1" fill="#5a050c" d="M 110.5,108.5 C 109.508,108.672 108.842,108.338 108.5,107.5C 108.334,100.825 108.5,94.1583 109,87.5C 109.5,94.5059 110,101.506 110.5,108.5 Z"/></g>
<g><path style="opacity:1" fill="#572a03" d="M 248.5,104.5 C 249.5,104.5 250.5,104.5 251.5,104.5C 252.833,104.5 254.167,104.5 255.5,104.5C 255.5,104.833 255.5,105.167 255.5,105.5C 255.167,105.5 254.833,105.5 254.5,105.5C 253.167,105.5 251.833,105.5 250.5,105.5C 249.833,105.5 249.167,105.5 248.5,105.5C 246.833,105.5 245.167,105.5 243.5,105.5C 242.508,105.328 241.842,105.662 241.5,106.5C 228.614,105.493 215.947,103.326 203.5,100C 212.88,100.673 222.213,102.007 231.5,104C 237.157,104.499 242.824,104.666 248.5,104.5 Z"/></g>
<g><path style="opacity:1" fill="#083204" d="M 251.5,104.5 C 250.5,104.5 249.5,104.5 248.5,104.5C 249.5,96.5 250.5,96.5 251.5,104.5 Z"/></g>
<g><path style="opacity:1" fill="#ab0a18" d="M 160.5,88.5 C 160.5,89.1667 160.5,89.8333 160.5,90.5C 160.5,97.1667 160.5,103.833 160.5,110.5C 158.833,110.5 157.167,110.5 155.5,110.5C 155.102,99.3973 155.935,88.3973 158,77.5C 158.372,81.3182 159.206,84.9849 160.5,88.5 Z"/></g>
<g><path style="opacity:1" fill="#045b00" d="M 274.5,102.5 C 274.5,102.833 274.5,103.167 274.5,103.5C 274.81,106.713 274.477,109.713 273.5,112.5C 273.667,101.162 273.5,89.8284 273,78.5C 271.989,77.6634 270.822,77.33 269.5,77.5C 269.5,89.1667 269.5,100.833 269.5,112.5C 268.527,110.052 268.194,107.385 268.5,104.5C 268.5,104.167 268.5,103.833 268.5,103.5C 268.168,94.4754 268.502,85.4754 269.5,76.5C 270.738,72.6893 271.404,72.6893 271.5,76.5C 272.5,76.5 273.5,76.5 274.5,76.5C 274.5,85.1667 274.5,93.8333 274.5,102.5 Z"/></g>
<g><path style="opacity:1" fill="#04b700" d="M 273.5,112.5 C 272.5,112.5 271.5,112.5 270.5,112.5C 270.167,112.5 269.833,112.5 269.5,112.5C 269.5,100.833 269.5,89.1667 269.5,77.5C 270.822,77.33 271.989,77.6634 273,78.5C 273.5,89.8284 273.667,101.162 273.5,112.5 Z"/></g>
<g><path style="opacity:1" fill="#008a01" d="M 11.5,90.5 C 13.5,90.5 15.5,90.5 17.5,90.5C 17.5,93.5 17.5,96.5 17.5,99.5C 16.5269,97.0521 16.1936,94.3854 16.5,91.5C 15.1667,91.5 13.8333,91.5 12.5,91.5C 12.5,99.8333 12.5,108.167 12.5,116.5C 12.1667,116.5 11.8333,116.5 11.5,116.5C 11.4269,108.043 11.4269,99.3765 11.5,90.5 Z"/></g>
<g><path style="opacity:1" fill="#114e00" d="M 243.5,105.5 C 243.5,107.833 243.5,110.167 243.5,112.5C 242.833,112.5 242.167,112.5 241.5,112.5C 241.5,110.5 241.5,108.5 241.5,106.5C 241.842,105.662 242.508,105.328 243.5,105.5 Z"/></g>
<g><path style="opacity:1" fill="#074008" d="M 148.5,97.5 C 148.5,103.5 148.5,109.5 148.5,115.5C 146.021,116.623 143.688,116.623 141.5,115.5C 143.441,115.131 145.275,114.464 147,113.5C 147.173,107.984 147.673,102.651 148.5,97.5 Z"/></g>
<g><path style="opacity:1" fill="#6d0a0f" d="M 268.5,103.5 C 268.5,103.833 268.5,104.167 268.5,104.5C 263.865,105.142 263.198,107.142 266.5,110.5C 264.974,114.364 264.308,118.364 264.5,122.5C 264.5,123.167 264.167,123.5 263.5,123.5C 263.946,118.918 263.279,114.585 261.5,110.5C 262.547,108.944 263.214,107.277 263.5,105.5C 262.167,105.5 260.833,105.5 259.5,105.5C 259.376,111.904 258.71,118.237 257.5,124.5C 257.167,124.5 256.833,124.5 256.5,124.5C 255.29,118.237 254.624,111.904 254.5,105.5C 254.833,105.5 255.167,105.5 255.5,105.5C 255.5,105.167 255.5,104.833 255.5,104.5C 259.881,104.628 264.215,104.295 268.5,103.5 Z"/></g>
<g><path style="opacity:1" fill="#ba000e" d="M 255.5,105.5 C 256.5,105.5 257.5,105.5 258.5,105.5C 258.5,109.167 258.5,112.833 258.5,116.5C 257.5,116.5 256.5,116.5 255.5,116.5C 255.5,112.833 255.5,109.167 255.5,105.5 Z"/></g>
<g><path style="opacity:1" fill="#0c5d0f" d="M 128.5,112.5 C 133.12,112.74 137.453,113.74 141.5,115.5C 136.808,115.575 132.474,114.575 128.5,112.5 Z"/></g>
<g><path style="opacity:1" fill="#0d0101" d="M 263.5,123.5 C 261.435,123.517 259.435,123.85 257.5,124.5C 258.71,118.237 259.376,111.904 259.5,105.5C 260.833,105.5 262.167,105.5 263.5,105.5C 263.214,107.277 262.547,108.944 261.5,110.5C 263.279,114.585 263.946,118.918 263.5,123.5 Z"/></g>
<g><path style="opacity:1" fill="#0ac906" d="M 153.5,112.5 C 153.5,113.167 153.5,113.833 153.5,114.5C 153.5,124.167 153.5,133.833 153.5,143.5C 151.833,143.5 150.167,143.5 148.5,143.5C 148.5,134.167 148.5,124.833 148.5,115.5C 148.5,109.5 148.5,103.5 148.5,97.5C 149.29,96.3915 149.79,95.0581 150,93.5C 151.806,99.8389 152.973,106.172 153.5,112.5 Z"/></g>
<g><path style="opacity:1" fill="#066603" d="M 153.5,112.5 C 162.974,112.447 172.307,113.447 181.5,115.5C 189.827,117.327 197.494,120.827 204.5,126C 207.063,127.079 209.729,127.579 212.5,127.5C 212.334,123.154 212.501,118.821 213,114.5C 213.197,119.086 213.697,123.586 214.5,128C 223.078,130.402 231.744,130.902 240.5,129.5C 240.5,130.167 240.5,130.833 240.5,131.5C 238.901,131.232 237.568,131.566 236.5,132.5C 229.093,132.479 221.76,131.813 214.5,130.5C 214.279,133.279 214.612,135.946 215.5,138.5C 214.167,138.5 212.833,138.5 211.5,138.5C 212.403,135.609 212.736,132.609 212.5,129.5C 209.729,129.579 207.063,129.079 204.5,128C 200.256,124.712 195.59,122.212 190.5,120.5C 190.5,119.833 190.167,119.5 189.5,119.5C 187.106,118.985 184.772,118.319 182.5,117.5C 182.167,117.5 181.833,117.5 181.5,117.5C 172.353,115.089 163.019,114.089 153.5,114.5C 153.5,113.833 153.5,113.167 153.5,112.5 Z"/></g>
<g><path style="opacity:1" fill="#00cb00" d="M 240.5,113.5 C 241.833,113.5 243.167,113.5 244.5,113.5C 244.5,121.167 244.5,128.833 244.5,136.5C 244.5,137.167 244.167,137.5 243.5,137.5C 242.833,137.5 242.167,137.5 241.5,137.5C 241.167,137.5 240.833,137.5 240.5,137.5C 240.5,135.5 240.5,133.5 240.5,131.5C 240.5,130.833 240.5,130.167 240.5,129.5C 240.5,124.167 240.5,118.833 240.5,113.5 Z"/></g>
<g><path style="opacity:1" fill="#005002" d="M 11.5,90.5 C 11.4269,99.3765 11.4269,108.043 11.5,116.5C 7.53409,117.162 3.53409,117.495 -0.5,117.5C -0.5,116.5 -0.5,115.5 -0.5,114.5C 3.21821,116.151 6.71821,115.818 10,113.5C 10.171,105.656 10.671,97.989 11.5,90.5 Z"/></g>
<g><path style="opacity:1" fill="#003f03" d="M 270.5,112.5 C 271.5,112.5 272.5,112.5 273.5,112.5C 271.999,117.638 270.999,117.638 270.5,112.5 Z"/></g>
<g><path style="opacity:1" fill="#030202" d="M 64.5,104.5 C 64.5,116.5 64.5,128.5 64.5,140.5C 65.5,140.5 66.5,140.5 67.5,140.5C 67.5153,151.085 68.1819,151.085 69.5,140.5C 70.8243,128.673 70.8243,117.007 69.5,105.5C 69.5,105.167 69.5,104.833 69.5,104.5C 70.4959,104.414 71.3292,104.748 72,105.5C 72.1712,113.011 72.6712,120.345 73.5,127.5C 73.5,128.167 73.5,128.833 73.5,129.5C 73.5,133.167 73.5,136.833 73.5,140.5C 74.5,140.5 75.5,140.5 76.5,140.5C 76.3367,142.857 76.5034,145.19 77,147.5C 77.4974,144.854 77.6641,142.187 77.5,139.5C 78.8255,135.555 79.4921,131.222 79.5,126.5C 79.2945,119.489 78.9611,112.489 78.5,105.5C 80.1172,106.038 81.7839,106.371 83.5,106.5C 82.3771,109.317 81.7104,112.317 81.5,115.5C 81.5034,118.025 81.8367,120.359 82.5,122.5C 84.2923,127.745 85.1256,133.412 85,139.5C 85.6762,129.505 86.1762,119.505 86.5,109.5C 85.4489,108.778 84.7822,107.778 84.5,106.5C 89.813,107.098 95.1463,107.431 100.5,107.5C 100.8,112.099 100.467,116.599 99.5,121C 100.125,123.8 100.792,126.634 101.5,129.5C 102.208,126.634 102.875,123.8 103.5,121C 101.852,116.683 101.186,112.183 101.5,107.5C 110.261,110.319 119.261,111.985 128.5,112.5C 132.474,114.575 136.808,115.575 141.5,115.5C 143.688,116.623 146.021,116.623 148.5,115.5C 148.5,124.833 148.5,134.167 148.5,143.5C 150.167,143.5 151.833,143.5 153.5,143.5C 153.5,133.833 153.5,124.167 153.5,114.5C 163.019,114.089 172.353,115.089 181.5,117.5C 180.754,122.466 180.087,127.466 179.5,132.5C 179.503,135.355 179.836,138.022 180.5,140.5C 180.5,141.167 180.833,141.5 181.5,141.5C 182.167,152.167 182.833,152.167 183.5,141.5C 184.488,136.36 184.821,131.026 184.5,125.5C 182.798,123.2 182.132,120.533 182.5,117.5C 184.772,118.319 187.106,118.985 189.5,119.5C 189.5,125.833 189.5,132.167 189.5,138.5C 188.521,141.625 188.187,144.958 188.5,148.5C 189.833,148.5 191.167,148.5 192.5,148.5C 192.5,145.167 192.5,141.833 192.5,138.5C 190.614,132.792 189.947,126.792 190.5,120.5C 195.59,122.212 200.256,124.712 204.5,128C 207.063,129.079 209.729,129.579 212.5,129.5C 212.736,132.609 212.403,135.609 211.5,138.5C 210.506,148.319 210.173,158.319 210.5,168.5C 209.833,168.5 209.167,168.5 208.5,168.5C 208.5,163.833 208.5,159.167 208.5,154.5C 206.833,154.5 205.167,154.5 203.5,154.5C 203.5,159.167 203.5,163.833 203.5,168.5C 201.833,168.5 200.167,168.5 198.5,168.5C 198.365,166.446 199.032,164.779 200.5,163.5C 199.734,151.504 198.901,139.504 198,127.5C 197.828,134.346 197.328,141.013 196.5,147.5C 195.836,150.146 195.502,152.979 195.5,156C 195.823,160.264 196.49,164.43 197.5,168.5C 174.167,168.5 150.833,168.5 127.5,168.5C 127.5,157.833 127.5,147.167 127.5,136.5C 128.8,134.777 129.467,132.61 129.5,130C 129.467,127.39 128.8,125.223 127.5,123.5C 126.833,118.167 126.167,118.167 125.5,123.5C 124.515,127.634 124.182,131.968 124.5,136.5C 126.44,146.91 127.107,157.577 126.5,168.5C 84.1667,168.5 41.8333,168.5 -0.5,168.5C -0.5,151.5 -0.5,134.5 -0.5,117.5C 3.53409,117.495 7.53409,117.162 11.5,116.5C 11.201,124.253 11.5343,131.92 12.5,139.5C 14.4047,146.219 15.0713,153.219 14.5,160.5C 15.5,160.5 16.5,160.5 17.5,160.5C 17.815,156.629 17.4816,152.962 16.5,149.5C 17.7095,140.549 18.3761,131.549 18.5,122.5C 18.1774,118.774 18.5108,115.107 19.5,111.5C 25.927,107.807 32.927,105.807 40.5,105.5C 40.281,106.675 40.6143,107.675 41.5,108.5C 42.4287,107.311 42.762,105.978 42.5,104.5C 44.1667,104.5 45.8333,104.5 47.5,104.5C 47.7911,105.649 48.6244,106.316 50,106.5C 51.3756,106.316 52.2089,105.649 52.5,104.5C 53.9187,103.549 55.5853,103.216 57.5,103.5C 57.1253,106.397 57.6253,109.063 59,111.5C 59.3333,108.5 59.6667,105.5 60,102.5C 61.6225,103.099 63.1225,103.766 64.5,104.5 Z"/></g>
<g><path style="opacity:1" fill="#01c501" d="M 95.5,121.5 C 93.8333,121.5 92.1667,121.5 90.5,121.5C 91.7154,117.276 92.5488,112.943 93,108.5C 93.4512,112.943 94.2846,117.276 95.5,121.5 Z"/></g>
<g><path style="opacity:1" fill="#bd0013" d="M 86.5,109.5 C 86.1762,119.505 85.6762,129.505 85,139.5C 85.1256,133.412 84.2923,127.745 82.5,122.5C 82.5,118.167 82.5,113.833 82.5,109.5C 83.8333,109.5 85.1667,109.5 86.5,109.5 Z"/></g>
<g><path style="opacity:1" fill="#770110" d="M 83.5,106.5 C 83.8333,106.5 84.1667,106.5 84.5,106.5C 84.7822,107.778 85.4489,108.778 86.5,109.5C 85.1667,109.5 83.8333,109.5 82.5,109.5C 82.5,113.833 82.5,118.167 82.5,122.5C 81.8367,120.359 81.5034,118.025 81.5,115.5C 81.7104,112.317 82.3771,109.317 83.5,106.5 Z"/></g>
<g><path style="opacity:1" fill="#00cc01" d="M 78.5,105.5 C 78.9611,112.489 79.2945,119.489 79.5,126.5C 79.4921,131.222 78.8255,135.555 77.5,139.5C 76.5,139.5 75.5,139.5 74.5,139.5C 74.8128,135.958 74.4794,132.625 73.5,129.5C 73.5,128.833 73.5,128.167 73.5,127.5C 73.5,120.167 73.5,112.833 73.5,105.5C 75.1667,105.5 76.8333,105.5 78.5,105.5 Z"/></g>
<g><path style="opacity:1" fill="#ae090f" d="M 47.5,104.5 C 49.1667,104.5 50.8333,104.5 52.5,104.5C 52.2089,105.649 51.3756,106.316 50,106.5C 48.6244,106.316 47.7911,105.649 47.5,104.5 Z"/></g>
<g><path style="opacity:1" fill="#a50316" d="M 164.5,117.5 C 165.833,117.5 167.167,117.5 168.5,117.5C 167.861,130.823 167.361,144.156 167,157.5C 166.776,144.109 165.942,130.776 164.5,117.5 Z"/></g>
<g><path style="opacity:1" fill="#be0012" d="M 107.5,120.5 C 109.167,120.5 110.833,120.5 112.5,120.5C 112.136,126.223 111.303,131.89 110,137.5C 108.697,131.89 107.864,126.223 107.5,120.5 Z"/></g>
<g><path style="opacity:1" fill="#050f00" d="M 243.5,105.5 C 245.167,105.5 246.833,105.5 248.5,105.5C 248.5,106.167 248.5,106.833 248.5,107.5C 247.837,109.473 247.504,111.639 247.5,114C 247.533,116.61 248.2,118.777 249.5,120.5C 249.238,121.978 249.571,123.311 250.5,124.5C 253.436,119.254 254.27,113.587 253,107.5C 252.005,106.934 251.172,106.267 250.5,105.5C 251.833,105.5 253.167,105.5 254.5,105.5C 254.624,111.904 255.29,118.237 256.5,124.5C 253.321,125.793 249.988,126.46 246.5,126.5C 246.818,121.968 246.485,117.634 245.5,113.5C 245.158,112.662 244.492,112.328 243.5,112.5C 243.5,110.167 243.5,107.833 243.5,105.5 Z"/></g>
<g><path style="opacity:1" fill="#004502" d="M 248.5,105.5 C 249.167,105.5 249.833,105.5 250.5,105.5C 251.172,106.267 252.005,106.934 253,107.5C 254.27,113.587 253.436,119.254 250.5,124.5C 249.571,123.311 249.238,121.978 249.5,120.5C 250.496,120.586 251.329,120.252 252,119.5C 252.667,115.833 252.667,112.167 252,108.5C 250.989,107.663 249.822,107.33 248.5,107.5C 248.5,106.833 248.5,106.167 248.5,105.5 Z"/></g>
<g><path style="opacity:1" fill="#00b900" d="M 248.5,107.5 C 249.822,107.33 250.989,107.663 252,108.5C 252.667,112.167 252.667,115.833 252,119.5C 251.329,120.252 250.496,120.586 249.5,120.5C 248.2,118.777 247.533,116.61 247.5,114C 247.504,111.639 247.837,109.473 248.5,107.5 Z"/></g>
<g><path style="opacity:1" fill="#005f02" d="M 176.5,125.5 C 175.167,125.5 173.833,125.5 172.5,125.5C 173.833,118.833 175.167,118.833 176.5,125.5 Z"/></g>
<g><path style="opacity:1" fill="#50000b" d="M 100.5,107.5 C 100.833,107.5 101.167,107.5 101.5,107.5C 101.186,112.183 101.852,116.683 103.5,121C 102.875,123.8 102.208,126.634 101.5,129.5C 100.792,126.634 100.125,123.8 99.5,121C 100.467,116.599 100.8,112.099 100.5,107.5 Z"/></g>
<g><path style="opacity:1" fill="#013d04" d="M 127.5,123.5 C 126.833,123.5 126.167,123.5 125.5,123.5C 126.167,118.167 126.833,118.167 127.5,123.5 Z"/></g>
<g><path style="opacity:1" fill="#59010c" d="M 181.5,117.5 C 181.833,117.5 182.167,117.5 182.5,117.5C 182.132,120.533 182.798,123.2 184.5,125.5C 183.167,125.5 181.833,125.5 180.5,125.5C 180.5,130.5 180.5,135.5 180.5,140.5C 179.836,138.022 179.503,135.355 179.5,132.5C 180.087,127.466 180.754,122.466 181.5,117.5 Z"/></g>
<g><path style="opacity:1" fill="#01d001" d="M 172.5,125.5 C 173.833,125.5 175.167,125.5 176.5,125.5C 177.156,126.622 177.489,127.955 177.5,129.5C 177.415,131.333 176.748,132.666 175.5,133.5C 174.5,133.5 173.5,133.5 172.5,133.5C 172.5,130.833 172.5,128.167 172.5,125.5 Z"/></g>
<g><path style="opacity:1" fill="#034702" d="M 299.5,93.5 C 299.5,94.5 299.5,95.5 299.5,96.5C 289.467,109.187 277.134,119.021 262.5,126C 257.399,126.632 252.399,127.632 247.5,129C 246.877,131.607 246.21,134.107 245.5,136.5C 245.5,128.833 245.5,121.167 245.5,113.5C 246.485,117.634 246.818,121.968 246.5,126.5C 249.988,126.46 253.321,125.793 256.5,124.5C 256.833,124.5 257.167,124.5 257.5,124.5C 259.435,123.85 261.435,123.517 263.5,123.5C 264.167,123.5 264.5,123.167 264.5,122.5C 277.228,116.445 287.895,107.779 296.5,96.5C 297.5,96.1667 298.167,95.5 298.5,94.5C 298.5,93.8333 298.833,93.5 299.5,93.5 Z"/></g>
<g><path style="opacity:1" fill="#005e01" d="M 7.5,134.5 C 6.5,134.5 5.5,134.5 4.5,134.5C 4.5,137.5 4.5,140.5 4.5,143.5C 3.52333,140.713 3.19,137.713 3.5,134.5C 4.94169,131.77 5.94169,128.77 6.5,125.5C 7.48408,128.428 7.81741,131.428 7.5,134.5 Z"/></g>
<g><path style="opacity:1" fill="#c90013" d="M 184.5,125.5 C 184.821,131.026 184.488,136.36 183.5,141.5C 182.833,141.5 182.167,141.5 181.5,141.5C 180.833,141.5 180.5,141.167 180.5,140.5C 180.5,135.5 180.5,130.5 180.5,125.5C 181.833,125.5 183.167,125.5 184.5,125.5 Z"/></g>
<g><path style="opacity:1" fill="#08bf07" d="M 125.5,123.5 C 126.167,123.5 126.833,123.5 127.5,123.5C 128.8,125.223 129.467,127.39 129.5,130C 129.467,132.61 128.8,134.777 127.5,136.5C 126.5,136.5 125.5,136.5 124.5,136.5C 124.182,131.968 124.515,127.634 125.5,123.5 Z"/></g>
<g><path style="opacity:1" fill="#008900" d="M 240.5,113.5 C 240.5,112.833 240.833,112.5 241.5,112.5C 242.167,112.5 242.833,112.5 243.5,112.5C 244.492,112.328 245.158,112.662 245.5,113.5C 245.5,121.167 245.5,128.833 245.5,136.5C 245.167,136.5 244.833,136.5 244.5,136.5C 244.5,128.833 244.5,121.167 244.5,113.5C 243.167,113.5 241.833,113.5 240.5,113.5 Z"/></g>
<g><path style="opacity:1" fill="#007901" d="M 11.5,116.5 C 11.8333,116.5 12.1667,116.5 12.5,116.5C 12.6291,123.845 12.9625,131.178 13.5,138.5C 14.8333,138.5 16.1667,138.5 17.5,138.5C 17.5,133.167 17.5,127.833 17.5,122.5C 17.8333,122.5 18.1667,122.5 18.5,122.5C 18.3761,131.549 17.7095,140.549 16.5,149.5C 16.665,152.85 16.4983,156.183 16,159.5C 15.5004,152.842 15.3337,146.175 15.5,139.5C 14.5,139.5 13.5,139.5 12.5,139.5C 11.5343,131.92 11.201,124.253 11.5,116.5 Z"/></g>
<g><path style="opacity:1" fill="#cc0111" d="M 65.5,104.5 C 66.8333,104.5 68.1667,104.5 69.5,104.5C 69.5,104.833 69.5,105.167 69.5,105.5C 69.5,116.833 69.5,128.167 69.5,139.5C 68.1667,139.5 66.8333,139.5 65.5,139.5C 65.5,127.833 65.5,116.167 65.5,104.5 Z"/></g>
<g><path style="opacity:1" fill="#65010d" d="M 189.5,119.5 C 190.167,119.5 190.5,119.833 190.5,120.5C 189.947,126.792 190.614,132.792 192.5,138.5C 191.5,138.5 190.5,138.5 189.5,138.5C 189.5,132.167 189.5,125.833 189.5,119.5 Z"/></g>
<g><path style="opacity:1" fill="#005903" d="M 90.5,121.5 C 92.1667,121.5 93.8333,121.5 95.5,121.5C 94.8601,130.109 94.1934,138.775 93.5,147.5C 93.1001,138.593 92.1001,129.926 90.5,121.5 Z"/></g>
<g><path style="opacity:1" fill="#018501" d="M 172.5,133.5 C 173.5,133.5 174.5,133.5 175.5,133.5C 175.664,136.187 175.497,138.854 175,141.5C 174.883,138.496 174.049,135.829 172.5,133.5 Z"/></g>
<g><path style="opacity:1" fill="#7c0011" d="M 64.5,104.5 C 64.8333,104.5 65.1667,104.5 65.5,104.5C 65.5,116.167 65.5,127.833 65.5,139.5C 66.8333,139.5 68.1667,139.5 69.5,139.5C 69.5,128.167 69.5,116.833 69.5,105.5C 70.8243,117.007 70.8243,128.673 69.5,140.5C 68.1819,151.085 67.5153,151.085 67.5,140.5C 66.5,140.5 65.5,140.5 64.5,140.5C 64.5,128.5 64.5,116.5 64.5,104.5 Z"/></g>
<g><path style="opacity:1" fill="#b90317" d="M 136.5,141.5 C 135.167,141.5 133.833,141.5 132.5,141.5C 132.5,136.833 132.5,132.167 132.5,127.5C 134.167,127.5 135.833,127.5 137.5,127.5C 137.819,132.363 137.486,137.03 136.5,141.5 Z"/></g>
<g><path style="opacity:1" fill="#c80011" d="M 189.5,138.5 C 190.5,138.5 191.5,138.5 192.5,138.5C 192.5,141.833 192.5,145.167 192.5,148.5C 191.167,148.5 189.833,148.5 188.5,148.5C 188.187,144.958 188.521,141.625 189.5,138.5 Z"/></g>
<g><path style="opacity:1" fill="#08b706" d="M 142.5,118.5 C 143.565,126.692 144.565,135.025 145.5,143.5C 143.833,143.5 142.167,143.5 140.5,143.5C 141.742,135.223 142.409,126.89 142.5,118.5 Z"/></g>
<g><path style="opacity:1" fill="#022d01" d="M 3.5,134.5 C 3.19,137.713 3.52333,140.713 4.5,143.5C 6.37872,148.87 7.04539,154.537 6.5,160.5C 5.8335,155.651 5.16684,150.651 4.5,145.5C 3.91395,145.291 3.41395,144.957 3,144.5C 2.1925,140.973 2.35916,137.64 3.5,134.5 Z"/></g>
<g><path style="opacity:1" fill="#00c401" d="M 7.5,134.5 C 9.38784,136.988 10.0545,139.988 9.5,143.5C 7.83333,143.5 6.16667,143.5 4.5,143.5C 4.5,140.5 4.5,137.5 4.5,134.5C 5.5,134.5 6.5,134.5 7.5,134.5 Z"/></g>
<g><path style="opacity:1" fill="#700210" d="M 132.5,141.5 C 133.833,141.5 135.167,141.5 136.5,141.5C 135.74,145.081 135.24,148.748 135,152.5C 134.974,148.517 134.14,144.85 132.5,141.5 Z"/></g>
<g><path style="opacity:1" fill="#008401" d="M 73.5,129.5 C 74.4794,132.625 74.8128,135.958 74.5,139.5C 75.5,139.5 76.5,139.5 77.5,139.5C 77.6641,142.187 77.4974,144.854 77,147.5C 76.5034,145.19 76.3367,142.857 76.5,140.5C 75.5,140.5 74.5,140.5 73.5,140.5C 73.5,136.833 73.5,133.167 73.5,129.5 Z"/></g>
<g><path style="opacity:1" fill="#42020b" d="M 181.5,141.5 C 182.167,141.5 182.833,141.5 183.5,141.5C 182.833,152.167 182.167,152.167 181.5,141.5 Z"/></g>
<g><path style="opacity:1" fill="#022c01" d="M 236.5,132.5 C 237.568,131.566 238.901,131.232 240.5,131.5C 240.5,133.5 240.5,135.5 240.5,137.5C 239.833,145.5 239.167,153.5 238.5,161.5C 238.5,153.167 238.5,144.833 238.5,136.5C 239.434,135.432 239.768,134.099 239.5,132.5C 238.5,132.5 237.5,132.5 236.5,132.5 Z"/></g>
<g><path style="opacity:1" fill="#567e98" d="M 118.5,132.5 C 119.234,133.878 119.901,135.378 120.5,137C 119.691,142.417 119.191,147.917 119,153.5C 119.093,147.708 118.259,142.208 116.5,137C 118.107,135.951 118.773,134.451 118.5,132.5 Z"/></g>
<g><path style="opacity:1" fill="#0a0702" d="M 236.5,132.5 C 237.5,132.5 238.5,132.5 239.5,132.5C 239.768,134.099 239.434,135.432 238.5,136.5C 236.833,136.5 235.167,136.5 233.5,136.5C 233.174,145.017 233.507,153.35 234.5,161.5C 234.5,163.833 234.5,166.167 234.5,168.5C 232.5,168.5 230.5,168.5 228.5,168.5C 228.321,162.083 228.988,155.75 230.5,149.5C 229.62,145.506 228.787,141.506 228,137.5C 227.503,140.146 227.336,142.813 227.5,145.5C 226.252,146.334 225.585,147.667 225.5,149.5C 225.511,151.045 225.844,152.378 226.5,153.5C 227.445,158.405 227.779,163.405 227.5,168.5C 223.833,168.5 220.167,168.5 216.5,168.5C 216.827,158.319 216.494,148.319 215.5,138.5C 214.612,135.946 214.279,133.279 214.5,130.5C 221.76,131.813 229.093,132.479 236.5,132.5 Z"/></g>
<g><path style="opacity:1" fill="#930011" d="M 219.5,134.5 C 219.5,138.167 219.5,141.833 219.5,145.5C 220.5,145.5 221.5,145.5 222.5,145.5C 222.5,141.833 222.5,138.167 222.5,134.5C 223.483,138.298 223.817,142.298 223.5,146.5C 221.833,146.5 220.167,146.5 218.5,146.5C 218.183,142.298 218.517,138.298 219.5,134.5 Z"/></g>
<g><path style="opacity:1" fill="#c8000e" d="M 219.5,134.5 C 220.5,134.5 221.5,134.5 222.5,134.5C 222.5,138.167 222.5,141.833 222.5,145.5C 221.5,145.5 220.5,145.5 219.5,145.5C 219.5,141.833 219.5,138.167 219.5,134.5 Z"/></g>
<g><path style="opacity:1" fill="#af0010" d="M 227.5,145.5 C 229.369,147.635 230.036,150.302 229.5,153.5C 228.5,153.5 227.5,153.5 226.5,153.5C 225.844,152.378 225.511,151.045 225.5,149.5C 225.585,147.667 226.252,146.334 227.5,145.5 Z"/></g>
<g><path style="opacity:1" fill="#006501" d="M 241.5,138.5 C 241.5,138.167 241.5,137.833 241.5,137.5C 242.167,137.5 242.833,137.5 243.5,137.5C 243.5,146.833 243.5,156.167 243.5,165.5C 242.833,156.5 242.167,147.5 241.5,138.5 Z"/></g>
<g><path style="opacity:1" fill="#003303" d="M 12.5,139.5 C 13.5,139.5 14.5,139.5 15.5,139.5C 15.3337,146.175 15.5004,152.842 16,159.5C 16.4983,156.183 16.665,152.85 16.5,149.5C 17.4816,152.962 17.815,156.629 17.5,160.5C 16.5,160.5 15.5,160.5 14.5,160.5C 15.0713,153.219 14.4047,146.219 12.5,139.5 Z"/></g>
<g><path style="opacity:1" fill="#b00011" d="M 200.5,163.5 C 199.167,163.5 197.833,163.5 196.5,163.5C 196.5,158.167 196.5,152.833 196.5,147.5C 197.328,141.013 197.828,134.346 198,127.5C 198.901,139.504 199.734,151.504 200.5,163.5 Z"/></g>
<g><path style="opacity:1" fill="#002800" d="M 244.5,136.5 C 244.833,136.5 245.167,136.5 245.5,136.5C 244.882,146.296 244.215,155.963 243.5,165.5C 243.5,156.167 243.5,146.833 243.5,137.5C 244.167,137.5 244.5,137.167 244.5,136.5 Z"/></g>
<g><path style="opacity:1" fill="#027803" d="M 124.5,136.5 C 125.5,136.5 126.5,136.5 127.5,136.5C 127.5,147.167 127.5,157.833 127.5,168.5C 127.167,168.5 126.833,168.5 126.5,168.5C 127.107,157.577 126.44,146.91 124.5,136.5 Z"/></g>
<g><path style="opacity:1" fill="#00bc00" d="M 238.5,136.5 C 238.5,144.833 238.5,153.167 238.5,161.5C 238.167,161.5 237.833,161.5 237.5,161.5C 236.5,161.5 235.5,161.5 234.5,161.5C 233.507,153.35 233.174,145.017 233.5,136.5C 235.167,136.5 236.833,136.5 238.5,136.5 Z"/></g>
<g><path style="opacity:1" fill="#00b101" d="M 211.5,138.5 C 212.833,138.5 214.167,138.5 215.5,138.5C 216.494,148.319 216.827,158.319 216.5,168.5C 214.5,168.5 212.5,168.5 210.5,168.5C 210.173,158.319 210.506,148.319 211.5,138.5 Z"/></g>
<g><path style="opacity:1" fill="#022001" d="M 241.5,138.5 C 242.167,147.5 242.833,156.5 243.5,165.5C 243.44,166.043 243.107,166.376 242.5,166.5C 241.502,157.19 241.168,147.857 241.5,138.5 Z"/></g>
<g><path style="opacity:1" fill="#b30010" d="M 208.5,168.5 C 206.833,168.5 205.167,168.5 203.5,168.5C 203.5,163.833 203.5,159.167 203.5,154.5C 205.167,154.5 206.833,154.5 208.5,154.5C 208.5,159.167 208.5,163.833 208.5,168.5 Z"/></g>
<g><path style="opacity:1" fill="#620010" d="M 228.5,168.5 C 228.167,168.5 227.833,168.5 227.5,168.5C 227.779,163.405 227.445,158.405 226.5,153.5C 227.5,153.5 228.5,153.5 229.5,153.5C 230.036,150.302 229.369,147.635 227.5,145.5C 227.336,142.813 227.503,140.146 228,137.5C 228.787,141.506 229.62,145.506 230.5,149.5C 228.988,155.75 228.321,162.083 228.5,168.5 Z"/></g>
<g><path style="opacity:1" fill="#015303" d="M 4.5,143.5 C 6.16667,143.5 7.83333,143.5 9.5,143.5C 8.8727,149.448 8.20603,155.448 7.5,161.5C 6.89333,161.376 6.55999,161.043 6.5,160.5C 7.04539,154.537 6.37872,148.87 4.5,143.5 Z"/></g>
<g><path style="opacity:1" fill="#6f010f" d="M 196.5,147.5 C 196.5,152.833 196.5,158.167 196.5,163.5C 197.833,163.5 199.167,163.5 200.5,163.5C 199.032,164.779 198.365,166.446 198.5,168.5C 198.167,168.5 197.833,168.5 197.5,168.5C 196.49,164.43 195.823,160.264 195.5,156C 195.502,152.979 195.836,150.146 196.5,147.5 Z"/></g>
<g><path style="opacity:1" fill="#005302" d="M 234.5,161.5 C 235.5,161.5 236.5,161.5 237.5,161.5C 236.631,163.717 236.298,166.05 236.5,168.5C 235.833,168.5 235.167,168.5 234.5,168.5C 234.5,166.167 234.5,163.833 234.5,161.5 Z"/></g>
</svg>
