<?xml version="1.0" encoding="UTF-8"?>
<!DOCTYPE svg PUBLIC "-//W3C//DTD SVG 1.1//EN" "http://www.w3.org/Graphics/SVG/1.1/DTD/svg11.dtd">
<svg xmlns="http://www.w3.org/2000/svg" version="1.1" width="500px" height="500px" style="shape-rendering:geometricPrecision; text-rendering:geometricPrecision; image-rendering:optimizeQuality; fill-rule:evenodd; clip-rule:evenodd" xmlns:xlink="http://www.w3.org/1999/xlink">
<g><path style="opacity:0.522" fill="#b1c3e1" d="M 262.5,95.5 C 273.5,105.833 284.167,116.5 294.5,127.5C 283.587,118.091 273.087,108.091 263,97.5C 262.536,96.9056 262.369,96.2389 262.5,95.5 Z"/></g>
<g><path style="opacity:0.164" fill="#cedbf8" d="M 238.5,93.5 C 238.56,92.9569 238.893,92.6236 239.5,92.5C 240.829,117.663 240.829,142.663 239.5,167.5C 239.5,143.167 239.5,118.833 239.5,94.5C 239.5,93.8333 239.167,93.5 238.5,93.5 Z"/></g>
<g><path style="opacity:1" fill="#15479f" d="M 238.5,164.5 C 237.596,165.209 237.263,166.209 237.5,167.5C 236.5,167.5 235.5,167.5 234.5,167.5C 234.657,166.127 234.49,164.793 234,163.5C 233.346,162.304 232.846,162.304 232.5,163.5C 233.357,166.451 233.357,169.451 232.5,172.5C 230.833,172.5 229.167,172.5 227.5,172.5C 227.421,173.93 227.754,175.264 228.5,176.5C 226.167,177.167 223.833,177.833 221.5,178.5C 222.687,178.554 224.02,178.887 225.5,179.5C 224.009,180.244 222.509,180.91 221,181.5C 220.086,180.346 219.253,180.513 218.5,182C 219.731,183.183 219.731,184.349 218.5,185.5C 216.088,184.182 213.754,184.349 211.5,186C 212.749,187.824 213.915,187.657 215,185.5C 216.188,186.563 216.688,187.897 216.5,189.5C 215.167,189.5 213.833,189.5 212.5,189.5C 211.947,193.456 211.114,193.456 210,189.5C 209.5,190 209,190.5 208.5,191C 209.406,192.699 209.739,194.533 209.5,196.5C 208.167,196.5 206.833,196.5 205.5,196.5C 205.5,198.167 205.5,199.833 205.5,201.5C 205.5,202.167 205.167,202.5 204.5,202.5C 203.5,202.833 202.833,203.5 202.5,204.5C 201.167,206.5 199.5,208.167 197.5,209.5C 194.278,209.108 191.278,209.608 188.5,211C 190.929,211.451 191.096,212.285 189,213.5C 187.605,212.185 186.605,212.519 186,214.5C 185.503,216.81 185.337,219.143 185.5,221.5C 183.833,221.5 182.167,221.5 180.5,221.5C 179.947,225.456 179.114,225.456 178,221.5C 177.5,222 177,222.5 176.5,223C 177.406,224.699 177.739,226.533 177.5,228.5C 172.473,228.686 169.806,231.352 169.5,236.5C 166.751,236.726 164.084,236.393 161.5,235.5C 162.263,238.067 162.263,241.067 161.5,244.5C 160.167,244.5 158.833,244.5 157.5,244.5C 157.5,246.167 157.5,247.833 157.5,249.5C 156.5,251.167 155.167,252.5 153.5,253.5C 151.833,253.5 150.167,253.5 148.5,253.5C 148.5,254.833 148.5,256.167 148.5,257.5C 146.076,257.192 143.743,257.526 141.5,258.5C 141.838,260.655 141.838,262.989 141.5,265.5C 140.5,267.167 139.167,268.5 137.5,269.5C 135.833,269.5 134.167,269.5 132.5,269.5C 132.762,270.978 132.429,272.311 131.5,273.5C 129.167,272.5 128.5,273.167 129.5,275.5C 125.658,276.267 123.991,278.6 124.5,282.5C 124.167,283.5 123.5,284.167 122.5,284.5C 121.577,285.303 120.577,285.47 119.5,285C 111.912,276.907 103.912,269.407 95.5,262.5C 92.6042,258.095 89.1042,254.095 85,250.5C 84.3333,249.833 84.3333,249.167 85,248.5C 134.368,198.965 183.868,149.632 233.5,100.5C 235.044,100.297 236.378,99.6302 237.5,98.5C 238.5,120.49 238.833,142.49 238.5,164.5 Z"/></g>
<g><path style="opacity:1" fill="#133a80" d="M 239.5,94.5 C 239.5,118.833 239.5,143.167 239.5,167.5C 238.596,166.791 238.263,165.791 238.5,164.5C 238.833,142.49 238.5,120.49 237.5,98.5C 236.378,99.6302 235.044,100.297 233.5,100.5C 235.167,98.1667 237.167,96.1667 239.5,94.5 Z"/></g>
<g><path style="opacity:1" fill="#15479f" d="M 262.5,95.5 C 262.369,96.2389 262.536,96.9056 263,97.5C 273.087,108.091 283.587,118.091 294.5,127.5C 303.909,138.413 313.909,148.913 324.5,159C 325.094,159.464 325.761,159.631 326.5,159.5C 328.167,163.167 330.833,165.833 334.5,167.5C 336.167,171.167 338.833,173.833 342.5,175.5C 354.578,189.081 367.244,202.247 380.5,215C 381.094,215.464 381.761,215.631 382.5,215.5C 382.369,216.239 382.536,216.906 383,217.5C 393.369,227.702 403.535,238.035 413.5,248.5C 411.896,249.287 411.229,250.62 411.5,252.5C 410.127,252.343 408.793,252.51 407.5,253C 408.337,254.011 408.67,255.178 408.5,256.5C 403.77,260.227 399.77,264.56 396.5,269.5C 396.5,270.167 396.167,270.5 395.5,270.5C 393.246,271.415 391.246,272.748 389.5,274.5C 389.631,273.761 389.464,273.094 389,272.5C 388.51,273.793 388.343,275.127 388.5,276.5C 385.433,276.121 384.433,277.121 385.5,279.5C 383.641,281.573 381.308,282.906 378.5,283.5C 377.571,284.689 377.238,286.022 377.5,287.5C 375.799,287.966 374.299,287.966 373,287.5C 372.506,289.134 372.34,290.801 372.5,292.5C 368.249,290.898 366.416,292.565 367,297.5C 365.933,298.191 364.766,298.691 363.5,299C 364.056,299.383 364.389,299.883 364.5,300.5C 361.427,302.569 359.094,305.236 357.5,308.5C 357.167,309.5 356.5,310.167 355.5,310.5C 352.833,311.167 351.167,312.833 350.5,315.5C 349.167,315.5 347.833,315.5 346.5,315.5C 344.883,320.451 341.549,323.784 336.5,325.5C 336.709,326.086 337.043,326.586 337.5,327C 336.284,328.74 334.618,329.74 332.5,330C 332.833,330.333 333.167,330.667 333.5,331C 332.552,331.483 331.552,331.649 330.5,331.5C 330.5,332.833 330.5,334.167 330.5,335.5C 329.833,335.5 329.167,335.5 328.5,335.5C 326.25,335.181 324.25,335.681 322.5,337C 323.973,337.71 324.64,338.876 324.5,340.5C 323.127,340.343 321.793,340.51 320.5,341C 321.416,341.278 322.082,341.778 322.5,342.5C 320.738,343.262 319.738,344.596 319.5,346.5C 316.05,345.756 314.384,347.09 314.5,350.5C 312.086,351.911 310.419,353.911 309.5,356.5C 309.167,357.5 308.5,358.167 307.5,358.5C 302.56,361.77 298.227,365.77 294.5,370.5C 293.788,369.261 292.788,368.761 291.5,369C 292.337,370.011 292.67,371.178 292.5,372.5C 290.857,372.52 289.524,371.853 288.5,370.5C 287.526,372.743 287.192,375.076 287.5,377.5C 285.833,378.167 284.167,378.833 282.5,379.5C 282.5,380.5 282.5,381.5 282.5,382.5C 281.033,379.742 280.367,380.075 280.5,383.5C 278.396,383.201 276.396,383.534 274.5,384.5C 275.853,385.524 276.52,386.857 276.5,388.5C 275.127,388.343 273.793,388.51 272.5,389C 273.416,389.278 274.082,389.778 274.5,390.5C 272.738,391.262 271.738,392.596 271.5,394.5C 268.833,395.167 267.167,396.833 266.5,399.5C 264.589,400.075 262.922,401.075 261.5,402.5C 260.833,379.167 260.167,355.833 259.5,332.5C 259.5,332.167 259.5,331.833 259.5,331.5C 261.5,328.833 263.833,326.5 266.5,324.5C 269.167,323.833 270.833,322.167 271.5,319.5C 272.833,319.5 274.167,319.5 275.5,319.5C 276.382,316.615 277.716,313.948 279.5,311.5C 281.948,309.716 284.615,308.382 287.5,307.5C 287.5,306.167 287.5,304.833 287.5,303.5C 291.167,301.833 293.833,299.167 295.5,295.5C 300.5,289.833 305.833,284.5 311.5,279.5C 315.167,277.833 317.833,275.167 319.5,271.5C 322.167,270.833 323.833,269.167 324.5,266.5C 325.167,265.167 326.167,264.167 327.5,263.5C 331.167,261.833 333.833,259.167 335.5,255.5C 338.303,254.933 340.636,253.6 342.5,251.5C 343.647,251.818 344.481,252.484 345,253.5C 347,251.5 347,249.5 345,247.5C 343.927,248.28 342.76,248.113 341.5,247C 340.833,245.667 340.167,244.333 339.5,243C 334.88,242.072 332.547,239.239 332.5,234.5C 329.197,234.31 326.197,233.31 323.5,231.5C 322.833,228.833 321.167,227.167 318.5,226.5C 310.833,219.5 303.5,212.167 296.5,204.5C 296.019,201.603 294.352,199.936 291.5,199.5C 289.833,198.5 288.5,197.167 287.5,195.5C 287.167,192.5 285.5,190.833 282.5,190.5C 278.167,186.833 274.167,182.833 270.5,178.5C 268.28,174.541 266.947,170.208 266.5,165.5C 265.614,166.325 265.281,167.325 265.5,168.5C 263.435,168.483 261.435,168.15 259.5,167.5C 259.333,143.164 259.5,118.831 260,94.5C 260.671,95.2524 261.504,95.5858 262.5,95.5 Z"/></g>
<g><path style="opacity:0.17" fill="#cedbf8" d="M 262.5,95.5 C 261.504,95.5858 260.671,95.2524 260,94.5C 259.5,118.831 259.333,143.164 259.5,167.5C 258.171,142.663 258.171,117.663 259.5,92.5C 260.855,93.1882 261.855,94.1882 262.5,95.5 Z"/></g>
<g><path style="opacity:0.541" fill="#afc2e1" d="M 294.5,127.5 C 305.5,137.833 316.167,148.5 326.5,159.5C 325.761,159.631 325.094,159.464 324.5,159C 313.909,148.913 303.909,138.413 294.5,127.5 Z"/></g>
<g><path style="opacity:0.541" fill="#b6c5df" d="M 326.5,159.5 C 329.5,161.833 332.167,164.5 334.5,167.5C 330.833,165.833 328.167,163.167 326.5,159.5 Z"/></g>
<g><path style="opacity:1" fill="#3b59a0" d="M 270.5,178.5 C 266.5,175.167 262.833,171.5 259.5,167.5C 261.435,168.15 263.435,168.483 265.5,168.5C 265.281,167.325 265.614,166.325 266.5,165.5C 266.947,170.208 268.28,174.541 270.5,178.5 Z"/></g>
<g><path style="opacity:0.541" fill="#b1c4e0" d="M 334.5,167.5 C 337.5,169.833 340.167,172.5 342.5,175.5C 338.833,173.833 336.167,171.167 334.5,167.5 Z"/></g>
<g><path style="opacity:1" fill="#4662ab" d="M 238.5,164.5 C 238.263,165.791 238.596,166.791 239.5,167.5C 228.5,179.167 217.167,190.5 205.5,201.5C 205.5,199.833 205.5,198.167 205.5,196.5C 206.833,196.5 208.167,196.5 209.5,196.5C 209.739,194.533 209.406,192.699 208.5,191C 209,190.5 209.5,190 210,189.5C 211.114,193.456 211.947,193.456 212.5,189.5C 213.833,189.5 215.167,189.5 216.5,189.5C 216.688,187.897 216.188,186.563 215,185.5C 213.915,187.657 212.749,187.824 211.5,186C 213.754,184.349 216.088,184.182 218.5,185.5C 219.731,184.349 219.731,183.183 218.5,182C 219.253,180.513 220.086,180.346 221,181.5C 222.509,180.91 224.009,180.244 225.5,179.5C 224.02,178.887 222.687,178.554 221.5,178.5C 223.833,177.833 226.167,177.167 228.5,176.5C 227.754,175.264 227.421,173.93 227.5,172.5C 229.167,172.5 230.833,172.5 232.5,172.5C 233.357,169.451 233.357,166.451 232.5,163.5C 232.846,162.304 233.346,162.304 234,163.5C 234.49,164.793 234.657,166.127 234.5,167.5C 235.5,167.5 236.5,167.5 237.5,167.5C 237.263,166.209 237.596,165.209 238.5,164.5 Z"/></g>
<g><path style="opacity:0.533" fill="#b0c3e0" d="M 342.5,175.5 C 356.167,188.5 369.5,201.833 382.5,215.5C 381.761,215.631 381.094,215.464 380.5,215C 367.244,202.247 354.578,189.081 342.5,175.5 Z"/></g>
<g><path style="opacity:0.533" fill="#a4bbd9" d="M 238.5,93.5 C 239.167,93.5 239.5,93.8333 239.5,94.5C 237.167,96.1667 235.167,98.1667 233.5,100.5C 183.868,149.632 134.368,198.965 85,248.5C 84.3333,249.167 84.3333,249.833 85,250.5C 89.1042,254.095 92.6042,258.095 95.5,262.5C 90.3078,258.49 86.1411,253.823 83,248.5C 134.701,196.632 186.535,144.965 238.5,93.5 Z"/></g>
<g><path style="opacity:0.812" fill="#6d86bc" d="M 282.5,190.5 C 285.5,190.833 287.167,192.5 287.5,195.5C 285.5,194.167 283.833,192.5 282.5,190.5 Z"/></g>
<g><path style="opacity:0.992" fill="#7485ba" d="M 291.5,199.5 C 294.352,199.936 296.019,201.603 296.5,204.5C 294.548,203.215 292.882,201.549 291.5,199.5 Z"/></g>
<g><path style="opacity:0.165" fill="#d3def7" d="M 221.5,291.5 C 227.13,285.369 232.964,279.369 239,273.5C 239.83,248.33 239.663,223.33 238.5,198.5C 238.393,196.621 238.893,196.288 240,197.5C 240.667,223.167 240.667,248.833 240,274.5C 234.243,280.763 228.076,286.43 221.5,291.5 Z"/></g>
<g><path style="opacity:0.004" fill="#dde8fd" d="M 204.5,202.5 C 204.5,203.833 203.833,204.5 202.5,204.5C 202.833,203.5 203.5,202.833 204.5,202.5 Z"/></g>
<g><path style="opacity:1" fill="#39599c" d="M 238.5,198.5 C 238.392,200.783 237.559,202.783 236,204.5C 232.011,207.982 227.844,211.315 223.5,214.5C 225.167,212.5 226.833,210.5 228.5,208.5C 231.5,204.833 234.833,201.5 238.5,198.5 Z"/></g>
<g><path style="opacity:1" fill="#4561ac" d="M 197.5,209.5 C 193.833,213.833 189.833,217.833 185.5,221.5C 185.337,219.143 185.503,216.81 186,214.5C 186.605,212.519 187.605,212.185 189,213.5C 191.096,212.285 190.929,211.451 188.5,211C 191.278,209.608 194.278,209.108 197.5,209.5 Z"/></g>
<g><path style="opacity:0.533" fill="#aec1df" d="M 382.5,215.5 C 393.465,225.965 404.298,236.631 415,247.5C 415.765,249.066 415.598,250.399 414.5,251.5C 414.737,250.209 414.404,249.209 413.5,248.5C 403.535,238.035 393.369,227.702 383,217.5C 382.536,216.906 382.369,216.239 382.5,215.5 Z"/></g>
<g><path style="opacity:0.325" fill="#c9d8f1" d="M 228.5,208.5 C 226.833,210.5 225.167,212.5 223.5,214.5C 218.5,219.167 213.5,223.833 208.5,228.5C 208.369,227.761 208.536,227.094 209,226.5C 215.09,219.904 221.59,213.904 228.5,208.5 Z"/></g>
<g><path style="opacity:1" fill="#16479f" d="M 238.5,198.5 C 239.663,223.33 239.83,248.33 239,273.5C 232.964,279.369 227.13,285.369 221.5,291.5C 216.167,297.5 210.5,303.167 204.5,308.5C 203.5,308.833 202.833,309.5 202.5,310.5C 201.5,310.833 200.833,311.5 200.5,312.5C 193.833,318.833 187.167,325.167 180.5,331.5C 179.178,331.67 178.011,331.337 177,330.5C 176.508,331.549 176.674,332.549 177.5,333.5C 176.675,334.386 175.675,334.719 174.5,334.5C 174.715,336.179 174.048,337.179 172.5,337.5C 171.078,336.075 169.411,335.075 167.5,334.5C 165.833,330.833 163.167,328.167 159.5,326.5C 155.167,320.167 149.833,314.833 143.5,310.5C 142.167,307.167 139.833,304.833 136.5,303.5C 136.351,302.448 136.517,301.448 137,300.5C 140.371,297.297 143.538,293.964 146.5,290.5C 147.833,288.5 149.5,286.833 151.5,285.5C 154.325,285.919 156.491,284.919 158,282.5C 160.752,283.858 161.252,283.191 159.5,280.5C 160.963,278.711 161.963,276.711 162.5,274.5C 163.833,274.5 165.167,274.5 166.5,274.5C 166.351,273.448 166.517,272.448 167,271.5C 170.13,269.372 172.963,266.872 175.5,264C 177.35,264.595 179.35,265.095 181.5,265.5C 181.617,263.516 180.95,261.85 179.5,260.5C 181.333,257.71 182.333,258.043 182.5,261.5C 183.5,261.5 184.5,261.5 185.5,261.5C 185.617,259.516 184.95,257.85 183.5,256.5C 185.5,253.833 187.833,251.5 190.5,249.5C 191.429,248.311 191.762,246.978 191.5,245.5C 193.905,244.313 196.239,242.813 198.5,241C 200.607,239.736 201.607,237.903 201.5,235.5C 203.5,232.833 205.833,230.5 208.5,228.5C 213.5,223.833 218.5,219.167 223.5,214.5C 227.844,211.315 232.011,207.982 236,204.5C 237.559,202.783 238.392,200.783 238.5,198.5 Z"/></g>
<g><path style="opacity:0.796" fill="#7c93c6" d="M 318.5,226.5 C 321.167,227.167 322.833,228.833 323.5,231.5C 321.5,230.167 319.833,228.5 318.5,226.5 Z"/></g>
<g><path style="opacity:1" fill="#405da8" d="M 185.5,221.5 C 178.5,229.167 171.167,236.5 163.5,243.5C 162.833,243.833 162.167,244.167 161.5,244.5C 162.263,241.067 162.263,238.067 161.5,235.5C 164.084,236.393 166.751,236.726 169.5,236.5C 169.806,231.352 172.473,228.686 177.5,228.5C 177.739,226.533 177.406,224.699 176.5,223C 177,222.5 177.5,222 178,221.5C 179.114,225.456 179.947,225.456 180.5,221.5C 182.167,221.5 183.833,221.5 185.5,221.5 Z"/></g>
<g><path style="opacity:1" fill="#4c6aa4" d="M 201.5,235.5 C 201.607,237.903 200.607,239.736 198.5,241C 196.239,242.813 193.905,244.313 191.5,245.5C 194.5,241.833 197.833,238.5 201.5,235.5 Z"/></g>
<g><path style="opacity:1" fill="#3c5aa3" d="M 323.5,231.5 C 326.197,233.31 329.197,234.31 332.5,234.5C 332.547,239.239 334.88,242.072 339.5,243C 340.167,244.333 340.833,245.667 341.5,247C 342.76,248.113 343.927,248.28 345,247.5C 347,249.5 347,251.5 345,253.5C 344.481,252.484 343.647,251.818 342.5,251.5C 340.636,253.6 338.303,254.933 335.5,255.5C 337.144,253.519 338.81,251.519 340.5,249.5C 334.812,243.48 329.145,237.48 323.5,231.5 Z"/></g>
<g><path style="opacity:1" fill="#6c80bc" d="M 163.5,243.5 C 161.882,245.785 159.882,247.785 157.5,249.5C 157.5,247.833 157.5,246.167 157.5,244.5C 158.833,244.5 160.167,244.5 161.5,244.5C 162.167,244.167 162.833,243.833 163.5,243.5 Z"/></g>
<g><path style="opacity:0.996" fill="#5d70ad" d="M 413.5,248.5 C 414.404,249.209 414.737,250.209 414.5,251.5C 413.167,253.5 411.5,255.167 409.5,256.5C 409.167,256.5 408.833,256.5 408.5,256.5C 408.67,255.178 408.337,254.011 407.5,253C 408.793,252.51 410.127,252.343 411.5,252.5C 411.229,250.62 411.896,249.287 413.5,248.5 Z"/></g>
<g><path style="opacity:1" fill="#4a66ad" d="M 153.5,253.5 C 149.833,257.833 145.833,261.833 141.5,265.5C 141.838,262.989 141.838,260.655 141.5,258.5C 143.743,257.526 146.076,257.192 148.5,257.5C 148.5,256.167 148.5,254.833 148.5,253.5C 150.167,253.5 151.833,253.5 153.5,253.5 Z"/></g>
<g><path style="opacity:0.847" fill="#6a84bb" d="M 335.5,255.5 C 333.833,259.167 331.167,261.833 327.5,263.5C 329.833,260.5 332.5,257.833 335.5,255.5 Z"/></g>
<g><path style="opacity:0.325" fill="#cad9f0" d="M 186.5,250.5 C 181.167,256.5 175.5,262.167 169.5,267.5C 174.167,260.833 179.833,255.167 186.5,250.5 Z"/></g>
<g><path style="opacity:1" fill="#2a4f97" d="M 191.5,245.5 C 191.762,246.978 191.429,248.311 190.5,249.5C 187.833,251.5 185.5,253.833 183.5,256.5C 184.95,257.85 185.617,259.516 185.5,261.5C 184.5,261.5 183.5,261.5 182.5,261.5C 182.333,258.043 181.333,257.71 179.5,260.5C 180.95,261.85 181.617,263.516 181.5,265.5C 179.35,265.095 177.35,264.595 175.5,264C 172.963,266.872 170.13,269.372 167,271.5C 166.517,272.448 166.351,273.448 166.5,274.5C 165.167,274.5 163.833,274.5 162.5,274.5C 164.5,271.833 166.833,269.5 169.5,267.5C 175.5,262.167 181.167,256.5 186.5,250.5C 187.833,248.5 189.5,246.833 191.5,245.5 Z"/></g>
<g><path style="opacity:0.533" fill="#b3c6e2" d="M 95.5,262.5 C 103.912,269.407 111.912,276.907 119.5,285C 120.577,285.47 121.577,285.303 122.5,284.5C 122.489,286.686 121.489,287.519 119.5,287C 111.298,278.965 103.298,270.798 95.5,262.5 Z"/></g>
<g><path style="opacity:0.078" fill="#b7ccec" d="M 408.5,256.5 C 408.833,256.5 409.167,256.5 409.5,256.5C 405.5,261.167 401.167,265.5 396.5,269.5C 399.77,264.56 403.77,260.227 408.5,256.5 Z"/></g>
<g><path style="opacity:0.816" fill="#6d85b9" d="M 324.5,266.5 C 323.833,269.167 322.167,270.833 319.5,271.5C 320.833,269.5 322.5,267.833 324.5,266.5 Z"/></g>
<g><path style="opacity:1" fill="#546cae" d="M 137.5,269.5 C 133.5,274.167 129.167,278.5 124.5,282.5C 123.991,278.6 125.658,276.267 129.5,275.5C 128.5,273.167 129.167,272.5 131.5,273.5C 132.429,272.311 132.762,270.978 132.5,269.5C 134.167,269.5 135.833,269.5 137.5,269.5 Z"/></g>
<g><path style="opacity:0.086" fill="#b7cbec" d="M 395.5,270.5 C 393.833,272.833 391.833,274.833 389.5,276.5C 389.5,275.833 389.5,275.167 389.5,274.5C 391.246,272.748 393.246,271.415 395.5,270.5 Z"/></g>
<g><path style="opacity:0.812" fill="#6d89be" d="M 319.5,271.5 C 317.833,275.167 315.167,277.833 311.5,279.5C 313.833,276.5 316.5,273.833 319.5,271.5 Z"/></g>
<g><path style="opacity:0.988" fill="#5c75b1" d="M 389.5,274.5 C 389.5,275.167 389.5,275.833 389.5,276.5C 388.833,277.833 387.833,278.833 386.5,279.5C 386.167,279.5 385.833,279.5 385.5,279.5C 384.433,277.121 385.433,276.121 388.5,276.5C 388.343,275.127 388.51,273.793 389,272.5C 389.464,273.094 389.631,273.761 389.5,274.5 Z"/></g>
<g><path style="opacity:1" fill="#3e5ea2" d="M 162.5,274.5 C 161.963,276.711 160.963,278.711 159.5,280.5C 161.252,283.191 160.752,283.858 158,282.5C 156.491,284.919 154.325,285.919 151.5,285.5C 154.833,281.5 158.5,277.833 162.5,274.5 Z"/></g>
<g><path style="opacity:1" fill="#7084b9" d="M 385.5,279.5 C 385.833,279.5 386.167,279.5 386.5,279.5C 379.833,286.833 372.833,293.833 365.5,300.5C 365.167,300.5 364.833,300.5 364.5,300.5C 364.389,299.883 364.056,299.383 363.5,299C 364.766,298.691 365.933,298.191 367,297.5C 366.416,292.565 368.249,290.898 372.5,292.5C 372.34,290.801 372.506,289.134 373,287.5C 374.299,287.966 375.799,287.966 377.5,287.5C 377.238,286.022 377.571,284.689 378.5,283.5C 381.308,282.906 383.641,281.573 385.5,279.5 Z"/></g>
<g><path style="opacity:0.365" fill="#cbdaf0" d="M 146.5,290.5 C 143.538,293.964 140.371,297.297 137,300.5C 136.517,301.448 136.351,302.448 136.5,303.5C 134.915,302.998 134.415,301.998 135,300.5C 138.429,296.561 142.263,293.228 146.5,290.5 Z"/></g>
<g><path style="opacity:0.835" fill="#718ac0" d="M 295.5,295.5 C 293.833,299.167 291.167,301.833 287.5,303.5C 289.833,300.5 292.5,297.833 295.5,295.5 Z"/></g>
<g><path style="opacity:0.537" fill="#aec3e2" d="M 136.5,303.5 C 139.833,304.833 142.167,307.167 143.5,310.5C 140.833,308.5 138.5,306.167 136.5,303.5 Z"/></g>
<g><path style="opacity:0.051" fill="#b8cdeb" d="M 364.5,300.5 C 364.833,300.5 365.167,300.5 365.5,300.5C 363.167,303.5 360.5,306.167 357.5,308.5C 359.094,305.236 361.427,302.569 364.5,300.5 Z"/></g>
<g><path style="opacity:0.004" fill="#d4def4" d="M 204.5,308.5 C 204.5,309.833 203.833,310.5 202.5,310.5C 202.833,309.5 203.5,308.833 204.5,308.5 Z"/></g>
<g><path style="opacity:0.533" fill="#adc1e1" d="M 143.5,310.5 C 149.833,314.833 155.167,320.167 159.5,326.5C 153.833,321.5 148.5,316.167 143.5,310.5 Z"/></g>
<g><path style="opacity:0.808" fill="#5b78b2" d="M 287.5,303.5 C 287.5,304.833 287.5,306.167 287.5,307.5C 284.615,308.382 281.948,309.716 279.5,311.5C 281.833,308.5 284.5,305.833 287.5,303.5 Z"/></g>
<g><path style="opacity:0.008" fill="#d5dff4" d="M 202.5,310.5 C 202.5,311.833 201.833,312.5 200.5,312.5C 200.833,311.5 201.5,310.833 202.5,310.5 Z"/></g>
<g><path style="opacity:0.078" fill="#b5c8ed" d="M 355.5,310.5 C 354.167,312.5 352.5,314.167 350.5,315.5C 351.167,312.833 352.833,311.167 355.5,310.5 Z"/></g>
<g><path style="opacity:0.745" fill="#7c97c4" d="M 238.5,304.5 C 239.167,304.5 239.5,304.833 239.5,305.5C 231.78,313.224 223.78,320.557 215.5,327.5C 222.833,319.5 230.5,311.833 238.5,304.5 Z"/></g>
<g><path style="opacity:1" fill="#506daa" d="M 279.5,311.5 C 277.716,313.948 276.382,316.615 275.5,319.5C 274.167,319.5 272.833,319.5 271.5,319.5C 273.833,316.5 276.5,313.833 279.5,311.5 Z"/></g>
<g><path style="opacity:1" fill="#14469e" d="M 239.5,305.5 C 239.667,338.502 239.5,371.502 239,404.5C 236.894,401.882 234.394,399.882 231.5,398.5C 229.833,394.833 227.167,392.167 223.5,390.5C 212.756,378.253 201.423,366.42 189.5,355C 193.439,351.571 196.772,347.737 199.5,343.5C 203.167,341.833 205.833,339.167 207.5,335.5C 207.833,334.5 208.5,333.833 209.5,333.5C 212.5,332.5 214.5,330.5 215.5,327.5C 223.78,320.557 231.78,313.224 239.5,305.5 Z"/></g>
<g><path style="opacity:0.016" fill="#e2e8f6" d="M 200.5,312.5 C 200.631,313.239 200.464,313.906 200,314.5C 193.577,321.428 186.744,327.762 179.5,333.5C 179.833,332.833 180.167,332.167 180.5,331.5C 187.167,325.167 193.833,318.833 200.5,312.5 Z"/></g>
<g><path style="opacity:0.812" fill="#7289ba" d="M 271.5,319.5 C 270.833,322.167 269.167,323.833 266.5,324.5C 267.833,322.5 269.5,320.833 271.5,319.5 Z"/></g>
<g><path style="opacity:0.549" fill="#b5c5df" d="M 159.5,326.5 C 163.167,328.167 165.833,330.833 167.5,334.5C 164.5,332.167 161.833,329.5 159.5,326.5 Z"/></g>
<g><path style="opacity:0.929" fill="#8a9eca" d="M 350.5,315.5 C 344.167,322.5 337.5,329.167 330.5,335.5C 330.5,334.167 330.5,332.833 330.5,331.5C 331.552,331.649 332.552,331.483 333.5,331C 333.167,330.667 332.833,330.333 332.5,330C 334.618,329.74 336.284,328.74 337.5,327C 337.043,326.586 336.709,326.086 336.5,325.5C 341.549,323.784 344.883,320.451 346.5,315.5C 347.833,315.5 349.167,315.5 350.5,315.5 Z"/></g>
<g><path style="opacity:0.796" fill="#7893bc" d="M 215.5,327.5 C 214.5,330.5 212.5,332.5 209.5,333.5C 211.167,331.167 213.167,329.167 215.5,327.5 Z"/></g>
<g><path style="opacity:0.553" fill="#b1c3dc" d="M 167.5,334.5 C 169.411,335.075 171.078,336.075 172.5,337.5C 172.842,338.338 173.508,338.672 174.5,338.5C 171.419,339.194 169.086,337.861 167.5,334.5 Z"/></g>
<g><path style="opacity:0.984" fill="#4964a2" d="M 180.5,331.5 C 180.167,332.167 179.833,332.833 179.5,333.5C 178.167,335.5 176.5,337.167 174.5,338.5C 173.508,338.672 172.842,338.338 172.5,337.5C 174.048,337.179 174.715,336.179 174.5,334.5C 175.675,334.719 176.675,334.386 177.5,333.5C 176.674,332.549 176.508,331.549 177,330.5C 178.011,331.337 179.178,331.67 180.5,331.5 Z"/></g>
<g><path style="opacity:1" fill="#163a7f" d="M 259.5,332.5 C 260.167,355.833 260.833,379.167 261.5,402.5C 261.5,403.167 261.5,403.833 261.5,404.5C 261.5,405.167 261.167,405.5 260.5,405.5C 259.502,381.339 259.169,357.006 259.5,332.5 Z"/></g>
<g><path style="opacity:1" fill="#506bac" d="M 328.5,335.5 C 327.89,336.391 327.557,337.391 327.5,338.5C 326.5,340.167 325.167,341.5 323.5,342.5C 323.167,342.5 322.833,342.5 322.5,342.5C 322.082,341.778 321.416,341.278 320.5,341C 321.793,340.51 323.127,340.343 324.5,340.5C 324.64,338.876 323.973,337.71 322.5,337C 324.25,335.681 326.25,335.181 328.5,335.5 Z"/></g>
<g><path style="opacity:0.043" fill="#ccd4ed" d="M 328.5,335.5 C 329.167,335.5 329.833,335.5 330.5,335.5C 329.833,336.833 328.833,337.833 327.5,338.5C 327.557,337.391 327.89,336.391 328.5,335.5 Z"/></g>
<g><path style="opacity:0.784" fill="#7d98bf" d="M 207.5,335.5 C 205.833,339.167 203.167,341.833 199.5,343.5C 201.833,340.5 204.5,337.833 207.5,335.5 Z"/></g>
<g><path style="opacity:0.043" fill="#bdcbec" d="M 322.5,342.5 C 322.833,342.5 323.167,342.5 323.5,342.5C 322.5,344.167 321.167,345.5 319.5,346.5C 319.738,344.596 320.738,343.262 322.5,342.5 Z"/></g>
<g><path style="opacity:0.169" fill="#cfdbf9" d="M 259.5,331.5 C 259.5,331.833 259.5,332.167 259.5,332.5C 259.169,357.006 259.502,381.339 260.5,405.5C 260.44,406.043 260.107,406.376 259.5,406.5C 258.171,381.337 258.171,356.337 259.5,331.5 Z"/></g>
<g><path style="opacity:0.925" fill="#6981b1" d="M 319.5,346.5 C 318.5,348.167 317.167,349.5 315.5,350.5C 315.167,350.5 314.833,350.5 314.5,350.5C 314.384,347.09 316.05,345.756 319.5,346.5 Z"/></g>
<g><path style="opacity:0.408" fill="#a8bbdc" d="M 199.5,343.5 C 196.772,347.737 193.439,351.571 189.5,355C 201.423,366.42 212.756,378.253 223.5,390.5C 211.868,379.369 200.368,368.035 189,356.5C 188.333,355.5 188.333,354.5 189,353.5C 192.369,349.963 195.869,346.629 199.5,343.5 Z"/></g>
<g><path style="opacity:0.086" fill="#b9cbec" d="M 314.5,350.5 C 314.833,350.5 315.167,350.5 315.5,350.5C 313.833,352.833 311.833,354.833 309.5,356.5C 310.419,353.911 312.086,351.911 314.5,350.5 Z"/></g>
<g><path style="opacity:0.035" fill="#bacbeb" d="M 307.5,358.5 C 303.5,363.167 299.167,367.5 294.5,371.5C 294.5,371.167 294.5,370.833 294.5,370.5C 298.227,365.77 302.56,361.77 307.5,358.5 Z"/></g>
<g><path style="opacity:0.165" fill="#ccd9f7" d="M 238.5,304.5 C 238.56,303.957 238.893,303.624 239.5,303.5C 240.833,337.833 240.833,372.167 239.5,406.5C 236.479,404.146 233.812,401.479 231.5,398.5C 234.394,399.882 236.894,401.882 239,404.5C 239.5,371.502 239.667,338.502 239.5,305.5C 239.5,304.833 239.167,304.5 238.5,304.5 Z"/></g>
<g><path style="opacity:0.925" fill="#7085b7" d="M 294.5,370.5 C 294.5,370.833 294.5,371.167 294.5,371.5C 290.833,375.833 286.833,379.833 282.5,383.5C 282.5,383.167 282.5,382.833 282.5,382.5C 282.5,381.5 282.5,380.5 282.5,379.5C 284.167,378.833 285.833,378.167 287.5,377.5C 287.192,375.076 287.526,372.743 288.5,370.5C 289.524,371.853 290.857,372.52 292.5,372.5C 292.67,371.178 292.337,370.011 291.5,369C 292.788,368.761 293.788,369.261 294.5,370.5 Z"/></g>
<g><path style="opacity:1" fill="#4361a7" d="M 282.5,382.5 C 282.5,382.833 282.5,383.167 282.5,383.5C 282.5,384.167 282.167,384.5 281.5,384.5C 279.5,384.5 278.5,385.5 278.5,387.5C 277.833,388.833 276.833,389.833 275.5,390.5C 275.167,390.5 274.833,390.5 274.5,390.5C 274.082,389.778 273.416,389.278 272.5,389C 273.793,388.51 275.127,388.343 276.5,388.5C 276.52,386.857 275.853,385.524 274.5,384.5C 276.396,383.534 278.396,383.201 280.5,383.5C 280.367,380.075 281.033,379.742 282.5,382.5 Z"/></g>
<g><path style="opacity:0.055" fill="#c5d7f0" d="M 281.5,384.5 C 280.833,385.833 279.833,386.833 278.5,387.5C 278.5,385.5 279.5,384.5 281.5,384.5 Z"/></g>
<g><path style="opacity:0.537" fill="#afc2e3" d="M 223.5,390.5 C 227.167,392.167 229.833,394.833 231.5,398.5C 228.5,396.167 225.833,393.5 223.5,390.5 Z"/></g>
<g><path style="opacity:0.067" fill="#b9ceee" d="M 274.5,390.5 C 274.833,390.5 275.167,390.5 275.5,390.5C 274.5,392.167 273.167,393.5 271.5,394.5C 271.738,392.596 272.738,391.262 274.5,390.5 Z"/></g>
<g><path style="opacity:0.082" fill="#bacdeb" d="M 271.5,394.5 C 270.167,396.5 268.5,398.167 266.5,399.5C 267.167,396.833 268.833,395.167 271.5,394.5 Z"/></g>
<g><path style="opacity:0.067" fill="#b9d0ea" d="M 266.5,399.5 C 265.167,401.5 263.5,403.167 261.5,404.5C 261.5,403.833 261.5,403.167 261.5,402.5C 262.922,401.075 264.589,400.075 266.5,399.5 Z"/></g>
</svg>
