<?xml version="1.0" encoding="UTF-8"?>
<!DOCTYPE svg PUBLIC "-//W3C//DTD SVG 1.1//EN" "http://www.w3.org/Graphics/SVG/1.1/DTD/svg11.dtd">
<svg xmlns="http://www.w3.org/2000/svg" version="1.1" width="512px" height="512px" style="shape-rendering:geometricPrecision; text-rendering:geometricPrecision; image-rendering:optimizeQuality; fill-rule:evenodd; clip-rule:evenodd" xmlns:xlink="http://www.w3.org/1999/xlink">
<g><path style="opacity:0.976" fill="#fefffe" d="M 130.5,-0.5 C 136.5,-0.5 142.5,-0.5 148.5,-0.5C 157.557,2.02827 165.89,6.19493 173.5,12C 190.139,25.6504 207.139,38.817 224.5,51.5C 236.866,42.615 250.699,38.615 266,39.5C 281.866,38.5127 296.033,42.846 308.5,52.5C 329.358,36.4745 350.358,20.6412 371.5,5C 376.159,2.84209 380.825,1.00876 385.5,-0.5C 391.833,-0.5 398.167,-0.5 404.5,-0.5C 423.022,5.52064 435.522,17.854 442,36.5C 447.27,50.3512 449.77,64.6845 449.5,79.5C 463.892,79.0696 478.226,79.5696 492.5,81C 501.906,85.5659 508.24,92.7326 511.5,102.5C 511.5,132.833 511.5,163.167 511.5,193.5C 510.023,195.807 508.023,197.64 505.5,199C 500.845,199.499 496.179,199.666 491.5,199.5C 491.667,295.834 491.5,392.167 491,488.5C 485.416,500.53 476.25,508.197 463.5,511.5C 322.833,511.5 182.167,511.5 41.5,511.5C 30.5255,508.024 23.3588,500.691 20,489.5C 19.5,392.834 19.3333,296.167 19.5,199.5C 14.4889,199.666 9.48892,199.499 4.5,199C 2.63834,197.634 0.971672,196.134 -0.5,194.5C -0.5,163.833 -0.5,133.167 -0.5,102.5C 2.76943,92.7246 9.10276,85.5579 18.5,81C 40.7804,79.543 63.1137,79.043 85.5,79.5C 84.556,54.1677 91.8893,31.6677 107.5,12C 110.99,9.08868 114.656,6.42202 118.5,4C 122.571,2.36954 126.571,0.869545 130.5,-0.5 Z M 137.5,19.5 C 143.946,19.815 149.946,21.6484 155.5,25C 174.001,39.3401 192.335,53.8401 210.5,68.5C 208.971,71.7536 207.638,75.087 206.5,78.5C 194.848,79.3325 183.181,79.8325 171.5,80C 165.458,83.7481 163.958,88.9148 167,95.5C 168.214,97.0488 169.714,98.2155 171.5,99C 183.181,99.1675 194.848,99.6675 206.5,100.5C 207.711,101.72 207.711,102.887 206.5,104C 187.664,115.253 168.664,126.253 149.5,137C 134.996,141.942 123.829,137.775 116,124.5C 108.696,109.185 105.196,93.0179 105.5,76C 106.173,60.9628 110.006,46.7962 117,33.5C 121.67,25.4325 128.503,20.7658 137.5,19.5 Z M 394.5,19.5 C 407.234,21.3831 416.067,28.3831 421,40.5C 430.206,65.2408 430.872,90.2408 423,115.5C 418.678,128.662 409.845,136.662 396.5,139.5C 393.557,138.756 390.557,138.256 387.5,138C 367.207,127.187 347.207,115.854 327.5,104C 325.561,103.092 324.561,101.592 324.5,99.5C 336.171,99.6665 347.838,99.4999 359.5,99C 365.025,96.0812 366.858,91.5812 365,85.5C 364.215,83.714 363.049,82.214 361.5,81C 349.248,79.8714 336.915,79.038 324.5,78.5C 323.73,75.5866 322.73,72.7533 321.5,70C 340.287,54.7679 359.287,39.7679 378.5,25C 383.586,22.028 388.919,20.1947 394.5,19.5 Z M 263.5,59.5 C 278.181,58.7728 290.348,63.7728 300,74.5C 308.782,93.4491 303.616,107.282 284.5,116C 268.646,120.922 253.312,119.589 238.5,112C 224.812,100.085 222.978,86.5847 233,71.5C 241.794,63.8495 251.961,59.8495 263.5,59.5 Z M 28.5,99.5 C 47.8333,99.5 67.1667,99.5 86.5,99.5C 88.4939,119.008 96.1605,135.841 109.5,150C 121.122,158.593 134.122,161.593 148.5,159C 160.021,155.822 170.521,150.656 180,143.5C 172.421,155.756 163.921,167.589 154.5,179C 109.501,179.5 64.5012,179.667 19.5,179.5C 19.3334,156.164 19.5,132.831 20,109.5C 20.565,104.11 23.3984,100.777 28.5,99.5 Z M 447.5,99.5 C 460.228,99.08 472.894,99.58 485.5,101C 487.333,102.167 488.833,103.667 490,105.5C 491.461,130.115 491.961,154.781 491.5,179.5C 453.499,179.667 415.499,179.5 377.5,179C 368.743,166.821 359.743,154.821 350.5,143C 358.813,146.993 367.146,151.326 375.5,156C 401.948,165.298 422.448,158.131 437,134.5C 442.828,123.517 446.328,111.85 447.5,99.5 Z M 309.5,124.5 C 312.755,126.926 315.588,129.926 318,133.5C 341.133,166.265 364.633,198.765 388.5,231C 380.517,229.338 372.517,227.338 364.5,225C 358.419,223.142 353.919,224.975 351,230.5C 348.178,240.123 345.511,249.789 343,259.5C 322.628,219.255 302.128,179.089 281.5,139C 292.174,136.498 301.507,131.665 309.5,124.5 Z M 220.5,125.5 C 225.445,128.309 230.445,131.143 235.5,134C 240.167,135.667 244.833,137.333 249.5,139C 228.872,179.089 208.372,219.255 188,259.5C 185.489,249.789 182.822,240.123 180,230.5C 177.081,224.975 172.581,223.142 166.5,225C 158.483,227.338 150.483,229.338 142.5,231C 169.103,196.237 195.103,161.071 220.5,125.5 Z M 264.5,154.5 C 265.376,154.369 266.043,154.702 266.5,155.5C 272.667,167.833 278.833,180.167 285,192.5C 285.5,292.166 285.667,391.833 285.5,491.5C 272.167,491.5 258.833,491.5 245.5,491.5C 245.333,391.833 245.5,292.166 246,192.5C 252.45,179.934 258.617,167.267 264.5,154.5 Z M 39.5,199.5 C 72.835,199.333 106.168,199.5 139.5,200C 128.301,214.232 117.468,228.732 107,243.5C 104.779,248.288 105.279,252.788 108.5,257C 110.609,258.907 113.109,259.74 116,259.5C 131.845,256.122 147.511,252.122 163,247.5C 167.067,264.03 171.733,280.364 177,296.5C 183.007,300.787 188.674,300.454 194,295.5C 204.078,275.011 214.411,254.677 225,234.5C 225.5,320.166 225.667,405.833 225.5,491.5C 166.832,491.667 108.166,491.5 49.5,491C 45.8848,490.386 43.0514,488.553 41,485.5C 39.5095,390.211 39.0095,294.877 39.5,199.5 Z M 392.5,200.5 C 418.328,199.502 444.328,199.169 470.5,199.5C 470.667,294.167 470.5,388.834 470,483.5C 466.336,488.142 461.503,490.642 455.5,491C 405.501,491.5 355.501,491.667 305.5,491.5C 305.333,405.833 305.5,320.166 306,234.5C 316.589,254.677 326.922,275.011 337,295.5C 342.192,300.418 347.692,300.752 353.5,296.5C 354.584,295.335 355.417,294.002 356,292.5C 359.844,277.457 363.844,262.457 368,247.5C 382.073,251.56 396.239,255.394 410.5,259C 422.874,260.628 427.374,255.461 424,243.5C 413.637,228.984 403.137,214.651 392.5,200.5 Z"/></g>
<g><path style="opacity:0.936" fill="#fefffe" d="M 64.5,345.5 C 75.4371,343.938 80.2704,348.605 79,359.5C 75.8199,365.234 70.9866,367.067 64.5,365C 57.8747,358.502 57.8747,352.002 64.5,345.5 Z"/></g>
<g><path style="opacity:0.989" fill="#fefffe" d="M 65.5,385.5 C 71.5895,384.137 76.0895,386.137 79,391.5C 79.6667,416.167 79.6667,440.833 79,465.5C 75.2519,471.542 70.0852,473.042 63.5,470C 61.9512,468.786 60.7845,467.286 60,465.5C 59.3333,440.833 59.3333,416.167 60,391.5C 61.3597,388.977 63.193,386.977 65.5,385.5 Z"/></g>
</svg>
