<?xml version="1.0" encoding="UTF-8"?>
<!DOCTYPE svg PUBLIC "-//W3C//DTD SVG 1.1//EN" "http://www.w3.org/Graphics/SVG/1.1/DTD/svg11.dtd">
<svg xmlns="http://www.w3.org/2000/svg" version="1.1" width="24px" height="24px" style="shape-rendering:geometricPrecision; text-rendering:geometricPrecision; image-rendering:optimizeQuality; fill-rule:evenodd; clip-rule:evenodd" xmlns:xlink="http://www.w3.org/1999/xlink">
<g><path style="opacity:0.493" fill="#fefffe" d="M 17.5,0.5 C 19.1667,0.5 20.8333,0.5 22.5,0.5C 22.5,6.83333 22.5,13.1667 22.5,19.5C 20.8333,19.5 19.1667,19.5 17.5,19.5C 17.5,13.1667 17.5,6.83333 17.5,0.5 Z"/></g>
<g><path style="opacity:0.505" fill="#fefffe" d="M 6.5,5.5 C 8.16667,5.5 9.83333,5.5 11.5,5.5C 11.5,8.16667 11.5,10.8333 11.5,13.5C 13.1667,13.5 14.8333,13.5 16.5,13.5C 16.5,15.5 16.5,17.5 16.5,19.5C 13.1667,19.5 9.83333,19.5 6.5,19.5C 6.5,14.8333 6.5,10.1667 6.5,5.5 Z"/></g>
<g><path style="opacity:0.492" fill="#fefffe" d="M 0.5,9.5 C 2.16667,9.5 3.83333,9.5 5.5,9.5C 5.5,12.8333 5.5,16.1667 5.5,19.5C 3.83333,19.5 2.16667,19.5 0.5,19.5C 0.5,16.1667 0.5,12.8333 0.5,9.5 Z"/></g>
<g><path style="opacity:0.494" fill="#fefffe" d="M -0.5,20.5 C 7.5,20.5 15.5,20.5 23.5,20.5C 23.5,21.1667 23.5,21.8333 23.5,22.5C 15.5,22.5 7.5,22.5 -0.5,22.5C -0.5,21.8333 -0.5,21.1667 -0.5,20.5 Z"/></g>
</svg>
