<?xml version="1.0" encoding="UTF-8"?>
<!DOCTYPE svg PUBLIC "-//W3C//DTD SVG 1.1//EN" "http://www.w3.org/Graphics/SVG/1.1/DTD/svg11.dtd">
<svg xmlns="http://www.w3.org/2000/svg" version="1.1" width="150px" height="150px" style="shape-rendering:geometricPrecision; text-rendering:geometricPrecision; image-rendering:optimizeQuality; fill-rule:evenodd; clip-rule:evenodd" xmlns:xlink="http://www.w3.org/1999/xlink">
<g><path style="opacity:1" fill="#d8d7ce" d="M -0.5,-0.5 C 8.83333,-0.5 18.1667,-0.5 27.5,-0.5C 28.1377,3.98585 26.8044,7.65252 23.5,10.5C 22.3112,11.4287 20.9778,11.762 19.5,11.5C 17.2683,18.0825 15.2683,24.7492 13.5,31.5C 11.6945,30.7938 9.86115,31.1271 8,32.5C 7.50204,29.5184 7.33537,26.5184 7.5,23.5C 8.83333,23.5 10.1667,23.5 11.5,23.5C 11.5,20.8333 11.5,18.1667 11.5,15.5C 8.83333,15.5 6.16667,15.5 3.5,15.5C 3.24029,27.3556 3.57363,39.1889 4.5,51C 4.16667,52.1667 3.83333,53.3333 3.5,54.5C 2.7022,52.9223 2.2022,51.2556 2,49.5C 2.11382,54.6059 1.28049,59.2726 -0.5,63.5C -0.5,42.1667 -0.5,20.8333 -0.5,-0.5 Z"/></g>
<g><path style="opacity:1" fill="#d1d0ca" d="M 27.5,-0.5 C 32.8333,-0.5 38.1667,-0.5 43.5,-0.5C 43.5,0.833333 43.5,2.16667 43.5,3.5C 42.5,3.5 41.5,3.5 40.5,3.5C 40.5,4.83333 40.5,6.16667 40.5,7.5C 39.1266,7.34332 37.7932,7.50999 36.5,8C 35.7454,10.1748 34.912,12.3415 34,14.5C 33.3292,15.2524 32.4959,15.5858 31.5,15.5C 30.1667,15.5 28.8333,15.5 27.5,15.5C 27.7307,18.7845 26.3974,21.2845 23.5,23C 24.3679,39.1825 24.3679,55.3492 23.5,71.5C 22.5,71.5 21.5,71.5 20.5,71.5C 18.9812,76.7352 17.6479,82.0685 16.5,87.5C 15.8333,89.1667 15.1667,90.8333 14.5,92.5C 14.0618,92.4346 13.7284,92.6012 13.5,93C 14.4158,93.2784 15.0825,93.7784 15.5,94.5C 14.8333,94.8333 14.1667,95.1667 13.5,95.5C 12.791,94.596 11.791,94.2627 10.5,94.5C 10.5,93.5 10.5,92.5 10.5,91.5C 13.8957,91.3671 14.2291,90.3671 11.5,88.5C 12.6888,87.5713 14.0222,87.238 15.5,87.5C 16.2061,75.5131 16.5394,63.5131 16.5,51.5C 17.5,51.5 18.5,51.5 19.5,51.5C 19.5,50.1667 19.5,48.8333 19.5,47.5C 18.5,47.5 17.5,47.5 16.5,47.5C 16.7602,41.8846 15.7602,36.5513 13.5,31.5C 15.2683,24.7492 17.2683,18.0825 19.5,11.5C 20.9778,11.762 22.3112,11.4287 23.5,10.5C 26.8044,7.65252 28.1377,3.98585 27.5,-0.5 Z"/></g>
<g><path style="opacity:1" fill="#c3beb5" d="M 103.5,-0.5 C 111.5,-0.5 119.5,-0.5 127.5,-0.5C 127.5,0.833333 127.5,2.16667 127.5,3.5C 128.833,3.5 130.167,3.5 131.5,3.5C 131.5,4.83333 131.5,6.16667 131.5,7.5C 132.833,7.5 134.167,7.5 135.5,7.5C 135.5,10.1667 135.5,12.8333 135.5,15.5C 136.833,15.5 138.167,15.5 139.5,15.5C 139.844,35.5267 140.844,55.5267 142.5,75.5C 144.37,79.9262 146.703,83.9262 149.5,87.5C 149.5,91.5 149.5,95.5 149.5,99.5C 148.833,99.5 148.167,99.5 147.5,99.5C 148.588,92.2469 145.588,87.5802 138.5,85.5C 137.811,83.556 137.311,81.556 137,79.5C 135.2,77.9062 133.367,76.2395 131.5,74.5C 131.709,73.914 132.043,73.414 132.5,73C 129.894,67.8802 129.894,62.7136 132.5,57.5C 131.974,48.6004 130.641,39.9337 128.5,31.5C 129.5,31.5 130.5,31.5 131.5,31.5C 131.5,28.8333 131.5,26.1667 131.5,23.5C 130.167,23.5 128.833,23.5 127.5,23.5C 127.426,27.5412 126.093,28.2079 123.5,25.5C 125.322,23.2663 126.655,20.7663 127.5,18C 125.848,15.6773 124.181,13.344 122.5,11C 123.337,9.98873 123.67,8.82207 123.5,7.5C 120.833,7.5 118.167,7.5 115.5,7.5C 115.5,6.16667 115.5,4.83333 115.5,3.5C 111.5,2.83333 107.5,2.16667 103.5,1.5C 103.5,0.833333 103.5,0.166667 103.5,-0.5 Z"/></g>
<g><path style="opacity:1" fill="#281e1a" d="M 80.5,-0.5 C 82.1667,-0.5 83.8333,-0.5 85.5,-0.5C 88.7244,2.13655 92.0578,4.80322 95.5,7.5C 96.7958,11.7387 98.4625,15.7387 100.5,19.5C 100.717,24.2303 100.383,28.8969 99.5,33.5C 99.1667,34.8333 98.8333,36.1667 98.5,37.5C 97.8333,31.5 97.1667,25.5 96.5,19.5C 96.5792,18.0695 96.2458,16.7362 95.5,15.5C 93.0916,13.0916 90.7582,10.7582 88.5,8.5C 89.0431,8.44001 89.3764,8.10667 89.5,7.5C 87.8917,6.68156 86.2251,6.0149 84.5,5.5C 83.5713,4.31116 83.238,2.97782 83.5,1.5C 81.4727,1.66212 79.4727,1.49546 77.5,1C 78.7375,0.76791 79.7375,0.26791 80.5,-0.5 Z"/></g>
<g><path style="opacity:1" fill="#c9c3ba" d="M 127.5,-0.5 C 134.833,-0.5 142.167,-0.5 149.5,-0.5C 149.5,28.8333 149.5,58.1667 149.5,87.5C 146.703,83.9262 144.37,79.9262 142.5,75.5C 140.844,55.5267 139.844,35.5267 139.5,15.5C 138.167,15.5 136.833,15.5 135.5,15.5C 135.5,12.8333 135.5,10.1667 135.5,7.5C 134.167,7.5 132.833,7.5 131.5,7.5C 131.5,6.16667 131.5,4.83333 131.5,3.5C 130.167,3.5 128.833,3.5 127.5,3.5C 127.5,2.16667 127.5,0.833333 127.5,-0.5 Z"/></g>
<g><path style="opacity:1" fill="#180f0c" d="M 61.5,-0.5 C 67.8333,-0.5 74.1667,-0.5 80.5,-0.5C 79.7375,0.26791 78.7375,0.76791 77.5,1C 79.4727,1.49546 81.4727,1.66212 83.5,1.5C 83.238,2.97782 83.5713,4.31116 84.5,5.5C 86.2251,6.0149 87.8917,6.68156 89.5,7.5C 89.3764,8.10667 89.0431,8.44001 88.5,8.5C 88.1667,8.5 87.8333,8.5 87.5,8.5C 77.2325,7.02382 66.8991,7.35716 56.5,9.5C 58.8594,7.44845 60.1927,4.78178 60.5,1.5C 60.8333,0.833333 61.1667,0.166667 61.5,-0.5 Z"/></g>
<g><path style="opacity:1" fill="#c9c7c2" d="M 43.5,-0.5 C 49.5,-0.5 55.5,-0.5 61.5,-0.5C 61.1667,0.166667 60.8333,0.833333 60.5,1.5C 59.609,2.10978 58.609,2.44312 57.5,2.5C 56.7784,2.08247 56.2784,1.4158 56,0.5C 53.3564,4.75419 50.1898,8.58752 46.5,12C 47.8784,16.014 47.3784,19.8473 45,23.5C 43.9477,30.1276 43.4477,36.7943 43.5,43.5C 42.8826,43.3893 42.3826,43.056 42,42.5C 42.0745,53.542 42.9078,64.542 44.5,75.5C 34.956,81.9097 24.956,87.5764 14.5,92.5C 15.1667,90.8333 15.8333,89.1667 16.5,87.5C 21.7338,86.2623 24.4005,82.929 24.5,77.5C 25.675,77.719 26.675,77.3857 27.5,76.5C 28.6416,73.6008 29.3083,70.6008 29.5,67.5C 30.5,67.5 31.5,67.5 32.5,67.5C 32.5,66.1667 32.5,64.8333 32.5,63.5C 33.5,63.5 34.5,63.5 35.5,63.5C 35.5,50.1667 35.5,36.8333 35.5,23.5C 34.5,23.5 33.5,23.5 32.5,23.5C 32.1667,20.8333 31.8333,18.1667 31.5,15.5C 32.4959,15.5858 33.3292,15.2524 34,14.5C 34.912,12.3415 35.7454,10.1748 36.5,8C 37.7932,7.50999 39.1266,7.34332 40.5,7.5C 40.5,6.16667 40.5,4.83333 40.5,3.5C 41.5,3.5 42.5,3.5 43.5,3.5C 43.5,2.16667 43.5,0.833333 43.5,-0.5 Z"/></g>
<g><path style="opacity:1" fill="#361a13" d="M 87.5,8.5 C 80.0119,9.29282 72.6785,9.62616 65.5,9.5C 60.052,9.3281 55.7187,11.3281 52.5,15.5C 52.0679,16.7095 51.4013,17.7095 50.5,18.5C 50.3422,13.8643 52.3422,10.8643 56.5,9.5C 66.8991,7.35716 77.2325,7.02382 87.5,8.5 Z"/></g>
<g><path style="opacity:1" fill="#9d5e4c" d="M 74.5,11.5 C 78.8333,11.5 83.1667,11.5 87.5,11.5C 88.6677,15.4656 89.3344,19.2989 89.5,23C 87.0066,24.2691 84.3399,25.1024 81.5,25.5C 77.2312,25.0761 72.8978,24.9095 68.5,25C 65.9901,23.9096 63.4901,22.743 61,21.5C 60.3988,19.8632 59.8988,18.1966 59.5,16.5C 61.0829,15.0712 61.7495,13.5712 61.5,12C 65.8206,11.501 70.1539,11.3343 74.5,11.5 Z"/></g>
<g><path style="opacity:1" fill="#d7d6d0" d="M 13.5,31.5 C 15.7602,36.5513 16.7602,41.8846 16.5,47.5C 17.5,47.5 18.5,47.5 19.5,47.5C 19.5,48.8333 19.5,50.1667 19.5,51.5C 18.5,51.5 17.5,51.5 16.5,51.5C 16.5394,63.5131 16.2061,75.5131 15.5,87.5C 14.0222,87.238 12.6888,87.5713 11.5,88.5C 14.2291,90.3671 13.8957,91.3671 10.5,91.5C 10.5,92.5 10.5,93.5 10.5,94.5C 11.791,94.2627 12.791,94.596 13.5,95.5C 13.1667,95.5 12.8333,95.5 12.5,95.5C 11.1779,95.67 10.0113,95.3366 9,94.5C 7.8646,97.7073 5.8646,99.0406 3,98.5C 2.36211,101.601 1.19545,104.268 -0.5,106.5C -0.5,92.1667 -0.5,77.8333 -0.5,63.5C 1.28049,59.2726 2.11382,54.6059 2,49.5C 2.2022,51.2556 2.7022,52.9223 3.5,54.5C 3.83333,53.3333 4.16667,52.1667 4.5,51C 3.57363,39.1889 3.24029,27.3556 3.5,15.5C 6.16667,15.5 8.83333,15.5 11.5,15.5C 11.5,18.1667 11.5,20.8333 11.5,23.5C 10.1667,23.5 8.83333,23.5 7.5,23.5C 7.33537,26.5184 7.50204,29.5184 8,32.5C 9.86115,31.1271 11.6945,30.7938 13.5,31.5 Z"/></g>
<g><path style="opacity:1" fill="#cecdc8" d="M 31.5,15.5 C 31.8333,18.1667 32.1667,20.8333 32.5,23.5C 33.5,23.5 34.5,23.5 35.5,23.5C 35.5,36.8333 35.5,50.1667 35.5,63.5C 34.5,63.5 33.5,63.5 32.5,63.5C 32.5,64.8333 32.5,66.1667 32.5,67.5C 31.5,67.5 30.5,67.5 29.5,67.5C 29.3083,70.6008 28.6416,73.6008 27.5,76.5C 26.675,77.3857 25.675,77.719 24.5,77.5C 24.4005,82.929 21.7338,86.2623 16.5,87.5C 17.6479,82.0685 18.9812,76.7352 20.5,71.5C 21.5,71.5 22.5,71.5 23.5,71.5C 24.3679,55.3492 24.3679,39.1825 23.5,23C 26.3974,21.2845 27.7307,18.7845 27.5,15.5C 28.8333,15.5 30.1667,15.5 31.5,15.5 Z"/></g>
<g><path style="opacity:1" fill="#372923" d="M 60.5,1.5 C 60.1927,4.78178 58.8594,7.44845 56.5,9.5C 52.3422,10.8643 50.3422,13.8643 50.5,18.5C 50.5,24.1667 50.5,29.8333 50.5,35.5C 49.8333,35.5 49.1667,35.5 48.5,35.5C 48.7678,33.901 48.4345,32.5676 47.5,31.5C 47.2809,25.0227 48.1142,18.6894 50,12.5C 52.7167,9.2896 55.2167,5.95627 57.5,2.5C 58.609,2.44312 59.609,2.10978 60.5,1.5 Z"/></g>
<g><path style="opacity:1" fill="#845747" d="M 65.5,9.5 C 72.6785,9.62616 80.0119,9.29282 87.5,8.5C 87.8333,8.5 88.1667,8.5 88.5,8.5C 90.7582,10.7582 93.0916,13.0916 95.5,15.5C 96.2458,16.7362 96.5792,18.0695 96.5,19.5C 96.7871,30.2181 96.4538,40.8848 95.5,51.5C 94.391,51.5569 93.391,51.8902 92.5,52.5C 94.5767,47.6488 94.91,42.6488 93.5,37.5C 92.2638,36.7542 90.9305,36.4208 89.5,36.5C 89.6107,35.8826 89.944,35.3826 90.5,35C 88.5309,32.5111 86.1975,30.6778 83.5,29.5C 86.2301,28.1834 89.0635,28.1834 92,29.5C 92.6667,28.8333 92.6667,28.1667 92,27.5C 88.6064,26.5442 85.1064,26.2108 81.5,26.5C 81.5,26.1667 81.5,25.8333 81.5,25.5C 84.3399,25.1024 87.0066,24.2691 89.5,23C 89.3344,19.2989 88.6677,15.4656 87.5,11.5C 83.1667,11.5 78.8333,11.5 74.5,11.5C 74.3893,10.8826 74.056,10.3826 73.5,10C 70.854,9.50258 68.1873,9.33591 65.5,9.5 Z"/></g>
<g><path style="opacity:1" fill="#3f190f" d="M 81.5,26.5 C 85.1064,26.2108 88.6064,26.5442 92,27.5C 92.6667,28.1667 92.6667,28.8333 92,29.5C 89.0635,28.1834 86.2301,28.1834 83.5,29.5C 82.1266,29.6567 80.7932,29.49 79.5,29C 80.056,28.6174 80.3893,28.1174 80.5,27.5C 81.1667,27.5 81.5,27.1667 81.5,26.5 Z"/></g>
<g><path style="opacity:1" fill="#bbb7b1" d="M 103.5,1.5 C 107.5,2.16667 111.5,2.83333 115.5,3.5C 115.5,4.83333 115.5,6.16667 115.5,7.5C 118.167,7.5 120.833,7.5 123.5,7.5C 123.67,8.82207 123.337,9.98873 122.5,11C 124.181,13.344 125.848,15.6773 127.5,18C 126.655,20.7663 125.322,23.2663 123.5,25.5C 126.093,28.2079 127.426,27.5412 127.5,23.5C 128.833,23.5 130.167,23.5 131.5,23.5C 131.5,26.1667 131.5,28.8333 131.5,31.5C 130.5,31.5 129.5,31.5 128.5,31.5C 130.641,39.9337 131.974,48.6004 132.5,57.5C 129.894,62.7136 129.894,67.8802 132.5,73C 132.043,73.414 131.709,73.914 131.5,74.5C 133.367,76.2395 135.2,77.9062 137,79.5C 137.311,81.556 137.811,83.556 138.5,85.5C 145.588,87.5802 148.588,92.2469 147.5,99.5C 146.069,99.1193 145.236,98.1193 145,96.5C 144.184,97.8228 143.017,98.4894 141.5,98.5C 141.5,97.8333 141.167,97.5 140.5,97.5C 139.472,96.2126 139.805,95.0459 141.5,94C 137.113,87.7863 131.447,82.953 124.5,79.5C 121.99,76.4602 119.49,73.4602 117,70.5C 115.798,68.3225 115.298,65.9892 115.5,63.5C 116.833,63.5 118.167,63.5 119.5,63.5C 119.666,55.8261 119.5,48.1594 119,40.5C 115.667,37.1667 115.667,33.8333 119,30.5C 119.825,26.7887 119.659,23.122 118.5,19.5C 114.164,12.8092 109.164,6.80922 103.5,1.5 Z"/></g>
<g><path style="opacity:1" fill="#4f2315" d="M 65.5,26.5 C 67.0898,26.6282 68.4231,27.2949 69.5,28.5C 69.0431,29.2975 68.3764,29.6309 67.5,29.5C 63.9518,28.2407 60.2852,27.4074 56.5,27C 59.4816,26.502 62.4816,26.3354 65.5,26.5 Z"/></g>
<g><path style="opacity:1" fill="#afada7" d="M 85.5,-0.5 C 91.5,-0.5 97.5,-0.5 103.5,-0.5C 103.5,0.166667 103.5,0.833333 103.5,1.5C 109.164,6.80922 114.164,12.8092 118.5,19.5C 119.659,23.122 119.825,26.7887 119,30.5C 115.667,33.8333 115.667,37.1667 119,40.5C 119.5,48.1594 119.666,55.8261 119.5,63.5C 118.167,63.5 116.833,63.5 115.5,63.5C 115.298,65.9892 115.798,68.3225 117,70.5C 119.49,73.4602 121.99,76.4602 124.5,79.5C 131.447,82.953 137.113,87.7863 141.5,94C 139.805,95.0459 139.472,96.2126 140.5,97.5C 136.076,96.1577 131.743,94.8244 127.5,93.5C 128.244,90.0504 126.91,88.3838 123.5,88.5C 123.649,87.448 123.483,86.448 123,85.5C 115.616,81.1158 109.949,75.1158 106,67.5C 105.333,62.5 105.333,57.5 106,52.5C 107.011,51.6634 108.178,51.33 109.5,51.5C 109.252,43.9675 109.585,36.4675 110.5,29C 109.641,22.6583 107.475,16.825 104,11.5C 101.03,12.5738 99.1971,11.4072 98.5,8C 97.552,7.51722 96.552,7.35055 95.5,7.5C 92.0578,4.80322 88.7244,2.13655 85.5,-0.5 Z"/></g>
<g><path style="opacity:1" fill="#663726" d="M 66.5,30.5 C 67.6256,31.8583 67.6256,33.1916 66.5,34.5C 65.8076,33.9747 65.3076,33.3081 65,32.5C 64.6121,33.428 63.9454,34.0946 63,34.5C 60.9335,33.6231 59.1002,33.2898 57.5,33.5C 59.8453,30.925 62.8453,29.925 66.5,30.5 Z"/></g>
<g><path style="opacity:1" fill="#704133" d="M 80.5,27.5 C 80.3893,28.1174 80.056,28.6174 79.5,29C 80.7932,29.49 82.1266,29.6567 83.5,29.5C 86.1975,30.6778 88.5309,32.5111 90.5,35C 89.944,35.3826 89.6107,35.8826 89.5,36.5C 85.6371,36.4096 81.9705,36.9096 78.5,38C 76.6602,35.1737 75.9935,32.0071 76.5,28.5C 77.7079,27.7659 79.0413,27.4326 80.5,27.5 Z"/></g>
<g><path style="opacity:1" fill="#9b614f" d="M 65.5,9.5 C 68.1873,9.33591 70.854,9.50258 73.5,10C 74.056,10.3826 74.3893,10.8826 74.5,11.5C 70.1539,11.3343 65.8206,11.501 61.5,12C 61.7495,13.5712 61.0829,15.0712 59.5,16.5C 59.8988,18.1966 60.3988,19.8632 61,21.5C 63.4901,22.743 65.9901,23.9096 68.5,25C 72.8978,24.9095 77.2312,25.0761 81.5,25.5C 81.5,25.8333 81.5,26.1667 81.5,26.5C 81.5,27.1667 81.1667,27.5 80.5,27.5C 79.0413,27.4326 77.7079,27.7659 76.5,28.5C 75.2132,29.8714 74.5465,31.7047 74.5,34C 74.7441,37.1864 75.0774,40.353 75.5,43.5C 74.0413,43.4326 72.7079,43.7659 71.5,44.5C 70.5,44.5 69.5,44.5 68.5,44.5C 68.6085,46.5138 67.9418,48.1805 66.5,49.5C 63.429,48.6047 60.929,49.6047 59,52.5C 52.4244,49.9401 50.9244,45.6067 54.5,39.5C 56.3746,40.8361 57.7079,40.3361 58.5,38C 56.5339,36.6534 56.2006,35.1534 57.5,33.5C 59.1002,33.2898 60.9335,33.6231 63,34.5C 63.9454,34.0946 64.6121,33.428 65,32.5C 65.3076,33.3081 65.8076,33.9747 66.5,34.5C 67.6256,33.1916 67.6256,31.8583 66.5,30.5C 67.1667,30.5 67.5,30.1667 67.5,29.5C 68.3764,29.6309 69.0431,29.2975 69.5,28.5C 68.4231,27.2949 67.0898,26.6282 65.5,26.5C 61.7016,25.5166 57.7016,25.1832 53.5,25.5C 53.2161,22.2234 53.5495,19.0567 54.5,16C 53.9056,15.5357 53.2389,15.369 52.5,15.5C 55.7187,11.3281 60.052,9.3281 65.5,9.5 Z"/></g>
<g><path style="opacity:1" fill="#7f5148" d="M 99.5,33.5 C 100.167,33.5 100.833,33.5 101.5,33.5C 101.875,38.9111 100.875,43.9111 98.5,48.5C 98.5,44.8333 98.5,41.1667 98.5,37.5C 98.8333,36.1667 99.1667,34.8333 99.5,33.5 Z"/></g>
<g><path style="opacity:1" fill="#906155" d="M 47.5,31.5 C 48.4345,32.5676 48.7678,33.901 48.5,35.5C 48.5,39.8333 48.5,44.1667 48.5,48.5C 47.6887,44.5701 46.6887,40.5701 45.5,36.5C 45.4365,34.4861 46.1032,32.8194 47.5,31.5 Z"/></g>
<g><path style="opacity:1" fill="#623b31" d="M 96.5,19.5 C 97.1667,25.5 97.8333,31.5 98.5,37.5C 98.5,41.1667 98.5,44.8333 98.5,48.5C 98.7373,49.791 98.404,50.791 97.5,51.5C 97.0623,50.4937 96.3957,50.4937 95.5,51.5C 96.4538,40.8848 96.7871,30.2181 96.5,19.5 Z"/></g>
<g><path style="opacity:1" fill="#a5a49f" d="M 95.5,7.5 C 96.552,7.35055 97.552,7.51722 98.5,8C 99.1971,11.4072 101.03,12.5738 104,11.5C 107.475,16.825 109.641,22.6583 110.5,29C 109.585,36.4675 109.252,43.9675 109.5,51.5C 108.178,51.33 107.011,51.6634 106,52.5C 105.333,57.5 105.333,62.5 106,67.5C 109.949,75.1158 115.616,81.1158 123,85.5C 123.483,86.448 123.649,87.448 123.5,88.5C 126.91,88.3838 128.244,90.0504 127.5,93.5C 122.484,91.6589 117.818,89.3256 113.5,86.5C 113.611,85.8826 113.944,85.3826 114.5,85C 111.099,78.9303 106.932,73.4303 102,68.5C 101.089,60.1395 102.422,52.1395 106,44.5C 106.747,37.1185 106.414,29.7851 105,22.5C 104.411,20.1367 102.911,19.1367 100.5,19.5C 98.4625,15.7387 96.7958,11.7387 95.5,7.5 Z"/></g>
<g><path style="opacity:1" fill="#764239" d="M 48.5,35.5 C 49.1667,35.5 49.8333,35.5 50.5,35.5C 50.5,40.8333 50.5,46.1667 50.5,51.5C 50.1667,51.5 49.8333,51.5 49.5,51.5C 48.596,50.791 48.2627,49.791 48.5,48.5C 48.5,44.1667 48.5,39.8333 48.5,35.5 Z"/></g>
<g><path style="opacity:1" fill="#713f31" d="M 71.5,44.5 C 74.2336,44.5335 77.067,44.5335 80,44.5C 80.5946,45.8989 80.4279,47.2322 79.5,48.5C 80.1925,49.5178 80.8592,50.5178 81.5,51.5C 79.264,50.6109 77.264,49.2776 75.5,47.5C 74.1667,50.1667 72.8333,50.1667 71.5,47.5C 70.1667,48.8333 70.1667,50.1667 71.5,51.5C 74.7651,52.1864 77.9317,53.1864 81,54.5C 82.0299,54.1639 82.5299,53.4972 82.5,52.5C 83.4013,53.2905 84.0679,54.2905 84.5,55.5C 85.9869,57.842 85.6536,59.842 83.5,61.5C 83.628,59.3453 83.128,57.3453 82,55.5C 81.4806,56.5156 80.6473,57.1822 79.5,57.5C 74.2693,56.1183 69.2693,56.4517 64.5,58.5C 63.5318,60.6074 63.1984,62.9407 63.5,65.5C 62.1667,65.5 60.8333,65.5 59.5,65.5C 59.6495,64.448 59.4828,63.448 59,62.5C 57.2714,62.0257 56.1047,61.0257 55.5,59.5C 56.2216,59.0825 56.7216,58.4158 57,57.5C 60.2176,61.7762 61.8843,61.1095 62,55.5C 63.332,53.34 64.832,51.34 66.5,49.5C 67.9418,48.1805 68.6085,46.5138 68.5,44.5C 69.5,44.5 70.5,44.5 71.5,44.5 Z"/></g>
<g><path style="opacity:1" fill="#976556" d="M 52.5,15.5 C 53.2389,15.369 53.9056,15.5357 54.5,16C 53.5495,19.0567 53.2161,22.2234 53.5,25.5C 57.7016,25.1832 61.7016,25.5166 65.5,26.5C 62.4816,26.3354 59.4816,26.502 56.5,27C 60.2852,27.4074 63.9518,28.2407 67.5,29.5C 67.5,30.1667 67.1667,30.5 66.5,30.5C 62.8453,29.925 59.8453,30.925 57.5,33.5C 56.2006,35.1534 56.5339,36.6534 58.5,38C 57.7079,40.3361 56.3746,40.8361 54.5,39.5C 50.9244,45.6067 52.4244,49.9401 59,52.5C 60.929,49.6047 63.429,48.6047 66.5,49.5C 64.832,51.34 63.332,53.34 62,55.5C 61.8843,61.1095 60.2176,61.7762 57,57.5C 56.7216,58.4158 56.2216,59.0825 55.5,59.5C 55.7692,57.5714 55.2692,55.9047 54,54.5C 53.6667,55.1667 53.3333,55.8333 53,56.5C 51.6283,55.0899 50.795,53.4233 50.5,51.5C 50.5,46.1667 50.5,40.8333 50.5,35.5C 50.5,29.8333 50.5,24.1667 50.5,18.5C 51.4013,17.7095 52.0679,16.7095 52.5,15.5 Z"/></g>
<g><path style="opacity:1" fill="#8f5847" d="M 76.5,28.5 C 75.9935,32.0071 76.6602,35.1737 78.5,38C 81.9705,36.9096 85.6371,36.4096 89.5,36.5C 90.9305,36.4208 92.2638,36.7542 93.5,37.5C 94.91,42.6488 94.5767,47.6488 92.5,52.5C 90.8864,53.2714 89.3864,54.2714 88,55.5C 86.7393,54.3421 85.5726,54.3421 84.5,55.5C 84.0679,54.2905 83.4013,53.2905 82.5,52.5C 81.8333,52.5 81.5,52.1667 81.5,51.5C 80.8592,50.5178 80.1925,49.5178 79.5,48.5C 80.4279,47.2322 80.5946,45.8989 80,44.5C 77.067,44.5335 74.2336,44.5335 71.5,44.5C 72.7079,43.7659 74.0413,43.4326 75.5,43.5C 75.0774,40.353 74.7441,37.1864 74.5,34C 74.5465,31.7047 75.2132,29.8714 76.5,28.5 Z"/></g>
<g><path style="opacity:1" fill="#3f1911" d="M 81.5,51.5 C 81.5,52.1667 81.8333,52.5 82.5,52.5C 82.5299,53.4972 82.0299,54.1639 81,54.5C 77.9317,53.1864 74.7651,52.1864 71.5,51.5C 70.1667,50.1667 70.1667,48.8333 71.5,47.5C 72.8333,50.1667 74.1667,50.1667 75.5,47.5C 77.264,49.2776 79.264,50.6109 81.5,51.5 Z"/></g>
<g><path style="opacity:1" fill="#6d4837" d="M 95.5,51.5 C 95.1663,54.1678 93.8329,56.1678 91.5,57.5C 90.6858,59.7662 90.1858,62.0995 90,64.5C 87.2608,65.616 84.7608,66.9493 82.5,68.5C 79.5167,67.8547 76.6834,67.5213 74,67.5C 73.6924,68.3081 73.1924,68.9747 72.5,69.5C 70.1667,68.1667 67.8333,68.1667 65.5,69.5C 62.8188,69.0676 60.8188,67.7343 59.5,65.5C 60.8333,65.5 62.1667,65.5 63.5,65.5C 67.285,67.1678 69.285,65.8345 69.5,61.5C 69.5,60.8333 69.8333,60.5 70.5,60.5C 70.7911,61.6491 71.6244,62.3158 73,62.5C 75.5781,62.3176 76.0781,61.3176 74.5,59.5C 77.2048,59.3802 77.8715,60.3802 76.5,62.5C 78.9331,65.242 81.9331,66.0754 85.5,65C 84.695,63.8873 84.0283,62.7206 83.5,61.5C 85.6536,59.842 85.9869,57.842 84.5,55.5C 85.5726,54.3421 86.7393,54.3421 88,55.5C 89.3864,54.2714 90.8864,53.2714 92.5,52.5C 93.391,51.8902 94.391,51.5569 95.5,51.5 Z"/></g>
<g><path style="opacity:1" fill="#4f352a" d="M 49.5,51.5 C 49.8333,51.5 50.1667,51.5 50.5,51.5C 50.795,53.4233 51.6283,55.0899 53,56.5C 53.3333,55.8333 53.6667,55.1667 54,54.5C 55.2692,55.9047 55.7692,57.5714 55.5,59.5C 56.1047,61.0257 57.2714,62.0257 59,62.5C 59.4828,63.448 59.6495,64.448 59.5,65.5C 57.6458,64.759 55.9791,63.759 54.5,62.5C 51.117,59.7113 49.4503,56.0446 49.5,51.5 Z"/></g>
<g><path style="opacity:1" fill="#8a5345" d="M 83.5,61.5 C 84.0283,62.7206 84.695,63.8873 85.5,65C 81.9331,66.0754 78.9331,65.242 76.5,62.5C 77.8715,60.3802 77.2048,59.3802 74.5,59.5C 72.901,59.2322 71.5676,59.5655 70.5,60.5C 69.8333,60.5 69.5,60.8333 69.5,61.5C 68.0209,60.241 66.3542,59.241 64.5,58.5C 69.2693,56.4517 74.2693,56.1183 79.5,57.5C 80.6473,57.1822 81.4806,56.5156 82,55.5C 83.128,57.3453 83.628,59.3453 83.5,61.5 Z"/></g>
<g><path style="opacity:1" fill="#988d85" d="M 101.5,33.5 C 102.5,33.5 103.5,33.5 104.5,33.5C 103.471,41.5003 101.471,49.3336 98.5,57C 98.7355,57.8732 99.0688,58.7065 99.5,59.5C 95.9159,63.579 94.5825,68.2457 95.5,73.5C 95.1667,73.5 94.8333,73.5 94.5,73.5C 93.8333,73.1667 93.1667,72.8333 92.5,72.5C 93.4137,69.272 93.7471,65.9387 93.5,62.5C 95.6228,59.1326 96.9561,55.466 97.5,51.5C 98.404,50.791 98.7373,49.791 98.5,48.5C 100.875,43.9111 101.875,38.9111 101.5,33.5 Z"/></g>
<g><path style="opacity:1" fill="#b4b1aa" d="M 57.5,2.5 C 55.2167,5.95627 52.7167,9.2896 50,12.5C 48.1142,18.6894 47.2809,25.0227 47.5,31.5C 46.1032,32.8194 45.4365,34.4861 45.5,36.5C 46.6887,40.5701 47.6887,44.5701 48.5,48.5C 48.2627,49.791 48.596,50.791 49.5,51.5C 49.4503,56.0446 51.117,59.7113 54.5,62.5C 54.5,62.8333 54.5,63.1667 54.5,63.5C 54.3975,66.2186 54.7308,68.8853 55.5,71.5C 55.2483,73.0729 54.5817,74.4062 53.5,75.5C 51.8054,79.1947 49.1387,81.8613 45.5,83.5C 40.5578,85.3044 35.8912,87.6378 31.5,90.5C 29.8828,91.038 28.2161,91.3713 26.5,91.5C 26.5412,89.2547 27.3745,88.5881 29,89.5C 30.4352,87.7887 32.2686,86.622 34.5,86C 35.3366,84.9887 35.67,83.8221 35.5,82.5C 42.9754,81.3584 46.9754,77.0251 47.5,69.5C 44.8972,65.7709 44.2306,61.7709 45.5,57.5C 45.0814,56.3279 44.4147,55.3279 43.5,54.5C 44.4148,50.5706 44.4148,46.9039 43.5,43.5C 43.4477,36.7943 43.9477,30.1276 45,23.5C 47.3784,19.8473 47.8784,16.014 46.5,12C 50.1898,8.58752 53.3564,4.75419 56,0.5C 56.2784,1.4158 56.7784,2.08247 57.5,2.5 Z"/></g>
<g><path style="opacity:1" fill="#3c2318" d="M 97.5,51.5 C 96.9561,55.466 95.6228,59.1326 93.5,62.5C 91.3884,65.9415 88.3884,68.2748 84.5,69.5C 84.1583,68.6618 83.4916,68.3284 82.5,68.5C 84.7608,66.9493 87.2608,65.616 90,64.5C 90.1858,62.0995 90.6858,59.7662 91.5,57.5C 93.8329,56.1678 95.1663,54.1678 95.5,51.5C 96.3957,50.4937 97.0623,50.4937 97.5,51.5 Z"/></g>
<g><path style="opacity:1" fill="#3c180c" d="M 74.5,59.5 C 76.0781,61.3176 75.5781,62.3176 73,62.5C 71.6244,62.3158 70.7911,61.6491 70.5,60.5C 71.5676,59.5655 72.901,59.2322 74.5,59.5 Z"/></g>
<g><path style="opacity:1" fill="#bebeb8" d="M 43.5,43.5 C 44.4148,46.9039 44.4148,50.5706 43.5,54.5C 44.4147,55.3279 45.0814,56.3279 45.5,57.5C 44.2306,61.7709 44.8972,65.7709 47.5,69.5C 46.9754,77.0251 42.9754,81.3584 35.5,82.5C 35.67,83.8221 35.3366,84.9887 34.5,86C 32.2686,86.622 30.4352,87.7887 29,89.5C 27.3745,88.5881 26.5412,89.2547 26.5,91.5C 22.8772,92.6557 19.2106,93.6557 15.5,94.5C 15.0825,93.7784 14.4158,93.2784 13.5,93C 13.7284,92.6012 14.0618,92.4346 14.5,92.5C 24.956,87.5764 34.956,81.9097 44.5,75.5C 42.9078,64.542 42.0745,53.542 42,42.5C 42.3826,43.056 42.8826,43.3893 43.5,43.5 Z"/></g>
<g><path style="opacity:1" fill="#9c705e" d="M 64.5,58.5 C 66.3542,59.241 68.0209,60.241 69.5,61.5C 69.285,65.8345 67.285,67.1678 63.5,65.5C 63.1984,62.9407 63.5318,60.6074 64.5,58.5 Z"/></g>
<g><path style="opacity:1" fill="#9e9d98" d="M 100.5,19.5 C 102.911,19.1367 104.411,20.1367 105,22.5C 106.414,29.7851 106.747,37.1185 106,44.5C 102.422,52.1395 101.089,60.1395 102,68.5C 106.932,73.4303 111.099,78.9303 114.5,85C 113.944,85.3826 113.611,85.8826 113.5,86.5C 113.167,86.5 112.833,86.5 112.5,86.5C 112.167,86.5 111.833,86.5 111.5,86.5C 107.897,84.3596 104.23,82.193 100.5,80C 98.2345,78.2419 96.5678,76.0752 95.5,73.5C 94.5825,68.2457 95.9159,63.579 99.5,59.5C 99.0688,58.7065 98.7355,57.8732 98.5,57C 101.471,49.3336 103.471,41.5003 104.5,33.5C 103.5,33.5 102.5,33.5 101.5,33.5C 100.833,33.5 100.167,33.5 99.5,33.5C 100.383,28.8969 100.717,24.2303 100.5,19.5 Z"/></g>
<g><path style="opacity:1" fill="#25150f" d="M 54.5,63.5 C 54.5,63.1667 54.5,62.8333 54.5,62.5C 55.9791,63.759 57.6458,64.759 59.5,65.5C 60.8188,67.7343 62.8188,69.0676 65.5,69.5C 67.8333,68.1667 70.1667,68.1667 72.5,69.5C 73.1924,68.9747 73.6924,68.3081 74,67.5C 76.6834,67.5213 79.5167,67.8547 82.5,68.5C 83.4916,68.3284 84.1583,68.6618 84.5,69.5C 79.8712,73.1527 74.5379,74.8193 68.5,74.5C 62.6555,72.321 57.9888,68.6543 54.5,63.5 Z"/></g>
<g><path style="opacity:1" fill="#7d5342" d="M 93.5,62.5 C 93.7471,65.9387 93.4137,69.272 92.5,72.5C 90.9668,76.704 88.3002,80.0374 84.5,82.5C 84.9202,80.326 84.9202,78.326 84.5,76.5C 80.8614,75.5397 77.1947,75.5397 73.5,76.5C 71.8333,75.8333 70.1667,75.1667 68.5,74.5C 74.5379,74.8193 79.8712,73.1527 84.5,69.5C 88.3884,68.2748 91.3884,65.9415 93.5,62.5 Z"/></g>
<g><path style="opacity:1" fill="#8e6751" d="M 54.5,63.5 C 57.9888,68.6543 62.6555,72.321 68.5,74.5C 70.1667,75.1667 71.8333,75.8333 73.5,76.5C 69.9879,76.81 66.6545,76.81 63.5,76.5C 63.5,78.5 62.5,79.5 60.5,79.5C 59.6043,78.4937 58.9377,78.4937 58.5,79.5C 57.207,78.158 56.3736,76.4913 56,74.5C 55.6174,75.056 55.1174,75.3893 54.5,75.5C 54.1667,75.5 53.8333,75.5 53.5,75.5C 54.5817,74.4062 55.2483,73.0729 55.5,71.5C 54.7308,68.8853 54.3975,66.2186 54.5,63.5 Z"/></g>
<g><path style="opacity:1" fill="#9e6851" d="M 63.5,76.5 C 69.7472,79.3965 76.0805,79.7299 82.5,77.5C 82.5,79.5 82.5,81.5 82.5,83.5C 80.8008,83.3398 79.1341,83.5065 77.5,84C 77.9574,84.414 78.2907,84.914 78.5,85.5C 76.0306,86.0361 73.864,87.0361 72,88.5C 70.1741,86.9262 68.0075,86.0929 65.5,86C 63.564,83.9577 61.8973,81.791 60.5,79.5C 62.5,79.5 63.5,78.5 63.5,76.5 Z"/></g>
<g><path style="opacity:1" fill="#181718" d="M 94.5,73.5 C 94.8333,73.5 95.1667,73.5 95.5,73.5C 96.5678,76.0752 98.2345,78.2419 100.5,80C 104.23,82.193 107.897,84.3596 111.5,86.5C 109.063,86.2437 106.729,85.5771 104.5,84.5C 102.15,85.0915 99.9834,86.0915 98,87.5C 97.1268,87.2645 96.2935,86.9312 95.5,86.5C 94.8243,87.6016 94.1577,88.6016 93.5,89.5C 93.5,87.1667 93.5,84.8333 93.5,82.5C 94.4025,79.6085 94.7359,76.6085 94.5,73.5 Z"/></g>
<g><path style="opacity:1" fill="#8f5f4e" d="M 63.5,76.5 C 66.6545,76.81 69.9879,76.81 73.5,76.5C 77.1947,75.5397 80.8614,75.5397 84.5,76.5C 84.9202,78.326 84.9202,80.326 84.5,82.5C 80.5259,86.1384 76.5259,89.8051 72.5,93.5C 70.9031,90.1788 68.2364,88.0121 64.5,87C 61.9061,84.9135 59.9061,82.4135 58.5,79.5C 58.9377,78.4937 59.6043,78.4937 60.5,79.5C 61.8973,81.791 63.564,83.9577 65.5,86C 68.0075,86.0929 70.1741,86.9262 72,88.5C 73.864,87.0361 76.0306,86.0361 78.5,85.5C 78.2907,84.914 77.9574,84.414 77.5,84C 79.1341,83.5065 80.8008,83.3398 82.5,83.5C 82.5,81.5 82.5,79.5 82.5,77.5C 76.0805,79.7299 69.7472,79.3965 63.5,76.5 Z"/></g>
<g><path style="opacity:1" fill="#18171f" d="M 53.5,75.5 C 53.8333,75.5 54.1667,75.5 54.5,75.5C 54.3243,80.8797 54.6576,86.213 55.5,91.5C 55.5,94.5 55.5,97.5 55.5,100.5C 54.8386,99.2825 54.1719,97.9492 53.5,96.5C 54.0891,98.3733 53.4224,100.04 51.5,101.5C 50.6919,101.192 50.0253,100.692 49.5,100C 51.1554,98.5557 51.822,96.7224 51.5,94.5C 47.6947,93.165 43.6947,92.3317 39.5,92C 41.7447,89.2691 43.7447,86.4358 45.5,83.5C 49.1387,81.8613 51.8054,79.1947 53.5,75.5 Z"/></g>
<g><path style="opacity:1" fill="#0c0d17" d="M 45.5,83.5 C 43.7447,86.4358 41.7447,89.2691 39.5,92C 43.6947,92.3317 47.6947,93.165 51.5,94.5C 51.822,96.7224 51.1554,98.5557 49.5,100C 50.0253,100.692 50.6919,101.192 51.5,101.5C 53.4224,100.04 54.0891,98.3733 53.5,96.5C 54.1719,97.9492 54.8386,99.2825 55.5,100.5C 56.0085,104.736 57.0085,108.736 58.5,112.5C 59.1355,122.046 61.4688,131.046 65.5,139.5C 65.4021,141.553 66.0687,143.22 67.5,144.5C 68.038,146.117 68.3713,147.784 68.5,149.5C 45.5,149.5 22.5,149.5 -0.5,149.5C -0.5,148.833 -0.5,148.167 -0.5,147.5C 0.217161,145.047 1.38383,142.713 3,140.5C 3.78351,137.24 3.61684,134.073 2.5,131C 4.88595,129.156 6.05261,126.656 6,123.5C 7,122.167 8,122.167 9,123.5C 9.21089,117.782 9.71089,112.115 10.5,106.5C 9.87277,105.583 9.53944,104.583 9.5,103.5C 9.5,103.167 9.5,102.833 9.5,102.5C 10.5,102.5 11.5,102.5 12.5,102.5C 12.2148,100.712 12.5481,99.0453 13.5,97.5C 14.086,97.7093 14.586,98.0426 15,98.5C 21.093,97.0367 26.593,94.37 31.5,90.5C 35.8912,87.6378 40.5578,85.3044 45.5,83.5 Z"/></g>
<g><path style="opacity:1" fill="#24252a" d="M 31.5,90.5 C 26.593,94.37 21.093,97.0367 15,98.5C 14.586,98.0426 14.086,97.7093 13.5,97.5C 12.5481,99.0453 12.2148,100.712 12.5,102.5C 11.5,102.5 10.5,102.5 9.5,102.5C 9.16628,99.509 10.1663,97.1757 12.5,95.5C 12.8333,95.5 13.1667,95.5 13.5,95.5C 14.1667,95.1667 14.8333,94.8333 15.5,94.5C 19.2106,93.6557 22.8772,92.6557 26.5,91.5C 28.2161,91.3713 29.8828,91.038 31.5,90.5 Z"/></g>
<g><path style="opacity:1" fill="#0b0b15" d="M 112.5,87.5 C 112.5,88.5 112.5,89.5 112.5,90.5C 116.123,91.7263 119.623,93.393 123,95.5C 123.561,94.9781 124.228,94.6448 125,94.5C 129.645,95.616 134.145,96.9494 138.5,98.5C 138.286,100.144 138.62,101.644 139.5,103C 133.702,107.233 134.369,109.4 141.5,109.5C 140.617,113.954 141.95,117.454 145.5,120C 144.549,120.718 144.383,121.551 145,122.5C 145.77,121.402 146.603,121.402 147.5,122.5C 148.167,123.5 148.833,124.5 149.5,125.5C 149.5,133.5 149.5,141.5 149.5,149.5C 143.5,149.5 137.5,149.5 131.5,149.5C 131.614,146.15 131.947,142.817 132.5,139.5C 131.833,136.833 131.167,134.167 130.5,131.5C 131.333,127.514 131.499,123.514 131,119.5C 130.667,120.5 130.333,121.5 130,122.5C 129.333,123.833 128.667,123.833 128,122.5C 127.699,125.507 127.865,128.507 128.5,131.5C 125.552,131.777 122.719,131.444 120,130.5C 119.667,131.833 119.333,133.167 119,134.5C 117.667,135.167 116.667,136.167 116,137.5C 111.808,135.761 107.308,134.928 102.5,135C 102.587,132.463 102.587,129.963 102.5,127.5C 100.713,129.858 99.7134,132.525 99.5,135.5C 98.5,135.5 97.5,135.5 96.5,135.5C 96.6483,140.319 95.9816,144.985 94.5,149.5C 91.1667,149.5 87.8333,149.5 84.5,149.5C 83.9315,141.925 84.9315,134.925 87.5,128.5C 88.4841,125.572 88.8174,122.572 88.5,119.5C 89.5,119.5 90.5,119.5 91.5,119.5C 91.5,118.167 91.5,116.833 91.5,115.5C 92.8333,115.5 94.1667,115.5 95.5,115.5C 95.5,114.167 95.5,112.833 95.5,111.5C 100.315,112.037 104.982,112.037 109.5,111.5C 109.833,108.833 110.167,106.167 110.5,103.5C 108.29,102.417 106.123,102.417 104,103.5C 102.289,103.561 100.956,102.894 100,101.5C 98.8069,102.978 98.3069,104.312 98.5,105.5C 96.7598,104.164 95.0932,102.83 93.5,101.5C 94.6566,99.322 95.9899,97.322 97.5,95.5C 98.776,100.682 99.4427,100.682 99.5,95.5C 103.5,95.5 107.5,95.5 111.5,95.5C 111.5,94.5 111.5,93.5 111.5,92.5C 110.167,92.5 108.833,92.5 107.5,92.5C 107.963,89.7448 109.63,88.0781 112.5,87.5 Z"/></g>
<g><path style="opacity:1" fill="#d4d1d2" d="M 78.5,98.5 C 76.4166,100.856 73.75,102.522 70.5,103.5C 69.7022,105.078 69.2022,106.744 69,108.5C 67.6463,104.637 67.1463,100.637 67.5,96.5C 72.5917,96.5032 72.5917,95.6699 67.5,94C 69.1341,93.5065 70.8008,93.3398 72.5,93.5C 72.7352,94.0967 73.2352,94.4301 74,94.5C 75.8792,92.9872 78.0459,92.3205 80.5,92.5C 80.2964,94.6854 79.6298,96.6854 78.5,98.5 Z"/></g>
<g><path style="opacity:1" fill="#898989" d="M 93.5,82.5 C 93.5,84.8333 93.5,87.1667 93.5,89.5C 92.9603,93.6423 92.2937,97.6423 91.5,101.5C 91.2792,98.9028 90.7792,98.9028 90,101.5C 89.8333,101 89.6667,100.5 89.5,100C 91.0497,94.966 91.883,89.7994 92,84.5C 92.2784,83.5842 92.7784,82.9175 93.5,82.5 Z"/></g>
<g><path style="opacity:1" fill="#b2acab" d="M 92.5,72.5 C 93.1667,72.8333 93.8333,73.1667 94.5,73.5C 94.7359,76.6085 94.4025,79.6085 93.5,82.5C 92.7784,82.9175 92.2784,83.5842 92,84.5C 91.883,89.7994 91.0497,94.966 89.5,100C 89.6667,100.5 89.8333,101 90,101.5C 90.7792,98.9028 91.2792,98.9028 91.5,101.5C 91.5905,104.152 90.9238,106.485 89.5,108.5C 87.9867,106.484 87.1534,104.151 87,101.5C 85.003,102.672 83.1697,104.005 81.5,105.5C 80.8333,105.167 80.1667,104.833 79.5,104.5C 78.844,102.382 78.5107,100.382 78.5,98.5C 79.6298,96.6854 80.2964,94.6854 80.5,92.5C 78.0459,92.3205 75.8792,92.9872 74,94.5C 73.2352,94.4301 72.7352,94.0967 72.5,93.5C 76.5259,89.8051 80.5259,86.1384 84.5,82.5C 88.3002,80.0374 90.9668,76.704 92.5,72.5 Z"/></g>
<g><path style="opacity:1" fill="#cdccca" d="M 12.5,95.5 C 10.1663,97.1757 9.16628,99.509 9.5,102.5C 9.5,102.833 9.5,103.167 9.5,103.5C 6.17256,111.49 2.83923,119.49 -0.5,127.5C -0.5,120.5 -0.5,113.5 -0.5,106.5C 1.19545,104.268 2.36211,101.601 3,98.5C 5.8646,99.0406 7.8646,97.7073 9,94.5C 10.0113,95.3366 11.1779,95.67 12.5,95.5 Z"/></g>
<g><path style="opacity:1" fill="#0d0e13" d="M 111.5,86.5 C 111.833,86.5 112.167,86.5 112.5,86.5C 112.5,86.8333 112.5,87.1667 112.5,87.5C 109.63,88.0781 107.963,89.7448 107.5,92.5C 108.833,92.5 110.167,92.5 111.5,92.5C 111.5,93.5 111.5,94.5 111.5,95.5C 107.5,95.5 103.5,95.5 99.5,95.5C 99.4427,100.682 98.776,100.682 97.5,95.5C 95.9899,97.322 94.6566,99.322 93.5,101.5C 95.0932,102.83 96.7598,104.164 98.5,105.5C 98.3069,104.312 98.8069,102.978 100,101.5C 100.956,102.894 102.289,103.561 104,103.5C 106.123,102.417 108.29,102.417 110.5,103.5C 110.167,106.167 109.833,108.833 109.5,111.5C 104.982,112.037 100.315,112.037 95.5,111.5C 95.5,112.833 95.5,114.167 95.5,115.5C 94.1667,115.5 92.8333,115.5 91.5,115.5C 91.5,116.833 91.5,118.167 91.5,119.5C 90.5,119.5 89.5,119.5 88.5,119.5C 88.8174,122.572 88.4841,125.572 87.5,128.5C 84.9315,134.925 83.9315,141.925 84.5,149.5C 80.8333,149.5 77.1667,149.5 73.5,149.5C 80.2262,136.38 85.5595,122.714 89.5,108.5C 90.9238,106.485 91.5905,104.152 91.5,101.5C 92.2937,97.6423 92.9603,93.6423 93.5,89.5C 94.1577,88.6016 94.8243,87.6016 95.5,86.5C 96.2935,86.9312 97.1268,87.2645 98,87.5C 99.9834,86.0915 102.15,85.0915 104.5,84.5C 106.729,85.5771 109.063,86.2437 111.5,86.5 Z"/></g>
<g><path style="opacity:1" fill="#19191f" d="M 112.5,86.5 C 112.833,86.5 113.167,86.5 113.5,86.5C 117.818,89.3256 122.484,91.6589 127.5,93.5C 131.743,94.8244 136.076,96.1577 140.5,97.5C 141.167,97.5 141.5,97.8333 141.5,98.5C 143.155,103.286 143.988,108.286 144,113.5C 145.271,116.484 146.438,119.484 147.5,122.5C 146.603,121.402 145.77,121.402 145,122.5C 144.383,121.551 144.549,120.718 145.5,120C 141.95,117.454 140.617,113.954 141.5,109.5C 134.369,109.4 133.702,107.233 139.5,103C 138.62,101.644 138.286,100.144 138.5,98.5C 134.145,96.9494 129.645,95.616 125,94.5C 124.228,94.6448 123.561,94.9781 123,95.5C 119.623,93.393 116.123,91.7263 112.5,90.5C 112.5,89.5 112.5,88.5 112.5,87.5C 112.5,87.1667 112.5,86.8333 112.5,86.5 Z"/></g>
<g><path style="opacity:1" fill="#9e9d9f" d="M 60.5,103.5 C 60.3003,106.63 59.6336,109.63 58.5,112.5C 57.0085,108.736 56.0085,104.736 55.5,100.5C 55.5,97.5 55.5,94.5 55.5,91.5C 56.5377,94.4289 57.7043,97.4289 59,100.5C 59.3383,95.8211 60.6716,91.4877 63,87.5C 66.3609,91.7836 65.6942,95.4503 61,98.5C 60.5065,100.134 60.3398,101.801 60.5,103.5 Z"/></g>
<g><path style="opacity:1" fill="#a9a8a6" d="M 147.5,99.5 C 148.167,99.5 148.833,99.5 149.5,99.5C 149.5,108.167 149.5,116.833 149.5,125.5C 148.833,124.5 148.167,123.5 147.5,122.5C 146.438,119.484 145.271,116.484 144,113.5C 143.988,108.286 143.155,103.286 141.5,98.5C 143.017,98.4894 144.184,97.8228 145,96.5C 145.236,98.1193 146.069,99.1193 147.5,99.5 Z"/></g>
<g><path style="opacity:1" fill="#bcbabb" d="M 58.5,79.5 C 59.9061,82.4135 61.9061,84.9135 64.5,87C 68.2364,88.0121 70.9031,90.1788 72.5,93.5C 70.8008,93.3398 69.1341,93.5065 67.5,94C 72.5917,95.6699 72.5917,96.5032 67.5,96.5C 67.1463,100.637 67.6463,104.637 69,108.5C 69.2022,106.744 69.7022,105.078 70.5,103.5C 73.75,102.522 76.4166,100.856 78.5,98.5C 78.5107,100.382 78.844,102.382 79.5,104.5C 80.1667,104.833 80.8333,105.167 81.5,105.5C 83.1697,104.005 85.003,102.672 87,101.5C 87.1534,104.151 87.9867,106.484 89.5,108.5C 85.5595,122.714 80.2262,136.38 73.5,149.5C 71.8333,149.5 70.1667,149.5 68.5,149.5C 68.3713,147.784 68.038,146.117 67.5,144.5C 69.0744,144.937 70.2411,145.937 71,147.5C 71.4828,146.552 71.6495,145.552 71.5,144.5C 72.5,144.5 73.5,144.5 74.5,144.5C 76.303,132.229 76.803,119.895 76,107.5C 75.3333,106.167 74.6667,106.167 74,107.5C 73.7978,109.256 73.2978,110.922 72.5,112.5C 71.5224,112.023 70.6891,111.357 70,110.5C 67.6655,114.811 66.4988,119.478 66.5,124.5C 65.0695,124.421 63.7362,124.754 62.5,125.5C 61.7479,122.737 60.7479,120.07 59.5,117.5C 60.8149,115.024 62.4815,112.857 64.5,111C 63.3024,108.336 61.9691,105.836 60.5,103.5C 60.3398,101.801 60.5065,100.134 61,98.5C 65.6942,95.4503 66.3609,91.7836 63,87.5C 60.6716,91.4877 59.3383,95.8211 59,100.5C 57.7043,97.4289 56.5377,94.4289 55.5,91.5C 54.6576,86.213 54.3243,80.8797 54.5,75.5C 55.1174,75.3893 55.6174,75.056 56,74.5C 56.3736,76.4913 57.207,78.158 58.5,79.5 Z"/></g>
<g><path style="opacity:1" fill="#d9d7d8" d="M 67.5,144.5 C 66.0687,143.22 65.4021,141.553 65.5,139.5C 65.5029,134.473 65.8363,129.473 66.5,124.5C 66.4988,119.478 67.6655,114.811 70,110.5C 70.6891,111.357 71.5224,112.023 72.5,112.5C 73.2978,110.922 73.7978,109.256 74,107.5C 74.6667,106.167 75.3333,106.167 76,107.5C 76.803,119.895 76.303,132.229 74.5,144.5C 73.5,144.5 72.5,144.5 71.5,144.5C 71.6495,145.552 71.4828,146.552 71,147.5C 70.2411,145.937 69.0744,144.937 67.5,144.5 Z"/></g>
<g><path style="opacity:1" fill="#aeadb0" d="M 60.5,103.5 C 61.9691,105.836 63.3024,108.336 64.5,111C 62.4815,112.857 60.8149,115.024 59.5,117.5C 60.7479,120.07 61.7479,122.737 62.5,125.5C 63.7362,124.754 65.0695,124.421 66.5,124.5C 65.8363,129.473 65.5029,134.473 65.5,139.5C 61.4688,131.046 59.1355,122.046 58.5,112.5C 59.6336,109.63 60.3003,106.63 60.5,103.5 Z"/></g>
<g><path style="opacity:1" fill="#191922" d="M 9.5,103.5 C 9.53944,104.583 9.87277,105.583 10.5,106.5C 9.71089,112.115 9.21089,117.782 9,123.5C 8,122.167 7,122.167 6,123.5C 6.05261,126.656 4.88595,129.156 2.5,131C 3.61684,134.073 3.78351,137.24 3,140.5C 1.38383,142.713 0.217161,145.047 -0.5,147.5C -0.5,140.833 -0.5,134.167 -0.5,127.5C 2.83923,119.49 6.17256,111.49 9.5,103.5 Z"/></g>
<g><path style="opacity:1" fill="#06070f" d="M 131.5,149.5 C 119.167,149.5 106.833,149.5 94.5,149.5C 95.9816,144.985 96.6483,140.319 96.5,135.5C 97.5,135.5 98.5,135.5 99.5,135.5C 99.7134,132.525 100.713,129.858 102.5,127.5C 102.587,129.963 102.587,132.463 102.5,135C 107.308,134.928 111.808,135.761 116,137.5C 116.667,136.167 117.667,135.167 119,134.5C 119.333,133.167 119.667,131.833 120,130.5C 122.719,131.444 125.552,131.777 128.5,131.5C 127.865,128.507 127.699,125.507 128,122.5C 128.667,123.833 129.333,123.833 130,122.5C 130.333,121.5 130.667,120.5 131,119.5C 131.499,123.514 131.333,127.514 130.5,131.5C 131.167,134.167 131.833,136.833 132.5,139.5C 131.947,142.817 131.614,146.15 131.5,149.5 Z"/></g>
</svg>
