<?xml version="1.0" encoding="UTF-8"?>
<!DOCTYPE svg PUBLIC "-//W3C//DTD SVG 1.1//EN" "http://www.w3.org/Graphics/SVG/1.1/DTD/svg11.dtd">
<svg xmlns="http://www.w3.org/2000/svg" version="1.1" width="584px" height="427px" style="shape-rendering:geometricPrecision; text-rendering:geometricPrecision; image-rendering:optimizeQuality; fill-rule:evenodd; clip-rule:evenodd" xmlns:xlink="http://www.w3.org/1999/xlink">
<g><path style="opacity:0.957" fill="#81a1c7" d="M 212.5,72.5 C 203.5,72.5 194.5,72.5 185.5,72.5C 194.5,69.8333 203.5,69.8333 212.5,72.5 Z"/></g>
<g><path style="opacity:1" fill="#2a2a2a" d="M 376.5,72.5 C 379.909,73.9034 383.575,74.5701 387.5,74.5C 387.833,74.5 388.167,74.5 388.5,74.5C 389.78,75.9313 391.447,76.5979 393.5,76.5C 399.86,77.8485 405.527,80.5151 410.5,84.5C 410.973,85.9063 411.973,86.573 413.5,86.5C 418.794,90.1266 423.461,94.46 427.5,99.5C 428.08,101.749 429.413,103.415 431.5,104.5C 431.738,106.404 432.738,107.738 434.5,108.5C 434.427,110.027 435.094,111.027 436.5,111.5C 436.34,113.199 436.506,114.866 437,116.5C 438.923,118.805 440.756,121.138 442.5,123.5C 443.259,128.43 444.592,133.097 446.5,137.5C 446.5,137.833 446.5,138.167 446.5,138.5C 447.54,148.155 447.54,157.822 446.5,167.5C 445.232,169.905 444.565,172.572 444.5,175.5C 444.59,178.152 443.924,180.485 442.5,182.5C 441.167,183.167 440.167,184.167 439.5,185.5C 434.169,188.666 428.503,190.999 422.5,192.5C 418.838,192.723 415.505,193.723 412.5,195.5C 412.167,195.5 411.833,195.5 411.5,195.5C 403.5,195.5 395.5,195.5 387.5,195.5C 386.833,195.5 386.167,195.5 385.5,195.5C 382.495,193.723 379.162,192.723 375.5,192.5C 375.167,192.5 374.833,192.5 374.5,192.5C 374.167,191.833 373.833,191.167 373.5,190.5C 376.672,190.072 379.672,189.905 382.5,190C 383.973,189.29 384.64,188.124 384.5,186.5C 386.027,186.573 387.027,185.906 387.5,184.5C 389.607,182.273 391.94,180.273 394.5,178.5C 395.906,178.027 396.573,177.027 396.5,175.5C 397.906,175.027 398.573,174.027 398.5,172.5C 399.227,170.046 400.227,167.713 401.5,165.5C 403.223,163.22 403.889,160.553 403.5,157.5C 403.5,154.833 403.5,152.167 403.5,149.5C 403.889,146.447 403.223,143.78 401.5,141.5C 400.463,140.07 399.796,138.403 399.5,136.5C 399.715,134.821 399.048,133.821 397.5,133.5C 396.599,132.71 395.932,131.71 395.5,130.5C 394.167,127.167 391.833,124.833 388.5,123.5C 387.29,123.068 386.29,122.401 385.5,121.5C 385.027,120.094 384.027,119.427 382.5,119.5C 379.072,118.49 375.739,117.49 372.5,116.5C 370.359,115.837 368.025,115.503 365.5,115.5C 361.859,115.315 358.526,115.981 355.5,117.5C 355.167,117.5 354.833,117.5 354.5,117.5C 352.447,117.402 350.78,118.069 349.5,119.5C 346.737,121.08 344.07,122.913 341.5,125C 334.298,132.369 326.965,139.536 319.5,146.5C 317.784,146.371 316.117,146.038 314.5,145.5C 314.5,143.5 313.5,142.5 311.5,142.5C 311.262,140.596 310.262,139.262 308.5,138.5C 308.167,137.5 307.5,136.833 306.5,136.5C 306.167,135.5 305.5,134.833 304.5,134.5C 299.833,130.5 295.5,126.167 291.5,121.5C 290.952,119.606 289.952,117.94 288.5,116.5C 289.952,115.06 290.952,113.394 291.5,111.5C 294.167,110.833 295.833,109.167 296.5,106.5C 302.442,102.227 307.776,97.2269 312.5,91.5C 314.749,90.9202 316.415,89.5869 317.5,87.5C 319.404,87.2624 320.738,86.2624 321.5,84.5C 323.027,84.573 324.027,83.9063 324.5,82.5C 324.842,81.6618 325.508,81.3284 326.5,81.5C 328.967,81.2451 330.967,80.2451 332.5,78.5C 336.533,77.9751 340.2,76.6418 343.5,74.5C 343.833,74.5 344.167,74.5 344.5,74.5C 347.727,74.3239 350.727,73.6572 353.5,72.5C 361.265,71.188 368.932,71.188 376.5,72.5 Z"/></g>
<g><path style="opacity:0.675" fill="#a5bcdc" d="M 183.5,72.5 C 180.201,74.4835 176.534,75.4835 172.5,75.5C 175.907,73.9257 179.573,72.9257 183.5,72.5 Z"/></g>
<g><path style="opacity:1" fill="#3e73af" d="M 183.5,72.5 C 184.167,72.5 184.833,72.5 185.5,72.5C 194.5,72.5 203.5,72.5 212.5,72.5C 212.833,72.5 213.167,72.5 213.5,72.5C 215.076,73.1429 216.41,74.1429 217.5,75.5C 210.117,78.1457 204.283,82.8124 200,89.5C 199.505,91.4727 199.338,93.4727 199.5,95.5C 197.897,95.3118 196.563,95.8118 195.5,97C 197.715,98.0438 200.048,98.7105 202.5,99C 199.798,99.6066 197.132,99.4399 194.5,98.5C 192.601,99.7286 190.601,100.895 188.5,102C 184.833,102.667 181.167,102.667 177.5,102C 176.584,101.722 175.918,101.222 175.5,100.5C 175.577,99.2502 176.244,98.4169 177.5,98C 175.608,97.0266 173.608,96.3599 171.5,96C 174.668,95.4177 175.001,94.4177 172.5,93C 176.403,92.2476 177.403,90.0809 175.5,86.5C 176.752,84.9991 177.752,83.3325 178.5,81.5C 177.675,80.6143 176.675,80.281 175.5,80.5C 175.762,79.0222 175.429,77.6888 174.5,76.5C 171.249,76.9526 168.915,78.6193 167.5,81.5C 164.328,83.2519 161.328,85.2519 158.5,87.5C 156.253,86.6258 153.92,86.2924 151.5,86.5C 157.735,81.5476 164.735,77.8809 172.5,75.5C 176.534,75.4835 180.201,74.4835 183.5,72.5 Z"/></g>
<g><path style="opacity:0.663" fill="#a4a4a4" d="M 353.5,72.5 C 350.727,73.6572 347.727,74.3239 344.5,74.5C 347.171,72.8819 350.171,72.2153 353.5,72.5 Z"/></g>
<g><path style="opacity:0.373" fill="#a7a7a7" d="M 376.5,72.5 C 380.458,72.2511 384.124,72.9177 387.5,74.5C 383.575,74.5701 379.909,73.9034 376.5,72.5 Z"/></g>
<g><path style="opacity:1" fill="#89a7ca" d="M 213.5,72.5 C 217.162,72.7234 220.495,73.7234 223.5,75.5C 221.309,76.2907 219.309,76.2907 217.5,75.5C 216.41,74.1429 215.076,73.1429 213.5,72.5 Z"/></g>
<g><path style="opacity:0.4" fill="#bababa" d="M 388.5,74.5 C 390.553,74.4021 392.22,75.0687 393.5,76.5C 391.447,76.5979 389.78,75.9313 388.5,74.5 Z"/></g>
<g><path style="opacity:1" fill="#457cb3" d="M 217.5,75.5 C 219.309,76.2907 221.309,76.2907 223.5,75.5C 225.553,75.4021 227.22,76.0687 228.5,77.5C 230.379,83.14 234.379,86.4733 240.5,87.5C 238.865,88.6808 237.198,88.6808 235.5,87.5C 235.167,88.3333 234.833,89.1667 234.5,90C 235.378,91.8001 236.045,93.6334 236.5,95.5C 232.065,96.2739 227.732,96.6072 223.5,96.5C 223.827,101.214 223.493,105.88 222.5,110.5C 221.295,112.138 219.962,112.471 218.5,111.5C 217.571,112.689 217.238,114.022 217.5,115.5C 213.193,114.342 208.859,113.009 204.5,111.5C 203.833,111.5 203.167,111.5 202.5,111.5C 186.387,103.745 169.387,100.745 151.5,102.5C 152.952,101.698 154.618,101.198 156.5,101C 162.825,100.5 169.158,100.334 175.5,100.5C 175.918,101.222 176.584,101.722 177.5,102C 181.167,102.667 184.833,102.667 188.5,102C 190.601,100.895 192.601,99.7286 194.5,98.5C 197.132,99.4399 199.798,99.6066 202.5,99C 200.048,98.7105 197.715,98.0438 195.5,97C 196.563,95.8118 197.897,95.3118 199.5,95.5C 199.338,93.4727 199.505,91.4727 200,89.5C 204.283,82.8124 210.117,78.1457 217.5,75.5 Z"/></g>
<g><path style="opacity:0.827" fill="#7f7f7f" d="M 343.5,74.5 C 340.2,76.6418 336.533,77.9751 332.5,78.5C 335.797,76.3987 339.463,75.0653 343.5,74.5 Z"/></g>
<g><path style="opacity:0.592" fill="#959595" d="M 332.5,78.5 C 330.967,80.2451 328.967,81.2451 326.5,81.5C 328.033,79.7549 330.033,78.7549 332.5,78.5 Z"/></g>
<g><path style="opacity:1" fill="#3e6fae" d="M 175.5,100.5 C 169.158,100.334 162.825,100.5 156.5,101C 154.618,101.198 152.952,101.698 151.5,102.5C 149.565,103.15 147.565,103.483 145.5,103.5C 141.25,102.919 137.584,103.919 134.5,106.5C 133.127,106.657 131.793,106.49 130.5,106C 133.118,103.894 135.118,101.394 136.5,98.5C 138.749,97.9202 140.415,96.5869 141.5,94.5C 144.095,90.8743 147.428,88.2076 151.5,86.5C 153.92,86.2924 156.253,86.6258 158.5,87.5C 161.328,85.2519 164.328,83.2519 167.5,81.5C 168.915,78.6193 171.249,76.9526 174.5,76.5C 175.429,77.6888 175.762,79.0222 175.5,80.5C 176.675,80.281 177.675,80.6143 178.5,81.5C 177.752,83.3325 176.752,84.9991 175.5,86.5C 177.403,90.0809 176.403,92.2476 172.5,93C 175.001,94.4177 174.668,95.4177 171.5,96C 173.608,96.3599 175.608,97.0266 177.5,98C 176.244,98.4169 175.577,99.2502 175.5,100.5 Z"/></g>
<g><path style="opacity:0.678" fill="#a0a0a0" d="M 324.5,82.5 C 324.027,83.9063 323.027,84.573 321.5,84.5C 321.973,83.0937 322.973,82.427 324.5,82.5 Z"/></g>
<g><path style="opacity:0.663" fill="#8e8e8e" d="M 321.5,84.5 C 320.738,86.2624 319.404,87.2624 317.5,87.5C 318.262,85.7376 319.596,84.7376 321.5,84.5 Z"/></g>
<g><path style="opacity:0.071" fill="#d0d0d0" d="M 410.5,84.5 C 412.027,84.427 413.027,85.0937 413.5,86.5C 411.973,86.573 410.973,85.9063 410.5,84.5 Z"/></g>
<g><path style="opacity:1" fill="#4380b3" d="M 228.5,77.5 C 234.637,79.6541 239.97,82.9874 244.5,87.5C 246.319,89.4716 247.319,91.8049 247.5,94.5C 248.5,94.5 249.5,94.5 250.5,94.5C 251.333,96.7522 251.333,98.9189 250.5,101C 251.563,102.188 252.897,102.688 254.5,102.5C 255.16,106.139 256.494,109.472 258.5,112.5C 256.876,112.64 255.71,111.973 255,110.5C 253.333,111.167 251.667,111.833 250,112.5C 249.667,112.167 249.333,111.833 249,111.5C 246.942,116.496 244.775,121.496 242.5,126.5C 239.677,127.633 239.01,129.467 240.5,132C 236.391,139.637 235.058,139.137 236.5,130.5C 235.5,130.5 234.5,130.5 233.5,130.5C 233.719,131.675 233.386,132.675 232.5,133.5C 230.925,132.544 229.258,131.877 227.5,131.5C 220.433,125.092 213.099,119.092 205.5,113.5C 205.167,112.833 204.833,112.167 204.5,111.5C 208.859,113.009 213.193,114.342 217.5,115.5C 217.238,114.022 217.571,112.689 218.5,111.5C 219.962,112.471 221.295,112.138 222.5,110.5C 223.493,105.88 223.827,101.214 223.5,96.5C 227.732,96.6072 232.065,96.2739 236.5,95.5C 236.045,93.6334 235.378,91.8001 234.5,90C 234.833,89.1667 235.167,88.3333 235.5,87.5C 237.198,88.6808 238.865,88.6808 240.5,87.5C 234.379,86.4733 230.379,83.14 228.5,77.5 Z"/></g>
<g><path style="opacity:0.886" fill="#7a7a7a" d="M 317.5,87.5 C 316.415,89.5869 314.749,90.9202 312.5,91.5C 313.585,89.4131 315.251,88.0798 317.5,87.5 Z"/></g>
<g><path style="opacity:0.659" fill="#a2b5d5" d="M 141.5,94.5 C 140.415,96.5869 138.749,97.9202 136.5,98.5C 137.585,96.4131 139.251,95.0798 141.5,94.5 Z"/></g>
<g><path style="opacity:0.698" fill="#989898" d="M 312.5,91.5 C 307.776,97.2269 302.442,102.227 296.5,106.5C 301.224,100.773 306.558,95.7731 312.5,91.5 Z"/></g>
<g><path style="opacity:0.573" fill="#a4a4a4" d="M 427.5,99.5 C 429.587,100.585 430.92,102.251 431.5,104.5C 429.413,103.415 428.08,101.749 427.5,99.5 Z"/></g>
<g><path style="opacity:1" fill="#8da3c9" d="M 145.5,103.5 C 141.989,104.664 138.323,105.664 134.5,106.5C 137.584,103.919 141.25,102.919 145.5,103.5 Z"/></g>
<g><path style="opacity:0.671" fill="#a0b3cf" d="M 136.5,98.5 C 135.118,101.394 133.118,103.894 130.5,106C 131.793,106.49 133.127,106.657 134.5,106.5C 132.692,108.105 130.692,108.439 128.5,107.5C 130.475,103.86 133.142,100.86 136.5,98.5 Z"/></g>
<g><path style="opacity:0.792" fill="#9c9c9c" d="M 431.5,104.5 C 433.262,105.262 434.262,106.596 434.5,108.5C 432.738,107.738 431.738,106.404 431.5,104.5 Z"/></g>
<g><path style="opacity:0.753" fill="#8e8e8e" d="M 296.5,106.5 C 295.833,109.167 294.167,110.833 291.5,111.5C 292.833,109.5 294.5,107.833 296.5,106.5 Z"/></g>
<g><path style="opacity:1" fill="#4386b4" d="M 244.5,87.5 C 255.137,95.8033 264.804,105.137 273.5,115.5C 274.102,117.338 274.435,119.171 274.5,121C 268.777,127.452 269.61,128.619 277,124.5C 278.395,124.78 279.562,125.447 280.5,126.5C 278.658,127.842 277.158,129.509 276,131.5C 274.826,129.329 272.993,128.329 270.5,128.5C 270.5,129.5 270.5,130.5 270.5,131.5C 264.333,134.174 260.499,138.841 259,145.5C 258.167,146.333 257.333,147.167 256.5,148C 253.927,148.428 251.594,148.094 249.5,147C 251.661,148.764 251.828,150.597 250,152.5C 249.082,150.624 247.582,149.624 245.5,149.5C 239.167,143.833 233.167,137.833 227.5,131.5C 229.258,131.877 230.925,132.544 232.5,133.5C 233.386,132.675 233.719,131.675 233.5,130.5C 234.5,130.5 235.5,130.5 236.5,130.5C 235.058,139.137 236.391,139.637 240.5,132C 239.01,129.467 239.677,127.633 242.5,126.5C 244.775,121.496 246.942,116.496 249,111.5C 249.333,111.833 249.667,112.167 250,112.5C 251.667,111.833 253.333,111.167 255,110.5C 255.71,111.973 256.876,112.64 258.5,112.5C 256.494,109.472 255.16,106.139 254.5,102.5C 252.897,102.688 251.563,102.188 250.5,101C 251.333,98.9189 251.333,96.7522 250.5,94.5C 249.5,94.5 248.5,94.5 247.5,94.5C 247.319,91.8049 246.319,89.4716 244.5,87.5 Z"/></g>
<g><path style="opacity:0.353" fill="#b8b8b8" d="M 434.5,108.5 C 435.906,108.973 436.573,109.973 436.5,111.5C 435.094,111.027 434.427,110.027 434.5,108.5 Z"/></g>
<g><path style="opacity:1" fill="#2b2b2b" d="M 179.5,112.5 C 181.438,114.163 183.772,114.829 186.5,114.5C 186.918,115.222 187.584,115.722 188.5,116C 185.833,116.333 183.167,116.667 180.5,117C 181.598,117.77 181.598,118.603 180.5,119.5C 170.241,124.709 163.241,132.709 159.5,143.5C 157.994,146.356 157.328,149.523 157.5,153C 157.328,156.477 157.994,159.644 159.5,162.5C 159.5,162.833 159.5,163.167 159.5,163.5C 159.12,165.698 159.787,167.365 161.5,168.5C 161.5,168.833 161.5,169.167 161.5,169.5C 161.427,171.027 162.094,172.027 163.5,172.5C 164.338,172.842 164.672,173.508 164.5,174.5C 164.427,176.027 165.094,177.027 166.5,177.5C 168.5,178.833 170.167,180.5 171.5,182.5C 171.973,183.906 172.973,184.573 174.5,184.5C 174.821,186.048 175.821,186.715 177.5,186.5C 179.819,186.992 181.819,187.992 183.5,189.5C 187.034,191.048 190.867,191.714 195,191.5C 198.021,191.498 200.854,191.164 203.5,190.5C 204.568,189.566 205.901,189.232 207.5,189.5C 209.698,189.88 211.365,189.213 212.5,187.5C 212.842,186.662 213.508,186.328 214.5,186.5C 216.027,186.573 217.027,185.906 217.5,184.5C 219.027,184.573 220.027,183.906 220.5,182.5C 223.167,181.833 224.833,180.167 225.5,177.5C 229.833,172.5 234.5,167.833 239.5,163.5C 241.167,162.833 242.833,162.167 244.5,161.5C 254.167,170.5 263.5,179.833 272.5,189.5C 273.11,190.391 273.443,191.391 273.5,192.5C 272.5,194.167 271.167,195.5 269.5,196.5C 267.958,195.699 266.292,195.366 264.5,195.5C 264.5,197.5 264.5,199.5 264.5,201.5C 257.69,209.984 249.69,216.984 240.5,222.5C 238.973,222.427 237.973,223.094 237.5,224.5C 231.8,228.512 225.467,231.179 218.5,232.5C 215.572,232.565 212.905,233.232 210.5,234.5C 199.334,237.205 188.334,236.871 177.5,233.5C 173.767,231.589 169.767,230.256 165.5,229.5C 161.418,228.624 157.751,226.957 154.5,224.5C 154.027,223.094 153.027,222.427 151.5,222.5C 151.027,221.094 150.027,220.427 148.5,220.5C 147.415,218.413 145.749,217.08 143.5,216.5C 142.415,214.413 140.749,213.08 138.5,212.5C 136.833,211.5 135.5,210.167 134.5,208.5C 134.262,206.596 133.262,205.262 131.5,204.5C 130.833,204.5 130.5,204.167 130.5,203.5C 130.446,201.368 129.446,200.035 127.5,199.5C 127.715,197.821 127.048,196.821 125.5,196.5C 120.949,189.857 117.949,182.524 116.5,174.5C 116.58,171.219 115.913,168.219 114.5,165.5C 113.011,155.652 113.344,145.985 115.5,136.5C 117.277,133.495 118.277,130.162 118.5,126.5C 118.628,124.91 119.295,123.577 120.5,122.5C 125.621,119.605 130.954,117.271 136.5,115.5C 141.706,114.536 146.706,113.203 151.5,111.5C 154.817,110.835 158.317,110.501 162,110.5C 168.067,110.39 173.9,111.057 179.5,112.5 Z"/></g>
<g><path style="opacity:0.286" fill="#c4d9ed" d="M 202.5,111.5 C 203.167,111.5 203.833,111.5 204.5,111.5C 204.833,112.167 205.167,112.833 205.5,113.5C 203.973,113.573 202.973,112.906 202.5,111.5 Z"/></g>
<g><path style="opacity:0.722" fill="#919191" d="M 179.5,112.5 C 182.067,112.721 184.401,113.388 186.5,114.5C 183.772,114.829 181.438,114.163 179.5,112.5 Z"/></g>
<g><path style="opacity:0.855" fill="#939393" d="M 151.5,111.5 C 146.706,113.203 141.706,114.536 136.5,115.5C 141.089,112.976 146.089,111.642 151.5,111.5 Z"/></g>
<g><path style="opacity:1" fill="#777777" d="M 436.5,111.5 C 439.535,114.902 441.535,118.902 442.5,123.5C 440.756,121.138 438.923,118.805 437,116.5C 436.506,114.866 436.34,113.199 436.5,111.5 Z"/></g>
<g><path style="opacity:0.729" fill="#a0a09f" d="M 291.5,111.5 C 290.952,113.394 289.952,115.06 288.5,116.5C 289.952,117.94 290.952,119.606 291.5,121.5C 289.521,120.188 287.855,118.521 286.5,116.5C 287.855,114.479 289.521,112.812 291.5,111.5 Z"/></g>
<g><path style="opacity:0.199" fill="#c6c6c6" d="M 372.5,116.5 C 366.797,116.375 361.13,116.708 355.5,117.5C 358.526,115.981 361.859,115.315 365.5,115.5C 368.025,115.503 370.359,115.837 372.5,116.5 Z"/></g>
<g><path style="opacity:1" fill="#868686" d="M 186.5,114.5 C 187.5,114.5 188.5,114.5 189.5,114.5C 189.5,115.5 189.5,116.5 189.5,117.5C 186.308,117.405 183.308,118.071 180.5,119.5C 181.598,118.603 181.598,117.77 180.5,117C 183.167,116.667 185.833,116.333 188.5,116C 187.584,115.722 186.918,115.222 186.5,114.5 Z"/></g>
<g><path style="opacity:0.757" fill="#b5d4e3" d="M 275.5,117.5 C 280.562,121.559 284.895,126.226 288.5,131.5C 283.438,127.441 279.105,122.774 275.5,117.5 Z"/></g>
<g><path style="opacity:0.133" fill="#c8c8c8" d="M 354.5,117.5 C 353.22,118.931 351.553,119.598 349.5,119.5C 350.78,118.069 352.447,117.402 354.5,117.5 Z"/></g>
<g><path style="opacity:0.286" fill="#bcbcbc" d="M 382.5,119.5 C 384.027,119.427 385.027,120.094 385.5,121.5C 383.973,121.573 382.973,120.906 382.5,119.5 Z"/></g>
<g><path style="opacity:0.678" fill="#b8b8b8" d="M 388.5,123.5 C 391.833,124.833 394.167,127.167 395.5,130.5C 392.833,128.5 390.5,126.167 388.5,123.5 Z"/></g>
<g><path style="opacity:0.882" fill="#9b9b9b" d="M 442.5,123.5 C 444.816,127.794 446.15,132.46 446.5,137.5C 444.592,133.097 443.259,128.43 442.5,123.5 Z"/></g>
<g><path style="opacity:1" fill="#458cb7" d="M 273.5,115.5 C 274.5,115.833 275.167,116.5 275.5,117.5C 279.105,122.774 283.438,127.441 288.5,131.5C 291.167,133.5 293.5,135.833 295.5,138.5C 295.5,140.167 295.5,141.833 295.5,143.5C 293.549,143.773 292.049,143.107 291,141.5C 289.491,144.329 289.325,147.162 290.5,150C 289.234,150.309 288.067,150.809 287,151.5C 287.988,153.92 287.655,156.253 286,158.5C 283.959,159.423 281.792,159.756 279.5,159.5C 279.666,164.511 279.499,169.511 279,174.5C 278.196,175.804 277.029,176.471 275.5,176.5C 273.711,175.037 271.711,174.037 269.5,173.5C 261.167,165.833 253.167,157.833 245.5,149.5C 247.582,149.624 249.082,150.624 250,152.5C 251.828,150.597 251.661,148.764 249.5,147C 251.594,148.094 253.927,148.428 256.5,148C 257.333,147.167 258.167,146.333 259,145.5C 260.499,138.841 264.333,134.174 270.5,131.5C 270.5,130.5 270.5,129.5 270.5,128.5C 272.993,128.329 274.826,129.329 276,131.5C 277.158,129.509 278.658,127.842 280.5,126.5C 279.562,125.447 278.395,124.78 277,124.5C 269.61,128.619 268.777,127.452 274.5,121C 274.435,119.171 274.102,117.338 273.5,115.5 Z"/></g>
<g><path style="opacity:0.902" fill="#939393" d="M 118.5,126.5 C 118.277,130.162 117.277,133.495 115.5,136.5C 115.59,132.786 116.59,129.452 118.5,126.5 Z"/></g>
<g><path style="opacity:0.871" fill="#959595" d="M 397.5,133.5 C 399.048,133.821 399.715,134.821 399.5,136.5C 398.599,135.71 397.932,134.71 397.5,133.5 Z"/></g>
<g><path style="opacity:0.004" fill="#d0d0d0" d="M 304.5,134.5 C 305.5,134.833 306.167,135.5 306.5,136.5C 305.167,136.5 304.5,135.833 304.5,134.5 Z"/></g>
<g><path style="opacity:0.016" fill="#cccccc" d="M 306.5,136.5 C 307.5,136.833 308.167,137.5 308.5,138.5C 307.167,138.5 306.5,137.833 306.5,136.5 Z"/></g>
<g><path style="opacity:0.016" fill="#cecece" d="M 308.5,138.5 C 310.262,139.262 311.262,140.596 311.5,142.5C 309.738,141.738 308.738,140.404 308.5,138.5 Z"/></g>
<g><path style="opacity:0.573" fill="#b5bcba" d="M 311.5,142.5 C 313.5,142.5 314.5,143.5 314.5,145.5C 313.167,144.833 312.167,143.833 311.5,142.5 Z"/></g>
<g><path style="opacity:0.808" fill="#929494" d="M 314.5,145.5 C 316.117,146.038 317.784,146.371 319.5,146.5C 317.543,149.059 315.877,148.726 314.5,145.5 Z"/></g>
<g><path style="opacity:0.024" fill="#cbcbcb" d="M 401.5,141.5 C 403.223,143.78 403.889,146.447 403.5,149.5C 402.469,147.039 401.802,144.373 401.5,141.5 Z"/></g>
<g><path style="opacity:0.424" fill="#aaaaaa" d="M 159.5,143.5 C 158.232,149.839 158.232,156.172 159.5,162.5C 157.994,159.644 157.328,156.477 157.5,153C 157.328,149.523 157.994,146.356 159.5,143.5 Z"/></g>
<g><path style="opacity:0.188" fill="#b7b7b7" d="M 446.5,138.5 C 449.126,148.171 449.126,157.838 446.5,167.5C 447.54,157.822 447.54,148.155 446.5,138.5 Z"/></g>
<g><path style="opacity:0.427" fill="#bababa" d="M 403.5,157.5 C 403.889,160.553 403.223,163.22 401.5,165.5C 401.802,162.627 402.469,159.961 403.5,157.5 Z"/></g>
<g><path style="opacity:0.824" fill="#858585" d="M 244.5,161.5 C 242.833,162.167 241.167,162.833 239.5,163.5C 240.458,162.038 241.624,160.705 243,159.5C 243.717,160.044 244.217,160.711 244.5,161.5 Z"/></g>
<g><path style="opacity:0.78" fill="#9c9c9c" d="M 159.5,163.5 C 160.537,164.93 161.204,166.597 161.5,168.5C 159.787,167.365 159.12,165.698 159.5,163.5 Z"/></g>
<g><path style="opacity:0.086" fill="#c5c5c5" d="M 446.5,167.5 C 446.706,170.495 446.04,173.162 444.5,175.5C 444.565,172.572 445.232,169.905 446.5,167.5 Z"/></g>
<g><path style="opacity:0.298" fill="#bcbcbc" d="M 161.5,169.5 C 162.906,169.973 163.573,170.973 163.5,172.5C 162.094,172.027 161.427,171.027 161.5,169.5 Z"/></g>
<g><path style="opacity:0.239" fill="#bbbbbb" d="M 114.5,165.5 C 115.913,168.219 116.58,171.219 116.5,174.5C 115.087,171.781 114.42,168.781 114.5,165.5 Z"/></g>
<g><path style="opacity:1" fill="#4796ba" d="M 295.5,138.5 C 304.833,147.167 313.833,156.167 322.5,165.5C 323.974,167.979 324.974,170.646 325.5,173.5C 326.833,173.5 328.167,173.5 329.5,173.5C 329.892,176.146 329.892,178.646 329.5,181C 332.131,181.107 334.631,181.273 337,181.5C 337.428,184.073 337.094,186.406 336,188.5C 336.333,188.833 336.667,189.167 337,189.5C 337.667,188.167 338.333,186.833 339,185.5C 339.903,186.701 341.069,187.535 342.5,188C 340.639,189.073 338.806,190.24 337,191.5C 335.147,189.813 332.981,188.813 330.5,188.5C 328.078,188.257 326.412,189.257 325.5,191.5C 323.889,190.68 323.222,189.346 323.5,187.5C 319.324,186.831 317.991,188.331 319.5,192C 320.793,192.49 322.127,192.657 323.5,192.5C 323.666,196.846 323.499,201.179 323,205.5C 321.209,207.029 319.542,208.696 318,210.5C 317.691,209.234 317.191,208.067 316.5,207C 313.232,206.977 309.899,207.143 306.5,207.5C 304.925,206.544 303.258,205.877 301.5,205.5C 290.5,195.167 279.833,184.5 269.5,173.5C 271.711,174.037 273.711,175.037 275.5,176.5C 277.029,176.471 278.196,175.804 279,174.5C 279.499,169.511 279.666,164.511 279.5,159.5C 281.792,159.756 283.959,159.423 286,158.5C 287.655,156.253 287.988,153.92 287,151.5C 288.067,150.809 289.234,150.309 290.5,150C 289.325,147.162 289.491,144.329 291,141.5C 292.049,143.107 293.549,143.773 295.5,143.5C 295.5,141.833 295.5,140.167 295.5,138.5 Z"/></g>
<g><path style="opacity:0.271" fill="#cacaca" d="M 398.5,172.5 C 398.573,174.027 397.906,175.027 396.5,175.5C 396.427,173.973 397.094,172.973 398.5,172.5 Z"/></g>
<g><path style="opacity:0.494" fill="#a4a4a4" d="M 164.5,174.5 C 165.906,174.973 166.573,175.973 166.5,177.5C 165.094,177.027 164.427,176.027 164.5,174.5 Z"/></g>
<g><path style="opacity:0.6" fill="#b5b5b5" d="M 396.5,175.5 C 396.573,177.027 395.906,178.027 394.5,178.5C 394.427,176.973 395.094,175.973 396.5,175.5 Z"/></g>
<g><path style="opacity:0.855" fill="#7a7a7a" d="M 225.5,177.5 C 224.833,180.167 223.167,181.833 220.5,182.5C 221.833,180.5 223.5,178.833 225.5,177.5 Z"/></g>
<g><path style="opacity:0.004" fill="#d6d6d6" d="M 171.5,182.5 C 173.027,182.427 174.027,183.094 174.5,184.5C 172.973,184.573 171.973,183.906 171.5,182.5 Z"/></g>
<g><path style="opacity:0.596" fill="#a9a9a9" d="M 220.5,182.5 C 220.027,183.906 219.027,184.573 217.5,184.5C 217.973,183.094 218.973,182.427 220.5,182.5 Z"/></g>
<g><path style="opacity:0.008" fill="#dbdbdb" d="M 442.5,182.5 C 442.5,184.5 441.5,185.5 439.5,185.5C 440.167,184.167 441.167,183.167 442.5,182.5 Z"/></g>
<g><path style="opacity:0.91" fill="#8b8b8b" d="M 174.5,184.5 C 175.71,184.932 176.71,185.599 177.5,186.5C 175.821,186.715 174.821,186.048 174.5,184.5 Z"/></g>
<g><path style="opacity:0.616" fill="#aaaaaa" d="M 217.5,184.5 C 217.027,185.906 216.027,186.573 214.5,186.5C 214.973,185.094 215.973,184.427 217.5,184.5 Z"/></g>
<g><path style="opacity:0.671" fill="#9e9e9e" d="M 387.5,184.5 C 387.027,185.906 386.027,186.573 384.5,186.5C 384.973,185.094 385.973,184.427 387.5,184.5 Z"/></g>
<g><path style="opacity:1" fill="#555555" d="M 384.5,186.5 C 384.64,188.124 383.973,189.29 382.5,190C 379.672,189.905 376.672,190.072 373.5,190.5C 376.982,188.938 380.648,187.605 384.5,186.5 Z"/></g>
<g><path style="opacity:0.855" fill="#8f8f8f" d="M 212.5,187.5 C 211.365,189.213 209.698,189.88 207.5,189.5C 208.93,188.463 210.597,187.796 212.5,187.5 Z"/></g>
<g><path style="opacity:0.008" fill="#e6e6e6" d="M 272.5,189.5 C 274.552,190.053 274.885,191.053 273.5,192.5C 273.443,191.391 273.11,190.391 272.5,189.5 Z"/></g>
<g><path style="opacity:0.092" fill="#c4c4c4" d="M 183.5,189.5 C 190.137,190.276 196.804,190.609 203.5,190.5C 200.854,191.164 198.021,191.498 195,191.5C 190.867,191.714 187.034,191.048 183.5,189.5 Z"/></g>
<g><path style="opacity:1" fill="#4ca0bc" d="M 322.5,165.5 C 331.192,173.195 339.859,180.862 348.5,188.5C 351.751,192.298 355.418,195.798 359.5,199C 360.448,199.483 361.448,199.649 362.5,199.5C 362.66,201.199 362.494,202.866 362,204.5C 358.71,203.128 355.544,203.462 352.5,205.5C 352.167,205.167 351.833,204.833 351.5,204.5C 353.978,203.278 354.978,201.278 354.5,198.5C 353.167,198.5 351.833,198.5 350.5,198.5C 349.988,204.368 348.654,210.035 346.5,215.5C 345.5,215.5 344.5,215.5 343.5,215.5C 343.306,218.33 342.639,220.996 341.5,223.5C 336.5,224.5 334.5,222.5 335.5,217.5C 334.5,217.5 333.5,217.5 332.5,217.5C 332.549,220.099 333.549,222.266 335.5,224C 334.115,225.649 332.449,226.816 330.5,227.5C 319.125,222.463 309.458,215.13 301.5,205.5C 303.258,205.877 304.925,206.544 306.5,207.5C 309.899,207.143 313.232,206.977 316.5,207C 317.191,208.067 317.691,209.234 318,210.5C 319.542,208.696 321.209,207.029 323,205.5C 323.499,201.179 323.666,196.846 323.5,192.5C 322.127,192.657 320.793,192.49 319.5,192C 317.991,188.331 319.324,186.831 323.5,187.5C 323.222,189.346 323.889,190.68 325.5,191.5C 326.412,189.257 328.078,188.257 330.5,188.5C 332.981,188.813 335.147,189.813 337,191.5C 338.806,190.24 340.639,189.073 342.5,188C 341.069,187.535 339.903,186.701 339,185.5C 338.333,186.833 337.667,188.167 337,189.5C 336.667,189.167 336.333,188.833 336,188.5C 337.094,186.406 337.428,184.073 337,181.5C 334.631,181.273 332.131,181.107 329.5,181C 329.892,178.646 329.892,176.146 329.5,173.5C 328.167,173.5 326.833,173.5 325.5,173.5C 324.974,170.646 323.974,167.979 322.5,165.5 Z"/></g>
<g><path style="opacity:0.071" fill="#d5d6d9" d="M 373.5,190.5 C 373.833,191.167 374.167,191.833 374.5,192.5C 372.576,192.289 372.243,191.623 373.5,190.5 Z"/></g>
<g><path style="opacity:0.875" fill="#8f9092" d="M 375.5,192.5 C 379.162,192.723 382.495,193.723 385.5,195.5C 381.786,195.41 378.452,194.41 375.5,192.5 Z"/></g>
<g><path style="opacity:0.533" fill="#aeacae" d="M 422.5,192.5 C 419.495,194.277 416.162,195.277 412.5,195.5C 415.505,193.723 418.838,192.723 422.5,192.5 Z"/></g>
<g><path style="opacity:0.451" fill="#a5a8a7" d="M 387.5,195.5 C 395.5,195.5 403.5,195.5 411.5,195.5C 403.492,198.037 395.492,198.037 387.5,195.5 Z"/></g>
<g><path style="opacity:0.898" fill="#929292" d="M 125.5,196.5 C 127.048,196.821 127.715,197.821 127.5,199.5C 126.599,198.71 125.932,197.71 125.5,196.5 Z"/></g>
<g><path style="opacity:1" fill="#565656" d="M 269.5,196.5 C 268.167,198.5 266.5,200.167 264.5,201.5C 264.5,199.5 264.5,197.5 264.5,195.5C 266.292,195.366 267.958,195.699 269.5,196.5 Z"/></g>
<g><path style="opacity:1" fill="#4ca6bf" d="M 348.5,188.5 C 352.795,190.808 356.795,193.474 360.5,196.5C 363.044,198.56 364.878,201.226 366,204.5C 366.956,203.106 368.289,202.439 370,202.5C 373.215,203.857 376.381,205.357 379.5,207C 378.333,208.167 377.167,209.333 376,210.5C 375.667,214.5 375.333,218.5 375,222.5C 373.933,223.191 372.766,223.691 371.5,224C 375.429,225.029 379.429,225.863 383.5,226.5C 384.263,227.719 385.263,228.719 386.5,229.5C 386,229.833 385.5,230.167 385,230.5C 377.12,226.998 368.954,226.498 360.5,229C 365.986,229.744 371.319,231.077 376.5,233C 369.508,233.5 362.508,233.666 355.5,233.5C 352.833,233.5 350.167,233.5 347.5,233.5C 341.334,232.668 335.667,230.668 330.5,227.5C 332.449,226.816 334.115,225.649 335.5,224C 333.549,222.266 332.549,220.099 332.5,217.5C 333.5,217.5 334.5,217.5 335.5,217.5C 334.5,222.5 336.5,224.5 341.5,223.5C 342.639,220.996 343.306,218.33 343.5,215.5C 344.5,215.5 345.5,215.5 346.5,215.5C 348.654,210.035 349.988,204.368 350.5,198.5C 351.833,198.5 353.167,198.5 354.5,198.5C 354.978,201.278 353.978,203.278 351.5,204.5C 351.833,204.833 352.167,205.167 352.5,205.5C 355.544,203.462 358.71,203.128 362,204.5C 362.494,202.866 362.66,201.199 362.5,199.5C 361.448,199.649 360.448,199.483 359.5,199C 355.418,195.798 351.751,192.298 348.5,188.5 Z"/></g>
<g><path style="opacity:0.882" fill="#999999" d="M 127.5,199.5 C 129.446,200.035 130.446,201.368 130.5,203.5C 129.026,202.564 128.026,201.23 127.5,199.5 Z"/></g>
<g><path style="opacity:0.008" fill="#cccccc" d="M 131.5,204.5 C 133.262,205.262 134.262,206.596 134.5,208.5C 132.738,207.738 131.738,206.404 131.5,204.5 Z"/></g>
<g><path style="opacity:1" fill="#4dabbf" d="M 360.5,196.5 C 368.667,199.953 377.001,202.62 385.5,204.5C 396.254,207.328 406.921,206.995 417.5,203.5C 419.993,202.226 422.659,201.56 425.5,201.5C 426.239,201.369 426.906,201.536 427.5,202C 426.577,204.041 426.244,206.208 426.5,208.5C 423.05,207.756 421.384,209.09 421.5,212.5C 419.5,213.167 417.5,213.833 415.5,214.5C 415.5,215.833 415.5,217.167 415.5,218.5C 412.689,218.826 410.022,219.659 407.5,221C 408.741,222.487 408.241,223.32 406,223.5C 403.267,221.572 402.1,222.239 402.5,225.5C 398.43,227.435 394.097,228.602 389.5,229C 387.611,230.764 385.611,232.264 383.5,233.5C 380.946,234.388 378.279,234.721 375.5,234.5C 368.646,234.824 361.979,234.491 355.5,233.5C 362.508,233.666 369.508,233.5 376.5,233C 371.319,231.077 365.986,229.744 360.5,229C 368.954,226.498 377.12,226.998 385,230.5C 385.5,230.167 386,229.833 386.5,229.5C 385.263,228.719 384.263,227.719 383.5,226.5C 379.429,225.863 375.429,225.029 371.5,224C 372.766,223.691 373.933,223.191 375,222.5C 375.333,218.5 375.667,214.5 376,210.5C 377.167,209.333 378.333,208.167 379.5,207C 376.381,205.357 373.215,203.857 370,202.5C 368.289,202.439 366.956,203.106 366,204.5C 364.878,201.226 363.044,198.56 360.5,196.5 Z"/></g>
<g><path style="opacity:0.663" fill="#a9d8e2" d="M 417.5,203.5 C 406.921,206.995 396.254,207.328 385.5,204.5C 396.165,205.391 406.832,205.058 417.5,203.5 Z"/></g>
<g><path style="opacity:0.765" fill="#a1a1a1" d="M 138.5,212.5 C 140.749,213.08 142.415,214.413 143.5,216.5C 141.251,215.92 139.585,214.587 138.5,212.5 Z"/></g>
<g><path style="opacity:1" fill="#7cbec8" d="M 383.5,233.5 C 385.611,232.264 387.611,230.764 389.5,229C 394.097,228.602 398.43,227.435 402.5,225.5C 402.1,222.239 403.267,221.572 406,223.5C 408.241,223.32 408.741,222.487 407.5,221C 410.022,219.659 412.689,218.826 415.5,218.5C 415.5,217.167 415.5,215.833 415.5,214.5C 417.5,213.833 419.5,213.167 421.5,212.5C 421.384,209.09 423.05,207.756 426.5,208.5C 426.244,206.208 426.577,204.041 427.5,202C 426.906,201.536 426.239,201.369 425.5,201.5C 427.792,199.733 430.458,198.733 433.5,198.5C 428.541,208.635 421.208,216.801 411.5,223C 402.761,228.189 393.428,231.689 383.5,233.5 Z"/></g>
<g><path style="opacity:0.369" fill="#a3a3a3" d="M 143.5,216.5 C 145.749,217.08 147.415,218.413 148.5,220.5C 146.251,219.92 144.585,218.587 143.5,216.5 Z"/></g>
<g><path style="opacity:0.38" fill="#b2b2b2" d="M 148.5,220.5 C 150.027,220.427 151.027,221.094 151.5,222.5C 149.973,222.573 148.973,221.906 148.5,220.5 Z"/></g>
<g><path style="opacity:0.29" fill="#bfbfbf" d="M 151.5,222.5 C 153.027,222.427 154.027,223.094 154.5,224.5C 152.973,224.573 151.973,223.906 151.5,222.5 Z"/></g>
<g><path style="opacity:0.004" fill="#dbdbdb" d="M 240.5,222.5 C 240.027,223.906 239.027,224.573 237.5,224.5C 237.973,223.094 238.973,222.427 240.5,222.5 Z"/></g>
<g><path style="opacity:0.843" fill="#8d8d8d" d="M 165.5,229.5 C 169.767,230.256 173.767,231.589 177.5,233.5C 173.085,233.139 169.085,231.806 165.5,229.5 Z"/></g>
<g><path style="opacity:0.067" fill="#d3d3d3" d="M 218.5,232.5 C 216.162,234.04 213.495,234.706 210.5,234.5C 212.905,233.232 215.572,232.565 218.5,232.5 Z"/></g>
<g><path style="opacity:0.496" fill="#afdee5" d="M 347.5,233.5 C 350.167,233.5 352.833,233.5 355.5,233.5C 361.979,234.491 368.646,234.824 375.5,234.5C 372.183,235.165 368.683,235.499 365,235.5C 358.933,235.61 353.1,234.943 347.5,233.5 Z"/></g>
<g><path style="opacity:0.016" fill="#f3f3f3" d="M 158.5,260.5 C 155.609,259.597 152.609,259.264 149.5,259.5C 149.5,273.5 149.5,287.5 149.5,301.5C 148.504,287.343 148.171,273.01 148.5,258.5C 152.329,257.931 155.663,258.598 158.5,260.5 Z"/></g>
<g><path style="opacity:0.384" fill="#cbcbcb" d="M 242.5,265.5 C 242.5,263.5 242.5,261.5 242.5,259.5C 231.167,259.5 219.833,259.5 208.5,259.5C 208.5,273.5 208.5,287.5 208.5,301.5C 207.504,287.343 207.171,273.01 207.5,258.5C 219.5,258.5 231.5,258.5 243.5,258.5C 243.802,261.059 243.468,263.393 242.5,265.5 Z"/></g>
<g><path style="opacity:0.376" fill="#b3b3b3" d="M 413.5,265.5 C 413.795,263.265 413.461,261.265 412.5,259.5C 399.5,259.5 386.5,259.5 373.5,259.5C 373.5,261.5 373.5,263.5 373.5,265.5C 372.532,263.393 372.198,261.059 372.5,258.5C 386.5,258.5 400.5,258.5 414.5,258.5C 414.802,261.059 414.468,263.393 413.5,265.5 Z"/></g>
<g><path style="opacity:0.375" fill="#b2b2b2" d="M 438.5,261.5 C 435.309,258.975 432.309,258.975 429.5,261.5C 428.522,261.189 427.855,260.522 427.5,259.5C 430.784,258.343 434.118,258.176 437.5,259C 438.252,259.671 438.586,260.504 438.5,261.5 Z"/></g>
<g><path style="opacity:0.375" fill="#b5b5b5" d="M 463.5,259.5 C 466.687,258.194 470.02,258.194 473.5,259.5C 473.145,260.522 472.478,261.189 471.5,261.5C 469.365,259.631 466.698,258.964 463.5,259.5 Z"/></g>
<g><path style="opacity:1" fill="#2d2d2d" d="M 242.5,265.5 C 233.5,265.5 224.5,265.5 215.5,265.5C 215.5,269.833 215.5,274.167 215.5,278.5C 224.167,278.5 232.833,278.5 241.5,278.5C 241.5,280.5 241.5,282.5 241.5,284.5C 232.833,284.5 224.167,284.5 215.5,284.5C 215.5,290.167 215.5,295.833 215.5,301.5C 213.167,301.5 210.833,301.5 208.5,301.5C 208.5,287.5 208.5,273.5 208.5,259.5C 219.833,259.5 231.167,259.5 242.5,259.5C 242.5,261.5 242.5,263.5 242.5,265.5 Z"/></g>
<g><path style="opacity:1" fill="#2a2a2a" d="M 297.5,260.5 C 298.08,262.749 299.413,264.415 301.5,265.5C 301.738,267.404 302.738,268.738 304.5,269.5C 305.08,271.749 306.413,273.415 308.5,274.5C 308.738,276.404 309.738,277.738 311.5,278.5C 311.738,280.404 312.738,281.738 314.5,282.5C 314.738,284.404 315.738,285.738 317.5,286.5C 317.427,288.027 318.094,289.027 319.5,289.5C 319.783,290.289 320.283,290.956 321,291.5C 321.5,280.839 321.667,270.172 321.5,259.5C 323.5,259.5 325.5,259.5 327.5,259.5C 327.5,273.5 327.5,287.5 327.5,301.5C 325.167,301.5 322.833,301.5 320.5,301.5C 319.5,301.167 318.833,300.5 318.5,299.5C 318.573,297.973 317.906,296.973 316.5,296.5C 314.367,294.909 312.701,292.909 311.5,290.5C 311.573,288.973 310.906,287.973 309.5,287.5C 307.367,285.909 305.701,283.909 304.5,281.5C 304.573,279.973 303.906,278.973 302.5,278.5C 300.453,276.45 298.786,274.117 297.5,271.5C 297.217,270.711 296.717,270.044 296,269.5C 295.5,280.161 295.333,290.828 295.5,301.5C 293.5,301.5 291.5,301.5 289.5,301.5C 289.5,287.5 289.5,273.5 289.5,259.5C 292.279,259.279 294.946,259.612 297.5,260.5 Z"/></g>
<g><path style="opacity:1" fill="#272727" d="M 412.5,259.5 C 412.5,261.167 412.5,262.833 412.5,264.5C 406.974,264.179 401.64,264.512 396.5,265.5C 396.5,277.5 396.5,289.5 396.5,301.5C 394.5,301.5 392.5,301.5 390.5,301.5C 390.5,289.5 390.5,277.5 390.5,265.5C 384.833,265.5 379.167,265.5 373.5,265.5C 373.5,263.5 373.5,261.5 373.5,259.5C 386.5,259.5 399.5,259.5 412.5,259.5 Z"/></g>
<g><path style="opacity:0.996" fill="#2d2d2d" d="M 158.5,260.5 C 158.738,262.404 159.738,263.738 161.5,264.5C 161.738,266.404 162.738,267.738 164.5,268.5C 164.738,270.404 165.738,271.738 167.5,272.5C 167.733,274.062 168.4,275.395 169.5,276.5C 168.12,277.706 166.953,277.373 166,275.5C 165.667,276.833 165.333,278.167 165,279.5C 164.517,278.552 164.351,277.552 164.5,276.5C 163.5,276.5 162.5,276.5 161.5,276.5C 161.446,274.368 160.446,273.035 158.5,272.5C 158.672,271.508 158.338,270.842 157.5,270.5C 156.833,270.5 156.5,270.833 156.5,271.5C 156.5,281.5 156.5,291.5 156.5,301.5C 154.167,301.5 151.833,301.5 149.5,301.5C 149.5,287.5 149.5,273.5 149.5,259.5C 152.609,259.264 155.609,259.597 158.5,260.5 Z"/></g>
<g><path style="opacity:0.761" fill="#9e9e9e" d="M 158.5,260.5 C 160.262,261.262 161.262,262.596 161.5,264.5C 159.738,263.738 158.738,262.404 158.5,260.5 Z"/></g>
<g><path style="opacity:0.894" fill="#8a8a8a" d="M 297.5,260.5 C 299.587,261.585 300.92,263.251 301.5,265.5C 299.413,264.415 298.08,262.749 297.5,260.5 Z"/></g>
<g><path style="opacity:0.998" fill="#272727" d="M 182.5,259.5 C 184.5,259.5 186.5,259.5 188.5,259.5C 188.5,273.5 188.5,287.5 188.5,301.5C 185.833,301.5 183.167,301.5 180.5,301.5C 180.167,300.833 179.833,300.167 179.5,299.5C 179.342,297.179 178.342,295.346 176.5,294C 177.784,293.316 178.951,293.483 180,294.5C 179.669,292.981 179.836,291.648 180.5,290.5C 180.56,291.043 180.893,291.376 181.5,291.5C 182.499,280.854 182.832,270.187 182.5,259.5 Z"/></g>
<g><path style="opacity:0.329" fill="#bbbbbb" d="M 181.5,259.5 C 183.948,258.527 186.615,258.194 189.5,258.5C 189.5,273.167 189.5,287.833 189.5,302.5C 186.287,302.81 183.287,302.477 180.5,301.5C 183.167,301.5 185.833,301.5 188.5,301.5C 188.5,287.5 188.5,273.5 188.5,259.5C 186.5,259.5 184.5,259.5 182.5,259.5C 182.167,259.5 181.833,259.5 181.5,259.5 Z"/></g>
<g><path style="opacity:0.56" fill="#8c8c8c" d="M 181.5,259.5 C 181.833,259.5 182.167,259.5 182.5,259.5C 182.832,270.187 182.499,280.854 181.5,291.5C 180.893,291.376 180.56,291.043 180.5,290.5C 180.5,290.167 180.5,289.833 180.5,289.5C 181.494,279.681 181.827,269.681 181.5,259.5 Z"/></g>
<g><path style="opacity:0.426" fill="#a5a5a5" d="M 261.5,258.5 C 264.167,258.5 266.833,258.5 269.5,258.5C 269.5,273.167 269.5,287.833 269.5,302.5C 266.833,302.5 264.167,302.5 261.5,302.5C 261.5,287.833 261.5,273.167 261.5,258.5 Z"/></g>
<g><path style="opacity:1" fill="#252525" d="M 262.5,259.5 C 264.5,259.5 266.5,259.5 268.5,259.5C 268.5,273.5 268.5,287.5 268.5,301.5C 266.5,301.5 264.5,301.5 262.5,301.5C 262.5,287.5 262.5,273.5 262.5,259.5 Z"/></g>
<g><path style="opacity:0.336" fill="#aeaeae" d="M 320.5,301.5 C 322.833,301.5 325.167,301.5 327.5,301.5C 327.5,287.5 327.5,273.5 327.5,259.5C 325.5,259.5 323.5,259.5 321.5,259.5C 321.667,270.172 321.5,280.839 321,291.5C 320.283,290.956 319.783,290.289 319.5,289.5C 320.494,279.347 320.828,269.014 320.5,258.5C 323.167,258.5 325.833,258.5 328.5,258.5C 328.5,273.167 328.5,287.833 328.5,302.5C 325.615,302.806 322.948,302.473 320.5,301.5 Z"/></g>
<g><path style="opacity:0.183" fill="#dcdcdc" d="M 347.5,258.5 C 350.5,258.5 353.5,258.5 356.5,258.5C 356.5,273.167 356.5,287.833 356.5,302.5C 353.5,302.5 350.5,302.5 347.5,302.5C 347.5,287.833 347.5,273.167 347.5,258.5 Z"/></g>
<g><path style="opacity:1" fill="#2e2e2e" d="M 348.5,259.5 C 350.833,259.5 353.167,259.5 355.5,259.5C 355.5,273.5 355.5,287.5 355.5,301.5C 353.167,301.5 350.833,301.5 348.5,301.5C 348.5,287.5 348.5,273.5 348.5,259.5 Z"/></g>
<g><path style="opacity:0.859" fill="#9f9f9f" d="M 430.5,263.5 C 432.446,264.035 433.446,265.368 433.5,267.5C 432.026,266.564 431.026,265.23 430.5,263.5 Z"/></g>
<g><path style="opacity:0.748" fill="#555555" d="M 412.5,259.5 C 413.461,261.265 413.795,263.265 413.5,265.5C 407.833,265.5 402.167,265.5 396.5,265.5C 401.64,264.512 406.974,264.179 412.5,264.5C 412.5,262.833 412.5,261.167 412.5,259.5 Z"/></g>
<g><path style="opacity:0.792" fill="#999999" d="M 161.5,264.5 C 163.262,265.262 164.262,266.596 164.5,268.5C 162.738,267.738 161.738,266.404 161.5,264.5 Z"/></g>
<g><path style="opacity:0.808" fill="#969696" d="M 301.5,265.5 C 303.262,266.262 304.262,267.596 304.5,269.5C 302.738,268.738 301.738,267.404 301.5,265.5 Z"/></g>
<g><path style="opacity:0.835" fill="#919191" d="M 164.5,268.5 C 166.262,269.262 167.262,270.596 167.5,272.5C 165.738,271.738 164.738,270.404 164.5,268.5 Z"/></g>
<g><path style="opacity:0.157" fill="#c6c6c6" d="M 433.5,267.5 C 434.906,267.973 435.573,268.973 435.5,270.5C 434.094,270.027 433.427,269.027 433.5,267.5 Z"/></g>
<g><path style="opacity:0.412" fill="#a5a5a5" d="M 121.5,258.5 C 124.167,258.5 126.833,258.5 129.5,258.5C 129.5,273.167 129.5,287.833 129.5,302.5C 126.833,302.5 124.167,302.5 121.5,302.5C 121.5,287.833 121.5,273.167 121.5,258.5 Z"/></g>
<g><path style="opacity:0.999" fill="#252525" d="M 122.5,259.5 C 124.5,259.5 126.5,259.5 128.5,259.5C 128.5,273.5 128.5,287.5 128.5,301.5C 126.5,301.5 124.5,301.5 122.5,301.5C 122.5,287.5 122.5,273.5 122.5,259.5 Z"/></g>
<g><path style="opacity:0.326" fill="#c6c6c6" d="M 373.5,265.5 C 379.167,265.5 384.833,265.5 390.5,265.5C 390.5,277.5 390.5,289.5 390.5,301.5C 392.5,301.5 394.5,301.5 396.5,301.5C 396.5,289.5 396.5,277.5 396.5,265.5C 402.167,265.5 407.833,265.5 413.5,265.5C 408.36,266.488 403.026,266.821 397.5,266.5C 397.5,278.5 397.5,290.5 397.5,302.5C 394.833,302.5 392.167,302.5 389.5,302.5C 389.5,290.5 389.5,278.5 389.5,266.5C 383.974,266.821 378.64,266.488 373.5,265.5 Z"/></g>
<g><path style="opacity:0.831" fill="#9e9e9e" d="M 436.5,272.5 C 438.446,273.035 439.446,274.368 439.5,276.5C 438.026,275.564 437.026,274.23 436.5,272.5 Z"/></g>
<g><path style="opacity:0.337" fill="#b0b0b0" d="M 304.5,269.5 C 306.587,270.585 307.92,272.251 308.5,274.5C 306.413,273.415 305.08,271.749 304.5,269.5 Z"/></g>
<g><path style="opacity:0.553" fill="#ababab" d="M 158.5,272.5 C 160.446,273.035 161.446,274.368 161.5,276.5C 160.026,275.564 159.026,274.23 158.5,272.5 Z"/></g>
<g><path style="opacity:0.369" fill="#a7a7a7" d="M 167.5,272.5 C 169.587,273.585 170.92,275.251 171.5,277.5C 170.833,277.167 170.167,276.833 169.5,276.5C 168.4,275.395 167.733,274.062 167.5,272.5 Z"/></g>
<g><path style="opacity:0.557" fill="#acacac" d="M 308.5,274.5 C 310.262,275.262 311.262,276.596 311.5,278.5C 309.738,277.738 308.738,276.404 308.5,274.5 Z"/></g>
<g><path style="opacity:0.227" fill="#d6d6d6" d="M 157.5,270.5 C 158.338,270.842 158.672,271.508 158.5,272.5C 157.506,282.319 157.173,292.319 157.5,302.5C 154.615,302.806 151.948,302.473 149.5,301.5C 151.833,301.5 154.167,301.5 156.5,301.5C 156.5,291.5 156.5,281.5 156.5,271.5C 157.167,271.5 157.5,271.167 157.5,270.5 Z"/></g>
<g><path style="opacity:0.157" fill="#e0e0e0" d="M 242.5,265.5 C 234.016,266.493 225.349,266.826 216.5,266.5C 216.5,270.167 216.5,273.833 216.5,277.5C 225.167,277.5 233.833,277.5 242.5,277.5C 242.5,280.167 242.5,282.833 242.5,285.5C 233.833,285.5 225.167,285.5 216.5,285.5C 216.5,291.167 216.5,296.833 216.5,302.5C 213.615,302.806 210.948,302.473 208.5,301.5C 210.833,301.5 213.167,301.5 215.5,301.5C 215.5,295.833 215.5,290.167 215.5,284.5C 224.167,284.5 232.833,284.5 241.5,284.5C 241.5,282.5 241.5,280.5 241.5,278.5C 232.833,278.5 224.167,278.5 215.5,278.5C 215.5,274.167 215.5,269.833 215.5,265.5C 224.5,265.5 233.5,265.5 242.5,265.5 Z"/></g>
<g><path style="opacity:0.43" fill="#a9a9a9" d="M 297.5,260.5 C 294.946,259.612 292.279,259.279 289.5,259.5C 289.5,273.5 289.5,287.5 289.5,301.5C 291.5,301.5 293.5,301.5 295.5,301.5C 295.333,290.828 295.5,280.161 296,269.5C 296.717,270.044 297.217,270.711 297.5,271.5C 296.506,281.653 296.172,291.986 296.5,302.5C 293.833,302.5 291.167,302.5 288.5,302.5C 288.5,287.833 288.5,273.167 288.5,258.5C 292.012,257.945 295.012,258.612 297.5,260.5 Z"/></g>
<g><path style="opacity:0.78" fill="#9b9b9b" d="M 171.5,277.5 C 173.262,278.262 174.262,279.596 174.5,281.5C 172.738,280.738 171.738,279.404 171.5,277.5 Z"/></g>
<g><path style="opacity:0.004" fill="#d0d0d0" d="M 302.5,278.5 C 303.906,278.973 304.573,279.973 304.5,281.5C 303.094,281.027 302.427,280.027 302.5,278.5 Z"/></g>
<g><path style="opacity:0.776" fill="#9a9a9a" d="M 311.5,278.5 C 313.262,279.262 314.262,280.596 314.5,282.5C 312.738,281.738 311.738,280.404 311.5,278.5 Z"/></g>
<g><path style="opacity:0.999" fill="#323232" d="M 438.5,261.5 C 438.427,263.027 439.094,264.027 440.5,264.5C 440.427,266.027 441.094,267.027 442.5,267.5C 443.338,267.842 443.672,268.508 443.5,269.5C 443.738,271.404 444.738,272.738 446.5,273.5C 446.427,275.027 447.094,276.027 448.5,276.5C 449.338,276.842 449.672,277.508 449.5,278.5C 451.332,279.718 452.332,279.051 452.5,276.5C 453.906,276.027 454.573,275.027 454.5,273.5C 455.906,273.027 456.573,272.027 456.5,270.5C 457.906,270.027 458.573,269.027 458.5,267.5C 459.906,267.027 460.573,266.027 460.5,264.5C 460.328,263.508 460.662,262.842 461.5,262.5C 462.906,262.027 463.573,261.027 463.5,259.5C 466.698,258.964 469.365,259.631 471.5,261.5C 466.191,270.13 460.525,278.464 454.5,286.5C 453.513,291.305 453.179,296.305 453.5,301.5C 451.5,301.5 449.5,301.5 447.5,301.5C 447.666,296.489 447.499,291.489 447,286.5C 446.617,285.944 446.117,285.611 445.5,285.5C 445.446,283.368 444.446,282.035 442.5,281.5C 441.248,279.999 440.248,278.332 439.5,276.5C 439.446,274.368 438.446,273.035 436.5,272.5C 435.662,272.158 435.328,271.492 435.5,270.5C 435.573,268.973 434.906,267.973 433.5,267.5C 433.446,265.368 432.446,264.035 430.5,263.5C 429.662,263.158 429.328,262.492 429.5,261.5C 432.309,258.975 435.309,258.975 438.5,261.5 Z"/></g>
<g><path style="opacity:0.369" fill="#b3b3b3" d="M 452.5,276.5 C 452.332,279.051 451.332,279.718 449.5,278.5C 450.5,277.833 451.5,277.167 452.5,276.5 Z"/></g>
<g><path style="opacity:0.467" fill="#a4a4a4" d="M 454.5,273.5 C 454.573,275.027 453.906,276.027 452.5,276.5C 452.427,274.973 453.094,273.973 454.5,273.5 Z"/></g>
<g><path style="opacity:0.345" fill="#bcbcbc" d="M 446.5,273.5 C 447.906,273.973 448.573,274.973 448.5,276.5C 447.094,276.027 446.427,275.027 446.5,273.5 Z"/></g>
<g><path style="opacity:0.482" fill="#a2a2a2" d="M 456.5,270.5 C 456.573,272.027 455.906,273.027 454.5,273.5C 454.427,271.973 455.094,270.973 456.5,270.5 Z"/></g>
<g><path style="opacity:0.596" fill="#999999" d="M 443.5,269.5 C 445.262,270.262 446.262,271.596 446.5,273.5C 444.738,272.738 443.738,271.404 443.5,269.5 Z"/></g>
<g><path style="opacity:0.486" fill="#a1a1a1" d="M 458.5,267.5 C 458.573,269.027 457.906,270.027 456.5,270.5C 456.427,268.973 457.094,267.973 458.5,267.5 Z"/></g>
<g><path style="opacity:0.467" fill="#9e9e9e" d="M 460.5,264.5 C 460.573,266.027 459.906,267.027 458.5,267.5C 458.427,265.973 459.094,264.973 460.5,264.5 Z"/></g>
<g><path style="opacity:0.333" fill="#bcbcbc" d="M 440.5,264.5 C 441.906,264.973 442.573,265.973 442.5,267.5C 441.094,267.027 440.427,266.027 440.5,264.5 Z"/></g>
<g><path style="opacity:0.349" fill="#b9b9b9" d="M 438.5,261.5 C 439.906,261.973 440.573,262.973 440.5,264.5C 439.094,264.027 438.427,263.027 438.5,261.5 Z"/></g>
<g><path style="opacity:0.286" fill="#c6c6c6" d="M 463.5,259.5 C 463.573,261.027 462.906,262.027 461.5,262.5C 461.427,260.973 462.094,259.973 463.5,259.5 Z"/></g>
<g><path style="opacity:0.831" fill="#a7a7a7" d="M 442.5,281.5 C 444.446,282.035 445.446,283.368 445.5,285.5C 444.026,284.564 443.026,283.23 442.5,281.5 Z"/></g>
<g><path style="opacity:0.639" fill="#969696" d="M 314.5,282.5 C 316.262,283.262 317.262,284.596 317.5,286.5C 315.738,285.738 314.738,284.404 314.5,282.5 Z"/></g>
<g><path style="opacity:0.998" fill="#3c3c3c" d="M 169.5,276.5 C 170.167,276.833 170.833,277.167 171.5,277.5C 171.738,279.404 172.738,280.738 174.5,281.5C 176.853,283.86 178.853,286.527 180.5,289.5C 180.5,289.833 180.5,290.167 180.5,290.5C 179.836,291.648 179.669,292.981 180,294.5C 178.951,293.483 177.784,293.316 176.5,294C 178.342,295.346 179.342,297.179 179.5,299.5C 177.367,297.909 175.701,295.909 174.5,293.5C 174.573,291.973 173.906,290.973 172.5,290.5C 168.362,286.235 164.695,281.569 161.5,276.5C 162.5,276.5 163.5,276.5 164.5,276.5C 164.351,277.552 164.517,278.552 165,279.5C 165.333,278.167 165.667,276.833 166,275.5C 166.953,277.373 168.12,277.706 169.5,276.5 Z"/></g>
<g><path style="opacity:0.008" fill="#d2d2d2" d="M 309.5,287.5 C 310.906,287.973 311.573,288.973 311.5,290.5C 310.094,290.027 309.427,289.027 309.5,287.5 Z"/></g>
<g><path style="opacity:0.447" fill="#aaaaaa" d="M 317.5,286.5 C 318.906,286.973 319.573,287.973 319.5,289.5C 318.094,289.027 317.427,288.027 317.5,286.5 Z"/></g>
<g><path style="opacity:0.561" fill="#898989" d="M 445.5,285.5 C 446.117,285.611 446.617,285.944 447,286.5C 447.499,291.489 447.666,296.489 447.5,301.5C 447.167,301.5 446.833,301.5 446.5,301.5C 446.733,296.105 446.4,290.772 445.5,285.5 Z"/></g>
<g><path style="opacity:0.004" fill="#d5d5d5" d="M 172.5,290.5 C 173.906,290.973 174.573,291.973 174.5,293.5C 173.094,293.027 172.427,292.027 172.5,290.5 Z"/></g>
<g><path style="opacity:0.004" fill="#cdcdcd" d="M 316.5,296.5 C 317.906,296.973 318.573,297.973 318.5,299.5C 317.094,299.027 316.427,298.027 316.5,296.5 Z"/></g>
<g><path style="opacity:0.156" fill="#d9d9d9" d="M 454.5,286.5 C 454.5,291.833 454.5,297.167 454.5,302.5C 451.615,302.806 448.948,302.473 446.5,301.5C 446.833,301.5 447.167,301.5 447.5,301.5C 449.5,301.5 451.5,301.5 453.5,301.5C 453.179,296.305 453.513,291.305 454.5,286.5 Z"/></g>
<g><path style="opacity:0.816" fill="#a6c3d1" d="M 266.5,315.5 C 266.631,314.761 266.464,314.094 266,313.5C 264.961,314.71 263.794,315.71 262.5,316.5C 263.46,312.51 265.793,311.177 269.5,312.5C 268.812,313.855 267.812,314.855 266.5,315.5 Z"/></g>
<g><path style="opacity:0.877" fill="#6990b0" d="M 322.5,313.5 C 319.5,313.5 316.5,313.5 313.5,313.5C 313.216,315.415 313.549,317.081 314.5,318.5C 317.167,318.5 319.833,318.5 322.5,318.5C 320.012,320.388 317.012,321.055 313.5,320.5C 313.975,323.082 313.308,325.082 311.5,326.5C 311.5,321.5 311.5,316.5 311.5,311.5C 315.555,311.176 319.555,311.509 323.5,312.5C 323.376,313.107 323.043,313.44 322.5,313.5 Z"/></g>
<g><path style="opacity:0.988" fill="#5f7c9f" d="M 413.5,311.5 C 416.85,311.335 420.183,311.502 423.5,312C 425.426,312.422 426.426,313.589 426.5,315.5C 426.662,317.527 426.495,319.527 426,321.5C 425.963,319.026 425.13,317.026 423.5,315.5C 422.833,315.5 422.5,315.167 422.5,314.5C 420.052,313.527 417.385,313.194 414.5,313.5C 414.5,317.5 414.5,321.5 414.5,325.5C 416.857,325.337 419.19,325.503 421.5,326C 418.854,326.497 416.187,326.664 413.5,326.5C 413.5,321.5 413.5,316.5 413.5,311.5 Z"/></g>
<g><path style="opacity:0.265" fill="#c2e3f1" d="M 189.5,311.5 C 188.892,316.944 189.558,321.944 191.5,326.5C 190.791,327.404 189.791,327.737 188.5,327.5C 188.179,321.974 188.512,316.64 189.5,311.5 Z"/></g>
<g><path style="opacity:0.129" fill="#d1e9f8" d="M 322.5,313.5 C 320.052,314.473 317.385,314.806 314.5,314.5C 314.5,315.833 314.5,317.167 314.5,318.5C 313.549,317.081 313.216,315.415 313.5,313.5C 316.5,313.5 319.5,313.5 322.5,313.5 Z"/></g>
<g><path style="opacity:0.243" fill="#cad8e8" d="M 391.5,311.5 C 392.488,316.64 392.821,321.974 392.5,327.5C 391.209,327.737 390.209,327.404 389.5,326.5C 391.442,321.944 392.108,316.944 391.5,311.5 Z"/></g>
<g><path style="opacity:0.965" fill="#6492a7" d="M 234.5,313.5 C 231.167,313.5 227.833,313.5 224.5,313.5C 224.5,315.167 224.5,316.833 224.5,318.5C 236.5,318.833 236.5,319.167 224.5,319.5C 224.5,321.5 224.5,323.5 224.5,325.5C 227.518,325.335 230.518,325.502 233.5,326C 229.848,326.499 226.182,326.665 222.5,326.5C 222.5,321.5 222.5,316.5 222.5,311.5C 226.884,311.174 231.217,311.508 235.5,312.5C 235.376,313.107 235.043,313.44 234.5,313.5 Z"/></g>
<g><path style="opacity:0.902" fill="#97c4cc" d="M 159.5,310.5 C 167.019,311.176 170.186,315.176 169,322.5C 166.459,327.069 162.625,328.569 157.5,327C 152.701,323.929 151.535,319.762 154,314.5C 155.5,312.531 157.333,311.198 159.5,310.5 Z M 157.5,314.5 C 159.92,314.292 162.253,314.626 164.5,315.5C 167.202,321.943 165.202,324.776 158.5,324C 156.25,321.072 155.916,317.906 157.5,314.5 Z"/></g>
<g><path style="opacity:0.58" fill="#a0c7d1" d="M 200.5,312.5 C 203.334,315.558 203.001,318.391 199.5,321C 201.219,322.87 202.219,325.037 202.5,327.5C 201.448,327.649 200.448,327.483 199.5,327C 198.5,325.333 197.5,323.667 196.5,322C 194.866,321.506 193.199,321.34 191.5,321.5C 193.292,320.691 195.292,320.191 197.5,320C 195.292,319.809 193.292,319.309 191.5,318.5C 193.857,318.663 196.19,318.497 198.5,318C 199.833,317 199.833,316 198.5,315C 196.19,314.503 193.857,314.337 191.5,314.5C 194.23,313.183 197.063,313.183 200,314.5C 200.464,313.906 200.631,313.239 200.5,312.5 Z"/></g>
<g><path style="opacity:1" fill="#79afba" d="M 122.5,311.5 C 126.555,311.176 130.555,311.509 134.5,312.5C 134.291,313.086 133.957,313.586 133.5,314C 130.518,314.498 127.518,314.665 124.5,314.5C 124.5,315.833 124.5,317.167 124.5,318.5C 127.167,318.5 129.833,318.5 132.5,318.5C 130.012,320.388 127.012,321.055 123.5,320.5C 123.662,322.527 123.495,324.527 123,326.5C 122.501,321.511 122.334,316.511 122.5,311.5 Z"/></g>
<g><path style="opacity:0.988" fill="#5d9ab0" d="M 189.5,311.5 C 193.371,311.185 197.038,311.518 200.5,312.5C 200.631,313.239 200.464,313.906 200,314.5C 197.063,313.183 194.23,313.183 191.5,314.5C 191.5,315.833 191.5,317.167 191.5,318.5C 193.292,319.309 195.292,319.809 197.5,320C 195.292,320.191 193.292,320.691 191.5,321.5C 191.5,323.167 191.5,324.833 191.5,326.5C 189.558,321.944 188.892,316.944 189.5,311.5 Z"/></g>
<g><path style="opacity:1" fill="#80a9bd" d="M 262.5,316.5 C 263.794,315.71 264.961,314.71 266,313.5C 266.464,314.094 266.631,314.761 266.5,315.5C 265.71,316.794 264.71,317.961 263.5,319C 265.62,321.409 267.62,323.909 269.5,326.5C 268.833,326.833 268.167,327.167 267.5,327.5C 265.143,325.877 262.976,323.877 261,321.5C 259.5,325.241 257,326.907 253.5,326.5C 254.779,323.888 256.445,321.555 258.5,319.5C 257.221,316.888 255.555,314.555 253.5,312.5C 254.167,312.167 254.833,311.833 255.5,311.5C 257.568,313.573 259.901,315.239 262.5,316.5 Z"/></g>
<g><path style="opacity:0.922" fill="#7b98b6" d="M 391.5,311.5 C 392.108,316.944 391.442,321.944 389.5,326.5C 386.444,324.051 384.111,321.051 382.5,317.5C 382.217,316.711 381.717,316.044 381,315.5C 380.501,319.152 380.335,322.818 380.5,326.5C 379.811,327.774 378.977,327.774 378,326.5C 377.501,321.511 377.334,316.511 377.5,311.5C 378.873,311.343 380.207,311.51 381.5,312C 384,315.167 386.5,318.333 389,321.5C 388.917,317.689 389.75,314.355 391.5,311.5 Z"/></g>
<g><path style="opacity:0.098" fill="#daf3fe" d="M 382.5,317.5 C 381.833,320.5 381.167,323.5 380.5,326.5C 380.335,322.818 380.501,319.152 381,315.5C 381.717,316.044 382.217,316.711 382.5,317.5 Z"/></g>
<g><path style="opacity:0.953" fill="#9ab0cd" d="M 413.5,311.5 C 413.5,316.5 413.5,321.5 413.5,326.5C 416.187,326.664 418.854,326.497 421.5,326C 419.19,325.503 416.857,325.337 414.5,325.5C 414.5,321.5 414.5,317.5 414.5,313.5C 417.385,313.194 420.052,313.527 422.5,314.5C 420.167,314.5 417.833,314.5 415.5,314.5C 415.5,317.833 415.5,321.167 415.5,324.5C 422.688,325.371 425.355,322.371 423.5,315.5C 425.13,317.026 425.963,319.026 426,321.5C 426.495,319.527 426.662,317.527 426.5,315.5C 428.118,319.311 427.451,322.811 424.5,326C 420.637,327.354 416.637,327.854 412.5,327.5C 412.179,321.974 412.512,316.64 413.5,311.5 Z"/></g>
<g><path style="opacity:0.149" fill="#d3e0f3" d="M 458.5,319.5 C 460.597,320.879 460.93,322.545 459.5,324.5C 459.371,322.784 459.038,321.117 458.5,319.5 Z"/></g>
<g><path style="opacity:0.314" fill="#bae2ea" d="M 122.5,311.5 C 122.334,316.511 122.501,321.511 123,326.5C 123.495,324.527 123.662,322.527 123.5,320.5C 127.012,321.055 130.012,320.388 132.5,318.5C 133.404,319.209 133.737,320.209 133.5,321.5C 130.5,321.5 127.5,321.5 124.5,321.5C 124.5,323.5 124.5,325.5 124.5,327.5C 123.5,327.5 122.5,327.5 121.5,327.5C 121.179,321.974 121.512,316.64 122.5,311.5 Z"/></g>
<g><path style="opacity:0.455" fill="#c0ddea" d="M 234.5,313.5 C 231.713,314.477 228.713,314.81 225.5,314.5C 225.5,315.5 225.5,316.5 225.5,317.5C 228.5,317.5 231.5,317.5 234.5,317.5C 234.67,318.822 234.337,319.989 233.5,321C 230.854,321.497 228.187,321.664 225.5,321.5C 225.5,322.5 225.5,323.5 225.5,324.5C 228.518,324.335 231.518,324.502 234.5,325C 235.833,325.667 235.833,326.333 234.5,327C 230.311,327.812 226.311,327.645 222.5,326.5C 226.182,326.665 229.848,326.499 233.5,326C 230.518,325.502 227.518,325.335 224.5,325.5C 224.5,323.5 224.5,321.5 224.5,319.5C 236.5,319.167 236.5,318.833 224.5,318.5C 224.5,316.833 224.5,315.167 224.5,313.5C 227.833,313.5 231.167,313.5 234.5,313.5 Z"/></g>
<g><path style="opacity:0.392" fill="#8a9ebf" d="M 458.5,319.5 C 459.038,321.117 459.371,322.784 459.5,324.5C 459.047,325.458 458.381,326.292 457.5,327C 454.833,327.667 452.167,327.667 449.5,327C 446.485,325.308 445.985,323.141 448,320.5C 449.677,324.051 452.51,325.384 456.5,324.5C 456.5,323.5 456.5,322.5 456.5,321.5C 453.312,321.382 450.312,320.549 447.5,319C 445.549,313.923 447.382,311.089 453,310.5C 456.839,310.84 459.339,312.84 460.5,316.5C 459.311,317.429 457.978,317.762 456.5,317.5C 456.5,316.5 456.5,315.5 456.5,314.5C 454.076,314.192 451.743,314.526 449.5,315.5C 452.378,317.078 455.378,318.412 458.5,319.5 Z"/></g>
<g><path style="opacity:0.655" fill="#98b2ca" d="M 342.5,311.5 C 343.833,311.5 345.167,311.5 346.5,311.5C 346.335,315.182 346.501,318.848 347,322.5C 348.865,324.673 351.031,325.007 353.5,323.5C 354.491,319.555 354.824,315.555 354.5,311.5C 355.833,311.5 357.167,311.5 358.5,311.5C 358.665,315.182 358.499,318.848 358,322.5C 354.196,328.377 349.529,329.044 344,324.5C 343.001,320.199 342.501,315.865 342.5,311.5 Z"/></g>
<g><path style="opacity:0.306" fill="#cfe1ee" d="M 322.5,318.5 C 323.404,319.209 323.737,320.209 323.5,321.5C 320.5,321.5 317.5,321.5 314.5,321.5C 314.5,323.5 314.5,325.5 314.5,327.5C 313.209,327.737 312.209,327.404 311.5,326.5C 313.308,325.082 313.975,323.082 313.5,320.5C 317.012,321.055 320.012,320.388 322.5,318.5 Z"/></g>
</svg>
