<?xml version="1.0" encoding="UTF-8"?>
<!DOCTYPE svg PUBLIC "-//W3C//DTD SVG 1.1//EN" "http://www.w3.org/Graphics/SVG/1.1/DTD/svg11.dtd">
<svg xmlns="http://www.w3.org/2000/svg" version="1.1" width="562px" height="444px" style="shape-rendering:geometricPrecision; text-rendering:geometricPrecision; image-rendering:optimizeQuality; fill-rule:evenodd; clip-rule:evenodd" xmlns:xlink="http://www.w3.org/1999/xlink">
<g><path style="opacity:1" fill="#f7ae1f" d="M 295.5,97.5 C 298.421,98.8085 300.754,100.808 302.5,103.5C 298.824,104.641 295.324,106.308 292,108.5C 291.372,115.829 290.872,123.163 290.5,130.5C 289.705,134.785 289.372,139.119 289.5,143.5C 288.793,146.786 288.46,150.119 288.5,153.5C 287.686,155.631 287.186,157.964 287,160.5C 286.5,139.169 286.333,117.836 286.5,96.5C 286.917,95.8761 287.584,95.5427 288.5,95.5C 290.762,96.4669 293.095,97.1336 295.5,97.5 Z"/></g>
<g><path style="opacity:1" fill="#ca8a0c" d="M 302.5,103.5 C 303.434,104.568 303.768,105.901 303.5,107.5C 301.129,110.556 297.963,112.223 294,112.5C 293.783,118.823 292.617,124.823 290.5,130.5C 290.872,123.163 291.372,115.829 292,108.5C 295.324,106.308 298.824,104.641 302.5,103.5 Z"/></g>
<g><path style="opacity:0.027" fill="#8e6a46" d="M 295.5,97.5 C 293.095,97.1336 290.762,96.4669 288.5,95.5C 287.584,95.5427 286.917,95.8761 286.5,96.5C 285.502,123.328 285.169,150.328 285.5,177.5C 285.5,179.5 285.5,181.5 285.5,183.5C 287.167,183.5 288.833,183.5 290.5,183.5C 289.014,185.559 287.18,186.225 285,185.5C 284.333,155.167 284.333,124.833 285,94.5C 288.979,93.5595 292.479,94.5595 295.5,97.5 Z"/></g>
<g><path style="opacity:1" fill="#ba810b" d="M 303.5,107.5 C 303.831,114.863 303.497,122.197 302.5,129.5C 301.672,128.585 300.672,127.919 299.5,127.5C 297.218,128.223 294.884,128.557 292.5,128.5C 291.686,133.652 290.686,138.652 289.5,143.5C 289.372,139.119 289.705,134.785 290.5,130.5C 292.617,124.823 293.783,118.823 294,112.5C 297.963,112.223 301.129,110.556 303.5,107.5 Z"/></g>
<g><path style="opacity:0.996" fill="#435b9f" d="M 359.5,149.5 C 360.336,154.169 360.836,158.836 361,163.5C 359.218,160.368 358.052,157.035 357.5,153.5C 357.718,147.002 356.884,140.669 355,134.5C 353.667,132.833 352.333,131.167 351,129.5C 349.333,130.833 347.667,130.833 346,129.5C 343.237,133.256 339.737,134.256 335.5,132.5C 335.5,133.833 335.5,135.167 335.5,136.5C 332.167,136.5 328.833,136.5 325.5,136.5C 334.539,131.207 344.206,127.373 354.5,125C 356.612,133.062 358.279,141.229 359.5,149.5 Z"/></g>
<g><path style="opacity:0.544" fill="#e4a945" d="M 286.5,96.5 C 286.333,117.836 286.5,139.169 287,160.5C 287.186,157.964 287.686,155.631 288.5,153.5C 288.5,154.833 288.5,156.167 288.5,157.5C 288.5,158.5 288.5,159.5 288.5,160.5C 287.399,166.072 286.732,171.738 286.5,177.5C 286.167,177.5 285.833,177.5 285.5,177.5C 285.169,150.328 285.502,123.328 286.5,96.5 Z"/></g>
<g><path style="opacity:0.288" fill="#9d753d" d="M 265.5,120.5 C 264.167,120.5 262.833,120.5 261.5,120.5C 261.333,140.503 261.5,160.503 262,180.5C 262.383,179.944 262.883,179.611 263.5,179.5C 263.5,180.833 263.5,182.167 263.5,183.5C 263.5,184.5 263.5,185.5 263.5,186.5C 262.691,188.292 262.191,190.292 262,192.5C 261.667,189.833 261.333,187.167 261,184.5C 260.831,170.994 260.331,157.66 259.5,144.5C 259.334,136.493 259.5,128.493 260,120.5C 261.678,118.525 263.512,118.525 265.5,120.5 Z"/></g>
<g><path style="opacity:1" fill="#f7ad1d" d="M 275.5,125.5 C 275.833,125.5 276.167,125.5 276.5,125.5C 279.347,128.858 278.347,130.691 273.5,131C 268.215,135.929 266.215,142.096 267.5,149.5C 266.582,155.84 265.582,162.173 264.5,168.5C 263.778,168.918 263.278,169.584 263,170.5C 262.5,154.503 262.333,138.503 262.5,122.5C 266.744,123.783 271.078,124.783 275.5,125.5 Z"/></g>
<g><path style="opacity:1" fill="#ab760d" d="M 295.5,97.5 C 298.355,98.1168 301.022,99.1168 303.5,100.5C 304.465,114.118 304.798,127.784 304.5,141.5C 303.168,143.132 301.835,144.799 300.5,146.5C 298.694,144.392 296.527,142.726 294,141.5C 293.661,144.683 292.328,147.35 290,149.5C 289.817,152.365 289.317,155.031 288.5,157.5C 288.5,156.167 288.5,154.833 288.5,153.5C 288.46,150.119 288.793,146.786 289.5,143.5C 290.686,138.652 291.686,133.652 292.5,128.5C 294.884,128.557 297.218,128.223 299.5,127.5C 300.672,127.919 301.672,128.585 302.5,129.5C 303.497,122.197 303.831,114.863 303.5,107.5C 303.768,105.901 303.434,104.568 302.5,103.5C 300.754,100.808 298.421,98.8085 295.5,97.5 Z"/></g>
<g><path style="opacity:0.996" fill="#4569aa" d="M 357.5,153.5 C 356.017,150.567 354.683,147.567 353.5,144.5C 352.699,142.958 352.366,141.292 352.5,139.5C 351.889,133.108 350.555,133.108 348.5,139.5C 346.64,140.26 344.973,141.26 343.5,142.5C 344.854,138.968 346.854,135.802 349.5,133C 347.833,132.333 346.167,132.333 344.5,133C 341.673,134.664 338.673,135.83 335.5,136.5C 335.5,135.167 335.5,133.833 335.5,132.5C 339.737,134.256 343.237,133.256 346,129.5C 347.667,130.833 349.333,130.833 351,129.5C 352.333,131.167 353.667,132.833 355,134.5C 356.884,140.669 357.718,147.002 357.5,153.5 Z"/></g>
<g><path style="opacity:1" fill="#4663a1" d="M 325.5,136.5 C 328.833,136.5 332.167,136.5 335.5,136.5C 329.967,138.453 324.633,140.786 319.5,143.5C 317.173,143.247 315.173,143.914 313.5,145.5C 314.763,147.029 315.763,148.695 316.5,150.5C 313.327,149.83 310.327,148.664 307.5,147C 306.549,146.282 306.383,145.449 307,144.5C 312.998,141.417 319.165,138.75 325.5,136.5 Z"/></g>
<g><path style="opacity:1" fill="#bd830e" d="M 276.5,125.5 C 278.027,125.427 279.027,126.094 279.5,127.5C 279.5,132.833 279.5,138.167 279.5,143.5C 278.549,144.919 278.216,146.585 278.5,148.5C 277.542,148.953 276.708,149.619 276,150.5C 275.059,148.939 273.892,147.605 272.5,146.5C 271.606,149.436 269.939,150.436 267.5,149.5C 266.215,142.096 268.215,135.929 273.5,131C 278.347,130.691 279.347,128.858 276.5,125.5 Z"/></g>
<g><path style="opacity:1" fill="#a1ddf6" d="M 332.5,151.5 C 330.425,151.698 328.425,151.865 326.5,152C 327.075,149.859 327.408,147.359 327.5,144.5C 327.11,142.61 328.11,141.11 330.5,140C 333.861,139.663 337.194,139.163 340.5,138.5C 341.167,138.833 341.833,139.167 342.5,139.5C 340.102,144.305 336.769,148.305 332.5,151.5 Z"/></g>
<g><path style="opacity:1" fill="#9bd3f8" d="M 343.5,142.5 C 338.104,148.291 333.437,154.624 329.5,161.5C 328.833,161.833 328.167,162.167 327.5,162.5C 327.5,161.5 327.5,160.5 327.5,159.5C 328.664,156.502 330.331,153.835 332.5,151.5C 336.769,148.305 340.102,144.305 342.5,139.5C 341.833,139.167 341.167,138.833 340.5,138.5C 337.194,139.163 333.861,139.663 330.5,140C 328.11,141.11 327.11,142.61 327.5,144.5C 325.23,150.519 323.563,150.519 322.5,144.5C 321.583,143.873 320.583,143.539 319.5,143.5C 324.633,140.786 329.967,138.453 335.5,136.5C 338.673,135.83 341.673,134.664 344.5,133C 346.167,132.333 347.833,132.333 349.5,133C 346.854,135.802 344.854,138.968 343.5,142.5 Z"/></g>
<g><path style="opacity:0.224" fill="#704c23" d="M 303.5,100.5 C 304.117,100.611 304.617,100.944 305,101.5C 305.667,124.167 305.667,146.833 305,169.5C 301.936,174.066 298.102,177.733 293.5,180.5C 295.116,178.584 294.782,177.084 292.5,176C 294.473,175.505 296.473,175.338 298.5,175.5C 298.5,174.167 298.5,172.833 298.5,171.5C 299.5,171.5 300.5,171.5 301.5,171.5C 301.461,169.641 302.294,168.308 304,167.5C 304.5,159.507 304.666,151.507 304.5,143.5C 304.5,142.833 304.5,142.167 304.5,141.5C 304.798,127.784 304.465,114.118 303.5,100.5 Z"/></g>
<g><path style="opacity:0.749" fill="#c89144" d="M 241.5,143.5 C 246.257,145.043 250.924,146.876 255.5,149C 256.23,151.154 256.897,153.321 257.5,155.5C 256.833,160.833 256.167,166.167 255.5,171.5C 255.825,164.313 255.491,157.313 254.5,150.5C 250.571,149.13 246.571,147.63 242.5,146C 241.748,145.329 241.414,144.496 241.5,143.5 Z"/></g>
<g><path style="opacity:1" fill="#92d3f4" d="M 319.5,143.5 C 320.583,143.539 321.583,143.873 322.5,144.5C 323.563,150.519 325.23,150.519 327.5,144.5C 327.408,147.359 327.075,149.859 326.5,152C 328.425,151.865 330.425,151.698 332.5,151.5C 330.331,153.835 328.664,156.502 327.5,159.5C 326.115,158.426 324.949,157.093 324,155.5C 322.538,157.148 320.705,158.148 318.5,158.5C 319.623,156.021 319.623,153.688 318.5,151.5C 317.508,151.672 316.842,151.338 316.5,150.5C 315.763,148.695 314.763,147.029 313.5,145.5C 315.173,143.914 317.173,143.247 319.5,143.5 Z"/></g>
<g><path style="opacity:1" fill="#996b05" d="M 304.5,141.5 C 304.5,142.167 304.5,142.833 304.5,143.5C 303.923,150.093 303.089,156.76 302,163.5C 300.776,160.527 298.776,159.86 296,161.5C 295.29,160.027 294.124,159.36 292.5,159.5C 292.607,148.978 291.773,148.978 290,159.5C 289.617,160.056 289.117,160.389 288.5,160.5C 288.5,159.5 288.5,158.5 288.5,157.5C 289.317,155.031 289.817,152.365 290,149.5C 292.328,147.35 293.661,144.683 294,141.5C 296.527,142.726 298.694,144.392 300.5,146.5C 301.835,144.799 303.168,143.132 304.5,141.5 Z"/></g>
<g><path style="opacity:1" fill="#2d377a" d="M 352.5,139.5 C 352.366,141.292 352.699,142.958 353.5,144.5C 353.5,148.5 353.5,152.5 353.5,156.5C 350.761,156.707 348.427,157.707 346.5,159.5C 345.833,159.167 345.167,158.833 344.5,158.5C 345.374,156.253 345.708,153.92 345.5,151.5C 346.5,151.5 347.5,151.5 348.5,151.5C 348.5,149.167 348.5,146.833 348.5,144.5C 349.145,142.174 350.478,140.507 352.5,139.5 Z"/></g>
<g><path style="opacity:1" fill="#ae7707" d="M 278.5,148.5 C 278.5,152.833 278.5,157.167 278.5,161.5C 275.722,161.978 273.722,160.978 272.5,158.5C 271.914,158.709 271.414,159.043 271,159.5C 270.333,158.167 269.667,156.833 269,155.5C 267.324,161.239 265.824,166.905 264.5,172.5C 264.5,171.167 264.5,169.833 264.5,168.5C 265.582,162.173 266.582,155.84 267.5,149.5C 269.939,150.436 271.606,149.436 272.5,146.5C 273.892,147.605 275.059,148.939 276,150.5C 276.708,149.619 277.542,148.953 278.5,148.5 Z"/></g>
<g><path style="opacity:1" fill="#85d2f6" d="M 327.5,159.5 C 327.5,160.5 327.5,161.5 327.5,162.5C 324.406,167.022 321.073,171.356 317.5,175.5C 315.486,175.392 313.82,176.058 312.5,177.5C 311.071,176.766 310.071,175.599 309.5,174C 309.833,173.5 310.167,173 310.5,172.5C 311.167,173.5 311.833,174.5 312.5,175.5C 313.167,173.167 313.833,170.833 314.5,168.5C 315.251,169.376 315.751,170.376 316,171.5C 317.109,167.281 318.609,163.281 320.5,159.5C 318.599,159.754 317.933,159.42 318.5,158.5C 320.705,158.148 322.538,157.148 324,155.5C 324.949,157.093 326.115,158.426 327.5,159.5 Z"/></g>
<g><path style="opacity:1" fill="#314387" d="M 348.5,144.5 C 348.5,146.833 348.5,149.167 348.5,151.5C 347.5,151.5 346.5,151.5 345.5,151.5C 345.708,153.92 345.374,156.253 344.5,158.5C 345.167,158.833 345.833,159.167 346.5,159.5C 348.427,157.707 350.761,156.707 353.5,156.5C 353.5,152.5 353.5,148.5 353.5,144.5C 354.683,147.567 356.017,150.567 357.5,153.5C 358.052,157.035 359.218,160.368 361,163.5C 360.836,158.836 360.336,154.169 359.5,149.5C 361.463,155.239 362.796,161.239 363.5,167.5C 363.819,169.75 363.319,171.75 362,173.5C 360.902,172.033 359.402,171.199 357.5,171C 357.833,170.667 358.167,170.333 358.5,170C 357.376,169.751 356.376,169.251 355.5,168.5C 356.747,166.677 357.414,164.677 357.5,162.5C 354.833,162.833 352.167,163.167 349.5,163.5C 347.418,163.472 345.584,164.139 344,165.5C 342.334,164.66 342.167,165.16 343.5,167C 341.833,167.833 340.167,168.667 338.5,169.5C 337.534,167.604 337.201,165.604 337.5,163.5C 341.356,157.251 345.023,150.917 348.5,144.5 Z"/></g>
<g><path style="opacity:1" fill="#f3ac23" d="M 240.5,143.5 C 240.833,143.5 241.167,143.5 241.5,143.5C 241.414,144.496 241.748,145.329 242.5,146C 246.571,147.63 250.571,149.13 254.5,150.5C 254.663,152.857 254.497,155.19 254,157.5C 252,154.833 250,154.833 248,157.5C 247.174,155.595 246.007,155.261 244.5,156.5C 243.079,160.028 242.412,163.694 242.5,167.5C 241.496,172.842 240.496,178.175 239.5,183.5C 238.527,185.948 238.194,188.615 238.5,191.5C 238.167,191.5 237.833,191.5 237.5,191.5C 237.5,175.5 237.5,159.5 237.5,143.5C 238.5,143.5 239.5,143.5 240.5,143.5 Z"/></g>
<g><path style="opacity:0.85" fill="#e8a83c" d="M 265.5,120.5 C 269.183,121.675 272.516,123.341 275.5,125.5C 271.078,124.783 266.744,123.783 262.5,122.5C 262.333,138.503 262.5,154.503 263,170.5C 263.278,169.584 263.778,168.918 264.5,168.5C 264.5,169.833 264.5,171.167 264.5,172.5C 264.007,174.806 263.674,177.139 263.5,179.5C 262.883,179.611 262.383,179.944 262,180.5C 261.5,160.503 261.333,140.503 261.5,120.5C 262.833,120.5 264.167,120.5 265.5,120.5 Z"/></g>
<g><path style="opacity:0.995" fill="#343f83" d="M 363.5,167.5 C 365.358,169.774 365.691,172.274 364.5,175C 360.168,173.926 356.001,172.093 352,169.5C 349.252,172.734 346.752,176.068 344.5,179.5C 345.167,176.833 345.833,174.167 346.5,171.5C 347.16,168.684 348.16,166.017 349.5,163.5C 352.167,163.167 354.833,162.833 357.5,162.5C 357.414,164.677 356.747,166.677 355.5,168.5C 356.376,169.251 357.376,169.751 358.5,170C 358.167,170.333 357.833,170.667 357.5,171C 359.402,171.199 360.902,172.033 362,173.5C 363.319,171.75 363.819,169.75 363.5,167.5 Z"/></g>
<g><path style="opacity:1" fill="#9f6e06" d="M 279.5,143.5 C 279.658,153.191 279.325,162.857 278.5,172.5C 276.219,174.428 273.553,175.428 270.5,175.5C 269.374,165.345 268.04,165.179 266.5,175C 265.449,176.577 264.449,178.077 263.5,179.5C 263.674,177.139 264.007,174.806 264.5,172.5C 265.824,166.905 267.324,161.239 269,155.5C 269.667,156.833 270.333,158.167 271,159.5C 271.414,159.043 271.914,158.709 272.5,158.5C 273.722,160.978 275.722,161.978 278.5,161.5C 278.5,157.167 278.5,152.833 278.5,148.5C 278.216,146.585 278.549,144.919 279.5,143.5 Z"/></g>
<g><path style="opacity:1" fill="#8e6206" d="M 304.5,143.5 C 304.666,151.507 304.5,159.507 304,167.5C 302.294,168.308 301.461,169.641 301.5,171.5C 300.5,171.5 299.5,171.5 298.5,171.5C 294.967,169.489 291.467,169.823 288,172.5C 287.667,174.833 287.333,177.167 287,179.5C 286.536,178.906 286.369,178.239 286.5,177.5C 286.732,171.738 287.399,166.072 288.5,160.5C 289.117,160.389 289.617,160.056 290,159.5C 291.773,148.978 292.607,148.978 292.5,159.5C 294.124,159.36 295.29,160.027 296,161.5C 298.776,159.86 300.776,160.527 302,163.5C 303.089,156.76 303.923,150.093 304.5,143.5 Z"/></g>
<g><path style="opacity:1" fill="#4167ad" d="M 352.5,139.5 C 350.478,140.507 349.145,142.174 348.5,144.5C 345.023,150.917 341.356,157.251 337.5,163.5C 336.101,165.942 334.434,168.276 332.5,170.5C 331.754,171.736 331.421,173.07 331.5,174.5C 328.865,175.473 326.865,177.14 325.5,179.5C 325.5,178.167 325.5,176.833 325.5,175.5C 325.338,173.473 325.505,171.473 326,169.5C 327.454,166.929 328.62,164.262 329.5,161.5C 333.437,154.624 338.104,148.291 343.5,142.5C 344.973,141.26 346.64,140.26 348.5,139.5C 350.555,133.108 351.889,133.108 352.5,139.5 Z"/></g>
<g><path style="opacity:1" fill="#d59314" d="M 254.5,150.5 C 255.491,157.313 255.825,164.313 255.5,171.5C 255.5,172.167 255.5,172.833 255.5,173.5C 255.167,173.5 254.833,173.5 254.5,173.5C 251.217,171.783 248.05,169.116 245,165.5C 244.292,166.381 243.458,167.047 242.5,167.5C 242.412,163.694 243.079,160.028 244.5,156.5C 246.007,155.261 247.174,155.595 248,157.5C 250,154.833 252,154.833 254,157.5C 254.497,155.19 254.663,152.857 254.5,150.5 Z"/></g>
<g><path style="opacity:1" fill="#32478d" d="M 337.5,163.5 C 337.201,165.604 337.534,167.604 338.5,169.5C 340.167,168.667 341.833,167.833 343.5,167C 342.167,165.16 342.334,164.66 344,165.5C 345.584,164.139 347.418,163.472 349.5,163.5C 348.16,166.017 347.16,168.684 346.5,171.5C 344.797,170.34 344.131,171.007 344.5,173.5C 342.473,173.338 340.473,173.505 338.5,174C 337.748,174.671 337.414,175.504 337.5,176.5C 336.312,177.048 335.145,177.381 334,177.5C 332.583,176.922 331.75,175.922 331.5,174.5C 331.421,173.07 331.754,171.736 332.5,170.5C 334.434,168.276 336.101,165.942 337.5,163.5 Z"/></g>
<g><path style="opacity:1" fill="#815a09" d="M 298.5,171.5 C 298.5,172.833 298.5,174.167 298.5,175.5C 296.473,175.338 294.473,175.505 292.5,176C 294.782,177.084 295.116,178.584 293.5,180.5C 292.833,181.833 291.833,182.833 290.5,183.5C 288.833,183.5 287.167,183.5 285.5,183.5C 285.5,181.5 285.5,179.5 285.5,177.5C 285.833,177.5 286.167,177.5 286.5,177.5C 286.369,178.239 286.536,178.906 287,179.5C 287.333,177.167 287.667,174.833 288,172.5C 291.467,169.823 294.967,169.489 298.5,171.5 Z"/></g>
<g><path style="opacity:1" fill="#926504" d="M 278.5,172.5 C 278.5,175.5 278.5,178.5 278.5,181.5C 275.86,179.992 273.527,180.326 271.5,182.5C 270.692,180.577 270.192,178.577 270,176.5C 269.667,178.167 269.333,179.833 269,181.5C 268.309,179.109 267.309,179.109 266,181.5C 265.667,181.167 265.333,180.833 265,180.5C 264.768,181.737 264.268,182.737 263.5,183.5C 263.5,182.167 263.5,180.833 263.5,179.5C 264.449,178.077 265.449,176.577 266.5,175C 268.04,165.179 269.374,165.345 270.5,175.5C 273.553,175.428 276.219,174.428 278.5,172.5 Z"/></g>
<g><path style="opacity:1" fill="#7ccaed" d="M 318.5,151.5 C 319.623,153.688 319.623,156.021 318.5,158.5C 317.933,159.42 318.599,159.754 320.5,159.5C 318.609,163.281 317.109,167.281 316,171.5C 315.751,170.376 315.251,169.376 314.5,168.5C 313.833,170.833 313.167,173.167 312.5,175.5C 311.833,174.5 311.167,173.5 310.5,172.5C 310.167,173 309.833,173.5 309.5,174C 310.071,175.599 311.071,176.766 312.5,177.5C 310.787,178.635 310.12,180.302 310.5,182.5C 308.395,183.991 306.228,184.658 304,184.5C 303.383,183.551 303.549,182.718 304.5,182C 301.904,181.542 299.737,182.375 298,184.5C 298.134,182.811 298.634,181.144 299.5,179.5C 302.787,175.041 306.287,170.708 310,166.5C 313.364,161.77 316.197,156.77 318.5,151.5 Z"/></g>
<g><path style="opacity:1" fill="#374a8b" d="M 346.5,171.5 C 345.833,174.167 345.167,176.833 344.5,179.5C 340.635,185.24 336.302,190.573 331.5,195.5C 330.566,193.761 330.566,192.095 331.5,190.5C 332.167,190.833 332.833,191.167 333.5,191.5C 334.318,189.892 334.985,188.225 335.5,186.5C 337.401,185.455 339.067,184.122 340.5,182.5C 339.757,181.818 339.091,181.151 338.5,180.5C 338.167,179.167 337.833,177.833 337.5,176.5C 337.414,175.504 337.748,174.671 338.5,174C 340.473,173.505 342.473,173.338 344.5,173.5C 344.131,171.007 344.797,170.34 346.5,171.5 Z"/></g>
<g><path style="opacity:0.358" fill="#b48754" d="M 240.5,143.5 C 239.5,143.5 238.5,143.5 237.5,143.5C 237.5,159.5 237.5,175.5 237.5,191.5C 237.261,193.467 237.594,195.301 238.5,197C 237.906,197.464 237.239,197.631 236.5,197.5C 236.5,179.167 236.5,160.833 236.5,142.5C 238.099,142.232 239.432,142.566 240.5,143.5 Z"/></g>
<g><path style="opacity:1" fill="#bd820a" d="M 254.5,173.5 C 254.664,176.187 254.497,178.854 254,181.5C 250.081,179.916 247.081,177.25 245,173.5C 242.121,176.344 240.288,179.678 239.5,183.5C 240.496,178.175 241.496,172.842 242.5,167.5C 243.458,167.047 244.292,166.381 245,165.5C 248.05,169.116 251.217,171.783 254.5,173.5 Z"/></g>
<g><path style="opacity:0.986" fill="#2585c5" d="M 218.5,170.5 C 218.414,171.496 218.748,172.329 219.5,173C 221.5,173.667 223.5,174.333 225.5,175C 222.397,176.281 219.731,178.114 217.5,180.5C 218.325,181.386 219.325,181.719 220.5,181.5C 218.535,184.478 215.868,186.478 212.5,187.5C 212.604,185.297 213.27,183.297 214.5,181.5C 215.404,180.791 215.737,179.791 215.5,178.5C 214.178,178.67 213.011,178.337 212,177.5C 211.51,178.793 211.343,180.127 211.5,181.5C 209.799,181.034 208.299,181.034 207,181.5C 206.536,180.906 206.369,180.239 206.5,179.5C 209.379,175.055 213.379,172.055 218.5,170.5 Z"/></g>
<g><path style="opacity:0.953" fill="#1f93d1" d="M 232.5,169.5 C 231.527,171.948 231.194,174.615 231.5,177.5C 227.831,178.838 224.164,180.171 220.5,181.5C 219.325,181.719 218.325,181.386 217.5,180.5C 219.731,178.114 222.397,176.281 225.5,175C 223.5,174.333 221.5,173.667 219.5,173C 218.748,172.329 218.414,171.496 218.5,170.5C 222.497,167.276 227.164,165.61 232.5,165.5C 232.5,166.833 232.5,168.167 232.5,169.5 Z"/></g>
<g><path style="opacity:1" fill="#92681a" d="M 279.5,127.5 C 280.167,127.5 280.5,127.833 280.5,128.5C 280.667,148.169 280.5,167.836 280,187.5C 278.491,189.919 276.325,190.919 273.5,190.5C 273.762,189.022 273.429,187.689 272.5,186.5C 270.866,186.032 269.7,185.032 269,183.5C 267.417,184.971 265.583,185.971 263.5,186.5C 263.5,185.5 263.5,184.5 263.5,183.5C 264.268,182.737 264.768,181.737 265,180.5C 265.333,180.833 265.667,181.167 266,181.5C 267.309,179.109 268.309,179.109 269,181.5C 269.333,179.833 269.667,178.167 270,176.5C 270.192,178.577 270.692,180.577 271.5,182.5C 273.527,180.326 275.86,179.992 278.5,181.5C 278.5,178.5 278.5,175.5 278.5,172.5C 279.325,162.857 279.658,153.191 279.5,143.5C 279.5,138.167 279.5,132.833 279.5,127.5 Z"/></g>
<g><path style="opacity:1" fill="#344e94" d="M 331.5,174.5 C 331.75,175.922 332.583,176.922 334,177.5C 335.145,177.381 336.312,177.048 337.5,176.5C 337.833,177.833 338.167,179.167 338.5,180.5C 337.25,180.577 336.417,181.244 336,182.5C 335.282,181.549 334.449,181.383 333.5,182C 332,183.833 330.5,185.667 329,187.5C 328,186.167 327,186.167 326,187.5C 325.683,185.699 325.016,185.366 324,186.5C 323.517,185.552 323.351,184.552 323.5,183.5C 324.6,182.395 325.267,181.062 325.5,179.5C 326.865,177.14 328.865,175.473 331.5,174.5 Z"/></g>
<g><path style="opacity:0.061" fill="#4b2d17" d="M 280.5,128.5 C 281.663,148.663 281.829,168.996 281,189.5C 275.876,193.488 270.043,195.822 263.5,196.5C 267.428,195.37 270.762,193.37 273.5,190.5C 276.325,190.919 278.491,189.919 280,187.5C 280.5,167.836 280.667,148.169 280.5,128.5 Z"/></g>
<g><path style="opacity:1" fill="#65c1ee" d="M 317.5,175.5 C 311.842,182.491 305.842,189.157 299.5,195.5C 295.636,198.347 291.636,201.014 287.5,203.5C 287.297,201.61 287.963,200.11 289.5,199C 296.84,197.478 298.34,193.645 294,187.5C 290.348,191.663 285.848,194.33 280.5,195.5C 286.808,190.196 293.142,184.863 299.5,179.5C 298.634,181.144 298.134,182.811 298,184.5C 299.737,182.375 301.904,181.542 304.5,182C 303.549,182.718 303.383,183.551 304,184.5C 306.228,184.658 308.395,183.991 310.5,182.5C 310.12,180.302 310.787,178.635 312.5,177.5C 313.82,176.058 315.486,175.392 317.5,175.5 Z"/></g>
<g><path style="opacity:1" fill="#3d71b1" d="M 329.5,161.5 C 328.62,164.262 327.454,166.929 326,169.5C 325.505,171.473 325.338,173.473 325.5,175.5C 324.25,175.423 323.417,174.756 323,173.5C 322,174.167 321,174.833 320,175.5C 319.619,179.652 317.453,181.985 313.5,182.5C 313.379,186.127 311.545,188.46 308,189.5C 307.517,190.448 307.351,191.448 307.5,192.5C 305.381,192.468 304.048,193.468 303.5,195.5C 302.167,195.5 300.833,195.5 299.5,195.5C 305.842,189.157 311.842,182.491 317.5,175.5C 321.073,171.356 324.406,167.022 327.5,162.5C 328.167,162.167 328.833,161.833 329.5,161.5 Z"/></g>
<g><path style="opacity:1" fill="#3f66ae" d="M 325.5,175.5 C 325.5,176.833 325.5,178.167 325.5,179.5C 325.267,181.062 324.6,182.395 323.5,183.5C 321.273,185.607 319.273,187.94 317.5,190.5C 312.887,194.11 308.553,198.11 304.5,202.5C 304.244,200.208 304.577,198.041 305.5,196C 304.906,195.536 304.239,195.369 303.5,195.5C 304.048,193.468 305.381,192.468 307.5,192.5C 307.351,191.448 307.517,190.448 308,189.5C 311.545,188.46 313.379,186.127 313.5,182.5C 317.453,181.985 319.619,179.652 320,175.5C 321,174.833 322,174.167 323,173.5C 323.417,174.756 324.25,175.423 325.5,175.5 Z"/></g>
<g><path style="opacity:1" fill="#a8740a" d="M 254.5,173.5 C 254.833,173.5 255.167,173.5 255.5,173.5C 255.857,181.313 255.857,189.313 255.5,197.5C 251.729,198.226 249.063,196.893 247.5,193.5C 247.709,192.914 248.043,192.414 248.5,192C 245.758,190.93 243.258,189.43 241,187.5C 240.066,188.858 239.232,190.192 238.5,191.5C 238.194,188.615 238.527,185.948 239.5,183.5C 240.288,179.678 242.121,176.344 245,173.5C 247.081,177.25 250.081,179.916 254,181.5C 254.497,178.854 254.664,176.187 254.5,173.5 Z"/></g>
<g><path style="opacity:1" fill="#71470e" d="M 259.5,144.5 C 260.331,157.66 260.831,170.994 261,184.5C 261.333,187.167 261.667,189.833 262,192.5C 262.191,190.292 262.691,188.292 263.5,186.5C 265.583,185.971 267.417,184.971 269,183.5C 269.7,185.032 270.866,186.032 272.5,186.5C 273.429,187.689 273.762,189.022 273.5,190.5C 270.762,193.37 267.428,195.37 263.5,196.5C 262.458,197.791 261.292,197.791 260,196.5C 259.5,179.17 259.333,161.837 259.5,144.5 Z"/></g>
<g><path style="opacity:1" fill="#385398" d="M 338.5,180.5 C 339.091,181.151 339.757,181.818 340.5,182.5C 339.067,184.122 337.401,185.455 335.5,186.5C 334.985,188.225 334.318,189.892 333.5,191.5C 332.833,191.167 332.167,190.833 331.5,190.5C 330.566,192.095 330.566,193.761 331.5,195.5C 326.131,201.87 320.131,207.537 313.5,212.5C 312.832,207.839 314.832,205.839 319.5,206.5C 319.5,204.833 319.5,203.167 319.5,201.5C 320.822,201.33 321.989,201.663 323,202.5C 324.122,200.58 324.956,198.58 325.5,196.5C 325.421,195.07 325.754,193.736 326.5,192.5C 324.704,191.859 323.204,190.859 322,189.5C 320.312,190.325 320.145,191.325 321.5,192.5C 314.616,198.218 313.283,197.551 317.5,190.5C 319.273,187.94 321.273,185.607 323.5,183.5C 323.351,184.552 323.517,185.552 324,186.5C 325.016,185.366 325.683,185.699 326,187.5C 327,186.167 328,186.167 329,187.5C 330.5,185.667 332,183.833 333.5,182C 334.449,181.383 335.282,181.549 336,182.5C 336.417,181.244 337.25,180.577 338.5,180.5 Z"/></g>
<g><path style="opacity:1" fill="#3864a8" d="M 232.5,169.5 C 232.665,172.518 232.498,175.518 232,178.5C 228.346,180.663 224.846,182.996 221.5,185.5C 220.178,185.33 219.011,185.663 218,186.5C 215.815,190.858 213.482,195.191 211,199.5C 210.015,197.825 209.181,196.158 208.5,194.5C 209.15,192.565 209.483,190.565 209.5,188.5C 210.366,186.856 210.866,185.189 211,183.5C 203.817,190.868 198.983,199.534 196.5,209.5C 195.105,200.175 196.939,191.509 202,183.5C 203.371,181.959 204.871,180.625 206.5,179.5C 206.369,180.239 206.536,180.906 207,181.5C 208.299,181.034 209.799,181.034 211.5,181.5C 211.343,180.127 211.51,178.793 212,177.5C 213.011,178.337 214.178,178.67 215.5,178.5C 215.737,179.791 215.404,180.791 214.5,181.5C 213.27,183.297 212.604,185.297 212.5,187.5C 215.868,186.478 218.535,184.478 220.5,181.5C 224.164,180.171 227.831,178.838 231.5,177.5C 231.194,174.615 231.527,171.948 232.5,169.5 Z"/></g>
<g><path style="opacity:0.999" fill="#845d15" d="M 257.5,155.5 C 257.575,169.846 257.242,184.179 256.5,198.5C 249.609,200.06 242.942,199.727 236.5,197.5C 237.239,197.631 237.906,197.464 238.5,197C 237.594,195.301 237.261,193.467 237.5,191.5C 237.833,191.5 238.167,191.5 238.5,191.5C 239.232,190.192 240.066,188.858 241,187.5C 243.258,189.43 245.758,190.93 248.5,192C 248.043,192.414 247.709,192.914 247.5,193.5C 249.063,196.893 251.729,198.226 255.5,197.5C 255.857,189.313 255.857,181.313 255.5,173.5C 255.5,172.833 255.5,172.167 255.5,171.5C 256.167,166.167 256.833,160.833 257.5,155.5 Z"/></g>
<g><path style="opacity:1" fill="#50c5f1" d="M 287.5,203.5 C 285.952,203.179 285.285,202.179 285.5,200.5C 280.973,201.138 279.306,199.471 280.5,195.5C 285.848,194.33 290.348,191.663 294,187.5C 298.34,193.645 296.84,197.478 289.5,199C 287.963,200.11 287.297,201.61 287.5,203.5 Z"/></g>
<g><path style="opacity:1" fill="#395aa2" d="M 325.5,196.5 C 318.571,200.535 311.237,204.201 303.5,207.5C 302.438,206.575 302.438,205.575 303.5,204.5C 303.833,203.833 304.167,203.167 304.5,202.5C 308.553,198.11 312.887,194.11 317.5,190.5C 313.283,197.551 314.616,198.218 321.5,192.5C 320.145,191.325 320.312,190.325 322,189.5C 323.204,190.859 324.704,191.859 326.5,192.5C 325.754,193.736 325.421,195.07 325.5,196.5 Z"/></g>
<g><path style="opacity:1" fill="#3e68b0" d="M 299.5,195.5 C 300.833,195.5 302.167,195.5 303.5,195.5C 304.239,195.369 304.906,195.536 305.5,196C 304.577,198.041 304.244,200.208 304.5,202.5C 304.167,203.167 303.833,203.833 303.5,204.5C 298.864,208.158 294.197,211.825 289.5,215.5C 281.983,219.923 273.983,223.256 265.5,225.5C 264.517,224.15 263.184,223.15 261.5,222.5C 261.833,222.167 262.167,221.833 262.5,221.5C 268.018,220.24 273.685,218.573 279.5,216.5C 277.678,216.537 275.678,216.204 273.5,215.5C 273.47,214.503 273.97,213.836 275,213.5C 280.354,212.096 284.52,209.096 287.5,204.5C 287.5,204.167 287.5,203.833 287.5,203.5C 291.636,201.014 295.636,198.347 299.5,195.5 Z"/></g>
<g><path style="opacity:1" fill="#3c5ea4" d="M 325.5,196.5 C 324.956,198.58 324.122,200.58 323,202.5C 321.989,201.663 320.822,201.33 319.5,201.5C 319.5,203.167 319.5,204.833 319.5,206.5C 314.832,205.839 312.832,207.839 313.5,212.5C 308.103,216.561 302.436,220.227 296.5,223.5C 296.5,222.167 296.5,220.833 296.5,219.5C 300.09,218.892 303.423,217.559 306.5,215.5C 300.869,212.532 295.536,212.866 290.5,216.5C 289.893,216.376 289.56,216.043 289.5,215.5C 294.197,211.825 298.864,208.158 303.5,204.5C 302.438,205.575 302.438,206.575 303.5,207.5C 311.237,204.201 318.571,200.535 325.5,196.5 Z"/></g>
<g><path style="opacity:1" fill="#49b7ea" d="M 280.5,195.5 C 279.306,199.471 280.973,201.138 285.5,200.5C 285.285,202.179 285.952,203.179 287.5,203.5C 287.5,203.833 287.5,204.167 287.5,204.5C 282.251,206.826 276.917,209.159 271.5,211.5C 273.63,209.873 275.63,208.04 277.5,206C 272.778,202.459 267.778,201.625 262.5,203.5C 268.529,201.04 274.529,198.373 280.5,195.5 Z"/></g>
<g><path style="opacity:0.953" fill="#2c3578" d="M 209.5,188.5 C 209.483,190.565 209.15,192.565 208.5,194.5C 208.261,201.809 209.928,208.475 213.5,214.5C 215.422,218.268 217.589,221.935 220,225.5C 223.429,225.809 225.929,227.476 227.5,230.5C 214.476,225.616 207.142,216.116 205.5,202C 206.029,197.133 207.362,192.633 209.5,188.5 Z"/></g>
<g><path style="opacity:1" fill="#36baed" d="M 271.5,211.5 C 271.167,211.5 270.833,211.5 270.5,211.5C 265.421,212.53 260.421,212.364 255.5,211C 256.858,208.248 256.191,207.748 253.5,209.5C 249.862,208.818 246.195,208.318 242.5,208C 241.584,207.722 240.918,207.222 240.5,206.5C 244.702,206.817 248.702,206.483 252.5,205.5C 255.544,203.989 258.878,203.322 262.5,203.5C 267.778,201.625 272.778,202.459 277.5,206C 275.63,208.04 273.63,209.873 271.5,211.5 Z"/></g>
<g><path style="opacity:0.985" fill="#405ea3" d="M 221.5,185.5 C 211.985,199.119 214.652,209.619 229.5,217C 233.404,218.531 237.404,219.198 241.5,219C 239.277,218.434 237.277,217.6 235.5,216.5C 242.493,217.83 249.493,219.163 256.5,220.5C 254.955,221.452 253.288,221.785 251.5,221.5C 245.052,221.769 238.718,221.102 232.5,219.5C 231.707,219.931 230.873,220.265 230,220.5C 228.263,219.38 226.429,218.38 224.5,217.5C 223.119,220.318 224.119,221.818 227.5,222C 226.944,222.383 226.611,222.883 226.5,223.5C 221.332,221.659 216.999,218.659 213.5,214.5C 209.928,208.475 208.261,201.809 208.5,194.5C 209.181,196.158 210.015,197.825 211,199.5C 213.482,195.191 215.815,190.858 218,186.5C 219.011,185.663 220.178,185.33 221.5,185.5 Z"/></g>
<g><path style="opacity:1" fill="#3295d1" d="M 252.5,205.5 C 248.702,206.483 244.702,206.817 240.5,206.5C 237.606,206.958 235.106,206.291 233,204.5C 232.667,204.833 232.333,205.167 232,205.5C 231.751,204.376 231.251,203.376 230.5,202.5C 229.369,204.074 229.202,205.741 230,207.5C 232.696,208.19 234.863,209.69 236.5,212C 239.379,212.546 242.046,213.379 244.5,214.5C 228.63,213.741 223.63,206.075 229.5,191.5C 230.397,190.402 231.23,190.402 232,191.5C 232.684,194.38 232.517,197.213 231.5,200C 232.891,202.873 235.225,204.539 238.5,205C 243.155,205.499 247.821,205.666 252.5,205.5 Z"/></g>
<g><path style="opacity:1" fill="#27b4ef" d="M 240.5,206.5 C 240.918,207.222 241.584,207.722 242.5,208C 246.195,208.318 249.862,208.818 253.5,209.5C 256.191,207.748 256.858,208.248 255.5,211C 260.421,212.364 265.421,212.53 270.5,211.5C 262.17,214.135 253.503,215.135 244.5,214.5C 242.046,213.379 239.379,212.546 236.5,212C 234.863,209.69 232.696,208.19 230,207.5C 229.202,205.741 229.369,204.074 230.5,202.5C 231.251,203.376 231.751,204.376 232,205.5C 232.333,205.167 232.667,204.833 233,204.5C 235.106,206.291 237.606,206.958 240.5,206.5 Z"/></g>
<g><path style="opacity:1" fill="#3e61aa" d="M 296.5,223.5 C 291.405,226.044 286.072,228.044 280.5,229.5C 281.174,227.976 282.174,226.642 283.5,225.5C 282.098,224.158 282.431,223.324 284.5,223C 283.667,222.833 282.833,222.667 282,222.5C 276.763,225.418 270.763,228.085 264,230.5C 263.014,229.829 261.847,229.829 260.5,230.5C 253.661,228.181 246.661,226.848 239.5,226.5C 245.167,226.5 250.833,226.5 256.5,226.5C 259.455,225.841 262.455,225.508 265.5,225.5C 273.983,223.256 281.983,219.923 289.5,215.5C 289.56,216.043 289.893,216.376 290.5,216.5C 295.536,212.866 300.869,212.532 306.5,215.5C 303.423,217.559 300.09,218.892 296.5,219.5C 296.5,220.833 296.5,222.167 296.5,223.5 Z"/></g>
<g><path style="opacity:0.991" fill="#346fb1" d="M 229.5,191.5 C 223.63,206.075 228.63,213.741 244.5,214.5C 253.503,215.135 262.17,214.135 270.5,211.5C 270.833,211.5 271.167,211.5 271.5,211.5C 276.917,209.159 282.251,206.826 287.5,204.5C 284.52,209.096 280.354,212.096 275,213.5C 273.97,213.836 273.47,214.503 273.5,215.5C 271.365,214.034 269.365,214.2 267.5,216C 254.975,217.174 242.642,216.341 230.5,213.5C 225.665,211.526 222.998,207.859 222.5,202.5C 223.193,197.703 225.526,194.036 229.5,191.5 Z"/></g>
<g><path style="opacity:1" fill="#3f67ac" d="M 230.5,213.5 C 242.642,216.341 254.975,217.174 267.5,216C 269.365,214.2 271.365,214.034 273.5,215.5C 275.678,216.204 277.678,216.537 279.5,216.5C 273.685,218.573 268.018,220.24 262.5,221.5C 262.167,221.833 261.833,222.167 261.5,222.5C 263.184,223.15 264.517,224.15 265.5,225.5C 262.455,225.508 259.455,225.841 256.5,226.5C 254.52,224.895 252.187,223.728 249.5,223C 250.416,222.722 251.082,222.222 251.5,221.5C 253.288,221.785 254.955,221.452 256.5,220.5C 249.493,219.163 242.493,217.83 235.5,216.5C 233.566,215.89 231.899,214.89 230.5,213.5 Z"/></g>
<g><path style="opacity:1" fill="#2d2d6f" d="M 328.5,225.5 C 327.504,225.414 326.671,225.748 326,226.5C 322.972,221.093 321.805,221.76 322.5,228.5C 319.007,225.654 316.674,221.987 315.5,217.5C 316.049,212.915 318.382,211.248 322.5,212.5C 324.785,216.735 326.785,221.069 328.5,225.5 Z"/></g>
<g><path style="opacity:1" fill="#4167ae" d="M 251.5,221.5 C 251.082,222.222 250.416,222.722 249.5,223C 252.187,223.728 254.52,224.895 256.5,226.5C 250.833,226.5 245.167,226.5 239.5,226.5C 235.319,225.34 230.985,224.34 226.5,223.5C 226.611,222.883 226.944,222.383 227.5,222C 224.119,221.818 223.119,220.318 224.5,217.5C 226.429,218.38 228.263,219.38 230,220.5C 230.873,220.265 231.707,219.931 232.5,219.5C 238.718,221.102 245.052,221.769 251.5,221.5 Z"/></g>
<g><path style="opacity:0.994" fill="#324084" d="M 213.5,214.5 C 216.999,218.659 221.332,221.659 226.5,223.5C 226.586,224.496 226.252,225.329 225.5,226C 236.974,232.449 249.307,234.949 262.5,233.5C 250.556,236.347 238.889,235.347 227.5,230.5C 225.929,227.476 223.429,225.809 220,225.5C 217.589,221.935 215.422,218.268 213.5,214.5 Z"/></g>
<g><path style="opacity:1" fill="#3f64aa" d="M 280.5,229.5 C 272.511,231.092 264.344,232.092 256,232.5C 253.167,232.333 250.333,232.167 247.5,232C 252.019,231.825 256.353,231.325 260.5,230.5C 261.847,229.829 263.014,229.829 264,230.5C 270.763,228.085 276.763,225.418 282,222.5C 282.833,222.667 283.667,222.833 284.5,223C 282.431,223.324 282.098,224.158 283.5,225.5C 282.174,226.642 281.174,227.976 280.5,229.5 Z"/></g>
<g><path style="opacity:1" fill="#3a579d" d="M 226.5,223.5 C 230.985,224.34 235.319,225.34 239.5,226.5C 246.661,226.848 253.661,228.181 260.5,230.5C 256.353,231.325 252.019,231.825 247.5,232C 250.333,232.167 253.167,232.333 256,232.5C 264.344,232.092 272.511,231.092 280.5,229.5C 274.931,232.233 268.931,233.566 262.5,233.5C 249.307,234.949 236.974,232.449 225.5,226C 226.252,225.329 226.586,224.496 226.5,223.5 Z"/></g>
<g><path style="opacity:0.62" fill="#523930" d="M 296.5,237.5 C 296.631,236.624 296.298,235.957 295.5,235.5C 293.929,236.309 292.262,236.643 290.5,236.5C 294.705,233.475 299.205,230.808 304,228.5C 305.257,228.85 305.591,229.517 305,230.5C 302.564,233.447 299.731,235.78 296.5,237.5 Z"/></g>
<g><path style="opacity:0.424" fill="#3c4484" d="M 328.5,225.5 C 330.882,230.444 332.882,235.611 334.5,241C 334.37,242.059 333.87,242.892 333,243.5C 329.01,238.858 325.51,233.858 322.5,228.5C 321.805,221.76 322.972,221.093 326,226.5C 326.671,225.748 327.504,225.414 328.5,225.5 Z"/></g>
<g><path style="opacity:0.537" fill="#906b49" d="M 213.5,239.5 C 212.07,239.579 210.736,239.246 209.5,238.5C 208.913,239.233 208.913,240.233 209.5,241.5C 207.133,240.129 205.467,238.129 204.5,235.5C 205.723,234.386 207.056,234.219 208.5,235C 210.063,236.736 211.73,238.236 213.5,239.5 Z"/></g>
<g><path style="opacity:0.973" fill="#785722" d="M 296.5,237.5 C 294.996,239.836 292.996,241.669 290.5,243C 286.131,245.885 281.464,248.051 276.5,249.5C 278.327,248.068 279.994,246.401 281.5,244.5C 277.963,244.218 274.296,244.218 270.5,244.5C 277.193,242.043 283.86,239.377 290.5,236.5C 292.262,236.643 293.929,236.309 295.5,235.5C 296.298,235.957 296.631,236.624 296.5,237.5 Z"/></g>
<g><path style="opacity:1" fill="#d59629" d="M 213.5,239.5 C 215.525,241.075 217.525,242.908 219.5,245C 232.212,248.714 245.212,250.214 258.5,249.5C 258.635,251.554 257.968,253.221 256.5,254.5C 255.833,254.5 255.5,254.833 255.5,255.5C 242.099,257.921 229.432,255.755 217.5,249C 214.334,247 211.668,244.5 209.5,241.5C 208.913,240.233 208.913,239.233 209.5,238.5C 210.736,239.246 212.07,239.579 213.5,239.5 Z"/></g>
<g><path style="opacity:1" fill="#9a6b22" d="M 276.5,249.5 C 270.09,253.189 263.09,255.189 255.5,255.5C 255.5,254.833 255.833,254.5 256.5,254.5C 259.012,254.577 261.012,253.577 262.5,251.5C 262.291,250.914 261.957,250.414 261.5,250C 264.179,249.566 266.846,249.732 269.5,250.5C 271.921,250.771 272.587,250.105 271.5,248.5C 261.049,248.651 250.715,248.318 240.5,247.5C 250.616,247.422 260.616,246.422 270.5,244.5C 274.296,244.218 277.963,244.218 281.5,244.5C 279.994,246.401 278.327,248.068 276.5,249.5 Z"/></g>
<g><path style="opacity:1" fill="#b47f28" d="M 213.5,239.5 C 221.972,243.869 230.972,246.536 240.5,247.5C 250.715,248.318 261.049,248.651 271.5,248.5C 272.587,250.105 271.921,250.771 269.5,250.5C 266.846,249.732 264.179,249.566 261.5,250C 261.957,250.414 262.291,250.914 262.5,251.5C 261.012,253.577 259.012,254.577 256.5,254.5C 257.968,253.221 258.635,251.554 258.5,249.5C 245.212,250.214 232.212,248.714 219.5,245C 217.525,242.908 215.525,241.075 213.5,239.5 Z"/></g>
<g><path style="opacity:0.903" fill="#ded6e6" d="M 242.5,294.5 C 245.518,294.335 248.518,294.502 251.5,295C 252.821,296.545 252.488,297.711 250.5,298.5C 249.741,301.157 249.074,303.823 248.5,306.5C 247.311,307.429 245.978,307.762 244.5,307.5C 245.192,303.279 244.192,299.613 241.5,296.5C 241.863,295.817 242.196,295.15 242.5,294.5 Z"/></g>
<g><path style="opacity:0.864" fill="#bcb3c7" d="M 299.5,299.5 C 299.646,297.058 298.813,296.391 297,297.5C 295.798,299.677 295.298,302.011 295.5,304.5C 293.119,297.368 295.785,294.201 303.5,295C 305.158,295.725 305.658,296.892 305,298.5C 303.081,299.074 301.247,299.407 299.5,299.5 Z"/></g>
<g><path style="opacity:0.898" fill="#cbc4d4" d="M 220.5,294.5 C 224.007,293.994 227.174,294.66 230,296.5C 229.591,300.208 229.758,303.875 230.5,307.5C 226.91,306.616 223.41,306.283 220,306.5C 219.238,302.413 219.404,298.413 220.5,294.5 Z"/></g>
<g><path style="opacity:0.475" fill="#b5adc3" d="M 338.5,294.5 C 340.144,294.286 341.644,294.62 343,295.5C 343.667,299.167 343.667,302.833 343,306.5C 341.333,307.833 339.667,307.833 338,306.5C 337.238,302.413 337.404,298.413 338.5,294.5 Z"/></g>
<g><path style="opacity:0.208" fill="#9d92ad" d="M 347.5,294.5 C 350.833,294.5 354.167,294.5 357.5,294.5C 357.293,297.239 356.293,299.573 354.5,301.5C 355.353,303.403 355.353,305.403 354.5,307.5C 352.833,307.5 351.167,307.5 349.5,307.5C 350.192,303.279 349.192,299.613 346.5,296.5C 346.863,295.817 347.196,295.15 347.5,294.5 Z"/></g>
<g><path style="opacity:0.955" fill="#e7e0ef" d="M 383.5,304.5 C 381.365,306.369 378.698,307.036 375.5,306.5C 375.5,302.833 375.5,299.167 375.5,295.5C 376.542,294.209 377.708,294.209 379,295.5C 379.333,297.833 379.667,300.167 380,302.5C 381.302,303.085 382.469,303.751 383.5,304.5 Z"/></g>
<g><path style="opacity:0.853" fill="#ddd7e4" d="M 369.5,300.5 C 369.785,302.288 369.452,303.955 368.5,305.5C 367.158,303.995 365.492,303.328 363.5,303.5C 363.5,304.5 363.5,305.5 363.5,306.5C 362.448,306.649 361.448,306.483 360.5,306C 361.61,302.951 362.277,299.784 362.5,296.5C 367.016,293.297 369.349,294.63 369.5,300.5 Z"/></g>
<g><path style="opacity:0.451" fill="#a295b9" d="M 214.5,295.5 C 215.33,299.238 215.664,303.238 215.5,307.5C 212.482,307.665 209.482,307.498 206.5,307C 205.167,303 205.167,299 206.5,295C 209.367,294.199 212.034,294.366 214.5,295.5 Z"/></g>
<g><path style="opacity:0.92" fill="#f1ecf4" d="M 214.5,295.5 C 212.664,298.564 212.664,301.897 214.5,305.5C 212.257,306.474 209.924,306.808 207.5,306.5C 207.5,302.833 207.5,299.167 207.5,295.5C 209.833,295.5 212.167,295.5 214.5,295.5 Z"/></g>
<g><path style="opacity:0.961" fill="#d4ccdc" d="M 272.5,294.5 C 275.747,295.428 278.913,295.762 282,295.5C 282.499,299.486 282.666,303.486 282.5,307.5C 280.234,307.859 278.401,307.192 277,305.5C 275.604,307.527 273.938,307.86 272,306.5C 271.238,302.413 271.404,298.413 272.5,294.5 Z"/></g>
<g><path style="opacity:0.741" fill="#b8aec4" d="M 324.5,295.5 C 324.5,299.167 324.5,302.833 324.5,306.5C 325.5,306.5 326.5,306.5 327.5,306.5C 327.5,303.5 327.5,300.5 327.5,297.5C 328.5,297.5 329.5,297.5 330.5,297.5C 330.238,298.978 330.571,300.311 331.5,301.5C 332.466,299.604 332.799,297.604 332.5,295.5C 334.441,297.011 334.941,299.011 334,301.5C 332.556,303.155 330.722,303.822 328.5,303.5C 328.5,304.833 328.5,306.167 328.5,307.5C 326.234,307.859 324.401,307.192 323,305.5C 322.904,301.999 323.404,298.666 324.5,295.5 Z"/></g>
<g><path style="opacity:0.204" fill="#b8afc6" d="M 171.5,295.5 C 173.253,298.968 173.587,302.635 172.5,306.5C 164.447,309.092 161.114,306.425 162.5,298.5C 162.242,304.568 165.242,307.234 171.5,306.5C 171.5,304.5 171.5,302.5 171.5,300.5C 168.795,300.38 168.128,301.38 169.5,303.5C 168.675,304.386 167.675,304.719 166.5,304.5C 166.5,302.167 166.5,299.833 166.5,297.5C 168.781,297.923 170.448,297.256 171.5,295.5 Z"/></g>
<g><path style="opacity:0.943" fill="#ede6f3" d="M 171.5,295.5 C 170.448,297.256 168.781,297.923 166.5,297.5C 166.5,299.833 166.5,302.167 166.5,304.5C 167.675,304.719 168.675,304.386 169.5,303.5C 168.128,301.38 168.795,300.38 171.5,300.5C 171.5,302.5 171.5,304.5 171.5,306.5C 165.242,307.234 162.242,304.568 162.5,298.5C 162.511,296.983 163.177,295.816 164.5,295C 167.039,294.204 169.372,294.371 171.5,295.5 Z"/></g>
<g><path style="opacity:0.934" fill="#d9d2e1" d="M 312.5,294.5 C 314.144,294.286 315.644,294.62 317,295.5C 317.97,298.744 319.137,301.91 320.5,305C 318.884,308.06 316.884,308.227 314.5,305.5C 312.827,307.086 310.827,307.753 308.5,307.5C 308.641,302.748 309.974,298.415 312.5,294.5 Z"/></g>
<g><path style="opacity:0.875" fill="#f3eef7" d="M 348.5,296.5 C 351.024,295.2 353.691,295.2 356.5,296.5C 355.675,297.386 354.675,297.719 353.5,297.5C 353.5,300.5 353.5,303.5 353.5,306.5C 352.5,306.5 351.5,306.5 350.5,306.5C 350.665,303.482 350.498,300.482 350,297.5C 349.617,296.944 349.117,296.611 348.5,296.5 Z"/></g>
<g><path style="opacity:0.086" fill="#988fae" d="M 375.5,295.5 C 375.5,299.167 375.5,302.833 375.5,306.5C 378.698,307.036 381.365,306.369 383.5,304.5C 384.404,305.209 384.737,306.209 384.5,307.5C 381.167,307.5 377.833,307.5 374.5,307.5C 374.183,303.298 374.517,299.298 375.5,295.5 Z"/></g>
<g><path style="opacity:0.843" fill="#cfc7dc" d="M 178.5,294.5 C 181.448,294.223 184.281,294.556 187,295.5C 186.275,298.819 186.442,302.152 187.5,305.5C 187.291,306.086 186.957,306.586 186.5,307C 183.518,307.498 180.518,307.665 177.5,307.5C 177.231,303.069 177.564,298.735 178.5,294.5 Z"/></g>
<g><path style="opacity:0.801" fill="#bdb3c9" d="M 199.5,295.5 C 202.932,297.482 203.266,299.982 200.5,303C 201.38,304.356 201.714,305.856 201.5,307.5C 197.957,306.737 194.457,306.404 191,306.5C 190.24,302.775 190.407,299.108 191.5,295.5C 194.309,294.2 196.976,294.2 199.5,295.5 Z"/></g>
<g><path style="opacity:0.949" fill="#efeaef" d="M 199.5,295.5 C 199.817,298.572 199.484,301.572 198.5,304.5C 195.815,301.695 194.148,302.362 193.5,306.5C 192.511,302.893 192.177,299.226 192.5,295.5C 194.833,295.5 197.167,295.5 199.5,295.5 Z"/></g>
<g><path style="opacity:0.939" fill="#dbd4e3" d="M 258.5,294.5 C 266.166,293.668 268.999,297.002 267,304.5C 263.61,308.032 259.943,308.366 256,305.5C 253.876,301.061 254.709,297.394 258.5,294.5 Z M 260.5,298.5 C 262.898,299.882 263.065,301.549 261,303.5C 260.506,301.866 260.34,300.199 260.5,298.5 Z"/></g>
<g><path style="opacity:0.892" fill="#f1ebf5" d="M 332.5,295.5 C 332.799,297.604 332.466,299.604 331.5,301.5C 330.571,300.311 330.238,298.978 330.5,297.5C 329.5,297.5 328.5,297.5 327.5,297.5C 327.5,300.5 327.5,303.5 327.5,306.5C 326.5,306.5 325.5,306.5 324.5,306.5C 324.5,302.833 324.5,299.167 324.5,295.5C 327.061,294.233 329.728,294.233 332.5,295.5 Z"/></g>
<g><path style="opacity:0.682" fill="#d7cfe2" d="M 299.5,299.5 C 299.312,301.103 299.812,302.437 301,303.5C 304.333,301.833 305.667,302.833 305,306.5C 302.599,307.602 300.099,307.769 297.5,307C 296.619,306.292 295.953,305.458 295.5,304.5C 295.298,302.011 295.798,299.677 297,297.5C 298.813,296.391 299.646,297.058 299.5,299.5 Z"/></g>
<g><path style="opacity:0.086" fill="#a297ba" d="M 362.5,296.5 C 362.277,299.784 361.61,302.951 360.5,306C 361.448,306.483 362.448,306.649 363.5,306.5C 363.5,305.5 363.5,304.5 363.5,303.5C 365.492,303.328 367.158,303.995 368.5,305.5C 369.452,303.955 369.785,302.288 369.5,300.5C 371.163,302.438 371.829,304.772 371.5,307.5C 369.179,307.771 367.179,307.104 365.5,305.5C 363.821,307.104 361.821,307.771 359.5,307.5C 359.517,303.466 360.517,299.799 362.5,296.5 Z"/></g>
<g><path style="opacity:0.082" fill="#442c32" d="M 502.5,327.5 C 503.919,326.549 505.585,326.216 507.5,326.5C 507.768,328.099 507.434,329.432 506.5,330.5C 506.5,329.5 506.5,328.5 506.5,327.5C 505.167,327.5 503.833,327.5 502.5,327.5 Z"/></g>
<g><path style="opacity:0.71" fill="#b18350" d="M 314.5,347.5 C 313.989,343.217 314.656,339.217 316.5,335.5C 313.92,334.451 311.254,333.784 308.5,333.5C 308.5,334.5 308.5,335.5 308.5,336.5C 306.348,335.923 306.015,334.756 307.5,333C 311.423,332.207 315.256,332.374 319,333.5C 319.741,336.112 318.741,337.778 316,338.5C 315.819,341.695 315.319,344.695 314.5,347.5 Z"/></g>
<g><path style="opacity:0.947" fill="#c48e42" d="M 81.5,331.5 C 89.4794,333.122 91.9794,337.788 89,345.5C 86.0913,348.394 82.5913,349.227 78.5,348C 75.6403,344.319 74.8069,340.152 76,335.5C 77.4998,333.531 79.3331,332.198 81.5,331.5 Z M 81.5,337.5 C 82.6935,337.97 83.3601,338.97 83.5,340.5C 83.1667,341.5 82.8333,342.5 82.5,343.5C 81.5344,341.604 81.2011,339.604 81.5,337.5 Z"/></g>
<g><path style="opacity:0.796" fill="#9a6f48" d="M 136.5,342.5 C 134.545,338.442 135.879,335.776 140.5,334.5C 138.257,333.526 135.924,333.192 133.5,333.5C 137.348,330.392 140.682,330.892 143.5,335C 141.698,336.827 139.532,337.994 137,338.5C 136.51,339.793 136.343,341.127 136.5,342.5 Z"/></g>
<g><path style="opacity:0.949" fill="#db9d3f" d="M 335.5,334.5 C 338.167,336.833 338.167,339.167 335.5,341.5C 334.199,342.884 334.199,344.384 335.5,346C 335,346.167 334.5,346.333 334,346.5C 332.518,344.888 330.685,343.888 328.5,343.5C 328.719,344.675 328.386,345.675 327.5,346.5C 326.34,342.541 326.173,338.541 327,334.5C 329.796,333.321 332.629,333.321 335.5,334.5 Z"/></g>
<g><path style="opacity:0.443" fill="#8e6d57" d="M 488.5,337.5 C 489.806,336.533 490.473,335.199 490.5,333.5C 487.167,333.5 483.833,333.5 480.5,333.5C 480.433,334.959 480.766,336.292 481.5,337.5C 479.026,336.724 478.359,335.224 479.5,333C 483.486,332.501 487.486,332.334 491.5,332.5C 491.5,334.167 491.5,335.833 491.5,337.5C 490.5,337.5 489.5,337.5 488.5,337.5 Z"/></g>
<g><path style="opacity:0.969" fill="#e0a643" d="M 66.5,337.5 C 66.8128,341.042 66.4794,344.375 65.5,347.5C 64.5,347.5 63.5,347.5 62.5,347.5C 62.9975,343.241 62.3308,339.241 60.5,335.5C 62.8511,333.771 65.5178,333.104 68.5,333.5C 68.4729,335.199 67.8062,336.533 66.5,337.5 Z"/></g>
<g><path style="opacity:0.988" fill="#b88342" d="M 458.5,343.5 C 457.858,339.867 455.858,338.867 452.5,340.5C 451.24,338.647 451.24,336.814 452.5,335C 451.216,334.316 450.049,334.483 449,335.5C 448.501,339.152 448.335,342.818 448.5,346.5C 450.2,346.374 451.7,345.707 453,344.5C 454.03,344.836 454.53,345.503 454.5,346.5C 453.2,347.108 451.867,347.775 450.5,348.5C 449.558,348.392 448.725,348.059 448,347.5C 447.223,342.778 447.39,338.111 448.5,333.5C 458.484,330.814 461.818,334.147 458.5,343.5 Z"/></g>
<g><path style="opacity:0.996" fill="#ebab44" d="M 314.5,347.5 C 313.5,347.5 312.5,347.5 311.5,347.5C 311.5,343.833 311.5,340.167 311.5,336.5C 310.5,336.5 309.5,336.5 308.5,336.5C 308.5,335.5 308.5,334.5 308.5,333.5C 311.254,333.784 313.92,334.451 316.5,335.5C 314.656,339.217 313.989,343.217 314.5,347.5 Z"/></g>
<g><path style="opacity:0.149" fill="#916748" d="M 104.5,347.5 C 106.167,347.5 107.833,347.5 109.5,347.5C 109.5,342.833 109.5,338.167 109.5,333.5C 108.5,333.5 107.5,333.5 106.5,333.5C 106.785,335.288 106.452,336.955 105.5,338.5C 104.081,337.995 103.415,336.995 103.5,335.5C 105.229,333.273 107.562,332.273 110.5,332.5C 110.5,337.833 110.5,343.167 110.5,348.5C 108.265,348.795 106.265,348.461 104.5,347.5 Z"/></g>
<g><path style="opacity:0.514" fill="#9b7447" d="M 227.5,335.5 C 225.598,334.489 223.598,334.322 221.5,335C 220.973,338.005 219.64,340.505 217.5,342.5C 217.895,339.314 218.895,336.314 220.5,333.5C 222.421,332.359 224.421,332.192 226.5,333C 227.252,333.671 227.586,334.504 227.5,335.5 Z"/></g>
<g><path style="opacity:0.533" fill="#946941" d="M 103.5,335.5 C 102.18,334.058 100.514,333.392 98.5,333.5C 98.1744,337.884 98.5078,342.217 99.5,346.5C 100.176,345.398 100.842,344.398 101.5,343.5C 101.833,344.833 102.167,344.833 102.5,343.5C 103.707,343.378 104.374,344.378 104.5,346.5C 103.883,346.389 103.383,346.056 103,345.5C 101.585,348.218 99.5848,348.885 97,347.5C 96.3333,342.833 96.3333,338.167 97,333.5C 98.7261,332.424 100.559,332.257 102.5,333C 103.252,333.671 103.586,334.504 103.5,335.5 Z"/></g>
<g><path style="opacity:0.635" fill="#ab7b43" d="M 170.5,332.5 C 179.57,330.729 182.737,334.062 180,342.5C 178.416,343.861 176.582,344.528 174.5,344.5C 174.299,348.35 172.466,349.35 169,347.5C 168.017,342.28 168.517,337.28 170.5,332.5 Z"/></g>
<g><path style="opacity:0.969" fill="#e7aa3b" d="M 171.5,334.5 C 173.857,334.337 176.19,334.503 178.5,335C 179.76,336.814 179.76,338.647 178.5,340.5C 177.548,338.955 177.215,337.288 177.5,335.5C 176.167,335.5 174.833,335.5 173.5,335.5C 173.5,337.167 173.5,338.833 173.5,340.5C 174.675,340.281 175.675,340.614 176.5,341.5C 174.163,342.517 172.496,344.184 171.5,346.5C 170.235,342.454 170.235,338.454 171.5,334.5 Z"/></g>
<g><path style="opacity:0.979" fill="#f0af3d" d="M 241.5,343.5 C 242.209,344.404 243.209,344.737 244.5,344.5C 243.082,346.308 241.082,346.975 238.5,346.5C 238.176,342.445 238.509,338.445 239.5,334.5C 240.167,337.642 240.834,340.642 241.5,343.5 Z"/></g>
<g><path style="opacity:0.993" fill="#e3a745" d="M 429.5,347.5 C 427.726,344.074 426.726,340.407 426.5,336.5C 429.297,333.526 432.63,332.859 436.5,334.5C 435.286,336.069 433.619,336.902 431.5,337C 429.32,341.697 430.653,344.697 435.5,346C 433.75,347.319 431.75,347.819 429.5,347.5 Z"/></g>
<g><path style="opacity:0.282" fill="#a67e4f" d="M 66.5,337.5 C 67.8062,336.533 68.4729,335.199 68.5,333.5C 65.5178,333.104 62.8511,333.771 60.5,335.5C 62.3308,339.241 62.9975,343.241 62.5,347.5C 63.5,347.5 64.5,347.5 65.5,347.5C 64.4324,348.434 63.099,348.768 61.5,348.5C 61.8226,344.774 61.4892,341.107 60.5,337.5C 58.2275,336.625 57.2275,334.958 57.5,332.5C 61.5546,332.176 65.5546,332.509 69.5,333.5C 70.9209,336.428 69.9209,337.762 66.5,337.5 Z"/></g>
<g><path style="opacity:0.371" fill="#9f7144" d="M 385.5,342.5 C 384.22,343.931 382.553,344.598 380.5,344.5C 380.915,346.948 379.915,348.281 377.5,348.5C 376.353,348.182 375.519,347.516 375,346.5C 374.004,341.771 374.504,337.271 376.5,333C 380.118,332.034 383.451,332.534 386.5,334.5C 388.096,337.567 387.763,340.234 385.5,342.5 Z"/></g>
<g><path style="opacity:0.511" fill="#a37643" d="M 241.5,333.5 C 241.5,336.833 241.5,340.167 241.5,343.5C 240.834,340.642 240.167,337.642 239.5,334.5C 238.509,338.445 238.176,342.445 238.5,346.5C 241.082,346.975 243.082,346.308 244.5,344.5C 245.167,344.5 245.833,344.5 246.5,344.5C 247.684,345.688 247.684,346.855 246.5,348C 243.007,349.004 239.841,348.504 237,346.5C 236.333,342.167 236.333,337.833 237,333.5C 238.616,332.199 240.116,332.199 241.5,333.5 Z"/></g>
<g><path style="opacity:0.929" fill="#d79c40" d="M 279.5,347.5 C 275.849,347.838 274.183,346.172 274.5,342.5C 273.167,342.5 271.833,342.5 270.5,342.5C 270.5,343.833 270.5,345.167 270.5,346.5C 269.5,346.5 268.5,346.5 267.5,346.5C 267.5,342.167 267.5,337.833 267.5,333.5C 269.035,332.212 270.701,332.212 272.5,333.5C 274.918,340.194 275.918,339.861 275.5,332.5C 277.451,332.227 278.951,332.893 280,334.5C 280.768,338.92 280.602,343.253 279.5,347.5 Z"/></g>
<g><path style="opacity:0.839" fill="#a06c3e" d="M 353.5,336.5 C 353.389,337.117 353.056,337.617 352.5,338C 354.107,339.049 354.773,340.549 354.5,342.5C 352.801,342.34 351.134,342.506 349.5,343C 351.058,343.21 352.391,343.71 353.5,344.5C 351.833,344.5 350.167,344.5 348.5,344.5C 348.5,343.5 348.5,342.5 348.5,341.5C 349.675,341.719 350.675,341.386 351.5,340.5C 350.147,339.476 349.48,338.143 349.5,336.5C 350.833,336.5 352.167,336.5 353.5,336.5 Z"/></g>
<g><path style="opacity:0.235" fill="#9a6e48" d="M 308.5,336.5 C 309.5,336.5 310.5,336.5 311.5,336.5C 311.5,340.167 311.5,343.833 311.5,347.5C 312.5,347.5 313.5,347.5 314.5,347.5C 313.432,348.434 312.099,348.768 310.5,348.5C 310.984,344.173 310.318,340.173 308.5,336.5 Z"/></g>
<g><path style="opacity:0.388" fill="#815d37" d="M 426.5,336.5 C 426.726,340.407 427.726,344.074 429.5,347.5C 427.224,347.244 426.057,345.91 426,343.5C 425.204,340.961 425.371,338.628 426.5,336.5 Z"/></g>
<g><path style="opacity:0.388" fill="#997141" d="M 502.5,327.5 C 503.833,327.5 505.167,327.5 506.5,327.5C 506.5,328.5 506.5,329.5 506.5,330.5C 506.062,330.435 505.728,330.601 505.5,331C 508.401,334.049 507.734,336.049 503.5,337C 504.793,337.49 506.127,337.657 507.5,337.5C 508.21,340.86 506.876,342.693 503.5,343C 504.793,343.49 506.127,343.657 507.5,343.5C 507.5,345.167 507.5,346.833 507.5,348.5C 503.649,349.029 500.149,348.362 497,346.5C 496.333,341.833 496.333,337.167 497,332.5C 498.704,330.627 500.537,328.96 502.5,327.5 Z"/></g>
<g><path style="opacity:1" fill="#e9ab40" d="M 498.5,332.5 C 499.5,332.5 500.5,332.5 501.5,332.5C 501.5,334.5 501.5,336.5 501.5,338.5C 502.978,338.238 504.311,338.571 505.5,339.5C 504.675,340.386 503.675,340.719 502.5,340.5C 502.5,341.833 502.5,343.167 502.5,344.5C 503.833,344.5 505.167,344.5 506.5,344.5C 506.5,345.5 506.5,346.5 506.5,347.5C 503.833,347.5 501.167,347.5 498.5,347.5C 498.5,342.5 498.5,337.5 498.5,332.5 Z"/></g>
<g><path style="opacity:0.106" fill="#794e30" d="M 192.5,333.5 C 193.648,337.981 193.815,342.648 193,347.5C 190.978,348.991 189.312,348.658 188,346.5C 187.333,342.5 187.333,338.5 188,334.5C 189.27,332.422 190.77,332.088 192.5,333.5 Z"/></g>
<g><path style="opacity:1" fill="#e6aa4d" d="M 192.5,333.5 C 192.5,337.833 192.5,342.167 192.5,346.5C 191.5,346.5 190.5,346.5 189.5,346.5C 189.5,342.167 189.5,337.833 189.5,333.5C 190.5,333.5 191.5,333.5 192.5,333.5 Z"/></g>
<g><path style="opacity:0.996" fill="#d79d3f" d="M 227.5,335.5 C 228.971,339.718 229.971,344.051 230.5,348.5C 227.579,348.854 225.246,347.854 223.5,345.5C 222.482,346.193 221.482,346.859 220.5,347.5C 219.5,347.5 218.5,347.5 217.5,347.5C 217.5,345.833 217.5,344.167 217.5,342.5C 219.64,340.505 220.973,338.005 221.5,335C 223.598,334.322 225.598,334.489 227.5,335.5 Z"/></g>
<g><path style="opacity:0.067" fill="#693722" d="M 241.5,333.5 C 242.479,336.625 242.813,339.958 242.5,343.5C 244.099,343.232 245.432,343.566 246.5,344.5C 245.833,344.5 245.167,344.5 244.5,344.5C 243.209,344.737 242.209,344.404 241.5,343.5C 241.5,340.167 241.5,336.833 241.5,333.5 Z"/></g>
<g><path style="opacity:0.314" fill="#976e42" d="M 353.5,336.5 C 353.5,335.5 353.5,334.5 353.5,333.5C 350.881,333.232 348.381,333.565 346,334.5C 345.501,338.821 345.334,343.154 345.5,347.5C 343.029,343.048 342.862,338.381 345,333.5C 348.073,332.383 351.24,332.216 354.5,333C 355.985,334.756 355.652,335.923 353.5,336.5 Z"/></g>
<g><path style="opacity:1" fill="#e6a945" d="M 353.5,336.5 C 352.167,336.5 350.833,336.5 349.5,336.5C 349.48,338.143 350.147,339.476 351.5,340.5C 350.675,341.386 349.675,341.719 348.5,341.5C 348.5,342.5 348.5,343.5 348.5,344.5C 350.167,344.5 351.833,344.5 353.5,344.5C 353.5,345.5 353.5,346.5 353.5,347.5C 350.833,347.5 348.167,347.5 345.5,347.5C 345.334,343.154 345.501,338.821 346,334.5C 348.381,333.565 350.881,333.232 353.5,333.5C 353.5,334.5 353.5,335.5 353.5,336.5 Z"/></g>
<g><path style="opacity:0.984" fill="#dc9f42" d="M 404.5,334.5 C 404.442,337.664 403.776,340.664 402.5,343.5C 401.167,343.5 399.833,343.5 398.5,343.5C 398.5,344.5 398.5,345.5 398.5,346.5C 397.5,346.5 396.5,346.5 395.5,346.5C 394.979,342.519 394.646,338.519 394.5,334.5C 394.611,333.883 394.944,333.383 395.5,333C 397,332.833 398.5,332.667 400,332.5C 401.986,332.569 403.486,333.235 404.5,334.5 Z"/></g>
<g><path style="opacity:0.133" fill="#90623f" d="M 414.5,333.5 C 415.884,332.199 417.384,332.199 419,333.5C 419.667,338.167 419.667,342.833 419,347.5C 417.301,348.406 415.467,348.739 413.5,348.5C 413.179,343.305 413.513,338.305 414.5,333.5 Z"/></g>
<g><path style="opacity:0.676" fill="#d8a042" d="M 414.5,333.5 C 415.5,333.5 416.5,333.5 417.5,333.5C 417.5,337.833 417.5,342.167 417.5,346.5C 416.5,346.5 415.5,346.5 414.5,346.5C 414.5,342.167 414.5,337.833 414.5,333.5 Z"/></g>
<g><path style="opacity:0.639" fill="#e1a341" d="M 103.5,335.5 C 103.415,336.995 104.081,337.995 105.5,338.5C 106.452,336.955 106.785,335.288 106.5,333.5C 107.5,333.5 108.5,333.5 109.5,333.5C 109.5,338.167 109.5,342.833 109.5,347.5C 107.833,347.5 106.167,347.5 104.5,347.5C 104.5,347.167 104.5,346.833 104.5,346.5C 104.374,344.378 103.707,343.378 102.5,343.5C 102.167,343.5 101.833,343.5 101.5,343.5C 100.842,344.398 100.176,345.398 99.5,346.5C 98.5078,342.217 98.1744,337.884 98.5,333.5C 100.514,333.392 102.18,334.058 103.5,335.5 Z"/></g>
<g><path style="opacity:0.918" fill="#e4a747" d="M 133.5,333.5 C 135.924,333.192 138.257,333.526 140.5,334.5C 135.879,335.776 134.545,338.442 136.5,342.5C 137.552,344.256 139.219,344.923 141.5,344.5C 141.5,345.5 141.5,346.5 141.5,347.5C 134.981,349.144 131.981,346.644 132.5,340C 132.581,338.076 132.914,336.243 133.5,334.5C 133.5,334.167 133.5,333.833 133.5,333.5 Z"/></g>
<g><path style="opacity:0.796" fill="#a97b49" d="M 161.5,342.5 C 160.065,340.402 158.898,338.069 158,335.5C 156.333,334.167 154.667,334.167 153,335.5C 151.818,338.856 151.651,342.19 152.5,345.5C 155.685,343.963 158.352,344.63 160.5,347.5C 161.429,346.311 161.762,344.978 161.5,343.5C 162.451,344.919 162.784,346.585 162.5,348.5C 159.579,348.854 157.246,347.854 155.5,345.5C 154.126,346.711 152.626,347.711 151,348.5C 149.268,348.266 148.434,347.266 148.5,345.5C 149.34,340.944 151.007,336.777 153.5,333C 155.441,332.257 157.274,332.424 159,333.5C 160.549,336.312 161.382,339.312 161.5,342.5 Z"/></g>
<g><path style="opacity:0.976" fill="#e5a63f" d="M 161.5,342.5 C 161.5,342.833 161.5,343.167 161.5,343.5C 161.762,344.978 161.429,346.311 160.5,347.5C 158.352,344.63 155.685,343.963 152.5,345.5C 151.651,342.19 151.818,338.856 153,335.5C 154.667,334.167 156.333,334.167 158,335.5C 158.898,338.069 160.065,340.402 161.5,342.5 Z"/></g>
<g><path style="opacity:0.984" fill="#9e713b" d="M 298.5,333.5 C 295.603,333.125 292.937,333.625 290.5,335C 292.433,335.251 294.266,335.751 296,336.5C 296.796,339.039 296.629,341.372 295.5,343.5C 294.833,335.5 294.167,335.5 293.5,343.5C 291.72,342.01 291.054,340.01 291.5,337.5C 290.5,337.5 289.5,337.5 288.5,337.5C 288.03,344.938 291.364,348.271 298.5,347.5C 291.661,350.362 287.661,348.028 286.5,340.5C 287.575,332.605 291.575,330.271 298.5,333.5 Z M 295.5,343.5 C 294.833,343.5 294.167,343.5 293.5,343.5C 294.167,335.5 294.833,335.5 295.5,343.5 Z"/></g>
<g><path style="opacity:0.906" fill="#e0a341" d="M 458.5,343.5 C 459.83,347.402 458.497,348.402 454.5,346.5C 454.53,345.503 454.03,344.836 453,344.5C 451.7,345.707 450.2,346.374 448.5,346.5C 448.335,342.818 448.501,339.152 449,335.5C 450.049,334.483 451.216,334.316 452.5,335C 451.24,336.814 451.24,338.647 452.5,340.5C 455.858,338.867 457.858,339.867 458.5,343.5 Z"/></g>
<g><path style="opacity:0.447" fill="#98704b" d="M 467.5,332.5 C 469.167,332.5 470.833,332.5 472.5,332.5C 472.666,337.511 472.499,342.511 472,347.5C 470.333,348.833 468.667,348.833 467,347.5C 466.274,342.448 466.441,337.448 467.5,332.5 Z"/></g>
<g><path style="opacity:0.969" fill="#e4a83f" d="M 468.5,333.5 C 469.5,333.5 470.5,333.5 471.5,333.5C 471.5,337.833 471.5,342.167 471.5,346.5C 470.5,346.5 469.5,346.5 468.5,346.5C 468.5,342.167 468.5,337.833 468.5,333.5 Z"/></g>
<g><path style="opacity:0.392" fill="#a17044" d="M 209.5,337.5 C 209.665,340.518 209.498,343.518 209,346.5C 207.847,348.497 206.347,348.83 204.5,347.5C 203.838,342.159 202.505,337.159 200.5,332.5C 204.182,332.335 207.848,332.501 211.5,333C 214.318,335.869 213.652,337.369 209.5,337.5 Z"/></g>
<g><path style="opacity:0.98" fill="#e7aa41" d="M 209.5,337.5 C 208.634,340.424 207.634,343.424 206.5,346.5C 205.833,343.167 205.167,339.833 204.5,336.5C 203.692,336.192 203.025,335.692 202.5,335C 204.81,334.503 207.143,334.337 209.5,334.5C 209.5,335.5 209.5,336.5 209.5,337.5 Z"/></g>
<g><path style="opacity:0.365" fill="#8d633c" d="M 267.5,333.5 C 267.5,337.833 267.5,342.167 267.5,346.5C 268.5,346.5 269.5,346.5 270.5,346.5C 270.5,345.167 270.5,343.833 270.5,342.5C 271.833,342.5 273.167,342.5 274.5,342.5C 274.183,346.172 275.849,347.838 279.5,347.5C 275.493,349.496 272.993,348.162 272,343.5C 272.209,347.459 270.375,349.126 266.5,348.5C 266.179,343.305 266.513,338.305 267.5,333.5 Z"/></g>
<g><path style="opacity:0.984" fill="#dea244" d="M 298.5,333.5 C 300.988,335.056 301.988,337.389 301.5,340.5C 301.988,343.611 300.988,345.944 298.5,347.5C 291.364,348.271 288.03,344.938 288.5,337.5C 289.5,337.5 290.5,337.5 291.5,337.5C 291.054,340.01 291.72,342.01 293.5,343.5C 294.167,343.5 294.833,343.5 295.5,343.5C 296.629,341.372 296.796,339.039 296,336.5C 294.266,335.751 292.433,335.251 290.5,335C 292.937,333.625 295.603,333.125 298.5,333.5 Z M 295.5,343.5 C 294.833,343.5 294.167,343.5 293.5,343.5C 294.167,335.5 294.833,335.5 295.5,343.5 Z"/></g>
<g><path style="opacity:0.584" fill="#a37649" d="M 335.5,334.5 C 332.629,333.321 329.796,333.321 327,334.5C 326.173,338.541 326.34,342.541 327.5,346.5C 328.386,345.675 328.719,344.675 328.5,343.5C 330.685,343.888 332.518,344.888 334,346.5C 334.5,346.333 335,346.167 335.5,346C 334.199,344.384 334.199,342.884 335.5,341.5C 336.455,343.746 337.122,346.079 337.5,348.5C 334.843,348.838 332.51,348.171 330.5,346.5C 328.908,348.562 327.075,348.895 325,347.5C 324.333,343.167 324.333,338.833 325,334.5C 327.841,332.496 331.007,331.996 334.5,333C 335.056,333.383 335.389,333.883 335.5,334.5 Z"/></g>
<g><path style="opacity:1" fill="#e4a63c" d="M 385.5,342.5 C 381.807,341.944 379.14,343.278 377.5,346.5C 376.205,342.62 376.205,338.786 377.5,335C 380.146,334.503 382.813,334.336 385.5,334.5C 385.5,337.167 385.5,339.833 385.5,342.5 Z"/></g>
<g><path style="opacity:0.847" fill="#b27e44" d="M 394.5,334.5 C 394.646,338.519 394.979,342.519 395.5,346.5C 396.5,346.5 397.5,346.5 398.5,346.5C 398.5,345.5 398.5,344.5 398.5,343.5C 399.833,343.5 401.167,343.5 402.5,343.5C 403.776,340.664 404.442,337.664 404.5,334.5C 407.072,337.141 407.072,339.974 404.5,343C 406.155,344.444 406.822,346.278 406.5,348.5C 403.675,348.919 401.509,347.919 400,345.5C 398.776,348.473 396.776,349.14 394,347.5C 393.186,342.98 393.353,338.646 394.5,334.5 Z"/></g>
<g><path style="opacity:0.988" fill="#b68242" d="M 429.5,347.5 C 431.75,347.819 433.75,347.319 435.5,346C 430.653,344.697 429.32,341.697 431.5,337C 433.619,336.902 435.286,336.069 436.5,334.5C 432.63,332.859 429.297,333.526 426.5,336.5C 427.434,333.364 429.601,331.698 433,331.5C 436.355,331.752 438.688,333.419 440,336.5C 442.13,346.202 438.63,349.868 429.5,347.5 Z M 432.5,337.5 C 433.693,337.97 434.36,338.97 434.5,340.5C 433.709,344.285 432.709,344.285 431.5,340.5C 431.685,339.416 432.018,338.416 432.5,337.5 Z"/></g>
<g><path style="opacity:0.149" fill="#63473a" d="M 482.5,337.5 C 483.479,340.625 483.813,343.958 483.5,347.5C 484.833,347.5 486.167,347.5 487.5,347.5C 486.081,348.451 484.415,348.784 482.5,348.5C 482.5,344.833 482.5,341.167 482.5,337.5 Z"/></g>
<g><path style="opacity:0.765" fill="#c29245" d="M 488.5,337.5 C 488.747,340.939 488.414,344.272 487.5,347.5C 486.167,347.5 484.833,347.5 483.5,347.5C 483.813,343.958 483.479,340.625 482.5,337.5C 482.167,337.5 481.833,337.5 481.5,337.5C 480.766,336.292 480.433,334.959 480.5,333.5C 483.833,333.5 487.167,333.5 490.5,333.5C 490.473,335.199 489.806,336.533 488.5,337.5 Z"/></g>
<g><path style="opacity:0.271" fill="#936946" d="M 133.5,334.5 C 132.914,336.243 132.581,338.076 132.5,340C 131.981,346.644 134.981,349.144 141.5,347.5C 141.5,346.5 141.5,345.5 141.5,344.5C 139.219,344.923 137.552,344.256 136.5,342.5C 138.505,343.039 140.505,343.705 142.5,344.5C 143.711,345.72 143.711,346.887 142.5,348C 132.301,350.132 128.635,346.132 131.5,336C 131.836,334.97 132.503,334.47 133.5,334.5 Z"/></g>
<g><path style="opacity:0.047" fill="#4b322b" d="M 217.5,342.5 C 217.5,344.167 217.5,345.833 217.5,347.5C 218.5,347.5 219.5,347.5 220.5,347.5C 219.432,348.434 218.099,348.768 216.5,348.5C 216.205,346.265 216.539,344.265 217.5,342.5 Z"/></g>
<g><path style="opacity:0.118" fill="#916658" d="M 353.5,344.5 C 355.466,345.255 355.8,346.421 354.5,348C 351.304,348.805 348.304,348.638 345.5,347.5C 348.167,347.5 350.833,347.5 353.5,347.5C 353.5,346.5 353.5,345.5 353.5,344.5 Z"/></g>
<g><path style="opacity:0.071" fill="#654536" d="M 458.5,343.5 C 460.213,344.635 460.88,346.302 460.5,348.5C 457.99,348.946 455.99,348.28 454.5,346.5C 458.497,348.402 459.83,347.402 458.5,343.5 Z"/></g>
</svg>
