<?xml version="1.0" encoding="UTF-8"?>
<!DOCTYPE svg PUBLIC "-//W3C//DTD SVG 1.1//EN" "http://www.w3.org/Graphics/SVG/1.1/DTD/svg11.dtd">
<svg xmlns="http://www.w3.org/2000/svg" version="1.1" width="150px" height="150px" style="shape-rendering:geometricPrecision; text-rendering:geometricPrecision; image-rendering:optimizeQuality; fill-rule:evenodd; clip-rule:evenodd" xmlns:xlink="http://www.w3.org/1999/xlink">
<g><path style="opacity:1" fill="#7f90ae" d="M -0.5,-0.5 C 6.83333,-0.5 14.1667,-0.5 21.5,-0.5C 22.1738,1.02449 23.1738,2.35782 24.5,3.5C 25.325,4.38568 26.325,4.71901 27.5,4.5C 27.5,5.5 27.5,6.5 27.5,7.5C 34.175,7.33375 40.8417,7.50042 47.5,8C 46.1667,9 44.8333,10 43.5,11C 46.1667,11.1667 48.8333,11.3333 51.5,11.5C 60.0426,10.9214 68.376,9.58806 76.5,7.5C 76.5,6.5 76.5,5.5 76.5,4.5C 79.9677,4.35881 82.301,2.69215 83.5,-0.5C 105.5,-0.5 127.5,-0.5 149.5,-0.5C 149.5,1.16667 149.5,2.83333 149.5,4.5C 126.119,5.94089 102.785,8.10756 79.5,11C 52.8289,12.5003 26.1622,14.0003 -0.5,15.5C -0.5,10.1667 -0.5,4.83333 -0.5,-0.5 Z"/></g>
<g><path style="opacity:1" fill="#919fb9" d="M 21.5,-0.5 C 22.1667,-0.5 22.8333,-0.5 23.5,-0.5C 27.4008,1.8671 31.7341,2.8671 36.5,2.5C 48.3751,2.12841 60.0418,1.12841 71.5,-0.5C 75.5,-0.5 79.5,-0.5 83.5,-0.5C 82.301,2.69215 79.9677,4.35881 76.5,4.5C 76.5,5.5 76.5,6.5 76.5,7.5C 68.376,9.58806 60.0426,10.9214 51.5,11.5C 48.8333,11.3333 46.1667,11.1667 43.5,11C 44.8333,10 46.1667,9 47.5,8C 40.8417,7.50042 34.175,7.33375 27.5,7.5C 27.5,6.5 27.5,5.5 27.5,4.5C 26.325,4.71901 25.325,4.38568 24.5,3.5C 23.1738,2.35782 22.1738,1.02449 21.5,-0.5 Z"/></g>
<g><path style="opacity:1" fill="#f6f8f4" d="M 23.5,-0.5 C 39.5,-0.5 55.5,-0.5 71.5,-0.5C 60.0418,1.12841 48.3751,2.12841 36.5,2.5C 31.7341,2.8671 27.4008,1.8671 23.5,-0.5 Z"/></g>
<g><path style="opacity:1" fill="#617392" d="M 149.5,4.5 C 149.5,5.83333 149.5,7.16667 149.5,8.5C 144.167,8.5 138.833,8.5 133.5,8.5C 133.539,10.3588 132.706,11.6921 131,12.5C 130.501,16.1516 130.335,19.8183 130.5,23.5C 129.518,20.0381 129.185,16.3714 129.5,12.5C 128.167,12.5 126.833,12.5 125.5,12.5C 125.663,14.8568 125.497,17.1902 125,19.5C 123.812,18.4366 123.312,17.1033 123.5,15.5C 118.72,12.0282 113.22,10.3616 107,10.5C 99.597,11.3987 92.4303,13.0653 85.5,15.5C 85.9175,14.7784 86.5842,14.2784 87.5,14C 76.3211,14.2593 65.1545,14.0926 54,13.5C 35.9232,15.9267 17.7565,17.5934 -0.5,18.5C -0.5,17.5 -0.5,16.5 -0.5,15.5C 26.1622,14.0003 52.8289,12.5003 79.5,11C 102.785,8.10756 126.119,5.94089 149.5,4.5 Z"/></g>
<g><path style="opacity:1" fill="#909fc0" d="M 149.5,8.5 C 149.5,11.5 149.5,14.5 149.5,17.5C 143.471,17.4255 137.471,17.7588 131.5,18.5C 131.244,22.2693 131.577,25.9359 132.5,29.5C 130.692,28.0821 130.025,26.0821 130.5,23.5C 130.335,19.8183 130.501,16.1516 131,12.5C 132.706,11.6921 133.539,10.3588 133.5,8.5C 138.833,8.5 144.167,8.5 149.5,8.5 Z"/></g>
<g><path style="opacity:1" fill="#1a181a" d="M 130.5,23.5 C 130.025,26.0821 130.692,28.0821 132.5,29.5C 132.5,29.8333 132.5,30.1667 132.5,30.5C 130.856,30.7135 129.356,30.3802 128,29.5C 127.088,27.3415 126.255,25.1748 125.5,23C 123.564,22.187 121.564,21.687 119.5,21.5C 119.778,19.6536 119.111,18.3202 117.5,17.5C 116.3,18.5312 114.966,19.3645 113.5,20C 115.107,21.049 115.773,22.549 115.5,24.5C 113.08,24.7076 110.747,24.3742 108.5,23.5C 106.659,25.5117 105.659,27.845 105.5,30.5C 104.5,30.1667 103.833,29.5 103.5,28.5C 101.951,24.6391 103.284,22.1391 107.5,21C 105.459,19.2589 103.292,19.0922 101,20.5C 100.51,19.2068 100.343,17.8734 100.5,16.5C 96.5389,14.7871 95.8723,15.4538 98.5,18.5C 98.0133,19.4461 97.6799,20.4461 97.5,21.5C 98.8229,23.1651 100.156,24.8317 101.5,26.5C 100.778,26.9175 100.278,27.5842 100,28.5C 99.5814,27.3279 98.9147,26.3279 98,25.5C 96.3005,26.4061 94.4672,26.7394 92.5,26.5C 91.8333,26.1667 91.1667,25.8333 90.5,25.5C 88.8298,23.1452 89.4965,21.8119 92.5,21.5C 94.4251,21.5904 95.5917,22.5904 96,24.5C 96.6771,22.0185 95.8437,20.1851 93.5,19C 91.8654,18.4604 90.5321,18.9604 89.5,20.5C 88.914,20.2907 88.414,19.9574 88,19.5C 87.5065,21.1341 87.3398,22.8008 87.5,24.5C 84.8333,24.8333 82.1667,25.1667 79.5,25.5C 79.5,24.8333 79.5,24.1667 79.5,23.5C 80.4345,22.4324 80.7678,21.099 80.5,19.5C 80.5,19.1667 80.5,18.8333 80.5,18.5C 82.4341,17.8897 84.1007,16.8897 85.5,15.5C 92.4303,13.0653 99.597,11.3987 107,10.5C 113.22,10.3616 118.72,12.0282 123.5,15.5C 123.312,17.1033 123.812,18.4366 125,19.5C 125.497,17.1902 125.663,14.8568 125.5,12.5C 126.833,12.5 128.167,12.5 129.5,12.5C 129.185,16.3714 129.518,20.0381 130.5,23.5 Z"/></g>
<g><path style="opacity:1" fill="#363233" d="M 100.5,16.5 C 100.389,15.8826 100.056,15.3826 99.5,15C 103.742,12.7979 107.742,13.1312 111.5,16C 107.925,17.7416 104.259,17.9082 100.5,16.5 Z"/></g>
<g><path style="opacity:1" fill="#677c9d" d="M 85.5,15.5 C 84.1007,16.8897 82.4341,17.8897 80.5,18.5C 80.44,17.9569 80.1067,17.6236 79.5,17.5C 71.5577,18.6617 63.5577,19.4951 55.5,20C 50.2847,20.3423 45.2847,21.509 40.5,23.5C 39.7348,22.3881 38.7348,21.7214 37.5,21.5C 37.5,20.1667 37.5,18.8333 37.5,17.5C 27.4968,18.503 17.4968,19.503 7.5,20.5C 7.5,21.5 7.5,22.5 7.5,23.5C 4.83333,23.5 2.16667,23.5 -0.5,23.5C -0.5,21.8333 -0.5,20.1667 -0.5,18.5C 17.7565,17.5934 35.9232,15.9267 54,13.5C 65.1545,14.0926 76.3211,14.2593 87.5,14C 86.5842,14.2784 85.9175,14.7784 85.5,15.5 Z"/></g>
<g><path style="opacity:1" fill="#594e4d" d="M 90.5,25.5 C 87.0588,26.0965 83.7254,26.7632 80.5,27.5C 79.0755,29.0311 78.4088,28.6977 78.5,26.5C 78.5,25.8333 78.8333,25.5 79.5,25.5C 82.1667,25.1667 84.8333,24.8333 87.5,24.5C 87.3398,22.8008 87.5065,21.1341 88,19.5C 88.414,19.9574 88.914,20.2907 89.5,20.5C 90.5321,18.9604 91.8654,18.4604 93.5,19C 95.8437,20.1851 96.6771,22.0185 96,24.5C 95.5917,22.5904 94.4251,21.5904 92.5,21.5C 89.4965,21.8119 88.8298,23.1452 90.5,25.5 Z"/></g>
<g><path style="opacity:1" fill="#575250" d="M 100.5,16.5 C 100.343,17.8734 100.51,19.2068 101,20.5C 103.292,19.0922 105.459,19.2589 107.5,21C 103.284,22.1391 101.951,24.6391 103.5,28.5C 102.5,28.1667 101.833,27.5 101.5,26.5C 100.156,24.8317 98.8229,23.1651 97.5,21.5C 97.6799,20.4461 98.0133,19.4461 98.5,18.5C 95.8723,15.4538 96.5389,14.7871 100.5,16.5 Z"/></g>
<g><path style="opacity:1" fill="#7a8cad" d="M 37.5,21.5 C 36.0335,18.7417 35.3668,19.075 35.5,22.5C 23.4935,24.169 11.4935,25.8357 -0.5,27.5C -0.5,26.1667 -0.5,24.8333 -0.5,23.5C 2.16667,23.5 4.83333,23.5 7.5,23.5C 7.5,22.5 7.5,21.5 7.5,20.5C 17.4968,19.503 27.4968,18.503 37.5,17.5C 37.5,18.8333 37.5,20.1667 37.5,21.5 Z"/></g>
<g><path style="opacity:1" fill="#c6d0e2" d="M 149.5,17.5 C 149.5,20.8333 149.5,24.1667 149.5,27.5C 144.821,27.3342 140.155,27.5008 135.5,28C 134.619,28.7083 133.953,29.5416 133.5,30.5C 133.167,30.5 132.833,30.5 132.5,30.5C 132.5,30.1667 132.5,29.8333 132.5,29.5C 131.577,25.9359 131.244,22.2693 131.5,18.5C 137.471,17.7588 143.471,17.4255 149.5,17.5 Z"/></g>
<g><path style="opacity:1" fill="#906a5f" d="M 90.5,25.5 C 91.1667,25.8333 91.8333,26.1667 92.5,26.5C 92.5,26.8333 92.5,27.1667 92.5,27.5C 88.5,27.5 84.5,27.5 80.5,27.5C 83.7254,26.7632 87.0588,26.0965 90.5,25.5 Z"/></g>
<g><path style="opacity:1" fill="#899bba" d="M 80.5,18.5 C 80.5,18.8333 80.5,19.1667 80.5,19.5C 67.2675,21.9881 53.9342,23.9881 40.5,25.5C 38.9559,25.2104 37.6226,24.5437 36.5,23.5C 30.7811,24.8461 25.1144,26.5127 19.5,28.5C 15.5546,29.4909 11.5546,29.8242 7.5,29.5C 6.26743,33.1318 3.60077,34.7984 -0.5,34.5C -0.5,32.1667 -0.5,29.8333 -0.5,27.5C 11.4935,25.8357 23.4935,24.169 35.5,22.5C 35.3668,19.075 36.0335,18.7417 37.5,21.5C 38.7348,21.7214 39.7348,22.3881 40.5,23.5C 45.2847,21.509 50.2847,20.3423 55.5,20C 63.5577,19.4951 71.5577,18.6617 79.5,17.5C 80.1067,17.6236 80.44,17.9569 80.5,18.5 Z"/></g>
<g><path style="opacity:1" fill="#98a8c5" d="M 80.5,19.5 C 80.7678,21.099 80.4345,22.4324 79.5,23.5C 78.2946,22.3143 76.9613,22.3143 75.5,23.5C 59.7166,26.2023 43.7166,27.869 27.5,28.5C 22.582,31.4837 17.2487,32.8171 11.5,32.5C 11.719,33.675 11.3857,34.675 10.5,35.5C 6.86467,37.1616 3.19801,38.4949 -0.5,39.5C -0.5,37.8333 -0.5,36.1667 -0.5,34.5C 3.60077,34.7984 6.26743,33.1318 7.5,29.5C 11.5546,29.8242 15.5546,29.4909 19.5,28.5C 25.1144,26.5127 30.7811,24.8461 36.5,23.5C 37.6226,24.5437 38.9559,25.2104 40.5,25.5C 53.9342,23.9881 67.2675,21.9881 80.5,19.5 Z"/></g>
<g><path style="opacity:1" fill="#0b0809" d="M 132.5,30.5 C 132.5,31.1667 132.5,31.8333 132.5,32.5C 131.778,32.9175 131.278,33.5842 131,34.5C 129.989,33.6634 128.822,33.33 127.5,33.5C 127.36,35.1238 128.027,36.2904 129.5,37C 128.781,39.5562 127.114,40.7229 124.5,40.5C 124.785,38.712 124.452,37.0453 123.5,35.5C 122.604,36.5063 121.938,36.5063 121.5,35.5C 123.167,34.3333 124.833,33.1667 126.5,32C 123.743,31.4163 121.077,31.7496 118.5,33C 119.252,33.6708 119.586,34.5041 119.5,35.5C 117.088,35.3059 116.088,33.9726 116.5,31.5C 113.167,31.5 109.833,31.5 106.5,31.5C 105.833,31.5 105.5,31.1667 105.5,30.5C 105.659,27.845 106.659,25.5117 108.5,23.5C 110.747,24.3742 113.08,24.7076 115.5,24.5C 115.773,22.549 115.107,21.049 113.5,20C 114.966,19.3645 116.3,18.5312 117.5,17.5C 119.111,18.3202 119.778,19.6536 119.5,21.5C 121.564,21.687 123.564,22.187 125.5,23C 126.255,25.1748 127.088,27.3415 128,29.5C 129.356,30.3802 130.856,30.7135 132.5,30.5 Z"/></g>
<g><path style="opacity:1" fill="#c1988c" d="M 78.5,26.5 C 78.4088,28.6977 79.0755,29.0311 80.5,27.5C 84.5,27.5 88.5,27.5 92.5,27.5C 93.8333,28.1667 95.1667,28.8333 96.5,29.5C 91.1616,28.9979 85.8283,28.8312 80.5,29C 80.167,31.5244 79.0003,34.0244 77,36.5C 76.4436,38.8848 76.6103,41.2181 77.5,43.5C 75.4131,42.4154 74.0798,40.7488 73.5,38.5C 74.1174,38.6107 74.6174,38.944 75,39.5C 75.4974,36.854 75.6641,34.1873 75.5,31.5C 76.3127,29.7392 77.3127,28.0725 78.5,26.5 Z"/></g>
<g><path style="opacity:1" fill="#9c7063" d="M 92.5,27.5 C 96.7512,26.7304 99.2512,28.3971 100,32.5C 101.019,33.6872 102.186,34.6872 103.5,35.5C 105.727,34.9475 108.061,34.9475 110.5,35.5C 110.421,36.9305 110.754,38.2638 111.5,39.5C 110.675,40.3857 109.675,40.719 108.5,40.5C 108.5,39.8333 108.167,39.5 107.5,39.5C 108.598,38.603 108.598,37.7697 107.5,37C 104.385,36.1305 101.385,35.9638 98.5,36.5C 98.9746,33.9179 98.3079,31.9179 96.5,30.5C 96.5,30.1667 96.5,29.8333 96.5,29.5C 95.1667,28.8333 93.8333,28.1667 92.5,27.5 Z"/></g>
<g><path style="opacity:1" fill="#b6c2d9" d="M 79.5,23.5 C 79.5,24.1667 79.5,24.8333 79.5,25.5C 78.8333,25.5 78.5,25.8333 78.5,26.5C 77.3127,28.0725 76.3127,29.7392 75.5,31.5C 70.1951,32.1942 64.8617,32.5276 59.5,32.5C 59.5,33.5 59.5,34.5 59.5,35.5C 49.6874,36.0276 40.0207,36.8609 30.5,38C 24.1664,40.8335 17.8331,43.6668 11.5,46.5C 10.1487,48.019 8.64869,49.3523 7,50.5C 6.02552,48.1224 5.35886,48.4557 5,51.5C 4.66667,50.8333 4.33333,50.1667 4,49.5C 2.90849,51.1166 1.40849,52.1166 -0.5,52.5C -0.5,50.5 -0.5,48.5 -0.5,46.5C 4.45261,43.7752 9.61928,41.4419 15,39.5C 15.3333,39.8333 15.6667,40.1667 16,40.5C 16.5,38.6667 17.6667,37.5 19.5,37C 25.439,34.9207 31.439,32.9207 37.5,31C 41.7757,31.4068 46.109,30.9068 50.5,29.5C 52.8174,30.7099 54.8174,30.2099 56.5,28C 62.8246,27.5005 69.1579,27.3338 75.5,27.5C 75.5,26.1667 75.5,24.8333 75.5,23.5C 76.9613,22.3143 78.2946,22.3143 79.5,23.5 Z"/></g>
<g><path style="opacity:1" fill="#a7b5ce" d="M 75.5,23.5 C 75.5,24.8333 75.5,26.1667 75.5,27.5C 69.1579,27.3338 62.8246,27.5005 56.5,28C 54.8174,30.2099 52.8174,30.7099 50.5,29.5C 46.109,30.9068 41.7757,31.4068 37.5,31C 31.439,32.9207 25.439,34.9207 19.5,37C 17.6667,37.5 16.5,38.6667 16,40.5C 15.6667,40.1667 15.3333,39.8333 15,39.5C 9.61928,41.4419 4.45261,43.7752 -0.5,46.5C -0.5,44.1667 -0.5,41.8333 -0.5,39.5C 3.19801,38.4949 6.86467,37.1616 10.5,35.5C 11.3857,34.675 11.719,33.675 11.5,32.5C 17.2487,32.8171 22.582,31.4837 27.5,28.5C 43.7166,27.869 59.7166,26.2023 75.5,23.5 Z"/></g>
<g><path style="opacity:1" fill="#4f4d50" d="M 132.5,30.5 C 132.833,30.5 133.167,30.5 133.5,30.5C 134.726,36.9759 134.726,43.3093 133.5,49.5C 134.011,45.2174 133.344,41.2174 131.5,37.5C 132.309,35.9291 132.643,34.2624 132.5,32.5C 132.5,31.8333 132.5,31.1667 132.5,30.5 Z"/></g>
<g><path style="opacity:1" fill="#322424" d="M 106.5,31.5 C 109.833,31.5 113.167,31.5 116.5,31.5C 116.088,33.9726 117.088,35.3059 119.5,35.5C 119.532,37.8718 119.699,40.5385 120,43.5C 121.813,42.3909 122.646,43.0576 122.5,45.5C 125.012,45.4228 127.012,46.4228 128.5,48.5C 127.167,50.5 127.167,52.5 128.5,54.5C 127.975,55.1924 127.308,55.6924 126.5,56C 127.252,56.6708 127.586,57.5041 127.5,58.5C 125.958,57.6993 124.292,57.366 122.5,57.5C 122.5,56.5 122.5,55.5 122.5,54.5C 119.167,55.8333 115.833,55.8333 112.5,54.5C 112.663,52.1432 112.497,49.8098 112,47.5C 111.292,46.6195 110.458,45.9528 109.5,45.5C 109.281,44.325 109.614,43.325 110.5,42.5C 112.264,44.4787 114.264,44.812 116.5,43.5C 115.559,41.2279 114.226,39.2279 112.5,37.5C 112.709,36.914 113.043,36.414 113.5,36C 111.676,33.4953 109.343,31.9953 106.5,31.5 Z"/></g>
<g><path style="opacity:1" fill="#f6c0a9" d="M 96.5,29.5 C 96.5,29.8333 96.5,30.1667 96.5,30.5C 96.5394,31.5832 96.8728,32.5832 97.5,33.5C 95.02,36.3884 91.8534,38.0551 88,38.5C 87.1668,41.171 87.6668,43.5043 89.5,45.5C 86.1667,45.5 82.8333,45.5 79.5,45.5C 79.1667,44.5 78.5,43.8333 77.5,43.5C 76.6103,41.2181 76.4436,38.8848 77,36.5C 79.0003,34.0244 80.167,31.5244 80.5,29C 85.8283,28.8312 91.1616,28.9979 96.5,29.5 Z"/></g>
<g><path style="opacity:1" fill="#f7c8ba" d="M 96.5,30.5 C 98.3079,31.9179 98.9746,33.9179 98.5,36.5C 100.834,37.1237 103.167,37.957 105.5,39C 102.333,41.6194 100.333,44.786 99.5,48.5C 96.5,47.8333 93.5,47.1667 90.5,46.5C 90.1667,46.5 89.8333,46.5 89.5,46.5C 89.5,46.1667 89.5,45.8333 89.5,45.5C 87.6668,43.5043 87.1668,41.171 88,38.5C 91.8534,38.0551 95.02,36.3884 97.5,33.5C 96.8728,32.5832 96.5394,31.5832 96.5,30.5 Z"/></g>
<g><path style="opacity:1" fill="#e6ecf4" d="M 149.5,27.5 C 149.5,38.5 149.5,49.5 149.5,60.5C 145.64,59.3559 141.64,58.6893 137.5,58.5C 139.175,61.572 140.508,64.9054 141.5,68.5C 142.234,69.7079 142.567,71.0413 142.5,72.5C 142.5,73.5 142.5,74.5 142.5,75.5C 140.717,76.1135 139.384,77.2802 138.5,79C 137.552,79.4828 136.552,79.6495 135.5,79.5C 135.66,81.1992 135.494,82.8659 135,84.5C 134.329,85.2524 133.496,85.5858 132.5,85.5C 132.823,79.31 132.49,73.31 131.5,67.5C 131.5,63.5 131.5,59.5 131.5,55.5C 132.458,53.6976 133.125,51.6976 133.5,49.5C 134.726,43.3093 134.726,36.9759 133.5,30.5C 133.953,29.5416 134.619,28.7083 135.5,28C 140.155,27.5008 144.821,27.3342 149.5,27.5 Z"/></g>
<g><path style="opacity:1" fill="#0c0c0e" d="M 69.5,40.5 C 71.1408,42.2029 72.1408,44.3695 72.5,47C 71.944,47.3826 71.6107,47.8826 71.5,48.5C 70.9853,50.8945 70.3186,53.2278 69.5,55.5C 69.5,55.8333 69.5,56.1667 69.5,56.5C 69.0729,67.6207 68.7395,78.6207 68.5,89.5C 65.5,89.5 62.5,89.5 59.5,89.5C 59.1583,88.6618 58.4916,88.3284 57.5,88.5C 57.5,87.1667 57.5,85.8333 57.5,84.5C 58.1667,84.5 58.5,84.1667 58.5,83.5C 59.1667,82.1667 59.8333,80.8333 60.5,79.5C 61.746,76.7067 61.4127,74.04 59.5,71.5C 57.7502,65.3849 57.0835,59.0516 57.5,52.5C 58.7368,51.0351 59.7368,49.3684 60.5,47.5C 63.2327,44.7606 66.2327,42.4273 69.5,40.5 Z"/></g>
<g><path style="opacity:1" fill="#dba38f" d="M 107.5,39.5 C 106.542,39.9528 105.708,40.6195 105,41.5C 104.235,44.1959 103.068,46.6959 101.5,49C 99.8659,49.4935 98.1992,49.6602 96.5,49.5C 94.6854,48.3702 92.6854,47.7036 90.5,47.5C 90.5,47.1667 90.5,46.8333 90.5,46.5C 93.5,47.1667 96.5,47.8333 99.5,48.5C 100.333,44.786 102.333,41.6194 105.5,39C 103.167,37.957 100.834,37.1237 98.5,36.5C 101.385,35.9638 104.385,36.1305 107.5,37C 108.598,37.7697 108.598,38.603 107.5,39.5 Z"/></g>
<g><path style="opacity:1" fill="#523934" d="M 101.5,26.5 C 101.833,27.5 102.5,28.1667 103.5,28.5C 103.833,29.5 104.5,30.1667 105.5,30.5C 105.5,31.1667 105.833,31.5 106.5,31.5C 109.343,31.9953 111.676,33.4953 113.5,36C 113.043,36.414 112.709,36.914 112.5,37.5C 114.226,39.2279 115.559,41.2279 116.5,43.5C 114.264,44.812 112.264,44.4787 110.5,42.5C 109.614,43.325 109.281,44.325 109.5,45.5C 108.549,44.0813 108.216,42.4147 108.5,40.5C 109.675,40.719 110.675,40.3857 111.5,39.5C 110.754,38.2638 110.421,36.9305 110.5,35.5C 108.061,34.9475 105.727,34.9475 103.5,35.5C 102.186,34.6872 101.019,33.6872 100,32.5C 99.2512,28.3971 96.7512,26.7304 92.5,27.5C 92.5,27.1667 92.5,26.8333 92.5,26.5C 94.4672,26.7394 96.3005,26.4061 98,25.5C 98.9147,26.3279 99.5814,27.3279 100,28.5C 100.278,27.5842 100.778,26.9175 101.5,26.5 Z"/></g>
<g><path style="opacity:1" fill="#1a1517" d="M 132.5,32.5 C 132.643,34.2624 132.309,35.9291 131.5,37.5C 133.344,41.2174 134.011,45.2174 133.5,49.5C 133.125,51.6976 132.458,53.6976 131.5,55.5C 130.167,56.8333 128.833,58.1667 127.5,59.5C 127.5,59.1667 127.5,58.8333 127.5,58.5C 127.586,57.5041 127.252,56.6708 126.5,56C 127.308,55.6924 127.975,55.1924 128.5,54.5C 127.167,52.5 127.167,50.5 128.5,48.5C 127.012,46.4228 125.012,45.4228 122.5,45.5C 122.646,43.0576 121.813,42.3909 120,43.5C 119.699,40.5385 119.532,37.8718 119.5,35.5C 119.586,34.5041 119.252,33.6708 118.5,33C 121.077,31.7496 123.743,31.4163 126.5,32C 124.833,33.1667 123.167,34.3333 121.5,35.5C 121.938,36.5063 122.604,36.5063 123.5,35.5C 124.452,37.0453 124.785,38.712 124.5,40.5C 127.114,40.7229 128.781,39.5562 129.5,37C 128.027,36.2904 127.36,35.1238 127.5,33.5C 128.822,33.33 129.989,33.6634 131,34.5C 131.278,33.5842 131.778,32.9175 132.5,32.5 Z"/></g>
<g><path style="opacity:1" fill="#4c3133" d="M 73.5,38.5 C 74.0798,40.7488 75.4131,42.4154 77.5,43.5C 78.5,43.8333 79.1667,44.5 79.5,45.5C 79.5,46.8333 79.5,48.1667 79.5,49.5C 79.1667,49.5 78.8333,49.5 78.5,49.5C 77.7354,49.9234 76.9021,50.2568 76,50.5C 74.6998,49.2927 73.1998,48.6261 71.5,48.5C 71.6107,47.8826 71.944,47.3826 72.5,47C 72.1408,44.3695 71.1408,42.2029 69.5,40.5C 70.5137,39.3263 71.847,38.6596 73.5,38.5 Z"/></g>
<g><path style="opacity:1" fill="#bf8177" d="M 79.5,45.5 C 82.8333,45.5 86.1667,45.5 89.5,45.5C 89.5,45.8333 89.5,46.1667 89.5,46.5C 87.5,46.5 85.5,46.5 83.5,46.5C 83.5,48.8333 83.5,51.1667 83.5,53.5C 82.5655,52.4324 82.2322,51.099 82.5,49.5C 81.5,49.5 80.5,49.5 79.5,49.5C 79.5,48.1667 79.5,46.8333 79.5,45.5 Z"/></g>
<g><path style="opacity:1" fill="#b5715d" d="M 107.5,39.5 C 105.954,41.8825 105.287,44.5491 105.5,47.5C 107.262,47.3573 108.929,47.6906 110.5,48.5C 111.474,50.7427 111.808,53.076 111.5,55.5C 110.113,57.8766 109.279,60.5432 109,63.5C 106.86,65.6396 104.694,67.8063 102.5,70C 100.288,70.7891 98.2884,70.6225 96.5,69.5C 100.619,69.8011 102.619,67.8011 102.5,63.5C 108.509,61.4621 110.509,57.4621 108.5,51.5C 107.5,52 106.5,52.5 105.5,53C 107.158,53.7253 107.658,54.892 107,56.5C 106.667,56.1667 106.333,55.8333 106,55.5C 103.286,56.9965 100.453,57.9965 97.5,58.5C 96.2921,59.2341 94.9587,59.5674 93.5,59.5C 96.3077,57.4738 99.3077,55.8071 102.5,54.5C 100.838,52.3483 98.8381,50.6817 96.5,49.5C 98.1992,49.6602 99.8659,49.4935 101.5,49C 103.068,46.6959 104.235,44.1959 105,41.5C 105.708,40.6195 106.542,39.9528 107.5,39.5 Z"/></g>
<g><path style="opacity:1" fill="#c9d2e3" d="M 75.5,31.5 C 75.6641,34.1873 75.4974,36.854 75,39.5C 74.6174,38.944 74.1174,38.6107 73.5,38.5C 71.847,38.6596 70.5137,39.3263 69.5,40.5C 66.2327,42.4273 63.2327,44.7606 60.5,47.5C 60.3409,44.7994 59.1742,42.7994 57,41.5C 51.1547,45.5869 44.6547,47.4202 37.5,47C 32.0507,48.76 26.7174,50.5933 21.5,52.5C 21.719,53.675 21.3857,54.675 20.5,55.5C 16.3883,58.9122 12.3883,62.4122 8.5,66C 8.83333,66.3333 9.16667,66.6667 9.5,67C 4.28401,68.0414 2.95067,70.8747 5.5,75.5C 4.16667,75.5 2.83333,75.5 1.5,75.5C 0.899642,79.7481 2.23298,80.9148 5.5,79C 6.04952,77.1554 7.04952,75.6554 8.5,74.5C 10.4086,75.3482 12.4086,75.6816 14.5,75.5C 9.80284,76.6614 5.9695,79.3281 3,83.5C 2.23381,89.9706 2.73381,96.3039 4.5,102.5C 4.32842,103.492 4.66175,104.158 5.5,104.5C 6.09065,105.151 6.75731,105.818 7.5,106.5C 6.75731,107.182 6.09065,107.849 5.5,108.5C 3.73535,109.461 1.73535,109.795 -0.5,109.5C -0.5,90.5 -0.5,71.5 -0.5,52.5C 1.40849,52.1166 2.90849,51.1166 4,49.5C 4.33333,50.1667 4.66667,50.8333 5,51.5C 5.35886,48.4557 6.02552,48.1224 7,50.5C 8.64869,49.3523 10.1487,48.019 11.5,46.5C 17.8331,43.6668 24.1664,40.8335 30.5,38C 40.0207,36.8609 49.6874,36.0276 59.5,35.5C 59.5,34.5 59.5,33.5 59.5,32.5C 64.8617,32.5276 70.1951,32.1942 75.5,31.5 Z"/></g>
<g><path style="opacity:1" fill="#754d4d" d="M 71.5,48.5 C 73.1998,48.6261 74.6998,49.2927 76,50.5C 76.9021,50.2568 77.7354,49.9234 78.5,49.5C 77.7092,54.6039 74.7092,56.6039 69.5,55.5C 70.3186,53.2278 70.9853,50.8945 71.5,48.5 Z"/></g>
<g><path style="opacity:1" fill="#d38673" d="M 96.5,69.5 C 94.3432,68.5933 92.0098,67.9267 89.5,67.5C 88.925,65.5887 87.925,63.922 86.5,62.5C 89.3737,63.2241 91.8737,64.5575 94,66.5C 99.4195,65.3295 100.586,62.6628 97.5,58.5C 100.453,57.9965 103.286,56.9965 106,55.5C 106.333,55.8333 106.667,56.1667 107,56.5C 107.658,54.892 107.158,53.7253 105.5,53C 106.5,52.5 107.5,52 108.5,51.5C 110.509,57.4621 108.509,61.4621 102.5,63.5C 102.619,67.8011 100.619,69.8011 96.5,69.5 Z"/></g>
<g><path style="opacity:1" fill="#623135" d="M 89.5,46.5 C 89.8333,46.5 90.1667,46.5 90.5,46.5C 90.5,46.8333 90.5,47.1667 90.5,47.5C 92.6854,47.7036 94.6854,48.3702 96.5,49.5C 98.8381,50.6817 100.838,52.3483 102.5,54.5C 99.3077,55.8071 96.3077,57.4738 93.5,59.5C 89.4112,58.7417 86.0779,56.7417 83.5,53.5C 83.5,51.1667 83.5,48.8333 83.5,46.5C 85.5,46.5 87.5,46.5 89.5,46.5 Z"/></g>
<g><path style="opacity:1" fill="#2d1116" d="M 90.5,47.5 C 92.8776,49.5856 95.3776,51.5856 98,53.5C 98.1881,55.0613 97.3547,55.728 95.5,55.5C 95.8238,52.3198 94.4904,51.1531 91.5,52C 92.7414,53.4865 92.2414,54.3199 90,54.5C 86.5483,53.4695 85.0483,51.1362 85.5,47.5C 87.1667,47.5 88.8333,47.5 90.5,47.5 Z"/></g>
<g><path style="opacity:1" fill="#f2b4ad" d="M 78.5,49.5 C 78.8333,49.5 79.1667,49.5 79.5,49.5C 80.5,49.5 81.5,49.5 82.5,49.5C 82.2322,51.099 82.5655,52.4324 83.5,53.5C 86.0779,56.7417 89.4112,58.7417 93.5,59.5C 94.9587,59.5674 96.2921,59.2341 97.5,58.5C 100.586,62.6628 99.4195,65.3295 94,66.5C 91.8737,64.5575 89.3737,63.2241 86.5,62.5C 84.4966,64.0146 82.1632,64.6813 79.5,64.5C 75.7529,64.6127 72.4196,63.6127 69.5,61.5C 69.5,59.8333 69.5,58.1667 69.5,56.5C 69.5,56.1667 69.5,55.8333 69.5,55.5C 74.7092,56.6039 77.7092,54.6039 78.5,49.5 Z"/></g>
<g><path style="opacity:1" fill="#c78c87" d="M 122.5,57.5 C 124.292,57.366 125.958,57.6993 127.5,58.5C 127.5,58.8333 127.5,59.1667 127.5,59.5C 127.5,59.8333 127.5,60.1667 127.5,60.5C 124.871,59.2857 122.204,59.2857 119.5,60.5C 118.957,60.44 118.624,60.1067 118.5,59.5C 119.577,58.2949 120.91,57.6282 122.5,57.5 Z"/></g>
<g><path style="opacity:1" fill="#6e443f" d="M 107.5,39.5 C 108.167,39.5 108.5,39.8333 108.5,40.5C 108.216,42.4147 108.549,44.0813 109.5,45.5C 110.458,45.9528 111.292,46.6195 112,47.5C 112.497,49.8098 112.663,52.1432 112.5,54.5C 115.833,55.8333 119.167,55.8333 122.5,54.5C 122.5,55.5 122.5,56.5 122.5,57.5C 120.91,57.6282 119.577,58.2949 118.5,59.5C 118.624,60.1067 118.957,60.44 119.5,60.5C 118.449,61.2223 117.782,62.2223 117.5,63.5C 116.5,63.5 115.5,63.5 114.5,63.5C 113.5,63.5 112.5,63.5 111.5,63.5C 111.5,60.8333 111.5,58.1667 111.5,55.5C 111.808,53.076 111.474,50.7427 110.5,48.5C 108.929,47.6906 107.262,47.3573 105.5,47.5C 105.287,44.5491 105.954,41.8825 107.5,39.5 Z"/></g>
<g><path style="opacity:1" fill="#3c4463" d="M 149.5,60.5 C 149.5,61.1667 149.5,61.8333 149.5,62.5C 147.456,63.5082 145.456,64.5082 143.5,65.5C 142.833,66.5 142.167,67.5 141.5,68.5C 140.508,64.9054 139.175,61.572 137.5,58.5C 141.64,58.6893 145.64,59.3559 149.5,60.5 Z"/></g>
<g><path style="opacity:1" fill="#d6ddec" d="M 60.5,47.5 C 59.7368,49.3684 58.7368,51.0351 57.5,52.5C 57.4938,50.1556 56.3271,48.8223 54,48.5C 48.7185,48.5939 44.0519,50.2606 40,53.5C 38.6124,52.4464 37.1124,52.2797 35.5,53C 32.7365,54.9438 29.7365,56.4438 26.5,57.5C 25.5344,59.396 25.2011,61.396 25.5,63.5C 24.1667,63.5 22.8333,63.5 21.5,63.5C 21.5,64.8333 21.5,66.1667 21.5,67.5C 19.3193,67.2837 17.6526,68.117 16.5,70C 16.8333,70.3333 17.1667,70.6667 17.5,71C 15.8333,71.3333 14.1667,71.6667 12.5,72C 15.5612,73.1158 18.7279,73.9492 22,74.5C 22.8333,73.5 23.6667,72.5 24.5,71.5C 26.1667,72.6667 27.8333,73.8333 29.5,75C 29.1667,75.3333 28.8333,75.6667 28.5,76C 29.7101,77.0391 30.7101,78.2058 31.5,79.5C 31.1667,79.5 30.8333,79.5 30.5,79.5C 25.6873,76.345 20.354,75.0116 14.5,75.5C 12.4086,75.6816 10.4086,75.3482 8.5,74.5C 7.04952,75.6554 6.04952,77.1554 5.5,79C 2.23298,80.9148 0.899642,79.7481 1.5,75.5C 2.83333,75.5 4.16667,75.5 5.5,75.5C 2.95067,70.8747 4.28401,68.0414 9.5,67C 9.16667,66.6667 8.83333,66.3333 8.5,66C 12.3883,62.4122 16.3883,58.9122 20.5,55.5C 21.3857,54.675 21.719,53.675 21.5,52.5C 26.7174,50.5933 32.0507,48.76 37.5,47C 44.6547,47.4202 51.1547,45.5869 57,41.5C 59.1742,42.7994 60.3409,44.7994 60.5,47.5 Z"/></g>
<g><path style="opacity:1" fill="#e1e7f1" d="M 57.5,52.5 C 57.0835,59.0516 57.7502,65.3849 59.5,71.5C 59.8333,74.1667 60.1667,76.8333 60.5,79.5C 59.8333,80.8333 59.1667,82.1667 58.5,83.5C 56.0971,83.552 53.7638,83.2186 51.5,82.5C 50.1667,82.5 48.8333,82.5 47.5,82.5C 47.7373,81.209 47.404,80.209 46.5,79.5C 46.1667,79.5 45.8333,79.5 45.5,79.5C 43.9687,77.3199 41.8021,76.3199 39,76.5C 36.1955,76.8209 33.6955,77.8209 31.5,79.5C 30.7101,78.2058 29.7101,77.0391 28.5,76C 28.8333,75.6667 29.1667,75.3333 29.5,75C 27.8333,73.8333 26.1667,72.6667 24.5,71.5C 23.6667,72.5 22.8333,73.5 22,74.5C 18.7279,73.9492 15.5612,73.1158 12.5,72C 14.1667,71.6667 15.8333,71.3333 17.5,71C 17.1667,70.6667 16.8333,70.3333 16.5,70C 17.6526,68.117 19.3193,67.2837 21.5,67.5C 21.5,66.1667 21.5,64.8333 21.5,63.5C 22.8333,63.5 24.1667,63.5 25.5,63.5C 25.2011,61.396 25.5344,59.396 26.5,57.5C 29.7365,56.4438 32.7365,54.9438 35.5,53C 37.1124,52.2797 38.6124,52.4464 40,53.5C 44.0519,50.2606 48.7185,48.5939 54,48.5C 56.3271,48.8223 57.4938,50.1556 57.5,52.5 Z"/></g>
<g><path style="opacity:1" fill="#7c2e30" d="M 127.5,60.5 C 127.5,61.5 127.5,62.5 127.5,63.5C 126.833,63.5 126.5,63.8333 126.5,64.5C 124.718,63.2804 122.718,62.6138 120.5,62.5C 120.635,64.5542 119.968,66.2209 118.5,67.5C 117.577,68.3029 116.577,68.4696 115.5,68C 117.037,66.8904 117.703,65.3904 117.5,63.5C 117.782,62.2223 118.449,61.2223 119.5,60.5C 122.204,59.2857 124.871,59.2857 127.5,60.5 Z"/></g>
<g><path style="opacity:1" fill="#8b4e51" d="M 69.5,61.5 C 72.4196,63.6127 75.7529,64.6127 79.5,64.5C 82.1632,64.6813 84.4966,64.0146 86.5,62.5C 87.925,63.922 88.925,65.5887 89.5,67.5C 89.8333,68.1667 90.1667,68.8333 90.5,69.5C 88.8235,70.1834 88.1568,71.5168 88.5,73.5C 87.1266,73.3433 85.7932,73.51 84.5,74C 87.1667,74.6667 87.1667,75.3333 84.5,76C 86.9033,75.5769 89.2366,75.7436 91.5,76.5C 92.3382,76.8417 92.6716,77.5084 92.5,78.5C 91.099,81.1817 89.599,83.8483 88,86.5C 87.3292,87.2524 86.4959,87.5858 85.5,87.5C 86.8839,84.6817 87.8839,81.6817 88.5,78.5C 84.5411,77.3401 80.5411,77.1735 76.5,78C 80.2452,77.9646 80.9119,78.9646 78.5,81C 78.8333,81.3333 79.1667,81.6667 79.5,82C 76.854,82.4974 74.1873,82.6641 71.5,82.5C 70.2439,75.6037 69.5773,68.6037 69.5,61.5 Z"/></g>
<g><path style="opacity:1" fill="#b95d5f" d="M 126.5,64.5 C 125.828,65.2674 124.995,65.9341 124,66.5C 122.506,62.6959 121.672,63.0293 121.5,67.5C 120.5,67.5 119.5,67.5 118.5,67.5C 119.968,66.2209 120.635,64.5542 120.5,62.5C 122.718,62.6138 124.718,63.2804 126.5,64.5 Z"/></g>
<g><path style="opacity:1" fill="#444146" d="M 131.5,55.5 C 131.5,59.5 131.5,63.5 131.5,67.5C 130.686,65.369 130.186,63.0356 130,60.5C 129.667,60.8333 129.333,61.1667 129,61.5C 128.5,67.8246 128.334,74.1579 128.5,80.5C 128.167,80.5 127.833,80.5 127.5,80.5C 127.5,75.8333 127.5,71.1667 127.5,66.5C 127.5,65.5 127.5,64.5 127.5,63.5C 127.5,62.5 127.5,61.5 127.5,60.5C 127.5,60.1667 127.5,59.8333 127.5,59.5C 128.833,58.1667 130.167,56.8333 131.5,55.5 Z"/></g>
<g><path style="opacity:1" fill="#b37678" d="M 83.5,72.5 C 82.0222,72.762 80.6888,72.4287 79.5,71.5C 80.325,70.6143 81.325,70.281 82.5,70.5C 82.4326,69.0413 82.7659,67.7079 83.5,66.5C 84.1499,66.1961 84.8165,65.8627 85.5,65.5C 86.9438,67.6079 87.6104,69.9412 87.5,72.5C 86.1667,72.5 84.8333,72.5 83.5,72.5 Z"/></g>
<g><path style="opacity:1" fill="#5d2835" d="M 83.5,66.5 C 82.7659,67.7079 82.4326,69.0413 82.5,70.5C 81.325,70.281 80.325,70.6143 79.5,71.5C 80.6888,72.4287 82.0222,72.762 83.5,72.5C 82.0813,73.4511 80.4147,73.7845 78.5,73.5C 77.0222,73.238 75.6888,73.5713 74.5,74.5C 74.6236,75.1067 74.9569,75.44 75.5,75.5C 74.8166,77.1765 73.4832,77.8432 71.5,77.5C 71.1098,73.6065 71.7765,69.9398 73.5,66.5C 76.6773,65.5761 80.0106,65.5761 83.5,66.5 Z"/></g>
<g><path style="opacity:1" fill="#8a5148" d="M 111.5,55.5 C 111.5,58.1667 111.5,60.8333 111.5,63.5C 112.5,63.5 113.5,63.5 114.5,63.5C 113.802,66.5447 113.468,69.5447 113.5,72.5C 109.624,68.0939 107.124,68.7606 106,74.5C 105.196,75.8045 104.029,76.4712 102.5,76.5C 99.6407,75.5703 97.3074,73.9036 95.5,71.5C 94.5832,72.1272 93.5832,72.4606 92.5,72.5C 91.5987,71.7095 90.9321,70.7095 90.5,69.5C 90.1667,68.8333 89.8333,68.1667 89.5,67.5C 92.0098,67.9267 94.3432,68.5933 96.5,69.5C 98.2884,70.6225 100.288,70.7891 102.5,70C 104.694,67.8063 106.86,65.6396 109,63.5C 109.279,60.5432 110.113,57.8766 111.5,55.5 Z"/></g>
<g><path style="opacity:1" fill="#da9390" d="M 114.5,63.5 C 115.5,63.5 116.5,63.5 117.5,63.5C 117.703,65.3904 117.037,66.8904 115.5,68C 116.577,68.4696 117.577,68.3029 118.5,67.5C 119.5,67.5 120.5,67.5 121.5,67.5C 121.672,63.0293 122.506,62.6959 124,66.5C 124.995,65.9341 125.828,65.2674 126.5,64.5C 126.5,63.8333 126.833,63.5 127.5,63.5C 127.5,64.5 127.5,65.5 127.5,66.5C 124.545,69.1156 121.545,71.7823 118.5,74.5C 117.432,73.5655 116.099,73.2322 114.5,73.5C 113.833,73.5 113.5,73.1667 113.5,72.5C 113.468,69.5447 113.802,66.5447 114.5,63.5 Z"/></g>
<g><path style="opacity:1" fill="#05070e" d="M 131.5,67.5 C 131.821,72.6946 131.487,77.6946 130.5,82.5C 129.833,82.5 129.167,82.5 128.5,82.5C 128.5,81.8333 128.5,81.1667 128.5,80.5C 128.334,74.1579 128.5,67.8246 129,61.5C 129.333,61.1667 129.667,60.8333 130,60.5C 130.186,63.0356 130.686,65.369 131.5,67.5 Z"/></g>
<g><path style="opacity:1" fill="#b2b1b5" d="M 149.5,62.5 C 149.5,67.1667 149.5,71.8333 149.5,76.5C 146.208,73.5403 144.208,69.8737 143.5,65.5C 145.456,64.5082 147.456,63.5082 149.5,62.5 Z"/></g>
<g><path style="opacity:1" fill="#461e1b" d="M 90.5,69.5 C 90.9321,70.7095 91.5987,71.7095 92.5,72.5C 92.5674,73.9587 92.2341,75.2921 91.5,76.5C 89.2366,75.7436 86.9033,75.5769 84.5,76C 87.1667,75.3333 87.1667,74.6667 84.5,74C 85.7932,73.51 87.1266,73.3433 88.5,73.5C 88.1568,71.5168 88.8235,70.1834 90.5,69.5 Z"/></g>
<g><path style="opacity:1" fill="#9e878e" d="M 78.5,73.5 C 79.9516,74.3019 81.6183,74.8019 83.5,75C 80.6993,75.9517 78.0326,76.1184 75.5,75.5C 74.9569,75.44 74.6236,75.1067 74.5,74.5C 75.6888,73.5713 77.0222,73.238 78.5,73.5 Z"/></g>
<g><path style="opacity:1" fill="#899098" d="M 131.5,67.5 C 132.49,73.31 132.823,79.31 132.5,85.5C 130.952,85.1788 130.285,84.1788 130.5,82.5C 131.487,77.6946 131.821,72.6946 131.5,67.5 Z"/></g>
<g><path style="opacity:1" fill="#6f4b4e" d="M 114.5,73.5 C 116.099,73.2322 117.432,73.5655 118.5,74.5C 118.968,78.1313 118.301,81.4646 116.5,84.5C 116.624,85.1067 116.957,85.44 117.5,85.5C 117.5,85.8333 117.5,86.1667 117.5,86.5C 115.612,88.9878 114.945,91.9878 115.5,95.5C 115.167,95.5 114.833,95.5 114.5,95.5C 114.5,91.8333 114.5,88.1667 114.5,84.5C 114.695,80.6222 114.695,76.9556 114.5,73.5 Z"/></g>
<g><path style="opacity:1" fill="#6c6d8b" d="M 143.5,65.5 C 144.208,69.8737 146.208,73.5403 149.5,76.5C 149.5,77.8333 149.5,79.1667 149.5,80.5C 148.391,80.4431 147.391,80.1098 146.5,79.5C 144.884,77.262 143.551,74.9287 142.5,72.5C 142.567,71.0413 142.234,69.7079 141.5,68.5C 142.167,67.5 142.833,66.5 143.5,65.5 Z"/></g>
<g><path style="opacity:1" fill="#8d8e95" d="M 59.5,71.5 C 61.4127,74.04 61.746,76.7067 60.5,79.5C 60.1667,76.8333 59.8333,74.1667 59.5,71.5 Z"/></g>
<g><path style="opacity:1" fill="#372b24" d="M 45.5,79.5 C 41.7301,79.998 38.0634,80.998 34.5,82.5C 33.5525,81.0221 32.2191,80.0221 30.5,79.5C 30.8333,79.5 31.1667,79.5 31.5,79.5C 33.6955,77.8209 36.1955,76.8209 39,76.5C 41.8021,76.3199 43.9687,77.3199 45.5,79.5 Z"/></g>
<g><path style="opacity:1" fill="#7a727b" d="M 46.5,79.5 C 47.404,80.209 47.7373,81.209 47.5,82.5C 48.8333,82.5 50.1667,82.5 51.5,82.5C 51.6757,86.2889 51.6757,90.2889 51.5,94.5C 49.5,94.8333 47.5,95.1667 45.5,95.5C 46.7804,94.0687 48.4471,93.4021 50.5,93.5C 50.5,90.1667 50.5,86.8333 50.5,83.5C 48.8333,83.5 47.1667,83.5 45.5,83.5C 45.5,82.8333 45.5,82.1667 45.5,81.5C 46.3382,81.1583 46.6716,80.4916 46.5,79.5 Z"/></g>
<g><path style="opacity:1" fill="#cb827b" d="M 85.5,87.5 C 84.8333,87.5 84.1667,87.5 83.5,87.5C 82.5,87.5 81.5,87.5 80.5,87.5C 81.9361,86.5714 83.2695,85.4048 84.5,84C 80.1794,83.501 75.8461,83.3343 71.5,83.5C 71.5,83.1667 71.5,82.8333 71.5,82.5C 74.1873,82.6641 76.854,82.4974 79.5,82C 79.1667,81.6667 78.8333,81.3333 78.5,81C 80.9119,78.9646 80.2452,77.9646 76.5,78C 80.5411,77.1735 84.5411,77.3401 88.5,78.5C 87.8839,81.6817 86.8839,84.6817 85.5,87.5 Z"/></g>
<g><path style="opacity:1" fill="#c3c7c2" d="M 142.5,75.5 C 142.476,80.9233 141.81,86.2566 140.5,91.5C 139.178,91.33 138.011,91.6634 137,92.5C 136.548,95.1494 135.714,97.6494 134.5,100C 131.372,100.384 130.372,99.217 131.5,96.5C 131.5,96.1667 131.5,95.8333 131.5,95.5C 132.586,95.38 133.253,94.7133 133.5,93.5C 132.731,90.8853 132.397,88.2186 132.5,85.5C 133.496,85.5858 134.329,85.2524 135,84.5C 135.494,82.8659 135.66,81.1992 135.5,79.5C 136.552,79.6495 137.552,79.4828 138.5,79C 139.384,77.2802 140.717,76.1135 142.5,75.5 Z"/></g>
<g><path style="opacity:1" fill="#e1b5b7" d="M 45.5,81.5 C 45.5,82.1667 45.5,82.8333 45.5,83.5C 43.0532,83.615 41.0532,84.615 39.5,86.5C 38.5,86.5 37.5,86.5 36.5,86.5C 36.2865,84.8561 36.6198,83.3561 37.5,82C 40.146,81.5026 42.8127,81.3359 45.5,81.5 Z"/></g>
<g><path style="opacity:1" fill="#532e2c" d="M 76.5,93.5 C 76.44,92.9569 76.1067,92.6236 75.5,92.5C 74.8302,94.2914 74.1635,95.9581 73.5,97.5C 73.1849,94.7892 73.8516,92.4559 75.5,90.5C 77.7463,89.7904 80.0796,89.2904 82.5,89C 83.056,88.6174 83.3893,88.1174 83.5,87.5C 84.1667,87.5 84.8333,87.5 85.5,87.5C 86.4959,87.5858 87.3292,87.2524 88,86.5C 89.599,83.8483 91.099,81.1817 92.5,78.5C 93.2076,76.6221 94.3743,74.9555 96,73.5C 98.1135,75.2711 97.9468,76.7711 95.5,78C 97,80.1667 98.1667,80 99,77.5C 103.177,81.3597 106.677,80.693 109.5,75.5C 110.652,78.1062 110.818,80.7728 110,83.5C 106.154,87.3489 102.654,91.5156 99.5,96C 97.2318,97.5519 94.7318,98.3852 92,98.5C 86.4691,97.7496 81.3024,96.0829 76.5,93.5 Z"/></g>
<g><path style="opacity:1" fill="#ebecf6" d="M 127.5,66.5 C 127.5,71.1667 127.5,75.8333 127.5,80.5C 127.943,86.0577 127.276,91.391 125.5,96.5C 124.883,96.3893 124.383,96.056 124,95.5C 123.768,96.7375 123.268,97.7375 122.5,98.5C 122.247,94.9601 121.581,91.6267 120.5,88.5C 119.833,87.1667 118.833,86.1667 117.5,85.5C 116.957,85.44 116.624,85.1067 116.5,84.5C 118.301,81.4646 118.968,78.1313 118.5,74.5C 121.545,71.7823 124.545,69.1156 127.5,66.5 Z"/></g>
<g><path style="opacity:1" fill="#0b0b0f" d="M 14.5,75.5 C 20.354,75.0116 25.6873,76.345 30.5,79.5C 32.2191,80.0221 33.5525,81.0221 34.5,82.5C 34.5,82.8333 34.5,83.1667 34.5,83.5C 31.1501,83.335 27.8168,83.5017 24.5,84C 22.9597,87.6631 21.293,91.1631 19.5,94.5C 18.8333,94.8333 18.1667,95.1667 17.5,95.5C 16.0384,94.5423 14.7051,93.3756 13.5,92C 12.2068,91.51 10.8734,91.3433 9.5,91.5C 10.0095,95.8131 9.34285,99.8131 7.5,103.5C 6.39105,103.443 5.39105,103.11 4.5,102.5C 2.73381,96.3039 2.23381,89.9706 3,83.5C 5.9695,79.3281 9.80284,76.6614 14.5,75.5 Z"/></g>
<g><path style="opacity:1" fill="#eeaea9" d="M 71.5,83.5 C 75.8461,83.3343 80.1794,83.501 84.5,84C 83.2695,85.4048 81.9361,86.5714 80.5,87.5C 77.8127,87.6641 75.146,87.4974 72.5,87C 70.5049,86.0764 70.1716,84.9097 71.5,83.5 Z"/></g>
<g><path style="opacity:1" fill="#79776a" d="M 146.5,79.5 C 147.391,80.1098 148.391,80.4431 149.5,80.5C 149.5,87.1667 149.5,93.8333 149.5,100.5C 148.249,98.6181 147.082,96.6181 146,94.5C 145.183,97.9643 145.517,101.298 147,104.5C 147.671,105.252 148.504,105.586 149.5,105.5C 149.5,105.833 149.5,106.167 149.5,106.5C 147.041,106.69 145.374,105.69 144.5,103.5C 144.718,98.7885 144.385,94.1219 143.5,89.5C 145.643,86.5375 146.643,83.2041 146.5,79.5 Z"/></g>
<g><path style="opacity:1" fill="#1a1214" d="M 45.5,83.5 C 47.1667,83.5 48.8333,83.5 50.5,83.5C 50.5,86.8333 50.5,90.1667 50.5,93.5C 48.4471,93.4021 46.7804,94.0687 45.5,95.5C 42.1226,95.9595 38.7893,96.6261 35.5,97.5C 34.2804,95.7179 33.6138,93.7179 33.5,91.5C 34.8333,91.5 36.1667,91.5 37.5,91.5C 37.8308,89.6776 38.4975,88.0109 39.5,86.5C 41.0532,84.615 43.0532,83.615 45.5,83.5 Z"/></g>
<g><path style="opacity:1" fill="#677181" d="M 57.5,84.5 C 57.5,85.8333 57.5,87.1667 57.5,88.5C 53.5606,87.0642 53.5606,85.7309 57.5,84.5 Z"/></g>
<g><path style="opacity:1" fill="#9f6d6e" d="M 69.5,56.5 C 69.5,58.1667 69.5,59.8333 69.5,61.5C 69.5773,68.6037 70.2439,75.6037 71.5,82.5C 71.5,82.8333 71.5,83.1667 71.5,83.5C 70.1716,84.9097 70.5049,86.0764 72.5,87C 75.146,87.4974 77.8127,87.6641 80.5,87.5C 81.5,87.5 82.5,87.5 83.5,87.5C 83.3893,88.1174 83.056,88.6174 82.5,89C 80.0796,89.2904 77.7463,89.7904 75.5,90.5C 74.0387,89.3143 72.7054,89.3143 71.5,90.5C 70.209,90.7373 69.209,90.404 68.5,89.5C 68.7395,78.6207 69.0729,67.6207 69.5,56.5 Z"/></g>
<g><path style="opacity:1" fill="#1f222b" d="M 128.5,82.5 C 129.167,82.5 129.833,82.5 130.5,82.5C 130.285,84.1788 130.952,85.1788 132.5,85.5C 132.397,88.2186 132.731,90.8853 133.5,93.5C 133.253,94.7133 132.586,95.38 131.5,95.5C 130.5,95.5 129.5,95.5 128.5,95.5C 128.5,91.1667 128.5,86.8333 128.5,82.5 Z"/></g>
<g><path style="opacity:1" fill="#835d5f" d="M 45.5,79.5 C 45.8333,79.5 46.1667,79.5 46.5,79.5C 46.6716,80.4916 46.3382,81.1583 45.5,81.5C 42.8127,81.3359 40.146,81.5026 37.5,82C 36.6198,83.3561 36.2865,84.8561 36.5,86.5C 37.5,86.5 38.5,86.5 39.5,86.5C 38.4975,88.0109 37.8308,89.6776 37.5,91.5C 36.1667,91.5 34.8333,91.5 33.5,91.5C 32.8333,91.1667 32.1667,90.8333 31.5,90.5C 30.5398,88.5393 29.2065,86.8726 27.5,85.5C 28.723,84.3861 30.0563,84.2195 31.5,85C 33.9952,89.6857 34.9952,89.1857 34.5,83.5C 34.5,83.1667 34.5,82.8333 34.5,82.5C 38.0634,80.998 41.7301,79.998 45.5,79.5 Z"/></g>
<g><path style="opacity:1" fill="#56312f" d="M 34.5,83.5 C 34.9952,89.1857 33.9952,89.6857 31.5,85C 30.0563,84.2195 28.723,84.3861 27.5,85.5C 29.2065,86.8726 30.5398,88.5393 31.5,90.5C 32.1667,90.8333 32.8333,91.1667 33.5,91.5C 33.6138,93.7179 34.2804,95.7179 35.5,97.5C 31.9473,99.0353 28.614,101.035 25.5,103.5C 22.6219,101.183 20.6219,98.183 19.5,94.5C 21.293,91.1631 22.9597,87.6631 24.5,84C 27.8168,83.5017 31.1501,83.335 34.5,83.5 Z"/></g>
<g><path style="opacity:1" fill="#b5c0d8" d="M 51.5,82.5 C 53.7638,83.2186 56.0971,83.552 58.5,83.5C 58.5,84.1667 58.1667,84.5 57.5,84.5C 53.5606,85.7309 53.5606,87.0642 57.5,88.5C 58.4916,88.3284 59.1583,88.6618 59.5,89.5C 57.8235,90.1834 57.1568,91.5168 57.5,93.5C 55.3792,93.3253 53.3792,93.6586 51.5,94.5C 51.6757,90.2889 51.6757,86.2889 51.5,82.5 Z"/></g>
<g><path style="opacity:1" fill="#5c5263" d="M 117.5,85.5 C 118.833,86.1667 119.833,87.1667 120.5,88.5C 120.813,92.0419 120.479,95.3752 119.5,98.5C 117.748,94.7727 117.081,90.7727 117.5,86.5C 117.5,86.1667 117.5,85.8333 117.5,85.5 Z"/></g>
<g><path style="opacity:1" fill="#260f0e" d="M 31.5,90.5 C 31.8333,93.5 30.5,94.8333 27.5,94.5C 27.5,93.1667 27.5,91.8333 27.5,90.5C 28.8333,90.5 30.1667,90.5 31.5,90.5 Z"/></g>
<g><path style="opacity:1" fill="#3a1e1f" d="M 117.5,86.5 C 117.081,90.7727 117.748,94.7727 119.5,98.5C 119.5,99.5 119.5,100.5 119.5,101.5C 116.303,100.888 114.969,98.8876 115.5,95.5C 114.945,91.9878 115.612,88.9878 117.5,86.5 Z"/></g>
<g><path style="opacity:1" fill="#fbfafc" d="M 58.5,114.5 C 58.4142,115.496 58.7476,116.329 59.5,117C 60.938,117.219 62.2713,117.719 63.5,118.5C 65.2193,121.219 67.5526,123.219 70.5,124.5C 71.624,125.914 72.624,127.414 73.5,129C 75.9756,131.571 78.9756,133.071 82.5,133.5C 81.1171,128.318 80.1171,122.985 79.5,117.5C 80.1667,117.5 80.5,117.833 80.5,118.5C 81.1098,119.391 81.4431,120.391 81.5,121.5C 82.4706,123.483 83.4706,125.483 84.5,127.5C 85.6424,130.259 86.9757,132.926 88.5,135.5C 90.8558,132.814 93.1891,130.147 95.5,127.5C 99.8604,123.806 103.86,119.806 107.5,115.5C 110.167,112.833 112.833,110.167 115.5,107.5C 115.833,106.833 116.167,106.167 116.5,105.5C 117.488,104.205 118.488,102.872 119.5,101.5C 120.272,100.306 121.272,99.3065 122.5,98.5C 123.268,97.7375 123.768,96.7375 124,95.5C 124.383,96.056 124.883,96.3893 125.5,96.5C 126.11,97.391 126.443,98.391 126.5,99.5C 127.029,101.583 128.029,103.417 129.5,105C 132.553,106.527 135.553,108.027 138.5,109.5C 141.65,112.579 145.317,114.913 149.5,116.5C 149.5,127.5 149.5,138.5 149.5,149.5C 107.5,149.5 65.5,149.5 23.5,149.5C 24.2653,146.904 24.5987,144.237 24.5,141.5C 24.162,139.146 23.662,136.813 23,134.5C 20.6829,131.127 18.5162,128.127 16.5,125.5C 16.1667,126.167 15.8333,126.833 15.5,127.5C 17.3964,132.947 19.0631,138.28 20.5,143.5C 21.4582,145.302 22.1249,147.302 22.5,149.5C 19.1667,149.5 15.8333,149.5 12.5,149.5C 11.0669,147.442 10.4003,145.108 10.5,142.5C 6.83333,142.5 3.16667,142.5 -0.5,142.5C -0.5,136.833 -0.5,131.167 -0.5,125.5C 3.23282,120.436 7.89949,116.436 13.5,113.5C 14.7095,113.068 15.7095,112.401 16.5,111.5C 17.5,111.167 18.1667,110.5 18.5,109.5C 20.8333,107.5 23.1667,105.5 25.5,103.5C 28.614,101.035 31.9473,99.0353 35.5,97.5C 38.7893,96.6261 42.1226,95.9595 45.5,95.5C 47.5,95.1667 49.5,94.8333 51.5,94.5C 53.3792,93.6586 55.3792,93.3253 57.5,93.5C 66.493,90.0875 69.3263,92.7541 66,101.5C 63.8159,100.892 61.8159,101.559 60,103.5C 58.3225,107.148 57.8225,110.815 58.5,114.5 Z"/></g>
<g><path style="opacity:1" fill="#b9b2bf" d="M 120.5,88.5 C 121.581,91.6267 122.247,94.9601 122.5,98.5C 121.272,99.3065 120.272,100.306 119.5,101.5C 119.5,100.5 119.5,99.5 119.5,98.5C 120.479,95.3752 120.813,92.0419 120.5,88.5 Z"/></g>
<g><path style="opacity:1" fill="#9aa0bd" d="M 127.5,80.5 C 127.833,80.5 128.167,80.5 128.5,80.5C 128.5,81.1667 128.5,81.8333 128.5,82.5C 128.5,86.8333 128.5,91.1667 128.5,95.5C 129.5,95.5 130.5,95.5 131.5,95.5C 131.5,95.8333 131.5,96.1667 131.5,96.5C 129.589,97.075 127.922,98.075 126.5,99.5C 126.443,98.391 126.11,97.391 125.5,96.5C 127.276,91.391 127.943,86.0577 127.5,80.5 Z"/></g>
<g><path style="opacity:1" fill="#462224" d="M 17.5,95.5 C 17.7006,98.7281 17.3672,101.895 16.5,105C 16.899,106.728 17.5657,108.228 18.5,109.5C 18.1667,110.5 17.5,111.167 16.5,111.5C 15.7948,108.772 15.1281,105.939 14.5,103C 15.3567,102.311 16.0233,101.478 16.5,100.5C 11.8826,89.4147 9.7159,90.0814 10,102.5C 9.32924,103.252 8.4959,103.586 7.5,103.5C 9.34285,99.8131 10.0095,95.8131 9.5,91.5C 10.8734,91.3433 12.2068,91.51 13.5,92C 14.7051,93.3756 16.0384,94.5423 17.5,95.5 Z"/></g>
<g><path style="opacity:1" fill="#6b3535" d="M 113.5,72.5 C 113.5,73.1667 113.833,73.5 114.5,73.5C 114.695,76.9556 114.695,80.6222 114.5,84.5C 112.605,85.7028 110.605,86.8695 108.5,88C 105.978,92.0341 102.978,95.7008 99.5,99C 93.1001,100.136 86.7667,100.636 80.5,100.5C 81.0766,102.106 81.4099,103.772 81.5,105.5C 79.5978,109.097 78.9312,112.764 79.5,116.5C 79.1667,115.833 78.8333,115.167 78.5,114.5C 78.1667,113.167 77.8333,111.833 77.5,110.5C 77.7402,104.773 77.4069,99.1064 76.5,93.5C 81.3024,96.0829 86.4691,97.7496 92,98.5C 94.7318,98.3852 97.2318,97.5519 99.5,96C 102.654,91.5156 106.154,87.3489 110,83.5C 110.818,80.7728 110.652,78.1062 109.5,75.5C 106.677,80.693 103.177,81.3597 99,77.5C 98.1667,80 97,80.1667 95.5,78C 97.9468,76.7711 98.1135,75.2711 96,73.5C 94.3743,74.9555 93.2076,76.6221 92.5,78.5C 92.6716,77.5084 92.3382,76.8417 91.5,76.5C 92.2341,75.2921 92.5674,73.9587 92.5,72.5C 93.5832,72.4606 94.5832,72.1272 95.5,71.5C 97.3074,73.9036 99.6407,75.5703 102.5,76.5C 104.029,76.4712 105.196,75.8045 106,74.5C 107.124,68.7606 109.624,68.0939 113.5,72.5 Z"/></g>
<g><path style="opacity:1" fill="#a05c4b" d="M 114.5,95.5 C 114.833,95.5 115.167,95.5 115.5,95.5C 114.969,98.8876 116.303,100.888 119.5,101.5C 118.488,102.872 117.488,104.205 116.5,105.5C 113.476,103.473 111.142,100.807 109.5,97.5C 108.115,99.8835 106.115,101.55 103.5,102.5C 101.973,102.573 100.973,101.906 100.5,100.5C 104.094,97.2128 107.427,93.7128 110.5,90C 111.448,89.5172 112.448,89.3505 113.5,89.5C 113.205,91.7354 113.539,93.7354 114.5,95.5 Z"/></g>
<g><path style="opacity:1" fill="#a3a29e" d="M 142.5,72.5 C 143.551,74.9287 144.884,77.262 146.5,79.5C 146.643,83.2041 145.643,86.5375 143.5,89.5C 144.385,94.1219 144.718,98.7885 144.5,103.5C 143.761,103.369 143.094,103.536 142.5,104C 141.74,105.441 141.074,106.941 140.5,108.5C 140.043,109.298 139.376,109.631 138.5,109.5C 135.553,108.027 132.553,106.527 129.5,105C 128.029,103.417 127.029,101.583 126.5,99.5C 127.922,98.075 129.589,97.075 131.5,96.5C 130.372,99.217 131.372,100.384 134.5,100C 135.714,97.6494 136.548,95.1494 137,92.5C 138.011,91.6634 139.178,91.33 140.5,91.5C 141.81,86.2566 142.476,80.9233 142.5,75.5C 142.5,74.5 142.5,73.5 142.5,72.5 Z"/></g>
<g><path style="opacity:1" fill="#817088" d="M 75.5,90.5 C 73.8516,92.4559 73.1849,94.7892 73.5,97.5C 73.5,100.167 73.5,102.833 73.5,105.5C 72.7661,102.323 71.7661,99.1559 70.5,96C 70.9434,94.175 71.2767,92.3417 71.5,90.5C 72.7054,89.3143 74.0387,89.3143 75.5,90.5 Z"/></g>
<g><path style="opacity:1" fill="#4f4c32" d="M 149.5,100.5 C 149.5,102.167 149.5,103.833 149.5,105.5C 148.504,105.586 147.671,105.252 147,104.5C 145.517,101.298 145.183,97.9643 146,94.5C 147.082,96.6181 148.249,98.6181 149.5,100.5 Z"/></g>
<g><path style="opacity:1" fill="#5d302c" d="M 16.5,111.5 C 15.7095,112.401 14.7095,113.068 13.5,113.5C 13.2294,111.57 12.2294,110.236 10.5,109.5C 11.675,109.719 12.675,109.386 13.5,108.5C 11.4763,105.794 8.80968,104.461 5.5,104.5C 4.66175,104.158 4.32842,103.492 4.5,102.5C 5.39105,103.11 6.39105,103.443 7.5,103.5C 8.4959,103.586 9.32924,103.252 10,102.5C 9.7159,90.0814 11.8826,89.4147 16.5,100.5C 16.0233,101.478 15.3567,102.311 14.5,103C 15.1281,105.939 15.7948,108.772 16.5,111.5 Z"/></g>
<g><path style="opacity:1" fill="#803c38" d="M 114.5,84.5 C 114.5,88.1667 114.5,91.8333 114.5,95.5C 113.539,93.7354 113.205,91.7354 113.5,89.5C 112.448,89.3505 111.448,89.5172 110.5,90C 107.427,93.7128 104.094,97.2128 100.5,100.5C 96.9074,101.43 95.2407,103.763 95.5,107.5C 92.8333,107.833 90.1667,108.167 87.5,108.5C 85.5014,112.149 83.168,115.482 80.5,118.5C 80.5,117.833 80.1667,117.5 79.5,117.5C 79.5,117.167 79.5,116.833 79.5,116.5C 78.9312,112.764 79.5978,109.097 81.5,105.5C 81.4099,103.772 81.0766,102.106 80.5,100.5C 86.7667,100.636 93.1001,100.136 99.5,99C 102.978,95.7008 105.978,92.0341 108.5,88C 110.605,86.8695 112.605,85.7028 114.5,84.5 Z"/></g>
<g><path style="opacity:1" fill="#2d191a" d="M 19.5,94.5 C 20.6219,98.183 22.6219,101.183 25.5,103.5C 23.1667,105.5 20.8333,107.5 18.5,109.5C 17.5657,108.228 16.899,106.728 16.5,105C 17.3672,101.895 17.7006,98.7281 17.5,95.5C 18.1667,95.1667 18.8333,94.8333 19.5,94.5 Z"/></g>
<g><path style="opacity:1" fill="#391a19" d="M 76.5,93.5 C 77.4069,99.1064 77.7402,104.773 77.5,110.5C 75.457,109.421 74.1237,107.754 73.5,105.5C 73.5,102.833 73.5,100.167 73.5,97.5C 74.1635,95.9581 74.8302,94.2914 75.5,92.5C 76.1067,92.6236 76.44,92.9569 76.5,93.5 Z"/></g>
<g><path style="opacity:1" fill="#9f755f" d="M 5.5,104.5 C 8.80968,104.461 11.4763,105.794 13.5,108.5C 12.675,109.386 11.675,109.719 10.5,109.5C 8.95819,108.699 7.29152,108.366 5.5,108.5C 6.09065,107.849 6.75731,107.182 7.5,106.5C 6.75731,105.818 6.09065,105.151 5.5,104.5 Z"/></g>
<g><path style="opacity:1" fill="#a7524b" d="M 100.5,100.5 C 100.973,101.906 101.973,102.573 103.5,102.5C 103.5,104.167 103.5,105.833 103.5,107.5C 102.022,107.238 100.689,107.571 99.5,108.5C 98.3649,110.799 97.0316,112.966 95.5,115C 90.2047,115.647 85.8713,117.814 82.5,121.5C 82.1667,121.5 81.8333,121.5 81.5,121.5C 81.4431,120.391 81.1098,119.391 80.5,118.5C 83.168,115.482 85.5014,112.149 87.5,108.5C 90.1667,108.167 92.8333,107.833 95.5,107.5C 95.2407,103.763 96.9074,101.43 100.5,100.5 Z"/></g>
<g><path style="opacity:1" fill="#0e0c0d" d="M 5.5,108.5 C 7.29152,108.366 8.95819,108.699 10.5,109.5C 12.2294,110.236 13.2294,111.57 13.5,113.5C 7.89949,116.436 3.23282,120.436 -0.5,125.5C -0.5,120.167 -0.5,114.833 -0.5,109.5C 1.73535,109.795 3.73535,109.461 5.5,108.5 Z"/></g>
<g><path style="opacity:1" fill="#bbbbb4" d="M 144.5,103.5 C 145.374,105.69 147.041,106.69 149.5,106.5C 149.5,109.833 149.5,113.167 149.5,116.5C 145.317,114.913 141.65,112.579 138.5,109.5C 139.376,109.631 140.043,109.298 140.5,108.5C 141.074,106.941 141.74,105.441 142.5,104C 143.094,103.536 143.761,103.369 144.5,103.5 Z"/></g>
<g><path style="opacity:1" fill="#cf7b6a" d="M 116.5,105.5 C 116.167,106.167 115.833,106.833 115.5,107.5C 113.409,107.682 111.409,107.348 109.5,106.5C 108.424,108.987 107.09,111.32 105.5,113.5C 100.411,116.181 95.4106,118.848 90.5,121.5C 87.7705,122.53 85.1038,122.53 82.5,121.5C 85.8713,117.814 90.2047,115.647 95.5,115C 97.0316,112.966 98.3649,110.799 99.5,108.5C 100.689,107.571 102.022,107.238 103.5,107.5C 103.5,105.833 103.5,104.167 103.5,102.5C 106.115,101.55 108.115,99.8835 109.5,97.5C 111.142,100.807 113.476,103.473 116.5,105.5 Z"/></g>
<g><path style="opacity:1" fill="#d5d5e7" d="M 59.5,89.5 C 62.5,89.5 65.5,89.5 68.5,89.5C 69.209,90.404 70.209,90.7373 71.5,90.5C 71.2767,92.3417 70.9434,94.175 70.5,96C 71.7661,99.1559 72.7661,102.323 73.5,105.5C 74.1237,107.754 75.457,109.421 77.5,110.5C 77.8333,111.833 78.1667,113.167 78.5,114.5C 77.2921,113.766 75.9587,113.433 74.5,113.5C 73.5716,106.908 72.5716,106.908 71.5,113.5C 67.1186,113.372 62.7853,113.705 58.5,114.5C 57.8225,110.815 58.3225,107.148 60,103.5C 61.8159,101.559 63.8159,100.892 66,101.5C 69.3263,92.7541 66.493,90.0875 57.5,93.5C 57.1568,91.5168 57.8235,90.1834 59.5,89.5 Z"/></g>
<g><path style="opacity:1" fill="#e59a88" d="M 115.5,107.5 C 112.833,110.167 110.167,112.833 107.5,115.5C 104.35,115.882 101.683,117.216 99.5,119.5C 96.5224,120.353 93.5224,121.019 90.5,121.5C 95.4106,118.848 100.411,116.181 105.5,113.5C 107.09,111.32 108.424,108.987 109.5,106.5C 111.409,107.348 113.409,107.682 115.5,107.5 Z"/></g>
<g><path style="opacity:1" fill="#e9e9f4" d="M 78.5,114.5 C 78.8333,115.167 79.1667,115.833 79.5,116.5C 79.5,116.833 79.5,117.167 79.5,117.5C 80.1171,122.985 81.1171,128.318 82.5,133.5C 78.9756,133.071 75.9756,131.571 73.5,129C 72.624,127.414 71.624,125.914 70.5,124.5C 67.5526,123.219 65.2193,121.219 63.5,118.5C 62.2713,117.719 60.938,117.219 59.5,117C 58.7476,116.329 58.4142,115.496 58.5,114.5C 62.7853,113.705 67.1186,113.372 71.5,113.5C 72.5716,106.908 73.5716,106.908 74.5,113.5C 75.9587,113.433 77.2921,113.766 78.5,114.5 Z"/></g>
<g><path style="opacity:1" fill="#cbc9d9" d="M 127.5,115.5 C 127.5,117.5 127.5,119.5 127.5,121.5C 122.201,121.881 117.201,120.881 112.5,118.5C 113.5,117.167 114.5,115.833 115.5,114.5C 114.209,113.473 114.209,112.473 115.5,111.5C 117.527,109.912 119.861,109.412 122.5,110C 124.373,111.704 126.04,113.537 127.5,115.5 Z"/></g>
<g><path style="opacity:1" fill="#f4ada4" d="M 107.5,115.5 C 103.86,119.806 99.8604,123.806 95.5,127.5C 91.8333,127.5 88.1667,127.5 84.5,127.5C 83.4706,125.483 82.4706,123.483 81.5,121.5C 81.8333,121.5 82.1667,121.5 82.5,121.5C 85.1038,122.53 87.7705,122.53 90.5,121.5C 93.5224,121.019 96.5224,120.353 99.5,119.5C 101.683,117.216 104.35,115.882 107.5,115.5 Z"/></g>
<g><path style="opacity:1" fill="#f6cbc4" d="M 84.5,127.5 C 88.1667,127.5 91.8333,127.5 95.5,127.5C 93.1891,130.147 90.8558,132.814 88.5,135.5C 86.9757,132.926 85.6424,130.259 84.5,127.5 Z"/></g>
<g><path style="opacity:1" fill="#d7d7e9" d="M 24.5,141.5 C 23.293,138.728 21.793,136.062 20,133.5C 20.3165,136.746 20.4832,140.08 20.5,143.5C 19.0631,138.28 17.3964,132.947 15.5,127.5C 15.8333,126.833 16.1667,126.167 16.5,125.5C 18.5162,128.127 20.6829,131.127 23,134.5C 23.662,136.813 24.162,139.146 24.5,141.5 Z"/></g>
<g><path style="opacity:1" fill="#dcdae9" d="M 115.5,111.5 C 114.209,112.473 114.209,113.473 115.5,114.5C 114.5,115.833 113.5,117.167 112.5,118.5C 117.201,120.881 122.201,121.881 127.5,121.5C 127.5,119.5 127.5,117.5 127.5,115.5C 128.266,117.684 128.933,120.018 129.5,122.5C 124.889,122.848 120.222,123.015 115.5,123C 110.617,128.065 105.951,133.398 101.5,139C 97.846,141.14 94.346,140.973 91,138.5C 90.1072,139.711 89.2739,139.711 88.5,138.5C 89.3128,137.186 90.3128,136.019 91.5,135C 99.0805,131.135 105.58,125.968 111,119.5C 111.29,117.048 111.956,114.715 113,112.5C 113.671,111.748 114.504,111.414 115.5,111.5 Z"/></g>
<g><path style="opacity:1" fill="#d9d9eb" d="M -0.5,142.5 C 3.16667,142.5 6.83333,142.5 10.5,142.5C 10.4003,145.108 11.0669,147.442 12.5,149.5C 8.16667,149.5 3.83333,149.5 -0.5,149.5C -0.5,147.167 -0.5,144.833 -0.5,142.5 Z"/></g>
<g><path style="opacity:1" fill="#aeacc5" d="M 24.5,141.5 C 24.5987,144.237 24.2653,146.904 23.5,149.5C 23.1667,149.5 22.8333,149.5 22.5,149.5C 22.1249,147.302 21.4582,145.302 20.5,143.5C 20.4832,140.08 20.3165,136.746 20,133.5C 21.793,136.062 23.293,138.728 24.5,141.5 Z"/></g>
</svg>
