<?xml version="1.0" encoding="UTF-8"?>
<!DOCTYPE svg PUBLIC "-//W3C//DTD SVG 1.1//EN" "http://www.w3.org/Graphics/SVG/1.1/DTD/svg11.dtd">
<svg xmlns="http://www.w3.org/2000/svg" version="1.1" width="512px" height="512px" style="shape-rendering:geometricPrecision; text-rendering:geometricPrecision; image-rendering:optimizeQuality; fill-rule:evenodd; clip-rule:evenodd" xmlns:xlink="http://www.w3.org/1999/xlink">
<g><path style="opacity:0.943" fill="#000000" d="M 511.5,31.5 C 511.5,57.1667 511.5,82.8333 511.5,108.5C 506.663,113.768 501.829,113.768 497,108.5C 496.667,85.5 496.333,62.5 496,39.5C 495.197,30.3607 490.363,24.5274 481.5,22C 468.833,21.3333 456.167,21.3333 443.5,22C 435.556,24.277 430.722,29.4437 429,37.5C 428.833,97.8333 428.667,158.167 428.5,218.5C 428.342,280.536 428.842,342.536 430,404.5C 432.899,411.4 438.066,415.234 445.5,416C 456.833,416.667 468.167,416.667 479.5,416C 489.46,414.373 494.96,408.54 496,398.5C 496.333,309.167 496.667,219.833 497,130.5C 498.393,127.634 500.726,126.301 504,126.5C 507.366,126.43 509.866,127.763 511.5,130.5C 511.5,222.5 511.5,314.5 511.5,406.5C 506.66,422.161 495.993,430.661 479.5,432C 465.796,432.862 452.129,432.528 438.5,431C 424.119,426.783 415.452,417.283 412.5,402.5C 373.841,379.39 332.175,364.39 287.5,357.5C 287.666,367.172 287.5,376.839 287,386.5C 284.135,401.698 275.302,411.531 260.5,416C 252.219,417.287 243.886,417.787 235.5,417.5C 235.149,423.262 235.649,428.928 237,434.5C 241.837,441.347 245.837,448.68 249,456.5C 253.608,482.142 243.441,498.309 218.5,505C 212.012,505.834 205.679,505.168 199.5,503C 186.833,496.667 174.167,490.333 161.5,484C 150.325,476.496 141.658,466.83 135.5,455C 86.3566,448.826 50.8566,423.66 29,379.5C 24.042,367.958 20.7087,355.958 19,343.5C 17.8377,325.523 17.171,307.523 17,289.5C 8.33184,281.808 2.49851,272.475 -0.5,261.5C -0.5,222.5 -0.5,183.5 -0.5,144.5C 4.60334,125.517 16.6033,113.017 35.5,107C 59.4642,105.728 83.4642,105.061 107.5,105C 114.821,95.3695 124.487,89.3695 136.5,87C 167.803,82.5996 199.136,78.4329 230.5,74.5C 238.841,74.8886 246.174,77.7219 252.5,83C 310.309,80.7272 363.809,64.5605 413,34.5C 415.792,21.0398 423.626,11.8732 436.5,7C 453.833,5 471.167,5 488.5,7C 500.187,11.5168 507.854,19.6835 511.5,31.5 Z M 411.5,54.5 C 412.666,163.999 412.833,273.666 412,383.5C 380.074,364.965 345.907,352.132 309.5,345C 293.886,342.09 278.22,339.59 262.5,337.5C 263.655,316.877 263.821,296.21 263,275.5C 259.491,271.387 255.324,270.554 250.5,273C 249.107,274.171 248.273,275.671 248,277.5C 247.667,296.5 247.333,315.5 247,334.5C 241.934,345.428 233.434,349.262 221.5,346C 194.488,342.415 167.488,338.749 140.5,335C 124.191,330.693 115.024,320.193 113,303.5C 112.333,246.833 112.333,190.167 113,133.5C 114.811,117.697 123.311,107.53 138.5,103C 168.982,98.7105 199.482,94.5439 230,90.5C 238.584,91.0907 244.251,95.424 247,103.5C 247.333,152.833 247.667,202.167 248,251.5C 249.695,256.599 253.195,258.432 258.5,257C 260.286,256.215 261.786,255.049 263,253.5C 263.83,202.263 263.664,151.096 262.5,100C 303.696,95.9621 343.362,85.9621 381.5,70C 392.001,65.5845 402.001,60.4179 411.5,54.5 Z M 42.5,121.5 C 61.1667,121.5 79.8333,121.5 98.5,121.5C 97.8918,125.472 97.3918,129.472 97,133.5C 96.5,183.832 96.3333,234.166 96.5,284.5C 77.1203,284.936 57.7869,284.436 38.5,283C 27.2674,278.767 19.7674,270.934 16,259.5C 14.8884,240.695 14.3884,221.862 14.5,203C 14.3884,184.138 14.8884,165.305 16,146.5C 20.5478,133.448 29.3811,125.114 42.5,121.5 Z M 52.5,164.5 C 58.0591,163.231 61.8924,165.231 64,170.5C 64.6667,181.833 64.6667,193.167 64,204.5C 60.9685,210.721 56.4685,212.054 50.5,208.5C 49.4164,207.335 48.5831,206.002 48,204.5C 47.3333,193.167 47.3333,181.833 48,170.5C 48.9793,168.032 50.4793,166.032 52.5,164.5 Z M 33.5,298.5 C 41.7324,300.181 50.0657,300.847 58.5,300.5C 58.3334,313.504 58.5001,326.504 59,339.5C 67.0984,380.265 91.4317,405.265 132,414.5C 132.5,422.493 132.666,430.493 132.5,438.5C 98.891,433.457 72.391,417.124 53,389.5C 36.2181,361.512 29.7181,331.179 33.5,298.5 Z M 74.5,300.5 C 81.8333,300.5 89.1667,300.5 96.5,300.5C 97.1542,324.841 108.821,341.175 131.5,349.5C 132.499,365.486 132.833,381.486 132.5,397.5C 100.592,389.758 81.4256,369.758 75,337.5C 74.5001,325.171 74.3335,312.838 74.5,300.5 Z M 148.5,352.5 C 172.134,355.746 195.8,358.746 219.5,361.5C 219.333,385.502 219.5,409.502 220,433.5C 220.511,435.878 221.178,438.212 222,440.5C 225.667,446.833 229.333,453.167 233,459.5C 236.752,476.419 230.085,486.419 213,489.5C 210.453,489.238 207.953,488.738 205.5,488C 194.167,482.333 182.833,476.667 171.5,471C 158.824,463.321 151.324,452.155 149,437.5C 148.5,409.169 148.333,380.835 148.5,352.5 Z M 253.5,353.5 C 259.511,354.107 265.511,354.774 271.5,355.5C 271.666,365.172 271.5,374.839 271,384.5C 269.373,392.13 264.873,397.296 257.5,400C 250.239,401.348 242.906,401.848 235.5,401.5C 235.5,388.5 235.5,375.5 235.5,362.5C 242.635,361.599 248.635,358.599 253.5,353.5 Z"/></g>
<g><path style="opacity:0.927" fill="#000000" d="M 49.5,148.5 C 65.1384,146.388 75.305,152.722 80,167.5C 80.6667,180.833 80.6667,194.167 80,207.5C 75.3176,222.434 65.151,228.601 49.5,226C 39.8883,223.389 34.0549,217.222 32,207.5C 31.0681,192.778 31.4014,178.112 33,163.5C 36.1901,155.843 41.6901,150.843 49.5,148.5 Z M 52.5,164.5 C 50.4793,166.032 48.9793,168.032 48,170.5C 47.3333,181.833 47.3333,193.167 48,204.5C 48.5831,206.002 49.4164,207.335 50.5,208.5C 56.4685,212.054 60.9685,210.721 64,204.5C 64.6667,193.167 64.6667,181.833 64,170.5C 61.8924,165.231 58.0591,163.231 52.5,164.5 Z"/></g>
</svg>
