<?xml version="1.0" encoding="UTF-8"?>
<!DOCTYPE svg PUBLIC "-//W3C//DTD SVG 1.1//EN" "http://www.w3.org/Graphics/SVG/1.1/DTD/svg11.dtd">
<svg xmlns="http://www.w3.org/2000/svg" version="1.1" width="512px" height="512px" style="shape-rendering:geometricPrecision; text-rendering:geometricPrecision; image-rendering:optimizeQuality; fill-rule:evenodd; clip-rule:evenodd" xmlns:xlink="http://www.w3.org/1999/xlink">
<g><path style="opacity:0.98" fill="#1648ff" d="M 159.5,14.5 C 223.195,14.0255 286.861,14.5255 350.5,16C 367.233,21.2962 377.733,32.4628 382,49.5C 382.5,58.8274 382.666,68.1607 382.5,77.5C 353.831,77.3334 325.165,77.5 296.5,78C 286.516,81.9925 283.683,88.8258 288,98.5C 289.873,100.709 292.04,102.542 294.5,104C 323.831,104.5 353.165,104.667 382.5,104.5C 382.5,114.167 382.5,123.833 382.5,133.5C 353.831,133.333 325.165,133.5 296.5,134C 286.516,137.993 283.683,144.826 288,154.5C 289.873,156.709 292.04,158.542 294.5,160C 323.831,160.5 353.165,160.667 382.5,160.5C 382.5,170.167 382.5,179.833 382.5,189.5C 353.498,189.333 324.498,189.5 295.5,190C 285.893,195.088 283.726,202.254 289,211.5C 290.731,213.617 292.898,215.117 295.5,216C 324.498,216.5 353.498,216.667 382.5,216.5C 382.5,226.167 382.5,235.833 382.5,245.5C 353.498,245.333 324.498,245.5 295.5,246C 285.893,251.088 283.726,258.254 289,267.5C 290.731,269.617 292.898,271.117 295.5,272C 324.498,272.5 353.498,272.667 382.5,272.5C 382.666,282.172 382.5,291.839 382,301.5C 377.278,320.222 365.445,331.389 346.5,335C 283.167,335.667 219.833,335.667 156.5,335C 136.426,330.26 124.593,317.76 121,297.5C 120.5,289.173 120.334,280.84 120.5,272.5C 149.502,272.667 178.502,272.5 207.5,272C 217.93,267.033 220.097,259.533 214,249.5C 212.065,247.898 209.899,246.731 207.5,246C 178.502,245.5 149.502,245.333 120.5,245.5C 120.5,235.833 120.5,226.167 120.5,216.5C 149.502,216.667 178.502,216.5 207.5,216C 217.93,211.033 220.097,203.533 214,193.5C 212.065,191.898 209.899,190.731 207.5,190C 178.502,189.5 149.502,189.333 120.5,189.5C 120.5,179.833 120.5,170.167 120.5,160.5C 149.835,160.667 179.169,160.5 208.5,160C 217.68,155.436 219.847,148.603 215,139.5C 212.9,136.533 210.066,134.7 206.5,134C 177.835,133.5 149.169,133.333 120.5,133.5C 120.5,123.833 120.5,114.167 120.5,104.5C 149.835,104.667 179.169,104.5 208.5,104C 217.68,99.4365 219.847,92.6032 215,83.5C 212.9,80.5332 210.066,78.6998 206.5,78C 177.835,77.5 149.169,77.3334 120.5,77.5C 120.334,69.16 120.5,60.8267 121,52.5C 125.13,30.8694 137.963,18.2027 159.5,14.5 Z"/></g>
<g><path style="opacity:0.963" fill="#1649ff" d="M 78.5,181.5 C 87.5781,179.784 93.7448,183.118 97,191.5C 97.3333,227.5 97.6667,263.5 98,299.5C 101.552,324.44 114.719,342.273 137.5,353C 142.007,354.893 146.673,356.059 151.5,356.5C 151.5,366.5 151.5,376.5 151.5,386.5C 103.896,377.729 76.3963,349.396 69,301.5C 68.3333,264.833 68.3333,228.167 69,191.5C 71.0223,186.98 74.189,183.647 78.5,181.5 Z"/></g>
<g><path style="opacity:0.968" fill="#1648ff" d="M 415.5,181.5 C 423.578,179.96 429.744,182.626 434,189.5C 434.667,227.833 434.667,266.167 434,304.5C 428.404,340.085 409.237,365.252 376.5,380C 368.145,383.422 359.478,385.589 350.5,386.5C 350.5,376.833 350.5,367.167 350.5,357.5C 380.077,351.09 398.243,333.09 405,303.5C 405.333,267.5 405.667,231.5 406,195.5C 406.466,188.874 409.633,184.208 415.5,181.5 Z"/></g>
<g><path style="opacity:0.978" fill="#1549ff" d="M 178.5,357.5 C 226.833,357.5 275.167,357.5 323.5,357.5C 323.891,371.878 323.391,386.211 322,400.5C 317.653,413.179 308.819,420.346 295.5,422C 265.5,422.667 235.5,422.667 205.5,422C 193.155,419.992 184.655,413.159 180,401.5C 178.587,386.884 178.087,372.217 178.5,357.5 Z"/></g>
<g><path style="opacity:0.976" fill="#1648ff" d="M 215.5,449.5 C 239.167,449.5 262.833,449.5 286.5,449.5C 289.315,469.372 281.982,483.872 264.5,493C 244.007,499.164 228.507,492.998 218,474.5C 215.767,466.333 214.934,458 215.5,449.5 Z"/></g>
</svg>
