<?xml version="1.0" encoding="UTF-8"?>
<!DOCTYPE svg PUBLIC "-//W3C//DTD SVG 1.1//EN" "http://www.w3.org/Graphics/SVG/1.1/DTD/svg11.dtd">
<svg xmlns="http://www.w3.org/2000/svg" version="1.1" width="512px" height="512px" style="shape-rendering:geometricPrecision; text-rendering:geometricPrecision; image-rendering:optimizeQuality; fill-rule:evenodd; clip-rule:evenodd" xmlns:xlink="http://www.w3.org/1999/xlink">
<g><path style="opacity:0.918" fill="#3c4652" d="M 245.5,6.5 C 344.839,6.56678 420.339,48.5668 472,132.5C 508.593,200.798 513.926,271.464 488,344.5C 462.301,407.866 418.468,454.032 356.5,483C 275.659,515.944 197.659,510.277 122.5,466C 48.0613,415.987 9.39467,345.82 6.5,255.5C 10.0548,160.508 52.0548,88.3418 132.5,39C 167.758,19.297 205.425,8.46368 245.5,6.5 Z M 238.5,15.5 C 323.567,12.6306 392.733,43.964 446,109.5C 499.55,184.233 509.55,264.566 476,350.5C 435.17,436.281 367.337,484.447 272.5,495C 181.936,497.964 110.103,463.131 57,390.5C 10.3783,317.664 3.04494,240.998 35,160.5C 76.0384,74.7172 143.872,26.3839 238.5,15.5 Z M 248.5,69.5 C 328.713,70.8296 387.213,106.83 424,177.5C 450.539,240.295 445.872,300.628 410,358.5C 361.837,424.127 297.337,450.294 216.5,437C 141,417.5 93.5,370 74,294.5C 60.8552,217.343 84.6885,154.51 145.5,106C 176.372,83.9876 210.705,71.8209 248.5,69.5 Z"/></g>
<g><path style="opacity:0.917" fill="#3c4652" d="M 238.5,61.5 C 309.311,58.0001 366.811,83.6668 411,138.5C 448.197,190.833 458.531,248.167 442,310.5C 417.728,382.772 368.561,427.939 294.5,446C 211.569,459.04 145.069,432.207 95,365.5C 57.6256,307.124 51.2922,245.457 76,180.5C 108.321,111.013 162.488,71.3467 238.5,61.5 Z M 248.5,69.5 C 210.705,71.8209 176.372,83.9876 145.5,106C 84.6885,154.51 60.8552,217.343 74,294.5C 93.5,370 141,417.5 216.5,437C 297.337,450.294 361.837,424.127 410,358.5C 445.872,300.628 450.539,240.295 424,177.5C 387.213,106.83 328.713,70.8296 248.5,69.5 Z"/></g>
<g><path style="opacity:0.92" fill="#3c4753" d="M 251.5,107.5 C 254.167,107.5 256.833,107.5 259.5,107.5C 259.5,118.5 259.5,129.5 259.5,140.5C 284.579,141.213 305.913,150.379 323.5,168C 321.04,169.458 318.873,171.291 317,173.5C 291.895,150.211 263.061,144.045 230.5,155C 205.205,166.437 193.371,185.937 195,213.5C 200.045,230.213 210.878,241.379 227.5,247C 233.332,249.277 239.332,250.944 245.5,252C 264.562,253.732 283.229,257.399 301.5,263C 326.975,273.772 337.475,292.939 333,320.5C 326.497,343.341 311.997,358.841 289.5,367C 279.831,369.972 269.998,371.805 260,372.5C 259.5,382.828 259.334,393.161 259.5,403.5C 256.833,403.5 254.167,403.5 251.5,403.5C 251.5,392.833 251.5,382.167 251.5,371.5C 222.852,368.426 198.686,356.426 179,335.5C 178.731,332.72 179.898,330.554 182.5,329C 183.5,328.333 184.5,328.333 185.5,329C 214.611,360.595 249.611,369.929 290.5,357C 317.598,344.967 328.431,324.467 323,295.5C 316.006,280.855 304.506,271.688 288.5,268C 272.63,264.59 256.63,261.923 240.5,260C 222.937,256.638 208.104,248.472 196,235.5C 181.349,212.238 182.349,189.571 199,167.5C 212.83,151.502 230.33,142.835 251.5,141.5C 251.5,130.167 251.5,118.833 251.5,107.5 Z"/></g>
</svg>
