<?xml version="1.0" encoding="UTF-8"?>
<!DOCTYPE svg PUBLIC "-//W3C//DTD SVG 1.1//EN" "http://www.w3.org/Graphics/SVG/1.1/DTD/svg11.dtd">
<svg xmlns="http://www.w3.org/2000/svg" version="1.1" width="512px" height="512px" style="shape-rendering:geometricPrecision; text-rendering:geometricPrecision; image-rendering:optimizeQuality; fill-rule:evenodd; clip-rule:evenodd" xmlns:xlink="http://www.w3.org/1999/xlink">
<g><path style="opacity:0.993" fill="#fefffe" d="M 32.5,39.5 C 181.167,39.3333 329.834,39.5 478.5,40C 486.667,42.8333 492.167,48.3333 495,56.5C 495.667,162.5 495.667,268.5 495,374.5C 492.167,382.667 486.667,388.167 478.5,391C 433.5,391.333 388.5,391.667 343.5,392C 350.5,402.333 357.5,412.667 364.5,423C 371.579,423.114 378.579,423.781 385.5,425C 398.139,432.463 402.306,443.296 398,457.5C 394.686,464.149 389.519,468.649 382.5,471C 297.833,471.667 213.167,471.667 128.5,471C 117.167,467 111.167,459 110.5,447C 114.553,427.611 126.553,419.611 146.5,423C 153.5,412.667 160.5,402.333 167.5,392C 122.5,391.667 77.5,391.333 32.5,391C 24.3333,388.167 18.8333,382.667 16,374.5C 15.3333,268.5 15.3333,162.5 16,56.5C 19.0191,48.3156 24.5191,42.649 32.5,39.5 Z M 39.5,55.5 C 184.876,55.0062 330.21,55.5062 475.5,57C 477.317,58.7998 478.484,60.9664 479,63.5C 479.5,146.166 479.667,228.833 479.5,311.5C 330.167,311.5 180.833,311.5 31.5,311.5C 31.3333,228.499 31.5,145.499 32,62.5C 33.1498,58.5101 35.6498,56.1768 39.5,55.5 Z M 231.5,119.5 C 248.889,119.056 266.223,119.556 283.5,121C 286.888,125.166 288.221,129.999 287.5,135.5C 266.167,135.5 244.833,135.5 223.5,135.5C 223.234,131.395 223.734,127.395 225,123.5C 226.792,121.372 228.958,120.039 231.5,119.5 Z M 167.5,151.5 C 226.168,151.333 284.834,151.5 343.5,152C 346.276,152.066 348.442,153.232 350,155.5C 351.564,160.132 351.731,164.799 350.5,169.5C 319.033,179.267 287.533,188.933 256,198.5C 223.885,188.597 191.719,178.931 159.5,169.5C 159.191,164.733 159.691,160.066 161,155.5C 162.792,153.372 164.958,152.039 167.5,151.5 Z M 159.5,186.5 C 191.297,196.783 223.297,206.45 255.5,215.5C 287.616,206.739 319.449,197.072 351,186.5C 351.949,205.552 351.615,224.552 350,243.5C 348.681,245.487 346.848,246.654 344.5,247C 285.5,247.667 226.5,247.667 167.5,247C 163,246.5 160.5,244 160,239.5C 159.5,221.836 159.333,204.17 159.5,186.5 Z M 31.5,327.5 C 180.833,327.5 330.167,327.5 479.5,327.5C 479.667,340.837 479.5,354.171 479,367.5C 478.463,372.037 475.963,374.537 471.5,375C 327.5,375.667 183.5,375.667 39.5,375C 35.0372,374.537 32.5372,372.037 32,367.5C 31.5001,354.171 31.3334,340.837 31.5,327.5 Z M 188.5,391.5 C 233.168,391.333 277.835,391.5 322.5,392C 329.5,402.333 336.5,412.667 343.5,423C 284.833,423.667 226.167,423.667 167.5,423C 174.634,412.557 181.634,402.057 188.5,391.5 Z M 135.5,439.5 C 215.501,439.333 295.501,439.5 375.5,440C 382.319,441.814 384.153,445.98 381,452.5C 379.509,454.004 377.676,454.837 375.5,455C 295.5,455.667 215.5,455.667 135.5,455C 128.681,453.186 126.847,449.02 130,442.5C 131.719,441.131 133.552,440.131 135.5,439.5 Z"/></g>
<g><path style="opacity:0.98" fill="#fefffe" d="M 225.5,103.5 C 246.9,103.034 268.233,103.534 289.5,105C 301.554,111.625 306.221,121.792 303.5,135.5C 319.17,135.333 334.837,135.5 350.5,136C 358.667,138.833 364.167,144.333 367,152.5C 367.978,184.561 367.644,216.561 366,248.5C 363.002,256.164 357.502,260.997 349.5,263C 286.833,263.667 224.167,263.667 161.5,263C 153.498,260.997 147.998,256.164 145,248.5C 143.855,232.231 143.355,215.897 143.5,199.5C 143.362,182.783 143.862,166.116 145,149.5C 148.389,142.446 153.889,137.946 161.5,136C 176.83,135.5 192.163,135.333 207.5,135.5C 205.254,119.976 211.254,109.309 225.5,103.5 Z M 231.5,119.5 C 228.958,120.039 226.792,121.372 225,123.5C 223.734,127.395 223.234,131.395 223.5,135.5C 244.833,135.5 266.167,135.5 287.5,135.5C 288.221,129.999 286.888,125.166 283.5,121C 266.223,119.556 248.889,119.056 231.5,119.5 Z M 167.5,151.5 C 164.958,152.039 162.792,153.372 161,155.5C 159.691,160.066 159.191,164.733 159.5,169.5C 191.719,178.931 223.885,188.597 256,198.5C 287.533,188.933 319.033,179.267 350.5,169.5C 351.731,164.799 351.564,160.132 350,155.5C 348.442,153.232 346.276,152.066 343.5,152C 284.834,151.5 226.168,151.333 167.5,151.5 Z M 159.5,186.5 C 159.333,204.17 159.5,221.836 160,239.5C 160.5,244 163,246.5 167.5,247C 226.5,247.667 285.5,247.667 344.5,247C 346.848,246.654 348.681,245.487 350,243.5C 351.615,224.552 351.949,205.552 351,186.5C 319.449,197.072 287.616,206.739 255.5,215.5C 223.297,206.45 191.297,196.783 159.5,186.5 Z"/></g>
<g><path style="opacity:0.961" fill="#fefffe" d="M 248.5,343.5 C 253.43,343.197 258.263,343.531 263,344.5C 263.802,349.419 263.635,354.252 262.5,359C 257.581,359.802 252.748,359.635 248,358.5C 247.222,353.416 247.389,348.416 248.5,343.5 Z"/></g>
</svg>
