<?xml version="1.0" encoding="UTF-8"?>
<!DOCTYPE svg PUBLIC "-//W3C//DTD SVG 1.1//EN" "http://www.w3.org/Graphics/SVG/1.1/DTD/svg11.dtd">
<svg xmlns="http://www.w3.org/2000/svg" version="1.1" width="150px" height="150px" style="shape-rendering:geometricPrecision; text-rendering:geometricPrecision; image-rendering:optimizeQuality; fill-rule:evenodd; clip-rule:evenodd" xmlns:xlink="http://www.w3.org/1999/xlink">
<g><path style="opacity:1" fill="#fbfcfc" d="M 48.5,-0.5 C 58.1667,-0.5 67.8333,-0.5 77.5,-0.5C 77.5,1.16667 77.5,2.83333 77.5,4.5C 77.5,4.83333 77.5,5.16667 77.5,5.5C 75.8452,6.93017 73.8452,7.76351 71.5,8C 70.6195,8.7083 69.9528,9.54163 69.5,10.5C 68.2801,12.0496 68.2801,13.7163 69.5,15.5C 67.5,15.5 66.5,16.5 66.5,18.5C 65.8826,18.6107 65.3826,18.944 65,19.5C 64.5045,21.4727 64.3379,23.4727 64.5,25.5C 62.2719,25.7769 60.6053,26.7769 59.5,28.5C 57.744,29.5521 57.0773,31.2188 57.5,33.5C 56.1779,33.33 55.0113,33.6634 54,34.5C 53.8832,30.9198 52.3832,28.2532 49.5,26.5C 49.5,26.1667 49.5,25.8333 49.5,25.5C 49.536,16.8154 49.2026,8.14869 48.5,-0.5 Z"/></g>
<g><path style="opacity:1" fill="#cde0da" d="M 103.5,-0.5 C 110.5,-0.5 117.5,-0.5 124.5,-0.5C 123.833,5.5 123.167,11.5 122.5,17.5C 121.833,16.5 121.167,15.5 120.5,14.5C 118.107,11.6974 116.774,8.36404 116.5,4.5C 114.901,4.76781 113.568,4.43448 112.5,3.5C 109.416,2.25183 106.416,0.918493 103.5,-0.5 Z"/></g>
<g><path style="opacity:1" fill="#babdb1" d="M 77.5,-0.5 C 79.1667,-0.5 80.8333,-0.5 82.5,-0.5C 80.7497,0.659375 79.7497,2.32604 79.5,4.5C 78.8333,4.5 78.1667,4.5 77.5,4.5C 77.5,2.83333 77.5,1.16667 77.5,-0.5 Z"/></g>
<g><path style="opacity:1" fill="#8f9696" d="M 98.5,-0.5 C 100.167,-0.5 101.833,-0.5 103.5,-0.5C 106.416,0.918493 109.416,2.25183 112.5,3.5C 107.388,3.34709 102.721,2.01376 98.5,-0.5 Z"/></g>
<g><path style="opacity:1" fill="#c2dcd6" d="M 128.5,-0.5 C 132.833,-0.5 137.167,-0.5 141.5,-0.5C 141.736,2.60853 141.403,5.60853 140.5,8.5C 138.833,8.5 137.167,8.5 135.5,8.5C 135.853,10.6348 135.02,11.9681 133,12.5C 128.887,9.21777 127.387,4.88444 128.5,-0.5 Z"/></g>
<g><path style="opacity:1" fill="#cdc9b7" d="M -0.5,-0.5 C 4.16667,-0.5 8.83333,-0.5 13.5,-0.5C 13.5,1.5 13.5,3.5 13.5,5.5C 8.83333,5.5 4.16667,5.5 -0.5,5.5C -0.5,3.5 -0.5,1.5 -0.5,-0.5 Z"/></g>
<g><path style="opacity:1" fill="#4c4e4f" d="M 95.5,7.5 C 95.5654,7.93822 95.3988,8.27155 95,8.5C 94.2904,7.02674 93.1238,6.36007 91.5,6.5C 92.0138,8.51162 92.1805,10.5116 92,12.5C 91.1074,13.0814 90.1074,13.4148 89,13.5C 86.3716,11.7696 83.5383,10.4362 80.5,9.5C 81,9.16667 81.5,8.83333 82,8.5C 85.3726,11.3903 88.206,11.057 90.5,7.5C 88.8068,6.77167 87.3068,5.77167 86,4.5C 83.3166,4.52134 80.4833,4.85468 77.5,5.5C 77.5,5.16667 77.5,4.83333 77.5,4.5C 78.1667,4.5 78.8333,4.5 79.5,4.5C 81.6365,3.59735 83.6365,2.43069 85.5,1C 89.0938,0.864282 92.5938,0.697615 96,0.5C 98.1875,1.05933 98.8542,2.39267 98,4.5C 97.586,4.04265 97.086,3.70931 96.5,3.5C 95.5713,4.68884 95.238,6.02218 95.5,7.5 Z"/></g>
<g><path style="opacity:1" fill="#6d695c" d="M -0.5,7.5 C -0.5,7.16667 -0.5,6.83333 -0.5,6.5C 4.83333,6.5 10.1667,6.5 15.5,6.5C 15.5841,10.8371 16.5841,14.8371 18.5,18.5C 18.5,22.8333 18.5,27.1667 18.5,31.5C 17.8333,31.5 17.1667,31.5 16.5,31.5C 14.2591,30.7002 13.2591,29.0336 13.5,26.5C 14.8333,26.5 16.1667,26.5 17.5,26.5C 18.055,22.2935 17.055,18.6269 14.5,15.5C 14.7076,13.0799 14.3742,10.7466 13.5,8.5C 8.88035,7.50671 4.21369,7.17338 -0.5,7.5 Z"/></g>
<g><path style="opacity:1" fill="#9c9584" d="M 25.5,-0.5 C 27.5,-0.5 29.5,-0.5 31.5,-0.5C 31.527,5.05056 32.1937,10.3839 33.5,15.5C 33.5,19.5 33.5,23.5 33.5,27.5C 34.9587,27.5674 36.2921,27.2341 37.5,26.5C 40.5,26.5 43.5,26.5 46.5,26.5C 44.6221,27.2076 42.9555,28.3743 41.5,30C 37.5134,30.1723 33.5134,30.0057 29.5,29.5C 25.6807,29.455 22.014,30.1217 18.5,31.5C 18.5,27.1667 18.5,22.8333 18.5,18.5C 19.4794,21.6248 19.8128,24.9581 19.5,28.5C 21.1667,28.5 22.8333,28.5 24.5,28.5C 24.4216,18.8149 24.7549,9.14826 25.5,-0.5 Z"/></g>
<g><path style="opacity:1" fill="#e3cfb5" d="M 31.5,-0.5 C 36.8333,-0.5 42.1667,-0.5 47.5,-0.5C 47.5,5.16667 47.5,10.8333 47.5,16.5C 46.7387,17.3909 45.7387,18.0576 44.5,18.5C 42.5466,17.8444 40.5466,17.5111 38.5,17.5C 37.2209,16.032 35.5542,15.3653 33.5,15.5C 32.1937,10.3839 31.527,5.05056 31.5,-0.5 Z"/></g>
<g><path style="opacity:1" fill="#4e5052" d="M 108.5,13.5 C 107.828,14.2674 106.995,14.9341 106,15.5C 105.691,14.2341 105.191,13.0674 104.5,12C 101.72,11.6303 99.7199,10.6303 98.5,9C 99.3279,8.08529 100.328,7.41862 101.5,7C 100.263,6.76791 99.2625,6.26791 98.5,5.5C 101.853,3.06613 105.353,3.06613 109,5.5C 109.483,6.44802 109.649,7.44802 109.5,8.5C 107.131,8.14888 104.797,7.98221 102.5,8C 104.375,10.0811 106.375,11.9144 108.5,13.5 Z"/></g>
<g><path style="opacity:1" fill="#7f7f7f" d="M 77.5,5.5 C 77.5,6.5 77.5,7.5 77.5,8.5C 74.9963,10.4365 72.3296,11.1031 69.5,10.5C 69.9528,9.54163 70.6195,8.7083 71.5,8C 73.8452,7.76351 75.8452,6.93017 77.5,5.5 Z"/></g>
<g><path style="opacity:1" fill="#a8a796" d="M 141.5,-0.5 C 143.167,-0.5 144.833,-0.5 146.5,-0.5C 144.715,10.2092 142.715,20.8759 140.5,31.5C 139.357,31.0919 138.357,30.4252 137.5,29.5C 138.348,27.5914 138.682,25.5914 138.5,23.5C 138.433,18.3638 139.1,13.3638 140.5,8.5C 141.403,5.60853 141.736,2.60853 141.5,-0.5 Z"/></g>
<g><path style="opacity:1" fill="#b2af9b" d="M 13.5,-0.5 C 17.5,-0.5 21.5,-0.5 25.5,-0.5C 24.7549,9.14826 24.4216,18.8149 24.5,28.5C 22.8333,28.5 21.1667,28.5 19.5,28.5C 19.8128,24.9581 19.4794,21.6248 18.5,18.5C 16.5841,14.8371 15.5841,10.8371 15.5,6.5C 10.1667,6.5 4.83333,6.5 -0.5,6.5C -0.5,6.16667 -0.5,5.83333 -0.5,5.5C 4.16667,5.5 8.83333,5.5 13.5,5.5C 13.5,3.5 13.5,1.5 13.5,-0.5 Z"/></g>
<g><path style="opacity:1" fill="#686b6c" d="M 82.5,-0.5 C 87.8333,-0.5 93.1667,-0.5 98.5,-0.5C 102.721,2.01376 107.388,3.34709 112.5,3.5C 113.568,4.43448 114.901,4.76781 116.5,4.5C 116.774,8.36404 118.107,11.6974 120.5,14.5C 119.518,13.8592 118.518,13.1925 117.5,12.5C 116.451,14.528 115.451,16.528 114.5,18.5C 114.167,18.5 113.833,18.5 113.5,18.5C 113.123,16.742 112.456,15.0754 111.5,13.5C 110.386,12.2241 109.386,12.2241 108.5,13.5C 106.375,11.9144 104.375,10.0811 102.5,8C 104.797,7.98221 107.131,8.14888 109.5,8.5C 109.649,7.44802 109.483,6.44802 109,5.5C 105.353,3.06613 101.853,3.06613 98.5,5.5C 97.2223,5.78219 96.2223,6.44886 95.5,7.5C 95.238,6.02218 95.5713,4.68884 96.5,3.5C 97.086,3.70931 97.586,4.04265 98,4.5C 98.8542,2.39267 98.1875,1.05933 96,0.5C 92.5938,0.697615 89.0938,0.864282 85.5,1C 83.6365,2.43069 81.6365,3.59735 79.5,4.5C 79.7497,2.32604 80.7497,0.659375 82.5,-0.5 Z"/></g>
<g><path style="opacity:1" fill="#464a4b" d="M 110.5,7.5 C 112.275,8.63183 113.942,9.7985 115.5,11C 114.953,11.9246 114.287,12.7579 113.5,13.5C 111.585,11.9288 110.585,9.92878 110.5,7.5 Z"/></g>
<g><path style="opacity:1" fill="#37393b" d="M 95.5,7.5 C 96.2223,6.44886 97.2223,5.78219 98.5,5.5C 99.2625,6.26791 100.263,6.76791 101.5,7C 100.328,7.41862 99.3279,8.08529 98.5,9C 99.7199,10.6303 101.72,11.6303 104.5,12C 105.191,13.0674 105.691,14.2341 106,15.5C 106.995,14.9341 107.828,14.2674 108.5,13.5C 109.386,12.2241 110.386,12.2241 111.5,13.5C 112.456,15.0754 113.123,16.742 113.5,18.5C 113.631,19.2389 113.464,19.9056 113,20.5C 112.346,19.3044 111.846,19.3044 111.5,20.5C 112.008,22.9042 113.175,23.5709 115,22.5C 116.914,23.676 116.748,24.676 114.5,25.5C 114.855,26.5223 115.522,27.189 116.5,27.5C 116.5,28.5 116.5,29.5 116.5,30.5C 115.325,30.281 114.325,30.6143 113.5,31.5C 114.506,32.3957 114.506,33.0623 113.5,33.5C 112.551,30.8742 112.551,28.2075 113.5,25.5C 112.5,25.5 111.5,25.5 110.5,25.5C 111.509,30.6456 110.509,30.8123 107.5,26C 106.833,25.3333 106.167,25.3333 105.5,26C 107.054,28.3707 108.721,30.5374 110.5,32.5C 109.883,32.3893 109.383,32.056 109,31.5C 108.722,32.4158 108.222,33.0825 107.5,33.5C 106.907,28.6425 104.24,25.6425 99.5,24.5C 99.723,23.0333 100.056,21.5333 100.5,20C 99.9558,19.2828 99.2891,18.7828 98.5,18.5C 98.281,17.325 98.6143,16.325 99.5,15.5C 102.65,17.9508 103.317,20.9508 101.5,24.5C 102.833,24.5 104.167,24.5 105.5,24.5C 104.929,21.5231 103.929,18.6897 102.5,16C 102.957,15.586 103.291,15.086 103.5,14.5C 102.224,13.3554 100.891,13.3554 99.5,14.5C 93.5662,9.12068 92.5662,9.78735 96.5,16.5C 93.8597,16.4467 91.3597,15.78 89,14.5C 88.1667,14.6667 87.3333,14.8333 86.5,15C 87.4506,15.7175 87.6172,16.5509 87,17.5C 84.9263,15.5779 82.7596,13.9113 80.5,12.5C 79.8333,12.6667 79.1667,12.8333 78.5,13C 76.2841,18.8077 74.6175,18.9743 73.5,13.5C 72.5745,14.6405 71.7412,14.6405 71,13.5C 68.0892,18.602 66.4225,23.9354 66,29.5C 65.5831,30.756 64.7498,31.4226 63.5,31.5C 64.1495,29.5648 64.4828,27.5648 64.5,25.5C 65.4067,23.3432 66.0733,21.0098 66.5,18.5C 67.8333,17.8333 68.8333,16.8333 69.5,15.5C 68.2801,13.7163 68.2801,12.0496 69.5,10.5C 72.3296,11.1031 74.9963,10.4365 77.5,8.5C 77.5,7.5 77.5,6.5 77.5,5.5C 80.4833,4.85468 83.3166,4.52134 86,4.5C 87.3068,5.77167 88.8068,6.77167 90.5,7.5C 88.206,11.057 85.3726,11.3903 82,8.5C 81.5,8.83333 81,9.16667 80.5,9.5C 83.5383,10.4362 86.3716,11.7696 89,13.5C 90.1074,13.4148 91.1074,13.0814 92,12.5C 92.1805,10.5116 92.0138,8.51162 91.5,6.5C 93.1238,6.36007 94.2904,7.02674 95,8.5C 95.3988,8.27155 95.5654,7.93822 95.5,7.5 Z"/></g>
<g><path style="opacity:1" fill="#0e1215" d="M -0.5,7.5 C 4.21369,7.17338 8.88035,7.50671 13.5,8.5C 14.3742,10.7466 14.7076,13.0799 14.5,15.5C 14.5,16.5 14.5,17.5 14.5,18.5C 9.5,18.5 4.5,18.5 -0.5,18.5C -0.5,14.8333 -0.5,11.1667 -0.5,7.5 Z"/></g>
<g><path style="opacity:1" fill="#929194" d="M 69.5,15.5 C 68.8333,16.8333 67.8333,17.8333 66.5,18.5C 66.5,16.5 67.5,15.5 69.5,15.5 Z"/></g>
<g><path style="opacity:1" fill="#828283" d="M 120.5,14.5 C 121.167,15.5 121.833,16.5 122.5,17.5C 123.076,20.8756 123.743,24.2089 124.5,27.5C 123.708,29.7206 123.374,31.7206 123.5,33.5C 123.131,29.7601 121.464,26.7601 118.5,24.5C 120.066,25.0606 121.399,24.3939 122.5,22.5C 121.207,20.8974 120.207,19.2307 119.5,17.5C 118.957,17.44 118.624,17.1067 118.5,16.5C 119.243,15.8182 119.909,15.1515 120.5,14.5 Z"/></g>
<g><path style="opacity:1" fill="#c8a296" d="M 33.5,15.5 C 35.5542,15.3653 37.2209,16.032 38.5,17.5C 38.4921,20.5448 38.1587,23.5448 37.5,26.5C 36.2921,27.2341 34.9587,27.5674 33.5,27.5C 33.5,23.5 33.5,19.5 33.5,15.5 Z"/></g>
<g><path style="opacity:1" fill="#e5e5de" d="M 47.5,-0.5 C 47.8333,-0.5 48.1667,-0.5 48.5,-0.5C 49.2026,8.14869 49.536,16.8154 49.5,25.5C 48.7552,22.6104 48.0885,19.6104 47.5,16.5C 47.5,10.8333 47.5,5.16667 47.5,-0.5 Z"/></g>
<g><path style="opacity:1" fill="#3f4142" d="M 120.5,14.5 C 119.909,15.1515 119.243,15.8182 118.5,16.5C 118.624,17.1067 118.957,17.44 119.5,17.5C 120.037,21.9807 118.37,23.314 114.5,21.5C 114.5,20.5 114.5,19.5 114.5,18.5C 115.451,16.528 116.451,14.528 117.5,12.5C 118.518,13.1925 119.518,13.8592 120.5,14.5 Z"/></g>
<g><path style="opacity:1" fill="#e5f4f3" d="M 124.5,-0.5 C 125.833,-0.5 127.167,-0.5 128.5,-0.5C 127.387,4.88444 128.887,9.21777 133,12.5C 135.02,11.9681 135.853,10.6348 135.5,8.5C 137.167,8.5 138.833,8.5 140.5,8.5C 139.1,13.3638 138.433,18.3638 138.5,23.5C 137.661,24.6412 136.994,25.9745 136.5,27.5C 135.667,27.8333 134.833,28.1667 134,28.5C 130.875,27.744 127.709,27.4107 124.5,27.5C 123.743,24.2089 123.076,20.8756 122.5,17.5C 123.167,11.5 123.833,5.5 124.5,-0.5 Z"/></g>
<g><path style="opacity:1" fill="#3e423e" d="M 14.5,15.5 C 17.055,18.6269 18.055,22.2935 17.5,26.5C 16.1667,26.5 14.8333,26.5 13.5,26.5C 8.88845,25.3768 4.22178,25.3768 -0.5,26.5C -0.5,23.8333 -0.5,21.1667 -0.5,18.5C 4.5,18.5 9.5,18.5 14.5,18.5C 14.5,17.5 14.5,16.5 14.5,15.5 Z"/></g>
<g><path style="opacity:1" fill="#c8bbab" d="M 47.5,16.5 C 48.0885,19.6104 48.7552,22.6104 49.5,25.5C 49.5,25.8333 49.5,26.1667 49.5,26.5C 49.5,27.8333 49.5,29.1667 49.5,30.5C 47.5337,29.7455 47.2004,28.5788 48.5,27C 47.9056,26.5357 47.2389,26.369 46.5,26.5C 43.5,26.5 40.5,26.5 37.5,26.5C 38.1587,23.5448 38.4921,20.5448 38.5,17.5C 40.5466,17.5111 42.5466,17.8444 44.5,18.5C 45.7387,18.0576 46.7387,17.3909 47.5,16.5 Z"/></g>
<g><path style="opacity:1" fill="#7d7c7f" d="M 66.5,18.5 C 66.0733,21.0098 65.4067,23.3432 64.5,25.5C 64.3379,23.4727 64.5045,21.4727 65,19.5C 65.3826,18.944 65.8826,18.6107 66.5,18.5 Z"/></g>
<g><path style="opacity:1" fill="#525456" d="M 98.5,18.5 C 97.1667,18.5 96.5,17.8333 96.5,16.5C 92.5662,9.78735 93.5662,9.12068 99.5,14.5C 100.891,13.3554 102.224,13.3554 103.5,14.5C 103.291,15.086 102.957,15.586 102.5,16C 103.929,18.6897 104.929,21.5231 105.5,24.5C 104.167,24.5 102.833,24.5 101.5,24.5C 103.317,20.9508 102.65,17.9508 99.5,15.5C 98.6143,16.325 98.281,17.325 98.5,18.5 Z"/></g>
<g><path style="opacity:1" fill="#252426" d="M 96.5,16.5 C 96.5,17.8333 97.1667,18.5 98.5,18.5C 99.2891,18.7828 99.9558,19.2828 100.5,20C 100.056,21.5333 99.723,23.0333 99.5,24.5C 104.24,25.6425 106.907,28.6425 107.5,33.5C 106.234,32.9101 104.901,32.4101 103.5,32C 102.837,30.4815 101.837,29.3149 100.5,28.5C 100.167,28.5 99.8333,28.5 99.5,28.5C 92.6988,27.0171 85.8655,27.3504 79,29.5C 76.4361,28.2177 73.7695,27.2177 71,26.5C 70.2352,26.5699 69.7352,26.9033 69.5,27.5C 68.6618,27.8417 68.3284,28.5084 68.5,29.5C 67.5448,31.7457 66.8782,34.079 66.5,36.5C 65.8333,37.1667 65.1667,37.8333 64.5,38.5C 64.7845,36.5853 64.4511,34.9187 63.5,33.5C 63.5,32.8333 63.5,32.1667 63.5,31.5C 64.7498,31.4226 65.5831,30.756 66,29.5C 66.4225,23.9354 68.0892,18.602 71,13.5C 71.7412,14.6405 72.5745,14.6405 73.5,13.5C 74.6175,18.9743 76.2841,18.8077 78.5,13C 79.1667,12.8333 79.8333,12.6667 80.5,12.5C 82.7596,13.9113 84.9263,15.5779 87,17.5C 87.6172,16.5509 87.4506,15.7175 86.5,15C 87.3333,14.8333 88.1667,14.6667 89,14.5C 91.3597,15.78 93.8597,16.4467 96.5,16.5 Z"/></g>
<g><path style="opacity:1" fill="#40312f" d="M 69.5,27.5 C 69.7352,26.9033 70.2352,26.5699 71,26.5C 73.7695,27.2177 76.4361,28.2177 79,29.5C 85.8655,27.3504 92.6988,27.0171 99.5,28.5C 95.2351,28.5288 91.2351,29.5288 87.5,31.5C 82.4889,31.6659 77.4889,31.4993 72.5,31C 71.3636,29.8549 70.3636,28.6883 69.5,27.5 Z"/></g>
<g><path style="opacity:1" fill="#262829" d="M 116.5,27.5 C 118.196,27.6854 119.529,28.5187 120.5,30C 119.07,31.6739 117.736,32.6739 116.5,33C 120.393,40.0836 118.726,41.2503 111.5,36.5C 110.766,35.2921 110.433,33.9587 110.5,32.5C 108.721,30.5374 107.054,28.3707 105.5,26C 106.167,25.3333 106.833,25.3333 107.5,26C 110.509,30.8123 111.509,30.6456 110.5,25.5C 111.5,25.5 112.5,25.5 113.5,25.5C 112.551,28.2075 112.551,30.8742 113.5,33.5C 114.506,33.0623 114.506,32.3957 113.5,31.5C 114.325,30.6143 115.325,30.281 116.5,30.5C 116.5,29.5 116.5,28.5 116.5,27.5 Z"/></g>
<g><path style="opacity:1" fill="#8a8e8a" d="M 46.5,26.5 C 47.2389,26.369 47.9056,26.5357 48.5,27C 47.2004,28.5788 47.5337,29.7455 49.5,30.5C 50.4614,32.2646 50.7947,34.2646 50.5,36.5C 50.5,37.5 50.5,38.5 50.5,39.5C 50.1667,39.5 49.8333,39.5 49.5,39.5C 49.5,36.8333 49.5,34.1667 49.5,31.5C 47.8002,31.3739 46.3002,30.7073 45,29.5C 43.4329,30.8561 41.5996,31.5228 39.5,31.5C 33.1288,31.7546 26.7954,32.4213 20.5,33.5C 18.6455,33.6598 17.3121,32.9931 16.5,31.5C 17.1667,31.5 17.8333,31.5 18.5,31.5C 22.014,30.1217 25.6807,29.455 29.5,29.5C 33.5134,30.0057 37.5134,30.1723 41.5,30C 42.9555,28.3743 44.6221,27.2076 46.5,26.5 Z"/></g>
<g><path style="opacity:1" fill="#926958" d="M 99.5,28.5 C 99.8333,28.5 100.167,28.5 100.5,28.5C 101.038,30.1172 101.371,31.7839 101.5,33.5C 100.635,31.3227 98.9679,30.3227 96.5,30.5C 93.6205,31.7952 90.6205,32.4618 87.5,32.5C 87.5,32.1667 87.5,31.8333 87.5,31.5C 91.2351,29.5288 95.2351,28.5288 99.5,28.5 Z"/></g>
<g><path style="opacity:1" fill="#c4d2d6" d="M 64.5,25.5 C 64.4828,27.5648 64.1495,29.5648 63.5,31.5C 63.5,32.1667 63.5,32.8333 63.5,33.5C 63.5,36.1667 63.5,38.8333 63.5,41.5C 59.1667,41.5 54.8333,41.5 50.5,41.5C 50.5,40.8333 50.5,40.1667 50.5,39.5C 50.5,38.5 50.5,37.5 50.5,36.5C 52.3336,40.1675 55.3336,41.3341 59.5,40C 57.2846,38.1154 57.6179,36.2821 60.5,34.5C 58.826,32.5699 58.4927,30.5699 59.5,28.5C 60.6053,26.7769 62.2719,25.7769 64.5,25.5 Z"/></g>
<g><path style="opacity:1" fill="#5d4032" d="M 69.5,27.5 C 70.3636,28.6883 71.3636,29.8549 72.5,31C 77.4889,31.4993 82.4889,31.6659 87.5,31.5C 87.5,31.8333 87.5,32.1667 87.5,32.5C 83.2315,33.3726 78.8982,33.7059 74.5,33.5C 72.2722,32.6229 70.2722,31.2896 68.5,29.5C 68.3284,28.5084 68.6618,27.8417 69.5,27.5 Z"/></g>
<g><path style="opacity:1" fill="#f1f6f0" d="M 149.5,3.5 C 149.5,15.5 149.5,27.5 149.5,39.5C 144.873,39.8938 142.539,37.8938 142.5,33.5C 144.35,23.2877 146.683,13.2877 149.5,3.5 Z"/></g>
<g><path style="opacity:1" fill="#48555e" d="M 5.5,52.5 C 3.43525,52.5172 1.43525,52.8505 -0.5,53.5C -0.5,45.5 -0.5,37.5 -0.5,29.5C 3.53409,29.4955 7.53409,29.1621 11.5,28.5C 11.8354,35.5129 12.0021,42.5129 12,49.5C 9.58479,50.1319 7.41813,51.1319 5.5,52.5 Z"/></g>
<g><path style="opacity:1" fill="#5f5d62" d="M 49.5,39.5 C 46.1667,39.5 42.8333,39.5 39.5,39.5C 39.5,40.8333 39.5,42.1667 39.5,43.5C 37.3528,40.4438 34.3528,39.1105 30.5,39.5C 28.302,39.1201 26.6354,39.7868 25.5,41.5C 22.4166,44.2485 21.75,47.5818 23.5,51.5C 20.4765,51.4825 17.8099,50.4825 15.5,48.5C 19.4727,45.8607 22.806,42.5273 25.5,38.5C 28.8333,37.8333 32.1667,37.1667 35.5,36.5C 36.55,34.8983 35.8833,34.065 33.5,34C 35.7226,33.4338 37.7226,32.6005 39.5,31.5C 41.5996,31.5228 43.4329,30.8561 45,29.5C 46.3002,30.7073 47.8002,31.3739 49.5,31.5C 49.5,34.1667 49.5,36.8333 49.5,39.5 Z"/></g>
<g><path style="opacity:1" fill="#d9e5e7" d="M 49.5,26.5 C 52.3832,28.2532 53.8832,30.9198 54,34.5C 55.0113,33.6634 56.1779,33.33 57.5,33.5C 57.0773,31.2188 57.744,29.5521 59.5,28.5C 58.4927,30.5699 58.826,32.5699 60.5,34.5C 57.6179,36.2821 57.2846,38.1154 59.5,40C 55.3336,41.3341 52.3336,40.1675 50.5,36.5C 50.7947,34.2646 50.4614,32.2646 49.5,30.5C 49.5,29.1667 49.5,27.8333 49.5,26.5 Z"/></g>
<g><path style="opacity:1" fill="#8c6a56" d="M 68.5,29.5 C 70.2722,31.2896 72.2722,32.6229 74.5,33.5C 73.1155,34.8009 71.6155,34.8009 70,33.5C 68.7586,35.5479 68.5919,37.5479 69.5,39.5C 68.5,39.5 67.5,39.5 66.5,39.5C 66.5,38.5 66.5,37.5 66.5,36.5C 66.8782,34.079 67.5448,31.7457 68.5,29.5 Z"/></g>
<g><path style="opacity:1" fill="#bdbba9" d="M 138.5,23.5 C 138.682,25.5914 138.348,27.5914 137.5,29.5C 138.357,30.4252 139.357,31.0919 140.5,31.5C 139.768,34.2658 139.768,36.9325 140.5,39.5C 135.618,38.0954 130.618,37.0954 125.5,36.5C 124.287,36.2528 123.62,35.5862 123.5,34.5C 123.5,34.1667 123.5,33.8333 123.5,33.5C 123.374,31.7206 123.708,29.7206 124.5,27.5C 127.709,27.4107 130.875,27.744 134,28.5C 134.833,28.1667 135.667,27.8333 136.5,27.5C 136.994,25.9745 137.661,24.6412 138.5,23.5 Z"/></g>
<g><path style="opacity:1" fill="#d9dacd" d="M 146.5,-0.5 C 147.5,-0.5 148.5,-0.5 149.5,-0.5C 149.5,0.833333 149.5,2.16667 149.5,3.5C 146.683,13.2877 144.35,23.2877 142.5,33.5C 142.539,37.8938 144.873,39.8938 149.5,39.5C 149.5,39.8333 149.5,40.1667 149.5,40.5C 146.455,40.4921 143.455,40.1587 140.5,39.5C 139.768,36.9325 139.768,34.2658 140.5,31.5C 142.715,20.8759 144.715,10.2092 146.5,-0.5 Z"/></g>
<g><path style="opacity:1" fill="#727379" d="M 13.5,26.5 C 13.2591,29.0336 14.2591,30.7002 16.5,31.5C 17.3121,32.9931 18.6455,33.6598 20.5,33.5C 26.7954,32.4213 33.1288,31.7546 39.5,31.5C 37.7226,32.6005 35.7226,33.4338 33.5,34C 35.8833,34.065 36.55,34.8983 35.5,36.5C 32.1667,37.1667 28.8333,37.8333 25.5,38.5C 22.806,42.5273 19.4727,45.8607 15.5,48.5C 17.8099,50.4825 20.4765,51.4825 23.5,51.5C 24.209,52.404 25.209,52.7373 26.5,52.5C 25.791,53.404 24.791,53.7373 23.5,53.5C 19.4526,53.3048 15.4526,53.6381 11.5,54.5C 9.66634,53.2455 7.66634,52.5789 5.5,52.5C 7.41813,51.1319 9.58479,50.1319 12,49.5C 12.0021,42.5129 11.8354,35.5129 11.5,28.5C 7.53409,29.1621 3.53409,29.4955 -0.5,29.5C -0.5,28.5 -0.5,27.5 -0.5,26.5C 4.22178,25.3768 8.88845,25.3768 13.5,26.5 Z"/></g>
<g><path style="opacity:1" fill="#bf8565" d="M 101.5,33.5 C 101.833,33.5 102.167,33.5 102.5,33.5C 102.5,33.8333 102.5,34.1667 102.5,34.5C 100.037,34.7811 97.8705,35.7811 96,37.5C 95.7003,39.0657 96.2003,40.399 97.5,41.5C 97.1667,41.5 96.8333,41.5 96.5,41.5C 95.8333,41.1667 95.1667,40.8333 94.5,40.5C 92.0521,39.5269 89.3854,39.1936 86.5,39.5C 86.448,37.0971 86.7814,34.7638 87.5,32.5C 90.6205,32.4618 93.6205,31.7952 96.5,30.5C 98.9679,30.3227 100.635,31.3227 101.5,33.5 Z"/></g>
<g><path style="opacity:1" fill="#463d37" d="M 100.5,28.5 C 101.837,29.3149 102.837,30.4815 103.5,32C 104.901,32.4101 106.234,32.9101 107.5,33.5C 108.222,33.0825 108.722,32.4158 109,31.5C 109.383,32.056 109.883,32.3893 110.5,32.5C 110.433,33.9587 110.766,35.2921 111.5,36.5C 110.153,35.9717 108.819,35.805 107.5,36C 108.686,39.7992 110.686,42.9659 113.5,45.5C 113.631,46.2389 113.464,46.9056 113,47.5C 110.022,46.6668 107.855,45.0001 106.5,42.5C 105.683,40.1691 105.016,37.6691 104.5,35C 104.164,33.9701 103.497,33.4701 102.5,33.5C 102.167,33.5 101.833,33.5 101.5,33.5C 101.371,31.7839 101.038,30.1172 100.5,28.5 Z"/></g>
<g><path style="opacity:1" fill="#9d684c" d="M 87.5,32.5 C 86.7814,34.7638 86.448,37.0971 86.5,39.5C 89.3854,39.1936 92.0521,39.5269 94.5,40.5C 91.1667,40.5 87.8333,40.5 84.5,40.5C 79.5,40.5 74.5,40.5 69.5,40.5C 69.5,40.1667 69.5,39.8333 69.5,39.5C 68.5919,37.5479 68.7586,35.5479 70,33.5C 71.6155,34.8009 73.1155,34.8009 74.5,33.5C 78.8982,33.7059 83.2315,33.3726 87.5,32.5 Z"/></g>
<g><path style="opacity:1" fill="#a3a599" d="M 123.5,34.5 C 123.62,35.5862 124.287,36.2528 125.5,36.5C 130.618,37.0954 135.618,38.0954 140.5,39.5C 143.455,40.1587 146.455,40.4921 149.5,40.5C 149.5,41.1667 149.5,41.8333 149.5,42.5C 140.851,41.7974 132.185,41.464 123.5,41.5C 123.737,40.209 123.404,39.209 122.5,38.5C 119.852,36.7435 120.186,35.4101 123.5,34.5 Z"/></g>
<g><path style="opacity:1" fill="#292a2f" d="M 30.5,39.5 C 32.2418,40.9573 34.2418,42.124 36.5,43C 35.5939,44.6995 35.2606,46.5328 35.5,48.5C 36.5,48.5 37.5,48.5 38.5,48.5C 38.2627,47.209 38.596,46.209 39.5,45.5C 39.5172,47.5648 39.8505,49.5648 40.5,51.5C 39.8333,51.5 39.1667,51.5 38.5,51.5C 36.7354,50.5386 34.7354,50.2053 32.5,50.5C 32.9492,48.0225 32.2825,46.0225 30.5,44.5C 29.5344,46.396 29.2011,48.396 29.5,50.5C 28.1667,50.5 26.8333,50.5 25.5,50.5C 25.5,47.5 25.5,44.5 25.5,41.5C 26.6354,39.7868 28.302,39.1201 30.5,39.5 Z"/></g>
<g><path style="opacity:1" fill="#5f7a9a" d="M 49.5,39.5 C 49.8333,39.5 50.1667,39.5 50.5,39.5C 50.5,40.1667 50.5,40.8333 50.5,41.5C 49.5,41.8333 48.8333,42.5 48.5,43.5C 46.6583,43.2767 44.825,42.9434 43,42.5C 41.6244,42.6842 40.7911,43.3509 40.5,44.5C 39.8333,44.5 39.5,44.1667 39.5,43.5C 39.5,42.1667 39.5,40.8333 39.5,39.5C 42.8333,39.5 46.1667,39.5 49.5,39.5 Z"/></g>
<g><path style="opacity:1" fill="#926450" d="M 102.5,34.5 C 102.5,34.1667 102.5,33.8333 102.5,33.5C 103.497,33.4701 104.164,33.9701 104.5,35C 105.016,37.6691 105.683,40.1691 106.5,42.5C 106.5,43.1667 106.5,43.8333 106.5,44.5C 105.542,44.0472 104.708,43.3805 104,42.5C 103.817,39.6353 103.317,36.9686 102.5,34.5 Z"/></g>
<g><path style="opacity:1" fill="#d0d8d3" d="M 123.5,41.5 C 132.185,41.464 140.851,41.7974 149.5,42.5C 149.5,43.1667 149.5,43.8333 149.5,44.5C 142.191,43.7516 134.858,43.4183 127.5,43.5C 125.712,43.7852 124.045,43.4519 122.5,42.5C 122.624,41.8933 122.957,41.56 123.5,41.5 Z"/></g>
<g><path style="opacity:1" fill="#3f4954" d="M 30.5,39.5 C 34.3528,39.1105 37.3528,40.4438 39.5,43.5C 39.5,44.1667 39.8333,44.5 40.5,44.5C 41.1667,44.5 41.5,44.8333 41.5,45.5C 40.8333,45.5 40.1667,45.5 39.5,45.5C 38.596,46.209 38.2627,47.209 38.5,48.5C 37.5,48.5 36.5,48.5 35.5,48.5C 35.2606,46.5328 35.5939,44.6995 36.5,43C 34.2418,42.124 32.2418,40.9573 30.5,39.5 Z"/></g>
<g><path style="opacity:1" fill="#515153" d="M 119.5,17.5 C 120.207,19.2307 121.207,20.8974 122.5,22.5C 121.399,24.3939 120.066,25.0606 118.5,24.5C 121.464,26.7601 123.131,29.7601 123.5,33.5C 123.5,33.8333 123.5,34.1667 123.5,34.5C 120.186,35.4101 119.852,36.7435 122.5,38.5C 121.167,40.1667 119.833,41.8333 118.5,43.5C 117.5,44.1667 116.5,44.8333 115.5,45.5C 114.833,45.5 114.167,45.5 113.5,45.5C 110.686,42.9659 108.686,39.7992 107.5,36C 108.819,35.805 110.153,35.9717 111.5,36.5C 118.726,41.2503 120.393,40.0836 116.5,33C 117.736,32.6739 119.07,31.6739 120.5,30C 119.529,28.5187 118.196,27.6854 116.5,27.5C 115.522,27.189 114.855,26.5223 114.5,25.5C 116.748,24.676 116.914,23.676 115,22.5C 113.175,23.5709 112.008,22.9042 111.5,20.5C 111.846,19.3044 112.346,19.3044 113,20.5C 113.464,19.9056 113.631,19.2389 113.5,18.5C 113.833,18.5 114.167,18.5 114.5,18.5C 114.5,19.5 114.5,20.5 114.5,21.5C 118.37,23.314 120.037,21.9807 119.5,17.5 Z"/></g>
<g><path style="opacity:1" fill="#989a92" d="M 127.5,43.5 C 134.858,43.4183 142.191,43.7516 149.5,44.5C 149.5,45.5 149.5,46.5 149.5,47.5C 142.202,45.4016 134.868,44.0683 127.5,43.5 Z"/></g>
<g><path style="opacity:1" fill="#5783ba" d="M 48.5,43.5 C 49.4345,44.5676 49.7678,45.901 49.5,47.5C 49.1667,47.5 48.8333,47.5 48.5,47.5C 46.1667,46.8333 43.8333,46.1667 41.5,45.5C 41.5,44.8333 41.1667,44.5 40.5,44.5C 40.7911,43.3509 41.6244,42.6842 43,42.5C 44.825,42.9434 46.6583,43.2767 48.5,43.5 Z"/></g>
<g><path style="opacity:1" fill="#85b7d8" d="M 50.5,41.5 C 54.8333,41.5 59.1667,41.5 63.5,41.5C 63.7845,43.4147 63.4511,45.0813 62.5,46.5C 60.0467,45.3549 57.7134,45.6883 55.5,47.5C 53.5,47.5 51.5,47.5 49.5,47.5C 49.7678,45.901 49.4345,44.5676 48.5,43.5C 48.8333,42.5 49.5,41.8333 50.5,41.5 Z"/></g>
<g><path style="opacity:1" fill="#3c2d2b" d="M 66.5,36.5 C 66.5,37.5 66.5,38.5 66.5,39.5C 67.5,39.5 68.5,39.5 69.5,39.5C 69.5,39.8333 69.5,40.1667 69.5,40.5C 70.8484,41.6006 72.3484,42.6006 74,43.5C 75.0769,46.2617 74.2436,47.9283 71.5,48.5C 70.2101,47.9423 69.3768,46.9423 69,45.5C 68.3333,46.1667 67.6667,46.8333 67,47.5C 66.79,45.9419 66.29,44.6085 65.5,43.5C 64.5489,42.0813 64.2155,40.4147 64.5,38.5C 65.1667,37.8333 65.8333,37.1667 66.5,36.5 Z"/></g>
<g><path style="opacity:1" fill="#7a5946" d="M 96.5,41.5 C 96.8333,41.5 97.1667,41.5 97.5,41.5C 98.5,41.8333 99.1667,42.5 99.5,43.5C 98.2475,45.3388 98.2475,47.1722 99.5,49C 96.9752,49.1437 94.6419,49.3104 92.5,49.5C 93.1712,48.1529 93.1712,46.9862 92.5,46C 95.1667,45.3333 95.1667,44.6667 92.5,44C 94.437,43.8784 95.7703,43.045 96.5,41.5 Z"/></g>
<g><path style="opacity:1" fill="#4f362a" d="M 84.5,40.5 C 87.8333,40.5 91.1667,40.5 94.5,40.5C 95.1667,40.8333 95.8333,41.1667 96.5,41.5C 95.7703,43.045 94.437,43.8784 92.5,44C 95.1667,44.6667 95.1667,45.3333 92.5,46C 93.1712,46.9862 93.1712,48.1529 92.5,49.5C 91.8826,49.6107 91.3826,49.944 91,50.5C 89.9609,49.2899 88.7942,48.2899 87.5,47.5C 86.2921,48.2341 84.9587,48.5674 83.5,48.5C 83.5,47.5 83.5,46.5 83.5,45.5C 88.6945,45.0583 88.6945,44.0583 83.5,42.5C 83.8627,41.8165 84.1961,41.1499 84.5,40.5 Z"/></g>
<g><path style="opacity:1" fill="#64879a" d="M 62.5,46.5 C 62.5,46.8333 62.5,47.1667 62.5,47.5C 62.1667,47.5 61.8333,47.5 61.5,47.5C 60.8333,47.5 60.1667,47.5 59.5,47.5C 58.1667,47.5 56.8333,47.5 55.5,47.5C 57.7134,45.6883 60.0467,45.3549 62.5,46.5 Z"/></g>
<g><path style="opacity:1" fill="#3d545f" d="M 48.5,47.5 C 48.8333,47.5 49.1667,47.5 49.5,47.5C 51.5,47.5 53.5,47.5 55.5,47.5C 56.8333,47.5 58.1667,47.5 59.5,47.5C 56.6888,48.475 53.6888,49.1417 50.5,49.5C 49.5,49.1667 48.8333,48.5 48.5,47.5 Z"/></g>
<g><path style="opacity:1" fill="#6a4232" d="M 69.5,40.5 C 74.5,40.5 79.5,40.5 84.5,40.5C 84.1961,41.1499 83.8627,41.8165 83.5,42.5C 88.6945,44.0583 88.6945,45.0583 83.5,45.5C 83.5,46.5 83.5,47.5 83.5,48.5C 84.9587,48.5674 86.2921,48.2341 87.5,47.5C 87.238,48.9778 87.5713,50.3112 88.5,51.5C 89.7387,51.9424 90.7387,52.6091 91.5,53.5C 90.2015,55.0986 88.5348,55.5986 86.5,55C 85.2713,53.4708 83.7713,52.3041 82,51.5C 80.973,44.8698 78.8063,44.2031 75.5,49.5C 75.5,49.8333 75.5,50.1667 75.5,50.5C 74.1882,51.1451 73.1882,52.1451 72.5,53.5C 71.3112,54.4287 69.9778,54.762 68.5,54.5C 68.7135,52.8561 68.3802,51.3561 67.5,50C 69.0581,49.79 70.3915,49.29 71.5,48.5C 74.2436,47.9283 75.0769,46.2617 74,43.5C 72.3484,42.6006 70.8484,41.6006 69.5,40.5 Z"/></g>
<g><path style="opacity:1" fill="#b68a76" d="M 118.5,43.5 C 120.38,43.2291 121.713,43.8958 122.5,45.5C 122.5,46.8333 122.5,48.1667 122.5,49.5C 122.672,50.4916 122.338,51.1583 121.5,51.5C 121.5,49.8333 121.5,48.1667 121.5,46.5C 120.432,45.5655 119.099,45.2322 117.5,45.5C 118.084,48.285 117.084,49.9517 114.5,50.5C 115.301,48.9582 115.634,47.2915 115.5,45.5C 116.5,44.8333 117.5,44.1667 118.5,43.5 Z"/></g>
<g><path style="opacity:1" fill="#575755" d="M 123.5,45.5 C 132.22,46.5138 140.887,47.8471 149.5,49.5C 149.5,50.8333 149.5,52.1667 149.5,53.5C 145.223,52.478 140.889,51.6447 136.5,51C 135.833,50.3333 135.167,49.6667 134.5,49C 130.525,48.3859 126.859,47.2192 123.5,45.5 Z"/></g>
<g><path style="opacity:1" fill="#6f6f68" d="M 122.5,38.5 C 123.404,39.209 123.737,40.209 123.5,41.5C 122.957,41.56 122.624,41.8933 122.5,42.5C 124.045,43.4519 125.712,43.7852 127.5,43.5C 134.868,44.0683 142.202,45.4016 149.5,47.5C 149.5,48.1667 149.5,48.8333 149.5,49.5C 140.887,47.8471 132.22,46.5138 123.5,45.5C 123.167,45.5 122.833,45.5 122.5,45.5C 121.713,43.8958 120.38,43.2291 118.5,43.5C 119.833,41.8333 121.167,40.1667 122.5,38.5 Z"/></g>
<g><path style="opacity:1" fill="#0d0f14" d="M 39.5,45.5 C 40.1667,45.5 40.8333,45.5 41.5,45.5C 43.8333,46.1667 46.1667,46.8333 48.5,47.5C 48.8333,48.5 49.5,49.1667 50.5,49.5C 47.6627,51.4023 44.3293,52.069 40.5,51.5C 39.8505,49.5648 39.5172,47.5648 39.5,45.5 Z"/></g>
<g><path style="opacity:1" fill="#424142" d="M 25.5,41.5 C 25.5,44.5 25.5,47.5 25.5,50.5C 26.8333,50.5 28.1667,50.5 29.5,50.5C 29.2011,48.396 29.5344,46.396 30.5,44.5C 32.2825,46.0225 32.9492,48.0225 32.5,50.5C 34.7354,50.2053 36.7354,50.5386 38.5,51.5C 34.6286,51.185 30.9619,51.5184 27.5,52.5C 27.1667,52.5 26.8333,52.5 26.5,52.5C 25.209,52.7373 24.209,52.404 23.5,51.5C 21.75,47.5818 22.4166,44.2485 25.5,41.5 Z"/></g>
<g><path style="opacity:1" fill="#2a2e2d" d="M 59.5,47.5 C 60.1667,47.5 60.8333,47.5 61.5,47.5C 62.17,50.5904 61.0033,52.257 58,52.5C 52.0403,52.467 46.2069,52.1337 40.5,51.5C 44.3293,52.069 47.6627,51.4023 50.5,49.5C 53.6888,49.1417 56.6888,48.475 59.5,47.5 Z"/></g>
<g><path style="opacity:1" fill="#a47660" d="M 99.5,43.5 C 102.743,48.1891 101.743,51.8558 96.5,54.5C 96.5299,53.5028 96.0299,52.8361 95,52.5C 93.8615,52.9891 92.6948,53.3225 91.5,53.5C 90.7387,52.6091 89.7387,51.9424 88.5,51.5C 87.5713,50.3112 87.238,48.9778 87.5,47.5C 88.7942,48.2899 89.9609,49.2899 91,50.5C 91.3826,49.944 91.8826,49.6107 92.5,49.5C 94.6419,49.3104 96.9752,49.1437 99.5,49C 98.2475,47.1722 98.2475,45.3388 99.5,43.5 Z"/></g>
<g><path style="opacity:1" fill="#e69978" d="M 121.5,46.5 C 119.031,47.6067 118.031,49.6067 118.5,52.5C 116.62,52.7709 115.287,52.1042 114.5,50.5C 117.084,49.9517 118.084,48.285 117.5,45.5C 119.099,45.2322 120.432,45.5655 121.5,46.5 Z"/></g>
<g><path style="opacity:1" fill="#cd9878" d="M 102.5,34.5 C 103.317,36.9686 103.817,39.6353 104,42.5C 104.708,43.3805 105.542,44.0472 106.5,44.5C 106.924,48.2213 107.59,52.2213 108.5,56.5C 107.833,58.5 107.167,60.5 106.5,62.5C 105.576,59.5533 105.576,56.5533 106.5,53.5C 104.194,53.9926 101.861,54.3259 99.5,54.5C 99.9422,58.1545 100.276,61.8212 100.5,65.5C 99.4324,66.4345 98.099,66.7678 96.5,66.5C 96.6567,65.1266 96.49,63.7932 96,62.5C 95.3292,63.2524 94.4959,63.5858 93.5,63.5C 92.6236,63.6309 91.9569,63.2975 91.5,62.5C 93.0194,60.4437 93.8528,58.1104 94,55.5C 94.6708,54.7476 95.5041,54.4142 96.5,54.5C 101.743,51.8558 102.743,48.1891 99.5,43.5C 99.1667,42.5 98.5,41.8333 97.5,41.5C 96.2003,40.399 95.7003,39.0657 96,37.5C 97.8705,35.7811 100.037,34.7811 102.5,34.5 Z"/></g>
<g><path style="opacity:1" fill="#676967" d="M 61.5,47.5 C 61.8333,47.5 62.1667,47.5 62.5,47.5C 63.0102,50.3878 62.3435,52.7211 60.5,54.5C 59.609,53.8902 58.609,53.5569 57.5,53.5C 55.1667,53.5 52.8333,53.5 50.5,53.5C 48.8002,53.6261 47.3002,54.2927 46,55.5C 44.2341,54.7665 42.4008,54.4332 40.5,54.5C 36.4865,52.6658 32.1532,51.9992 27.5,52.5C 30.9619,51.5184 34.6286,51.185 38.5,51.5C 39.1667,51.5 39.8333,51.5 40.5,51.5C 46.2069,52.1337 52.0403,52.467 58,52.5C 61.0033,52.257 62.17,50.5904 61.5,47.5 Z"/></g>
<g><path style="opacity:1" fill="#66564e" d="M 106.5,42.5 C 107.855,45.0001 110.022,46.6668 113,47.5C 113.464,46.9056 113.631,46.2389 113.5,45.5C 114.167,45.5 114.833,45.5 115.5,45.5C 115.634,47.2915 115.301,48.9582 114.5,50.5C 113.11,51.8993 112.11,53.5659 111.5,55.5C 110.849,56.0906 110.182,56.7573 109.5,57.5C 108.893,57.3764 108.56,57.0431 108.5,56.5C 107.59,52.2213 106.924,48.2213 106.5,44.5C 106.5,43.8333 106.5,43.1667 106.5,42.5 Z"/></g>
<g><path style="opacity:1" fill="#c66f59" d="M 121.5,46.5 C 121.5,48.1667 121.5,49.8333 121.5,51.5C 121.167,52.8333 120.833,54.1667 120.5,55.5C 120.167,55.5 119.833,55.5 119.5,55.5C 118.735,56.6602 117.735,57.6602 116.5,58.5C 114.929,57.6906 113.262,57.3573 111.5,57.5C 111.5,56.8333 111.5,56.1667 111.5,55.5C 112.11,53.5659 113.11,51.8993 114.5,50.5C 115.287,52.1042 116.62,52.7709 118.5,52.5C 118.031,49.6067 119.031,47.6067 121.5,46.5 Z"/></g>
<g><path style="opacity:1" fill="#78808f" d="M 5.5,52.5 C 7.66634,52.5789 9.66634,53.2455 11.5,54.5C 15.4526,53.6381 19.4526,53.3048 23.5,53.5C 19.8981,54.6343 16.5648,56.3009 13.5,58.5C 8.79708,58.5628 4.13041,58.2295 -0.5,57.5C -0.5,56.1667 -0.5,54.8333 -0.5,53.5C 1.43525,52.8505 3.43525,52.5172 5.5,52.5 Z"/></g>
<g><path style="opacity:1" fill="#999c99" d="M 63.5,33.5 C 64.4511,34.9187 64.7845,36.5853 64.5,38.5C 64.2155,40.4147 64.5489,42.0813 65.5,43.5C 64.8379,47.4659 64.5045,51.4659 64.5,55.5C 62.901,55.7678 61.5676,55.4345 60.5,54.5C 62.3435,52.7211 63.0102,50.3878 62.5,47.5C 62.5,47.1667 62.5,46.8333 62.5,46.5C 63.4511,45.0813 63.7845,43.4147 63.5,41.5C 63.5,38.8333 63.5,36.1667 63.5,33.5 Z"/></g>
<g><path style="opacity:1" fill="#e09c7b" d="M 80.5,61.5 C 78.7354,60.5386 76.7354,60.2053 74.5,60.5C 74.3424,57.0977 74.6758,53.7644 75.5,50.5C 75.5,50.1667 75.5,49.8333 75.5,49.5C 77.1703,49.2488 78.6703,48.5822 80,47.5C 80.6659,51.1663 81.8326,54.6663 83.5,58C 83.2926,59.9497 82.2926,61.1164 80.5,61.5 Z"/></g>
<g><path style="opacity:1" fill="#3d3f40" d="M 122.5,45.5 C 122.833,45.5 123.167,45.5 123.5,45.5C 126.859,47.2192 130.525,48.3859 134.5,49C 135.167,49.6667 135.833,50.3333 136.5,51C 140.889,51.6447 145.223,52.478 149.5,53.5C 149.5,54.1667 149.5,54.8333 149.5,55.5C 143.091,55.8173 136.757,55.3173 130.5,54C 128.393,52.7365 127.393,50.9032 127.5,48.5C 125.708,48.366 124.042,48.6993 122.5,49.5C 122.5,48.1667 122.5,46.8333 122.5,45.5 Z"/></g>
<g><path style="opacity:1" fill="#c7c5c6" d="M 50.5,53.5 C 47.1106,58.3258 42.7773,59.6592 37.5,57.5C 38.5,57.5 39.5,57.5 40.5,57.5C 40.5,56.5 40.5,55.5 40.5,54.5C 42.4008,54.4332 44.2341,54.7665 46,55.5C 47.3002,54.2927 48.8002,53.6261 50.5,53.5 Z"/></g>
<g><path style="opacity:1" fill="#846554" d="M 65.5,43.5 C 66.29,44.6085 66.79,45.9419 67,47.5C 67.6667,46.8333 68.3333,46.1667 69,45.5C 69.3768,46.9423 70.2101,47.9423 71.5,48.5C 70.3915,49.29 69.0581,49.79 67.5,50C 68.3802,51.3561 68.7135,52.8561 68.5,54.5C 66.7024,57.8309 66.0357,61.4975 66.5,65.5C 67.5,65.5 68.5,65.5 69.5,65.5C 67.8084,69.2654 66.4751,69.2654 65.5,65.5C 65.4077,63.1523 64.4077,61.4856 62.5,60.5C 63.968,59.2209 64.6347,57.5542 64.5,55.5C 64.5045,51.4659 64.8379,47.4659 65.5,43.5 Z"/></g>
<g><path style="opacity:1" fill="#a0674c" d="M 75.5,50.5 C 74.6758,53.7644 74.3424,57.0977 74.5,60.5C 76.7354,60.2053 78.7354,60.5386 80.5,61.5C 80.7346,63.7435 82.0679,65.7435 84.5,67.5C 82.4458,67.6347 80.7791,66.968 79.5,65.5C 77.3208,64.9408 75.1542,64.2741 73,63.5C 71.6974,63.9783 70.5307,64.645 69.5,65.5C 68.5,65.5 67.5,65.5 66.5,65.5C 66.0357,61.4975 66.7024,57.8309 68.5,54.5C 69.9778,54.762 71.3112,54.4287 72.5,53.5C 73.1882,52.1451 74.1882,51.1451 75.5,50.5 Z"/></g>
<g><path style="opacity:1" fill="#929ba3" d="M 26.5,52.5 C 26.8333,52.5 27.1667,52.5 27.5,52.5C 32.1532,51.9992 36.4865,52.6658 40.5,54.5C 40.5,55.5 40.5,56.5 40.5,57.5C 39.5,57.5 38.5,57.5 37.5,57.5C 36.1667,57.5 34.8333,57.5 33.5,57.5C 33.5,58.8333 33.5,60.1667 33.5,61.5C 30.8597,61.4467 28.3597,60.78 26,59.5C 23.0351,59.4384 22.2018,60.6051 23.5,63C 27.121,64.1382 30.7876,64.9716 34.5,65.5C 34.5,65.8333 34.5,66.1667 34.5,66.5C 27.5619,67.1336 20.8952,66.1336 14.5,63.5C 12.8045,64.1744 11.1379,64.8411 9.5,65.5C 9.66997,64.1779 9.33663,63.0113 8.5,62C 5.85397,61.5026 3.1873,61.3359 0.5,61.5C 5.76337,60.3361 11.0967,60.6695 16.5,62.5C 17.521,61.9984 17.6877,61.3317 17,60.5C 15.6976,59.9152 14.531,59.2485 13.5,58.5C 16.5648,56.3009 19.8981,54.6343 23.5,53.5C 24.791,53.7373 25.791,53.404 26.5,52.5 Z"/></g>
<g><path style="opacity:1" fill="#e4e5e4" d="M 50.5,53.5 C 52.8333,53.5 55.1667,53.5 57.5,53.5C 58.1408,54.4822 58.8075,55.4822 59.5,56.5C 56.6303,57.2568 53.9636,58.2568 51.5,59.5C 45.5553,60.6355 39.8887,62.6355 34.5,65.5C 30.7876,64.9716 27.121,64.1382 23.5,63C 22.2018,60.6051 23.0351,59.4384 26,59.5C 28.3597,60.78 30.8597,61.4467 33.5,61.5C 33.5,60.1667 33.5,58.8333 33.5,57.5C 34.8333,57.5 36.1667,57.5 37.5,57.5C 42.7773,59.6592 47.1106,58.3258 50.5,53.5 Z"/></g>
<g><path style="opacity:1" fill="#2a2e30" d="M 149.5,55.5 C 149.5,58.1667 149.5,60.8333 149.5,63.5C 142.638,60.0862 135.305,58.7529 127.5,59.5C 127.657,60.8734 127.49,62.2068 127,63.5C 126.818,60.7737 126.318,58.1071 125.5,55.5C 123.872,54.4647 122.205,54.4647 120.5,55.5C 120.833,54.1667 121.167,52.8333 121.5,51.5C 122.338,51.1583 122.672,50.4916 122.5,49.5C 124.042,48.6993 125.708,48.366 127.5,48.5C 127.393,50.9032 128.393,52.7365 130.5,54C 136.757,55.3173 143.091,55.8173 149.5,55.5 Z"/></g>
<g><path style="opacity:1" fill="#c4c4b8" d="M 57.5,53.5 C 58.609,53.5569 59.609,53.8902 60.5,54.5C 61.5676,55.4345 62.901,55.7678 64.5,55.5C 64.6347,57.5542 63.968,59.2209 62.5,60.5C 61.8333,60.5 61.1667,60.5 60.5,60.5C 58.139,60.6741 55.8056,61.0074 53.5,61.5C 52.1667,61.5 51.5,60.8333 51.5,59.5C 53.9636,58.2568 56.6303,57.2568 59.5,56.5C 58.8075,55.4822 58.1408,54.4822 57.5,53.5 Z"/></g>
<g><path style="opacity:1" fill="#5c656e" d="M -0.5,57.5 C 4.13041,58.2295 8.79708,58.5628 13.5,58.5C 14.531,59.2485 15.6976,59.9152 17,60.5C 17.6877,61.3317 17.521,61.9984 16.5,62.5C 11.0967,60.6695 5.76337,60.3361 0.5,61.5C 0.166667,61.5 -0.166667,61.5 -0.5,61.5C -0.5,60.1667 -0.5,58.8333 -0.5,57.5 Z"/></g>
<g><path style="opacity:1" fill="#e2ac87" d="M 106.5,62.5 C 105.077,64.5449 103.077,65.5449 100.5,65.5C 100.276,61.8212 99.9422,58.1545 99.5,54.5C 101.861,54.3259 104.194,53.9926 106.5,53.5C 105.576,56.5533 105.576,59.5533 106.5,62.5 Z"/></g>
<g><path style="opacity:1" fill="#727168" d="M 60.5,60.5 C 60.5,60.8333 60.5,61.1667 60.5,61.5C 58.7839,61.6287 57.1172,61.962 55.5,62.5C 54.8333,62.5 54.1667,62.5 53.5,62.5C 53.5,62.1667 53.5,61.8333 53.5,61.5C 55.8056,61.0074 58.139,60.6741 60.5,60.5 Z"/></g>
<g><path style="opacity:1" fill="#a9a09e" d="M 51.5,59.5 C 51.5,60.8333 52.1667,61.5 53.5,61.5C 53.5,61.8333 53.5,62.1667 53.5,62.5C 51.597,62.7959 49.9303,63.4625 48.5,64.5C 45.8915,64.4003 43.5582,65.0669 41.5,66.5C 38.9952,67.4171 36.6618,67.4171 34.5,66.5C 34.5,66.1667 34.5,65.8333 34.5,65.5C 39.8887,62.6355 45.5553,60.6355 51.5,59.5 Z"/></g>
<g><path style="opacity:1" fill="#44403a" d="M 53.5,62.5 C 54.1667,62.5 54.8333,62.5 55.5,62.5C 53.4855,63.9238 51.1522,64.5905 48.5,64.5C 49.9303,63.4625 51.597,62.7959 53.5,62.5 Z"/></g>
<g><path style="opacity:1" fill="#b1704f" d="M 91.5,53.5 C 92.6948,53.3225 93.8615,52.9891 95,52.5C 96.0299,52.8361 96.5299,53.5028 96.5,54.5C 95.5041,54.4142 94.6708,54.7476 94,55.5C 93.8528,58.1104 93.0194,60.4437 91.5,62.5C 91.9569,63.2975 92.6236,63.6309 93.5,63.5C 93.5,64.8333 93.5,66.1667 93.5,67.5C 91.974,69.4499 90.974,71.7833 90.5,74.5C 89.6667,72.5 88.8333,70.5 88,68.5C 86.9887,67.6634 85.8221,67.33 84.5,67.5C 82.0679,65.7435 80.7346,63.7435 80.5,61.5C 82.2926,61.1164 83.2926,59.9497 83.5,58C 81.8326,54.6663 80.6659,51.1663 80,47.5C 78.6703,48.5822 77.1703,49.2488 75.5,49.5C 78.8063,44.2031 80.973,44.8698 82,51.5C 83.7713,52.3041 85.2713,53.4708 86.5,55C 88.5348,55.5986 90.2015,55.0986 91.5,53.5 Z"/></g>
<g><path style="opacity:1" fill="#9e806e" d="M 111.5,55.5 C 111.5,56.1667 111.5,56.8333 111.5,57.5C 111.318,59.5914 111.652,61.5914 112.5,63.5C 111.397,63.9976 110.397,64.3309 109.5,64.5C 109.709,65.086 110.043,65.586 110.5,66C 109.299,66.9025 108.465,68.0692 108,69.5C 107.854,73.0687 107.02,76.402 105.5,79.5C 105.747,80.7133 106.414,81.38 107.5,81.5C 106.055,83.0627 104.389,84.396 102.5,85.5C 101.596,84.791 101.263,83.791 101.5,82.5C 101.5,81.8333 101.833,81.5 102.5,81.5C 104.596,78.8087 104.93,75.8087 103.5,72.5C 102.784,73.311 101.95,73.9777 101,74.5C 99.6136,73.2714 98.1136,72.2714 96.5,71.5C 97.1667,70.8333 97.8333,70.1667 98.5,69.5C 104.241,71.1561 106.907,68.8228 106.5,62.5C 107.167,60.5 107.833,58.5 108.5,56.5C 108.56,57.0431 108.893,57.3764 109.5,57.5C 110.182,56.7573 110.849,56.0906 111.5,55.5 Z"/></g>
<g><path style="opacity:1" fill="#acbbcb" d="M -0.5,65.5 C 1.14387,65.2865 2.64387,65.6198 4,66.5C 4.67412,69.26 5.50745,71.9267 6.5,74.5C 5.23403,73.9101 3.9007,73.4101 2.5,73C 2.08527,70.9737 1.08527,69.4737 -0.5,68.5C -0.5,67.5 -0.5,66.5 -0.5,65.5 Z"/></g>
<g><path style="opacity:1" fill="#443b36" d="M 48.5,64.5 C 46.5718,66.2939 44.2384,67.2939 41.5,67.5C 41.5,67.1667 41.5,66.8333 41.5,66.5C 43.5582,65.0669 45.8915,64.4003 48.5,64.5 Z"/></g>
<g><path style="opacity:1" fill="#0d0a0a" d="M 60.5,61.5 C 61.3764,61.3691 62.0431,61.7025 62.5,62.5C 61.6409,66.3083 61.3076,69.975 61.5,73.5C 55.6003,73.7361 52.267,76.7361 51.5,82.5C 49.8333,83.5 48.5,84.8333 47.5,86.5C 47.1667,86.5 46.8333,86.5 46.5,86.5C 46.5299,85.5028 46.0299,84.8361 45,84.5C 42.3592,84.9026 40.0259,85.9026 38,87.5C 37.502,90.4816 37.3354,93.4816 37.5,96.5C 37.7361,99.2257 36.9028,101.559 35,103.5C 33.8545,104.684 32.6879,104.684 31.5,103.5C 30.7107,99.9255 29.3774,96.5921 27.5,93.5C 27.4606,92.4168 27.1272,91.4168 26.5,90.5C 29.3418,89.9955 30.6751,88.3289 30.5,85.5C 28.6096,85.2965 27.1096,85.9632 26,87.5C 25.5034,85.1902 25.3367,82.8568 25.5,80.5C 29.1667,77.5 32.5,74.1667 35.5,70.5C 38.3126,70.9754 40.3126,69.9754 41.5,67.5C 44.2384,67.2939 46.5718,66.2939 48.5,64.5C 51.1522,64.5905 53.4855,63.9238 55.5,62.5C 57.1172,61.962 58.7839,61.6287 60.5,61.5 Z"/></g>
<g><path style="opacity:1" fill="#c2d5e5" d="M -0.5,62.5 C 2.44753,62.2229 5.28086,62.5562 8,63.5C 8.49796,66.4816 8.66463,69.4816 8.5,72.5C 8.27607,74.0463 7.94273,75.713 7.5,77.5C 4.91585,78.3928 2.24919,78.7261 -0.5,78.5C -0.5,78.1667 -0.5,77.8333 -0.5,77.5C 1.5273,77.6621 3.5273,77.4955 5.5,77C 6.25244,76.3292 6.58577,75.4959 6.5,74.5C 5.50745,71.9267 4.67412,69.26 4,66.5C 2.64387,65.6198 1.14387,65.2865 -0.5,65.5C -0.5,64.5 -0.5,63.5 -0.5,62.5 Z"/></g>
<g><path style="opacity:1" fill="#b6896d" d="M 100.5,65.5 C 103.077,65.5449 105.077,64.5449 106.5,62.5C 106.907,68.8228 104.241,71.1561 98.5,69.5C 96.6776,69.1692 95.0109,68.5025 93.5,67.5C 93.5,66.1667 93.5,64.8333 93.5,63.5C 94.4959,63.5858 95.3292,63.2524 96,62.5C 96.49,63.7932 96.6567,65.1266 96.5,66.5C 98.099,66.7678 99.4324,66.4345 100.5,65.5 Z"/></g>
<g><path style="opacity:1" fill="#d8ab94" d="M 119.5,55.5 C 118.989,58.0215 117.989,60.3549 116.5,62.5C 115.504,62.4142 114.671,62.7476 114,63.5C 113.502,66.4816 113.335,69.4816 113.5,72.5C 112.255,75.9873 110.255,78.9873 107.5,81.5C 106.414,81.38 105.747,80.7133 105.5,79.5C 107.02,76.402 107.854,73.0687 108,69.5C 108.465,68.0692 109.299,66.9025 110.5,66C 110.043,65.586 109.709,65.086 109.5,64.5C 110.397,64.3309 111.397,63.9976 112.5,63.5C 111.652,61.5914 111.318,59.5914 111.5,57.5C 113.262,57.3573 114.929,57.6906 116.5,58.5C 117.735,57.6602 118.735,56.6602 119.5,55.5 Z"/></g>
<g><path style="opacity:1" fill="#4b443f" d="M 41.5,67.5 C 40.3126,69.9754 38.3126,70.9754 35.5,70.5C 37.0326,68.7549 39.0326,67.7549 41.5,67.5 Z"/></g>
<g><path style="opacity:1" fill="#aeb9c2" d="M -0.5,62.5 C -0.5,62.1667 -0.5,61.8333 -0.5,61.5C -0.166667,61.5 0.166667,61.5 0.5,61.5C 3.1873,61.3359 5.85397,61.5026 8.5,62C 9.33663,63.0113 9.66997,64.1779 9.5,65.5C 10.1495,67.4352 10.4828,69.4352 10.5,71.5C 12.7354,71.2053 14.7354,71.5386 16.5,72.5C 13.8333,72.5 11.1667,72.5 8.5,72.5C 8.66463,69.4816 8.49796,66.4816 8,63.5C 5.28086,62.5562 2.44753,62.2229 -0.5,62.5 Z"/></g>
<g><path style="opacity:1" fill="#783e3b" d="M 78.5,69.5 C 80.1667,70.8333 81.8333,72.1667 83.5,73.5C 83.1667,73.5 82.8333,73.5 82.5,73.5C 79.1108,71.78 75.4441,71.1134 71.5,71.5C 71.5,70.1667 71.5,68.8333 71.5,67.5C 73.5273,67.3379 75.5273,67.5045 77.5,68C 78.056,68.3826 78.3893,68.8826 78.5,69.5 Z"/></g>
<g><path style="opacity:1" fill="#959998" d="M 116.5,62.5 C 116.584,65.3274 117.25,67.994 118.5,70.5C 117.596,71.209 117.263,72.209 117.5,73.5C 116.852,71.5018 116.019,69.5018 115,67.5C 114.51,68.7932 114.343,70.1266 114.5,71.5C 114.5,72.1667 114.167,72.5 113.5,72.5C 113.335,69.4816 113.502,66.4816 114,63.5C 114.671,62.7476 115.504,62.4142 116.5,62.5 Z"/></g>
<g><path style="opacity:1" fill="#1c2228" d="M 149.5,63.5 C 149.5,67.1667 149.5,70.8333 149.5,74.5C 148.844,75.2778 148.011,75.9444 147,76.5C 139.818,76.5566 132.985,75.89 126.5,74.5C 125.5,74.8333 124.833,75.5 124.5,76.5C 125.246,77.7362 125.579,79.0695 125.5,80.5C 121.693,78.2253 119.359,74.8919 118.5,70.5C 117.25,67.994 116.584,65.3274 116.5,62.5C 117.989,60.3549 118.989,58.0215 119.5,55.5C 119.833,55.5 120.167,55.5 120.5,55.5C 122.205,54.4647 123.872,54.4647 125.5,55.5C 126.318,58.1071 126.818,60.7737 127,63.5C 127.49,62.2068 127.657,60.8734 127.5,59.5C 135.305,58.7529 142.638,60.0862 149.5,63.5 Z"/></g>
<g><path style="opacity:1" fill="#737371" d="M 61.5,73.5 C 62.8333,73.5 64.1667,73.5 65.5,73.5C 65.4424,77.9131 63.4424,79.5798 59.5,78.5C 57.7427,81.4235 55.2427,83.4235 52,84.5C 51.5357,83.9056 51.369,83.2389 51.5,82.5C 52.267,76.7361 55.6003,73.7361 61.5,73.5 Z"/></g>
<g><path style="opacity:1" fill="#98694e" d="M 84.5,67.5 C 85.8221,67.33 86.9887,67.6634 88,68.5C 88.8333,70.5 89.6667,72.5 90.5,74.5C 90.974,71.7833 91.974,69.4499 93.5,67.5C 95.0109,68.5025 96.6776,69.1692 98.5,69.5C 97.8333,70.1667 97.1667,70.8333 96.5,71.5C 95.8501,71.1961 95.1835,70.8627 94.5,70.5C 93.9427,73.9832 91.9427,75.6499 88.5,75.5C 88.7224,71.9441 87.3891,69.2774 84.5,67.5 Z"/></g>
<g><path style="opacity:1" fill="#9b8b89" d="M 34.5,66.5 C 36.6618,67.4171 38.9952,67.4171 41.5,66.5C 41.5,66.8333 41.5,67.1667 41.5,67.5C 39.0326,67.7549 37.0326,68.7549 35.5,70.5C 31.1667,72.8333 27.8333,76.1667 25.5,80.5C 24.8333,80.5 24.5,80.8333 24.5,81.5C 22.0369,79.8881 20.0369,80.3881 18.5,83C 14.1794,83.499 9.84611,83.6657 5.5,83.5C 3.5,83.5 1.5,83.5 -0.5,83.5C -0.5,83.1667 -0.5,82.8333 -0.5,82.5C 5.52296,82.498 11.523,82.1646 17.5,81.5C 17.81,78.2869 17.4767,75.2869 16.5,72.5C 14.7354,71.5386 12.7354,71.2053 10.5,71.5C 10.4828,69.4352 10.1495,67.4352 9.5,65.5C 11.1379,64.8411 12.8045,64.1744 14.5,63.5C 20.8952,66.1336 27.5619,67.1336 34.5,66.5 Z"/></g>
<g><path style="opacity:1" fill="#b2685e" d="M 71.5,71.5 C 75.4441,71.1134 79.1108,71.78 82.5,73.5C 82.1788,75.0481 81.1788,75.7148 79.5,75.5C 78.8333,75.5 78.1667,75.5 77.5,75.5C 76.8333,75.5 76.1667,75.5 75.5,75.5C 74.4324,74.5655 73.099,74.2322 71.5,74.5C 71.5,73.5 71.5,72.5 71.5,71.5 Z"/></g>
<g><path style="opacity:1" fill="#453e3c" d="M 35.5,70.5 C 32.5,74.1667 29.1667,77.5 25.5,80.5C 27.8333,76.1667 31.1667,72.8333 35.5,70.5 Z"/></g>
<g><path style="opacity:1" fill="#68717d" d="M -0.5,68.5 C 1.08527,69.4737 2.08527,70.9737 2.5,73C 3.9007,73.4101 5.23403,73.9101 6.5,74.5C 6.58577,75.4959 6.25244,76.3292 5.5,77C 3.5273,77.4955 1.5273,77.6621 -0.5,77.5C -0.5,74.5 -0.5,71.5 -0.5,68.5 Z"/></g>
<g><path style="opacity:1" fill="#b2b2ac" d="M 59.5,78.5 C 53.3591,79.6551 53.3591,78.4884 59.5,75C 61.1667,74.3333 62.8333,74.3333 64.5,75C 62.7669,76.1889 61.1002,77.3556 59.5,78.5 Z"/></g>
<g><path style="opacity:1" fill="#46312b" d="M 79.5,65.5 C 79.7678,67.099 79.4345,68.4324 78.5,69.5C 78.3893,68.8826 78.056,68.3826 77.5,68C 75.5273,67.5045 73.5273,67.3379 71.5,67.5C 71.5,68.8333 71.5,70.1667 71.5,71.5C 70.5269,73.9479 70.1936,76.6146 70.5,79.5C 69.4611,75.0691 67.4611,71.0691 64.5,67.5C 64.5427,66.5836 64.8761,65.9169 65.5,65.5C 66.4751,69.2654 67.8084,69.2654 69.5,65.5C 70.5307,64.645 71.6974,63.9783 73,63.5C 75.1542,64.2741 77.3208,64.9408 79.5,65.5 Z"/></g>
<g><path style="opacity:1" fill="#422d23" d="M 75.5,75.5 C 76.1667,75.5 76.8333,75.5 77.5,75.5C 77.5228,77.5996 76.8561,79.4329 75.5,81C 75.7432,81.9021 76.0766,82.7354 76.5,83.5C 74.4458,83.6347 72.7791,82.968 71.5,81.5C 71.5,80.8333 71.5,80.1667 71.5,79.5C 73.7583,79.2249 74.0916,78.2249 72.5,76.5C 73.325,75.6143 74.325,75.281 75.5,75.5 Z"/></g>
<g><path style="opacity:1" fill="#6a4c45" d="M 71.5,71.5 C 71.5,72.5 71.5,73.5 71.5,74.5C 73.099,74.2322 74.4324,74.5655 75.5,75.5C 74.325,75.281 73.325,75.6143 72.5,76.5C 74.0916,78.2249 73.7583,79.2249 71.5,79.5C 71.1667,79.5 70.8333,79.5 70.5,79.5C 70.1936,76.6146 70.5269,73.9479 71.5,71.5 Z"/></g>
<g><path style="opacity:1" fill="#6b4b39" d="M 79.5,65.5 C 80.7791,66.968 82.4458,67.6347 84.5,67.5C 87.3891,69.2774 88.7224,71.9441 88.5,75.5C 91.9427,75.6499 93.9427,73.9832 94.5,70.5C 95.1835,70.8627 95.8501,71.1961 96.5,71.5C 95.0234,72.1583 94.0234,73.825 93.5,76.5C 91.9743,77.1047 90.9743,78.2714 90.5,80C 88.8659,80.4935 87.1992,80.6602 85.5,80.5C 85.5,81.5 85.5,82.5 85.5,83.5C 82.5,83.5 79.5,83.5 76.5,83.5C 76.0766,82.7354 75.7432,81.9021 75.5,81C 76.8561,79.4329 77.5228,77.5996 77.5,75.5C 78.1667,75.5 78.8333,75.5 79.5,75.5C 78.8333,77.8333 78.1667,80.1667 77.5,82.5C 82.0669,82.9442 85.0669,80.9442 86.5,76.5C 85.8118,75.1451 84.8118,74.1451 83.5,73.5C 81.8333,72.1667 80.1667,70.8333 78.5,69.5C 79.4345,68.4324 79.7678,67.099 79.5,65.5 Z"/></g>
<g><path style="opacity:1" fill="#67564c" d="M 96.5,71.5 C 98.1136,72.2714 99.6136,73.2714 101,74.5C 101.95,73.9777 102.784,73.311 103.5,72.5C 104.93,75.8087 104.596,78.8087 102.5,81.5C 102.389,80.8826 102.056,80.3826 101.5,80C 99.5273,79.5045 97.5273,79.3379 95.5,79.5C 95.7148,77.8212 95.0481,76.8212 93.5,76.5C 94.0234,73.825 95.0234,72.1583 96.5,71.5 Z"/></g>
<g><path style="opacity:1" fill="#a36b50" d="M 82.5,73.5 C 82.8333,73.5 83.1667,73.5 83.5,73.5C 84.8118,74.1451 85.8118,75.1451 86.5,76.5C 85.0669,80.9442 82.0669,82.9442 77.5,82.5C 78.1667,80.1667 78.8333,77.8333 79.5,75.5C 81.1788,75.7148 82.1788,75.0481 82.5,73.5 Z"/></g>
<g><path style="opacity:1" fill="#dce4ea" d="M 8.5,72.5 C 11.1667,72.5 13.8333,72.5 16.5,72.5C 17.4767,75.2869 17.81,78.2869 17.5,81.5C 11.523,82.1646 5.52296,82.498 -0.5,82.5C -0.5,81.1667 -0.5,79.8333 -0.5,78.5C 2.24919,78.7261 4.91585,78.3928 7.5,77.5C 7.94273,75.713 8.27607,74.0463 8.5,72.5 Z"/></g>
<g><path style="opacity:1" fill="#6c6d79" d="M 117.5,73.5 C 117.5,73.8333 117.5,74.1667 117.5,74.5C 117.5,77.8333 117.5,81.1667 117.5,84.5C 115.071,84.585 113.071,85.585 111.5,87.5C 110.614,86.675 110.281,85.675 110.5,84.5C 110.953,80.9727 112.453,77.9727 115,75.5C 115.765,73.9343 115.598,72.6009 114.5,71.5C 114.343,70.1266 114.51,68.7932 115,67.5C 116.019,69.5018 116.852,71.5018 117.5,73.5 Z"/></g>
<g><path style="opacity:1" fill="#050a10" d="M 149.5,74.5 C 149.5,81.1667 149.5,87.8333 149.5,94.5C 144.089,92.6965 138.756,90.6965 133.5,88.5C 129.948,86.7367 127.281,84.07 125.5,80.5C 125.579,79.0695 125.246,77.7362 124.5,76.5C 124.833,75.5 125.5,74.8333 126.5,74.5C 132.985,75.89 139.818,76.5566 147,76.5C 148.011,75.9444 148.844,75.2778 149.5,74.5 Z"/></g>
<g><path style="opacity:1" fill="#393637" d="M 60.5,61.5 C 60.5,61.1667 60.5,60.8333 60.5,60.5C 61.1667,60.5 61.8333,60.5 62.5,60.5C 64.4077,61.4856 65.4077,63.1523 65.5,65.5C 64.8761,65.9169 64.5427,66.5836 64.5,67.5C 67.4611,71.0691 69.4611,75.0691 70.5,79.5C 70.8333,79.5 71.1667,79.5 71.5,79.5C 71.5,80.1667 71.5,80.8333 71.5,81.5C 71.5,83.5 71.5,85.5 71.5,87.5C 69.3875,88.4396 67.3875,89.6063 65.5,91C 60.0143,96.8959 54.6809,102.729 49.5,108.5C 49.5,108.167 49.5,107.833 49.5,107.5C 49.3359,104.813 49.5026,102.146 50,99.5C 52.9108,94.2489 56.2441,89.2489 60,84.5C 60.6667,83.8333 60.6667,83.1667 60,82.5C 54.962,85.746 50.2954,89.4127 46,93.5C 44.7978,95.553 44.4644,97.553 45,99.5C 41.2951,103.409 37.1284,106.409 32.5,108.5C 32.3713,106.784 32.038,105.117 31.5,103.5C 32.6879,104.684 33.8545,104.684 35,103.5C 36.9028,101.559 37.7361,99.2257 37.5,96.5C 38.1667,96.5 38.8333,96.5 39.5,96.5C 38.5062,100.15 39.3395,100.15 42,96.5C 44,93.8333 46,91.1667 48,88.5C 48.6917,87.5632 48.525,86.8966 47.5,86.5C 48.5,84.8333 49.8333,83.5 51.5,82.5C 51.369,83.2389 51.5357,83.9056 52,84.5C 55.2427,83.4235 57.7427,81.4235 59.5,78.5C 63.4424,79.5798 65.4424,77.9131 65.5,73.5C 64.1667,73.5 62.8333,73.5 61.5,73.5C 61.3076,69.975 61.6409,66.3083 62.5,62.5C 62.0431,61.7025 61.3764,61.3691 60.5,61.5 Z"/></g>
<g><path style="opacity:1" fill="#463a33" d="M 93.5,76.5 C 95.0481,76.8212 95.7148,77.8212 95.5,79.5C 97.5273,79.3379 99.5273,79.5045 101.5,80C 102.056,80.3826 102.389,80.8826 102.5,81.5C 101.833,81.5 101.5,81.8333 101.5,82.5C 100.038,83.4577 98.7051,84.6244 97.5,86C 94.0684,86.1161 91.0684,87.2828 88.5,89.5C 87.6143,90.325 87.281,91.325 87.5,92.5C 89.5,92.1667 91.5,91.8333 93.5,91.5C 90.2329,93.732 86.5662,94.5653 82.5,94C 81.3531,91.9154 82.0197,90.4154 84.5,89.5C 83.7542,88.2638 83.4208,86.9305 83.5,85.5C 80.6122,86.0102 78.2789,85.3435 76.5,83.5C 79.5,83.5 82.5,83.5 85.5,83.5C 85.5,82.5 85.5,81.5 85.5,80.5C 87.1992,80.6602 88.8659,80.4935 90.5,80C 90.9743,78.2714 91.9743,77.1047 93.5,76.5 Z"/></g>
<g><path style="opacity:1" fill="#37322f" d="M 25.5,80.5 C 25.3367,82.8568 25.5034,85.1902 26,87.5C 27.1096,85.9632 28.6096,85.2965 30.5,85.5C 30.6751,88.3289 29.3418,89.9955 26.5,90.5C 27.1272,91.4168 27.4606,92.4168 27.5,93.5C 26.0337,92.653 25.2004,91.3197 25,89.5C 24.5026,86.854 24.3359,84.1873 24.5,81.5C 24.5,80.8333 24.8333,80.5 25.5,80.5 Z"/></g>
<g><path style="opacity:1" fill="#49101a" d="M 46.5,86.5 C 44.1667,89.8333 41.8333,93.1667 39.5,96.5C 38.8333,96.5 38.1667,96.5 37.5,96.5C 37.3354,93.4816 37.502,90.4816 38,87.5C 40.0259,85.9026 42.3592,84.9026 45,84.5C 46.0299,84.8361 46.5299,85.5028 46.5,86.5 Z"/></g>
<g><path style="opacity:1" fill="#725142" d="M 101.5,82.5 C 101.263,83.791 101.596,84.791 102.5,85.5C 101.694,86.7281 100.694,87.7281 99.5,88.5C 97.5,89.5 95.5,90.5 93.5,91.5C 91.5,91.8333 89.5,92.1667 87.5,92.5C 87.281,91.325 87.6143,90.325 88.5,89.5C 91.0684,87.2828 94.0684,86.1161 97.5,86C 98.7051,84.6244 100.038,83.4577 101.5,82.5 Z"/></g>
<g><path style="opacity:1" fill="#716064" d="M 46.5,86.5 C 46.8333,86.5 47.1667,86.5 47.5,86.5C 48.525,86.8966 48.6917,87.5632 48,88.5C 46,91.1667 44,93.8333 42,96.5C 39.3395,100.15 38.5062,100.15 39.5,96.5C 41.8333,93.1667 44.1667,89.8333 46.5,86.5 Z"/></g>
<g><path style="opacity:1" fill="#acb8cc" d="M 118.5,70.5 C 119.359,74.8919 121.693,78.2253 125.5,80.5C 127.281,84.07 129.948,86.7367 133.5,88.5C 139.615,94.2725 144.948,100.606 149.5,107.5C 149.5,108.5 149.5,109.5 149.5,110.5C 144.232,107.728 139.732,104.061 136,99.5C 135.798,97.7444 135.298,96.0777 134.5,94.5C 131.539,92.4361 128.372,90.7695 125,89.5C 122.755,84.288 120.255,79.288 117.5,74.5C 117.5,74.1667 117.5,73.8333 117.5,73.5C 117.263,72.209 117.596,71.209 118.5,70.5 Z"/></g>
<g><path style="opacity:1" fill="#8a756c" d="M -0.5,83.5 C 1.5,83.5 3.5,83.5 5.5,83.5C 5.5,84.8333 5.5,86.1667 5.5,87.5C 6.5,87.5 7.5,87.5 8.5,87.5C 8.5,88.8333 8.5,90.1667 8.5,91.5C 12.4367,91.7935 16.27,91.4601 20,90.5C 20.5,91 21,91.5 21.5,92C 17.4438,92.3512 13.7772,93.6845 10.5,96C 7.18323,96.4983 3.8499,96.665 0.5,96.5C 0.5,95.8333 0.166667,95.5 -0.5,95.5C -0.5,91.5 -0.5,87.5 -0.5,83.5 Z"/></g>
<g><path style="opacity:1" fill="#141d22" d="M 133.5,88.5 C 138.756,90.6965 144.089,92.6965 149.5,94.5C 149.5,98.8333 149.5,103.167 149.5,107.5C 144.948,100.606 139.615,94.2725 133.5,88.5 Z"/></g>
<g><path style="opacity:1" fill="#a0897e" d="M 24.5,81.5 C 24.3359,84.1873 24.5026,86.854 25,89.5C 25.2004,91.3197 26.0337,92.653 27.5,93.5C 29.3774,96.5921 30.7107,99.9255 31.5,103.5C 32.038,105.117 32.3713,106.784 32.5,108.5C 31.596,109.209 31.2627,110.209 31.5,111.5C 27.1304,112.536 24.4637,115.203 23.5,119.5C 21.3364,119.721 19.6697,120.721 18.5,122.5C 17.1736,117.66 16.1736,112.66 15.5,107.5C 14.8182,106.757 14.1515,106.091 13.5,105.5C 12.6515,103.112 11.6515,100.779 10.5,98.5C 8.17057,97.4336 5.67057,97.4336 3,98.5C 1.62439,98.3158 0.791056,97.6491 0.5,96.5C 3.8499,96.665 7.18323,96.4983 10.5,96C 13.7772,93.6845 17.4438,92.3512 21.5,92C 21,91.5 20.5,91 20,90.5C 16.27,91.4601 12.4367,91.7935 8.5,91.5C 8.5,90.1667 8.5,88.8333 8.5,87.5C 7.5,87.5 6.5,87.5 5.5,87.5C 5.5,86.1667 5.5,84.8333 5.5,83.5C 9.84611,83.6657 14.1794,83.499 18.5,83C 20.0369,80.3881 22.0369,79.8881 24.5,81.5 Z"/></g>
<g><path style="opacity:1" fill="#1b191d" d="M 71.5,81.5 C 72.7791,82.968 74.4458,83.6347 76.5,83.5C 78.2789,85.3435 80.6122,86.0102 83.5,85.5C 83.4208,86.9305 83.7542,88.2638 84.5,89.5C 82.0197,90.4154 81.3531,91.9154 82.5,94C 86.5662,94.5653 90.2329,93.732 93.5,91.5C 95.5,90.5 97.5,89.5 99.5,88.5C 100.525,88.8966 100.692,89.5632 100,90.5C 96.0331,92.9677 92.5331,95.9677 89.5,99.5C 85.2309,101.312 82.8975,99.9791 82.5,95.5C 81.325,95.281 80.325,95.6143 79.5,96.5C 80.8049,99.0531 81.8049,101.72 82.5,104.5C 81.2337,108.045 79.2337,111.045 76.5,113.5C 75.8333,114.5 75.1667,115.5 74.5,116.5C 73.236,118.27 71.736,119.937 70,121.5C 69.8782,119.718 70.3782,118.052 71.5,116.5C 74.3659,114.454 76.5325,111.787 78,108.5C 79.4004,106.159 79.9004,103.826 79.5,101.5C 78.6721,100.585 77.6721,99.9186 76.5,99.5C 74.0411,101.984 71.3745,103.984 68.5,105.5C 67.9738,102.192 69.3072,100.026 72.5,99C 70.393,97.7365 69.393,95.9032 69.5,93.5C 75.5436,92.2815 76.2103,90.2815 71.5,87.5C 71.5,85.5 71.5,83.5 71.5,81.5 Z"/></g>
<g><path style="opacity:1" fill="#2b2a2e" d="M 107.5,81.5 C 108.239,81.369 108.906,81.5357 109.5,82C 104.929,85.5555 103.262,90.0555 104.5,95.5C 107.588,94.9315 110.588,94.9315 113.5,95.5C 111.031,97.9481 109.031,100.615 107.5,103.5C 101.442,103.365 97.2757,106.365 95,112.5C 90.9066,116.441 86.0733,118.774 80.5,119.5C 80.646,116.446 79.3126,114.446 76.5,113.5C 79.2337,111.045 81.2337,108.045 82.5,104.5C 81.8049,101.72 80.8049,99.0531 79.5,96.5C 80.325,95.6143 81.325,95.281 82.5,95.5C 82.8975,99.9791 85.2309,101.312 89.5,99.5C 92.5331,95.9677 96.0331,92.9677 100,90.5C 100.692,89.5632 100.525,88.8966 99.5,88.5C 100.694,87.7281 101.694,86.7281 102.5,85.5C 104.389,84.396 106.055,83.0627 107.5,81.5 Z"/></g>
<g><path style="opacity:1" fill="#474548" d="M 114.5,71.5 C 115.598,72.6009 115.765,73.9343 115,75.5C 112.453,77.9727 110.953,80.9727 110.5,84.5C 108.654,86.0301 107.654,88.0301 107.5,90.5C 110.577,90.273 113.41,89.273 116,87.5C 120.543,91.7499 121.543,96.7499 119,102.5C 116.638,104.053 115.138,106.22 114.5,109C 116.655,109.116 118.655,108.783 120.5,108C 119.012,111.802 117.679,115.636 116.5,119.5C 118.199,119.34 119.866,119.506 121.5,120C 120.934,120.995 120.267,121.828 119.5,122.5C 116.26,122.192 113.426,123.525 111,126.5C 110.164,123.273 111.33,120.44 114.5,118C 114,117.833 113.5,117.667 113,117.5C 109.756,119.711 106.923,122.377 104.5,125.5C 103.394,123.716 103.394,121.882 104.5,120C 106.813,116.387 109.146,112.72 111.5,109C 111.682,106.696 111.016,106.196 109.5,107.5C 107.679,108.728 106.679,110.394 106.5,112.5C 105.5,112.5 104.5,112.5 103.5,112.5C 104.689,109.518 106.023,106.518 107.5,103.5C 109.031,100.615 111.031,97.9481 113.5,95.5C 110.588,94.9315 107.588,94.9315 104.5,95.5C 103.262,90.0555 104.929,85.5555 109.5,82C 108.906,81.5357 108.239,81.369 107.5,81.5C 110.255,78.9873 112.255,75.9873 113.5,72.5C 114.167,72.5 114.5,72.1667 114.5,71.5 Z"/></g>
<g><path style="opacity:1" fill="#c6ccd1" d="M -0.5,95.5 C 0.166667,95.5 0.5,95.8333 0.5,96.5C 0.791056,97.6491 1.62439,98.3158 3,98.5C 5.67057,97.4336 8.17057,97.4336 10.5,98.5C 6.90093,99.3439 3.23426,99.6773 -0.5,99.5C -0.5,98.1667 -0.5,96.8333 -0.5,95.5 Z"/></g>
<g><path style="opacity:1" fill="#dceaf7" d="M 10.5,98.5 C 11.6515,100.779 12.6515,103.112 13.5,105.5C 14.2071,108.786 14.5405,112.119 14.5,115.5C 9.42955,115.685 4.42955,116.352 -0.5,117.5C -0.5,111.5 -0.5,105.5 -0.5,99.5C 3.23426,99.6773 6.90093,99.3439 10.5,98.5 Z"/></g>
<g><path style="opacity:1" fill="#5b5b60" d="M 110.5,84.5 C 110.281,85.675 110.614,86.675 111.5,87.5C 113.071,85.585 115.071,84.585 117.5,84.5C 121.086,90.6708 124.419,97.0041 127.5,103.5C 126.883,103.389 126.383,103.056 126,102.5C 125.849,105.119 125.015,107.453 123.5,109.5C 125.019,112.064 126.519,112.064 128,109.5C 128.333,109.833 128.667,110.167 129,110.5C 131.299,117.865 133.132,125.198 134.5,132.5C 135.167,132.5 135.833,132.5 136.5,132.5C 134.889,134.095 132.889,135.261 130.5,136C 131.907,138.785 131.574,141.285 129.5,143.5C 129.5,141.833 129.5,140.167 129.5,138.5C 127.5,138.5 125.5,138.5 123.5,138.5C 124.112,134.837 124.279,131.17 124,127.5C 123.586,127.957 123.086,128.291 122.5,128.5C 121.048,127.06 120.048,125.394 119.5,123.5C 119.5,123.167 119.5,122.833 119.5,122.5C 120.267,121.828 120.934,120.995 121.5,120C 119.866,119.506 118.199,119.34 116.5,119.5C 117.679,115.636 119.012,111.802 120.5,108C 118.655,108.783 116.655,109.116 114.5,109C 115.138,106.22 116.638,104.053 119,102.5C 121.543,96.7499 120.543,91.7499 116,87.5C 113.41,89.273 110.577,90.273 107.5,90.5C 107.654,88.0301 108.654,86.0301 110.5,84.5 Z"/></g>
<g><path style="opacity:1" fill="#2a272b" d="M 49.5,107.5 C 48.7321,106.737 48.2321,105.737 48,104.5C 47.6892,106.556 47.1892,108.556 46.5,110.5C 42.4182,112.644 39.7516,115.978 38.5,120.5C 41.099,121.135 43.4324,122.135 45.5,123.5C 47.6943,124.766 50.0276,124.766 52.5,123.5C 53.3333,125.5 54.1667,127.5 55,129.5C 55.6667,127.5 56.3333,125.5 57,123.5C 59.2794,121.711 61.2794,119.711 63,117.5C 63.3333,118.167 63.6667,118.833 64,119.5C 65,118.167 66,118.167 67,119.5C 66.7374,118.049 66.9041,116.716 67.5,115.5C 68.4519,117.045 68.7852,118.712 68.5,120.5C 65.6787,120.316 64.0121,121.649 63.5,124.5C 61.9547,125.452 60.288,125.785 58.5,125.5C 59.3538,128.459 59.8538,131.459 60,134.5C 57.1428,139.555 54.3095,144.555 51.5,149.5C 48.8333,149.5 46.1667,149.5 43.5,149.5C 43.5,146.167 43.5,142.833 43.5,139.5C 43.5,138.5 43.5,137.5 43.5,136.5C 44.2216,136.918 44.7216,137.584 45,138.5C 46.0303,136.153 46.697,133.819 47,131.5C 43.8501,129.839 42.3501,130.839 42.5,134.5C 41.8333,133.833 41.1667,133.167 40.5,132.5C 40.2148,130.712 40.5481,129.045 41.5,127.5C 42.7362,128.246 44.0695,128.579 45.5,128.5C 45.0367,125.745 43.3701,124.078 40.5,123.5C 38.6675,122.752 37.0009,121.752 35.5,120.5C 35.205,118.577 34.3717,116.91 33,115.5C 32.5034,113.19 32.3367,110.857 32.5,108.5C 37.1284,106.409 41.2951,103.409 45,99.5C 44.4644,97.553 44.7978,95.553 46,93.5C 50.2954,89.4127 54.962,85.746 60,82.5C 60.6667,83.1667 60.6667,83.8333 60,84.5C 56.2441,89.2489 52.9108,94.2489 50,99.5C 49.5026,102.146 49.3359,104.813 49.5,107.5 Z"/></g>
<g><path style="opacity:1" fill="#313135" d="M 107.5,103.5 C 106.023,106.518 104.689,109.518 103.5,112.5C 104.5,112.5 105.5,112.5 106.5,112.5C 106.679,110.394 107.679,108.728 109.5,107.5C 111.016,106.196 111.682,106.696 111.5,109C 109.146,112.72 106.813,116.387 104.5,120C 103.394,121.882 103.394,123.716 104.5,125.5C 106.923,122.377 109.756,119.711 113,117.5C 113.5,117.667 114,117.833 114.5,118C 111.33,120.44 110.164,123.273 111,126.5C 113.426,123.525 116.26,122.192 119.5,122.5C 119.5,122.833 119.5,123.167 119.5,123.5C 117.744,124.552 117.077,126.219 117.5,128.5C 118.552,128.351 119.552,128.517 120.5,129C 117.548,131.943 114.215,134.277 110.5,136C 117.989,137.22 118.656,139.22 112.5,142C 114.847,142.334 117.181,142.167 119.5,141.5C 119.607,143.903 118.607,145.736 116.5,147C 117.536,148.617 118.703,148.784 120,147.5C 120.464,148.094 120.631,148.761 120.5,149.5C 112.833,149.5 105.167,149.5 97.5,149.5C 98.8547,146.203 98.3547,145.87 96,148.5C 95.8333,148.167 95.6667,147.833 95.5,147.5C 97.4548,145.042 99.6215,142.709 102,140.5C 102.281,138.095 101.615,138.095 100,140.5C 99.8333,140 99.6667,139.5 99.5,139C 101.423,135.076 103.756,131.409 106.5,128C 106.167,127.833 105.833,127.667 105.5,127.5C 103.614,128.93 101.947,130.597 100.5,132.5C 98.0729,138.351 95.4062,144.018 92.5,149.5C 80.8333,149.5 69.1667,149.5 57.5,149.5C 58.8397,145.651 60.8397,142.151 63.5,139C 63.1667,138.667 62.8333,138.333 62.5,138C 64.6667,137.167 66.1667,135.667 67,133.5C 68.3431,134.214 69.6764,133.88 71,132.5C 71.4828,133.448 71.6495,134.448 71.5,135.5C 72.8333,135.5 74.1667,135.5 75.5,135.5C 76.0916,132.873 76.4249,130.206 76.5,127.5C 77.5,127.5 78.5,127.5 79.5,127.5C 79.5,126.167 79.5,124.833 79.5,123.5C 77.1432,123.663 74.8098,123.497 72.5,123C 75.302,121.269 75.9687,119.102 74.5,116.5C 75.1667,115.5 75.8333,114.5 76.5,113.5C 79.3126,114.446 80.646,116.446 80.5,119.5C 86.0733,118.774 90.9066,116.441 95,112.5C 97.2757,106.365 101.442,103.365 107.5,103.5 Z"/></g>
<g><path style="opacity:1" fill="#2d2a2f" d="M 71.5,87.5 C 76.2103,90.2815 75.5436,92.2815 69.5,93.5C 69.393,95.9032 70.393,97.7365 72.5,99C 69.3072,100.026 67.9738,102.192 68.5,105.5C 71.3745,103.984 74.0411,101.984 76.5,99.5C 77.6721,99.9186 78.6721,100.585 79.5,101.5C 79.9004,103.826 79.4004,106.159 78,108.5C 76.5325,111.787 74.3659,114.454 71.5,116.5C 70.4022,114.358 71.2355,113.025 74,112.5C 74.4828,111.552 74.6495,110.552 74.5,109.5C 72.8762,109.36 71.7096,110.027 71,111.5C 70.51,110.207 70.3433,108.873 70.5,107.5C 67.7277,107.595 65.7277,108.929 64.5,111.5C 56.133,115.623 55.4664,114.457 62.5,108C 62,107.833 61.5,107.667 61,107.5C 56.8083,110.512 52.3083,112.845 47.5,114.5C 48.1667,112.5 48.8333,110.5 49.5,108.5C 54.6809,102.729 60.0143,96.8959 65.5,91C 67.3875,89.6063 69.3875,88.4396 71.5,87.5 Z"/></g>
<g><path style="opacity:1" fill="#19181d" d="M 49.5,107.5 C 49.5,107.833 49.5,108.167 49.5,108.5C 48.8333,110.5 48.1667,112.5 47.5,114.5C 46.5392,117.426 45.8726,120.426 45.5,123.5C 43.4324,122.135 41.099,121.135 38.5,120.5C 39.7516,115.978 42.4182,112.644 46.5,110.5C 47.1892,108.556 47.6892,106.556 48,104.5C 48.2321,105.737 48.7321,106.737 49.5,107.5 Z"/></g>
<g><path style="opacity:1" fill="#94827a" d="M 13.5,105.5 C 14.1515,106.091 14.8182,106.757 15.5,107.5C 16.1736,112.66 17.1736,117.66 18.5,122.5C 18.4077,124.848 17.4077,126.514 15.5,127.5C 13.5066,129.467 11.5066,131.467 9.5,133.5C 5.92804,131.063 4.92804,132.063 6.5,136.5C 4.15677,137.275 1.82343,137.942 -0.5,138.5C -0.5,131.5 -0.5,124.5 -0.5,117.5C 4.42955,116.352 9.42955,115.685 14.5,115.5C 14.5405,112.119 14.2071,108.786 13.5,105.5 Z"/></g>
<g><path style="opacity:1" fill="#343237" d="M 71.5,116.5 C 70.3782,118.052 69.8782,119.718 70,121.5C 71.736,119.937 73.236,118.27 74.5,116.5C 75.9687,119.102 75.302,121.269 72.5,123C 74.8098,123.497 77.1432,123.663 79.5,123.5C 79.5,124.833 79.5,126.167 79.5,127.5C 78.5,127.5 77.5,127.5 76.5,127.5C 76.4249,130.206 76.0916,132.873 75.5,135.5C 74.1667,135.5 72.8333,135.5 71.5,135.5C 71.6495,134.448 71.4828,133.448 71,132.5C 69.6764,133.88 68.3431,134.214 67,133.5C 66.1667,135.667 64.6667,137.167 62.5,138C 62.8333,138.333 63.1667,138.667 63.5,139C 60.8397,142.151 58.8397,145.651 57.5,149.5C 55.5,149.5 53.5,149.5 51.5,149.5C 54.3095,144.555 57.1428,139.555 60,134.5C 59.8538,131.459 59.3538,128.459 58.5,125.5C 60.288,125.785 61.9547,125.452 63.5,124.5C 64.0121,121.649 65.6787,120.316 68.5,120.5C 68.7852,118.712 68.4519,117.045 67.5,115.5C 66.9041,116.716 66.7374,118.049 67,119.5C 66,118.167 65,118.167 64,119.5C 63.6667,118.833 63.3333,118.167 63,117.5C 61.2794,119.711 59.2794,121.711 57,123.5C 56.3333,125.5 55.6667,127.5 55,129.5C 54.1667,127.5 53.3333,125.5 52.5,123.5C 50.0276,124.766 47.6943,124.766 45.5,123.5C 45.8726,120.426 46.5392,117.426 47.5,114.5C 52.3083,112.845 56.8083,110.512 61,107.5C 61.5,107.667 62,107.833 62.5,108C 55.4664,114.457 56.133,115.623 64.5,111.5C 65.7277,108.929 67.7277,107.595 70.5,107.5C 70.3433,108.873 70.51,110.207 71,111.5C 71.7096,110.027 72.8762,109.36 74.5,109.5C 74.6495,110.552 74.4828,111.552 74,112.5C 71.2355,113.025 70.4022,114.358 71.5,116.5 Z"/></g>
<g><path style="opacity:1" fill="#71747e" d="M 127.5,103.5 C 129.406,106.983 131.072,110.65 132.5,114.5C 134.065,120.38 134.732,126.38 134.5,132.5C 133.132,125.198 131.299,117.865 129,110.5C 128.667,110.167 128.333,109.833 128,109.5C 126.519,112.064 125.019,112.064 123.5,109.5C 125.015,107.453 125.849,105.119 126,102.5C 126.383,103.056 126.883,103.389 127.5,103.5 Z"/></g>
<g><path style="opacity:1" fill="#8b93a3" d="M 132.5,114.5 C 135.619,116.051 138.952,117.051 142.5,117.5C 142.323,119.981 143.323,121.814 145.5,123C 144.081,125.398 142.747,127.898 141.5,130.5C 141.977,131.478 142.643,132.311 143.5,133C 141.632,133.004 139.798,132.504 138,131.5C 137.235,131.57 136.735,131.903 136.5,132.5C 135.833,132.5 135.167,132.5 134.5,132.5C 134.732,126.38 134.065,120.38 132.5,114.5 Z"/></g>
<g><path style="opacity:1" fill="#97a1b5" d="M 117.5,74.5 C 120.255,79.288 122.755,84.288 125,89.5C 128.372,90.7695 131.539,92.4361 134.5,94.5C 135.298,96.0777 135.798,97.7444 136,99.5C 139.732,104.061 144.232,107.728 149.5,110.5C 149.5,119.167 149.5,127.833 149.5,136.5C 146.238,135.248 142.905,134.248 139.5,133.5C 138.609,132.89 137.609,132.557 136.5,132.5C 136.735,131.903 137.235,131.57 138,131.5C 139.798,132.504 141.632,133.004 143.5,133C 142.643,132.311 141.977,131.478 141.5,130.5C 142.747,127.898 144.081,125.398 145.5,123C 143.323,121.814 142.323,119.981 142.5,117.5C 138.952,117.051 135.619,116.051 132.5,114.5C 131.072,110.65 129.406,106.983 127.5,103.5C 124.419,97.0041 121.086,90.6708 117.5,84.5C 117.5,81.1667 117.5,77.8333 117.5,74.5 Z"/></g>
<g><path style="opacity:1" fill="#9b6b4b" d="M 32.5,108.5 C 32.3367,110.857 32.5034,113.19 33,115.5C 34.3717,116.91 35.205,118.577 35.5,120.5C 37.2881,123.228 37.7881,126.228 37,129.5C 35,132.167 33,134.833 31,137.5C 25.4407,139.881 21.9407,143.881 20.5,149.5C 19.8333,149.5 19.1667,149.5 18.5,149.5C 19.012,144.475 21.512,140.809 26,138.5C 27.9407,134.952 29.6074,131.286 31,127.5C 32.586,126.624 34.086,125.624 35.5,124.5C 33.7329,120.205 32.3995,115.872 31.5,111.5C 31.2627,110.209 31.596,109.209 32.5,108.5 Z"/></g>
<g><path style="opacity:1" fill="#593f32" d="M 40.5,123.5 C 43.3701,124.078 45.0367,125.745 45.5,128.5C 44.0695,128.579 42.7362,128.246 41.5,127.5C 40.5481,129.045 40.2148,130.712 40.5,132.5C 39.8333,132.833 39.1667,133.167 38.5,133.5C 38.6997,130.614 39.6997,128.114 41.5,126C 40.7476,125.329 40.4142,124.496 40.5,123.5 Z"/></g>
<g><path style="opacity:1" fill="#737587" d="M 43.5,136.5 C 43.1667,135.833 42.8333,135.167 42.5,134.5C 42.3501,130.839 43.8501,129.839 47,131.5C 46.697,133.819 46.0303,136.153 45,138.5C 44.7216,137.584 44.2216,136.918 43.5,136.5 Z"/></g>
<g><path style="opacity:1" fill="#414146" d="M 119.5,123.5 C 120.048,125.394 121.048,127.06 122.5,128.5C 123.086,128.291 123.586,127.957 124,127.5C 124.279,131.17 124.112,134.837 123.5,138.5C 125.5,138.5 127.5,138.5 129.5,138.5C 129.5,140.167 129.5,141.833 129.5,143.5C 127.5,145.5 125.5,147.5 123.5,149.5C 122.5,149.5 121.5,149.5 120.5,149.5C 120.631,148.761 120.464,148.094 120,147.5C 118.703,148.784 117.536,148.617 116.5,147C 118.607,145.736 119.607,143.903 119.5,141.5C 117.181,142.167 114.847,142.334 112.5,142C 118.656,139.22 117.989,137.22 110.5,136C 114.215,134.277 117.548,131.943 120.5,129C 119.552,128.517 118.552,128.351 117.5,128.5C 117.077,126.219 117.744,124.552 119.5,123.5 Z"/></g>
<g><path style="opacity:1" fill="#666b75" d="M 136.5,132.5 C 137.609,132.557 138.609,132.89 139.5,133.5C 136.654,136.434 136.987,138.934 140.5,141C 138.405,143.665 138.072,146.498 139.5,149.5C 134.167,149.5 128.833,149.5 123.5,149.5C 125.5,147.5 127.5,145.5 129.5,143.5C 131.574,141.285 131.907,138.785 130.5,136C 132.889,135.261 134.889,134.095 136.5,132.5 Z"/></g>
<g><path style="opacity:1" fill="#887163" d="M 15.5,127.5 C 12.2721,133.564 8.43872,139.231 4,144.5C 2.99136,146.025 2.49136,147.692 2.5,149.5C 1.5,149.5 0.5,149.5 -0.5,149.5C -0.5,145.833 -0.5,142.167 -0.5,138.5C 1.82343,137.942 4.15677,137.275 6.5,136.5C 4.92804,132.063 5.92804,131.063 9.5,133.5C 11.5066,131.467 13.5066,129.467 15.5,127.5 Z"/></g>
<g><path style="opacity:1" fill="#563d2d" d="M 38.5,134.5 C 34.0563,139.219 29.0563,143.219 23.5,146.5C 23.9867,145.527 24.4867,144.527 25,143.5C 28.2309,141.601 31.0642,139.268 33.5,136.5C 34.8498,135.05 36.5165,134.383 38.5,134.5 Z"/></g>
<g><path style="opacity:1" fill="#1c1d22" d="M 97.5,149.5 C 95.8333,149.5 94.1667,149.5 92.5,149.5C 95.4062,144.018 98.0729,138.351 100.5,132.5C 101.947,130.597 103.614,128.93 105.5,127.5C 105.833,127.667 106.167,127.833 106.5,128C 103.756,131.409 101.423,135.076 99.5,139C 99.6667,139.5 99.8333,140 100,140.5C 101.615,138.095 102.281,138.095 102,140.5C 99.6215,142.709 97.4548,145.042 95.5,147.5C 95.6667,147.833 95.8333,148.167 96,148.5C 98.3547,145.87 98.8547,146.203 97.5,149.5 Z"/></g>
<g><path style="opacity:1" fill="#b67b56" d="M 31.5,111.5 C 32.3995,115.872 33.7329,120.205 35.5,124.5C 34.086,125.624 32.586,126.624 31,127.5C 29.6074,131.286 27.9407,134.952 26,138.5C 21.512,140.809 19.012,144.475 18.5,149.5C 13.1667,149.5 7.83333,149.5 2.5,149.5C 2.49136,147.692 2.99136,146.025 4,144.5C 8.43872,139.231 12.2721,133.564 15.5,127.5C 17.4077,126.514 18.4077,124.848 18.5,122.5C 19.6697,120.721 21.3364,119.721 23.5,119.5C 24.4637,115.203 27.1304,112.536 31.5,111.5 Z"/></g>
<g><path style="opacity:1" fill="#7e583f" d="M 35.5,120.5 C 37.0009,121.752 38.6675,122.752 40.5,123.5C 40.4142,124.496 40.7476,125.329 41.5,126C 39.6997,128.114 38.6997,130.614 38.5,133.5C 38.5,133.833 38.5,134.167 38.5,134.5C 36.5165,134.383 34.8498,135.05 33.5,136.5C 31.0642,139.268 28.2309,141.601 25,143.5C 24.4867,144.527 23.9867,145.527 23.5,146.5C 22.4489,147.222 21.7822,148.222 21.5,149.5C 21.1667,149.5 20.8333,149.5 20.5,149.5C 21.9407,143.881 25.4407,139.881 31,137.5C 33,134.833 35,132.167 37,129.5C 37.7881,126.228 37.2881,123.228 35.5,120.5 Z"/></g>
<g><path style="opacity:1" fill="#423129" d="M 43.5,139.5 C 43.5,142.833 43.5,146.167 43.5,149.5C 42.8333,149.5 42.1667,149.5 41.5,149.5C 41.4938,147.156 40.3271,145.822 38,145.5C 35.6721,145.999 34.1721,147.332 33.5,149.5C 31.8333,149.5 30.1667,149.5 28.5,149.5C 30.385,147.947 31.385,145.947 31.5,143.5C 35.3009,142.526 38.8009,140.859 42,138.5C 42.3826,139.056 42.8826,139.389 43.5,139.5 Z"/></g>
<g><path style="opacity:1" fill="#838a9a" d="M 139.5,133.5 C 142.905,134.248 146.238,135.248 149.5,136.5C 149.5,140.833 149.5,145.167 149.5,149.5C 146.167,149.5 142.833,149.5 139.5,149.5C 138.072,146.498 138.405,143.665 140.5,141C 136.987,138.934 136.654,136.434 139.5,133.5 Z"/></g>
<g><path style="opacity:1" fill="#1d120e" d="M 40.5,132.5 C 41.1667,133.167 41.8333,133.833 42.5,134.5C 42.8333,135.167 43.1667,135.833 43.5,136.5C 43.5,137.5 43.5,138.5 43.5,139.5C 42.8826,139.389 42.3826,139.056 42,138.5C 38.8009,140.859 35.3009,142.526 31.5,143.5C 31.385,145.947 30.385,147.947 28.5,149.5C 26.1667,149.5 23.8333,149.5 21.5,149.5C 21.7822,148.222 22.4489,147.222 23.5,146.5C 29.0563,143.219 34.0563,139.219 38.5,134.5C 38.5,134.167 38.5,133.833 38.5,133.5C 39.1667,133.167 39.8333,132.833 40.5,132.5 Z"/></g>
<g><path style="opacity:1" fill="#69574b" d="M 41.5,149.5 C 38.8333,149.5 36.1667,149.5 33.5,149.5C 34.1721,147.332 35.6721,145.999 38,145.5C 40.3271,145.822 41.4938,147.156 41.5,149.5 Z"/></g>
</svg>
