<?xml version="1.0" encoding="UTF-8"?>
<!DOCTYPE svg PUBLIC "-//W3C//DTD SVG 1.1//EN" "http://www.w3.org/Graphics/SVG/1.1/DTD/svg11.dtd">
<svg xmlns="http://www.w3.org/2000/svg" version="1.1" width="453px" height="202px" style="shape-rendering:geometricPrecision; text-rendering:geometricPrecision; image-rendering:optimizeQuality; fill-rule:evenodd; clip-rule:evenodd" xmlns:xlink="http://www.w3.org/1999/xlink">
<g><path style="opacity:1" fill="#fcfcfc" d="M -0.5,-0.5 C 150.5,-0.5 301.5,-0.5 452.5,-0.5C 452.5,66.8333 452.5,134.167 452.5,201.5C 301.5,201.5 150.5,201.5 -0.5,201.5C -0.5,134.167 -0.5,66.8333 -0.5,-0.5 Z"/></g>
<g><path style="opacity:1" fill="#1a3f8a" d="M 80.5,47.5 C 80.6664,55.84 80.4997,64.1733 80,72.5C 77.6303,75.0386 75.1303,77.3719 72.5,79.5C 72.6092,74.7089 70.2759,71.2089 65.5,69C 63.8333,68.3333 62.1667,68.3333 60.5,69C 58.8863,71.1267 56.8863,72.6267 54.5,73.5C 62.8333,64.5 71.5,55.8333 80.5,47.5 Z"/></g>
<g><path style="opacity:1" fill="#15459e" d="M 77.5,51.5 C 78.8197,54.428 79.4864,57.7614 79.5,61.5C 79.3333,64.8333 79.1667,68.1667 79,71.5C 77.2302,72.2764 75.3969,72.1097 73.5,71C 74.731,69.8173 74.731,68.6507 73.5,67.5C 71.2895,66.8772 69.2895,65.8772 67.5,64.5C 68.0983,63.2054 68.5983,61.8721 69,60.5C 72.0379,57.6306 74.8712,54.6306 77.5,51.5 Z"/></g>
<g><path style="opacity:1" fill="#1f4693" d="M 87.5,47.5 C 89.8333,49.1667 91.8333,51.1667 93.5,53.5C 92.5206,56.6248 92.1872,59.9581 92.5,63.5C 91.5,63.5 90.5,63.5 89.5,63.5C 89.6653,59.8183 89.4986,56.1516 89,52.5C 88.3333,58.1667 88.3333,63.8333 89,69.5C 90.7342,71.4506 92.9009,72.4506 95.5,72.5C 95.6672,69.0429 96.6672,68.7096 98.5,71.5C 97.8333,72.1667 97.1667,72.8333 96.5,73.5C 97.8333,74.5 99.1667,75.5 100.5,76.5C 99.9781,77.6074 99.6448,78.7741 99.5,80C 100.378,81.8001 101.045,83.6334 101.5,85.5C 96.8688,81.3701 92.3688,77.0367 88,72.5C 87.5003,64.1733 87.3336,55.84 87.5,47.5 Z"/></g>
<g><path style="opacity:1" fill="#acafb3" d="M 168.5,70.5 C 183.324,69.5039 198.324,69.1706 213.5,69.5C 213.815,73.3714 213.482,77.0381 212.5,80.5C 212.5,80.1667 212.5,79.8333 212.5,79.5C 212.5,76.5 212.5,73.5 212.5,70.5C 197.833,70.5 183.167,70.5 168.5,70.5 Z"/></g>
<g><path style="opacity:1" fill="#252a3a" d="M 243.5,128.5 C 243.83,112.325 243.496,96.3246 242.5,80.5C 242.5,80.1667 242.5,79.8333 242.5,79.5C 236.355,78.5098 230.022,78.1765 223.5,78.5C 223.5,76.1667 223.5,73.8333 223.5,71.5C 240.167,71.5 256.833,71.5 273.5,71.5C 273.5,73.8333 273.5,76.1667 273.5,78.5C 266.578,78.1878 259.744,78.5212 253,79.5C 252.5,95.8299 252.333,112.163 252.5,128.5C 249.5,128.5 246.5,128.5 243.5,128.5 Z"/></g>
<g><path style="opacity:1" fill="#16449f" d="M 93.5,53.5 C 101.833,61.1667 109.833,69.1667 117.5,77.5C 117.586,78.4959 117.252,79.3292 116.5,80C 119.349,83.0162 122.349,85.8496 125.5,88.5C 127.455,94.2169 125.622,96.2169 120,94.5C 119.517,93.552 119.351,92.552 119.5,91.5C 118.127,91.3433 116.793,91.51 115.5,92C 116.337,93.0113 116.67,94.1779 116.5,95.5C 117.5,95.5 118.5,95.5 119.5,95.5C 119.778,97.3464 119.111,98.6798 117.5,99.5C 115.867,97.497 113.867,96.1637 111.5,95.5C 107.833,92.5 104.5,89.1667 101.5,85.5C 101.045,83.6334 100.378,81.8001 99.5,80C 99.6448,78.7741 99.9781,77.6074 100.5,76.5C 99.1667,75.5 97.8333,74.5 96.5,73.5C 97.1667,72.8333 97.8333,72.1667 98.5,71.5C 96.6672,68.7096 95.6672,69.0429 95.5,72.5C 92.9009,72.4506 90.7342,71.4506 89,69.5C 88.3333,63.8333 88.3333,58.1667 89,52.5C 89.4986,56.1516 89.6653,59.8183 89.5,63.5C 90.5,63.5 91.5,63.5 92.5,63.5C 92.1872,59.9581 92.5206,56.6248 93.5,53.5 Z"/></g>
<g><path style="opacity:1" fill="#f4f8f8" d="M 80.5,47.5 C 81.4649,52.544 82.7982,57.544 84.5,62.5C 83.276,64.8392 83.276,67.1725 84.5,69.5C 85.8521,62.0763 86.8521,54.7429 87.5,47.5C 87.3336,55.84 87.5003,64.1733 88,72.5C 92.3688,77.0367 96.8688,81.3701 101.5,85.5C 104.5,89.1667 107.833,92.5 111.5,95.5C 112.81,97.1477 114.143,98.8144 115.5,100.5C 114.143,102.186 112.81,103.852 111.5,105.5C 103.833,112.5 96.5,119.833 89.5,127.5C 87.5539,132.396 86.8872,137.729 87.5,143.5C 86.3532,152.856 88.3532,154.19 93.5,147.5C 94.8333,146.167 96.1667,144.833 97.5,143.5C 97.5774,144.75 98.244,145.583 99.5,146C 95.7146,150.286 91.0479,153.119 85.5,154.5C 85.5,155.5 85.5,156.5 85.5,157.5C 84.2092,158.778 82.2092,159.445 79.5,159.5C 79.5,158.167 79.5,156.833 79.5,155.5C 76.763,153.673 74.0964,151.506 71.5,149C 70.552,148.517 69.552,148.351 68.5,148.5C 67.1714,144.345 65.5048,140.345 63.5,136.5C 69.1396,141.473 74.4729,146.806 79.5,152.5C 79.56,153.043 79.8933,153.376 80.5,153.5C 81.824,142.007 81.824,130.674 80.5,119.5C 75.5,124.167 70.5,128.833 65.5,133.5C 65.1961,132.85 64.8627,132.183 64.5,131.5C 68.3838,130.702 69.0505,129.036 66.5,126.5C 68.9705,125.197 70.9705,123.363 72.5,121C 72.1639,119.97 71.4972,119.47 70.5,119.5C 72.8169,115.518 75.8169,112.185 79.5,109.5C 80.8266,105.217 81.4933,100.551 81.5,95.5C 81.3333,90.8333 81.1667,86.1667 81,81.5C 80.2828,82.0442 79.7828,82.7109 79.5,83.5C 74.5,88.8333 69.5,94.1667 64.5,99.5C 63.8333,99.5 63.5,99.8333 63.5,100.5C 57.1877,106.146 51.1877,112.146 45.5,118.5C 49.8183,122.318 53.985,126.318 58,130.5C 58.3826,129.944 58.8826,129.611 59.5,129.5C 60.3029,130.423 60.4696,131.423 60,132.5C 58.5421,131.253 57.0421,131.253 55.5,132.5C 52.7183,127.719 48.7183,124.386 43.5,122.5C 42.7696,120.659 42.1029,118.825 41.5,117C 36.8694,116.131 34.8694,113.631 35.5,109.5C 36.609,109.557 37.609,109.89 38.5,110.5C 38.7828,111.289 39.2828,111.956 40,112.5C 51.0354,101.632 61.8688,90.6318 72.5,79.5C 75.1303,77.3719 77.6303,75.0386 80,72.5C 80.4997,64.1733 80.6664,55.84 80.5,47.5 Z"/></g>
<g><path style="opacity:1" fill="#16469b" d="M 72.5,79.5 C 60.7728,90.2652 49.4394,100.599 38.5,110.5C 37.609,109.89 36.609,109.557 35.5,109.5C 35.631,108.761 35.4643,108.094 35,107.5C 32.6741,105.545 30.3408,103.545 28,101.5C 27.3333,100.833 27.3333,100.167 28,99.5C 36.7017,90.631 45.535,81.9644 54.5,73.5C 56.8863,72.6267 58.8863,71.1267 60.5,69C 62.1667,68.3333 63.8333,68.3333 65.5,69C 70.2759,71.2089 72.6092,74.7089 72.5,79.5 Z"/></g>
<g><path style="opacity:1" fill="#292d3d" d="M 212.5,79.5 C 212.5,79.8333 212.5,80.1667 212.5,80.5C 201.5,80.5 190.5,80.5 179.5,80.5C 179.5,84.8333 179.5,89.1667 179.5,93.5C 189.015,93.1731 198.348,93.5064 207.5,94.5C 198.161,94.3335 188.827,94.5002 179.5,95C 188.494,95.4998 197.494,95.6664 206.5,95.5C 206.5,97.8333 206.5,100.167 206.5,102.5C 197.318,102.173 188.318,102.507 179.5,103.5C 178.507,111.65 178.174,119.983 178.5,128.5C 175.5,128.5 172.5,128.5 169.5,128.5C 169.333,117.495 169.5,106.495 170,95.5C 170.007,88.6847 170.84,82.0181 172.5,75.5C 173.833,74.8333 174.833,73.8333 175.5,72.5C 187.268,71.5727 198.935,71.2394 210.5,71.5C 211.474,73.7427 211.808,76.076 211.5,78.5C 200.828,78.3335 190.161,78.5002 179.5,79C 190.495,79.4998 201.495,79.6665 212.5,79.5 Z"/></g>
<g><path style="opacity:1" fill="#616164" d="M 222.5,70.5 C 222.5,73.5 222.5,76.5 222.5,79.5C 229.167,79.5 235.833,79.5 242.5,79.5C 242.5,79.8333 242.5,80.1667 242.5,80.5C 235.5,80.5 228.5,80.5 221.5,80.5C 221.187,76.9581 221.521,73.6248 222.5,70.5 Z"/></g>
<g><path style="opacity:1" fill="#636368" d="M 274.5,70.5 C 275.479,73.6248 275.813,76.9581 275.5,80.5C 268.5,80.5 261.5,80.5 254.5,80.5C 260.979,79.5093 267.646,79.176 274.5,79.5C 274.5,76.5 274.5,73.5 274.5,70.5 Z"/></g>
<g><path style="opacity:1" fill="#252938" d="M 351.5,70.5 C 351.5,90.1667 351.5,109.833 351.5,129.5C 348.167,129.5 344.833,129.5 341.5,129.5C 341.829,116.656 341.495,103.989 340.5,91.5C 333.858,100.482 327.191,109.482 320.5,118.5C 314.49,109.804 308.49,101.138 302.5,92.5C 302.44,91.9569 302.107,91.6236 301.5,91.5C 300.501,104.149 300.168,116.816 300.5,129.5C 296.833,129.5 293.167,129.5 289.5,129.5C 289.5,109.833 289.5,90.1667 289.5,70.5C 292.85,70.335 296.183,70.5017 299.5,71C 306.302,80.7688 313.469,90.2688 321,99.5C 328.078,90.3442 334.911,81.0108 341.5,71.5C 344.768,70.513 348.102,70.1796 351.5,70.5 Z"/></g>
<g><path style="opacity:1" fill="#515358" d="M 351.5,70.5 C 352.497,90.3264 352.83,110.326 352.5,130.5C 348.5,130.5 344.5,130.5 340.5,130.5C 340.5,117.5 340.5,104.5 340.5,91.5C 341.495,103.989 341.829,116.656 341.5,129.5C 344.833,129.5 348.167,129.5 351.5,129.5C 351.5,109.833 351.5,90.1667 351.5,70.5 Z"/></g>
<g><path style="opacity:1" fill="#262a38" d="M 393.5,69.5 C 411.687,67.4993 424.187,74.8326 431,91.5C 433.263,119.514 420.429,132.681 392.5,131C 375.332,124.834 367.499,112.667 369,94.5C 372.436,81.3954 380.603,73.062 393.5,69.5 Z"/></g>
<g><path style="opacity:1" fill="#f8f8f9" d="M 395.5,79.5 C 407.868,78.4323 416.035,83.7656 420,95.5C 419.569,117.464 409.069,124.63 388.5,117C 378.671,106.89 378.005,96.223 386.5,85C 389.596,83.1282 392.596,81.2948 395.5,79.5 Z"/></g>
<g><path style="opacity:1" fill="#4c4e55" d="M 242.5,80.5 C 243.496,96.3246 243.83,112.325 243.5,128.5C 246.625,129.479 249.958,129.813 253.5,129.5C 253.17,112.991 253.504,96.6581 254.5,80.5C 254.5,97.1667 254.5,113.833 254.5,130.5C 250.5,130.5 246.5,130.5 242.5,130.5C 242.5,113.833 242.5,97.1667 242.5,80.5 Z"/></g>
<g><path style="opacity:1" fill="#1a1d26" d="M 168.5,70.5 C 183.167,70.5 197.833,70.5 212.5,70.5C 212.5,73.5 212.5,76.5 212.5,79.5C 201.495,79.6665 190.495,79.4998 179.5,79C 190.161,78.5002 200.828,78.3335 211.5,78.5C 211.808,76.076 211.474,73.7427 210.5,71.5C 198.935,71.2394 187.268,71.5727 175.5,72.5C 174.833,73.8333 173.833,74.8333 172.5,75.5C 170.84,82.0181 170.007,88.6847 170,95.5C 169.5,106.495 169.333,117.495 169.5,128.5C 172.5,128.5 175.5,128.5 178.5,128.5C 178.174,119.983 178.507,111.65 179.5,103.5C 179.5,112.5 179.5,121.5 179.5,130.5C 175.833,130.5 172.167,130.5 168.5,130.5C 168.5,110.5 168.5,90.5 168.5,70.5 Z"/></g>
<g><path style="opacity:1" fill="#0d111a" d="M 222.5,70.5 C 239.833,70.5 257.167,70.5 274.5,70.5C 274.5,73.5 274.5,76.5 274.5,79.5C 267.646,79.176 260.979,79.5093 254.5,80.5C 253.504,96.6581 253.17,112.991 253.5,129.5C 249.958,129.813 246.625,129.479 243.5,128.5C 246.5,128.5 249.5,128.5 252.5,128.5C 252.333,112.163 252.5,95.8299 253,79.5C 259.744,78.5212 266.578,78.1878 273.5,78.5C 273.5,76.1667 273.5,73.8333 273.5,71.5C 256.833,71.5 240.167,71.5 223.5,71.5C 223.5,73.8333 223.5,76.1667 223.5,78.5C 230.022,78.1765 236.355,78.5098 242.5,79.5C 235.833,79.5 229.167,79.5 222.5,79.5C 222.5,76.5 222.5,73.5 222.5,70.5 Z"/></g>
<g><path style="opacity:1" fill="#192f6f" d="M 79.5,83.5 C 80.8333,91.8333 80.8333,100.167 79.5,108.5C 79.8303,101.468 79.497,94.4684 78.5,87.5C 74.2353,92.1068 69.5686,96.1068 64.5,99.5C 69.5,94.1667 74.5,88.8333 79.5,83.5 Z"/></g>
<g><path style="opacity:1" fill="#12296c" d="M 72.5,79.5 C 61.8688,90.6318 51.0354,101.632 40,112.5C 39.2828,111.956 38.7828,111.289 38.5,110.5C 49.4394,100.599 60.7728,90.2652 72.5,79.5 Z"/></g>
<g><path style="opacity:1" fill="#b5c6f2" d="M 79.5,109.5 C 79.5,109.167 79.5,108.833 79.5,108.5C 80.8333,100.167 80.8333,91.8333 79.5,83.5C 79.7828,82.7109 80.2828,82.0442 81,81.5C 81.1667,86.1667 81.3333,90.8333 81.5,95.5C 81.4933,100.551 80.8266,105.217 79.5,109.5 Z"/></g>
<g><path style="opacity:1" fill="#10121a" d="M 207.5,94.5 C 207.5,97.5 207.5,100.5 207.5,103.5C 198.167,103.5 188.833,103.5 179.5,103.5C 188.318,102.507 197.318,102.173 206.5,102.5C 206.5,100.167 206.5,97.8333 206.5,95.5C 197.494,95.6664 188.494,95.4998 179.5,95C 188.827,94.5002 198.161,94.3335 207.5,94.5 Z"/></g>
<g><path style="opacity:1" fill="#1e428c" d="M 117.5,77.5 C 125.479,84.8123 133.146,92.479 140.5,100.5C 134.812,106.854 128.812,112.854 122.5,118.5C 121.843,115.159 123.176,113.159 126.5,112.5C 126.291,111.914 125.957,111.414 125.5,111C 126.833,110.667 128.167,110.333 129.5,110C 127.597,108.553 125.93,106.886 124.5,105C 125.108,104.13 125.941,103.63 127,103.5C 128.694,105.429 130.861,106.429 133.5,106.5C 133.214,104.723 132.547,103.056 131.5,101.5C 132.821,99.6682 133.821,97.6682 134.5,95.5C 131.951,95.5589 129.951,94.5589 128.5,92.5C 126.127,95.0177 125.127,98.0177 125.5,101.5C 120.602,102.298 115.936,103.631 111.5,105.5C 112.81,103.852 114.143,102.186 115.5,100.5C 114.143,98.8144 112.81,97.1477 111.5,95.5C 113.867,96.1637 115.867,97.497 117.5,99.5C 119.111,98.6798 119.778,97.3464 119.5,95.5C 118.5,95.5 117.5,95.5 116.5,95.5C 116.67,94.1779 116.337,93.0113 115.5,92C 116.793,91.51 118.127,91.3433 119.5,91.5C 119.351,92.552 119.517,93.552 120,94.5C 125.622,96.2169 127.455,94.2169 125.5,88.5C 122.349,85.8496 119.349,83.0162 116.5,80C 117.252,79.3292 117.586,78.4959 117.5,77.5 Z"/></g>
<g><path style="opacity:1" fill="#bfc1c8" d="M 179.5,103.5 C 188.833,103.5 198.167,103.5 207.5,103.5C 198.682,104.493 189.682,104.827 180.5,104.5C 180.826,113.349 180.493,122.016 179.5,130.5C 179.5,121.5 179.5,112.5 179.5,103.5 Z"/></g>
<g><path style="opacity:1" fill="#15459f" d="M 79.5,108.5 C 79.5,108.833 79.5,109.167 79.5,109.5C 75.8169,112.185 72.8169,115.518 70.5,119.5C 68.2054,120.136 66.5387,121.469 65.5,123.5C 62.7276,123.22 60.2276,123.887 58,125.5C 55.9707,123.142 53.9707,120.808 52,118.5C 51.2784,116.339 51.9451,114.672 54,113.5C 55.3186,115.25 55.8186,117.25 55.5,119.5C 58.3708,119.963 61.2041,119.963 64,119.5C 69.138,115.513 68.638,114.179 62.5,115.5C 60.772,113.123 58.4386,111.456 55.5,110.5C 58.6421,107.378 61.3087,104.045 63.5,100.5C 63.5,99.8333 63.8333,99.5 64.5,99.5C 69.5686,96.1068 74.2353,92.1068 78.5,87.5C 79.497,94.4684 79.8303,101.468 79.5,108.5 Z"/></g>
<g><path style="opacity:1" fill="#1a4490" d="M 63.5,100.5 C 61.3087,104.045 58.6421,107.378 55.5,110.5C 58.4386,111.456 60.772,113.123 62.5,115.5C 68.638,114.179 69.138,115.513 64,119.5C 61.2041,119.963 58.3708,119.963 55.5,119.5C 55.8186,117.25 55.3186,115.25 54,113.5C 51.9451,114.672 51.2784,116.339 52,118.5C 53.9707,120.808 55.9707,123.142 58,125.5C 60.2276,123.887 62.7276,123.22 65.5,123.5C 63.8606,125.806 61.8606,127.806 59.5,129.5C 58.8826,129.611 58.3826,129.944 58,130.5C 53.985,126.318 49.8183,122.318 45.5,118.5C 51.1877,112.146 57.1877,106.146 63.5,100.5 Z"/></g>
<g><path style="opacity:1" fill="#808389" d="M 302.5,92.5 C 301.505,104.989 301.171,117.656 301.5,130.5C 297.298,130.817 293.298,130.483 289.5,129.5C 293.167,129.5 296.833,129.5 300.5,129.5C 300.168,116.816 300.501,104.149 301.5,91.5C 302.107,91.6236 302.44,91.9569 302.5,92.5 Z"/></g>
<g><path style="opacity:1" fill="#19438f" d="M 111.5,105.5 C 110.643,108.043 109.31,110.377 107.5,112.5C 110.853,113.381 111.353,115.047 109,117.5C 108.667,116.833 108.333,116.167 108,115.5C 106.556,117.155 104.722,117.822 102.5,117.5C 102.183,121.172 103.849,122.838 107.5,122.5C 107.5,124.167 107.5,125.833 107.5,127.5C 100.613,129.215 96.7801,133.549 96,140.5C 100.297,137.371 104.13,133.704 107.5,129.5C 108.417,130.127 109.417,130.461 110.5,130.5C 106.167,134.833 101.833,139.167 97.5,143.5C 96.1667,144.833 94.8333,146.167 93.5,147.5C 94.1653,140.857 94.6653,134.191 95,127.5C 95.7096,128.973 96.8762,129.64 98.5,129.5C 99.1218,121.725 96.9551,120.725 92,126.5C 91.6667,132.167 91.3333,137.833 91,143.5C 90.8267,137.984 90.3267,132.651 89.5,127.5C 96.5,119.833 103.833,112.5 111.5,105.5 Z"/></g>
<g><path style="opacity:1" fill="#16439f" d="M 122.5,118.5 C 118.888,122.779 114.888,126.779 110.5,130.5C 109.417,130.461 108.417,130.127 107.5,129.5C 104.13,133.704 100.297,137.371 96,140.5C 96.7801,133.549 100.613,129.215 107.5,127.5C 107.5,125.833 107.5,124.167 107.5,122.5C 103.849,122.838 102.183,121.172 102.5,117.5C 104.722,117.822 106.556,117.155 108,115.5C 108.333,116.167 108.667,116.833 109,117.5C 111.353,115.047 110.853,113.381 107.5,112.5C 109.31,110.377 110.643,108.043 111.5,105.5C 115.936,103.631 120.602,102.298 125.5,101.5C 125.127,98.0177 126.127,95.0177 128.5,92.5C 129.951,94.5589 131.951,95.5589 134.5,95.5C 133.821,97.6682 132.821,99.6682 131.5,101.5C 132.547,103.056 133.214,104.723 133.5,106.5C 130.861,106.429 128.694,105.429 127,103.5C 125.941,103.63 125.108,104.13 124.5,105C 125.93,106.886 127.597,108.553 129.5,110C 128.167,110.333 126.833,110.667 125.5,111C 125.957,111.414 126.291,111.914 126.5,112.5C 123.176,113.159 121.843,115.159 122.5,118.5 Z"/></g>
<g><path style="opacity:1" fill="#b1c5ef" d="M 80.5,119.5 C 81.824,130.674 81.824,142.007 80.5,153.5C 79.8933,153.376 79.56,153.043 79.5,152.5C 80.4946,141.679 80.8279,130.679 80.5,119.5 Z"/></g>
<g><path style="opacity:1" fill="#193f8f" d="M 80.5,119.5 C 80.8279,130.679 80.4946,141.679 79.5,152.5C 74.4729,146.806 69.1396,141.473 63.5,136.5C 64.1667,135.5 64.8333,134.5 65.5,133.5C 70.5,128.833 75.5,124.167 80.5,119.5 Z"/></g>
<g><path style="opacity:1" fill="#1644a3" d="M 93.5,147.5 C 91.0354,146.768 89.0354,145.435 87.5,143.5C 86.8872,137.729 87.5539,132.396 89.5,127.5C 90.3267,132.651 90.8267,137.984 91,143.5C 91.3333,137.833 91.6667,132.167 92,126.5C 96.9551,120.725 99.1218,121.725 98.5,129.5C 96.8762,129.64 95.7096,128.973 95,127.5C 94.6653,134.191 94.1653,140.857 93.5,147.5 Z"/></g>
<g><path style="opacity:1" fill="#2a427b" d="M 87.5,143.5 C 89.0354,145.435 91.0354,146.768 93.5,147.5C 88.3532,154.19 86.3532,152.856 87.5,143.5 Z"/></g>
</svg>
