<?xml version="1.0" encoding="UTF-8"?>
<!DOCTYPE svg PUBLIC "-//W3C//DTD SVG 1.1//EN" "http://www.w3.org/Graphics/SVG/1.1/DTD/svg11.dtd">
<svg xmlns="http://www.w3.org/2000/svg" version="1.1" width="512px" height="512px" style="shape-rendering:geometricPrecision; text-rendering:geometricPrecision; image-rendering:optimizeQuality; fill-rule:evenodd; clip-rule:evenodd" xmlns:xlink="http://www.w3.org/1999/xlink">
<g><path style="opacity:0.993" fill="#d5e8fe" d="M 117.5,90.5 C 106.833,90.5 96.1667,90.5 85.5,90.5C 82.3667,80.9927 79.3667,71.326 76.5,61.5C 53.8407,60.6669 31.174,60.1669 8.5,60C 4.31481,58.3122 1.31481,55.4788 -0.5,51.5C -0.5,47.5 -0.5,43.5 -0.5,39.5C 1.31481,35.5212 4.31481,32.6878 8.5,31C 37.1667,30.3333 65.8333,30.3333 94.5,31C 97.2953,32.7932 99.7953,34.9598 102,37.5C 107.326,55.1398 112.493,72.8065 117.5,90.5 Z"/></g>
<g><path style="opacity:0.999" fill="#6aa9ff" d="M 85.5,90.5 C 96.1667,90.5 106.833,90.5 117.5,90.5C 178.5,90.5 239.5,90.5 300.5,90.5C 300.5,170.5 300.5,250.5 300.5,330.5C 258.833,330.5 217.167,330.5 175.5,330.5C 169.71,330.904 164.044,330.404 158.5,329C 156.91,327.954 155.41,326.787 154,325.5C 152.428,321.563 150.595,317.896 148.5,314.5C 127.5,239.833 106.5,165.167 85.5,90.5 Z"/></g>
<g><path style="opacity:1" fill="#4895ff" d="M 300.5,90.5 C 367.834,90.3333 435.167,90.5 502.5,91C 506.685,92.6878 509.685,95.5212 511.5,99.5C 511.5,103.5 511.5,107.5 511.5,111.5C 490.892,180.246 470.725,249.246 451,318.5C 449.59,323.84 446.423,327.673 441.5,330C 394.501,330.5 347.501,330.667 300.5,330.5C 300.5,250.5 300.5,170.5 300.5,90.5 Z"/></g>
<g><path style="opacity:0.994" fill="#d5e8fe" d="M 148.5,314.5 C 150.595,317.896 152.428,321.563 154,325.5C 155.41,326.787 156.91,327.954 158.5,329C 164.044,330.404 169.71,330.904 175.5,330.5C 172.673,335.157 170.673,340.157 169.5,345.5C 169.993,352.153 173.326,356.653 179.5,359C 219.794,360.471 260.127,360.971 300.5,360.5C 300.5,370.5 300.5,380.5 300.5,390.5C 278.833,390.5 257.167,390.5 235.5,390.5C 228.833,390.5 222.167,390.5 215.5,390.5C 201.829,390.667 188.163,390.5 174.5,390C 146.61,381.398 135.11,362.565 140,333.5C 142.299,326.904 145.132,320.571 148.5,314.5 Z"/></g>
<g><path style="opacity:1" fill="#b5dbfe" d="M 300.5,360.5 C 347.501,360.333 394.501,360.5 441.5,361C 450.475,366.152 452.975,373.652 449,383.5C 447.833,386 446,387.833 443.5,389C 424.259,390.475 404.926,390.975 385.5,390.5C 378.833,390.5 372.167,390.5 365.5,390.5C 343.833,390.5 322.167,390.5 300.5,390.5C 300.5,380.5 300.5,370.5 300.5,360.5 Z"/></g>
<g><path style="opacity:0.983" fill="#47568c" d="M 215.5,390.5 C 222.167,390.5 228.833,390.5 235.5,390.5C 261.646,399.427 273.146,417.76 270,445.5C 263.697,468.063 248.864,479.729 225.5,480.5C 202.124,479.725 187.29,468.059 181,445.5C 177.854,417.76 189.354,399.427 215.5,390.5 Z"/></g>
<g><path style="opacity:0.985" fill="#29376d" d="M 365.5,390.5 C 372.167,390.5 378.833,390.5 385.5,390.5C 411.646,399.427 423.146,417.76 420,445.5C 413.697,468.063 398.864,479.729 375.5,480.5C 352.124,479.725 337.29,468.059 331,445.5C 327.854,417.76 339.354,399.427 365.5,390.5 Z"/></g>
<g><path style="opacity:1" fill="#eaf2fd" d="M 221.5,420.5 C 234.544,419.712 240.71,425.712 240,438.5C 236.264,448.784 229.098,452.284 218.5,449C 209.257,441.633 208.257,433.3 215.5,424C 217.432,422.541 219.432,421.375 221.5,420.5 Z"/></g>
<g><path style="opacity:1" fill="#d2e5fb" d="M 371.5,420.5 C 384.544,419.712 390.71,425.712 390,438.5C 386.264,448.784 379.098,452.284 368.5,449C 359.257,441.633 358.257,433.3 365.5,424C 367.432,422.541 369.432,421.375 371.5,420.5 Z"/></g>
</svg>
