<?xml version="1.0" encoding="UTF-8"?>
<!DOCTYPE svg PUBLIC "-//W3C//DTD SVG 1.1//EN" "http://www.w3.org/Graphics/SVG/1.1/DTD/svg11.dtd">
<svg xmlns="http://www.w3.org/2000/svg" version="1.1" width="512px" height="512px" style="shape-rendering:geometricPrecision; text-rendering:geometricPrecision; image-rendering:optimizeQuality; fill-rule:evenodd; clip-rule:evenodd" xmlns:xlink="http://www.w3.org/1999/xlink">
<g><path style="opacity:0.982" fill="#fefffe" d="M 511.5,99.5 C 511.5,103.5 511.5,107.5 511.5,111.5C 491.048,181.292 470.881,251.292 451,321.5C 449.5,325.667 446.667,328.5 442.5,330C 353.5,330.333 264.5,330.667 175.5,331C 171.471,336.205 169.638,342.038 170,348.5C 172.195,355.698 177.028,359.531 184.5,360C 271.248,360.005 357.915,360.672 444.5,362C 449.592,365.017 451.926,369.517 451.5,375.5C 451.926,381.483 449.592,385.983 444.5,389C 425.256,390.309 405.923,390.976 386.5,391C 403.062,395.228 414.229,405.395 420,421.5C 425.886,448.898 416.052,468.065 390.5,479C 360.981,484.998 341.481,473.831 332,445.5C 328.404,422.194 336.904,405.027 357.5,394C 360.405,392.714 363.405,391.714 366.5,391C 322.833,390.333 279.167,390.333 235.5,391C 253.667,395.833 265.167,407.333 270,425.5C 273.478,446.761 266.312,463.261 248.5,475C 226.427,485.298 206.927,481.798 190,464.5C 180.557,451.52 177.89,437.186 182,421.5C 187.771,405.395 198.938,395.228 215.5,391C 201.833,390.667 188.167,390.333 174.5,390C 145.311,380.465 134.144,360.632 141,330.5C 143.06,325.38 145.393,320.38 148,315.5C 148.667,313.833 148.667,312.167 148,310.5C 124.321,227.449 100.488,144.449 76.5,61.5C 53.8407,60.6669 31.174,60.1669 8.5,60C 4.31481,58.3122 1.31481,55.4788 -0.5,51.5C -0.5,47.5 -0.5,43.5 -0.5,39.5C 1.31481,35.5212 4.31481,32.6878 8.5,31C 37.1667,30.3333 65.8333,30.3333 94.5,31C 97.2953,32.7932 99.7953,34.9598 102,37.5C 107.177,55.0272 112.343,72.5272 117.5,90C 245.833,90.3333 374.167,90.6667 502.5,91C 506.685,92.6878 509.685,95.5212 511.5,99.5 Z M 126.5,120.5 C 242.833,120.5 359.167,120.5 475.5,120.5C 458.98,180.229 442.147,239.896 425,299.5C 383.737,300.165 342.404,300.499 301,300.5C 259.596,300.499 218.263,300.165 177,299.5C 159.853,239.896 143.02,180.229 126.5,120.5 Z M 220.5,421.5 C 237.286,421.073 242.786,428.739 237,444.5C 230.803,450.104 223.969,450.937 216.5,447C 210.896,440.803 210.063,433.969 214,426.5C 215.965,424.45 218.132,422.783 220.5,421.5 Z M 371.5,421.5 C 388.286,421.073 393.786,428.739 388,444.5C 381.803,450.104 374.969,450.937 367.5,447C 361.896,440.803 361.063,433.969 365,426.5C 366.965,424.45 369.132,422.783 371.5,421.5 Z"/></g>
</svg>
