<?xml version="1.0" encoding="UTF-8"?>
<!DOCTYPE svg PUBLIC "-//W3C//DTD SVG 1.1//EN" "http://www.w3.org/Graphics/SVG/1.1/DTD/svg11.dtd">
<svg xmlns="http://www.w3.org/2000/svg" version="1.1" width="512px" height="512px" style="shape-rendering:geometricPrecision; text-rendering:geometricPrecision; image-rendering:optimizeQuality; fill-rule:evenodd; clip-rule:evenodd" xmlns:xlink="http://www.w3.org/1999/xlink">
<g><path style="opacity:0.982" fill="#fefffe" d="M 97.5,24.5 C 162.047,22.2127 197.547,53.2127 204,117.5C 206.492,142.12 204.825,166.453 199,190.5C 187.554,228.609 162.054,250.109 122.5,255C 57.2232,259.374 20.7232,229.207 13,164.5C 10.3506,140.276 11.6839,116.276 17,92.5C 28.6261,51.6312 55.4595,28.9645 97.5,24.5 Z M 101.5,72.5 C 120.094,71.2453 130.927,79.9119 134,98.5C 138.217,124.11 138.551,149.777 135,175.5C 134.068,186.53 129.568,195.696 121.5,203C 105.495,210.774 93.328,206.941 85,191.5C 82.5536,185.382 80.887,179.048 80,172.5C 76.7716,150.497 76.7716,128.497 80,106.5C 81.1114,95.8176 84.9448,86.3176 91.5,78C 94.7667,75.8703 98.1,74.037 101.5,72.5 Z"/></g>
<g><path style="opacity:0.978" fill="#fefffe" d="M 347.5,24.5 C 358.838,24.3335 370.172,24.5001 381.5,25C 391.912,29.3325 395.078,36.8325 391,47.5C 319.209,191.415 247.209,335.082 175,478.5C 172.76,481.402 169.927,483.569 166.5,485C 154.167,485.667 141.833,485.667 129.5,485C 117.88,478.949 115.38,470.116 122,458.5C 194.485,315.531 266.985,172.531 339.5,29.5C 341.928,27.2946 344.595,25.6279 347.5,24.5 Z"/></g>
<g><path style="opacity:0.982" fill="#fefffe" d="M 386.5,255.5 C 407.58,253.29 427.914,256.123 447.5,264C 477.34,280.123 493.84,305.29 497,339.5C 500.744,365.679 499.744,391.679 494,417.5C 481.001,463.146 450.668,486.146 403,486.5C 347.899,485.068 316.232,457.068 308,402.5C 303.978,374.569 305.311,346.902 312,319.5C 323.757,282.908 348.59,261.575 386.5,255.5 Z M 401.5,302.5 C 416.696,304.528 425.529,313.194 428,328.5C 432.206,354.45 432.539,380.45 429,406.5C 427.921,417.803 423.088,426.969 414.5,434C 399.195,440.787 387.362,436.954 379,422.5C 376.573,416.368 374.907,410.034 374,403.5C 370.744,381.217 370.744,359.217 374,337.5C 375.072,326.262 379.239,316.429 386.5,308C 391.133,304.848 396.133,303.014 401.5,302.5 Z"/></g>
</svg>
