<?xml version="1.0" encoding="UTF-8"?>
<!DOCTYPE svg PUBLIC "-//W3C//DTD SVG 1.1//EN" "http://www.w3.org/Graphics/SVG/1.1/DTD/svg11.dtd">
<svg xmlns="http://www.w3.org/2000/svg" version="1.1" width="512px" height="512px" style="shape-rendering:geometricPrecision; text-rendering:geometricPrecision; image-rendering:optimizeQuality; fill-rule:evenodd; clip-rule:evenodd" xmlns:xlink="http://www.w3.org/1999/xlink">
<g><path style="opacity:0.997" fill="#1648ff" d="M 87.5,-0.5 C 94.5,-0.5 101.5,-0.5 108.5,-0.5C 116.06,1.41469 123.393,4.24803 130.5,8C 236.666,73.251 343,138.251 449.5,203C 475.072,223.438 482.572,249.271 472,280.5C 467.8,290.707 461.3,299.207 452.5,306C 342.36,374.128 231.693,441.461 120.5,508C 116.667,509.034 113.001,510.2 109.5,511.5C 101.833,511.5 94.1667,511.5 86.5,511.5C 60.4668,505.303 43.6335,489.303 36,463.5C 34.8415,394.035 34.3415,324.535 34.5,255C 34.3415,185.465 34.8415,115.965 36,46.5C 44.1743,20.8197 61.341,5.153 87.5,-0.5 Z"/></g>
</svg>
