<?xml version="1.0" encoding="UTF-8"?>
<!DOCTYPE svg PUBLIC "-//W3C//DTD SVG 1.1//EN" "http://www.w3.org/Graphics/SVG/1.1/DTD/svg11.dtd">
<svg xmlns="http://www.w3.org/2000/svg" version="1.1" width="20px" height="19px" style="shape-rendering:geometricPrecision; text-rendering:geometricPrecision; image-rendering:optimizeQuality; fill-rule:evenodd; clip-rule:evenodd" xmlns:xlink="http://www.w3.org/1999/xlink">
<g><path style="opacity:0.912" fill="#02b376" d="M 8.5,-0.5 C 9.16667,-0.5 9.83333,-0.5 10.5,-0.5C 10.2567,5.86795 13.2567,8.20128 19.5,6.5C 19.5,6.83333 19.5,7.16667 19.5,7.5C 14.4542,9.64321 13.1209,13.3099 15.5,18.5C 15.1667,18.5 14.8333,18.5 14.5,18.5C 12.8767,17.2206 11.21,15.8872 9.5,14.5C 7.78998,15.8872 6.12331,17.2206 4.5,18.5C 4.16667,18.5 3.83333,18.5 3.5,18.5C 5.87913,13.3099 4.5458,9.64321 -0.5,7.5C -0.5,7.16667 -0.5,6.83333 -0.5,6.5C 5.7433,8.20128 8.7433,5.86795 8.5,-0.5 Z"/></g>
</svg>
