<?xml version="1.0" encoding="UTF-8"?>
<!DOCTYPE svg PUBLIC "-//W3C//DTD SVG 1.1//EN" "http://www.w3.org/Graphics/SVG/1.1/DTD/svg11.dtd">
<svg xmlns="http://www.w3.org/2000/svg" version="1.1" width="64px" height="64px" style="shape-rendering:geometricPrecision; text-rendering:geometricPrecision; image-rendering:optimizeQuality; fill-rule:evenodd; clip-rule:evenodd" xmlns:xlink="http://www.w3.org/1999/xlink">
<g><path style="opacity:0.617" fill="#fefffe" d="M 63.5,32.5 C 63.5,33.1667 63.5,33.8333 63.5,34.5C 60.4363,36.8911 57.1029,37.7244 53.5,37C 51.897,40.5989 49.5637,43.5989 46.5,46C 45.552,46.4828 44.552,46.6495 43.5,46.5C 43.719,47.675 43.3857,48.675 42.5,49.5C 39.8982,50.6811 37.3982,52.0144 35,53.5C 32.8606,52.7636 30.8606,51.7636 29,50.5C 27.1917,52.3959 25.025,52.8959 22.5,52C 18.6676,50.8347 15.3342,48.8347 12.5,46C 9.54749,43.9373 7.71416,41.104 7,37.5C 6.66667,37.8333 6.33333,38.1667 6,38.5C 3.94812,36.9415 1.78145,35.6082 -0.5,34.5C -0.5,33.8333 -0.5,33.1667 -0.5,32.5C 1.91323,25.4485 3.5799,18.1152 4.5,10.5C 9.84811,12.0162 14.5148,14.8495 18.5,19C 22.8164,19.1212 27.1497,18.9545 31.5,18.5C 35.1996,18.3428 38.6996,19.0095 42,20.5C 46.9231,16.9547 51.7564,13.2881 56.5,9.5C 57.086,9.70931 57.586,10.0426 58,10.5C 59.5502,18.0343 61.3836,25.3676 63.5,32.5 Z M 7.5,14.5 C 10.4006,15.7915 12.7339,17.7915 14.5,20.5C 11.5,25.1667 8.5,29.8333 5.5,34.5C 4.5,34 3.5,33.5 2.5,33C 4.10376,26.8136 5.77043,20.647 7.5,14.5 Z M 54.5,14.5 C 57.5231,20.2465 59.1898,26.5798 59.5,33.5C 58.1779,33.67 57.0113,33.3366 56,32.5C 53.5,28.1667 51,23.8333 48.5,19.5C 50.5441,17.7806 52.5441,16.1139 54.5,14.5 Z M 33.5,20.5 C 37.6518,22.0207 41.9852,22.854 46.5,23C 49.3799,26.484 51.2132,30.3174 52,34.5C 51.2825,35.4506 50.4491,35.6172 49.5,35C 45.5,31.6667 41.5,28.3333 37.5,25C 33.8432,25.1078 30.1765,25.1078 26.5,25C 29.2387,23.9741 31.572,22.4741 33.5,20.5 Z M 23.5,22.5 C 23.2148,24.288 23.5481,25.9547 24.5,27.5C 28.1566,28.4728 31.8233,28.6394 35.5,28C 40.1994,31.0203 44.5327,34.5203 48.5,38.5C 48,38.8333 47.5,39.1667 47,39.5C 43.5694,37.739 40.4028,35.5724 37.5,33C 36.365,32.2506 35.365,32.4173 34.5,33.5C 37.9939,36.8244 41.6606,39.991 45.5,43C 45,43.5 44.5,44 44,44.5C 41.1667,42.3333 38.3333,40.1667 35.5,38C 34.0563,37.2195 32.723,37.3861 31.5,38.5C 34.1631,40.9923 36.9964,43.3256 40,45.5C 40.6877,46.3317 40.521,46.9984 39.5,47.5C 36.6959,45.8619 34.0292,44.0285 31.5,42C 30.2161,41.3162 29.0495,41.4829 28,42.5C 26.0666,40.4419 24.2333,38.2753 22.5,36C 19.5291,35.5291 16.8624,34.3625 14.5,32.5C 12.7419,33.1279 11.2419,34.1279 10,35.5C 11.4428,31.119 13.6095,26.9523 16.5,23C 18.8098,22.5034 21.1432,22.3367 23.5,22.5 Z M 14.5,35.5 C 15.0967,35.7352 15.4301,36.2352 15.5,37C 14.3867,38.3943 13.0534,39.561 11.5,40.5C 10.479,39.9984 10.3123,39.3317 11,38.5C 12.1451,37.3636 13.3117,36.3636 14.5,35.5 Z M 18.5,38.5 C 19.552,38.3505 20.552,38.5172 21.5,39C 19.6499,41.0176 17.6499,42.8509 15.5,44.5C 15.1667,44.1667 14.8333,43.8333 14.5,43.5C 15.8569,41.8144 17.1902,40.1477 18.5,38.5 Z M 23.5,41.5 C 24.2891,41.7828 24.9558,42.2828 25.5,43C 23.9571,44.8783 22.1238,46.3783 20,47.5C 19.5,47 19,46.5 18.5,46C 20.6175,44.9509 22.2842,43.4509 23.5,41.5 Z M 26.5,45.5 C 28.8852,46.8673 28.5518,48.2007 25.5,49.5C 25.1667,49.1667 24.8333,48.8333 24.5,48.5C 25.1925,47.4822 25.8592,46.4822 26.5,45.5 Z M 31.5,45.5 C 33.0103,46.8361 34.6769,48.0027 36.5,49C 35.344,50.6149 34.0107,50.6149 32.5,49C 31.6634,47.9887 31.33,46.8221 31.5,45.5 Z"/></g>
</svg>
