<?xml version="1.0" encoding="UTF-8"?>
<!DOCTYPE svg PUBLIC "-//W3C//DTD SVG 1.1//EN" "http://www.w3.org/Graphics/SVG/1.1/DTD/svg11.dtd">
<svg xmlns="http://www.w3.org/2000/svg" version="1.1" width="480px" height="270px" style="shape-rendering:geometricPrecision; text-rendering:geometricPrecision; image-rendering:optimizeQuality; fill-rule:evenodd; clip-rule:evenodd" xmlns:xlink="http://www.w3.org/1999/xlink">
<g><path style="opacity:0.984" fill="#fe020a" d="M 179.5,126.5 C 179.5,116.833 179.5,107.167 179.5,97.5C 182.782,92.5355 186.115,87.5355 189.5,82.5C 186.65,80.5729 183.983,78.4062 181.5,76C 193.258,70.3715 205.091,64.8715 217,59.5C 216.403,72.8749 215.07,86.2083 213,99.5C 209.896,97.2095 206.729,95.3761 203.5,94C 195.251,104.735 187.251,115.568 179.5,126.5 Z"/></g>
<g><path style="opacity:0.998" fill="#ab0814" d="M 72.5,85.5 C 72.5,106.833 72.5,128.167 72.5,149.5C 70.02,153.109 67.52,156.776 65,160.5C 64.5,135.502 64.3334,110.502 64.5,85.5C 67.1667,85.5 69.8333,85.5 72.5,85.5 Z"/></g>
<g><path style="opacity:0.996" fill="#b10714" d="M 72.5,85.5 C 76.1667,85.5 79.8333,85.5 83.5,85.5C 83.5,101.833 83.5,118.167 83.5,134.5C 80.2125,139.786 76.5458,144.786 72.5,149.5C 72.5,128.167 72.5,106.833 72.5,85.5 Z"/></g>
<g><path style="opacity:0.869" fill="#b80713" d="M 83.5,85.5 C 86.1667,85.5 88.8333,85.5 91.5,85.5C 91.5,91.8333 91.5,98.1667 91.5,104.5C 89.1667,104.5 86.8333,104.5 84.5,104.5C 84.8274,114.681 84.494,124.681 83.5,134.5C 83.5,118.167 83.5,101.833 83.5,85.5 Z"/></g>
<g><path style="opacity:1" fill="#c10612" d="M 91.5,85.5 C 97.1667,85.5 102.833,85.5 108.5,85.5C 108.5,91.8333 108.5,98.1667 108.5,104.5C 102.833,104.5 97.1667,104.5 91.5,104.5C 91.5,98.1667 91.5,91.8333 91.5,85.5 Z"/></g>
<g><path style="opacity:1" fill="#cb0611" d="M 108.5,85.5 C 111.833,85.5 115.167,85.5 118.5,85.5C 118.5,91.8333 118.5,98.1667 118.5,104.5C 115.167,104.5 111.833,104.5 108.5,104.5C 108.5,98.1667 108.5,91.8333 108.5,85.5 Z"/></g>
<g><path style="opacity:1" fill="#d5050f" d="M 118.5,85.5 C 124.167,85.5 129.833,85.5 135.5,85.5C 135.5,91.8333 135.5,98.1667 135.5,104.5C 129.833,104.5 124.167,104.5 118.5,104.5C 118.5,98.1667 118.5,91.8333 118.5,85.5 Z"/></g>
<g><path style="opacity:1" fill="#e1040e" d="M 135.5,85.5 C 141.5,85.5 147.5,85.5 153.5,85.5C 153.5,91.8333 153.5,98.1667 153.5,104.5C 147.5,104.5 141.5,104.5 135.5,104.5C 135.5,98.1667 135.5,91.8333 135.5,85.5 Z"/></g>
<g><path style="opacity:1" fill="#ee030c" d="M 153.5,85.5 C 159.167,85.5 164.833,85.5 170.5,85.5C 170.5,91.1667 170.5,96.8333 170.5,102.5C 165.265,104.45 159.598,105.117 153.5,104.5C 153.5,98.1667 153.5,91.8333 153.5,85.5 Z"/></g>
<g><path style="opacity:0.997" fill="#f6030c" d="M 170.5,85.5 C 174.846,85.3343 179.179,85.501 183.5,86C 179.268,91.6601 174.934,97.1601 170.5,102.5C 170.5,96.8333 170.5,91.1667 170.5,85.5 Z"/></g>
<g><path style="opacity:0.987" fill="#f6030b" d="M 179.5,97.5 C 179.5,107.167 179.5,116.833 179.5,126.5C 177.303,130.238 174.636,133.571 171.5,136.5C 171.827,126.985 171.494,117.652 170.5,108.5C 173.271,104.61 176.271,100.943 179.5,97.5 Z"/></g>
<g><path style="opacity:0.965" fill="#ef040d" d="M 321.5,107.5 C 329.845,107.691 332.178,111.524 328.5,119C 320.95,121.984 317.45,119.484 318,111.5C 319.376,110.295 320.542,108.962 321.5,107.5 Z"/></g>
<g><path style="opacity:0.991" fill="#de040e" d="M 135.5,141.5 C 135.827,131.985 135.494,122.652 134.5,113.5C 135.479,111.855 136.812,110.521 138.5,109.5C 143.025,113.192 147.692,116.692 152.5,120C 146.693,127.145 141.027,134.312 135.5,141.5 Z"/></g>
<g><path style="opacity:0.99" fill="#d00510" d="M 239.5,110.5 C 239.5,113.833 239.5,117.167 239.5,120.5C 236.833,120.5 234.167,120.5 231.5,120.5C 231.5,126.167 231.5,131.833 231.5,137.5C 233.833,137.5 236.167,137.5 238.5,137.5C 239.414,140.728 239.747,144.061 239.5,147.5C 236.833,147.5 234.167,147.5 231.5,147.5C 231.5,154.5 231.5,161.5 231.5,168.5C 228.167,168.5 224.833,168.5 221.5,168.5C 221.5,149.167 221.5,129.833 221.5,110.5C 227.5,110.5 233.5,110.5 239.5,110.5 Z"/></g>
<g><path style="opacity:0.969" fill="#d9040f" d="M 239.5,110.5 C 254.836,107.98 264.169,114.147 267.5,129C 266.848,136.641 263.182,142.307 256.5,146C 260.595,153.531 264.928,160.864 269.5,168C 265.459,168.827 261.459,168.66 257.5,167.5C 253.667,161.167 249.833,154.833 246,148.5C 243.959,147.577 241.792,147.244 239.5,147.5C 239.747,144.061 239.414,140.728 238.5,137.5C 242.846,137.666 247.179,137.499 251.5,137C 258.017,131.71 258.017,126.376 251.5,121C 247.514,120.501 243.514,120.334 239.5,120.5C 239.5,117.167 239.5,113.833 239.5,110.5 Z"/></g>
<g><path style="opacity:0.993" fill="#f0040c" d="M 170.5,108.5 C 171.494,117.652 171.827,126.985 171.5,136.5C 169.262,141.071 166.262,145.071 162.5,148.5C 162.827,139.318 162.493,130.318 161.5,121.5C 164.253,116.992 167.253,112.659 170.5,108.5 Z"/></g>
<g><path style="opacity:0.993" fill="#d7040f" d="M 134.5,113.5 C 135.494,122.652 135.827,131.985 135.5,141.5C 133.238,146.09 130.238,150.09 126.5,153.5C 126.827,144.318 126.493,135.318 125.5,126.5C 128.253,121.992 131.253,117.659 134.5,113.5 Z"/></g>
<g><path style="opacity:0.986" fill="#c50511" d="M 101.5,146.5 C 101.5,136.833 101.5,127.167 101.5,117.5C 102.721,116.535 104.054,116.702 105.5,118C 109.024,121.025 112.691,123.858 116.5,126.5C 111.479,133.235 106.479,139.901 101.5,146.5 Z"/></g>
<g><path style="opacity:0.986" fill="#bf0612" d="M 101.5,117.5 C 101.5,127.167 101.5,136.833 101.5,146.5C 98.3975,151.052 95.0642,155.386 91.5,159.5C 91.5,150.167 91.5,140.833 91.5,131.5C 94.3453,126.473 97.6786,121.806 101.5,117.5 Z"/></g>
<g><path style="opacity:0.988" fill="#ea030d" d="M 161.5,121.5 C 162.493,130.318 162.827,139.318 162.5,148.5C 160.565,152.707 157.898,156.373 154.5,159.5C 154.5,149.833 154.5,140.167 154.5,130.5C 156.603,127.28 158.936,124.28 161.5,121.5 Z"/></g>
<g><path style="opacity:0.993" fill="#fc020b" d="M 179.5,209.5 C 179.5,184.167 179.5,158.833 179.5,133.5C 181.7,129.12 184.533,125.12 188,121.5C 188.5,150.831 188.667,180.165 188.5,209.5C 185.5,209.5 182.5,209.5 179.5,209.5 Z"/></g>
<g><path style="opacity:0.975" fill="#e2040e" d="M 298.5,127.5 C 298.5,131.167 298.5,134.833 298.5,138.5C 288.714,133.445 282.714,136.445 280.5,147.5C 282.598,158.494 288.598,161.494 298.5,156.5C 298.5,160.167 298.5,163.833 298.5,167.5C 288,171.166 279.5,168.5 273,159.5C 268.47,148.615 269.97,138.781 277.5,130C 284.108,125.269 291.108,124.435 298.5,127.5 Z"/></g>
<g><path style="opacity:0.99" fill="#f8030b" d="M 346.5,125.5 C 355.993,124.31 362.66,127.977 366.5,136.5C 363.889,137.38 361.222,138.046 358.5,138.5C 354.878,134.646 350.544,133.646 345.5,135.5C 344.253,137.006 344.253,138.506 345.5,140C 352.694,141.837 359.194,145.004 365,149.5C 368.671,157.88 366.504,164.046 358.5,168C 349.495,170.956 341.661,169.123 335,162.5C 333.872,160.655 333.372,158.655 333.5,156.5C 336.219,156.603 338.885,156.269 341.5,155.5C 345.509,160.639 350.342,161.639 356,158.5C 356.72,156.888 356.554,155.388 355.5,154C 350.023,152.396 344.689,150.396 339.5,148C 334.322,143.476 333.155,137.976 336,131.5C 339.069,128.554 342.569,126.554 346.5,125.5 Z"/></g>
<g><path style="opacity:0.971" fill="#ff020a" d="M 387.5,125.5 C 404.67,125.67 413.003,134.337 412.5,151.5C 401.813,151.168 391.146,151.501 380.5,152.5C 384.047,158.766 389.381,160.933 396.5,159C 398.344,157.818 400.177,156.651 402,155.5C 411.452,156.205 412.619,159.371 405.5,165C 394.729,171.55 384.563,170.716 375,162.5C 367.072,150.95 367.906,140.117 377.5,130C 380.815,128.17 384.149,126.67 387.5,125.5 Z M 390.5,134.5 C 396.016,135.181 400.016,138.014 402.5,143C 395.144,143.831 387.811,143.665 380.5,142.5C 382.417,137.902 385.751,135.235 390.5,134.5 Z"/></g>
<g><path style="opacity:0.991" fill="#d10510" d="M 125.5,126.5 C 126.493,135.318 126.827,144.318 126.5,153.5C 124.6,157.732 121.933,161.399 118.5,164.5C 118.5,154.833 118.5,145.167 118.5,135.5C 120.603,132.28 122.936,129.28 125.5,126.5 Z"/></g>
<g><path style="opacity:0.978" fill="#e9030d" d="M 298.5,167.5 C 298.5,163.833 298.5,160.167 298.5,156.5C 303.833,150.5 303.833,144.5 298.5,138.5C 298.5,134.833 298.5,131.167 298.5,127.5C 299.721,128.028 300.887,128.695 302,129.5C 302.483,128.552 302.649,127.552 302.5,126.5C 305.833,126.5 309.167,126.5 312.5,126.5C 312.5,140.5 312.5,154.5 312.5,168.5C 309.167,168.5 305.833,168.5 302.5,168.5C 302.649,167.448 302.483,166.448 302,165.5C 300.887,166.305 299.721,166.972 298.5,167.5 Z"/></g>
<g><path style="opacity:0.945" fill="#ef030d" d="M 319.5,126.5 C 322.833,126.5 326.167,126.5 329.5,126.5C 329.5,140.5 329.5,154.5 329.5,168.5C 326.167,168.5 322.833,168.5 319.5,168.5C 319.5,154.5 319.5,140.5 319.5,126.5 Z"/></g>
<g><path style="opacity:0.994" fill="#b80612" d="M 91.5,131.5 C 91.5,140.833 91.5,150.167 91.5,159.5C 89.0753,163.352 86.4086,167.019 83.5,170.5C 83.5,160.833 83.5,151.167 83.5,141.5C 85.697,137.762 88.3637,134.429 91.5,131.5 Z"/></g>
<g><path style="opacity:0.987" fill="#e4040e" d="M 154.5,130.5 C 154.5,140.167 154.5,149.833 154.5,159.5C 151.522,164.469 148.189,169.135 144.5,173.5C 143.833,164.5 143.167,155.5 142.5,146.5C 146.512,141.128 150.512,135.795 154.5,130.5 Z"/></g>
<g><path style="opacity:0.999" fill="#f6030c" d="M 179.5,133.5 C 179.5,158.833 179.5,184.167 179.5,209.5C 176.5,209.5 173.5,209.5 170.5,209.5C 170.5,188.167 170.5,166.833 170.5,145.5C 172.738,140.929 175.738,136.929 179.5,133.5 Z"/></g>
<g><path style="opacity:0.989" fill="#cb0510" d="M 118.5,135.5 C 118.5,145.167 118.5,154.833 118.5,164.5C 115.522,169.469 112.189,174.135 108.5,178.5C 108.827,168.985 108.494,159.652 107.5,150.5C 110.934,145.284 114.601,140.284 118.5,135.5 Z"/></g>
<g><path style="opacity:0.991" fill="#b20713" d="M 83.5,141.5 C 83.5,151.167 83.5,160.833 83.5,170.5C 80.5225,175.469 77.1892,180.135 73.5,184.5C 72.5064,175.348 72.1731,166.015 72.5,156.5C 75.8122,151.196 79.4788,146.196 83.5,141.5 Z"/></g>
<g><path style="opacity:0.987" fill="#dd040e" d="M 142.5,146.5 C 143.167,155.5 143.833,164.5 144.5,173.5C 141.975,177.896 138.975,181.896 135.5,185.5C 135.5,175.833 135.5,166.167 135.5,156.5C 137.833,153.167 140.167,149.833 142.5,146.5 Z"/></g>
<g><path style="opacity:0.998" fill="#c50511" d="M 107.5,150.5 C 108.494,159.652 108.827,168.985 108.5,178.5C 106.518,181.81 104.185,184.81 101.5,187.5C 101.827,177.985 101.494,168.652 100.5,159.5C 103.086,156.642 105.42,153.642 107.5,150.5 Z"/></g>
<g><path style="opacity:0.985" fill="#ab0714" d="M 72.5,156.5 C 72.1731,166.015 72.5064,175.348 73.5,184.5C 70.4975,188.343 67.6641,192.343 65,196.5C 64.3333,186.167 64.3333,175.833 65,165.5C 67.5184,162.429 70.0184,159.429 72.5,156.5 Z"/></g>
<g><path style="opacity:0.988" fill="#d7040f" d="M 135.5,156.5 C 135.5,166.167 135.5,175.833 135.5,185.5C 133.238,190.09 130.238,194.09 126.5,197.5C 126.5,187.833 126.5,178.167 126.5,168.5C 129.512,164.462 132.512,160.462 135.5,156.5 Z"/></g>
<g><path style="opacity:0.987" fill="#bf0612" d="M 100.5,159.5 C 101.494,168.652 101.827,177.985 101.5,187.5C 98.1878,192.804 94.5212,197.804 90.5,202.5C 90.5,192.833 90.5,183.167 90.5,173.5C 93.8333,168.833 97.1667,164.167 100.5,159.5 Z"/></g>
<g><path style="opacity:0.991" fill="#d10610" d="M 126.5,168.5 C 126.5,178.167 126.5,187.833 126.5,197.5C 124.656,201.192 122.323,204.525 119.5,207.5C 118.506,198.348 118.173,189.015 118.5,179.5C 120.934,175.618 123.601,171.952 126.5,168.5 Z"/></g>
<g><path style="opacity:0.995" fill="#b80613" d="M 90.5,173.5 C 90.5,183.167 90.5,192.833 90.5,202.5C 89.0258,206.314 86.3591,208.648 82.5,209.5C 82.8257,201.316 82.4924,193.316 81.5,185.5C 84.5116,181.462 87.5116,177.462 90.5,173.5 Z"/></g>
<g><path style="opacity:0.942" fill="#ae0713" d="M 222.5,177.5 C 223.822,177.33 224.989,177.663 226,178.5C 228.422,182.344 231.089,186.01 234,189.5C 236.422,185.656 239.089,181.99 242,178.5C 243.011,177.663 244.178,177.33 245.5,177.5C 245.828,182.875 245.495,188.208 244.5,193.5C 243.672,189.204 243.172,184.871 243,180.5C 240.682,184.809 237.682,188.475 234,191.5C 230.7,188.528 227.7,185.195 225,181.5C 224.827,185.541 224.327,189.541 223.5,193.5C 222.505,188.208 222.172,182.875 222.5,177.5 Z"/></g>
<g><path style="opacity:0.853" fill="#c50511" d="M 285.5,177.5 C 291.206,177.171 296.872,177.505 302.5,178.5C 297.544,179.494 292.544,179.827 287.5,179.5C 287.5,181.5 287.5,183.5 287.5,185.5C 306.167,186.167 306.167,186.833 287.5,187.5C 287.799,189.604 287.466,191.604 286.5,193.5C 285.505,188.208 285.172,182.875 285.5,177.5 Z"/></g>
<g><path style="opacity:0.933" fill="#dd040e" d="M 337.5,177.5 C 339.783,177.608 341.783,178.441 343.5,180C 347.239,183.617 351.072,187.117 355,190.5C 355.172,186.129 355.672,181.796 356.5,177.5C 357.495,182.792 357.828,188.125 357.5,193.5C 356.448,193.649 355.448,193.483 354.5,193C 349.667,188.833 344.833,184.667 340,180.5C 339.828,184.871 339.328,189.204 338.5,193.5C 337.505,188.208 337.172,182.875 337.5,177.5 Z"/></g>
<g><path style="opacity:0.952" fill="#e8040d" d="M 363.5,177.5 C 368.511,177.334 373.511,177.501 378.5,178C 383.224,180.435 384.724,184.269 383,189.5C 381.786,191.049 380.286,192.215 378.5,193C 373.511,193.499 368.511,193.666 363.5,193.5C 363.5,188.167 363.5,182.833 363.5,177.5 Z M 366.5,179.5 C 370.182,179.335 373.848,179.501 377.5,180C 382.833,183.667 382.833,187.333 377.5,191C 373.848,191.499 370.182,191.665 366.5,191.5C 366.5,187.5 366.5,183.5 366.5,179.5 Z"/></g>
<g><path style="opacity:0.9" fill="#f2030c" d="M 397.5,176.5 C 402.275,176.421 406.775,177.421 411,179.5C 411.051,183.191 409.884,183.358 407.5,180C 402.833,178 398.167,178 393.5,180C 392.167,181 392.167,182 393.5,183C 398.853,183.908 404.187,184.908 409.5,186C 411.602,187.733 411.935,189.733 410.5,192C 403.321,195.559 396.488,195.059 390,190.5C 389.409,189.517 389.743,188.85 391,188.5C 397.005,193.538 403.172,193.705 409.5,189C 402.995,187.258 396.495,185.425 390,183.5C 389.28,181.888 389.446,180.388 390.5,179C 392.927,178.098 395.26,177.264 397.5,176.5 Z"/></g>
<g><path style="opacity:0.968" fill="#b80612" d="M 247.5,178.5 C 248.251,177.427 249.251,177.26 250.5,178C 253.016,180.683 255.683,183.183 258.5,185.5C 272.199,174.681 272.699,175.347 260,187.5C 259.808,189.577 259.308,191.577 258.5,193.5C 256.776,187.105 253.11,182.105 247.5,178.5 Z"/></g>
<g><path style="opacity:0.973" fill="#cb0510" d="M 118.5,179.5 C 118.173,189.015 118.506,198.348 119.5,207.5C 119.389,208.117 119.056,208.617 118.5,209C 115.183,209.498 111.85,209.665 108.5,209.5C 108.5,204.167 108.5,198.833 108.5,193.5C 111.453,188.55 114.786,183.883 118.5,179.5 Z"/></g>
<g><path style="opacity:0.986" fill="#b10714" d="M 81.5,185.5 C 82.4924,193.316 82.8257,201.316 82.5,209.5C 76.4632,209.829 70.4632,209.496 64.5,208.5C 69.9437,200.588 75.6104,192.921 81.5,185.5 Z"/></g>
<g><path style="opacity:0.95" fill="#db050f" d="M 146.5,189.5 C 144.601,195.882 143.934,202.549 144.5,209.5C 137.159,209.666 129.826,209.5 122.5,209C 127.359,202.975 132.025,196.809 136.5,190.5C 139.768,189.513 143.102,189.18 146.5,189.5 Z"/></g>
<g><path style="opacity:0.874" fill="#d1050f" d="M 310.5,177.5 C 312.127,181.484 313.294,185.818 314,190.5C 326.22,194.957 331.72,190.624 330.5,177.5C 333.936,192.157 328.269,197.324 313.5,193C 312.667,192.167 311.833,191.333 311,190.5C 310.501,186.179 310.334,181.846 310.5,177.5 Z"/></g>
<g><path style="opacity:0.979" fill="#e4040d" d="M 146.5,189.5 C 150.5,189.5 154.5,189.5 158.5,189.5C 157.432,190.434 156.099,190.768 154.5,190.5C 154.209,196.923 154.542,203.256 155.5,209.5C 151.833,209.5 148.167,209.5 144.5,209.5C 143.934,202.549 144.601,195.882 146.5,189.5 Z"/></g>
<g><path style="opacity:0.975" fill="#ee040c" d="M 170.5,145.5 C 170.5,166.833 170.5,188.167 170.5,209.5C 165.5,209.5 160.5,209.5 155.5,209.5C 154.542,203.256 154.209,196.923 154.5,190.5C 156.099,190.768 157.432,190.434 158.5,189.5C 162.167,189.5 165.833,189.5 169.5,189.5C 169.171,174.657 169.504,159.99 170.5,145.5 Z"/></g>
<g><path style="opacity:0.989" fill="#c40612" d="M 108.5,193.5 C 108.5,198.833 108.5,204.167 108.5,209.5C 104.486,209.666 100.486,209.499 96.5,209C 100.364,203.648 104.364,198.481 108.5,193.5 Z"/></g>
</svg>
