<?xml version="1.0" encoding="UTF-8"?>
<!DOCTYPE svg PUBLIC "-//W3C//DTD SVG 1.1//EN" "http://www.w3.org/Graphics/SVG/1.1/DTD/svg11.dtd">
<svg xmlns="http://www.w3.org/2000/svg" version="1.1" width="267px" height="189px" style="shape-rendering:geometricPrecision; text-rendering:geometricPrecision; image-rendering:optimizeQuality; fill-rule:evenodd; clip-rule:evenodd" xmlns:xlink="http://www.w3.org/1999/xlink">
<g><path style="opacity:1" fill="#1e1b1a" d="M -0.5,-0.5 C 18.1667,-0.5 36.8333,-0.5 55.5,-0.5C 53.4498,2.05768 51.1165,4.55768 48.5,7C 44.4886,7.16626 43.9886,7.9996 47,9.5C 47.6667,10.1667 47.6667,10.8333 47,11.5C 44.8441,8.93874 42.6774,8.93874 40.5,11.5C 39.2921,10.7659 37.9587,10.4326 36.5,10.5C 33.5784,8.46882 30.2451,7.30215 26.5,7C 17.4919,6.55222 8.49187,6.05222 -0.5,5.5C -0.5,3.5 -0.5,1.5 -0.5,-0.5 Z"/></g>
<g><path style="opacity:1" fill="#0e0c0c" d="M 199.5,-0.5 C 208.833,-0.5 218.167,-0.5 227.5,-0.5C 227.5,2.16667 227.5,4.83333 227.5,7.5C 228.833,7.5 230.167,7.5 231.5,7.5C 231.5,10.1667 231.5,12.8333 231.5,15.5C 232.833,15.5 234.167,15.5 235.5,15.5C 235.5,20.8333 235.5,26.1667 235.5,31.5C 234.909,32.1515 234.243,32.8182 233.5,33.5C 233.833,33.8333 234.167,34.1667 234.5,34.5C 236.759,34.2155 238.426,33.2155 239.5,31.5C 241.833,32.1667 244.167,32.8333 246.5,33.5C 246.634,35.2915 246.301,36.9582 245.5,38.5C 244.778,38.9175 244.278,39.5842 244,40.5C 242.473,35.3181 239.306,33.8181 234.5,36C 233.236,37.8606 232.236,39.8606 231.5,42C 232.555,43.5072 233.555,45.0072 234.5,46.5C 234.5,48.1667 234.5,49.8333 234.5,51.5C 232.066,49.2509 229.399,47.0843 226.5,45C 222.812,43.4873 219.145,41.9873 215.5,40.5C 216.919,39.5489 218.585,39.2155 220.5,39.5C 221.117,33.0427 220.117,26.876 217.5,21C 216.518,19.9456 215.351,19.4456 214,19.5C 210.142,11.9802 205.308,5.31353 199.5,-0.5 Z"/></g>
<g><path style="opacity:1" fill="#030202" d="M 227.5,-0.5 C 240.5,-0.5 253.5,-0.5 266.5,-0.5C 266.5,14.1667 266.5,28.8333 266.5,43.5C 260.896,44.1402 255.896,46.1402 251.5,49.5C 249.661,48.2475 247.828,48.2475 246,49.5C 245.852,47.0946 246.352,44.7613 247.5,42.5C 247.561,40.279 246.895,39.9456 245.5,41.5C 245.5,40.5 245.5,39.5 245.5,38.5C 246.301,36.9582 246.634,35.2915 246.5,33.5C 244.167,32.8333 241.833,32.1667 239.5,31.5C 238.167,31.5 236.833,31.5 235.5,31.5C 235.5,26.1667 235.5,20.8333 235.5,15.5C 234.167,15.5 232.833,15.5 231.5,15.5C 231.5,12.8333 231.5,10.1667 231.5,7.5C 230.167,7.5 228.833,7.5 227.5,7.5C 227.5,4.83333 227.5,2.16667 227.5,-0.5 Z"/></g>
<g><path style="opacity:1" fill="#1c1a1a" d="M 179.5,-0.5 C 186.167,-0.5 192.833,-0.5 199.5,-0.5C 205.308,5.31353 210.142,11.9802 214,19.5C 215.351,19.4456 216.518,19.9456 217.5,21C 220.117,26.876 221.117,33.0427 220.5,39.5C 218.585,39.2155 216.919,39.5489 215.5,40.5C 212.681,40.1312 209.848,39.7978 207,39.5C 205.014,39.5687 203.514,40.2353 202.5,41.5C 201.549,40.0813 201.216,38.4147 201.5,36.5C 201.478,29.1555 199.145,22.4888 194.5,16.5C 193.675,15.6143 192.675,15.281 191.5,15.5C 191.66,13.8008 191.494,12.1341 191,10.5C 186.591,7.25402 182.758,3.58736 179.5,-0.5 Z"/></g>
<g><path style="opacity:1" fill="#aa1c01" d="M -0.5,5.5 C 8.49187,6.05222 17.4919,6.55222 26.5,7C 30.2451,7.30215 33.5784,8.46882 36.5,10.5C 32.257,10.9392 27.9237,10.9392 23.5,10.5C 22.4573,14.5136 19.7906,16.1803 15.5,15.5C 15.5,17.5 15.5,19.5 15.5,21.5C 13.2017,22.3103 10.8684,23.1436 8.5,24C 13.7279,24.2956 18.7279,25.1289 23.5,26.5C 15.5173,25.8345 7.51728,25.5012 -0.5,25.5C -0.5,18.8333 -0.5,12.1667 -0.5,5.5 Z"/></g>
<g><path style="opacity:1" fill="#2f2726" d="M 151.5,-0.5 C 160.833,-0.5 170.167,-0.5 179.5,-0.5C 182.758,3.58736 186.591,7.25402 191,10.5C 191.494,12.1341 191.66,13.8008 191.5,15.5C 192.675,15.281 193.675,15.6143 194.5,16.5C 199.145,22.4888 201.478,29.1555 201.5,36.5C 200.833,36.5 200.167,36.5 199.5,36.5C 194.087,35.8092 191.421,38.1426 191.5,43.5C 191.158,42.6618 190.492,42.3284 189.5,42.5C 190.222,36.157 189.222,30.157 186.5,24.5C 182.928,21.0966 179.928,17.2633 177.5,13C 176.181,12.805 174.847,12.9717 173.5,13.5C 172.19,10.5268 170.19,8.19347 167.5,6.5C 163.082,5.02054 158.415,4.02054 153.5,3.5C 152.147,2.4763 151.48,1.14297 151.5,-0.5 Z"/></g>
<g><path style="opacity:1" fill="#373231" d="M 55.5,-0.5 C 60.8333,-0.5 66.1667,-0.5 71.5,-0.5C 71.0472,0.458367 70.3805,1.2917 69.5,2C 70.9301,4.05466 72.2634,6.22133 73.5,8.5C 71.8267,10.5225 71.1601,12.8559 71.5,15.5C 70.0222,15.238 68.6888,15.5713 67.5,16.5C 65.8243,20.007 63.3243,22.6736 60,24.5C 59.0006,28.8004 58.5006,33.1337 58.5,37.5C 56.8333,33.5 55.1667,29.5 53.5,25.5C 51.9866,22.4756 49.9866,19.8089 47.5,17.5C 45.1667,15.5 42.8333,13.5 40.5,11.5C 42.6774,8.93874 44.8441,8.93874 47,11.5C 47.6667,10.8333 47.6667,10.1667 47,9.5C 43.9886,7.9996 44.4886,7.16626 48.5,7C 51.1165,4.55768 53.4498,2.05768 55.5,-0.5 Z"/></g>
<g><path style="opacity:1" fill="#68574f" d="M 93.5,-0.5 C 107.5,-0.5 121.5,-0.5 135.5,-0.5C 135.584,2.32736 136.25,4.99402 137.5,7.5C 135.78,9.65814 134.947,12.3248 135,15.5C 133.684,14.0257 132.684,12.359 132,10.5C 130.644,11.3802 129.144,11.7135 127.5,11.5C 127.5,15.5 127.5,19.5 127.5,23.5C 124.833,23.5 122.167,23.5 119.5,23.5C 119.5,22.5 119.5,21.5 119.5,20.5C 116.833,20.5 114.167,20.5 111.5,20.5C 111.719,21.675 111.386,22.675 110.5,23.5C 109.52,20.9135 109.187,18.2469 109.5,15.5C 106.5,15.5 103.5,15.5 100.5,15.5C 100.223,12.5525 100.556,9.71914 101.5,7C 99.8925,7.01872 98.2259,7.18539 96.5,7.5C 96.6641,10.1873 96.4974,12.854 96,15.5C 94.8407,10.202 94.0074,4.86866 93.5,-0.5 Z"/></g>
<g><path style="opacity:1" fill="#514842" d="M 135.5,-0.5 C 140.833,-0.5 146.167,-0.5 151.5,-0.5C 151.48,1.14297 152.147,2.4763 153.5,3.5C 158.415,4.02054 163.082,5.02054 167.5,6.5C 164.998,6.25053 162.498,5.91719 160,5.5C 157.822,5.3948 155.988,6.06146 154.5,7.5C 149.737,12.9782 149.237,18.9782 153,25.5C 157.265,29.2529 162.098,30.2529 167.5,28.5C 165.883,29.9723 163.883,30.639 161.5,30.5C 157.957,30.4928 154.79,29.4928 152,27.5C 151.667,29.0468 152.167,30.3801 153.5,31.5C 151.277,34.9259 151.944,35.2592 155.5,32.5C 156.308,32.8076 156.975,33.3076 157.5,34C 156.142,34.9344 154.808,35.7677 153.5,36.5C 152.504,36.4142 151.671,36.7476 151,37.5C 150.185,39.6228 149.185,41.6228 148,43.5C 147.235,45.0657 147.402,46.3991 148.5,47.5C 148.5,48.8333 149.167,49.5 150.5,49.5C 150.5,50.1667 150.5,50.8333 150.5,51.5C 150.5,52.1667 150.5,52.8333 150.5,53.5C 148.046,55.0598 145.38,56.0598 142.5,56.5C 142.5,50.8333 142.5,45.1667 142.5,39.5C 136.167,39.5 129.833,39.5 123.5,39.5C 123.771,37.6203 123.104,36.287 121.5,35.5C 119.167,35.5 116.833,35.5 114.5,35.5C 114.167,35.5 113.833,35.5 113.5,35.5C 113.217,34.7109 112.717,34.0442 112,33.5C 111.107,34.7112 110.274,34.7112 109.5,33.5C 110.833,33.1667 112.167,32.8333 113.5,32.5C 116.833,33.1667 120.167,33.8333 123.5,34.5C 128.557,33.8531 133.557,32.8531 138.5,31.5C 138.832,26.1718 139.166,20.8384 139.5,15.5C 139.478,12.4098 138.812,9.74317 137.5,7.5C 136.25,4.99402 135.584,2.32736 135.5,-0.5 Z"/></g>
<g><path style="opacity:1" fill="#e93411" d="M 167.5,6.5 C 170.19,8.19347 172.19,10.5268 173.5,13.5C 174.684,19.7711 172.684,24.4377 167.5,27.5C 164.753,27.8134 162.086,27.48 159.5,26.5C 160.376,25.7492 161.376,25.2492 162.5,25C 160.866,24.5065 159.199,24.3398 157.5,24.5C 157.301,19.5047 155.968,14.838 153.5,10.5C 154.127,9.58317 154.461,8.58317 154.5,7.5C 155.988,6.06146 157.822,5.3948 160,5.5C 162.498,5.91719 164.998,6.25053 167.5,6.5 Z"/></g>
<g><path style="opacity:1" fill="#be2003" d="M 36.5,10.5 C 37.9587,10.4326 39.2921,10.7659 40.5,11.5C 42.8333,13.5 45.1667,15.5 47.5,17.5C 47.067,20.1656 46.567,22.8323 46,25.5C 45.3292,24.7476 44.4959,24.4142 43.5,24.5C 43.1583,23.6618 42.4916,23.3284 41.5,23.5C 35.6888,19.816 32.3555,21.4826 31.5,28.5C 30.1667,28.5 28.8333,28.5 27.5,28.5C 26.1667,27.8333 24.8333,27.1667 23.5,26.5C 18.7279,25.1289 13.7279,24.2956 8.5,24C 10.8684,23.1436 13.2017,22.3103 15.5,21.5C 15.5,19.5 15.5,17.5 15.5,15.5C 19.7906,16.1803 22.4573,14.5136 23.5,10.5C 27.9237,10.9392 32.257,10.9392 36.5,10.5 Z"/></g>
<g><path style="opacity:1" fill="#494442" d="M 71.5,-0.5 C 75.8333,-0.5 80.1667,-0.5 84.5,-0.5C 84.0193,2.4552 82.5193,4.78853 80,6.5C 79.7822,9.42621 79.2822,12.2595 78.5,15C 79.4438,17.7191 79.7771,20.5525 79.5,23.5C 83.0794,23.7657 83.4127,25.099 80.5,27.5C 79.5258,29.7427 79.1924,32.076 79.5,34.5C 82.3297,34.6941 84.9963,35.3608 87.5,36.5C 84.1486,37.6702 80.8153,39.1702 77.5,41C 79.0581,41.21 80.3915,41.71 81.5,42.5C 79.0504,42.298 76.717,42.6314 74.5,43.5C 65.925,49.273 60.2583,57.273 57.5,67.5C 56.6223,63.6643 55.9557,59.6643 55.5,55.5C 57.938,49.871 58.938,43.871 58.5,37.5C 58.5006,33.1337 59.0006,28.8004 60,24.5C 63.3243,22.6736 65.8243,20.007 67.5,16.5C 68.6888,15.5713 70.0222,15.238 71.5,15.5C 71.1601,12.8559 71.8267,10.5225 73.5,8.5C 72.2634,6.22133 70.9301,4.05466 69.5,2C 70.3805,1.2917 71.0472,0.458367 71.5,-0.5 Z"/></g>
<g><path style="opacity:1" fill="#eb483e" d="M 154.5,7.5 C 154.461,8.58317 154.127,9.58317 153.5,10.5C 155.968,14.838 157.301,19.5047 157.5,24.5C 159.199,24.3398 160.866,24.5065 162.5,25C 161.376,25.2492 160.376,25.7492 159.5,26.5C 162.086,27.48 164.753,27.8134 167.5,27.5C 167.5,27.8333 167.5,28.1667 167.5,28.5C 162.098,30.2529 157.265,29.2529 153,25.5C 149.237,18.9782 149.737,12.9782 154.5,7.5 Z"/></g>
<g><path style="opacity:1" fill="#3a3330" d="M 189.5,42.5 C 182.384,46.2191 178.051,52.0524 176.5,60C 176.514,61.3847 176.848,62.5514 177.5,63.5C 177.688,65.1033 177.188,66.4366 176,67.5C 174.619,65.3651 173.619,63.0318 173,60.5C 171.348,59.6006 169.848,58.6006 168.5,57.5C 169.167,57.5 169.833,57.5 170.5,57.5C 171.49,51.69 171.823,45.69 171.5,39.5C 168.833,39.5 166.167,39.5 163.5,39.5C 161.824,40.1834 161.157,41.5168 161.5,43.5C 159.608,39.8316 156.608,38.6649 152.5,40C 150.46,42.1851 149.126,44.6851 148.5,47.5C 147.402,46.3991 147.235,45.0657 148,43.5C 149.185,41.6228 150.185,39.6228 151,37.5C 151.671,36.7476 152.504,36.4142 153.5,36.5C 154.808,35.7677 156.142,34.9344 157.5,34C 156.975,33.3076 156.308,32.8076 155.5,32.5C 151.944,35.2592 151.277,34.9259 153.5,31.5C 152.167,30.3801 151.667,29.0468 152,27.5C 154.79,29.4928 157.957,30.4928 161.5,30.5C 163.883,30.639 165.883,29.9723 167.5,28.5C 167.5,28.1667 167.5,27.8333 167.5,27.5C 172.684,24.4377 174.684,19.7711 173.5,13.5C 174.847,12.9717 176.181,12.805 177.5,13C 179.928,17.2633 182.928,21.0966 186.5,24.5C 189.222,30.157 190.222,36.157 189.5,42.5 Z"/></g>
<g><path style="opacity:1" fill="#5d534d" d="M 84.5,-0.5 C 87.5,-0.5 90.5,-0.5 93.5,-0.5C 94.0074,4.86866 94.8407,10.202 96,15.5C 96.4974,12.854 96.6641,10.1873 96.5,7.5C 98.2259,7.18539 99.8925,7.01872 101.5,7C 100.556,9.71914 100.223,12.5525 100.5,15.5C 103.5,15.5 106.5,15.5 109.5,15.5C 109.187,18.2469 109.52,20.9135 110.5,23.5C 111.386,22.675 111.719,21.675 111.5,20.5C 114.167,20.5 116.833,20.5 119.5,20.5C 119.5,21.5 119.5,22.5 119.5,23.5C 122.167,23.5 124.833,23.5 127.5,23.5C 127.5,19.5 127.5,15.5 127.5,11.5C 129.144,11.7135 130.644,11.3802 132,10.5C 132.684,12.359 133.684,14.0257 135,15.5C 134.947,12.3248 135.78,9.65814 137.5,7.5C 138.812,9.74317 139.478,12.4098 139.5,15.5C 139.166,20.8384 138.832,26.1718 138.5,31.5C 133.557,32.8531 128.557,33.8531 123.5,34.5C 120.167,33.8333 116.833,33.1667 113.5,32.5C 112.167,32.8333 110.833,33.1667 109.5,33.5C 110.274,34.7112 111.107,34.7112 112,33.5C 112.717,34.0442 113.217,34.7109 113.5,35.5C 112.833,36.8333 112.167,38.1667 111.5,39.5C 103.764,36.8464 95.7639,35.8464 87.5,36.5C 84.9963,35.3608 82.3297,34.6941 79.5,34.5C 79.1924,32.076 79.5258,29.7427 80.5,27.5C 83.4127,25.099 83.0794,23.7657 79.5,23.5C 79.7771,20.5525 79.4438,17.7191 78.5,15C 79.2822,12.2595 79.7822,9.42621 80,6.5C 82.5193,4.78853 84.0193,2.4552 84.5,-0.5 Z"/></g>
<g><path style="opacity:1" fill="#231007" d="M 41.5,23.5 C 42.4916,23.3284 43.1583,23.6618 43.5,24.5C 44.1667,26.5 44.8333,28.5 45.5,30.5C 42.9321,28.9726 41.5988,26.6393 41.5,23.5 Z"/></g>
<g><path style="opacity:1" fill="#180b08" d="M 41.5,23.5 C 34.2692,23.2167 33.9359,24.0501 40.5,26C 37.7356,26.0058 35.7356,27.1725 34.5,29.5C 33.5084,29.3284 32.8417,29.6618 32.5,30.5C 31.6618,30.1583 31.3284,29.4916 31.5,28.5C 32.3555,21.4826 35.6888,19.816 41.5,23.5 Z"/></g>
<g><path style="opacity:1" fill="#272727" d="M -0.5,25.5 C 7.51728,25.5012 15.5173,25.8345 23.5,26.5C 24.8333,27.1667 26.1667,27.8333 27.5,28.5C 29.281,31.272 30.6143,34.272 31.5,37.5C 31.5,38.1667 31.5,38.8333 31.5,39.5C 31.1667,40.1667 30.8333,40.8333 30.5,41.5C 24.4476,41.301 19.2809,43.301 15,47.5C 13.4064,51.4452 11.9064,55.4452 10.5,59.5C 6.83333,59.5 3.16667,59.5 -0.5,59.5C -0.5,48.1667 -0.5,36.8333 -0.5,25.5 Z"/></g>
<g><path style="opacity:1" fill="#ab6146" d="M 41.5,23.5 C 41.5988,26.6393 42.9321,28.9726 45.5,30.5C 44.6586,32.3792 44.3253,34.3792 44.5,36.5C 43.3934,38.7658 41.56,40.0991 39,40.5C 36.5773,39.3743 34.0773,38.3743 31.5,37.5C 30.6143,34.272 29.281,31.272 27.5,28.5C 28.8333,28.5 30.1667,28.5 31.5,28.5C 31.3284,29.4916 31.6618,30.1583 32.5,30.5C 32.2011,32.604 32.5344,34.604 33.5,36.5C 34.935,34.5989 36.6017,34.2655 38.5,35.5C 39.4287,34.3112 39.762,32.9778 39.5,31.5C 37.4471,31.5979 35.7804,30.9313 34.5,29.5C 35.7356,27.1725 37.7356,26.0058 40.5,26C 33.9359,24.0501 34.2692,23.2167 41.5,23.5 Z"/></g>
<g><path style="opacity:1" fill="#871b0f" d="M 235.5,31.5 C 236.833,31.5 238.167,31.5 239.5,31.5C 238.426,33.2155 236.759,34.2155 234.5,34.5C 234.167,34.1667 233.833,33.8333 233.5,33.5C 234.243,32.8182 234.909,32.1515 235.5,31.5 Z"/></g>
<g><path style="opacity:1" fill="#d3957f" d="M 34.5,29.5 C 35.7804,30.9313 37.4471,31.5979 39.5,31.5C 39.762,32.9778 39.4287,34.3112 38.5,35.5C 36.6017,34.2655 34.935,34.5989 33.5,36.5C 32.5344,34.604 32.2011,32.604 32.5,30.5C 32.8417,29.6618 33.5084,29.3284 34.5,29.5 Z"/></g>
<g><path style="opacity:1" fill="#d54c4a" d="M 53.5,25.5 C 55.1667,29.5 56.8333,33.5 58.5,37.5C 58.938,43.871 57.938,49.871 55.5,55.5C 55.8563,52.4359 55.0229,49.7693 53,47.5C 49.7907,45.7232 46.624,44.0565 43.5,42.5C 45.2624,42.3573 46.9291,42.6906 48.5,43.5C 48.8333,43.3333 49.1667,43.1667 49.5,43C 45.755,40.5038 46.4217,39.3371 51.5,39.5C 51.3961,34.6942 52.0628,30.0275 53.5,25.5 Z"/></g>
<g><path style="opacity:1" fill="#1d0f07" d="M 113.5,35.5 C 113.833,35.5 114.167,35.5 114.5,35.5C 115.152,36.7251 116.319,37.3917 118,37.5C 119.681,37.3917 120.848,36.7251 121.5,35.5C 123.104,36.287 123.771,37.6203 123.5,39.5C 123.5,39.8333 123.5,40.1667 123.5,40.5C 123.631,41.2389 123.464,41.9056 123,42.5C 122.8,40.6803 121.966,39.347 120.5,38.5C 116.888,37.9238 113.888,38.9238 111.5,41.5C 111.5,40.8333 111.5,40.1667 111.5,39.5C 112.167,38.1667 112.833,36.8333 113.5,35.5 Z"/></g>
<g><path style="opacity:1" fill="#b13414" d="M 114.5,35.5 C 116.833,35.5 119.167,35.5 121.5,35.5C 120.848,36.7251 119.681,37.3917 118,37.5C 116.319,37.3917 115.152,36.7251 114.5,35.5 Z"/></g>
<g><path style="opacity:1" fill="#ba2712" d="M 153.5,36.5 C 155.429,36.2308 157.095,36.7308 158.5,38C 156.5,38.6667 154.5,38.6667 152.5,38C 153.056,37.6174 153.389,37.1174 153.5,36.5 Z"/></g>
<g><path style="opacity:1" fill="#d53833" d="M 47.5,17.5 C 49.9866,19.8089 51.9866,22.4756 53.5,25.5C 52.0628,30.0275 51.3961,34.6942 51.5,39.5C 46.4217,39.3371 45.755,40.5038 49.5,43C 49.1667,43.1667 48.8333,43.3333 48.5,43.5C 46.9291,42.6906 45.2624,42.3573 43.5,42.5C 43.8333,40.5 44.1667,38.5 44.5,36.5C 44.3253,34.3792 44.6586,32.3792 45.5,30.5C 44.8333,28.5 44.1667,26.5 43.5,24.5C 44.4959,24.4142 45.3292,24.7476 46,25.5C 46.567,22.8323 47.067,20.1656 47.5,17.5 Z"/></g>
<g><path style="opacity:1" fill="#080606" d="M 30.5,41.5 C 33.0649,46.1153 36.7316,47.282 41.5,45C 42.2524,44.3292 42.5858,43.4959 42.5,42.5C 42.8333,42.5 43.1667,42.5 43.5,42.5C 46.624,44.0565 49.7907,45.7232 53,47.5C 55.0229,49.7693 55.8563,52.4359 55.5,55.5C 55.9557,59.6643 56.6223,63.6643 57.5,67.5C 57.7678,69.099 57.4345,70.4324 56.5,71.5C 54.2075,71.7564 52.0408,71.4231 50,70.5C 49.595,72.7749 50.095,74.7749 51.5,76.5C 51.5,80.5 51.5,84.5 51.5,88.5C 51.067,91.1656 50.567,93.8323 50,96.5C 49.6667,96.1667 49.3333,95.8333 49,95.5C 45.8655,96.8735 42.8655,98.5402 40,100.5C 35.9913,99.0458 31.8247,98.3792 27.5,98.5C 24.5176,98.0371 21.5176,97.7038 18.5,97.5C 18.5,94.1667 18.5,90.8333 18.5,87.5C 18.5,85.1667 18.5,82.8333 18.5,80.5C 18.5,76.8333 18.5,73.1667 18.5,69.5C 15.0314,69.4535 11.698,68.7868 8.5,67.5C 8.83333,66.1667 9.16667,64.8333 9.5,63.5C 11.6204,62.5967 11.9538,61.2633 10.5,59.5C 11.9064,55.4452 13.4064,51.4452 15,47.5C 19.2809,43.301 24.4476,41.301 30.5,41.5 Z"/></g>
<g><path style="opacity:1" fill="#5f2a13" d="M 44.5,36.5 C 44.1667,38.5 43.8333,40.5 43.5,42.5C 43.1667,42.5 42.8333,42.5 42.5,42.5C 42.5654,42.0618 42.3988,41.7284 42,41.5C 41,42.1667 40,42.8333 39,43.5C 36.2393,42.538 33.7393,41.2046 31.5,39.5C 31.5,38.8333 31.5,38.1667 31.5,37.5C 34.0773,38.3743 36.5773,39.3743 39,40.5C 41.56,40.0991 43.3934,38.7658 44.5,36.5 Z"/></g>
<g><path style="opacity:1" fill="#a9644a" d="M 245.5,38.5 C 245.5,39.5 245.5,40.5 245.5,41.5C 244.883,41.6107 244.383,41.944 244,42.5C 243.259,45.562 243.425,48.562 244.5,51.5C 244.145,52.5223 243.478,53.189 242.5,53.5C 242.5,51.5 242.5,49.5 242.5,47.5C 239.721,47.7214 237.054,47.388 234.5,46.5C 233.555,45.0072 232.555,43.5072 231.5,42C 232.236,39.8606 233.236,37.8606 234.5,36C 239.306,33.8181 242.473,35.3181 244,40.5C 244.278,39.5842 244.778,38.9175 245.5,38.5 Z"/></g>
<g><path style="opacity:1" fill="#b57f61" d="M 31.5,39.5 C 33.7393,41.2046 36.2393,42.538 39,43.5C 40,42.8333 41,42.1667 42,41.5C 42.3988,41.7284 42.5654,42.0618 42.5,42.5C 42.5858,43.4959 42.2524,44.3292 41.5,45C 36.7316,47.282 33.0649,46.1153 30.5,41.5C 30.8333,40.8333 31.1667,40.1667 31.5,39.5 Z"/></g>
<g><path style="opacity:1" fill="#b66b42" d="M 120.5,38.5 C 119.962,40.1172 119.629,41.7839 119.5,43.5C 120.5,43.5 121.5,43.5 122.5,43.5C 122.646,48.4367 121.646,49.1034 119.5,45.5C 119.089,46.2624 118.923,47.2624 119,48.5C 117.989,49.3366 116.822,49.67 115.5,49.5C 114.508,49.3284 113.842,49.6618 113.5,50.5C 111.882,47.8291 111.215,44.8291 111.5,41.5C 113.888,38.9238 116.888,37.9238 120.5,38.5 Z"/></g>
<g><path style="opacity:1" fill="#c67d59" d="M 161.5,43.5 C 161.552,45.9029 161.219,48.2362 160.5,50.5C 157.007,51.8939 153.674,51.5606 150.5,49.5C 149.167,49.5 148.5,48.8333 148.5,47.5C 149.126,44.6851 150.46,42.1851 152.5,40C 156.608,38.6649 159.608,39.8316 161.5,43.5 Z"/></g>
<g><path style="opacity:1" fill="#d68b65" d="M 199.5,36.5 C 201.152,40.4122 201.485,44.4122 200.5,48.5C 197.288,49.2296 194.288,49.2296 191.5,48.5C 190.506,46.6656 190.506,44.9989 191.5,43.5C 191.421,38.1426 194.087,35.8092 199.5,36.5 Z"/></g>
<g><path style="opacity:1" fill="#bf2f04" d="M 215.5,40.5 C 219.145,41.9873 222.812,43.4873 226.5,45C 229.399,47.0843 232.066,49.2509 234.5,51.5C 234.167,52.1667 233.833,52.8333 233.5,53.5C 230.314,53.8954 227.314,54.8954 224.5,56.5C 223.312,58.9885 221.979,61.3218 220.5,63.5C 219.591,61.6253 218.257,60.292 216.5,59.5C 212.847,56.2529 208.514,53.9195 203.5,52.5C 203.31,48.8658 202.977,45.1991 202.5,41.5C 203.514,40.2353 205.014,39.5687 207,39.5C 209.848,39.7978 212.681,40.1312 215.5,40.5 Z"/></g>
<g><path style="opacity:1" fill="#881d03" d="M 266.5,43.5 C 266.5,49.1667 266.5,54.8333 266.5,60.5C 263.101,60.8821 260.434,62.5488 258.5,65.5C 257.347,62.5539 256.347,59.5539 255.5,56.5C 253.5,55.1667 251.5,53.8333 249.5,52.5C 250.193,51.4822 250.859,50.4822 251.5,49.5C 255.896,46.1402 260.896,44.1402 266.5,43.5 Z"/></g>
<g><path style="opacity:1" fill="#ea93a0" d="M 87.5,36.5 C 95.7639,35.8464 103.764,36.8464 111.5,39.5C 111.5,40.1667 111.5,40.8333 111.5,41.5C 111.215,44.8291 111.882,47.8291 113.5,50.5C 113.5,51.1667 113.5,51.8333 113.5,52.5C 112.508,52.3284 111.842,52.6618 111.5,53.5C 108.673,53.5838 106.006,54.2504 103.5,55.5C 99.4183,55.3436 95.4183,55.8436 91.5,57C 89.4156,57.6972 87.7489,58.8639 86.5,60.5C 85.5386,58.7354 85.2053,56.7354 85.5,54.5C 85.5,53.8333 85.5,53.1667 85.5,52.5C 86.0431,52.44 86.3764,52.1067 86.5,51.5C 85.7868,49.2241 85.2868,46.8907 85,44.5C 83.8873,43.695 82.7206,43.0283 81.5,42.5C 80.3915,41.71 79.0581,41.21 77.5,41C 80.8153,39.1702 84.1486,37.6702 87.5,36.5 Z"/></g>
<g><path style="opacity:1" fill="#78371a" d="M 120.5,38.5 C 121.966,39.347 122.8,40.6803 123,42.5C 123.464,41.9056 123.631,41.2389 123.5,40.5C 125.069,44.5062 124.402,48.1728 121.5,51.5C 121.631,50.6236 121.298,49.9569 120.5,49.5C 118.712,52.1087 117.045,52.1087 115.5,49.5C 116.822,49.67 117.989,49.3366 119,48.5C 118.923,47.2624 119.089,46.2624 119.5,45.5C 121.646,49.1034 122.646,48.4367 122.5,43.5C 121.5,43.5 120.5,43.5 119.5,43.5C 119.629,41.7839 119.962,40.1172 120.5,38.5 Z"/></g>
<g><path style="opacity:1" fill="#e1391b" d="M 163.5,39.5 C 165.607,40.4682 167.941,40.8016 170.5,40.5C 170.5,46.1667 170.5,51.8333 170.5,57.5C 169.833,57.5 169.167,57.5 168.5,57.5C 166.703,56.2702 164.703,55.6036 162.5,55.5C 162.5,54.8333 162.167,54.5 161.5,54.5C 161.5,53.8333 161.167,53.5 160.5,53.5C 160.5,52.5 160.5,51.5 160.5,50.5C 161.219,48.2362 161.552,45.9029 161.5,43.5C 161.157,41.5168 161.824,40.1834 163.5,39.5 Z"/></g>
<g><path style="opacity:1" fill="#833822" d="M 163.5,39.5 C 166.167,39.5 168.833,39.5 171.5,39.5C 171.823,45.69 171.49,51.69 170.5,57.5C 170.5,51.8333 170.5,46.1667 170.5,40.5C 167.941,40.8016 165.607,40.4682 163.5,39.5 Z"/></g>
<g><path style="opacity:1" fill="#e2737d" d="M 123.5,40.5 C 123.5,40.1667 123.5,39.8333 123.5,39.5C 129.833,39.5 136.167,39.5 142.5,39.5C 142.5,45.1667 142.5,50.8333 142.5,56.5C 140.734,58.7706 138.734,60.9373 136.5,63C 135.423,63.4696 134.423,63.3029 133.5,62.5C 131.376,58.4243 128.043,55.7577 123.5,54.5C 122.833,53.8333 122.167,53.1667 121.5,52.5C 121.5,52.1667 121.5,51.8333 121.5,51.5C 124.402,48.1728 125.069,44.5062 123.5,40.5 Z"/></g>
<g><path style="opacity:1" fill="#96512b" d="M 199.5,36.5 C 200.167,36.5 200.833,36.5 201.5,36.5C 201.216,38.4147 201.549,40.0813 202.5,41.5C 202.977,45.1991 203.31,48.8658 203.5,52.5C 201.801,54.0163 199.801,55.0163 197.5,55.5C 194.796,54.4278 192.13,53.4278 189.5,52.5C 190.806,51.5326 191.473,50.1993 191.5,48.5C 194.288,49.2296 197.288,49.2296 200.5,48.5C 201.485,44.4122 201.152,40.4122 199.5,36.5 Z"/></g>
<g><path style="opacity:1" fill="#170e07" d="M 115.5,49.5 C 117.045,52.1087 118.712,52.1087 120.5,49.5C 121.298,49.9569 121.631,50.6236 121.5,51.5C 121.5,51.8333 121.5,52.1667 121.5,52.5C 118.796,53.7143 116.129,53.7143 113.5,52.5C 113.5,51.8333 113.5,51.1667 113.5,50.5C 113.842,49.6618 114.508,49.3284 115.5,49.5 Z"/></g>
<g><path style="opacity:1" fill="#b78366" d="M 234.5,46.5 C 237.054,47.388 239.721,47.7214 242.5,47.5C 242.5,49.5 242.5,51.5 242.5,53.5C 239.379,56.0529 236.379,56.0529 233.5,53.5C 233.833,52.8333 234.167,52.1667 234.5,51.5C 234.5,49.8333 234.5,48.1667 234.5,46.5 Z"/></g>
<g><path style="opacity:1" fill="#c88154" d="M 79.5,49.5 C 80.2389,49.369 80.9056,49.5357 81.5,50C 80.6198,51.3561 80.2865,52.8561 80.5,54.5C 76.9007,54.2619 76.5673,55.2619 79.5,57.5C 78.1916,58.6256 76.8583,58.6256 75.5,57.5C 72.0945,52.4512 73.4279,49.7845 79.5,49.5 Z"/></g>
<g><path style="opacity:1" fill="#441d0c" d="M 150.5,49.5 C 153.674,51.5606 157.007,51.8939 160.5,50.5C 160.5,51.5 160.5,52.5 160.5,53.5C 156.346,56.6264 153.012,55.9598 150.5,51.5C 150.5,50.8333 150.5,50.1667 150.5,49.5 Z"/></g>
<g><path style="opacity:1" fill="#d92e0b" d="M 189.5,42.5 C 190.492,42.3284 191.158,42.6618 191.5,43.5C 190.506,44.9989 190.506,46.6656 191.5,48.5C 191.473,50.1993 190.806,51.5326 189.5,52.5C 183.269,53.7308 179.269,57.3975 177.5,63.5C 176.848,62.5514 176.514,61.3847 176.5,60C 178.051,52.0524 182.384,46.2191 189.5,42.5 Z"/></g>
<g><path style="opacity:1" fill="#a52609" d="M 41.5,54.5 C 44.4822,54.1044 47.1489,54.7711 49.5,56.5C 47.9255,57.6309 46.2588,57.7975 44.5,57C 42.8807,56.7645 41.8807,55.9311 41.5,54.5 Z"/></g>
<g><path style="opacity:1" fill="#9a4f22" d="M 79.5,49.5 C 81.1849,48.156 82.8516,48.3227 84.5,50C 82.1428,51.22 82.4761,52.0533 85.5,52.5C 85.5,53.1667 85.5,53.8333 85.5,54.5C 84.1667,54.5 83.5,55.1667 83.5,56.5C 81.0283,57.6421 80.0283,59.6421 80.5,62.5C 76.5,63.1667 74.8333,61.5 75.5,57.5C 76.8583,58.6256 78.1916,58.6256 79.5,57.5C 76.5673,55.2619 76.9007,54.2619 80.5,54.5C 80.2865,52.8561 80.6198,51.3561 81.5,50C 80.9056,49.5357 80.2389,49.369 79.5,49.5 Z"/></g>
<g><path style="opacity:1" fill="#be7646" d="M 113.5,52.5 C 116.129,53.7143 118.796,53.7143 121.5,52.5C 122.167,53.1667 122.833,53.8333 123.5,54.5C 119.972,56.4777 116.305,56.8111 112.5,55.5C 111.702,55.0431 111.369,54.3764 111.5,53.5C 111.842,52.6618 112.508,52.3284 113.5,52.5 Z"/></g>
<g><path style="opacity:1" fill="#bc7b4c" d="M 150.5,51.5 C 153.012,55.9598 156.346,56.6264 160.5,53.5C 161.167,53.5 161.5,53.8333 161.5,54.5C 159.1,57.2395 156.1,58.0729 152.5,57C 151.177,56.1841 150.511,55.0174 150.5,53.5C 150.5,52.8333 150.5,52.1667 150.5,51.5 Z"/></g>
<g><path style="opacity:1" fill="#0a0504" d="M 251.5,49.5 C 250.859,50.4822 250.193,51.4822 249.5,52.5C 251.5,53.8333 253.5,55.1667 255.5,56.5C 256.347,59.5539 257.347,62.5539 258.5,65.5C 260.434,62.5488 263.101,60.8821 266.5,60.5C 266.5,64.8333 266.5,69.1667 266.5,73.5C 262.833,73.5 259.167,73.5 255.5,73.5C 255.5,71.8333 255.5,70.1667 255.5,68.5C 250.762,67.9251 247.095,69.5917 244.5,73.5C 243.5,73.5 242.5,73.5 241.5,73.5C 236.309,72.213 230.976,71.213 225.5,70.5C 222.324,68.7271 220.657,69.7271 220.5,73.5C 220.167,73.5 219.833,73.5 219.5,73.5C 218.185,68.9054 217.185,64.2387 216.5,59.5C 218.257,60.292 219.591,61.6253 220.5,63.5C 221.979,61.3218 223.312,58.9885 224.5,56.5C 227.314,54.8954 230.314,53.8954 233.5,53.5C 236.379,56.0529 239.379,56.0529 242.5,53.5C 243.478,53.189 244.145,52.5223 244.5,51.5C 243.425,48.562 243.259,45.562 244,42.5C 244.383,41.944 244.883,41.6107 245.5,41.5C 246.895,39.9456 247.561,40.279 247.5,42.5C 246.352,44.7613 245.852,47.0946 246,49.5C 247.828,48.2475 249.661,48.2475 251.5,49.5 Z"/></g>
<g><path style="opacity:1" fill="#d15b5e" d="M 74.5,43.5 C 72.2844,49.3056 70.6178,55.3056 69.5,61.5C 67.7801,62.934 65.7801,63.7674 63.5,64C 62.6959,65.7713 61.5292,67.2713 60,68.5C 59.5015,72.4914 58.3348,76.158 56.5,79.5C 56.5,77.8333 56.5,76.1667 56.5,74.5C 56.5,73.5 56.5,72.5 56.5,71.5C 57.4345,70.4324 57.7678,69.099 57.5,67.5C 60.2583,57.273 65.925,49.273 74.5,43.5 Z"/></g>
<g><path style="opacity:1" fill="#57251b" d="M -0.5,60.5 C -0.5,60.1667 -0.5,59.8333 -0.5,59.5C 3.16667,59.5 6.83333,59.5 10.5,59.5C 11.9538,61.2633 11.6204,62.5967 9.5,63.5C 9.5,62.5 9.5,61.5 9.5,60.5C 6.16667,60.5 2.83333,60.5 -0.5,60.5 Z"/></g>
<g><path style="opacity:1" fill="#4f4945" d="M 103.5,55.5 C 103.167,56.1667 102.833,56.8333 102.5,57.5C 99.4977,60.1612 97.4977,63.4945 96.5,67.5C 96.5654,67.9382 96.3988,68.2716 96,68.5C 94.0109,64.4685 90.8442,62.1352 86.5,61.5C 86.5,61.1667 86.5,60.8333 86.5,60.5C 87.7489,58.8639 89.4156,57.6972 91.5,57C 95.4183,55.8436 99.4183,55.3436 103.5,55.5 Z"/></g>
<g><path style="opacity:1" fill="#ac210e" d="M 240.5,61.5 C 249.698,63.0984 249.698,64.0984 240.5,64.5C 240.5,63.5 240.5,62.5 240.5,61.5 Z"/></g>
<g><path style="opacity:1" fill="#be2205" d="M -0.5,60.5 C 2.83333,60.5 6.16667,60.5 9.5,60.5C 9.5,61.5 9.5,62.5 9.5,63.5C 9.16667,64.8333 8.83333,66.1667 8.5,67.5C 10.3716,73.0286 13.7049,77.3619 18.5,80.5C 18.5,82.8333 18.5,85.1667 18.5,87.5C 16.2351,85.2075 14.2351,82.5409 12.5,79.5C 8.2172,78.5078 3.88387,78.1744 -0.5,78.5C -0.5,72.5 -0.5,66.5 -0.5,60.5 Z"/></g>
<g><path style="opacity:1" fill="#191413" d="M 111.5,53.5 C 111.369,54.3764 111.702,55.0431 112.5,55.5C 116.305,56.8111 119.972,56.4777 123.5,54.5C 128.043,55.7577 131.376,58.4243 133.5,62.5C 128.669,62.1621 127.335,64.1621 129.5,68.5C 125.985,68.2879 122.652,68.2879 119.5,68.5C 120.376,69.2508 121.376,69.7508 122.5,70C 121.801,74.9682 120.468,79.8016 118.5,84.5C 116.74,87.0212 114.407,87.8545 111.5,87C 109.126,84.961 107.126,82.6277 105.5,80C 107.547,78.3783 108.547,76.2116 108.5,73.5C 107.754,71.3233 106.754,69.3233 105.5,67.5C 105.529,65.9707 106.196,64.804 107.5,64C 106.207,63.51 104.873,63.3433 103.5,63.5C 102.902,61.1978 102.569,59.1978 102.5,57.5C 102.833,56.8333 103.167,56.1667 103.5,55.5C 106.006,54.2504 108.673,53.5838 111.5,53.5 Z"/></g>
<g><path style="opacity:1" fill="#411d10" d="M 85.5,54.5 C 85.2053,56.7354 85.5386,58.7354 86.5,60.5C 86.5,60.8333 86.5,61.1667 86.5,61.5C 88.9011,63.9572 90.5677,66.9572 91.5,70.5C 91.0431,71.2975 90.3764,71.6309 89.5,71.5C 89.5,70.8333 89.5,70.1667 89.5,69.5C 88.6184,67.6162 87.1184,66.2829 85,65.5C 84.8195,62.3054 84.3195,59.3054 83.5,56.5C 83.5,55.1667 84.1667,54.5 85.5,54.5 Z"/></g>
<g><path style="opacity:1" fill="#91230b" d="M 159.5,64.5 C 162.482,64.1044 165.149,64.7711 167.5,66.5C 165.955,67.4519 164.288,67.7852 162.5,67.5C 160.81,67.1436 159.81,66.1436 159.5,64.5 Z"/></g>
<g><path style="opacity:1" fill="#0a0706" d="M 189.5,52.5 C 192.13,53.4278 194.796,54.4278 197.5,55.5C 199.801,55.0163 201.801,54.0163 203.5,52.5C 208.514,53.9195 212.847,56.2529 216.5,59.5C 217.185,64.2387 218.185,68.9054 219.5,73.5C 218.691,75.2922 218.191,77.2922 218,79.5C 217.768,78.2625 217.268,77.2625 216.5,76.5C 214.932,75.5269 213.265,75.3603 211.5,76C 207.761,84.5616 201.428,87.3949 192.5,84.5C 188.836,78.3391 183.503,75.3391 176.5,75.5C 176.366,77.2915 176.699,78.9582 177.5,80.5C 176.7,82.5735 175.367,84.2402 173.5,85.5C 173.784,83.5853 173.451,81.9187 172.5,80.5C 170.142,80.2525 168.142,80.9192 166.5,82.5C 164.743,81.708 163.409,80.3747 162.5,78.5C 164.884,74.3571 164.884,70.6904 162.5,67.5C 164.288,67.7852 165.955,67.4519 167.5,66.5C 165.149,64.7711 162.482,64.1044 159.5,64.5C 160.743,62.8361 162.41,61.6695 164.5,61C 162.191,60.2438 160.191,60.7438 158.5,62.5C 156.231,61.1847 153.898,60.0181 151.5,59C 155.225,58.2401 158.892,58.4068 162.5,59.5C 162.833,59.1667 163.167,58.8333 163.5,58.5C 160.347,57.7899 160.013,56.7899 162.5,55.5C 164.703,55.6036 166.703,56.2702 168.5,57.5C 169.848,58.6006 171.348,59.6006 173,60.5C 173.619,63.0318 174.619,65.3651 176,67.5C 177.188,66.4366 177.688,65.1033 177.5,63.5C 179.269,57.3975 183.269,53.7308 189.5,52.5 Z"/></g>
<g><path style="opacity:1" fill="#761a0a" d="M 201.5,61.5 C 204.722,61.1081 207.722,61.6081 210.5,63C 209,63.1667 207.5,63.3333 206,63.5C 204.014,63.4313 202.514,62.7647 201.5,61.5 Z"/></g>
<g><path style="opacity:1" fill="#ca947d" d="M 241.5,73.5 C 242.5,73.5 243.5,73.5 244.5,73.5C 246.804,74.1632 249.137,74.8298 251.5,75.5C 252.429,76.6888 252.762,78.0222 252.5,79.5C 252.158,80.3382 251.492,80.6716 250.5,80.5C 247.299,78.7397 243.633,77.9064 239.5,78C 236.311,76.2398 232.977,74.7398 229.5,73.5C 233.401,73.142 237.401,73.142 241.5,73.5 Z"/></g>
<g><path style="opacity:1" fill="#110d0b" d="M 150.5,53.5 C 150.511,55.0174 151.177,56.1841 152.5,57C 156.1,58.0729 159.1,57.2395 161.5,54.5C 162.167,54.5 162.5,54.8333 162.5,55.5C 160.013,56.7899 160.347,57.7899 163.5,58.5C 163.167,58.8333 162.833,59.1667 162.5,59.5C 158.892,58.4068 155.225,58.2401 151.5,59C 153.898,60.0181 156.231,61.1847 158.5,62.5C 160.191,60.7438 162.191,60.2438 164.5,61C 162.41,61.6695 160.743,62.8361 159.5,64.5C 159.81,66.1436 160.81,67.1436 162.5,67.5C 164.884,70.6904 164.884,74.3571 162.5,78.5C 163.409,80.3747 164.743,81.708 166.5,82.5C 165.172,87.1651 162.839,91.1651 159.5,94.5C 155.269,94.5963 151.935,92.9297 149.5,89.5C 149.672,88.5084 149.338,87.8417 148.5,87.5C 146.989,83.4832 144.156,81.1499 140,80.5C 138.213,80.7586 136.713,81.4253 135.5,82.5C 134.192,81.7677 132.858,80.9344 131.5,80C 132.337,78.9887 132.67,77.8221 132.5,76.5C 131.5,76.5 130.5,76.5 129.5,76.5C 129.5,77.5 129.5,78.5 129.5,79.5C 128.199,78.1155 128.199,76.6155 129.5,75C 132.224,73.6647 134.89,73.498 137.5,74.5C 137.5,73.5 137.5,72.5 137.5,71.5C 135.194,71.9926 132.861,72.3259 130.5,72.5C 130.679,70.3944 131.679,68.7277 133.5,67.5C 134.609,68.5896 135.609,68.5896 136.5,67.5C 133.205,66.9216 132.205,65.2549 133.5,62.5C 134.423,63.3029 135.423,63.4696 136.5,63C 138.734,60.9373 140.734,58.7706 142.5,56.5C 145.38,56.0598 148.046,55.0598 150.5,53.5 Z"/></g>
<g><path style="opacity:1" fill="#ca9679" d="M 225.5,70.5 C 225.008,74.2896 225.841,74.9563 228,72.5C 228.309,73.7659 228.809,74.9326 229.5,76C 227.5,76.3333 225.5,76.6667 223.5,77C 227.659,77.9571 231.992,78.2904 236.5,78C 233.091,78.9958 229.758,79.8292 226.5,80.5C 225.508,80.3284 224.842,80.6618 224.5,81.5C 223.325,81.719 222.325,81.3857 221.5,80.5C 220.626,78.2534 220.292,75.9201 220.5,73.5C 220.657,69.7271 222.324,68.7271 225.5,70.5 Z"/></g>
<g><path style="opacity:1" fill="#a75d45" d="M 255.5,73.5 C 254.87,75.7496 253.87,77.7496 252.5,79.5C 252.762,78.0222 252.429,76.6888 251.5,75.5C 249.137,74.8298 246.804,74.1632 244.5,73.5C 247.095,69.5917 250.762,67.9251 255.5,68.5C 255.5,70.1667 255.5,71.8333 255.5,73.5 Z"/></g>
<g><path style="opacity:1" fill="#624235" d="M 56.5,71.5 C 56.5,72.5 56.5,73.5 56.5,74.5C 54.8333,75.1667 53.1667,75.8333 51.5,76.5C 50.095,74.7749 49.595,72.7749 50,70.5C 52.0408,71.4231 54.2075,71.7564 56.5,71.5 Z"/></g>
<g><path style="opacity:1" fill="#b57d62" d="M 8.5,67.5 C 11.698,68.7868 15.0314,69.4535 18.5,69.5C 18.5,73.1667 18.5,76.8333 18.5,80.5C 13.7049,77.3619 10.3716,73.0286 8.5,67.5 Z"/></g>
<g><path style="opacity:1" fill="#a3745d" d="M 225.5,70.5 C 230.976,71.213 236.309,72.213 241.5,73.5C 237.401,73.142 233.401,73.142 229.5,73.5C 232.977,74.7398 236.311,76.2398 239.5,78C 243.633,77.9064 247.299,78.7397 250.5,80.5C 242.505,79.2606 234.505,79.2606 226.5,80.5C 229.758,79.8292 233.091,78.9958 236.5,78C 231.992,78.2904 227.659,77.9571 223.5,77C 225.5,76.6667 227.5,76.3333 229.5,76C 228.809,74.9326 228.309,73.7659 228,72.5C 225.841,74.9563 225.008,74.2896 225.5,70.5 Z"/></g>
<g><path style="opacity:1" fill="#0b0b0a" d="M 102.5,57.5 C 102.569,59.1978 102.902,61.1978 103.5,63.5C 104.873,63.3433 106.207,63.51 107.5,64C 106.196,64.804 105.529,65.9707 105.5,67.5C 106.754,69.3233 107.754,71.3233 108.5,73.5C 108.547,76.2116 107.547,78.3783 105.5,80C 107.126,82.6277 109.126,84.961 111.5,87C 114.407,87.8545 116.74,87.0212 118.5,84.5C 120.468,79.8016 121.801,74.9682 122.5,70C 121.376,69.7508 120.376,69.2508 119.5,68.5C 122.652,68.2879 125.985,68.2879 129.5,68.5C 127.335,64.1621 128.669,62.1621 133.5,62.5C 132.205,65.2549 133.205,66.9216 136.5,67.5C 135.609,68.5896 134.609,68.5896 133.5,67.5C 131.679,68.7277 130.679,70.3944 130.5,72.5C 132.861,72.3259 135.194,71.9926 137.5,71.5C 137.5,72.5 137.5,73.5 137.5,74.5C 134.89,73.498 132.224,73.6647 129.5,75C 128.199,76.6155 128.199,78.1155 129.5,79.5C 128.893,85.1035 128.893,90.7701 129.5,96.5C 119.968,101.367 110.301,101.701 100.5,97.5C 101.535,90.6849 102.535,83.8516 103.5,77C 103.43,76.2352 103.097,75.7352 102.5,75.5C 103.575,73.1445 103.575,70.8111 102.5,68.5C 100.555,75.0236 99.7212,75.0236 100,68.5C 98.8552,68.3809 97.6885,68.0476 96.5,67.5C 97.4977,63.4945 99.4977,60.1612 102.5,57.5 Z"/></g>
<g><path style="opacity:1" fill="#b52a0f" d="M 119.5,63.5 C 122.564,63.1437 125.231,63.9771 127.5,66C 125.473,66.4978 123.473,66.3311 121.5,65.5C 120.287,65.2528 119.62,64.5862 119.5,63.5 Z"/></g>
<g><path style="opacity:1" fill="#832a0e" d="M 219.5,73.5 C 219.833,73.5 220.167,73.5 220.5,73.5C 220.292,75.9201 220.626,78.2534 221.5,80.5C 222.325,81.3857 223.325,81.719 224.5,81.5C 224.806,84.3854 224.473,87.0521 223.5,89.5C 223.5,87.1667 223.5,84.8333 223.5,82.5C 221.61,82.7035 220.11,82.0368 219,80.5C 218.517,81.448 218.351,82.448 218.5,83.5C 216.408,83.5614 214.908,84.5614 214,86.5C 213.53,87.5768 213.697,88.5768 214.5,89.5C 212.833,88.8333 211.167,88.1667 209.5,87.5C 211.887,83.7976 214.221,80.1309 216.5,76.5C 217.268,77.2625 217.768,78.2625 218,79.5C 218.191,77.2922 218.691,75.2922 219.5,73.5 Z"/></g>
<g><path style="opacity:1" fill="#c76e43" d="M 102.5,75.5 C 103.097,75.7352 103.43,76.2352 103.5,77C 102.535,83.8516 101.535,90.6849 100.5,97.5C 99.8826,97.6107 99.3826,97.944 99,98.5C 98.2177,95.6898 97.3844,93.0232 96.5,90.5C 96.9801,85.1779 97.3135,79.8446 97.5,74.5C 99.2161,74.6287 100.883,74.962 102.5,75.5 Z"/></g>
<g><path style="opacity:1" fill="#2d2d2c" d="M -0.5,78.5 C 3.88387,78.1744 8.2172,78.5078 12.5,79.5C 14.2351,82.5409 16.2351,85.2075 18.5,87.5C 18.5,90.8333 18.5,94.1667 18.5,97.5C 21.5176,97.7038 24.5176,98.0371 27.5,98.5C 27.6107,99.1174 27.944,99.6174 28.5,100C 26.406,103.451 24.406,106.951 22.5,110.5C 24.3797,111.714 24.7131,113.048 23.5,114.5C 19.2179,118.636 18.5512,117.969 21.5,112.5C 21.1543,111.304 20.6543,111.304 20,112.5C 18.6282,116.897 17.4615,121.231 16.5,125.5C 10.758,123.8 5.09132,121.8 -0.5,119.5C -0.5,105.833 -0.5,92.1667 -0.5,78.5 Z"/></g>
<g><path style="opacity:1" fill="#996a50" d="M 148.5,87.5 C 145.11,86.3734 141.443,86.3734 137.5,87.5C 136.833,88.8333 135.833,89.8333 134.5,90.5C 135.265,87.9039 135.599,85.2372 135.5,82.5C 136.713,81.4253 138.213,80.7586 140,80.5C 144.156,81.1499 146.989,83.4832 148.5,87.5 Z"/></g>
<g><path style="opacity:1" fill="#cd7344" d="M 135.5,82.5 C 135.599,85.2372 135.265,87.9039 134.5,90.5C 133.527,92.9479 133.194,95.6146 133.5,98.5C 133.232,100.099 133.566,101.432 134.5,102.5C 133.749,103.573 132.749,103.74 131.5,103C 132.138,101.293 132.138,99.46 131.5,97.5C 131.5,92.5 131.5,87.5 131.5,82.5C 132.833,82.5 134.167,82.5 135.5,82.5 Z"/></g>
<g><path style="opacity:1" fill="#040202" d="M 266.5,86.5 C 266.5,91.5 266.5,96.5 266.5,101.5C 259.357,99.027 255.691,94.027 255.5,86.5C 259.167,86.5 262.833,86.5 266.5,86.5 Z"/></g>
<g><path style="opacity:1" fill="#0d0908" d="M 81.5,42.5 C 82.7206,43.0283 83.8873,43.695 85,44.5C 85.2868,46.8907 85.7868,49.2241 86.5,51.5C 86.3764,52.1067 86.0431,52.44 85.5,52.5C 82.4761,52.0533 82.1428,51.22 84.5,50C 82.8516,48.3227 81.1849,48.156 79.5,49.5C 73.4279,49.7845 72.0945,52.4512 75.5,57.5C 74.8333,61.5 76.5,63.1667 80.5,62.5C 80.0283,59.6421 81.0283,57.6421 83.5,56.5C 84.3195,59.3054 84.8195,62.3054 85,65.5C 87.1184,66.2829 88.6184,67.6162 89.5,69.5C 80.1658,68.8463 80.1658,69.513 89.5,71.5C 90.3764,71.6309 91.0431,71.2975 91.5,70.5C 90.5677,66.9572 88.9011,63.9572 86.5,61.5C 90.8442,62.1352 94.0109,64.4685 96,68.5C 96.3988,68.2716 96.5654,67.9382 96.5,67.5C 97.6885,68.0476 98.8552,68.3809 100,68.5C 99.7212,75.0236 100.555,75.0236 102.5,68.5C 103.575,70.8111 103.575,73.1445 102.5,75.5C 100.883,74.962 99.2161,74.6287 97.5,74.5C 97.3135,79.8446 96.9801,85.1779 96.5,90.5C 96.5,94.1667 96.5,97.8333 96.5,101.5C 95.791,102.404 94.791,102.737 93.5,102.5C 92.5248,100.487 90.8581,99.1539 88.5,98.5C 85.5729,99.801 82.5729,100.801 79.5,101.5C 79.6613,104.81 79.6613,107.81 79.5,110.5C 75.6705,111.367 72.3372,113.033 69.5,115.5C 69.44,116.043 69.1067,116.376 68.5,116.5C 67.8281,115.051 67.1614,113.718 66.5,112.5C 65.1065,106.961 64.4399,101.295 64.5,95.5C 64.5,92.8333 64.5,90.1667 64.5,87.5C 63.1667,87.5 61.8333,87.5 60.5,87.5C 59.8333,87.5 59.1667,87.5 58.5,87.5C 57.0047,87.5852 56.0047,86.9185 55.5,85.5C 56.3482,83.5914 56.6816,81.5914 56.5,79.5C 58.3348,76.158 59.5015,72.4914 60,68.5C 61.5292,67.2713 62.6959,65.7713 63.5,64C 65.7801,63.7674 67.7801,62.934 69.5,61.5C 70.6178,55.3056 72.2844,49.3056 74.5,43.5C 76.717,42.6314 79.0504,42.298 81.5,42.5 Z"/></g>
<g><path style="opacity:1" fill="#552c11" d="M 69.5,63.5 C 70.8142,65.9151 71.4809,68.7485 71.5,72C 71.4702,82.877 70.1369,82.7103 67.5,71.5C 67.5637,68.6496 68.2304,65.983 69.5,63.5 Z"/></g>
<g><path style="opacity:1" fill="#b03013" d="M 89.5,69.5 C 89.5,70.1667 89.5,70.8333 89.5,71.5C 80.1658,69.513 80.1658,68.8463 89.5,69.5 Z"/></g>
<g><path style="opacity:1" fill="#cf3616" d="M 78.5,43.5 C 80.7128,43.848 82.7128,44.6813 84.5,46C 81.7967,46.6052 79.7967,45.7719 78.5,43.5 Z"/></g>
<g><path style="opacity:1" fill="#974629" d="M 135.5,82.5 C 134.167,82.5 132.833,82.5 131.5,82.5C 131.5,87.5 131.5,92.5 131.5,97.5C 130.833,97.1667 130.167,96.8333 129.5,96.5C 128.893,90.7701 128.893,85.1035 129.5,79.5C 129.5,78.5 129.5,77.5 129.5,76.5C 130.5,76.5 131.5,76.5 132.5,76.5C 132.67,77.8221 132.337,78.9887 131.5,80C 132.858,80.9344 134.192,81.7677 135.5,82.5 Z"/></g>
<g><path style="opacity:1" fill="#d99a73" d="M 172.5,80.5 C 169.334,86.3903 165.667,91.8903 161.5,97C 159.61,98.8731 157.61,99.7064 155.5,99.5C 155.094,98.4425 155.094,97.1092 155.5,95.5C 157.099,95.7678 158.432,95.4345 159.5,94.5C 162.839,91.1651 165.172,87.1651 166.5,82.5C 168.142,80.9192 170.142,80.2525 172.5,80.5 Z"/></g>
<g><path style="opacity:1" fill="#532912" d="M 137.5,87.5 C 141.443,86.3734 145.11,86.3734 148.5,87.5C 149.338,87.8417 149.672,88.5084 149.5,89.5C 146.822,90.6184 144.155,90.6184 141.5,89.5C 135.523,92.1248 135.189,91.6248 140.5,88C 139.552,87.5172 138.552,87.3505 137.5,87.5 Z"/></g>
<g><path style="opacity:1" fill="#ce865f" d="M 216.5,76.5 C 214.221,80.1309 211.887,83.7976 209.5,87.5C 207.716,87.8925 206.05,88.5592 204.5,89.5C 202.08,90.9227 199.58,92.2561 197,93.5C 194.98,92.9681 194.147,91.6348 194.5,89.5C 193.5,89.5 192.5,89.5 191.5,89.5C 187.38,88.2744 183.713,86.2744 180.5,83.5C 179.833,82.1667 178.833,81.1667 177.5,80.5C 176.699,78.9582 176.366,77.2915 176.5,75.5C 183.503,75.3391 188.836,78.3391 192.5,84.5C 201.428,87.3949 207.761,84.5616 211.5,76C 213.265,75.3603 214.932,75.5269 216.5,76.5 Z"/></g>
<g><path style="opacity:1" fill="#b32b05" d="M 223.5,89.5 C 223.324,92.7273 222.657,95.7273 221.5,98.5C 220.883,98.6107 220.383,98.944 220,99.5C 219.814,96.9644 219.314,94.631 218.5,92.5C 217.167,91.5 215.833,90.5 214.5,89.5C 213.697,88.5768 213.53,87.5768 214,86.5C 214.908,84.5614 216.408,83.5614 218.5,83.5C 218.351,82.448 218.517,81.448 219,80.5C 220.11,82.0368 221.61,82.7035 223.5,82.5C 223.5,84.8333 223.5,87.1667 223.5,89.5 Z"/></g>
<g><path style="opacity:1" fill="#0d0b0a" d="M 180.5,83.5 C 183.713,86.2744 187.38,88.2744 191.5,89.5C 192.899,93.2111 195.566,95.5445 199.5,96.5C 202.722,95.3735 204.389,93.0402 204.5,89.5C 206.05,88.5592 207.716,87.8925 209.5,87.5C 211.167,88.1667 212.833,88.8333 214.5,89.5C 215.833,90.5 217.167,91.5 218.5,92.5C 219.442,97.284 217.775,100.617 213.5,102.5C 211.658,107.484 210.325,112.818 209.5,118.5C 212.969,118.453 216.302,117.787 219.5,116.5C 220.167,116.5 220.833,116.5 221.5,116.5C 221.259,128.872 220.426,141.206 219,153.5C 218.333,155.5 217,156.833 215,157.5C 214.383,158.449 214.549,159.282 215.5,160C 214.619,160.708 213.953,161.542 213.5,162.5C 212.25,162.423 211.417,161.756 211,160.5C 209.946,162.754 208.446,163.087 206.5,161.5C 205.548,159.955 205.215,158.288 205.5,156.5C 204.167,156.5 202.833,156.5 201.5,156.5C 209.636,154.226 213.303,148.892 212.5,140.5C 209.68,139.306 206.847,139.306 204,140.5C 202.541,140.192 201.374,139.525 200.5,138.5C 201.371,134.818 202.371,131.152 203.5,127.5C 203.938,125.874 204.272,124.207 204.5,122.5C 202.849,119.198 201.182,115.864 199.5,112.5C 197.147,109.152 194.48,108.818 191.5,111.5C 190.584,111.457 189.917,111.124 189.5,110.5C 189.319,107.603 189.652,104.77 190.5,102C 189.277,99.9434 188.277,97.7767 187.5,95.5C 186.817,95.1373 186.15,94.8039 185.5,94.5C 183.884,93.0108 181.884,92.0108 179.5,91.5C 179.732,88.7786 180.065,86.112 180.5,83.5 Z"/></g>
<g><path style="opacity:1" fill="#c9773d" d="M 91.5,84.5 C 92.8333,84.5 94.1667,84.5 95.5,84.5C 95.1667,87.1667 94.8333,89.8333 94.5,92.5C 92.8561,92.7135 91.3561,92.3802 90,91.5C 89.3911,88.9348 89.8911,86.6015 91.5,84.5 Z"/></g>
<g><path style="opacity:1" fill="#28140b" d="M 137.5,87.5 C 138.552,87.3505 139.552,87.5172 140.5,88C 135.189,91.6248 135.523,92.1248 141.5,89.5C 144.155,90.6184 146.822,90.6184 149.5,89.5C 149.664,92.1873 149.497,94.854 149,97.5C 148.51,96.2068 148.343,94.8734 148.5,93.5C 146.901,93.2322 145.568,93.5655 144.5,94.5C 141.545,93.8413 138.545,93.5079 135.5,93.5C 135.662,95.5273 135.495,97.5273 135,99.5C 134.617,98.944 134.117,98.6107 133.5,98.5C 133.194,95.6146 133.527,92.9479 134.5,90.5C 135.833,89.8333 136.833,88.8333 137.5,87.5 Z"/></g>
<g><path style="opacity:1" fill="#d47940" d="M 60.5,87.5 C 61.8333,87.5 63.1667,87.5 64.5,87.5C 64.5,90.1667 64.5,92.8333 64.5,95.5C 63.8347,97.6979 63.1681,100.031 62.5,102.5C 61.668,97.508 61.0014,92.508 60.5,87.5 Z"/></g>
<g><path style="opacity:1" fill="#a0563a" d="M 191.5,89.5 C 192.5,89.5 193.5,89.5 194.5,89.5C 194.147,91.6348 194.98,92.9681 197,93.5C 199.58,92.2561 202.08,90.9227 204.5,89.5C 204.389,93.0402 202.722,95.3735 199.5,96.5C 195.566,95.5445 192.899,93.2111 191.5,89.5 Z"/></g>
<g><path style="opacity:1" fill="#c7301a" d="M 84.5,94.5 C 87.3198,94.2475 89.9865,94.7475 92.5,96C 91.1667,96.1667 89.8333,96.3333 88.5,96.5C 86.6672,96.4146 85.3339,95.7479 84.5,94.5 Z"/></g>
<g><path style="opacity:1" fill="#080605" d="M 250.5,80.5 C 250.5,87.8333 250.5,95.1667 250.5,102.5C 250.167,102.5 249.833,102.5 249.5,102.5C 249.199,99.6408 247.533,98.3075 244.5,98.5C 236.858,99.3584 229.191,99.6917 221.5,99.5C 221.5,99.1667 221.5,98.8333 221.5,98.5C 222.657,95.7273 223.324,92.7273 223.5,89.5C 224.473,87.0521 224.806,84.3854 224.5,81.5C 224.842,80.6618 225.508,80.3284 226.5,80.5C 234.505,79.2606 242.505,79.2606 250.5,80.5 Z"/></g>
<g><path style="opacity:1" fill="#dc9879" d="M 144.5,94.5 C 145.475,97.3112 146.142,100.311 146.5,103.5C 143.478,103.804 140.478,104.304 137.5,105C 138,105.5 138.5,106 139,106.5C 141.811,104.82 143.644,105.487 144.5,108.5C 143.17,109.832 141.503,110.665 139.5,111C 142.025,111.896 144.192,111.396 146,109.5C 146.464,110.094 146.631,110.761 146.5,111.5C 146.586,112.496 146.252,113.329 145.5,114C 143.101,114.711 140.768,114.544 138.5,113.5C 137.379,110.417 136.379,107.417 135.5,104.5C 135.672,103.508 135.338,102.842 134.5,102.5C 133.566,101.432 133.232,100.099 133.5,98.5C 134.117,98.6107 134.617,98.944 135,99.5C 135.495,97.5273 135.662,95.5273 135.5,93.5C 138.545,93.5079 141.545,93.8413 144.5,94.5 Z"/></g>
<g><path style="opacity:1" fill="#b56e49" d="M 172.5,80.5 C 173.451,81.9187 173.784,83.5853 173.5,85.5C 171.808,87.2048 170.475,89.2048 169.5,91.5C 167.537,92.9599 165.704,94.6266 164,96.5C 162.475,99.5574 161.141,102.557 160,105.5C 155.557,105.281 152.224,103.281 150,99.5C 148.882,101.765 148.049,104.099 147.5,106.5C 146.5,107.167 145.5,107.833 144.5,108.5C 143.644,105.487 141.811,104.82 139,106.5C 138.5,106 138,105.5 137.5,105C 140.478,104.304 143.478,103.804 146.5,103.5C 146.142,100.311 145.475,97.3112 144.5,94.5C 145.568,93.5655 146.901,93.2322 148.5,93.5C 148.343,94.8734 148.51,96.2068 149,97.5C 149.497,94.854 149.664,92.1873 149.5,89.5C 151.935,92.9297 155.269,94.5963 159.5,94.5C 158.432,95.4345 157.099,95.7678 155.5,95.5C 155.094,97.1092 155.094,98.4425 155.5,99.5C 157.61,99.7064 159.61,98.8731 161.5,97C 165.667,91.8903 169.334,86.3903 172.5,80.5 Z"/></g>
<g><path style="opacity:1" fill="#922408" d="M 218.5,92.5 C 219.314,94.631 219.814,96.9644 220,99.5C 220.383,98.944 220.883,98.6107 221.5,98.5C 221.5,98.8333 221.5,99.1667 221.5,99.5C 221.5,105.167 221.5,110.833 221.5,116.5C 220.833,116.5 220.167,116.5 219.5,116.5C 219.001,111.508 218.501,106.508 218,101.5C 217.667,102.167 217.333,102.833 217,103.5C 215.989,102.663 214.822,102.33 213.5,102.5C 217.775,100.617 219.442,97.284 218.5,92.5 Z"/></g>
<g><path style="opacity:1" fill="#353231" d="M 96.5,90.5 C 97.3844,93.0232 98.2177,95.6898 99,98.5C 99.3826,97.944 99.8826,97.6107 100.5,97.5C 110.301,101.701 119.968,101.367 129.5,96.5C 130.167,96.8333 130.833,97.1667 131.5,97.5C 132.138,99.46 132.138,101.293 131.5,103C 132.749,103.74 133.749,103.573 134.5,102.5C 135.338,102.842 135.672,103.508 135.5,104.5C 133.5,104.5 131.5,104.5 129.5,104.5C 127.131,104.149 124.797,103.982 122.5,104C 123.308,104.308 123.975,104.808 124.5,105.5C 120.23,111.432 118.563,110.765 119.5,103.5C 115.486,103.334 111.486,103.501 107.5,104C 114.635,104.585 114.968,105.752 108.5,107.5C 108.709,108.086 109.043,108.586 109.5,109C 108.993,111.566 107.826,113.733 106,115.5C 104.229,114.653 103.063,113.32 102.5,111.5C 101.833,110.833 101.167,110.167 100.5,109.5C 99.8902,108.609 99.5569,107.609 99.5,106.5C 100.084,103.715 99.0838,102.048 96.5,101.5C 96.5,97.8333 96.5,94.1667 96.5,90.5 Z"/></g>
<g><path style="opacity:1" fill="#851c03" d="M 255.5,73.5 C 259.167,73.5 262.833,73.5 266.5,73.5C 266.5,77.8333 266.5,82.1667 266.5,86.5C 262.833,86.5 259.167,86.5 255.5,86.5C 255.691,94.027 259.357,99.027 266.5,101.5C 266.5,107.167 266.5,112.833 266.5,118.5C 263.729,118.579 261.063,118.079 258.5,117C 255.968,115.235 253.301,113.735 250.5,112.5C 250.5,109.167 250.5,105.833 250.5,102.5C 250.5,95.1667 250.5,87.8333 250.5,80.5C 251.492,80.6716 252.158,80.3382 252.5,79.5C 253.87,77.7496 254.87,75.7496 255.5,73.5 Z"/></g>
<g><path style="opacity:1" fill="#a4563d" d="M 96.5,101.5 C 99.0838,102.048 100.084,103.715 99.5,106.5C 98.8826,106.389 98.3826,106.056 98,105.5C 97.6232,106.942 96.7899,107.942 95.5,108.5C 94.8333,109.167 94.1667,109.833 93.5,110.5C 93.3433,109.127 93.51,107.793 94,106.5C 94.6667,107.833 95.3333,107.833 96,106.5C 96.4828,105.552 96.6495,104.552 96.5,103.5C 91.4749,102.918 89.8083,104.918 91.5,109.5C 91.1667,110.5 90.5,111.167 89.5,111.5C 89.3462,108.781 89.3462,105.781 89.5,102.5C 90.8333,102.5 92.1667,102.5 93.5,102.5C 94.791,102.737 95.791,102.404 96.5,101.5 Z"/></g>
<g><path style="opacity:1" fill="#d38d6c" d="M 185.5,94.5 C 185.866,96.905 186.533,99.2383 187.5,101.5C 186.768,104.197 185.934,106.864 185,109.5C 183.556,111.155 181.722,111.822 179.5,111.5C 176.593,109.685 175.259,107.019 175.5,103.5C 174.19,95.633 177.524,92.633 185.5,94.5 Z"/></g>
<g><path style="opacity:1" fill="#68422e" d="M 185.5,94.5 C 186.15,94.8039 186.817,95.1373 187.5,95.5C 188.277,97.7767 189.277,99.9434 190.5,102C 189.652,104.77 189.319,107.603 189.5,110.5C 189.167,110.5 188.833,110.5 188.5,110.5C 186.193,110.77 184.026,112.103 182,114.5C 181.472,115.816 181.972,116.483 183.5,116.5C 182.791,117.404 181.791,117.737 180.5,117.5C 180.67,116.178 180.337,115.011 179.5,114C 180.167,113.667 180.833,113.333 181.5,113C 180.584,112.722 179.918,112.222 179.5,111.5C 181.722,111.822 183.556,111.155 185,109.5C 185.934,106.864 186.768,104.197 187.5,101.5C 186.533,99.2383 185.866,96.905 185.5,94.5 Z"/></g>
<g><path style="opacity:1" fill="#b32b05" d="M 219.5,116.5 C 216.302,117.787 212.969,118.453 209.5,118.5C 210.325,112.818 211.658,107.484 213.5,102.5C 214.822,102.33 215.989,102.663 217,103.5C 217.333,102.833 217.667,102.167 218,101.5C 218.501,106.508 219.001,111.508 219.5,116.5 Z"/></g>
<g><path style="opacity:1" fill="#c79178" d="M 93.5,102.5 C 92.1667,102.5 90.8333,102.5 89.5,102.5C 89.3462,105.781 89.3462,108.781 89.5,111.5C 90.5,111.167 91.1667,110.5 91.5,109.5C 89.8083,104.918 91.4749,102.918 96.5,103.5C 96.6495,104.552 96.4828,105.552 96,106.5C 95.3333,107.833 94.6667,107.833 94,106.5C 93.51,107.793 93.3433,109.127 93.5,110.5C 92.0794,112.907 90.7461,115.407 89.5,118C 86.1932,120.336 83.5266,119.836 81.5,116.5C 79.9192,114.858 79.2525,112.858 79.5,110.5C 79.6613,107.81 79.6613,104.81 79.5,101.5C 82.5729,100.801 85.5729,99.801 88.5,98.5C 90.8581,99.1539 92.5248,100.487 93.5,102.5 Z"/></g>
<g><path style="opacity:1" fill="#d54438" d="M 99.5,106.5 C 99.5569,107.609 99.8902,108.609 100.5,109.5C 100.53,110.497 100.03,111.164 99,111.5C 97.0503,111.293 95.8836,110.293 95.5,108.5C 96.7899,107.942 97.6232,106.942 98,105.5C 98.3826,106.056 98.8826,106.389 99.5,106.5 Z"/></g>
<g><path style="opacity:1" fill="#120f0e" d="M 169.5,91.5 C 170.654,97.987 170.821,104.654 170,111.5C 168.796,115.922 167.963,120.422 167.5,125C 167.579,128.317 168.579,131.317 170.5,134C 169.324,137.957 169.657,141.791 171.5,145.5C 170.193,146.153 168.86,146.82 167.5,147.5C 166.14,146.82 164.807,146.153 163.5,145.5C 165.22,142.111 165.887,138.444 165.5,134.5C 162.432,134.547 159.432,135.047 156.5,136C 157.791,137.292 157.791,138.458 156.5,139.5C 154.94,139.481 153.44,139.148 152,138.5C 149.032,140.078 145.865,140.745 142.5,140.5C 135.48,137.318 129.813,132.484 125.5,126C 122.854,125.503 120.187,125.336 117.5,125.5C 117.167,123.5 116.833,121.5 116.5,119.5C 117.5,119.5 118.5,119.5 119.5,119.5C 120.012,115.47 121.512,111.803 124,108.5C 125.461,106.532 127.295,105.198 129.5,104.5C 131.5,104.5 133.5,104.5 135.5,104.5C 136.379,107.417 137.379,110.417 138.5,113.5C 140.768,114.544 143.101,114.711 145.5,114C 146.252,113.329 146.586,112.496 146.5,111.5C 147.451,110.081 147.784,108.415 147.5,106.5C 148.049,104.099 148.882,101.765 150,99.5C 152.224,103.281 155.557,105.281 160,105.5C 161.141,102.557 162.475,99.5574 164,96.5C 165.704,94.6266 167.537,92.9599 169.5,91.5 Z"/></g>
<g><path style="opacity:1" fill="#5f2914" d="M 147.5,106.5 C 147.784,108.415 147.451,110.081 146.5,111.5C 146.631,110.761 146.464,110.094 146,109.5C 144.192,111.396 142.025,111.896 139.5,111C 141.503,110.665 143.17,109.832 144.5,108.5C 145.5,107.833 146.5,107.167 147.5,106.5 Z"/></g>
<g><path style="opacity:1" fill="#ad5b2a" d="M 58.5,87.5 C 59.1667,87.5 59.8333,87.5 60.5,87.5C 61.0014,92.508 61.668,97.508 62.5,102.5C 63.1681,100.031 63.8347,97.6979 64.5,95.5C 64.4399,101.295 65.1065,106.961 66.5,112.5C 64.4537,113.965 62.6204,113.632 61,111.5C 60.8284,103.4 59.995,95.4001 58.5,87.5 Z"/></g>
<g><path style="opacity:1" fill="#181515" d="M 175.5,103.5 C 175.259,107.019 176.593,109.685 179.5,111.5C 179.918,112.222 180.584,112.722 181.5,113C 180.833,113.333 180.167,113.667 179.5,114C 180.337,115.011 180.67,116.178 180.5,117.5C 181.791,117.737 182.791,117.404 183.5,116.5C 185.914,115.089 187.581,113.089 188.5,110.5C 188.833,110.5 189.167,110.5 189.5,110.5C 189.917,111.124 190.584,111.457 191.5,111.5C 194.48,108.818 197.147,109.152 199.5,112.5C 201.182,115.864 202.849,119.198 204.5,122.5C 204.272,124.207 203.938,125.874 203.5,127.5C 200.333,127.4 197.333,128.067 194.5,129.5C 193.534,131.396 193.201,133.396 193.5,135.5C 189.213,136.648 185.213,138.315 181.5,140.5C 180.5,140.5 179.5,140.5 178.5,140.5C 178.5,139.5 178.5,138.5 178.5,137.5C 178.5,134.833 178.5,132.167 178.5,129.5C 176.5,129.5 174.5,129.5 172.5,129.5C 171.791,128.596 170.791,128.263 169.5,128.5C 169.134,123.284 169.968,118.284 172,113.5C 172.667,112.167 173.333,112.167 174,113.5C 174.179,109.975 174.679,106.641 175.5,103.5 Z"/></g>
<g><path style="opacity:1" fill="#ca9b83" d="M 188.5,110.5 C 187.581,113.089 185.914,115.089 183.5,116.5C 181.972,116.483 181.472,115.816 182,114.5C 184.026,112.103 186.193,110.77 188.5,110.5 Z"/></g>
<g><path style="opacity:1" fill="#d82d0c" d="M 52.5,103.5 C 55.7368,107.63 58.7368,111.963 61.5,116.5C 58.2317,117.487 54.8984,117.82 51.5,117.5C 51.1805,112.637 51.5139,107.97 52.5,103.5 Z"/></g>
<g><path style="opacity:1" fill="#050303" d="M 250.5,112.5 C 253.301,113.735 255.968,115.235 258.5,117C 261.063,118.079 263.729,118.579 266.5,118.5C 266.5,135.5 266.5,152.5 266.5,169.5C 262.901,168.897 260.568,166.897 259.5,163.5C 258.5,163.5 257.5,163.5 256.5,163.5C 255.4,162.395 254.733,161.062 254.5,159.5C 253.143,151.145 251.977,142.812 251,134.5C 250.5,127.174 250.334,119.841 250.5,112.5 Z"/></g>
<g><path style="opacity:1" fill="#292321" d="M 177.5,80.5 C 178.833,81.1667 179.833,82.1667 180.5,83.5C 180.065,86.112 179.732,88.7786 179.5,91.5C 181.884,92.0108 183.884,93.0108 185.5,94.5C 177.524,92.633 174.19,95.633 175.5,103.5C 174.679,106.641 174.179,109.975 174,113.5C 173.333,112.167 172.667,112.167 172,113.5C 169.968,118.284 169.134,123.284 169.5,128.5C 170.791,128.263 171.791,128.596 172.5,129.5C 171.243,134.703 171.243,140.036 172.5,145.5C 172.167,145.5 171.833,145.5 171.5,145.5C 169.657,141.791 169.324,137.957 170.5,134C 168.579,131.317 167.579,128.317 167.5,125C 167.963,120.422 168.796,115.922 170,111.5C 170.821,104.654 170.654,97.987 169.5,91.5C 170.475,89.2048 171.808,87.2048 173.5,85.5C 175.367,84.2402 176.7,82.5735 177.5,80.5 Z"/></g>
<g><path style="opacity:1" fill="#b92d0b" d="M 172.5,95.5 C 173.693,95.9704 174.36,96.9704 174.5,98.5C 174.333,99.5 174.167,100.5 174,101.5C 172.681,99.7505 172.181,97.7505 172.5,95.5 Z"/></g>
<g><path style="opacity:1" fill="#313130" d="M 56.5,74.5 C 56.5,76.1667 56.5,77.8333 56.5,79.5C 56.6816,81.5914 56.3482,83.5914 55.5,85.5C 56.0047,86.9185 57.0047,87.5852 58.5,87.5C 59.995,95.4001 60.8284,103.4 61,111.5C 62.6204,113.632 64.4537,113.965 66.5,112.5C 67.1614,113.718 67.8281,115.051 68.5,116.5C 69.1067,116.376 69.44,116.043 69.5,115.5C 70.5701,117.973 69.5701,119.307 66.5,119.5C 66.1279,126.837 65.6279,134.171 65,141.5C 64.6667,141.833 64.3333,142.167 64,142.5C 63.5172,141.552 63.3505,140.552 63.5,139.5C 60.1878,139.637 57.3545,138.637 55,136.5C 54.6667,136.833 54.3333,137.167 54,137.5C 53.3666,133.653 52.5333,129.986 51.5,126.5C 50.4489,123.344 50.4489,120.344 51.5,117.5C 54.8984,117.82 58.2317,117.487 61.5,116.5C 58.7368,111.963 55.7368,107.63 52.5,103.5C 52.4511,100.626 52.7844,97.7923 53.5,95C 53.1983,92.6005 52.5316,90.4338 51.5,88.5C 51.5,84.5 51.5,80.5 51.5,76.5C 53.1667,75.8333 54.8333,75.1667 56.5,74.5 Z"/></g>
<g><path style="opacity:1" fill="#494949" d="M 23.5,114.5 C 23.4593,118.616 22.7927,122.616 21.5,126.5C 20.1266,126.343 18.7932,126.51 17.5,127C 17.9574,127.414 18.2907,127.914 18.5,128.5C 16.9313,134.373 16.098,140.373 16,146.5C 14.0064,139.523 14.1731,132.523 16.5,125.5C 17.4615,121.231 18.6282,116.897 20,112.5C 20.6543,111.304 21.1543,111.304 21.5,112.5C 18.5512,117.969 19.2179,118.636 23.5,114.5 Z"/></g>
<g><path style="opacity:1" fill="#0d0b0b" d="M 95.5,108.5 C 95.8836,110.293 97.0503,111.293 99,111.5C 100.03,111.164 100.53,110.497 100.5,109.5C 101.167,110.167 101.833,110.833 102.5,111.5C 103.859,118.954 105.859,126.12 108.5,133C 108.316,134.376 107.649,135.209 106.5,135.5C 106.167,135.5 105.833,135.5 105.5,135.5C 103.05,135.298 100.717,135.631 98.5,136.5C 96.4424,134.004 95.2757,134.67 95,138.5C 92.4891,140.679 90.3224,143.179 88.5,146C 85.8276,146.834 83.161,147.668 80.5,148.5C 79.056,147.019 78.3894,147.352 78.5,149.5C 75.5041,148.526 73.8375,146.526 73.5,143.5C 70.8333,143.5 68.1667,143.5 65.5,143.5C 67.1484,142.073 69.1484,141.24 71.5,141C 68.8758,140.424 68.2092,139.09 69.5,137C 68.6422,135.43 67.9755,133.763 67.5,132C 68.5726,128.001 70.2393,124.334 72.5,121C 71.0328,117.944 72.0328,116.11 75.5,115.5C 77.0554,115.722 78.3887,116.389 79.5,117.5C 80.1835,117.137 80.8501,116.804 81.5,116.5C 83.5266,119.836 86.1932,120.336 89.5,118C 90.7461,115.407 92.0794,112.907 93.5,110.5C 94.1667,109.833 94.8333,109.167 95.5,108.5 Z"/></g>
<g><path style="opacity:1" fill="#999797" d="M 249.5,102.5 C 249.995,107.861 249.329,113.028 247.5,118C 248.345,122.233 248.678,126.4 248.5,130.5C 246.53,131.443 245.03,130.776 244,128.5C 242.36,122.944 241.527,117.278 241.5,111.5C 238.155,111.674 236.988,110.341 238,107.5C 237.329,108.252 236.496,108.586 235.5,108.5C 234.351,108.791 233.684,109.624 233.5,111C 229.071,127.601 226.738,144.434 226.5,161.5C 224.211,162.058 222.211,163.224 220.5,165C 218.19,165.497 215.857,165.663 213.5,165.5C 213.5,164.5 213.5,163.5 213.5,162.5C 213.953,161.542 214.619,160.708 215.5,160C 214.549,159.282 214.383,158.449 215,157.5C 217,156.833 218.333,155.5 219,153.5C 220.426,141.206 221.259,128.872 221.5,116.5C 221.5,110.833 221.5,105.167 221.5,99.5C 229.191,99.6917 236.858,99.3584 244.5,98.5C 247.533,98.3075 249.199,99.6408 249.5,102.5 Z"/></g>
<g><path style="opacity:1" fill="#c7331c" d="M 186.5,124.5 C 188.604,124.201 190.604,124.534 192.5,125.5C 191.5,125.833 190.5,126.167 189.5,126.5C 187.97,126.36 186.97,125.693 186.5,124.5 Z"/></g>
<g><path style="opacity:1" fill="#a92b13" d="M 141.5,123.5 C 144.096,124.265 146.763,124.599 149.5,124.5C 149.5,125.5 149.5,126.5 149.5,127.5C 146.833,127.167 144.167,126.833 141.5,126.5C 141.5,125.5 141.5,124.5 141.5,123.5 Z"/></g>
<g><path style="opacity:1" fill="#6b170a" d="M 94.5,129.5 C 94.0831,128.876 93.4164,128.543 92.5,128.5C 91.2867,128.747 90.62,129.414 90.5,130.5C 89.596,129.791 89.2627,128.791 89.5,127.5C 91.604,127.201 93.604,127.534 95.5,128.5C 95.3764,129.107 95.0431,129.44 94.5,129.5 Z"/></g>
<g><path style="opacity:1" fill="#c62708" d="M 94.5,129.5 C 93.4324,130.434 92.099,130.768 90.5,130.5C 90.62,129.414 91.2867,128.747 92.5,128.5C 93.4164,128.543 94.0831,128.876 94.5,129.5 Z"/></g>
<g><path style="opacity:1" fill="#101010" d="M 51.5,88.5 C 52.5316,90.4338 53.1983,92.6005 53.5,95C 52.7844,97.7923 52.4511,100.626 52.5,103.5C 51.5139,107.97 51.1805,112.637 51.5,117.5C 50.4489,120.344 50.4489,123.344 51.5,126.5C 52.0968,132.96 51.4302,139.126 49.5,145C 50.448,145.483 51.448,145.649 52.5,145.5C 53.9415,149.593 52.4415,150.593 48,148.5C 46.6992,149.893 45.1992,150.393 43.5,150C 45.8222,148.308 46.3222,146.474 45,144.5C 43.5624,134.196 41.7291,124.196 39.5,114.5C 39.0202,110.586 37.8535,106.919 36,103.5C 34.5441,106.032 33.3774,108.699 32.5,111.5C 30.5014,118.159 28.5014,124.826 26.5,131.5C 25.6305,135.818 25.4639,140.151 26,144.5C 26.414,144.043 26.914,143.709 27.5,143.5C 28.8309,144.592 29.6643,145.926 30,147.5C 30.3333,147.167 30.6667,146.833 31,146.5C 33.2798,147.086 35.4465,147.92 37.5,149C 33.5,149 29.5,149 25.5,149C 24.6948,150.972 23.3615,152.472 21.5,153.5C 21.6236,154.107 21.9569,154.44 22.5,154.5C 22.1667,155.167 21.8333,155.833 21.5,156.5C 19.8828,155.962 18.2161,155.629 16.5,155.5C 16.0874,153.11 15.4207,150.777 14.5,148.5C 13.2528,150.006 13.2528,151.506 14.5,153C 14,153.5 13.5,154 13,154.5C 8.80288,153.77 4.30288,153.437 -0.5,153.5C -0.5,142.167 -0.5,130.833 -0.5,119.5C 5.09132,121.8 10.758,123.8 16.5,125.5C 14.1731,132.523 14.0064,139.523 16,146.5C 16.098,140.373 16.9313,134.373 18.5,128.5C 18.2907,127.914 17.9574,127.414 17.5,127C 18.7932,126.51 20.1266,126.343 21.5,126.5C 22.7927,122.616 23.4593,118.616 23.5,114.5C 24.7131,113.048 24.3797,111.714 22.5,110.5C 24.406,106.951 26.406,103.451 28.5,100C 27.944,99.6174 27.6107,99.1174 27.5,98.5C 31.8247,98.3792 35.9913,99.0458 40,100.5C 42.8655,98.5402 45.8655,96.8735 49,95.5C 49.3333,95.8333 49.6667,96.1667 50,96.5C 50.567,93.8323 51.067,91.1656 51.5,88.5 Z"/></g>
<g><path style="opacity:1" fill="#c42409" d="M 39.5,114.5 C 39.719,115.675 39.3857,116.675 38.5,117.5C 36.1182,115.785 34.1182,113.785 32.5,111.5C 33.3774,108.699 34.5441,106.032 36,103.5C 37.8535,106.919 39.0202,110.586 39.5,114.5 Z"/></g>
<g><path style="opacity:1" fill="#202020" d="M 79.5,110.5 C 79.2525,112.858 79.9192,114.858 81.5,116.5C 80.8501,116.804 80.1835,117.137 79.5,117.5C 78.3887,116.389 77.0554,115.722 75.5,115.5C 72.0328,116.11 71.0328,117.944 72.5,121C 70.2393,124.334 68.5726,128.001 67.5,132C 67.9755,133.763 68.6422,135.43 69.5,137C 68.2092,139.09 68.8758,140.424 71.5,141C 69.1484,141.24 67.1484,142.073 65.5,143.5C 65.2069,146.754 65.8736,149.754 67.5,152.5C 65.5891,152.574 64.4224,153.574 64,155.5C 63.8195,157.488 63.9862,159.488 64.5,161.5C 62.8561,161.286 61.3561,161.62 60,162.5C 59.7679,161.263 59.2679,160.263 58.5,159.5C 57.2073,157.704 55.7073,156.037 54,154.5C 53.51,153.207 53.3433,151.873 53.5,150.5C 50.2854,150.905 47.2854,151.905 44.5,153.5C 37.0796,153.203 29.7463,153.536 22.5,154.5C 21.9569,154.44 21.6236,154.107 21.5,153.5C 23.3615,152.472 24.6948,150.972 25.5,149C 29.5,149 33.5,149 37.5,149C 35.4465,147.92 33.2798,147.086 31,146.5C 30.6667,146.833 30.3333,147.167 30,147.5C 29.6643,145.926 28.8309,144.592 27.5,143.5C 26.914,143.709 26.414,144.043 26,144.5C 25.4639,140.151 25.6305,135.818 26.5,131.5C 28.5014,124.826 30.5014,118.159 32.5,111.5C 34.1182,113.785 36.1182,115.785 38.5,117.5C 39.3857,116.675 39.719,115.675 39.5,114.5C 41.7291,124.196 43.5624,134.196 45,144.5C 46.3222,146.474 45.8222,148.308 43.5,150C 45.1992,150.393 46.6992,149.893 48,148.5C 52.4415,150.593 53.9415,149.593 52.5,145.5C 51.448,145.649 50.448,145.483 49.5,145C 51.4302,139.126 52.0968,132.96 51.5,126.5C 52.5333,129.986 53.3666,133.653 54,137.5C 54.3333,137.167 54.6667,136.833 55,136.5C 57.3545,138.637 60.1878,139.637 63.5,139.5C 63.3505,140.552 63.5172,141.552 64,142.5C 64.3333,142.167 64.6667,141.833 65,141.5C 65.6279,134.171 66.1279,126.837 66.5,119.5C 69.5701,119.307 70.5701,117.973 69.5,115.5C 72.3372,113.033 75.6705,111.367 79.5,110.5 Z"/></g>
<g><path style="opacity:1" fill="#0c0b0a" d="M 235.5,108.5 C 241.102,123.994 244.935,139.994 247,156.5C 247.717,157.044 248.217,157.711 248.5,158.5C 247.566,159.772 246.899,161.272 246.5,163C 246.748,164.749 247.748,165.582 249.5,165.5C 249.895,168.523 248.895,169.523 246.5,168.5C 245.719,169.737 244.719,170.737 243.5,171.5C 242.406,170.132 242.74,168.965 244.5,168C 244,167.5 243.5,167 243,166.5C 241.951,167.517 240.784,167.684 239.5,167C 241.891,166.309 241.891,165.309 239.5,164C 235.75,163.74 232.084,163.073 228.5,162C 230.901,161.195 230.734,160.362 228,159.5C 227.722,160.416 227.222,161.082 226.5,161.5C 226.738,144.434 229.071,127.601 233.5,111C 233.684,109.624 234.351,108.791 235.5,108.5 Z"/></g>
<g><path style="opacity:1" fill="#deaf96" d="M 203.5,127.5 C 202.371,131.152 201.371,134.818 200.5,138.5C 199.474,139.853 198.141,140.853 196.5,141.5C 193.579,141.283 190.913,141.949 188.5,143.5C 186.409,143.318 184.409,143.652 182.5,144.5C 181.571,143.311 181.238,141.978 181.5,140.5C 185.213,138.315 189.213,136.648 193.5,135.5C 193.201,133.396 193.534,131.396 194.5,129.5C 197.333,128.067 200.333,127.4 203.5,127.5 Z"/></g>
<g><path style="opacity:1" fill="#c67340" d="M 163.5,145.5 C 161.77,146.026 160.436,147.026 159.5,148.5C 157.989,147.498 156.322,146.831 154.5,146.5C 154.878,144.079 155.545,141.746 156.5,139.5C 157.791,138.458 157.791,137.292 156.5,136C 159.432,135.047 162.432,134.547 165.5,134.5C 165.887,138.444 165.22,142.111 163.5,145.5 Z"/></g>
<g><path style="opacity:1" fill="#cf875d" d="M 105.5,135.5 C 105.713,138.451 105.046,141.118 103.5,143.5C 101.142,143.253 99.1417,143.919 97.5,145.5C 96.8333,144.167 95.8333,143.167 94.5,142.5C 96.2255,140.772 97.5589,138.772 98.5,136.5C 100.717,135.631 103.05,135.298 105.5,135.5 Z"/></g>
<g><path style="opacity:1" fill="#282625" d="M 129.5,104.5 C 127.295,105.198 125.461,106.532 124,108.5C 121.512,111.803 120.012,115.47 119.5,119.5C 118.5,119.5 117.5,119.5 116.5,119.5C 116.833,121.5 117.167,123.5 117.5,125.5C 117.194,128.385 117.527,131.052 118.5,133.5C 118.5,134.167 118.5,134.833 118.5,135.5C 115.334,137.511 114,140.511 114.5,144.5C 115.532,149.569 116.865,154.569 118.5,159.5C 117.175,160.953 116.342,160.619 116,158.5C 115.029,159.198 113.863,159.198 112.5,158.5C 109.972,159.169 109.972,160.002 112.5,161C 111.874,161.75 111.374,162.584 111,163.5C 108.599,162.398 106.099,162.231 103.5,163C 102.809,164.067 102.309,165.234 102,166.5C 101.329,167.252 100.496,167.586 99.5,167.5C 97.1256,168.686 94.7922,168.686 92.5,167.5C 92.5987,164.763 92.2653,162.096 91.5,159.5C 92.9311,159.119 93.7645,158.119 94,156.5C 94.3333,156.833 94.6667,157.167 95,157.5C 96.1482,153.547 96.9816,149.547 97.5,145.5C 99.1417,143.919 101.142,143.253 103.5,143.5C 102.145,146.797 102.645,147.13 105,144.5C 106.011,145.337 107.178,145.67 108.5,145.5C 108.5,146.833 108.5,148.167 108.5,149.5C 109.822,149.33 110.989,149.663 112,150.5C 113.507,147.219 112.673,144.386 109.5,142C 108.552,141.517 107.552,141.351 106.5,141.5C 106.5,139.5 106.5,137.5 106.5,135.5C 107.649,135.209 108.316,134.376 108.5,133C 105.859,126.12 103.859,118.954 102.5,111.5C 103.063,113.32 104.229,114.653 106,115.5C 107.826,113.733 108.993,111.566 109.5,109C 109.043,108.586 108.709,108.086 108.5,107.5C 114.968,105.752 114.635,104.585 107.5,104C 111.486,103.501 115.486,103.334 119.5,103.5C 118.563,110.765 120.23,111.432 124.5,105.5C 123.975,104.808 123.308,104.308 122.5,104C 124.797,103.982 127.131,104.149 129.5,104.5 Z"/></g>
<g><path style="opacity:1" fill="#c5a793" d="M 156.5,139.5 C 155.545,141.746 154.878,144.079 154.5,146.5C 156.322,146.831 157.989,147.498 159.5,148.5C 159.265,149.097 158.765,149.43 158,149.5C 156.989,148.944 156.156,148.278 155.5,147.5C 154.883,147.611 154.383,147.944 154,148.5C 152.562,147.1 151.729,145.433 151.5,143.5C 147.919,143.862 144.919,142.862 142.5,140.5C 145.865,140.745 149.032,140.078 152,138.5C 153.44,139.148 154.94,139.481 156.5,139.5 Z"/></g>
<g><path style="opacity:1" fill="#624b40" d="M 105.5,135.5 C 105.833,135.5 106.167,135.5 106.5,135.5C 106.5,137.5 106.5,139.5 106.5,141.5C 107.552,141.351 108.552,141.517 109.5,142C 112.673,144.386 113.507,147.219 112,150.5C 110.989,149.663 109.822,149.33 108.5,149.5C 108.5,148.167 108.5,146.833 108.5,145.5C 107.178,145.67 106.011,145.337 105,144.5C 102.645,147.13 102.145,146.797 103.5,143.5C 105.046,141.118 105.713,138.451 105.5,135.5 Z"/></g>
<g><path style="opacity:1" fill="#737373" d="M 200.5,138.5 C 201.374,139.525 202.541,140.192 204,140.5C 206.847,139.306 209.68,139.306 212.5,140.5C 213.303,148.892 209.636,154.226 201.5,156.5C 201.5,157.167 201.167,157.5 200.5,157.5C 200.589,154.275 199.923,151.275 198.5,148.5C 198.84,146.488 199.173,144.488 199.5,142.5C 198.5,142.5 197.5,142.5 196.5,142.5C 196.5,142.167 196.5,141.833 196.5,141.5C 198.141,140.853 199.474,139.853 200.5,138.5 Z"/></g>
<g><path style="opacity:1" fill="#624b3f" d="M 178.5,137.5 C 178.5,138.5 178.5,139.5 178.5,140.5C 179.5,140.5 180.5,140.5 181.5,140.5C 181.238,141.978 181.571,143.311 182.5,144.5C 184.409,143.652 186.409,143.318 188.5,143.5C 185.829,145.118 182.829,145.785 179.5,145.5C 177.851,142.691 176.185,139.857 174.5,137C 174.667,136.5 174.833,136 175,135.5C 176.113,136.305 177.279,136.972 178.5,137.5 Z"/></g>
<g><path style="opacity:1" fill="#b29c8d" d="M 118.5,133.5 C 119.167,133.5 119.833,133.5 120.5,133.5C 125.938,137.059 131.604,140.392 137.5,143.5C 139.297,147.037 140.63,150.703 141.5,154.5C 141.5,154.833 141.5,155.167 141.5,155.5C 140.947,159.456 140.114,159.456 139,155.5C 138.768,156.737 138.268,157.737 137.5,158.5C 137.5,157.5 137.5,156.5 137.5,155.5C 134.302,154.964 131.635,155.631 129.5,157.5C 128.417,157.539 127.417,157.873 126.5,158.5C 126.167,156.5 125.833,154.5 125.5,152.5C 128.781,146.8 128.115,141.634 123.5,137C 121.975,135.991 120.308,135.491 118.5,135.5C 118.5,134.833 118.5,134.167 118.5,133.5 Z"/></g>
<g><path style="opacity:1" fill="#737070" d="M 249.5,102.5 C 249.833,102.5 250.167,102.5 250.5,102.5C 250.5,105.833 250.5,109.167 250.5,112.5C 250.334,119.841 250.5,127.174 251,134.5C 251.977,142.812 253.143,151.145 254.5,159.5C 253.518,158.859 252.518,158.193 251.5,157.5C 250.583,158.127 249.583,158.461 248.5,158.5C 248.217,157.711 247.717,157.044 247,156.5C 244.935,139.994 241.102,123.994 235.5,108.5C 236.496,108.586 237.329,108.252 238,107.5C 236.988,110.341 238.155,111.674 241.5,111.5C 241.527,117.278 242.36,122.944 244,128.5C 245.03,130.776 246.53,131.443 248.5,130.5C 248.678,126.4 248.345,122.233 247.5,118C 249.329,113.028 249.995,107.861 249.5,102.5 Z"/></g>
<g><path style="opacity:1" fill="#262221" d="M 98.5,136.5 C 97.5589,138.772 96.2255,140.772 94.5,142.5C 91.3722,145.398 88.7055,148.732 86.5,152.5C 87.5202,154.432 87.6869,156.432 87,158.5C 86.6174,157.944 86.1174,157.611 85.5,157.5C 82.4797,155.477 80.1464,152.81 78.5,149.5C 78.3894,147.352 79.056,147.019 80.5,148.5C 83.161,147.668 85.8276,146.834 88.5,146C 90.3224,143.179 92.4891,140.679 95,138.5C 95.2757,134.67 96.4424,134.004 98.5,136.5 Z"/></g>
<g><path style="opacity:1" fill="#afafad" d="M 196.5,141.5 C 196.5,141.833 196.5,142.167 196.5,142.5C 197.354,148.121 197.687,153.788 197.5,159.5C 195.5,159.5 193.5,159.5 191.5,159.5C 189.603,157.302 188.603,154.636 188.5,151.5C 187.778,151.082 187.278,150.416 187,149.5C 185.556,151.155 183.722,151.822 181.5,151.5C 180.833,149.5 180.167,147.5 179.5,145.5C 182.829,145.785 185.829,145.118 188.5,143.5C 190.913,141.949 193.579,141.283 196.5,141.5 Z"/></g>
<g><path style="opacity:1" fill="#e6aa8a" d="M 143.5,154.5 C 142.833,154.5 142.167,154.5 141.5,154.5C 140.63,150.703 139.297,147.037 137.5,143.5C 131.604,140.392 125.938,137.059 120.5,133.5C 119.781,131.236 119.448,128.903 119.5,126.5C 121.167,126.5 122.833,126.5 124.5,126.5C 124.5,127.833 124.5,129.167 124.5,130.5C 125.675,130.281 126.675,130.614 127.5,131.5C 130.728,134.498 134.062,137.498 137.5,140.5C 141.87,142.685 146.203,144.851 150.5,147C 146.484,149.213 146.484,150.213 150.5,150C 149.366,151.016 149.699,151.683 151.5,152C 148.478,152.098 145.811,152.932 143.5,154.5 Z"/></g>
<g><path style="opacity:1" fill="#cc9175" d="M 172.5,129.5 C 174.5,129.5 176.5,129.5 178.5,129.5C 178.5,132.167 178.5,134.833 178.5,137.5C 177.279,136.972 176.113,136.305 175,135.5C 174.833,136 174.667,136.5 174.5,137C 176.185,139.857 177.851,142.691 179.5,145.5C 180.167,147.5 180.833,149.5 181.5,151.5C 182.791,152.473 182.791,153.473 181.5,154.5C 180.009,155.244 178.509,155.91 177,156.5C 176.241,154.937 175.074,153.937 173.5,153.5C 172.527,151.052 172.194,148.385 172.5,145.5C 171.243,140.036 171.243,134.703 172.5,129.5 Z"/></g>
<g><path style="opacity:1" fill="#cbbbb0" d="M 118.5,135.5 C 120.308,135.491 121.975,135.991 123.5,137C 128.115,141.634 128.781,146.8 125.5,152.5C 125.833,154.5 126.167,156.5 126.5,158.5C 127.417,157.873 128.417,157.539 129.5,157.5C 130.043,157.56 130.376,157.893 130.5,158.5C 127.924,159.282 125.924,160.782 124.5,163C 125.056,163.383 125.389,163.883 125.5,164.5C 122.791,164.555 120.791,165.222 119.5,166.5C 120.708,163.928 120.375,161.594 118.5,159.5C 116.865,154.569 115.532,149.569 114.5,144.5C 114,140.511 115.334,137.511 118.5,135.5 Z"/></g>
<g><path style="opacity:1" fill="#d9cdc4" d="M 155.5,147.5 C 156.156,148.278 156.989,148.944 158,149.5C 158.765,149.43 159.265,149.097 159.5,148.5C 162.75,147.649 165.916,147.982 169,149.5C 169.333,148.833 169.667,148.167 170,147.5C 172.247,151.094 171.747,154.261 168.5,157C 164.459,157.827 160.459,157.66 156.5,156.5C 155.37,155.378 154.703,154.044 154.5,152.5C 155.289,152.217 155.956,151.717 156.5,151C 155.663,149.989 155.33,148.822 155.5,147.5 Z"/></g>
<g><path style="opacity:1" fill="#d19575" d="M 65.5,143.5 C 68.1667,143.5 70.8333,143.5 73.5,143.5C 73.8375,146.526 75.5041,148.526 78.5,149.5C 80.1464,152.81 82.4797,155.477 85.5,157.5C 81.9523,156.393 78.6189,154.726 75.5,152.5C 74.8333,152.833 74.1667,153.167 73.5,153.5C 76.1683,154.513 78.1683,156.179 79.5,158.5C 75.619,157.893 72.2856,156.226 69.5,153.5C 69.1583,152.662 68.4916,152.328 67.5,152.5C 65.8736,149.754 65.2069,146.754 65.5,143.5 Z"/></g>
<g><path style="opacity:1" fill="#ded0c9" d="M 188.5,151.5 C 188.5,150.167 188.5,148.833 188.5,147.5C 189.216,146.287 190.883,145.454 193.5,145C 194.403,148.208 195.403,151.375 196.5,154.5C 194.5,154.5 192.5,154.5 190.5,154.5C 190.715,152.821 190.048,151.821 188.5,151.5 Z"/></g>
<g><path style="opacity:1" fill="#ce815a" d="M 117.5,125.5 C 120.187,125.336 122.854,125.503 125.5,126C 129.813,132.484 135.48,137.318 142.5,140.5C 144.919,142.862 147.919,143.862 151.5,143.5C 151.729,145.433 152.562,147.1 154,148.5C 154.383,147.944 154.883,147.611 155.5,147.5C 155.33,148.822 155.663,149.989 156.5,151C 155.956,151.717 155.289,152.217 154.5,152.5C 153.778,153.551 152.778,154.218 151.5,154.5C 148.833,154.5 146.167,154.5 143.5,154.5C 145.811,152.932 148.478,152.098 151.5,152C 149.699,151.683 149.366,151.016 150.5,150C 146.484,150.213 146.484,149.213 150.5,147C 146.203,144.851 141.87,142.685 137.5,140.5C 134.062,137.498 130.728,134.498 127.5,131.5C 126.675,130.614 125.675,130.281 124.5,130.5C 124.5,129.167 124.5,127.833 124.5,126.5C 122.833,126.5 121.167,126.5 119.5,126.5C 119.448,128.903 119.781,131.236 120.5,133.5C 119.833,133.5 119.167,133.5 118.5,133.5C 117.527,131.052 117.194,128.385 117.5,125.5 Z"/></g>
<g><path style="opacity:1" fill="#dea994" d="M 94.5,142.5 C 95.8333,143.167 96.8333,144.167 97.5,145.5C 96.9816,149.547 96.1482,153.547 95,157.5C 94.6667,157.167 94.3333,156.833 94,156.5C 93.7645,158.119 92.9311,159.119 91.5,159.5C 90.1751,160.953 89.3418,160.619 89,158.5C 87.683,159.68 87.5163,161.18 88.5,163C 87.9265,164.607 87.2598,166.107 86.5,167.5C 85.0652,166.087 84.0652,164.42 83.5,162.5C 82.1667,161.167 80.8333,159.833 79.5,158.5C 78.1683,156.179 76.1683,154.513 73.5,153.5C 74.1667,153.167 74.8333,152.833 75.5,152.5C 78.6189,154.726 81.9523,156.393 85.5,157.5C 86.1174,157.611 86.6174,157.944 87,158.5C 87.6869,156.432 87.5202,154.432 86.5,152.5C 88.7055,148.732 91.3722,145.398 94.5,142.5 Z"/></g>
<g><path style="opacity:1" fill="#916753" d="M 141.5,155.5 C 141.5,155.167 141.5,154.833 141.5,154.5C 142.167,154.5 142.833,154.5 143.5,154.5C 146.167,154.5 148.833,154.5 151.5,154.5C 149.462,155.754 147.796,157.421 146.5,159.5C 145.5,159.5 144.5,159.5 143.5,159.5C 143.843,157.517 143.176,156.183 141.5,155.5 Z"/></g>
<g><path style="opacity:1" fill="#736e6e" d="M 188.5,151.5 C 188.603,154.636 189.603,157.302 191.5,159.5C 191.217,160.289 190.717,160.956 190,161.5C 188.252,159.865 187.085,157.865 186.5,155.5C 185.269,156.651 185.269,157.817 186.5,159C 185.619,159.708 184.953,160.542 184.5,161.5C 181.236,160.676 177.902,160.342 174.5,160.5C 179.751,159.519 179.751,158.519 174.5,157.5C 174.567,156.041 174.234,154.708 173.5,153.5C 175.074,153.937 176.241,154.937 177,156.5C 178.509,155.91 180.009,155.244 181.5,154.5C 182.791,153.473 182.791,152.473 181.5,151.5C 183.722,151.822 185.556,151.155 187,149.5C 187.278,150.416 187.778,151.082 188.5,151.5 Z"/></g>
<g><path style="opacity:1" fill="#a89c95" d="M 163.5,145.5 C 164.807,146.153 166.14,146.82 167.5,147.5C 168.86,146.82 170.193,146.153 171.5,145.5C 171.833,145.5 172.167,145.5 172.5,145.5C 172.194,148.385 172.527,151.052 173.5,153.5C 174.234,154.708 174.567,156.041 174.5,157.5C 179.751,158.519 179.751,159.519 174.5,160.5C 173.305,160.322 172.138,159.989 171,159.5C 164.023,160.115 157.19,160.782 150.5,161.5C 149.167,160.833 147.833,160.167 146.5,159.5C 147.796,157.421 149.462,155.754 151.5,154.5C 152.778,154.218 153.778,153.551 154.5,152.5C 154.703,154.044 155.37,155.378 156.5,156.5C 160.459,157.66 164.459,157.827 168.5,157C 171.747,154.261 172.247,151.094 170,147.5C 169.667,148.167 169.333,148.833 169,149.5C 165.916,147.982 162.75,147.649 159.5,148.5C 160.436,147.026 161.77,146.026 163.5,145.5 Z"/></g>
<g><path style="opacity:1" fill="#c4bbb3" d="M 58.5,159.5 C 58.4431,160.609 58.1098,161.609 57.5,162.5C 52.9502,163.116 48.9502,161.949 45.5,159C 44.5939,157.301 44.2606,155.467 44.5,153.5C 47.2854,151.905 50.2854,150.905 53.5,150.5C 53.3433,151.873 53.51,153.207 54,154.5C 55.7073,156.037 57.2073,157.704 58.5,159.5 Z"/></g>
<g><path style="opacity:1" fill="#c87856" d="M 91.5,159.5 C 92.2653,162.096 92.5987,164.763 92.5,167.5C 91.8333,167.5 91.1667,167.5 90.5,167.5C 89.1667,167.5 87.8333,167.5 86.5,167.5C 87.2598,166.107 87.9265,164.607 88.5,163C 87.5163,161.18 87.683,159.68 89,158.5C 89.3418,160.619 90.1751,160.953 91.5,159.5 Z"/></g>
<g><path style="opacity:1" fill="#363231" d="M 69.5,153.5 C 72.2856,156.226 75.619,157.893 79.5,158.5C 80.8333,159.833 82.1667,161.167 83.5,162.5C 83.7733,164.451 83.1066,165.951 81.5,167C 83.7536,168.054 84.087,169.554 82.5,171.5C 84.4233,172.308 86.4233,172.808 88.5,173C 87.552,173.483 86.552,173.649 85.5,173.5C 85.6989,176.941 85.1989,180.274 84,183.5C 83.5172,182.552 83.3505,181.552 83.5,180.5C 81.901,180.768 80.5676,180.434 79.5,179.5C 79.5,177.833 79.5,176.167 79.5,174.5C 76.3915,174.736 73.3915,174.403 70.5,173.5C 69.7784,173.918 69.2784,174.584 69,175.5C 68.6176,170.755 67.7843,166.088 66.5,161.5C 66.6702,159.471 67.0035,157.471 67.5,155.5C 67.7472,154.287 68.4138,153.62 69.5,153.5 Z"/></g>
<g><path style="opacity:1" fill="#a4928c" d="M 254.5,159.5 C 254.733,161.062 255.4,162.395 256.5,163.5C 260.02,168.799 258.687,170.965 252.5,170C 251.219,168.591 250.219,167.091 249.5,165.5C 247.748,165.582 246.748,164.749 246.5,163C 246.899,161.272 247.566,159.772 248.5,158.5C 249.583,158.461 250.583,158.127 251.5,157.5C 252.518,158.193 253.518,158.859 254.5,159.5 Z"/></g>
<g><path style="opacity:1" fill="#8e8d8e" d="M 196.5,142.5 C 197.5,142.5 198.5,142.5 199.5,142.5C 199.173,144.488 198.84,146.488 198.5,148.5C 199.923,151.275 200.589,154.275 200.5,157.5C 200.093,161.258 200.093,164.924 200.5,168.5C 198.73,171.193 198.063,174.193 198.5,177.5C 197.167,178.5 195.833,179.5 194.5,180.5C 194.167,180.5 193.833,180.5 193.5,180.5C 193.328,179.508 193.662,178.842 194.5,178.5C 197.338,176.694 197.005,175.694 193.5,175.5C 194.263,174.732 195.263,174.232 196.5,174C 194.453,171.662 192.119,170.829 189.5,171.5C 189.223,168.552 189.556,165.719 190.5,163C 189.181,162.805 187.847,162.972 186.5,163.5C 186.5,162.167 185.833,161.5 184.5,161.5C 184.953,160.542 185.619,159.708 186.5,159C 185.269,157.817 185.269,156.651 186.5,155.5C 187.085,157.865 188.252,159.865 190,161.5C 190.717,160.956 191.217,160.289 191.5,159.5C 193.5,159.5 195.5,159.5 197.5,159.5C 197.687,153.788 197.354,148.121 196.5,142.5 Z"/></g>
<g><path style="opacity:1" fill="#d2ccc9" d="M 141.5,155.5 C 143.176,156.183 143.843,157.517 143.5,159.5C 144.5,159.5 145.5,159.5 146.5,159.5C 147.833,160.167 149.167,160.833 150.5,161.5C 149.609,162.261 148.942,163.261 148.5,164.5C 149.396,166.801 149.562,169.134 149,171.5C 148.667,171.167 148.333,170.833 148,170.5C 145.225,173.332 142.725,173.165 140.5,170C 139.668,167.522 139.501,165.022 140,162.5C 138.054,161.253 136.22,159.92 134.5,158.5C 135.233,157.913 136.233,157.913 137.5,158.5C 138.268,157.737 138.768,156.737 139,155.5C 140.114,159.456 140.947,159.456 141.5,155.5 Z"/></g>
<g><path style="opacity:1" fill="#29211c" d="M 201.5,156.5 C 202.833,156.5 204.167,156.5 205.5,156.5C 205.215,158.288 205.548,159.955 206.5,161.5C 208.446,163.087 209.946,162.754 211,160.5C 211.417,161.756 212.25,162.423 213.5,162.5C 213.5,163.5 213.5,164.5 213.5,165.5C 215.857,165.663 218.19,165.497 220.5,165C 222.211,163.224 224.211,162.058 226.5,161.5C 227.222,161.082 227.722,160.416 228,159.5C 230.734,160.362 230.901,161.195 228.5,162C 232.084,163.073 235.75,163.74 239.5,164C 241.891,165.309 241.891,166.309 239.5,167C 240.784,167.684 241.951,167.517 243,166.5C 243.5,167 244,167.5 244.5,168C 242.74,168.965 242.406,170.132 243.5,171.5C 244.719,170.737 245.719,169.737 246.5,168.5C 248.895,169.523 249.895,168.523 249.5,165.5C 250.219,167.091 251.219,168.591 252.5,170C 258.687,170.965 260.02,168.799 256.5,163.5C 257.5,163.5 258.5,163.5 259.5,163.5C 260.568,166.897 262.901,168.897 266.5,169.5C 266.5,172.833 266.5,176.167 266.5,179.5C 261.519,180.755 256.519,180.755 251.5,179.5C 245.61,181.766 240.277,180.599 235.5,176C 234.207,175.51 232.873,175.343 231.5,175.5C 231.5,177.833 231.5,180.167 231.5,182.5C 228.412,181.688 225.579,180.355 223,178.5C 222.692,179.308 222.192,179.975 221.5,180.5C 220.167,179.167 218.833,177.833 217.5,176.5C 211.303,178.815 204.969,179.149 198.5,177.5C 198.063,174.193 198.73,171.193 200.5,168.5C 200.093,164.924 200.093,161.258 200.5,157.5C 201.167,157.5 201.5,157.167 201.5,156.5 Z"/></g>
<g><path style="opacity:1" fill="#dcd4d2" d="M 189.5,171.5 C 187.473,171.662 185.473,171.495 183.5,171C 182.429,169.175 183.096,168.008 185.5,167.5C 186.429,166.311 186.762,164.978 186.5,163.5C 187.847,162.972 189.181,162.805 190.5,163C 189.556,165.719 189.223,168.552 189.5,171.5 Z"/></g>
<g><path style="opacity:1" fill="#474643" d="M 16.5,155.5 C 15.5041,155.414 14.6708,155.748 14,156.5C 12.2683,159.969 11.1016,163.636 10.5,167.5C 12.8333,167.5 15.1667,167.5 17.5,167.5C 18.5893,169.117 20.256,169.95 22.5,170C 26.8206,170.499 31.1539,170.666 35.5,170.5C 35.5,169.5 35.5,168.5 35.5,167.5C 36.5,167.5 37.5,167.5 38.5,167.5C 37.9478,169.331 37.9478,170.997 38.5,172.5C 39.088,170.089 40.2546,168.089 42,166.5C 44.5752,167.864 46.5752,167.198 48,164.5C 51.5516,165.592 54.7183,164.926 57.5,162.5C 58.1098,161.609 58.4431,160.609 58.5,159.5C 59.2679,160.263 59.7679,161.263 60,162.5C 61.3561,161.62 62.8561,161.286 64.5,161.5C 63.9862,159.488 63.8195,157.488 64,155.5C 64.4224,153.574 65.5891,152.574 67.5,152.5C 68.4916,152.328 69.1583,152.662 69.5,153.5C 68.4138,153.62 67.7472,154.287 67.5,155.5C 67.0035,157.471 66.6702,159.471 66.5,161.5C 67.7843,166.088 68.6176,170.755 69,175.5C 69.2784,174.584 69.7784,173.918 70.5,173.5C 70.5,174.833 70.5,176.167 70.5,177.5C 68.712,177.785 67.0453,177.452 65.5,176.5C 66.5617,173.897 66.7284,171.23 66,168.5C 65.5034,175.503 64.8368,175.837 64,169.5C 61.6057,173.185 60.1057,177.185 59.5,181.5C 60.9305,181.579 62.2638,181.246 63.5,180.5C 64.1667,181.167 64.8333,181.833 65.5,182.5C 66.5237,181.147 67.857,180.48 69.5,180.5C 69.5792,181.93 69.2458,183.264 68.5,184.5C 64.2172,185.492 59.8839,185.826 55.5,185.5C 56.0138,183.488 56.1805,181.488 56,179.5C 54.7114,182.351 54.2114,185.351 54.5,188.5C 36.1667,188.5 17.8333,188.5 -0.5,188.5C -0.5,176.833 -0.5,165.167 -0.5,153.5C 4.30288,153.437 8.80288,153.77 13,154.5C 13.5,154 14,153.5 14.5,153C 13.2528,151.506 13.2528,150.006 14.5,148.5C 15.4207,150.777 16.0874,153.11 16.5,155.5 Z"/></g>
<g><path style="opacity:1" fill="#403e3a" d="M 44.5,153.5 C 44.2606,155.467 44.5939,157.301 45.5,159C 48.9502,161.949 52.9502,163.116 57.5,162.5C 54.7183,164.926 51.5516,165.592 48,164.5C 46.5752,167.198 44.5752,167.864 42,166.5C 40.2546,168.089 39.088,170.089 38.5,172.5C 37.9478,170.997 37.9478,169.331 38.5,167.5C 37.5,167.5 36.5,167.5 35.5,167.5C 35.5,168.5 35.5,169.5 35.5,170.5C 31.1539,170.666 26.8206,170.499 22.5,170C 20.256,169.95 18.5893,169.117 17.5,167.5C 20.5365,164.564 21.8698,160.898 21.5,156.5C 21.8333,155.833 22.1667,155.167 22.5,154.5C 29.7463,153.536 37.0796,153.203 44.5,153.5 Z"/></g>
<g><path style="opacity:1" fill="#beb3ad" d="M 16.5,155.5 C 18.2161,155.629 19.8828,155.962 21.5,156.5C 21.8698,160.898 20.5365,164.564 17.5,167.5C 15.1667,167.5 12.8333,167.5 10.5,167.5C 11.1016,163.636 12.2683,159.969 14,156.5C 14.6708,155.748 15.5041,155.414 16.5,155.5 Z"/></g>
<g><path style="opacity:1" fill="#682625" d="M 193.5,175.5 C 197.005,175.694 197.338,176.694 194.5,178.5C 193.909,177.849 193.243,177.182 192.5,176.5C 192.624,175.893 192.957,175.56 193.5,175.5 Z"/></g>
<g><path style="opacity:1" fill="#d9d2ce" d="M 125.5,164.5 C 125.721,167.097 126.221,167.097 127,164.5C 127.27,167.224 127.77,169.891 128.5,172.5C 126.701,174.92 125.034,177.254 123.5,179.5C 120.873,178.908 118.206,178.575 115.5,178.5C 116.295,174.262 117.628,170.262 119.5,166.5C 120.791,165.222 122.791,164.555 125.5,164.5 Z"/></g>
<g><path style="opacity:1" fill="#3c3430" d="M 137.5,158.5 C 136.233,157.913 135.233,157.913 134.5,158.5C 136.22,159.92 138.054,161.253 140,162.5C 139.501,165.022 139.668,167.522 140.5,170C 142.725,173.165 145.225,173.332 148,170.5C 148.333,170.833 148.667,171.167 149,171.5C 149.562,169.134 149.396,166.801 148.5,164.5C 148.942,163.261 149.609,162.261 150.5,161.5C 157.19,160.782 164.023,160.115 171,159.5C 172.138,159.989 173.305,160.322 174.5,160.5C 177.902,160.342 181.236,160.676 184.5,161.5C 185.833,161.5 186.5,162.167 186.5,163.5C 186.762,164.978 186.429,166.311 185.5,167.5C 183.096,168.008 182.429,169.175 183.5,171C 185.473,171.495 187.473,171.662 189.5,171.5C 187.839,174.115 186.172,176.782 184.5,179.5C 180.393,178.85 176.893,179.85 174,182.5C 172.333,182.167 170.667,181.833 169,181.5C 168.261,182.574 167.261,183.241 166,183.5C 160.376,183.457 155.043,183.457 150,183.5C 146.271,182.156 144.437,179.49 144.5,175.5C 142.5,175.5 140.5,175.5 138.5,175.5C 138.657,176.873 138.49,178.207 138,179.5C 137.804,177.714 136.971,176.381 135.5,175.5C 133.821,177.104 131.821,177.771 129.5,177.5C 129.5,178.833 129.5,180.167 129.5,181.5C 130.978,181.238 132.311,181.571 133.5,182.5C 130.45,184.517 127.117,185.517 123.5,185.5C 123.5,186.5 123.5,187.5 123.5,188.5C 122.833,188.5 122.167,188.5 121.5,188.5C 122.605,186.287 122.605,184.12 121.5,182C 122.381,181.292 123.047,180.458 123.5,179.5C 125.034,177.254 126.701,174.92 128.5,172.5C 127.77,169.891 127.27,167.224 127,164.5C 126.221,167.097 125.721,167.097 125.5,164.5C 125.389,163.883 125.056,163.383 124.5,163C 125.924,160.782 127.924,159.282 130.5,158.5C 130.376,157.893 130.043,157.56 129.5,157.5C 131.635,155.631 134.302,154.964 137.5,155.5C 137.5,156.5 137.5,157.5 137.5,158.5 Z"/></g>
<g><path style="opacity:1" fill="#dad7d2" d="M 193.5,175.5 C 192.957,175.56 192.624,175.893 192.5,176.5C 193.243,177.182 193.909,177.849 194.5,178.5C 193.662,178.842 193.328,179.508 193.5,180.5C 192.207,181.158 190.707,181.492 189,181.5C 187.014,181.431 185.514,180.765 184.5,179.5C 186.172,176.782 187.839,174.115 189.5,171.5C 192.119,170.829 194.453,171.662 196.5,174C 195.263,174.232 194.263,174.732 193.5,175.5 Z"/></g>
<g><path style="opacity:1" fill="#4d443e" d="M 184.5,179.5 C 185.514,180.765 187.014,181.431 189,181.5C 190.707,181.492 192.207,181.158 193.5,180.5C 193.833,180.5 194.167,180.5 194.5,180.5C 194.783,181.289 195.283,181.956 196,182.5C 196.741,181.359 197.575,181.359 198.5,182.5C 199.527,184.553 200.527,186.553 201.5,188.5C 175.5,188.5 149.5,188.5 123.5,188.5C 123.5,187.5 123.5,186.5 123.5,185.5C 127.117,185.517 130.45,184.517 133.5,182.5C 132.311,181.571 130.978,181.238 129.5,181.5C 129.5,180.167 129.5,178.833 129.5,177.5C 131.821,177.771 133.821,177.104 135.5,175.5C 136.971,176.381 137.804,177.714 138,179.5C 138.49,178.207 138.657,176.873 138.5,175.5C 140.5,175.5 142.5,175.5 144.5,175.5C 144.437,179.49 146.271,182.156 150,183.5C 155.043,183.457 160.376,183.457 166,183.5C 167.261,183.241 168.261,182.574 169,181.5C 170.667,181.833 172.333,182.167 174,182.5C 176.893,179.85 180.393,178.85 184.5,179.5 Z"/></g>
<g><path style="opacity:1" fill="#342c28" d="M 266.5,179.5 C 266.5,182.5 266.5,185.5 266.5,188.5C 244.833,188.5 223.167,188.5 201.5,188.5C 200.527,186.553 199.527,184.553 198.5,182.5C 197.575,181.359 196.741,181.359 196,182.5C 195.283,181.956 194.783,181.289 194.5,180.5C 195.833,179.5 197.167,178.5 198.5,177.5C 204.969,179.149 211.303,178.815 217.5,176.5C 218.833,177.833 220.167,179.167 221.5,180.5C 222.192,179.975 222.692,179.308 223,178.5C 225.579,180.355 228.412,181.688 231.5,182.5C 231.5,180.167 231.5,177.833 231.5,175.5C 232.873,175.343 234.207,175.51 235.5,176C 240.277,180.599 245.61,181.766 251.5,179.5C 256.519,180.755 261.519,180.755 266.5,179.5 Z"/></g>
<g><path style="opacity:1" fill="#484441" d="M 118.5,159.5 C 120.375,161.594 120.708,163.928 119.5,166.5C 117.628,170.262 116.295,174.262 115.5,178.5C 118.206,178.575 120.873,178.908 123.5,179.5C 123.047,180.458 122.381,181.292 121.5,182C 122.605,184.12 122.605,186.287 121.5,188.5C 99.1667,188.5 76.8333,188.5 54.5,188.5C 54.2114,185.351 54.7114,182.351 56,179.5C 56.1805,181.488 56.0138,183.488 55.5,185.5C 59.8839,185.826 64.2172,185.492 68.5,184.5C 69.2458,183.264 69.5792,181.93 69.5,180.5C 67.857,180.48 66.5237,181.147 65.5,182.5C 64.8333,181.833 64.1667,181.167 63.5,180.5C 62.2638,181.246 60.9305,181.579 59.5,181.5C 60.1057,177.185 61.6057,173.185 64,169.5C 64.8368,175.837 65.5034,175.503 66,168.5C 66.7284,171.23 66.5617,173.897 65.5,176.5C 67.0453,177.452 68.712,177.785 70.5,177.5C 73.1445,179.242 76.1445,179.909 79.5,179.5C 80.5676,180.434 81.901,180.768 83.5,180.5C 83.3505,181.552 83.5172,182.552 84,183.5C 85.1989,180.274 85.6989,176.941 85.5,173.5C 86.552,173.649 87.552,173.483 88.5,173C 86.4233,172.808 84.4233,172.308 82.5,171.5C 84.087,169.554 83.7536,168.054 81.5,167C 83.1066,165.951 83.7733,164.451 83.5,162.5C 84.0652,164.42 85.0652,166.087 86.5,167.5C 87.8333,167.5 89.1667,167.5 90.5,167.5C 89.612,170.054 89.2786,172.721 89.5,175.5C 94.717,176.076 99.717,177.409 104.5,179.5C 108.564,179.725 109.897,178.059 108.5,174.5C 105.281,172.32 102.281,169.987 99.5,167.5C 100.496,167.586 101.329,167.252 102,166.5C 102.309,165.234 102.809,164.067 103.5,163C 106.099,162.231 108.599,162.398 111,163.5C 111.374,162.584 111.874,161.75 112.5,161C 109.972,160.002 109.972,159.169 112.5,158.5C 113.863,159.198 115.029,159.198 116,158.5C 116.342,160.619 117.175,160.953 118.5,159.5 Z"/></g>
<g><path style="opacity:1" fill="#bab4b1" d="M 70.5,173.5 C 73.3915,174.403 76.3915,174.736 79.5,174.5C 79.5,176.167 79.5,177.833 79.5,179.5C 76.1445,179.909 73.1445,179.242 70.5,177.5C 70.5,176.167 70.5,174.833 70.5,173.5 Z"/></g>
<g><path style="opacity:1" fill="#d3cdcc" d="M 90.5,167.5 C 91.1667,167.5 91.8333,167.5 92.5,167.5C 94.7922,168.686 97.1256,168.686 99.5,167.5C 102.281,169.987 105.281,172.32 108.5,174.5C 109.897,178.059 108.564,179.725 104.5,179.5C 99.717,177.409 94.717,176.076 89.5,175.5C 89.2786,172.721 89.612,170.054 90.5,167.5 Z"/></g>
</svg>
