<?xml version="1.0" encoding="UTF-8"?>
<!DOCTYPE svg PUBLIC "-//W3C//DTD SVG 1.1//EN" "http://www.w3.org/Graphics/SVG/1.1/DTD/svg11.dtd">
<svg xmlns="http://www.w3.org/2000/svg" version="1.1" width="150px" height="150px" style="shape-rendering:geometricPrecision; text-rendering:geometricPrecision; image-rendering:optimizeQuality; fill-rule:evenodd; clip-rule:evenodd" xmlns:xlink="http://www.w3.org/1999/xlink">
<g><path style="opacity:1" fill="#e9e9e9" d="M -0.5,-0.5 C 7.5,-0.5 15.5,-0.5 23.5,-0.5C 23.5543,2.96704 22.0543,5.63371 19,7.5C 16.2455,12.0077 13.7455,16.6743 11.5,21.5C 12.1556,23.4534 12.4889,25.4534 12.5,27.5C 10.8333,27.5 9.16667,27.5 7.5,27.5C 6.82602,36.8834 5.49268,46.2167 3.5,55.5C 2.16667,55.5 0.833333,55.5 -0.5,55.5C -0.5,36.8333 -0.5,18.1667 -0.5,-0.5 Z"/></g>
<g><path style="opacity:1" fill="#f0f0f0" d="M 23.5,-0.5 C 27.1667,-0.5 30.8333,-0.5 34.5,-0.5C 34.5,1.16667 34.5,2.83333 34.5,4.5C 28.5954,5.90264 24.7621,9.56931 23,15.5C 19.2827,18.3773 18.7827,21.8773 21.5,26C 20.9294,28.6108 20.0961,31.1108 19,33.5C 18.2114,37.0915 18.3781,40.5915 19.5,44C 18.7539,47.2804 18.0873,50.6138 17.5,54C 17.9304,55.4341 18.7638,56.6008 20,57.5C 22.3117,68.0763 23.9784,78.743 25,89.5C 26.3754,91.3761 27.542,93.3761 28.5,95.5C 28.9558,102.522 30.6225,109.189 33.5,115.5C 34.5,115.5 35.5,115.5 36.5,115.5C 36.3069,118.475 37.3069,120.975 39.5,123C 37.9837,124.897 37.317,127.064 37.5,129.5C 35.8235,130.183 35.1568,131.517 35.5,133.5C 30.9079,134.084 28.0746,132.084 27,127.5C 27.0251,122.361 24.5251,119.694 19.5,119.5C 19.5,116.833 19.5,114.167 19.5,111.5C 18.5,111.5 17.5,111.5 16.5,111.5C 16.1667,108.833 15.8333,106.167 15.5,103.5C 14.1667,103.5 12.8333,103.5 11.5,103.5C 11.5,98.8333 11.5,94.1667 11.5,89.5C 10.1667,89.5 8.83333,89.5 7.5,89.5C 6.90777,86.3093 5.74111,83.3093 4,80.5C 3.50204,77.5184 3.33537,74.5184 3.5,71.5C 2.16667,71.5 0.833333,71.5 -0.5,71.5C -0.5,66.1667 -0.5,60.8333 -0.5,55.5C 0.833333,55.5 2.16667,55.5 3.5,55.5C 5.49268,46.2167 6.82602,36.8834 7.5,27.5C 9.16667,27.5 10.8333,27.5 12.5,27.5C 12.4889,25.4534 12.1556,23.4534 11.5,21.5C 13.7455,16.6743 16.2455,12.0077 19,7.5C 22.0543,5.63371 23.5543,2.96704 23.5,-0.5 Z"/></g>
<g><path style="opacity:1" fill="#ededee" d="M 108.5,-0.5 C 122.167,-0.5 135.833,-0.5 149.5,-0.5C 149.5,10.5 149.5,21.5 149.5,32.5C 147.769,34.1389 145.935,35.8056 144,37.5C 143.82,40.9555 143.153,44.2889 142,47.5C 135.849,53.316 130.849,59.9826 127,67.5C 125.989,68.3366 124.822,68.67 123.5,68.5C 121.783,62.9445 121.116,55.2778 121.5,45.5C 123.121,45.2131 124.121,44.2131 124.5,42.5C 124.043,41.7025 123.376,41.3691 122.5,41.5C 122.286,39.8561 122.62,38.3561 123.5,37C 122.756,35.9614 121.756,35.4614 120.5,35.5C 120.296,33.3146 119.63,31.3146 118.5,29.5C 117.375,27.1795 117.208,24.8462 118,22.5C 117.586,22.9574 117.086,23.2907 116.5,23.5C 115.83,21.7086 115.163,20.0419 114.5,18.5C 114.167,18.5 113.833,18.5 113.5,18.5C 113.298,16.0504 113.631,13.717 114.5,11.5C 115.451,10.0813 115.784,8.41467 115.5,6.5C 114.448,4.74395 112.781,4.07729 110.5,4.5C 110.5,5.5 110.5,6.5 110.5,7.5C 109.745,4.9471 109.078,2.28044 108.5,-0.5 Z"/></g>
<g><path style="opacity:1" fill="#ababab" d="M 41.5,-0.5 C 42.8333,-0.5 44.1667,-0.5 45.5,-0.5C 44.1182,1.54859 42.4516,3.21525 40.5,4.5C 40.5858,3.5041 40.2524,2.67076 39.5,2C 40.3805,1.2917 41.0472,0.458367 41.5,-0.5 Z"/></g>
<g><path style="opacity:1" fill="#929293" d="M 103.5,-0.5 C 105.167,-0.5 106.833,-0.5 108.5,-0.5C 109.078,2.28044 109.745,4.9471 110.5,7.5C 110.44,8.04309 110.107,8.37642 109.5,8.5C 108.534,6.60395 108.201,4.60395 108.5,2.5C 107.178,2.33003 106.011,2.66337 105,3.5C 104.209,2.25501 103.709,0.921673 103.5,-0.5 Z"/></g>
<g><path style="opacity:1" fill="#504f51" d="M 100.5,-0.5 C 101.5,-0.5 102.5,-0.5 103.5,-0.5C 103.709,0.921673 104.209,2.25501 105,3.5C 106.011,2.66337 107.178,2.33003 108.5,2.5C 108.201,4.60395 108.534,6.60395 109.5,8.5C 110.107,8.37642 110.44,8.04309 110.5,7.5C 112.398,8.73447 114.065,8.40113 115.5,6.5C 115.784,8.41467 115.451,10.0813 114.5,11.5C 112.317,9.14388 109.65,8.81054 106.5,10.5C 105.774,7.60731 103.941,5.94065 101,5.5C 100.505,3.5273 100.338,1.5273 100.5,-0.5 Z"/></g>
<g><path style="opacity:1" fill="#a4a4a4" d="M 115.5,6.5 C 114.065,8.40113 112.398,8.73447 110.5,7.5C 110.5,6.5 110.5,5.5 110.5,4.5C 112.781,4.07729 114.448,4.74395 115.5,6.5 Z"/></g>
<g><path style="opacity:1" fill="#29292b" d="M 45.5,-0.5 C 53.1667,-0.5 60.8333,-0.5 68.5,-0.5C 69.635,0.47449 70.635,1.64116 71.5,3C 70.5,3.66667 69.5,3.66667 68.5,3C 67.033,0.814412 65.033,0.147745 62.5,1C 61.1667,2.33333 61.1667,3.66667 62.5,5C 60.0995,5.18584 57.7662,5.68584 55.5,6.5C 57.0638,8.57509 58.0638,10.9084 58.5,13.5C 57.3349,14.5836 56.0016,15.4169 54.5,16C 55.7358,17.3875 57.0692,18.5542 58.5,19.5C 57.5,20.1667 56.5,20.8333 55.5,21.5C 52.6323,23.9125 49.299,25.5792 45.5,26.5C 47.2769,24.9205 49.1103,23.2538 51,21.5C 51.3336,19.1527 51.167,16.8194 50.5,14.5C 47.4377,14.8442 44.4377,15.5109 41.5,16.5C 40.9234,18.5499 39.5901,19.5499 37.5,19.5C 38.3443,15.6591 40.011,12.1591 42.5,9C 41.1011,8.40544 39.7678,8.57211 38.5,9.5C 37.4787,11.188 36.1454,12.5213 34.5,13.5C 34.6036,11.2972 35.2702,9.29719 36.5,7.5C 37.795,6.51163 39.1283,5.51163 40.5,4.5C 42.4516,3.21525 44.1182,1.54859 45.5,-0.5 Z"/></g>
<g><path style="opacity:1" fill="#202021" d="M 96.5,-0.5 C 97.8333,-0.5 99.1667,-0.5 100.5,-0.5C 100.338,1.5273 100.505,3.5273 101,5.5C 103.941,5.94065 105.774,7.60731 106.5,10.5C 109.65,8.81054 112.317,9.14388 114.5,11.5C 113.631,13.717 113.298,16.0504 113.5,18.5C 113.146,20.4804 112.813,22.4804 112.5,24.5C 107.567,23.4813 107.234,24.4813 111.5,27.5C 112.192,26.9747 112.692,26.3081 113,25.5C 114.128,27.3453 114.628,29.3453 114.5,31.5C 112.167,30.8333 109.833,30.1667 107.5,29.5C 106.71,28.5987 105.71,27.9321 104.5,27.5C 104.631,26.6236 104.298,25.9569 103.5,25.5C 101.343,24.9495 99.3432,24.2829 97.5,23.5C 102.051,23.9473 106.384,23.2806 110.5,21.5C 108.414,19.9975 106.248,18.6642 104,17.5C 103.907,14.9925 103.074,12.8259 101.5,11C 101.957,10.586 102.291,10.086 102.5,9.5C 98.2344,7.63208 96.2344,4.29874 96.5,-0.5 Z"/></g>
<g><path style="opacity:1" fill="#121214" d="M 68.5,-0.5 C 77.8333,-0.5 87.1667,-0.5 96.5,-0.5C 96.2344,4.29874 98.2344,7.63208 102.5,9.5C 102.291,10.086 101.957,10.586 101.5,11C 103.074,12.8259 103.907,14.9925 104,17.5C 106.248,18.6642 108.414,19.9975 110.5,21.5C 106.384,23.2806 102.051,23.9473 97.5,23.5C 96.8333,23.1667 96.1667,22.8333 95.5,22.5C 94.1258,18.8132 91.4592,17.1466 87.5,17.5C 87.1667,17.5 86.8333,17.5 86.5,17.5C 86.5,17.1667 86.5,16.8333 86.5,16.5C 90.743,15.9266 95.0763,14.7599 99.5,13C 100.451,12.2825 100.617,11.4491 100,10.5C 97.6313,9.73196 95.4647,8.5653 93.5,7C 94.6034,5.31963 94.2701,3.81963 92.5,2.5C 91.8076,3.02527 91.3076,3.69194 91,4.5C 89.0266,3.36008 87.1933,2.02675 85.5,0.5C 81.7592,2.3308 77.7592,2.99747 73.5,2.5C 73.5,3.5 73.5,4.5 73.5,5.5C 69.434,7.0183 65.6006,8.35163 62,9.5C 63.3087,11.08 64.1421,13.08 64.5,15.5C 67.4175,14.5462 70.4175,13.8795 73.5,13.5C 77.4999,14.5002 81.4999,15.5002 85.5,16.5C 76.0486,14.2644 67.0486,15.2644 58.5,19.5C 57.0692,18.5542 55.7358,17.3875 54.5,16C 56.0016,15.4169 57.3349,14.5836 58.5,13.5C 58.0638,10.9084 57.0638,8.57509 55.5,6.5C 57.7662,5.68584 60.0995,5.18584 62.5,5C 61.1667,3.66667 61.1667,2.33333 62.5,1C 65.033,0.147745 67.033,0.814412 68.5,3C 69.5,3.66667 70.5,3.66667 71.5,3C 70.635,1.64116 69.635,0.47449 68.5,-0.5 Z"/></g>
<g><path style="opacity:1" fill="#030305" d="M 86.5,16.5 C 86.1667,16.5 85.8333,16.5 85.5,16.5C 81.4999,15.5002 77.4999,14.5002 73.5,13.5C 70.4175,13.8795 67.4175,14.5462 64.5,15.5C 64.1421,13.08 63.3087,11.08 62,9.5C 65.6006,8.35163 69.434,7.0183 73.5,5.5C 73.5,4.5 73.5,3.5 73.5,2.5C 77.7592,2.99747 81.7592,2.3308 85.5,0.5C 87.1933,2.02675 89.0266,3.36008 91,4.5C 91.3076,3.69194 91.8076,3.02527 92.5,2.5C 94.2701,3.81963 94.6034,5.31963 93.5,7C 95.4647,8.5653 97.6313,9.73196 100,10.5C 100.617,11.4491 100.451,12.2825 99.5,13C 95.0763,14.7599 90.743,15.9266 86.5,16.5 Z"/></g>
<g><path style="opacity:1" fill="#454546" d="M 34.5,13.5 C 34.5,14.5 34.5,15.5 34.5,16.5C 33.5,16.5 32.5,16.5 31.5,16.5C 31.539,19.089 30.539,21.089 28.5,22.5C 28.7593,18.3086 30.7593,15.3086 34.5,13.5 Z"/></g>
<g><path style="opacity:1" fill="#848486" d="M 86.5,17.5 C 86.8333,17.5 87.1667,17.5 87.5,17.5C 89.5303,20.182 92.197,21.8486 95.5,22.5C 96.1667,22.8333 96.8333,23.1667 97.5,23.5C 99.3432,24.2829 101.343,24.9495 103.5,25.5C 104.298,25.9569 104.631,26.6236 104.5,27.5C 102.097,27.552 99.7638,27.2186 97.5,26.5C 96.089,24.461 94.089,23.461 91.5,23.5C 90.4264,22.1154 89.0931,20.9487 87.5,20C 80.8417,19.5004 74.175,19.3337 67.5,19.5C 73.605,18.0035 79.9384,17.3369 86.5,17.5 Z"/></g>
<g><path style="opacity:1" fill="#38373a" d="M 87.5,17.5 C 91.4592,17.1466 94.1258,18.8132 95.5,22.5C 92.197,21.8486 89.5303,20.182 87.5,17.5 Z"/></g>
<g><path style="opacity:1" fill="#464447" d="M 85.5,16.5 C 85.8333,16.5 86.1667,16.5 86.5,16.5C 86.5,16.8333 86.5,17.1667 86.5,17.5C 79.9384,17.3369 73.605,18.0035 67.5,19.5C 63.6163,20.7927 59.6163,21.4593 55.5,21.5C 56.5,20.8333 57.5,20.1667 58.5,19.5C 67.0486,15.2644 76.0486,14.2644 85.5,16.5 Z"/></g>
<g><path style="opacity:1" fill="#bababa" d="M 36.5,7.5 C 35.2702,9.29719 34.6036,11.2972 34.5,13.5C 30.7593,15.3086 28.7593,18.3086 28.5,22.5C 28.8064,25.3854 28.4731,28.0521 27.5,30.5C 26.6684,25.5192 26.5017,20.5192 27,15.5C 29.221,14.0656 30.721,12.0656 31.5,9.5C 33.0754,8.54355 34.742,7.87688 36.5,7.5 Z"/></g>
<g><path style="opacity:1" fill="#b7b7b8" d="M 114.5,18.5 C 115.163,20.0419 115.83,21.7086 116.5,23.5C 117.086,23.2907 117.586,22.9574 118,22.5C 117.208,24.8462 117.375,27.1795 118.5,29.5C 115.801,26.4086 114.467,22.7419 114.5,18.5 Z"/></g>
<g><path style="opacity:1" fill="#767577" d="M 67.5,19.5 C 58.0373,22.8901 48.7039,26.8901 39.5,31.5C 41.1307,29.3567 43.1307,27.69 45.5,26.5C 49.299,25.5792 52.6323,23.9125 55.5,21.5C 59.6163,21.4593 63.6163,20.7927 67.5,19.5 Z"/></g>
<g><path style="opacity:1" fill="#d4d4d4" d="M 83.5,56.5 C 81.2646,56.2053 79.2646,56.5386 77.5,57.5C 74.8127,57.6641 72.146,57.4974 69.5,57C 65.1946,56.2324 61.1946,54.7324 57.5,52.5C 56.0462,50.7367 56.3796,49.4033 58.5,48.5C 60.4503,42.3933 59.4503,36.8933 55.5,32C 60.3554,30.0775 65.3554,28.5775 70.5,27.5C 73.1667,28.8333 75.8333,30.1667 78.5,31.5C 80.0521,34.5674 79.3855,37.0674 76.5,39C 77.7918,44.0011 80.4584,44.5011 84.5,40.5C 85.7741,43.4744 87.7741,44.1411 90.5,42.5C 95.1336,43.0765 97.4669,45.7431 97.5,50.5C 98.5,51.1667 99.5,51.8333 100.5,52.5C 100.291,53.086 99.9574,53.586 99.5,54C 96.1996,53.8402 92.8663,53.3402 89.5,52.5C 87.5466,53.1556 85.5466,53.4889 83.5,53.5C 83.5,54.5 83.5,55.5 83.5,56.5 Z"/></g>
<g><path style="opacity:1" fill="#c8c8c8" d="M 91.5,23.5 C 94.089,23.461 96.089,24.461 97.5,26.5C 98.2341,27.7079 98.5674,29.0413 98.5,30.5C 100.977,30.0508 102.977,30.7175 104.5,32.5C 104.76,37.7503 104.093,43.0836 102.5,48.5C 102.288,51.0114 102.955,53.1781 104.5,55C 100.312,55.1762 96.3123,55.6762 92.5,56.5C 91.5,56.5 90.5,56.5 89.5,56.5C 87.5,56.5 85.5,56.5 83.5,56.5C 83.5,55.5 83.5,54.5 83.5,53.5C 85.5466,53.4889 87.5466,53.1556 89.5,52.5C 92.8663,53.3402 96.1996,53.8402 99.5,54C 99.9574,53.586 100.291,53.086 100.5,52.5C 99.5,51.8333 98.5,51.1667 97.5,50.5C 97.4669,45.7431 95.1336,43.0765 90.5,42.5C 87.7741,44.1411 85.7741,43.4744 84.5,40.5C 80.4584,44.5011 77.7918,44.0011 76.5,39C 79.3855,37.0674 80.0521,34.5674 78.5,31.5C 75.8333,30.1667 73.1667,28.8333 70.5,27.5C 65.3554,28.5775 60.3554,30.0775 55.5,32C 59.4503,36.8933 60.4503,42.3933 58.5,48.5C 56.3796,49.4033 56.0462,50.7367 57.5,52.5C 61.1946,54.7324 65.1946,56.2324 69.5,57C 72.146,57.4974 74.8127,57.6641 77.5,57.5C 75.0521,58.4731 72.3854,58.8064 69.5,58.5C 62.3074,56.5373 54.9741,56.0373 47.5,57C 46.3094,57.6979 45.3094,58.5313 44.5,59.5C 43.1667,59.5 41.8333,59.5 40.5,59.5C 40.9392,54.4816 40.2725,49.6483 38.5,45C 40.8166,41.5438 41.8166,37.7105 41.5,33.5C 46.6134,32.2948 51.6134,30.7948 56.5,29C 57.2921,26.6639 58.6254,26.1639 60.5,27.5C 70.3149,21.8888 80.6482,20.5555 91.5,23.5 Z"/></g>
<g><path style="opacity:1" fill="#2d2d2d" d="M 113.5,18.5 C 113.833,18.5 114.167,18.5 114.5,18.5C 114.467,22.7419 115.801,26.4086 118.5,29.5C 119.63,31.3146 120.296,33.3146 120.5,35.5C 120.5,37.1667 120.5,38.8333 120.5,40.5C 119.898,38.3202 118.565,36.6536 116.5,35.5C 115.522,35.9767 114.689,36.6433 114,37.5C 112.893,36.2881 112.393,36.6214 112.5,38.5C 111.833,37.8333 111.167,37.1667 110.5,36.5C 109.773,34.0462 108.773,31.7128 107.5,29.5C 109.833,30.1667 112.167,30.8333 114.5,31.5C 114.628,29.3453 114.128,27.3453 113,25.5C 112.692,26.3081 112.192,26.9747 111.5,27.5C 107.234,24.4813 107.567,23.4813 112.5,24.5C 112.813,22.4804 113.146,20.4804 113.5,18.5 Z"/></g>
<g><path style="opacity:1" fill="#19191b" d="M 45.5,26.5 C 43.1307,27.69 41.1307,29.3567 39.5,31.5C 37.0594,33.0745 35.8928,35.4079 36,38.5C 35.5003,46.1594 35.3336,53.8261 35.5,61.5C 34.6715,68.3213 34.1715,75.3213 34,82.5C 33.6174,81.944 33.1174,81.6107 32.5,81.5C 32.5,79.1667 32.5,76.8333 32.5,74.5C 33.6552,67.3451 33.8218,60.0118 33,52.5C 32,52.1667 31,51.8333 30,51.5C 27.5959,46.66 28.2625,42.3267 32,38.5C 32.8736,35.6213 32.5403,32.9546 31,30.5C 29.6927,32.1918 28.1927,33.5251 26.5,34.5C 26.8333,33.1667 27.1667,31.8333 27.5,30.5C 28.4731,28.0521 28.8064,25.3854 28.5,22.5C 30.539,21.089 31.539,19.089 31.5,16.5C 32.5,16.5 33.5,16.5 34.5,16.5C 34.5,15.5 34.5,14.5 34.5,13.5C 36.1454,12.5213 37.4787,11.188 38.5,9.5C 39.7678,8.57211 41.1011,8.40544 42.5,9C 40.011,12.1591 38.3443,15.6591 37.5,19.5C 39.5901,19.5499 40.9234,18.5499 41.5,16.5C 44.4377,15.5109 47.4377,14.8442 50.5,14.5C 51.167,16.8194 51.3336,19.1527 51,21.5C 49.1103,23.2538 47.2769,24.9205 45.5,26.5 Z"/></g>
<g><path style="opacity:1" fill="#666668" d="M 39.5,31.5 C 38.0343,34.2472 37.2009,37.2472 37,40.5C 36.8285,47.6787 36.3285,54.6787 35.5,61.5C 35.3336,53.8261 35.5003,46.1594 36,38.5C 35.8928,35.4079 37.0594,33.0745 39.5,31.5 Z"/></g>
<g><path style="opacity:1" fill="#b1b0b1" d="M 97.5,26.5 C 99.7638,27.2186 102.097,27.552 104.5,27.5C 105.64,29.7802 106.807,32.1136 108,34.5C 109.152,42.1421 109.486,49.8088 109,57.5C 108.667,58.1667 108.333,58.8333 108,59.5C 103.135,57.1605 97.968,56.1605 92.5,56.5C 96.3123,55.6762 100.312,55.1762 104.5,55C 102.955,53.1781 102.288,51.0114 102.5,48.5C 104.093,43.0836 104.76,37.7503 104.5,32.5C 102.977,30.7175 100.977,30.0508 98.5,30.5C 98.5674,29.0413 98.2341,27.7079 97.5,26.5 Z"/></g>
<g><path style="opacity:1" fill="#0e0e0e" d="M 120.5,40.5 C 121.167,40.8333 121.833,41.1667 122.5,41.5C 121.766,42.7079 121.433,44.0413 121.5,45.5C 120.515,49.6344 120.182,53.9677 120.5,58.5C 119.626,61.5349 118.626,64.5349 117.5,67.5C 116.683,69.9686 116.183,72.6353 116,75.5C 115.79,73.9419 115.29,72.6085 114.5,71.5C 114.247,67.9601 113.581,64.6267 112.5,61.5C 112.5,59.5 112.5,57.5 112.5,55.5C 112.5,49.8333 112.5,44.1667 112.5,38.5C 112.393,36.6214 112.893,36.2881 114,37.5C 114.689,36.6433 115.522,35.9767 116.5,35.5C 118.565,36.6536 119.898,38.3202 120.5,40.5 Z"/></g>
<g><path style="opacity:1" fill="#a1a1a1" d="M 120.5,35.5 C 121.756,35.4614 122.756,35.9614 123.5,37C 122.62,38.3561 122.286,39.8561 122.5,41.5C 121.833,41.1667 121.167,40.8333 120.5,40.5C 120.5,38.8333 120.5,37.1667 120.5,35.5 Z"/></g>
<g><path style="opacity:1" fill="#4e4e4e" d="M 110.5,36.5 C 111.167,37.1667 111.833,37.8333 112.5,38.5C 112.5,44.1667 112.5,49.8333 112.5,55.5C 111.004,49.395 110.337,43.0616 110.5,36.5 Z"/></g>
<g><path style="opacity:1" fill="#b3b3b3" d="M 122.5,41.5 C 123.376,41.3691 124.043,41.7025 124.5,42.5C 124.121,44.2131 123.121,45.2131 121.5,45.5C 121.433,44.0413 121.766,42.7079 122.5,41.5 Z"/></g>
<g><path style="opacity:1" fill="#8d8d8d" d="M 26.5,34.5 C 26.1114,42.1637 25.778,49.8304 25.5,57.5C 24.8351,54.5185 24.5018,51.3518 24.5,48C 24.3078,43.2279 24.9745,38.7279 26.5,34.5 Z"/></g>
<g><path style="opacity:1" fill="#e2e2e2" d="M 34.5,-0.5 C 36.8333,-0.5 39.1667,-0.5 41.5,-0.5C 41.0472,0.458367 40.3805,1.2917 39.5,2C 40.2524,2.67076 40.5858,3.5041 40.5,4.5C 39.1283,5.51163 37.795,6.51163 36.5,7.5C 34.742,7.87688 33.0754,8.54355 31.5,9.5C 30.721,12.0656 29.221,14.0656 27,15.5C 26.5017,20.5192 26.6684,25.5192 27.5,30.5C 27.1667,31.8333 26.8333,33.1667 26.5,34.5C 24.9745,38.7279 24.3078,43.2279 24.5,48C 24.5018,51.3518 24.8351,54.5185 25.5,57.5C 26.038,59.1172 26.3713,60.7839 26.5,62.5C 26.2786,65.2788 26.612,67.9455 27.5,70.5C 27.9755,77.6105 29.1422,84.6105 31,91.5C 32.3588,92.365 33.5255,93.365 34.5,94.5C 35.3934,98.1909 36.3934,101.858 37.5,105.5C 38.0604,107.801 38.5604,110.134 39,112.5C 39.3826,113.056 39.8826,113.389 40.5,113.5C 41.5612,116.622 42.8946,119.622 44.5,122.5C 44.5,125.167 44.5,127.833 44.5,130.5C 43.5416,130.953 42.7083,131.619 42,132.5C 41.5272,130.221 40.5272,128.221 39,126.5C 38.7679,127.737 38.2679,128.737 37.5,129.5C 37.317,127.064 37.9837,124.897 39.5,123C 37.3069,120.975 36.3069,118.475 36.5,115.5C 35.5,115.5 34.5,115.5 33.5,115.5C 30.6225,109.189 28.9558,102.522 28.5,95.5C 27.542,93.3761 26.3754,91.3761 25,89.5C 23.9784,78.743 22.3117,68.0763 20,57.5C 18.7638,56.6008 17.9304,55.4341 17.5,54C 18.0873,50.6138 18.7539,47.2804 19.5,44C 18.3781,40.5915 18.2114,37.0915 19,33.5C 20.0961,31.1108 20.9294,28.6108 21.5,26C 18.7827,21.8773 19.2827,18.3773 23,15.5C 24.7621,9.56931 28.5954,5.90264 34.5,4.5C 34.5,2.83333 34.5,1.16667 34.5,-0.5 Z"/></g>
<g><path style="opacity:1" fill="#dfdfde" d="M 149.5,32.5 C 149.5,40.1667 149.5,47.8333 149.5,55.5C 147.896,56.287 147.229,57.6203 147.5,59.5C 139.219,60.6673 133.886,65.334 131.5,73.5C 130.008,79.3997 129.175,85.3997 129,91.5C 127.694,95.4456 125.861,99.1122 123.5,102.5C 122.833,106.833 122.167,111.167 121.5,115.5C 119.184,122.367 117.184,129.367 115.5,136.5C 117.264,138.278 119.264,139.611 121.5,140.5C 122.899,141.89 124.566,142.89 126.5,143.5C 129.167,144.5 131.833,145.5 134.5,146.5C 136.23,147.026 137.564,148.026 138.5,149.5C 132.167,149.5 125.833,149.5 119.5,149.5C 119.723,146.886 118.556,145.219 116,144.5C 115.667,142.833 115.333,141.167 115,139.5C 114.667,139.833 114.333,140.167 114,140.5C 113.809,138.292 113.309,136.292 112.5,134.5C 110.975,132.784 109.975,130.784 109.5,128.5C 108.741,126.564 107.741,124.731 106.5,123C 106.989,121.862 107.322,120.695 107.5,119.5C 108.394,116.608 109.728,113.941 111.5,111.5C 113.163,109.562 113.829,107.228 113.5,104.5C 114.167,100.5 114.833,96.5 115.5,92.5C 117.043,90.43 118.376,88.0966 119.5,85.5C 120.448,80.8674 121.114,76.2007 121.5,71.5C 121.414,67.1434 121.08,62.81 120.5,58.5C 120.182,53.9677 120.515,49.6344 121.5,45.5C 121.116,55.2778 121.783,62.9445 123.5,68.5C 124.822,68.67 125.989,68.3366 127,67.5C 130.849,59.9826 135.849,53.316 142,47.5C 143.153,44.2889 143.82,40.9555 144,37.5C 145.935,35.8056 147.769,34.1389 149.5,32.5 Z"/></g>
<g><path style="opacity:1" fill="#0f0f0f" d="M 32.5,74.5 C 32.5,73.8333 32.1667,73.5 31.5,73.5C 31.5,73.1667 31.5,72.8333 31.5,72.5C 29.2428,69.5056 27.5761,66.1722 26.5,62.5C 26.3713,60.7839 26.038,59.1172 25.5,57.5C 25.778,49.8304 26.1114,42.1637 26.5,34.5C 28.1927,33.5251 29.6927,32.1918 31,30.5C 32.5403,32.9546 32.8736,35.6213 32,38.5C 28.2625,42.3267 27.5959,46.66 30,51.5C 31,51.8333 32,52.1667 33,52.5C 33.8218,60.0118 33.6552,67.3451 32.5,74.5 Z"/></g>
<g><path style="opacity:1" fill="#b5b4b4" d="M 83.5,56.5 C 85.5,56.5 87.5,56.5 89.5,56.5C 89.5,56.8333 89.5,57.1667 89.5,57.5C 88.609,58.1098 87.609,58.4431 86.5,58.5C 84.2543,59.4552 81.921,60.1218 79.5,60.5C 79.8333,65.1667 80.1667,69.8333 80.5,74.5C 79.7337,72.3157 79.0671,69.9823 78.5,67.5C 76.7349,65.9472 74.9015,65.6139 73,66.5C 72.6958,70.5483 72.1958,74.5483 71.5,78.5C 71.1667,78.5 70.8333,78.5 70.5,78.5C 71.8241,71.7562 71.4908,65.0896 69.5,58.5C 72.3854,58.8064 75.0521,58.4731 77.5,57.5C 79.2646,56.5386 81.2646,56.2053 83.5,56.5 Z"/></g>
<g><path style="opacity:1" fill="#353535" d="M 89.5,57.5 C 93.962,57.423 98.2953,58.0897 102.5,59.5C 97.7295,60.2443 92.8962,61.2443 88,62.5C 86.3189,62.3917 85.1522,61.7251 84.5,60.5C 85.5,60.1667 86.1667,59.5 86.5,58.5C 87.609,58.4431 88.609,58.1098 89.5,57.5 Z"/></g>
<g><path style="opacity:1" fill="#d3d3d3" d="M 149.5,55.5 C 149.5,60.5 149.5,65.5 149.5,70.5C 147.565,71.1495 145.565,71.4828 143.5,71.5C 143.5,72.8333 143.5,74.1667 143.5,75.5C 142.167,75.5 140.833,75.5 139.5,75.5C 138.734,79.8324 137.9,84.1658 137,88.5C 136.5,89.6667 135.667,90.5 134.5,91C 134.957,91.414 135.291,91.914 135.5,92.5C 131.285,104.091 128.452,116.091 127,128.5C 124.85,132.444 123.017,136.444 121.5,140.5C 119.264,139.611 117.264,138.278 115.5,136.5C 117.184,129.367 119.184,122.367 121.5,115.5C 122.167,111.167 122.833,106.833 123.5,102.5C 125.861,99.1122 127.694,95.4456 129,91.5C 129.175,85.3997 130.008,79.3997 131.5,73.5C 133.886,65.334 139.219,60.6673 147.5,59.5C 147.229,57.6203 147.896,56.287 149.5,55.5 Z"/></g>
<g><path style="opacity:1" fill="#d6d6d6" d="M 80.5,74.5 C 81.7933,81.487 81.7933,88.487 80.5,95.5C 78.323,95.5861 76.323,96.2528 74.5,97.5C 73.2519,96.9598 72.0852,96.2931 71,95.5C 70.9049,89.843 71.0716,84.1763 71.5,78.5C 72.1958,74.5483 72.6958,70.5483 73,66.5C 74.9015,65.6139 76.7349,65.9472 78.5,67.5C 79.0671,69.9823 79.7337,72.3157 80.5,74.5 Z"/></g>
<g><path style="opacity:1" fill="#89888a" d="M 104.5,27.5 C 105.71,27.9321 106.71,28.5987 107.5,29.5C 108.773,31.7128 109.773,34.0462 110.5,36.5C 110.337,43.0616 111.004,49.395 112.5,55.5C 112.5,57.5 112.5,59.5 112.5,61.5C 111.778,61.0825 111.278,60.4158 111,59.5C 109.608,62.2784 109.108,65.2784 109.5,68.5C 104.203,69.0325 104.203,69.8658 109.5,71C 107.1,71.1858 104.766,71.6858 102.5,72.5C 103.902,73.8425 103.569,74.6758 101.5,75C 102.308,75.3076 102.975,75.8076 103.5,76.5C 99.5656,79.2025 95.2322,80.0358 90.5,79C 87.8446,77.8343 85.1779,76.6676 82.5,75.5C 81.8333,75.1667 81.1667,74.8333 80.5,74.5C 80.1667,69.8333 79.8333,65.1667 79.5,60.5C 81.921,60.1218 84.2543,59.4552 86.5,58.5C 86.1667,59.5 85.5,60.1667 84.5,60.5C 83.8826,60.6107 83.3826,60.944 83,61.5C 82.2192,64.8337 81.8859,68.167 82,71.5C 85.2429,68.5827 88.7429,66.0827 92.5,64C 96.5746,63.1023 100.241,63.9356 103.5,66.5C 104.428,64.6652 105.594,64.3318 107,65.5C 108.568,61.0826 107.068,59.0826 102.5,59.5C 98.2953,58.0897 93.962,57.423 89.5,57.5C 89.5,57.1667 89.5,56.8333 89.5,56.5C 90.5,56.5 91.5,56.5 92.5,56.5C 97.968,56.1605 103.135,57.1605 108,59.5C 108.333,58.8333 108.667,58.1667 109,57.5C 109.486,49.8088 109.152,42.1421 108,34.5C 106.807,32.1136 105.64,29.7802 104.5,27.5 Z"/></g>
<g><path style="opacity:1" fill="#646466" d="M 102.5,59.5 C 107.068,59.0826 108.568,61.0826 107,65.5C 105.594,64.3318 104.428,64.6652 103.5,66.5C 100.241,63.9356 96.5746,63.1023 92.5,64C 88.7429,66.0827 85.2429,68.5827 82,71.5C 81.8859,68.167 82.2192,64.8337 83,61.5C 83.3826,60.944 83.8826,60.6107 84.5,60.5C 85.1522,61.7251 86.3189,62.3917 88,62.5C 92.8962,61.2443 97.7295,60.2443 102.5,59.5 Z"/></g>
<g><path style="opacity:1" fill="#7c7c7c" d="M 120.5,58.5 C 121.08,62.81 121.414,67.1434 121.5,71.5C 120.849,72.0906 120.182,72.7573 119.5,73.5C 118.833,77.6475 118.166,81.6475 117.5,85.5C 117.5,79.5 117.5,73.5 117.5,67.5C 118.626,64.5349 119.626,61.5349 120.5,58.5 Z"/></g>
<g><path style="opacity:1" fill="#737172" d="M 68.5,70.5 C 67.0476,69.2869 65.7143,69.6203 64.5,71.5C 62.8014,70.1854 61.1347,70.1854 59.5,71.5C 60.8046,68.1289 59.4713,66.7955 55.5,67.5C 56.9516,66.6981 58.6183,66.1981 60.5,66C 55.6887,62.4955 51.1887,62.9955 47,67.5C 46.5078,66.451 46.6744,65.451 47.5,64.5C 45.565,63.787 45.2317,62.787 46.5,61.5C 49.3983,58.224 53.0649,56.8906 57.5,57.5C 60.6224,57.851 63.6224,58.5176 66.5,59.5C 66.2157,63.0919 67.2157,66.2586 69.5,69C 69.4301,69.7648 69.0967,70.2648 68.5,70.5 Z"/></g>
<g><path style="opacity:1" fill="#393939" d="M 55.5,58.5 C 58.4715,58.4354 61.1382,59.2687 63.5,61C 59.4356,62.9396 55.4356,62.9396 51.5,61C 52.8584,60.0656 54.1917,59.2323 55.5,58.5 Z"/></g>
<g><path style="opacity:1" fill="#777777" d="M 26.5,62.5 C 27.5761,66.1722 29.2428,69.5056 31.5,72.5C 30.1667,71.8333 28.8333,71.1667 27.5,70.5C 26.612,67.9455 26.2786,65.2788 26.5,62.5 Z"/></g>
<g><path style="opacity:1" fill="#262628" d="M 55.5,67.5 C 59.4713,66.7955 60.8046,68.1289 59.5,71.5C 58.3409,73.3769 56.6742,73.8769 54.5,73C 53.9288,71.7949 53.2621,70.6283 52.5,69.5C 46.4847,72.1641 46.1513,71.6641 51.5,68C 52.7932,67.51 54.1266,67.3433 55.5,67.5 Z"/></g>
<g><path style="opacity:1" fill="#292629" d="M 92.5,66.5 C 96.5991,66.3666 100.266,67.5333 103.5,70C 101.965,70.4962 100.465,70.3295 99,69.5C 95.3352,73.5703 91.8352,73.4037 88.5,69C 89.8584,68.0656 91.1917,67.2323 92.5,66.5 Z"/></g>
<g><path style="opacity:1" fill="#838383" d="M 112.5,61.5 C 113.581,64.6267 114.247,67.9601 114.5,71.5C 114.806,74.3854 114.473,77.0521 113.5,79.5C 112.587,73.5594 112.254,67.5594 112.5,61.5 Z"/></g>
<g><path style="opacity:1" fill="#cbcbcb" d="M 149.5,70.5 C 149.5,75.5 149.5,80.5 149.5,85.5C 147.718,86.7196 145.718,87.3862 143.5,87.5C 143.5,90.1667 143.5,92.8333 143.5,95.5C 138.58,96.2805 136.414,99.2805 137,104.5C 136.173,105.662 135.34,106.829 134.5,108C 132.625,117.182 130.791,126.349 129,135.5C 128.086,137.664 126.919,139.664 125.5,141.5C 125.863,142.183 126.196,142.85 126.5,143.5C 124.566,142.89 122.899,141.89 121.5,140.5C 123.017,136.444 124.85,132.444 127,128.5C 128.452,116.091 131.285,104.091 135.5,92.5C 135.291,91.914 134.957,91.414 134.5,91C 135.667,90.5 136.5,89.6667 137,88.5C 137.9,84.1658 138.734,79.8324 139.5,75.5C 140.833,75.5 142.167,75.5 143.5,75.5C 143.5,74.1667 143.5,72.8333 143.5,71.5C 145.565,71.4828 147.565,71.1495 149.5,70.5 Z"/></g>
<g><path style="opacity:1" fill="#e7e7e7" d="M -0.5,71.5 C 0.833333,71.5 2.16667,71.5 3.5,71.5C 3.33537,74.5184 3.50204,77.5184 4,80.5C 5.74111,83.3093 6.90777,86.3093 7.5,89.5C 8.83333,89.5 10.1667,89.5 11.5,89.5C 11.5,94.1667 11.5,98.8333 11.5,103.5C 12.8333,103.5 14.1667,103.5 15.5,103.5C 15.8333,106.167 16.1667,108.833 16.5,111.5C 17.5,111.5 18.5,111.5 19.5,111.5C 19.5,114.167 19.5,116.833 19.5,119.5C 24.5251,119.694 27.0251,122.361 27,127.5C 28.0746,132.084 30.9079,134.084 35.5,133.5C 35.1568,131.517 35.8235,130.183 37.5,129.5C 37.1925,137.141 33.1925,141.141 25.5,141.5C 22.7967,140.961 21.2967,139.295 21,136.5C 16.2541,133.331 13.2541,128.997 12,123.5C 11.1822,128.794 10.6822,128.794 10.5,123.5C 9.5,123.5 8.5,123.5 7.5,123.5C 7.5,122.167 7.5,120.833 7.5,119.5C 6.16667,119.5 4.83333,119.5 3.5,119.5C 3.81335,116.753 3.48002,114.086 2.5,111.5C 1.73485,110.388 0.734849,109.721 -0.5,109.5C -0.5,96.8333 -0.5,84.1667 -0.5,71.5 Z"/></g>
<g><path style="opacity:1" fill="#afafb0" d="M 67.5,19.5 C 74.175,19.3337 80.8417,19.5004 87.5,20C 89.0931,20.9487 90.4264,22.1154 91.5,23.5C 80.6482,20.5555 70.3149,21.8888 60.5,27.5C 58.6254,26.1639 57.2921,26.6639 56.5,29C 51.6134,30.7948 46.6134,32.2948 41.5,33.5C 41.8166,37.7105 40.8166,41.5438 38.5,45C 40.2725,49.6483 40.9392,54.4816 40.5,59.5C 41.8333,59.5 43.1667,59.5 44.5,59.5C 44.5,59.8333 44.5,60.1667 44.5,60.5C 43.469,61.2485 42.3024,61.9152 41,62.5C 40.5034,64.8098 40.3367,67.1432 40.5,69.5C 44.8466,69.942 45.18,70.7753 41.5,72C 45.9943,72.6635 48.6609,75.1635 49.5,79.5C 51.5,79.5 53.5,79.5 55.5,79.5C 55.7352,80.0967 56.2352,80.4301 57,80.5C 60.8816,79.5353 64.5482,78.202 68,76.5C 68.7083,77.3805 69.5416,78.0472 70.5,78.5C 69.3925,83.4648 67.2258,83.7982 64,79.5C 59.2143,82.9918 54.0477,83.8251 48.5,82C 46.6543,79.4876 44.4876,77.321 42,75.5C 40.6988,76.0981 39.8655,77.0981 39.5,78.5C 41.1965,79.3636 42.3632,80.6969 43,82.5C 43.4983,85.8168 43.665,89.1501 43.5,92.5C 48.1785,92.6658 52.8452,92.4992 57.5,92C 59.8684,89.7061 62.5351,89.2061 65.5,90.5C 64.1783,92.8646 64.1783,95.1979 65.5,97.5C 63.8863,99.0746 61.8863,99.7413 59.5,99.5C 59.1196,96.2084 60.4529,93.8751 63.5,92.5C 63,92.1667 62.5,91.8333 62,91.5C 56.75,96.1483 50.5833,97.6483 43.5,96C 42.3636,94.8549 41.3636,93.6883 40.5,92.5C 38.6436,90.0103 37.3103,87.3437 36.5,84.5C 35.5663,76.889 35.2329,69.2223 35.5,61.5C 36.3285,54.6787 36.8285,47.6787 37,40.5C 37.2009,37.2472 38.0343,34.2472 39.5,31.5C 48.7039,26.8901 58.0373,22.8901 67.5,19.5 Z"/></g>
<g><path style="opacity:1" fill="#a1a0a0" d="M 69.5,58.5 C 71.4908,65.0896 71.8241,71.7562 70.5,78.5C 69.5416,78.0472 68.7083,77.3805 68,76.5C 64.5482,78.202 60.8816,79.5353 57,80.5C 56.2352,80.4301 55.7352,80.0967 55.5,79.5C 58.4273,78.3498 61.4273,77.3498 64.5,76.5C 65.3539,75.0521 66.3539,73.7187 67.5,72.5C 66.019,71.056 66.3523,70.3894 68.5,70.5C 69.0967,70.2648 69.4301,69.7648 69.5,69C 67.2157,66.2586 66.2157,63.0919 66.5,59.5C 63.6224,58.5176 60.6224,57.851 57.5,57.5C 53.0649,56.8906 49.3983,58.224 46.5,61.5C 45.8333,61.1667 45.1667,60.8333 44.5,60.5C 44.5,60.1667 44.5,59.8333 44.5,59.5C 45.3094,58.5313 46.3094,57.6979 47.5,57C 54.9741,56.0373 62.3074,56.5373 69.5,58.5 Z"/></g>
<g><path style="opacity:1" fill="#8f8f91" d="M 44.5,60.5 C 45.1667,60.8333 45.8333,61.1667 46.5,61.5C 45.2317,62.787 45.565,63.787 47.5,64.5C 46.6744,65.451 46.5078,66.451 47,67.5C 51.1887,62.9955 55.6887,62.4955 60.5,66C 58.6183,66.1981 56.9516,66.6981 55.5,67.5C 54.1266,67.3433 52.7932,67.51 51.5,68C 46.1513,71.6641 46.4847,72.1641 52.5,69.5C 53.2621,70.6283 53.9288,71.7949 54.5,73C 56.6742,73.8769 58.3409,73.3769 59.5,71.5C 61.1347,70.1854 62.8014,70.1854 64.5,71.5C 65.7143,69.6203 67.0476,69.2869 68.5,70.5C 66.3523,70.3894 66.019,71.056 67.5,72.5C 66.3539,73.7187 65.3539,75.0521 64.5,76.5C 61.4273,77.3498 58.4273,78.3498 55.5,79.5C 53.5,79.5 51.5,79.5 49.5,79.5C 48.6609,75.1635 45.9943,72.6635 41.5,72C 45.18,70.7753 44.8466,69.942 40.5,69.5C 40.3367,67.1432 40.5034,64.8098 41,62.5C 42.3024,61.9152 43.469,61.2485 44.5,60.5 Z"/></g>
<g><path style="opacity:1" fill="#aeaeae" d="M 121.5,71.5 C 121.114,76.2007 120.448,80.8674 119.5,85.5C 118.376,88.0966 117.043,90.43 115.5,92.5C 115.721,89.9327 116.388,87.5994 117.5,85.5C 118.166,81.6475 118.833,77.6475 119.5,73.5C 120.182,72.7573 120.849,72.0906 121.5,71.5 Z"/></g>
<g><path style="opacity:1" fill="#c5c5c5" d="M 80.5,74.5 C 81.1667,74.8333 81.8333,75.1667 82.5,75.5C 82.5948,79.4429 83.9281,82.9429 86.5,86C 86.2645,86.8732 85.9312,87.7065 85.5,88.5C 87.1713,90.5098 87.838,92.8431 87.5,95.5C 82.8673,96.4721 78.2007,97.4721 73.5,98.5C 71.0884,98.5938 69.255,97.5938 68,95.5C 67.5831,96.756 66.7498,97.4226 65.5,97.5C 64.1783,95.1979 64.1783,92.8646 65.5,90.5C 62.5351,89.2061 59.8684,89.7061 57.5,92C 52.8452,92.4992 48.1785,92.6658 43.5,92.5C 43.665,89.1501 43.4983,85.8168 43,82.5C 42.3632,80.6969 41.1965,79.3636 39.5,78.5C 39.8655,77.0981 40.6988,76.0981 42,75.5C 44.4876,77.321 46.6543,79.4876 48.5,82C 54.0477,83.8251 59.2143,82.9918 64,79.5C 67.2258,83.7982 69.3925,83.4648 70.5,78.5C 70.8333,78.5 71.1667,78.5 71.5,78.5C 71.0716,84.1763 70.9049,89.843 71,95.5C 72.0852,96.2931 73.2519,96.9598 74.5,97.5C 76.323,96.2528 78.323,95.5861 80.5,95.5C 81.7933,88.487 81.7933,81.487 80.5,74.5 Z"/></g>
<g><path style="opacity:1" fill="#323233" d="M 117.5,67.5 C 117.5,73.5 117.5,79.5 117.5,85.5C 116.388,87.5994 115.721,89.9327 115.5,92.5C 114.833,96.5 114.167,100.5 113.5,104.5C 113.167,104.5 112.833,104.5 112.5,104.5C 112.5,98.8333 112.5,93.1667 112.5,87.5C 113.092,84.8728 113.425,82.2062 113.5,79.5C 114.473,77.0521 114.806,74.3854 114.5,71.5C 115.29,72.6085 115.79,73.9419 116,75.5C 116.183,72.6353 116.683,69.9686 117.5,67.5 Z"/></g>
<g><path style="opacity:1" fill="#8a8a8a" d="M 31.5,73.5 C 32.1667,73.5 32.5,73.8333 32.5,74.5C 32.5,76.8333 32.5,79.1667 32.5,81.5C 33.1495,83.4352 33.4828,85.4352 33.5,87.5C 30.2511,83.3266 29.5844,78.66 31.5,73.5 Z"/></g>
<g><path style="opacity:1" fill="#afaeaf" d="M 112.5,61.5 C 112.254,67.5594 112.587,73.5594 113.5,79.5C 113.425,82.2062 113.092,84.8728 112.5,87.5C 111.596,88.209 111.263,89.209 111.5,90.5C 109.801,90.3398 108.134,90.5065 106.5,91C 105.471,92.6984 103.971,93.5317 102,93.5C 98.4753,92.6809 95.3086,91.3476 92.5,89.5C 91.1667,89.5 89.8333,89.5 88.5,89.5C 88.5,91.8333 88.5,94.1667 88.5,96.5C 86.6391,97.8419 84.6391,98.8419 82.5,99.5C 80.5956,99.7376 79.2623,100.738 78.5,102.5C 76.1432,102.663 73.8098,102.497 71.5,102C 70.944,101.617 70.6107,101.117 70.5,100.5C 69.0867,99.0652 67.42,98.0652 65.5,97.5C 66.7498,97.4226 67.5831,96.756 68,95.5C 69.255,97.5938 71.0884,98.5938 73.5,98.5C 78.2007,97.4721 82.8673,96.4721 87.5,95.5C 87.838,92.8431 87.1713,90.5098 85.5,88.5C 85.9312,87.7065 86.2645,86.8732 86.5,86C 83.9281,82.9429 82.5948,79.4429 82.5,75.5C 85.1779,76.6676 87.8446,77.8343 90.5,79C 95.2322,80.0358 99.5656,79.2025 103.5,76.5C 102.975,75.8076 102.308,75.3076 101.5,75C 103.569,74.6758 103.902,73.8425 102.5,72.5C 104.766,71.6858 107.1,71.1858 109.5,71C 104.203,69.8658 104.203,69.0325 109.5,68.5C 109.108,65.2784 109.608,62.2784 111,59.5C 111.278,60.4158 111.778,61.0825 112.5,61.5 Z"/></g>
<g><path style="opacity:1" fill="#c7c7c8" d="M 92.5,89.5 C 91.9423,88.2101 90.9423,87.3768 89.5,87C 89.9574,86.586 90.2907,86.086 90.5,85.5C 96.1051,83.455 101.438,81.1216 106.5,78.5C 106.784,81.7766 106.451,84.9433 105.5,88C 101.131,89.5897 96.7974,90.0897 92.5,89.5 Z"/></g>
<g><path style="opacity:1" fill="#bcbcbc" d="M 27.5,70.5 C 28.8333,71.1667 30.1667,71.8333 31.5,72.5C 31.5,72.8333 31.5,73.1667 31.5,73.5C 29.5844,78.66 30.2511,83.3266 33.5,87.5C 34.3686,89.717 34.702,92.0504 34.5,94.5C 33.5255,93.365 32.3588,92.365 31,91.5C 29.1422,84.6105 27.9755,77.6105 27.5,70.5 Z"/></g>
<g><path style="opacity:1" fill="#464546" d="M 35.5,61.5 C 35.2329,69.2223 35.5663,76.889 36.5,84.5C 36.3752,90.5855 37.0419,96.5855 38.5,102.5C 38.4805,103.726 38.1471,104.726 37.5,105.5C 36.3934,101.858 35.3934,98.1909 34.5,94.5C 34.702,92.0504 34.3686,89.717 33.5,87.5C 33.4828,85.4352 33.1495,83.4352 32.5,81.5C 33.1174,81.6107 33.6174,81.944 34,82.5C 34.1715,75.3213 34.6715,68.3213 35.5,61.5 Z"/></g>
<g><path style="opacity:1" fill="#9a999b" d="M 92.5,89.5 C 95.3086,91.3476 98.4753,92.6809 102,93.5C 103.971,93.5317 105.471,92.6984 106.5,91C 108.134,90.5065 109.801,90.3398 111.5,90.5C 111.5,91.5 111.5,92.5 111.5,93.5C 110.178,93.33 109.011,93.6634 108,94.5C 107.56,96.8659 107.06,99.1992 106.5,101.5C 105.87,103.75 104.87,105.75 103.5,107.5C 102.833,107.5 102.167,107.5 101.5,107.5C 103.09,104.545 102.757,101.878 100.5,99.5C 98.1406,95.2499 95.4739,94.9166 92.5,98.5C 91.6317,96.2038 90.2984,95.5371 88.5,96.5C 88.5,94.1667 88.5,91.8333 88.5,89.5C 89.8333,89.5 91.1667,89.5 92.5,89.5 Z"/></g>
<g><path style="opacity:1" fill="#bebebe" d="M 149.5,85.5 C 149.5,98.5 149.5,111.5 149.5,124.5C 147.534,126.42 145.534,128.42 143.5,130.5C 142.311,131.429 140.978,131.762 139.5,131.5C 139.1,136.805 136.767,140.972 132.5,144C 133.381,144.708 134.047,145.542 134.5,146.5C 131.833,145.5 129.167,144.5 126.5,143.5C 126.196,142.85 125.863,142.183 125.5,141.5C 126.919,139.664 128.086,137.664 129,135.5C 130.791,126.349 132.625,117.182 134.5,108C 135.34,106.829 136.173,105.662 137,104.5C 136.414,99.2805 138.58,96.2805 143.5,95.5C 143.5,92.8333 143.5,90.1667 143.5,87.5C 145.718,87.3862 147.718,86.7196 149.5,85.5 Z"/></g>
<g><path style="opacity:1" fill="#676568" d="M 112.5,87.5 C 112.5,93.1667 112.5,98.8333 112.5,104.5C 112.167,104.5 111.833,104.5 111.5,104.5C 110.626,102.31 108.959,101.31 106.5,101.5C 107.06,99.1992 107.56,96.8659 108,94.5C 109.011,93.6634 110.178,93.33 111.5,93.5C 111.5,92.5 111.5,91.5 111.5,90.5C 111.263,89.209 111.596,88.209 112.5,87.5 Z"/></g>
<g><path style="opacity:1" fill="#7f7d80" d="M 100.5,99.5 C 98.6064,100.048 96.9397,101.048 95.5,102.5C 96.6405,103.425 96.6405,104.259 95.5,105C 93.8068,105.847 92.1401,106.68 90.5,107.5C 86.8019,107.552 83.1352,107.886 79.5,108.5C 77.1667,107.833 74.8333,107.167 72.5,106.5C 75.5,106.5 78.5,106.5 81.5,106.5C 84.6708,106.351 87.0041,104.851 88.5,102C 88.3552,101.228 88.0219,100.561 87.5,100C 85.8659,99.5065 84.1992,99.3398 82.5,99.5C 84.6391,98.8419 86.6391,97.8419 88.5,96.5C 90.2984,95.5371 91.6317,96.2038 92.5,98.5C 95.4739,94.9166 98.1406,95.2499 100.5,99.5 Z"/></g>
<g><path style="opacity:1" fill="#565457" d="M 100.5,99.5 C 102.757,101.878 103.09,104.545 101.5,107.5C 100.417,107.539 99.4168,107.873 98.5,108.5C 96.7598,106.469 95.0931,106.803 93.5,109.5C 93.1667,109.5 92.8333,109.5 92.5,109.5C 91.1667,109.5 90.5,108.833 90.5,107.5C 92.1401,106.68 93.8068,105.847 95.5,105C 96.6405,104.259 96.6405,103.425 95.5,102.5C 96.9397,101.048 98.6064,100.048 100.5,99.5 Z"/></g>
<g><path style="opacity:1" fill="#5f5c5f" d="M 82.5,99.5 C 84.1992,99.3398 85.8659,99.5065 87.5,100C 88.0219,100.561 88.3552,101.228 88.5,102C 87.0041,104.851 84.6708,106.351 81.5,106.5C 83.9717,105.358 84.9717,103.358 84.5,100.5C 82.3146,100.704 80.3146,101.37 78.5,102.5C 79.2623,100.738 80.5956,99.7376 82.5,99.5 Z"/></g>
<g><path style="opacity:1" fill="#6d6a6d" d="M 70.5,100.5 C 70.6107,101.117 70.944,101.617 71.5,102C 73.8098,102.497 76.1432,102.663 78.5,102.5C 76.7354,103.461 74.7354,103.795 72.5,103.5C 72.5,104.5 72.5,105.5 72.5,106.5C 68.1937,106.697 66.1937,104.697 66.5,100.5C 67.8333,100.5 69.1667,100.5 70.5,100.5 Z"/></g>
<g><path style="opacity:1" fill="#9a989b" d="M 65.5,97.5 C 67.42,98.0652 69.0867,99.0652 70.5,100.5C 69.1667,100.5 67.8333,100.5 66.5,100.5C 66.1937,104.697 68.1937,106.697 72.5,106.5C 74.8333,107.167 77.1667,107.833 79.5,108.5C 73.4908,108.666 67.4908,108.499 61.5,108C 58.7352,106.903 57.0686,104.903 56.5,102C 55.2068,101.51 53.8734,101.343 52.5,101.5C 52.3379,103.527 52.5045,105.527 53,107.5C 53.3333,107.167 53.6667,106.833 54,106.5C 56.2092,106.989 58.0425,107.989 59.5,109.5C 57.5,110.167 55.5,110.833 53.5,111.5C 53.5,112.833 53.5,114.167 53.5,115.5C 50.9463,109.228 46.7796,103.561 41,98.5C 40.5045,96.5273 40.3379,94.5273 40.5,92.5C 41.3636,93.6883 42.3636,94.8549 43.5,96C 50.5833,97.6483 56.75,96.1483 62,91.5C 62.5,91.8333 63,92.1667 63.5,92.5C 60.4529,93.8751 59.1196,96.2084 59.5,99.5C 61.8863,99.7413 63.8863,99.0746 65.5,97.5 Z"/></g>
<g><path style="opacity:1" fill="#444145" d="M 81.5,106.5 C 78.5,106.5 75.5,106.5 72.5,106.5C 72.5,105.5 72.5,104.5 72.5,103.5C 74.7354,103.795 76.7354,103.461 78.5,102.5C 80.3146,101.37 82.3146,100.704 84.5,100.5C 84.9717,103.358 83.9717,105.358 81.5,106.5 Z"/></g>
<g><path style="opacity:1" fill="#4b4b4e" d="M 106.5,101.5 C 108.959,101.31 110.626,102.31 111.5,104.5C 111.361,108.111 109.694,110.777 106.5,112.5C 105.575,111.359 104.741,111.359 104,112.5C 103.316,113.784 103.483,114.951 104.5,116C 102.656,118.343 100.656,120.51 98.5,122.5C 97.304,128.182 94.1373,132.182 89,134.5C 88.79,136.058 88.29,137.391 87.5,138.5C 85.7378,140.417 83.5712,141.75 81,142.5C 77.5592,141.618 74.0592,141.284 70.5,141.5C 69.8333,141.5 69.5,141.167 69.5,140.5C 68.8902,139.609 68.5569,138.609 68.5,137.5C 70.4658,138.8 72.6324,139.8 75,140.5C 78.4429,139.431 81.9429,138.598 85.5,138C 86.056,137.617 86.3893,137.117 86.5,136.5C 86.461,133.911 87.461,131.911 89.5,130.5C 90.5072,129.172 91.8405,128.172 93.5,127.5C 94.5176,125.406 95.5176,123.406 96.5,121.5C 100.335,117.709 102.669,113.042 103.5,107.5C 104.87,105.75 105.87,103.75 106.5,101.5 Z"/></g>
<g><path style="opacity:1" fill="#8e8e8e" d="M 112.5,104.5 C 112.833,104.5 113.167,104.5 113.5,104.5C 113.829,107.228 113.163,109.562 111.5,111.5C 111.993,109.194 112.326,106.861 112.5,104.5 Z"/></g>
<g><path style="opacity:1" fill="#6c696c" d="M 79.5,108.5 C 83.1352,107.886 86.8019,107.552 90.5,107.5C 90.5,108.833 91.1667,109.5 92.5,109.5C 92.5,109.833 92.5,110.167 92.5,110.5C 91.1779,110.33 90.0113,110.663 89,111.5C 88.3828,110.551 88.5494,109.718 89.5,109C 86.8606,108.412 84.5273,108.912 82.5,110.5C 78.1667,110.5 73.8333,110.5 69.5,110.5C 66.5046,110.23 63.5046,110.23 60.5,110.5C 60.5,109.833 60.1667,109.5 59.5,109.5C 58.0425,107.989 56.2092,106.989 54,106.5C 53.6667,106.833 53.3333,107.167 53,107.5C 52.5045,105.527 52.3379,103.527 52.5,101.5C 53.8734,101.343 55.2068,101.51 56.5,102C 57.0686,104.903 58.7352,106.903 61.5,108C 67.4908,108.499 73.4908,108.666 79.5,108.5 Z"/></g>
<g><path style="opacity:1" fill="#848386" d="M 101.5,107.5 C 102.167,107.5 102.833,107.5 103.5,107.5C 102.669,113.042 100.335,117.709 96.5,121.5C 97.2209,118.183 97.3876,114.849 97,111.5C 96.2904,110.027 95.1238,109.36 93.5,109.5C 95.0931,106.803 96.7598,106.469 98.5,108.5C 99.4168,107.873 100.417,107.539 101.5,107.5 Z"/></g>
<g><path style="opacity:1" fill="#bebdbf" d="M 59.5,109.5 C 60.1667,109.5 60.5,109.833 60.5,110.5C 60.8333,111.5 61.5,112.167 62.5,112.5C 63.1642,114.487 64.3308,116.154 66,117.5C 65.6389,122.294 67.8056,124.961 72.5,125.5C 74.0501,128.793 73.0501,130.793 69.5,131.5C 65.9038,130.207 62.5705,128.54 59.5,126.5C 59.5,124.5 59.5,122.5 59.5,120.5C 57.2845,119.956 55.2845,118.956 53.5,117.5C 53.5,116.833 53.5,116.167 53.5,115.5C 53.5,114.167 53.5,112.833 53.5,111.5C 55.5,110.833 57.5,110.167 59.5,109.5 Z"/></g>
<g><path style="opacity:1" fill="#949295" d="M 92.5,110.5 C 90.9925,113.361 88.8258,115.694 86,117.5C 85.3333,118.5 85.3333,119.5 86,120.5C 86.6543,119.304 87.1543,119.304 87.5,120.5C 86.9234,122.55 85.5901,123.55 83.5,123.5C 83.5,124.5 83.5,125.5 83.5,126.5C 81.8762,126.36 80.7096,127.027 80,128.5C 78.5421,127.253 77.0421,127.253 75.5,128.5C 74.6301,126.593 73.6301,124.76 72.5,123C 72.7355,122.127 73.0688,121.293 73.5,120.5C 77.5783,118.963 81.5783,117.129 85.5,115C 77.6858,114.976 70.0191,114.143 62.5,112.5C 61.5,112.167 60.8333,111.5 60.5,110.5C 63.5046,110.23 66.5046,110.23 69.5,110.5C 68.6236,110.369 67.9569,110.702 67.5,111.5C 69.3921,112.473 71.3921,113.14 73.5,113.5C 77.1907,112.979 80.8574,112.312 84.5,111.5C 84.0431,110.702 83.3764,110.369 82.5,110.5C 84.5273,108.912 86.8606,108.412 89.5,109C 88.5494,109.718 88.3828,110.551 89,111.5C 90.0113,110.663 91.1779,110.33 92.5,110.5 Z"/></g>
<g><path style="opacity:1" fill="#bcbabd" d="M 69.5,110.5 C 73.8333,110.5 78.1667,110.5 82.5,110.5C 83.3764,110.369 84.0431,110.702 84.5,111.5C 80.8574,112.312 77.1907,112.979 73.5,113.5C 71.3921,113.14 69.3921,112.473 67.5,111.5C 67.9569,110.702 68.6236,110.369 69.5,110.5 Z"/></g>
<g><path style="opacity:1" fill="#a9a7aa" d="M 92.5,109.5 C 92.8333,109.5 93.1667,109.5 93.5,109.5C 95.1238,109.36 96.2904,110.027 97,111.5C 97.3876,114.849 97.2209,118.183 96.5,121.5C 95.5176,123.406 94.5176,125.406 93.5,127.5C 91.8405,128.172 90.5072,129.172 89.5,130.5C 85.6817,132.619 81.8484,132.286 78,129.5C 75.8055,132.963 72.6388,134.296 68.5,133.5C 61.0801,130.414 56.0801,125.081 53.5,117.5C 55.2845,118.956 57.2845,119.956 59.5,120.5C 59.5,122.5 59.5,124.5 59.5,126.5C 62.5705,128.54 65.9038,130.207 69.5,131.5C 73.0501,130.793 74.0501,128.793 72.5,125.5C 67.8056,124.961 65.6389,122.294 66,117.5C 64.3308,116.154 63.1642,114.487 62.5,112.5C 70.0191,114.143 77.6858,114.976 85.5,115C 81.5783,117.129 77.5783,118.963 73.5,120.5C 73.0688,121.293 72.7355,122.127 72.5,123C 73.6301,124.76 74.6301,126.593 75.5,128.5C 77.0421,127.253 78.5421,127.253 80,128.5C 80.7096,127.027 81.8762,126.36 83.5,126.5C 83.5,125.5 83.5,124.5 83.5,123.5C 85.5901,123.55 86.9234,122.55 87.5,120.5C 87.1543,119.304 86.6543,119.304 86,120.5C 85.3333,119.5 85.3333,118.5 86,117.5C 88.8258,115.694 90.9925,113.361 92.5,110.5C 92.5,110.167 92.5,109.833 92.5,109.5 Z"/></g>
<g><path style="opacity:1" fill="#6f6e71" d="M 36.5,84.5 C 37.3103,87.3437 38.6436,90.0103 40.5,92.5C 40.3379,94.5273 40.5045,96.5273 41,98.5C 46.7796,103.561 50.9463,109.228 53.5,115.5C 53.5,116.167 53.5,116.833 53.5,117.5C 56.0801,125.081 61.0801,130.414 68.5,133.5C 72.8279,137.732 77.6612,138.398 83,135.5C 84.0113,136.337 85.1779,136.67 86.5,136.5C 86.3893,137.117 86.056,137.617 85.5,138C 81.9429,138.598 78.4429,139.431 75,140.5C 72.6324,139.8 70.4658,138.8 68.5,137.5C 67.596,136.791 67.2627,135.791 67.5,134.5C 62.0722,134.104 58.2389,131.437 56,126.5C 53.9144,124.563 51.7478,122.896 49.5,121.5C 48.3944,118.946 47.561,116.279 47,113.5C 44.4704,114.415 42.3038,114.415 40.5,113.5C 39.8826,113.389 39.3826,113.056 39,112.5C 38.5604,110.134 38.0604,107.801 37.5,105.5C 38.1471,104.726 38.4805,103.726 38.5,102.5C 37.0419,96.5855 36.3752,90.5855 36.5,84.5 Z"/></g>
<g><path style="opacity:1" fill="#d7d7d7" d="M -0.5,109.5 C 0.734849,109.721 1.73485,110.388 2.5,111.5C 3.48002,114.086 3.81335,116.753 3.5,119.5C 4.83333,119.5 6.16667,119.5 7.5,119.5C 7.5,120.833 7.5,122.167 7.5,123.5C 8.5,123.5 9.5,123.5 10.5,123.5C 10.6822,128.794 11.1822,128.794 12,123.5C 13.2541,128.997 16.2541,133.331 21,136.5C 21.2967,139.295 22.7967,140.961 25.5,141.5C 33.1925,141.141 37.1925,137.141 37.5,129.5C 38.2679,128.737 38.7679,127.737 39,126.5C 40.5272,128.221 41.5272,130.221 42,132.5C 42.7083,131.619 43.5416,130.953 44.5,130.5C 44.4054,133.697 45.0721,136.697 46.5,139.5C 47.6417,143.117 49.3084,146.45 51.5,149.5C 34.1667,149.5 16.8333,149.5 -0.5,149.5C -0.5,136.167 -0.5,122.833 -0.5,109.5 Z"/></g>
<g><path style="opacity:1" fill="#333333" d="M 49.5,121.5 C 47.544,119.825 46.2107,120.158 45.5,122.5C 45.1667,122.5 44.8333,122.5 44.5,122.5C 42.8946,119.622 41.5612,116.622 40.5,113.5C 42.3038,114.415 44.4704,114.415 47,113.5C 47.561,116.279 48.3944,118.946 49.5,121.5 Z"/></g>
<g><path style="opacity:1" fill="#afafaf" d="M 149.5,124.5 C 149.5,132.833 149.5,141.167 149.5,149.5C 145.833,149.5 142.167,149.5 138.5,149.5C 137.564,148.026 136.23,147.026 134.5,146.5C 134.047,145.542 133.381,144.708 132.5,144C 136.767,140.972 139.1,136.805 139.5,131.5C 140.978,131.762 142.311,131.429 143.5,130.5C 145.534,128.42 147.534,126.42 149.5,124.5 Z"/></g>
<g><path style="opacity:1" fill="#2e2d2f" d="M 49.5,121.5 C 51.7478,122.896 53.9144,124.563 56,126.5C 58.2389,131.437 62.0722,134.104 67.5,134.5C 67.2627,135.791 67.596,136.791 68.5,137.5C 68.5569,138.609 68.8902,139.609 69.5,140.5C 67.6045,139.297 65.6045,138.131 63.5,137C 61.5447,134.667 59.378,132.5 57,130.5C 56.6667,131.167 56.3333,131.833 56,132.5C 53.4924,129.046 51.3257,125.379 49.5,121.5 Z"/></g>
<g><path style="opacity:1" fill="#868688" d="M 45.5,122.5 C 46.8897,123.899 47.8897,125.566 48.5,127.5C 49.8004,131.096 50.8004,134.763 51.5,138.5C 50.8826,138.389 50.3826,138.056 50,137.5C 47.9054,132.653 46.4054,127.653 45.5,122.5 Z"/></g>
<g><path style="opacity:1" fill="#131214" d="M 49.5,121.5 C 51.3257,125.379 53.4924,129.046 56,132.5C 56.3333,131.833 56.6667,131.167 57,130.5C 59.378,132.5 61.5447,134.667 63.5,137C 65.6045,138.131 67.6045,139.297 69.5,140.5C 69.5,141.167 69.8333,141.5 70.5,141.5C 71.6085,142.29 72.9419,142.79 74.5,143C 73.9747,143.692 73.3081,144.192 72.5,144.5C 71.4016,143.385 70.2349,143.385 69,144.5C 66.9654,143.211 64.7988,142.211 62.5,141.5C 60.5346,138.522 57.8679,136.522 54.5,135.5C 53.6976,132.019 51.6976,129.352 48.5,127.5C 47.8897,125.566 46.8897,123.899 45.5,122.5C 46.2107,120.158 47.544,119.825 49.5,121.5 Z"/></g>
<g><path style="opacity:1" fill="#9d9d9f" d="M 107.5,119.5 C 107.322,120.695 106.989,121.862 106.5,123C 107.741,124.731 108.741,126.564 109.5,128.5C 108.542,128.047 107.708,127.381 107,126.5C 106.501,131.155 106.334,135.821 106.5,140.5C 103.754,143.305 100.421,144.139 96.5,143C 98.7176,140.25 100.051,137.083 100.5,133.5C 101.308,133.192 101.975,132.692 102.5,132C 101.663,130.989 101.33,129.822 101.5,128.5C 102.723,124.951 104.723,121.951 107.5,119.5 Z"/></g>
<g><path style="opacity:1" fill="#636364" d="M 109.5,128.5 C 109.975,130.784 110.975,132.784 112.5,134.5C 112.802,137.059 112.468,139.393 111.5,141.5C 111.896,138.518 111.229,135.851 109.5,133.5C 108.914,133.709 108.414,134.043 108,134.5C 107.819,137.695 107.319,140.695 106.5,143.5C 106.5,142.5 106.5,141.5 106.5,140.5C 106.334,135.821 106.501,131.155 107,126.5C 107.708,127.381 108.542,128.047 109.5,128.5 Z"/></g>
<g><path style="opacity:1" fill="#8c8b8e" d="M 89.5,130.5 C 87.461,131.911 86.461,133.911 86.5,136.5C 85.1779,136.67 84.0113,136.337 83,135.5C 77.6612,138.398 72.8279,137.732 68.5,133.5C 72.6388,134.296 75.8055,132.963 78,129.5C 81.8484,132.286 85.6817,132.619 89.5,130.5 Z"/></g>
<g><path style="opacity:1" fill="#19191a" d="M 111.5,104.5 C 111.833,104.5 112.167,104.5 112.5,104.5C 112.326,106.861 111.993,109.194 111.5,111.5C 109.728,113.941 108.394,116.608 107.5,119.5C 104.723,121.951 102.723,124.951 101.5,128.5C 100.5,128.833 99.8333,129.5 99.5,130.5C 96.5,133.833 93.5,137.167 90.5,140.5C 88.8212,140.715 87.8212,140.048 87.5,138.5C 88.29,137.391 88.79,136.058 89,134.5C 94.1373,132.182 97.304,128.182 98.5,122.5C 100.656,120.51 102.656,118.343 104.5,116C 103.483,114.951 103.316,113.784 104,112.5C 104.741,111.359 105.575,111.359 106.5,112.5C 109.694,110.777 111.361,108.111 111.5,104.5 Z"/></g>
<g><path style="opacity:1" fill="#212022" d="M 111.5,141.5 C 110.153,144.193 108.82,146.86 107.5,149.5C 106.833,149.5 106.167,149.5 105.5,149.5C 106.15,147.565 106.483,145.565 106.5,143.5C 107.319,140.695 107.819,137.695 108,134.5C 108.414,134.043 108.914,133.709 109.5,133.5C 111.229,135.851 111.896,138.518 111.5,141.5 Z"/></g>
<g><path style="opacity:1" fill="#a4a3a5" d="M 44.5,122.5 C 44.8333,122.5 45.1667,122.5 45.5,122.5C 46.4054,127.653 47.9054,132.653 50,137.5C 50.3826,138.056 50.8826,138.389 51.5,138.5C 52.3007,140.042 52.634,141.708 52.5,143.5C 51.448,143.649 50.448,143.483 49.5,143C 48.8366,141.482 47.8366,140.315 46.5,139.5C 45.0721,136.697 44.4054,133.697 44.5,130.5C 44.5,127.833 44.5,125.167 44.5,122.5 Z"/></g>
<g><path style="opacity:1" fill="#4d4d4f" d="M 48.5,127.5 C 51.6976,129.352 53.6976,132.019 54.5,135.5C 57.8679,136.522 60.5346,138.522 62.5,141.5C 63.8094,144.451 66.1427,145.784 69.5,145.5C 69.5,146.833 69.5,148.167 69.5,149.5C 67.1667,149.5 64.8333,149.5 62.5,149.5C 59.4474,146.61 56.9474,143.276 55,139.5C 53.9887,138.663 52.8221,138.33 51.5,138.5C 50.8004,134.763 49.8004,131.096 48.5,127.5 Z"/></g>
<g><path style="opacity:1" fill="#262528" d="M 87.5,138.5 C 87.8212,140.048 88.8212,140.715 90.5,140.5C 88.8304,143.002 86.6637,145.002 84,146.5C 83.5172,147.448 83.3505,148.448 83.5,149.5C 78.8333,149.5 74.1667,149.5 69.5,149.5C 69.5,148.167 69.5,146.833 69.5,145.5C 66.1427,145.784 63.8094,144.451 62.5,141.5C 64.7988,142.211 66.9654,143.211 69,144.5C 70.2349,143.385 71.4016,143.385 72.5,144.5C 73.3081,144.192 73.9747,143.692 74.5,143C 72.9419,142.79 71.6085,142.29 70.5,141.5C 74.0592,141.284 77.5592,141.618 81,142.5C 83.5712,141.75 85.7378,140.417 87.5,138.5 Z"/></g>
<g><path style="opacity:1" fill="#6d6d6f" d="M 99.5,130.5 C 99.555,135.278 97.3883,138.612 93,140.5C 92.5439,141.744 93.0439,142.577 94.5,143C 92.4522,144.956 90.7856,147.123 89.5,149.5C 87.5,149.5 85.5,149.5 83.5,149.5C 83.3505,148.448 83.5172,147.448 84,146.5C 86.6637,145.002 88.8304,143.002 90.5,140.5C 93.5,137.167 96.5,133.833 99.5,130.5 Z"/></g>
<g><path style="opacity:1" fill="#d0d0d0" d="M 112.5,134.5 C 113.309,136.292 113.809,138.292 114,140.5C 114.333,140.167 114.667,139.833 115,139.5C 115.333,141.167 115.667,142.833 116,144.5C 118.556,145.219 119.723,146.886 119.5,149.5C 115.5,149.5 111.5,149.5 107.5,149.5C 108.82,146.86 110.153,144.193 111.5,141.5C 112.468,139.393 112.802,137.059 112.5,134.5 Z"/></g>
<g><path style="opacity:1" fill="#8e8c8f" d="M 101.5,128.5 C 101.33,129.822 101.663,130.989 102.5,132C 101.975,132.692 101.308,133.192 100.5,133.5C 100.051,137.083 98.7176,140.25 96.5,143C 100.421,144.139 103.754,143.305 106.5,140.5C 106.5,141.5 106.5,142.5 106.5,143.5C 106.483,145.565 106.15,147.565 105.5,149.5C 100.167,149.5 94.8333,149.5 89.5,149.5C 90.7856,147.123 92.4522,144.956 94.5,143C 93.0439,142.577 92.5439,141.744 93,140.5C 97.3883,138.612 99.555,135.278 99.5,130.5C 99.8333,129.5 100.5,128.833 101.5,128.5 Z"/></g>
<g><path style="opacity:1" fill="#8d8d8f" d="M 51.5,138.5 C 52.8221,138.33 53.9887,138.663 55,139.5C 56.9474,143.276 59.4474,146.61 62.5,149.5C 58.8333,149.5 55.1667,149.5 51.5,149.5C 49.3084,146.45 47.6417,143.117 46.5,139.5C 47.8366,140.315 48.8366,141.482 49.5,143C 50.448,143.483 51.448,143.649 52.5,143.5C 52.634,141.708 52.3007,140.042 51.5,138.5 Z"/></g>
</svg>
