<?xml version="1.0" encoding="UTF-8"?>
<!DOCTYPE svg PUBLIC "-//W3C//DTD SVG 1.1//EN" "http://www.w3.org/Graphics/SVG/1.1/DTD/svg11.dtd">
<svg xmlns="http://www.w3.org/2000/svg" version="1.1" width="197px" height="154px" style="shape-rendering:geometricPrecision; text-rendering:geometricPrecision; image-rendering:optimizeQuality; fill-rule:evenodd; clip-rule:evenodd" xmlns:xlink="http://www.w3.org/1999/xlink">
<g><path style="opacity:1" fill="#816931" d="M -0.5,-0.5 C 0.5,-0.5 1.5,-0.5 2.5,-0.5C 1.83333,0.833333 0.833333,1.83333 -0.5,2.5C -0.5,1.5 -0.5,0.5 -0.5,-0.5 Z"/></g>
<g><path style="opacity:1" fill="#0e213e" d="M 2.5,-0.5 C 5.83333,-0.5 9.16667,-0.5 12.5,-0.5C 12.2671,1.06181 11.6005,2.39514 10.5,3.5C 6.67608,6.59243 3.00941,9.92576 -0.5,13.5C -0.5,9.83333 -0.5,6.16667 -0.5,2.5C 0.833333,1.83333 1.83333,0.833333 2.5,-0.5 Z"/></g>
<g><path style="opacity:1" fill="#a78026" d="M 12.5,-0.5 C 23.1667,-0.5 33.8333,-0.5 44.5,-0.5C 40.5,3.83333 36.5,8.16667 32.5,12.5C 31.1667,13.5 29.8333,14.5 28.5,15.5C 26.076,15.1924 23.7427,15.5258 21.5,16.5C 18.7924,18.3729 15.9591,20.0395 13,21.5C 12.1268,21.2645 11.2935,20.9312 10.5,20.5C 9.37141,14.8359 9.37141,9.1692 10.5,3.5C 11.6005,2.39514 12.2671,1.06181 12.5,-0.5 Z"/></g>
<g><path style="opacity:1" fill="#fcfcfc" d="M 86.5,-0.5 C 121.833,-0.5 157.167,-0.5 192.5,-0.5C 192.5,49.5 192.5,99.5 192.5,149.5C 193.5,149.5 194.5,149.5 195.5,149.5C 195.5,99.5 195.5,49.5 195.5,-0.5C 195.833,-0.5 196.167,-0.5 196.5,-0.5C 196.5,50.8333 196.5,102.167 196.5,153.5C 130.833,153.5 65.1667,153.5 -0.5,153.5C -0.5,151.167 -0.5,148.833 -0.5,146.5C 1.83333,146.5 4.16667,146.5 6.5,146.5C 19.8333,146.5 33.1667,146.5 46.5,146.5C 48.8333,146.5 51.1667,146.5 53.5,146.5C 55.5,146.5 57.5,146.5 59.5,146.5C 66.0779,147.46 72.7446,147.793 79.5,147.5C 81.8333,147.5 84.1667,147.5 86.5,147.5C 88.5,147.5 90.5,147.5 92.5,147.5C 94.6934,148.797 97.0268,148.797 99.5,147.5C 99.3764,146.893 99.0431,146.56 98.5,146.5C 77.4394,125.107 56.4394,103.774 35.5,82.5C 38.8544,78.479 42.521,74.8123 46.5,71.5C 47.1667,71.5 47.8333,71.5 48.5,71.5C 47.6993,73.0418 47.366,74.7085 47.5,76.5C 46.5222,76.811 45.8555,77.4777 45.5,78.5C 48.2572,79.0292 50.7572,80.0292 53,81.5C 53.4828,80.552 53.6495,79.552 53.5,78.5C 54.7348,78.2786 55.7348,77.6119 56.5,76.5C 57.1835,76.8627 57.8501,77.1961 58.5,77.5C 58.3118,79.1033 58.8118,80.4366 60,81.5C 61.6459,79.4315 63.8125,78.0982 66.5,77.5C 66.0576,76.2613 65.3909,75.2613 64.5,74.5C 64.5,73.8333 64.5,73.1667 64.5,72.5C 69.7401,66.2278 69.7401,59.8944 64.5,53.5C 66.8123,50.5211 69.4789,47.8544 72.5,45.5C 72.8333,44.3333 73.1667,43.1667 73.5,42C 72.4344,37.504 71.4344,33.004 70.5,28.5C 70.7054,25.0119 71.5387,21.6786 73,18.5C 77.0143,14.8191 80.6809,10.8191 84,6.5C 85.4114,4.34965 86.2447,2.01632 86.5,-0.5 Z"/></g>
<g><path style="opacity:1" fill="#ecebef" d="M 192.5,-0.5 C 193.5,-0.5 194.5,-0.5 195.5,-0.5C 195.5,49.5 195.5,99.5 195.5,149.5C 194.5,149.5 193.5,149.5 192.5,149.5C 192.5,99.5 192.5,49.5 192.5,-0.5 Z"/></g>
<g><path style="opacity:1" fill="#9b7524" d="M 10.5,3.5 C 9.37141,9.1692 9.37141,14.8359 10.5,20.5C 11.2935,20.9312 12.1268,21.2645 13,21.5C 15.9591,20.0395 18.7924,18.3729 21.5,16.5C 23.7427,15.5258 26.076,15.1924 28.5,15.5C 19.1667,25.5 9.5,35.1667 -0.5,44.5C -0.5,34.1667 -0.5,23.8333 -0.5,13.5C 3.00941,9.92576 6.67608,6.59243 10.5,3.5 Z"/></g>
<g><path style="opacity:1" fill="#0e3058" d="M 44.5,-0.5 C 48.1667,-0.5 51.8333,-0.5 55.5,-0.5C 52.0371,3.46433 48.3705,7.29766 44.5,11C 47.2171,13.0762 50.2171,13.7429 53.5,13C 58.0367,8.63118 62.3701,4.13118 66.5,-0.5C 70.1667,-0.5 73.8333,-0.5 77.5,-0.5C 72.5217,4.81299 67.5217,10.1463 62.5,15.5C 64.5167,16.2191 66.1834,17.3857 67.5,19C 68.7677,22.2061 69.7677,25.3728 70.5,28.5C 71.4344,33.004 72.4344,37.504 73.5,42C 73.1667,43.1667 72.8333,44.3333 72.5,45.5C 69.4789,47.8544 66.8123,50.5211 64.5,53.5C 62.9157,52.6182 61.249,51.7848 59.5,51C 61.3734,49.2962 63.0401,47.4628 64.5,45.5C 66.1454,44.5213 67.4787,43.188 68.5,41.5C 66.606,35.2053 64.7727,28.872 63,22.5C 55.9735,19.6445 48.8068,17.8111 41.5,17C 33.9368,24.3952 26.6035,31.8952 19.5,39.5C 12.807,45.8611 6.1403,52.1944 -0.5,58.5C -0.5,56.1667 -0.5,53.8333 -0.5,51.5C 10.223,40.0586 21.3896,29.0586 33,18.5C 33.658,16.892 33.158,15.7253 31.5,15C 32.2524,14.3292 32.5858,13.4959 32.5,12.5C 36.5,8.16667 40.5,3.83333 44.5,-0.5 Z"/></g>
<g><path style="opacity:1" fill="#a7852d" d="M 55.5,-0.5 C 59.1667,-0.5 62.8333,-0.5 66.5,-0.5C 62.3701,4.13118 58.0367,8.63118 53.5,13C 50.2171,13.7429 47.2171,13.0762 44.5,11C 48.3705,7.29766 52.0371,3.46433 55.5,-0.5 Z"/></g>
<g><path style="opacity:1" fill="#f2e6dc" d="M 77.5,-0.5 C 80.5,-0.5 83.5,-0.5 86.5,-0.5C 86.2447,2.01632 85.4114,4.34965 84,6.5C 80.6809,10.8191 77.0143,14.8191 73,18.5C 71.5387,21.6786 70.7054,25.0119 70.5,28.5C 69.7677,25.3728 68.7677,22.2061 67.5,19C 66.1834,17.3857 64.5167,16.2191 62.5,15.5C 67.5217,10.1463 72.5217,4.81299 77.5,-0.5 Z"/></g>
<g><path style="opacity:1" fill="#b08e31" d="M 64.5,45.5 C 63.1931,44.1984 63.1931,42.865 64.5,41.5C 63.7255,39.6036 62.7255,37.937 61.5,36.5C 60.7311,32.9228 59.7311,29.4228 58.5,26C 53.9487,25.0386 49.4487,23.8719 45,22.5C 36.3406,30.3259 27.8406,38.3259 19.5,46.5C 18.9094,45.8485 18.2427,45.1818 17.5,44.5C 18.4565,42.9246 19.1231,41.258 19.5,39.5C 26.6035,31.8952 33.9368,24.3952 41.5,17C 48.8068,17.8111 55.9735,19.6445 63,22.5C 64.7727,28.872 66.606,35.2053 68.5,41.5C 67.4787,43.188 66.1454,44.5213 64.5,45.5 Z"/></g>
<g><path style="opacity:1" fill="#e9cb91" d="M 141.5,24.5 C 138.927,25.5552 136.261,25.7218 133.5,25C 132.874,24.2496 132.374,23.4162 132,22.5C 129.997,26.2018 127.164,27.2018 123.5,25.5C 122.03,22.151 122.363,18.9843 124.5,16C 123.34,12.6775 121.674,9.67748 119.5,7C 119.833,6.5 120.167,6 120.5,5.5C 121.95,6.65541 122.95,8.15541 123.5,10C 128.662,10.3351 130.995,7.8351 130.5,2.5C 131.5,2.5 132.5,2.5 133.5,2.5C 132.132,7.95152 134.132,10.4515 139.5,10C 141.037,8.89037 141.703,7.39037 141.5,5.5C 142.5,5.5 143.5,5.5 144.5,5.5C 142.344,9.18221 140.344,13.0155 138.5,17C 139.416,17.3742 140.25,17.8742 141,18.5C 141.495,20.4727 141.662,22.4727 141.5,24.5 Z"/></g>
<g><path style="opacity:1" fill="#fcf9f1" d="M 133.5,19.5 C 135.5,19.5 137.5,19.5 139.5,19.5C 139.5,21.1667 139.5,22.8333 139.5,24.5C 135.651,24.9807 133.651,23.314 133.5,19.5 Z"/></g>
<g><path style="opacity:1" fill="#fbf9f1" d="M 124.5,19.5 C 126.977,19.0508 128.977,19.7175 130.5,21.5C 129.278,23.9783 127.278,24.9783 124.5,24.5C 124.5,22.8333 124.5,21.1667 124.5,19.5 Z"/></g>
<g><path style="opacity:1" fill="#fcf9f2" d="M 131.5,8.5 C 133.363,10.7053 135.697,12.0387 138.5,12.5C 137.497,16.7471 135.33,17.4138 132,14.5C 129.863,15.0767 127.696,15.41 125.5,15.5C 125.281,14.325 125.614,13.325 126.5,12.5C 128.786,11.8671 130.452,10.5338 131.5,8.5 Z"/></g>
<g><path style="opacity:1" fill="#f5ebd4" d="M 141.5,24.5 C 141.5,26.5 141.5,28.5 141.5,30.5C 135.491,30.6662 129.491,30.4995 123.5,30C 122.272,28.5098 122.272,27.0098 123.5,25.5C 127.164,27.2018 129.997,26.2018 132,22.5C 132.374,23.4162 132.874,24.2496 133.5,25C 136.261,25.7218 138.927,25.5552 141.5,24.5 Z"/></g>
<g><path style="opacity:1" fill="#091d34" d="M 32.5,12.5 C 32.5858,13.4959 32.2524,14.3292 31.5,15C 33.158,15.7253 33.658,16.892 33,18.5C 21.3896,29.0586 10.223,40.0586 -0.5,51.5C -0.5,49.1667 -0.5,46.8333 -0.5,44.5C 9.5,35.1667 19.1667,25.5 28.5,15.5C 29.8333,14.5 31.1667,13.5 32.5,12.5 Z"/></g>
<g><path style="opacity:1" fill="#acbacb" d="M 138.5,38.5 C 137.539,40.2646 137.205,42.2646 137.5,44.5C 137.028,42.4687 136.028,40.8021 134.5,39.5C 134.573,37.9731 133.906,36.9731 132.5,36.5C 132.5,35.5 132.5,34.5 132.5,33.5C 133.833,33.5 135.167,33.5 136.5,33.5C 136.596,37.3107 137.262,37.3107 138.5,33.5C 138.833,34 139.167,34.5 139.5,35C 139.011,36.1385 138.678,37.3052 138.5,38.5 Z"/></g>
<g><path style="opacity:1" fill="#45618c" d="M 103.5,35.5 C 104.801,37.6719 105.801,40.0052 106.5,42.5C 103.213,41.7271 101.713,39.7271 102,36.5C 102.383,35.944 102.883,35.6107 103.5,35.5 Z"/></g>
<g><path style="opacity:1" fill="#a2b2c6" d="M 130.5,45.5 C 129.79,43.2537 129.29,40.9204 129,38.5C 128.505,40.4727 128.338,42.4727 128.5,44.5C 127.837,42.9581 127.17,41.2914 126.5,39.5C 125.943,41.6459 125.61,43.6459 125.5,45.5C 124.922,42.7196 124.255,40.0529 123.5,37.5C 123.783,36.7109 124.283,36.0442 125,35.5C 126.83,39.272 128.33,38.9387 129.5,34.5C 130.24,37.8363 130.906,41.1696 131.5,44.5C 131.376,45.1067 131.043,45.44 130.5,45.5 Z"/></g>
<g><path style="opacity:1" fill="#2a4d7d" d="M 130.5,45.5 C 129.508,45.6716 128.842,45.3382 128.5,44.5C 128.338,42.4727 128.505,40.4727 129,38.5C 129.29,40.9204 129.79,43.2537 130.5,45.5 Z"/></g>
<g><path style="opacity:1" fill="#395985" d="M 132.5,36.5 C 133.906,36.9731 134.573,37.9731 134.5,39.5C 134.688,41.1033 134.188,42.4366 133,43.5C 132.503,41.1902 132.337,38.8568 132.5,36.5 Z"/></g>
<g><path style="opacity:1" fill="#062b55" d="M 61.5,36.5 C 61.6602,38.1992 61.4935,39.8659 61,41.5C 57.5706,45.4385 53.7372,48.7719 49.5,51.5C 48.8826,51.3893 48.3826,51.056 48,50.5C 46.4379,51.9314 44.9379,53.4314 43.5,55C 34.7883,55.0012 26.2883,55.1679 18,55.5C 17.0754,54.9535 16.2421,54.2868 15.5,53.5C 16.1272,52.5832 16.4606,51.5832 16.5,50.5C 17.5,49.1667 18.5,47.8333 19.5,46.5C 27.8406,38.3259 36.3406,30.3259 45,22.5C 49.4487,23.8719 53.9487,25.0386 58.5,26C 59.7311,29.4228 60.7311,32.9228 61.5,36.5 Z"/></g>
<g><path style="opacity:1" fill="#607ba1" d="M 116.5,37.5 C 117.766,38.0899 119.099,38.5899 120.5,39C 118.302,40.67 117.968,42.67 119.5,45C 118.552,45.4828 117.552,45.6495 116.5,45.5C 116.5,43.5 116.5,41.5 116.5,39.5C 116.5,38.8333 116.5,38.1667 116.5,37.5 Z"/></g>
<g><path style="opacity:1" fill="#48658e" d="M 123.5,37.5 C 124.255,40.0529 124.922,42.7196 125.5,45.5C 124.5,45.5 123.5,45.5 122.5,45.5C 122.194,42.6146 122.527,39.9479 123.5,37.5 Z"/></g>
<g><path style="opacity:1" fill="#2a4c7e" d="M 138.5,38.5 C 138.244,40.7925 138.577,42.9592 139.5,45C 138.563,45.6917 137.897,45.525 137.5,44.5C 137.205,42.2646 137.539,40.2646 138.5,38.5 Z"/></g>
<g><path style="opacity:1" fill="#5b759b" d="M 155.5,37.5 C 156.675,37.281 157.675,37.6143 158.5,38.5C 157.22,40.7016 157.22,42.8683 158.5,45C 157.552,45.4828 156.552,45.6495 155.5,45.5C 155.5,42.8333 155.5,40.1667 155.5,37.5 Z"/></g>
<g><path style="opacity:1" fill="#6e85a5" d="M 162.5,37.5 C 165.275,37.8338 165.941,39.1671 164.5,41.5C 163.158,38.6794 162.492,38.8461 162.5,42C 162.844,43.3651 163.511,44.5318 164.5,45.5C 163.132,46.5937 161.965,46.2603 161,44.5C 160.185,41.8018 160.685,39.4685 162.5,37.5 Z"/></g>
<g><path style="opacity:1" fill="#516e95" d="M 109.5,40.5 C 110.9,41.0998 111.9,42.0998 112.5,43.5C 113.66,45.2027 112.993,45.8693 110.5,45.5C 109.962,43.8828 109.629,42.2161 109.5,40.5 Z"/></g>
<g><path style="opacity:1" fill="#acb9ca" d="M 116.5,37.5 C 116.5,38.1667 116.5,38.8333 116.5,39.5C 114.659,40.4023 113.326,41.7356 112.5,43.5C 111.9,42.0998 110.9,41.0998 109.5,40.5C 109.414,39.5041 109.748,38.6708 110.5,38C 112.686,37.9387 114.686,37.7721 116.5,37.5 Z"/></g>
<g><path style="opacity:1" fill="#4e6b93" d="M 141.5,39.5 C 142.29,40.6085 142.79,41.9419 143,43.5C 145.158,44.0502 145.658,45.0502 144.5,46.5C 143.504,46.5858 142.671,46.2524 142,45.5C 141.505,43.5273 141.338,41.5273 141.5,39.5 Z"/></g>
<g><path style="opacity:1" fill="#4c668f" d="M 99.5,35.5 C 99.3908,41.368 102.057,44.7014 107.5,45.5C 102.026,47.3951 98.6925,45.3951 97.5,39.5C 97.6682,37.8295 98.3349,36.4961 99.5,35.5 Z"/></g>
<g><path style="opacity:1" fill="#c8d2dc" d="M 103.5,35.5 C 102.883,35.6107 102.383,35.944 102,36.5C 101.713,39.7271 103.213,41.7271 106.5,42.5C 106.56,43.0431 106.893,43.3764 107.5,43.5C 108.176,42.3984 108.842,41.3984 109.5,40.5C 109.629,42.2161 109.962,43.8828 110.5,45.5C 109.5,44.1667 108.5,44.1667 107.5,45.5C 102.057,44.7014 99.3908,41.368 99.5,35.5C 100.152,34.2749 101.319,33.6083 103,33.5C 108.409,34.3676 108.576,35.0342 103.5,35.5 Z"/></g>
<g><path style="opacity:1" fill="#536e94" d="M 151.5,38.5 C 153.344,40.2789 154.01,42.6122 153.5,45.5C 151.5,45.5 149.5,45.5 147.5,45.5C 147.34,43.8008 147.506,42.1341 148,40.5C 148.196,42.2861 149.029,43.6195 150.5,44.5C 151.225,42.2813 151.558,40.2813 151.5,38.5 Z"/></g>
<g><path style="opacity:1" fill="#9f802e" d="M 19.5,39.5 C 19.1231,41.258 18.4565,42.9246 17.5,44.5C 18.2427,45.1818 18.9094,45.8485 19.5,46.5C 18.5,47.8333 17.5,49.1667 16.5,50.5C 10.8333,55.8333 5.16667,61.1667 -0.5,66.5C -0.5,63.8333 -0.5,61.1667 -0.5,58.5C 6.1403,52.1944 12.807,45.8611 19.5,39.5 Z"/></g>
<g><path style="opacity:1" fill="#c9d2dc" d="M 151.5,38.5 C 151.558,40.2813 151.225,42.2813 150.5,44.5C 149.029,43.6195 148.196,42.2861 148,40.5C 147.506,42.1341 147.34,43.8008 147.5,45.5C 146.609,46.1098 145.609,46.4431 144.5,46.5C 145.658,45.0502 145.158,44.0502 143,43.5C 142.79,41.9419 142.29,40.6085 141.5,39.5C 143.322,36.9621 145.322,36.9621 147.5,39.5C 148.5,38.8333 149.5,38.1667 150.5,37.5C 151.107,37.6236 151.44,37.9569 151.5,38.5 Z"/></g>
<g><path style="opacity:1" fill="#d2dae1" d="M 106.5,61.5 C 114.981,61.8935 123.314,61.8935 131.5,61.5C 131.5,62.5 131.5,63.5 131.5,64.5C 123.32,64.423 115.32,64.423 107.5,64.5C 106.614,63.675 106.281,62.675 106.5,61.5 Z"/></g>
<g><path style="opacity:1" fill="#987931" d="M 61.5,36.5 C 62.7255,37.937 63.7255,39.6036 64.5,41.5C 63.1931,42.865 63.1931,44.1984 64.5,45.5C 63.0401,47.4628 61.3734,49.2962 59.5,51C 61.249,51.7848 62.9157,52.6182 64.5,53.5C 64.1667,54.1667 63.8333,54.8333 63.5,55.5C 57.0475,50.8896 51.5475,51.8896 47,58.5C 46.3333,61.5 46.3333,64.5 47,67.5C 48.1882,68.5634 48.6882,69.8967 48.5,71.5C 47.8333,71.5 47.1667,71.5 46.5,71.5C 46.321,69.3944 45.321,67.7277 43.5,66.5C 40.3492,70.1514 37.0158,73.6514 33.5,77C 30.6318,77.6401 28.9651,76.4734 28.5,73.5C 36.202,66.7989 43.202,59.4656 49.5,51.5C 53.7372,48.7719 57.5706,45.4385 61,41.5C 61.4935,39.8659 61.6602,38.1992 61.5,36.5 Z"/></g>
<g><path style="opacity:1" fill="#042349" d="M 16.5,50.5 C 16.4606,51.5832 16.1272,52.5832 15.5,53.5C 16.2421,54.2868 17.0754,54.9535 18,55.5C 26.2883,55.1679 34.7883,55.0012 43.5,55C 44.9379,53.4314 46.4379,51.9314 48,50.5C 48.3826,51.056 48.8826,51.3893 49.5,51.5C 43.202,59.4656 36.202,66.7989 28.5,73.5C 26.1775,72.1843 23.8442,70.8509 21.5,69.5C 14.313,72.097 6.97966,74.097 -0.5,75.5C -0.5,72.5 -0.5,69.5 -0.5,66.5C 5.16667,61.1667 10.8333,55.8333 16.5,50.5 Z"/></g>
<g><path style="opacity:1" fill="#b8a469" d="M 64.5,53.5 C 69.7401,59.8944 69.7401,66.2278 64.5,72.5C 63.9569,72.44 63.6236,72.1067 63.5,71.5C 67.4311,66.0642 67.4311,60.7309 63.5,55.5C 63.8333,54.8333 64.1667,54.1667 64.5,53.5 Z"/></g>
<g><path style="opacity:1" fill="#475560" d="M 63.5,55.5 C 67.4311,60.7309 67.4311,66.0642 63.5,71.5C 63.6236,72.1067 63.9569,72.44 64.5,72.5C 64.5,73.1667 64.5,73.8333 64.5,74.5C 62.6208,73.6586 60.6208,73.3253 58.5,73.5C 58.5,74.8333 58.5,76.1667 58.5,77.5C 57.8501,77.1961 57.1835,76.8627 56.5,76.5C 55.7348,77.6119 54.7348,78.2786 53.5,78.5C 53.4888,71.2183 51.4888,70.5516 47.5,76.5C 47.366,74.7085 47.6993,73.0418 48.5,71.5C 48.6882,69.8967 48.1882,68.5634 47,67.5C 46.3333,64.5 46.3333,61.5 47,58.5C 51.5475,51.8896 57.0475,50.8896 63.5,55.5 Z"/></g>
<g><path style="opacity:1" fill="#284d7c" d="M 62.5,57.5 C 63.1174,57.6107 63.6174,57.944 64,58.5C 66.0548,68.1113 62.2215,72.2779 52.5,71C 50.5612,69.5679 49.2279,67.7346 48.5,65.5C 50.8568,65.6633 53.1902,65.4966 55.5,65C 53.3807,64.9024 51.714,64.0691 50.5,62.5C 54.4454,61.5091 58.4454,61.1758 62.5,61.5C 62.5,60.1667 62.5,58.8333 62.5,57.5 Z"/></g>
<g><path style="opacity:1" fill="#162b53" d="M 62.5,57.5 C 62.5,58.8333 62.5,60.1667 62.5,61.5C 58.4454,61.1758 54.4454,61.5091 50.5,62.5C 51.714,64.0691 53.3807,64.9024 55.5,65C 53.1902,65.4966 50.8568,65.6633 48.5,65.5C 47.3006,61.2846 48.634,57.7846 52.5,55C 56.4631,53.8634 59.7964,54.6967 62.5,57.5 Z"/></g>
<g><path style="opacity:1" fill="#e2bd75" d="M 98.5,70.5 C 100.527,70.3379 102.527,70.5045 104.5,71C 100.068,71.6228 99.7351,72.6228 103.5,74C 102.376,74.2492 101.376,74.7492 100.5,75.5C 105.363,77.6749 104.697,78.6749 98.5,78.5C 98.5,75.8333 98.5,73.1667 98.5,70.5 Z"/></g>
<g><path style="opacity:1" fill="#ecd4a5" d="M 125.5,70.5 C 128.582,71.1302 131.582,72.1302 134.5,73.5C 133.675,74.3857 132.675,74.719 131.5,74.5C 131.351,75.552 131.517,76.552 132,77.5C 132.893,76.2888 133.726,76.2888 134.5,77.5C 131.415,77.9206 128.415,78.2539 125.5,78.5C 125.058,73.3055 124.058,73.3055 122.5,78.5C 121.262,74.6893 120.596,74.6893 120.5,78.5C 118.061,77.9475 115.727,77.9475 113.5,78.5C 112.224,73.3183 111.557,73.3183 111.5,78.5C 110.5,78.5 109.5,78.5 108.5,78.5C 108.443,73.3183 107.776,73.3183 106.5,78.5C 105.534,76.604 105.201,74.604 105.5,72.5C 110.907,72.6854 116.073,73.0187 121,73.5C 122.31,72.1031 123.81,71.1031 125.5,70.5 Z"/></g>
<g><path style="opacity:1" fill="#e7c687" d="M 145.5,70.5 C 145.371,72.2161 145.038,73.8828 144.5,75.5C 143.842,76.3984 143.176,77.3984 142.5,78.5C 140.186,76.5667 139.52,74.2334 140.5,71.5C 141.251,72.376 141.751,73.376 142,74.5C 142.498,72.4556 143.665,71.1223 145.5,70.5 Z"/></g>
<g><path style="opacity:1" fill="#2b4775" d="M 53.5,78.5 C 53.6495,79.552 53.4828,80.552 53,81.5C 50.7572,80.0292 48.2572,79.0292 45.5,78.5C 45.8555,77.4777 46.5222,76.811 47.5,76.5C 51.4888,70.5516 53.4888,71.2183 53.5,78.5 Z"/></g>
<g><path style="opacity:1" fill="#263b5d" d="M 64.5,74.5 C 65.3909,75.2613 66.0576,76.2613 66.5,77.5C 63.8125,78.0982 61.6459,79.4315 60,81.5C 58.8118,80.4366 58.3118,79.1033 58.5,77.5C 58.5,76.1667 58.5,74.8333 58.5,73.5C 60.6208,73.3253 62.6208,73.6586 64.5,74.5 Z"/></g>
<g><path style="opacity:1" fill="#eedab1" d="M 145.5,70.5 C 147.89,70.8551 150.223,71.5217 152.5,72.5C 154.481,72.5629 156.148,71.8962 157.5,70.5C 158.251,71.376 158.751,72.376 159,73.5C 164.256,71.9057 165.756,73.739 163.5,79C 157.472,79.6406 151.472,79.4739 145.5,78.5C 145.737,77.209 145.404,76.209 144.5,75.5C 145.038,73.8828 145.371,72.2161 145.5,70.5 Z"/></g>
<g><path style="opacity:1" fill="#b18f30" d="M 45.5,99.5 C 45.5,100.5 45.5,101.5 45.5,102.5C 44.5,102.5 43.5,102.5 42.5,102.5C 35.6127,95.2275 28.6127,88.0609 21.5,81C 16.5948,80.481 11.9282,81.3143 7.5,83.5C 6.28984,87.7944 5.28984,92.1277 4.5,96.5C 4.08968,99.4307 2.75635,100.097 0.5,98.5C 0.166667,98.5 -0.166667,98.5 -0.5,98.5C -0.5,96.8333 -0.5,95.1667 -0.5,93.5C 1.07471,88.6546 2.40804,83.6546 3.5,78.5C 9.76582,76.945 16.0991,76.1117 22.5,76C 30.3691,83.7017 38.0358,91.5351 45.5,99.5 Z"/></g>
<g><path style="opacity:1" fill="#153054" d="M 46.5,71.5 C 42.521,74.8123 38.8544,78.479 35.5,82.5C 56.4394,103.774 77.4394,125.107 98.5,146.5C 96.7354,147.461 94.7354,147.795 92.5,147.5C 77.0711,131.282 61.4044,115.282 45.5,99.5C 38.0358,91.5351 30.3691,83.7017 22.5,76C 16.0991,76.1117 9.76582,76.945 3.5,78.5C 2.40804,83.6546 1.07471,88.6546 -0.5,93.5C -0.5,87.5 -0.5,81.5 -0.5,75.5C 6.97966,74.097 14.313,72.097 21.5,69.5C 23.8442,70.8509 26.1775,72.1843 28.5,73.5C 28.9651,76.4734 30.6318,77.6401 33.5,77C 37.0158,73.6514 40.3492,70.1514 43.5,66.5C 45.321,67.7277 46.321,69.3944 46.5,71.5 Z"/></g>
<g><path style="opacity:1" fill="#bcc8d3" d="M 117.5,90.5 C 122.167,90.5 126.833,90.5 131.5,90.5C 131.5,91.5 131.5,92.5 131.5,93.5C 126.685,92.9628 122.018,92.9628 117.5,93.5C 117.5,92.5 117.5,91.5 117.5,90.5 Z"/></g>
<g><path style="opacity:1" fill="#bec8d3" d="M 133.5,90.5 C 137.884,90.1744 142.217,90.5078 146.5,91.5C 144.121,93.0419 141.454,93.7086 138.5,93.5C 136.5,93.1667 134.5,92.8333 132.5,92.5C 132.863,91.8165 133.196,91.1499 133.5,90.5 Z"/></g>
<g><path style="opacity:1" fill="#edd7aa" d="M 118.5,97.5 C 121.162,98.6393 123.829,98.8059 126.5,98C 127.833,99.3333 127.833,100.667 126.5,102C 127.448,102.483 128.448,102.649 129.5,102.5C 129.631,97.7316 131.465,96.7316 135,99.5C 138.087,99.7617 141.253,99.4284 144.5,98.5C 144.739,100.467 144.406,102.301 143.5,104C 141.284,103.637 139.118,103.804 137,104.5C 136.055,104.095 135.388,103.428 135,102.5C 133.115,104.02 130.949,105.02 128.5,105.5C 125.17,104.906 121.836,104.24 118.5,103.5C 120.802,102.001 120.469,100.668 117.5,99.5C 117.863,98.8165 118.196,98.1499 118.5,97.5 Z"/></g>
<g><path style="opacity:1" fill="#042241" d="M -0.5,98.5 C -0.166667,98.5 0.166667,98.5 0.5,98.5C 16.1978,114.197 31.5311,130.197 46.5,146.5C 33.1667,146.5 19.8333,146.5 6.5,146.5C 4.90587,143.236 2.57253,140.569 -0.5,138.5C -0.5,125.167 -0.5,111.833 -0.5,98.5 Z"/></g>
<g><path style="opacity:1" fill="#a8b8c5" d="M 114.5,111.5 C 118.683,110.189 123.016,110.189 127.5,111.5C 123.182,112.54 118.849,112.54 114.5,111.5 Z"/></g>
<g><path style="opacity:1" fill="#152b4a" d="M 42.5,102.5 C 57.2214,117.553 71.888,132.553 86.5,147.5C 84.1667,147.5 81.8333,147.5 79.5,147.5C 70.1391,137.807 60.8058,128.14 51.5,118.5C 45.8333,112.167 39.8333,106.167 33.5,100.5C 29.0366,95.5354 24.3699,90.7021 19.5,86C 13.0719,84.5151 9.73857,87.0151 9.5,93.5C 11.7799,97.4484 14.7799,100.782 18.5,103.5C 24.1667,109.833 30.1667,115.833 36.5,121.5C 44.4784,129.481 52.1451,137.815 59.5,146.5C 57.5,146.5 55.5,146.5 53.5,146.5C 37.8093,129.143 21.476,112.477 4.5,96.5C 5.28984,92.1277 6.28984,87.7944 7.5,83.5C 11.9282,81.3143 16.5948,80.481 21.5,81C 28.6127,88.0609 35.6127,95.2275 42.5,102.5 Z"/></g>
<g><path style="opacity:1" fill="#b5902d" d="M 33.5,100.5 C 33.5,101.5 33.5,102.5 33.5,103.5C 28.5,103.5 23.5,103.5 18.5,103.5C 14.7799,100.782 11.7799,97.4484 9.5,93.5C 9.73857,87.0151 13.0719,84.5151 19.5,86C 24.3699,90.7021 29.0366,95.5354 33.5,100.5 Z"/></g>
<g><path style="opacity:1" fill="#9a7a2a" d="M 45.5,99.5 C 61.4044,115.282 77.0711,131.282 92.5,147.5C 90.5,147.5 88.5,147.5 86.5,147.5C 71.888,132.553 57.2214,117.553 42.5,102.5C 43.5,102.5 44.5,102.5 45.5,102.5C 45.5,101.5 45.5,100.5 45.5,99.5 Z"/></g>
<g><path style="opacity:1" fill="#cbd4db" d="M 142.5,109.5 C 144.5,109.5 146.5,109.5 148.5,109.5C 148.5,110.833 148.5,112.167 148.5,113.5C 141.707,112.571 135.04,111.905 128.5,111.5C 133.05,110.2 137.55,110.2 142,111.5C 142.464,110.906 142.631,110.239 142.5,109.5 Z"/></g>
<g><path style="opacity:1" fill="#aa8428" d="M 33.5,100.5 C 39.8333,106.167 45.8333,112.167 51.5,118.5C 51.7512,120.17 52.4178,121.67 53.5,123C 51.9194,123.707 50.4194,124.54 49,125.5C 44.7998,125.16 40.6331,123.826 36.5,121.5C 30.1667,115.833 24.1667,109.833 18.5,103.5C 23.5,103.5 28.5,103.5 33.5,103.5C 33.5,102.5 33.5,101.5 33.5,100.5 Z"/></g>
<g><path style="opacity:1" fill="#99792b" d="M 4.5,96.5 C 21.476,112.477 37.8093,129.143 53.5,146.5C 51.1667,146.5 48.8333,146.5 46.5,146.5C 31.5311,130.197 16.1978,114.197 0.5,98.5C 2.75635,100.097 4.08968,99.4307 4.5,96.5 Z"/></g>
<g><path style="opacity:1" fill="#a5b4c5" d="M 114.5,121.5 C 120.151,121.775 125.651,121.775 131,121.5C 132.658,121.675 133.991,122.342 135,123.5C 135.5,123 136,122.5 136.5,122C 139.482,121.502 142.482,121.335 145.5,121.5C 145.5,122.833 145.5,124.167 145.5,125.5C 135.167,125.5 124.833,125.5 114.5,125.5C 114.5,124.167 114.5,122.833 114.5,121.5 Z"/></g>
<g><path style="opacity:1" fill="#9a7826" d="M 51.5,118.5 C 60.8058,128.14 70.1391,137.807 79.5,147.5C 72.7446,147.793 66.0779,147.46 59.5,146.5C 52.1451,137.815 44.4784,129.481 36.5,121.5C 40.6331,123.826 44.7998,125.16 49,125.5C 50.4194,124.54 51.9194,123.707 53.5,123C 52.4178,121.67 51.7512,120.17 51.5,118.5 Z"/></g>
<g><path style="opacity:1" fill="#a2823b" d="M -0.5,138.5 C 2.57253,140.569 4.90587,143.236 6.5,146.5C 4.16667,146.5 1.83333,146.5 -0.5,146.5C -0.5,143.833 -0.5,141.167 -0.5,138.5 Z"/></g>
<g><path style="opacity:1" fill="#9fabb9" d="M 98.5,146.5 C 99.0431,146.56 99.3764,146.893 99.5,147.5C 97.0268,148.797 94.6934,148.797 92.5,147.5C 94.7354,147.795 96.7354,147.461 98.5,146.5 Z"/></g>
</svg>
