<?xml version="1.0" encoding="UTF-8"?>
<!DOCTYPE svg PUBLIC "-//W3C//DTD SVG 1.1//EN" "http://www.w3.org/Graphics/SVG/1.1/DTD/svg11.dtd">
<svg xmlns="http://www.w3.org/2000/svg" version="1.1" width="512px" height="512px" style="shape-rendering:geometricPrecision; text-rendering:geometricPrecision; image-rendering:optimizeQuality; fill-rule:evenodd; clip-rule:evenodd" xmlns:xlink="http://www.w3.org/1999/xlink">
<g><path style="opacity:0.999" fill="#fefffe" d="M 511.5,31.5 C 511.5,180.833 511.5,330.167 511.5,479.5C 415.5,479.5 319.5,479.5 223.5,479.5C 223.333,457.831 223.5,436.164 224,414.5C 234.333,404.167 244.667,393.833 255,383.5C 255.5,404.831 255.667,426.164 255.5,447.5C 330.167,447.5 404.833,447.5 479.5,447.5C 479.5,319.5 479.5,191.5 479.5,63.5C 404.833,63.5 330.167,63.5 255.5,63.5C 255.667,84.8359 255.5,106.169 255,127.5C 244.667,117.167 234.333,106.833 224,96.5C 223.5,74.8359 223.333,53.1692 223.5,31.5C 319.5,31.5 415.5,31.5 511.5,31.5 Z"/></g>
<g><path style="opacity:0.994" fill="#fefffe" d="M -0.5,319.5 C -0.5,276.833 -0.5,234.167 -0.5,191.5C 52.8333,191.5 106.167,191.5 159.5,191.5C 159.167,170.156 159.5,148.823 160.5,127.5C 213.722,169.937 266.722,212.604 319.5,255.5C 266.722,298.396 213.722,341.063 160.5,383.5C 159.5,362.177 159.167,340.844 159.5,319.5C 106.167,319.5 52.8333,319.5 -0.5,319.5 Z"/></g>
</svg>
