<?xml version="1.0" encoding="UTF-8"?>
<!DOCTYPE svg PUBLIC "-//W3C//DTD SVG 1.1//EN" "http://www.w3.org/Graphics/SVG/1.1/DTD/svg11.dtd">
<svg xmlns="http://www.w3.org/2000/svg" version="1.1" width="1751px" height="579px" style="shape-rendering:geometricPrecision; text-rendering:geometricPrecision; image-rendering:optimizeQuality; fill-rule:evenodd; clip-rule:evenodd" xmlns:xlink="http://www.w3.org/1999/xlink">
<g><path style="opacity:0.995" fill="#8cf8ca" d="M 158.5,0.5 C 158.5,0.166667 158.5,-0.166667 158.5,-0.5C 184.5,-0.5 210.5,-0.5 236.5,-0.5C 236.5,36.5 236.5,73.5 236.5,110.5C 210.812,110.213 185.145,110.547 159.5,111.5C 161.484,74.7209 162.151,37.7209 161.5,0.5C 160.5,0.5 159.5,0.5 158.5,0.5 Z"/></g>
<g><path style="opacity:0.996" fill="#87f8c8" d="M 236.5,-0.5 C 257.167,-0.5 277.833,-0.5 298.5,-0.5C 298.5,36.5 298.5,73.5 298.5,110.5C 277.833,110.5 257.167,110.5 236.5,110.5C 236.5,73.5 236.5,36.5 236.5,-0.5 Z"/></g>
<g><path style="opacity:0.998" fill="#84f8c6" d="M 298.5,-0.5 C 300.833,-0.5 303.167,-0.5 305.5,-0.5C 307.607,0.468218 309.941,0.801552 312.5,0.5C 312.5,36.8333 312.5,73.1667 312.5,109.5C 309.941,109.198 307.607,109.532 305.5,110.5C 303.167,110.5 300.833,110.5 298.5,110.5C 298.5,73.5 298.5,36.5 298.5,-0.5 Z"/></g>
<g><path style="opacity:0.995" fill="#80f7c5" d="M 305.5,-0.5 C 339.833,-0.5 374.167,-0.5 408.5,-0.5C 408.5,36.5 408.5,73.5 408.5,110.5C 374.167,110.5 339.833,110.5 305.5,110.5C 307.607,109.532 309.941,109.198 312.5,109.5C 312.5,73.1667 312.5,36.8333 312.5,0.5C 309.941,0.801552 307.607,0.468218 305.5,-0.5 Z"/></g>
<g><path style="opacity:0.996" fill="#7af7c2" d="M 408.5,-0.5 C 426.833,-0.5 445.167,-0.5 463.5,-0.5C 463.5,36.5 463.5,73.5 463.5,110.5C 445.167,110.5 426.833,110.5 408.5,110.5C 408.5,73.5 408.5,36.5 408.5,-0.5 Z"/></g>
<g><path style="opacity:0.996" fill="#77f7c0" d="M 463.5,-0.5 C 470.5,-0.5 477.5,-0.5 484.5,-0.5C 484.5,36.5 484.5,73.5 484.5,110.5C 477.5,110.5 470.5,110.5 463.5,110.5C 463.5,73.5 463.5,36.5 463.5,-0.5 Z"/></g>
<g><path style="opacity:0.996" fill="#73f6bf" d="M 484.5,-0.5 C 509.5,-0.5 534.5,-0.5 559.5,-0.5C 559.5,36.5 559.5,73.5 559.5,110.5C 534.5,110.5 509.5,110.5 484.5,110.5C 484.5,73.5 484.5,36.5 484.5,-0.5 Z"/></g>
<g><path style="opacity:0.996" fill="#6df5bc" d="M 559.5,-0.5 C 575.833,-0.5 592.167,-0.5 608.5,-0.5C 618.736,1.78475 627.736,6.45142 635.5,13.5C 635.5,41.1667 635.5,68.8333 635.5,96.5C 627.355,103.953 617.689,108.453 606.5,110C 590.837,110.5 575.17,110.667 559.5,110.5C 559.5,73.5 559.5,36.5 559.5,-0.5 Z"/></g>
<g><path style="opacity:0.999" fill="#3bf2a6" d="M 1214.5,-0.5 C 1236.5,-0.5 1258.5,-0.5 1280.5,-0.5C 1280.17,142.001 1280.5,284.334 1281.5,426.5C 1274.06,479.418 1248.4,520.751 1204.5,550.5C 1204.83,367.999 1204.5,185.666 1203.5,3.5C 1207.04,1.76477 1210.71,0.431442 1214.5,-0.5 Z"/></g>
<g><path style="opacity:0.996" fill="#36f2a3" d="M 1280.5,-0.5 C 1301.17,-0.5 1321.83,-0.5 1342.5,-0.5C 1342.5,36.5 1342.5,73.5 1342.5,110.5C 1322.5,110.5 1302.5,110.5 1282.5,110.5C 1282.5,151.5 1282.5,192.5 1282.5,233.5C 1302.5,233.5 1322.5,233.5 1342.5,233.5C 1342.5,270.5 1342.5,307.5 1342.5,344.5C 1322.5,344.5 1302.5,344.5 1282.5,344.5C 1282.81,371.865 1282.47,399.199 1281.5,426.5C 1280.5,284.334 1280.17,142.001 1280.5,-0.5 Z"/></g>
<g><path style="opacity:0.996" fill="#32f3a1" d="M 1342.5,-0.5 C 1351.5,-0.5 1360.5,-0.5 1369.5,-0.5C 1369.5,36.5 1369.5,73.5 1369.5,110.5C 1360.5,110.5 1351.5,110.5 1342.5,110.5C 1342.5,73.5 1342.5,36.5 1342.5,-0.5 Z"/></g>
<g><path style="opacity:0.996" fill="#2ef2a0" d="M 1369.5,-0.5 C 1394.83,-0.5 1420.17,-0.5 1445.5,-0.5C 1445.5,36.5 1445.5,73.5 1445.5,110.5C 1420.17,110.5 1394.83,110.5 1369.5,110.5C 1369.5,73.5 1369.5,36.5 1369.5,-0.5 Z"/></g>
<g><path style="opacity:0.996" fill="#29f29d" d="M 1445.5,-0.5 C 1468.17,-0.5 1490.83,-0.5 1513.5,-0.5C 1513.5,36.5 1513.5,73.5 1513.5,110.5C 1490.83,110.5 1468.17,110.5 1445.5,110.5C 1445.5,73.5 1445.5,36.5 1445.5,-0.5 Z"/></g>
<g><path style="opacity:0.996" fill="#26f29b" d="M 1513.5,-0.5 C 1518.17,-0.5 1522.83,-0.5 1527.5,-0.5C 1527.5,36.5 1527.5,73.5 1527.5,110.5C 1522.83,110.5 1518.17,110.5 1513.5,110.5C 1513.5,73.5 1513.5,36.5 1513.5,-0.5 Z"/></g>
<g><path style="opacity:0.996" fill="#22f29a" d="M 1527.5,-0.5 C 1552.83,-0.5 1578.17,-0.5 1603.5,-0.5C 1603.5,36.5 1603.5,73.5 1603.5,110.5C 1578.17,110.5 1552.83,110.5 1527.5,110.5C 1527.5,73.5 1527.5,36.5 1527.5,-0.5 Z"/></g>
<g><path style="opacity:0.996" fill="#1cf197" d="M 1603.5,-0.5 C 1633.17,-0.5 1662.83,-0.5 1692.5,-0.5C 1692.5,36.5 1692.5,73.5 1692.5,110.5C 1662.83,110.5 1633.17,110.5 1603.5,110.5C 1603.5,73.5 1603.5,36.5 1603.5,-0.5 Z"/></g>
<g><path style="opacity:0.997" fill="#18f095" d="M 1692.5,-0.5 C 1696.5,-0.5 1700.5,-0.5 1704.5,-0.5C 1704.5,0.166667 1704.83,0.5 1705.5,0.5C 1706.49,36.7605 1706.83,73.0938 1706.5,109.5C 1701.88,110.314 1697.21,110.647 1692.5,110.5C 1692.5,73.5 1692.5,36.5 1692.5,-0.5 Z"/></g>
<g><path style="opacity:0.997" fill="#91f8cd" d="M 158.5,0.5 C 159.5,0.5 160.5,0.5 161.5,0.5C 162.151,37.7209 161.484,74.7209 159.5,111.5C 123.247,122.997 107.413,147.664 112,185.5C 119.957,210.293 136.457,225.96 161.5,232.5C 161.5,269.5 161.5,306.5 161.5,343.5C 160.167,343.5 158.833,343.5 157.5,343.5C 137.012,342.546 117.679,337.546 99.5,328.5C 99.5,224.5 99.5,120.5 99.5,16.5C 118.004,7.28845 137.671,1.95512 158.5,0.5 Z"/></g>
<g><path style="opacity:0.987" fill="#16f094" d="M 1705.5,0.5 C 1730.2,5.86511 1745.2,20.8651 1750.5,45.5C 1750.5,51.8333 1750.5,58.1667 1750.5,64.5C 1744.98,88.3522 1730.32,103.352 1706.5,109.5C 1706.83,73.0938 1706.49,36.7605 1705.5,0.5 Z"/></g>
<g><path style="opacity:0.996" fill="#3ff3a7" d="M 1203.5,3.5 C 1204.5,185.666 1204.83,367.999 1204.5,550.5C 1194.17,557.166 1183.17,562.5 1171.5,566.5C 1171.33,392.5 1171.5,218.5 1172,44.5C 1174.81,24.8712 1185.31,11.2045 1203.5,3.5 Z"/></g>
<g><path style="opacity:0.97" fill="#69f5ba" d="M 635.5,13.5 C 653.696,31.2902 658.529,52.2902 650,76.5C 646.851,84.4683 642.018,91.135 635.5,96.5C 635.5,68.8333 635.5,41.1667 635.5,13.5 Z"/></g>
<g><path style="opacity:0.982" fill="#64f5b8" d="M 724.5,24.5 C 724.5,205.5 724.5,386.5 724.5,567.5C 712.954,558.745 706.121,547.078 704,532.5C 703.167,359.499 703.333,186.499 704.5,13.5C 711.55,16.687 718.217,20.3537 724.5,24.5 Z"/></g>
<g><path style="opacity:0.998" fill="#94f9cf" d="M 99.5,16.5 C 99.5,120.5 99.5,224.5 99.5,328.5C 94.0157,326.593 89.0157,323.927 84.5,320.5C 85.8333,221.833 85.8333,123.167 84.5,24.5C 89.0157,21.0734 94.0157,18.4068 99.5,16.5 Z"/></g>
<g><path style="opacity:0.996" fill="#98f9d0" d="M 84.5,24.5 C 85.8333,123.167 85.8333,221.833 84.5,320.5C 35.8066,291.101 7.47331,248.101 -0.5,191.5C -0.5,178.833 -0.5,166.167 -0.5,153.5C 7.57703,96.9776 35.9104,53.9776 84.5,24.5 Z"/></g>
<g><path style="opacity:0.999" fill="#60f5b6" d="M 724.5,24.5 C 765.385,48.4089 793.052,83.0755 807.5,128.5C 806.5,277.999 806.167,427.666 806.5,577.5C 797.318,577.173 788.318,577.507 779.5,578.5C 769.167,578.5 758.833,578.5 748.5,578.5C 739.614,576.761 731.614,573.094 724.5,567.5C 724.5,386.5 724.5,205.5 724.5,24.5 Z"/></g>
<g><path style="opacity:0.996" fill="#5bf4b4" d="M 807.5,128.5 C 810.498,139.656 812.664,150.989 814,162.5C 814.5,264.166 814.667,365.833 814.5,467.5C 837.167,467.5 859.833,467.5 882.5,467.5C 882.5,504.167 882.5,540.833 882.5,577.5C 887.032,577.182 891.366,577.515 895.5,578.5C 856.833,578.5 818.167,578.5 779.5,578.5C 788.318,577.507 797.318,577.173 806.5,577.5C 806.167,427.666 806.5,277.999 807.5,128.5 Z"/></g>
<g><path style="opacity:0.997" fill="#8cf7ca" d="M 161.5,232.5 C 186.485,233.42 211.485,233.753 236.5,233.5C 236.5,270.5 236.5,307.5 236.5,344.5C 209.995,344.831 183.661,344.498 157.5,343.5C 158.833,343.5 160.167,343.5 161.5,343.5C 161.5,306.5 161.5,269.5 161.5,232.5 Z"/></g>
<g><path style="opacity:0.998" fill="#87f8c8" d="M 236.5,233.5 C 257.167,233.5 277.833,233.5 298.5,233.5C 298.5,270.5 298.5,307.5 298.5,344.5C 277.833,344.5 257.167,344.5 236.5,344.5C 236.5,307.5 236.5,270.5 236.5,233.5 Z"/></g>
<g><path style="opacity:0.999" fill="#84f8c6" d="M 298.5,233.5 C 303.167,233.5 307.833,233.5 312.5,233.5C 312.5,270.167 312.5,306.833 312.5,343.5C 309.941,343.198 307.607,343.532 305.5,344.5C 303.167,344.5 300.833,344.5 298.5,344.5C 298.5,307.5 298.5,270.5 298.5,233.5 Z"/></g>
<g><path style="opacity:0.998" fill="#80f7c5" d="M 312.5,233.5 C 344.5,233.5 376.5,233.5 408.5,233.5C 408.5,270.5 408.5,307.5 408.5,344.5C 374.167,344.5 339.833,344.5 305.5,344.5C 307.607,343.532 309.941,343.198 312.5,343.5C 312.5,306.833 312.5,270.167 312.5,233.5 Z"/></g>
<g><path style="opacity:0.998" fill="#7af7c2" d="M 408.5,233.5 C 426.833,233.5 445.167,233.5 463.5,233.5C 463.5,270.5 463.5,307.5 463.5,344.5C 445.167,344.5 426.833,344.5 408.5,344.5C 408.5,307.5 408.5,270.5 408.5,233.5 Z"/></g>
<g><path style="opacity:0.998" fill="#77f7c0" d="M 463.5,233.5 C 470.5,233.5 477.5,233.5 484.5,233.5C 484.5,270.5 484.5,307.5 484.5,344.5C 477.5,344.5 470.5,344.5 463.5,344.5C 463.5,307.5 463.5,270.5 463.5,233.5 Z"/></g>
<g><path style="opacity:0.995" fill="#73f6bf" d="M 484.5,233.5 C 510.927,233.691 535.927,239.691 559.5,251.5C 559.5,353.833 559.5,456.167 559.5,558.5C 537.873,569.989 514.873,576.656 490.5,578.5C 488.5,578.5 486.5,578.5 484.5,578.5C 484.5,541.5 484.5,504.5 484.5,467.5C 485.791,467.737 486.791,467.404 487.5,466.5C 521.43,460.407 539.763,440.241 542.5,406C 539.863,369.861 520.53,349.361 484.5,344.5C 484.5,307.5 484.5,270.5 484.5,233.5 Z"/></g>
<g><path style="opacity:0.998" fill="#32f3a1" d="M 1342.5,233.5 C 1351.5,233.5 1360.5,233.5 1369.5,233.5C 1369.5,270.5 1369.5,307.5 1369.5,344.5C 1360.5,344.5 1351.5,344.5 1342.5,344.5C 1342.5,307.5 1342.5,270.5 1342.5,233.5 Z"/></g>
<g><path style="opacity:0.998" fill="#2ef2a0" d="M 1369.5,233.5 C 1394.83,233.5 1420.17,233.5 1445.5,233.5C 1445.5,270.5 1445.5,307.5 1445.5,344.5C 1420.17,344.5 1394.83,344.5 1369.5,344.5C 1369.5,307.5 1369.5,270.5 1369.5,233.5 Z"/></g>
<g><path style="opacity:0.998" fill="#29f29d" d="M 1445.5,233.5 C 1468.17,233.5 1490.83,233.5 1513.5,233.5C 1513.5,270.5 1513.5,307.5 1513.5,344.5C 1490.83,344.5 1468.17,344.5 1445.5,344.5C 1445.5,307.5 1445.5,270.5 1445.5,233.5 Z"/></g>
<g><path style="opacity:0.998" fill="#26f29b" d="M 1513.5,233.5 C 1518.17,233.5 1522.83,233.5 1527.5,233.5C 1527.5,270.5 1527.5,307.5 1527.5,344.5C 1522.83,344.5 1518.17,344.5 1513.5,344.5C 1513.5,307.5 1513.5,270.5 1513.5,233.5 Z"/></g>
<g><path style="opacity:0.993" fill="#22f19a" d="M 1527.5,233.5 C 1538.84,233.333 1550.17,233.5 1561.5,234C 1589.66,240.986 1604.33,258.986 1605.5,288C 1605.04,313.119 1593.37,330.785 1570.5,341C 1566.58,342.313 1562.58,343.313 1558.5,344C 1548.17,344.5 1537.84,344.666 1527.5,344.5C 1527.5,307.5 1527.5,270.5 1527.5,233.5 Z"/></g>
<g><path style="opacity:0.997" fill="#6df5bd" d="M 559.5,251.5 C 593.5,268.833 619.167,294.5 636.5,328.5C 635.501,379.664 635.168,430.997 635.5,482.5C 618.5,516.167 593.167,541.5 559.5,558.5C 559.5,456.167 559.5,353.833 559.5,251.5 Z"/></g>
<g><path style="opacity:0.975" fill="#69f5bb" d="M 636.5,328.5 C 657.781,373.905 659.948,420.238 643,467.5C 640.997,472.84 638.497,477.84 635.5,482.5C 635.168,430.997 635.501,379.664 636.5,328.5 Z"/></g>
<g><path style="opacity:0.989" fill="#77f6c0" d="M 487.5,466.5 C 486.791,467.404 485.791,467.737 484.5,467.5C 484.5,504.5 484.5,541.5 484.5,578.5C 468.167,578.5 451.833,578.5 435.5,578.5C 444.652,577.506 453.985,577.173 463.5,577.5C 463.5,540.833 463.5,504.167 463.5,467.5C 471.534,467.698 479.534,467.365 487.5,466.5 Z"/></g>
<g><path style="opacity:0.994" fill="#98f9d0" d="M 85.5,467.5 C 85.5,504.167 85.5,540.833 85.5,577.5C 80.9677,577.182 76.6344,577.515 72.5,578.5C 64.1667,578.5 55.8333,578.5 47.5,578.5C 21.8127,573.812 5.81273,558.812 -0.5,533.5C -0.5,526.167 -0.5,518.833 -0.5,511.5C 5.76727,488.067 20.7673,473.567 44.5,468C 58.1626,467.5 71.8293,467.333 85.5,467.5 Z"/></g>
<g><path style="opacity:0.991" fill="#95f9ce" d="M 85.5,467.5 C 90.1667,467.5 94.8333,467.5 99.5,467.5C 99.5,504.5 99.5,541.5 99.5,578.5C 90.5,578.5 81.5,578.5 72.5,578.5C 76.6344,577.515 80.9677,577.182 85.5,577.5C 85.5,540.833 85.5,504.167 85.5,467.5 Z"/></g>
<g><path style="opacity:0.997" fill="#91f8cd" d="M 99.5,467.5 C 120.167,467.5 140.833,467.5 161.5,467.5C 161.5,504.167 161.5,540.833 161.5,577.5C 156.637,577.181 151.97,577.514 147.5,578.5C 131.5,578.5 115.5,578.5 99.5,578.5C 99.5,541.5 99.5,504.5 99.5,467.5 Z"/></g>
<g><path style="opacity:0.995" fill="#8cf7ca" d="M 161.5,467.5 C 186.5,467.5 211.5,467.5 236.5,467.5C 236.5,504.167 236.5,540.833 236.5,577.5C 231.968,577.182 227.634,577.515 223.5,578.5C 198.167,578.5 172.833,578.5 147.5,578.5C 151.97,577.514 156.637,577.181 161.5,577.5C 161.5,540.833 161.5,504.167 161.5,467.5 Z"/></g>
<g><path style="opacity:0.997" fill="#87f7c8" d="M 236.5,467.5 C 257.167,467.5 277.833,467.5 298.5,467.5C 298.5,504.167 298.5,540.833 298.5,577.5C 289.318,577.173 280.318,577.507 271.5,578.5C 255.5,578.5 239.5,578.5 223.5,578.5C 227.634,577.515 231.968,577.182 236.5,577.5C 236.5,540.833 236.5,504.167 236.5,467.5 Z"/></g>
<g><path style="opacity:0.989" fill="#84f7c7" d="M 298.5,467.5 C 303.167,467.5 307.833,467.5 312.5,467.5C 312.5,504.167 312.5,540.833 312.5,577.5C 309.941,577.198 307.607,577.532 305.5,578.5C 294.167,578.5 282.833,578.5 271.5,578.5C 280.318,577.507 289.318,577.173 298.5,577.5C 298.5,540.833 298.5,504.167 298.5,467.5 Z"/></g>
<g><path style="opacity:0.995" fill="#80f7c5" d="M 312.5,467.5 C 344.5,467.5 376.5,467.5 408.5,467.5C 408.5,504.5 408.5,541.5 408.5,578.5C 374.167,578.5 339.833,578.5 305.5,578.5C 307.607,577.532 309.941,577.198 312.5,577.5C 312.5,540.833 312.5,504.167 312.5,467.5 Z"/></g>
<g><path style="opacity:0.998" fill="#7af7c2" d="M 408.5,467.5 C 426.833,467.5 445.167,467.5 463.5,467.5C 463.5,504.167 463.5,540.833 463.5,577.5C 453.985,577.173 444.652,577.506 435.5,578.5C 426.5,578.5 417.5,578.5 408.5,578.5C 408.5,541.5 408.5,504.5 408.5,467.5 Z"/></g>
<g><path style="opacity:0.995" fill="#54f5b1" d="M 882.5,467.5 C 907.5,467.5 932.5,467.5 957.5,467.5C 957.5,504.167 957.5,540.833 957.5,577.5C 962.363,577.181 967.03,577.514 971.5,578.5C 946.167,578.5 920.833,578.5 895.5,578.5C 891.366,577.515 887.032,577.182 882.5,577.5C 882.5,540.833 882.5,504.167 882.5,467.5 Z"/></g>
<g><path style="opacity:0.999" fill="#4ff4af" d="M 957.5,467.5 C 973.5,467.5 989.5,467.5 1005.5,467.5C 1005.5,504.5 1005.5,541.5 1005.5,578.5C 994.167,578.5 982.833,578.5 971.5,578.5C 967.03,577.514 962.363,577.181 957.5,577.5C 957.5,540.833 957.5,504.167 957.5,467.5 Z"/></g>
<g><path style="opacity:1" fill="#4cf3ad" d="M 1005.5,467.5 C 1019.5,467.5 1033.5,467.5 1047.5,467.5C 1047.5,504.167 1047.5,540.833 1047.5,577.5C 1055.68,577.174 1063.68,577.508 1071.5,578.5C 1049.5,578.5 1027.5,578.5 1005.5,578.5C 1005.5,541.5 1005.5,504.5 1005.5,467.5 Z"/></g>
<g><path style="opacity:0.994" fill="#48f3ab" d="M 1047.5,467.5 C 1072.71,462.849 1093.88,469.849 1111,488.5C 1125.5,510.068 1126.17,532.068 1113,554.5C 1103.32,567.704 1090.49,575.704 1074.5,578.5C 1073.5,578.5 1072.5,578.5 1071.5,578.5C 1063.68,577.508 1055.68,577.174 1047.5,577.5C 1047.5,540.833 1047.5,504.167 1047.5,467.5 Z"/></g>
</svg>
