<?xml version="1.0" encoding="UTF-8"?>
<!DOCTYPE svg PUBLIC "-//W3C//DTD SVG 1.1//EN" "http://www.w3.org/Graphics/SVG/1.1/DTD/svg11.dtd">
<svg xmlns="http://www.w3.org/2000/svg" version="1.1" width="64px" height="64px" style="shape-rendering:geometricPrecision; text-rendering:geometricPrecision; image-rendering:optimizeQuality; fill-rule:evenodd; clip-rule:evenodd" xmlns:xlink="http://www.w3.org/1999/xlink">
<g><path style="opacity:0.678" fill="#fefffe" d="M 48.5,1.5 C 55.4933,-0.00413355 58.3267,2.66253 57,9.5C 54,12.1667 51,12.1667 48,9.5C 46.9148,10.2931 45.7481,10.9598 44.5,11.5C 44.0918,17.0729 41.0918,19.5729 35.5,19C 33.6667,20.8333 31.8333,22.6667 30,24.5C 30.5375,30.9672 27.7042,33.4672 21.5,32C 17.812,27.3277 13.1453,25.661 7.5,27C 3.9359,23.8549 3.9359,20.8549 7.5,18C 13.3313,16.3341 15.998,18.5008 15.5,24.5C 16.8221,24.33 17.9887,24.6634 19,25.5C 21.2283,23.0321 24.0617,21.8654 27.5,22C 29.3333,20.1667 31.1667,18.3333 33,16.5C 32.2043,12.1153 34.0376,9.11533 38.5,7.5C 41.148,9.8 43.8146,9.63333 46.5,7C 47.2444,5.1852 47.9111,3.35187 48.5,1.5 Z M 50.5,4.5 C 51.8333,4.5 53.1667,4.5 54.5,4.5C 54.5,5.83333 54.5,7.16667 54.5,8.5C 53.1667,8.5 51.8333,8.5 50.5,8.5C 50.5,7.16667 50.5,5.83333 50.5,4.5 Z M 36.5,11.5 C 37.8333,11.5 39.1667,11.5 40.5,11.5C 40.5,12.8333 40.5,14.1667 40.5,15.5C 39.1667,15.5 37.8333,15.5 36.5,15.5C 36.5,14.1667 36.5,12.8333 36.5,11.5 Z M 8.5,20.5 C 9.83333,20.5 11.1667,20.5 12.5,20.5C 12.5,21.8333 12.5,23.1667 12.5,24.5C 11.1667,24.5 9.83333,24.5 8.5,24.5C 8.5,23.1667 8.5,21.8333 8.5,20.5 Z M 22.5,25.5 C 23.8333,25.5 25.1667,25.5 26.5,25.5C 26.5,26.8333 26.5,28.1667 26.5,29.5C 25.1667,29.5 23.8333,29.5 22.5,29.5C 22.5,28.1667 22.5,26.8333 22.5,25.5 Z"/></g>
<g><path style="opacity:0.996" fill="#fefffe" d="M 46.5,14.5 C 50.5,14.5 54.5,14.5 58.5,14.5C 58.5,29.5 58.5,44.5 58.5,59.5C 59.675,59.281 60.675,59.6143 61.5,60.5C 41.5,61.8333 21.5,61.8333 1.5,60.5C 2.32496,59.6143 3.32496,59.281 4.5,59.5C 4.5,49.8333 4.5,40.1667 4.5,30.5C 8.5,30.5 12.5,30.5 16.5,30.5C 16.1682,40.1896 16.5016,49.8563 17.5,59.5C 18.4977,51.5277 18.831,43.5277 18.5,35.5C 22.5,35.5 26.5,35.5 30.5,35.5C 30.169,43.5277 30.5023,51.5277 31.5,59.5C 32.4989,47.8523 32.8322,36.1857 32.5,24.5C 36.5,24.5 40.5,24.5 44.5,24.5C 44.1678,36.1857 44.5011,47.8523 45.5,59.5C 46.4993,44.5148 46.8327,29.5148 46.5,14.5 Z M 48.5,16.5 C 51.1667,16.5 53.8333,16.5 56.5,16.5C 56.5,30.8333 56.5,45.1667 56.5,59.5C 53.8333,59.5 51.1667,59.5 48.5,59.5C 48.5,45.1667 48.5,30.8333 48.5,16.5 Z M 34.5,26.5 C 37.1667,26.5 39.8333,26.5 42.5,26.5C 42.5,37.5 42.5,48.5 42.5,59.5C 39.8333,59.5 37.1667,59.5 34.5,59.5C 34.5,48.5 34.5,37.5 34.5,26.5 Z M 6.5,32.5 C 9.16667,32.5 11.8333,32.5 14.5,32.5C 14.5,41.5 14.5,50.5 14.5,59.5C 11.8333,59.5 9.16667,59.5 6.5,59.5C 6.5,50.5 6.5,41.5 6.5,32.5 Z M 20.5,37.5 C 23.1667,37.5 25.8333,37.5 28.5,37.5C 28.5,44.8333 28.5,52.1667 28.5,59.5C 25.8333,59.5 23.1667,59.5 20.5,59.5C 20.5,52.1667 20.5,44.8333 20.5,37.5 Z"/></g>
</svg>
