<?xml version="1.0" encoding="UTF-8"?>
<!DOCTYPE svg PUBLIC "-//W3C//DTD SVG 1.1//EN" "http://www.w3.org/Graphics/SVG/1.1/DTD/svg11.dtd">
<svg xmlns="http://www.w3.org/2000/svg" version="1.1" width="500px" height="500px" style="shape-rendering:geometricPrecision; text-rendering:geometricPrecision; image-rendering:optimizeQuality; fill-rule:evenodd; clip-rule:evenodd" xmlns:xlink="http://www.w3.org/1999/xlink">
<g><path style="opacity:0.322" fill="#37718a" d="M 274.5,84.5 C 260.843,83.5781 247.177,83.4115 233.5,84C 225.527,85.4958 217.527,86.6625 209.5,87.5C 216.869,85.157 224.536,83.657 232.5,83C 243.833,82.3333 255.167,82.3333 266.5,83C 269.365,83.1829 272.031,83.6829 274.5,84.5 Z"/></g>
<g><path style="opacity:0.447" fill="#305e78" d="M 205.5,88.5 C 201.498,90.6098 197.165,91.9431 192.5,92.5C 196.502,90.3902 200.835,89.0569 205.5,88.5 Z"/></g>
<g><path style="opacity:0.924" fill="#4186a1" d="M 274.5,84.5 C 288.255,85.8524 301.255,89.5191 313.5,95.5C 306.242,94.4716 299.242,92.305 292.5,89C 287.896,87.9393 283.229,87.2727 278.5,87C 276.934,86.3918 275.6,85.5585 274.5,84.5 Z"/></g>
<g><path style="opacity:1" fill="#40b9e5" d="M 274.5,84.5 C 275.6,85.5585 276.934,86.3918 278.5,87C 283.229,87.2727 287.896,87.9393 292.5,89C 299.242,92.305 306.242,94.4716 313.5,95.5C 320.889,98.0277 327.889,101.361 334.5,105.5C 334.893,107.284 335.559,108.95 336.5,110.5C 334.516,110.383 332.85,111.05 331.5,112.5C 330.269,111.349 330.269,110.183 331.5,109C 328.581,104.337 324.581,103.17 319.5,105.5C 319.5,106.833 319.5,108.167 319.5,109.5C 321.547,109.489 323.547,109.156 325.5,108.5C 327.147,109.278 328.48,110.444 329.5,112C 329.167,112.333 328.833,112.667 328.5,113C 330.473,113.495 332.473,113.662 334.5,113.5C 334.5,114.5 334.5,115.5 334.5,116.5C 337.321,116.316 338.988,117.649 339.5,120.5C 341.359,122.192 343.359,123.692 345.5,125C 343.273,125.121 341.44,125.954 340,127.5C 339.313,125.445 338.146,123.779 336.5,122.5C 335.5,122.833 334.833,123.5 334.5,124.5C 316.136,125.061 297.803,126.061 279.5,127.5C 274.167,126.833 268.833,126.167 263.5,125.5C 258.167,126.167 252.833,126.833 247.5,127.5C 242.167,126.833 236.833,126.167 231.5,125.5C 223.529,126.498 215.529,127.165 207.5,127.5C 191.857,126.19 176.19,125.523 160.5,125.5C 158.726,122.882 157.726,119.882 157.5,116.5C 153.681,116.414 150.015,117.081 146.5,118.5C 159.942,106.771 175.276,98.1044 192.5,92.5C 197.165,91.9431 201.498,90.6098 205.5,88.5C 206.568,87.5655 207.901,87.2322 209.5,87.5C 217.527,86.6625 225.527,85.4958 233.5,84C 247.177,83.4115 260.843,83.5781 274.5,84.5 Z"/></g>
<g><path style="opacity:1" fill="#3bb7e5" d="M 336.5,110.5 C 342.062,113.632 347.395,117.298 352.5,121.5C 353.427,123.491 353.594,125.491 353,127.5C 354.897,125.984 357.064,125.317 359.5,125.5C 359.357,127.262 359.691,128.929 360.5,130.5C 363.158,131.829 365.824,133.162 368.5,134.5C 369.429,135.689 369.762,137.022 369.5,138.5C 371.703,138.604 373.703,139.27 375.5,140.5C 375.986,142.807 375.986,144.973 375.5,147C 379.658,150.215 382.991,154.048 385.5,158.5C 388.342,159.004 389.675,160.671 389.5,163.5C 387.682,161.922 386.682,162.422 386.5,165C 388.243,168.324 389.577,171.824 390.5,175.5C 387.722,175.978 385.722,174.978 384.5,172.5C 383.5,172.833 382.833,173.5 382.5,174.5C 383.246,175.736 383.579,177.07 383.5,178.5C 370.32,179.122 357.32,178.455 344.5,176.5C 343.526,178.743 343.192,181.076 343.5,183.5C 341.167,183.5 338.833,183.5 336.5,183.5C 335.968,177.848 335.635,172.181 335.5,166.5C 332.335,165.964 329.669,166.797 327.5,169C 324.325,168.947 321.658,169.78 319.5,171.5C 317.473,171.338 315.473,171.505 313.5,172C 309.952,176.402 305.285,178.736 299.5,179C 298.619,179.708 297.953,180.542 297.5,181.5C 297.5,181.833 297.5,182.167 297.5,182.5C 284.588,187.132 271.921,192.132 259.5,197.5C 256.888,198.371 254.221,199.037 251.5,199.5C 253.182,195.596 256.182,193.929 260.5,194.5C 260.5,193.5 260.5,192.5 260.5,191.5C 263.709,191.589 266.875,191.256 270,190.5C 275.702,187.068 281.869,184.902 288.5,184C 291.259,182.453 293.925,180.787 296.5,179C 293.709,177.77 291.042,176.27 288.5,174.5C 283.062,176.701 277.729,176.701 272.5,174.5C 270.884,175.115 269.551,176.115 268.5,177.5C 267.377,176.456 266.044,175.79 264.5,175.5C 262.306,175.954 260.473,176.954 259,178.5C 257.437,177.898 257.604,177.065 259.5,176C 258.207,175.51 256.873,175.343 255.5,175.5C 255.5,176.5 255.5,177.5 255.5,178.5C 207.833,178.5 160.167,178.5 112.5,178.5C 110.329,175.661 108.996,172.327 108.5,168.5C 106.774,170.228 105.441,172.228 104.5,174.5C 109.347,176.289 110.68,179.622 108.5,184.5C 103.635,175.854 101.135,176.521 101,186.5C 95.8087,189.823 94.6421,194.156 97.5,199.5C 96.512,200.19 95.512,201.357 94.5,203C 95.2529,204.487 96.0862,204.654 97,203.5C 97.1667,204.167 97.3333,204.833 97.5,205.5C 96.3877,207.39 95.5544,209.39 95,211.5C 94.6295,207.967 93.4628,204.967 91.5,202.5C 92.4025,199.609 92.7359,196.609 92.5,193.5C 94.508,185.161 97.8413,177.494 102.5,170.5C 104.024,169.826 105.358,168.826 106.5,167.5C 108.931,163.628 111.598,159.961 114.5,156.5C 116.403,153.366 117.736,150.032 118.5,146.5C 120.273,144.567 122.439,143.234 125,142.5C 125.785,140.714 126.951,139.214 128.5,138C 127.748,137.329 127.414,136.496 127.5,135.5C 132.623,132.25 137.623,128.75 142.5,125C 143.234,122.439 144.567,120.273 146.5,118.5C 150.015,117.081 153.681,116.414 157.5,116.5C 157.726,119.882 158.726,122.882 160.5,125.5C 176.19,125.523 191.857,126.19 207.5,127.5C 215.529,127.165 223.529,126.498 231.5,125.5C 236.833,126.167 242.167,126.833 247.5,127.5C 252.833,126.833 258.167,126.167 263.5,125.5C 268.833,126.167 274.167,126.833 279.5,127.5C 297.803,126.061 316.136,125.061 334.5,124.5C 334.833,123.5 335.5,122.833 336.5,122.5C 338.146,123.779 339.313,125.445 340,127.5C 341.44,125.954 343.273,125.121 345.5,125C 343.359,123.692 341.359,122.192 339.5,120.5C 338.988,117.649 337.321,116.316 334.5,116.5C 334.5,115.5 334.5,114.5 334.5,113.5C 332.473,113.662 330.473,113.495 328.5,113C 328.833,112.667 329.167,112.333 329.5,112C 328.48,110.444 327.147,109.278 325.5,108.5C 323.547,109.156 321.547,109.489 319.5,109.5C 319.5,108.167 319.5,106.833 319.5,105.5C 324.581,103.17 328.581,104.337 331.5,109C 330.269,110.183 330.269,111.349 331.5,112.5C 332.85,111.05 334.516,110.383 336.5,110.5 Z"/></g>
<g><path style="opacity:1" fill="#48a6c7" d="M 334.5,105.5 C 350.32,114.654 363.987,126.321 375.5,140.5C 373.703,139.27 371.703,138.604 369.5,138.5C 369.762,137.022 369.429,135.689 368.5,134.5C 365.824,133.162 363.158,131.829 360.5,130.5C 359.691,128.929 359.357,127.262 359.5,125.5C 357.064,125.317 354.897,125.984 353,127.5C 353.594,125.491 353.427,123.491 352.5,121.5C 347.395,117.298 342.062,113.632 336.5,110.5C 335.559,108.95 334.893,107.284 334.5,105.5 Z"/></g>
<g><path style="opacity:0.937" fill="#4792ae" d="M 146.5,118.5 C 144.567,120.273 143.234,122.439 142.5,125C 137.623,128.75 132.623,132.25 127.5,135.5C 132.934,128.727 139.267,123.061 146.5,118.5 Z"/></g>
<g><path style="opacity:0.914" fill="#448cac" d="M 127.5,135.5 C 127.414,136.496 127.748,137.329 128.5,138C 126.951,139.214 125.785,140.714 125,142.5C 122.439,143.234 120.273,144.567 118.5,146.5C 121.129,142.537 124.129,138.871 127.5,135.5 Z"/></g>
<g><path style="opacity:1" fill="#439ebf" d="M 375.5,140.5 C 388.065,153.934 397.898,169.267 405,186.5C 406.484,190.447 407.65,194.447 408.5,198.5C 404.017,197.208 402.35,194.375 403.5,190C 400.414,186.427 398.748,182.26 398.5,177.5C 394.719,173.376 391.719,168.709 389.5,163.5C 389.675,160.671 388.342,159.004 385.5,158.5C 382.991,154.048 379.658,150.215 375.5,147C 375.986,144.973 375.986,142.807 375.5,140.5 Z"/></g>
<g><path style="opacity:0.918" fill="#4393b1" d="M 118.5,146.5 C 117.736,150.032 116.403,153.366 114.5,156.5C 111.598,159.961 108.931,163.628 106.5,167.5C 105.358,168.826 104.024,169.826 102.5,170.5C 106.664,161.679 111.997,153.679 118.5,146.5 Z"/></g>
<g><path style="opacity:1" fill="#fcfefe" d="M 325.5,203.5 C 322.32,220.889 318.82,238.222 315,255.5C 314.502,258.482 314.335,261.482 314.5,264.5C 312.124,269.106 311.124,274.106 311.5,279.5C 307.423,296.281 303.59,313.281 300,330.5C 296.499,335.382 291.999,336.716 286.5,334.5C 284.531,330.907 281.864,327.907 278.5,325.5C 274.449,323.482 270.783,320.982 267.5,318C 268.167,316.667 269.167,315.667 270.5,315C 269.552,314.517 268.552,314.351 267.5,314.5C 267.719,313.325 267.386,312.325 266.5,311.5C 265.289,312.274 265.289,313.107 266.5,314C 264.741,314.798 263.074,314.631 261.5,313.5C 252.292,304.632 241.959,297.299 230.5,291.5C 226.021,288.757 221.688,285.757 217.5,282.5C 217.901,278.93 219.901,276.764 223.5,276C 226.408,273.597 228.741,270.763 230.5,267.5C 252.818,247.589 275.151,227.589 297.5,207.5C 298.429,206.311 298.762,204.978 298.5,203.5C 291.135,205.01 284.801,208.51 279.5,214C 274.771,215.689 270.771,218.356 267.5,222C 249.882,231.145 233.215,241.811 217.5,254C 209.347,257.574 201.68,261.907 194.5,267C 186.69,266.649 179.357,264.649 172.5,261C 168.213,259.847 163.879,259.013 159.5,258.5C 155.423,257.63 151.423,256.463 147.5,255C 142.559,251.834 141.559,247.834 144.5,243C 148.624,240.603 152.957,238.769 157.5,237.5C 159.527,237.662 161.527,237.495 163.5,237C 174.998,232.414 186.332,227.581 197.5,222.5C 200.309,220.103 203.642,218.77 207.5,218.5C 212.078,217.898 216.578,216.898 221,215.5C 222.326,215.755 223.326,216.422 224,217.5C 224.75,216.874 225.584,216.374 226.5,216C 224.355,215.257 224.189,214.424 226,213.5C 237.268,208.251 248.435,202.918 259.5,197.5C 271.921,192.132 284.588,187.132 297.5,182.5C 301.936,182.494 305.936,181.327 309.5,179C 311.833,178.667 314.167,178.333 316.5,178C 319.771,174.682 322.604,175.182 325,179.5C 325.308,178.692 325.808,178.025 326.5,177.5C 326.833,178.833 327.167,180.167 327.5,181.5C 326.338,188.793 325.671,196.127 325.5,203.5 Z"/></g>
<g><path style="opacity:1" fill="#e3fcfd" d="M 325.5,203.5 C 325.671,196.127 326.338,188.793 327.5,181.5C 327.167,180.167 326.833,178.833 326.5,177.5C 325.808,178.025 325.308,178.692 325,179.5C 322.604,175.182 319.771,174.682 316.5,178C 314.167,178.333 311.833,178.667 309.5,179C 305.936,181.327 301.936,182.494 297.5,182.5C 297.5,182.167 297.5,181.833 297.5,181.5C 304.655,179.504 311.655,177.004 318.5,174C 321.833,173.333 325.167,173.333 328.5,174C 329.894,174.956 330.561,176.289 330.5,178C 328.976,186.668 327.309,195.168 325.5,203.5 Z"/></g>
<g><path style="opacity:1" fill="#36b3e3" d="M 251.5,199.5 C 238.482,205.4 225.148,210.733 211.5,215.5C 204.651,217.742 197.651,219.742 190.5,221.5C 181.081,226.946 171.081,230.446 160.5,232C 158.641,233.981 156.308,234.981 153.5,235C 150.919,237.988 147.586,239.154 143.5,238.5C 142.985,241.674 141.985,244.674 140.5,247.5C 141.32,251.821 143.653,254.987 147.5,257C 151.453,258.148 155.453,258.982 159.5,259.5C 168.346,262.115 177.013,265.115 185.5,268.5C 178.765,267.529 172.265,265.862 166,263.5C 160.077,265.408 154.077,267.075 148,268.5C 146.644,267.62 145.144,267.286 143.5,267.5C 143.5,268.5 143.5,269.5 143.5,270.5C 148.497,269.334 153.497,269.334 158.5,270.5C 158.709,271.086 159.043,271.586 159.5,272C 149.888,273.12 140.554,271.954 131.5,268.5C 128.855,264.165 127.522,264.498 127.5,269.5C 116.167,269.5 104.833,269.5 93.5,269.5C 93.046,272.14 91.8793,274.473 90,276.5C 89.8253,272.789 89.3253,269.122 88.5,265.5C 87.6279,272.901 87.9612,280.234 89.5,287.5C 88.2132,286.129 87.5465,284.295 87.5,282C 86.5723,270.101 85.5723,258.268 84.5,246.5C 85.5571,234.202 86.5571,221.868 87.5,209.5C 89.2158,207.435 90.5491,205.102 91.5,202.5C 93.4628,204.967 94.6295,207.967 95,211.5C 95.5544,209.39 96.3877,207.39 97.5,205.5C 97.3333,204.833 97.1667,204.167 97,203.5C 96.0862,204.654 95.2529,204.487 94.5,203C 95.512,201.357 96.512,200.19 97.5,199.5C 94.6421,194.156 95.8087,189.823 101,186.5C 101.135,176.521 103.635,175.854 108.5,184.5C 110.68,179.622 109.347,176.289 104.5,174.5C 105.441,172.228 106.774,170.228 108.5,168.5C 108.996,172.327 110.329,175.661 112.5,178.5C 160.167,178.5 207.833,178.5 255.5,178.5C 255.5,177.5 255.5,176.5 255.5,175.5C 256.873,175.343 258.207,175.51 259.5,176C 257.604,177.065 257.437,177.898 259,178.5C 260.473,176.954 262.306,175.954 264.5,175.5C 266.044,175.79 267.377,176.456 268.5,177.5C 269.551,176.115 270.884,175.115 272.5,174.5C 277.729,176.701 283.062,176.701 288.5,174.5C 291.042,176.27 293.709,177.77 296.5,179C 293.925,180.787 291.259,182.453 288.5,184C 281.869,184.902 275.702,187.068 270,190.5C 266.875,191.256 263.709,191.589 260.5,191.5C 260.5,192.5 260.5,193.5 260.5,194.5C 256.182,193.929 253.182,195.596 251.5,199.5 Z"/></g>
<g><path style="opacity:1" fill="#35b2e3" d="M 389.5,163.5 C 391.719,168.709 394.719,173.376 398.5,177.5C 398.748,182.26 400.414,186.427 403.5,190C 402.35,194.375 404.017,197.208 408.5,198.5C 411.164,215.117 413.497,231.783 415.5,248.5C 415.066,256.504 414.566,264.504 414,272.5C 413.61,275.104 412.776,277.438 411.5,279.5C 410.983,275.778 410.15,272.112 409,268.5C 407.494,270.174 405.661,271.174 403.5,271.5C 403.253,277.541 403.586,283.541 404.5,289.5C 404.281,290.938 403.781,292.271 403,293.5C 401.534,285.672 401.034,277.672 401.5,269.5C 379.5,269.5 357.5,269.5 335.5,269.5C 334.833,256.167 334.167,256.167 333.5,269.5C 330.833,269.5 328.167,269.5 325.5,269.5C 325.5,265.833 325.5,262.167 325.5,258.5C 323.549,258.773 322.049,258.107 321,256.5C 320.667,257.833 320.333,259.167 320,260.5C 319.667,258.5 319.333,256.5 319,254.5C 318.617,255.056 318.117,255.389 317.5,255.5C 320.762,236.85 324.262,218.184 328,199.5C 331.693,190.533 333.527,181.2 333.5,171.5C 328.833,171.5 324.167,171.5 319.5,171.5C 321.658,169.78 324.325,168.947 327.5,169C 329.669,166.797 332.335,165.964 335.5,166.5C 335.635,172.181 335.968,177.848 336.5,183.5C 338.833,183.5 341.167,183.5 343.5,183.5C 343.192,181.076 343.526,178.743 344.5,176.5C 357.32,178.455 370.32,179.122 383.5,178.5C 383.579,177.07 383.246,175.736 382.5,174.5C 382.833,173.5 383.5,172.833 384.5,172.5C 385.722,174.978 387.722,175.978 390.5,175.5C 389.577,171.824 388.243,168.324 386.5,165C 386.682,162.422 387.682,161.922 389.5,163.5 Z"/></g>
<g><path style="opacity:1" fill="#55b1d0" d="M 319.5,171.5 C 324.167,171.5 328.833,171.5 333.5,171.5C 333.527,181.2 331.693,190.533 328,199.5C 324.262,218.184 320.762,236.85 317.5,255.5C 317.664,258.187 317.497,260.854 317,263.5C 316.329,264.252 315.496,264.586 314.5,264.5C 314.335,261.482 314.502,258.482 315,255.5C 318.82,238.222 322.32,220.889 325.5,203.5C 327.309,195.168 328.976,186.668 330.5,178C 330.561,176.289 329.894,174.956 328.5,174C 325.167,173.333 321.833,173.333 318.5,174C 311.655,177.004 304.655,179.504 297.5,181.5C 297.953,180.542 298.619,179.708 299.5,179C 305.285,178.736 309.952,176.402 313.5,172C 315.473,171.505 317.473,171.338 319.5,171.5 Z"/></g>
<g><path style="opacity:1" fill="#3e89a8" d="M 92.5,193.5 C 92.7359,196.609 92.4025,199.609 91.5,202.5C 90.5491,205.102 89.2158,207.435 87.5,209.5C 88.2573,203.781 89.9239,198.448 92.5,193.5 Z"/></g>
<g><path style="opacity:1" fill="#e1fafc" d="M 259.5,197.5 C 248.435,202.918 237.268,208.251 226,213.5C 224.189,214.424 224.355,215.257 226.5,216C 225.584,216.374 224.75,216.874 224,217.5C 223.326,216.422 222.326,215.755 221,215.5C 216.578,216.898 212.078,217.898 207.5,218.5C 208.833,217.5 210.167,216.5 211.5,215.5C 225.148,210.733 238.482,205.4 251.5,199.5C 254.221,199.037 256.888,198.371 259.5,197.5 Z"/></g>
<g><path style="opacity:1" fill="#d3e5f0" d="M 217.5,282.5 C 216.778,282.918 216.278,283.584 216,284.5C 214.585,297.658 213.251,310.658 212,323.5C 210.42,318.759 208.087,314.426 205,310.5C 204.244,302.925 202.077,295.925 198.5,289.5C 195.583,283.537 193.417,277.204 192,270.5C 190.103,268.984 187.936,268.317 185.5,268.5C 177.013,265.115 168.346,262.115 159.5,259.5C 159.5,259.167 159.5,258.833 159.5,258.5C 163.879,259.013 168.213,259.847 172.5,261C 179.357,264.649 186.69,266.649 194.5,267C 201.68,261.907 209.347,257.574 217.5,254C 233.215,241.811 249.882,231.145 267.5,222C 270.771,218.356 274.771,215.689 279.5,214C 284.801,208.51 291.135,205.01 298.5,203.5C 298.762,204.978 298.429,206.311 297.5,207.5C 275.151,227.589 252.818,247.589 230.5,267.5C 228.741,270.763 226.408,273.597 223.5,276C 219.901,276.764 217.901,278.93 217.5,282.5 Z"/></g>
<g><path style="opacity:1" fill="#4cabca" d="M 211.5,215.5 C 210.167,216.5 208.833,217.5 207.5,218.5C 203.642,218.77 200.309,220.103 197.5,222.5C 183.811,226.727 170.477,231.727 157.5,237.5C 152.957,238.769 148.624,240.603 144.5,243C 141.559,247.834 142.559,251.834 147.5,255C 151.423,256.463 155.423,257.63 159.5,258.5C 159.5,258.833 159.5,259.167 159.5,259.5C 155.453,258.982 151.453,258.148 147.5,257C 143.653,254.987 141.32,251.821 140.5,247.5C 141.985,244.674 142.985,241.674 143.5,238.5C 147.586,239.154 150.919,237.988 153.5,235C 156.308,234.981 158.641,233.981 160.5,232C 171.081,230.446 181.081,226.946 190.5,221.5C 197.651,219.742 204.651,217.742 211.5,215.5 Z"/></g>
<g><path style="opacity:1" fill="#cff4fa" d="M 197.5,222.5 C 186.332,227.581 174.998,232.414 163.5,237C 161.527,237.495 159.527,237.662 157.5,237.5C 170.477,231.727 183.811,226.727 197.5,222.5 Z"/></g>
<g><path style="opacity:0.224" fill="#2a627c" d="M 83.5,231.5 C 83.3963,245.847 83.7296,260.18 84.5,274.5C 82.9844,266.22 82.3177,257.72 82.5,249C 82.5005,242.99 82.8338,237.157 83.5,231.5 Z"/></g>
<g><path style="opacity:0.996" fill="#3e96b8" d="M 87.5,209.5 C 86.5571,221.868 85.5571,234.202 84.5,246.5C 85.5723,258.268 86.5723,270.101 87.5,282C 87.5465,284.295 88.2132,286.129 89.5,287.5C 91.454,295.333 93.1207,303.333 94.5,311.5C 89.166,299.813 85.8327,287.48 84.5,274.5C 83.7296,260.18 83.3963,245.847 83.5,231.5C 83.773,223.851 85.1063,216.518 87.5,209.5 Z"/></g>
<g><path style="opacity:0.749" fill="#3685a3" d="M 408.5,198.5 C 420.69,233.586 420.356,268.586 407.5,303.5C 407.335,300.15 407.502,296.817 408,293.5C 410.391,289.271 411.557,284.605 411.5,279.5C 412.776,277.438 413.61,275.104 414,272.5C 414.566,264.504 415.066,256.504 415.5,248.5C 413.497,231.783 411.164,215.117 408.5,198.5 Z"/></g>
<g><path style="opacity:1" fill="#b4d1e6" d="M 217.5,282.5 C 221.688,285.757 226.021,288.757 230.5,291.5C 234.54,295.542 238.873,299.209 243.5,302.5C 233.762,310.063 224.429,318.229 215.5,327C 213.741,327.798 212.074,327.631 210.5,326.5C 208.873,324.235 207.539,321.901 206.5,319.5C 203.641,309.584 200.975,299.584 198.5,289.5C 202.077,295.925 204.244,302.925 205,310.5C 208.087,314.426 210.42,318.759 212,323.5C 213.251,310.658 214.585,297.658 216,284.5C 216.278,283.584 216.778,282.918 217.5,282.5 Z"/></g>
<g><path style="opacity:1" fill="#2eaedf" d="M 411.5,279.5 C 411.557,284.605 410.391,289.271 408,293.5C 407.502,296.817 407.335,300.15 407.5,303.5C 407.598,305.553 406.931,307.22 405.5,308.5C 403.907,309.348 402.74,310.681 402,312.5C 400.945,316.275 399.612,319.942 398,323.5C 397.586,323.043 397.086,322.709 396.5,322.5C 394.907,327.515 392.907,332.182 390.5,336.5C 389.336,333.422 387.836,333.088 386,335.5C 385.598,334.128 385.098,332.795 384.5,331.5C 386.04,330.468 386.54,329.135 386,327.5C 385.439,328.022 384.772,328.355 384,328.5C 362.626,326.536 341.126,325.869 319.5,326.5C 318.648,329.223 317.481,331.89 316,334.5C 314.667,335.833 313.333,335.833 312,334.5C 312.198,331.765 312.031,329.099 311.5,326.5C 310.289,327.274 310.289,328.107 311.5,329C 308.741,329.977 306.741,329.144 305.5,326.5C 304.824,327.602 304.158,328.602 303.5,329.5C 303.335,326.15 303.502,322.817 304,319.5C 307.472,306.333 309.972,293 311.5,279.5C 311.124,274.106 312.124,269.106 314.5,264.5C 315.496,264.586 316.329,264.252 317,263.5C 317.497,260.854 317.664,258.187 317.5,255.5C 318.117,255.389 318.617,255.056 319,254.5C 319.333,256.5 319.667,258.5 320,260.5C 320.333,259.167 320.667,257.833 321,256.5C 322.049,258.107 323.549,258.773 325.5,258.5C 325.5,262.167 325.5,265.833 325.5,269.5C 328.167,269.5 330.833,269.5 333.5,269.5C 334.167,256.167 334.833,256.167 335.5,269.5C 357.5,269.5 379.5,269.5 401.5,269.5C 401.034,277.672 401.534,285.672 403,293.5C 403.781,292.271 404.281,290.938 404.5,289.5C 403.586,283.541 403.253,277.541 403.5,271.5C 405.661,271.174 407.494,270.174 409,268.5C 410.15,272.112 410.983,275.778 411.5,279.5 Z"/></g>
<g><path style="opacity:1" fill="#2eaddf" d="M 185.5,268.5 C 187.936,268.317 190.103,268.984 192,270.5C 193.417,277.204 195.583,283.537 198.5,289.5C 200.975,299.584 203.641,309.584 206.5,319.5C 206.557,323.505 207.89,327.005 210.5,330C 209.328,332.055 207.661,332.722 205.5,332C 204.131,328.133 202.131,324.633 199.5,321.5C 196.176,320.841 194.843,318.841 195.5,315.5C 194.167,315.5 192.833,315.5 191.5,315.5C 191.681,318.785 192.681,321.785 194.5,324.5C 194.281,325.938 193.781,327.271 193,328.5C 179.722,327.176 166.222,326.509 152.5,326.5C 137.711,326.53 123.211,326.863 109,327.5C 108.5,326.333 107.667,325.5 106.5,325C 108.607,323.736 109.607,321.903 109.5,319.5C 108.167,319.5 106.833,319.5 105.5,319.5C 105.608,321.514 104.942,323.18 103.5,324.5C 102.883,324.611 102.383,324.944 102,325.5C 101.027,323.608 100.36,321.608 100,319.5C 99.6174,320.056 99.1174,320.389 98.5,320.5C 96.4082,317.912 95.0749,314.912 94.5,311.5C 93.1207,303.333 91.454,295.333 89.5,287.5C 87.9612,280.234 87.6279,272.901 88.5,265.5C 89.3253,269.122 89.8253,272.789 90,276.5C 91.8793,274.473 93.046,272.14 93.5,269.5C 104.833,269.5 116.167,269.5 127.5,269.5C 127.522,264.498 128.855,264.165 131.5,268.5C 140.554,271.954 149.888,273.12 159.5,272C 159.043,271.586 158.709,271.086 158.5,270.5C 153.497,269.334 148.497,269.334 143.5,270.5C 143.5,269.5 143.5,268.5 143.5,267.5C 145.144,267.286 146.644,267.62 148,268.5C 154.077,267.075 160.077,265.408 166,263.5C 172.265,265.862 178.765,267.529 185.5,268.5 Z"/></g>
<g><path style="opacity:1" fill="#e3f9fc" d="M 230.5,291.5 C 241.959,297.299 252.292,304.632 261.5,313.5C 263.074,314.631 264.741,314.798 266.5,314C 265.289,313.107 265.289,312.274 266.5,311.5C 267.386,312.325 267.719,313.325 267.5,314.5C 268.552,314.351 269.552,314.517 270.5,315C 269.167,315.667 268.167,316.667 267.5,318C 270.783,320.982 274.449,323.482 278.5,325.5C 281.864,327.907 284.531,330.907 286.5,334.5C 282.692,332.427 279.026,330.094 275.5,327.5C 264.872,319.178 254.206,310.844 243.5,302.5C 238.873,299.209 234.54,295.542 230.5,291.5 Z"/></g>
<g><path style="opacity:1" fill="#29aadd" d="M 243.5,302.5 C 254.206,310.844 264.872,319.178 275.5,327.5C 275.511,329.017 276.177,330.184 277.5,331C 280.133,331.894 282.3,333.394 284,335.5C 288.827,336.755 293.66,336.755 298.5,335.5C 300.531,333.69 302.198,331.69 303.5,329.5C 304.158,328.602 304.824,327.602 305.5,326.5C 306.741,329.144 308.741,329.977 311.5,329C 310.289,328.107 310.289,327.274 311.5,326.5C 312.031,329.099 312.198,331.765 312,334.5C 313.333,335.833 314.667,335.833 316,334.5C 317.481,331.89 318.648,329.223 319.5,326.5C 341.126,325.869 362.626,326.536 384,328.5C 384.772,328.355 385.439,328.022 386,327.5C 386.54,329.135 386.04,330.468 384.5,331.5C 385.098,332.795 385.598,334.128 386,335.5C 387.836,333.088 389.336,333.422 390.5,336.5C 389.596,337.209 389.263,338.209 389.5,339.5C 388.5,339.5 387.5,339.5 386.5,339.5C 386.5,341.167 386.5,342.833 386.5,344.5C 382.082,346.248 379.249,349.582 378,354.5C 377.667,354.167 377.333,353.833 377,353.5C 374.398,355.589 372.898,358.256 372.5,361.5C 371.448,361.351 370.448,361.517 369.5,362C 367.423,364.45 365.09,366.617 362.5,368.5C 363.127,369.417 363.461,370.417 363.5,371.5C 359.44,370.848 357.44,372.515 357.5,376.5C 354.864,377.035 352.697,378.368 351,380.5C 350.667,380.167 350.333,379.833 350,379.5C 349.517,380.448 349.351,381.448 349.5,382.5C 347.459,382.854 345.626,382.854 344,382.5C 343.727,384.329 342.893,385.829 341.5,387C 342.056,387.383 342.389,387.883 342.5,388.5C 341.417,388.461 340.417,388.127 339.5,387.5C 333.06,390.181 327.06,393.515 321.5,397.5C 320.365,396.526 319.365,395.359 318.5,394C 275.167,393.667 231.833,393.333 188.5,393C 186.311,392.323 185.978,391.156 187.5,389.5C 187.192,388.692 186.692,388.025 186,387.5C 184.13,388.509 181.963,388.676 179.5,388C 180.184,389.827 179.517,391.327 177.5,392.5C 173.799,391.029 170.132,388.863 166.5,386C 164.5,385.333 162.5,385.333 160.5,386C 161.738,386.69 161.738,387.19 160.5,387.5C 156.648,385.075 152.981,382.409 149.5,379.5C 146.812,378.487 144.146,377.487 141.5,376.5C 139.077,374.243 137.243,371.576 136,368.5C 132.535,368.033 130.868,366.033 131,362.5C 129.586,363.413 128.086,363.413 126.5,362.5C 119.956,356.408 114.623,349.408 110.5,341.5C 107.722,336.098 105.388,330.431 103.5,324.5C 104.942,323.18 105.608,321.514 105.5,319.5C 106.833,319.5 108.167,319.5 109.5,319.5C 109.607,321.903 108.607,323.736 106.5,325C 107.667,325.5 108.5,326.333 109,327.5C 123.211,326.863 137.711,326.53 152.5,326.5C 166.222,326.509 179.722,327.176 193,328.5C 193.781,327.271 194.281,325.938 194.5,324.5C 192.681,321.785 191.681,318.785 191.5,315.5C 192.833,315.5 194.167,315.5 195.5,315.5C 194.843,318.841 196.176,320.841 199.5,321.5C 202.131,324.633 204.131,328.133 205.5,332C 207.661,332.722 209.328,332.055 210.5,330C 207.89,327.005 206.557,323.505 206.5,319.5C 207.539,321.901 208.873,324.235 210.5,326.5C 212.074,327.631 213.741,327.798 215.5,327C 224.429,318.229 233.762,310.063 243.5,302.5 Z"/></g>
<g><path style="opacity:1" fill="#4ca9c9" d="M 311.5,279.5 C 309.972,293 307.472,306.333 304,319.5C 303.502,322.817 303.335,326.15 303.5,329.5C 302.198,331.69 300.531,333.69 298.5,335.5C 293.66,336.755 288.827,336.755 284,335.5C 282.3,333.394 280.133,331.894 277.5,331C 276.177,330.184 275.511,329.017 275.5,327.5C 279.026,330.094 282.692,332.427 286.5,334.5C 291.999,336.716 296.499,335.382 300,330.5C 303.59,313.281 307.423,296.281 311.5,279.5 Z"/></g>
<g><path style="opacity:0.996" fill="#3684a6" d="M 103.5,324.5 C 105.388,330.431 107.722,336.098 110.5,341.5C 105.239,335.323 101.239,328.323 98.5,320.5C 99.1174,320.389 99.6174,320.056 100,319.5C 100.36,321.608 101.027,323.608 102,325.5C 102.383,324.944 102.883,324.611 103.5,324.5 Z"/></g>
<g><path style="opacity:0.89" fill="#3588ab" d="M 405.5,308.5 C 397.086,333.243 383.086,354.243 363.5,371.5C 363.461,370.417 363.127,369.417 362.5,368.5C 365.09,366.617 367.423,364.45 369.5,362C 370.448,361.517 371.448,361.351 372.5,361.5C 372.898,358.256 374.398,355.589 377,353.5C 377.333,353.833 377.667,354.167 378,354.5C 379.249,349.582 382.082,346.248 386.5,344.5C 386.5,342.833 386.5,341.167 386.5,339.5C 387.5,339.5 388.5,339.5 389.5,339.5C 389.263,338.209 389.596,337.209 390.5,336.5C 392.907,332.182 394.907,327.515 396.5,322.5C 397.086,322.709 397.586,323.043 398,323.5C 399.612,319.942 400.945,316.275 402,312.5C 402.74,310.681 403.907,309.348 405.5,308.5 Z"/></g>
<g><path style="opacity:0.839" fill="#3581a1" d="M 126.5,362.5 C 128.086,363.413 129.586,363.413 131,362.5C 130.868,366.033 132.535,368.033 136,368.5C 137.243,371.576 139.077,374.243 141.5,376.5C 135.892,372.561 130.892,367.894 126.5,362.5 Z"/></g>
<g><path style="opacity:0.91" fill="#3384aa" d="M 363.5,371.5 C 357.393,378.274 350.393,383.94 342.5,388.5C 342.389,387.883 342.056,387.383 341.5,387C 342.893,385.829 343.727,384.329 344,382.5C 345.626,382.854 347.459,382.854 349.5,382.5C 349.351,381.448 349.517,380.448 350,379.5C 350.333,379.833 350.667,380.167 351,380.5C 352.697,378.368 354.864,377.035 357.5,376.5C 357.44,372.515 359.44,370.848 363.5,371.5 Z"/></g>
<g><path style="opacity:1" fill="#2f96be" d="M 141.5,376.5 C 144.146,377.487 146.812,378.487 149.5,379.5C 152.981,382.409 156.648,385.075 160.5,387.5C 165.003,389.22 169.337,391.386 173.5,394C 177.46,393.711 180.46,395.545 182.5,399.5C 185.5,400.167 188.5,400.833 191.5,401.5C 193.838,403.339 196.004,405.339 198,407.5C 200.72,408.233 203.22,409.233 205.5,410.5C 186.782,405.653 169.449,397.82 153.5,387C 149.241,383.718 145.241,380.218 141.5,376.5 Z"/></g>
<g><path style="opacity:1" fill="#25a7db" d="M 321.5,397.5 C 320.01,399.28 318.01,399.946 315.5,399.5C 315.5,400.5 315.5,401.5 315.5,402.5C 308.652,402.907 302.652,405.24 297.5,409.5C 289.941,409.524 282.941,411.191 276.5,414.5C 273.946,415.388 271.279,415.721 268.5,415.5C 256.829,415.667 245.162,415.5 233.5,415C 229.529,414.915 225.862,413.915 222.5,412C 216.811,411.627 211.145,411.127 205.5,410.5C 203.22,409.233 200.72,408.233 198,407.5C 196.004,405.339 193.838,403.339 191.5,401.5C 188.5,400.833 185.5,400.167 182.5,399.5C 180.46,395.545 177.46,393.711 173.5,394C 169.337,391.386 165.003,389.22 160.5,387.5C 161.738,387.19 161.738,386.69 160.5,386C 162.5,385.333 164.5,385.333 166.5,386C 170.132,388.863 173.799,391.029 177.5,392.5C 179.517,391.327 180.184,389.827 179.5,388C 181.963,388.676 184.13,388.509 186,387.5C 186.692,388.025 187.192,388.692 187.5,389.5C 185.978,391.156 186.311,392.323 188.5,393C 231.833,393.333 275.167,393.667 318.5,394C 319.365,395.359 320.365,396.526 321.5,397.5 Z"/></g>
<g><path style="opacity:0.784" fill="#2f84a6" d="M 342.5,388.5 C 328.777,397.976 313.777,404.976 297.5,409.5C 302.652,405.24 308.652,402.907 315.5,402.5C 315.5,401.5 315.5,400.5 315.5,399.5C 318.01,399.946 320.01,399.28 321.5,397.5C 327.06,393.515 333.06,390.181 339.5,387.5C 340.417,388.127 341.417,388.461 342.5,388.5 Z"/></g>
<g><path style="opacity:0.812" fill="#296c8c" d="M 297.5,409.5 C 290.867,412.24 283.867,413.907 276.5,414.5C 282.941,411.191 289.941,409.524 297.5,409.5 Z"/></g>
<g><path style="opacity:0.402" fill="#286d8c" d="M 205.5,410.5 C 211.145,411.127 216.811,411.627 222.5,412C 225.862,413.915 229.529,414.915 233.5,415C 245.162,415.5 256.829,415.667 268.5,415.5C 247.162,418.528 226.162,416.861 205.5,410.5 Z"/></g>
</svg>
