<?xml version="1.0" encoding="UTF-8"?>
<!DOCTYPE svg PUBLIC "-//W3C//DTD SVG 1.1//EN" "http://www.w3.org/Graphics/SVG/1.1/DTD/svg11.dtd">
<svg xmlns="http://www.w3.org/2000/svg" version="1.1" width="480px" height="105px" style="shape-rendering:geometricPrecision; text-rendering:geometricPrecision; image-rendering:optimizeQuality; fill-rule:evenodd; clip-rule:evenodd" xmlns:xlink="http://www.w3.org/1999/xlink">
<g><path style="opacity:1" fill="#fce8db" d="M -0.5,-0.5 C 108.5,-0.5 217.5,-0.5 326.5,-0.5C 220.334,0.333069 114.001,0.833069 7.5,1C 5.94186,1.21003 4.60853,1.71003 3.5,2.5C 2.83333,2.5 2.5,2.83333 2.5,3.5C 1.66759,34.664 1.16759,65.9973 1,97.5C 0.78997,99.0581 0.28997,100.391 -0.5,101.5C -0.5,67.5 -0.5,33.5 -0.5,-0.5 Z"/></g>
<g><path style="opacity:1" fill="#040444" d="M 163.5,2.5 C 219.5,2.5 275.5,2.5 331.5,2.5C 331.5,2.83333 331.5,3.16667 331.5,3.5C 331.167,3.5 330.833,3.5 330.5,3.5C 276.5,3.5 222.5,3.5 168.5,3.5C 167.167,3.5 165.833,3.5 164.5,3.5C 164.5,35.5 164.5,67.5 164.5,99.5C 164.5,99.8333 164.5,100.167 164.5,100.5C 164.5,100.833 164.5,101.167 164.5,101.5C 164.167,101.5 163.833,101.5 163.5,101.5C 163.5,101.167 163.5,100.833 163.5,100.5C 163.5,68.1667 163.5,35.8333 163.5,3.5C 163.5,3.16667 163.5,2.83333 163.5,2.5 Z"/></g>
<g><path style="opacity:1" fill="#303c5f" d="M 331.5,2.5 C 331.833,2.5 332.167,2.5 332.5,2.5C 332.5,3.16667 332.833,3.5 333.5,3.5C 333.5,26.1667 333.5,48.8333 333.5,71.5C 333.5,81.5 333.5,91.5 333.5,101.5C 333.167,101.5 332.833,101.5 332.5,101.5C 332.832,68.9957 332.498,36.6624 331.5,4.5C 331.5,4.16667 331.5,3.83333 331.5,3.5C 331.5,3.16667 331.5,2.83333 331.5,2.5 Z"/></g>
<g><path style="opacity:1" fill="#191e41" d="M 332.5,2.5 C 380.5,2.5 428.5,2.5 476.5,2.5C 476.831,25.6727 476.498,48.6727 475.5,71.5C 475.5,48.8333 475.5,26.1667 475.5,3.5C 428.167,3.5 380.833,3.5 333.5,3.5C 332.833,3.5 332.5,3.16667 332.5,2.5 Z"/></g>
<g><path style="opacity:1" fill="#080331" d="M 3.5,2.5 C 56.8333,2.5 110.167,2.5 163.5,2.5C 163.5,2.83333 163.5,3.16667 163.5,3.5C 110.331,3.16773 57.3307,3.50106 4.5,4.5C 4.5,36.5 4.5,68.5 4.5,100.5C 3.50058,68.5734 3.16725,35.9067 3.5,2.5 Z"/></g>
<g><path style="opacity:1" fill="#5b5a6f" d="M 476.5,2.5 C 477.498,35.6625 477.832,68.9958 477.5,102.5C 429.167,102.5 380.833,102.5 332.5,102.5C 332.5,102.167 332.5,101.833 332.5,101.5C 332.833,101.5 333.167,101.5 333.5,101.5C 380.833,101.5 428.167,101.5 475.5,101.5C 475.5,91.5 475.5,81.5 475.5,71.5C 476.498,48.6727 476.831,25.6727 476.5,2.5 Z"/></g>
<g><path style="opacity:1" fill="#57546a" d="M 3.5,2.5 C 3.16725,35.9067 3.50058,68.5734 4.5,100.5C 57.1667,100.5 109.833,100.5 162.5,100.5C 162.833,100.5 163.167,100.5 163.5,100.5C 163.5,100.833 163.5,101.167 163.5,101.5C 163.5,101.833 163.5,102.167 163.5,102.5C 109.833,102.5 56.1667,102.5 2.5,102.5C 2.5,69.5 2.5,36.5 2.5,3.5C 2.5,2.83333 2.83333,2.5 3.5,2.5 Z"/></g>
<g><path style="opacity:1" fill="#f3e4e8" d="M 326.5,-0.5 C 377.5,-0.5 428.5,-0.5 479.5,-0.5C 479.5,34.5 479.5,69.5 479.5,104.5C 319.5,104.5 159.5,104.5 -0.5,104.5C -0.5,103.5 -0.5,102.5 -0.5,101.5C 0.28997,100.391 0.78997,99.0581 1,97.5C 1.16759,65.9973 1.66759,34.664 2.5,3.5C 2.5,36.5 2.5,69.5 2.5,102.5C 56.1667,102.5 109.833,102.5 163.5,102.5C 219.833,102.5 276.167,102.5 332.5,102.5C 380.833,102.5 429.167,102.5 477.5,102.5C 477.832,68.9958 477.498,35.6625 476.5,2.5C 428.5,2.5 380.5,2.5 332.5,2.5C 332.167,2.5 331.833,2.5 331.5,2.5C 275.5,2.5 219.5,2.5 163.5,2.5C 110.167,2.5 56.8333,2.5 3.5,2.5C 4.60853,1.71003 5.94186,1.21003 7.5,1C 114.001,0.833069 220.334,0.333069 326.5,-0.5 Z"/></g>
<g><path style="opacity:1" fill="#605b8c" d="M 331.5,4.5 C 332.498,36.6624 332.832,68.9957 332.5,101.5C 332.5,101.833 332.5,102.167 332.5,102.5C 276.167,102.5 219.833,102.5 163.5,102.5C 163.5,102.167 163.5,101.833 163.5,101.5C 163.833,101.5 164.167,101.5 164.5,101.5C 220.167,101.5 275.833,101.5 331.5,101.5C 331.5,69.1667 331.5,36.8333 331.5,4.5 Z"/></g>
<g><path style="opacity:1" fill="#c4d1db" d="M 333.5,71.5 C 334.167,71.5 334.833,71.5 335.5,71.5C 335.5,72.5 335.5,73.5 335.5,74.5C 335.5,82.8333 335.5,91.1667 335.5,99.5C 381.5,99.5 427.5,99.5 473.5,99.5C 473.5,91.1667 473.5,82.8333 473.5,74.5C 474.167,73.5 474.833,72.5 475.5,71.5C 475.5,81.5 475.5,91.5 475.5,101.5C 428.167,101.5 380.833,101.5 333.5,101.5C 333.5,91.5 333.5,81.5 333.5,71.5 Z"/></g>
<g><path style="opacity:1" fill="#0c0b5f" d="M 330.5,3.5 C 330.833,3.5 331.167,3.5 331.5,3.5C 331.5,3.83333 331.5,4.16667 331.5,4.5C 331.5,36.8333 331.5,69.1667 331.5,101.5C 275.833,101.5 220.167,101.5 164.5,101.5C 164.5,101.167 164.5,100.833 164.5,100.5C 219.669,100.832 274.669,100.499 329.5,99.5C 328.972,98.2794 328.305,97.1127 327.5,96C 329.255,65.7143 330.255,35.2143 330.5,4.5C 330.5,4.16667 330.5,3.83333 330.5,3.5 Z"/></g>
<g><path style="opacity:1" fill="#58806d" d="M 335.5,74.5 C 336.167,74.5 336.5,74.8333 336.5,75.5C 336.5,76.8333 336.5,78.1667 336.5,79.5C 336.5,80.5 336.5,81.5 336.5,82.5C 336.5,83.1667 336.5,83.8333 336.5,84.5C 336.5,89.1667 336.5,93.8333 336.5,98.5C 357.5,98.5 378.5,98.5 399.5,98.5C 414.5,98.5 429.5,98.5 444.5,98.5C 453.833,98.5 463.167,98.5 472.5,98.5C 472.5,93.1667 472.5,87.8333 472.5,82.5C 472.5,81.1667 472.5,79.8333 472.5,78.5C 472.5,77.8333 472.5,77.1667 472.5,76.5C 472.5,75.8333 472.5,75.1667 472.5,74.5C 472.833,74.5 473.167,74.5 473.5,74.5C 473.5,82.8333 473.5,91.1667 473.5,99.5C 427.5,99.5 381.5,99.5 335.5,99.5C 335.5,91.1667 335.5,82.8333 335.5,74.5 Z"/></g>
<g><path style="opacity:1" fill="#fef7dc" d="M 110.5,71.5 C 114.759,71.9975 118.759,71.3308 122.5,69.5C 134.986,71.4541 147.653,72.1207 160.5,71.5C 160.5,80.1667 160.5,88.8333 160.5,97.5C 109.336,98.4989 58.0027,98.8322 6.5,98.5C 6.33358,89.8269 6.50025,81.1603 7,72.5C 7.67076,73.2524 8.5041,73.5858 9.5,73.5C 9.5,81.5 9.5,89.5 9.5,97.5C 59.0028,97.8322 108.336,97.4989 157.5,96.5C 158.833,88.8333 158.833,81.1667 157.5,73.5C 108.336,72.5011 59.0028,72.1678 9.5,72.5C 33.0025,71.6344 56.3358,70.9678 79.5,70.5C 86.6037,71.9439 93.7704,71.6105 101,69.5C 104.215,70.1234 107.382,70.7901 110.5,71.5 Z"/></g>
<g><path style="opacity:1" fill="#f4ce81" d="M 9.5,72.5 C 59.0028,72.1678 108.336,72.5011 157.5,73.5C 108.664,73.1678 59.9971,73.5012 11.5,74.5C 10.5084,81.6476 10.175,88.9809 10.5,96.5C 59.5,96.5 108.5,96.5 157.5,96.5C 108.336,97.4989 59.0028,97.8322 9.5,97.5C 9.5,89.5 9.5,81.5 9.5,73.5C 9.5,73.1667 9.5,72.8333 9.5,72.5 Z"/></g>
<g><path style="opacity:1" fill="#1f0b39" d="M 295.5,92.5 C 294.097,93.9312 292.431,95.0978 290.5,96C 280.534,98.3038 270.867,97.8038 261.5,94.5C 261.5,94.1667 261.5,93.8333 261.5,93.5C 272.924,96.3469 284.257,96.0136 295.5,92.5 Z"/></g>
<g><path style="opacity:1" fill="#db960f" d="M 11.5,74.5 C 20.8333,74.5 30.1667,74.5 39.5,74.5C 39.5,75.5 39.5,76.5 39.5,77.5C 32.4645,77.9117 25.6312,77.2451 19,75.5C 17.5,75.8333 16,76.1667 14.5,76.5C 15.8715,78.6198 15.2048,79.6198 12.5,79.5C 13.0071,84.5261 13.6737,89.5261 14.5,94.5C 60.5,94.5 106.5,94.5 152.5,94.5C 153.638,89.3756 154.638,84.2089 155.5,79C 154.852,77.5603 154.519,76.0603 154.5,74.5C 155.931,74.8807 156.764,75.8807 157,77.5C 157.5,83.8246 157.666,90.1579 157.5,96.5C 108.5,96.5 59.5,96.5 10.5,96.5C 10.175,88.9809 10.5084,81.6476 11.5,74.5 Z"/></g>
<g><path style="opacity:1" fill="#3e1b35" d="M 299.5,89.5 C 299.306,91.9118 297.973,92.9118 295.5,92.5C 295.5,92.1667 295.5,91.8333 295.5,91.5C 296.833,90.8333 298.167,90.1667 299.5,89.5 Z"/></g>
<g><path style="opacity:1" fill="#18082c" d="M 250.5,87.5 C 254.208,89.5697 257.875,91.5697 261.5,93.5C 256.83,93.1271 253.163,91.1271 250.5,87.5 Z"/></g>
<g><path style="opacity:1" fill="#185938" d="M 462.5,82.5 C 465.833,82.5 469.167,82.5 472.5,82.5C 472.5,87.8333 472.5,93.1667 472.5,98.5C 463.167,98.5 453.833,98.5 444.5,98.5C 453.342,97.8334 462.342,97.1667 471.5,96.5C 470.311,95.5713 468.978,95.238 467.5,95.5C 467.5,93.5 467.5,91.5 467.5,89.5C 466.167,89.5 464.833,89.5 463.5,89.5C 463.5,91.1667 463.5,92.8333 463.5,94.5C 462.167,94.5 460.833,94.5 459.5,94.5C 459.5,92.1667 459.5,89.8333 459.5,87.5C 453.158,87.6662 446.825,87.4995 440.5,87C 439.167,86.3333 439.167,85.6667 440.5,85C 434.5,84.3333 428.5,84.3333 422.5,85C 422.957,85.414 423.291,85.914 423.5,86.5C 422.167,86.8333 420.833,87.1667 419.5,87.5C 413.477,84.1158 407.311,83.7824 401,86.5C 397.895,85.6328 394.728,85.2994 391.5,85.5C 391.508,88.5448 391.841,91.5448 392.5,94.5C 395.771,94.3542 398.105,95.6875 399.5,98.5C 378.5,98.5 357.5,98.5 336.5,98.5C 336.5,93.8333 336.5,89.1667 336.5,84.5C 378.401,83.3457 420.401,82.679 462.5,82.5 Z"/></g>
<g><path style="opacity:1" fill="#185a31" d="M 444.5,98.5 C 429.5,98.5 414.5,98.5 399.5,98.5C 398.105,95.6875 395.771,94.3542 392.5,94.5C 391.841,91.5448 391.508,88.5448 391.5,85.5C 394.728,85.2994 397.895,85.6328 401,86.5C 407.311,83.7824 413.477,84.1158 419.5,87.5C 420.833,87.1667 422.167,86.8333 423.5,86.5C 423.291,85.914 422.957,85.414 422.5,85C 428.5,84.3333 434.5,84.3333 440.5,85C 439.167,85.6667 439.167,86.3333 440.5,87C 446.825,87.4995 453.158,87.6662 459.5,87.5C 459.5,89.8333 459.5,92.1667 459.5,94.5C 460.833,94.5 462.167,94.5 463.5,94.5C 463.5,92.8333 463.5,91.1667 463.5,89.5C 464.833,89.5 466.167,89.5 467.5,89.5C 467.5,91.5 467.5,93.5 467.5,95.5C 468.978,95.238 470.311,95.5713 471.5,96.5C 462.342,97.1667 453.342,97.8334 444.5,98.5 Z"/></g>
<g><path style="opacity:1" fill="#d08f3f" d="M 249.5,84.5 C 250.873,84.3433 252.207,84.51 253.5,85C 257.168,89.3179 261.835,91.9845 267.5,93C 276.927,93.8954 286.261,93.3954 295.5,91.5C 295.5,91.8333 295.5,92.1667 295.5,92.5C 284.257,96.0136 272.924,96.3469 261.5,93.5C 257.875,91.5697 254.208,89.5697 250.5,87.5C 250.167,86.8333 249.833,86.1667 249.5,85.5C 249.5,85.1667 249.5,84.8333 249.5,84.5 Z"/></g>
<g><path style="opacity:1" fill="#391d30" d="M 316.5,72.5 C 316.703,74.0443 317.37,75.3777 318.5,76.5C 315.845,76.9752 313.845,78.3085 312.5,80.5C 309.263,84.4587 305.263,87.4587 300.5,89.5C 302.647,87.5305 304.98,85.6971 307.5,84C 309.054,81.7131 310.721,79.5465 312.5,77.5C 313.833,75.8333 315.167,74.1667 316.5,72.5 Z"/></g>
<g><path style="opacity:1" fill="#e99532" d="M 313.5,73.5 C 312.766,74.7079 312.433,76.0413 312.5,77.5C 310.721,79.5465 309.054,81.7131 307.5,84C 304.98,85.6971 302.647,87.5305 300.5,89.5C 300.167,89.5 299.833,89.5 299.5,89.5C 298.167,90.1667 296.833,90.8333 295.5,91.5C 295.5,90.5 295.5,89.5 295.5,88.5C 296.833,88.5 298.167,88.5 299.5,88.5C 299.343,87.1266 299.51,85.7932 300,84.5C 301,83.1667 302,83.1667 303,84.5C 303.324,82.4311 304.158,82.0977 305.5,83.5C 306.731,82.3493 306.731,81.1827 305.5,80C 309.232,80.058 310.899,77.8914 310.5,73.5C 311.5,73.5 312.5,73.5 313.5,73.5 Z"/></g>
<g><path style="opacity:1" fill="#125b49" d="M 462.5,82.5 C 420.401,82.679 378.401,83.3457 336.5,84.5C 336.5,83.8333 336.5,83.1667 336.5,82.5C 378.564,81.3829 420.564,81.3829 462.5,82.5 Z"/></g>
<g><path style="opacity:1" fill="#115a5c" d="M 472.5,78.5 C 472.5,79.8333 472.5,81.1667 472.5,82.5C 469.167,82.5 465.833,82.5 462.5,82.5C 420.564,81.3829 378.564,81.3829 336.5,82.5C 336.5,81.5 336.5,80.5 336.5,79.5C 377.167,78.9576 417.834,78.791 458.5,79C 461.658,79.5541 464.825,80.0541 468,80.5C 469.787,80.2414 471.287,79.5747 472.5,78.5 Z"/></g>
<g><path style="opacity:1" fill="#125a6f" d="M 336.5,75.5 C 337.309,76.4687 338.309,77.3021 339.5,78C 348.333,78.1667 357.167,78.3333 366,78.5C 396.453,78.4308 426.786,77.4308 457,75.5C 462.116,76.4249 467.283,76.7582 472.5,76.5C 472.5,77.1667 472.5,77.8333 472.5,78.5C 471.287,79.5747 469.787,80.2414 468,80.5C 464.825,80.0541 461.658,79.5541 458.5,79C 417.834,78.791 377.167,78.9576 336.5,79.5C 336.5,78.1667 336.5,76.8333 336.5,75.5 Z"/></g>
<g><path style="opacity:1" fill="#225f85" d="M 336.5,6.5 C 336.5,16.1667 336.5,25.8333 336.5,35.5C 336.5,38.1667 336.5,40.8333 336.5,43.5C 336.194,53.2496 336.527,62.9162 337.5,72.5C 337.511,74.0174 338.177,75.1841 339.5,76C 346.875,76.1122 354.209,76.2789 361.5,76.5C 362.739,76.0576 363.739,75.3909 364.5,74.5C 375.031,76.2049 385.365,75.5383 395.5,72.5C 395.5,73.5 395.5,74.5 395.5,75.5C 400.363,75.8195 405.03,75.4861 409.5,74.5C 423.837,74.6666 438.171,74.4999 452.5,74C 455.233,73.0958 457.567,71.5958 459.5,69.5C 459.286,71.1439 459.62,72.6439 460.5,74C 464.587,74.7625 468.587,74.5958 472.5,73.5C 472.5,73.8333 472.5,74.1667 472.5,74.5C 472.5,75.1667 472.5,75.8333 472.5,76.5C 467.283,76.7582 462.116,76.4249 457,75.5C 426.786,77.4308 396.453,78.4308 366,78.5C 357.167,78.3333 348.333,78.1667 339.5,78C 338.309,77.3021 337.309,76.4687 336.5,75.5C 336.5,74.8333 336.167,74.5 335.5,74.5C 335.5,73.5 335.5,72.5 335.5,71.5C 335.169,49.6602 335.503,27.9936 336.5,6.5 Z"/></g>
<g><path style="opacity:1" fill="#7c0c37" d="M 181.5,74.5 C 184.805,78.1408 188.138,81.8075 191.5,85.5C 186.775,83.1078 183.442,79.4412 181.5,74.5 Z"/></g>
<g><path style="opacity:1" fill="#e49602" d="M 39.5,74.5 C 77.8333,74.5 116.167,74.5 154.5,74.5C 154.519,76.0603 154.852,77.5603 155.5,79C 154.638,84.2089 153.638,89.3756 152.5,94.5C 106.5,94.5 60.5,94.5 14.5,94.5C 13.6737,89.5261 13.0071,84.5261 12.5,79.5C 15.2048,79.6198 15.8715,78.6198 14.5,76.5C 16,76.1667 17.5,75.8333 19,75.5C 25.6312,77.2451 32.4645,77.9117 39.5,77.5C 39.5,76.5 39.5,75.5 39.5,74.5 Z"/></g>
<g><path style="opacity:1" fill="#1c0a49" d="M 319.5,65.5 C 318.502,69.8197 318.335,74.153 319,78.5C 316.913,79.3972 314.746,80.0639 312.5,80.5C 313.845,78.3085 315.845,76.9752 318.5,76.5C 317.37,75.3777 316.703,74.0443 316.5,72.5C 316.935,69.8427 317.935,67.5093 319.5,65.5 Z"/></g>
<g><path style="opacity:1" fill="#125c91" d="M 351.5,66.5 C 354.602,70.3174 358.602,72.6507 363.5,73.5C 364.167,73.5 364.5,73.8333 364.5,74.5C 363.739,75.3909 362.739,76.0576 361.5,76.5C 354.209,76.2789 346.875,76.1122 339.5,76C 338.177,75.1841 337.511,74.0174 337.5,72.5C 342.179,72.6658 346.845,72.4992 351.5,72C 352.308,71.6924 352.975,71.1924 353.5,70.5C 352.37,69.3777 351.703,68.0443 351.5,66.5 Z"/></g>
<g><path style="opacity:1" fill="#1d5da5" d="M 472.5,37.5 C 472.5,49.5 472.5,61.5 472.5,73.5C 468.587,74.5958 464.587,74.7625 460.5,74C 459.62,72.6439 459.286,71.1439 459.5,69.5C 460.715,65.6992 460.715,62.0326 459.5,58.5C 459.5,58.1667 459.5,57.8333 459.5,57.5C 461.508,58.6161 462.508,60.4494 462.5,63C 461.784,65.7923 461.451,68.6257 461.5,71.5C 464.833,71.5 468.167,71.5 471.5,71.5C 471.5,62.1667 471.5,52.8333 471.5,43.5C 471.5,42.1667 471.5,40.8333 471.5,39.5C 471.328,38.5084 471.662,37.8417 472.5,37.5 Z"/></g>
<g><path style="opacity:1" fill="#e2a844" d="M 11.5,74.5 C 59.9971,73.5012 108.664,73.1678 157.5,73.5C 158.833,81.1667 158.833,88.8333 157.5,96.5C 157.666,90.1579 157.5,83.8246 157,77.5C 156.764,75.8807 155.931,74.8807 154.5,74.5C 116.167,74.5 77.8333,74.5 39.5,74.5C 30.1667,74.5 20.8333,74.5 11.5,74.5 Z"/></g>
<g><path style="opacity:1" fill="#b8d1ea" d="M 457.5,55.5 C 458.5,55.8333 459.167,56.5 459.5,57.5C 459.5,57.8333 459.5,58.1667 459.5,58.5C 460.715,62.0326 460.715,65.6992 459.5,69.5C 457.567,71.5958 455.233,73.0958 452.5,74C 438.171,74.4999 423.837,74.6666 409.5,74.5C 409.5,67.5 409.5,60.5 409.5,53.5C 424.17,53.3334 438.837,53.5001 453.5,54C 454.745,54.7914 456.078,55.2914 457.5,55.5 Z"/></g>
<g><path style="opacity:1" fill="#1c61b1" d="M 405.5,63.5 C 406.5,63.5 407.5,63.5 408.5,63.5C 410.499,70.8198 407.833,74.1531 400.5,73.5C 400.737,72.209 400.404,71.209 399.5,70.5C 402.2,68.7656 404.2,66.4323 405.5,63.5 Z"/></g>
<g><path style="opacity:1" fill="#fb9809" d="M 261.5,62.5 C 262.5,63.1667 263.5,63.8333 264.5,64.5C 273.932,65.0749 283.599,65.4082 293.5,65.5C 299.472,66.4953 305.472,66.4953 311.5,65.5C 313.042,64.6993 314.708,64.366 316.5,64.5C 316.868,68.0443 315.868,71.0443 313.5,73.5C 312.5,73.5 311.5,73.5 310.5,73.5C 310.899,77.8914 309.232,80.058 305.5,80C 306.731,81.1827 306.731,82.3493 305.5,83.5C 304.158,82.0977 303.324,82.4311 303,84.5C 302,83.1667 301,83.1667 300,84.5C 299.51,85.7932 299.343,87.1266 299.5,88.5C 298.167,88.5 296.833,88.5 295.5,88.5C 295.5,89.5 295.5,90.5 295.5,91.5C 286.261,93.3954 276.927,93.8954 267.5,93C 261.835,91.9845 257.168,89.3179 253.5,85C 252.207,84.51 250.873,84.3433 249.5,84.5C 249.062,84.5654 248.728,84.3988 248.5,84C 249.687,82.9805 250.687,81.8139 251.5,80.5C 248.893,79.6816 246.226,79.1816 243.5,79C 242.643,78.3109 241.977,77.4776 241.5,76.5C 246.132,75.6717 250.798,75.1717 255.5,75C 257.037,73.8904 257.703,72.3904 257.5,70.5C 251.321,69.8334 244.988,69.1668 238.5,68.5C 238.709,67.914 239.043,67.414 239.5,67C 246.346,66.8283 253.013,66.3283 259.5,65.5C 260.906,65.0269 261.573,64.0269 261.5,62.5 Z"/></g>
<g><path style="opacity:1" fill="#eb7826" d="M 237.5,65.5 C 238.167,65.5 238.833,65.5 239.5,65.5C 244.5,65.5 249.5,65.5 254.5,65.5C 256.167,65.5 257.833,65.5 259.5,65.5C 253.013,66.3283 246.346,66.8283 239.5,67C 239.043,67.414 238.709,67.914 238.5,68.5C 244.988,69.1668 251.321,69.8334 257.5,70.5C 250.8,70.83 244.134,70.4967 237.5,69.5C 236.193,68.135 236.193,66.8016 237.5,65.5 Z"/></g>
<g><path style="opacity:1" fill="#cb0506" d="M 181.5,65.5 C 198.313,66.7818 214.98,66.7818 231.5,65.5C 233.5,65.5 235.5,65.5 237.5,65.5C 236.193,66.8016 236.193,68.135 237.5,69.5C 244.134,70.4967 250.8,70.83 257.5,70.5C 257.703,72.3904 257.037,73.8904 255.5,75C 250.798,75.1717 246.132,75.6717 241.5,76.5C 241.977,77.4776 242.643,78.3109 243.5,79C 246.226,79.1816 248.893,79.6816 251.5,80.5C 250.687,81.8139 249.687,82.9805 248.5,84C 248.728,84.3988 249.062,84.5654 249.5,84.5C 249.5,84.8333 249.5,85.1667 249.5,85.5C 247.315,85.7036 245.315,86.3702 243.5,87.5C 239.263,89.4531 234.93,91.1198 230.5,92.5C 224.178,93.277 217.845,93.4437 211.5,93C 205.615,89.9847 199.615,87.4847 193.5,85.5C 192.833,85.5 192.167,85.5 191.5,85.5C 188.138,81.8075 184.805,78.1408 181.5,74.5C 180.266,71.4648 180.266,68.4648 181.5,65.5 Z"/></g>
<g><path style="opacity:1" fill="#910b29" d="M 181.5,65.5 C 180.266,68.4648 180.266,71.4648 181.5,74.5C 180.833,74.1667 180.167,73.8333 179.5,73.5C 179.768,71.901 179.434,70.5676 178.5,69.5C 178.5,68.1667 178.5,66.8333 178.5,65.5C 179.5,65.5 180.5,65.5 181.5,65.5 Z"/></g>
<g><path style="opacity:1" fill="#e1e3f0" d="M 78.5,47.5 C 77.9919,50.1761 77.8253,52.8428 78,55.5C 79.4443,57.1554 81.2776,57.822 83.5,57.5C 83.5,58.8333 83.5,60.1667 83.5,61.5C 86.8333,61.8333 90.1667,62.1667 93.5,62.5C 88.9946,63.4987 84.3279,63.4987 79.5,62.5C 79.1412,64.7659 79.8078,66.5993 81.5,68C 86.1667,68.6667 90.8333,68.6667 95.5,68C 101.578,66.0096 104.245,61.8429 103.5,55.5C 104.29,56.6085 104.79,57.9419 105,59.5C 105.671,60.2524 106.504,60.5858 107.5,60.5C 105.94,62.9535 104.94,65.6202 104.5,68.5C 106.833,68.5 109.167,68.5 111.5,68.5C 111.402,66.4471 112.069,64.7804 113.5,63.5C 117.064,62.5773 120.731,62.244 124.5,62.5C 124.5,64.1667 124.5,65.8333 124.5,67.5C 124.5,67.8333 124.5,68.1667 124.5,68.5C 123.837,66.9581 123.17,65.2914 122.5,63.5C 120.885,64.154 119.218,64.654 117.5,65C 116.663,66.0113 116.33,67.1779 116.5,68.5C 113.687,68.0246 111.687,69.0246 110.5,71.5C 107.382,70.7901 104.215,70.1234 101,69.5C 93.7704,71.6105 86.6037,71.9439 79.5,70.5C 78.1854,67.6779 77.1854,64.6779 76.5,61.5C 73.7053,63.5148 73.0386,66.0148 74.5,69C 70.6425,69.8099 66.9758,69.6433 63.5,68.5C 66.2469,68.8134 68.9135,68.48 71.5,67.5C 73.9075,60.7218 76.2408,54.0551 78.5,47.5 Z"/></g>
<g><path style="opacity:1" fill="#b00c1b" d="M 181.5,65.5 C 197.938,65.2031 214.604,65.2031 231.5,65.5C 214.98,66.7818 198.313,66.7818 181.5,65.5 Z"/></g>
<g><path style="opacity:1" fill="#25216a" d="M 113.5,51.5 C 113.162,54.0115 113.162,56.3448 113.5,58.5C 116.276,59.5148 118.943,60.5148 121.5,61.5C 118.302,60.9644 115.635,61.631 113.5,63.5C 112.069,64.7804 111.402,66.4471 111.5,68.5C 109.167,68.5 106.833,68.5 104.5,68.5C 104.94,65.6202 105.94,62.9535 107.5,60.5C 109.53,57.4792 111.53,54.4792 113.5,51.5 Z"/></g>
<g><path style="opacity:1" fill="#6f2334" d="M 227.5,45.5 C 228.167,45.5 228.833,45.5 229.5,45.5C 228.928,50.17 228.261,54.8367 227.5,59.5C 228.629,65.1024 230.963,65.7691 234.5,61.5C 232.765,58.6854 232.265,55.6854 233,52.5C 233.71,51.0267 234.876,50.3601 236.5,50.5C 236.5,52.8333 236.5,55.1667 236.5,57.5C 235.207,59.3635 235.207,61.3635 236.5,63.5C 237.739,63.9424 238.739,64.6091 239.5,65.5C 238.833,65.5 238.167,65.5 237.5,65.5C 235.5,65.5 233.5,65.5 231.5,65.5C 214.604,65.2031 197.938,65.2031 181.5,65.5C 180.5,65.5 179.5,65.5 178.5,65.5C 178.5,66.8333 178.5,68.1667 178.5,69.5C 177.328,66.3099 176.328,62.9766 175.5,59.5C 177.129,61.0603 178.296,60.727 179,58.5C 179.719,54.8546 180.219,51.1879 180.5,47.5C 180.833,47.5 181.167,47.5 181.5,47.5C 181.113,52.874 180.446,58.2074 179.5,63.5C 181.167,63.5 182.833,63.5 184.5,63.5C 184.724,59.8212 185.058,56.1545 185.5,52.5C 186.167,56.1667 186.833,59.8333 187.5,63.5C 190.255,63.0367 191.922,61.3701 192.5,58.5C 193.404,59.209 193.737,60.209 193.5,61.5C 194.552,63.256 196.219,63.9227 198.5,63.5C 199.398,54.6045 200.398,54.4378 201.5,63C 204.127,65.0167 206.627,64.8501 209,62.5C 210.356,63.3802 211.856,63.7135 213.5,63.5C 213.351,62.448 213.517,61.448 214,60.5C 214.101,63.4352 215.601,64.7685 218.5,64.5C 221.178,63.8246 223.844,63.158 226.5,62.5C 227.423,58.1508 226.09,54.8175 222.5,52.5C 221.614,51.675 221.281,50.675 221.5,49.5C 223.5,49.5 225.5,49.5 227.5,49.5C 227.5,48.1667 227.5,46.8333 227.5,45.5 Z"/></g>
<g><path style="opacity:1" fill="#cfd7e1" d="M 459.5,58.5 C 460.372,63.4466 459.039,67.6132 455.5,71C 440.888,72.5986 426.222,72.9319 411.5,72C 410.525,66.2588 410.192,60.4254 410.5,54.5C 424.183,54.1675 437.85,54.5008 451.5,55.5C 454.19,56.5067 456.856,57.5067 459.5,58.5 Z"/></g>
<g><path style="opacity:1" fill="#ce9447" d="M 315.5,42.5 C 316.158,43.7933 316.492,45.2933 316.5,47C 315.886,51.8504 315.219,56.6838 314.5,61.5C 316.144,61.7135 317.644,61.3802 319,60.5C 319.499,54.8431 319.666,49.1764 319.5,43.5C 320.886,46.2153 321.553,49.2153 321.5,52.5C 320.991,56.8673 320.324,61.2007 319.5,65.5C 317.935,67.5093 316.935,69.8427 316.5,72.5C 315.167,74.1667 313.833,75.8333 312.5,77.5C 312.433,76.0413 312.766,74.7079 313.5,73.5C 315.868,71.0443 316.868,68.0443 316.5,64.5C 314.708,64.366 313.042,64.6993 311.5,65.5C 309.167,65.5 306.833,65.5 304.5,65.5C 306.833,64.8333 309.167,64.1667 311.5,63.5C 312.748,62.6661 313.415,61.3328 313.5,59.5C 314.495,53.8648 315.162,48.1981 315.5,42.5 Z"/></g>
<g><path style="opacity:1" fill="#de9b36" d="M 297.5,57.5 C 297.087,62.7131 299.42,65.3798 304.5,65.5C 306.833,65.5 309.167,65.5 311.5,65.5C 305.472,66.4953 299.472,66.4953 293.5,65.5C 293.5,64.8333 293.5,64.1667 293.5,63.5C 294.293,61.082 295.626,59.082 297.5,57.5 Z"/></g>
<g><path style="opacity:1" fill="#715538" d="M 273.5,60.5 C 274.167,60.5 274.833,60.5 275.5,60.5C 275.414,61.4959 275.748,62.3292 276.5,63C 280.573,62.7669 284.573,62.9336 288.5,63.5C 288.833,64.8333 289.167,64.8333 289.5,63.5C 290.833,63.5 292.167,63.5 293.5,63.5C 293.5,64.1667 293.5,64.8333 293.5,65.5C 283.599,65.4082 273.932,65.0749 264.5,64.5C 265.492,64.6716 266.158,64.3382 266.5,63.5C 268.833,63.5 271.167,63.5 273.5,63.5C 273.5,62.5 273.5,61.5 273.5,60.5 Z"/></g>
<g><path style="opacity:1" fill="#23014b" d="M 179.5,31.5 C 177.91,34.9466 176.91,38.6133 176.5,42.5C 175.511,47.9753 175.178,53.642 175.5,59.5C 176.328,62.9766 177.328,66.3099 178.5,69.5C 179.434,70.5676 179.768,71.901 179.5,73.5C 178.466,72.3129 177.133,71.4796 175.5,71C 176.476,68.8531 176.309,66.6864 175,64.5C 174.333,55.1667 174.333,45.8333 175,36.5C 176.417,34.6022 177.917,32.9355 179.5,31.5 Z"/></g>
<g><path style="opacity:1" fill="#f7f4e8" d="M 282.5,49.5 C 283.568,48.5655 284.901,48.2322 286.5,48.5C 286.5,50.1667 286.5,51.8333 286.5,53.5C 287.5,53.5 288.5,53.5 289.5,53.5C 289.5,53.8333 289.5,54.1667 289.5,54.5C 288.841,57.4552 288.508,60.4552 288.5,63.5C 284.573,62.9336 280.573,62.7669 276.5,63C 275.748,62.3292 275.414,61.4959 275.5,60.5C 275.5,58.8333 275.5,57.1667 275.5,55.5C 277.537,54.1535 279.537,52.8202 281.5,51.5C 282.967,52.2916 284.3,52.2916 285.5,51.5C 284.995,50.0815 283.995,49.4148 282.5,49.5 Z"/></g>
<g><path style="opacity:1" fill="#70739f" d="M 121.5,61.5 C 122.791,61.2627 123.791,61.596 124.5,62.5C 120.731,62.244 117.064,62.5773 113.5,63.5C 115.635,61.631 118.302,60.9644 121.5,61.5 Z"/></g>
<g><path style="opacity:1" fill="#462f27" d="M 298.5,53.5 C 297.921,61.9332 301.587,65.2665 309.5,63.5C 310.167,63.5 310.833,63.5 311.5,63.5C 309.167,64.1667 306.833,64.8333 304.5,65.5C 299.42,65.3798 297.087,62.7131 297.5,57.5C 297.232,55.901 297.566,54.5676 298.5,53.5 Z"/></g>
<g><path style="opacity:1" fill="#a9201e" d="M 257.5,53.5 C 259.568,55.9789 260.901,58.9789 261.5,62.5C 261.573,64.0269 260.906,65.0269 259.5,65.5C 257.833,65.5 256.167,65.5 254.5,65.5C 254.833,64.8333 255.167,64.1667 255.5,63.5C 255.322,59.8776 255.989,56.5443 257.5,53.5 Z"/></g>
<g><path style="opacity:1" fill="#f6f4e9" d="M 311.5,42.5 C 312.643,42.9081 313.643,43.5748 314.5,44.5C 313.077,49.7249 312.243,55.0583 312,60.5C 310.583,61.0779 309.75,62.0779 309.5,63.5C 301.587,65.2665 297.921,61.9332 298.5,53.5C 299.404,52.791 299.737,51.791 299.5,50.5C 302.26,47.7417 305.593,46.4084 309.5,46.5C 309.56,47.0431 309.893,47.3764 310.5,47.5C 311.429,46.3112 311.762,44.9778 311.5,43.5C 311.5,43.1667 311.5,42.8333 311.5,42.5 Z"/></g>
<g><path style="opacity:1" fill="#d2b48a" d="M 299.5,50.5 C 299.737,51.791 299.404,52.791 298.5,53.5C 297.566,54.5676 297.232,55.901 297.5,57.5C 295.626,59.082 294.293,61.082 293.5,63.5C 294.017,59.7783 294.85,56.1117 296,52.5C 297.113,51.695 298.279,51.0283 299.5,50.5 Z"/></g>
<g><path style="opacity:1" fill="#49444a" d="M 289.5,54.5 C 289.833,54.5 290.167,54.5 290.5,54.5C 290.492,57.5448 290.159,60.5448 289.5,63.5C 289.167,64.8333 288.833,64.8333 288.5,63.5C 288.508,60.4552 288.841,57.4552 289.5,54.5 Z"/></g>
<g><path style="opacity:1" fill="#190837" d="M 319.5,39.5 C 320.222,39.9175 320.722,40.5842 321,41.5C 322.455,48.4436 322.788,55.4436 322,62.5C 321.148,63.5707 320.315,64.5707 319.5,65.5C 320.324,61.2007 320.991,56.8673 321.5,52.5C 321.553,49.2153 320.886,46.2153 319.5,43.5C 319.5,42.1667 319.5,40.8333 319.5,39.5 Z"/></g>
<g><path style="opacity:1" fill="#cba059" d="M 280.5,56.5 C 281.551,57.2223 282.218,58.2223 282.5,59.5C 281.5,59.5 280.5,59.5 279.5,59.5C 279.263,58.209 279.596,57.209 280.5,56.5 Z"/></g>
<g><path style="opacity:1" fill="#b59886" d="M 275.5,55.5 C 275.5,57.1667 275.5,58.8333 275.5,60.5C 274.833,60.5 274.167,60.5 273.5,60.5C 273.5,59.8333 273.167,59.5 272.5,59.5C 272.833,58.8333 273.167,58.1667 273.5,57.5C 273.833,56.5 274.5,55.8333 275.5,55.5 Z"/></g>
<g><path style="opacity:1" fill="#f7eef1" d="M 250.5,49.5 C 250.5,51.8333 250.5,54.1667 250.5,56.5C 247.102,56.1796 243.768,56.513 240.5,57.5C 240.855,58.5223 241.522,59.189 242.5,59.5C 244.833,59.5 247.167,59.5 249.5,59.5C 249.5,60.8333 249.5,62.1667 249.5,63.5C 246.15,63.665 242.817,63.4983 239.5,63C 237.393,61.7365 236.393,59.9032 236.5,57.5C 236.5,55.1667 236.5,52.8333 236.5,50.5C 238.959,46.2758 242.626,44.7758 247.5,46C 248.71,47.0391 249.71,48.2058 250.5,49.5 Z"/></g>
<g><path style="opacity:1" fill="#b3bfe3" d="M 333.5,3.5 C 380.833,3.5 428.167,3.5 475.5,3.5C 475.5,26.1667 475.5,48.8333 475.5,71.5C 474.833,72.5 474.167,73.5 473.5,74.5C 473.167,74.5 472.833,74.5 472.5,74.5C 472.5,74.1667 472.5,73.8333 472.5,73.5C 472.5,61.5 472.5,49.5 472.5,37.5C 472.5,36.8333 472.5,36.1667 472.5,35.5C 472.5,26.5 472.5,17.5 472.5,8.5C 427.512,6.50507 382.179,5.8384 336.5,6.5C 335.503,27.9936 335.169,49.6602 335.5,71.5C 334.833,71.5 334.167,71.5 333.5,71.5C 333.5,48.8333 333.5,26.1667 333.5,3.5 Z"/></g>
<g><path style="opacity:1" fill="#f7f3eb" d="M 299.5,50.5 C 298.279,51.0283 297.113,51.695 296,52.5C 294.85,56.1117 294.017,59.7783 293.5,63.5C 292.167,63.5 290.833,63.5 289.5,63.5C 290.159,60.5448 290.492,57.5448 290.5,54.5C 291.468,52.3926 291.802,50.0593 291.5,47.5C 294.068,46.7682 296.734,46.7682 299.5,47.5C 299.5,48.5 299.5,49.5 299.5,50.5 Z"/></g>
<g><path style="opacity:1" fill="#5b2a38" d="M 252.5,47.5 C 252.02,52.8221 251.687,58.1554 251.5,63.5C 252.833,63.5 254.167,63.5 255.5,63.5C 255.167,64.1667 254.833,64.8333 254.5,65.5C 249.5,65.5 244.5,65.5 239.5,65.5C 238.739,64.6091 237.739,63.9424 236.5,63.5C 235.207,61.3635 235.207,59.3635 236.5,57.5C 236.393,59.9032 237.393,61.7365 239.5,63C 242.817,63.4983 246.15,63.665 249.5,63.5C 249.5,62.1667 249.5,60.8333 249.5,59.5C 249.03,58.3065 248.03,57.6399 246.5,57.5C 244.645,57.3402 243.312,58.0069 242.5,59.5C 241.522,59.189 240.855,58.5223 240.5,57.5C 243.768,56.513 247.102,56.1796 250.5,56.5C 250.5,54.1667 250.5,51.8333 250.5,49.5C 251.167,48.8333 251.833,48.1667 252.5,47.5 Z"/></g>
<g><path style="opacity:1" fill="#881e2f" d="M 249.5,59.5 C 247.167,59.5 244.833,59.5 242.5,59.5C 243.312,58.0069 244.645,57.3402 246.5,57.5C 248.03,57.6399 249.03,58.3065 249.5,59.5 Z"/></g>
<g><path style="opacity:1" fill="#634e3c" d="M 282.5,59.5 C 282.218,58.2223 281.551,57.2223 280.5,56.5C 281.708,55.7659 283.041,55.4326 284.5,55.5C 284.771,57.3797 284.104,58.713 282.5,59.5 Z"/></g>
<g><path style="opacity:1" fill="#f39c1d" d="M 275.5,50.5 C 277.265,51.4614 279.265,51.7947 281.5,51.5C 279.537,52.8202 277.537,54.1535 275.5,55.5C 274.5,55.8333 273.833,56.5 273.5,57.5C 267.933,58.2468 266.1,55.9134 268,50.5C 270.498,49.2215 272.998,49.2215 275.5,50.5 Z"/></g>
<g><path style="opacity:1" fill="#f4f3eb" d="M 275.5,46.5 C 273.5,46.5 271.5,46.5 269.5,46.5C 265.031,49.7713 264.364,53.7713 267.5,58.5C 269.045,59.4519 270.712,59.7852 272.5,59.5C 273.167,59.5 273.5,59.8333 273.5,60.5C 273.5,61.5 273.5,62.5 273.5,63.5C 271.167,63.5 268.833,63.5 266.5,63.5C 264.248,63.0844 262.748,61.751 262,59.5C 261.333,55.8333 261.333,52.1667 262,48.5C 262.377,47.0577 263.21,46.0577 264.5,45.5C 267.594,43.6529 270.928,43.1529 274.5,44C 275.252,44.6708 275.586,45.5041 275.5,46.5 Z"/></g>
<g><path style="opacity:1" fill="#4c1e2d" d="M 261.5,44.5 C 262.5,44.5 263.5,44.5 264.5,44.5C 264.5,44.8333 264.5,45.1667 264.5,45.5C 263.21,46.0577 262.377,47.0577 262,48.5C 261.333,52.1667 261.333,55.8333 262,59.5C 262.748,61.751 264.248,63.0844 266.5,63.5C 266.158,64.3382 265.492,64.6716 264.5,64.5C 263.5,63.8333 262.5,63.1667 261.5,62.5C 260.901,58.9789 259.568,55.9789 257.5,53.5C 257.821,51.9519 258.821,51.2852 260.5,51.5C 260.517,49.4352 260.85,47.4352 261.5,45.5C 261.5,45.1667 261.5,44.8333 261.5,44.5 Z"/></g>
<g><path style="opacity:1" fill="#d19848" d="M 305.5,50.5 C 307.69,51.9293 309.024,53.9293 309.5,56.5C 308.575,59.1313 306.909,59.7979 304.5,58.5C 303.035,55.5162 303.369,52.8495 305.5,50.5 Z"/></g>
<g><path style="opacity:1" fill="#2161c0" d="M 460.5,41.5 C 461.931,41.8807 462.764,42.8807 463,44.5C 465.719,43.5562 468.552,43.2229 471.5,43.5C 471.5,52.8333 471.5,62.1667 471.5,71.5C 468.167,71.5 464.833,71.5 461.5,71.5C 461.451,68.6257 461.784,65.7923 462.5,63C 462.508,60.4494 461.508,58.6161 459.5,57.5C 459.167,56.5 458.5,55.8333 457.5,55.5C 457.096,54.2436 456.429,53.0769 455.5,52C 456.315,50.3566 457.315,48.8566 458.5,47.5C 459.167,45.5 459.833,43.5 460.5,41.5 Z"/></g>
<g><path style="opacity:1" fill="#1f5fbb" d="M 351.5,39.5 C 347.543,48.4681 347.543,57.4681 351.5,66.5C 351.703,68.0443 352.37,69.3777 353.5,70.5C 352.975,71.1924 352.308,71.6924 351.5,72C 346.845,72.4992 342.179,72.6658 337.5,72.5C 336.527,62.9162 336.194,53.2496 336.5,43.5C 340.637,42.6315 344.637,42.2981 348.5,42.5C 348.5,41.5 348.5,40.5 348.5,39.5C 349.5,39.5 350.5,39.5 351.5,39.5 Z"/></g>
<g><path style="opacity:1" fill="#1c130b" d="M 305.5,50.5 C 309.068,50.7593 310.401,52.7593 309.5,56.5C 309.024,53.9293 307.69,51.9293 305.5,50.5 Z"/></g>
<g><path style="opacity:1" fill="#9d122b" d="M 176.5,42.5 C 176.174,46.8839 176.508,51.2172 177.5,55.5C 178.257,52.6303 179.257,49.9636 180.5,47.5C 180.219,51.1879 179.719,54.8546 179,58.5C 178.296,60.727 177.129,61.0603 175.5,59.5C 175.178,53.642 175.511,47.9753 176.5,42.5 Z"/></g>
<g><path style="opacity:1" fill="#466fa8" d="M 409.5,31.5 C 409.5,38.1667 409.5,44.8333 409.5,51.5C 423.837,51.6666 438.171,51.4999 452.5,51C 453.942,50.6232 454.942,49.7899 455.5,48.5C 456.167,48.1667 456.833,47.8333 457.5,47.5C 457.833,47.5 458.167,47.5 458.5,47.5C 457.315,48.8566 456.315,50.3566 455.5,52C 456.429,53.0769 457.096,54.2436 457.5,55.5C 456.078,55.2914 454.745,54.7914 453.5,54C 438.837,53.5001 424.17,53.3334 409.5,53.5C 409.5,60.5 409.5,67.5 409.5,74.5C 405.03,75.4861 400.363,75.8195 395.5,75.5C 395.5,74.5 395.5,73.5 395.5,72.5C 396.514,71.3263 397.847,70.6596 399.5,70.5C 400.404,71.209 400.737,72.209 400.5,73.5C 407.833,74.1531 410.499,70.8198 408.5,63.5C 407.5,63.5 406.5,63.5 405.5,63.5C 405.833,62.1667 406.167,60.8333 406.5,59.5C 407.468,57.3926 407.802,55.0593 407.5,52.5C 397.652,52.8271 387.986,52.4938 378.5,51.5C 387.986,50.5062 397.652,50.1729 407.5,50.5C 407.326,48.139 406.993,45.8056 406.5,43.5C 408.176,42.8166 408.843,41.4832 408.5,39.5C 408.194,36.6146 408.527,33.9479 409.5,31.5 Z"/></g>
<g><path style="opacity:1" fill="#82aad8" d="M 378.5,51.5 C 387.986,52.4938 397.652,52.8271 407.5,52.5C 407.802,55.0593 407.468,57.3926 406.5,59.5C 406.5,57.5 406.5,55.5 406.5,53.5C 396.81,53.8318 387.144,53.4984 377.5,52.5C 377.624,51.8933 377.957,51.56 378.5,51.5 Z"/></g>
<g><path style="opacity:1" fill="#e1a648" d="M 269.5,46.5 C 271.918,47.2931 273.918,48.6264 275.5,50.5C 272.998,49.2215 270.498,49.2215 268,50.5C 266.1,55.9134 267.933,58.2468 273.5,57.5C 273.167,58.1667 272.833,58.8333 272.5,59.5C 270.712,59.7852 269.045,59.4519 267.5,58.5C 264.364,53.7713 265.031,49.7713 269.5,46.5 Z"/></g>
<g><path style="opacity:1" fill="#f5eeec" d="M 261.5,45.5 C 260.85,47.4352 260.517,49.4352 260.5,51.5C 258.821,51.2852 257.821,51.9519 257.5,53.5C 255.989,56.5443 255.322,59.8776 255.5,63.5C 254.167,63.5 252.833,63.5 251.5,63.5C 251.687,58.1554 252.02,52.8221 252.5,47.5C 254.288,44.9337 256.121,44.9337 258,47.5C 258.816,46.1772 259.983,45.5106 261.5,45.5 Z"/></g>
<g><path style="opacity:1" fill="#522537" d="M 242.5,49.5 C 244.346,49.2222 245.68,49.8888 246.5,51.5C 244.833,52.8333 243.167,52.8333 241.5,51.5C 241.863,50.8165 242.196,50.1499 242.5,49.5 Z"/></g>
<g><path style="opacity:1" fill="#030266" d="M 330.5,4.5 C 330.255,35.2143 329.255,65.7143 327.5,96C 328.305,97.1127 328.972,98.2794 329.5,99.5C 308.629,99.2391 287.795,99.2391 267,99.5C 264.536,98.8392 262.036,98.3392 259.5,98C 260.973,97.2904 261.64,96.1238 261.5,94.5C 270.867,97.8038 280.534,98.3038 290.5,96C 292.431,95.0978 294.097,93.9312 295.5,92.5C 297.973,92.9118 299.306,91.9118 299.5,89.5C 299.833,89.5 300.167,89.5 300.5,89.5C 305.263,87.4587 309.263,84.4587 312.5,80.5C 314.746,80.0639 316.913,79.3972 319,78.5C 318.335,74.153 318.502,69.8197 319.5,65.5C 320.315,64.5707 321.148,63.5707 322,62.5C 322.788,55.4436 322.455,48.4436 321,41.5C 320.722,40.5842 320.222,39.9175 319.5,39.5C 319.5,38.1667 319.5,36.8333 319.5,35.5C 319.454,32.9078 318.454,30.7411 316.5,29C 318.18,25.172 317.68,24.3387 315,26.5C 314.329,25.7476 313.496,25.4142 312.5,25.5C 312.167,25.5 311.833,25.5 311.5,25.5C 310.833,24.5 310.167,23.5 309.5,22.5C 309.262,20.5956 308.262,19.2623 306.5,18.5C 304.863,16.8763 305.197,15.8763 307.5,15.5C 308.647,15.8178 309.481,16.4844 310,17.5C 311.368,16.0069 311.535,14.5069 310.5,13C 307.833,12.3333 305.167,12.3333 302.5,13C 303.696,13.6543 303.696,14.1543 302.5,14.5C 300.998,13.9169 299.665,13.0836 298.5,12C 298.957,11.586 299.291,11.086 299.5,10.5C 295.044,9.54152 290.711,8.37485 286.5,7C 280.141,6.16941 273.807,6.33608 267.5,7.5C 266.099,8.52066 264.765,9.52066 263.5,10.5C 260.741,11.6424 258.074,12.9757 255.5,14.5C 254.041,14.4326 252.708,14.7659 251.5,15.5C 250.167,15.5 248.833,15.5 247.5,15.5C 247.219,13.0372 246.219,10.8705 244.5,9C 240.502,8.28914 239.835,9.28914 242.5,12C 239.523,11.5909 236.857,10.2576 234.5,8C 235.376,6.41524 236.709,5.41524 238.5,5C 269.165,4.50002 299.832,4.33335 330.5,4.5 Z"/></g>
<g><path style="opacity:1" fill="#fdf4cf" d="M 311.5,42.5 C 312.833,41.1667 314.167,41.1667 315.5,42.5C 315.162,48.1981 314.495,53.8648 313.5,59.5C 313.415,61.3328 312.748,62.6661 311.5,63.5C 310.833,63.5 310.167,63.5 309.5,63.5C 309.75,62.0779 310.583,61.0779 312,60.5C 312.243,55.0583 313.077,49.7249 314.5,44.5C 313.643,43.5748 312.643,42.9081 311.5,42.5 Z"/></g>
<g><path style="opacity:1" fill="#866b61" d="M 289.5,47.5 C 290.167,47.5 290.833,47.5 291.5,47.5C 291.802,50.0593 291.468,52.3926 290.5,54.5C 290.167,54.5 289.833,54.5 289.5,54.5C 289.5,54.1667 289.5,53.8333 289.5,53.5C 289.5,51.5 289.5,49.5 289.5,47.5 Z"/></g>
<g><path style="opacity:1" fill="#684837" d="M 269.5,46.5 C 271.5,46.5 273.5,46.5 275.5,46.5C 275.5,47.1667 275.833,47.5 276.5,47.5C 276.833,47.5 277.167,47.5 277.5,47.5C 277.351,48.552 277.517,49.552 278,50.5C 279.356,49.6198 280.856,49.2865 282.5,49.5C 283.995,49.4148 284.995,50.0815 285.5,51.5C 284.3,52.2916 282.967,52.2916 281.5,51.5C 279.265,51.7947 277.265,51.4614 275.5,50.5C 273.918,48.6264 271.918,47.2931 269.5,46.5 Z"/></g>
<g><path style="opacity:1" fill="#9f9ac7" d="M 85.5,42.5 C 85.5,42.8333 85.5,43.1667 85.5,43.5C 85.4013,46.2372 85.7347,48.9039 86.5,51.5C 85.8826,51.3893 85.3826,51.056 85,50.5C 84.1993,47.633 84.3659,44.9664 85.5,42.5 Z"/></g>
<g><path style="opacity:1" fill="#f6e8ed" d="M 229.5,43.5 C 231.167,43.5 232.833,43.5 234.5,43.5C 235.865,45.5909 236.532,47.9242 236.5,50.5C 234.876,50.3601 233.71,51.0267 233,52.5C 232.265,55.6854 232.765,58.6854 234.5,61.5C 230.963,65.7691 228.629,65.1024 227.5,59.5C 228.261,54.8367 228.928,50.17 229.5,45.5C 229.5,44.8333 229.5,44.1667 229.5,43.5 Z"/></g>
<g><path style="opacity:1" fill="#f4e8eb" d="M 201.5,41.5 C 201.5,43.5 201.5,45.5 201.5,47.5C 201.5,48.1667 201.5,48.8333 201.5,49.5C 200.378,51.2884 200.211,53.2884 201,55.5C 202.264,53.393 204.097,52.393 206.5,52.5C 208.483,52.8432 209.817,52.1765 210.5,50.5C 208.393,49.5318 206.059,49.1984 203.5,49.5C 203.5,48.5 203.5,47.5 203.5,46.5C 207.869,44.7646 211.869,45.4313 215.5,48.5C 215.5,51.1667 215.5,53.8333 215.5,56.5C 214.596,57.209 214.263,58.209 214.5,59.5C 216.167,59.5 217.833,59.5 219.5,59.5C 220.376,59.6309 221.043,59.2975 221.5,58.5C 220.135,57.059 218.635,55.7256 217,54.5C 216.505,52.5273 216.338,50.5273 216.5,48.5C 217.5,48.1667 218.167,47.5 218.5,46.5C 219.167,46.5 219.5,46.1667 219.5,45.5C 222.167,45.5 224.833,45.5 227.5,45.5C 227.5,46.8333 227.5,48.1667 227.5,49.5C 225.5,49.5 223.5,49.5 221.5,49.5C 221.281,50.675 221.614,51.675 222.5,52.5C 226.09,54.8175 227.423,58.1508 226.5,62.5C 223.844,63.158 221.178,63.8246 218.5,64.5C 215.601,64.7685 214.101,63.4352 214,60.5C 213.517,61.448 213.351,62.448 213.5,63.5C 211.856,63.7135 210.356,63.3802 209,62.5C 206.627,64.8501 204.127,65.0167 201.5,63C 200.398,54.4378 199.398,54.6045 198.5,63.5C 196.219,63.9227 194.552,63.256 193.5,61.5C 194.596,58.3343 195.096,55.001 195,51.5C 193.864,53.743 193.03,56.0763 192.5,58.5C 191.922,61.3701 190.255,63.0367 187.5,63.5C 187.666,58.1563 187.499,52.8229 187,47.5C 185.731,48.9047 185.231,50.5714 185.5,52.5C 185.058,56.1545 184.724,59.8212 184.5,63.5C 182.833,63.5 181.167,63.5 179.5,63.5C 180.446,58.2074 181.113,52.874 181.5,47.5C 181.5,47.1667 181.5,46.8333 181.5,46.5C 182.249,45.469 182.915,44.3024 183.5,43C 185.473,42.5045 187.473,42.3379 189.5,42.5C 189.334,46.8461 189.501,51.1794 190,55.5C 191.039,54.7562 191.539,53.7562 191.5,52.5C 191.833,50.5 192.167,48.5 192.5,46.5C 193.6,45.3951 194.267,44.0618 194.5,42.5C 196.607,41.5318 198.941,41.1984 201.5,41.5 Z"/></g>
<g><path style="opacity:1" fill="#4e3747" d="M 193.5,61.5 C 193.737,60.209 193.404,59.209 192.5,58.5C 193.03,56.0763 193.864,53.743 195,51.5C 195.096,55.001 194.596,58.3343 193.5,61.5 Z"/></g>
<g><path style="opacity:1" fill="#801b1f" d="M 215.5,56.5 C 217.632,56.5544 218.965,57.5544 219.5,59.5C 217.833,59.5 216.167,59.5 214.5,59.5C 214.263,58.209 214.596,57.209 215.5,56.5 Z"/></g>
<g><path style="opacity:1" fill="#320f1e" d="M 215.5,48.5 C 215.833,48.5 216.167,48.5 216.5,48.5C 216.338,50.5273 216.505,52.5273 217,54.5C 218.635,55.7256 220.135,57.059 221.5,58.5C 221.043,59.2975 220.376,59.6309 219.5,59.5C 218.965,57.5544 217.632,56.5544 215.5,56.5C 215.5,53.8333 215.5,51.1667 215.5,48.5 Z"/></g>
<g><path style="opacity:1" fill="#6b283c" d="M 206.5,55.5 C 207.5,55.5 208.5,55.5 209.5,55.5C 209.833,58.5 208.5,59.8333 205.5,59.5C 205.433,58.0413 205.766,56.7079 206.5,55.5 Z"/></g>
<g><path style="opacity:1" fill="#831d2e" d="M 201.5,49.5 C 202.802,51.0276 204.469,52.0276 206.5,52.5C 204.097,52.393 202.264,53.393 201,55.5C 200.211,53.2884 200.378,51.2884 201.5,49.5 Z"/></g>
<g><path style="opacity:1" fill="#ada3b2" d="M 187.5,63.5 C 186.833,59.8333 186.167,56.1667 185.5,52.5C 185.231,50.5714 185.731,48.9047 187,47.5C 187.499,52.8229 187.666,58.1563 187.5,63.5 Z"/></g>
<g><path style="opacity:1" fill="#451825" d="M 201.5,47.5 C 201.833,47.5 202.167,47.5 202.5,47.5C 202.5,48.5 202.5,49.5 202.5,50.5C 205.167,50.5 207.833,50.5 210.5,50.5C 209.817,52.1765 208.483,52.8432 206.5,52.5C 204.469,52.0276 202.802,51.0276 201.5,49.5C 201.5,48.8333 201.5,48.1667 201.5,47.5 Z"/></g>
<g><path style="opacity:1" fill="#8c6a7a" d="M 203.5,46.5 C 203.5,47.5 203.5,48.5 203.5,49.5C 206.059,49.1984 208.393,49.5318 210.5,50.5C 207.833,50.5 205.167,50.5 202.5,50.5C 202.5,49.5 202.5,48.5 202.5,47.5C 202.5,46.8333 202.833,46.5 203.5,46.5 Z"/></g>
<g><path style="opacity:1" fill="#35121c" d="M 192.5,46.5 C 192.167,48.5 191.833,50.5 191.5,52.5C 190.549,51.0813 190.216,49.4147 190.5,47.5C 191.167,47.1667 191.833,46.8333 192.5,46.5 Z"/></g>
<g><path style="opacity:1" fill="#fbf4db" d="M 289.5,47.5 C 289.5,49.5 289.5,51.5 289.5,53.5C 288.5,53.5 287.5,53.5 286.5,53.5C 286.5,51.8333 286.5,50.1667 286.5,48.5C 284.901,48.2322 283.568,48.5655 282.5,49.5C 280.856,49.2865 279.356,49.6198 278,50.5C 277.517,49.552 277.351,48.552 277.5,47.5C 281.458,44.8428 285.458,44.8428 289.5,47.5 Z"/></g>
<g><path style="opacity:1" fill="#a0a1bf" d="M 4.5,4.5 C 57.3307,3.50106 110.331,3.16773 163.5,3.5C 163.5,35.8333 163.5,68.1667 163.5,100.5C 163.167,100.5 162.833,100.5 162.5,100.5C 162.5,100.167 162.5,99.8333 162.5,99.5C 162.5,70.5 162.5,41.5 162.5,12.5C 162.5,9.83333 162.5,7.16667 162.5,4.5C 109.833,4.5 57.1667,4.5 4.5,4.5 Z"/></g>
<g><path style="opacity:1" fill="#1b1a70" d="M 124.5,67.5 C 124.5,65.8333 124.5,64.1667 124.5,62.5C 123.791,61.596 122.791,61.2627 121.5,61.5C 118.943,60.5148 116.276,59.5148 113.5,58.5C 113.162,56.3448 113.162,54.0115 113.5,51.5C 113.66,49.847 114.326,48.5137 115.5,47.5C 117.124,47.6399 118.29,46.9733 119,45.5C 118.847,48.1738 118.347,50.8405 117.5,53.5C 116.766,54.7079 116.433,56.0413 116.5,57.5C 119.167,57.5 121.833,57.5 124.5,57.5C 126.447,52.8864 127.447,48.0531 127.5,43C 127.167,42.5 126.833,42 126.5,41.5C 124.929,42.3094 123.262,42.6427 121.5,42.5C 121.281,41.325 121.614,40.325 122.5,39.5C 124.409,38.6518 126.409,38.3184 128.5,38.5C 129.893,48.1035 130.56,57.7702 130.5,67.5C 128.5,67.5 126.5,67.5 124.5,67.5 Z"/></g>
<g><path style="opacity:1" fill="#1f1e6b" d="M 103.5,36.5 C 107.274,36.6351 108.608,38.3018 107.5,41.5C 105.549,42.6414 103.549,42.6414 101.5,41.5C 99.7116,40.3775 97.7116,40.2109 95.5,41C 93.4468,42.6779 93.1134,44.5112 94.5,46.5C 95.8936,48.7082 97.8936,50.2082 100.5,51C 102.141,52.129 103.141,53.629 103.5,55.5C 104.245,61.8429 101.578,66.0096 95.5,68C 90.8333,68.6667 86.1667,68.6667 81.5,68C 79.8078,66.5993 79.1412,64.7659 79.5,62.5C 84.3279,63.4987 88.9946,63.4987 93.5,62.5C 95.561,61.2486 95.8943,59.5819 94.5,57.5C 91.5319,55.8603 88.8652,53.8603 86.5,51.5C 85.7347,48.9039 85.4013,46.2372 85.5,43.5C 88.6297,42.4278 91.2964,40.5945 93.5,38C 96.7256,36.8011 100.059,36.3011 103.5,36.5 Z"/></g>
<g><path style="opacity:1" fill="#e3c489" d="M 309.5,45.5 C 309.5,45.8333 309.5,46.1667 309.5,46.5C 305.593,46.4084 302.26,47.7417 299.5,50.5C 299.5,49.5 299.5,48.5 299.5,47.5C 296.734,46.7682 294.068,46.7682 291.5,47.5C 292.514,46.2353 294.014,45.5687 296,45.5C 300.478,46.5142 304.978,46.5142 309.5,45.5 Z"/></g>
<g><path style="opacity:1" fill="#a81813" d="M 234.5,43.5 C 243.5,43.5 252.5,43.5 261.5,43.5C 261.5,43.8333 261.5,44.1667 261.5,44.5C 261.5,44.8333 261.5,45.1667 261.5,45.5C 259.983,45.5106 258.816,46.1772 258,47.5C 256.121,44.9337 254.288,44.9337 252.5,47.5C 251.833,48.1667 251.167,48.8333 250.5,49.5C 249.71,48.2058 248.71,47.0391 247.5,46C 242.626,44.7758 238.959,46.2758 236.5,50.5C 236.532,47.9242 235.865,45.5909 234.5,43.5 Z"/></g>
<g><path style="opacity:1" fill="#842027" d="M 190.5,42.5 C 191.702,43.4054 193.036,43.4054 194.5,42.5C 194.267,44.0618 193.6,45.3951 192.5,46.5C 191.833,46.8333 191.167,47.1667 190.5,47.5C 190.5,45.8333 190.5,44.1667 190.5,42.5 Z"/></g>
<g><path style="opacity:1" fill="#fbf0c8" d="M 268.5,41.5 C 270.857,41.3367 273.19,41.5034 275.5,42C 276.406,43.6995 276.739,45.5328 276.5,47.5C 275.833,47.5 275.5,47.1667 275.5,46.5C 275.586,45.5041 275.252,44.6708 274.5,44C 270.928,43.1529 267.594,43.6529 264.5,45.5C 264.5,45.1667 264.5,44.8333 264.5,44.5C 265.795,43.5116 267.128,42.5116 268.5,41.5 Z"/></g>
<g><path style="opacity:1" fill="#b01318" d="M 229.5,42.5 C 229.5,42.8333 229.5,43.1667 229.5,43.5C 229.5,44.1667 229.5,44.8333 229.5,45.5C 228.833,45.5 228.167,45.5 227.5,45.5C 224.833,45.5 222.167,45.5 219.5,45.5C 222.192,42.8578 225.525,41.8578 229.5,42.5 Z"/></g>
<g><path style="opacity:1" fill="#b41b18" d="M 201.5,41.5 C 206.52,41.1174 210.853,42.6174 214.5,46C 215.793,46.49 217.127,46.6567 218.5,46.5C 218.167,47.5 217.5,48.1667 216.5,48.5C 216.167,48.5 215.833,48.5 215.5,48.5C 211.869,45.4313 207.869,44.7646 203.5,46.5C 202.833,46.5 202.5,46.8333 202.5,47.5C 202.167,47.5 201.833,47.5 201.5,47.5C 201.5,45.5 201.5,43.5 201.5,41.5 Z"/></g>
<g><path style="opacity:1" fill="#172e74" d="M 392.5,31.5 C 399.007,32.0864 404.34,34.7531 408.5,39.5C 408.843,41.4832 408.176,42.8166 406.5,43.5C 406.5,42.8333 406.167,42.5 405.5,42.5C 402.68,37.0105 398.346,33.3439 392.5,31.5 Z"/></g>
<g><path style="opacity:1" fill="#ea992a" d="M 311.5,25.5 C 311.833,25.5 312.167,25.5 312.5,25.5C 313.5,27.5 314.5,29.5 315.5,31.5C 316.853,34.2054 318.186,36.8721 319.5,39.5C 319.5,40.8333 319.5,42.1667 319.5,43.5C 319.666,49.1764 319.499,54.8431 319,60.5C 317.644,61.3802 316.144,61.7135 314.5,61.5C 315.219,56.6838 315.886,51.8504 316.5,47C 316.492,45.2933 316.158,43.7933 315.5,42.5C 314.167,41.1667 312.833,41.1667 311.5,42.5C 311.5,42.8333 311.5,43.1667 311.5,43.5C 310.5,43.8333 309.833,44.5 309.5,45.5C 304.978,46.5142 300.478,46.5142 296,45.5C 294.014,45.5687 292.514,46.2353 291.5,47.5C 290.833,47.5 290.167,47.5 289.5,47.5C 285.458,44.8428 281.458,44.8428 277.5,47.5C 277.167,47.5 276.833,47.5 276.5,47.5C 276.739,45.5328 276.406,43.6995 275.5,42C 273.19,41.5034 270.857,41.3367 268.5,41.5C 269.793,40.8418 271.293,40.5085 273,40.5C 275.281,40.5634 277.114,41.3968 278.5,43C 281.146,43.4974 283.813,43.6641 286.5,43.5C 286.5,42.1667 286.5,40.8333 286.5,39.5C 290.099,39.2619 290.433,40.2619 287.5,42.5C 287.709,43.086 288.043,43.586 288.5,44C 295.192,44.8309 301.858,44.6642 308.5,43.5C 307.332,42.0944 307.665,40.9277 309.5,40C 311.9,39.8142 314.234,39.3142 316.5,38.5C 314.532,34.2401 312.866,29.9068 311.5,25.5 Z"/></g>
<g><path style="opacity:1" fill="#805b40" d="M 311.5,43.5 C 311.762,44.9778 311.429,46.3112 310.5,47.5C 309.893,47.3764 309.56,47.0431 309.5,46.5C 309.5,46.1667 309.5,45.8333 309.5,45.5C 309.833,44.5 310.5,43.8333 311.5,43.5 Z"/></g>
<g><path style="opacity:1" fill="#ce8f94" d="M 190.5,42.5 C 190.5,44.1667 190.5,45.8333 190.5,47.5C 190.216,49.4147 190.549,51.0813 191.5,52.5C 191.539,53.7562 191.039,54.7562 190,55.5C 189.501,51.1794 189.334,46.8461 189.5,42.5C 187.473,42.3379 185.473,42.5045 183.5,43C 182.915,44.3024 182.249,45.469 181.5,46.5C 181.286,44.8561 181.62,43.3561 182.5,42C 185.367,41.1993 188.034,41.3659 190.5,42.5 Z"/></g>
<g><path style="opacity:1" fill="#a9aad5" d="M 101.5,41.5 C 97.1486,40.533 94.8153,42.1996 94.5,46.5C 93.1134,44.5112 93.4468,42.6779 95.5,41C 97.7116,40.2109 99.7116,40.3775 101.5,41.5 Z"/></g>
<g><path style="opacity:1" fill="#30316a" d="M 103.5,36.5 C 100.059,36.3011 96.7256,36.8011 93.5,38C 91.2964,40.5945 88.6297,42.4278 85.5,43.5C 85.5,43.1667 85.5,42.8333 85.5,42.5C 89.8229,35.6306 95.8229,33.6306 103.5,36.5 Z"/></g>
<g><path style="opacity:1" fill="#113d94" d="M 458.5,35.5 C 459.167,35.5 459.833,35.5 460.5,35.5C 461.046,37.3032 461.88,38.9698 463,40.5C 465.719,39.5562 468.552,39.2229 471.5,39.5C 471.5,40.8333 471.5,42.1667 471.5,43.5C 468.552,43.2229 465.719,43.5562 463,44.5C 462.764,42.8807 461.931,41.8807 460.5,41.5C 460.396,39.2972 459.73,37.2972 458.5,35.5 Z"/></g>
<g><path style="opacity:1" fill="#cdd7e1" d="M 405.5,42.5 C 406.167,42.5 406.5,42.8333 406.5,43.5C 406.993,45.8056 407.326,48.139 407.5,50.5C 397.652,50.1729 387.986,50.5062 378.5,51.5C 377.957,51.56 377.624,51.8933 377.5,52.5C 387.144,53.4984 396.81,53.8318 406.5,53.5C 406.5,55.5 406.5,57.5 406.5,59.5C 406.167,60.8333 405.833,62.1667 405.5,63.5C 404.2,66.4323 402.2,68.7656 399.5,70.5C 397.847,70.6596 396.514,71.3263 395.5,72.5C 385.365,75.5383 375.031,76.2049 364.5,74.5C 364.5,73.8333 364.167,73.5 363.5,73.5C 361.856,72.0755 360.356,70.4089 359,68.5C 357.413,69.727 356.079,69.3937 355,67.5C 351.694,63.2483 350.194,58.415 350.5,53C 350.476,45.8426 353.142,40.1759 358.5,36C 360.717,34.7246 363.051,33.7246 365.5,33C 374.167,32.3333 382.833,32.3333 391.5,33C 397.001,34.8086 400.835,38.3086 403,43.5C 403.342,41.3808 404.175,41.0474 405.5,42.5 Z"/></g>
<g><path style="opacity:1" fill="#0e2f8b" d="M 358.5,33.5 C 355.94,35.2733 353.607,37.2733 351.5,39.5C 350.5,39.5 349.5,39.5 348.5,39.5C 348.5,40.5 348.5,41.5 348.5,42.5C 344.637,42.2981 340.637,42.6315 336.5,43.5C 336.5,40.8333 336.5,38.1667 336.5,35.5C 336.833,35.5 337.167,35.5 337.5,35.5C 338.8,36.1079 340.133,36.7745 341.5,37.5C 345.118,36.6536 348.785,36.3203 352.5,36.5C 352.281,35.325 352.614,34.325 353.5,33.5C 355.003,34.0522 356.669,34.0522 358.5,33.5 Z"/></g>
<g><path style="opacity:1" fill="#cfd7e1" d="M 457.5,47.5 C 456.833,47.8333 456.167,48.1667 455.5,48.5C 440.536,49.4515 425.536,49.7848 410.5,49.5C 410.5,43.8333 410.5,38.1667 410.5,32.5C 424.171,32.3334 437.837,32.5001 451.5,33C 453.839,34.3231 456.005,35.8231 458,37.5C 458.388,40.8492 458.221,44.1825 457.5,47.5 Z"/></g>
<g><path style="opacity:1" fill="#fc7524" d="M 259.5,38.5 C 251.599,39.1952 243.599,39.8618 235.5,40.5C 243.097,38.5332 251.097,37.8665 259.5,38.5 Z"/></g>
<g><path style="opacity:1" fill="#212066" d="M 124.5,68.5 C 124.5,68.1667 124.5,67.8333 124.5,67.5C 126.5,67.5 128.5,67.5 130.5,67.5C 130.56,57.7702 129.893,48.1035 128.5,38.5C 126.409,38.3184 124.409,38.6518 122.5,39.5C 121.614,40.325 121.281,41.325 121.5,42.5C 123.262,42.6427 124.929,42.3094 126.5,41.5C 126.833,42 127.167,42.5 127.5,43C 127.447,48.0531 126.447,52.8864 124.5,57.5C 124.802,54.9407 124.468,52.6074 123.5,50.5C 123.785,48.712 123.452,47.0453 122.5,45.5C 120.628,47.9099 119.295,50.5766 118.5,53.5C 118.167,53.5 117.833,53.5 117.5,53.5C 118.347,50.8405 118.847,48.1738 119,45.5C 118.29,46.9733 117.124,47.6399 115.5,47.5C 117.103,44.2031 118.77,40.8698 120.5,37.5C 124.107,36.5108 127.774,36.1774 131.5,36.5C 131.5,47.1667 131.5,57.8333 131.5,68.5C 129.167,68.5 126.833,68.5 124.5,68.5 Z"/></g>
<g><path style="opacity:1" fill="#371b26" d="M 315.5,31.5 C 317.194,32.5274 318.527,33.8608 319.5,35.5C 319.5,36.8333 319.5,38.1667 319.5,39.5C 318.186,36.8721 316.853,34.2054 315.5,31.5 Z"/></g>
<g><path style="opacity:1" fill="#bccae9" d="M 392.5,31.5 C 398.346,33.3439 402.68,37.0105 405.5,42.5C 404.175,41.0474 403.342,41.3808 403,43.5C 400.835,38.3086 397.001,34.8086 391.5,33C 382.833,32.3333 374.167,32.3333 365.5,33C 363.051,33.7246 360.717,34.7246 358.5,36C 353.142,40.1759 350.476,45.8426 350.5,53C 350.194,58.415 351.694,63.2483 355,67.5C 356.079,69.3937 357.413,69.727 359,68.5C 360.356,70.4089 361.856,72.0755 363.5,73.5C 358.602,72.6507 354.602,70.3174 351.5,66.5C 347.543,57.4681 347.543,48.4681 351.5,39.5C 353.607,37.2733 355.94,35.2733 358.5,33.5C 369.626,30.3099 380.959,29.6432 392.5,31.5 Z"/></g>
<g><path style="opacity:1" fill="#f8f8fc" d="M 4.5,4.5 C 57.1667,4.5 109.833,4.5 162.5,4.5C 162.5,7.16667 162.5,9.83333 162.5,12.5C 160.757,14.4074 159.757,16.7407 159.5,19.5C 161.207,24.7343 161.707,30.0676 161,35.5C 160.667,34.1667 160.333,32.8333 160,31.5C 158.82,32.6841 157.32,33.3507 155.5,33.5C 141.182,32.4022 126.849,32.2355 112.5,33C 108.585,33.3911 107.585,35.2245 109.5,38.5C 109.36,40.0296 108.693,41.0296 107.5,41.5C 108.608,38.3018 107.274,36.6351 103.5,36.5C 95.8229,33.6306 89.8229,35.6306 85.5,42.5C 84.3659,44.9664 84.1993,47.633 85,50.5C 85.3826,51.056 85.8826,51.3893 86.5,51.5C 88.8652,53.8603 91.5319,55.8603 94.5,57.5C 95.8943,59.5819 95.561,61.2486 93.5,62.5C 90.1667,62.1667 86.8333,61.8333 83.5,61.5C 83.5,60.1667 83.5,58.8333 83.5,57.5C 81.2776,57.822 79.4443,57.1554 78,55.5C 77.8253,52.8428 77.9919,50.1761 78.5,47.5C 78.9707,45.4214 79.6373,43.4214 80.5,41.5C 82.0428,40.2642 83.0428,38.5976 83.5,36.5C 83.0004,35.1195 82.0004,34.4528 80.5,34.5C 75.7496,35.8086 71.0829,36.1419 66.5,35.5C 64.6672,35.5854 63.3339,36.2521 62.5,37.5C 59.4335,41.9092 56.7668,46.5759 54.5,51.5C 53.3556,53.1002 52.1889,54.7669 51,56.5C 50.5004,49.8417 50.3337,43.175 50.5,36.5C 45.6842,35.3503 40.6842,35.1837 35.5,36C 36.6934,37.0946 38.0267,37.928 39.5,38.5C 40.1174,38.6107 40.6174,38.944 41,39.5C 41.4998,49.1609 41.6665,58.8276 41.5,68.5C 44.7131,68.81 47.7131,68.4767 50.5,67.5C 53.9045,63.7049 56.5712,59.3715 58.5,54.5C 61.075,51.681 63.4083,48.681 65.5,45.5C 67.144,44.6343 68.8107,44.1343 70.5,44C 69.5939,45.6995 69.2606,47.5328 69.5,49.5C 67.1018,55.6951 65.1018,62.0285 63.5,68.5C 66.9758,69.6433 70.6425,69.8099 74.5,69C 73.0386,66.0148 73.7053,63.5148 76.5,61.5C 77.1854,64.6779 78.1854,67.6779 79.5,70.5C 56.3358,70.9678 33.0025,71.6344 9.5,72.5C 9.5,72.8333 9.5,73.1667 9.5,73.5C 8.5041,73.5858 7.67076,73.2524 7,72.5C 6.50025,81.1603 6.33358,89.8269 6.5,98.5C 58.0027,98.8322 109.336,98.4989 160.5,97.5C 161.167,98.1667 161.833,98.8333 162.5,99.5C 162.5,99.8333 162.5,100.167 162.5,100.5C 109.833,100.5 57.1667,100.5 4.5,100.5C 4.5,68.5 4.5,36.5 4.5,4.5 Z"/></g>
<g><path style="opacity:1" fill="#201e6a" d="M 80.5,41.5 C 79.6373,43.4214 78.9707,45.4214 78.5,47.5C 76.2408,54.0551 73.9075,60.7218 71.5,67.5C 68.9135,68.48 66.2469,68.8134 63.5,68.5C 65.1018,62.0285 67.1018,55.6951 69.5,49.5C 70.6803,45.4961 72.1803,41.4961 74,37.5C 76.3806,36.565 78.8806,36.2317 81.5,36.5C 81.3713,38.2161 81.038,39.8828 80.5,41.5 Z"/></g>
<g><path style="opacity:1" fill="#363274" d="M 50.5,36.5 C 50.3337,43.175 50.5004,49.8417 51,56.5C 52.1889,54.7669 53.3556,53.1002 54.5,51.5C 54.9807,55.3491 53.314,57.3491 49.5,57.5C 49.5,59.5 49.5,61.5 49.5,63.5C 48.5,63.5 47.5,63.5 46.5,63.5C 46.5752,60.5933 47.4086,57.9266 49,55.5C 49.7876,49.7805 49.6209,44.1138 48.5,38.5C 46.5,37.1667 44.5,37.1667 42.5,38.5C 43.3074,47.786 43.8074,57.1193 44,66.5C 46.0408,67.4231 48.2075,67.7564 50.5,67.5C 47.7131,68.4767 44.7131,68.81 41.5,68.5C 41.6665,58.8276 41.4998,49.1609 41,39.5C 40.6174,38.944 40.1174,38.6107 39.5,38.5C 42.6843,36.5864 46.351,35.9197 50.5,36.5 Z"/></g>
<g><path style="opacity:1" fill="#27256e" d="M 65.5,45.5 C 63.4083,48.681 61.075,51.681 58.5,54.5C 59.8264,51.999 60.3264,49.3323 60,46.5C 57.7609,47.8889 55.9276,49.5556 54.5,51.5C 56.7668,46.5759 59.4335,41.9092 62.5,37.5C 64.717,36.6314 67.0504,36.298 69.5,36.5C 67.92,39.3321 66.5866,42.3321 65.5,45.5 Z"/></g>
<g><path style="opacity:1" fill="#1c1b6f" d="M 54.5,51.5 C 55.9276,49.5556 57.7609,47.8889 60,46.5C 60.3264,49.3323 59.8264,51.999 58.5,54.5C 56.5712,59.3715 53.9045,63.7049 50.5,67.5C 48.2075,67.7564 46.0408,67.4231 44,66.5C 43.8074,57.1193 43.3074,47.786 42.5,38.5C 44.5,37.1667 46.5,37.1667 48.5,38.5C 49.6209,44.1138 49.7876,49.7805 49,55.5C 47.4086,57.9266 46.5752,60.5933 46.5,63.5C 47.5,63.5 48.5,63.5 49.5,63.5C 49.5,61.5 49.5,59.5 49.5,57.5C 53.314,57.3491 54.9807,55.3491 54.5,51.5 Z"/></g>
<g><path style="opacity:1" fill="#d1d5e7" d="M 80.5,41.5 C 81.038,39.8828 81.3713,38.2161 81.5,36.5C 78.8806,36.2317 76.3806,36.565 74,37.5C 72.1803,41.4961 70.6803,45.4961 69.5,49.5C 69.2606,47.5328 69.5939,45.6995 70.5,44C 68.8107,44.1343 67.144,44.6343 65.5,45.5C 66.5866,42.3321 67.92,39.3321 69.5,36.5C 67.0504,36.298 64.717,36.6314 62.5,37.5C 63.3339,36.2521 64.6672,35.5854 66.5,35.5C 71.0829,36.1419 75.7496,35.8086 80.5,34.5C 82.0004,34.4528 83.0004,35.1195 83.5,36.5C 83.0428,38.5976 82.0428,40.2642 80.5,41.5 Z"/></g>
<g><path style="opacity:1" fill="#8a88ad" d="M 50.5,36.5 C 46.351,35.9197 42.6843,36.5864 39.5,38.5C 38.0267,37.928 36.6934,37.0946 35.5,36C 40.6842,35.1837 45.6842,35.3503 50.5,36.5 Z"/></g>
<g><path style="opacity:1" fill="#baceeb" d="M 409.5,31.5 C 424.17,31.3334 438.837,31.5001 453.5,32C 455.584,32.6972 457.251,33.8639 458.5,35.5C 459.73,37.2972 460.396,39.2972 460.5,41.5C 459.833,43.5 459.167,45.5 458.5,47.5C 458.167,47.5 457.833,47.5 457.5,47.5C 458.221,44.1825 458.388,40.8492 458,37.5C 456.005,35.8231 453.839,34.3231 451.5,33C 437.837,32.5001 424.171,32.3334 410.5,32.5C 410.5,38.1667 410.5,43.8333 410.5,49.5C 425.536,49.7848 440.536,49.4515 455.5,48.5C 454.942,49.7899 453.942,50.6232 452.5,51C 438.171,51.4999 423.837,51.6666 409.5,51.5C 409.5,44.8333 409.5,38.1667 409.5,31.5 Z"/></g>
<g><path style="opacity:1" fill="#19074a" d="M 319.5,35.5 C 318.527,33.8608 317.194,32.5274 315.5,31.5C 314.5,29.5 313.5,27.5 312.5,25.5C 313.496,25.4142 314.329,25.7476 315,26.5C 317.68,24.3387 318.18,25.172 316.5,29C 318.454,30.7411 319.454,32.9078 319.5,35.5 Z"/></g>
<g><path style="opacity:1" fill="#cd300b" d="M 243.5,19.5 C 243.427,21.0269 244.094,22.0269 245.5,22.5C 247.658,24.22 250.325,25.0533 253.5,25C 254.293,26.0852 254.96,27.2519 255.5,28.5C 250.208,29.4948 244.875,29.8282 239.5,29.5C 239.5,30.8333 239.5,32.1667 239.5,33.5C 245.842,33.3338 252.175,33.5005 258.5,34C 259.38,35.3561 259.714,36.8561 259.5,38.5C 251.097,37.8665 243.097,38.5332 235.5,40.5C 243.952,42.1555 252.619,43.1555 261.5,43.5C 252.5,43.5 243.5,43.5 234.5,43.5C 232.833,43.5 231.167,43.5 229.5,43.5C 229.5,43.1667 229.5,42.8333 229.5,42.5C 231.042,41.8365 232.709,41.1698 234.5,40.5C 233.641,38.4609 234.474,37.1275 237,36.5C 243.795,37.6116 250.629,37.7783 257.5,37C 251.424,35.8546 245.257,35.0213 239,34.5C 237.832,31.1074 238.666,28.4408 241.5,26.5C 242.606,24.7156 242.606,22.8822 241.5,21C 241.836,19.9701 242.503,19.4701 243.5,19.5 Z"/></g>
<g><path style="opacity:1" fill="#7b0830" d="M 195.5,15.5 C 193.473,18.1939 191.139,20.5272 188.5,22.5C 183.22,28.4358 179.22,35.1024 176.5,42.5C 176.91,38.6133 177.91,34.9466 179.5,31.5C 181.707,27.4459 184.54,23.7793 188,20.5C 190.4,18.5854 192.9,16.9188 195.5,15.5 Z"/></g>
<g><path style="opacity:1" fill="#271025" d="M 305.5,19.5 C 305.5,19.1667 305.5,18.8333 305.5,18.5C 305.833,18.5 306.167,18.5 306.5,18.5C 308.262,19.2623 309.262,20.5956 309.5,22.5C 308.167,21.5 306.833,20.5 305.5,19.5 Z"/></g>
<g><path style="opacity:1" fill="#330c31" d="M 255.5,14.5 C 255.5,14.8333 255.5,15.1667 255.5,15.5C 253.031,16.5686 250.698,17.9019 248.5,19.5C 246.147,18.6597 244.147,17.3264 242.5,15.5C 245.638,16.6813 248.638,16.6813 251.5,15.5C 252.708,14.7659 254.041,14.4326 255.5,14.5 Z"/></g>
<g><path style="opacity:1" fill="#db9639" d="M 286.5,10.5 C 288.806,10.9926 291.139,11.3259 293.5,11.5C 297.465,13.8184 301.465,16.1517 305.5,18.5C 305.5,18.8333 305.5,19.1667 305.5,19.5C 300.743,17.9569 296.076,16.1235 291.5,14C 289.416,13.3028 287.749,12.1361 286.5,10.5 Z"/></g>
<g><path style="opacity:1" fill="#fa9809" d="M 270.5,9.5 C 275.88,9.32429 281.213,9.65762 286.5,10.5C 287.749,12.1361 289.416,13.3028 291.5,14C 296.076,16.1235 300.743,17.9569 305.5,19.5C 306.833,20.5 308.167,21.5 309.5,22.5C 310.167,23.5 310.833,24.5 311.5,25.5C 312.866,29.9068 314.532,34.2401 316.5,38.5C 314.234,39.3142 311.9,39.8142 309.5,40C 307.665,40.9277 307.332,42.0944 308.5,43.5C 301.858,44.6642 295.192,44.8309 288.5,44C 288.043,43.586 287.709,43.086 287.5,42.5C 290.433,40.2619 290.099,39.2619 286.5,39.5C 286.5,40.8333 286.5,42.1667 286.5,43.5C 283.813,43.6641 281.146,43.4974 278.5,43C 277.114,41.3968 275.281,40.5634 273,40.5C 271.293,40.5085 269.793,40.8418 268.5,41.5C 267.128,42.5116 265.795,43.5116 264.5,44.5C 263.5,44.5 262.5,44.5 261.5,44.5C 261.5,44.1667 261.5,43.8333 261.5,43.5C 252.619,43.1555 243.952,42.1555 235.5,40.5C 243.599,39.8618 251.599,39.1952 259.5,38.5C 259.714,36.8561 259.38,35.3561 258.5,34C 252.175,33.5005 245.842,33.3338 239.5,33.5C 239.5,32.1667 239.5,30.8333 239.5,29.5C 244.875,29.8282 250.208,29.4948 255.5,28.5C 254.96,27.2519 254.293,26.0852 253.5,25C 250.325,25.0533 247.658,24.22 245.5,22.5C 246.833,21.8333 247.833,20.8333 248.5,19.5C 250.698,17.9019 253.031,16.5686 255.5,15.5C 260.234,12.7584 265.234,10.7584 270.5,9.5 Z"/></g>
<g><path style="opacity:1" fill="#a16f42" d="M 269.5,9.5 C 269.833,9.5 270.167,9.5 270.5,9.5C 265.234,10.7584 260.234,12.7584 255.5,15.5C 255.5,15.1667 255.5,14.8333 255.5,14.5C 258.074,12.9757 260.741,11.6424 263.5,10.5C 265.5,10.1667 267.5,9.83333 269.5,9.5 Z"/></g>
<g><path style="opacity:1" fill="#ca0205" d="M 243.5,19.5 C 242.503,19.4701 241.836,19.9701 241.5,21C 242.606,22.8822 242.606,24.7156 241.5,26.5C 238.666,28.4408 237.832,31.1074 239,34.5C 245.257,35.0213 251.424,35.8546 257.5,37C 250.629,37.7783 243.795,37.6116 237,36.5C 234.474,37.1275 233.641,38.4609 234.5,40.5C 232.709,41.1698 231.042,41.8365 229.5,42.5C 225.525,41.8578 222.192,42.8578 219.5,45.5C 219.5,46.1667 219.167,46.5 218.5,46.5C 217.127,46.6567 215.793,46.49 214.5,46C 210.853,42.6174 206.52,41.1174 201.5,41.5C 198.941,41.1984 196.607,41.5318 194.5,42.5C 193.036,43.4054 191.702,43.4054 190.5,42.5C 188.034,41.3659 185.367,41.1993 182.5,42C 181.62,43.3561 181.286,44.8561 181.5,46.5C 181.5,46.8333 181.5,47.1667 181.5,47.5C 181.167,47.5 180.833,47.5 180.5,47.5C 179.257,49.9636 178.257,52.6303 177.5,55.5C 176.508,51.2172 176.174,46.8839 176.5,42.5C 179.22,35.1024 183.22,28.4358 188.5,22.5C 191.817,21.6946 194.483,19.8612 196.5,17C 201.167,16.6667 205.833,16.3333 210.5,16C 211.833,15.3333 211.833,14.6667 210.5,14C 209.167,13.6667 207.833,13.3333 206.5,13C 215.167,12.3333 223.833,12.3333 232.5,13C 236.096,15.4786 239.763,17.6452 243.5,19.5 Z"/></g>
<g><path style="opacity:1" fill="#100e63" d="M 168.5,3.5 C 167.791,4.40397 166.791,4.73731 165.5,4.5C 165.832,36.3377 165.498,68.0044 164.5,99.5C 164.5,67.5 164.5,35.5 164.5,3.5C 165.833,3.5 167.167,3.5 168.5,3.5 Z"/></g>
<g><path style="opacity:1" fill="#fafbfb" d="M 162.5,12.5 C 162.5,41.5 162.5,70.5 162.5,99.5C 161.833,98.8333 161.167,98.1667 160.5,97.5C 160.5,88.8333 160.5,80.1667 160.5,71.5C 147.653,72.1207 134.986,71.4541 122.5,69.5C 118.759,71.3308 114.759,71.9975 110.5,71.5C 111.687,69.0246 113.687,68.0246 116.5,68.5C 116.33,67.1779 116.663,66.0113 117.5,65C 119.218,64.654 120.885,64.154 122.5,63.5C 123.17,65.2914 123.837,66.9581 124.5,68.5C 126.833,68.5 129.167,68.5 131.5,68.5C 131.5,57.8333 131.5,47.1667 131.5,36.5C 127.774,36.1774 124.107,36.5108 120.5,37.5C 118.77,40.8698 117.103,44.2031 115.5,47.5C 114.326,48.5137 113.66,49.847 113.5,51.5C 111.53,54.4792 109.53,57.4792 107.5,60.5C 106.504,60.5858 105.671,60.2524 105,59.5C 104.79,57.9419 104.29,56.6085 103.5,55.5C 103.141,53.629 102.141,52.129 100.5,51C 97.8936,50.2082 95.8936,48.7082 94.5,46.5C 94.8153,42.1996 97.1486,40.533 101.5,41.5C 103.549,42.6414 105.549,42.6414 107.5,41.5C 108.693,41.0296 109.36,40.0296 109.5,38.5C 107.585,35.2245 108.585,33.3911 112.5,33C 126.849,32.2355 141.182,32.4022 155.5,33.5C 157.32,33.3507 158.82,32.6841 160,31.5C 160.333,32.8333 160.667,34.1667 161,35.5C 161.707,30.0676 161.207,24.7343 159.5,19.5C 159.757,16.7407 160.757,14.4074 162.5,12.5 Z"/></g>
<g><path style="opacity:1" fill="#8083af" d="M 123.5,50.5 C 124.468,52.6074 124.802,54.9407 124.5,57.5C 121.833,57.5 119.167,57.5 116.5,57.5C 116.433,56.0413 116.766,54.7079 117.5,53.5C 117.833,53.5 118.167,53.5 118.5,53.5C 118.586,54.4959 118.252,55.3292 117.5,56C 119.473,56.4955 121.473,56.6621 123.5,56.5C 123.5,54.5 123.5,52.5 123.5,50.5 Z"/></g>
<g><path style="opacity:1" fill="#dcdef0" d="M 123.5,50.5 C 123.5,52.5 123.5,54.5 123.5,56.5C 121.473,56.6621 119.473,56.4955 117.5,56C 118.252,55.3292 118.586,54.4959 118.5,53.5C 119.295,50.5766 120.628,47.9099 122.5,45.5C 123.452,47.0453 123.785,48.712 123.5,50.5 Z"/></g>
<g><path style="opacity:1" fill="#030b61" d="M 472.5,35.5 C 472.5,36.1667 472.5,36.8333 472.5,37.5C 471.662,37.8417 471.328,38.5084 471.5,39.5C 468.552,39.2229 465.719,39.5562 463,40.5C 461.88,38.9698 461.046,37.3032 460.5,35.5C 461.434,34.4324 461.768,33.099 461.5,31.5C 444.9,30.0176 428.233,29.0176 411.5,28.5C 415.278,26.7448 419.278,26.0781 423.5,26.5C 423.5,25.5 423.5,24.5 423.5,23.5C 420.998,23.2505 418.498,22.9172 416,22.5C 413.192,22.841 410.692,23.841 408.5,25.5C 407.228,25.4302 406.062,25.0968 405,24.5C 404.529,26.2464 403.862,27.913 403,29.5C 402.667,28.8333 402.333,28.1667 402,27.5C 395.923,28.4718 389.59,29.1385 383,29.5C 378.833,29.3333 374.667,29.1667 370.5,29C 370.167,28.6667 369.833,28.3333 369.5,28C 374.167,27.6667 378.833,27.3333 383.5,27C 380.746,25.4203 380.912,24.2536 384,23.5C 386.434,24.3223 388.934,24.6556 391.5,24.5C 391.187,21.7531 391.52,19.0865 392.5,16.5C 394.5,16.8333 396.5,17.1667 398.5,17.5C 400.547,15.9848 402.881,15.1515 405.5,15C 403.038,13.7844 400.371,13.1177 397.5,13C 399.5,12.6667 401.5,12.3333 403.5,12C 426.164,11.5 448.831,11.3334 471.5,11.5C 471.174,19.6841 471.508,27.6841 472.5,35.5 Z"/></g>
<g><path style="opacity:1" fill="#bd0a14" d="M 231.5,11.5 C 235.665,11.6642 239.332,12.9975 242.5,15.5C 244.147,17.3264 246.147,18.6597 248.5,19.5C 247.833,20.8333 246.833,21.8333 245.5,22.5C 244.094,22.0269 243.427,21.0269 243.5,19.5C 239.763,17.6452 236.096,15.4786 232.5,13C 223.833,12.3333 215.167,12.3333 206.5,13C 207.833,13.3333 209.167,13.6667 210.5,14C 211.833,14.6667 211.833,15.3333 210.5,16C 205.833,16.3333 201.167,16.6667 196.5,17C 194.483,19.8612 191.817,21.6946 188.5,22.5C 191.139,20.5272 193.473,18.1939 195.5,15.5C 196.873,15.6567 198.207,15.49 199.5,15C 201.431,14.0978 203.097,12.9312 204.5,11.5C 213.5,10.1667 222.5,10.1667 231.5,11.5 Z"/></g>
<g><path style="opacity:1" fill="#060c5e" d="M 472.5,8.5 C 472.5,17.5 472.5,26.5 472.5,35.5C 471.508,27.6841 471.174,19.6841 471.5,11.5C 448.831,11.3334 426.164,11.5 403.5,12C 401.5,12.3333 399.5,12.6667 397.5,13C 400.371,13.1177 403.038,13.7844 405.5,15C 402.881,15.1515 400.547,15.9848 398.5,17.5C 396.5,17.1667 394.5,16.8333 392.5,16.5C 391.52,19.0865 391.187,21.7531 391.5,24.5C 388.934,24.6556 386.434,24.3223 384,23.5C 380.912,24.2536 380.746,25.4203 383.5,27C 378.833,27.3333 374.167,27.6667 369.5,28C 369.833,28.3333 370.167,28.6667 370.5,29C 374.667,29.1667 378.833,29.3333 383,29.5C 389.59,29.1385 395.923,28.4718 402,27.5C 402.333,28.1667 402.667,28.8333 403,29.5C 403.862,27.913 404.529,26.2464 405,24.5C 406.062,25.0968 407.228,25.4302 408.5,25.5C 410.692,23.841 413.192,22.841 416,22.5C 418.498,22.9172 420.998,23.2505 423.5,23.5C 423.5,24.5 423.5,25.5 423.5,26.5C 419.278,26.0781 415.278,26.7448 411.5,28.5C 428.233,29.0176 444.9,30.0176 461.5,31.5C 461.768,33.099 461.434,34.4324 460.5,35.5C 459.833,35.5 459.167,35.5 458.5,35.5C 457.251,33.8639 455.584,32.6972 453.5,32C 438.837,31.5001 424.17,31.3334 409.5,31.5C 408.527,33.9479 408.194,36.6146 408.5,39.5C 404.34,34.7531 399.007,32.0864 392.5,31.5C 380.959,29.6432 369.626,30.3099 358.5,33.5C 356.669,34.0522 355.003,34.0522 353.5,33.5C 352.614,34.325 352.281,35.325 352.5,36.5C 348.785,36.3203 345.118,36.6536 341.5,37.5C 340.133,36.7745 338.8,36.1079 337.5,35.5C 337.182,26.2494 337.515,17.0828 338.5,8C 383.238,7.17247 427.904,7.33913 472.5,8.5 Z"/></g>
<g><path style="opacity:1" fill="#543435" d="M 269.5,9.5 C 277.039,8.22181 284.705,8.38847 292.5,10C 293.056,10.3826 293.389,10.8826 293.5,11.5C 291.139,11.3259 288.806,10.9926 286.5,10.5C 281.213,9.65762 275.88,9.32429 270.5,9.5C 270.167,9.5 269.833,9.5 269.5,9.5 Z"/></g>
<g><path style="opacity:1" fill="#595b90" d="M 157.5,30.5 C 108.336,31.4989 59.0028,31.8322 9.5,31.5C 9.5,23.5 9.5,15.5 9.5,7.5C 59.1667,7.5 108.833,7.5 158.5,7.5C 158.825,15.3516 158.492,23.0182 157.5,30.5 Z"/></g>
<g><path style="opacity:1" fill="#181c61" d="M 11.5,8.5 C 11.5,15.5 11.5,22.5 11.5,29.5C 59.8333,29.5 108.167,29.5 156.5,29.5C 156.833,29.5 157.167,29.5 157.5,29.5C 157.5,29.8333 157.5,30.1667 157.5,30.5C 108.5,30.5 59.5,30.5 10.5,30.5C 10.175,22.9809 10.5084,15.6476 11.5,8.5 Z"/></g>
<g><path style="opacity:1" fill="#1a1c74" d="M 11.5,8.5 C 12.1667,8.5 12.8333,8.5 13.5,8.5C 60.0018,9.16667 106.668,9.83333 153.5,10.5C 154.242,11.2868 155.075,11.9535 156,12.5C 156.499,18.1569 156.666,23.8236 156.5,29.5C 108.167,29.5 59.8333,29.5 11.5,29.5C 11.5,22.5 11.5,15.5 11.5,8.5 Z"/></g>
<g><path style="opacity:1" fill="#101360" d="M 13.5,8.5 C 61.5,8.5 109.5,8.5 157.5,8.5C 157.5,15.5 157.5,22.5 157.5,29.5C 157.167,29.5 156.833,29.5 156.5,29.5C 156.666,23.8236 156.499,18.1569 156,12.5C 155.075,11.9535 154.242,11.2868 153.5,10.5C 106.668,9.83333 60.0018,9.16667 13.5,8.5 Z"/></g>
<g><path style="opacity:1" fill="#000545" d="M 336.5,6.5 C 382.179,5.8384 427.512,6.50507 472.5,8.5C 427.904,7.33913 383.238,7.17247 338.5,8C 337.515,17.0828 337.182,26.2494 337.5,35.5C 337.167,35.5 336.833,35.5 336.5,35.5C 336.5,25.8333 336.5,16.1667 336.5,6.5 Z"/></g>
<g><path style="opacity:1" fill="#10054f" d="M 306.5,18.5 C 306.167,18.5 305.833,18.5 305.5,18.5C 301.465,16.1517 297.465,13.8184 293.5,11.5C 293.389,10.8826 293.056,10.3826 292.5,10C 284.705,8.38847 277.039,8.22181 269.5,9.5C 267.5,9.83333 265.5,10.1667 263.5,10.5C 264.765,9.52066 266.099,8.52066 267.5,7.5C 273.807,6.33608 280.141,6.16941 286.5,7C 290.711,8.37485 295.044,9.54152 299.5,10.5C 299.291,11.086 298.957,11.586 298.5,12C 299.665,13.0836 300.998,13.9169 302.5,14.5C 303.696,14.1543 303.696,13.6543 302.5,13C 305.167,12.3333 307.833,12.3333 310.5,13C 311.535,14.5069 311.368,16.0069 310,17.5C 309.481,16.4844 308.647,15.8178 307.5,15.5C 305.197,15.8763 304.863,16.8763 306.5,18.5 Z"/></g>
<g><path style="opacity:1" fill="#080264" d="M 168.5,3.5 C 222.5,3.5 276.5,3.5 330.5,3.5C 330.5,3.83333 330.5,4.16667 330.5,4.5C 299.832,4.33335 269.165,4.50002 238.5,5C 236.709,5.41524 235.376,6.41524 234.5,8C 236.857,10.2576 239.523,11.5909 242.5,12C 239.835,9.28914 240.502,8.28914 244.5,9C 246.219,10.8705 247.219,13.0372 247.5,15.5C 248.833,15.5 250.167,15.5 251.5,15.5C 248.638,16.6813 245.638,16.6813 242.5,15.5C 239.332,12.9975 235.665,11.6642 231.5,11.5C 227.104,9.96688 222.437,9.30021 217.5,9.5C 214.167,9.66667 210.833,9.83333 207.5,10C 206.263,10.2321 205.263,10.7321 204.5,11.5C 201.053,12.083 198.053,13.4163 195.5,15.5C 192.9,16.9188 190.4,18.5854 188,20.5C 184.54,23.7793 181.707,27.4459 179.5,31.5C 177.917,32.9355 176.417,34.6022 175,36.5C 174.333,45.8333 174.333,55.1667 175,64.5C 176.309,66.6864 176.476,68.8531 175.5,71C 177.133,71.4796 178.466,72.3129 179.5,73.5C 180.167,73.8333 180.833,74.1667 181.5,74.5C 183.442,79.4412 186.775,83.1078 191.5,85.5C 192.167,86.5 192.833,87.5 193.5,88.5C 194.502,90.0109 195.169,91.6776 195.5,93.5C 190.9,93.3451 190.567,94.0118 194.5,95.5C 198.801,94.687 203.134,94.687 207.5,95.5C 215.323,96.6561 223.323,96.8228 231.5,96C 234.989,94.3502 238.322,92.5169 241.5,90.5C 242.167,89.5 242.833,88.5 243.5,87.5C 245.315,86.3702 247.315,85.7036 249.5,85.5C 249.833,86.1667 250.167,86.8333 250.5,87.5C 253.163,91.1271 256.83,93.1271 261.5,93.5C 261.5,93.8333 261.5,94.1667 261.5,94.5C 261.64,96.1238 260.973,97.2904 259.5,98C 262.036,98.3392 264.536,98.8392 267,99.5C 287.795,99.2391 308.629,99.2391 329.5,99.5C 274.669,100.499 219.669,100.832 164.5,100.5C 164.5,100.167 164.5,99.8333 164.5,99.5C 165.498,68.0044 165.832,36.3377 165.5,4.5C 166.791,4.73731 167.791,4.40397 168.5,3.5 Z"/></g>
<g><path style="opacity:1" fill="#34003f" d="M 241.5,90.5 C 238.322,92.5169 234.989,94.3502 231.5,96C 223.323,96.8228 215.323,96.6561 207.5,95.5C 214.022,95.8235 220.355,95.4902 226.5,94.5C 231.471,93.3394 236.471,92.0061 241.5,90.5 Z"/></g>
<g><path style="opacity:1" fill="#850d32" d="M 205.5,93.5 C 212.465,94.3409 219.465,94.6743 226.5,94.5C 220.355,95.4902 214.022,95.8235 207.5,95.5C 206.833,94.8333 206.167,94.1667 205.5,93.5 Z"/></g>
<g><path style="opacity:1" fill="#210254" d="M 193.5,88.5 C 194.391,89.1098 195.391,89.4431 196.5,89.5C 199.5,90.8333 202.5,92.1667 205.5,93.5C 206.167,94.1667 206.833,94.8333 207.5,95.5C 203.134,94.687 198.801,94.687 194.5,95.5C 190.567,94.0118 190.9,93.3451 195.5,93.5C 195.169,91.6776 194.502,90.0109 193.5,88.5 Z"/></g>
<g><path style="opacity:1" fill="#860d37" d="M 243.5,87.5 C 242.833,88.5 242.167,89.5 241.5,90.5C 236.471,92.0061 231.471,93.3394 226.5,94.5C 227.833,93.8333 229.167,93.1667 230.5,92.5C 234.93,91.1198 239.263,89.4531 243.5,87.5 Z"/></g>
<g><path style="opacity:1" fill="#b90a1b" d="M 193.5,85.5 C 199.615,87.4847 205.615,89.9847 211.5,93C 217.845,93.4437 224.178,93.277 230.5,92.5C 229.167,93.1667 227.833,93.8333 226.5,94.5C 219.465,94.6743 212.465,94.3409 205.5,93.5C 202.5,92.1667 199.5,90.8333 196.5,89.5C 195.5,88.1667 194.5,86.8333 193.5,85.5 Z"/></g>
<g><path style="opacity:1" fill="#7b0633" d="M 191.5,85.5 C 192.167,85.5 192.833,85.5 193.5,85.5C 194.5,86.8333 195.5,88.1667 196.5,89.5C 195.391,89.4431 194.391,89.1098 193.5,88.5C 192.833,87.5 192.167,86.5 191.5,85.5 Z"/></g>
<g><path style="opacity:1" fill="#820732" d="M 204.5,11.5 C 203.097,12.9312 201.431,14.0978 199.5,15C 198.207,15.49 196.873,15.6567 195.5,15.5C 198.053,13.4163 201.053,12.083 204.5,11.5 Z"/></g>
<g><path style="opacity:1" fill="#9a0e29" d="M 231.5,11.5 C 222.5,10.1667 213.5,10.1667 204.5,11.5C 205.263,10.7321 206.263,10.2321 207.5,10C 210.833,9.83333 214.167,9.66667 217.5,9.5C 222.437,9.30021 227.104,9.96688 231.5,11.5 Z"/></g>
</svg>
