<?xml version="1.0" encoding="UTF-8"?>
<!DOCTYPE svg PUBLIC "-//W3C//DTD SVG 1.1//EN" "http://www.w3.org/Graphics/SVG/1.1/DTD/svg11.dtd">
<svg xmlns="http://www.w3.org/2000/svg" version="1.1" width="512px" height="512px" style="shape-rendering:geometricPrecision; text-rendering:geometricPrecision; image-rendering:optimizeQuality; fill-rule:evenodd; clip-rule:evenodd" xmlns:xlink="http://www.w3.org/1999/xlink">
<g><path style="opacity:0.998" fill="#0c0c0c" d="M 232.5,-0.5 C 239.833,-0.5 247.167,-0.5 254.5,-0.5C 254.5,32.1667 254.5,64.8333 254.5,97.5C 272.008,97.17 289.341,97.5033 306.5,98.5C 289.5,98.5 272.5,98.5 255.5,98.5C 254.83,169.736 254.164,241.069 253.5,312.5C 243.314,342.929 222.647,353.929 191.5,345.5C 190.5,345.167 189.833,344.5 189.5,343.5C 178.311,322.603 180.644,303.436 196.5,286C 207.795,277.704 220.462,274.537 234.5,276.5C 235.568,277.434 236.901,277.768 238.5,277.5C 238.5,268.5 238.5,259.5 238.5,250.5C 238.5,241.5 238.5,232.5 238.5,223.5C 233.833,223.5 229.167,223.5 224.5,223.5C 224.5,219.167 224.5,214.833 224.5,210.5C 170.479,206.084 134.645,229.418 117,280.5C 108.121,318.5 117.621,351 145.5,378C 147.734,379.75 150.068,381.25 152.5,382.5C 155.126,384.823 157.793,387.157 160.5,389.5C 172.799,402.322 187.799,410.488 205.5,414C 222.054,416.505 238.387,415.672 254.5,411.5C 254.5,444.833 254.5,478.167 254.5,511.5C 247.167,511.5 239.833,511.5 232.5,511.5C 142.854,500.611 75.3537,456.278 30,378.5C 13.3053,347.029 3.1386,313.696 -0.5,278.5C -0.5,263.167 -0.5,247.833 -0.5,232.5C 10.3875,142.857 54.7208,75.3573 132.5,30C 163.971,13.3053 197.304,3.1386 232.5,-0.5 Z"/></g>
<g><path style="opacity:0.994" fill="#000000" d="M 254.5,-0.5 C 262.5,-0.5 270.5,-0.5 278.5,-0.5C 368.144,10.3879 435.644,54.7213 481,132.5C 497.695,163.971 507.861,197.304 511.5,232.5C 511.5,247.833 511.5,263.167 511.5,278.5C 500.612,368.144 456.279,435.644 378.5,481C 347.029,497.695 313.696,507.861 278.5,511.5C 270.5,511.5 262.5,511.5 254.5,511.5C 254.5,478.167 254.5,444.833 254.5,411.5C 254.833,411.5 255.167,411.5 255.5,411.5C 294.275,396.873 316.109,368.873 321,327.5C 321.499,323.179 321.666,318.846 321.5,314.5C 322.167,281.167 322.833,247.833 323.5,214.5C 344.806,229.157 368.473,236.824 394.5,237.5C 394.667,219.83 394.5,202.164 394,184.5C 389.142,183.325 384.309,181.992 379.5,180.5C 379.5,179.833 379.167,179.5 378.5,179.5C 378.5,176.5 378.5,173.5 378.5,170.5C 366.101,170.034 354.768,166.367 344.5,159.5C 339.514,156.179 335.18,152.179 331.5,147.5C 331.262,145.596 330.262,144.262 328.5,143.5C 321.921,133.671 316.921,123.004 313.5,111.5C 311.955,110.548 310.288,110.215 308.5,110.5C 307.197,106.618 306.53,102.618 306.5,98.5C 289.341,97.5033 272.008,97.17 254.5,97.5C 254.5,64.8333 254.5,32.1667 254.5,-0.5 Z"/></g>
<g><path style="opacity:1" fill="#21e1e4" d="M 255.5,98.5 C 255.5,182.167 255.5,265.833 255.5,349.5C 255.5,349.833 255.5,350.167 255.5,350.5C 255.167,350.5 254.833,350.5 254.5,350.5C 254.829,337.656 254.495,324.989 253.5,312.5C 254.164,241.069 254.83,169.736 255.5,98.5 Z"/></g>
<g><path style="opacity:1" fill="#1fcccf" d="M 255.5,98.5 C 272.5,98.5 289.5,98.5 306.5,98.5C 306.53,102.618 307.197,106.618 308.5,110.5C 308.5,110.833 308.5,111.167 308.5,111.5C 295.5,111.5 282.5,111.5 269.5,111.5C 269.667,182.834 269.5,254.167 269,325.5C 266.793,334.926 262.293,342.926 255.5,349.5C 255.5,265.833 255.5,182.167 255.5,98.5 Z"/></g>
<g><path style="opacity:1" fill="#d3d3d3" d="M 308.5,111.5 C 313.652,123.143 320.319,133.81 328.5,143.5C 328.738,145.404 329.738,146.738 331.5,147.5C 335.18,152.179 339.514,156.179 344.5,159.5C 354.191,168.689 365.525,175.356 378.5,179.5C 379.167,179.5 379.5,179.833 379.5,180.5C 379.5,194.833 379.5,209.167 379.5,223.5C 352.977,223.936 329.144,216.269 308,200.5C 307.667,239.167 307.333,277.833 307,316.5C 301.702,349.915 284.535,374.915 255.5,391.5C 255.5,377.833 255.5,364.167 255.5,350.5C 255.5,350.167 255.5,349.833 255.5,349.5C 262.293,342.926 266.793,334.926 269,325.5C 269.5,254.167 269.667,182.834 269.5,111.5C 282.5,111.5 295.5,111.5 308.5,111.5 Z"/></g>
<g><path style="opacity:1" fill="#c02544" d="M 308.5,111.5 C 308.5,111.167 308.5,110.833 308.5,110.5C 310.288,110.215 311.955,110.548 313.5,111.5C 316.921,123.004 321.921,133.671 328.5,143.5C 320.319,133.81 313.652,123.143 308.5,111.5 Z"/></g>
<g><path style="opacity:1" fill="#b15764" d="M 328.5,143.5 C 330.262,144.262 331.262,145.596 331.5,147.5C 329.738,146.738 328.738,145.404 328.5,143.5 Z"/></g>
<g><path style="opacity:1" fill="#2cc8cb" d="M 344.5,159.5 C 354.768,166.367 366.101,170.034 378.5,170.5C 378.5,173.5 378.5,176.5 378.5,179.5C 365.525,175.356 354.191,168.689 344.5,159.5 Z"/></g>
<g><path style="opacity:1" fill="#d02246" d="M 379.5,180.5 C 384.309,181.992 389.142,183.325 394,184.5C 394.5,202.164 394.667,219.83 394.5,237.5C 368.473,236.824 344.806,229.157 323.5,214.5C 323.44,213.957 323.107,213.624 322.5,213.5C 321.5,247.16 321.167,280.827 321.5,314.5C 321.666,318.846 321.499,323.179 321,327.5C 316.109,368.873 294.275,396.873 255.5,411.5C 255.823,404.978 255.49,398.645 254.5,392.5C 254.5,391.833 254.833,391.5 255.5,391.5C 284.535,374.915 301.702,349.915 307,316.5C 307.333,277.833 307.667,239.167 308,200.5C 329.144,216.269 352.977,223.936 379.5,223.5C 379.5,209.167 379.5,194.833 379.5,180.5 Z"/></g>
<g><path style="opacity:1" fill="#28f3f6" d="M 224.5,223.5 C 175.272,225.902 144.438,250.902 132,298.5C 127.812,325.041 132.145,350.041 145,373.5C 147.335,376.665 149.835,379.665 152.5,382.5C 150.068,381.25 147.734,379.75 145.5,378C 117.621,351 108.121,318.5 117,280.5C 134.645,229.418 170.479,206.084 224.5,210.5C 224.5,214.833 224.5,219.167 224.5,223.5 Z"/></g>
<g><path style="opacity:1" fill="#fefefe" d="M 224.5,223.5 C 224.512,236.844 224.179,250.177 223.5,263.5C 193.306,259.343 174.472,272.01 167,301.5C 165.351,320.543 172.851,334.543 189.5,343.5C 189.833,344.5 190.5,345.167 191.5,345.5C 196.944,353.907 204.611,359.407 214.5,362C 229.882,364.66 243.215,360.827 254.5,350.5C 254.833,350.5 255.167,350.5 255.5,350.5C 255.5,364.167 255.5,377.833 255.5,391.5C 254.833,391.5 254.5,391.833 254.5,392.5C 228.632,403.136 202.299,404.303 175.5,396C 170.479,393.821 165.479,391.654 160.5,389.5C 157.793,387.157 155.126,384.823 152.5,382.5C 149.835,379.665 147.335,376.665 145,373.5C 132.145,350.041 127.812,325.041 132,298.5C 144.438,250.902 175.272,225.902 224.5,223.5 Z"/></g>
<g><path style="opacity:1" fill="#fb2a54" d="M 224.5,223.5 C 229.167,223.5 233.833,223.5 238.5,223.5C 238.5,232.5 238.5,241.5 238.5,250.5C 237.507,258.984 237.174,267.651 237.5,276.5C 236.5,276.5 235.5,276.5 234.5,276.5C 220.462,274.537 207.795,277.704 196.5,286C 180.644,303.436 178.311,322.603 189.5,343.5C 172.851,334.543 165.351,320.543 167,301.5C 174.472,272.01 193.306,259.343 223.5,263.5C 224.179,250.177 224.512,236.844 224.5,223.5 Z"/></g>
<g><path style="opacity:1" fill="#3b0a13" d="M 323.5,214.5 C 322.833,247.833 322.167,281.167 321.5,314.5C 321.167,280.827 321.5,247.16 322.5,213.5C 323.107,213.624 323.44,213.957 323.5,214.5 Z"/></g>
<g><path style="opacity:1" fill="#c12142" d="M 238.5,250.5 C 238.5,259.5 238.5,268.5 238.5,277.5C 236.901,277.768 235.568,277.434 234.5,276.5C 235.5,276.5 236.5,276.5 237.5,276.5C 237.174,267.651 237.507,258.984 238.5,250.5 Z"/></g>
<g><path style="opacity:1" fill="#29f3f7" d="M 253.5,312.5 C 254.495,324.989 254.829,337.656 254.5,350.5C 243.215,360.827 229.882,364.66 214.5,362C 204.611,359.407 196.944,353.907 191.5,345.5C 222.647,353.929 243.314,342.929 253.5,312.5 Z"/></g>
<g><path style="opacity:1" fill="#f92d55" d="M 160.5,389.5 C 165.479,391.654 170.479,393.821 175.5,396C 202.299,404.303 228.632,403.136 254.5,392.5C 255.49,398.645 255.823,404.978 255.5,411.5C 255.167,411.5 254.833,411.5 254.5,411.5C 238.387,415.672 222.054,416.505 205.5,414C 187.799,410.488 172.799,402.322 160.5,389.5 Z"/></g>
</svg>
