<?xml version="1.0" encoding="UTF-8"?>
<!DOCTYPE svg PUBLIC "-//W3C//DTD SVG 1.1//EN" "http://www.w3.org/Graphics/SVG/1.1/DTD/svg11.dtd">
<svg xmlns="http://www.w3.org/2000/svg" version="1.1" width="300px" height="162px" style="shape-rendering:geometricPrecision; text-rendering:geometricPrecision; image-rendering:optimizeQuality; fill-rule:evenodd; clip-rule:evenodd" xmlns:xlink="http://www.w3.org/1999/xlink">
<g><path style="opacity:1" fill="#f1f4f5" d="M -0.5,-0.5 C 11.5,-0.5 23.5,-0.5 35.5,-0.5C 35.5,0.5 35.5,1.5 35.5,2.5C 40.0598,2.27299 43.0598,4.27299 44.5,8.5C 45.9479,9.35391 47.2813,10.3539 48.5,11.5C 50.1168,10.3576 51.9501,9.69096 54,9.5C 59.6923,11.7867 65.5256,13.7867 71.5,15.5C 72.4147,16.3279 73.0814,17.3279 73.5,18.5C 73.2688,22.8312 71.9355,26.6645 69.5,30C 70.1495,31.6895 70.1495,33.5229 69.5,35.5C 64.058,36.4257 58.7246,37.759 53.5,39.5C 53.7213,43.7954 52.3879,44.4621 49.5,41.5C 47.0596,43.9222 44.7263,43.9222 42.5,41.5C 39.1011,43.3122 35.4344,43.9789 31.5,43.5C 31.7989,45.604 31.4656,47.604 30.5,49.5C 27.8333,47.5 25.1667,45.5 22.5,43.5C 20.4278,39.5234 17.9278,35.8568 15,32.5C 13.5886,30.3496 12.7553,28.0163 12.5,25.5C 8.49675,25.9948 5.49675,24.4948 3.5,21C 2.25501,20.2086 0.921673,19.7086 -0.5,19.5C -0.5,12.8333 -0.5,6.16667 -0.5,-0.5 Z"/></g>
<g><path style="opacity:1" fill="#171918" d="M 181.5,-0.5 C 184.167,-0.5 186.833,-0.5 189.5,-0.5C 191.65,0.670114 193.984,1.67011 196.5,2.5C 197.298,2.95689 197.631,3.62356 197.5,4.5C 196.833,4.5 196.5,4.83333 196.5,5.5C 192.372,3.41936 188.372,3.41936 184.5,5.5C 184.167,5.5 183.833,5.5 183.5,5.5C 182.282,4.83855 180.949,4.17189 179.5,3.5C 180.18,2.14011 180.847,0.806777 181.5,-0.5 Z"/></g>
<g><path style="opacity:1" fill="#484a4b" d="M 189.5,-0.5 C 193.167,-0.5 196.833,-0.5 200.5,-0.5C 199.308,1.1131 198.308,2.77976 197.5,4.5C 197.631,3.62356 197.298,2.95689 196.5,2.5C 193.984,1.67011 191.65,0.670114 189.5,-0.5 Z"/></g>
<g><path style="opacity:1" fill="#95999a" d="M 200.5,-0.5 C 202.5,-0.5 204.5,-0.5 206.5,-0.5C 207.293,4.62547 210.293,7.29214 215.5,7.5C 215.575,10.2062 215.908,12.8728 216.5,15.5C 214.62,15.2291 213.287,15.8958 212.5,17.5C 208.144,14.3308 203.477,13.8308 198.5,16C 193.112,22.6346 188.112,29.468 183.5,36.5C 183.343,35.1266 183.51,33.7932 184,32.5C 187.731,28.2075 190.564,23.3742 192.5,18C 190.762,18.8369 189.096,20.0036 187.5,21.5C 190.5,16.1667 193.5,10.8333 196.5,5.5C 196.5,4.83333 196.833,4.5 197.5,4.5C 198.308,2.77976 199.308,1.1131 200.5,-0.5 Z"/></g>
<g><path style="opacity:1" fill="#343739" d="M 295.5,-0.5 C 296.833,-0.5 298.167,-0.5 299.5,-0.5C 299.5,0.166667 299.5,0.833333 299.5,1.5C 297.847,1.3404 296.514,0.673734 295.5,-0.5 Z"/></g>
<g><path style="opacity:1" fill="#c3c8ca" d="M 39.5,-0.5 C 49.5,-0.5 59.5,-0.5 69.5,-0.5C 68.7407,1.4308 67.4074,2.9308 65.5,4C 65.8333,4.33333 66.1667,4.66667 66.5,5C 65.6667,5.16667 64.8333,5.33333 64,5.5C 59.7786,4.56929 55.6119,3.56929 51.5,2.5C 48.8127,2.66409 46.146,2.49742 43.5,2C 41.6803,1.79959 40.347,0.96626 39.5,-0.5 Z"/></g>
<g><path style="opacity:1" fill="#404346" d="M 105.5,-0.5 C 108.167,-0.5 110.833,-0.5 113.5,-0.5C 114.091,2.55485 112.758,3.22152 109.5,1.5C 108.005,1.01131 106.671,0.344644 105.5,-0.5 Z"/></g>
<g><path style="opacity:1" fill="#454a4a" d="M 119.5,-0.5 C 122.5,-0.5 125.5,-0.5 128.5,-0.5C 129.106,2.31254 128.106,4.64587 125.5,6.5C 124.167,6.16667 122.833,5.83333 121.5,5.5C 121.167,5.5 120.833,5.5 120.5,5.5C 119.602,4.84233 118.602,4.17566 117.5,3.5C 118.18,2.14011 118.847,0.806777 119.5,-0.5 Z"/></g>
<g><path style="opacity:1" fill="#878a8b" d="M 141.5,-0.5 C 142.5,-0.5 143.5,-0.5 144.5,-0.5C 144.5,0.5 144.5,1.5 144.5,2.5C 144.5,3.5 144.5,4.5 144.5,5.5C 142.688,7.46052 141.688,9.79385 141.5,12.5C 140.432,13.4345 139.099,13.7678 137.5,13.5C 137.5,12.5 137.5,11.5 137.5,10.5C 138.885,9.42643 140.051,8.09309 141,6.5C 140.478,4.12014 140.645,1.78681 141.5,-0.5 Z"/></g>
<g><path style="opacity:1" fill="#1d1d1f" d="M 144.5,-0.5 C 148.167,-0.5 151.833,-0.5 155.5,-0.5C 155.249,1.17028 154.582,2.67028 153.5,4C 150.376,4.30322 147.376,3.80322 144.5,2.5C 144.5,1.5 144.5,0.5 144.5,-0.5 Z"/></g>
<g><path style="opacity:1" fill="#a6aeb0" d="M 69.5,-0.5 C 74.1667,-0.5 78.8333,-0.5 83.5,-0.5C 80.8719,2.97276 81.8719,5.3061 86.5,6.5C 85.9269,9.34954 84.2602,11.0162 81.5,11.5C 75.6919,10.2982 70.0252,8.63149 64.5,6.5C 63.5836,6.54272 62.9169,6.87605 62.5,7.5C 59.5214,6.68268 56.5214,5.84935 53.5,5C 52.244,4.58309 51.5774,3.74975 51.5,2.5C 55.6119,3.56929 59.7786,4.56929 64,5.5C 64.8333,5.33333 65.6667,5.16667 66.5,5C 66.1667,4.66667 65.8333,4.33333 65.5,4C 67.4074,2.9308 68.7407,1.4308 69.5,-0.5 Z"/></g>
<g><path style="opacity:1" fill="#535555" d="M 155.5,-0.5 C 159.5,-0.5 163.5,-0.5 167.5,-0.5C 170.583,1.02463 173.916,2.02463 177.5,2.5C 177.5,1.5 177.5,0.5 177.5,-0.5C 178.833,-0.5 180.167,-0.5 181.5,-0.5C 180.847,0.806777 180.18,2.14011 179.5,3.5C 180.949,4.17189 182.282,4.83855 183.5,5.5C 182.5,5.5 181.5,5.5 180.5,5.5C 179.654,8.52712 178.32,11.3605 176.5,14C 177.056,14.3826 177.389,14.8826 177.5,15.5C 174.888,14.6295 172.221,13.9628 169.5,13.5C 170.833,12.5 170.833,11.5 169.5,10.5C 172.779,9.96942 174.113,7.96942 173.5,4.5C 170.459,5.19912 168.792,7.19912 168.5,10.5C 167.778,9.44886 166.778,8.78219 165.5,8.5C 169.415,2.10188 168.082,1.10188 161.5,5.5C 160.948,3.9974 160.948,2.33073 161.5,0.5C 158.459,1.19912 156.792,3.19912 156.5,6.5C 153.251,4.9367 152.251,5.77003 153.5,9C 153.101,10.9812 152.101,12.4812 150.5,13.5C 149.243,11.632 149.576,9.96529 151.5,8.5C 149.423,6.91822 147.09,5.91822 144.5,5.5C 144.5,4.5 144.5,3.5 144.5,2.5C 147.376,3.80322 150.376,4.30322 153.5,4C 154.582,2.67028 155.249,1.17028 155.5,-0.5 Z"/></g>
<g><path style="opacity:1" fill="#1f1e1f" d="M 167.5,-0.5 C 170.833,-0.5 174.167,-0.5 177.5,-0.5C 177.5,0.5 177.5,1.5 177.5,2.5C 173.916,2.02463 170.583,1.02463 167.5,-0.5 Z"/></g>
<g><path style="opacity:1" fill="#d9dfe3" d="M 276.5,-0.5 C 282.833,-0.5 289.167,-0.5 295.5,-0.5C 296.514,0.673734 297.847,1.3404 299.5,1.5C 299.5,4.5 299.5,7.5 299.5,10.5C 292.359,8.92607 285.692,6.2594 279.5,2.5C 278.1,1.89992 277.1,0.899922 276.5,-0.5 Z"/></g>
<g><path style="opacity:1" fill="#989c9e" d="M 128.5,-0.5 C 130.167,-0.5 131.833,-0.5 133.5,-0.5C 132.118,2.52643 130.785,5.52643 129.5,8.5C 131.099,8.23219 132.432,8.56552 133.5,9.5C 132.726,12.3809 131.393,15.0476 129.5,17.5C 130.428,18.7678 130.595,20.1011 130,21.5C 128.331,22.8463 127.164,24.513 126.5,26.5C 126.5,27.1667 126.5,27.8333 126.5,28.5C 124.694,27.9759 123.028,27.3092 121.5,26.5C 122.675,26.719 123.675,26.3857 124.5,25.5C 125.297,23.8685 126.297,22.3685 127.5,21C 127.095,20.0546 126.428,19.3879 125.5,19C 121.804,17.6431 118.137,17.1431 114.5,17.5C 114.167,17.8333 113.833,18.1667 113.5,18.5C 116.418,20.922 119.751,22.5887 123.5,23.5C 119.647,24.4367 115.98,23.7701 112.5,21.5C 111.702,21.9569 111.369,22.6236 111.5,23.5C 108.99,23.0733 106.657,22.4067 104.5,21.5C 108.413,21.7595 110.747,19.9261 111.5,16C 111.095,15.0546 110.428,14.3879 109.5,14C 112.003,13.8706 114.003,12.8706 115.5,11C 114.692,10.6924 114.025,10.1924 113.5,9.5C 114.025,7.01205 114.858,4.67872 116,2.5C 116.483,3.44802 116.649,4.44802 116.5,5.5C 117.833,5.5 119.167,5.5 120.5,5.5C 120.833,5.5 121.167,5.5 121.5,5.5C 121.611,6.11742 121.944,6.61742 122.5,7C 115.137,14.5073 116.804,17.3407 127.5,15.5C 126.167,13.8333 126.167,12.1667 127.5,10.5C 126.147,9.4763 125.48,8.14297 125.5,6.5C 128.106,4.64587 129.106,2.31254 128.5,-0.5 Z"/></g>
<g><path style="opacity:1" fill="#2a2e2f" d="M 165.5,8.5 C 162.673,8.41622 160.006,7.74955 157.5,6.5C 157.167,6.5 156.833,6.5 156.5,6.5C 156.792,3.19912 158.459,1.19912 161.5,0.5C 160.948,2.33073 160.948,3.9974 161.5,5.5C 168.082,1.10188 169.415,2.10188 165.5,8.5 Z"/></g>
<g><path style="opacity:1" fill="#272929" d="M 169.5,10.5 C 169.167,10.5 168.833,10.5 168.5,10.5C 168.792,7.19912 170.459,5.19912 173.5,4.5C 174.113,7.96942 172.779,9.96942 169.5,10.5 Z"/></g>
<g><path style="opacity:1" fill="#1e211c" d="M 236.5,-0.5 C 249.5,-0.5 262.5,-0.5 275.5,-0.5C 269.592,8.9763 263.425,18.3096 257,27.5C 254.902,31.1028 252.068,33.7695 248.5,35.5C 246.883,36.038 245.216,36.3713 243.5,36.5C 237.997,34.5807 233.33,31.414 229.5,27C 228.207,26.51 226.873,26.3433 225.5,26.5C 224.084,24.8207 222.75,23.1541 221.5,21.5C 223.129,19.1423 224.295,16.4757 225,13.5C 225.708,12.6195 226.542,11.9528 227.5,11.5C 226.412,13.5825 225.412,15.7492 224.5,18C 225.406,19.6995 225.739,21.5328 225.5,23.5C 226.822,23.33 227.989,23.6634 229,24.5C 231.225,16.8861 234.392,9.71947 238.5,3C 237.695,1.88732 237.028,0.72065 236.5,-0.5 Z"/></g>
<g><path style="opacity:1" fill="#92999b" d="M 83.5,-0.5 C 90.8333,-0.5 98.1667,-0.5 105.5,-0.5C 106.671,0.344644 108.005,1.01131 109.5,1.5C 109.5,2.5 109.5,3.5 109.5,4.5C 107.674,6.14746 106.34,8.14746 105.5,10.5C 105.158,11.3382 104.492,11.6716 103.5,11.5C 101.924,9.4159 100.091,7.4159 98,5.5C 97.1978,0.778151 95.6978,0.944817 93.5,6C 94.9784,8.05687 96.9784,9.3902 99.5,10C 96.8806,9.91666 94.214,9.74999 91.5,9.5C 91.5,11.1667 91.5,12.8333 91.5,14.5C 90.209,14.2627 89.209,14.596 88.5,15.5C 83.9097,14.9697 79.5763,13.6363 75.5,11.5C 71.0307,10.5655 66.6973,9.23214 62.5,7.5C 62.9169,6.87605 63.5836,6.54272 64.5,6.5C 70.0252,8.63149 75.6919,10.2982 81.5,11.5C 84.2602,11.0162 85.9269,9.34954 86.5,6.5C 81.8719,5.3061 80.8719,2.97276 83.5,-0.5 Z"/></g>
<g><path style="opacity:1" fill="#484e50" d="M 109.5,4.5 C 110.239,4.36899 110.906,4.53566 111.5,5C 108.659,8.15883 109.326,10.4922 113.5,12C 110.678,12.4279 108.012,11.9279 105.5,10.5C 106.34,8.14746 107.674,6.14746 109.5,4.5 Z"/></g>
<g><path style="opacity:1" fill="#434848" d="M 133.5,-0.5 C 136.167,-0.5 138.833,-0.5 141.5,-0.5C 140.645,1.78681 140.478,4.12014 141,6.5C 140.051,8.09309 138.885,9.42643 137.5,10.5C 136.041,10.5674 134.708,10.2341 133.5,9.5C 132.432,8.56552 131.099,8.23219 129.5,8.5C 130.785,5.52643 132.118,2.52643 133.5,-0.5 Z"/></g>
<g><path style="opacity:1" fill="#37393a" d="M 196.5,5.5 C 193.5,10.8333 190.5,16.1667 187.5,21.5C 186.599,22.2905 185.932,23.2905 185.5,24.5C 182.447,24.8893 179.78,24.2227 177.5,22.5C 177.471,19.2268 178.804,18.5602 181.5,20.5C 183,20.5472 184,19.8805 184.5,18.5C 182.855,17.3037 181.189,16.3037 179.5,15.5C 181.147,12.2054 182.814,8.8721 184.5,5.5C 188.372,3.41936 192.372,3.41936 196.5,5.5 Z"/></g>
<g><path style="opacity:1" fill="#878b8b" d="M 206.5,-0.5 C 215.5,-0.5 224.5,-0.5 233.5,-0.5C 232.048,3.73727 230.048,7.73727 227.5,11.5C 226.542,11.9528 225.708,12.6195 225,13.5C 224.295,16.4757 223.129,19.1423 221.5,21.5C 218.393,20.4473 215.393,19.114 212.5,17.5C 213.287,15.8958 214.62,15.2291 216.5,15.5C 215.908,12.8728 215.575,10.2062 215.5,7.5C 210.293,7.29214 207.293,4.62547 206.5,-0.5 Z"/></g>
<g><path style="opacity:1" fill="#6f7375" d="M 121.5,5.5 C 122.833,5.83333 124.167,6.16667 125.5,6.5C 125.48,8.14297 126.147,9.4763 127.5,10.5C 126.167,12.1667 126.167,13.8333 127.5,15.5C 116.804,17.3407 115.137,14.5073 122.5,7C 121.944,6.61742 121.611,6.11742 121.5,5.5 Z"/></g>
<g><path style="opacity:1" fill="#0a0c09" d="M 233.5,-0.5 C 234.5,-0.5 235.5,-0.5 236.5,-0.5C 237.028,0.72065 237.695,1.88732 238.5,3C 234.392,9.71947 231.225,16.8861 229,24.5C 227.989,23.6634 226.822,23.33 225.5,23.5C 225.739,21.5328 225.406,19.6995 224.5,18C 225.412,15.7492 226.412,13.5825 227.5,11.5C 230.048,7.73727 232.048,3.73727 233.5,-0.5 Z"/></g>
<g><path style="opacity:1" fill="#e8edee" d="M 35.5,-0.5 C 36.8333,-0.5 38.1667,-0.5 39.5,-0.5C 40.347,0.96626 41.6803,1.79959 43.5,2C 46.146,2.49742 48.8127,2.66409 51.5,2.5C 51.5774,3.74975 52.244,4.58309 53.5,5C 56.5214,5.84935 59.5214,6.68268 62.5,7.5C 66.6973,9.23214 71.0307,10.5655 75.5,11.5C 76.7489,13.1361 78.4156,14.3028 80.5,15C 85.6849,16.0653 90.6849,17.5653 95.5,19.5C 95.5,20.8333 95.5,22.1667 95.5,23.5C 99.1638,22.9999 102.164,24.1666 104.5,27C 106.764,27.2362 108.931,27.7362 111,28.5C 109.886,32.0916 108.719,35.7582 107.5,39.5C 106.5,39.5 105.5,39.5 104.5,39.5C 103.838,43.4659 103.505,47.4659 103.5,51.5C 100.657,51.9172 97.99,52.9172 95.5,54.5C 96.6888,55.4287 98.0222,55.762 99.5,55.5C 99.5,56.8333 99.5,58.1667 99.5,59.5C 97.5,59.5 95.5,59.5 93.5,59.5C 93.5,60.8333 93.5,62.1667 93.5,63.5C 95.1667,63.5 96.8333,63.5 98.5,63.5C 98.59,65.6963 98.9233,67.863 99.5,70C 97.2394,73.9669 95.7394,78.1336 95,82.5C 90.92,81.6998 86.7533,81.1998 82.5,81C 81.1667,80.3333 79.8333,79.6667 78.5,79C 79.2052,77.4435 78.5385,76.2768 76.5,75.5C 75.5713,74.3112 75.238,72.9778 75.5,71.5C 73.6583,71.7233 71.825,72.0566 70,72.5C 63.1929,69.936 56.1929,67.936 49,66.5C 48.6667,67.1667 48.3333,67.8333 48,68.5C 46.6439,67.6198 45.1439,67.2865 43.5,67.5C 40.5568,67.0198 37.8902,66.0198 35.5,64.5C 34.8964,58.8726 31.8964,54.8726 26.5,52.5C 25.6099,49.4428 23.6099,47.6095 20.5,47C 18.6902,43.0306 16.0235,39.864 12.5,37.5C 8.86379,31.5375 4.53046,26.2041 -0.5,21.5C -0.5,20.8333 -0.5,20.1667 -0.5,19.5C 0.921673,19.7086 2.25501,20.2086 3.5,21C 5.49675,24.4948 8.49675,25.9948 12.5,25.5C 12.7553,28.0163 13.5886,30.3496 15,32.5C 17.9278,35.8568 20.4278,39.5234 22.5,43.5C 25.1667,45.5 27.8333,47.5 30.5,49.5C 31.4656,47.604 31.7989,45.604 31.5,43.5C 35.4344,43.9789 39.1011,43.3122 42.5,41.5C 44.7263,43.9222 47.0596,43.9222 49.5,41.5C 52.3879,44.4621 53.7213,43.7954 53.5,39.5C 58.7246,37.759 64.058,36.4257 69.5,35.5C 70.1495,33.5229 70.1495,31.6895 69.5,30C 71.9355,26.6645 73.2688,22.8312 73.5,18.5C 73.0814,17.3279 72.4147,16.3279 71.5,15.5C 65.5256,13.7867 59.6923,11.7867 54,9.5C 51.9501,9.69096 50.1168,10.3576 48.5,11.5C 47.2813,10.3539 45.9479,9.35391 44.5,8.5C 43.0598,4.27299 40.0598,2.27299 35.5,2.5C 35.5,1.5 35.5,0.5 35.5,-0.5 Z"/></g>
<g><path style="opacity:1" fill="#3e4243" d="M 144.5,5.5 C 147.09,5.91822 149.423,6.91822 151.5,8.5C 149.576,9.96529 149.243,11.632 150.5,13.5C 148.95,14.7199 147.284,14.7199 145.5,13.5C 144.432,12.5655 143.099,12.2322 141.5,12.5C 141.688,9.79385 142.688,7.46052 144.5,5.5 Z"/></g>
<g><path style="opacity:1" fill="#787a79" d="M 183.5,5.5 C 183.833,5.5 184.167,5.5 184.5,5.5C 182.814,8.8721 181.147,12.2054 179.5,15.5C 178.833,15.5 178.167,15.5 177.5,15.5C 177.389,14.8826 177.056,14.3826 176.5,14C 178.32,11.3605 179.654,8.52712 180.5,5.5C 181.5,5.5 182.5,5.5 183.5,5.5 Z"/></g>
<g><path style="opacity:1" fill="#3e4343" d="M 157.5,6.5 C 160.006,7.74955 162.673,8.41622 165.5,8.5C 165.519,10.0603 165.852,11.5603 166.5,13C 165.143,17.0009 162.476,18.3342 158.5,17C 156.381,16.9024 154.714,16.0691 153.5,14.5C 155.393,12.0476 156.726,9.38089 157.5,6.5 Z"/></g>
<g><path style="opacity:1" fill="#55656a" d="M 279.5,2.5 C 285.692,6.2594 292.359,8.92607 299.5,10.5C 299.5,14.5 299.5,18.5 299.5,22.5C 296.549,22.2938 293.883,21.2938 291.5,19.5C 290.287,19.7472 289.62,20.4138 289.5,21.5C 286.234,21.3706 283.234,20.3706 280.5,18.5C 279.887,17.0202 279.554,15.6869 279.5,14.5C 278.784,15.311 277.95,15.9777 277,16.5C 274.654,15.2923 272.487,13.959 270.5,12.5C 272.113,9.71386 273.946,7.0472 276,4.5C 276.816,3.17723 277.983,2.51056 279.5,2.5 Z"/></g>
<g><path style="opacity:1" fill="#5b6161" d="M 103.5,11.5 C 105.017,13.9358 104.684,16.1024 102.5,18C 105.402,18.9186 105.735,19.7519 103.5,20.5C 98.4287,19.0037 93.4287,17.337 88.5,15.5C 89.209,14.596 90.209,14.2627 91.5,14.5C 91.5,12.8333 91.5,11.1667 91.5,9.5C 94.214,9.74999 96.8806,9.91666 99.5,10C 96.9784,9.3902 94.9784,8.05687 93.5,6C 95.6978,0.944817 97.1978,0.778151 98,5.5C 100.091,7.4159 101.924,9.4159 103.5,11.5 Z"/></g>
<g><path style="opacity:1" fill="#7c8380" d="M 275.5,-0.5 C 275.833,-0.5 276.167,-0.5 276.5,-0.5C 277.1,0.899922 278.1,1.89992 279.5,2.5C 277.983,2.51056 276.816,3.17723 276,4.5C 273.946,7.0472 272.113,9.71386 270.5,12.5C 264.853,20.8067 258.853,28.8067 252.5,36.5C 251.432,35.5655 250.099,35.2322 248.5,35.5C 252.068,33.7695 254.902,31.1028 257,27.5C 263.425,18.3096 269.592,8.9763 275.5,-0.5 Z"/></g>
<g><path style="opacity:1" fill="#6c7173" d="M 121.5,26.5 C 118.064,25.808 114.73,24.808 111.5,23.5C 111.369,22.6236 111.702,21.9569 112.5,21.5C 115.98,23.7701 119.647,24.4367 123.5,23.5C 119.751,22.5887 116.418,20.922 113.5,18.5C 113.833,18.1667 114.167,17.8333 114.5,17.5C 118.137,17.1431 121.804,17.6431 125.5,19C 126.428,19.3879 127.095,20.0546 127.5,21C 126.297,22.3685 125.297,23.8685 124.5,25.5C 123.675,26.3857 122.675,26.719 121.5,26.5 Z"/></g>
<g><path style="opacity:1" fill="#272a2b" d="M 169.5,13.5 C 172.221,13.9628 174.888,14.6295 177.5,15.5C 178.167,15.5 178.833,15.5 179.5,15.5C 181.189,16.3037 182.855,17.3037 184.5,18.5C 184,19.8805 183,20.5472 181.5,20.5C 178.804,18.5602 177.471,19.2268 177.5,22.5C 174.546,21.5721 171.546,20.7388 168.5,20C 167.244,19.5831 166.577,18.7498 166.5,17.5C 167.026,15.7697 168.026,14.4363 169.5,13.5 Z"/></g>
<g><path style="opacity:1" fill="#777e7f" d="M 113.5,-0.5 C 115.5,-0.5 117.5,-0.5 119.5,-0.5C 118.847,0.806777 118.18,2.14011 117.5,3.5C 118.602,4.17566 119.602,4.84233 120.5,5.5C 119.167,5.5 117.833,5.5 116.5,5.5C 116.649,4.44802 116.483,3.44802 116,2.5C 114.858,4.67872 114.025,7.01205 113.5,9.5C 114.025,10.1924 114.692,10.6924 115.5,11C 114.003,12.8706 112.003,13.8706 109.5,14C 110.428,14.3879 111.095,15.0546 111.5,16C 110.747,19.9261 108.413,21.7595 104.5,21.5C 103.833,21.5 103.5,21.1667 103.5,20.5C 105.735,19.7519 105.402,18.9186 102.5,18C 104.684,16.1024 105.017,13.9358 103.5,11.5C 104.492,11.6716 105.158,11.3382 105.5,10.5C 108.012,11.9279 110.678,12.4279 113.5,12C 109.326,10.4922 108.659,8.15883 111.5,5C 110.906,4.53566 110.239,4.36899 109.5,4.5C 109.5,3.5 109.5,2.5 109.5,1.5C 112.758,3.22152 114.091,2.55485 113.5,-0.5 Z"/></g>
<g><path style="opacity:1" fill="#515556" d="M 145.5,23.5 C 143.847,23.3404 142.514,22.6737 141.5,21.5C 142.593,17.9175 144.926,15.9175 148.5,15.5C 148.281,16.675 148.614,17.675 149.5,18.5C 151.071,17.6906 152.738,17.3573 154.5,17.5C 154.105,23.5753 151.105,25.5753 145.5,23.5 Z"/></g>
<g><path style="opacity:1" fill="#878b8c" d="M 156.5,6.5 C 156.833,6.5 157.167,6.5 157.5,6.5C 156.726,9.38089 155.393,12.0476 153.5,14.5C 154.714,16.0691 156.381,16.9024 158.5,17C 162.476,18.3342 165.143,17.0009 166.5,13C 165.852,11.5603 165.519,10.0603 165.5,8.5C 166.778,8.78219 167.778,9.44886 168.5,10.5C 168.833,10.5 169.167,10.5 169.5,10.5C 170.833,11.5 170.833,12.5 169.5,13.5C 168.026,14.4363 167.026,15.7697 166.5,17.5C 165.833,18.5 165.167,19.5 164.5,20.5C 161.833,20.1667 159.167,19.8333 156.5,19.5C 155.833,21.8333 155.167,24.1667 154.5,26.5C 151.921,25.7724 149.254,25.2724 146.5,25C 145.944,24.6174 145.611,24.1174 145.5,23.5C 151.105,25.5753 154.105,23.5753 154.5,17.5C 152.738,17.3573 151.071,17.6906 149.5,18.5C 148.614,17.675 148.281,16.675 148.5,15.5C 144.926,15.9175 142.593,17.9175 141.5,21.5C 140.833,21.1667 140.167,20.8333 139.5,20.5C 139.839,16.6459 141.839,14.3126 145.5,13.5C 147.284,14.7199 148.95,14.7199 150.5,13.5C 152.101,12.4812 153.101,10.9812 153.5,9C 152.251,5.77003 153.251,4.9367 156.5,6.5 Z"/></g>
<g><path style="opacity:1" fill="#4f5453" d="M 212.5,17.5 C 215.393,19.114 218.393,20.4473 221.5,21.5C 222.75,23.1541 224.084,24.8207 225.5,26.5C 220.635,24.2371 216.302,21.2371 212.5,17.5 Z"/></g>
<g><path style="opacity:1" fill="#727777" d="M 133.5,9.5 C 134.708,10.2341 136.041,10.5674 137.5,10.5C 137.5,11.5 137.5,12.5 137.5,13.5C 139.099,13.7678 140.432,13.4345 141.5,12.5C 143.099,12.2322 144.432,12.5655 145.5,13.5C 141.839,14.3126 139.839,16.6459 139.5,20.5C 138.596,21.209 138.263,22.209 138.5,23.5C 137.671,24.3324 136.838,23.999 136,22.5C 135.505,24.4727 135.338,26.4727 135.5,28.5C 132.402,28.2444 129.402,27.5778 126.5,26.5C 127.164,24.513 128.331,22.8463 130,21.5C 130.595,20.1011 130.428,18.7678 129.5,17.5C 131.393,15.0476 132.726,12.3809 133.5,9.5 Z"/></g>
<g><path style="opacity:1" fill="#444849" d="M 164.5,20.5 C 169.787,22.7654 175.287,24.7654 181,26.5C 182.03,26.8361 182.53,27.5028 182.5,28.5C 181.737,30.3684 180.737,32.0351 179.5,33.5C 171.126,31.3764 162.793,29.043 154.5,26.5C 155.167,24.1667 155.833,21.8333 156.5,19.5C 159.167,19.8333 161.833,20.1667 164.5,20.5 Z"/></g>
<g><path style="opacity:1" fill="#686c6d" d="M 166.5,17.5 C 166.577,18.7498 167.244,19.5831 168.5,20C 171.546,20.7388 174.546,21.5721 177.5,22.5C 179.78,24.2227 182.447,24.8893 185.5,24.5C 184.488,25.8717 183.488,27.205 182.5,28.5C 182.53,27.5028 182.03,26.8361 181,26.5C 175.287,24.7654 169.787,22.7654 164.5,20.5C 165.167,19.5 165.833,18.5 166.5,17.5 Z"/></g>
<g><path style="opacity:1" fill="#273635" d="M 270.5,12.5 C 272.487,13.959 274.654,15.2923 277,16.5C 277.95,15.9777 278.784,15.311 279.5,14.5C 279.554,15.6869 279.887,17.0202 280.5,18.5C 283.234,20.3706 286.234,21.3706 289.5,21.5C 289.369,22.3764 289.702,23.0431 290.5,23.5C 293.433,24.8048 296.433,25.8048 299.5,26.5C 299.5,34.8333 299.5,43.1667 299.5,51.5C 298.833,51.5 298.167,51.5 297.5,51.5C 296.167,51.5 294.833,51.5 293.5,51.5C 293.5,50.1667 293.5,48.8333 293.5,47.5C 292.178,47.67 291.011,47.3366 290,46.5C 289.345,48.6284 288.511,50.6284 287.5,52.5C 287.5,52.8333 287.5,53.1667 287.5,53.5C 287.389,54.1174 287.056,54.6174 286.5,55C 284.19,55.4966 281.857,55.6633 279.5,55.5C 279.5,54.5 279.5,53.5 279.5,52.5C 280.791,52.7373 281.791,52.404 282.5,51.5C 283.482,52.1408 284.482,52.8075 285.5,53.5C 285.833,53.1667 286.167,52.8333 286.5,52.5C 281.797,47.6488 276.13,44.6488 269.5,43.5C 269.047,42.5416 268.381,41.7083 267.5,41C 262.511,40.5007 257.511,40.3341 252.5,40.5C 252.535,44.5472 254.535,47.2139 258.5,48.5C 259.386,49.325 259.719,50.325 259.5,51.5C 255.515,50.5119 251.515,49.5119 247.5,48.5C 247.5,47.1667 247.5,45.8333 247.5,44.5C 249.153,41.8695 250.819,39.2028 252.5,36.5C 258.853,28.8067 264.853,20.8067 270.5,12.5 Z"/></g>
<g><path style="opacity:1" fill="#5e4452" d="M 299.5,22.5 C 299.5,23.8333 299.5,25.1667 299.5,26.5C 296.433,25.8048 293.433,24.8048 290.5,23.5C 289.702,23.0431 289.369,22.3764 289.5,21.5C 289.62,20.4138 290.287,19.7472 291.5,19.5C 293.883,21.2938 296.549,22.2938 299.5,22.5 Z"/></g>
<g><path style="opacity:1" fill="#bab2aa" d="M -0.5,21.5 C 4.53046,26.2041 8.86379,31.5375 12.5,37.5C 8.81958,32.8206 4.48624,28.8206 -0.5,25.5C -0.5,24.1667 -0.5,22.8333 -0.5,21.5 Z"/></g>
<g><path style="opacity:1" fill="#dee3e4" d="M 75.5,11.5 C 79.5763,13.6363 83.9097,14.9697 88.5,15.5C 93.4287,17.337 98.4287,19.0037 103.5,20.5C 103.5,21.1667 103.833,21.5 104.5,21.5C 106.657,22.4067 108.99,23.0733 111.5,23.5C 114.73,24.808 118.064,25.808 121.5,26.5C 123.028,27.3092 124.694,27.9759 126.5,28.5C 129.899,31.5327 133.899,33.5327 138.5,34.5C 139.021,38.4809 139.354,42.4809 139.5,46.5C 137.396,46.2011 135.396,46.5344 133.5,47.5C 130.347,49.4615 127.68,51.9615 125.5,55C 118.579,54.8106 113.579,57.6439 110.5,63.5C 107.966,64.6338 106.633,66.6338 106.5,69.5C 101.869,74.0713 98.202,79.4046 95.5,85.5C 94.0508,86.1719 92.7175,86.8386 91.5,87.5C 80.679,84.2265 70.0124,80.5599 59.5,76.5C 56.2649,73.1857 52.2649,71.1857 47.5,70.5C 45.9236,69.8571 44.5903,68.8571 43.5,67.5C 45.1439,67.2865 46.6439,67.6198 48,68.5C 48.3333,67.8333 48.6667,67.1667 49,66.5C 56.1929,67.936 63.1929,69.936 70,72.5C 71.825,72.0566 73.6583,71.7233 75.5,71.5C 75.238,72.9778 75.5713,74.3112 76.5,75.5C 78.5385,76.2768 79.2052,77.4435 78.5,79C 79.8333,79.6667 81.1667,80.3333 82.5,81C 86.7533,81.1998 90.92,81.6998 95,82.5C 95.7394,78.1336 97.2394,73.9669 99.5,70C 98.9233,67.863 98.59,65.6963 98.5,63.5C 96.8333,63.5 95.1667,63.5 93.5,63.5C 93.5,62.1667 93.5,60.8333 93.5,59.5C 95.5,59.5 97.5,59.5 99.5,59.5C 99.5,58.1667 99.5,56.8333 99.5,55.5C 98.0222,55.762 96.6888,55.4287 95.5,54.5C 97.99,52.9172 100.657,51.9172 103.5,51.5C 103.505,47.4659 103.838,43.4659 104.5,39.5C 105.5,39.5 106.5,39.5 107.5,39.5C 108.719,35.7582 109.886,32.0916 111,28.5C 108.931,27.7362 106.764,27.2362 104.5,27C 102.164,24.1666 99.1638,22.9999 95.5,23.5C 95.5,22.1667 95.5,20.8333 95.5,19.5C 90.6849,17.5653 85.6849,16.0653 80.5,15C 78.4156,14.3028 76.7489,13.1361 75.5,11.5 Z"/></g>
<g><path style="opacity:1" fill="#585d5e" d="M 138.5,23.5 C 139.573,24.2506 139.74,25.2506 139,26.5C 137.705,28.1217 136.205,29.455 134.5,30.5C 131.87,29.6221 129.203,28.9555 126.5,28.5C 126.5,27.8333 126.5,27.1667 126.5,26.5C 129.402,27.5778 132.402,28.2444 135.5,28.5C 135.338,26.4727 135.505,24.4727 136,22.5C 136.838,23.999 137.671,24.3324 138.5,23.5 Z"/></g>
<g><path style="opacity:1" fill="#3a423f" d="M 225.5,26.5 C 226.873,26.3433 228.207,26.51 229.5,27C 233.33,31.414 237.997,34.5807 243.5,36.5C 243.557,37.609 243.89,38.609 244.5,39.5C 243.833,39.8333 243.167,40.1667 242.5,40.5C 237.017,35.5945 231.351,30.9278 225.5,26.5 Z"/></g>
<g><path style="opacity:1" fill="#998573" d="M -0.5,25.5 C 4.48624,28.8206 8.81958,32.8206 12.5,37.5C 14.528,39.878 16.1946,42.5447 17.5,45.5C 11.8966,40.2495 5.89657,35.5828 -0.5,31.5C -0.5,29.5 -0.5,27.5 -0.5,25.5 Z"/></g>
<g><path style="opacity:1" fill="#bbc0c1" d="M 139.5,20.5 C 140.167,20.8333 140.833,21.1667 141.5,21.5C 142.514,22.6737 143.847,23.3404 145.5,23.5C 145.611,24.1174 145.944,24.6174 146.5,25C 149.254,25.2724 151.921,25.7724 154.5,26.5C 154.5,27.5 154.5,28.5 154.5,29.5C 153.124,31.0816 152.124,32.9149 151.5,35C 152.544,36.1739 153.544,37.3406 154.5,38.5C 148.926,38.0528 143.593,36.7194 138.5,34.5C 133.899,33.5327 129.899,31.5327 126.5,28.5C 129.203,28.9555 131.87,29.6221 134.5,30.5C 136.205,29.455 137.705,28.1217 139,26.5C 139.74,25.2506 139.573,24.2506 138.5,23.5C 138.263,22.209 138.596,21.209 139.5,20.5 Z"/></g>
<g><path style="opacity:1" fill="#515657" d="M 139.5,28.5 C 142.794,28.259 145.794,29.0924 148.5,31C 149.337,32.0113 149.67,33.1779 149.5,34.5C 146.126,34.3256 142.793,33.8256 139.5,33C 138.587,31.5861 138.587,30.0861 139.5,28.5 Z"/></g>
<g><path style="opacity:1" fill="#3c4141" d="M 154.5,29.5 C 157.836,29.467 161.003,30.1336 164,31.5C 164.418,33.788 163.751,35.788 162,37.5C 160.989,38.3366 159.822,38.67 158.5,38.5C 157.167,38.5 155.833,38.5 154.5,38.5C 153.544,37.3406 152.544,36.1739 151.5,35C 152.124,32.9149 153.124,31.0816 154.5,29.5 Z"/></g>
<g><path style="opacity:1" fill="#080808" d="M 218.5,69.5 C 216.515,69.8586 215.849,70.692 216.5,72C 215.692,72.3076 215.025,72.8076 214.5,73.5C 216.167,74.8333 217.833,76.1667 219.5,77.5C 220.451,76.6744 221.451,76.5078 222.5,77C 220.85,79.8131 218.85,82.3131 216.5,84.5C 213.846,82.428 214.18,80.7613 217.5,79.5C 216.167,78.5 214.833,77.5 213.5,76.5C 212.494,76.9377 212.494,77.6043 213.5,78.5C 212.311,79.4287 210.978,79.762 209.5,79.5C 209.5,80.5 209.5,81.5 209.5,82.5C 208.209,82.2627 207.209,82.596 206.5,83.5C 203.795,83.3802 203.128,84.3802 204.5,86.5C 204,86.8333 203.5,87.1667 203,87.5C 200.589,85.9034 198.089,84.5701 195.5,83.5C 196.385,79.944 196.385,76.7773 195.5,74C 191.541,74.2087 189.874,72.3754 190.5,68.5C 188.821,68.7148 187.821,68.0481 187.5,66.5C 189.879,65.4381 189.879,64.1048 187.5,62.5C 188.983,59.5265 190.65,56.6931 192.5,54C 189.738,50.5072 189.071,46.6739 190.5,42.5C 190.081,41.3279 189.415,40.3279 188.5,39.5C 187.893,39.6236 187.56,39.9569 187.5,40.5C 185.973,40.427 184.973,41.0937 184.5,42.5C 182.902,46.0374 181.569,49.7041 180.5,53.5C 179.525,55.7952 178.192,57.7952 176.5,59.5C 174.236,60.2186 171.903,60.552 169.5,60.5C 168.833,60.5 168.5,60.1667 168.5,59.5C 172.81,52.5335 177.477,45.8669 182.5,39.5C 185.379,38.463 187.879,36.7963 190,34.5C 189.973,35.7883 190.973,36.7883 193,37.5C 195.749,32.6092 197.749,33.2759 199,39.5C 199.893,38.2888 200.726,38.2888 201.5,39.5C 203.055,41.943 203.722,44.6097 203.5,47.5C 205.484,47.6168 207.15,46.9501 208.5,45.5C 210.636,46.4724 211.803,48.1391 212,50.5C 212.333,50.1667 212.667,49.8333 213,49.5C 213.308,50.3081 213.808,50.9747 214.5,51.5C 217.242,49.9696 219.242,50.6362 220.5,53.5C 217.857,56.2243 216.857,59.5576 217.5,63.5C 216.167,63.5 214.833,63.5 213.5,63.5C 213.5,64.8333 213.5,66.1667 213.5,67.5C 215.698,67.1201 217.365,67.7868 218.5,69.5 Z"/></g>
<g><path style="opacity:1" fill="#b0b9b7" d="M 248.5,35.5 C 250.099,35.2322 251.432,35.5655 252.5,36.5C 250.819,39.2028 249.153,41.8695 247.5,44.5C 246.737,42.6316 245.737,40.9649 244.5,39.5C 243.89,38.609 243.557,37.609 243.5,36.5C 245.216,36.3713 246.883,36.038 248.5,35.5 Z"/></g>
<g><path style="opacity:1" fill="#070b0b" d="M 212.5,17.5 C 216.302,21.2371 220.635,24.2371 225.5,26.5C 231.351,30.9278 237.017,35.5945 242.5,40.5C 241.417,49.6655 237.417,57.3322 230.5,63.5C 229.893,63.3764 229.56,63.0431 229.5,62.5C 228.352,59.9131 226.685,58.9131 224.5,59.5C 222.61,59.2965 221.11,59.9632 220,61.5C 220.046,63.3126 219.88,64.9793 219.5,66.5C 220.833,67.5 222.167,68.5 223.5,69.5C 223.554,68.3131 223.887,66.9798 224.5,65.5C 226.156,67.0224 227.323,66.689 228,64.5C 228.227,69.1298 226.393,72.7965 222.5,75.5C 218.519,74.4943 218.519,73.4943 222.5,72.5C 221.148,71.4756 219.815,70.4756 218.5,69.5C 217.365,67.7868 215.698,67.1201 213.5,67.5C 213.5,66.1667 213.5,64.8333 213.5,63.5C 214.833,63.5 216.167,63.5 217.5,63.5C 216.857,59.5576 217.857,56.2243 220.5,53.5C 219.242,50.6362 217.242,49.9696 214.5,51.5C 213.808,50.9747 213.308,50.3081 213,49.5C 212.667,49.8333 212.333,50.1667 212,50.5C 211.803,48.1391 210.636,46.4724 208.5,45.5C 207.15,46.9501 205.484,47.6168 203.5,47.5C 203.722,44.6097 203.055,41.943 201.5,39.5C 200.726,38.2888 199.893,38.2888 199,39.5C 197.749,33.2759 195.749,32.6092 193,37.5C 190.973,36.7883 189.973,35.7883 190,34.5C 187.879,36.7963 185.379,38.463 182.5,39.5C 182.557,38.391 182.89,37.391 183.5,36.5C 188.112,29.468 193.112,22.6346 198.5,16C 203.477,13.8308 208.144,14.3308 212.5,17.5 Z"/></g>
<g><path style="opacity:1" fill="#a5abad" d="M 217.5,37.5 C 214.708,37.3775 212.708,36.0442 211.5,33.5C 211.897,32.475 212.563,32.3083 213.5,33C 215.041,34.3712 216.375,35.8712 217.5,37.5 Z"/></g>
<g><path style="opacity:1" fill="#3e4645" d="M 211.5,33.5 C 212.708,36.0442 214.708,37.3775 217.5,37.5C 217.833,38.1667 218.167,38.8333 218.5,39.5C 218.062,39.4346 217.728,39.6012 217.5,40C 218.5,41 219.5,42 220.5,43C 216.246,41.6162 212.579,39.1162 209.5,35.5C 209.855,34.4777 210.522,33.811 211.5,33.5 Z"/></g>
<g><path style="opacity:1" fill="#6d7172" d="M 198.5,24.5 C 200.646,24.6964 200.812,25.6964 199,27.5C 198.517,26.552 198.351,25.552 198.5,24.5 Z"/></g>
<g><path style="opacity:1" fill="#8d9192" d="M 203.5,20.5 C 206.342,20.5283 207.509,21.8617 207,24.5C 204.929,23.8971 203.762,22.5638 203.5,20.5 Z"/></g>
<g><path style="opacity:1" fill="#8e9293" d="M 154.5,26.5 C 162.793,29.043 171.126,31.3764 179.5,33.5C 175.152,34.3497 170.818,33.6831 166.5,31.5C 165.316,33.467 165.649,35.1336 167.5,36.5C 165.088,36.6941 164.088,38.0274 164.5,40.5C 162.214,40.405 160.214,39.7384 158.5,38.5C 159.822,38.67 160.989,38.3366 162,37.5C 163.751,35.788 164.418,33.788 164,31.5C 161.003,30.1336 157.836,29.467 154.5,29.5C 154.5,28.5 154.5,27.5 154.5,26.5 Z"/></g>
<g><path style="opacity:1" fill="#b7c6c0" d="M 217.5,37.5 C 219.17,37.7512 220.67,38.4178 222,39.5C 222.688,40.3317 222.521,40.9984 221.5,41.5C 220.482,40.8075 219.482,40.1408 218.5,39.5C 218.167,38.8333 217.833,38.1667 217.5,37.5 Z"/></g>
<g><path style="opacity:1" fill="#8d7159" d="M -0.5,31.5 C 5.89657,35.5828 11.8966,40.2495 17.5,45.5C 22.0033,49.8319 26.17,54.4985 30,59.5C 30.7914,60.745 31.2914,62.0783 31.5,63.5C 30.448,63.6495 29.448,63.4828 28.5,63C 26.2032,60.5367 24.5366,57.7034 23.5,54.5C 21.8872,53.5726 20.2205,52.7393 18.5,52C 14.1561,48.3228 10.1561,44.3228 6.5,40C 4.26569,38.2502 1.93236,36.7502 -0.5,35.5C -0.5,34.1667 -0.5,32.8333 -0.5,31.5 Z"/></g>
<g><path style="opacity:1" fill="#ba7b65" d="M 187.5,40.5 C 188.443,42.0012 188.109,43.3346 186.5,44.5C 185.167,44.5 184.5,43.8333 184.5,42.5C 184.973,41.0937 185.973,40.427 187.5,40.5 Z"/></g>
<g><path style="opacity:1" fill="#355748" d="M 207.5,39.5 C 211.724,40.5225 215.391,42.6892 218.5,46C 217.687,47.8847 216.353,48.5513 214.5,48C 212.5,46.6667 210.5,45.3333 208.5,44C 207.62,42.6439 207.286,41.1439 207.5,39.5 Z"/></g>
<g><path style="opacity:1" fill="#0a1312" d="M 269.5,43.5 C 265.818,43.3347 262.152,43.5014 258.5,44C 259.364,45.6965 260.697,46.8632 262.5,47.5C 263.429,48.6888 263.762,50.0222 263.5,51.5C 262.167,51.5 260.833,51.5 259.5,51.5C 259.719,50.325 259.386,49.325 258.5,48.5C 254.535,47.2139 252.535,44.5472 252.5,40.5C 257.511,40.3341 262.511,40.5007 267.5,41C 268.381,41.7083 269.047,42.5416 269.5,43.5 Z"/></g>
<g><path style="opacity:1" fill="#949c9c" d="M 230.5,41.5 C 233.591,40.6863 236.257,41.6863 238.5,44.5C 237.635,45.5827 236.635,45.7494 235.5,45C 234.154,43.3308 232.487,42.1642 230.5,41.5 Z"/></g>
<g><path style="opacity:1" fill="#cbcece" d="M 183.5,36.5 C 182.89,37.391 182.557,38.391 182.5,39.5C 177.477,45.8669 172.81,52.5335 168.5,59.5C 164.993,59.0795 161.659,58.0795 158.5,56.5C 155.823,54.1549 153.49,51.4883 151.5,48.5C 151.134,47.3054 150.301,46.6387 149,46.5C 145.872,47.2037 142.706,47.7037 139.5,48C 138.061,48.9906 137.061,50.324 136.5,52C 133.771,52.0047 131.771,53.1713 130.5,55.5C 128.253,56.3742 125.92,56.7076 123.5,56.5C 123.5,57.5 123.5,58.5 123.5,59.5C 119.066,60.5531 114.732,61.8864 110.5,63.5C 113.579,57.6439 118.579,54.8106 125.5,55C 127.68,51.9615 130.347,49.4615 133.5,47.5C 135.396,46.5344 137.396,46.2011 139.5,46.5C 139.354,42.4809 139.021,38.4809 138.5,34.5C 143.593,36.7194 148.926,38.0528 154.5,38.5C 155.833,38.5 157.167,38.5 158.5,38.5C 160.214,39.7384 162.214,40.405 164.5,40.5C 167.028,41.0114 169.528,41.6781 172,42.5C 174.737,42.6243 175.571,41.6243 174.5,39.5C 172.261,38.2122 169.928,37.2122 167.5,36.5C 165.649,35.1336 165.316,33.467 166.5,31.5C 170.818,33.6831 175.152,34.3497 179.5,33.5C 180.737,32.0351 181.737,30.3684 182.5,28.5C 183.488,27.205 184.488,25.8717 185.5,24.5C 185.932,23.2905 186.599,22.2905 187.5,21.5C 189.096,20.0036 190.762,18.8369 192.5,18C 190.564,23.3742 187.731,28.2075 184,32.5C 183.51,33.7932 183.343,35.1266 183.5,36.5 Z"/></g>
<g><path style="opacity:1" fill="#373b3c" d="M 167.5,36.5 C 169.928,37.2122 172.261,38.2122 174.5,39.5C 175.571,41.6243 174.737,42.6243 172,42.5C 169.528,41.6781 167.028,41.0114 164.5,40.5C 164.088,38.0274 165.088,36.6941 167.5,36.5 Z"/></g>
<g><path style="opacity:1" fill="#4a231d" d="M 184.5,42.5 C 184.5,43.8333 185.167,44.5 186.5,44.5C 189.147,46.8956 189.147,49.2289 186.5,51.5C 187.434,49.7615 187.434,48.0948 186.5,46.5C 184.477,48.8528 182.477,51.1862 180.5,53.5C 181.569,49.7041 182.902,46.0374 184.5,42.5 Z"/></g>
<g><path style="opacity:1" fill="#0c1715" d="M 269.5,43.5 C 276.13,44.6488 281.797,47.6488 286.5,52.5C 286.167,52.8333 285.833,53.1667 285.5,53.5C 284.482,52.8075 283.482,52.1408 282.5,51.5C 281.167,50.8333 279.833,50.1667 278.5,49.5C 275.672,47.2519 272.672,45.2519 269.5,43.5 Z"/></g>
<g><path style="opacity:1" fill="#8dbbac" d="M 232.5,48.5 C 233.5,48.5 234.5,48.5 235.5,48.5C 235.5,49.8333 235.5,51.1667 235.5,52.5C 232.046,52.7332 231.046,51.3999 232.5,48.5 Z"/></g>
<g><path style="opacity:1" fill="#724946" d="M 293.5,51.5 C 293.38,52.5862 292.713,53.2528 291.5,53.5C 290.151,53.1543 288.817,52.821 287.5,52.5C 288.511,50.6284 289.345,48.6284 290,46.5C 291.011,47.3366 292.178,47.67 293.5,47.5C 293.5,48.8333 293.5,50.1667 293.5,51.5 Z"/></g>
<g><path style="opacity:1" fill="#d37f6a" d="M 186.5,51.5 C 183.601,54.9516 180.934,58.6183 178.5,62.5C 177.833,62.5 177.5,62.8333 177.5,63.5C 177.167,63.5 176.833,63.5 176.5,63.5C 175.167,62.1667 175.167,60.8333 176.5,59.5C 178.192,57.7952 179.525,55.7952 180.5,53.5C 182.477,51.1862 184.477,48.8528 186.5,46.5C 187.434,48.0948 187.434,49.7615 186.5,51.5 Z"/></g>
<g><path style="opacity:1" fill="#1c100a" d="M 187.5,66.5 C 186.5,66.5 185.5,66.5 184.5,66.5C 184.062,66.5654 183.728,66.3988 183.5,66C 184.833,64 186.167,62 187.5,60C 186.975,59.3076 186.308,58.8076 185.5,58.5C 184.291,60.9408 182.624,62.9408 180.5,64.5C 180.5,63.1667 179.833,62.5 178.5,62.5C 180.934,58.6183 183.601,54.9516 186.5,51.5C 189.147,49.2289 189.147,46.8956 186.5,44.5C 188.109,43.3346 188.443,42.0012 187.5,40.5C 187.56,39.9569 187.893,39.6236 188.5,39.5C 189.415,40.3279 190.081,41.3279 190.5,42.5C 189.071,46.6739 189.738,50.5072 192.5,54C 190.65,56.6931 188.983,59.5265 187.5,62.5C 189.879,64.1048 189.879,65.4381 187.5,66.5 Z"/></g>
<g><path style="opacity:1" fill="#866244" d="M -0.5,35.5 C 1.93236,36.7502 4.26569,38.2502 6.5,40C 10.1561,44.3228 14.1561,48.3228 18.5,52C 20.2205,52.7393 21.8872,53.5726 23.5,54.5C 24.5366,57.7034 26.2032,60.5367 28.5,63C 29.448,63.4828 30.448,63.6495 31.5,63.5C 31.4302,67.3718 33.2635,69.7051 37,70.5C 39.6503,75.9594 43.1503,80.6261 47.5,84.5C 46.448,84.6495 45.448,84.4828 44.5,84C 38.758,79.2503 32.758,74.9169 26.5,71C 24.7976,68.7646 23.7976,66.2646 23.5,63.5C 22.448,63.6495 21.448,63.4828 20.5,63C 16.9993,57.8251 13.4993,52.6585 10,47.5C 7.06873,43.9658 3.56873,41.2992 -0.5,39.5C -0.5,38.1667 -0.5,36.8333 -0.5,35.5 Z"/></g>
<g><path style="opacity:1" fill="#464143" d="M 278.5,49.5 C 279.833,50.1667 281.167,50.8333 282.5,51.5C 281.791,52.404 280.791,52.7373 279.5,52.5C 279.5,53.5 279.5,54.5 279.5,55.5C 281.857,55.6633 284.19,55.4966 286.5,55C 287.056,54.6174 287.389,54.1174 287.5,53.5C 290.54,54.6803 293.206,56.347 295.5,58.5C 288.679,59.6546 281.679,59.8213 274.5,59C 272.918,56.9146 270.918,55.4146 268.5,54.5C 270.766,53.6858 273.1,53.1858 275.5,53C 276.636,51.8549 277.636,50.6883 278.5,49.5 Z"/></g>
<g><path style="opacity:1" fill="#686f63" d="M 293.5,51.5 C 294.833,51.5 296.167,51.5 297.5,51.5C 294.493,54.8181 295.16,57.1514 299.5,58.5C 299.5,58.8333 299.5,59.1667 299.5,59.5C 298.167,59.1667 296.833,58.8333 295.5,58.5C 293.206,56.347 290.54,54.6803 287.5,53.5C 287.5,53.1667 287.5,52.8333 287.5,52.5C 288.817,52.821 290.151,53.1543 291.5,53.5C 292.713,53.2528 293.38,52.5862 293.5,51.5 Z"/></g>
<g><path style="opacity:1" fill="#a2745a" d="M 151.5,48.5 C 153.49,51.4883 155.823,54.1549 158.5,56.5C 158.5,57.1667 158.5,57.8333 158.5,58.5C 154.98,57.4821 152.813,55.1487 152,51.5C 149.2,50.5574 146.366,50.7241 143.5,52C 137.888,55.4893 132.555,59.4893 127.5,64C 124.986,65.2525 122.32,65.7525 119.5,65.5C 125.922,61.4432 132.255,57.1099 138.5,52.5C 142.525,50.1617 146.859,48.8284 151.5,48.5 Z"/></g>
<g><path style="opacity:1" fill="#62403f" d="M 297.5,51.5 C 298.167,51.5 298.833,51.5 299.5,51.5C 299.5,53.8333 299.5,56.1667 299.5,58.5C 295.16,57.1514 294.493,54.8181 297.5,51.5 Z"/></g>
<g><path style="opacity:1" fill="#bf9e8f" d="M 158.5,56.5 C 161.659,58.0795 164.993,59.0795 168.5,59.5C 168.5,60.1667 168.833,60.5 169.5,60.5C 169.833,61.1667 170.167,61.8333 170.5,62.5C 165.612,63.7594 161.612,62.4261 158.5,58.5C 158.5,57.8333 158.5,57.1667 158.5,56.5 Z"/></g>
<g><path style="opacity:1" fill="#c7c8c5" d="M 12.5,37.5 C 16.0235,39.864 18.6902,43.0306 20.5,47C 23.6099,47.6095 25.6099,49.4428 26.5,52.5C 31.8964,54.8726 34.8964,58.8726 35.5,64.5C 34.1667,64.1667 32.8333,63.8333 31.5,63.5C 31.2914,62.0783 30.7914,60.745 30,59.5C 26.17,54.4985 22.0033,49.8319 17.5,45.5C 16.1946,42.5447 14.528,39.878 12.5,37.5 Z"/></g>
<g><path style="opacity:1" fill="#494b4d" d="M 229.5,62.5 C 227.566,61.8897 225.899,60.8897 224.5,59.5C 226.685,58.9131 228.352,59.9131 229.5,62.5 Z"/></g>
<g><path style="opacity:1" fill="#c7ab99" d="M 151.5,48.5 C 146.859,48.8284 142.525,50.1617 138.5,52.5C 132.255,57.1099 125.922,61.4432 119.5,65.5C 116.919,66.4885 114.252,67.4885 111.5,68.5C 110.164,70.3068 108.497,71.8068 106.5,73C 108.589,74.5721 108.589,76.4055 106.5,78.5C 105.675,79.3857 104.675,79.719 103.5,79.5C 104.003,75.9605 105.003,72.6272 106.5,69.5C 106.633,66.6338 107.966,64.6338 110.5,63.5C 114.732,61.8864 119.066,60.5531 123.5,59.5C 123.5,58.5 123.5,57.5 123.5,56.5C 125.92,56.7076 128.253,56.3742 130.5,55.5C 131.771,53.1713 133.771,52.0047 136.5,52C 137.061,50.324 138.061,48.9906 139.5,48C 142.706,47.7037 145.872,47.2037 149,46.5C 150.301,46.6387 151.134,47.3054 151.5,48.5 Z"/></g>
<g><path style="opacity:1" fill="#a8af90" d="M 178.5,62.5 C 179.833,62.5 180.5,63.1667 180.5,64.5C 180.5,65.1667 180.167,65.5 179.5,65.5C 178.5,65.1667 177.833,64.5 177.5,63.5C 177.5,62.8333 177.833,62.5 178.5,62.5 Z"/></g>
<g><path style="opacity:1" fill="#3f291d" d="M 176.5,59.5 C 175.167,60.8333 175.167,62.1667 176.5,63.5C 176.262,65.4044 175.262,66.7377 173.5,67.5C 173.196,65.2043 172.196,64.871 170.5,66.5C 171.354,64.965 171.354,63.6316 170.5,62.5C 170.167,61.8333 169.833,61.1667 169.5,60.5C 171.903,60.552 174.236,60.2186 176.5,59.5 Z"/></g>
<g><path style="opacity:1" fill="#c58564" d="M 184.5,66.5 C 184.5,66.8333 184.5,67.1667 184.5,67.5C 182.833,68.8333 181.167,70.1667 179.5,71.5C 178.624,71.6309 177.957,71.2975 177.5,70.5C 178.456,68.9246 179.123,67.258 179.5,65.5C 180.167,65.5 180.5,65.1667 180.5,64.5C 182.624,62.9408 184.291,60.9408 185.5,58.5C 186.308,58.8076 186.975,59.3076 187.5,60C 186.167,62 184.833,64 183.5,66C 183.728,66.3988 184.062,66.5654 184.5,66.5 Z"/></g>
<g><path style="opacity:1" fill="#334040" d="M 269.5,43.5 C 272.672,45.2519 275.672,47.2519 278.5,49.5C 277.636,50.6883 276.636,51.8549 275.5,53C 273.1,53.1858 270.766,53.6858 268.5,54.5C 270.918,55.4146 272.918,56.9146 274.5,59C 281.679,59.8213 288.679,59.6546 295.5,58.5C 296.833,58.8333 298.167,59.1667 299.5,59.5C 299.5,68.1667 299.5,76.8333 299.5,85.5C 295.963,85.0584 292.63,84.0584 289.5,82.5C 289.646,80.0576 288.813,79.3909 287,80.5C 284.667,78.5 282.333,76.5 280,74.5C 276.962,69.7313 273.962,65.0646 271,60.5C 269.519,57.9564 267.352,56.2897 264.5,55.5C 263.571,54.3112 263.238,52.9778 263.5,51.5C 263.762,50.0222 263.429,48.6888 262.5,47.5C 260.697,46.8632 259.364,45.6965 258.5,44C 262.152,43.5014 265.818,43.3347 269.5,43.5 Z"/></g>
<g><path style="opacity:1" fill="#622d0c" d="M 169.5,66.5 C 169.047,67.4584 168.381,68.2917 167.5,69C 162.902,68.4052 159.902,70.2385 158.5,74.5C 155.884,75.4798 153.551,76.9798 151.5,79C 150.207,79.49 148.873,79.6567 147.5,79.5C 145.665,80.1223 144.498,81.4556 144,83.5C 143.683,81.6992 143.016,81.3659 142,82.5C 140.609,87.5708 137.942,91.9041 134,95.5C 133.333,94.1667 132.667,94.1667 132,95.5C 131.658,93.3808 130.825,93.0474 129.5,94.5C 129.047,93.5416 128.381,92.7083 127.5,92C 130.821,90.1881 132.155,87.3547 131.5,83.5C 130.127,83.6567 128.793,83.49 127.5,83C 128.406,81.3005 128.739,79.4672 128.5,77.5C 127.325,77.719 126.325,77.3857 125.5,76.5C 127.077,74.5508 128.577,72.5508 130,70.5C 132.124,69.7728 134.291,69.1062 136.5,68.5C 136.997,66.784 137.331,65.1173 137.5,63.5C 140.388,66.4621 141.721,65.7954 141.5,61.5C 141.97,60.3065 142.97,59.6399 144.5,59.5C 145.5,59.6667 146.5,59.8333 147.5,60C 152.932,61.8815 158.266,64.0482 163.5,66.5C 165.397,64.4147 167.397,64.4147 169.5,66.5 Z"/></g>
<g><path style="opacity:1" fill="#bb7b54" d="M 151.5,68.5 C 151.509,70.3084 151.009,71.9751 150,73.5C 149.653,71.8198 148.653,70.8198 147,70.5C 144.138,71.0283 141.304,71.6949 138.5,72.5C 141.167,74.5 141.167,76.5 138.5,78.5C 137.354,77.8551 136.354,77.0217 135.5,76C 135.47,74.5707 135.803,73.0707 136.5,71.5C 139.274,69.7411 142.107,68.0744 145,66.5C 147.087,67.3972 149.254,68.0639 151.5,68.5 Z"/></g>
<g><path style="opacity:1" fill="#131918" d="M 244.5,39.5 C 245.737,40.9649 246.737,42.6316 247.5,44.5C 247.5,45.8333 247.5,47.1667 247.5,48.5C 246.445,53.0139 244.445,57.0139 241.5,60.5C 235.475,68.5364 229.809,76.8698 224.5,85.5C 222.833,87.5 221.167,89.5 219.5,91.5C 219.225,89.1582 218.392,89.1582 217,91.5C 216.667,90.8333 216.333,90.1667 216,89.5C 214.526,92.3249 213.026,92.6582 211.5,90.5C 208.539,91.1831 208.205,92.0164 210.5,93C 207.446,94.1611 206.78,96.1611 208.5,99C 207.964,101.24 206.797,103.073 205,104.5C 205.617,102.905 205.284,101.572 204,100.5C 201.709,101.311 199.875,100.477 198.5,98C 200.594,99.0943 202.927,99.4277 205.5,99C 203.792,97.4905 202.126,95.9905 200.5,94.5C 201.833,94.1667 203.167,93.8333 204.5,93.5C 203.674,92.549 203.508,91.549 204,90.5C 205.183,91.731 206.349,91.731 207.5,90.5C 206.05,89.1502 205.383,87.4835 205.5,85.5C 207.21,87.1996 209.21,88.5329 211.5,89.5C 211.564,86.521 209.898,84.521 206.5,83.5C 207.209,82.596 208.209,82.2627 209.5,82.5C 209.5,81.5 209.5,80.5 209.5,79.5C 210.978,79.762 212.311,79.4287 213.5,78.5C 212.494,77.6043 212.494,76.9377 213.5,76.5C 214.833,77.5 216.167,78.5 217.5,79.5C 214.18,80.7613 213.846,82.428 216.5,84.5C 218.85,82.3131 220.85,79.8131 222.5,77C 221.451,76.5078 220.451,76.6744 219.5,77.5C 217.833,76.1667 216.167,74.8333 214.5,73.5C 215.025,72.8076 215.692,72.3076 216.5,72C 215.849,70.692 216.515,69.8586 218.5,69.5C 219.815,70.4756 221.148,71.4756 222.5,72.5C 218.519,73.4943 218.519,74.4943 222.5,75.5C 226.393,72.7965 228.227,69.1298 228,64.5C 227.323,66.689 226.156,67.0224 224.5,65.5C 223.887,66.9798 223.554,68.3131 223.5,69.5C 222.167,68.5 220.833,67.5 219.5,66.5C 219.88,64.9793 220.046,63.3126 220,61.5C 221.11,59.9632 222.61,59.2965 224.5,59.5C 225.899,60.8897 227.566,61.8897 229.5,62.5C 229.56,63.0431 229.893,63.3764 230.5,63.5C 237.417,57.3322 241.417,49.6655 242.5,40.5C 243.167,40.1667 243.833,39.8333 244.5,39.5 Z"/></g>
<g><path style="opacity:1" fill="#855032" d="M 158.5,58.5 C 161.612,62.4261 165.612,63.7594 170.5,62.5C 171.354,63.6316 171.354,64.965 170.5,66.5C 170.167,66.5 169.833,66.5 169.5,66.5C 167.397,64.4147 165.397,64.4147 163.5,66.5C 158.266,64.0482 152.932,61.8815 147.5,60C 146.5,59.8333 145.5,59.6667 144.5,59.5C 142.97,59.6399 141.97,60.3065 141.5,61.5C 140.25,61.4226 139.417,60.756 139,59.5C 137.68,59.799 136.18,59.9657 134.5,60C 132.457,62.0086 130.457,64.0086 128.5,66C 124.402,66.4434 121.402,68.4434 119.5,72C 119.645,72.772 119.978,73.4387 120.5,74C 118.285,74.1705 116.285,74.8372 114.5,76C 116.303,76.6368 117.636,77.8035 118.5,79.5C 117.34,81.7106 116.007,83.7106 114.5,85.5C 112.167,85.5 109.833,85.5 107.5,85.5C 108.865,83.4091 109.532,81.0758 109.5,78.5C 110.833,78.5 112.167,78.5 113.5,78.5C 113.5,77.5 113.5,76.5 113.5,75.5C 112.5,75.5 111.5,75.5 110.5,75.5C 110.993,73.1944 111.326,70.861 111.5,68.5C 114.252,67.4885 116.919,66.4885 119.5,65.5C 122.32,65.7525 124.986,65.2525 127.5,64C 132.555,59.4893 137.888,55.4893 143.5,52C 146.366,50.7241 149.2,50.5574 152,51.5C 152.813,55.1487 154.98,57.4821 158.5,58.5 Z"/></g>
<g><path style="opacity:1" fill="#957359" d="M 31.5,63.5 C 32.8333,63.8333 34.1667,64.1667 35.5,64.5C 37.8902,66.0198 40.5568,67.0198 43.5,67.5C 44.5903,68.8571 45.9236,69.8571 47.5,70.5C 47.631,71.2389 47.4643,71.9056 47,72.5C 45.9887,71.6634 44.8221,71.33 43.5,71.5C 45.204,74.3989 47.204,77.2322 49.5,80C 53.499,81.3328 57.1656,83.1661 60.5,85.5C 60.5,85.8333 60.5,86.1667 60.5,86.5C 59.5266,86.9867 58.5266,87.4867 57.5,88C 59.0261,89.8871 61.0261,90.8871 63.5,91C 61.1667,91.3333 58.8333,91.6667 56.5,92C 57.5634,93.1882 58.8967,93.6882 60.5,93.5C 61.6602,94.265 62.6602,95.265 63.5,96.5C 62.675,97.3857 61.675,97.719 60.5,97.5C 60.5858,96.5041 60.2524,95.6708 59.5,95C 56.2712,94.6437 54.7712,92.8103 55,89.5C 52.095,88.4261 49.595,86.7594 47.5,84.5C 43.1503,80.6261 39.6503,75.9594 37,70.5C 33.2635,69.7051 31.4302,67.3718 31.5,63.5 Z"/></g>
<g><path style="opacity:1" fill="#635350" d="M 272.5,79.5 C 273.167,79.8333 273.833,80.1667 274.5,80.5C 273.912,83.0631 272.912,85.3964 271.5,87.5C 271.167,87.5 270.833,87.5 270.5,87.5C 271.218,85.8632 271.384,84.1966 271,82.5C 268.253,85.7537 265.086,88.4203 261.5,90.5C 261.427,88.9731 262.094,87.9731 263.5,87.5C 266.146,85.5211 268.479,83.1878 270.5,80.5C 270.023,79.5224 269.357,78.6891 268.5,78C 256.482,72.3683 256.815,71.035 269.5,74C 270.869,75.7189 271.869,77.5522 272.5,79.5 Z"/></g>
<g><path style="opacity:1" fill="#634a38" d="M 47.5,70.5 C 52.2649,71.1857 56.2649,73.1857 59.5,76.5C 49.9134,74.7014 49.2467,76.2014 57.5,81C 59.1412,82.129 60.1412,83.629 60.5,85.5C 57.1656,83.1661 53.499,81.3328 49.5,80C 47.204,77.2322 45.204,74.3989 43.5,71.5C 44.8221,71.33 45.9887,71.6634 47,72.5C 47.4643,71.9056 47.631,71.2389 47.5,70.5 Z"/></g>
<g><path style="opacity:1" fill="#8e6145" d="M 111.5,68.5 C 111.326,70.861 110.993,73.1944 110.5,75.5C 111.5,75.5 112.5,75.5 113.5,75.5C 113.5,76.5 113.5,77.5 113.5,78.5C 112.167,78.5 110.833,78.5 109.5,78.5C 109.532,81.0758 108.865,83.4091 107.5,85.5C 107.423,86.7498 106.756,87.5831 105.5,88C 106.308,88.3076 106.975,88.8076 107.5,89.5C 106.311,90.4287 104.978,90.762 103.5,90.5C 103.52,92.143 102.853,93.4763 101.5,94.5C 103.981,95.8596 103.648,96.8596 100.5,97.5C 98.3448,97.162 96.0115,97.162 93.5,97.5C 96.1994,92.29 99.3661,87.29 103,82.5C 103.483,81.552 103.649,80.552 103.5,79.5C 104.675,79.719 105.675,79.3857 106.5,78.5C 108.589,76.4055 108.589,74.5721 106.5,73C 108.497,71.8068 110.164,70.3068 111.5,68.5 Z"/></g>
<g><path style="opacity:1" fill="#713d1c" d="M 141.5,61.5 C 141.721,65.7954 140.388,66.4621 137.5,63.5C 137.331,65.1173 136.997,66.784 136.5,68.5C 134.291,69.1062 132.124,69.7728 130,70.5C 128.577,72.5508 127.077,74.5508 125.5,76.5C 126.325,77.3857 127.325,77.719 128.5,77.5C 128.739,79.4672 128.406,81.3005 127.5,83C 128.793,83.49 130.127,83.6567 131.5,83.5C 132.155,87.3547 130.821,90.1881 127.5,92C 128.381,92.7083 129.047,93.5416 129.5,94.5C 126.34,97.4661 123.173,100.466 120,103.5C 119.125,100.785 117.292,99.4521 114.5,99.5C 115.009,96.8078 116.009,94.3078 117.5,92C 115.085,90.5263 115.085,88.8596 117.5,87C 117.333,86.5 117.167,86 117,85.5C 116.29,86.9733 115.124,87.6399 113.5,87.5C 113.782,91.5878 113.115,92.0878 111.5,89C 112.071,87.4009 113.071,86.2342 114.5,85.5C 116.007,83.7106 117.34,81.7106 118.5,79.5C 117.636,77.8035 116.303,76.6368 114.5,76C 116.285,74.8372 118.285,74.1705 120.5,74C 119.978,73.4387 119.645,72.772 119.5,72C 121.402,68.4434 124.402,66.4434 128.5,66C 130.457,64.0086 132.457,62.0086 134.5,60C 136.18,59.9657 137.68,59.799 139,59.5C 139.417,60.756 140.25,61.4226 141.5,61.5 Z"/></g>
<g><path style="opacity:1" fill="#7a3a16" d="M 151.5,68.5 C 152.708,69.2341 154.041,69.5674 155.5,69.5C 155.67,70.8221 155.337,71.9887 154.5,73C 152.695,73.972 151.028,75.1387 149.5,76.5C 148.685,74.7241 147.518,74.0574 146,74.5C 145.517,75.448 145.351,76.448 145.5,77.5C 141.231,78.7841 139.397,81.7841 140,86.5C 138.559,87.2598 137.059,87.9264 135.5,88.5C 135.708,83.8958 135.374,79.2291 134.5,74.5C 134.64,72.9704 135.307,71.9704 136.5,71.5C 135.803,73.0707 135.47,74.5707 135.5,76C 136.354,77.0217 137.354,77.8551 138.5,78.5C 141.167,76.5 141.167,74.5 138.5,72.5C 141.304,71.6949 144.138,71.0283 147,70.5C 148.653,70.8198 149.653,71.8198 150,73.5C 151.009,71.9751 151.509,70.3084 151.5,68.5 Z"/></g>
<g><path style="opacity:1" fill="#3a1b09" d="M 158.5,74.5 C 155.822,78.0177 153.322,81.6844 151,85.5C 149.185,86.2444 147.352,86.9111 145.5,87.5C 146.75,84.994 147.416,82.3274 147.5,79.5C 148.873,79.6567 150.207,79.49 151.5,79C 153.551,76.9798 155.884,75.4798 158.5,74.5 Z"/></g>
<g><path style="opacity:1" fill="#816761" d="M 239.5,75.5 C 240.338,75.8417 240.672,76.5084 240.5,77.5C 238.817,78.8534 237.484,80.5201 236.5,82.5C 234.167,82.5 231.833,82.5 229.5,82.5C 230.597,77.0798 233.931,74.7465 239.5,75.5 Z"/></g>
<g><path style="opacity:1" fill="#836a67" d="M 245.5,81.5 C 241.027,85.2415 240.36,84.2415 243.5,78.5C 244.712,77.7701 245.712,76.7701 246.5,75.5C 246.833,76 247.167,76.5 247.5,77C 246.586,78.4064 245.92,79.9064 245.5,81.5 Z"/></g>
<g><path style="opacity:1" fill="#100f0c" d="M 59.5,76.5 C 70.0124,80.5599 80.679,84.2265 91.5,87.5C 90.4324,88.4345 89.099,88.7678 87.5,88.5C 82.737,88.7744 78.0704,88.441 73.5,87.5C 69.2315,86.6274 64.8982,86.2941 60.5,86.5C 60.5,86.1667 60.5,85.8333 60.5,85.5C 60.1412,83.629 59.1412,82.129 57.5,81C 49.2467,76.2014 49.9134,74.7014 59.5,76.5 Z"/></g>
<g><path style="opacity:1" fill="#434b4b" d="M 247.5,48.5 C 251.515,49.5119 255.515,50.5119 259.5,51.5C 260.833,51.5 262.167,51.5 263.5,51.5C 263.238,52.9778 263.571,54.3112 264.5,55.5C 267.352,56.2897 269.519,57.9564 271,60.5C 273.962,65.0646 276.962,69.7313 280,74.5C 282.333,76.5 284.667,78.5 287,80.5C 288.813,79.3909 289.646,80.0576 289.5,82.5C 292.63,84.0584 295.963,85.0584 299.5,85.5C 299.5,87.8333 299.5,90.1667 299.5,92.5C 297.47,94.8968 295.803,97.5634 294.5,100.5C 293.391,100.443 292.391,100.11 291.5,99.5C 289.409,99.3184 287.409,99.6518 285.5,100.5C 283.787,100.121 282.787,99.1207 282.5,97.5C 283.598,96.3991 283.765,95.0657 283,93.5C 281.23,95.4181 279.063,95.9181 276.5,95C 276.158,91.4498 274.491,90.2831 271.5,91.5C 271.5,90.1667 271.5,88.8333 271.5,87.5C 272.912,85.3964 273.912,83.0631 274.5,80.5C 278.328,82.7876 282.328,83.7876 286.5,83.5C 286.291,82.914 285.957,82.414 285.5,82C 281.619,80.1959 277.619,78.6959 273.5,77.5C 272.702,77.9569 272.369,78.6236 272.5,79.5C 271.869,77.5522 270.869,75.7189 269.5,74C 256.815,71.035 256.482,72.3683 268.5,78C 269.357,78.6891 270.023,79.5224 270.5,80.5C 268.479,83.1878 266.146,85.5211 263.5,87.5C 263.5,86.1667 263.5,84.8333 263.5,83.5C 262.167,83.5 260.833,83.5 259.5,83.5C 259.631,82.6236 259.298,81.9569 258.5,81.5C 257.482,82.1925 256.482,82.8592 255.5,83.5C 255.719,82.325 255.386,81.325 254.5,80.5C 253.186,81.3128 252.019,82.3128 251,83.5C 249.599,81.8078 247.766,81.1412 245.5,81.5C 245.92,79.9064 246.586,78.4064 247.5,77C 247.167,76.5 246.833,76 246.5,75.5C 245.712,76.7701 244.712,77.7701 243.5,78.5C 242.791,77.596 241.791,77.2627 240.5,77.5C 240.672,76.5084 240.338,75.8417 239.5,75.5C 239.5,74.5 239.5,73.5 239.5,72.5C 241.451,72.7733 242.951,72.1066 244,70.5C 248.44,70.4283 252.94,70.595 257.5,71C 254.28,68.829 251.113,66.6624 248,64.5C 246.85,63.5761 245.85,63.5761 245,64.5C 243.595,63.2695 242.429,61.9361 241.5,60.5C 244.445,57.0139 246.445,53.0139 247.5,48.5 Z"/></g>
<g><path style="opacity:1" fill="#6d797f" d="M 274.5,80.5 C 273.833,80.1667 273.167,79.8333 272.5,79.5C 272.369,78.6236 272.702,77.9569 273.5,77.5C 277.619,78.6959 281.619,80.1959 285.5,82C 285.957,82.414 286.291,82.914 286.5,83.5C 282.328,83.7876 278.328,82.7876 274.5,80.5 Z"/></g>
<g><path style="opacity:1" fill="#85898a" d="M 248.5,53.5 C 252.302,53.8737 255.636,55.207 258.5,57.5C 256.534,58.372 254.534,58.2053 252.5,57C 250.456,56.5017 249.122,55.335 248.5,53.5 Z"/></g>
<g><path style="opacity:1" fill="#94c8b6" d="M 206.5,83.5 C 209.898,84.521 211.564,86.521 211.5,89.5C 209.21,88.5329 207.21,87.1996 205.5,85.5C 205.833,84.8333 206.167,84.1667 206.5,83.5 Z"/></g>
<g><path style="opacity:1" fill="#4a6f63" d="M 240.5,77.5 C 241.791,77.2627 242.791,77.596 243.5,78.5C 240.36,84.2415 241.027,85.2415 245.5,81.5C 247.766,81.1412 249.599,81.8078 251,83.5C 252.019,82.3128 253.186,81.3128 254.5,80.5C 255.386,81.325 255.719,82.325 255.5,83.5C 253.37,87.7673 250.703,90.7673 247.5,92.5C 244.741,92.0231 243.075,90.3564 242.5,87.5C 240.5,86.8333 238.5,86.1667 236.5,85.5C 235.438,84.5754 235.438,83.5754 236.5,82.5C 237.484,80.5201 238.817,78.8534 240.5,77.5 Z"/></g>
<g><path style="opacity:1" fill="#447262" d="M 259.5,83.5 C 260.833,83.5 262.167,83.5 263.5,83.5C 263.5,84.8333 263.5,86.1667 263.5,87.5C 262.094,87.9731 261.427,88.9731 261.5,90.5C 260.833,90.8333 260.167,91.1667 259.5,91.5C 257.839,94.1613 256.172,94.1613 254.5,91.5C 255.406,88.2808 257.072,85.6141 259.5,83.5 Z"/></g>
<g><path style="opacity:1" fill="#d0d5d7" d="M 224.5,85.5 C 249.588,96.3068 274.588,107.307 299.5,118.5C 299.5,122.167 299.5,125.833 299.5,129.5C 273.511,118.173 247.511,106.839 221.5,95.5C 220.449,94.7777 219.782,93.7777 219.5,92.5C 219.5,92.1667 219.5,91.8333 219.5,91.5C 221.167,89.5 222.833,87.5 224.5,85.5 Z"/></g>
<g><path style="opacity:1" fill="#d4c2b4" d="M 106.5,69.5 C 105.003,72.6272 104.003,75.9605 103.5,79.5C 101.508,81.363 100.008,83.6963 99,86.5C 95.1959,90.1692 91.0292,93.5025 86.5,96.5C 81.3018,96.7001 76.1352,97.0334 71,97.5C 70.3828,96.5509 70.5494,95.7175 71.5,95C 70.9056,94.5357 70.2389,94.369 69.5,94.5C 69.84,92.321 70.84,90.4877 72.5,89C 69.4277,88.2005 67.7611,89.3671 67.5,92.5C 65.139,92.6741 62.8056,93.0074 60.5,93.5C 58.8967,93.6882 57.5634,93.1882 56.5,92C 58.8333,91.6667 61.1667,91.3333 63.5,91C 61.0261,90.8871 59.0261,89.8871 57.5,88C 58.5266,87.4867 59.5266,86.9867 60.5,86.5C 64.8982,86.2941 69.2315,86.6274 73.5,87.5C 75.3972,88.8048 77.7305,89.4714 80.5,89.5C 83.0254,89.4966 85.3587,89.1633 87.5,88.5C 89.099,88.7678 90.4324,88.4345 91.5,87.5C 92.7175,86.8386 94.0508,86.1719 95.5,85.5C 98.202,79.4046 101.869,74.0713 106.5,69.5 Z"/></g>
<g><path style="opacity:1" fill="#6a5a4c" d="M 73.5,87.5 C 78.0704,88.441 82.737,88.7744 87.5,88.5C 85.3587,89.1633 83.0254,89.4966 80.5,89.5C 77.7305,89.4714 75.3972,88.8048 73.5,87.5 Z"/></g>
<g><path style="opacity:1" fill="#7b532f" d="M -0.5,39.5 C 3.56873,41.2992 7.06873,43.9658 10,47.5C 13.4993,52.6585 16.9993,57.8251 20.5,63C 21.448,63.4828 22.448,63.6495 23.5,63.5C 23.7976,66.2646 24.7976,68.7646 26.5,71C 32.758,74.9169 38.758,79.2503 44.5,84C 45.448,84.4828 46.448,84.6495 47.5,84.5C 49.595,86.7594 52.095,88.4261 55,89.5C 54.7712,92.8103 56.2712,94.6437 59.5,95C 60.2524,95.6708 60.5858,96.5041 60.5,97.5C 58.5759,97.7107 58.2426,98.3774 59.5,99.5C 58.9688,101.544 57.8022,103.211 56,104.5C 57.5513,111.734 54.7179,115.068 47.5,114.5C 46.1882,112.359 44.3549,110.692 42,109.5C 40.9605,107.254 39.7938,105.087 38.5,103C 35.8976,102.023 33.3976,100.856 31,99.5C 30.6667,97.8333 30.3333,96.1667 30,94.5C 26.2852,91.6203 23.1186,88.287 20.5,84.5C 18.9547,83.5481 17.288,83.2148 15.5,83.5C 14.6769,80.649 13.3435,77.9823 11.5,75.5C 7.47988,71.8114 3.47988,68.1447 -0.5,64.5C -0.5,56.1667 -0.5,47.8333 -0.5,39.5 Z"/></g>
<g><path style="opacity:1" fill="#9f5b4e" d="M 270.5,87.5 C 268.799,89.7315 267.466,92.2315 266.5,95C 264.5,95.6667 262.5,95.6667 260.5,95C 259.663,93.9887 259.33,92.8221 259.5,91.5C 260.167,91.1667 260.833,90.8333 261.5,90.5C 265.086,88.4203 268.253,85.7537 271,82.5C 271.384,84.1966 271.218,85.8632 270.5,87.5 Z"/></g>
<g><path style="opacity:1" fill="#885e51" d="M 282.5,97.5 C 280.721,98.6697 279.721,100.336 279.5,102.5C 275.646,102.159 272.146,100.826 269,98.5C 268.253,96.0722 269.086,94.4056 271.5,93.5C 271.5,92.8333 271.5,92.1667 271.5,91.5C 274.491,90.2831 276.158,91.4498 276.5,95C 279.063,95.9181 281.23,95.4181 283,93.5C 283.765,95.0657 283.598,96.3991 282.5,97.5 Z"/></g>
<g><path style="opacity:1" fill="#a2968d" d="M 69.5,94.5 C 68.5084,94.3284 67.8417,94.6618 67.5,95.5C 67.6567,96.8734 67.49,98.2068 67,99.5C 66.4387,98.9781 65.772,98.6448 65,98.5C 63.5936,99.4138 62.0936,100.08 60.5,100.5C 60.5,99.8333 60.1667,99.5 59.5,99.5C 58.2426,98.3774 58.5759,97.7107 60.5,97.5C 61.675,97.719 62.675,97.3857 63.5,96.5C 62.6602,95.265 61.6602,94.265 60.5,93.5C 62.8056,93.0074 65.139,92.6741 67.5,92.5C 67.7611,89.3671 69.4277,88.2005 72.5,89C 70.84,90.4877 69.84,92.321 69.5,94.5 Z"/></g>
<g><path style="opacity:1" fill="#bb987e" d="M 103.5,79.5 C 103.649,80.552 103.483,81.552 103,82.5C 99.3661,87.29 96.1994,92.29 93.5,97.5C 86.4322,99.0639 79.4322,100.731 72.5,102.5C 71.2638,101.754 69.9305,101.421 68.5,101.5C 68.7947,99.2646 68.4614,97.2646 67.5,95.5C 67.8417,94.6618 68.5084,94.3284 69.5,94.5C 70.2389,94.369 70.9056,94.5357 71.5,95C 70.5494,95.7175 70.3828,96.5509 71,97.5C 76.1352,97.0334 81.3018,96.7001 86.5,96.5C 91.0292,93.5025 95.1959,90.1692 99,86.5C 100.008,83.6963 101.508,81.363 103.5,79.5 Z"/></g>
<g><path style="opacity:1" fill="#6e5743" d="M 67.5,95.5 C 68.4614,97.2646 68.7947,99.2646 68.5,101.5C 68.5,102.167 68.5,102.833 68.5,103.5C 66.8235,104.183 66.1568,105.517 66.5,107.5C 63.9272,107.852 61.5938,107.352 59.5,106C 59.5649,104.171 59.8982,102.338 60.5,100.5C 62.0936,100.08 63.5936,99.4138 65,98.5C 65.772,98.6448 66.4387,98.9781 67,99.5C 67.49,98.2068 67.6567,96.8734 67.5,95.5 Z"/></g>
<g><path style="opacity:1" fill="#a2a8a5" d="M 149.5,102.5 C 151.549,105.55 154.216,107.883 157.5,109.5C 157.5,109.833 157.5,110.167 157.5,110.5C 157.265,111.097 156.765,111.43 156,111.5C 154.826,110.456 153.659,109.456 152.5,108.5C 151.167,107.5 149.833,106.5 148.5,105.5C 148.423,104.25 147.756,103.417 146.5,103C 147.503,101.454 148.503,101.287 149.5,102.5 Z"/></g>
<g><path style="opacity:1" fill="#23362d" d="M 162.5,80.5 C 164.123,81.7794 165.79,83.1128 167.5,84.5C 168.842,83.0977 169.676,83.4311 170,85.5C 172.416,82.724 173.75,83.0573 174,86.5C 172.703,85.2164 171.536,85.3831 170.5,87C 178.09,92.9471 185.423,99.1138 192.5,105.5C 196.869,107.795 197.702,111.128 195,115.5C 193.255,118.249 191.422,120.916 189.5,123.5C 189.027,124.906 188.027,125.573 186.5,125.5C 187.954,123.429 189.287,121.262 190.5,119C 189.685,117.02 188.352,115.52 186.5,114.5C 186.238,113.022 186.571,111.689 187.5,110.5C 189.893,111.095 191.727,112.428 193,114.5C 195.886,111.632 195.719,109.298 192.5,107.5C 191.808,108.025 191.308,108.692 191,109.5C 190.8,107.68 189.966,106.347 188.5,105.5C 188.158,104.662 187.492,104.328 186.5,104.5C 185.837,106.042 185.17,107.709 184.5,109.5C 183.261,109.058 182.261,108.391 181.5,107.5C 182.239,107.631 182.906,107.464 183.5,107C 175.308,100.302 167.308,93.4686 159.5,86.5C 158.503,86.5299 157.836,86.0299 157.5,85C 158.653,82.7908 160.319,81.2908 162.5,80.5 Z"/></g>
<g><path style="opacity:1" fill="#9cb6a9" d="M 181.5,100.5 C 183.337,100.639 183.67,101.306 182.5,102.5C 181.702,102.043 181.369,101.376 181.5,100.5 Z"/></g>
<g><path style="opacity:1" fill="#9bb3a8" d="M 175.5,95.5 C 177.983,95.73 178.483,96.3966 177,97.5C 175.97,97.1639 175.47,96.4972 175.5,95.5 Z"/></g>
<g><path style="opacity:1" fill="#a3b5b0" d="M 170.5,91.5 C 172.337,91.6395 172.67,92.3061 171.5,93.5C 170.702,93.0431 170.369,92.3764 170.5,91.5 Z"/></g>
<g><path style="opacity:1" fill="#819694" d="M 165.5,86.5 C 167.332,87.1405 167.665,88.1405 166.5,89.5C 165.614,88.675 165.281,87.675 165.5,86.5 Z"/></g>
<g><path style="opacity:1" fill="#658474" d="M 159.5,86.5 C 159.603,83.4356 160.936,82.4356 163.5,83.5C 162.717,85.2882 161.384,86.2882 159.5,86.5 Z"/></g>
<g><path style="opacity:1" fill="#895d40" d="M 93.5,97.5 C 91.9381,98.9756 90.2714,100.476 88.5,102C 86.8659,102.494 85.1992,102.66 83.5,102.5C 83.5,104.833 83.5,107.167 83.5,109.5C 82.0695,109.579 80.7362,109.246 79.5,108.5C 77.2546,110.623 74.5879,111.623 71.5,111.5C 71.5,112.5 71.5,113.5 71.5,114.5C 70.1667,114.5 68.8333,114.5 67.5,114.5C 67.5524,110.802 67.8857,107.135 68.5,103.5C 68.5,102.833 68.5,102.167 68.5,101.5C 69.9305,101.421 71.2638,101.754 72.5,102.5C 79.4322,100.731 86.4322,99.0639 93.5,97.5 Z"/></g>
<g><path style="opacity:1" fill="#abbdb3" d="M 186.5,104.5 C 187.492,104.328 188.158,104.662 188.5,105.5C 187.699,107.793 187.032,107.46 186.5,104.5 Z"/></g>
<g><path style="opacity:1" fill="#5d3110" d="M 147.5,79.5 C 147.416,82.3274 146.75,84.994 145.5,87.5C 143.847,90.1305 142.181,92.7972 140.5,95.5C 134.409,100.086 128.742,105.253 123.5,111C 124.5,111.667 125.5,111.667 126.5,111C 128.194,109.061 130.027,107.228 132,105.5C 130.013,109.964 128.513,114.63 127.5,119.5C 127.5,118.5 127.5,117.5 127.5,116.5C 126.022,116.238 124.689,116.571 123.5,117.5C 122.687,118.814 121.687,119.981 120.5,121C 116.221,122.473 112.221,124.473 108.5,127C 105.251,126.26 101.918,125.927 98.5,126C 101.384,127.037 102.05,128.871 100.5,131.5C 99.5713,130.311 99.238,128.978 99.5,127.5C 96.8333,127.5 94.1667,127.5 91.5,127.5C 91.9209,129.91 93.2542,131.743 95.5,133C 94.8333,133.333 94.1667,133.667 93.5,134C 95.7738,134.47 97.7738,135.47 99.5,137C 106.074,137.761 112.741,138.927 119.5,140.5C 129.129,140.126 132.795,135.126 130.5,125.5C 135.443,133.176 133.61,138.842 125,142.5C 111.534,144.367 98.8674,142.034 87,135.5C 83.2486,135.788 79.4152,135.955 75.5,136C 73.8446,137.444 73.178,139.278 73.5,141.5C 72.5028,141.53 71.8361,141.03 71.5,140C 71.4659,137.919 71.7992,135.753 72.5,133.5C 70.8058,130.336 70.3058,127.002 71,123.5C 75.1376,123.995 79.1376,124.995 83,126.5C 83.4696,125.423 83.3029,124.423 82.5,123.5C 83.5,123.5 84.5,123.5 85.5,123.5C 85.5,122.167 85.5,120.833 85.5,119.5C 87.9393,118.947 90.2727,118.947 92.5,119.5C 94.5623,117.597 95.8956,115.263 96.5,112.5C 99.0956,111.518 101.762,110.851 104.5,110.5C 104.5,109.5 104.5,108.5 104.5,107.5C 105.978,107.762 107.311,107.429 108.5,106.5C 111.026,104.582 113.026,102.249 114.5,99.5C 117.292,99.4521 119.125,100.785 120,103.5C 123.173,100.466 126.34,97.4661 129.5,94.5C 130.825,93.0474 131.658,93.3808 132,95.5C 132.667,94.1667 133.333,94.1667 134,95.5C 137.942,91.9041 140.609,87.5708 142,82.5C 143.016,81.3659 143.683,81.6992 144,83.5C 144.498,81.4556 145.665,80.1223 147.5,79.5 Z"/></g>
<g><path style="opacity:1" fill="#5b3710" d="M -0.5,74.5 C 2.25301,74.9543 3.91968,76.621 4.5,79.5C 7.93801,81.4348 10.938,83.9348 13.5,87C 13.0426,87.414 12.7093,87.914 12.5,88.5C 14.42,93.5936 17.0867,98.2603 20.5,102.5C 21.8415,104.005 23.5082,104.672 25.5,104.5C 24.7451,110.872 27.4118,114.705 33.5,116C 32.5419,117.147 32.8753,118.147 34.5,119C 38.2479,118.78 41.2479,120.113 43.5,123C 46.7769,124.143 50.1102,124.977 53.5,125.5C 54.4421,130.826 56.2754,135.826 59,140.5C 60.9239,142.009 62.0906,144.009 62.5,146.5C 63.325,147.386 64.325,147.719 65.5,147.5C 65.3802,150.205 66.3802,150.872 68.5,149.5C 72.0995,153.23 72.4329,157.23 69.5,161.5C 63.5,161.5 57.5,161.5 51.5,161.5C 51.2866,158.525 50.2866,155.858 48.5,153.5C 43.8425,150.837 39.1758,148.171 34.5,145.5C 32.4228,144.012 31.4228,142.012 31.5,139.5C 30.1667,139.5 28.8333,139.5 27.5,139.5C 27.7135,137.856 27.3802,136.356 26.5,135C 27.5,134.667 28.5,134.333 29.5,134C 26.6393,129.786 24.1393,125.286 22,120.5C 20.3247,119.405 19.158,117.905 18.5,116C 16.2199,115.767 14.2199,114.934 12.5,113.5C 8.25354,108.925 3.92021,104.592 -0.5,100.5C -0.5,91.8333 -0.5,83.1667 -0.5,74.5 Z"/></g>
<g><path style="opacity:1" fill="#724529" d="M 107.5,85.5 C 109.833,85.5 112.167,85.5 114.5,85.5C 113.071,86.2342 112.071,87.4009 111.5,89C 113.115,92.0878 113.782,91.5878 113.5,87.5C 115.124,87.6399 116.29,86.9733 117,85.5C 117.167,86 117.333,86.5 117.5,87C 115.085,88.8596 115.085,90.5263 117.5,92C 116.009,94.3078 115.009,96.8078 114.5,99.5C 113.026,102.249 111.026,104.582 108.5,106.5C 107.311,107.429 105.978,107.762 104.5,107.5C 104.5,108.5 104.5,109.5 104.5,110.5C 101.762,110.851 99.0956,111.518 96.5,112.5C 95.8956,115.263 94.5623,117.597 92.5,119.5C 90.2727,118.947 87.9393,118.947 85.5,119.5C 85.5,120.833 85.5,122.167 85.5,123.5C 84.5,123.5 83.5,123.5 82.5,123.5C 81.1667,123.5 79.8333,123.5 78.5,123.5C 78.5,122.167 78.5,120.833 78.5,119.5C 76.076,119.808 73.7427,119.474 71.5,118.5C 70.4513,116.784 69.118,115.451 67.5,114.5C 68.8333,114.5 70.1667,114.5 71.5,114.5C 71.5,113.5 71.5,112.5 71.5,111.5C 74.5879,111.623 77.2546,110.623 79.5,108.5C 80.7362,109.246 82.0695,109.579 83.5,109.5C 83.5,107.167 83.5,104.833 83.5,102.5C 85.1992,102.66 86.8659,102.494 88.5,102C 90.2714,100.476 91.9381,98.9756 93.5,97.5C 96.0115,97.162 98.3448,97.162 100.5,97.5C 103.648,96.8596 103.981,95.8596 101.5,94.5C 102.853,93.4763 103.52,92.143 103.5,90.5C 104.978,90.762 106.311,90.4287 107.5,89.5C 106.975,88.8076 106.308,88.3076 105.5,88C 106.756,87.5831 107.423,86.7498 107.5,85.5 Z"/></g>
<g><path style="opacity:1" fill="#3c5243" d="M 186.5,104.5 C 187.032,107.46 187.699,107.793 188.5,105.5C 189.966,106.347 190.8,107.68 191,109.5C 191.308,108.692 191.808,108.025 192.5,107.5C 195.719,109.298 195.886,111.632 193,114.5C 191.727,112.428 189.893,111.095 187.5,110.5C 186.571,111.689 186.238,113.022 186.5,114.5C 183.141,111.471 179.808,108.471 176.5,105.5C 178.284,105.893 179.95,106.559 181.5,107.5C 182.261,108.391 183.261,109.058 184.5,109.5C 185.17,107.709 185.837,106.042 186.5,104.5 Z"/></g>
<g><path style="opacity:1" fill="#3f6b57" d="M 151.5,110.5 C 151.715,112.179 151.048,113.179 149.5,113.5C 149.631,112.624 149.298,111.957 148.5,111.5C 147.205,112.098 145.872,112.598 144.5,113C 145.776,117.484 144.443,117.651 140.5,113.5C 143.547,111.921 145.38,109.921 146,107.5C 147.731,108.741 149.564,109.741 151.5,110.5 Z"/></g>
<g><path style="opacity:1" fill="#2b2c27" d="M 211.5,105.5 C 212.324,108.764 212.658,112.098 212.5,115.5C 213.5,115.5 214.5,115.5 215.5,115.5C 215.28,118.4 215.946,121.067 217.5,123.5C 219.041,120.807 220.374,118.141 221.5,115.5C 227.204,115.033 232.538,113.7 237.5,111.5C 242.179,112.558 246.846,113.724 251.5,115C 250.833,115.333 250.167,115.667 249.5,116C 251.5,117 253.5,118 255.5,119C 253.939,119.318 252.772,120.151 252,121.5C 251.333,123.833 251.333,126.167 252,128.5C 254.293,127.761 256.793,127.761 259.5,128.5C 258.41,130.003 257.243,130.336 256,129.5C 254.915,130.736 254.082,132.069 253.5,133.5C 250.833,134.167 248.167,134.833 245.5,135.5C 245.631,138.329 244.631,139.662 242.5,139.5C 245.185,141.83 247.685,141.83 250,139.5C 251.401,141.192 253.234,141.859 255.5,141.5C 255.472,143.582 256.139,145.416 257.5,147C 252.332,149.46 247.165,149.627 242,147.5C 239.225,147.814 236.725,148.814 234.5,150.5C 233.328,150.081 232.328,149.415 231.5,148.5C 230.808,149.025 230.308,149.692 230,150.5C 229.349,148.765 229.515,147.098 230.5,145.5C 227.177,144.062 226.844,142.229 229.5,140C 227.551,136.022 224.551,134.856 220.5,136.5C 219.03,132.932 219.364,129.599 221.5,126.5C 219.184,124.989 216.851,124.656 214.5,125.5C 214.784,123.585 214.451,121.919 213.5,120.5C 211.908,116.722 211.074,112.722 211,108.5C 210.617,107.944 210.117,107.611 209.5,107.5C 209.833,106.5 210.5,105.833 211.5,105.5 Z"/></g>
<g><path style="opacity:1" fill="#2d2e2a" d="M 219.5,92.5 C 219.782,93.7777 220.449,94.7777 221.5,95.5C 221.062,95.4346 220.728,95.6012 220.5,96C 246.509,109.224 272.842,121.39 299.5,132.5C 299.5,134.5 299.5,136.5 299.5,138.5C 296.833,139.167 294.167,139.833 291.5,140.5C 291.519,142.06 291.852,143.56 292.5,145C 290.234,146.523 289.067,148.689 289,151.5C 287.004,151.996 285.337,152.996 284,154.5C 283.751,153.376 283.251,152.376 282.5,151.5C 282.167,152.167 281.833,152.833 281.5,153.5C 278.716,152.608 276.05,151.442 273.5,150C 274.5,149.167 275.5,148.333 276.5,147.5C 272.06,146.955 267.727,146.621 263.5,146.5C 263.817,143.428 263.484,140.428 262.5,137.5C 261.5,137 260.5,136.5 259.5,136C 264.864,135.829 270.198,135.329 275.5,134.5C 276.833,133.833 278.167,133.167 279.5,132.5C 275.569,131.9 271.902,130.567 268.5,128.5C 263.399,129.885 258.399,131.552 253.5,133.5C 254.082,132.069 254.915,130.736 256,129.5C 257.243,130.336 258.41,130.003 259.5,128.5C 256.793,127.761 254.293,127.761 252,128.5C 251.333,126.167 251.333,123.833 252,121.5C 252.772,120.151 253.939,119.318 255.5,119C 253.5,118 251.5,117 249.5,116C 250.167,115.667 250.833,115.333 251.5,115C 246.846,113.724 242.179,112.558 237.5,111.5C 232.538,113.7 227.204,115.033 221.5,115.5C 220.374,118.141 219.041,120.807 217.5,123.5C 215.946,121.067 215.28,118.4 215.5,115.5C 214.5,115.5 213.5,115.5 212.5,115.5C 212.658,112.098 212.324,108.764 211.5,105.5C 214.273,101.098 216.939,96.7648 219.5,92.5 Z"/></g>
<g><path style="opacity:1" fill="#b2e5cb" d="M 176.5,105.5 C 179.808,108.471 183.141,111.471 186.5,114.5C 188.352,115.52 189.685,117.02 190.5,119C 189.287,121.262 187.954,123.429 186.5,125.5C 184.589,124.925 182.922,123.925 181.5,122.5C 177.859,119.032 174.026,115.698 170,112.5C 169.517,111.552 169.351,110.552 169.5,109.5C 170.614,108.115 171.614,106.615 172.5,105C 173.928,104.421 175.262,104.588 176.5,105.5 Z"/></g>
<g><path style="opacity:1" fill="#495552" d="M 241.5,60.5 C 242.429,61.9361 243.595,63.2695 245,64.5C 245.85,63.5761 246.85,63.5761 248,64.5C 251.113,66.6624 254.28,68.829 257.5,71C 252.94,70.595 248.44,70.4283 244,70.5C 242.951,72.1066 241.451,72.7733 239.5,72.5C 239.5,73.5 239.5,74.5 239.5,75.5C 233.931,74.7465 230.597,77.0798 229.5,82.5C 231.833,82.5 234.167,82.5 236.5,82.5C 235.438,83.5754 235.438,84.5754 236.5,85.5C 238.5,86.1667 240.5,86.8333 242.5,87.5C 243.075,90.3564 244.741,92.0231 247.5,92.5C 250.703,90.7673 253.37,87.7673 255.5,83.5C 256.482,82.8592 257.482,82.1925 258.5,81.5C 259.298,81.9569 259.631,82.6236 259.5,83.5C 257.072,85.6141 255.406,88.2808 254.5,91.5C 256.172,94.1613 257.839,94.1613 259.5,91.5C 259.33,92.8221 259.663,93.9887 260.5,95C 262.5,95.6667 264.5,95.6667 266.5,95C 267.466,92.2315 268.799,89.7315 270.5,87.5C 270.833,87.5 271.167,87.5 271.5,87.5C 271.5,88.8333 271.5,90.1667 271.5,91.5C 271.5,92.1667 271.5,92.8333 271.5,93.5C 269.086,94.4056 268.253,96.0722 269,98.5C 272.146,100.826 275.646,102.159 279.5,102.5C 282.558,104.696 285.891,106.362 289.5,107.5C 294.129,106.916 295.795,104.583 294.5,100.5C 295.803,97.5634 297.47,94.8968 299.5,92.5C 299.5,101.167 299.5,109.833 299.5,118.5C 274.588,107.307 249.588,96.3068 224.5,85.5C 229.809,76.8698 235.475,68.5364 241.5,60.5 Z"/></g>
<g><path style="opacity:1" fill="#436755" d="M 291.5,99.5 C 292.391,100.11 293.391,100.443 294.5,100.5C 295.795,104.583 294.129,106.916 289.5,107.5C 290.167,104.833 290.833,102.167 291.5,99.5 Z"/></g>
<g><path style="opacity:1" fill="#726250" d="M 282.5,97.5 C 282.787,99.1207 283.787,100.121 285.5,100.5C 287.409,99.6518 289.409,99.3184 291.5,99.5C 290.833,102.167 290.167,104.833 289.5,107.5C 285.891,106.362 282.558,104.696 279.5,102.5C 279.721,100.336 280.721,98.6697 282.5,97.5 Z"/></g>
<g><path style="opacity:1" fill="#a55849" d="M 271.5,93.5 C 274.536,92.8671 275.203,94.2004 273.5,97.5C 272.675,98.3857 271.675,98.719 270.5,98.5C 270.629,96.7839 270.962,95.1172 271.5,93.5 Z"/></g>
<g><path style="opacity:1" fill="#4f2f0f" d="M -0.5,100.5 C 3.92021,104.592 8.25354,108.925 12.5,113.5C 14.2199,114.934 16.2199,115.767 18.5,116C 19.158,117.905 20.3247,119.405 22,120.5C 24.1393,125.286 26.6393,129.786 29.5,134C 28.5,134.333 27.5,134.667 26.5,135C 27.3802,136.356 27.7135,137.856 27.5,139.5C 28.8333,139.5 30.1667,139.5 31.5,139.5C 31.4228,142.012 32.4228,144.012 34.5,145.5C 39.1758,148.171 43.8425,150.837 48.5,153.5C 50.2866,155.858 51.2866,158.525 51.5,161.5C 50.5,161.5 49.5,161.5 48.5,161.5C 46.8097,156.049 42.9763,153.383 37,153.5C 29.3219,149.649 23.8219,143.649 20.5,135.5C 19.8333,136.833 19.1667,138.167 18.5,139.5C 17.4776,134.744 16.1443,130.077 14.5,125.5C 13.8333,125.167 13.1667,124.833 12.5,124.5C 11.6051,127.408 10.2718,130.075 8.5,132.5C 9.32496,133.386 10.325,133.719 11.5,133.5C 11.3359,136.187 11.5026,138.854 12,141.5C 13.5985,148.604 16.0985,155.27 19.5,161.5C 18.1667,161.5 16.8333,161.5 15.5,161.5C 12.1851,158.355 10.3517,154.355 10,149.5C 6.97951,142.783 3.47951,136.449 -0.5,130.5C -0.5,120.5 -0.5,110.5 -0.5,100.5 Z"/></g>
<g><path style="opacity:1" fill="#080e09" d="M 176.5,63.5 C 176.833,63.5 177.167,63.5 177.5,63.5C 177.833,64.5 178.5,65.1667 179.5,65.5C 179.123,67.258 178.456,68.9246 177.5,70.5C 177.957,71.2975 178.624,71.6309 179.5,71.5C 179.415,72.9953 180.081,73.9953 181.5,74.5C 182.833,72.5 184.167,70.5 185.5,68.5C 185.376,67.8933 185.043,67.56 184.5,67.5C 184.5,67.1667 184.5,66.8333 184.5,66.5C 185.5,66.5 186.5,66.5 187.5,66.5C 187.821,68.0481 188.821,68.7148 190.5,68.5C 189.874,72.3754 191.541,74.2087 195.5,74C 196.385,76.7773 196.385,79.944 195.5,83.5C 198.089,84.5701 200.589,85.9034 203,87.5C 203.5,87.1667 204,86.8333 204.5,86.5C 203.128,84.3802 203.795,83.3802 206.5,83.5C 206.167,84.1667 205.833,84.8333 205.5,85.5C 205.383,87.4835 206.05,89.1502 207.5,90.5C 206.349,91.731 205.183,91.731 204,90.5C 203.508,91.549 203.674,92.549 204.5,93.5C 203.167,93.8333 201.833,94.1667 200.5,94.5C 202.126,95.9905 203.792,97.4905 205.5,99C 202.927,99.4277 200.594,99.0943 198.5,98C 199.875,100.477 201.709,101.311 204,100.5C 205.284,101.572 205.617,102.905 205,104.5C 206.797,103.073 207.964,101.24 208.5,99C 206.78,96.1611 207.446,94.1611 210.5,93C 208.205,92.0164 208.539,91.1831 211.5,90.5C 213.026,92.6582 214.526,92.3249 216,89.5C 216.333,90.1667 216.667,90.8333 217,91.5C 218.392,89.1582 219.225,89.1582 219.5,91.5C 219.5,91.8333 219.5,92.1667 219.5,92.5C 216.939,96.7648 214.273,101.098 211.5,105.5C 210.5,105.833 209.833,106.5 209.5,107.5C 208.167,109.5 206.833,111.5 205.5,113.5C 203.883,114.038 202.216,114.371 200.5,114.5C 198.585,117.975 196.752,121.642 195,125.5C 187.275,129.37 182.442,135.37 180.5,143.5C 178.833,143.5 177.167,143.5 175.5,143.5C 178.862,139.856 179.195,136.022 176.5,132C 177.094,131.536 177.761,131.369 178.5,131.5C 179.867,132.853 180.867,132.519 181.5,130.5C 181.376,129.893 181.043,129.56 180.5,129.5C 179.933,127.97 179.267,126.47 178.5,125C 179.078,123.583 180.078,122.75 181.5,122.5C 182.922,123.925 184.589,124.925 186.5,125.5C 188.027,125.573 189.027,124.906 189.5,123.5C 190.222,123.918 190.722,124.584 191,125.5C 195.243,119.648 198.91,113.648 202,107.5C 200.187,108.609 199.354,107.942 199.5,105.5C 197.167,105.5 194.833,105.5 192.5,105.5C 185.423,99.1138 178.09,92.9471 170.5,87C 171.536,85.3831 172.703,85.2164 174,86.5C 173.75,83.0573 172.416,82.724 170,85.5C 169.676,83.4311 168.842,83.0977 167.5,84.5C 165.79,83.1128 164.123,81.7794 162.5,80.5C 163.469,79.6906 164.302,78.6906 165,77.5C 164.954,75.6874 165.12,74.0207 165.5,72.5C 168.334,70.9411 171.001,69.2745 173.5,67.5C 175.262,66.7377 176.262,65.4044 176.5,63.5 Z"/></g>
<g><path style="opacity:1" fill="#a1c7ae" d="M 184.5,67.5 C 185.043,67.56 185.376,67.8933 185.5,68.5C 184.167,70.5 182.833,72.5 181.5,74.5C 180.081,73.9953 179.415,72.9953 179.5,71.5C 181.167,70.1667 182.833,68.8333 184.5,67.5 Z"/></g>
<g><path style="opacity:1" fill="#141715" d="M 221.5,95.5 C 247.511,106.839 273.511,118.173 299.5,129.5C 299.5,130.5 299.5,131.5 299.5,132.5C 272.842,121.39 246.509,109.224 220.5,96C 220.728,95.6012 221.062,95.4346 221.5,95.5 Z"/></g>
<g><path style="opacity:1" fill="#1a2d24" d="M 148.5,105.5 C 149.833,106.5 151.167,107.5 152.5,108.5C 152.672,109.492 152.338,110.158 151.5,110.5C 149.564,109.741 147.731,108.741 146,107.5C 145.38,109.921 143.547,111.921 140.5,113.5C 144.443,117.651 145.776,117.484 144.5,113C 145.872,112.598 147.205,112.098 148.5,111.5C 149.298,111.957 149.631,112.624 149.5,113.5C 146.395,116.275 144.062,119.608 142.5,123.5C 136.194,118.416 135.86,112.916 141.5,107C 143.873,105.623 146.206,105.123 148.5,105.5 Z"/></g>
<g><path style="opacity:1" fill="#1b211b" d="M 192.5,105.5 C 194.833,105.5 197.167,105.5 199.5,105.5C 199.354,107.942 200.187,108.609 202,107.5C 198.91,113.648 195.243,119.648 191,125.5C 190.722,124.584 190.222,123.918 189.5,123.5C 191.422,120.916 193.255,118.249 195,115.5C 197.702,111.128 196.869,107.795 192.5,105.5 Z"/></g>
<g><path style="opacity:1" fill="#703f23" d="M 209.5,107.5 C 210.117,107.611 210.617,107.944 211,108.5C 211.074,112.722 211.908,116.722 213.5,120.5C 213.624,125.547 211.291,127.38 206.5,126C 203.233,123.427 202.566,120.261 204.5,116.5C 204.557,115.391 204.89,114.391 205.5,113.5C 206.833,111.5 208.167,109.5 209.5,107.5 Z"/></g>
<g><path style="opacity:1" fill="#4b534f" d="M 152.5,108.5 C 153.659,109.456 154.826,110.456 156,111.5C 156.765,111.43 157.265,111.097 157.5,110.5C 158.043,110.56 158.376,110.893 158.5,111.5C 156.96,112.532 156.46,113.865 157,115.5C 158.972,116.305 160.472,117.639 161.5,119.5C 158.906,123.335 156.906,127.335 155.5,131.5C 152.775,130.287 150.441,128.454 148.5,126C 147.563,125.308 146.897,125.475 146.5,126.5C 145.167,125.5 143.833,124.5 142.5,123.5C 144.062,119.608 146.395,116.275 149.5,113.5C 151.048,113.179 151.715,112.179 151.5,110.5C 152.338,110.158 152.672,109.492 152.5,108.5 Z"/></g>
<g><path style="opacity:1" fill="#44230f" d="M 204.5,116.5 C 202.566,120.261 203.233,123.427 206.5,126C 211.291,127.38 213.624,125.547 213.5,120.5C 214.451,121.919 214.784,123.585 214.5,125.5C 211.432,127.632 208.099,127.965 204.5,126.5C 202.585,124.929 201.585,122.929 201.5,120.5C 202.512,119.128 203.512,117.795 204.5,116.5 Z"/></g>
<g><path style="opacity:1" fill="#130c06" d="M 173.5,67.5 C 171.001,69.2745 168.334,70.9411 165.5,72.5C 165.12,74.0207 164.954,75.6874 165,77.5C 164.302,78.6906 163.469,79.6906 162.5,80.5C 160.319,81.2908 158.653,82.7908 157.5,85C 157.836,86.0299 158.503,86.5299 159.5,86.5C 167.308,93.4686 175.308,100.302 183.5,107C 182.906,107.464 182.239,107.631 181.5,107.5C 179.95,106.559 178.284,105.893 176.5,105.5C 175.262,104.588 173.928,104.421 172.5,105C 171.614,106.615 170.614,108.115 169.5,109.5C 168.833,109.5 168.167,109.5 167.5,109.5C 168.806,107.184 170.139,104.85 171.5,102.5C 166.488,97.4897 161.155,92.823 155.5,88.5C 153.67,90.1581 152.336,92.1581 151.5,94.5C 151.453,96.0377 152.12,97.0377 153.5,97.5C 155.219,100.219 157.553,102.219 160.5,103.5C 162.167,105.5 163.833,107.5 165.5,109.5C 162.796,108.286 160.129,108.286 157.5,109.5C 154.216,107.883 151.549,105.55 149.5,102.5C 150.978,102.762 152.311,102.429 153.5,101.5C 149.731,98.7435 146.064,98.0769 142.5,99.5C 138.723,104.792 136.057,110.625 134.5,117C 135.229,119.248 136.229,121.415 137.5,123.5C 141.188,125.855 144.188,128.855 146.5,132.5C 145.25,132.577 144.417,133.244 144,134.5C 143.667,133.167 143.333,131.833 143,130.5C 136.118,126.395 132.618,120.395 132.5,112.5C 134.36,106.447 137.027,100.78 140.5,95.5C 142.181,92.7972 143.847,90.1305 145.5,87.5C 147.352,86.9111 149.185,86.2444 151,85.5C 153.322,81.6844 155.822,78.0177 158.5,74.5C 159.902,70.2385 162.902,68.4052 167.5,69C 168.381,68.2917 169.047,67.4584 169.5,66.5C 169.833,66.5 170.167,66.5 170.5,66.5C 172.196,64.871 173.196,65.2043 173.5,67.5 Z"/></g>
<g><path style="opacity:1" fill="#e58967" d="M 167.5,109.5 C 166.833,109.5 166.167,109.5 165.5,109.5C 163.833,107.5 162.167,105.5 160.5,103.5C 161.583,103.539 162.583,103.873 163.5,104.5C 164.172,101.653 163.839,98.8195 162.5,96C 160.491,96.5936 158.491,96.4269 156.5,95.5C 155.735,96.6119 154.735,97.2786 153.5,97.5C 152.12,97.0377 151.453,96.0377 151.5,94.5C 152.336,92.1581 153.67,90.1581 155.5,88.5C 161.155,92.823 166.488,97.4897 171.5,102.5C 170.139,104.85 168.806,107.184 167.5,109.5 Z"/></g>
<g><path style="opacity:1" fill="#eaa790" d="M 160.5,103.5 C 157.553,102.219 155.219,100.219 153.5,97.5C 154.735,97.2786 155.735,96.6119 156.5,95.5C 158.491,96.4269 160.491,96.5936 162.5,96C 163.839,98.8195 164.172,101.653 163.5,104.5C 162.583,103.873 161.583,103.539 160.5,103.5 Z"/></g>
<g><path style="opacity:1" fill="#663510" d="M 127.5,119.5 C 127.025,122.313 128.025,124.313 130.5,125.5C 132.795,135.126 129.129,140.126 119.5,140.5C 112.741,138.927 106.074,137.761 99.5,137C 97.7738,135.47 95.7738,134.47 93.5,134C 94.1667,133.667 94.8333,133.333 95.5,133C 93.2542,131.743 91.9209,129.91 91.5,127.5C 94.1667,127.5 96.8333,127.5 99.5,127.5C 99.238,128.978 99.5713,130.311 100.5,131.5C 102.05,128.871 101.384,127.037 98.5,126C 101.918,125.927 105.251,126.26 108.5,127C 112.221,124.473 116.221,122.473 120.5,121C 121.687,119.981 122.687,118.814 123.5,117.5C 124.689,116.571 126.022,116.238 127.5,116.5C 127.5,117.5 127.5,118.5 127.5,119.5 Z"/></g>
<g><path style="opacity:1" fill="#68421a" d="M -0.5,64.5 C 3.47988,68.1447 7.47988,71.8114 11.5,75.5C 13.3435,77.9823 14.6769,80.649 15.5,83.5C 17.288,83.2148 18.9547,83.5481 20.5,84.5C 23.1186,88.287 26.2852,91.6203 30,94.5C 30.3333,96.1667 30.6667,97.8333 31,99.5C 33.3976,100.856 35.8976,102.023 38.5,103C 39.7938,105.087 40.9605,107.254 42,109.5C 44.3549,110.692 46.1882,112.359 47.5,114.5C 50.6173,117.011 53.784,119.678 57,122.5C 57.3108,124.556 57.8108,126.556 58.5,128.5C 59.325,129.386 60.325,129.719 61.5,129.5C 62.9757,133.959 63.6424,138.626 63.5,143.5C 64.8333,143.5 66.1667,143.5 67.5,143.5C 68.6871,145.905 70.1871,148.239 72,150.5C 72.4087,154.297 73.2421,157.964 74.5,161.5C 72.8333,161.5 71.1667,161.5 69.5,161.5C 72.4329,157.23 72.0995,153.23 68.5,149.5C 66.3802,150.872 65.3802,150.205 65.5,147.5C 64.325,147.719 63.325,147.386 62.5,146.5C 62.0906,144.009 60.9239,142.009 59,140.5C 56.2754,135.826 54.4421,130.826 53.5,125.5C 50.1102,124.977 46.7769,124.143 43.5,123C 41.2479,120.113 38.2479,118.78 34.5,119C 32.8753,118.147 32.5419,117.147 33.5,116C 27.4118,114.705 24.7451,110.872 25.5,104.5C 23.5082,104.672 21.8415,104.005 20.5,102.5C 17.0867,98.2603 14.42,93.5936 12.5,88.5C 12.7093,87.914 13.0426,87.414 13.5,87C 10.938,83.9348 7.93801,81.4348 4.5,79.5C 3.91968,76.621 2.25301,74.9543 -0.5,74.5C -0.5,71.1667 -0.5,67.8333 -0.5,64.5 Z"/></g>
<g><path style="opacity:1" fill="#40230a" d="M 140.5,95.5 C 137.027,100.78 134.36,106.447 132.5,112.5C 131.359,115.64 131.192,118.973 132,122.5C 134.597,125.784 137.597,128.451 141,130.5C 141.498,133.482 141.665,136.482 141.5,139.5C 136.696,139.319 132.696,140.985 129.5,144.5C 115.557,146.737 101.891,145.237 88.5,140C 84.23,138.925 79.8967,138.425 75.5,138.5C 75.5467,141.568 76.0467,144.568 77,147.5C 80.0888,152.011 82.9221,156.677 85.5,161.5C 83.8333,161.5 82.1667,161.5 80.5,161.5C 78.1021,154.736 75.7688,148.07 73.5,141.5C 73.178,139.278 73.8446,137.444 75.5,136C 79.4152,135.955 83.2486,135.788 87,135.5C 98.8674,142.034 111.534,144.367 125,142.5C 133.61,138.842 135.443,133.176 130.5,125.5C 128.025,124.313 127.025,122.313 127.5,119.5C 128.513,114.63 130.013,109.964 132,105.5C 130.027,107.228 128.194,109.061 126.5,111C 125.5,111.667 124.5,111.667 123.5,111C 128.742,105.253 134.409,100.086 140.5,95.5 Z"/></g>
<g><path style="opacity:1" fill="#261507" d="M 132.5,112.5 C 132.618,120.395 136.118,126.395 143,130.5C 143.333,131.833 143.667,133.167 144,134.5C 144.417,133.244 145.25,132.577 146.5,132.5C 149.617,135.359 152.284,138.692 154.5,142.5C 152.486,142.392 150.82,143.058 149.5,144.5C 149.66,142.801 149.494,141.134 149,139.5C 147.028,138.695 145.528,137.361 144.5,135.5C 143.253,137.006 143.253,138.506 144.5,140C 140.068,143.206 135.068,144.706 129.5,144.5C 132.696,140.985 136.696,139.319 141.5,139.5C 141.665,136.482 141.498,133.482 141,130.5C 137.597,128.451 134.597,125.784 132,122.5C 131.192,118.973 131.359,115.64 132.5,112.5 Z"/></g>
<g><path style="opacity:1" fill="#313b34" d="M 165.5,109.5 C 166.167,109.5 166.833,109.5 167.5,109.5C 168.167,109.5 168.833,109.5 169.5,109.5C 169.351,110.552 169.517,111.552 170,112.5C 174.026,115.698 177.859,119.032 181.5,122.5C 180.078,122.75 179.078,123.583 178.5,125C 179.267,126.47 179.933,127.97 180.5,129.5C 178.75,128.258 177.083,126.758 175.5,125C 174.5,124.333 173.5,124.333 172.5,125C 174.366,127.363 176.366,129.53 178.5,131.5C 177.761,131.369 177.094,131.536 176.5,132C 179.195,136.022 178.862,139.856 175.5,143.5C 173.484,146.144 170.817,146.977 167.5,146C 164,143.666 161,140.832 158.5,137.5C 159.239,137.631 159.906,137.464 160.5,137C 158.627,135.296 156.96,133.463 155.5,131.5C 156.906,127.335 158.906,123.335 161.5,119.5C 160.472,117.639 158.972,116.305 157,115.5C 156.46,113.865 156.96,112.532 158.5,111.5C 158.376,110.893 158.043,110.56 157.5,110.5C 157.5,110.167 157.5,109.833 157.5,109.5C 160.129,108.286 162.796,108.286 165.5,109.5 Z"/></g>
<g><path style="opacity:1" fill="#743d21" d="M 201.5,131.5 C 201.5,131.833 201.5,132.167 201.5,132.5C 201.5,134.5 201.5,136.5 201.5,138.5C 199.167,138.5 196.833,138.5 194.5,138.5C 192.5,131.833 194.833,129.5 201.5,131.5 Z"/></g>
<g><path style="opacity:1" fill="#4a2713" d="M 198.5,127.5 C 200.201,128.211 201.201,129.545 201.5,131.5C 194.833,129.5 192.5,131.833 194.5,138.5C 196.833,138.5 199.167,138.5 201.5,138.5C 201.5,136.5 201.5,134.5 201.5,132.5C 202.665,133.496 203.332,134.829 203.5,136.5C 202.813,138.177 202.146,139.844 201.5,141.5C 198.68,141.752 196.014,141.252 193.5,140C 191.963,138.89 191.297,137.39 191.5,135.5C 192.128,132.91 193.295,130.577 195,128.5C 196.011,127.663 197.178,127.33 198.5,127.5 Z"/></g>
<g><path style="opacity:1" fill="#684521" d="M 59.5,99.5 C 60.1667,99.5 60.5,99.8333 60.5,100.5C 59.8982,102.338 59.5649,104.171 59.5,106C 61.5938,107.352 63.9272,107.852 66.5,107.5C 66.1568,105.517 66.8235,104.183 68.5,103.5C 67.8857,107.135 67.5524,110.802 67.5,114.5C 69.118,115.451 70.4513,116.784 71.5,118.5C 73.7427,119.474 76.076,119.808 78.5,119.5C 78.5,120.833 78.5,122.167 78.5,123.5C 79.8333,123.5 81.1667,123.5 82.5,123.5C 83.3029,124.423 83.4696,125.423 83,126.5C 79.1376,124.995 75.1376,123.995 71,123.5C 70.3058,127.002 70.8058,130.336 72.5,133.5C 71.7992,135.753 71.4659,137.919 71.5,140C 71.8361,141.03 72.5028,141.53 73.5,141.5C 75.7688,148.07 78.1021,154.736 80.5,161.5C 78.5,161.5 76.5,161.5 74.5,161.5C 73.2421,157.964 72.4087,154.297 72,150.5C 70.1871,148.239 68.6871,145.905 67.5,143.5C 66.1667,143.5 64.8333,143.5 63.5,143.5C 63.6424,138.626 62.9757,133.959 61.5,129.5C 60.325,129.719 59.325,129.386 58.5,128.5C 57.8108,126.556 57.3108,124.556 57,122.5C 53.784,119.678 50.6173,117.011 47.5,114.5C 54.7179,115.068 57.5513,111.734 56,104.5C 57.8022,103.211 58.9688,101.544 59.5,99.5 Z"/></g>
<g><path style="opacity:1" fill="#070604" d="M 149.5,102.5 C 148.503,101.287 147.503,101.454 146.5,103C 147.756,103.417 148.423,104.25 148.5,105.5C 146.206,105.123 143.873,105.623 141.5,107C 135.86,112.916 136.194,118.416 142.5,123.5C 143.833,124.5 145.167,125.5 146.5,126.5C 150.541,130.176 154.541,133.843 158.5,137.5C 161,140.832 164,143.666 167.5,146C 170.817,146.977 173.484,146.144 175.5,143.5C 177.167,143.5 178.833,143.5 180.5,143.5C 182.442,135.37 187.275,129.37 195,125.5C 196.752,121.642 198.585,117.975 200.5,114.5C 202.216,114.371 203.883,114.038 205.5,113.5C 204.89,114.391 204.557,115.391 204.5,116.5C 203.512,117.795 202.512,119.128 201.5,120.5C 200.25,120.577 199.417,121.244 199,122.5C 198.506,124.134 198.34,125.801 198.5,127.5C 197.178,127.33 196.011,127.663 195,128.5C 193.295,130.577 192.128,132.91 191.5,135.5C 186.493,139.072 186.493,141.406 191.5,142.5C 196.205,146.421 200.538,150.754 204.5,155.5C 206.776,156.213 209.109,156.713 211.5,157C 207.5,157.667 207.5,158.333 211.5,159C 212.252,159.671 212.586,160.504 212.5,161.5C 170.167,161.5 127.833,161.5 85.5,161.5C 82.9221,156.677 80.0888,152.011 77,147.5C 76.0467,144.568 75.5467,141.568 75.5,138.5C 79.8967,138.425 84.23,138.925 88.5,140C 101.891,145.237 115.557,146.737 129.5,144.5C 135.068,144.706 140.068,143.206 144.5,140C 143.253,138.506 143.253,137.006 144.5,135.5C 145.528,137.361 147.028,138.695 149,139.5C 149.494,141.134 149.66,142.801 149.5,144.5C 147.466,146.655 147.133,148.988 148.5,151.5C 148.414,152.496 148.748,153.329 149.5,154C 152.5,154.667 155.5,154.667 158.5,154C 159.814,151.395 159.814,148.895 158.5,146.5C 158.167,144.167 156.833,142.833 154.5,142.5C 152.284,138.692 149.617,135.359 146.5,132.5C 144.188,128.855 141.188,125.855 137.5,123.5C 136.229,121.415 135.229,119.248 134.5,117C 136.057,110.625 138.723,104.792 142.5,99.5C 146.064,98.0769 149.731,98.7435 153.5,101.5C 152.311,102.429 150.978,102.762 149.5,102.5 Z"/></g>
<g><path style="opacity:1" fill="#607169" d="M 171.5,134.5 C 176.503,135.422 176.503,136.922 171.5,139C 172.451,139.718 172.617,140.551 172,141.5C 170.926,140.382 169.76,139.382 168.5,138.5C 168.846,137.304 169.346,137.304 170,138.5C 170.41,137.099 170.91,135.766 171.5,134.5 Z"/></g>
<g><path style="opacity:1" fill="#a4afaa" d="M 180.5,129.5 C 181.043,129.56 181.376,129.893 181.5,130.5C 180.867,132.519 179.867,132.853 178.5,131.5C 176.366,129.53 174.366,127.363 172.5,125C 173.5,124.333 174.5,124.333 175.5,125C 177.083,126.758 178.75,128.258 180.5,129.5 Z"/></g>
<g><path style="opacity:1" fill="#aeb8b3" d="M 146.5,126.5 C 146.897,125.475 147.563,125.308 148.5,126C 150.441,128.454 152.775,130.287 155.5,131.5C 156.96,133.463 158.627,135.296 160.5,137C 159.906,137.464 159.239,137.631 158.5,137.5C 154.541,133.843 150.541,130.176 146.5,126.5 Z"/></g>
<g><path style="opacity:1" fill="#282923" d="M 201.5,120.5 C 201.585,122.929 202.585,124.929 204.5,126.5C 208.099,127.965 211.432,127.632 214.5,125.5C 216.851,124.656 219.184,124.989 221.5,126.5C 219.364,129.599 219.03,132.932 220.5,136.5C 224.551,134.856 227.551,136.022 229.5,140C 226.844,142.229 227.177,144.062 230.5,145.5C 229.515,147.098 229.349,148.765 230,150.5C 230.308,149.692 230.808,149.025 231.5,148.5C 232.328,149.415 233.328,150.081 234.5,150.5C 236.725,148.814 239.225,147.814 242,147.5C 247.165,149.627 252.332,149.46 257.5,147C 256.139,145.416 255.472,143.582 255.5,141.5C 253.234,141.859 251.401,141.192 250,139.5C 247.685,141.83 245.185,141.83 242.5,139.5C 244.631,139.662 245.631,138.329 245.5,135.5C 248.167,134.833 250.833,134.167 253.5,133.5C 258.399,131.552 263.399,129.885 268.5,128.5C 271.902,130.567 275.569,131.9 279.5,132.5C 278.167,133.167 276.833,133.833 275.5,134.5C 270.198,135.329 264.864,135.829 259.5,136C 260.5,136.5 261.5,137 262.5,137.5C 263.484,140.428 263.817,143.428 263.5,146.5C 267.727,146.621 272.06,146.955 276.5,147.5C 275.5,148.333 274.5,149.167 273.5,150C 276.05,151.442 278.716,152.608 281.5,153.5C 281.833,152.833 282.167,152.167 282.5,151.5C 283.251,152.376 283.751,153.376 284,154.5C 285.337,152.996 287.004,151.996 289,151.5C 289.067,148.689 290.234,146.523 292.5,145C 291.852,143.56 291.519,142.06 291.5,140.5C 294.167,139.833 296.833,139.167 299.5,138.5C 299.5,146.167 299.5,153.833 299.5,161.5C 273.833,161.5 248.167,161.5 222.5,161.5C 222.827,156.456 222.494,151.456 221.5,146.5C 216.093,143.645 210.427,141.312 204.5,139.5C 203.482,140.193 202.482,140.859 201.5,141.5C 202.146,139.844 202.813,138.177 203.5,136.5C 203.332,134.829 202.665,133.496 201.5,132.5C 201.5,132.167 201.5,131.833 201.5,131.5C 201.201,129.545 200.201,128.211 198.5,127.5C 198.34,125.801 198.506,124.134 199,122.5C 199.417,121.244 200.25,120.577 201.5,120.5 Z"/></g>
<g><path style="opacity:1" fill="#46280a" d="M 48.5,161.5 C 38.8333,161.5 29.1667,161.5 19.5,161.5C 16.0985,155.27 13.5985,148.604 12,141.5C 11.5026,138.854 11.3359,136.187 11.5,133.5C 10.325,133.719 9.32496,133.386 8.5,132.5C 10.2718,130.075 11.6051,127.408 12.5,124.5C 13.1667,124.833 13.8333,125.167 14.5,125.5C 16.1443,130.077 17.4776,134.744 18.5,139.5C 19.1667,138.167 19.8333,136.833 20.5,135.5C 23.8219,143.649 29.3219,149.649 37,153.5C 42.9763,153.383 46.8097,156.049 48.5,161.5 Z"/></g>
<g><path style="opacity:1" fill="#5e4324" d="M -0.5,130.5 C 3.47951,136.449 6.97951,142.783 10,149.5C 10.3517,154.355 12.1851,158.355 15.5,161.5C 11.5,161.5 7.5,161.5 3.5,161.5C 3.62539,158.392 2.29206,156.392 -0.5,155.5C -0.5,147.167 -0.5,138.833 -0.5,130.5 Z"/></g>
<g><path style="opacity:1" fill="#171815" d="M 191.5,135.5 C 191.297,137.39 191.963,138.89 193.5,140C 196.014,141.252 198.68,141.752 201.5,141.5C 202.482,140.859 203.482,140.193 204.5,139.5C 210.427,141.312 216.093,143.645 221.5,146.5C 222.494,151.456 222.827,156.456 222.5,161.5C 219.167,161.5 215.833,161.5 212.5,161.5C 212.586,160.504 212.252,159.671 211.5,159C 207.5,158.333 207.5,157.667 211.5,157C 209.109,156.713 206.776,156.213 204.5,155.5C 200.538,150.754 196.205,146.421 191.5,142.5C 186.493,141.406 186.493,139.072 191.5,135.5 Z"/></g>
<g><path style="opacity:1" fill="#63371e" d="M 154.5,142.5 C 156.833,142.833 158.167,144.167 158.5,146.5C 157.375,153.064 154.041,154.731 148.5,151.5C 147.133,148.988 147.466,146.655 149.5,144.5C 150.82,143.058 152.486,142.392 154.5,142.5 Z"/></g>
<g><path style="opacity:1" fill="#2f190b" d="M 158.5,146.5 C 159.814,148.895 159.814,151.395 158.5,154C 155.5,154.667 152.5,154.667 149.5,154C 148.748,153.329 148.414,152.496 148.5,151.5C 154.041,154.731 157.375,153.064 158.5,146.5 Z"/></g>
<g><path style="opacity:1" fill="#322414" d="M -0.5,155.5 C 2.29206,156.392 3.62539,158.392 3.5,161.5C 2.16667,161.5 0.833333,161.5 -0.5,161.5C -0.5,159.5 -0.5,157.5 -0.5,155.5 Z"/></g>
</svg>
