<?xml version="1.0" encoding="UTF-8"?>
<!DOCTYPE svg PUBLIC "-//W3C//DTD SVG 1.1//EN" "http://www.w3.org/Graphics/SVG/1.1/DTD/svg11.dtd">
<svg xmlns="http://www.w3.org/2000/svg" version="1.1" width="180px" height="180px" style="shape-rendering:geometricPrecision; text-rendering:geometricPrecision; image-rendering:optimizeQuality; fill-rule:evenodd; clip-rule:evenodd" xmlns:xlink="http://www.w3.org/1999/xlink">
<g><path style="opacity:1" fill="#252526" d="M -0.5,-0.5 C 7.83333,-0.5 16.1667,-0.5 24.5,-0.5C 24.3334,12.8375 24.5001,26.1708 25,39.5C 25.1787,43.0252 25.6787,46.3586 26.5,49.5C 26.1872,53.0419 26.5206,56.3752 27.5,59.5C 27.5,60.5 27.5,61.5 27.5,62.5C 27.2066,69.2554 27.5399,75.9221 28.5,82.5C 28.185,90.4197 28.5183,98.253 29.5,106C 19.6051,107.449 9.60513,107.949 -0.5,107.5C -0.5,71.5 -0.5,35.5 -0.5,-0.5 Z"/></g>
<g><path style="opacity:1" fill="#bec6cd" d="M 35.5,-0.5 C 40.8333,-0.5 46.1667,-0.5 51.5,-0.5C 51.5,0.5 51.5,1.5 51.5,2.5C 49.901,2.23219 48.5676,2.56552 47.5,3.5C 43.5,3.5 39.5,3.5 35.5,3.5C 35.5,2.16667 35.5,0.833333 35.5,-0.5 Z"/></g>
<g><path style="opacity:1" fill="#5d6f7d" d="M 81.5,-0.5 C 86.1667,-0.5 90.8333,-0.5 95.5,-0.5C 95.154,1.33818 95.154,3.33818 95.5,5.5C 92.2473,6.5975 88.9139,7.26417 85.5,7.5C 85.5,8.83333 85.5,10.1667 85.5,11.5C 88.2716,12.3715 90.9382,12.3715 93.5,11.5C 94.0916,14.1272 94.4249,16.7938 94.5,19.5C 96.5996,19.5228 98.4329,18.8561 100,17.5C 102.345,19.6214 105.179,20.788 108.5,21C 109.066,21.9947 109.733,22.828 110.5,23.5C 110.5,23.8333 110.5,24.1667 110.5,24.5C 108.565,23.8505 106.565,23.5172 104.5,23.5C 104.5,22.8333 104.167,22.5 103.5,22.5C 102.486,21.3263 101.153,20.6596 99.5,20.5C 97.5,20.5 95.5,20.5 93.5,20.5C 93.7852,18.712 93.4519,17.0453 92.5,15.5C 91.9986,17.6551 90.9986,19.3218 89.5,20.5C 88.1667,20.5 86.8333,20.5 85.5,20.5C 80.6734,20.2207 76.0068,20.8874 71.5,22.5C 72.0577,21.2101 73.0577,20.3768 74.5,20C 86.8513,18.9455 87.1847,17.6121 75.5,16C 77.3837,13.7383 79.3837,11.5717 81.5,9.5C 80.7515,7.66754 79.7515,6.00087 78.5,4.5C 80.2744,3.81327 81.9411,2.97993 83.5,2C 82.244,1.58309 81.5774,0.749754 81.5,-0.5 Z"/></g>
<g><path style="opacity:1" fill="#4c5c69" d="M 95.5,-0.5 C 113.833,-0.5 132.167,-0.5 150.5,-0.5C 157.036,0.32735 157.036,1.49402 150.5,3C 151.357,3.68909 152.023,4.52242 152.5,5.5C 151.05,6.84983 150.383,8.5165 150.5,10.5C 149.5,10.5 148.5,10.5 147.5,10.5C 147.26,13.5788 147.593,16.5788 148.5,19.5C 147.846,21.1151 147.346,22.7818 147,24.5C 143.255,25.297 139.421,25.797 135.5,26C 134.643,26.6891 133.977,27.5224 133.5,28.5C 134.393,31.0841 134.726,33.7508 134.5,36.5C 131.996,37.6392 129.33,38.3059 126.5,38.5C 125.833,37.8333 125.167,37.1667 124.5,36.5C 124.5,36.1667 124.5,35.8333 124.5,35.5C 126.011,36.5025 127.678,37.1692 129.5,37.5C 129.708,35.0799 129.374,32.7466 128.5,30.5C 130.955,27.2985 131.955,23.6318 131.5,19.5C 131.083,14.5009 130.75,9.50095 130.5,4.5C 122.141,4.52563 113.807,5.02563 105.5,6C 98.7996,6.79719 98.1329,8.79719 103.5,12C 104.784,12.6838 105.951,12.5171 107,11.5C 107.979,13.3203 109.479,14.487 111.5,15C 110.313,16.0195 109.313,17.1861 108.5,18.5C 111.193,19.5318 111.86,21.1985 110.5,23.5C 109.733,22.828 109.066,21.9947 108.5,21C 105.179,20.788 102.345,19.6214 100,17.5C 98.4329,18.8561 96.5996,19.5228 94.5,19.5C 94.4249,16.7938 94.0916,14.1272 93.5,11.5C 90.9382,12.3715 88.2716,12.3715 85.5,11.5C 85.5,10.1667 85.5,8.83333 85.5,7.5C 88.9139,7.26417 92.2473,6.5975 95.5,5.5C 95.154,3.33818 95.154,1.33818 95.5,-0.5 Z"/></g>
<g><path style="opacity:1" fill="#92adc0" d="M 30.5,-0.5 C 32.1667,-0.5 33.8333,-0.5 35.5,-0.5C 35.5,0.833333 35.5,2.16667 35.5,3.5C 39.5,3.5 43.5,3.5 47.5,3.5C 46.4324,4.43448 45.099,4.76781 43.5,4.5C 42.9564,11.9529 38.9564,14.6196 31.5,12.5C 31.8064,9.61456 31.4731,6.9479 30.5,4.5C 30.5,2.83333 30.5,1.16667 30.5,-0.5 Z"/></g>
<g><path style="opacity:1" fill="#485764" d="M 124.5,35.5 C 123.167,35.1667 121.833,34.8333 120.5,34.5C 119.794,32.1236 118.127,30.7903 115.5,30.5C 114.5,30.1667 113.833,29.5 113.5,28.5C 113.19,26.8564 112.19,25.8564 110.5,25.5C 110.5,25.1667 110.5,24.8333 110.5,24.5C 110.5,24.1667 110.5,23.8333 110.5,23.5C 111.86,21.1985 111.193,19.5318 108.5,18.5C 109.313,17.1861 110.313,16.0195 111.5,15C 109.479,14.487 107.979,13.3203 107,11.5C 105.951,12.5171 104.784,12.6838 103.5,12C 98.1329,8.79719 98.7996,6.79719 105.5,6C 113.807,5.02563 122.141,4.52563 130.5,4.5C 130.75,9.50095 131.083,14.5009 131.5,19.5C 131.955,23.6318 130.955,27.2985 128.5,30.5C 129.374,32.7466 129.708,35.0799 129.5,37.5C 127.678,37.1692 126.011,36.5025 124.5,35.5 Z"/></g>
<g><path style="opacity:1" fill="#5c768a" d="M 76.5,-0.5 C 78.1667,-0.5 79.8333,-0.5 81.5,-0.5C 81.5774,0.749754 82.244,1.58309 83.5,2C 81.9411,2.97993 80.2744,3.81327 78.5,4.5C 79.7515,6.00087 80.7515,7.66754 81.5,9.5C 79.3837,11.5717 77.3837,13.7383 75.5,16C 87.1847,17.6121 86.8513,18.9455 74.5,20C 73.0577,20.3768 72.0577,21.2101 71.5,22.5C 71.5,23.1667 71.1667,23.5 70.5,23.5C 68.5,23.8333 66.5,24.1667 64.5,24.5C 62.8693,20.7675 61.8693,16.7675 61.5,12.5C 63.9678,12.3012 66.4678,12.3012 69,12.5C 70.0588,12.3699 70.8921,11.8699 71.5,11C 66.8274,10.0657 66.4941,8.56566 70.5,6.5C 70.0798,4.67401 70.0798,2.67401 70.5,0.5C 72.7354,0.794717 74.7354,0.461384 76.5,-0.5 Z"/></g>
<g><path style="opacity:1" fill="#434244" d="M 160.5,-0.5 C 165.167,-0.5 169.833,-0.5 174.5,-0.5C 173.587,1.56168 172.087,1.89501 170,0.5C 168.373,0.625146 166.873,1.12515 165.5,2C 166.38,3.35613 166.714,4.85613 166.5,6.5C 168.939,7.05255 171.273,7.05255 173.5,6.5C 174.308,6.80762 174.975,7.30762 175.5,8C 173.972,9.64772 173.305,11.6477 173.5,14C 173.629,15.9806 174.296,17.6472 175.5,19C 174.556,21.7191 174.223,24.5525 174.5,27.5C 175.5,27.5 176.5,27.5 177.5,27.5C 177.077,25.2188 177.744,23.5521 179.5,22.5C 179.5,30.1667 179.5,37.8333 179.5,45.5C 177.261,42.1758 175.927,38.5091 175.5,34.5C 176.108,33.2003 176.775,31.8669 177.5,30.5C 177.167,29.8333 176.833,29.1667 176.5,28.5C 175.16,29.8665 173.827,31.1999 172.5,32.5C 172.5,24.8333 172.5,17.1667 172.5,9.5C 168.821,9.72442 165.154,10.0578 161.5,10.5C 161.737,11.791 161.404,12.791 160.5,13.5C 160.5,8.83333 160.5,4.16667 160.5,-0.5 Z"/></g>
<g><path style="opacity:1" fill="#33363a" d="M 172.5,32.5 C 169.634,33.9649 166.634,34.9649 163.5,35.5C 162.833,35.5 162.5,35.8333 162.5,36.5C 160.535,29.2395 159.868,21.5729 160.5,13.5C 161.404,12.791 161.737,11.791 161.5,10.5C 165.154,10.0578 168.821,9.72442 172.5,9.5C 172.5,17.1667 172.5,24.8333 172.5,32.5 Z"/></g>
<g><path style="opacity:1" fill="#68859a" d="M 54.5,-0.5 C 61.8333,-0.5 69.1667,-0.5 76.5,-0.5C 74.7354,0.461384 72.7354,0.794717 70.5,0.5C 70.0798,2.67401 70.0798,4.67401 70.5,6.5C 66.4941,8.56566 66.8274,10.0657 71.5,11C 70.8921,11.8699 70.0588,12.3699 69,12.5C 66.4678,12.3012 63.9678,12.3012 61.5,12.5C 60.1779,12.33 59.0113,12.6634 58,13.5C 57.4954,15.5183 56.9954,17.5183 56.5,19.5C 54.087,18.3202 53.087,16.3202 53.5,13.5C 51.4727,13.3379 49.4727,13.5045 47.5,14C 47.0434,16.9557 45.3767,18.7891 42.5,19.5C 42.3398,17.8008 42.5065,16.1341 43,14.5C 44.353,13.3147 45.5197,11.9814 46.5,10.5C 53.1519,9.61234 59.8186,8.94567 66.5,8.5C 66.5,7.5 66.5,6.5 66.5,5.5C 61.7863,5.82662 57.1196,5.49329 52.5,4.5C 53.325,3.61432 54.325,3.28099 55.5,3.5C 55.5674,2.04125 55.2341,0.707917 54.5,-0.5 Z"/></g>
<g><path style="opacity:1" fill="#7b99ac" d="M 51.5,-0.5 C 52.5,-0.5 53.5,-0.5 54.5,-0.5C 55.2341,0.707917 55.5674,2.04125 55.5,3.5C 54.325,3.28099 53.325,3.61432 52.5,4.5C 57.1196,5.49329 61.7863,5.82662 66.5,5.5C 66.5,6.5 66.5,7.5 66.5,8.5C 59.8186,8.94567 53.1519,9.61234 46.5,10.5C 45.5197,11.9814 44.353,13.3147 43,14.5C 42.5065,16.1341 42.3398,17.8008 42.5,19.5C 42.1344,20.6946 41.301,21.3613 40,21.5C 38.4411,20.9706 36.9411,20.304 35.5,19.5C 34.2638,20.2458 32.9305,20.5792 31.5,20.5C 31.7947,18.2646 31.4614,16.2646 30.5,14.5C 30.5,11.1667 30.5,7.83333 30.5,4.5C 31.4731,6.9479 31.8064,9.61456 31.5,12.5C 38.9564,14.6196 42.9564,11.9529 43.5,4.5C 45.099,4.76781 46.4324,4.43448 47.5,3.5C 48.5676,2.56552 49.901,2.23219 51.5,2.5C 51.5,1.5 51.5,0.5 51.5,-0.5 Z"/></g>
<g><path style="opacity:1" fill="#77939e" d="M 61.5,12.5 C 61.8693,16.7675 62.8693,20.7675 64.5,24.5C 63.9423,25.7899 62.9423,26.6232 61.5,27C 57.7795,27.6805 54.1128,28.5139 50.5,29.5C 50.8333,27.5 51.1667,25.5 51.5,23.5C 53.1667,23.5 54.8333,23.5 56.5,23.5C 56.5,22.1667 56.5,20.8333 56.5,19.5C 56.9954,17.5183 57.4954,15.5183 58,13.5C 59.0113,12.6634 60.1779,12.33 61.5,12.5 Z"/></g>
<g><path style="opacity:1" fill="#5f7b8f" d="M 56.5,19.5 C 56.5,20.8333 56.5,22.1667 56.5,23.5C 54.8333,23.5 53.1667,23.5 51.5,23.5C 51.1667,25.5 50.8333,27.5 50.5,29.5C 50.5,30.1667 50.1667,30.5 49.5,30.5C 48.5,30.5 47.5,30.5 46.5,30.5C 44.0771,30.4236 42.2438,31.4236 41,33.5C 39.2252,32.7297 37.7252,31.563 36.5,30C 34.8659,29.5065 33.1992,29.3398 31.5,29.5C 31.8016,26.9407 31.4682,24.6074 30.5,22.5C 30.5,19.8333 30.5,17.1667 30.5,14.5C 31.4614,16.2646 31.7947,18.2646 31.5,20.5C 32.9305,20.5792 34.2638,20.2458 35.5,19.5C 36.9411,20.304 38.4411,20.9706 40,21.5C 41.301,21.3613 42.1344,20.6946 42.5,19.5C 45.3767,18.7891 47.0434,16.9557 47.5,14C 49.4727,13.5045 51.4727,13.3379 53.5,13.5C 53.087,16.3202 54.087,18.3202 56.5,19.5 Z"/></g>
<g><path style="opacity:1" fill="#323437" d="M 174.5,-0.5 C 176.167,-0.5 177.833,-0.5 179.5,-0.5C 179.5,7.16667 179.5,14.8333 179.5,22.5C 177.744,23.5521 177.077,25.2188 177.5,27.5C 176.5,27.5 175.5,27.5 174.5,27.5C 174.223,24.5525 174.556,21.7191 175.5,19C 174.296,17.6472 173.629,15.9806 173.5,14C 173.305,11.6477 173.972,9.64772 175.5,8C 174.975,7.30762 174.308,6.80762 173.5,6.5C 171.273,7.05255 168.939,7.05255 166.5,6.5C 166.714,4.85613 166.38,3.35613 165.5,2C 166.873,1.12515 168.373,0.625146 170,0.5C 172.087,1.89501 173.587,1.56168 174.5,-0.5 Z"/></g>
<g><path style="opacity:1" fill="#9e8d7e" d="M 99.5,20.5 C 99.2178,21.7777 98.5511,22.7777 97.5,23.5C 95.9826,23.4894 94.8159,22.8228 94,21.5C 93.6174,22.056 93.1174,22.3893 92.5,22.5C 91.5,21.8333 90.5,21.1667 89.5,20.5C 90.9986,19.3218 91.9986,17.6551 92.5,15.5C 93.4519,17.0453 93.7852,18.712 93.5,20.5C 95.5,20.5 97.5,20.5 99.5,20.5 Z"/></g>
<g><path style="opacity:1" fill="#654d41" d="M 85.5,20.5 C 85.5,20.8333 85.5,21.1667 85.5,21.5C 81.9642,22.7579 78.2975,23.5913 74.5,24C 75.3363,25.2433 75.003,26.4099 73.5,27.5C 71.4501,26.9234 70.4501,25.5901 70.5,23.5C 71.1667,23.5 71.5,23.1667 71.5,22.5C 76.0068,20.8874 80.6734,20.2207 85.5,20.5 Z"/></g>
<g><path style="opacity:1" fill="#b69879" d="M 85.5,20.5 C 86.8333,20.5 88.1667,20.5 89.5,20.5C 90.5,21.1667 91.5,21.8333 92.5,22.5C 91.4097,23.8571 90.0764,24.8571 88.5,25.5C 88.1667,25.5 87.8333,25.5 87.5,25.5C 87.44,24.9569 87.1067,24.6236 86.5,24.5C 85.2742,26.2779 83.6075,27.2779 81.5,27.5C 81.1961,26.8501 80.8627,26.1835 80.5,25.5C 82.21,24.1128 83.8767,22.7794 85.5,21.5C 85.5,21.1667 85.5,20.8333 85.5,20.5 Z"/></g>
<g><path style="opacity:1" fill="#695041" d="M 99.5,20.5 C 101.153,20.6596 102.486,21.3263 103.5,22.5C 102.761,22.369 102.094,22.5357 101.5,23C 102.738,23.69 102.738,24.19 101.5,24.5C 100.167,24.5 98.8333,24.5 97.5,24.5C 97.5,24.1667 97.5,23.8333 97.5,23.5C 98.5511,22.7777 99.2178,21.7777 99.5,20.5 Z"/></g>
<g><path style="opacity:1" fill="#94765e" d="M 85.5,21.5 C 83.8767,22.7794 82.21,24.1128 80.5,25.5C 80.8627,26.1835 81.1961,26.8501 81.5,27.5C 78.7837,28.2013 76.4504,29.5346 74.5,31.5C 74.44,30.9569 74.1067,30.6236 73.5,30.5C 72.7022,32.0777 72.2022,33.7444 72,35.5C 70.4875,32.1434 67.9875,30.1434 64.5,29.5C 64.3538,34.0155 62.3538,35.6821 58.5,34.5C 57.3774,33.2426 56.7107,33.5759 56.5,35.5C 55.5,35.5 54.5,35.5 53.5,35.5C 53.5,34.1667 53.5,32.8333 53.5,31.5C 51.901,31.7678 50.5676,31.4345 49.5,30.5C 50.1667,30.5 50.5,30.1667 50.5,29.5C 54.1128,28.5139 57.7795,27.6805 61.5,27C 62.9423,26.6232 63.9423,25.7899 64.5,24.5C 66.5,24.1667 68.5,23.8333 70.5,23.5C 70.4501,25.5901 71.4501,26.9234 73.5,27.5C 75.003,26.4099 75.3363,25.2433 74.5,24C 78.2975,23.5913 81.9642,22.7579 85.5,21.5 Z"/></g>
<g><path style="opacity:1" fill="#926f56" d="M 97.5,23.5 C 97.5,23.8333 97.5,24.1667 97.5,24.5C 97.1667,24.5 96.8333,24.5 96.5,24.5C 94.516,25.1557 92.516,25.8224 90.5,26.5C 89.5836,26.4573 88.9169,26.1239 88.5,25.5C 90.0764,24.8571 91.4097,23.8571 92.5,22.5C 93.1174,22.3893 93.6174,22.056 94,21.5C 94.8159,22.8228 95.9826,23.4894 97.5,23.5 Z"/></g>
<g><path style="opacity:1" fill="#43505c" d="M 150.5,-0.5 C 153.5,-0.5 156.5,-0.5 159.5,-0.5C 159.823,3.22605 159.489,6.89272 158.5,10.5C 157.833,10.1667 157.167,9.83333 156.5,9.5C 155.252,12.5063 155.252,15.5063 156.5,18.5C 155.564,19.9744 154.23,20.9744 152.5,21.5C 151.571,22.6888 151.238,24.0222 151.5,25.5C 150.5,25.5 149.5,25.5 148.5,25.5C 148.167,27.5 147.833,29.5 147.5,31.5C 152.833,32.1667 152.833,32.8333 147.5,33.5C 147.738,37.0993 146.738,37.4327 144.5,34.5C 142.205,35.4318 139.871,36.2652 137.5,37C 136.874,37.7504 136.374,38.5838 136,39.5C 135.768,38.2625 135.268,37.2625 134.5,36.5C 134.726,33.7508 134.393,31.0841 133.5,28.5C 133.977,27.5224 134.643,26.6891 135.5,26C 139.421,25.797 143.255,25.297 147,24.5C 147.346,22.7818 147.846,21.1151 148.5,19.5C 147.593,16.5788 147.26,13.5788 147.5,10.5C 148.5,10.5 149.5,10.5 150.5,10.5C 150.383,8.5165 151.05,6.84983 152.5,5.5C 152.023,4.52242 151.357,3.68909 150.5,3C 157.036,1.49402 157.036,0.32735 150.5,-0.5 Z"/></g>
<g><path style="opacity:1" fill="#bf9a78" d="M 104.5,23.5 C 106.565,23.5172 108.565,23.8505 110.5,24.5C 110.5,24.8333 110.5,25.1667 110.5,25.5C 110.082,26.2216 109.416,26.7216 108.5,27C 110.154,27.6077 111.821,28.1077 113.5,28.5C 113.833,29.5 114.5,30.1667 115.5,30.5C 114.848,31.7251 113.681,32.3917 112,32.5C 109.824,32.1234 107.991,31.4567 106.5,30.5C 105.548,29.548 104.548,28.548 103.5,27.5C 104.246,26.2638 104.579,24.9305 104.5,23.5 Z"/></g>
<g><path style="opacity:1" fill="#836b58" d="M 110.5,25.5 C 112.19,25.8564 113.19,26.8564 113.5,28.5C 111.821,28.1077 110.154,27.6077 108.5,27C 109.416,26.7216 110.082,26.2216 110.5,25.5 Z"/></g>
<g><path style="opacity:1" fill="#b89a7a" d="M 57.5,28.5 C 59.5,28.5 61.5,28.5 63.5,28.5C 63.6495,29.552 63.4828,30.552 63,31.5C 62.6667,31.1667 62.3333,30.8333 62,30.5C 61.6924,31.3081 61.1924,31.9747 60.5,32.5C 58.4501,31.9234 57.4501,30.5901 57.5,28.5 Z"/></g>
<g><path style="opacity:1" fill="#ba6e4d" d="M 175.5,34.5 C 175.5,35.1667 175.167,35.5 174.5,35.5C 172.952,35.1788 172.285,34.1788 172.5,32.5C 173.827,31.1999 175.16,29.8665 176.5,28.5C 176.833,29.1667 177.167,29.8333 177.5,30.5C 176.775,31.8669 176.108,33.2003 175.5,34.5 Z"/></g>
<g><path style="opacity:1" fill="#242b32" d="M 24.5,-0.5 C 24.8333,-0.5 25.1667,-0.5 25.5,-0.5C 25.932,16.1642 26.2653,32.8309 26.5,49.5C 25.6787,46.3586 25.1787,43.0252 25,39.5C 24.5001,26.1708 24.3334,12.8375 24.5,-0.5 Z"/></g>
<g><path style="opacity:1" fill="#755b45" d="M 87.5,25.5 C 86.0254,27.4095 84.0254,28.5762 81.5,29C 82.3567,29.6891 83.0233,30.5224 83.5,31.5C 81.7156,32.606 79.8822,32.606 78,31.5C 76.9889,32.0556 76.1556,32.7222 75.5,33.5C 75.1667,32.8333 74.8333,32.1667 74.5,31.5C 76.4504,29.5346 78.7837,28.2013 81.5,27.5C 83.6075,27.2779 85.2742,26.2779 86.5,24.5C 87.1067,24.6236 87.44,24.9569 87.5,25.5 Z"/></g>
<g><path style="opacity:1" fill="#a07d61" d="M 106.5,30.5 C 107.991,31.4567 109.824,32.1234 112,32.5C 113.681,32.3917 114.848,31.7251 115.5,30.5C 118.127,30.7903 119.794,32.1236 120.5,34.5C 120.672,35.4916 120.338,36.1583 119.5,36.5C 116.001,36.741 115.668,35.9076 118.5,34C 116.667,33.8333 114.833,33.6667 113,33.5C 110.698,33.6004 108.698,34.267 107,35.5C 106.506,33.8659 106.34,32.1992 106.5,30.5 Z"/></g>
<g><path style="opacity:1" fill="#4d3d33" d="M 96.5,24.5 C 94.6084,29.5507 91.6084,30.884 87.5,28.5C 88.1011,31.5488 88.6011,34.5488 89,37.5C 87.2817,36.1498 85.4484,34.9832 83.5,34C 80.6308,33.991 77.9641,33.8243 75.5,33.5C 76.1556,32.7222 76.9889,32.0556 78,31.5C 79.8822,32.606 81.7156,32.606 83.5,31.5C 83.0233,30.5224 82.3567,29.6891 81.5,29C 84.0254,28.5762 86.0254,27.4095 87.5,25.5C 87.8333,25.5 88.1667,25.5 88.5,25.5C 88.9169,26.1239 89.5836,26.4573 90.5,26.5C 92.516,25.8224 94.516,25.1557 96.5,24.5 Z"/></g>
<g><path style="opacity:1" fill="#424b53" d="M 159.5,-0.5 C 159.833,-0.5 160.167,-0.5 160.5,-0.5C 160.5,4.16667 160.5,8.83333 160.5,13.5C 159.868,21.5729 160.535,29.2395 162.5,36.5C 160.021,39.2095 157.021,39.8761 153.5,38.5C 151.269,39.3092 149.602,40.6425 148.5,42.5C 147.5,42.5 146.5,42.5 145.5,42.5C 145.631,41.6236 145.298,40.9569 144.5,40.5C 141.767,42.7496 138.767,43.083 135.5,41.5C 135.5,43.5 135.5,45.5 135.5,47.5C 134.167,47.5 132.833,47.5 131.5,47.5C 131.5,46.1667 131.5,44.8333 131.5,43.5C 133.912,43.3059 134.912,41.9726 134.5,39.5C 134.5,38.5 134.5,37.5 134.5,36.5C 135.268,37.2625 135.768,38.2625 136,39.5C 136.374,38.5838 136.874,37.7504 137.5,37C 139.871,36.2652 142.205,35.4318 144.5,34.5C 146.738,37.4327 147.738,37.0993 147.5,33.5C 152.833,32.8333 152.833,32.1667 147.5,31.5C 147.833,29.5 148.167,27.5 148.5,25.5C 149.5,25.5 150.5,25.5 151.5,25.5C 151.238,24.0222 151.571,22.6888 152.5,21.5C 154.23,20.9744 155.564,19.9744 156.5,18.5C 155.252,15.5063 155.252,12.5063 156.5,9.5C 157.167,9.83333 157.833,10.1667 158.5,10.5C 159.489,6.89272 159.823,3.22605 159.5,-0.5 Z"/></g>
<g><path style="opacity:1" fill="#576a7a" d="M 30.5,22.5 C 31.4682,24.6074 31.8016,26.9407 31.5,29.5C 33.1992,29.3398 34.8659,29.5065 36.5,30C 37.7252,31.563 39.2252,32.7297 41,33.5C 42.2438,31.4236 44.0771,30.4236 46.5,30.5C 46.5,31.5 46.5,32.5 46.5,33.5C 44.5544,34.0347 43.5544,35.368 43.5,37.5C 42.0829,39.8852 40.7496,42.3852 39.5,45C 40.1,46.6613 40.7667,46.4946 41.5,44.5C 42.404,45.209 42.7373,46.209 42.5,47.5C 41.4794,51.104 41.4794,54.7707 42.5,58.5C 41.2921,59.2341 39.9587,59.5674 38.5,59.5C 37.8333,59.5 37.5,59.1667 37.5,58.5C 36.8734,52.8555 36.3734,47.1888 36,41.5C 34.324,40.9389 32.9906,39.9389 32,38.5C 31.1697,33.1924 30.6697,27.8591 30.5,22.5 Z"/></g>
<g><path style="opacity:1" fill="#2b2626" d="M 96.5,24.5 C 96.8333,24.5 97.1667,24.5 97.5,24.5C 98.8333,24.5 100.167,24.5 101.5,24.5C 101.5,24.8333 101.5,25.1667 101.5,25.5C 100.522,25.811 99.8555,26.4777 99.5,27.5C 100.106,29.7094 100.773,31.876 101.5,34C 99.5838,36.4095 97.5838,38.5761 95.5,40.5C 94.5084,40.3284 93.8417,40.6618 93.5,41.5C 90.7465,42.7136 88.0799,44.2136 85.5,46C 81.8,46.9114 78.1334,47.5781 74.5,48C 73.8333,47.6667 73.1667,47.3333 72.5,47C 73.9985,44.5832 74.6651,41.9165 74.5,39C 74.4944,36.9674 74.1611,35.134 73.5,33.5C 73.3284,32.5084 73.6618,31.8417 74.5,31.5C 74.8333,32.1667 75.1667,32.8333 75.5,33.5C 77.9641,33.8243 80.6308,33.991 83.5,34C 85.4484,34.9832 87.2817,36.1498 89,37.5C 88.6011,34.5488 88.1011,31.5488 87.5,28.5C 91.6084,30.884 94.6084,29.5507 96.5,24.5 Z"/></g>
<g><path style="opacity:1" fill="#695445" d="M 46.5,30.5 C 47.5,30.5 48.5,30.5 49.5,30.5C 50.5676,31.4345 51.901,31.7678 53.5,31.5C 53.5,32.8333 53.5,34.1667 53.5,35.5C 54.5,35.5 55.5,35.5 56.5,35.5C 54.7213,37.0283 52.7213,38.3616 50.5,39.5C 51.067,36.0886 49.7337,34.0886 46.5,33.5C 46.5,32.5 46.5,31.5 46.5,30.5 Z"/></g>
<g><path style="opacity:1" fill="#7e5f4c" d="M 103.5,22.5 C 104.167,22.5 104.5,22.8333 104.5,23.5C 104.579,24.9305 104.246,26.2638 103.5,27.5C 104.548,28.548 105.548,29.548 106.5,30.5C 106.34,32.1992 106.506,33.8659 107,35.5C 108.698,34.267 110.698,33.6004 113,33.5C 114.833,33.6667 116.667,33.8333 118.5,34C 115.668,35.9076 116.001,36.741 119.5,36.5C 117.651,37.8366 115.484,38.5033 113,38.5C 110.768,36.9472 107.601,36.1138 103.5,36C 105.172,32.8571 104.506,30.3571 101.5,28.5C 102.791,27.4728 102.791,26.4728 101.5,25.5C 101.5,25.1667 101.5,24.8333 101.5,24.5C 102.738,24.19 102.738,23.69 101.5,23C 102.094,22.5357 102.761,22.369 103.5,22.5 Z"/></g>
<g><path style="opacity:1" fill="#774b3f" d="M 172.5,32.5 C 172.285,34.1788 172.952,35.1788 174.5,35.5C 174.011,36.9952 173.345,38.3285 172.5,39.5C 172.663,35.9652 171.33,34.9652 168.5,36.5C 168.5,36.8333 168.5,37.1667 168.5,37.5C 166.989,36.4975 165.322,35.8308 163.5,35.5C 166.634,34.9649 169.634,33.9649 172.5,32.5 Z"/></g>
<g><path style="opacity:1" fill="#594b43" d="M 74.5,31.5 C 73.6618,31.8417 73.3284,32.5084 73.5,33.5C 73.6602,35.1992 73.4935,36.8659 73,38.5C 72.3333,37.8333 71.6667,37.1667 71,36.5C 70.8603,39.0432 70.1937,41.3766 69,43.5C 68.9464,40.1388 67.9464,37.1388 66,34.5C 64.8181,36.2351 63.1515,37.2351 61,37.5C 59.2509,37.2517 58.4176,36.2517 58.5,34.5C 62.3538,35.6821 64.3538,34.0155 64.5,29.5C 67.9875,30.1434 70.4875,32.1434 72,35.5C 72.2022,33.7444 72.7022,32.0777 73.5,30.5C 74.1067,30.6236 74.44,30.9569 74.5,31.5 Z"/></g>
<g><path style="opacity:1" fill="#574338" d="M 101.5,25.5 C 102.791,26.4728 102.791,27.4728 101.5,28.5C 104.506,30.3571 105.172,32.8571 103.5,36C 107.601,36.1138 110.768,36.9472 113,38.5C 115.484,38.5033 117.651,37.8366 119.5,36.5C 120.338,36.1583 120.672,35.4916 120.5,34.5C 121.833,34.8333 123.167,35.1667 124.5,35.5C 124.5,35.8333 124.5,36.1667 124.5,36.5C 121.916,36.5688 119.916,37.7355 118.5,40C 119.094,40.4643 119.761,40.631 120.5,40.5C 120.389,41.1174 120.056,41.6174 119.5,42C 114.833,42.6667 110.167,42.6667 105.5,42C 104.663,40.9887 104.33,39.8221 104.5,38.5C 101.918,38.0254 99.9179,38.6921 98.5,40.5C 97.5,40.5 96.5,40.5 95.5,40.5C 97.5838,38.5761 99.5838,36.4095 101.5,34C 100.773,31.876 100.106,29.7094 99.5,27.5C 99.8555,26.4777 100.522,25.811 101.5,25.5 Z"/></g>
<g><path style="opacity:1" fill="#b65e37" d="M 168.5,36.5 C 171.33,34.9652 172.663,35.9652 172.5,39.5C 171.833,39.5 171.167,39.5 170.5,39.5C 170.715,37.8212 170.048,36.8212 168.5,36.5 Z"/></g>
<g><path style="opacity:1" fill="#8f6d53" d="M 124.5,36.5 C 125.167,37.1667 125.833,37.8333 126.5,38.5C 127.457,40.8103 128.457,43.1436 129.5,45.5C 129.457,46.4164 129.124,47.0831 128.5,47.5C 128.653,44.4647 127.32,42.4647 124.5,41.5C 123.789,39.1582 122.456,38.8249 120.5,40.5C 119.761,40.631 119.094,40.4643 118.5,40C 119.916,37.7355 121.916,36.5688 124.5,36.5 Z"/></g>
<g><path style="opacity:1" fill="#e26a2e" d="M 168.5,36.5 C 170.048,36.8212 170.715,37.8212 170.5,39.5C 170.5,40.1667 170.5,40.8333 170.5,41.5C 169.844,42.2778 169.011,42.9444 168,43.5C 166.97,43.1639 166.47,42.4972 166.5,41.5C 166.527,39.8007 167.194,38.4674 168.5,37.5C 168.5,37.1667 168.5,36.8333 168.5,36.5 Z"/></g>
<g><path style="opacity:1" fill="#7b6a5d" d="M 46.5,33.5 C 49.7337,34.0886 51.067,36.0886 50.5,39.5C 49.7551,42.4512 49.5885,45.4512 50,48.5C 49.0347,46.7397 47.868,46.4063 46.5,47.5C 48.6385,50.368 51.3052,51.0346 54.5,49.5C 52.829,52.929 51.1623,56.2624 49.5,59.5C 49.092,55.9166 47.9253,52.5833 46,49.5C 45.6667,49.8333 45.3333,50.1667 45,50.5C 44.6667,49.1667 44.3333,47.8333 44,46.5C 43.6174,47.056 43.1174,47.3893 42.5,47.5C 42.7373,46.209 42.404,45.209 41.5,44.5C 44.218,42.6183 44.8847,40.2849 43.5,37.5C 43.5544,35.368 44.5544,34.0347 46.5,33.5 Z"/></g>
<g><path style="opacity:1" fill="#4c403a" d="M 58.5,34.5 C 57.5489,35.9187 57.2155,37.5853 57.5,39.5C 55.8333,39.5 54.1667,39.5 52.5,39.5C 52.6427,41.2624 52.3094,42.9291 51.5,44.5C 52.5769,45.7051 53.9102,46.3718 55.5,46.5C 55.5,46.8333 55.5,47.1667 55.5,47.5C 54.6618,47.8417 54.3284,48.5084 54.5,49.5C 51.3052,51.0346 48.6385,50.368 46.5,47.5C 47.868,46.4063 49.0347,46.7397 50,48.5C 49.5885,45.4512 49.7551,42.4512 50.5,39.5C 52.7213,38.3616 54.7213,37.0283 56.5,35.5C 56.7107,33.5759 57.3774,33.2426 58.5,34.5 Z"/></g>
<g><path style="opacity:1" fill="#b97060" d="M 134.5,39.5 C 134.912,41.9726 133.912,43.3059 131.5,43.5C 130.708,41.2436 131.708,39.9103 134.5,39.5 Z"/></g>
<g><path style="opacity:1" fill="#ba7d60" d="M 163.5,35.5 C 165.322,35.8308 166.989,36.4975 168.5,37.5C 167.194,38.4674 166.527,39.8007 166.5,41.5C 165.844,40.7222 165.011,40.0556 164,39.5C 160.141,41.7306 155.974,43.0639 151.5,43.5C 150.209,43.7373 149.209,43.404 148.5,42.5C 149.602,40.6425 151.269,39.3092 153.5,38.5C 157.021,39.8761 160.021,39.2095 162.5,36.5C 162.5,35.8333 162.833,35.5 163.5,35.5 Z"/></g>
<g><path style="opacity:1" fill="#544c46" d="M 43.5,37.5 C 44.8847,40.2849 44.218,42.6183 41.5,44.5C 40.7667,46.4946 40.1,46.6613 39.5,45C 40.7496,42.3852 42.0829,39.8852 43.5,37.5 Z"/></g>
<g><path style="opacity:1" fill="#473c38" d="M 166.5,41.5 C 166.47,42.4972 166.97,43.1639 168,43.5C 169.011,42.9444 169.844,42.2778 170.5,41.5C 170.286,43.1439 170.62,44.6439 171.5,46C 174.146,46.4974 176.813,46.6641 179.5,46.5C 179.5,46.8333 179.5,47.1667 179.5,47.5C 169.174,48.0181 158.841,48.3514 148.5,48.5C 148.5,47.1667 148.5,45.8333 148.5,44.5C 149.791,44.7373 150.791,44.404 151.5,43.5C 155.974,43.0639 160.141,41.7306 164,39.5C 165.011,40.0556 165.844,40.7222 166.5,41.5 Z"/></g>
<g><path style="opacity:1" fill="#333132" d="M 175.5,34.5 C 175.927,38.5091 177.261,42.1758 179.5,45.5C 179.5,45.8333 179.5,46.1667 179.5,46.5C 176.813,46.6641 174.146,46.4974 171.5,46C 170.62,44.6439 170.286,43.1439 170.5,41.5C 170.5,40.8333 170.5,40.1667 170.5,39.5C 171.167,39.5 171.833,39.5 172.5,39.5C 173.345,38.3285 174.011,36.9952 174.5,35.5C 175.167,35.5 175.5,35.1667 175.5,34.5 Z"/></g>
<g><path style="opacity:1" fill="#3a3231" d="M 73.5,33.5 C 74.1611,35.134 74.4944,36.9674 74.5,39C 74.6651,41.9165 73.9985,44.5832 72.5,47C 73.1667,47.3333 73.8333,47.6667 74.5,48C 78.1334,47.5781 81.8,46.9114 85.5,46C 88.0799,44.2136 90.7465,42.7136 93.5,41.5C 92.3995,42.6049 91.7329,43.9382 91.5,45.5C 87.8996,46.6201 84.2329,47.7868 80.5,49C 77.1832,49.4983 73.8499,49.665 70.5,49.5C 66.6426,49.3103 64.976,47.3103 65.5,43.5C 62.9621,43.5072 60.4621,43.8405 58,44.5C 56.6244,44.6842 55.7911,45.3509 55.5,46.5C 53.9102,46.3718 52.5769,45.7051 51.5,44.5C 52.3094,42.9291 52.6427,41.2624 52.5,39.5C 54.1667,39.5 55.8333,39.5 57.5,39.5C 57.2155,37.5853 57.5489,35.9187 58.5,34.5C 58.4176,36.2517 59.2509,37.2517 61,37.5C 63.1515,37.2351 64.8181,36.2351 66,34.5C 67.9464,37.1388 68.9464,40.1388 69,43.5C 70.1937,41.3766 70.8603,39.0432 71,36.5C 71.6667,37.1667 72.3333,37.8333 73,38.5C 73.4935,36.8659 73.6602,35.1992 73.5,33.5 Z"/></g>
<g><path style="opacity:1" fill="#ab9488" d="M 134.5,36.5 C 134.5,37.5 134.5,38.5 134.5,39.5C 131.708,39.9103 130.708,41.2436 131.5,43.5C 131.5,44.8333 131.5,46.1667 131.5,47.5C 132.833,47.5 134.167,47.5 135.5,47.5C 135.5,45.5 135.5,43.5 135.5,41.5C 138.767,43.083 141.767,42.7496 144.5,40.5C 145.298,40.9569 145.631,41.6236 145.5,42.5C 147.351,43.8664 147.684,45.533 146.5,47.5C 145.818,46.7573 145.151,46.0906 144.5,45.5C 142.911,44.3789 141.244,44.5456 139.5,46C 136.954,47.7106 134.954,49.8773 133.5,52.5C 132.566,51.4324 132.232,50.099 132.5,48.5C 131.5,48.5 130.5,48.5 129.5,48.5C 129.5,50.5 129.5,52.5 129.5,54.5C 129.167,54.5 128.833,54.5 128.5,54.5C 128.5,52.1667 128.5,49.8333 128.5,47.5C 129.124,47.0831 129.457,46.4164 129.5,45.5C 128.457,43.1436 127.457,40.8103 126.5,38.5C 129.33,38.3059 131.996,37.6392 134.5,36.5 Z"/></g>
<g><path style="opacity:1" fill="#594b46" d="M 70.5,49.5 C 70.5,49.8333 70.5,50.1667 70.5,50.5C 65.4372,49.4727 60.4372,48.1394 55.5,46.5C 55.7911,45.3509 56.6244,44.6842 58,44.5C 60.4621,43.8405 62.9621,43.5072 65.5,43.5C 64.976,47.3103 66.6426,49.3103 70.5,49.5 Z"/></g>
<g><path style="opacity:1" fill="#485d6d" d="M 25.5,-0.5 C 27.1667,-0.5 28.8333,-0.5 30.5,-0.5C 30.5,1.16667 30.5,2.83333 30.5,4.5C 30.5,7.83333 30.5,11.1667 30.5,14.5C 30.5,17.1667 30.5,19.8333 30.5,22.5C 30.6697,27.8591 31.1697,33.1924 32,38.5C 32.9906,39.9389 34.324,40.9389 36,41.5C 36.3734,47.1888 36.8734,52.8555 37.5,58.5C 34.8636,55.8966 32.8636,52.8966 31.5,49.5C 30.6689,56.4764 30.1689,63.4764 30,70.5C 29.6667,70.8333 29.3333,71.1667 29,71.5C 28.5045,69.5273 28.3379,67.5273 28.5,65.5C 29.8755,49.3058 29.7089,32.9725 28,16.5C 27.5001,30.8295 27.3334,45.1628 27.5,59.5C 26.5206,56.3752 26.1872,53.0419 26.5,49.5C 26.2653,32.8309 25.932,16.1642 25.5,-0.5 Z"/></g>
<g><path style="opacity:1" fill="#9f7557" d="M 95.5,40.5 C 96.5,40.5 97.5,40.5 98.5,40.5C 100.025,42.2163 101.025,44.2163 101.5,46.5C 100.478,50.5652 98.1452,51.3986 94.5,49C 93.7476,48.3292 93.4142,47.4959 93.5,46.5C 94.1667,44.5 94.8333,42.5 95.5,40.5 Z"/></g>
<g><path style="opacity:1" fill="#6b5541" d="M 124.5,41.5 C 127.32,42.4647 128.653,44.4647 128.5,47.5C 128.5,49.8333 128.5,52.1667 128.5,54.5C 128.11,51.2033 127.11,48.2033 125.5,45.5C 125.082,44.7784 124.416,44.2784 123.5,44C 124.252,43.3292 124.586,42.4959 124.5,41.5 Z"/></g>
<g><path style="opacity:1" fill="#9c7262" d="M 145.5,42.5 C 146.5,42.5 147.5,42.5 148.5,42.5C 149.209,43.404 150.209,43.7373 151.5,43.5C 150.791,44.404 149.791,44.7373 148.5,44.5C 148.5,45.8333 148.5,47.1667 148.5,48.5C 148.167,49.1667 147.833,49.8333 147.5,50.5C 147.5,51.1667 147.833,51.5 148.5,51.5C 148.5,52.5 148.5,53.5 148.5,54.5C 143.921,54.8468 139.588,54.1802 135.5,52.5C 134.833,52.5 134.167,52.5 133.5,52.5C 134.954,49.8773 136.954,47.7106 139.5,46C 141.244,44.5456 142.911,44.3789 144.5,45.5C 145.151,46.0906 145.818,46.7573 146.5,47.5C 147.684,45.533 147.351,43.8664 145.5,42.5 Z"/></g>
<g><path style="opacity:1" fill="#5b4b4b" d="M 144.5,45.5 C 144.5,46.5 144.5,47.5 144.5,48.5C 139.361,47.9407 139.361,46.9407 144.5,45.5 Z"/></g>
<g><path style="opacity:1" fill="#b26d4b" d="M 179.5,47.5 C 179.5,48.1667 179.5,48.8333 179.5,49.5C 168.828,49.6855 158.161,50.0189 147.5,50.5C 147.833,49.8333 148.167,49.1667 148.5,48.5C 158.841,48.3514 169.174,48.0181 179.5,47.5 Z"/></g>
<g><path style="opacity:1" fill="#352e2a" d="M 120.5,40.5 C 122.456,38.8249 123.789,39.1582 124.5,41.5C 124.586,42.4959 124.252,43.3292 123.5,44C 124.416,44.2784 125.082,44.7784 125.5,45.5C 125.8,50.0986 125.467,54.5986 124.5,59C 125.277,61.6276 126.277,64.1276 127.5,66.5C 125.451,66.7058 125.117,67.5391 126.5,69C 124.426,68.7727 122.426,68.9394 120.5,69.5C 119.479,68.9984 119.312,68.3317 120,67.5C 121.509,66.9103 123.009,66.2436 124.5,65.5C 123.205,62.6341 123.205,59.8007 124.5,57C 120.157,56.3204 116.491,54.3204 113.5,51C 111.866,50.5065 110.199,50.3398 108.5,50.5C 108.183,53.5719 108.516,56.5719 109.5,59.5C 111.811,64.4165 113.811,69.4165 115.5,74.5C 113.915,73.5263 112.915,72.0263 112.5,70C 110.349,69.7351 108.682,68.7351 107.5,67C 106.022,61.4773 105.022,55.9773 104.5,50.5C 104.672,49.5084 104.338,48.8417 103.5,48.5C 103.672,47.5084 103.338,46.8417 102.5,46.5C 102.167,46.5 101.833,46.5 101.5,46.5C 101.025,44.2163 100.025,42.2163 98.5,40.5C 99.9179,38.6921 101.918,38.0254 104.5,38.5C 104.33,39.8221 104.663,40.9887 105.5,42C 110.167,42.6667 114.833,42.6667 119.5,42C 120.056,41.6174 120.389,41.1174 120.5,40.5 Z"/></g>
<g><path style="opacity:1" fill="#b2b9bb" d="M 133.5,52.5 C 132.817,54.1765 131.483,54.8432 129.5,54.5C 129.5,52.5 129.5,50.5 129.5,48.5C 130.5,48.5 131.5,48.5 132.5,48.5C 132.232,50.099 132.566,51.4324 133.5,52.5 Z"/></g>
<g><path style="opacity:1" fill="#845743" d="M 179.5,49.5 C 179.5,49.8333 179.5,50.1667 179.5,50.5C 177.801,50.3398 176.134,50.5065 174.5,51C 176.301,51.3173 176.634,51.984 175.5,53C 170.511,53.4993 165.511,53.6659 160.5,53.5C 156.5,52.8333 152.5,52.1667 148.5,51.5C 147.833,51.5 147.5,51.1667 147.5,50.5C 158.161,50.0189 168.828,49.6855 179.5,49.5 Z"/></g>
<g><path style="opacity:1" fill="#674a39" d="M 95.5,40.5 C 94.8333,42.5 94.1667,44.5 93.5,46.5C 92.4265,47.2506 92.2599,48.2506 93,49.5C 98.2025,55.2665 101.369,54.2665 102.5,46.5C 103.338,46.8417 103.672,47.5084 103.5,48.5C 103.03,57.1552 98.8635,59.4885 91,55.5C 90.3412,52.1119 90.5078,48.7786 91.5,45.5C 91.7329,43.9382 92.3995,42.6049 93.5,41.5C 93.8417,40.6618 94.5084,40.3284 95.5,40.5 Z"/></g>
<g><path style="opacity:1" fill="#866047" d="M 93.5,46.5 C 93.4142,47.4959 93.7476,48.3292 94.5,49C 98.1452,51.3986 100.478,50.5652 101.5,46.5C 101.833,46.5 102.167,46.5 102.5,46.5C 101.369,54.2665 98.2025,55.2665 93,49.5C 92.2599,48.2506 92.4265,47.2506 93.5,46.5 Z"/></g>
<g><path style="opacity:1" fill="#73574c" d="M 148.5,51.5 C 152.5,52.1667 156.5,52.8333 160.5,53.5C 156.702,54.4834 152.702,54.8168 148.5,54.5C 148.5,53.5 148.5,52.5 148.5,51.5 Z"/></g>
<g><path style="opacity:1" fill="#577081" d="M 28.5,65.5 C 28.7373,64.209 28.404,63.209 27.5,62.5C 27.5,61.5 27.5,60.5 27.5,59.5C 27.3334,45.1628 27.5001,30.8295 28,16.5C 29.7089,32.9725 29.8755,49.3058 28.5,65.5 Z"/></g>
<g><path style="opacity:1" fill="#7a8a94" d="M 133.5,52.5 C 134.167,52.5 134.833,52.5 135.5,52.5C 135.664,55.1873 135.497,57.854 135,60.5C 133.301,61.4061 131.467,61.7394 129.5,61.5C 129.5,59.1667 129.5,56.8333 129.5,54.5C 131.483,54.8432 132.817,54.1765 133.5,52.5 Z"/></g>
<g><path style="opacity:1" fill="#4c392d" d="M 104.5,50.5 C 105.022,55.9773 106.022,61.4773 107.5,67C 108.682,68.7351 110.349,69.7351 112.5,70C 112.915,72.0263 113.915,73.5263 115.5,74.5C 116.265,77.0961 116.599,79.7628 116.5,82.5C 115.833,82.5 115.5,82.1667 115.5,81.5C 113.215,77.7902 110.548,74.2902 107.5,71C 105.975,69.9914 104.308,69.4914 102.5,69.5C 100.359,67.4626 99.0256,64.9626 98.5,62C 94.9716,61.911 91.6382,61.2444 88.5,60C 91.7125,59.2974 94.8792,59.4641 98,60.5C 103.389,59.4106 105.556,56.0773 104.5,50.5 Z"/></g>
<g><path style="opacity:1" fill="#c2a18c" d="M 55.5,47.5 C 60.0279,47.8674 62.8612,50.2007 64,54.5C 64.4828,53.552 64.6495,52.552 64.5,51.5C 66.8056,51.9926 69.139,52.3259 71.5,52.5C 71.8844,54.9294 72.551,57.2627 73.5,59.5C 72.325,59.281 71.325,59.6143 70.5,60.5C 71.2458,61.7362 71.5792,63.0695 71.5,64.5C 68.4816,64.3354 65.4816,64.502 62.5,65C 65.1468,65.3149 65.8135,66.4816 64.5,68.5C 66.9894,71.1543 68.6561,74.1543 69.5,77.5C 70.0478,79.5323 71.3812,80.5323 73.5,80.5C 73.2627,81.791 73.596,82.791 74.5,83.5C 74.9195,90.56 74.9195,97.56 74.5,104.5C 72.1667,104.5 69.8333,104.5 67.5,104.5C 66.9626,109.436 68.4626,110.436 72,107.5C 73.0299,107.836 73.5299,108.503 73.5,109.5C 73.631,110.239 73.4643,110.906 73,111.5C 68.541,114.12 65.3743,117.787 63.5,122.5C 62.2913,118.411 60.7913,114.411 59,110.5C 58.6174,111.056 58.1174,111.389 57.5,111.5C 57.5,111.167 57.5,110.833 57.5,110.5C 57.5,110.167 57.5,109.833 57.5,109.5C 57.6716,108.508 57.3382,107.842 56.5,107.5C 56.6716,106.508 56.3382,105.842 55.5,105.5C 55.6716,104.508 55.3382,103.842 54.5,103.5C 54.5,103.167 54.5,102.833 54.5,102.5C 56.6746,102.682 58.6746,103.349 60.5,104.5C 63.3162,103.895 65.9828,102.895 68.5,101.5C 69.5237,102.853 70.857,103.52 72.5,103.5C 73.5389,97.2033 73.7056,90.8699 73,84.5C 72.7508,83.376 72.2508,82.376 71.5,81.5C 70.8324,84.3056 70.1657,86.9723 69.5,89.5C 69.7947,87.2646 69.4614,85.2646 68.5,83.5C 67.8333,83.1667 67.1667,82.8333 66.5,82.5C 65.4019,81.603 65.4019,80.7697 66.5,80C 62.8121,77.307 58.8121,76.807 54.5,78.5C 55.6874,76.0246 57.6874,75.0246 60.5,75.5C 60.7076,73.0799 60.3742,70.7466 59.5,68.5C 62.4327,66.2619 62.0993,65.2619 58.5,65.5C 59.1167,59.5325 58.2833,53.8658 56,48.5C 55.6174,49.056 55.1174,49.3893 54.5,49.5C 54.3284,48.5084 54.6618,47.8417 55.5,47.5 Z"/></g>
<g><path style="opacity:1" fill="#815e4a" d="M 72.5,51.5 C 80.1383,50.4716 83.4717,53.8049 82.5,61.5C 84.288,61.2148 85.9547,61.5481 87.5,62.5C 86.5672,63.9847 86.9005,65.3181 88.5,66.5C 88.5,67.5 88.5,68.5 88.5,69.5C 88.1667,69.5 87.8333,69.5 87.5,69.5C 86.5,69.5 85.5,69.5 84.5,69.5C 84.6107,68.8826 84.944,68.3826 85.5,68C 83.7444,67.7978 82.0777,67.2978 80.5,66.5C 80.9312,65.7065 81.2645,64.8732 81.5,64C 79.6946,60.7085 78.6946,57.2085 78.5,53.5C 77.1667,53.5 75.8333,53.5 74.5,53.5C 73.5,53.1667 72.8333,52.5 72.5,51.5 Z"/></g>
<g><path style="opacity:1" fill="#9b7761" d="M 74.5,53.5 C 75.8333,53.5 77.1667,53.5 78.5,53.5C 78.6946,57.2085 79.6946,60.7085 81.5,64C 81.2645,64.8732 80.9312,65.7065 80.5,66.5C 82.0777,67.2978 83.7444,67.7978 85.5,68C 84.944,68.3826 84.6107,68.8826 84.5,69.5C 79.1741,72.8136 75.8408,77.4803 74.5,83.5C 73.596,82.791 73.2627,81.791 73.5,80.5C 71.3812,80.5323 70.0478,79.5323 69.5,77.5C 69.369,76.7611 69.5357,76.0944 70,75.5C 71.1127,76.305 72.2794,76.9717 73.5,77.5C 75.1765,76.8166 75.8432,75.4832 75.5,73.5C 78.4389,73.082 80.7722,71.582 82.5,69C 81.2068,68.51 79.8734,68.3433 78.5,68.5C 78.5,66.8333 78.5,65.1667 78.5,63.5C 76.2841,63.7254 74.6174,62.8921 73.5,61C 75.2532,59.0015 76.5865,56.8348 77.5,54.5C 76.209,54.7373 75.209,54.404 74.5,53.5 Z"/></g>
<g><path style="opacity:1" fill="#3a3d43" d="M 179.5,50.5 C 179.5,56.1667 179.5,61.8333 179.5,67.5C 172.825,67.3337 166.158,67.5004 159.5,68C 159.043,68.414 158.709,68.914 158.5,69.5C 161.086,70.48 163.753,70.8134 166.5,70.5C 164.782,71.224 162.948,71.8906 161,72.5C 160.667,76.1667 160.333,79.8333 160,83.5C 159.167,79.5 158.333,75.5 157.5,71.5C 155.167,72.1667 152.833,72.8333 150.5,73.5C 149.919,76.3749 148.919,79.0415 147.5,81.5C 146.833,80.5 146.167,79.5 145.5,78.5C 143.363,79.8681 141.03,80.8681 138.5,81.5C 136.828,89.258 136.328,97.258 137,105.5C 139.045,107.043 140.545,106.71 141.5,104.5C 142.167,104.5 142.833,104.5 143.5,104.5C 145.378,105.208 147.045,106.374 148.5,108C 141.321,108.171 134.321,108.671 127.5,109.5C 126.662,109.158 126.328,108.492 126.5,107.5C 126.5,106.167 126.5,104.833 126.5,103.5C 128.833,103.5 131.167,103.5 133.5,103.5C 133.5,102.5 133.5,101.5 133.5,100.5C 132.167,100.5 130.833,100.5 129.5,100.5C 129.5,99.5 129.5,98.5 129.5,97.5C 130.677,95.3206 131.677,92.9872 132.5,90.5C 133.822,90.67 134.989,90.3366 136,89.5C 136.498,87.4731 136.331,85.4731 135.5,83.5C 136.819,79.9223 137.819,76.2556 138.5,72.5C 141.602,70.8173 144.936,70.1506 148.5,70.5C 148.284,66.5129 148.951,62.6796 150.5,59C 150.192,57.5405 149.525,56.3739 148.5,55.5C 148.5,55.1667 148.5,54.8333 148.5,54.5C 152.702,54.8168 156.702,54.4834 160.5,53.5C 165.511,53.6659 170.511,53.4993 175.5,53C 176.634,51.984 176.301,51.3173 174.5,51C 176.134,50.5065 177.801,50.3398 179.5,50.5 Z"/></g>
<g><path style="opacity:1" fill="#463d36" d="M 125.5,45.5 C 127.11,48.2033 128.11,51.2033 128.5,54.5C 128.5,57.8333 128.5,61.1667 128.5,64.5C 128.5,66.8333 128.5,69.1667 128.5,71.5C 127.833,71.5 127.167,71.5 126.5,71.5C 127.301,69.9582 127.634,68.2915 127.5,66.5C 126.277,64.1276 125.277,61.6276 124.5,59C 125.467,54.5986 125.8,50.0986 125.5,45.5 Z"/></g>
<g><path style="opacity:1" fill="#594133" d="M 91.5,45.5 C 90.5078,48.7786 90.3412,52.1119 91,55.5C 98.8635,59.4885 103.03,57.1552 103.5,48.5C 104.338,48.8417 104.672,49.5084 104.5,50.5C 105.556,56.0773 103.389,59.4106 98,60.5C 94.8792,59.4641 91.7125,59.2974 88.5,60C 91.6382,61.2444 94.9716,61.911 98.5,62C 99.0256,64.9626 100.359,67.4626 102.5,69.5C 100.804,69.3146 99.4709,68.4813 98.5,67C 95.1832,66.5017 91.8499,66.335 88.5,66.5C 86.9005,65.3181 86.5672,63.9847 87.5,62.5C 85.9547,61.5481 84.288,61.2148 82.5,61.5C 83.4717,53.8049 80.1383,50.4716 72.5,51.5C 71.5084,51.6716 70.8417,51.3382 70.5,50.5C 70.5,50.1667 70.5,49.8333 70.5,49.5C 73.8499,49.665 77.1832,49.4983 80.5,49C 84.2329,47.7868 87.8996,46.6201 91.5,45.5 Z"/></g>
<g><path style="opacity:1" fill="#606972" d="M 135.5,52.5 C 139.588,54.1802 143.921,54.8468 148.5,54.5C 148.5,54.8333 148.5,55.1667 148.5,55.5C 144.5,55.5 140.5,55.5 136.5,55.5C 136.5,59.8333 136.5,64.1667 136.5,68.5C 134.167,68.5 131.833,68.5 129.5,68.5C 129.768,66.901 129.434,65.5676 128.5,64.5C 128.5,61.1667 128.5,57.8333 128.5,54.5C 128.833,54.5 129.167,54.5 129.5,54.5C 129.5,56.8333 129.5,59.1667 129.5,61.5C 131.467,61.7394 133.301,61.4061 135,60.5C 135.497,57.854 135.664,55.1873 135.5,52.5 Z"/></g>
<g><path style="opacity:1" fill="#b18972" d="M 55.5,47.5 C 55.5,47.1667 55.5,46.8333 55.5,46.5C 60.4372,48.1394 65.4372,49.4727 70.5,50.5C 70.8417,51.3382 71.5084,51.6716 72.5,51.5C 72.8333,52.5 73.5,53.1667 74.5,53.5C 75.209,54.404 76.209,54.7373 77.5,54.5C 76.5865,56.8348 75.2532,59.0015 73.5,61C 74.6174,62.8921 76.2841,63.7254 78.5,63.5C 78.5,65.1667 78.5,66.8333 78.5,68.5C 75.5739,69.4608 72.5739,70.1274 69.5,70.5C 69.5,71.8333 69.5,73.1667 69.5,74.5C 71.9726,74.0882 73.3059,75.0882 73.5,77.5C 72.2794,76.9717 71.1127,76.305 70,75.5C 69.5357,76.0944 69.369,76.7611 69.5,77.5C 68.6561,74.1543 66.9894,71.1543 64.5,68.5C 65.8135,66.4816 65.1468,65.3149 62.5,65C 65.4816,64.502 68.4816,64.3354 71.5,64.5C 71.5792,63.0695 71.2458,61.7362 70.5,60.5C 71.325,59.6143 72.325,59.281 73.5,59.5C 72.551,57.2627 71.8844,54.9294 71.5,52.5C 69.139,52.3259 66.8056,51.9926 64.5,51.5C 64.6495,52.552 64.4828,53.552 64,54.5C 62.8612,50.2007 60.0279,47.8674 55.5,47.5 Z"/></g>
<g><path style="opacity:1" fill="#4c5e6c" d="M 42.5,58.5 C 41.962,60.1172 41.6287,61.7839 41.5,63.5C 40.9569,63.56 40.6236,63.8933 40.5,64.5C 41.5335,68.6487 42.8669,72.6487 44.5,76.5C 43.2497,76.0926 42.083,76.7593 41,78.5C 40.6667,78.1667 40.3333,77.8333 40,77.5C 37.6937,81.6331 34.1937,83.2998 29.5,82.5C 29.5,80.1667 29.5,77.8333 29.5,75.5C 33.2041,75.7882 35.8707,74.2882 37.5,71C 38.3942,67.2238 38.7275,63.3905 38.5,59.5C 39.9587,59.5674 41.2921,59.2341 42.5,58.5 Z"/></g>
<g><path style="opacity:1" fill="#6a4b52" d="M 179.5,67.5 C 179.5,68.1667 179.5,68.8333 179.5,69.5C 175.19,70.0802 170.857,70.4135 166.5,70.5C 163.753,70.8134 161.086,70.48 158.5,69.5C 158.709,68.914 159.043,68.414 159.5,68C 166.158,67.5004 172.825,67.3337 179.5,67.5 Z"/></g>
<g><path style="opacity:1" fill="#d7baa6" d="M 54.5,78.5 C 53.5416,78.9528 52.7083,79.6195 52,80.5C 49.772,74.7316 48.9386,68.7316 49.5,62.5C 49.5,61.5 49.5,60.5 49.5,59.5C 51.1623,56.2624 52.829,52.929 54.5,49.5C 55.1174,49.3893 55.6174,49.056 56,48.5C 58.2833,53.8658 59.1167,59.5325 58.5,65.5C 62.0993,65.2619 62.4327,66.2619 59.5,68.5C 60.3742,70.7466 60.7076,73.0799 60.5,75.5C 57.6874,75.0246 55.6874,76.0246 54.5,78.5 Z"/></g>
<g><path style="opacity:1" fill="#272625" d="M 127.5,66.5 C 127.634,68.2915 127.301,69.9582 126.5,71.5C 121.496,74.3507 118.663,78.684 118,84.5C 117.722,83.5842 117.222,82.9175 116.5,82.5C 116.599,79.7628 116.265,77.0961 115.5,74.5C 113.811,69.4165 111.811,64.4165 109.5,59.5C 108.516,56.5719 108.183,53.5719 108.5,50.5C 110.199,50.3398 111.866,50.5065 113.5,51C 116.491,54.3204 120.157,56.3204 124.5,57C 123.205,59.8007 123.205,62.6341 124.5,65.5C 123.009,66.2436 121.509,66.9103 120,67.5C 119.312,68.3317 119.479,68.9984 120.5,69.5C 122.426,68.9394 124.426,68.7727 126.5,69C 125.117,67.5391 125.451,66.7058 127.5,66.5 Z"/></g>
<g><path style="opacity:1" fill="#616566" d="M 41.5,63.5 C 41.8333,63.5 42.1667,63.5 42.5,63.5C 43.736,74.4263 44.736,74.7597 45.5,64.5C 46.6946,64.8656 47.3613,65.699 47.5,67C 46.6328,70.1052 46.2994,73.2719 46.5,76.5C 45.8333,76.5 45.1667,76.5 44.5,76.5C 42.8669,72.6487 41.5335,68.6487 40.5,64.5C 40.6236,63.8933 40.9569,63.56 41.5,63.5 Z"/></g>
<g><path style="opacity:1" fill="#7e7871" d="M 45.5,64.5 C 44.736,74.7597 43.736,74.4263 42.5,63.5C 45.5203,56.5136 46.5203,56.847 45.5,64.5 Z"/></g>
<g><path style="opacity:1" fill="#464c56" d="M 148.5,55.5 C 149.525,56.3739 150.192,57.5405 150.5,59C 148.951,62.6796 148.284,66.5129 148.5,70.5C 144.936,70.1506 141.602,70.8173 138.5,72.5C 137.819,76.2556 136.819,79.9223 135.5,83.5C 136.331,85.4731 136.498,87.4731 136,89.5C 134.989,90.3366 133.822,90.67 132.5,90.5C 132.666,85.8215 132.499,81.1548 132,76.5C 131.003,74.6769 129.836,73.0103 128.5,71.5C 128.5,69.1667 128.5,66.8333 128.5,64.5C 129.434,65.5676 129.768,66.901 129.5,68.5C 131.833,68.5 134.167,68.5 136.5,68.5C 136.5,64.1667 136.5,59.8333 136.5,55.5C 140.5,55.5 144.5,55.5 148.5,55.5 Z"/></g>
<g><path style="opacity:1" fill="#c9aa95" d="M 78.5,68.5 C 79.8734,68.3433 81.2068,68.51 82.5,69C 80.7722,71.582 78.4389,73.082 75.5,73.5C 75.8432,75.4832 75.1765,76.8166 73.5,77.5C 73.3059,75.0882 71.9726,74.0882 69.5,74.5C 69.5,73.1667 69.5,71.8333 69.5,70.5C 72.5739,70.1274 75.5739,69.4608 78.5,68.5 Z"/></g>
<g><path style="opacity:1" fill="#6d513e" d="M 88.5,66.5 C 91.8499,66.335 95.1832,66.5017 98.5,67C 99.4709,68.4813 100.804,69.3146 102.5,69.5C 104.308,69.4914 105.975,69.9914 107.5,71C 110.548,74.2902 113.215,77.7902 115.5,81.5C 112.263,79.9854 109.263,80.3187 106.5,82.5C 106.5,80.1667 106.5,77.8333 106.5,75.5C 102.822,73.3512 98.9887,71.3512 95,69.5C 92.83,68.2799 90.6633,68.2799 88.5,69.5C 88.5,68.5 88.5,67.5 88.5,66.5 Z"/></g>
<g><path style="opacity:1" fill="#564841" d="M 91.5,81.5 C 91.1667,81.5 90.8333,81.5 90.5,81.5C 90.5,80.1667 89.8333,79.5 88.5,79.5C 88.5,79.1667 88.5,78.8333 88.5,78.5C 88.4142,77.5041 88.7476,76.6708 89.5,76C 88.8333,75.3333 88.1667,74.6667 87.5,74C 91.1539,72.9987 94.1539,73.9987 96.5,77C 94.8333,77.3333 93.1667,77.6667 91.5,78C 92.6843,79.1455 92.6843,80.3121 91.5,81.5 Z"/></g>
<g><path style="opacity:1" fill="#323337" d="M 179.5,69.5 C 179.5,83.1667 179.5,96.8333 179.5,110.5C 176.833,110.5 174.167,110.5 171.5,110.5C 170.833,110.5 170.167,110.5 169.5,110.5C 155.5,110.5 141.5,110.5 127.5,110.5C 127.5,110.167 127.5,109.833 127.5,109.5C 134.321,108.671 141.321,108.171 148.5,108C 147.045,106.374 145.378,105.208 143.5,104.5C 144.5,104.5 145.5,104.5 146.5,104.5C 146.5,103.5 146.5,102.5 146.5,101.5C 144.833,101.5 143.167,101.5 141.5,101.5C 141.5,102.5 141.5,103.5 141.5,104.5C 140.545,106.71 139.045,107.043 137,105.5C 136.328,97.258 136.828,89.258 138.5,81.5C 141.03,80.8681 143.363,79.8681 145.5,78.5C 146.167,79.5 146.833,80.5 147.5,81.5C 148.919,79.0415 149.919,76.3749 150.5,73.5C 152.833,72.8333 155.167,72.1667 157.5,71.5C 158.333,75.5 159.167,79.5 160,83.5C 160.333,79.8333 160.667,76.1667 161,72.5C 162.948,71.8906 164.782,71.224 166.5,70.5C 170.857,70.4135 175.19,70.0802 179.5,69.5 Z"/></g>
<g><path style="opacity:1" fill="#42515f" d="M 37.5,58.5 C 37.5,59.1667 37.8333,59.5 38.5,59.5C 38.7275,63.3905 38.3942,67.2238 37.5,71C 35.8707,74.2882 33.2041,75.7882 29.5,75.5C 29.5,77.8333 29.5,80.1667 29.5,82.5C 29.1667,82.5 28.8333,82.5 28.5,82.5C 27.5399,75.9221 27.2066,69.2554 27.5,62.5C 28.404,63.209 28.7373,64.209 28.5,65.5C 28.3379,67.5273 28.5045,69.5273 29,71.5C 29.3333,71.1667 29.6667,70.8333 30,70.5C 30.1689,63.4764 30.6689,56.4764 31.5,49.5C 32.8636,52.8966 34.8636,55.8966 37.5,58.5 Z"/></g>
<g><path style="opacity:1" fill="#876856" d="M 66.5,82.5 C 63.9039,81.7347 61.2372,81.4013 58.5,81.5C 56.7809,80.9779 55.4475,79.9779 54.5,78.5C 58.8121,76.807 62.8121,77.307 66.5,80C 65.4019,80.7697 65.4019,81.603 66.5,82.5 Z"/></g>
<g><path style="opacity:1" fill="#2d2724" d="M 88.5,78.5 C 88.5,78.8333 88.5,79.1667 88.5,79.5C 88.5,79.8333 88.5,80.1667 88.5,80.5C 85.5439,81.7294 84.5439,83.7294 85.5,86.5C 82.3736,87.6108 79.3736,87.2774 76.5,85.5C 76.5172,83.4352 76.8505,81.4352 77.5,79.5C 80.2305,76.8088 83.5638,75.4755 87.5,75.5C 87.2627,76.791 87.596,77.791 88.5,78.5 Z"/></g>
<g><path style="opacity:1" fill="#3c302a" d="M 106.5,82.5 C 106.463,85.7016 104.797,87.3683 101.5,87.5C 98.507,86.5139 95.507,85.5139 92.5,84.5C 91.8902,83.609 91.5569,82.609 91.5,81.5C 92.6843,80.3121 92.6843,79.1455 91.5,78C 93.1667,77.6667 94.8333,77.3333 96.5,77C 94.1539,73.9987 91.1539,72.9987 87.5,74C 88.1667,74.6667 88.8333,75.3333 89.5,76C 88.7476,76.6708 88.4142,77.5041 88.5,78.5C 87.596,77.791 87.2627,76.791 87.5,75.5C 83.5638,75.4755 80.2305,76.8088 77.5,79.5C 79.8646,75.1353 83.198,71.802 87.5,69.5C 87.8333,69.5 88.1667,69.5 88.5,69.5C 90.6633,68.2799 92.83,68.2799 95,69.5C 98.9887,71.3512 102.822,73.3512 106.5,75.5C 106.5,77.8333 106.5,80.1667 106.5,82.5 Z"/></g>
<g><path style="opacity:1" fill="#bfbdbc" d="M 88.5,79.5 C 89.8333,79.5 90.5,80.1667 90.5,81.5C 90.1583,82.3382 89.4916,82.6716 88.5,82.5C 88.5,81.8333 88.5,81.1667 88.5,80.5C 88.5,80.1667 88.5,79.8333 88.5,79.5 Z"/></g>
<g><path style="opacity:1" fill="#3b2c28" d="M 126.5,71.5 C 127.458,72.9616 128.624,74.2949 130,75.5C 130.494,77.1341 130.66,78.8008 130.5,80.5C 129.21,79.9423 128.377,78.9423 128,77.5C 128.186,81.4841 128.186,85.4841 128,89.5C 126.649,91.019 125.149,92.3523 123.5,93.5C 124.325,94.3857 125.325,94.719 126.5,94.5C 126.5,96.1667 126.5,97.8333 126.5,99.5C 124.784,99.6287 123.117,99.962 121.5,100.5C 120.191,96.5319 118.525,92.8653 116.5,89.5C 116.5,87.1667 116.5,84.8333 116.5,82.5C 117.222,82.9175 117.722,83.5842 118,84.5C 118.663,78.684 121.496,74.3507 126.5,71.5 Z"/></g>
<g><path style="opacity:1" fill="#767e75" d="M 48.5,83.5 C 48.5,84.8333 48.5,86.1667 48.5,87.5C 46.8333,87.5 45.1667,87.5 43.5,87.5C 42.8333,87.5 42.1667,87.5 41.5,87.5C 40.7659,86.2921 40.4326,84.9587 40.5,83.5C 43.1667,83.5 45.8333,83.5 48.5,83.5 Z"/></g>
<g><path style="opacity:1" fill="#44372f" d="M 58.5,81.5 C 61.2372,81.4013 63.9039,81.7347 66.5,82.5C 67.1667,82.8333 67.8333,83.1667 68.5,83.5C 68.5,84.5 68.5,85.5 68.5,86.5C 65.8333,85.1667 63.1667,85.1667 60.5,86.5C 59.6522,85.375 58.6522,85.375 57.5,86.5C 56.9033,86.2648 56.5699,85.7648 56.5,85C 56.9783,83.6974 57.645,82.5307 58.5,81.5 Z"/></g>
<g><path style="opacity:1" fill="#8c736a" d="M 90.5,81.5 C 90.8333,81.5 91.1667,81.5 91.5,81.5C 91.5569,82.609 91.8902,83.609 92.5,84.5C 92.5299,85.4972 92.0299,86.1639 91,86.5C 89.8615,86.0109 88.6948,85.6775 87.5,85.5C 88.1098,84.609 88.4431,83.609 88.5,82.5C 89.4916,82.6716 90.1583,82.3382 90.5,81.5 Z"/></g>
<g><path style="opacity:1" fill="#7b5841" d="M 115.5,81.5 C 115.5,82.1667 115.833,82.5 116.5,82.5C 116.5,84.8333 116.5,87.1667 116.5,89.5C 115.833,89.5 115.5,89.8333 115.5,90.5C 114.833,92.8333 114.167,95.1667 113.5,97.5C 111.859,95.7971 110.859,93.6305 110.5,91C 108.735,90.3603 107.068,90.5269 105.5,91.5C 104.596,90.791 104.263,89.791 104.5,88.5C 103.5,88.5 102.5,88.5 101.5,88.5C 101.5,88.1667 101.5,87.8333 101.5,87.5C 104.797,87.3683 106.463,85.7016 106.5,82.5C 109.263,80.3187 112.263,79.9854 115.5,81.5 Z"/></g>
<g><path style="opacity:1" fill="#4d4641" d="M 49.5,59.5 C 49.5,60.5 49.5,61.5 49.5,62.5C 47.7796,69.6722 48.4463,76.6722 51.5,83.5C 51.5,84.8333 51.5,86.1667 51.5,87.5C 51.5,89.5 51.5,91.5 51.5,93.5C 49.5,93.5 47.5,93.5 45.5,93.5C 45.2041,91.597 44.5375,89.9303 43.5,88.5C 43.5,88.1667 43.5,87.8333 43.5,87.5C 45.1667,87.5 46.8333,87.5 48.5,87.5C 48.5,86.1667 48.5,84.8333 48.5,83.5C 47.9853,81.1055 47.3186,78.7722 46.5,76.5C 46.2994,73.2719 46.6328,70.1052 47.5,67C 47.3613,65.699 46.6946,64.8656 45.5,64.5C 46.5203,56.847 45.5203,56.5136 42.5,63.5C 42.1667,63.5 41.8333,63.5 41.5,63.5C 41.6287,61.7839 41.962,60.1172 42.5,58.5C 41.4794,54.7707 41.4794,51.104 42.5,47.5C 43.1174,47.3893 43.6174,47.056 44,46.5C 44.3333,47.8333 44.6667,49.1667 45,50.5C 45.3333,50.1667 45.6667,49.8333 46,49.5C 47.9253,52.5833 49.092,55.9166 49.5,59.5 Z"/></g>
<g><path style="opacity:1" fill="#58342a" d="M 130.5,80.5 C 130.827,82.4878 131.16,84.4878 131.5,86.5C 130.493,90.7538 129.16,94.7538 127.5,98.5C 127.5,99.1667 127.167,99.5 126.5,99.5C 126.5,97.8333 126.5,96.1667 126.5,94.5C 125.325,94.719 124.325,94.3857 123.5,93.5C 125.149,92.3523 126.649,91.019 128,89.5C 128.186,85.4841 128.186,81.4841 128,77.5C 128.377,78.9423 129.21,79.9423 130.5,80.5 Z"/></g>
<g><path style="opacity:1" fill="#836655" d="M 58.5,81.5 C 57.645,82.5307 56.9783,83.6974 56.5,85C 56.5699,85.7648 56.9033,86.2648 57.5,86.5C 56.928,87.9733 56.0946,89.3066 55,90.5C 54.3333,87.8333 54.3333,85.1667 55,82.5C 56.0113,81.6634 57.1779,81.33 58.5,81.5 Z"/></g>
<g><path style="opacity:1" fill="#573c31" d="M 84.5,69.5 C 85.5,69.5 86.5,69.5 87.5,69.5C 83.198,71.802 79.8646,75.1353 77.5,79.5C 76.8505,81.4352 76.5172,83.4352 76.5,85.5C 76.5875,88.6193 77.9209,89.6193 80.5,88.5C 82.2784,92.8014 84.2784,96.9681 86.5,101C 86.1667,101.5 85.8333,102 85.5,102.5C 84.1552,101.653 83.1552,100.487 82.5,99C 81.2068,98.51 79.8734,98.3433 78.5,98.5C 78.5,100.833 78.5,103.167 78.5,105.5C 78.5569,106.609 78.8902,107.609 79.5,108.5C 78.391,108.443 77.391,108.11 76.5,107.5C 76.5875,99.2909 75.9208,91.2909 74.5,83.5C 75.8408,77.4803 79.1741,72.8136 84.5,69.5 Z"/></g>
<g><path style="opacity:1" fill="#765141" d="M 126.5,71.5 C 127.167,71.5 127.833,71.5 128.5,71.5C 129.836,73.0103 131.003,74.6769 132,76.5C 132.499,81.1548 132.666,85.8215 132.5,90.5C 131.677,92.9872 130.677,95.3206 129.5,97.5C 128.833,97.8333 128.167,98.1667 127.5,98.5C 129.16,94.7538 130.493,90.7538 131.5,86.5C 131.16,84.4878 130.827,82.4878 130.5,80.5C 130.66,78.8008 130.494,77.1341 130,75.5C 128.624,74.2949 127.458,72.9616 126.5,71.5 Z"/></g>
<g><path style="opacity:1" fill="#44535f" d="M 44.5,76.5 C 45.1667,76.5 45.8333,76.5 46.5,76.5C 47.3186,78.7722 47.9853,81.1055 48.5,83.5C 45.8333,83.5 43.1667,83.5 40.5,83.5C 40.4326,84.9587 40.7659,86.2921 41.5,87.5C 37.9909,87.8079 36.3243,89.8079 36.5,93.5C 33.2699,93.561 31.4365,95.2277 31,98.5C 30.6667,98.1667 30.3333,97.8333 30,97.5C 29.5007,92.5111 29.3341,87.5111 29.5,82.5C 34.1937,83.2998 37.6937,81.6331 40,77.5C 40.3333,77.8333 40.6667,78.1667 41,78.5C 42.083,76.7593 43.2497,76.0926 44.5,76.5 Z"/></g>
<g><path style="opacity:1" fill="#b39785" d="M 49.5,62.5 C 48.9386,68.7316 49.772,74.7316 52,80.5C 52.7083,79.6195 53.5416,78.9528 54.5,78.5C 55.4475,79.9779 56.7809,80.9779 58.5,81.5C 57.1779,81.33 56.0113,81.6634 55,82.5C 54.3333,85.1667 54.3333,87.8333 55,90.5C 56.0946,89.3066 56.928,87.9733 57.5,86.5C 58.6522,85.375 59.6522,85.375 60.5,86.5C 61.287,88.1042 62.6203,88.7709 64.5,88.5C 64.2852,90.1788 64.9519,91.1788 66.5,91.5C 64.7126,93.1414 62.5459,94.1414 60,94.5C 57.9135,93.5819 55.7468,92.9153 53.5,92.5C 53.665,89.1501 53.4983,85.8168 53,82.5C 52.6174,83.056 52.1174,83.3893 51.5,83.5C 48.4463,76.6722 47.7796,69.6722 49.5,62.5 Z"/></g>
<g><path style="opacity:1" fill="#7b6f61" d="M 51.5,87.5 C 52.4614,89.2646 52.7947,91.2646 52.5,93.5C 49.7131,94.4767 46.7131,94.81 43.5,94.5C 43.8417,93.6618 44.5084,93.3284 45.5,93.5C 47.5,93.5 49.5,93.5 51.5,93.5C 51.5,91.5 51.5,89.5 51.5,87.5 Z"/></g>
<g><path style="opacity:1" fill="#8c6b58" d="M 101.5,88.5 C 102.5,88.5 103.5,88.5 104.5,88.5C 104.263,89.791 104.596,90.791 105.5,91.5C 103.206,95.2519 99.8723,96.4186 95.5,95C 94.5939,93.3005 94.2606,91.4672 94.5,89.5C 96.9496,89.702 99.283,89.3686 101.5,88.5 Z"/></g>
<g><path style="opacity:1" fill="#34373a" d="M 43.5,88.5 C 44.5375,89.9303 45.2041,91.597 45.5,93.5C 44.5084,93.3284 43.8417,93.6618 43.5,94.5C 40.8333,95.8333 40.8333,97.1667 43.5,98.5C 43.5,99.5 43.5,100.5 43.5,101.5C 47.2577,101.848 50.9244,102.515 54.5,103.5C 55.3382,103.842 55.6716,104.508 55.5,105.5C 52.5185,106.165 49.3518,106.498 46,106.5C 41.7019,106.279 37.5352,105.612 33.5,104.5C 33.3367,102.143 33.5034,99.8098 34,97.5C 36.8182,95.6189 38.6515,92.9523 39.5,89.5C 40.6888,88.5713 42.0222,88.238 43.5,88.5 Z"/></g>
<g><path style="opacity:1" fill="#dbbfb0" d="M 54.5,102.5 C 54.5674,101.041 54.2341,99.7079 53.5,98.5C 53.7845,96.5853 53.4511,94.9187 52.5,93.5C 52.7947,91.2646 52.4614,89.2646 51.5,87.5C 51.5,86.1667 51.5,84.8333 51.5,83.5C 52.1174,83.3893 52.6174,83.056 53,82.5C 53.4983,85.8168 53.665,89.1501 53.5,92.5C 55.7468,92.9153 57.9135,93.5819 60,94.5C 62.5459,94.1414 64.7126,93.1414 66.5,91.5C 67.5,90.8333 68.5,90.1667 69.5,89.5C 70.1657,86.9723 70.8324,84.3056 71.5,81.5C 72.2508,82.376 72.7508,83.376 73,84.5C 73.7056,90.8699 73.5389,97.2033 72.5,103.5C 70.857,103.52 69.5237,102.853 68.5,101.5C 65.9828,102.895 63.3162,103.895 60.5,104.5C 58.6746,103.349 56.6746,102.682 54.5,102.5 Z"/></g>
<g><path style="opacity:1" fill="#826457" d="M 68.5,83.5 C 69.4614,85.2646 69.7947,87.2646 69.5,89.5C 68.5,90.1667 67.5,90.8333 66.5,91.5C 64.9519,91.1788 64.2852,90.1788 64.5,88.5C 62.6203,88.7709 61.287,88.1042 60.5,86.5C 63.1667,85.1667 65.8333,85.1667 68.5,86.5C 68.5,85.5 68.5,84.5 68.5,83.5 Z"/></g>
<g><path style="opacity:1" fill="#674d3e" d="M 92.5,84.5 C 95.507,85.5139 98.507,86.5139 101.5,87.5C 101.5,87.8333 101.5,88.1667 101.5,88.5C 99.283,89.3686 96.9496,89.702 94.5,89.5C 94.2606,91.4672 94.5939,93.3005 95.5,95C 99.8723,96.4186 103.206,95.2519 105.5,91.5C 107.068,90.5269 108.735,90.3603 110.5,91C 110.859,93.6305 111.859,95.7971 113.5,97.5C 113.167,99.5 112.833,101.5 112.5,103.5C 111.5,103.5 110.5,103.5 109.5,103.5C 109.5,100.167 109.5,96.8333 109.5,93.5C 108.127,93.3433 106.793,93.51 105.5,94C 102.818,97.1154 99.4845,98.1154 95.5,97C 92.3697,93.4707 89.703,89.6373 87.5,85.5C 88.6948,85.6775 89.8615,86.0109 91,86.5C 92.0299,86.1639 92.5299,85.4972 92.5,84.5 Z"/></g>
<g><path style="opacity:1" fill="#ab9e8b" d="M 52.5,93.5 C 53.4511,94.9187 53.7845,96.5853 53.5,98.5C 50.1667,98.5 46.8333,98.5 43.5,98.5C 40.8333,97.1667 40.8333,95.8333 43.5,94.5C 46.7131,94.81 49.7131,94.4767 52.5,93.5 Z"/></g>
<g><path style="opacity:1" fill="#e8decd" d="M 43.5,95.5 C 46.2469,95.1866 48.9135,95.52 51.5,96.5C 50.1667,96.8333 48.8333,97.1667 47.5,97.5C 45.6672,97.4146 44.3339,96.7479 43.5,95.5 Z"/></g>
<g><path style="opacity:1" fill="#3c444c" d="M 28.5,82.5 C 28.8333,82.5 29.1667,82.5 29.5,82.5C 29.3341,87.5111 29.5007,92.5111 30,97.5C 30.3333,97.8333 30.6667,98.1667 31,98.5C 31.4365,95.2277 33.2699,93.561 36.5,93.5C 36.3243,89.8079 37.9909,87.8079 41.5,87.5C 42.1667,87.5 42.8333,87.5 43.5,87.5C 43.5,87.8333 43.5,88.1667 43.5,88.5C 42.0222,88.238 40.6888,88.5713 39.5,89.5C 38.6515,92.9523 36.8182,95.6189 34,97.5C 33.5034,99.8098 33.3367,102.143 33.5,104.5C 37.5352,105.612 41.7019,106.279 46,106.5C 49.3518,106.498 52.5185,106.165 55.5,105.5C 56.3382,105.842 56.6716,106.508 56.5,107.5C 46.985,107.173 37.6517,107.506 28.5,108.5C 18.8333,108.5 9.16667,108.5 -0.5,108.5C -0.5,108.167 -0.5,107.833 -0.5,107.5C 9.60513,107.949 19.6051,107.449 29.5,106C 28.5183,98.253 28.185,90.4197 28.5,82.5 Z"/></g>
<g><path style="opacity:1" fill="#634f42" d="M 43.5,98.5 C 46.8333,98.5 50.1667,98.5 53.5,98.5C 54.2341,99.7079 54.5674,101.041 54.5,102.5C 54.5,102.833 54.5,103.167 54.5,103.5C 50.9244,102.515 47.2577,101.848 43.5,101.5C 43.5,100.5 43.5,99.5 43.5,98.5 Z"/></g>
<g><path style="opacity:1" fill="#60693d" d="M 169.5,99.5 C 171.167,99.5 172.833,99.5 174.5,99.5C 174.5,100.833 174.5,102.167 174.5,103.5C 171.05,104.244 169.384,102.91 169.5,99.5 Z"/></g>
<g><path style="opacity:1" fill="#686a6a" d="M 129.5,97.5 C 129.5,98.5 129.5,99.5 129.5,100.5C 130.833,100.5 132.167,100.5 133.5,100.5C 133.5,101.5 133.5,102.5 133.5,103.5C 131.167,103.5 128.833,103.5 126.5,103.5C 126.5,104.833 126.5,106.167 126.5,107.5C 125.833,107.5 125.5,107.167 125.5,106.5C 125.5,105.833 125.5,105.167 125.5,104.5C 124.777,102.836 125.11,101.169 126.5,99.5C 127.167,99.5 127.5,99.1667 127.5,98.5C 128.167,98.1667 128.833,97.8333 129.5,97.5 Z"/></g>
<g><path style="opacity:1" fill="#6c773a" d="M 160.5,101.5 C 160.209,102.649 159.376,103.316 158,103.5C 156.624,103.316 155.791,102.649 155.5,101.5C 157.167,100.167 158.833,100.167 160.5,101.5 Z"/></g>
<g><path style="opacity:1" fill="#676b44" d="M 143.5,104.5 C 142.833,104.5 142.167,104.5 141.5,104.5C 141.5,103.5 141.5,102.5 141.5,101.5C 143.167,101.5 144.833,101.5 146.5,101.5C 146.5,102.5 146.5,103.5 146.5,104.5C 145.5,104.5 144.5,104.5 143.5,104.5 Z"/></g>
<g><path style="opacity:1" fill="#535c3a" d="M 155.5,101.5 C 155.791,102.649 156.624,103.316 158,103.5C 159.376,103.316 160.209,102.649 160.5,101.5C 161.404,102.209 161.737,103.209 161.5,104.5C 159.167,104.5 156.833,104.5 154.5,104.5C 154.263,103.209 154.596,102.209 155.5,101.5 Z"/></g>
<g><path style="opacity:1" fill="#a77f6b" d="M 74.5,83.5 C 75.9208,91.2909 76.5875,99.2909 76.5,107.5C 76.0269,108.906 75.0269,109.573 73.5,109.5C 73.5299,108.503 73.0299,107.836 72,107.5C 68.4626,110.436 66.9626,109.436 67.5,104.5C 69.8333,104.5 72.1667,104.5 74.5,104.5C 74.9195,97.56 74.9195,90.56 74.5,83.5 Z"/></g>
<g><path style="opacity:1" fill="#42332c" d="M 88.5,80.5 C 88.5,81.1667 88.5,81.8333 88.5,82.5C 88.4431,83.609 88.1098,84.609 87.5,85.5C 89.703,89.6373 92.3697,93.4707 95.5,97C 99.4845,98.1154 102.818,97.1154 105.5,94C 106.793,93.51 108.127,93.3433 109.5,93.5C 109.5,96.8333 109.5,100.167 109.5,103.5C 110.5,103.5 111.5,103.5 112.5,103.5C 112.833,101.5 113.167,99.5 113.5,97.5C 114.167,95.1667 114.833,92.8333 115.5,90.5C 115.695,94.9152 115.195,99.2486 114,103.5C 111.575,105.813 108.742,107.48 105.5,108.5C 104.754,109.736 104.421,111.07 104.5,112.5C 99.1915,111.521 93.8582,110.521 88.5,109.5C 87.4173,108.635 87.2506,107.635 88,106.5C 89.6436,104.936 91.1436,103.27 92.5,101.5C 91.6927,99.0201 90.026,97.6868 87.5,97.5C 87.5,99.8333 87.5,102.167 87.5,104.5C 85.6583,104.277 83.825,103.943 82,103.5C 80.5657,103.862 79.3991,104.528 78.5,105.5C 78.5,103.167 78.5,100.833 78.5,98.5C 79.8734,98.3433 81.2068,98.51 82.5,99C 83.1552,100.487 84.1552,101.653 85.5,102.5C 85.8333,102 86.1667,101.5 86.5,101C 84.2784,96.9681 82.2784,92.8014 80.5,88.5C 77.9209,89.6193 76.5875,88.6193 76.5,85.5C 79.3736,87.2774 82.3736,87.6108 85.5,86.5C 84.5439,83.7294 85.5439,81.7294 88.5,80.5 Z"/></g>
<g><path style="opacity:1" fill="#a8b4be" d="M 28.5,108.5 C 37.6517,107.506 46.985,107.173 56.5,107.5C 57.3382,107.842 57.6716,108.508 57.5,109.5C 47.9162,108.527 38.2496,108.194 28.5,108.5 Z"/></g>
<g><path style="opacity:1" fill="#322925" d="M 116.5,89.5 C 118.525,92.8653 120.191,96.5319 121.5,100.5C 122.568,106.905 122.568,113.571 121.5,120.5C 122.225,121.867 122.892,123.2 123.5,124.5C 122.89,125.391 122.557,126.391 122.5,127.5C 120.367,129.091 118.701,131.091 117.5,133.5C 115.427,135.58 113.093,137.246 110.5,138.5C 111.323,134.531 113.49,131.531 117,129.5C 118.464,126.274 119.631,122.941 120.5,119.5C 119.99,117.912 118.99,116.745 117.5,116C 120.333,112.662 121,108.995 119.5,105C 118.551,104.383 117.718,104.549 117,105.5C 115.69,110.269 112.524,112.936 107.5,113.5C 107.188,116.624 106.021,119.291 104,121.5C 101.993,118.664 99.8259,115.997 97.5,113.5C 96.8333,113.833 96.1667,114.167 95.5,114.5C 92.2791,112.957 88.9458,111.624 85.5,110.5C 85.0798,112.326 85.0798,114.326 85.5,116.5C 87.9491,115.943 90.2825,115.943 92.5,116.5C 89.9787,117.688 87.6453,119.022 85.5,120.5C 85.1667,120.5 84.8333,120.5 84.5,120.5C 83.6676,119.671 84.001,118.838 85.5,118C 84.2068,117.51 82.8734,117.343 81.5,117.5C 81.7373,116.209 81.404,115.209 80.5,114.5C 80.6747,112.379 80.3414,110.379 79.5,108.5C 78.8902,107.609 78.5569,106.609 78.5,105.5C 79.3991,104.528 80.5657,103.862 82,103.5C 83.825,103.943 85.6583,104.277 87.5,104.5C 87.5,102.167 87.5,99.8333 87.5,97.5C 90.026,97.6868 91.6927,99.0201 92.5,101.5C 91.1436,103.27 89.6436,104.936 88,106.5C 87.2506,107.635 87.4173,108.635 88.5,109.5C 93.8582,110.521 99.1915,111.521 104.5,112.5C 104.421,111.07 104.754,109.736 105.5,108.5C 108.742,107.48 111.575,105.813 114,103.5C 115.195,99.2486 115.695,94.9152 115.5,90.5C 115.5,89.8333 115.833,89.5 116.5,89.5 Z"/></g>
<g><path style="opacity:1" fill="#c4ced5" d="M -0.5,108.5 C 9.16667,108.5 18.8333,108.5 28.5,108.5C 37.7755,110.473 47.4422,111.14 57.5,110.5C 57.5,110.833 57.5,111.167 57.5,111.5C 39.6588,111.17 21.9921,111.503 4.5,112.5C 2.83333,112.5 1.16667,112.5 -0.5,112.5C -0.5,111.167 -0.5,109.833 -0.5,108.5 Z"/></g>
<g><path style="opacity:1" fill="#ecf2f6" d="M 28.5,108.5 C 38.2496,108.194 47.9162,108.527 57.5,109.5C 57.5,109.833 57.5,110.167 57.5,110.5C 47.4422,111.14 37.7755,110.473 28.5,108.5 Z"/></g>
<g><path style="opacity:1" fill="#343a43" d="M 4.5,112.5 C 22.5031,112.333 40.5031,112.5 58.5,113C 54.9605,113.282 51.4605,113.782 48,114.5C 44.0424,112.609 42.5424,113.609 43.5,117.5C 42.3493,118.731 41.1827,118.731 40,117.5C 37.6656,119.02 35.1656,120.02 32.5,120.5C 31.2794,121.028 30.1127,121.695 29,122.5C 28.5007,127.489 28.3341,132.489 28.5,137.5C 21.7978,137.336 15.1311,137.669 8.5,138.5C 8.32429,133.12 8.65762,127.787 9.5,122.5C 9.5,121.833 9.16667,121.5 8.5,121.5C 8.79472,119.265 8.46138,117.265 7.5,115.5C 6.69354,114.272 5.69354,113.272 4.5,112.5 Z"/></g>
<g><path style="opacity:1" fill="#d9e6eb" d="M 171.5,110.5 C 174.167,110.5 176.833,110.5 179.5,110.5C 179.5,111.5 179.5,112.5 179.5,113.5C 176.833,113.5 174.167,113.5 171.5,113.5C 171.5,112.5 171.5,111.5 171.5,110.5 Z"/></g>
<g><path style="opacity:1" fill="#524641" d="M 78.5,117.5 C 75.7212,117.279 73.0545,117.612 70.5,118.5C 69.4265,117.749 69.2599,116.749 70,115.5C 73.3319,114.503 75.8319,112.503 77.5,109.5C 78.48,112.086 78.8134,114.753 78.5,117.5 Z"/></g>
<g><path style="opacity:1" fill="#5f4533" d="M 126.5,99.5 C 125.11,101.169 124.777,102.836 125.5,104.5C 124.188,106.743 123.522,109.41 123.5,112.5C 123.586,115.884 123.919,119.217 124.5,122.5C 124.672,123.492 124.338,124.158 123.5,124.5C 122.892,123.2 122.225,121.867 121.5,120.5C 122.568,113.571 122.568,106.905 121.5,100.5C 123.117,99.962 124.784,99.6287 126.5,99.5 Z"/></g>
<g><path style="opacity:1" fill="#deecf5" d="M 127.5,111.5 C 141.167,111.5 154.833,111.5 168.5,111.5C 168.5,112.5 168.5,113.5 168.5,114.5C 159.983,114.174 151.65,114.507 143.5,115.5C 139.5,115.5 135.5,115.5 131.5,115.5C 130.833,114.167 129.833,113.167 128.5,112.5C 127.833,112.5 127.5,112.167 127.5,111.5 Z"/></g>
<g><path style="opacity:1" fill="#a5bac3" d="M 127.5,111.5 C 127.5,111.167 127.5,110.833 127.5,110.5C 141.5,110.5 155.5,110.5 169.5,110.5C 169.5,112.167 169.5,113.833 169.5,115.5C 160.833,115.5 152.167,115.5 143.5,115.5C 151.65,114.507 159.983,114.174 168.5,114.5C 168.5,113.5 168.5,112.5 168.5,111.5C 154.833,111.5 141.167,111.5 127.5,111.5 Z"/></g>
<g><path style="opacity:1" fill="#738f9d" d="M 171.5,113.5 C 174.167,113.5 176.833,113.5 179.5,113.5C 179.5,114.5 179.5,115.5 179.5,116.5C 177.143,116.663 174.81,116.497 172.5,116C 171.748,115.329 171.414,114.496 171.5,113.5 Z"/></g>
<g><path style="opacity:1" fill="#272422" d="M 110.5,138.5 C 108.066,139.985 105.733,141.652 103.5,143.5C 103.167,143.5 102.833,143.5 102.5,143.5C 96.6039,145.123 90.6039,145.623 84.5,145C 87.4605,144.274 89.4605,142.44 90.5,139.5C 92.0453,138.548 93.712,138.215 95.5,138.5C 95.3796,136.801 95.0463,135.135 94.5,133.5C 94.8178,132.353 95.4844,131.519 96.5,131C 95.4829,129.951 95.3162,128.784 96,127.5C 97.341,125.756 98.5077,123.923 99.5,122C 99.7186,120.029 98.8853,118.862 97,118.5C 93.3839,120.256 89.5506,120.923 85.5,120.5C 87.6453,119.022 89.9787,117.688 92.5,116.5C 90.2825,115.943 87.9491,115.943 85.5,116.5C 85.0798,114.326 85.0798,112.326 85.5,110.5C 88.9458,111.624 92.2791,112.957 95.5,114.5C 96.1667,114.167 96.8333,113.833 97.5,113.5C 99.8259,115.997 101.993,118.664 104,121.5C 106.021,119.291 107.188,116.624 107.5,113.5C 112.524,112.936 115.69,110.269 117,105.5C 117.718,104.549 118.551,104.383 119.5,105C 121,108.995 120.333,112.662 117.5,116C 118.99,116.745 119.99,117.912 120.5,119.5C 119.631,122.941 118.464,126.274 117,129.5C 113.49,131.531 111.323,134.531 110.5,138.5 Z"/></g>
<g><path style="opacity:1" fill="#7e756a" d="M 128.5,112.5 C 129.833,113.167 130.833,114.167 131.5,115.5C 131.5,115.833 131.5,116.167 131.5,116.5C 130.883,116.389 130.383,116.056 130,115.5C 129.51,116.793 129.343,118.127 129.5,119.5C 129.672,120.492 129.338,121.158 128.5,121.5C 128.5,118.5 128.5,115.5 128.5,112.5 Z"/></g>
<g><path style="opacity:1" fill="#6b848e" d="M 131.5,116.5 C 131.5,116.167 131.5,115.833 131.5,115.5C 135.5,115.5 139.5,115.5 143.5,115.5C 152.167,115.5 160.833,115.5 169.5,115.5C 169.038,116.88 168.038,117.547 166.5,117.5C 156.2,116.547 145.866,116.214 135.5,116.5C 134.5,116.5 133.5,116.5 132.5,116.5C 132.167,116.5 131.833,116.5 131.5,116.5 Z"/></g>
<g><path style="opacity:1" fill="#ed5440" d="M 3.5,115.5 C 4.83333,115.5 6.16667,115.5 7.5,115.5C 7.5,117.167 7.5,118.833 7.5,120.5C 5.4458,120.365 3.77914,121.032 2.5,122.5C 2.5,121.833 2.5,121.167 2.5,120.5C 3.038,118.883 3.37133,117.216 3.5,115.5 Z"/></g>
<g><path style="opacity:1" fill="#dc6f59" d="M -0.5,112.5 C 1.16667,112.5 2.83333,112.5 4.5,112.5C 5.69354,113.272 6.69354,114.272 7.5,115.5C 6.16667,115.5 4.83333,115.5 3.5,115.5C 3.17876,113.952 2.17876,113.285 0.5,113.5C -0.0101734,116.388 0.656493,118.721 2.5,120.5C 2.5,121.167 2.5,121.833 2.5,122.5C 1.5,122.5 0.5,122.5 -0.5,122.5C -0.5,119.167 -0.5,115.833 -0.5,112.5 Z"/></g>
<g><path style="opacity:1" fill="#81583d" d="M 125.5,104.5 C 125.5,105.167 125.5,105.833 125.5,106.5C 124.876,106.917 124.543,107.584 124.5,108.5C 126.18,111.571 126.847,114.904 126.5,118.5C 125.833,119.833 125.167,121.167 124.5,122.5C 123.919,119.217 123.586,115.884 123.5,112.5C 123.522,109.41 124.188,106.743 125.5,104.5 Z"/></g>
<g><path style="opacity:1" fill="#ccb392" d="M 125.5,106.5 C 125.5,107.167 125.833,107.5 126.5,107.5C 126.328,108.492 126.662,109.158 127.5,109.5C 127.5,109.833 127.5,110.167 127.5,110.5C 127.5,110.833 127.5,111.167 127.5,111.5C 127.5,112.167 127.833,112.5 128.5,112.5C 128.5,115.5 128.5,118.5 128.5,121.5C 126.952,121.179 126.285,120.179 126.5,118.5C 126.847,114.904 126.18,111.571 124.5,108.5C 124.543,107.584 124.876,106.917 125.5,106.5 Z"/></g>
<g><path style="opacity:1" fill="#fa8343" d="M 3.5,115.5 C 3.37133,117.216 3.038,118.883 2.5,120.5C 0.656493,118.721 -0.0101734,116.388 0.5,113.5C 2.17876,113.285 3.17876,113.952 3.5,115.5 Z"/></g>
<g><path style="opacity:1" fill="#484b50" d="M 63.5,122.5 C 61.1205,121.433 60.1205,122.433 60.5,125.5C 60.1667,125.5 59.8333,125.5 59.5,125.5C 59.5,124.167 59.5,122.833 59.5,121.5C 57.5,121.5 55.5,121.5 53.5,121.5C 52.5,121.5 51.5,121.5 50.5,121.5C 52.9686,120.683 55.6353,120.183 58.5,120C 53.0509,119.104 47.7175,119.437 42.5,121C 40.7215,123.135 40.0548,125.635 40.5,128.5C 43.5,128.5 46.5,128.5 49.5,128.5C 49.5,127.5 49.5,126.5 49.5,125.5C 51.604,125.201 53.604,125.534 55.5,126.5C 54.8333,127.167 54.1667,127.833 53.5,128.5C 54.9983,130.854 56.3317,133.187 57.5,135.5C 58.5,135.5 59.5,135.5 60.5,135.5C 56.9948,136.464 53.6615,135.798 50.5,133.5C 50.5,132.167 50.5,130.833 50.5,129.5C 46.8333,129.5 43.1667,129.5 39.5,129.5C 39.5,127.5 39.5,125.5 39.5,123.5C 39.5,122.5 39.5,121.5 39.5,120.5C 37.1667,120.5 34.8333,120.5 32.5,120.5C 35.1656,120.02 37.6656,119.02 40,117.5C 41.1827,118.731 42.3493,118.731 43.5,117.5C 42.5424,113.609 44.0424,112.609 48,114.5C 51.4605,113.782 54.9605,113.282 58.5,113C 40.5031,112.5 22.5031,112.333 4.5,112.5C 21.9921,111.503 39.6588,111.17 57.5,111.5C 58.1174,111.389 58.6174,111.056 59,110.5C 60.7913,114.411 62.2913,118.411 63.5,122.5 Z"/></g>
<g><path style="opacity:1" fill="#36424b" d="M 169.5,110.5 C 170.167,110.5 170.833,110.5 171.5,110.5C 171.5,111.5 171.5,112.5 171.5,113.5C 171.414,114.496 171.748,115.329 172.5,116C 174.81,116.497 177.143,116.663 179.5,116.5C 179.5,121.833 179.5,127.167 179.5,132.5C 176.5,132.5 173.5,132.5 170.5,132.5C 170.5,133.5 170.5,134.5 170.5,135.5C 168.847,135.34 167.514,134.674 166.5,133.5C 168.176,132.817 168.843,131.483 168.5,129.5C 166.901,129.232 165.568,129.566 164.5,130.5C 163.222,130.218 162.222,129.551 161.5,128.5C 161.217,127.711 160.717,127.044 160,126.5C 159.893,123.869 159.727,121.369 159.5,119C 156.118,118.176 152.784,118.343 149.5,119.5C 149.855,120.522 150.522,121.189 151.5,121.5C 151.265,122.097 150.765,122.43 150,122.5C 147.558,121.03 145.058,119.696 142.5,118.5C 141.584,118.543 140.917,118.876 140.5,119.5C 138.326,119.25 136.659,118.25 135.5,116.5C 145.866,116.214 156.2,116.547 166.5,117.5C 168.038,117.547 169.038,116.88 169.5,115.5C 169.5,113.833 169.5,112.167 169.5,110.5 Z"/></g>
<g><path style="opacity:1" fill="#746055" d="M 76.5,107.5 C 77.391,108.11 78.391,108.443 79.5,108.5C 80.3414,110.379 80.6747,112.379 80.5,114.5C 79.8333,115.5 79.1667,116.5 78.5,117.5C 78.8134,114.753 78.48,112.086 77.5,109.5C 75.8319,112.503 73.3319,114.503 70,115.5C 69.2599,116.749 69.4265,117.749 70.5,118.5C 71.5521,120.256 73.2188,120.923 75.5,120.5C 74.4107,122.117 72.744,122.95 70.5,123C 69.6634,124.011 69.33,125.178 69.5,126.5C 68.2134,124.429 66.5467,124.096 64.5,125.5C 63.6143,124.675 63.281,123.675 63.5,122.5C 65.3743,117.787 68.541,114.12 73,111.5C 73.4643,110.906 73.631,110.239 73.5,109.5C 75.0269,109.573 76.0269,108.906 76.5,107.5 Z"/></g>
<g><path style="opacity:1" fill="#5e767d" d="M 161.5,128.5 C 158.185,126.192 154.851,123.859 151.5,121.5C 150.522,121.189 149.855,120.522 149.5,119.5C 152.784,118.343 156.118,118.176 159.5,119C 159.727,121.369 159.893,123.869 160,126.5C 160.717,127.044 161.217,127.711 161.5,128.5 Z"/></g>
<g><path style="opacity:1" fill="#a05152" d="M 7.5,115.5 C 8.46138,117.265 8.79472,119.265 8.5,121.5C 6.07063,121.884 3.73729,122.551 1.5,123.5C 0.833333,123.5 0.166667,123.5 -0.5,123.5C -0.5,123.167 -0.5,122.833 -0.5,122.5C 0.5,122.5 1.5,122.5 2.5,122.5C 3.77914,121.032 5.4458,120.365 7.5,120.5C 7.5,118.833 7.5,117.167 7.5,115.5 Z"/></g>
<g><path style="opacity:1" fill="#2f343d" d="M 50.5,121.5 C 48.4805,122.538 48.1472,123.872 49.5,125.5C 49.5,126.5 49.5,127.5 49.5,128.5C 46.5,128.5 43.5,128.5 40.5,128.5C 40.0548,125.635 40.7215,123.135 42.5,121C 47.7175,119.437 53.0509,119.104 58.5,120C 55.6353,120.183 52.9686,120.683 50.5,121.5 Z"/></g>
<g><path style="opacity:1" fill="#7e5955" d="M 80.5,114.5 C 81.404,115.209 81.7373,116.209 81.5,117.5C 82.8734,117.343 84.2068,117.51 85.5,118C 84.001,118.838 83.6676,119.671 84.5,120.5C 84.3893,121.117 84.056,121.617 83.5,122C 86.9535,122.628 87.2869,123.795 84.5,125.5C 82.3419,123.78 79.6752,122.947 76.5,123C 84.3523,121.056 84.019,120.222 75.5,120.5C 73.2188,120.923 71.5521,120.256 70.5,118.5C 73.0545,117.612 75.7212,117.279 78.5,117.5C 79.1667,116.5 79.8333,115.5 80.5,114.5 Z"/></g>
<g><path style="opacity:1" fill="#69585a" d="M 8.5,121.5 C 9.16667,121.5 9.5,121.833 9.5,122.5C 7.51676,122.157 6.18342,122.824 5.5,124.5C 3.90097,124.768 2.56764,124.434 1.5,123.5C 3.73729,122.551 6.07063,121.884 8.5,121.5 Z"/></g>
<g><path style="opacity:1" fill="#3b322e" d="M 102.5,143.5 C 102.047,144.458 101.381,145.292 100.5,146C 94.8431,146.499 89.1764,146.666 83.5,146.5C 75.6645,144.459 75.6645,142.126 83.5,139.5C 86.127,137.548 87.4603,134.881 87.5,131.5C 85.1432,131.663 82.8098,131.497 80.5,131C 81.3366,129.989 81.67,128.822 81.5,127.5C 82.791,127.737 83.791,127.404 84.5,126.5C 84.5,126.167 84.5,125.833 84.5,125.5C 87.2869,123.795 86.9535,122.628 83.5,122C 84.056,121.617 84.3893,121.117 84.5,120.5C 84.8333,120.5 85.1667,120.5 85.5,120.5C 89.5506,120.923 93.3839,120.256 97,118.5C 98.8853,118.862 99.7186,120.029 99.5,122C 98.5077,123.923 97.341,125.756 96,127.5C 95.3162,128.784 95.4829,129.951 96.5,131C 95.4844,131.519 94.8178,132.353 94.5,133.5C 95.0463,135.135 95.3796,136.801 95.5,138.5C 93.712,138.215 92.0453,138.548 90.5,139.5C 89.4605,142.44 87.4605,144.274 84.5,145C 90.6039,145.623 96.6039,145.123 102.5,143.5 Z"/></g>
<g><path style="opacity:1" fill="#554a46" d="M 131.5,116.5 C 131.833,116.5 132.167,116.5 132.5,116.5C 135.808,119.635 139.308,122.635 143,125.5C 144.879,127.527 146.046,129.86 146.5,132.5C 145.573,134.476 144.24,134.809 142.5,133.5C 139.457,129.456 135.791,126.123 131.5,123.5C 130.828,122.051 130.161,120.718 129.5,119.5C 129.343,118.127 129.51,116.793 130,115.5C 130.383,116.056 130.883,116.389 131.5,116.5 Z"/></g>
<g><path style="opacity:1" fill="#4c565c" d="M 32.5,120.5 C 33.2186,123.073 34.2186,125.573 35.5,128C 38.1764,128.617 38.843,127.784 37.5,125.5C 37.8555,124.478 38.5222,123.811 39.5,123.5C 39.5,125.5 39.5,127.5 39.5,129.5C 36.1667,129.5 32.8333,129.5 29.5,129.5C 29.2056,135.367 31.8723,137.033 37.5,134.5C 38.1449,133.354 38.9783,132.354 40,131.5C 42.277,132.117 44.4437,132.784 46.5,133.5C 43.0504,132.756 41.3838,134.09 41.5,137.5C 37.1667,137.5 32.8333,137.5 28.5,137.5C 28.3341,132.489 28.5007,127.489 29,122.5C 30.1127,121.695 31.2794,121.028 32.5,120.5 Z"/></g>
<g><path style="opacity:1" fill="#837b76" d="M 32.5,120.5 C 34.8333,120.5 37.1667,120.5 39.5,120.5C 39.5,121.5 39.5,122.5 39.5,123.5C 38.5222,123.811 37.8555,124.478 37.5,125.5C 38.843,127.784 38.1764,128.617 35.5,128C 34.2186,125.573 33.2186,123.073 32.5,120.5 Z"/></g>
<g><path style="opacity:1" fill="#9f8376" d="M 53.5,121.5 C 55.5,121.5 57.5,121.5 59.5,121.5C 59.5,122.833 59.5,124.167 59.5,125.5C 59.5,126.833 59.5,128.167 59.5,129.5C 58.5,129.5 57.5,129.5 56.5,129.5C 56.5,127.833 56.5,126.167 56.5,124.5C 54.396,124.799 52.396,124.466 50.5,123.5C 51.6016,122.824 52.6016,122.158 53.5,121.5 Z"/></g>
<g><path style="opacity:1" fill="#232323" d="M 129.5,119.5 C 130.161,120.718 130.828,122.051 131.5,123.5C 135.791,126.123 139.457,129.456 142.5,133.5C 144.24,134.809 145.573,134.476 146.5,132.5C 147.895,130.946 148.561,131.279 148.5,133.5C 147.798,138.03 145.964,142.03 143,145.5C 141.925,148.894 140.758,152.228 139.5,155.5C 139.34,157.153 138.674,158.486 137.5,159.5C 137.403,156.264 137.403,152.93 137.5,149.5C 131.502,150.689 126.336,153.356 122,157.5C 119.972,158.968 118.138,158.801 116.5,157C 118.344,154.196 119.011,151.03 118.5,147.5C 119.892,143.804 121.225,140.137 122.5,136.5C 124.245,134.967 125.245,132.967 125.5,130.5C 127.868,128.044 128.868,125.044 128.5,121.5C 129.338,121.158 129.672,120.492 129.5,119.5 Z"/></g>
<g><path style="opacity:1" fill="#7a8892" d="M 9.5,122.5 C 8.65762,127.787 8.32429,133.12 8.5,138.5C 15.1311,137.669 21.7978,137.336 28.5,137.5C 32.8333,137.5 37.1667,137.5 41.5,137.5C 42.5,137.5 43.5,137.5 44.5,137.5C 31.6622,138.336 18.6622,139.003 5.5,139.5C 4.83333,139.5 4.16667,139.5 3.5,139.5C 4.20895,138.596 5.20895,138.263 6.5,138.5C 6.81946,133.637 6.48612,128.97 5.5,124.5C 6.18342,122.824 7.51676,122.157 9.5,122.5 Z"/></g>
<g><path style="opacity:1" fill="#b99f91" d="M 75.5,120.5 C 84.019,120.222 84.3523,121.056 76.5,123C 79.6752,122.947 82.3419,123.78 84.5,125.5C 84.5,125.833 84.5,126.167 84.5,126.5C 82.901,126.232 81.5676,126.566 80.5,127.5C 78.6334,127.955 76.8001,128.622 75,129.5C 73.7441,129.352 72.5774,129.018 71.5,128.5C 70.5,128.167 69.8333,127.5 69.5,126.5C 69.33,125.178 69.6634,124.011 70.5,123C 72.744,122.95 74.4107,122.117 75.5,120.5 Z"/></g>
<g><path style="opacity:1" fill="#97846f" d="M 126.5,118.5 C 126.285,120.179 126.952,121.179 128.5,121.5C 128.868,125.044 127.868,128.044 125.5,130.5C 123.5,130.5 122.5,129.5 122.5,127.5C 122.557,126.391 122.89,125.391 123.5,124.5C 124.338,124.158 124.672,123.492 124.5,122.5C 125.167,121.167 125.833,119.833 126.5,118.5 Z"/></g>
<g><path style="opacity:1" fill="#89a2a8" d="M 166.5,133.5 C 165.094,133.027 164.427,132.027 164.5,130.5C 164.427,132.027 165.094,133.027 166.5,133.5 Z"/></g>
<g><path style="opacity:1" fill="#73615a" d="M 50.5,121.5 C 51.5,121.5 52.5,121.5 53.5,121.5C 52.6016,122.158 51.6016,122.824 50.5,123.5C 52.396,124.466 54.396,124.799 56.5,124.5C 56.5,126.167 56.5,127.833 56.5,129.5C 57.5,129.5 58.5,129.5 59.5,129.5C 59.5,128.167 59.5,126.833 59.5,125.5C 59.8333,125.5 60.1667,125.5 60.5,125.5C 60.5,128.833 60.5,132.167 60.5,135.5C 59.5,135.5 58.5,135.5 57.5,135.5C 56.3317,133.187 54.9983,130.854 53.5,128.5C 54.1667,127.833 54.8333,127.167 55.5,126.5C 53.604,125.534 51.604,125.201 49.5,125.5C 48.1472,123.872 48.4805,122.538 50.5,121.5 Z"/></g>
<g><path style="opacity:1" fill="#2c2d32" d="M 68.5,136.5 C 62.6812,137.653 56.6812,137.819 50.5,137C 49.3157,135.855 49.3157,134.688 50.5,133.5C 53.6615,135.798 56.9948,136.464 60.5,135.5C 61.3844,132.977 62.2177,130.31 63,127.5C 65.5258,130.167 67.3591,133.167 68.5,136.5 Z"/></g>
<g><path style="opacity:1" fill="#777472" d="M 39.5,129.5 C 43.1667,129.5 46.8333,129.5 50.5,129.5C 50.5,130.833 50.5,132.167 50.5,133.5C 49.1667,133.5 47.8333,133.5 46.5,133.5C 44.4437,132.784 42.277,132.117 40,131.5C 38.9783,132.354 38.1449,133.354 37.5,134.5C 31.8723,137.033 29.2056,135.367 29.5,129.5C 32.8333,129.5 36.1667,129.5 39.5,129.5 Z"/></g>
<g><path style="opacity:1" fill="#67564c" d="M 84.5,126.5 C 83.791,127.404 82.791,127.737 81.5,127.5C 81.67,128.822 81.3366,129.989 80.5,131C 82.8098,131.497 85.1432,131.663 87.5,131.5C 87.4603,134.881 86.127,137.548 83.5,139.5C 79.9581,139.813 76.6248,139.479 73.5,138.5C 76.6065,138.826 78.9398,137.659 80.5,135C 77.9387,132.51 77.9387,130.01 80.5,127.5C 81.5676,126.566 82.901,126.232 84.5,126.5 Z"/></g>
<g><path style="opacity:1" fill="#6e6056" d="M 122.5,127.5 C 122.5,129.5 123.5,130.5 125.5,130.5C 125.245,132.967 124.245,134.967 122.5,136.5C 120.473,136.662 118.473,136.495 116.5,136C 117.252,135.329 117.586,134.496 117.5,133.5C 118.701,131.091 120.367,129.091 122.5,127.5 Z"/></g>
<g><path style="opacity:1" fill="#796a61" d="M 80.5,127.5 C 77.9387,130.01 77.9387,132.51 80.5,135C 78.9398,137.659 76.6065,138.826 73.5,138.5C 69.6452,136.669 69.6452,134.669 73.5,132.5C 72.1468,131.476 71.4802,130.143 71.5,128.5C 72.5774,129.018 73.7441,129.352 75,129.5C 76.8001,128.622 78.6334,127.955 80.5,127.5 Z"/></g>
<g><path style="opacity:1" fill="#63727c" d="M 179.5,132.5 C 179.5,135.833 179.5,139.167 179.5,142.5C 175.617,141.282 172.617,138.949 170.5,135.5C 170.5,134.5 170.5,133.5 170.5,132.5C 173.5,132.5 176.5,132.5 179.5,132.5 Z"/></g>
<g><path style="opacity:1" fill="#708090" d="M 57.5,138.5 C 61.5,138.5 65.5,138.5 69.5,138.5C 69.5,138.833 69.5,139.167 69.5,139.5C 65.3479,140.76 61.6813,142.76 58.5,145.5C 58.3059,143.088 56.9726,142.088 54.5,142.5C 54.6495,143.552 54.4828,144.552 54,145.5C 53.5045,143.527 53.3379,141.527 53.5,139.5C 55.099,139.768 56.4324,139.434 57.5,138.5 Z"/></g>
<g><path style="opacity:1" fill="#4e4847" d="M 63.5,122.5 C 63.281,123.675 63.6143,124.675 64.5,125.5C 66.5467,124.096 68.2134,124.429 69.5,126.5C 69.8333,127.5 70.5,128.167 71.5,128.5C 71.4802,130.143 72.1468,131.476 73.5,132.5C 69.6452,134.669 69.6452,136.669 73.5,138.5C 76.6248,139.479 79.9581,139.813 83.5,139.5C 75.6645,142.126 75.6645,144.459 83.5,146.5C 81.8333,146.5 80.1667,146.5 78.5,146.5C 77.4274,147.658 76.2607,147.658 75,146.5C 70.3182,150.756 65.8182,154.423 61.5,157.5C 62.7058,153.423 64.7058,149.757 67.5,146.5C 71.5286,144.783 72.1952,142.45 69.5,139.5C 69.5,139.167 69.5,138.833 69.5,138.5C 69.6716,137.508 69.3382,136.842 68.5,136.5C 67.3591,133.167 65.5258,130.167 63,127.5C 62.2177,130.31 61.3844,132.977 60.5,135.5C 60.5,132.167 60.5,128.833 60.5,125.5C 60.1205,122.433 61.1205,121.433 63.5,122.5 Z"/></g>
<g><path style="opacity:1" fill="#cdd6da" d="M 44.5,137.5 C 45.5,137.5 46.5,137.5 47.5,137.5C 47.5,139.167 47.5,140.833 47.5,142.5C 41.8333,142.5 36.1667,142.5 30.5,142.5C 24.6812,141.347 18.6812,141.181 12.5,142C 14.0581,142.21 15.3915,142.71 16.5,143.5C 14.8333,143.5 13.1667,143.5 11.5,143.5C 11.5,142.5 11.5,141.5 11.5,140.5C 9.83333,140.5 8.16667,140.5 6.5,140.5C 6.5,153.5 6.5,166.5 6.5,179.5C 6.16667,179.5 5.83333,179.5 5.5,179.5C 5.5,166.167 5.5,152.833 5.5,139.5C 18.6622,139.003 31.6622,138.336 44.5,137.5 Z"/></g>
<g><path style="opacity:1" fill="#b4bfc5" d="M 30.5,142.5 C 25.8969,143.383 21.2303,143.717 16.5,143.5C 15.3915,142.71 14.0581,142.21 12.5,142C 18.6812,141.181 24.6812,141.347 30.5,142.5 Z"/></g>
<g><path style="opacity:1" fill="#394b5b" d="M 46.5,133.5 C 47.8333,133.5 49.1667,133.5 50.5,133.5C 49.3157,134.688 49.3157,135.855 50.5,137C 56.6812,137.819 62.6812,137.653 68.5,136.5C 69.3382,136.842 69.6716,137.508 69.5,138.5C 65.5,138.5 61.5,138.5 57.5,138.5C 55.5328,138.261 53.6995,138.594 52,139.5C 51.3658,142.555 51.5325,145.555 52.5,148.5C 51.1667,148.833 49.8333,149.167 48.5,149.5C 48.5,144.833 48.5,140.167 48.5,135.5C 46.6203,135.229 45.287,135.896 44.5,137.5C 43.5,137.5 42.5,137.5 41.5,137.5C 41.3838,134.09 43.0504,132.756 46.5,133.5 Z"/></g>
<g><path style="opacity:1" fill="#546778" d="M 57.5,138.5 C 56.4324,139.434 55.099,139.768 53.5,139.5C 53.3379,141.527 53.5045,143.527 54,145.5C 54.4828,144.552 54.6495,143.552 54.5,142.5C 56.9726,142.088 58.3059,143.088 58.5,145.5C 57.4863,146.674 56.153,147.34 54.5,147.5C 53.8333,147.833 53.1667,148.167 52.5,148.5C 51.5325,145.555 51.3658,142.555 52,139.5C 53.6995,138.594 55.5328,138.261 57.5,138.5 Z"/></g>
<g><path style="opacity:1" fill="#59524e" d="M 117.5,133.5 C 117.586,134.496 117.252,135.329 116.5,136C 118.473,136.495 120.473,136.662 122.5,136.5C 121.225,140.137 119.892,143.804 118.5,147.5C 117.313,149.072 116.313,150.739 115.5,152.5C 114.701,149.57 114.368,146.57 114.5,143.5C 113.127,143.343 111.793,143.51 110.5,144C 108.937,145.947 106.937,147.114 104.5,147.5C 103.761,147.631 103.094,147.464 102.5,147C 103.5,146 104.5,145 105.5,144C 104.906,143.536 104.239,143.369 103.5,143.5C 105.733,141.652 108.066,139.985 110.5,138.5C 113.093,137.246 115.427,135.58 117.5,133.5 Z"/></g>
<g><path style="opacity:1" fill="#787374" d="M 69.5,139.5 C 72.1952,142.45 71.5286,144.783 67.5,146.5C 62.9562,147.734 58.6229,149.401 54.5,151.5C 54.5,150.167 54.5,148.833 54.5,147.5C 56.153,147.34 57.4863,146.674 58.5,145.5C 61.6813,142.76 65.3479,140.76 69.5,139.5 Z"/></g>
<g><path style="opacity:1" fill="#726665" d="M 179.5,150.5 C 179.5,154.5 179.5,158.5 179.5,162.5C 176.5,162.5 173.5,162.5 170.5,162.5C 170.649,161.448 170.483,160.448 170,159.5C 166.027,155.772 162.194,151.939 158.5,148C 162.506,145.934 162.173,144.434 157.5,143.5C 156.754,142.264 156.421,140.93 156.5,139.5C 159.219,139.603 161.885,139.269 164.5,138.5C 168.369,141.282 172.702,143.115 177.5,144C 175.956,144.29 174.623,144.956 173.5,146C 175.66,147.332 177.66,148.832 179.5,150.5 Z"/></g>
<g><path style="opacity:1" fill="#818388" d="M 115.5,152.5 C 115.5,153.167 115.5,153.833 115.5,154.5C 113.837,156.438 113.171,158.772 113.5,161.5C 112.687,163.261 111.687,164.928 110.5,166.5C 110.5,160.833 110.5,155.167 110.5,149.5C 106.102,149.294 101.768,149.627 97.5,150.5C 99.5884,148.98 101.922,147.98 104.5,147.5C 106.937,147.114 108.937,145.947 110.5,144C 111.793,143.51 113.127,143.343 114.5,143.5C 114.368,146.57 114.701,149.57 115.5,152.5 Z"/></g>
<g><path style="opacity:1" fill="#afc3cd" d="M 3.5,139.5 C 4.16667,139.5 4.83333,139.5 5.5,139.5C 5.5,152.833 5.5,166.167 5.5,179.5C 5.16667,179.5 4.83333,179.5 4.5,179.5C 3.75337,166.18 3.42003,152.847 3.5,139.5 Z"/></g>
<g><path style="opacity:1" fill="#454346" d="M 154.5,144.5 C 154.724,148.954 154.724,153.288 154.5,157.5C 156.944,159.667 158.611,162.334 159.5,165.5C 159.217,166.289 158.717,166.956 158,167.5C 155.295,165.293 153.129,162.626 151.5,159.5C 152.902,158.158 152.569,157.324 150.5,157C 151.406,155.301 151.739,153.467 151.5,151.5C 152.014,149.634 152.68,147.8 153.5,146C 152.605,143.709 151.271,141.876 149.5,140.5C 149.5,137.167 149.5,133.833 149.5,130.5C 151.017,130.489 152.184,129.823 153,128.5C 153.66,131.047 153.493,133.547 152.5,136C 153.994,138.639 154.661,141.472 154.5,144.5 Z"/></g>
<g><path style="opacity:1" fill="#625755" d="M 140.5,119.5 C 140.917,118.876 141.584,118.543 142.5,118.5C 145.058,119.696 147.558,121.03 150,122.5C 150.765,122.43 151.265,122.097 151.5,121.5C 154.851,123.859 158.185,126.192 161.5,128.5C 162.222,129.551 163.222,130.218 164.5,130.5C 164.427,132.027 165.094,133.027 166.5,133.5C 167.514,134.674 168.847,135.34 170.5,135.5C 172.617,138.949 175.617,141.282 179.5,142.5C 179.5,145.167 179.5,147.833 179.5,150.5C 177.66,148.832 175.66,147.332 173.5,146C 174.623,144.956 175.956,144.29 177.5,144C 172.702,143.115 168.369,141.282 164.5,138.5C 161.885,139.269 159.219,139.603 156.5,139.5C 156.421,140.93 156.754,142.264 157.5,143.5C 162.173,144.434 162.506,145.934 158.5,148C 162.194,151.939 166.027,155.772 170,159.5C 170.483,160.448 170.649,161.448 170.5,162.5C 173.5,162.5 176.5,162.5 179.5,162.5C 179.5,163.167 179.5,163.833 179.5,164.5C 177.194,164.993 174.861,165.326 172.5,165.5C 169.027,165.424 165.694,164.758 162.5,163.5C 160.45,158.54 158.783,153.373 157.5,148C 156.629,146.636 155.629,145.47 154.5,144.5C 154.661,141.472 153.994,138.639 152.5,136C 153.493,133.547 153.66,131.047 153,128.5C 152.184,129.823 151.017,130.489 149.5,130.5C 148.841,127.717 147.675,125.051 146,122.5C 144.512,120.84 142.679,119.84 140.5,119.5 Z"/></g>
<g><path style="opacity:1" fill="#7f6960" d="M 102.5,143.5 C 102.833,143.5 103.167,143.5 103.5,143.5C 104.239,143.369 104.906,143.536 105.5,144C 104.5,145 103.5,146 102.5,147C 103.094,147.464 103.761,147.631 104.5,147.5C 101.922,147.98 99.5884,148.98 97.5,150.5C 96.5,150.833 95.8333,151.5 95.5,152.5C 94.1667,153.5 92.8333,154.5 91.5,155.5C 90.5,155.5 89.5,155.5 88.5,155.5C 88.762,154.022 88.4287,152.689 87.5,151.5C 85.7628,150.103 84.4295,148.436 83.5,146.5C 89.1764,146.666 94.8431,146.499 100.5,146C 101.381,145.292 102.047,144.458 102.5,143.5 Z"/></g>
<g><path style="opacity:1" fill="#a0acb3" d="M 48.5,149.5 C 48.5,150.833 48.5,152.167 48.5,153.5C 48.1667,153.5 47.8333,153.5 47.5,153.5C 47.5,149.833 47.5,146.167 47.5,142.5C 47.5,140.833 47.5,139.167 47.5,137.5C 46.5,137.5 45.5,137.5 44.5,137.5C 45.287,135.896 46.6203,135.229 48.5,135.5C 48.5,140.167 48.5,144.833 48.5,149.5 Z"/></g>
<g><path style="opacity:1" fill="#2d2d31" d="M 132.5,116.5 C 133.5,116.5 134.5,116.5 135.5,116.5C 136.659,118.25 138.326,119.25 140.5,119.5C 142.679,119.84 144.512,120.84 146,122.5C 147.675,125.051 148.841,127.717 149.5,130.5C 149.5,133.833 149.5,137.167 149.5,140.5C 149.611,141.117 149.944,141.617 150.5,142C 146.743,145.421 144.243,149.588 143,154.5C 142.667,154.167 142.333,153.833 142,153.5C 141.292,154.381 140.458,155.047 139.5,155.5C 140.758,152.228 141.925,148.894 143,145.5C 145.964,142.03 147.798,138.03 148.5,133.5C 148.561,131.279 147.895,130.946 146.5,132.5C 146.046,129.86 144.879,127.527 143,125.5C 139.308,122.635 135.808,119.635 132.5,116.5 Z"/></g>
<g><path style="opacity:1" fill="#5c5c62" d="M 67.5,146.5 C 64.7058,149.757 62.7058,153.423 61.5,157.5C 60.2058,158.29 59.0391,159.29 58,160.5C 56.7592,159.062 56.2592,157.562 56.5,156C 54.3313,155.571 52.3313,156.071 50.5,157.5C 49.4104,156.609 49.4104,155.609 50.5,154.5C 50.0431,153.702 49.3764,153.369 48.5,153.5C 48.5,152.167 48.5,150.833 48.5,149.5C 49.8333,149.167 51.1667,148.833 52.5,148.5C 53.1667,148.167 53.8333,147.833 54.5,147.5C 54.5,148.833 54.5,150.167 54.5,151.5C 58.6229,149.401 62.9562,147.734 67.5,146.5 Z"/></g>
<g><path style="opacity:1" fill="#cdced3" d="M 94.5,160.5 C 92.9382,160.267 91.6049,159.6 90.5,158.5C 90.5569,157.391 90.8902,156.391 91.5,155.5C 92.8333,154.5 94.1667,153.5 95.5,152.5C 96.1667,152.5 96.8333,152.5 97.5,152.5C 99.2624,152.643 100.929,152.309 102.5,151.5C 103.602,154.19 103.436,156.857 102,159.5C 100.424,158.987 99.091,159.654 98,161.5C 96.8615,161.011 95.6948,160.678 94.5,160.5 Z"/></g>
<g><path style="opacity:1" fill="#2c313a" d="M 149.5,140.5 C 151.271,141.876 152.605,143.709 153.5,146C 152.68,147.8 152.014,149.634 151.5,151.5C 149.273,152.401 148.273,154.067 148.5,156.5C 146.567,156.729 144.9,157.562 143.5,159C 143.833,159.333 144.167,159.667 144.5,160C 141.706,161.755 140.04,164.255 139.5,167.5C 138.448,167.351 137.448,167.517 136.5,168C 134.627,170.209 132.46,172.042 130,173.5C 129.333,174.167 129.333,174.833 130,175.5C 131.376,176.705 132.542,178.038 133.5,179.5C 132.5,179.5 131.5,179.5 130.5,179.5C 130.389,178.883 130.056,178.383 129.5,178C 126.518,177.502 123.518,177.335 120.5,177.5C 119.081,168.573 116.581,168.24 113,176.5C 112.5,176 112,175.5 111.5,175C 113.148,170.683 113.814,166.183 113.5,161.5C 113.171,158.772 113.837,156.438 115.5,154.5C 115.334,158.514 115.501,162.514 116,166.5C 118.162,166.94 120.329,167.273 122.5,167.5C 125.379,161.948 129.379,157.282 134.5,153.5C 135.657,156.784 135.824,160.118 135,163.5C 132.037,166.627 128.871,169.627 125.5,172.5C 125.808,173.308 126.308,173.975 127,174.5C 130.297,172.205 133.297,169.538 136,166.5C 137.202,164.323 137.702,161.989 137.5,159.5C 138.674,158.486 139.34,157.153 139.5,155.5C 140.458,155.047 141.292,154.381 142,153.5C 142.333,153.833 142.667,154.167 143,154.5C 144.243,149.588 146.743,145.421 150.5,142C 149.944,141.617 149.611,141.117 149.5,140.5 Z"/></g>
<g><path style="opacity:1" fill="#e3e6eb" d="M 84.5,157.5 C 83.1667,158.167 82.1667,159.167 81.5,160.5C 80.8333,160.167 80.1667,159.833 79.5,159.5C 79.1758,155.445 79.5091,151.445 80.5,147.5C 82.2589,150.763 84.5922,153.597 87.5,156C 86.2625,156.232 85.2625,156.732 84.5,157.5 Z"/></g>
<g><path style="opacity:1" fill="#a19594" d="M 78.5,146.5 C 80.1667,146.5 81.8333,146.5 83.5,146.5C 84.4295,148.436 85.7628,150.103 87.5,151.5C 88.4287,152.689 88.762,154.022 88.5,155.5C 89.5,155.5 90.5,155.5 91.5,155.5C 90.8902,156.391 90.5569,157.391 90.5,158.5C 88.6208,157.659 86.6208,157.325 84.5,157.5C 85.2625,156.732 86.2625,156.232 87.5,156C 84.5922,153.597 82.2589,150.763 80.5,147.5C 79.5091,151.445 79.1758,155.445 79.5,159.5C 78.5151,155.366 78.1818,151.032 78.5,146.5 Z"/></g>
<g><path style="opacity:1" fill="#37404c" d="M 151.5,151.5 C 151.739,153.467 151.406,155.301 150.5,157C 152.569,157.324 152.902,158.158 151.5,159.5C 153.129,162.626 155.295,165.293 158,167.5C 158.717,166.956 159.217,166.289 159.5,165.5C 160.839,169.155 163.506,170.821 167.5,170.5C 167.317,174.063 165.983,177.063 163.5,179.5C 153.5,179.5 143.5,179.5 133.5,179.5C 132.542,178.038 131.376,176.705 130,175.5C 129.333,174.833 129.333,174.167 130,173.5C 132.46,172.042 134.627,170.209 136.5,168C 137.448,167.517 138.448,167.351 139.5,167.5C 140.04,164.255 141.706,161.755 144.5,160C 144.167,159.667 143.833,159.333 143.5,159C 144.9,157.562 146.567,156.729 148.5,156.5C 148.273,154.067 149.273,152.401 151.5,151.5 Z"/></g>
<g><path style="opacity:1" fill="#576f77" d="M 3.5,139.5 C 3.42003,152.847 3.75337,166.18 4.5,179.5C 4.16667,179.5 3.83333,179.5 3.5,179.5C 2.2986,166.011 2.2986,152.677 3.5,139.5 Z"/></g>
<g><path style="opacity:1" fill="#e9eaea" d="M 16.5,143.5 C 21.2303,143.717 25.8969,143.383 30.5,142.5C 36.1667,142.5 41.8333,142.5 47.5,142.5C 47.5,146.167 47.5,149.833 47.5,153.5C 43.87,157.431 41.87,162.097 41.5,167.5C 40.5176,171.316 39.8509,175.316 39.5,179.5C 28.5,179.5 17.5,179.5 6.5,179.5C 6.5,166.5 6.5,153.5 6.5,140.5C 8.16667,140.5 9.83333,140.5 11.5,140.5C 11.5,141.5 11.5,142.5 11.5,143.5C 13.1667,143.5 14.8333,143.5 16.5,143.5 Z"/></g>
<g><path style="opacity:1" fill="#23252a" d="M 118.5,147.5 C 119.011,151.03 118.344,154.196 116.5,157C 118.138,158.801 119.972,158.968 122,157.5C 126.336,153.356 131.502,150.689 137.5,149.5C 137.403,152.93 137.403,156.264 137.5,159.5C 137.702,161.989 137.202,164.323 136,166.5C 133.297,169.538 130.297,172.205 127,174.5C 126.308,173.975 125.808,173.308 125.5,172.5C 128.871,169.627 132.037,166.627 135,163.5C 135.824,160.118 135.657,156.784 134.5,153.5C 129.379,157.282 125.379,161.948 122.5,167.5C 120.329,167.273 118.162,166.94 116,166.5C 115.501,162.514 115.334,158.514 115.5,154.5C 115.5,153.833 115.5,153.167 115.5,152.5C 116.313,150.739 117.313,149.072 118.5,147.5 Z"/></g>
<g><path style="opacity:1" fill="#4b525c" d="M 78.5,146.5 C 78.1818,151.032 78.5151,155.366 79.5,159.5C 79.8064,162.385 79.4731,165.052 78.5,167.5C 78.5,165.833 78.5,164.167 78.5,162.5C 78.5126,156.674 76.5126,155.841 72.5,160C 73.727,161.587 73.3937,162.921 71.5,164C 68.9348,164.609 66.6015,164.109 64.5,162.5C 65.087,161.233 65.087,160.233 64.5,159.5C 59.2946,162.196 54.7946,165.863 51,170.5C 51.4885,166.732 52.1552,163.065 53,159.5C 51.8904,161.037 50.3904,161.703 48.5,161.5C 48.5,160.5 48.5,159.5 48.5,158.5C 48.6068,156.621 48.1068,156.288 47,157.5C 44.8703,160.767 43.037,164.1 41.5,167.5C 41.87,162.097 43.87,157.431 47.5,153.5C 47.8333,153.5 48.1667,153.5 48.5,153.5C 49.3764,153.369 50.0431,153.702 50.5,154.5C 49.4104,155.609 49.4104,156.609 50.5,157.5C 52.3313,156.071 54.3313,155.571 56.5,156C 56.2592,157.562 56.7592,159.062 58,160.5C 59.0391,159.29 60.2058,158.29 61.5,157.5C 65.8182,154.423 70.3182,150.756 75,146.5C 76.2607,147.658 77.4274,147.658 78.5,146.5 Z"/></g>
<g><path style="opacity:1" fill="#9ea3aa" d="M 110.5,166.5 C 110.829,169.228 110.163,171.562 108.5,173.5C 108.785,171.712 108.452,170.045 107.5,168.5C 102.819,171.181 99.1524,174.848 96.5,179.5C 95.8333,179.5 95.1667,179.5 94.5,179.5C 94.3284,178.508 94.6618,177.842 95.5,177.5C 97.701,174.979 100.034,172.479 102.5,170C 104.935,169.925 105.602,169.092 104.5,167.5C 105.376,167.631 106.043,167.298 106.5,166.5C 105.656,161.21 105.656,155.876 106.5,150.5C 103.171,150.215 100.171,150.882 97.5,152.5C 96.8333,152.5 96.1667,152.5 95.5,152.5C 95.8333,151.5 96.5,150.833 97.5,150.5C 101.768,149.627 106.102,149.294 110.5,149.5C 110.5,155.167 110.5,160.833 110.5,166.5 Z"/></g>
<g><path style="opacity:1" fill="#4f4c52" d="M 154.5,144.5 C 155.629,145.47 156.629,146.636 157.5,148C 158.783,153.373 160.45,158.54 162.5,163.5C 165.694,164.758 169.027,165.424 172.5,165.5C 171.027,167.395 169.36,169.061 167.5,170.5C 163.506,170.821 160.839,169.155 159.5,165.5C 158.611,162.334 156.944,159.667 154.5,157.5C 154.724,153.288 154.724,148.954 154.5,144.5 Z"/></g>
<g><path style="opacity:1" fill="#47535f" d="M 84.5,157.5 C 86.6208,157.325 88.6208,157.659 90.5,158.5C 91.6049,159.6 92.9382,160.267 94.5,160.5C 95.3065,161.728 96.3065,162.728 97.5,163.5C 88.124,164.651 83.124,169.985 82.5,179.5C 81.8333,179.5 81.1667,179.5 80.5,179.5C 81.3087,173.136 81.642,166.802 81.5,160.5C 82.1667,159.167 83.1667,158.167 84.5,157.5 Z"/></g>
<g><path style="opacity:1" fill="#2d333e" d="M 48.5,158.5 C 46.0438,164.279 43.8771,170.279 42,176.5C 41.502,173.518 41.3354,170.518 41.5,167.5C 43.037,164.1 44.8703,160.767 47,157.5C 48.1068,156.288 48.6068,156.621 48.5,158.5 Z"/></g>
<g><path style="opacity:1" fill="#b2b7be" d="M 104.5,167.5 C 104.167,167.5 103.833,167.5 103.5,167.5C 101.772,165.774 99.7721,164.441 97.5,163.5C 96.3065,162.728 95.3065,161.728 94.5,160.5C 95.6948,160.678 96.8615,161.011 98,161.5C 99.091,159.654 100.424,158.987 102,159.5C 103.436,156.857 103.602,154.19 102.5,151.5C 100.929,152.309 99.2624,152.643 97.5,152.5C 100.171,150.882 103.171,150.215 106.5,150.5C 105.656,155.876 105.656,161.21 106.5,166.5C 106.043,167.298 105.376,167.631 104.5,167.5 Z"/></g>
<g><path style="opacity:1" fill="#353a40" d="M -0.5,123.5 C 0.166667,123.5 0.833333,123.5 1.5,123.5C 2.56764,124.434 3.90097,124.768 5.5,124.5C 6.48612,128.97 6.81946,133.637 6.5,138.5C 5.20895,138.263 4.20895,138.596 3.5,139.5C 2.2986,152.677 2.2986,166.011 3.5,179.5C 2.16667,179.5 0.833333,179.5 -0.5,179.5C -0.5,160.833 -0.5,142.167 -0.5,123.5 Z"/></g>
<g><path style="opacity:1" fill="#27292d" d="M 97.5,163.5 C 99.7721,164.441 101.772,165.774 103.5,167.5C 99.7308,169.937 97.0642,173.271 95.5,177.5C 94.6618,177.842 94.3284,178.508 94.5,179.5C 90.5,179.5 86.5,179.5 82.5,179.5C 83.124,169.985 88.124,164.651 97.5,163.5 Z"/></g>
<g><path style="opacity:1" fill="#3f4a58" d="M 48.5,158.5 C 48.5,159.5 48.5,160.5 48.5,161.5C 50.3904,161.703 51.8904,161.037 53,159.5C 52.1552,163.065 51.4885,166.732 51,170.5C 54.7946,165.863 59.2946,162.196 64.5,159.5C 65.087,160.233 65.087,161.233 64.5,162.5C 63.6236,162.369 62.9569,162.702 62.5,163.5C 60.5537,169.078 58.2203,174.411 55.5,179.5C 50.1667,179.5 44.8333,179.5 39.5,179.5C 39.8509,175.316 40.5176,171.316 41.5,167.5C 41.3354,170.518 41.502,173.518 42,176.5C 43.8771,170.279 46.0438,164.279 48.5,158.5 Z"/></g>
<g><path style="opacity:1" fill="#424f60" d="M 78.5,162.5 C 76.2158,167.827 74.8825,173.493 74.5,179.5C 68.1667,179.5 61.8333,179.5 55.5,179.5C 58.2203,174.411 60.5537,169.078 62.5,163.5C 62.9569,162.702 63.6236,162.369 64.5,162.5C 66.6015,164.109 68.9348,164.609 71.5,164C 73.3937,162.921 73.727,161.587 72.5,160C 76.5126,155.841 78.5126,156.674 78.5,162.5 Z"/></g>
<g><path style="opacity:1" fill="#acb4ba" d="M 79.5,159.5 C 80.1667,159.833 80.8333,160.167 81.5,160.5C 81.642,166.802 81.3087,173.136 80.5,179.5C 80.1667,179.5 79.8333,179.5 79.5,179.5C 79.8016,176.941 79.4682,174.607 78.5,172.5C 78.5,170.833 78.5,169.167 78.5,167.5C 79.4731,165.052 79.8064,162.385 79.5,159.5 Z"/></g>
<g><path style="opacity:1" fill="#2a2e33" d="M 78.5,162.5 C 78.5,164.167 78.5,165.833 78.5,167.5C 78.5,169.167 78.5,170.833 78.5,172.5C 77.4336,174.701 76.767,177.035 76.5,179.5C 75.8333,179.5 75.1667,179.5 74.5,179.5C 74.8825,173.493 76.2158,167.827 78.5,162.5 Z"/></g>
<g><path style="opacity:1" fill="#5f6265" d="M 103.5,167.5 C 103.833,167.5 104.167,167.5 104.5,167.5C 105.602,169.092 104.935,169.925 102.5,170C 100.034,172.479 97.701,174.979 95.5,177.5C 97.0642,173.271 99.7308,169.937 103.5,167.5 Z"/></g>
<g><path style="opacity:1" fill="#bac0c7" d="M 108.5,173.5 C 108.167,175.5 107.833,177.5 107.5,179.5C 103.833,179.5 100.167,179.5 96.5,179.5C 99.1524,174.848 102.819,171.181 107.5,168.5C 108.452,170.045 108.785,171.712 108.5,173.5 Z"/></g>
<g><path style="opacity:1" fill="#313c49" d="M 113.5,161.5 C 113.814,166.183 113.148,170.683 111.5,175C 112,175.5 112.5,176 113,176.5C 116.581,168.24 119.081,168.573 120.5,177.5C 123.518,177.335 126.518,177.502 129.5,178C 130.056,178.383 130.389,178.883 130.5,179.5C 122.833,179.5 115.167,179.5 107.5,179.5C 107.833,177.5 108.167,175.5 108.5,173.5C 110.163,171.562 110.829,169.228 110.5,166.5C 111.687,164.928 112.687,163.261 113.5,161.5 Z"/></g>
<g><path style="opacity:1" fill="#464e5a" d="M 179.5,166.5 C 179.5,167.5 179.5,168.5 179.5,169.5C 175.188,171.812 171.855,175.145 169.5,179.5C 168.833,179.5 168.167,179.5 167.5,179.5C 170.77,174.56 174.77,170.227 179.5,166.5 Z"/></g>
<g><path style="opacity:1" fill="#28292d" d="M 179.5,169.5 C 179.5,172.833 179.5,176.167 179.5,179.5C 176.167,179.5 172.833,179.5 169.5,179.5C 171.855,175.145 175.188,171.812 179.5,169.5 Z"/></g>
<g><path style="opacity:1" fill="#282b30" d="M 179.5,164.5 C 179.5,165.167 179.5,165.833 179.5,166.5C 174.77,170.227 170.77,174.56 167.5,179.5C 166.167,179.5 164.833,179.5 163.5,179.5C 165.983,177.063 167.317,174.063 167.5,170.5C 169.36,169.061 171.027,167.395 172.5,165.5C 174.861,165.326 177.194,164.993 179.5,164.5 Z"/></g>
<g><path style="opacity:1" fill="#d2d9e0" d="M 78.5,172.5 C 79.4682,174.607 79.8016,176.941 79.5,179.5C 78.5,179.5 77.5,179.5 76.5,179.5C 76.767,177.035 77.4336,174.701 78.5,172.5 Z"/></g>
</svg>
