<?xml version="1.0" encoding="UTF-8"?>
<!DOCTYPE svg PUBLIC "-//W3C//DTD SVG 1.1//EN" "http://www.w3.org/Graphics/SVG/1.1/DTD/svg11.dtd">
<svg xmlns="http://www.w3.org/2000/svg" version="1.1" width="512px" height="512px" style="shape-rendering:geometricPrecision; text-rendering:geometricPrecision; image-rendering:optimizeQuality; fill-rule:evenodd; clip-rule:evenodd" xmlns:xlink="http://www.w3.org/1999/xlink">
<g><path style="opacity:0.996" fill="#fe5a54" d="M 495.5,259.5 C 455.759,220.091 416.092,180.758 376.5,141.5C 366.653,129.872 354.653,127.039 340.5,133C 312.014,160.652 283.681,188.486 255.5,216.5C 227.319,188.486 198.986,160.652 170.5,133C 152.593,126.036 139.426,131.202 131,148.5C 128.212,157.501 129.545,165.834 135,173.5C 162.347,200.68 189.514,228.014 216.5,255.5C 188.486,283.681 160.652,312.014 133,340.5C 126.457,357.373 130.957,370.373 146.5,379.5C 145.761,379.369 145.094,379.536 144.5,380C 183.035,418.368 221.368,456.868 259.5,495.5C 173.524,494.933 105.69,459.933 56,390.5C 15.386,327.208 5.05267,259.208 25,186.5C 53.8259,99.3411 112.659,44.1744 201.5,21C 291.109,3.65347 367.942,27.1535 432,91.5C 475.113,138.98 496.279,194.98 495.5,259.5 Z"/></g>
<g><path style="opacity:1" fill="#fefefe" d="M 376.5,141.5 C 383.265,152.263 383.098,162.929 376,173.5C 348.653,200.68 321.486,228.014 294.5,255.5C 321.486,282.986 348.653,310.32 376,337.5C 384.699,351.794 382.866,364.627 370.5,376C 360.816,382.263 350.816,382.93 340.5,378C 312.014,350.348 283.681,322.514 255.5,294.5C 228.014,321.486 200.68,348.653 173.5,376C 165.098,381.749 156.098,382.915 146.5,379.5C 130.957,370.373 126.457,357.373 133,340.5C 160.652,312.014 188.486,283.681 216.5,255.5C 189.514,228.014 162.347,200.68 135,173.5C 129.545,165.834 128.212,157.501 131,148.5C 139.426,131.202 152.593,126.036 170.5,133C 198.986,160.652 227.319,188.486 255.5,216.5C 283.681,188.486 312.014,160.652 340.5,133C 354.653,127.039 366.653,129.872 376.5,141.5 Z"/></g>
<g><path style="opacity:1" fill="#db3a3c" d="M 376.5,141.5 C 416.092,180.758 455.759,220.091 495.5,259.5C 491.807,347.425 453.14,414.925 379.5,462C 342.469,483.758 302.469,494.925 259.5,495.5C 221.368,456.868 183.035,418.368 144.5,380C 145.094,379.536 145.761,379.369 146.5,379.5C 156.098,382.915 165.098,381.749 173.5,376C 200.68,348.653 228.014,321.486 255.5,294.5C 283.681,322.514 312.014,350.348 340.5,378C 350.816,382.93 360.816,382.263 370.5,376C 382.866,364.627 384.699,351.794 376,337.5C 348.653,310.32 321.486,282.986 294.5,255.5C 321.486,228.014 348.653,200.68 376,173.5C 383.098,162.929 383.265,152.263 376.5,141.5 Z"/></g>
</svg>
