<?xml version="1.0" encoding="UTF-8"?>
<!DOCTYPE svg PUBLIC "-//W3C//DTD SVG 1.1//EN" "http://www.w3.org/Graphics/SVG/1.1/DTD/svg11.dtd">
<svg xmlns="http://www.w3.org/2000/svg" version="1.1" width="64px" height="64px" style="shape-rendering:geometricPrecision; text-rendering:geometricPrecision; image-rendering:optimizeQuality; fill-rule:evenodd; clip-rule:evenodd" xmlns:xlink="http://www.w3.org/1999/xlink">
<g><path style="opacity:0.797" fill="#fefffe" d="M 17.5,11.5 C 24.4115,15.4085 30.0782,20.7419 34.5,27.5C 33.3073,29.3837 31.6406,29.8837 29.5,29C 27,26.5 24.5,24 22,21.5C 21.8321,31.1838 21.3321,40.8505 20.5,50.5C 19.2798,51.7111 18.1131,51.7111 17,50.5C 16.6667,40.8333 16.3333,31.1667 16,21.5C 13.5,24 11,26.5 8.5,29C 6.86586,29.4935 5.19919,29.6602 3.5,29.5C 3.34332,28.1266 3.50999,26.7932 4,25.5C 8.70332,20.9645 13.2033,16.2979 17.5,11.5 Z"/></g>
<g><path style="opacity:0.733" fill="#fefffe" d="M 46.5,16.5 C 49.5,16.5 52.5,16.5 55.5,16.5C 56.2585,20.2403 54.7585,21.907 51,21.5C 46.9534,21.641 45.4534,19.9743 46.5,16.5 Z"/></g>
<g><path style="opacity:0.687" fill="#fefffe" d="M 39.5,28.5 C 44.1785,28.3342 48.8452,28.5008 53.5,29C 56.1667,30.6667 56.1667,32.3333 53.5,34C 48.8333,34.6667 44.1667,34.6667 39.5,34C 36.9824,32.1899 36.9824,30.3566 39.5,28.5 Z"/></g>
<g><path style="opacity:0.802" fill="#fefffe" d="M 29.5,41.5 C 37.84,41.3336 46.1733,41.5003 54.5,42C 55.3802,43.3561 55.7135,44.8561 55.5,46.5C 46.8269,46.6664 38.1603,46.4998 29.5,46C 28.5868,44.5861 28.5868,43.0861 29.5,41.5 Z"/></g>
</svg>
