<?xml version="1.0" encoding="UTF-8"?>
<!DOCTYPE svg PUBLIC "-//W3C//DTD SVG 1.1//EN" "http://www.w3.org/Graphics/SVG/1.1/DTD/svg11.dtd">
<svg xmlns="http://www.w3.org/2000/svg" version="1.1" width="150px" height="150px" style="shape-rendering:geometricPrecision; text-rendering:geometricPrecision; image-rendering:optimizeQuality; fill-rule:evenodd; clip-rule:evenodd" xmlns:xlink="http://www.w3.org/1999/xlink">
<g><path style="opacity:1" fill="#d8ccb9" d="M -0.5,-0.5 C 5.16667,-0.5 10.8333,-0.5 16.5,-0.5C 16.3305,1.84837 15.9971,4.1817 15.5,6.5C 15.7896,8.04406 16.4563,9.37739 17.5,10.5C 15.8153,14.5975 14.982,18.9308 15,23.5C 13.9887,24.3366 12.8221,24.67 11.5,24.5C 11.5,26.8333 11.5,29.1667 11.5,31.5C 7.60004,30.9953 3.60004,30.9953 -0.5,31.5C -0.5,20.8333 -0.5,10.1667 -0.5,-0.5 Z"/></g>
<g><path style="opacity:1" fill="#ded7ca" d="M 24.5,-0.5 C 42.5,-0.5 60.5,-0.5 78.5,-0.5C 77.7484,5.62991 80.415,8.62991 86.5,8.5C 87.4027,11.6561 87.736,14.6561 87.5,17.5C 84.2479,18.3766 80.9146,19.0433 77.5,19.5C 75.5,19.1667 73.5,18.8333 71.5,18.5C 72.1667,17.8333 72.8333,17.1667 73.5,16.5C 69.3797,13.0622 65.3797,13.0622 61.5,16.5C 63.9661,17.1235 66.2994,17.9568 68.5,19C 67.6198,20.3561 67.2865,21.8561 67.5,23.5C 62.6466,23.5461 57.98,24.5461 53.5,26.5C 52.5853,27.3279 51.9186,28.3279 51.5,29.5C 52.3524,31.0869 52.6857,32.4202 52.5,33.5C 49.6895,35.974 47.6895,38.974 46.5,42.5C 44.3827,46.6147 42.716,50.948 41.5,55.5C 40.1201,55.0377 39.4534,54.0377 39.5,52.5C 40.5423,48.2012 40.7089,43.8679 40,39.5C 39.3551,38.354 38.5217,37.354 37.5,36.5C 38.3094,34.9291 38.6427,33.2624 38.5,31.5C 39.5,31.5 40.5,31.5 41.5,31.5C 39.9529,25.0043 38.9529,18.3376 38.5,11.5C 37.5,11.5 36.5,11.5 35.5,11.5C 32.6245,8.47633 28.9578,7.143 24.5,7.5C 24.5,4.83333 24.5,2.16667 24.5,-0.5 Z"/></g>
<g><path style="opacity:1" fill="#ddd7d1" d="M 78.5,-0.5 C 86.8333,-0.5 95.1667,-0.5 103.5,-0.5C 103.67,0.822066 103.337,1.98873 102.5,3C 105.58,3.76554 108.58,4.76554 111.5,6C 106.206,6.81784 106.206,7.31784 111.5,7.5C 111.713,12.775 111.713,17.9416 111.5,23C 111.667,23.5 111.833,24 112,24.5C 113.388,23.4464 114.888,23.2797 116.5,24C 113.833,25 113.833,26 116.5,27C 115.269,28.1827 115.269,29.3493 116.5,30.5C 119.22,28.8893 122.22,28.056 125.5,28C 124.5,27.6667 123.5,27.3333 122.5,27C 124.134,26.5065 125.801,26.3398 127.5,26.5C 127.5,27.5 127.5,28.5 127.5,29.5C 124.813,29.3359 122.146,29.5026 119.5,30C 121.833,30.3333 124.167,30.6667 126.5,31C 127.451,31.7175 127.617,32.5509 127,33.5C 124.815,31.5845 122.315,31.4178 119.5,33C 122.488,33.2172 125.155,34.2172 127.5,36C 116.832,35.6888 116.832,36.6888 127.5,39C 123.5,40.6667 119.5,42.3333 115.5,44C 117.437,44.1216 118.77,44.955 119.5,46.5C 118.699,48.0418 118.366,49.7085 118.5,51.5C 116.143,51.3367 113.81,51.5034 111.5,52C 115.932,52.6228 116.265,53.6228 112.5,55C 111.941,55.7247 111.608,56.5581 111.5,57.5C 112.554,67.8174 112.554,78.1508 111.5,88.5C 110.178,88.67 109.011,88.3366 108,87.5C 107.667,85.8333 107.333,84.1667 107,82.5C 105.823,84.1757 104.323,85.5091 102.5,86.5C 101.261,84.9928 101.595,83.8261 103.5,83C 102.255,82.2086 100.922,81.7086 99.5,81.5C 99.5,80.8333 99.1667,80.5 98.5,80.5C 97.227,78.3827 97.227,76.216 98.5,74C 97.7042,71.7145 96.3709,69.8812 94.5,68.5C 95.9917,63.9463 95.6583,59.6129 93.5,55.5C 93.7271,53.0672 92.7271,51.4006 90.5,50.5C 89.5294,48.5168 88.5294,46.5168 87.5,44.5C 87.5,44.1667 87.5,43.8333 87.5,43.5C 90.3882,43.7804 91.8882,42.4471 92,39.5C 95.1362,37.836 96.3029,35.1693 95.5,31.5C 93.5082,31.6715 91.8415,31.0049 90.5,29.5C 86.2736,34.1856 83.9403,33.519 83.5,27.5C 84.8333,27.5 86.1667,27.5 87.5,27.5C 87.5,24.1667 87.5,20.8333 87.5,17.5C 87.736,14.6561 87.4027,11.6561 86.5,8.5C 80.415,8.62991 77.7484,5.62991 78.5,-0.5 Z"/></g>
<g><path style="opacity:1" fill="#d5d4d2" d="M 103.5,-0.5 C 118.833,-0.5 134.167,-0.5 149.5,-0.5C 149.5,13.5 149.5,27.5 149.5,41.5C 148.25,41.4226 147.417,40.756 147,39.5C 146.51,40.7932 146.343,42.1266 146.5,43.5C 145.5,43.5 144.5,43.5 143.5,43.5C 143.5,44.8333 143.5,46.1667 143.5,47.5C 141.334,47.4211 139.334,46.7545 137.5,45.5C 134.358,47.1187 131.025,47.7854 127.5,47.5C 124.833,47.1667 122.167,46.8333 119.5,46.5C 118.77,44.955 117.437,44.1216 115.5,44C 119.5,42.3333 123.5,40.6667 127.5,39C 116.832,36.6888 116.832,35.6888 127.5,36C 125.155,34.2172 122.488,33.2172 119.5,33C 122.315,31.4178 124.815,31.5845 127,33.5C 127.617,32.5509 127.451,31.7175 126.5,31C 124.167,30.6667 121.833,30.3333 119.5,30C 122.146,29.5026 124.813,29.3359 127.5,29.5C 127.5,28.5 127.5,27.5 127.5,26.5C 125.801,26.3398 124.134,26.5065 122.5,27C 123.5,27.3333 124.5,27.6667 125.5,28C 122.22,28.056 119.22,28.8893 116.5,30.5C 115.269,29.3493 115.269,28.1827 116.5,27C 113.833,26 113.833,25 116.5,24C 114.888,23.2797 113.388,23.4464 112,24.5C 111.833,24 111.667,23.5 111.5,23C 111.713,17.9416 111.713,12.775 111.5,7.5C 106.206,7.31784 106.206,6.81784 111.5,6C 108.58,4.76554 105.58,3.76554 102.5,3C 103.337,1.98873 103.67,0.822066 103.5,-0.5 Z"/></g>
<g><path style="opacity:1" fill="#dbd1bd" d="M 16.5,-0.5 C 19.1667,-0.5 21.8333,-0.5 24.5,-0.5C 24.5,2.16667 24.5,4.83333 24.5,7.5C 28.9578,7.143 32.6245,8.47633 35.5,11.5C 34.1667,11.5 32.8333,11.5 31.5,11.5C 31.5,14.1667 31.5,16.8333 31.5,19.5C 30.1667,19.5 28.8333,19.5 27.5,19.5C 27.3345,23.5138 27.5012,27.5138 28,31.5C 29.9019,33.8841 31.0686,36.5508 31.5,39.5C 28.8333,39.5 26.1667,39.5 23.5,39.5C 23.8174,42.5719 23.4841,45.5719 22.5,48.5C 21.8589,49.9935 20.8589,50.9935 19.5,51.5C 18.1411,50.9935 17.1411,49.9935 16.5,48.5C 15.6143,49.325 15.281,50.325 15.5,51.5C 12.8333,51.5 10.1667,51.5 7.5,51.5C 7.5,50.1667 7.5,48.8333 7.5,47.5C 4.83333,47.5 2.16667,47.5 -0.5,47.5C -0.5,42.1667 -0.5,36.8333 -0.5,31.5C 3.60004,30.9953 7.60004,30.9953 11.5,31.5C 11.5,29.1667 11.5,26.8333 11.5,24.5C 12.8221,24.67 13.9887,24.3366 15,23.5C 14.982,18.9308 15.8153,14.5975 17.5,10.5C 16.4563,9.37739 15.7896,8.04406 15.5,6.5C 15.9971,4.1817 16.3305,1.84837 16.5,-0.5 Z"/></g>
<g><path style="opacity:1" fill="#dfdacf" d="M 87.5,17.5 C 87.5,20.8333 87.5,24.1667 87.5,27.5C 86.1667,27.5 84.8333,27.5 83.5,27.5C 83.9403,33.519 86.2736,34.1856 90.5,29.5C 91.8415,31.0049 93.5082,31.6715 95.5,31.5C 96.3029,35.1693 95.1362,37.836 92,39.5C 91.8882,42.4471 90.3882,43.7804 87.5,43.5C 85.7073,37.2139 81.7073,33.2139 75.5,31.5C 74.5,31.5 73.5,31.5 72.5,31.5C 72.5,30.8333 72.1667,30.5 71.5,30.5C 69.6965,29.838 67.6965,29.5046 65.5,29.5C 62.0561,29.5553 59.0561,30.5553 56.5,32.5C 55.0413,32.4326 53.7079,32.7659 52.5,33.5C 52.6857,32.4202 52.3524,31.0869 51.5,29.5C 51.9186,28.3279 52.5853,27.3279 53.5,26.5C 57.98,24.5461 62.6466,23.5461 67.5,23.5C 67.2865,21.8561 67.6198,20.3561 68.5,19C 66.2994,17.9568 63.9661,17.1235 61.5,16.5C 65.3797,13.0622 69.3797,13.0622 73.5,16.5C 72.8333,17.1667 72.1667,17.8333 71.5,18.5C 73.5,18.8333 75.5,19.1667 77.5,19.5C 80.9146,19.0433 84.2479,18.3766 87.5,17.5 Z"/></g>
<g><path style="opacity:1" fill="#b1b0aa" d="M 71.5,30.5 C 66.2751,30.186 61.2751,30.8527 56.5,32.5C 59.0561,30.5553 62.0561,29.5553 65.5,29.5C 67.6965,29.5046 69.6965,29.838 71.5,30.5 Z"/></g>
<g><path style="opacity:1" fill="#797679" d="M 71.5,30.5 C 72.1667,30.5 72.5,30.8333 72.5,31.5C 69.1501,31.335 65.8168,31.5017 62.5,32C 61.6634,33.0113 61.33,34.1779 61.5,35.5C 57.2246,34.7497 53.8913,36.083 51.5,39.5C 51.631,38.7611 51.4643,38.0944 51,37.5C 49.3308,38.8463 48.1642,40.513 47.5,42.5C 47.1667,42.5 46.8333,42.5 46.5,42.5C 47.6895,38.974 49.6895,35.974 52.5,33.5C 53.7079,32.7659 55.0413,32.4326 56.5,32.5C 61.2751,30.8527 66.2751,30.186 71.5,30.5 Z"/></g>
<g><path style="opacity:1" fill="#b0aea9" d="M 75.5,31.5 C 81.7073,33.2139 85.7073,37.2139 87.5,43.5C 87.5,43.8333 87.5,44.1667 87.5,44.5C 86.391,44.4431 85.391,44.1098 84.5,43.5C 84.5,43.1667 84.5,42.8333 84.5,42.5C 83.9202,40.2512 82.5869,38.5846 80.5,37.5C 78.8333,35.5 77.1667,33.5 75.5,31.5 Z"/></g>
<g><path style="opacity:1" fill="#dfd6c3" d="M 35.5,11.5 C 36.5,11.5 37.5,11.5 38.5,11.5C 38.9529,18.3376 39.9529,25.0043 41.5,31.5C 40.5,31.5 39.5,31.5 38.5,31.5C 38.6427,33.2624 38.3094,34.9291 37.5,36.5C 38.5217,37.354 39.3551,38.354 40,39.5C 40.7089,43.8679 40.5423,48.2012 39.5,52.5C 39.4534,54.0377 40.1201,55.0377 41.5,55.5C 40.906,60.8464 40.2393,66.1798 39.5,71.5C 37.8333,72.8333 36.1667,74.1667 34.5,75.5C 34.6126,72.9512 33.9459,70.6179 32.5,68.5C 34.6084,66.1505 34.9417,63.4839 33.5,60.5C 33.7896,58.9559 34.4563,57.6226 35.5,56.5C 32.9135,55.52 30.2469,55.1866 27.5,55.5C 27.5,52.8333 27.5,50.1667 27.5,47.5C 26.5,47.5 25.5,47.5 24.5,47.5C 24.7683,50.1194 24.435,52.6194 23.5,55C 20.5096,55.8469 19.1762,54.6802 19.5,51.5C 20.8589,50.9935 21.8589,49.9935 22.5,48.5C 23.4841,45.5719 23.8174,42.5719 23.5,39.5C 26.1667,39.5 28.8333,39.5 31.5,39.5C 31.0686,36.5508 29.9019,33.8841 28,31.5C 27.5012,27.5138 27.3345,23.5138 27.5,19.5C 28.8333,19.5 30.1667,19.5 31.5,19.5C 31.5,16.8333 31.5,14.1667 31.5,11.5C 32.8333,11.5 34.1667,11.5 35.5,11.5 Z"/></g>
<g><path style="opacity:1" fill="#63585d" d="M 80.5,37.5 C 82.5869,38.5846 83.9202,40.2512 84.5,42.5C 82.7367,41.0462 81.4033,41.3796 80.5,43.5C 80.1667,43.5 79.8333,43.5 79.5,43.5C 79.1667,43.5 78.8333,43.5 78.5,43.5C 77.3282,41.461 75.6616,40.1276 73.5,39.5C 70.7131,37.7951 71.0465,36.6284 74.5,36C 73.2888,35.1072 73.2888,34.2739 74.5,33.5C 75.8524,34.5175 76.8524,35.8508 77.5,37.5C 78.5272,38.7914 79.5272,38.7914 80.5,37.5 Z"/></g>
<g><path style="opacity:1" fill="#a47f76" d="M 69.5,40.5 C 69.5,40.1667 69.5,39.8333 69.5,39.5C 70.8333,39.5 72.1667,39.5 73.5,39.5C 75.6616,40.1276 77.3282,41.461 78.5,43.5C 75.3815,42.6827 72.3815,41.6827 69.5,40.5 Z"/></g>
<g><path style="opacity:1" fill="#64626c" d="M 72.5,31.5 C 73.5,31.5 74.5,31.5 75.5,31.5C 77.1667,33.5 78.8333,35.5 80.5,37.5C 79.5272,38.7914 78.5272,38.7914 77.5,37.5C 76.8524,35.8508 75.8524,34.5175 74.5,33.5C 73.2888,34.2739 73.2888,35.1072 74.5,36C 71.0465,36.6284 70.7131,37.7951 73.5,39.5C 72.1667,39.5 70.8333,39.5 69.5,39.5C 66.8333,40.1667 65.1667,41.8333 64.5,44.5C 63.8501,44.8039 63.1835,45.1373 62.5,45.5C 59.3604,43.9779 56.0271,43.1446 52.5,43C 50.273,42.296 49.9397,41.1294 51.5,39.5C 53.8913,36.083 57.2246,34.7497 61.5,35.5C 61.33,34.1779 61.6634,33.0113 62.5,32C 65.8168,31.5017 69.1501,31.335 72.5,31.5 Z"/></g>
<g><path style="opacity:1" fill="#605a5b" d="M 51.5,39.5 C 49.9397,41.1294 50.273,42.296 52.5,43C 56.0271,43.1446 59.3604,43.9779 62.5,45.5C 63.1835,45.1373 63.8501,44.8039 64.5,44.5C 63.8413,47.4552 63.5079,50.4552 63.5,53.5C 63.3713,55.2161 63.038,56.8828 62.5,58.5C 60.2902,55.1282 59.9568,51.4616 61.5,47.5C 59.604,46.5344 57.604,46.2011 55.5,46.5C 55.5,48.1667 55.5,49.8333 55.5,51.5C 54.1667,51.5 52.8333,51.5 51.5,51.5C 50.9634,56.2718 51.9634,60.6051 54.5,64.5C 53.6059,66.3085 52.6059,68.1418 51.5,70C 52.838,72.7243 51.838,73.8909 48.5,73.5C 47.8333,68.1667 47.1667,68.1667 46.5,73.5C 45.1667,73.8333 43.8333,74.1667 42.5,74.5C 43.1374,63.8216 44.8041,53.1549 47.5,42.5C 48.1642,40.513 49.3308,38.8463 51,37.5C 51.4643,38.0944 51.631,38.7611 51.5,39.5 Z"/></g>
<g><path style="opacity:1" fill="#816b64" d="M 69.5,39.5 C 69.5,39.8333 69.5,40.1667 69.5,40.5C 65.9967,44.0305 64.6634,48.3639 65.5,53.5C 64.8333,53.5 64.1667,53.5 63.5,53.5C 63.5079,50.4552 63.8413,47.4552 64.5,44.5C 65.1667,41.8333 66.8333,40.1667 69.5,39.5 Z"/></g>
<g><path style="opacity:1" fill="#957b67" d="M 79.5,43.5 C 79.8333,43.5 80.1667,43.5 80.5,43.5C 81.5294,45.5168 82.5294,47.5168 83.5,49.5C 83.6716,50.4916 83.3382,51.1583 82.5,51.5C 81.0256,49.0206 80.0256,46.3539 79.5,43.5 Z"/></g>
<g><path style="opacity:1" fill="#ac8a77" d="M 69.5,40.5 C 69.3474,44.6631 68.3474,48.4964 66.5,52C 67.4158,52.2784 68.0825,52.7784 68.5,53.5C 67.5,53.5 66.5,53.5 65.5,53.5C 64.6634,48.3639 65.9967,44.0305 69.5,40.5 Z"/></g>
<g><path style="opacity:1" fill="#544f52" d="M 62.5,58.5 C 64.0783,59.0656 65.4116,60.0656 66.5,61.5C 63.7833,61.974 61.4499,62.974 59.5,64.5C 57.8868,64.9443 56.7202,65.9443 56,67.5C 55.7679,66.2625 55.2679,65.2625 54.5,64.5C 51.9634,60.6051 50.9634,56.2718 51.5,51.5C 52.8333,51.5 54.1667,51.5 55.5,51.5C 55.5,49.8333 55.5,48.1667 55.5,46.5C 57.604,46.2011 59.604,46.5344 61.5,47.5C 59.9568,51.4616 60.2902,55.1282 62.5,58.5 Z"/></g>
<g><path style="opacity:1" fill="#676464" d="M 84.5,43.5 C 85.391,44.1098 86.391,44.4431 87.5,44.5C 88.5294,46.5168 89.5294,48.5168 90.5,50.5C 91.1103,52.4341 92.1103,54.1007 93.5,55.5C 93.59,57.6963 93.9233,59.863 94.5,62C 94.4753,63.876 93.8086,65.376 92.5,66.5C 92.2706,63.6634 92.104,60.6634 92,57.5C 88.1313,53.6076 85.6313,48.941 84.5,43.5 Z"/></g>
<g><path style="opacity:1" fill="#c4947d" d="M 69.5,40.5 C 72.3815,41.6827 75.3815,42.6827 78.5,43.5C 78.8333,43.5 79.1667,43.5 79.5,43.5C 80.0256,46.3539 81.0256,49.0206 82.5,51.5C 80.1386,52.4348 77.9719,53.7682 76,55.5C 73.7724,53.8866 71.2724,53.22 68.5,53.5C 68.0825,52.7784 67.4158,52.2784 66.5,52C 68.3474,48.4964 69.3474,44.6631 69.5,40.5 Z"/></g>
<g><path style="opacity:1" fill="#cc9277" d="M 71.5,43.5 C 75.8074,43.7366 78.1408,46.0699 78.5,50.5C 71.4622,52.7352 69.1289,50.4019 71.5,43.5 Z"/></g>
<g><path style="opacity:1" fill="#453d3e" d="M 84.5,42.5 C 84.5,42.8333 84.5,43.1667 84.5,43.5C 85.6313,48.941 88.1313,53.6076 92,57.5C 92.104,60.6634 92.2706,63.6634 92.5,66.5C 92.1667,67.5 91.5,68.1667 90.5,68.5C 89.8333,67.5 89.1667,66.5 88.5,65.5C 86.9213,60.0675 85.2546,54.7342 83.5,49.5C 82.5294,47.5168 81.5294,45.5168 80.5,43.5C 81.4033,41.3796 82.7367,41.0462 84.5,42.5 Z"/></g>
<g><path style="opacity:1" fill="#a9a5a3" d="M 90.5,50.5 C 92.7271,51.4006 93.7271,53.0672 93.5,55.5C 92.1103,54.1007 91.1103,52.4341 90.5,50.5 Z"/></g>
<g><path style="opacity:1" fill="#7a6360" d="M 83.5,49.5 C 85.2546,54.7342 86.9213,60.0675 88.5,65.5C 88.7947,67.7354 88.4614,69.7354 87.5,71.5C 87.6646,68.4816 87.498,65.4816 87,62.5C 85.7292,61.1175 84.2292,60.1175 82.5,59.5C 81.5,59.5 80.5,59.5 79.5,59.5C 79.5393,56.4649 80.5393,53.7982 82.5,51.5C 83.3382,51.1583 83.6716,50.4916 83.5,49.5 Z"/></g>
<g><path style="opacity:1" fill="#a8796b" d="M 82.5,51.5 C 80.5393,53.7982 79.5393,56.4649 79.5,59.5C 80.5,59.5 81.5,59.5 82.5,59.5C 82.1583,60.3382 81.4916,60.6716 80.5,60.5C 79.8333,60.5 79.1667,60.5 78.5,60.5C 78.0831,59.8761 77.4164,59.5427 76.5,59.5C 75.2867,59.7472 74.62,60.4138 74.5,61.5C 73.5,61.5 72.5,61.5 71.5,61.5C 71.5,59.1667 71.5,56.8333 71.5,54.5C 70.209,54.7373 69.209,54.404 68.5,53.5C 71.2724,53.22 73.7724,53.8866 76,55.5C 77.9719,53.7682 80.1386,52.4348 82.5,51.5 Z"/></g>
<g><path style="opacity:1" fill="#e1d4bd" d="M -0.5,47.5 C 2.16667,47.5 4.83333,47.5 7.5,47.5C 7.5,48.8333 7.5,50.1667 7.5,51.5C 10.1667,51.5 12.8333,51.5 15.5,51.5C 15.281,50.325 15.6143,49.325 16.5,48.5C 17.1411,49.9935 18.1411,50.9935 19.5,51.5C 19.1762,54.6802 20.5096,55.8469 23.5,55C 24.435,52.6194 24.7683,50.1194 24.5,47.5C 25.5,47.5 26.5,47.5 27.5,47.5C 27.5,50.1667 27.5,52.8333 27.5,55.5C 30.2469,55.1866 32.9135,55.52 35.5,56.5C 34.4563,57.6226 33.7896,58.9559 33.5,60.5C 34.9417,63.4839 34.6084,66.1505 32.5,68.5C 33.9459,70.6179 34.6126,72.9512 34.5,75.5C 34.6657,79.8461 34.499,84.1794 34,88.5C 32.984,87.3659 32.3173,87.6992 32,89.5C 31.006,94.118 30.506,98.7847 30.5,103.5C 28.1229,103.784 25.9562,103.784 24,103.5C 23.8195,106.695 23.3195,109.695 22.5,112.5C 21.1192,108.736 19.4526,105.069 17.5,101.5C 17.4894,99.9826 16.8228,98.8159 15.5,98C 17.6044,96.1644 17.9377,93.9977 16.5,91.5C 14.6858,98.0021 13.0191,98.0021 11.5,91.5C 8.5,91.5 5.5,91.5 2.5,91.5C 2.5,90.1667 2.5,88.8333 2.5,87.5C 5.5,87.5 8.5,87.5 11.5,87.5C 11.5,86.1667 11.5,84.8333 11.5,83.5C 13.1667,83.5 14.8333,83.5 16.5,83.5C 16.5,82.1667 16.5,80.8333 16.5,79.5C 13.4359,79.9275 10.4359,80.5942 7.5,81.5C 7.5,78.1667 7.5,74.8333 7.5,71.5C 4.87283,72.0916 2.20616,72.4249 -0.5,72.5C -0.5,64.1667 -0.5,55.8333 -0.5,47.5 Z"/></g>
<g><path style="opacity:1" fill="#d0cecb" d="M 119.5,46.5 C 122.167,46.8333 124.833,47.1667 127.5,47.5C 126.843,50.3221 126.51,52.9888 126.5,55.5C 124.843,53.4206 122.843,53.254 120.5,55C 121.793,55.49 123.127,55.6567 124.5,55.5C 124.5,58.1667 124.5,60.8333 124.5,63.5C 125.552,63.3505 126.552,63.5172 127.5,64C 126.019,64.9803 124.685,66.147 123.5,67.5C 124.815,68.8946 124.481,69.8946 122.5,70.5C 121.522,70.0233 120.689,69.3567 120,68.5C 119.667,70.9342 120.834,71.9342 123.5,71.5C 123.5,72.8333 123.5,74.1667 123.5,75.5C 122.167,75.5 120.833,75.5 119.5,75.5C 119.5,76.8333 119.5,78.1667 119.5,79.5C 120.833,79.5 122.167,79.5 123.5,79.5C 123.882,76.2245 125.215,76.2245 127.5,79.5C 122.26,80.5873 122.26,81.5873 127.5,82.5C 127.5,83.8333 127.5,85.1667 127.5,86.5C 126.167,86.5 124.833,86.5 123.5,86.5C 123.5,85.5 123.5,84.5 123.5,83.5C 122.022,83.238 120.689,83.5713 119.5,84.5C 119.689,87.9851 119.689,91.6518 119.5,95.5C 118.167,95.5 116.833,95.5 115.5,95.5C 115.5,94.1667 115.5,92.8333 115.5,91.5C 113.43,91.4486 111.597,92.1153 110,93.5C 108.989,93.1081 108.489,92.4415 108.5,91.5C 107.667,92.5 106.833,93.5 106,94.5C 103.896,92.2616 101.562,91.2616 99,91.5C 98.5034,89.1902 98.3367,86.8568 98.5,84.5C 99.1098,83.609 99.4431,82.609 99.5,81.5C 100.922,81.7086 102.255,82.2086 103.5,83C 101.595,83.8261 101.261,84.9928 102.5,86.5C 104.323,85.5091 105.823,84.1757 107,82.5C 107.333,84.1667 107.667,85.8333 108,87.5C 109.011,88.3366 110.178,88.67 111.5,88.5C 112.554,78.1508 112.554,67.8174 111.5,57.5C 111.608,56.5581 111.941,55.7247 112.5,55C 116.265,53.6228 115.932,52.6228 111.5,52C 113.81,51.5034 116.143,51.3367 118.5,51.5C 118.366,49.7085 118.699,48.0418 119.5,46.5 Z"/></g>
<g><path style="opacity:1" fill="#dba58f" d="M 78.5,60.5 C 80.5342,62.7535 81.5342,65.4202 81.5,68.5C 80.1667,68.8333 78.8333,69.1667 77.5,69.5C 75.8212,69.7148 74.8212,69.0481 74.5,67.5C 74.5,65.5 74.5,63.5 74.5,61.5C 74.62,60.4138 75.2867,59.7472 76.5,59.5C 77.4164,59.5427 78.0831,59.8761 78.5,60.5 Z"/></g>
<g><path style="opacity:1" fill="#7c5f56" d="M 63.5,53.5 C 64.1667,53.5 64.8333,53.5 65.5,53.5C 66.5,53.5 67.5,53.5 68.5,53.5C 69.209,54.404 70.209,54.7373 71.5,54.5C 71.5,56.8333 71.5,59.1667 71.5,61.5C 68.4127,63.017 65.0794,63.6837 61.5,63.5C 60.6684,68.4808 60.5017,73.4808 61,78.5C 62.4813,79.4709 63.3146,80.8042 63.5,82.5C 62.2058,81.7101 61.0391,80.7101 60,79.5C 59.5014,75.8484 59.3347,72.1817 59.5,68.5C 59.5,67.1667 59.5,65.8333 59.5,64.5C 61.4499,62.974 63.7833,61.974 66.5,61.5C 65.4116,60.0656 64.0783,59.0656 62.5,58.5C 63.038,56.8828 63.3713,55.2161 63.5,53.5 Z"/></g>
<g><path style="opacity:1" fill="#ca9379" d="M 71.5,61.5 C 72.5,61.5 73.5,61.5 74.5,61.5C 74.5,63.5 74.5,65.5 74.5,67.5C 72.8439,68.1465 71.1772,68.8131 69.5,69.5C 67.8405,68.8284 66.5072,67.8284 65.5,66.5C 67.7069,65.092 69.7069,63.4253 71.5,61.5 Z"/></g>
<g><path style="opacity:1" fill="#c28e76" d="M 78.5,60.5 C 79.1667,60.5 79.8333,60.5 80.5,60.5C 83.9444,61.5641 85.9444,63.8974 86.5,67.5C 86.4146,69.3328 85.7479,70.6661 84.5,71.5C 83.5,71.5 82.5,71.5 81.5,71.5C 81.5,70.5 81.5,69.5 81.5,68.5C 81.5342,65.4202 80.5342,62.7535 78.5,60.5 Z"/></g>
<g><path style="opacity:1" fill="#ada6a4" d="M 93.5,55.5 C 95.6583,59.6129 95.9917,63.9463 94.5,68.5C 93.8333,69.8333 93.1667,71.1667 92.5,72.5C 92.1667,72.5 91.8333,72.5 91.5,72.5C 90.7659,71.2921 90.4326,69.9587 90.5,68.5C 91.5,68.1667 92.1667,67.5 92.5,66.5C 93.8086,65.376 94.4753,63.876 94.5,62C 93.9233,59.863 93.59,57.6963 93.5,55.5 Z"/></g>
<g><path style="opacity:1" fill="#c9c9cd" d="M 149.5,41.5 C 149.5,55.5 149.5,69.5 149.5,83.5C 147.473,83.3379 145.473,83.5045 143.5,84C 148.833,85 148.833,86 143.5,87C 144.554,88.3876 144.72,89.8876 144,91.5C 142.658,90.0977 141.824,90.4311 141.5,92.5C 143.279,94.9354 142.613,95.9354 139.5,95.5C 138.078,95.2914 136.745,94.7914 135.5,94C 135.833,93.6667 136.167,93.3333 136.5,93C 134.808,91.5993 134.141,89.7659 134.5,87.5C 140.167,87.3364 140.5,87.0031 135.5,86.5C 134.406,80.0951 137.073,77.7618 143.5,79.5C 143.5,76.8333 143.5,74.1667 143.5,71.5C 144.833,71.5 146.167,71.5 147.5,71.5C 147.5,70.1667 147.5,68.8333 147.5,67.5C 144.813,67.3359 142.146,67.5026 139.5,68C 140.938,68.2189 142.271,68.7189 143.5,69.5C 141.01,71.0828 138.343,72.0828 135.5,72.5C 135.703,70.6096 135.037,69.1096 133.5,68C 135.5,67.1667 137.5,66.3333 139.5,65.5C 138.167,64.8333 136.833,64.1667 135.5,63.5C 137.991,62.4593 137.991,61.6259 135.5,61C 136.424,60.15 136.424,59.15 135.5,58C 138.913,56.4599 142.247,54.6265 145.5,52.5C 143.922,51.7108 141.922,50.7108 139.5,49.5C 140.949,48.8281 142.282,48.1614 143.5,47.5C 143.5,46.1667 143.5,44.8333 143.5,43.5C 144.5,43.5 145.5,43.5 146.5,43.5C 146.343,42.1266 146.51,40.7932 147,39.5C 147.417,40.756 148.25,41.4226 149.5,41.5 Z"/></g>
<g><path style="opacity:1" fill="#e4d6be" d="M 17.5,101.5 C 14.6668,102.594 13.3335,104.761 13.5,108C 13.691,110.05 14.3576,111.883 15.5,113.5C 12.8333,114.833 12.8333,116.167 15.5,117.5C 14.1667,118.5 12.8333,119.5 11.5,120.5C 10.2638,119.754 8.93047,119.421 7.5,119.5C 7.5,121.833 7.5,124.167 7.5,126.5C 4.75681,127.375 2.09015,127.708 -0.5,127.5C -0.5,109.167 -0.5,90.8333 -0.5,72.5C 2.20616,72.4249 4.87283,72.0916 7.5,71.5C 7.5,74.8333 7.5,78.1667 7.5,81.5C 10.4359,80.5942 13.4359,79.9275 16.5,79.5C 16.5,80.8333 16.5,82.1667 16.5,83.5C 14.8333,83.5 13.1667,83.5 11.5,83.5C 11.5,84.8333 11.5,86.1667 11.5,87.5C 8.5,87.5 5.5,87.5 2.5,87.5C 2.5,88.8333 2.5,90.1667 2.5,91.5C 5.5,91.5 8.5,91.5 11.5,91.5C 13.0191,98.0021 14.6858,98.0021 16.5,91.5C 17.9377,93.9977 17.6044,96.1644 15.5,98C 16.8228,98.8159 17.4894,99.9826 17.5,101.5 Z"/></g>
<g><path style="opacity:1" fill="#b9826f" d="M 81.5,68.5 C 81.5,69.5 81.5,70.5 81.5,71.5C 82.5,71.5 83.5,71.5 84.5,71.5C 83.5056,73.6583 82.1723,75.6583 80.5,77.5C 81.516,80.1337 81.516,82.8004 80.5,85.5C 80.5,86.1667 80.1667,86.5 79.5,86.5C 78.8333,86.5 78.1667,86.5 77.5,86.5C 75.5853,86.7845 73.9187,86.4511 72.5,85.5C 75.3641,85.9358 77.6975,85.1025 79.5,83C 73.8117,82.1804 73.145,80.0137 77.5,76.5C 77.1355,74.2674 76.1355,72.434 74.5,71C 75.7375,70.7679 76.7375,70.2679 77.5,69.5C 78.8333,69.1667 80.1667,68.8333 81.5,68.5 Z"/></g>
<g><path style="opacity:1" fill="#aa8679" d="M 82.5,59.5 C 84.2292,60.1175 85.7292,61.1175 87,62.5C 87.498,65.4816 87.6646,68.4816 87.5,71.5C 87.5,72.1667 87.5,72.8333 87.5,73.5C 85.8548,76.5991 84.6882,79.9325 84,83.5C 83.1841,84.8228 82.0174,85.4894 80.5,85.5C 81.516,82.8004 81.516,80.1337 80.5,77.5C 82.1723,75.6583 83.5056,73.6583 84.5,71.5C 85.7479,70.6661 86.4146,69.3328 86.5,67.5C 85.9444,63.8974 83.9444,61.5641 80.5,60.5C 81.4916,60.6716 82.1583,60.3382 82.5,59.5 Z"/></g>
<g><path style="opacity:1" fill="#7a6e67" d="M 46.5,42.5 C 46.8333,42.5 47.1667,42.5 47.5,42.5C 44.8041,53.1549 43.1374,63.8216 42.5,74.5C 39.79,76.2525 39.1233,78.5859 40.5,81.5C 40.3318,83.1705 39.6651,84.5039 38.5,85.5C 37.8333,85.8333 37.1667,86.1667 36.5,86.5C 37.6076,81.5206 38.6076,76.5206 39.5,71.5C 40.2393,66.1798 40.906,60.8464 41.5,55.5C 42.716,50.948 44.3827,46.6147 46.5,42.5 Z"/></g>
<g><path style="opacity:1" fill="#817d7c" d="M 91.5,72.5 C 91.8333,72.5 92.1667,72.5 92.5,72.5C 94.385,74.0532 95.385,76.0532 95.5,78.5C 95.1667,78.5 94.8333,78.5 94.5,78.5C 92.0246,77.3126 91.0246,75.3126 91.5,72.5 Z"/></g>
<g><path style="opacity:1" fill="#c7c2b8" d="M 94.5,68.5 C 96.3709,69.8812 97.7042,71.7145 98.5,74C 97.227,76.216 97.227,78.3827 98.5,80.5C 98.1667,80.5 97.8333,80.5 97.5,80.5C 96.5,80.1667 95.8333,79.5 95.5,78.5C 95.385,76.0532 94.385,74.0532 92.5,72.5C 93.1667,71.1667 93.8333,69.8333 94.5,68.5 Z"/></g>
<g><path style="opacity:1" fill="#c58665" d="M 65.5,66.5 C 66.5072,67.8284 67.8405,68.8284 69.5,69.5C 71.1772,68.8131 72.8439,68.1465 74.5,67.5C 74.8212,69.0481 75.8212,69.7148 77.5,69.5C 76.7375,70.2679 75.7375,70.7679 74.5,71C 76.1355,72.434 77.1355,74.2674 77.5,76.5C 73.145,80.0137 73.8117,82.1804 79.5,83C 77.6975,85.1025 75.3641,85.9358 72.5,85.5C 70.9582,84.6993 69.2915,84.366 67.5,84.5C 67.5,84.1667 67.5,83.8333 67.5,83.5C 65.8564,82.6836 64.6897,81.3502 64,79.5C 63.3333,75.8333 63.3333,72.1667 64,68.5C 64.2784,67.5842 64.7784,66.9175 65.5,66.5 Z"/></g>
<g><path style="opacity:1" fill="#4e3934" d="M 59.5,68.5 C 59.3347,72.1817 59.5014,75.8484 60,79.5C 61.0391,80.7101 62.2058,81.7101 63.5,82.5C 63.5,82.8333 63.5,83.1667 63.5,83.5C 63.5,84.8333 63.5,86.1667 63.5,87.5C 63.5,88.1667 63.5,88.8333 63.5,89.5C 59.9588,85.3736 57.2921,80.7069 55.5,75.5C 55.5,74.1667 55.5,72.8333 55.5,71.5C 56.5,71.5 57.5,71.5 58.5,71.5C 58.2627,70.209 58.596,69.209 59.5,68.5 Z"/></g>
<g><path style="opacity:1" fill="#a4725a" d="M 71.5,61.5 C 69.7069,63.4253 67.7069,65.092 65.5,66.5C 64.7784,66.9175 64.2784,67.5842 64,68.5C 63.3333,72.1667 63.3333,75.8333 64,79.5C 64.6897,81.3502 65.8564,82.6836 67.5,83.5C 66.1667,83.5 64.8333,83.5 63.5,83.5C 63.5,83.1667 63.5,82.8333 63.5,82.5C 63.3146,80.8042 62.4813,79.4709 61,78.5C 60.5017,73.4808 60.6684,68.4808 61.5,63.5C 65.0794,63.6837 68.4127,63.017 71.5,61.5 Z"/></g>
<g><path style="opacity:1" fill="#514c4e" d="M 88.5,65.5 C 89.1667,66.5 89.8333,67.5 90.5,68.5C 90.4326,69.9587 90.7659,71.2921 91.5,72.5C 91.0246,75.3126 92.0246,77.3126 94.5,78.5C 95.0545,82.0122 94.3878,85.0122 92.5,87.5C 93.0914,83.0361 91.758,79.3695 88.5,76.5C 88.7373,75.209 88.404,74.209 87.5,73.5C 87.5,72.8333 87.5,72.1667 87.5,71.5C 88.4614,69.7354 88.7947,67.7354 88.5,65.5 Z"/></g>
<g><path style="opacity:1" fill="#352d2d" d="M 55.5,75.5 C 57.2921,80.7069 59.9588,85.3736 63.5,89.5C 64.4194,92.0892 66.086,94.0892 68.5,95.5C 68.8333,96.5 69.5,97.1667 70.5,97.5C 70.5,98.1667 70.5,98.8333 70.5,99.5C 69.1779,99.67 68.0113,99.3366 67,98.5C 65.4668,104.835 63.3001,105.002 60.5,99C 61.1078,97.769 61.4411,96.4357 61.5,95C 61.3917,93.3189 60.7251,92.1522 59.5,91.5C 58.5,90.1667 57.5,90.1667 56.5,91.5C 56.9195,89.9064 57.5862,88.4064 58.5,87C 57.3181,85.2649 55.6515,84.2649 53.5,84C 52.2808,81.7174 52.2808,79.384 53.5,77C 53.8361,75.9701 54.5028,75.4701 55.5,75.5 Z"/></g>
<g><path style="opacity:1" fill="#5f5c56" d="M 94.5,78.5 C 94.8333,78.5 95.1667,78.5 95.5,78.5C 95.8333,79.5 96.5,80.1667 97.5,80.5C 97.5,81.8333 97.5,83.1667 97.5,84.5C 95.7202,85.9899 95.0535,87.9899 95.5,90.5C 93.5,90.5 92.5,89.5 92.5,87.5C 94.3878,85.0122 95.0545,82.0122 94.5,78.5 Z"/></g>
<g><path style="opacity:1" fill="#86837a" d="M 97.5,80.5 C 97.8333,80.5 98.1667,80.5 98.5,80.5C 99.1667,80.5 99.5,80.8333 99.5,81.5C 99.4431,82.609 99.1098,83.609 98.5,84.5C 98.1667,84.5 97.8333,84.5 97.5,84.5C 97.5,83.1667 97.5,81.8333 97.5,80.5 Z"/></g>
<g><path style="opacity:1" fill="#c9c9c9" d="M 143.5,47.5 C 142.282,48.1614 140.949,48.8281 139.5,49.5C 141.922,50.7108 143.922,51.7108 145.5,52.5C 142.247,54.6265 138.913,56.4599 135.5,58C 136.424,59.15 136.424,60.15 135.5,61C 137.991,61.6259 137.991,62.4593 135.5,63.5C 136.833,64.1667 138.167,64.8333 139.5,65.5C 137.5,66.3333 135.5,67.1667 133.5,68C 135.037,69.1096 135.703,70.6096 135.5,72.5C 138.343,72.0828 141.01,71.0828 143.5,69.5C 142.271,68.7189 140.938,68.2189 139.5,68C 142.146,67.5026 144.813,67.3359 147.5,67.5C 147.5,68.8333 147.5,70.1667 147.5,71.5C 146.167,71.5 144.833,71.5 143.5,71.5C 143.5,74.1667 143.5,76.8333 143.5,79.5C 137.073,77.7618 134.406,80.0951 135.5,86.5C 140.5,87.0031 140.167,87.3364 134.5,87.5C 134.141,89.7659 134.808,91.5993 136.5,93C 136.167,93.3333 135.833,93.6667 135.5,94C 136.745,94.7914 138.078,95.2914 139.5,95.5C 144.189,101.49 145.189,107.99 142.5,115C 143.67,116.755 145.337,117.755 147.5,118C 143.582,119.156 139.582,119.656 135.5,119.5C 135.5,120.833 135.5,122.167 135.5,123.5C 138.167,123.5 140.833,123.5 143.5,123.5C 143.5,124.833 143.5,126.167 143.5,127.5C 140.833,127.5 138.167,127.5 135.5,127.5C 135.535,135.113 135.202,142.446 134.5,149.5C 129.167,149.5 123.833,149.5 118.5,149.5C 118.637,145.821 117.971,142.321 116.5,139C 117.318,135.458 117.485,131.624 117,127.5C 116.667,128.833 116.333,130.167 116,131.5C 115.667,127.833 115.333,124.167 115,120.5C 113.53,119.733 112.03,119.067 110.5,118.5C 113.391,113.91 112.391,110.243 107.5,107.5C 106.977,104.11 106.143,100.777 105,97.5C 104.623,96.0577 103.79,95.0577 102.5,94.5C 100.833,93.8333 99.1667,93.1667 97.5,92.5C 96.1667,89.8333 96.1667,87.1667 97.5,84.5C 97.8333,84.5 98.1667,84.5 98.5,84.5C 98.3367,86.8568 98.5034,89.1902 99,91.5C 101.562,91.2616 103.896,92.2616 106,94.5C 106.833,93.5 107.667,92.5 108.5,91.5C 108.489,92.4415 108.989,93.1081 110,93.5C 111.597,92.1153 113.43,91.4486 115.5,91.5C 115.5,92.8333 115.5,94.1667 115.5,95.5C 116.833,95.5 118.167,95.5 119.5,95.5C 119.689,91.6518 119.689,87.9851 119.5,84.5C 120.689,83.5713 122.022,83.238 123.5,83.5C 123.5,84.5 123.5,85.5 123.5,86.5C 124.833,86.5 126.167,86.5 127.5,86.5C 127.5,85.1667 127.5,83.8333 127.5,82.5C 122.26,81.5873 122.26,80.5873 127.5,79.5C 125.215,76.2245 123.882,76.2245 123.5,79.5C 122.167,79.5 120.833,79.5 119.5,79.5C 119.5,78.1667 119.5,76.8333 119.5,75.5C 120.833,75.5 122.167,75.5 123.5,75.5C 123.5,74.1667 123.5,72.8333 123.5,71.5C 120.834,71.9342 119.667,70.9342 120,68.5C 120.689,69.3567 121.522,70.0233 122.5,70.5C 124.481,69.8946 124.815,68.8946 123.5,67.5C 124.685,66.147 126.019,64.9803 127.5,64C 126.552,63.5172 125.552,63.3505 124.5,63.5C 124.5,60.8333 124.5,58.1667 124.5,55.5C 123.127,55.6567 121.793,55.49 120.5,55C 122.843,53.254 124.843,53.4206 126.5,55.5C 126.51,52.9888 126.843,50.3221 127.5,47.5C 131.025,47.7854 134.358,47.1187 137.5,45.5C 139.334,46.7545 141.334,47.4211 143.5,47.5 Z"/></g>
<g><path style="opacity:1" fill="#784c3d" d="M 63.5,83.5 C 64.8333,83.5 66.1667,83.5 67.5,83.5C 67.5,83.8333 67.5,84.1667 67.5,84.5C 69.8362,86.0728 69.8362,87.4061 67.5,88.5C 66.2921,87.7659 64.9587,87.4326 63.5,87.5C 63.5,86.1667 63.5,84.8333 63.5,83.5 Z"/></g>
<g><path style="opacity:1" fill="#4b4543" d="M 54.5,64.5 C 55.2679,65.2625 55.7679,66.2625 56,67.5C 56.7202,65.9443 57.8868,64.9443 59.5,64.5C 59.5,65.8333 59.5,67.1667 59.5,68.5C 58.596,69.209 58.2627,70.209 58.5,71.5C 57.5,71.5 56.5,71.5 55.5,71.5C 55.5,72.8333 55.5,74.1667 55.5,75.5C 54.5028,75.4701 53.8361,75.9701 53.5,77C 52.2808,79.384 52.2808,81.7174 53.5,84C 55.6515,84.2649 57.3181,85.2649 58.5,87C 57.5862,88.4064 56.9195,89.9064 56.5,91.5C 53.6737,91.9977 51.3403,93.3311 49.5,95.5C 47.0862,97.2245 44.4196,98.5578 41.5,99.5C 42.4293,98.6851 43.4293,97.8518 44.5,97C 43.552,96.5172 42.552,96.3505 41.5,96.5C 41.5,95.5 41.5,94.5 41.5,93.5C 43.7867,93.2761 45.9534,92.6094 48,91.5C 49.1618,92.1868 50.3284,92.3534 51.5,92C 50.5769,89.9592 50.2436,87.7925 50.5,85.5C 48.2478,86.3331 46.0811,86.3331 44,85.5C 42.6842,82.3117 42.1842,78.9783 42.5,75.5C 44.4832,75.8432 45.8166,75.1765 46.5,73.5C 47.1667,68.1667 47.8333,68.1667 48.5,73.5C 51.838,73.8909 52.838,72.7243 51.5,70C 52.6059,68.1418 53.6059,66.3085 54.5,64.5 Z"/></g>
<g><path style="opacity:1" fill="#322722" d="M 87.5,73.5 C 88.404,74.209 88.7373,75.209 88.5,76.5C 87.5386,78.2646 87.2053,80.2646 87.5,82.5C 86.0687,83.7804 85.4021,85.4471 85.5,87.5C 84.1667,87.5 82.8333,87.5 81.5,87.5C 80.8333,87.5 80.1667,87.5 79.5,87.5C 79.5,87.1667 79.5,86.8333 79.5,86.5C 80.1667,86.5 80.5,86.1667 80.5,85.5C 82.0174,85.4894 83.1841,84.8228 84,83.5C 84.6882,79.9325 85.8548,76.5991 87.5,73.5 Z"/></g>
<g><path style="opacity:1" fill="#5c514f" d="M 46.5,73.5 C 45.8166,75.1765 44.4832,75.8432 42.5,75.5C 42.1842,78.9783 42.6842,82.3117 44,85.5C 46.0811,86.3331 48.2478,86.3331 50.5,85.5C 50.2436,87.7925 50.5769,89.9592 51.5,92C 50.3284,92.3534 49.1618,92.1868 48,91.5C 45.9534,92.6094 43.7867,93.2761 41.5,93.5C 41.4142,92.5041 41.7476,91.6708 42.5,91C 38.1648,91.6754 36.8314,89.8421 38.5,85.5C 39.6651,84.5039 40.3318,83.1705 40.5,81.5C 39.1233,78.5859 39.79,76.2525 42.5,74.5C 43.8333,74.1667 45.1667,73.8333 46.5,73.5 Z"/></g>
<g><path style="opacity:1" fill="#96634b" d="M 67.5,84.5 C 69.2915,84.366 70.9582,84.6993 72.5,85.5C 73.9187,86.4511 75.5853,86.7845 77.5,86.5C 77.5,86.8333 77.5,87.1667 77.5,87.5C 76.1667,87.5 75.5,88.1667 75.5,89.5C 73.5,90.1667 71.5,90.8333 69.5,91.5C 69.1667,91.5 68.8333,91.5 68.5,91.5C 67.8902,90.609 67.5569,89.609 67.5,88.5C 69.8362,87.4061 69.8362,86.0728 67.5,84.5 Z"/></g>
<g><path style="opacity:1" fill="#24252e" d="M 87.5,82.5 C 87.335,85.8499 87.5017,89.1832 88,92.5C 88.3333,91.1667 88.6667,89.8333 89,88.5C 89.3333,90.8333 89.6667,93.1667 90,95.5C 90.3333,95.1667 90.6667,94.8333 91,94.5C 91.381,97.9783 92.5476,101.145 94.5,104C 96.4089,104.448 97.5756,103.615 98,101.5C 98.4966,103.81 98.6633,106.143 98.5,108.5C 98.5,108.833 98.5,109.167 98.5,109.5C 96.2341,109.141 94.4007,109.808 93,111.5C 91.8118,110.437 91.3118,109.103 91.5,107.5C 90.5,107.5 89.5,107.5 88.5,107.5C 86.7207,103.684 85.3873,100.017 84.5,96.5C 83.007,97.1663 81.3403,97.1663 79.5,96.5C 79.5,96.1667 79.5,95.8333 79.5,95.5C 82.7699,93.6268 83.4366,90.9601 81.5,87.5C 82.8333,87.5 84.1667,87.5 85.5,87.5C 85.4021,85.4471 86.0687,83.7804 87.5,82.5 Z"/></g>
<g><path style="opacity:1" fill="#8c8a85" d="M 97.5,84.5 C 96.1667,87.1667 96.1667,89.8333 97.5,92.5C 96.5,92.1667 95.8333,91.5 95.5,90.5C 95.0535,87.9899 95.7202,85.9899 97.5,84.5 Z"/></g>
<g><path style="opacity:1" fill="#261a1f" d="M 79.5,87.5 C 80.1667,87.5 80.8333,87.5 81.5,87.5C 83.4366,90.9601 82.7699,93.6268 79.5,95.5C 78.1667,92.8333 78.1667,90.1667 79.5,87.5 Z"/></g>
<g><path style="opacity:1" fill="#6d4f49" d="M 77.5,86.5 C 78.1667,86.5 78.8333,86.5 79.5,86.5C 79.5,86.8333 79.5,87.1667 79.5,87.5C 78.1667,90.1667 78.1667,92.8333 79.5,95.5C 79.5,95.8333 79.5,96.1667 79.5,96.5C 79.5,96.8333 79.5,97.1667 79.5,97.5C 79.1667,97.5 78.8333,97.5 78.5,97.5C 77.5206,94.3752 77.1872,91.0419 77.5,87.5C 77.5,87.1667 77.5,86.8333 77.5,86.5 Z"/></g>
<g><path style="opacity:1" fill="#635853" d="M 38.5,85.5 C 36.8314,89.8421 38.1648,91.6754 42.5,91C 41.7476,91.6708 41.4142,92.5041 41.5,93.5C 41.5,94.5 41.5,95.5 41.5,96.5C 42.552,96.3505 43.552,96.5172 44.5,97C 43.4293,97.8518 42.4293,98.6851 41.5,99.5C 38.9412,99.3896 36.6079,100.056 34.5,101.5C 35.8114,102.258 36.3114,103.258 36,104.5C 34.3247,105.595 33.158,107.095 32.5,109C 31.2068,109.49 29.8734,109.657 28.5,109.5C 28.7822,108.222 29.4489,107.222 30.5,106.5C 30.9321,105.29 31.5987,104.29 32.5,103.5C 34.3711,100.517 36.3711,97.517 38.5,94.5C 37.675,93.6143 36.675,93.281 35.5,93.5C 35.6287,91.7839 35.962,90.1172 36.5,88.5C 36.5,87.8333 36.5,87.1667 36.5,86.5C 37.1667,86.1667 37.8333,85.8333 38.5,85.5 Z"/></g>
<g><path style="opacity:1" fill="#846557" d="M 63.5,87.5 C 64.9587,87.4326 66.2921,87.7659 67.5,88.5C 67.5569,89.609 67.8902,90.609 68.5,91.5C 68.5,92.8333 68.5,94.1667 68.5,95.5C 66.086,94.0892 64.4194,92.0892 63.5,89.5C 63.5,88.8333 63.5,88.1667 63.5,87.5 Z"/></g>
<g><path style="opacity:1" fill="#ac7c67" d="M 75.5,89.5 C 75.2606,91.4672 75.5939,93.3005 76.5,95C 76.0019,96.1581 75.1685,96.9915 74,97.5C 71.7906,96.1025 70.2906,94.1025 69.5,91.5C 71.5,90.8333 73.5,90.1667 75.5,89.5 Z"/></g>
<g><path style="opacity:1" fill="#312f33" d="M 59.5,91.5 C 59.6621,93.5273 59.4955,95.5273 59,97.5C 57.9354,95.6037 57.1021,95.437 56.5,97C 57.3914,99.2789 58.3914,101.446 59.5,103.5C 57.5,103.5 55.5,103.5 53.5,103.5C 52.897,100.23 50.897,98.2299 47.5,97.5C 48.2427,96.8182 48.9094,96.1515 49.5,95.5C 51.3403,93.3311 53.6737,91.9977 56.5,91.5C 57.5,90.1667 58.5,90.1667 59.5,91.5 Z"/></g>
<g><path style="opacity:1" fill="#2d2928" d="M 88.5,107.5 C 86.1829,106.18 84.1829,104.514 82.5,102.5C 81.8897,100.566 80.8897,98.8993 79.5,97.5C 79.5,97.1667 79.5,96.8333 79.5,96.5C 81.3403,97.1663 83.007,97.1663 84.5,96.5C 85.3873,100.017 86.7207,103.684 88.5,107.5 Z"/></g>
<g><path style="opacity:1" fill="#a58275" d="M 77.5,87.5 C 77.1872,91.0419 77.5206,94.3752 78.5,97.5C 78.5,98.8333 78.5,100.167 78.5,101.5C 77.5,101.5 76.5,101.5 75.5,101.5C 73.8333,100.167 72.1667,98.8333 70.5,97.5C 69.5,97.1667 68.8333,96.5 68.5,95.5C 68.5,94.1667 68.5,92.8333 68.5,91.5C 68.8333,91.5 69.1667,91.5 69.5,91.5C 70.2906,94.1025 71.7906,96.1025 74,97.5C 75.1685,96.9915 76.0019,96.1581 76.5,95C 75.5939,93.3005 75.2606,91.4672 75.5,89.5C 75.5,88.1667 76.1667,87.5 77.5,87.5 Z"/></g>
<g><path style="opacity:1" fill="#6a6667" d="M 97.5,92.5 C 99.1667,93.1667 100.833,93.8333 102.5,94.5C 102.082,95.2216 101.416,95.7216 100.5,96C 101.252,96.6708 101.586,97.5041 101.5,98.5C 98.2206,97.9694 96.8872,95.9694 97.5,92.5 Z"/></g>
<g><path style="opacity:1" fill="#37353b" d="M 88.5,76.5 C 91.758,79.3695 93.0914,83.0361 92.5,87.5C 92.5,89.5 93.5,90.5 95.5,90.5C 95.8333,91.5 96.5,92.1667 97.5,92.5C 96.8872,95.9694 98.2206,97.9694 101.5,98.5C 101.5,98.8333 101.5,99.1667 101.5,99.5C 100.609,100.261 99.9424,101.261 99.5,102.5C 100.937,104.577 101.604,106.91 101.5,109.5C 100.609,108.89 99.609,108.557 98.5,108.5C 98.6633,106.143 98.4966,103.81 98,101.5C 97.5756,103.615 96.4089,104.448 94.5,104C 92.5476,101.145 91.381,97.9783 91,94.5C 90.6667,94.8333 90.3333,95.1667 90,95.5C 89.6667,93.1667 89.3333,90.8333 89,88.5C 88.6667,89.8333 88.3333,91.1667 88,92.5C 87.5017,89.1832 87.335,85.8499 87.5,82.5C 87.2053,80.2646 87.5386,78.2646 88.5,76.5 Z"/></g>
<g><path style="opacity:1" fill="#7c6c60" d="M 36.5,88.5 C 35.962,90.1172 35.6287,91.7839 35.5,93.5C 36.675,93.281 37.675,93.6143 38.5,94.5C 36.3711,97.517 34.3711,100.517 32.5,103.5C 32.2541,97.93 33.5874,92.93 36.5,88.5 Z"/></g>
<g><path style="opacity:1" fill="#8c7568" d="M 78.5,97.5 C 78.8333,97.5 79.1667,97.5 79.5,97.5C 80.8897,98.8993 81.8897,100.566 82.5,102.5C 79.5594,99.8713 78.8927,100.538 80.5,104.5C 80.7678,106.099 80.4345,107.432 79.5,108.5C 78.937,105.705 77.6037,103.372 75.5,101.5C 76.5,101.5 77.5,101.5 78.5,101.5C 78.5,100.167 78.5,98.8333 78.5,97.5 Z"/></g>
<g><path style="opacity:1" fill="#949291" d="M 102.5,94.5 C 103.79,95.0577 104.623,96.0577 105,97.5C 106.143,100.777 106.977,104.11 107.5,107.5C 106.833,107.5 106.167,107.5 105.5,107.5C 105.66,105.801 105.494,104.134 105,102.5C 104.086,103.654 103.253,103.487 102.5,102C 104.857,100.78 104.524,99.9467 101.5,99.5C 101.5,99.1667 101.5,98.8333 101.5,98.5C 101.586,97.5041 101.252,96.6708 100.5,96C 101.416,95.7216 102.082,95.2216 102.5,94.5 Z"/></g>
<g><path style="opacity:1" fill="#c3b3a2" d="M 39.5,71.5 C 38.6076,76.5206 37.6076,81.5206 36.5,86.5C 36.5,87.1667 36.5,87.8333 36.5,88.5C 33.5874,92.93 32.2541,97.93 32.5,103.5C 31.5987,104.29 30.9321,105.29 30.5,106.5C 28.5328,106.261 26.6995,106.594 25,107.5C 24.5026,110.146 24.3359,112.813 24.5,115.5C 23.7659,116.708 23.4326,118.041 23.5,119.5C 22.8333,119.833 22.1667,120.167 21.5,120.5C 21.5,120.167 21.5,119.833 21.5,119.5C 21.6741,117.139 22.0074,114.806 22.5,112.5C 23.3195,109.695 23.8195,106.695 24,103.5C 25.9562,103.784 28.1229,103.784 30.5,103.5C 30.506,98.7847 31.006,94.118 32,89.5C 32.3173,87.6992 32.984,87.3659 34,88.5C 34.499,84.1794 34.6657,79.8461 34.5,75.5C 36.1667,74.1667 37.8333,72.8333 39.5,71.5 Z"/></g>
<g><path style="opacity:1" fill="#545050" d="M 101.5,99.5 C 104.524,99.9467 104.857,100.78 102.5,102C 103.253,103.487 104.086,103.654 105,102.5C 105.494,104.134 105.66,105.801 105.5,107.5C 105.719,108.675 105.386,109.675 104.5,110.5C 103.583,109.873 102.583,109.539 101.5,109.5C 101.604,106.91 100.937,104.577 99.5,102.5C 99.9424,101.261 100.609,100.261 101.5,99.5 Z"/></g>
<g><path style="opacity:1" fill="#35373f" d="M 59.5,91.5 C 60.7251,92.1522 61.3917,93.3189 61.5,95C 61.4411,96.4357 61.1078,97.769 60.5,99C 63.3001,105.002 65.4668,104.835 67,98.5C 68.0113,99.3366 69.1779,99.67 70.5,99.5C 72.759,103.1 75.4257,106.433 78.5,109.5C 78.5,110.5 78.5,111.5 78.5,112.5C 75.0882,108.529 71.5882,104.529 68,100.5C 68.3345,104.105 66.8345,106.439 63.5,107.5C 62.3652,109.707 61.6985,112.04 61.5,114.5C 60.3957,113.003 59.3957,111.336 58.5,109.5C 58.8049,107.484 59.1382,105.484 59.5,103.5C 58.3914,101.446 57.3914,99.2789 56.5,97C 57.1021,95.437 57.9354,95.6037 59,97.5C 59.4955,95.5273 59.6621,93.5273 59.5,91.5 Z"/></g>
<g><path style="opacity:1" fill="#ae8f80" d="M 82.5,102.5 C 84.1829,104.514 86.1829,106.18 88.5,107.5C 91.2546,110.917 93.588,114.583 95.5,118.5C 94.1667,118.5 92.8333,118.5 91.5,118.5C 90.6843,115.535 89.351,112.869 87.5,110.5C 87.4894,108.983 86.8228,107.816 85.5,107C 83.751,106.215 82.0843,105.382 80.5,104.5C 78.8927,100.538 79.5594,99.8713 82.5,102.5 Z"/></g>
<g><path style="opacity:1" fill="#363b47" d="M 53.5,103.5 C 55.5,103.5 57.5,103.5 59.5,103.5C 59.1382,105.484 58.8049,107.484 58.5,109.5C 59.3957,111.336 60.3957,113.003 61.5,114.5C 61.2155,116.415 61.5489,118.081 62.5,119.5C 63.074,123.325 64.2406,126.991 66,130.5C 69.7704,134.488 73.1038,138.821 76,143.5C 76.813,145.436 77.313,147.436 77.5,149.5C 71.5,149.5 65.5,149.5 59.5,149.5C 59.8776,139.835 60.211,130.169 60.5,120.5C 60.1667,118.5 59.8333,116.5 59.5,114.5C 58.1266,114.343 56.7932,114.51 55.5,115C 56.2961,117.74 56.2961,120.573 55.5,123.5C 55.6493,125.32 56.3159,126.82 57.5,128C 56.2986,128.903 55.4652,130.069 55,131.5C 54.7811,130.062 54.2811,128.729 53.5,127.5C 52.6816,129.108 52.0149,130.775 51.5,132.5C 50.3112,133.429 48.9778,133.762 47.5,133.5C 48.383,128.364 48.383,123.364 47.5,118.5C 46.4381,114.771 44.1048,112.438 40.5,111.5C 39.4502,111.095 39.4502,110.429 40.5,109.5C 41.7287,108.719 43.062,108.219 44.5,108C 44.1667,107.667 43.8333,107.333 43.5,107C 44.1905,105.933 44.6905,104.766 45,103.5C 47.853,103.624 50.6863,103.624 53.5,103.5 Z"/></g>
<g><path style="opacity:1" fill="#493d38" d="M 70.5,97.5 C 72.1667,98.8333 73.8333,100.167 75.5,101.5C 77.6037,103.372 78.937,105.705 79.5,108.5C 78.8333,108.5 78.5,108.833 78.5,109.5C 75.4257,106.433 72.759,103.1 70.5,99.5C 70.5,98.8333 70.5,98.1667 70.5,97.5 Z"/></g>
<g><path style="opacity:1" fill="#83756a" d="M 30.5,106.5 C 29.4489,107.222 28.7822,108.222 28.5,109.5C 27.1535,111.537 25.8202,113.537 24.5,115.5C 24.3359,112.813 24.5026,110.146 25,107.5C 26.6995,106.594 28.5328,106.261 30.5,106.5 Z"/></g>
<g><path style="opacity:1" fill="#93807c" d="M 79.5,108.5 C 79.4078,111.4 80.7411,113.067 83.5,113.5C 82.1667,113.5 80.8333,113.5 79.5,113.5C 79.5,112.833 79.1667,112.5 78.5,112.5C 78.5,111.5 78.5,110.5 78.5,109.5C 78.5,108.833 78.8333,108.5 79.5,108.5 Z"/></g>
<g><path style="opacity:1" fill="#c59f8b" d="M 80.5,104.5 C 82.0843,105.382 83.751,106.215 85.5,107C 86.8228,107.816 87.4894,108.983 87.5,110.5C 86.6365,109.537 85.9698,109.537 85.5,110.5C 86.8598,114.907 88.1931,119.24 89.5,123.5C 87.1373,120.451 85.1373,117.118 83.5,113.5C 80.7411,113.067 79.4078,111.4 79.5,108.5C 80.4345,107.432 80.7678,106.099 80.5,104.5 Z"/></g>
<g><path style="opacity:1" fill="#4e4f55" d="M 98.5,108.5 C 99.609,108.557 100.609,108.89 101.5,109.5C 102.993,113.16 104.327,116.827 105.5,120.5C 105.833,120.5 106.167,120.5 106.5,120.5C 107.213,123.594 108.213,126.594 109.5,129.5C 108.542,129.047 107.708,128.381 107,127.5C 106.768,128.737 106.268,129.737 105.5,130.5C 104.918,128.331 104.918,125.998 105.5,123.5C 104.041,123.567 102.708,123.234 101.5,122.5C 101.577,121.25 102.244,120.417 103.5,120C 102.464,116.151 100.797,112.651 98.5,109.5C 98.5,109.167 98.5,108.833 98.5,108.5 Z"/></g>
<g><path style="opacity:1" fill="#403a42" d="M 88.5,107.5 C 89.5,107.5 90.5,107.5 91.5,107.5C 91.3118,109.103 91.8118,110.437 93,111.5C 94.4007,109.808 96.2341,109.141 98.5,109.5C 100.797,112.651 102.464,116.151 103.5,120C 102.244,120.417 101.577,121.25 101.5,122.5C 100.167,122.5 99.5,123.167 99.5,124.5C 98.1667,122.5 96.8333,120.5 95.5,118.5C 93.588,114.583 91.2546,110.917 88.5,107.5 Z"/></g>
<g><path style="opacity:1" fill="#716e6f" d="M 105.5,107.5 C 106.167,107.5 106.833,107.5 107.5,107.5C 107.715,111.052 106.715,113.385 104.5,114.5C 105.348,116.409 105.682,118.409 105.5,120.5C 104.327,116.827 102.993,113.16 101.5,109.5C 102.583,109.539 103.583,109.873 104.5,110.5C 105.386,109.675 105.719,108.675 105.5,107.5 Z"/></g>
<g><path style="opacity:1" fill="#333a48" d="M 78.5,112.5 C 79.1667,112.5 79.5,112.833 79.5,113.5C 78.9569,113.56 78.6236,113.893 78.5,114.5C 79.823,117.683 82.1564,119.35 85.5,119.5C 85.9978,122.487 86.4978,125.487 87,128.5C 87.7083,129.381 88.5416,130.047 89.5,130.5C 89.7214,131.735 90.3881,132.735 91.5,133.5C 93.813,134.273 96.1463,134.94 98.5,135.5C 99.3857,134.675 99.719,133.675 99.5,132.5C 97.901,132.768 96.5676,132.434 95.5,131.5C 98.5983,131.587 98.9316,131.087 96.5,130C 97.5786,129.044 98.7453,128.211 100,127.5C 100.74,126.251 100.573,125.251 99.5,124.5C 99.5,123.167 100.167,122.5 101.5,122.5C 102.708,123.234 104.041,123.567 105.5,123.5C 104.918,125.998 104.918,128.331 105.5,130.5C 106.147,133.556 106.314,136.889 106,140.5C 104.309,136.787 101.475,135.621 97.5,137C 99.8442,137.837 101.844,139.171 103.5,141C 101.009,141.626 101.009,142.459 103.5,143.5C 103.167,143.833 102.833,144.167 102.5,144.5C 100.929,143.691 99.2624,143.357 97.5,143.5C 97.5,145.5 97.5,147.5 97.5,149.5C 92.1667,149.5 86.8333,149.5 81.5,149.5C 75.4895,140.128 69.8228,130.461 64.5,120.5C 64.0431,119.702 63.3764,119.369 62.5,119.5C 61.5489,118.081 61.2155,116.415 61.5,114.5C 61.6985,112.04 62.3652,109.707 63.5,107.5C 66.8345,106.439 68.3345,104.105 68,100.5C 71.5882,104.529 75.0882,108.529 78.5,112.5 Z"/></g>
<g><path style="opacity:1" fill="#a8a4a3" d="M 107.5,107.5 C 112.391,110.243 113.391,113.91 110.5,118.5C 110.062,118.435 109.728,118.601 109.5,119C 111.007,119.837 111.507,121.004 111,122.5C 109.67,121.418 108.17,120.751 106.5,120.5C 106.167,120.5 105.833,120.5 105.5,120.5C 105.682,118.409 105.348,116.409 104.5,114.5C 106.715,113.385 107.715,111.052 107.5,107.5 Z"/></g>
<g><path style="opacity:1" fill="#3e393a" d="M 79.5,113.5 C 80.8333,113.5 82.1667,113.5 83.5,113.5C 85.1373,117.118 87.1373,120.451 89.5,123.5C 89.5,123.833 89.5,124.167 89.5,124.5C 89.7706,126.43 90.7706,127.764 92.5,128.5C 92.8333,129.167 93.1667,129.833 93.5,130.5C 92.1667,130.5 90.8333,130.5 89.5,130.5C 88.5416,130.047 87.7083,129.381 87,128.5C 86.4978,125.487 85.9978,122.487 85.5,119.5C 82.1564,119.35 79.823,117.683 78.5,114.5C 78.6236,113.893 78.9569,113.56 79.5,113.5 Z"/></g>
<g><path style="opacity:1" fill="#3e4047" d="M 40.5,111.5 C 44.1048,112.438 46.4381,114.771 47.5,118.5C 48.383,123.364 48.383,128.364 47.5,133.5C 46.1758,136.147 46.1758,138.814 47.5,141.5C 46.8863,144.345 45.8863,147.012 44.5,149.5C 40.1667,149.5 35.8333,149.5 31.5,149.5C 32.9132,139.555 33.5799,129.555 33.5,119.5C 35.924,119.808 38.2573,119.474 40.5,118.5C 39.3284,116.177 39.3284,113.844 40.5,111.5 Z"/></g>
<g><path style="opacity:1" fill="#d4ab92" d="M 87.5,110.5 C 89.351,112.869 90.6843,115.535 91.5,118.5C 92.8333,118.5 94.1667,118.5 95.5,118.5C 95.162,121.157 95.8287,123.49 97.5,125.5C 94.5647,126.898 91.8981,126.565 89.5,124.5C 89.5,124.167 89.5,123.833 89.5,123.5C 88.1931,119.24 86.8598,114.907 85.5,110.5C 85.9698,109.537 86.6365,109.537 87.5,110.5 Z"/></g>
<g><path style="opacity:1" fill="#bfbfc0" d="M 110.5,118.5 C 112.03,119.067 113.53,119.733 115,120.5C 115.333,124.167 115.667,127.833 116,131.5C 116.333,130.167 116.667,128.833 117,127.5C 117.485,131.624 117.318,135.458 116.5,139C 117.971,142.321 118.637,145.821 118.5,149.5C 117.833,149.5 117.167,149.5 116.5,149.5C 116.293,143.614 114.626,138.281 111.5,133.5C 111.771,131.62 111.104,130.287 109.5,129.5C 108.213,126.594 107.213,123.594 106.5,120.5C 108.17,120.751 109.67,121.418 111,122.5C 111.507,121.004 111.007,119.837 109.5,119C 109.728,118.601 110.062,118.435 110.5,118.5 Z"/></g>
<g><path style="opacity:1" fill="#ad9389" d="M 95.5,118.5 C 96.8333,120.5 98.1667,122.5 99.5,124.5C 98.335,127.59 96.0017,128.924 92.5,128.5C 90.7706,127.764 89.7706,126.43 89.5,124.5C 91.8981,126.565 94.5647,126.898 97.5,125.5C 95.8287,123.49 95.162,121.157 95.5,118.5 Z"/></g>
<g><path style="opacity:1" fill="#46464f" d="M 49.5,95.5 C 48.9094,96.1515 48.2427,96.8182 47.5,97.5C 50.897,98.2299 52.897,100.23 53.5,103.5C 50.6863,103.624 47.853,103.624 45,103.5C 44.6905,104.766 44.1905,105.933 43.5,107C 43.8333,107.333 44.1667,107.667 44.5,108C 43.062,108.219 41.7287,108.719 40.5,109.5C 39.4502,110.429 39.4502,111.095 40.5,111.5C 39.3284,113.844 39.3284,116.177 40.5,118.5C 38.2573,119.474 35.924,119.808 33.5,119.5C 33.5799,129.555 32.9132,139.555 31.5,149.5C 29.5,149.5 27.5,149.5 25.5,149.5C 26.8672,144.048 28.2005,138.548 29.5,133C 28.4843,130.824 26.8176,129.657 24.5,129.5C 24.1412,127.234 24.8078,125.401 26.5,124C 24.8934,122.951 24.2267,121.451 24.5,119.5C 25.9778,119.762 27.3112,119.429 28.5,118.5C 29.5853,116.123 30.7519,113.789 32,111.5C 35.4319,107.673 38.5986,103.673 41.5,99.5C 44.4196,98.5578 47.0862,97.2245 49.5,95.5 Z"/></g>
<g><path style="opacity:1" fill="#ceced2" d="M 149.5,83.5 C 149.5,105.5 149.5,127.5 149.5,149.5C 144.5,149.5 139.5,149.5 134.5,149.5C 135.202,142.446 135.535,135.113 135.5,127.5C 138.167,127.5 140.833,127.5 143.5,127.5C 143.5,126.167 143.5,124.833 143.5,123.5C 140.833,123.5 138.167,123.5 135.5,123.5C 135.5,122.167 135.5,120.833 135.5,119.5C 139.582,119.656 143.582,119.156 147.5,118C 145.337,117.755 143.67,116.755 142.5,115C 145.189,107.99 144.189,101.49 139.5,95.5C 142.613,95.9354 143.279,94.9354 141.5,92.5C 141.824,90.4311 142.658,90.0977 144,91.5C 144.72,89.8876 144.554,88.3876 143.5,87C 148.833,86 148.833,85 143.5,84C 145.473,83.5045 147.473,83.3379 149.5,83.5 Z"/></g>
<g><path style="opacity:1" fill="#585157" d="M 99.5,124.5 C 100.573,125.251 100.74,126.251 100,127.5C 98.7453,128.211 97.5786,129.044 96.5,130C 98.9316,131.087 98.5983,131.587 95.5,131.5C 95.1583,130.662 94.4916,130.328 93.5,130.5C 93.1667,129.833 92.8333,129.167 92.5,128.5C 96.0017,128.924 98.335,127.59 99.5,124.5 Z"/></g>
<g><path style="opacity:1" fill="#4d4b50" d="M 41.5,99.5 C 38.5986,103.673 35.4319,107.673 32,111.5C 30.7519,113.789 29.5853,116.123 28.5,118.5C 27.3112,119.429 25.9778,119.762 24.5,119.5C 24.2267,121.451 24.8934,122.951 26.5,124C 24.8078,125.401 24.1412,127.234 24.5,129.5C 26.8176,129.657 28.4843,130.824 29.5,133C 28.2005,138.548 26.8672,144.048 25.5,149.5C 24.1667,149.5 22.8333,149.5 21.5,149.5C 23.1624,139.593 23.8291,129.593 23.5,119.5C 23.4326,118.041 23.7659,116.708 24.5,115.5C 25.8202,113.537 27.1535,111.537 28.5,109.5C 29.8734,109.657 31.2068,109.49 32.5,109C 33.158,107.095 34.3247,105.595 36,104.5C 36.3114,103.258 35.8114,102.258 34.5,101.5C 36.6079,100.056 38.9412,99.3896 41.5,99.5 Z"/></g>
<g><path style="opacity:1" fill="#242a38" d="M 62.5,119.5 C 63.3764,119.369 64.0431,119.702 64.5,120.5C 69.8228,130.461 75.4895,140.128 81.5,149.5C 80.1667,149.5 78.8333,149.5 77.5,149.5C 77.313,147.436 76.813,145.436 76,143.5C 73.1038,138.821 69.7704,134.488 66,130.5C 64.2406,126.991 63.074,123.325 62.5,119.5 Z"/></g>
<g><path style="opacity:1" fill="#292730" d="M 89.5,130.5 C 90.8333,130.5 92.1667,130.5 93.5,130.5C 94.4916,130.328 95.1583,130.662 95.5,131.5C 96.5676,132.434 97.901,132.768 99.5,132.5C 99.719,133.675 99.3857,134.675 98.5,135.5C 96.1463,134.94 93.813,134.273 91.5,133.5C 90.3881,132.735 89.7214,131.735 89.5,130.5 Z"/></g>
<g><path style="opacity:1" fill="#e1d4b9" d="M 17.5,101.5 C 19.4526,105.069 21.1192,108.736 22.5,112.5C 22.0074,114.806 21.6741,117.139 21.5,119.5C 19.9069,120.348 18.7403,121.681 18,123.5C 17.5355,127.393 16.3688,131.06 14.5,134.5C 13.675,135.386 12.675,135.719 11.5,135.5C 11.5,136.833 11.5,138.167 11.5,139.5C 12.5,139.5 13.5,139.5 14.5,139.5C 14.5,140.5 14.5,141.5 14.5,142.5C 9.547,143.329 4.547,143.663 -0.5,143.5C -0.5,138.167 -0.5,132.833 -0.5,127.5C 2.09015,127.708 4.75681,127.375 7.5,126.5C 7.5,124.167 7.5,121.833 7.5,119.5C 8.93047,119.421 10.2638,119.754 11.5,120.5C 12.8333,119.5 14.1667,118.5 15.5,117.5C 12.8333,116.167 12.8333,114.833 15.5,113.5C 14.3576,111.883 13.691,110.05 13.5,108C 13.3335,104.761 14.6668,102.594 17.5,101.5 Z"/></g>
<g><path style="opacity:1" fill="#dcceb9" d="M 21.5,119.5 C 21.5,119.833 21.5,120.167 21.5,120.5C 21.5,121.167 21.5,121.833 21.5,122.5C 20.3995,124.277 19.5662,126.277 19,128.5C 18.4231,135.5 17.9231,142.5 17.5,149.5C 11.5,149.5 5.5,149.5 -0.5,149.5C -0.5,147.5 -0.5,145.5 -0.5,143.5C 4.547,143.663 9.547,143.329 14.5,142.5C 14.5,141.5 14.5,140.5 14.5,139.5C 13.5,139.5 12.5,139.5 11.5,139.5C 11.5,138.167 11.5,136.833 11.5,135.5C 12.675,135.719 13.675,135.386 14.5,134.5C 16.3688,131.06 17.5355,127.393 18,123.5C 18.7403,121.681 19.9069,120.348 21.5,119.5 Z"/></g>
<g><path style="opacity:1" fill="#313540" d="M 60.5,120.5 C 59.8826,120.389 59.3826,120.056 59,119.5C 58.7348,125.588 57.9015,131.588 56.5,137.5C 55.7492,136.624 55.2492,135.624 55,134.5C 54.0463,139.72 52.5463,144.72 50.5,149.5C 48.5,149.5 46.5,149.5 44.5,149.5C 45.8863,147.012 46.8863,144.345 47.5,141.5C 46.1758,138.814 46.1758,136.147 47.5,133.5C 48.9778,133.762 50.3112,133.429 51.5,132.5C 52.0149,130.775 52.6816,129.108 53.5,127.5C 54.2811,128.729 54.7811,130.062 55,131.5C 55.4652,130.069 56.2986,128.903 57.5,128C 56.3159,126.82 55.6493,125.32 55.5,123.5C 56.2961,120.573 56.2961,117.74 55.5,115C 56.7932,114.51 58.1266,114.343 59.5,114.5C 59.8333,116.5 60.1667,118.5 60.5,120.5 Z"/></g>
<g><path style="opacity:1" fill="#545654" d="M 23.5,119.5 C 23.8291,129.593 23.1624,139.593 21.5,149.5C 20.8333,149.5 20.1667,149.5 19.5,149.5C 19.8909,140.476 20.5576,131.476 21.5,122.5C 21.5,121.833 21.5,121.167 21.5,120.5C 22.1667,120.167 22.8333,119.833 23.5,119.5 Z"/></g>
<g><path style="opacity:1" fill="#565a61" d="M 111.5,133.5 C 114.626,138.281 116.293,143.614 116.5,149.5C 115.833,149.5 115.167,149.5 114.5,149.5C 113.505,144.176 112.505,138.843 111.5,133.5 Z"/></g>
<g><path style="opacity:1" fill="#272c37" d="M 60.5,120.5 C 60.211,130.169 59.8776,139.835 59.5,149.5C 56.5,149.5 53.5,149.5 50.5,149.5C 52.5463,144.72 54.0463,139.72 55,134.5C 55.2492,135.624 55.7492,136.624 56.5,137.5C 57.9015,131.588 58.7348,125.588 59,119.5C 59.3826,120.056 59.8826,120.389 60.5,120.5 Z"/></g>
<g><path style="opacity:1" fill="#6d675d" d="M 21.5,122.5 C 20.5576,131.476 19.8909,140.476 19.5,149.5C 18.8333,149.5 18.1667,149.5 17.5,149.5C 17.9231,142.5 18.4231,135.5 19,128.5C 19.5662,126.277 20.3995,124.277 21.5,122.5 Z"/></g>
<g><path style="opacity:1" fill="#39414d" d="M 109.5,129.5 C 111.104,130.287 111.771,131.62 111.5,133.5C 112.505,138.843 113.505,144.176 114.5,149.5C 108.833,149.5 103.167,149.5 97.5,149.5C 97.5,147.5 97.5,145.5 97.5,143.5C 99.2624,143.357 100.929,143.691 102.5,144.5C 102.833,144.167 103.167,143.833 103.5,143.5C 101.009,142.459 101.009,141.626 103.5,141C 101.844,139.171 99.8442,137.837 97.5,137C 101.475,135.621 104.309,136.787 106,140.5C 106.314,136.889 106.147,133.556 105.5,130.5C 106.268,129.737 106.768,128.737 107,127.5C 107.708,128.381 108.542,129.047 109.5,129.5 Z"/></g>
</svg>
