<?xml version="1.0" encoding="UTF-8"?>
<!DOCTYPE svg PUBLIC "-//W3C//DTD SVG 1.1//EN" "http://www.w3.org/Graphics/SVG/1.1/DTD/svg11.dtd">
<svg xmlns="http://www.w3.org/2000/svg" version="1.1" width="512px" height="512px" style="shape-rendering:geometricPrecision; text-rendering:geometricPrecision; image-rendering:optimizeQuality; fill-rule:evenodd; clip-rule:evenodd" xmlns:xlink="http://www.w3.org/1999/xlink">
<g><path style="opacity:0.993" fill="#fe0000" d="M 232.5,-0.5 C 247.833,-0.5 263.167,-0.5 278.5,-0.5C 368.144,10.3879 435.644,54.7213 481,132.5C 497.695,163.971 507.861,197.304 511.5,232.5C 511.5,247.833 511.5,263.167 511.5,278.5C 510.323,287.914 508.656,297.247 506.5,306.5C 506.672,305.508 506.338,304.842 505.5,304.5C 501.167,299.5 496.5,294.833 491.5,290.5C 485.5,283.833 479.167,277.5 472.5,271.5C 466.833,265.167 460.833,259.167 454.5,253.5C 443.833,242.167 432.833,231.167 421.5,220.5C 408.448,206.447 394.782,193.114 380.5,180.5C 372.476,169.141 361.476,162.308 347.5,160C 285.5,159.333 223.5,159.333 161.5,160C 139.018,166.125 125.518,180.625 121,203.5C 120.333,237.833 120.333,272.167 121,306.5C 123.532,322.587 131.366,335.254 144.5,344.5C 157.5,358.167 170.833,371.5 184.5,384.5C 190.833,391.5 197.5,398.167 204.5,404.5C 209.5,410.167 214.833,415.5 220.5,420.5C 225.167,425.833 230.167,430.833 235.5,435.5C 240.5,441.167 245.833,446.5 251.5,451.5C 257.833,458.5 264.5,465.167 271.5,471.5C 277.5,478.167 283.833,484.5 290.5,490.5C 294.833,495.5 299.5,500.167 304.5,504.5C 304.833,505.5 305.5,506.167 306.5,506.5C 297.247,508.656 287.914,510.323 278.5,511.5C 263.167,511.5 247.833,511.5 232.5,511.5C 142.856,500.612 75.3562,456.279 30,378.5C 13.3053,347.029 3.1386,313.696 -0.5,278.5C -0.5,263.167 -0.5,247.833 -0.5,232.5C 10.3875,142.857 54.7208,75.3573 132.5,30C 163.971,13.3053 197.304,3.1386 232.5,-0.5 Z"/></g>
<g><path style="opacity:1" fill="#fffefe" d="M 380.5,180.5 C 385.507,187.34 388.673,195.007 390,203.5C 390.5,219.497 390.667,235.497 390.5,251.5C 390.667,269.836 390.5,288.17 390,306.5C 388.829,311.185 387.662,315.852 386.5,320.5C 383.68,326.178 380.18,331.511 376,336.5C 371.206,340.803 366.039,344.47 360.5,347.5C 353.716,349.946 346.716,351.279 339.5,351.5C 280.166,351.667 220.832,351.5 161.5,351C 155.625,349.32 149.959,347.154 144.5,344.5C 131.366,335.254 123.532,322.587 121,306.5C 120.333,272.167 120.333,237.833 121,203.5C 125.518,180.625 139.018,166.125 161.5,160C 223.5,159.333 285.5,159.333 347.5,160C 361.476,162.308 372.476,169.141 380.5,180.5 Z"/></g>
<g><path style="opacity:1" fill="#d11212" d="M 380.5,180.5 C 394.782,193.114 408.448,206.447 421.5,220.5C 411.527,231.14 401.194,241.473 390.5,251.5C 390.667,235.497 390.5,219.497 390,203.5C 388.673,195.007 385.507,187.34 380.5,180.5 Z"/></g>
<g><path style="opacity:1" fill="#d02e26" d="M 243.5,228.5 C 235.868,235.631 228.368,242.964 221,250.5C 220.501,256.491 220.334,262.491 220.5,268.5C 220.5,277.833 220.5,287.167 220.5,296.5C 219.171,269.33 219.171,241.997 220.5,214.5C 228.397,218.941 236.064,223.608 243.5,228.5 Z"/></g>
<g><path style="opacity:1" fill="#d61211" d="M 243.5,228.5 C 248.024,230.043 252.024,232.377 255.5,235.5C 254.761,235.369 254.094,235.536 253.5,236C 242.632,247.035 231.632,257.869 220.5,268.5C 220.334,262.491 220.501,256.491 221,250.5C 228.368,242.964 235.868,235.631 243.5,228.5 Z"/></g>
<g><path style="opacity:1" fill="#db0e0d" d="M 421.5,220.5 C 432.833,231.167 443.833,242.167 454.5,253.5C 432.45,276.551 409.783,298.884 386.5,320.5C 387.662,315.852 388.829,311.185 390,306.5C 390.5,288.17 390.667,269.836 390.5,251.5C 401.194,241.473 411.527,231.14 421.5,220.5 Z"/></g>
<g><path style="opacity:1" fill="#e70c0b" d="M 255.5,235.5 C 262.332,238.412 268.666,242.079 274.5,246.5C 260.586,258.911 247.086,271.911 234,285.5C 233.53,286.577 233.697,287.577 234.5,288.5C 229.833,291.167 225.167,293.833 220.5,296.5C 220.5,287.167 220.5,277.833 220.5,268.5C 231.632,257.869 242.632,247.035 253.5,236C 254.094,235.536 254.761,235.369 255.5,235.5 Z"/></g>
<g><path style="opacity:1" fill="#f5110c" d="M 274.5,246.5 C 280.103,248.969 285.436,251.969 290.5,255.5C 271.816,266.527 253.149,277.527 234.5,288.5C 233.697,287.577 233.53,286.577 234,285.5C 247.086,271.911 260.586,258.911 274.5,246.5 Z"/></g>
<g><path style="opacity:1" fill="#e40b0a" d="M 454.5,253.5 C 460.833,259.167 466.833,265.167 472.5,271.5C 406.118,338.882 339.118,405.549 271.5,471.5C 264.5,465.167 257.833,458.5 251.5,451.5C 253.017,451.511 254.184,452.177 255,453.5C 290.368,418.299 325.535,382.965 360.5,347.5C 366.039,344.47 371.206,340.803 376,336.5C 380.18,331.511 383.68,326.178 386.5,320.5C 409.783,298.884 432.45,276.551 454.5,253.5 Z"/></g>
<g><path style="opacity:1" fill="#ea0707" d="M 472.5,271.5 C 479.167,277.5 485.5,283.833 491.5,290.5C 425.118,357.882 358.118,424.549 290.5,490.5C 283.833,484.5 277.5,478.167 271.5,471.5C 339.118,405.549 406.118,338.882 472.5,271.5 Z"/></g>
<g><path style="opacity:1" fill="#f00505" d="M 491.5,290.5 C 496.5,294.833 501.167,299.5 505.5,304.5C 439.118,371.882 372.118,438.549 304.5,504.5C 299.5,500.167 294.833,495.5 290.5,490.5C 358.118,424.549 425.118,357.882 491.5,290.5 Z"/></g>
<g><path style="opacity:0.996" fill="#f60303" d="M 505.5,304.5 C 506.338,304.842 506.672,305.508 506.5,306.5C 504.189,320.76 500.189,334.427 494.5,347.5C 493.442,348.6 492.608,349.934 492,351.5C 443.299,398.031 395.133,445.697 347.5,494.5C 334.427,500.189 320.76,504.189 306.5,506.5C 305.5,506.167 304.833,505.5 304.5,504.5C 372.118,438.549 439.118,371.882 505.5,304.5 Z"/></g>
<g><path style="opacity:0.956" fill="#fb0101" d="M 494.5,347.5 C 472.137,406.039 433.47,450.539 378.5,481C 368.602,486.619 358.268,491.119 347.5,494.5C 395.133,445.697 443.299,398.031 492,351.5C 492.608,349.934 493.442,348.6 494.5,347.5 Z"/></g>
<g><path style="opacity:1" fill="#dd0d0d" d="M 360.5,347.5 C 325.535,382.965 290.368,418.299 255,453.5C 254.184,452.177 253.017,451.511 251.5,451.5C 245.833,446.5 240.5,441.167 235.5,435.5C 264.117,408.55 292.117,380.884 319.5,352.5C 326.354,352.824 333.021,352.491 339.5,351.5C 346.716,351.279 353.716,349.946 360.5,347.5 Z"/></g>
<g><path style="opacity:1" fill="#c8221f" d="M 144.5,344.5 C 149.959,347.154 155.625,349.32 161.5,351C 220.832,351.5 280.166,351.667 339.5,351.5C 333.021,352.491 326.354,352.824 319.5,352.5C 309.5,352.5 299.5,352.5 289.5,352.5C 278.5,352.5 267.5,352.5 256.5,352.5C 243.829,352.333 231.162,352.5 218.5,353C 208.167,363.333 197.833,373.667 187.5,384C 186.552,384.483 185.552,384.649 184.5,384.5C 170.833,371.5 157.5,358.167 144.5,344.5 Z"/></g>
<g><path style="opacity:1" fill="#cb1414" d="M 256.5,352.5 C 239.5,370.167 222.167,387.5 204.5,404.5C 197.5,398.167 190.833,391.5 184.5,384.5C 185.552,384.649 186.552,384.483 187.5,384C 197.833,373.667 208.167,363.333 218.5,353C 231.162,352.5 243.829,352.333 256.5,352.5 Z"/></g>
<g><path style="opacity:1" fill="#d11111" d="M 256.5,352.5 C 267.5,352.5 278.5,352.5 289.5,352.5C 267.117,375.884 244.117,398.551 220.5,420.5C 214.833,415.5 209.5,410.167 204.5,404.5C 222.167,387.5 239.5,370.167 256.5,352.5 Z"/></g>
<g><path style="opacity:1" fill="#d70f0f" d="M 289.5,352.5 C 299.5,352.5 309.5,352.5 319.5,352.5C 292.117,380.884 264.117,408.55 235.5,435.5C 230.167,430.833 225.167,425.833 220.5,420.5C 244.117,398.551 267.117,375.884 289.5,352.5 Z"/></g>
</svg>
